<?xml version="1.0" encoding="UTF-8" standalone="no"?>
<svg width="182px" height="168px" viewBox="0 0 182 168" version="1.1" xmlns="http://www.w3.org/2000/svg" xmlns:xlink="http://www.w3.org/1999/xlink" xmlns:sketch="http://www.bohemiancoding.com/sketch/ns">
    <!-- Generator: Sketch 3.3.2 (12043) - http://www.bohemiancoding.com/sketch -->
    <title>Fox</title>
    <desc>Created with Sketch.</desc>
    <defs>
        <linearGradient x1="0%" y1="44.618983%" x2="95.6542588%" y2="34.2796899%" id="linearGradient-1">
            <stop stop-color="#FF5722" offset="0%"></stop>
            <stop stop-color="#FFA000" offset="100%"></stop>
        </linearGradient>
        <filter x="-50%" y="-50%" width="200%" height="200%" filterUnits="objectBoundingBox" id="filter-2">
            <feOffset dx="2" dy="4" in="SourceAlpha" result="shadowOffsetOuter1"></feOffset>
            <feGaussianBlur stdDeviation="2" in="shadowOffsetOuter1" result="shadowBlurOuter1"></feGaussianBlur>
            <feColorMatrix values="0 0 0 0 0.101960784   0 0 0 0 0.137254902   0 0 0 0 0.494117647  0 0 0 0.137194293 0" in="shadowBlurOuter1" type="matrix" result="shadowMatrixOuter1"></feColorMatrix>
            <feOffset dx="0" dy="-1" in="SourceAlpha" result="shadowOffsetInner1"></feOffset>
            <feGaussianBlur stdDeviation="0" in="shadowOffsetInner1" result="shadowBlurInner1"></feGaussianBlur>
            <feComposite in="shadowBlurInner1" in2="SourceAlpha" operator="arithmetic" k2="-1" k3="1" result="shadowInnerInner1"></feComposite>
            <feColorMatrix values="0 0 0 0 0.697252338   0 0 0 0 0.199354729   0 0 0 0 0.0467145861  0 0 0 0.140146626 0" in="shadowInnerInner1" type="matrix" result="shadowMatrixInner1"></feColorMatrix>
            <feMerge>
                <feMergeNode in="shadowMatrixOuter1"></feMergeNode>
                <feMergeNode in="SourceGraphic"></feMergeNode>
                <feMergeNode in="shadowMatrixInner1"></feMergeNode>
            </feMerge>
        </filter>
    </defs>
    <g id="Page-1" stroke="none" stroke-width="1" fill="none" fill-rule="evenodd" sketch:type="MSPage">
        <g id="MD-App-Icon" sketch:type="MSArtboardGroup" transform="translate(-7.000000, -22.000000)">
            <g id="w/o-earth" sketch:type="MSLayerGroup" transform="translate(8.000000, 10.000000)">
                <g id="Fox" transform="translate(0.000000, 12.353591)" sketch:type="MSShapeGroup">
                    <path d="M64.6918919,57.9668508 C68.4972969,53.2154696 74.2054054,53.2154696 81.8162165,46.5635359 C87.5243243,40.8618785 84.670271,37.0607735 83.7189196,37.0607735 C80.8648656,36.1104972 79.7839303,36.4056832 78.0108104,36.1104972 C69.4486483,36.1104972 65.6432433,35.160221 65.6432432,35.160221 C62.7891893,34.2099448 60.8864865,30.4088398 59.9351352,28.5082873 C58.0324324,39.9116022 56.1297297,44.6629834 64.6918919,57.9668508 Z" id="snout" fill="#FF5722"></path>
                    <path d="M127.481081,19.0055249 C150.313514,38.0110497 145.556757,64.6187845 145.556757,64.6187845 C145.556757,64.6187845 140.8,53.2154696 137.945946,53.2154696 C141.751351,71.2707182 136.994595,89.3259669 136.994595,89.3259669 C136.994595,89.3259669 136.043243,82.6740331 135.091892,82.6740331 C115.113514,142.541436 62.7891892,108.331492 62.7891892,103.58011 C70.4,105.480663 81.8162162,103.58011 87.5243243,100.729282 C93.2324324,97.878453 95.804831,93.8831324 101.794595,93.1270718 C106.551351,93.8831342 105.6,89.3259669 105.6,89.3259669 C102.745946,82.6740331 91.3297297,82.6740331 91.3297297,82.6740331 C84.6702703,82.6740331 84.6702703,85.5248619 77.0594595,87.4254144 C65.6432432,88.3756906 58.9837838,80.7734807 58.9837838,80.7734807 C50.4216216,73.1712707 58.0324324,65.5690608 58.0324324,65.5690608 C61.8378378,65.5690608 65.6432432,68.4198895 65.6432432,68.4198895 C70.4,57.9668508 61.8378378,51.3149171 60.8864865,47.5138122 C55.1783784,23.7569061 73.2540541,12.3535912 73.2540541,12.3535912 C59.9351351,10.4530387 49.4702703,21.8563536 49.4702703,21.8563536 C39.9567568,19.9558011 29.4918919,21.8563536 29.4918919,21.8563536 C20.9297297,17.1049724 20.9297297,9.50276243 19.9783784,5.70165746 C8.56216216,17.1049724 10.4648649,31.359116 11.4162162,36.1104972 C1.9027027,47.5138122 0,64.6187845 0,64.6187845 C0,64.6187845 1.9027027,62.718232 3.80540541,59.8674033 C-9.51351351,152.994475 98.9405405,181.502762 139.848649,142.541436 C127.481081,150.143646 120.821622,148.243094 120.821622,148.243094 C121.102971,148.130681 70.1751803,169.425635 121.660563,147.906188 C173.145946,126.38674 167.437838,106.430939 168.389189,104.530387 C163.632432,115.933702 158.840524,118.161969 158.875676,117.834254 C183.610811,76.0220994 173.145946,52.2651934 173.145946,52.2651934 L169.340541,63.6685083 C175.048649,20.9060773 142.702703,6.6519337 142.702703,6.6519337 C142.702703,6.6519337 143.654054,7.60220994 145.556757,14.2541436 C135.091892,5.70165746 117.967568,1.19674419e-08 117.967568,-5.27509282e-17 C136.994595,11.4033146 143.654054,27.558011 143.654054,27.558011 C143.654054,27.558011 136.043243,19.9558011 127.481081,19.0055249 Z" id="Fox-Body" fill="url(#linearGradient-1)" filter="url(#filter-2)"></path>
                    <path d="M83.7189189,37.0607735 C82.7675676,36.1104972 78.9621622,36.1104972 78.9621622,36.1104972 C80.8648649,37.0607735 81.8162162,38.0110497 82.7675676,45.6132597 C85.6216216,43.7127072 86.572973,38.0110497 83.7189189,37.0607735 Z" id="nose" fill="#795548"></path>
                </g>
            </g>
        </g>
    </g>
</svg>