<?xml version="1.0" encoding="UTF-8" standalone="no"?>
<svg width="192px" height="192px" viewBox="0 0 192 192" version="1.1" xmlns="http://www.w3.org/2000/svg" xmlns:xlink="http://www.w3.org/1999/xlink" xmlns:sketch="http://www.bohemiancoding.com/sketch/ns">
    <!-- Generator: Sketch 3.3.2 (12043) - http://www.bohemiancoding.com/sketch -->
    <title>Android Studio</title>
    <desc>Created with Sketch.</desc>
    <defs>
        <filter x="-50%" y="-50%" width="200%" height="200%" filterUnits="objectBoundingBox" id="filter-1">
            <feOffset dx="0" dy="4" in="SourceAlpha" result="shadowOffsetOuter1"></feOffset>
            <feGaussianBlur stdDeviation="1" in="shadowOffsetOuter1" result="shadowBlurOuter1"></feGaussianBlur>
            <feColorMatrix values="0 0 0 0 0   0 0 0 0 0   0 0 0 0 0  0 0 0 0.168 0" in="shadowBlurOuter1" type="matrix" result="shadowMatrixOuter1"></feColorMatrix>
            <feOffset dx="0" dy="0" in="SourceAlpha" result="shadowOffsetOuter2"></feOffset>
            <feGaussianBlur stdDeviation="1" in="shadowOffsetOuter2" result="shadowBlurOuter2"></feGaussianBlur>
            <feColorMatrix values="0 0 0 0 0   0 0 0 0 0   0 0 0 0 0  0 0 0 0.084 0" in="shadowBlurOuter2" type="matrix" result="shadowMatrixOuter2"></feColorMatrix>
            <feOffset dx="0" dy="1" in="SourceAlpha" result="shadowOffsetInner1"></feOffset>
            <feGaussianBlur stdDeviation="0" in="shadowOffsetInner1" result="shadowBlurInner1"></feGaussianBlur>
            <feComposite in="shadowBlurInner1" in2="SourceAlpha" operator="arithmetic" k2="-1" k3="1" result="shadowInnerInner1"></feComposite>
            <feColorMatrix values="0 0 0 0 1   0 0 0 0 1   0 0 0 0 1  0 0 0 0.14 0" in="shadowInnerInner1" type="matrix" result="shadowMatrixInner1"></feColorMatrix>
            <feOffset dx="0" dy="-1" in="SourceAlpha" result="shadowOffsetInner2"></feOffset>
            <feGaussianBlur stdDeviation="0" in="shadowOffsetInner2" result="shadowBlurInner2"></feGaussianBlur>
            <feComposite in="shadowBlurInner2" in2="SourceAlpha" operator="arithmetic" k2="-1" k3="1" result="shadowInnerInner2"></feComposite>
            <feColorMatrix values="0 0 0 0 0.109803922   0 0 0 0 0.149019608   0 0 0 0 0.168627451  0 0 0 0.14 0" in="shadowInnerInner2" type="matrix" result="shadowMatrixInner2"></feColorMatrix>
            <feMerge>
                <feMergeNode in="shadowMatrixOuter1"></feMergeNode>
                <feMergeNode in="shadowMatrixOuter2"></feMergeNode>
                <feMergeNode in="SourceGraphic"></feMergeNode>
                <feMergeNode in="shadowMatrixInner1"></feMergeNode>
                <feMergeNode in="shadowMatrixInner2"></feMergeNode>
            </feMerge>
        </filter>
        <path d="M153,77 L153,140.999512 C153,147.627198 147.634886,153 141.009361,153 L12.9906395,153 C6.36839215,153 1,147.625547 1,140.999512 L1,77 C1,60.3437827 6.35815102,44.9390286 15.444814,32.4153768 L4.37283143,21.3433942 C-0.313597275,16.6569655 -0.314738886,9.05990489 4.372583,4.372583 C9.0588745,-0.313708499 16.657825,-0.31273772 21.3433942,4.37283143 L32.4153768,15.444814 C44.9390286,6.35815102 60.3437827,1 77,1 C93.6560352,1 109.060635,6.35803387 121.584213,15.444516 L132.514157,4.51457197 C137.199726,-0.170997177 144.798676,-0.171967955 149.484968,4.51432355 C154.17229,9.20164543 154.171148,16.798706 149.484719,21.4851347 L138.554888,32.414966 C147.641732,44.9386918 153,60.3436006 153,77 Z" id="path-2"></path>
        <linearGradient x1="59.7830026%" y1="85.2426378%" x2="28.7100795%" y2="40.9383067%" id="linearGradient-4">
            <stop stop-color="#1C262B" stop-opacity="0" offset="0%"></stop>
            <stop stop-color="#1C262B" stop-opacity="0.2" offset="100%"></stop>
        </linearGradient>
        <radialGradient cx="0%" cy="0%" fx="0%" fy="0%" r="141.421356%" id="radialGradient-5">
            <stop stop-color="#FFFFFF" stop-opacity="0.2" offset="0%"></stop>
            <stop stop-color="#FFFFFF" stop-opacity="0" offset="100%"></stop>
        </radialGradient>
        <filter x="-50%" y="-50%" width="200%" height="200%" filterUnits="objectBoundingBox" id="filter-6">
            <feOffset dx="0" dy="4" in="SourceAlpha" result="shadowOffsetOuter1"></feOffset>
            <feGaussianBlur stdDeviation="1" in="shadowOffsetOuter1" result="shadowBlurOuter1"></feGaussianBlur>
            <feColorMatrix values="0 0 0 0 0   0 0 0 0 0   0 0 0 0 0  0 0 0 0.168 0" in="shadowBlurOuter1" type="matrix" result="shadowMatrixOuter1"></feColorMatrix>
            <feOffset dx="0" dy="0" in="SourceAlpha" result="shadowOffsetOuter2"></feOffset>
            <feGaussianBlur stdDeviation="1" in="shadowOffsetOuter2" result="shadowBlurOuter2"></feGaussianBlur>
            <feColorMatrix values="0 0 0 0 0   0 0 0 0 0   0 0 0 0 0  0 0 0 0.084 0" in="shadowBlurOuter2" type="matrix" result="shadowMatrixOuter2"></feColorMatrix>
            <feOffset dx="0" dy="-1" in="SourceAlpha" result="shadowOffsetInner1"></feOffset>
            <feGaussianBlur stdDeviation="0" in="shadowOffsetInner1" result="shadowBlurInner1"></feGaussianBlur>
            <feComposite in="shadowBlurInner1" in2="SourceAlpha" operator="arithmetic" k2="-1" k3="1" result="shadowInnerInner1"></feComposite>
            <feColorMatrix values="0 0 0 0 0.109803922   0 0 0 0 0.149019608   0 0 0 0 0.168627451  0 0 0 0.14 0" in="shadowInnerInner1" type="matrix" result="shadowMatrixInner1"></feColorMatrix>
            <feMerge>
                <feMergeNode in="shadowMatrixOuter1"></feMergeNode>
                <feMergeNode in="shadowMatrixOuter2"></feMergeNode>
                <feMergeNode in="SourceGraphic"></feMergeNode>
                <feMergeNode in="shadowMatrixInner1"></feMergeNode>
            </feMerge>
        </filter>
        <path d="M152,76 C152,34.026359 117.973641,0 76,0 C34.026359,0 0,34.026359 0,76 L152,76 Z" id="path-7"></path>
    </defs>
    <g id="Android-Studio" stroke="none" stroke-width="1" fill="none" fill-rule="evenodd" sketch:type="MSPage">
        <g sketch:type="MSArtboardGroup">
            <g sketch:type="MSLayerGroup">
                <g id="Shape-+-Finish-Lighting-+-Tints" transform="translate(19.000000, 19.000000)">
                    <mask id="mask-3" sketch:name="Mask" fill="white">
                        <use xlink:href="#path-2"></use>
                    </mask>
                    <use id="Mask" fill="#A4C739" filter="url(#filter-1)" sketch:type="MSShapeGroup" xlink:href="#path-2"></use>
                    <rect id="Mask-Copy" fill="#EEF7E3" sketch:type="MSShapeGroup" mask="url(#mask-3)" x="1" y="113" width="152" height="28"></rect>
                    <path d="M37.5879011,128.05615 C35.386464,127.423348 33.7844301,126.645727 32.7817513,125.723262 C31.7790725,124.800798 31.2777406,123.662217 31.2777406,122.307487 C31.2777406,120.774502 31.8904796,119.50669 33.1159759,118.504011 C34.3414723,117.501332 35.9345936,117 37.8953877,117 C39.2322928,117 40.4243486,117.258464 41.4715909,117.775401 C42.5188332,118.292338 43.3298768,119.005343 43.904746,119.914439 C44.4796152,120.823534 44.7670455,121.817285 44.7670455,122.895722 L42.1868316,122.895722 C42.1868316,121.719245 41.8125037,120.794567 41.0638369,120.121658 C40.3151701,119.448749 39.2590309,119.112299 37.8953877,119.112299 C36.6297842,119.112299 35.6427174,119.390817 34.9341578,119.947861 C34.2255981,120.504905 33.8713235,121.27807 33.8713235,122.26738 C33.8713235,123.06061 34.2077729,123.731281 34.8806818,124.279412 C35.5535907,124.827543 36.6988555,125.328875 38.3165107,125.783422 C39.9341658,126.23797 41.1997503,126.739302 42.1133021,127.287433 C43.0268539,127.835564 43.704209,128.475041 44.1453877,129.205882 C44.5865664,129.936724 44.8071524,130.796786 44.8071524,131.786096 C44.8071524,133.363644 44.1921853,134.627001 42.9622326,135.576203 C41.7322799,136.525406 40.0879114,137 38.0290775,137 C36.6921725,137 35.4444131,136.743764 34.285762,136.231283 C33.127111,135.718803 32.2336261,135.016939 31.6052807,134.125668 C30.9769354,133.234398 30.6627674,132.222822 30.6627674,131.090909 L33.2429813,131.090909 C33.2429813,132.267386 33.6774689,133.196521 34.5464572,133.878342 C35.4154455,134.560164 36.5763074,134.90107 38.0290775,134.90107 C39.383808,134.90107 40.4221221,134.62478 41.1440508,134.072193 C41.8659795,133.519605 42.2269385,132.766493 42.2269385,131.812834 C42.2269385,130.859175 41.8927172,130.12166 41.2242647,129.600267 C40.5558122,129.078874 39.3437031,128.564174 37.5879011,128.05615 L37.5879011,128.05615 Z M61.5451203,119.379679 L55.2884358,119.379679 L55.2884358,136.73262 L52.7349599,136.73262 L52.7349599,119.379679 L46.4916444,119.379679 L46.4916444,117.26738 L61.5451203,117.26738 L61.5451203,119.379679 Z M78.1360294,117.26738 L78.1360294,130.502674 C78.1271167,132.33869 77.550028,133.840458 76.404746,135.008021 C75.259464,136.175585 73.7064492,136.830659 71.7456551,136.973262 L71.0638369,137 C68.9337015,137 67.2358575,136.425139 65.970254,135.275401 C64.7046505,134.125663 64.0629457,132.543682 64.0451203,130.529412 L64.0451203,117.26738 L66.5852273,117.26738 L66.5852273,130.449198 C66.5852273,131.857405 66.9729239,132.951422 67.7483289,133.731283 C68.5237338,134.511145 69.6288921,134.90107 71.0638369,134.90107 C72.5166071,134.90107 73.6284498,134.513373 74.3993984,133.737968 C75.170347,132.962563 75.5558155,131.870774 75.5558155,130.462567 L75.5558155,117.26738 L78.1360294,117.26738 Z M82.1868316,136.73262 L82.1868316,117.26738 L87.681484,117.26738 C89.3748971,117.26738 90.8722083,117.641707 92.1734626,118.390374 C93.4747168,119.139041 94.4796088,120.204093 95.1881684,121.585561 C95.8967281,122.96703 96.255459,124.553467 96.2643717,126.34492 L96.2643717,127.588235 C96.2643717,129.424252 95.9100971,131.03297 95.2015374,132.414439 C94.4929777,133.795907 93.4814014,134.856503 92.1667781,135.596257 C90.8521547,136.336011 89.3214214,136.714795 87.5745321,136.73262 L82.1868316,136.73262 Z M84.7536765,119.379679 L84.7536765,134.63369 L87.4542112,134.63369 C89.4328307,134.63369 90.9724767,134.018723 92.0731952,132.78877 C93.1739137,131.558817 93.7242647,129.807498 93.7242647,127.534759 L93.7242647,126.398396 C93.7242647,124.188046 93.2051077,122.470149 92.1667781,121.244652 C91.1284485,120.019156 89.6556468,119.397505 87.7483289,119.379679 L84.7536765,119.379679 Z M102.895388,136.73262 L100.328543,136.73262 L100.328543,117.26738 L102.895388,117.26738 L102.895388,136.73262 Z M122.561163,127.628342 C122.561163,129.53566 122.240311,131.200082 121.598596,132.621658 C120.956882,134.043233 120.0478,135.128339 118.871324,135.877005 C117.694847,136.625672 116.322312,137 114.753676,137 C113.220692,137 111.861526,136.623444 110.676136,135.870321 C109.490747,135.117198 108.570525,134.043233 107.915441,132.648396 C107.260358,131.253558 106.923908,129.638155 106.906083,127.802139 L106.906083,126.398396 C106.906083,124.526729 107.231392,122.873447 107.882019,121.438503 C108.532646,120.003558 109.452868,118.905084 110.642714,118.143048 C111.832559,117.381012 113.193954,117 114.726939,117 C116.286661,117 117.661425,117.376556 118.85127,118.129679 C120.041116,118.882802 120.956882,119.974592 121.598596,121.40508 C122.240311,122.835569 122.561163,124.499991 122.561163,126.398396 L122.561163,127.628342 Z M120.007687,126.371658 C120.007687,124.063268 119.544234,122.291896 118.617313,121.057487 C117.690392,119.823078 116.393614,119.205882 114.726939,119.205882 C113.104827,119.205882 111.828102,119.823078 110.896725,121.057487 C109.965347,122.291896 109.486297,124.005337 109.459559,126.197861 L109.459559,127.628342 C109.459559,129.86543 109.929697,131.623434 110.869987,132.902406 C111.810277,134.181379 113.104827,134.820856 114.753676,134.820856 C116.411439,134.820856 117.694848,134.217029 118.603944,133.009358 C119.513039,131.801687 119.980949,130.070421 120.007687,127.815508 L120.007687,126.371658 Z" id="STUDIO" fill="#9FD06A" sketch:type="MSShapeGroup" mask="url(#mask-3)"></path>
                    <path d="M99.0064443,174 L1,77 C1,35.026359 35.026359,1 77,1 C98.2411482,1 117.44703,9.71401235 131.237804,23.7621962 C131.237804,23.7621962 227.90756,120.425789 228.237804,120.762196 C242.285988,134.55297 251,153.758852 251,175 L99,175 C99,174.66616 99.0021525,174.332822 99.0064443,174 L99.0064443,174 Z" id="Long-Shadow" fill="url(#linearGradient-4)" sketch:type="MSShapeGroup" mask="url(#mask-3)"></path>
                    <rect id="Finish-Lighting-+-Tints" fill="url(#radialGradient-5)" sketch:type="MSShapeGroup" mask="url(#mask-3)" x="-19" y="-19" width="192" height="192"></rect>
                </g>
                <g id="Path-+-Oval-4-+-Oval-4-Copy" transform="translate(20.000000, 20.000000)">
                    <mask id="mask-8" sketch:name="Mask" fill="white">
                        <use xlink:href="#path-7"></use>
                    </mask>
                    <use id="Mask" fill="#A4C739" filter="url(#filter-6)" sketch:type="MSShapeGroup" xlink:href="#path-7"></use>
                    <circle id="Oval-4" fill="#FFFFFF" sketch:type="MSShapeGroup" mask="url(#mask-8)" cx="44" cy="44" r="8"></circle>
                    <circle id="Oval-4-Copy" fill="#FFFFFF" sketch:type="MSShapeGroup" mask="url(#mask-8)" cx="108" cy="44" r="8"></circle>
                    <rect id="Finish-Lighting-+-Tints-Copy" fill="url(#radialGradient-5)" sketch:type="MSShapeGroup" mask="url(#mask-8)" x="-20" y="-20" width="192" height="192"></rect>
                </g>
            </g>
        </g>
    </g>
</svg>