<?xml version="1.0" encoding="UTF-8" standalone="no"?>
<svg width="192px" height="192px" viewBox="0 0 192 192" version="1.1" xmlns="http://www.w3.org/2000/svg" xmlns:xlink="http://www.w3.org/1999/xlink" xmlns:sketch="http://www.bohemiancoding.com/sketch/ns">
    <!-- Generator: Sketch 3.3.2 (12043) - http://www.bohemiancoding.com/sketch -->
    <title>Archive Manager</title>
    <desc>Created with Sketch.</desc>
    <defs>
        <filter x="-50%" y="-50%" width="200%" height="200%" filterUnits="objectBoundingBox" id="filter-1">
            <feOffset dx="0" dy="4" in="SourceAlpha" result="shadowOffsetOuter1"></feOffset>
            <feGaussianBlur stdDeviation="1" in="shadowOffsetOuter1" result="shadowBlurOuter1"></feGaussianBlur>
            <feColorMatrix values="0 0 0 0 0   0 0 0 0 0   0 0 0 0 0  0 0 0 0.168 0" in="shadowBlurOuter1" type="matrix" result="shadowMatrixOuter1"></feColorMatrix>
            <feOffset dx="0" dy="0" in="SourceAlpha" result="shadowOffsetOuter2"></feOffset>
            <feGaussianBlur stdDeviation="1" in="shadowOffsetOuter2" result="shadowBlurOuter2"></feGaussianBlur>
            <feColorMatrix values="0 0 0 0 0   0 0 0 0 0   0 0 0 0 0  0 0 0 0.084 0" in="shadowBlurOuter2" type="matrix" result="shadowMatrixOuter2"></feColorMatrix>
            <feMerge>
                <feMergeNode in="shadowMatrixOuter1"></feMergeNode>
                <feMergeNode in="shadowMatrixOuter2"></feMergeNode>
                <feMergeNode in="SourceGraphic"></feMergeNode>
            </feMerge>
        </filter>
        <path d="M0,11.9933533 C0,5.36960716 5.37757191,0 11.9987723,0 L116.001228,0 C122.627967,0 128,5.36342952 128,11.9933533 L128,164.006647 C128,170.630393 122.622428,176 116.001228,176 L11.9987723,176 C5.37203335,176 0,170.63657 0,164.006647 L0,11.9933533 Z M80,0 L115.995935,0 C122.625597,0 128,5.36649111 128,12.0040647 L128,48 L80,0 Z" id="path-2"></path>
        <linearGradient x1="50%" y1="90.8294203%" x2="0%" y2="42.2355691%" id="linearGradient-4">
            <stop stop-color="#000000" stop-opacity="0" offset="0%"></stop>
            <stop stop-color="#2F1D1A" stop-opacity="0.2" offset="100%"></stop>
        </linearGradient>
        <filter x="-50%" y="-50%" width="200%" height="200%" filterUnits="objectBoundingBox" id="filter-5">
            <feOffset dx="0" dy="4" in="SourceAlpha" result="shadowOffsetOuter1"></feOffset>
            <feGaussianBlur stdDeviation="1" in="shadowOffsetOuter1" result="shadowBlurOuter1"></feGaussianBlur>
            <feColorMatrix values="0 0 0 0 0   0 0 0 0 0   0 0 0 0 0  0 0 0 0.168 0" in="shadowBlurOuter1" type="matrix" result="shadowMatrixOuter1"></feColorMatrix>
            <feOffset dx="0" dy="0" in="SourceAlpha" result="shadowOffsetOuter2"></feOffset>
            <feGaussianBlur stdDeviation="1" in="shadowOffsetOuter2" result="shadowBlurOuter2"></feGaussianBlur>
            <feColorMatrix values="0 0 0 0 0   0 0 0 0 0   0 0 0 0 0  0 0 0 0.084 0" in="shadowBlurOuter2" type="matrix" result="shadowMatrixOuter2"></feColorMatrix>
            <feMerge>
                <feMergeNode in="shadowMatrixOuter1"></feMergeNode>
                <feMergeNode in="shadowMatrixOuter2"></feMergeNode>
                <feMergeNode in="SourceGraphic"></feMergeNode>
            </feMerge>
        </filter>
        <filter x="-50%" y="-50%" width="200%" height="200%" filterUnits="objectBoundingBox" id="filter-6">
            <feOffset dx="0" dy="-1" in="SourceAlpha" result="shadowOffsetInner1"></feOffset>
            <feGaussianBlur stdDeviation="0" in="shadowOffsetInner1" result="shadowBlurInner1"></feGaussianBlur>
            <feComposite in="shadowBlurInner1" in2="SourceAlpha" operator="arithmetic" k2="-1" k3="1" result="shadowInnerInner1"></feComposite>
            <feColorMatrix values="0 0 0 0 0.184313725   0 0 0 0 0.11372549   0 0 0 0 0.101960784  0 0 0 0.14 0" in="shadowInnerInner1" type="matrix" result="shadowMatrixInner1"></feColorMatrix>
            <feMerge>
                <feMergeNode in="SourceGraphic"></feMergeNode>
                <feMergeNode in="shadowMatrixInner1"></feMergeNode>
            </feMerge>
        </filter>
        <filter x="-50%" y="-50%" width="200%" height="200%" filterUnits="objectBoundingBox" id="filter-7">
            <feOffset dx="0" dy="1" in="SourceAlpha" result="shadowOffsetInner1"></feOffset>
            <feGaussianBlur stdDeviation="0" in="shadowOffsetInner1" result="shadowBlurInner1"></feGaussianBlur>
            <feComposite in="shadowBlurInner1" in2="SourceAlpha" operator="arithmetic" k2="-1" k3="1" result="shadowInnerInner1"></feComposite>
            <feColorMatrix values="0 0 0 0 1   0 0 0 0 1   0 0 0 0 1  0 0 0 0.14 0" in="shadowInnerInner1" type="matrix" result="shadowMatrixInner1"></feColorMatrix>
            <feOffset dx="0" dy="-1" in="SourceAlpha" result="shadowOffsetInner2"></feOffset>
            <feGaussianBlur stdDeviation="0" in="shadowOffsetInner2" result="shadowBlurInner2"></feGaussianBlur>
            <feComposite in="shadowBlurInner2" in2="SourceAlpha" operator="arithmetic" k2="-1" k3="1" result="shadowInnerInner2"></feComposite>
            <feColorMatrix values="0 0 0 0 0.239215686   0 0 0 0 0.152941176   0 0 0 0 0.133333333  0 0 0 0.14 0" in="shadowInnerInner2" type="matrix" result="shadowMatrixInner2"></feColorMatrix>
            <feMerge>
                <feMergeNode in="SourceGraphic"></feMergeNode>
                <feMergeNode in="shadowMatrixInner1"></feMergeNode>
                <feMergeNode in="shadowMatrixInner2"></feMergeNode>
            </feMerge>
        </filter>
        <radialGradient cx="0%" cy="0%" fx="0%" fy="0%" r="141.421356%" id="radialGradient-8">
            <stop stop-color="#FFFFFF" stop-opacity="0.2" offset="0%"></stop>
            <stop stop-color="#FFFFFF" stop-opacity="0" offset="100%"></stop>
        </radialGradient>
    </defs>
    <g id="Archive-Manager" stroke="none" stroke-width="1" fill="none" fill-rule="evenodd" sketch:type="MSPage">
        <g sketch:type="MSArtboardGroup" id="Oval-3-+-Rectangle-15">
            <g sketch:type="MSLayerGroup">
                <g transform="translate(32.000000, 8.000000)">
                    <mask id="mask-3" sketch:name="Mask" fill="white">
                        <use xlink:href="#path-2"></use>
                    </mask>
                    <use id="Mask" fill="#AE9A93" filter="url(#filter-1)" sketch:type="MSShapeGroup" xlink:href="#path-2"></use>
                    <path d="M128,0 L80,0 L80,35.9959353 C80,39.4410919 81.4478696,42.5438176 83.7676309,44.7314533 C83.9293764,44.9029678 131.596121,92.5697117 131.767631,92.7314533 C133.956573,95.0526028 137.061041,96.5 140.504065,96.5 L176.5,96.5 L176.5,48.5 L128,0 Z" id="Rectangle-19-Copy-2" fill="url(#linearGradient-4)" sketch:type="MSShapeGroup" mask="url(#mask-3)"></path>
                    <rect id="Rectangle-19" fill="#CEC1BC" filter="url(#filter-5)" sketch:type="MSShapeGroup" mask="url(#mask-3)" x="80" y="-12" width="60" height="60" rx="12"></rect>
                    <rect id="Rectangle-19-Copy" fill-opacity="0" fill="#D8D8D8" filter="url(#filter-6)" sketch:type="MSShapeGroup" mask="url(#mask-3)" x="80" y="0" width="48" height="48"></rect>
                    <rect id="Mask" fill="#EBE6E3" sketch:type="MSShapeGroup" mask="url(#mask-3)" x="0" y="136" width="128" height="28"></rect>
                    <path d="M21.0454545,154.652406 L12.8903743,154.652406 L11.0588235,159.73262 L8.41176471,159.73262 L15.8449198,140.26738 L18.0909091,140.26738 L25.5374332,159.73262 L22.9037433,159.73262 L21.0454545,154.652406 Z M13.6657754,152.540107 L20.2834225,152.540107 L16.9679144,143.435829 L13.6657754,152.540107 Z M35.2967914,151.858289 L30.7245989,151.858289 L30.7245989,159.73262 L28.144385,159.73262 L28.144385,140.26738 L34.5882353,140.26738 C36.7807596,140.26738 38.4674629,140.766483 39.6483957,141.764706 C40.8293285,142.762928 41.4197861,144.215677 41.4197861,146.122995 C41.4197861,147.335122 41.0922493,148.391261 40.4371658,149.291444 C39.7820823,150.191627 38.8707723,150.864525 37.7032086,151.31016 L42.2754011,159.572193 L42.2754011,159.73262 L39.5213904,159.73262 L35.2967914,151.858289 Z M30.7245989,149.759358 L34.6684492,149.759358 C35.9429654,149.759358 36.9567699,149.429593 37.709893,148.770053 C38.4630162,148.110514 38.8395722,147.22817 38.8395722,146.122995 C38.8395722,144.91978 38.4808414,143.997329 37.763369,143.355615 C37.0458966,142.713901 36.0098107,142.388592 34.6550802,142.379679 L30.7245989,142.379679 L30.7245989,149.759358 Z M59.3342246,153.55615 C59.0935817,155.614984 58.3337854,157.203649 57.0548128,158.322193 C55.7758403,159.440736 54.0757682,160 51.9545455,160 C49.6550687,160 47.8123955,159.175588 46.4264706,157.526738 C45.0405457,155.877888 44.3475936,153.672028 44.3475936,150.909091 L44.3475936,149.037433 C44.3475936,147.228155 44.6706741,145.637262 45.3168449,144.264706 C45.9630157,142.89215 46.878782,141.838239 48.0641711,141.102941 C49.2495603,140.367643 50.6220956,140 52.1818182,140 C54.2495647,140 55.9073021,140.577089 57.1550802,141.731283 C58.4028583,142.885478 59.1292325,144.483056 59.3342246,146.524064 L56.7540107,146.524064 C56.5311932,144.973254 56.0476864,143.850271 55.3034759,143.15508 C54.5592654,142.45989 53.5187233,142.112299 52.1818182,142.112299 C50.5418813,142.112299 49.2562435,142.718354 48.3248663,143.930481 C47.3934891,145.142609 46.9278075,146.86719 46.9278075,149.104278 L46.9278075,150.989305 C46.9278075,153.101615 47.3689795,154.781634 48.2513369,156.029412 C49.1336943,157.27719 50.3680848,157.90107 51.9545455,157.90107 C53.3805775,157.90107 54.4745951,157.577989 55.236631,156.931818 C55.9986669,156.285647 56.5044551,155.160436 56.7540107,153.55615 L59.3342246,153.55615 Z M77.7967914,159.73262 L75.2165775,159.73262 L75.2165775,150.735294 L65.4037433,150.735294 L65.4037433,159.73262 L62.8368984,159.73262 L62.8368984,140.26738 L65.4037433,140.26738 L65.4037433,148.636364 L75.2165775,148.636364 L75.2165775,140.26738 L77.7967914,140.26738 L77.7967914,159.73262 Z M85.1096257,159.73262 L82.5427807,159.73262 L82.5427807,140.26738 L85.1096257,140.26738 L85.1096257,159.73262 Z M96.2459893,156.323529 L101.807487,140.26738 L104.614973,140.26738 L97.3957219,159.73262 L95.1229947,159.73262 L87.9171123,140.26738 L90.7112299,140.26738 L96.2459893,156.323529 Z M118.224599,150.735294 L109.78877,150.735294 L109.78877,157.63369 L119.588235,157.63369 L119.588235,159.73262 L107.221925,159.73262 L107.221925,140.26738 L119.454545,140.26738 L119.454545,142.379679 L109.78877,142.379679 L109.78877,148.636364 L118.224599,148.636364 L118.224599,150.735294 Z" id="ARCHIVE" fill="#90756B" sketch:type="MSShapeGroup" mask="url(#mask-3)"></path>
                    <g id="ic_lock_48px" mask="url(#mask-3)" sketch:type="MSShapeGroup">
                        <g transform="translate(24.000000, 48.000000)" id="Shape">
                            <path d="M0,0 L80,0 L80,80 L0,80 L0,0 Z" fill="none"></path>
                            <path d="M60,26.6666667 L56.6666667,26.6666667 L56.6666667,20 C56.6666667,10.8 49.2,3.33333333 40,3.33333333 C30.8,3.33333333 23.3333333,10.8 23.3333333,20 L23.3333333,26.6666667 L20,26.6666667 C16.3166667,26.6666667 13.3333333,29.65 13.3333333,33.3333333 L13.3333333,66.6666667 C13.3333333,70.35 16.3166667,73.3333333 20,73.3333333 L60,73.3333333 C63.6833333,73.3333333 66.6666667,70.35 66.6666667,66.6666667 L66.6666667,33.3333333 C66.6666667,29.65 63.6833333,26.6666667 60,26.6666667 L60,26.6666667 Z M40,56.6666667 C36.3166667,56.6666667 33.3333333,53.6833333 33.3333333,50 C33.3333333,46.3166667 36.3166667,43.3333333 40,43.3333333 C43.6833333,43.3333333 46.6666667,46.3166667 46.6666667,50 C46.6666667,53.6833333 43.6833333,56.6666667 40,56.6666667 L40,56.6666667 Z M50.3333333,26.6666667 L29.6666667,26.6666667 L29.6666667,20 C29.6666667,14.3 34.3,9.66666667 40,9.66666667 C45.7,9.66666667 50.3333333,14.3 50.3333333,20 L50.3333333,26.6666667 L50.3333333,26.6666667 Z" fill="#90756B" fill-rule="evenodd"></path>
                        </g>
                    </g>
                    <rect id="Mask-Copy" fill-opacity="0" fill="#D8D8D8" filter="url(#filter-7)" sketch:type="MSShapeGroup" mask="url(#mask-3)" x="0" y="0" width="128" height="176" rx="12"></rect>
                    <rect id="Finish-Lighting-+-Tints" fill="url(#radialGradient-8)" sketch:type="MSShapeGroup" mask="url(#mask-3)" x="-32" y="-8" width="192" height="192"></rect>
                </g>
            </g>
        </g>
    </g>
    <g id="Copyright Daniel Hickman and Corbin Crutchley. View our license at http://materialos.com/license/ Credit: Wayne Kosimoto."></g>
</svg>