<?xml version="1.0" encoding="UTF-8" standalone="no"?>
<svg width="192px" height="192px" viewBox="0 0 192 192" version="1.1" xmlns="http://www.w3.org/2000/svg" xmlns:xlink="http://www.w3.org/1999/xlink" xmlns:sketch="http://www.bohemiancoding.com/sketch/ns">
    <!-- Generator: Sketch 3.3.2 (12043) - http://www.bohemiancoding.com/sketch -->
    <title>Blender</title>
    <desc>Created with Sketch.</desc>
    <defs>
        <filter x="-50%" y="-50%" width="200%" height="200%" filterUnits="objectBoundingBox" id="filter-1">
            <feOffset dx="0" dy="4" in="SourceAlpha" result="shadowOffsetOuter1"></feOffset>
            <feGaussianBlur stdDeviation="1" in="shadowOffsetOuter1" result="shadowBlurOuter1"></feGaussianBlur>
            <feColorMatrix values="0 0 0 0 0   0 0 0 0 0   0 0 0 0 0  0 0 0 0.168 0" in="shadowBlurOuter1" type="matrix" result="shadowMatrixOuter1"></feColorMatrix>
            <feOffset dx="0" dy="0" in="SourceAlpha" result="shadowOffsetOuter2"></feOffset>
            <feGaussianBlur stdDeviation="1" in="shadowOffsetOuter2" result="shadowBlurOuter2"></feGaussianBlur>
            <feColorMatrix values="0 0 0 0 0   0 0 0 0 0   0 0 0 0 0  0 0 0 0.084 0" in="shadowBlurOuter2" type="matrix" result="shadowMatrixOuter2"></feColorMatrix>
            <feMerge>
                <feMergeNode in="shadowMatrixOuter1"></feMergeNode>
                <feMergeNode in="shadowMatrixOuter2"></feMergeNode>
                <feMergeNode in="SourceGraphic"></feMergeNode>
            </feMerge>
        </filter>
        <path d="M17.3240902,48 C13.888347,56.6649857 12,66.1119693 12,76 C12,117.973641 46.026359,152 88,152 C129.973641,152 164,117.973641 164,76 C164,34.026359 129.973641,0 88,0 C86.0706725,0 84.1581359,0.0718909335 82.2649231,0.213140121 L82.2649231,0.213140121 C81.5319441,0.0732294784 80.7753046,0 80.0015591,0 L23.9984409,0 C17.3732479,0 12,5.372583 12,12 C12,18.6288742 17.371885,24 23.9984409,24 L11.9984409,24 C5.37324786,24 0,29.372583 0,36 C0,42.6288742 5.37188499,48 11.9984409,48 L17.3240902,48 Z M28.2862428,24 L23.9984409,24 Z" id="path-2"></path>
        <linearGradient x1="78.2596618%" y1="77.4505152%" x2="8.09825808%" y2="7.73589921%" id="linearGradient-4">
            <stop stop-color="#B22200" stop-opacity="0" offset="0%"></stop>
            <stop stop-color="#B22200" stop-opacity="0.2" offset="100%"></stop>
        </linearGradient>
        <filter x="-50%" y="-50%" width="200%" height="200%" filterUnits="objectBoundingBox" id="filter-5">
            <feOffset dx="0" dy="-1" in="SourceAlpha" result="shadowOffsetInner1"></feOffset>
            <feGaussianBlur stdDeviation="0" in="shadowOffsetInner1" result="shadowBlurInner1"></feGaussianBlur>
            <feComposite in="shadowBlurInner1" in2="SourceAlpha" operator="arithmetic" k2="-1" k3="1" result="shadowInnerInner1"></feComposite>
            <feColorMatrix values="0 0 0 0 0.756862745   0 0 0 0 0.207843137   0 0 0 0 0  0 0 0 0.14 0" in="shadowInnerInner1" type="matrix" result="shadowMatrixInner1"></feColorMatrix>
            <feOffset dx="0" dy="1" in="SourceAlpha" result="shadowOffsetInner2"></feOffset>
            <feGaussianBlur stdDeviation="0" in="shadowOffsetInner2" result="shadowBlurInner2"></feGaussianBlur>
            <feComposite in="shadowBlurInner2" in2="SourceAlpha" operator="arithmetic" k2="-1" k3="1" result="shadowInnerInner2"></feComposite>
            <feColorMatrix values="0 0 0 0 1   0 0 0 0 1   0 0 0 0 1  0 0 0 0.14 0" in="shadowInnerInner2" type="matrix" result="shadowMatrixInner2"></feColorMatrix>
            <feMerge>
                <feMergeNode in="SourceGraphic"></feMergeNode>
                <feMergeNode in="shadowMatrixInner1"></feMergeNode>
                <feMergeNode in="shadowMatrixInner2"></feMergeNode>
            </feMerge>
        </filter>
        <path d="M17.3240902,48 C13.888347,56.6649857 12,66.1119693 12,76 C12,117.973641 46.026359,152 88,152 C129.973641,152 164,117.973641 164,76 C164,34.026359 129.973641,0 88,0 C86.0706725,0 84.1581359,0.0718909335 82.2649231,0.213140121 L82.2649231,0.213140121 C81.5319441,0.0732294784 80.7753046,0 80.0015591,0 L23.9984409,0 C17.3732479,0 12,5.372583 12,12 C12,18.6288742 17.371885,24 23.9984409,24 L11.9984409,24 C5.37324786,24 0,29.372583 0,36 C0,42.6288742 5.37188499,48 11.9984409,48 L17.3240902,48 Z M28.2862428,24 L23.9984409,24 Z" id="path-6"></path>
        <radialGradient cx="0%" cy="0%" fx="0%" fy="0%" r="141.421356%" id="radialGradient-8">
            <stop stop-color="#FFFFFF" stop-opacity="0.2" offset="0%"></stop>
            <stop stop-color="#FFFFFF" stop-opacity="0" offset="100%"></stop>
        </radialGradient>
        <filter x="-50%" y="-50%" width="200%" height="200%" filterUnits="objectBoundingBox" id="filter-9">
            <feOffset dx="0" dy="4" in="SourceAlpha" result="shadowOffsetOuter1"></feOffset>
            <feGaussianBlur stdDeviation="1" in="shadowOffsetOuter1" result="shadowBlurOuter1"></feGaussianBlur>
            <feColorMatrix values="0 0 0 0 0   0 0 0 0 0   0 0 0 0 0  0 0 0 0.168 0" in="shadowBlurOuter1" type="matrix" result="shadowMatrixOuter1"></feColorMatrix>
            <feOffset dx="0" dy="0" in="SourceAlpha" result="shadowOffsetOuter2"></feOffset>
            <feGaussianBlur stdDeviation="1" in="shadowOffsetOuter2" result="shadowBlurOuter2"></feGaussianBlur>
            <feColorMatrix values="0 0 0 0 0   0 0 0 0 0   0 0 0 0 0  0 0 0 0.084 0" in="shadowBlurOuter2" type="matrix" result="shadowMatrixOuter2"></feColorMatrix>
            <feOffset dx="0" dy="-1" in="SourceAlpha" result="shadowOffsetInner1"></feOffset>
            <feGaussianBlur stdDeviation="0" in="shadowOffsetInner1" result="shadowBlurInner1"></feGaussianBlur>
            <feComposite in="shadowBlurInner1" in2="SourceAlpha" operator="arithmetic" k2="-1" k3="1" result="shadowInnerInner1"></feComposite>
            <feColorMatrix values="0 0 0 0 0.129411765   0 0 0 0 0.129411765   0 0 0 0 0.129411765  0 0 0 0.14 0" in="shadowInnerInner1" type="matrix" result="shadowMatrixInner1"></feColorMatrix>
            <feMerge>
                <feMergeNode in="shadowMatrixOuter1"></feMergeNode>
                <feMergeNode in="shadowMatrixOuter2"></feMergeNode>
                <feMergeNode in="SourceGraphic"></feMergeNode>
                <feMergeNode in="shadowMatrixInner1"></feMergeNode>
            </feMerge>
        </filter>
        <circle id="path-10" cx="40" cy="40" r="40"></circle>
    </defs>
    <g id="Blender" stroke="none" stroke-width="1" fill="none" fill-rule="evenodd" sketch:type="MSPage">
        <g sketch:type="MSArtboardGroup">
            <g sketch:type="MSLayerGroup">
                <g id="Oval-3-+-Rectangle-15" transform="translate(8.000000, 20.000000)">
                    <mask id="mask-3" sketch:name="Mask" fill="white">
                        <use xlink:href="#path-2"></use>
                    </mask>
                    <use id="Mask" fill="#FF8600" filter="url(#filter-1)" sketch:type="MSShapeGroup" xlink:href="#path-2"></use>
                    <path d="M108.220121,152.779879 C107.880959,152.45243 61.5475701,106.119041 61.220121,105.779879 C53.6857058,98.5056556 49,88.3000304 49,77 C49,54.90861 66.90861,37 89,37 C100.30003,37 110.505656,41.6857058 117.779879,49.220121 C117.779879,49.220121 164.45243,95.8809593 164.779879,96.220121 C172.314294,103.494344 177,113.69997 177,125 C177,147.09139 159.09139,165 137,165 C125.69997,165 115.494344,160.314294 108.220121,152.779879 L108.220121,152.779879 Z" id="Mask-Copy-2-Shadow" fill="url(#linearGradient-4)" sketch:type="MSShapeGroup" mask="url(#mask-3)"></path>
                    <mask id="mask-7" sketch:name="Mask Copy" fill="white">
                        <use xlink:href="#path-6"></use>
                    </mask>
                    <use id="Mask-Copy" fill-opacity="0" fill="#D8D8D8" filter="url(#filter-5)" sketch:type="MSShapeGroup" xlink:href="#path-6"></use>
                    <rect id="Finish-Lighting-+-Tints" fill="url(#radialGradient-8)" sketch:type="MSShapeGroup" mask="url(#mask-7)" x="-8" y="-32" width="192" height="192"></rect>
                </g>
                <g id="Mask-+-Finish-Lighting-+-Tints-Copy" transform="translate(56.000000, 56.000000)">
                    <mask id="mask-11" sketch:name="Mask" fill="white">
                        <use xlink:href="#path-10"></use>
                    </mask>
                    <use id="Mask" fill="#F2F2F2" filter="url(#filter-9)" sketch:type="MSShapeGroup" xlink:href="#path-10"></use>
                    <path d="M40,64 C53.254834,64 64,53.254834 64,40 C64,26.745166 53.254834,16 40,16 C26.745166,16 16,26.745166 16,40 C16,53.254834 26.745166,64 40,64 Z" id="Oval-6" fill="#0095F5" sketch:type="MSShapeGroup" mask="url(#mask-11)"></path>
                    <rect id="Finish-Lighting-+-Tints-Copy" fill="url(#radialGradient-8)" sketch:type="MSShapeGroup" mask="url(#mask-11)" x="-56" y="-56" width="192" height="192"></rect>
                </g>
            </g>
        </g>
    </g>
</svg>