<?xml version="1.0" encoding="UTF-8" standalone="no"?>
<svg width="192px" height="192px" viewBox="0 0 192 192" version="1.1" xmlns="http://www.w3.org/2000/svg" xmlns:xlink="http://www.w3.org/1999/xlink" xmlns:sketch="http://www.bohemiancoding.com/sketch/ns">
    <!-- Generator: Sketch 3.3.2 (12043) - http://www.bohemiancoding.com/sketch -->
    <title>Chromium</title>
    <desc>Created with Sketch.</desc>
    <defs>
        <filter x="-50%" y="-50%" width="200%" height="200%" filterUnits="objectBoundingBox" id="filter-1">
            <feOffset dx="0" dy="4" in="SourceAlpha" result="shadowOffsetOuter1"></feOffset>
            <feGaussianBlur stdDeviation="1" in="shadowOffsetOuter1" result="shadowBlurOuter1"></feGaussianBlur>
            <feColorMatrix values="0 0 0 0 0   0 0 0 0 0   0 0 0 0 0  0 0 0 0.168 0" in="shadowBlurOuter1" type="matrix" result="shadowMatrixOuter1"></feColorMatrix>
            <feOffset dx="0" dy="0" in="SourceAlpha" result="shadowOffsetOuter2"></feOffset>
            <feGaussianBlur stdDeviation="1" in="shadowOffsetOuter2" result="shadowBlurOuter2"></feGaussianBlur>
            <feColorMatrix values="0 0 0 0 0   0 0 0 0 0   0 0 0 0 0  0 0 0 0.084 0" in="shadowBlurOuter2" type="matrix" result="shadowMatrixOuter2"></feColorMatrix>
            <feMerge>
                <feMergeNode in="shadowMatrixOuter1"></feMergeNode>
                <feMergeNode in="shadowMatrixOuter2"></feMergeNode>
                <feMergeNode in="SourceGraphic"></feMergeNode>
            </feMerge>
        </filter>
        <circle id="path-2" cx="88" cy="88" r="88"></circle>
        <linearGradient x1="74.5124708%" y1="74.5658293%" x2="8.23347664%" y2="8.39317661%" id="linearGradient-4">
            <stop stop-color="#000000" stop-opacity="0" offset="0%"></stop>
            <stop stop-color="#2F1D1A" stop-opacity="0.2" offset="100%"></stop>
        </linearGradient>
        <filter x="-50%" y="-50%" width="200%" height="200%" filterUnits="objectBoundingBox" id="filter-5">
            <feOffset dx="0" dy="-1" in="SourceAlpha" result="shadowOffsetInner1"></feOffset>
            <feGaussianBlur stdDeviation="0" in="shadowOffsetInner1" result="shadowBlurInner1"></feGaussianBlur>
            <feComposite in="shadowBlurInner1" in2="SourceAlpha" operator="arithmetic" k2="-1" k3="1" result="shadowInnerInner1"></feComposite>
            <feColorMatrix values="0 0 0 0 0.0980392157   0 0 0 0 0.117647059   0 0 0 0 0.501960784  0 0 0 0.14 0" in="shadowInnerInner1" type="matrix" result="shadowMatrixInner1"></feColorMatrix>
            <feMerge>
                <feMergeNode in="SourceGraphic"></feMergeNode>
                <feMergeNode in="shadowMatrixInner1"></feMergeNode>
            </feMerge>
        </filter>
        <circle id="path-6" cx="88" cy="88" r="88"></circle>
        <radialGradient cx="0%" cy="0%" fx="0%" fy="0%" r="141.421356%" id="radialGradient-8">
            <stop stop-color="#FFFFFF" stop-opacity="0.2" offset="0%"></stop>
            <stop stop-color="#FFFFFF" stop-opacity="0" offset="100%"></stop>
        </radialGradient>
        <filter x="-50%" y="-50%" width="200%" height="200%" filterUnits="objectBoundingBox" id="filter-9">
            <feOffset dx="0" dy="4" in="SourceAlpha" result="shadowOffsetOuter1"></feOffset>
            <feGaussianBlur stdDeviation="1" in="shadowOffsetOuter1" result="shadowBlurOuter1"></feGaussianBlur>
            <feColorMatrix values="0 0 0 0 0   0 0 0 0 0   0 0 0 0 0  0 0 0 0.168 0" in="shadowBlurOuter1" type="matrix" result="shadowMatrixOuter1"></feColorMatrix>
            <feOffset dx="0" dy="0" in="SourceAlpha" result="shadowOffsetOuter2"></feOffset>
            <feGaussianBlur stdDeviation="1" in="shadowOffsetOuter2" result="shadowBlurOuter2"></feGaussianBlur>
            <feColorMatrix values="0 0 0 0 0   0 0 0 0 0   0 0 0 0 0  0 0 0 0.084 0" in="shadowBlurOuter2" type="matrix" result="shadowMatrixOuter2"></feColorMatrix>
            <feMerge>
                <feMergeNode in="shadowMatrixOuter1"></feMergeNode>
                <feMergeNode in="shadowMatrixOuter2"></feMergeNode>
                <feMergeNode in="SourceGraphic"></feMergeNode>
            </feMerge>
        </filter>
        <path id="path-10" d="M88,44 C88,68.3026667 68.3026667,88 44,88 C19.6973333,88 0,68.3026667 0,44 C0,19.7046667 19.6973333,0 44,0 C68.3026667,0 88,19.7046667 88,44"></path>
        <filter x="-50%" y="-50%" width="200%" height="200%" filterUnits="objectBoundingBox" id="filter-12">
            <feOffset dx="0" dy="-1" in="SourceAlpha" result="shadowOffsetInner1"></feOffset>
            <feGaussianBlur stdDeviation="0" in="shadowOffsetInner1" result="shadowBlurInner1"></feGaussianBlur>
            <feComposite in="shadowBlurInner1" in2="SourceAlpha" operator="arithmetic" k2="-1" k3="1" result="shadowInnerInner1"></feComposite>
            <feColorMatrix values="0 0 0 0 0.0980392157   0 0 0 0 0.0980392157   0 0 0 0 0.0980392157  0 0 0 0.14 0" in="shadowInnerInner1" type="matrix" result="shadowMatrixInner1"></feColorMatrix>
            <feMerge>
                <feMergeNode in="SourceGraphic"></feMergeNode>
                <feMergeNode in="shadowMatrixInner1"></feMergeNode>
            </feMerge>
        </filter>
        <path id="path-13" d="M88,44 C88,68.3026667 68.3026667,88 44,88 C19.6973333,88 0,68.3026667 0,44 C0,19.7046667 19.6973333,0 44,0 C68.3026667,0 88,19.7046667 88,44"></path>
    </defs>
    <g id="Chromium" stroke="none" stroke-width="1" fill="none" fill-rule="evenodd" sketch:type="MSPage">
        <g sketch:type="MSArtboardGroup" id="chromium">
            <g sketch:type="MSLayerGroup" transform="translate(8.000000, 8.000000)">
                <g id="Group">
                    <mask id="mask-3" sketch:name="Mask" fill="white">
                        <use xlink:href="#path-2"></use>
                    </mask>
                    <use id="Mask" fill="#FFFFFF" filter="url(#filter-1)" sketch:type="MSShapeGroup" xlink:href="#path-2"></use>
                    <path d="M87.9926667,88 L87.9926667,43.9926667 L164.134667,43.9926667 C148.910667,17.732 120.552667,0 87.9926667,0 C55.418,0 27.0453333,17.754 11.8286667,44.0586667 L49.896,109.992667 L87.9926667,88" id="Fill-92" fill="#4D6A79" sketch:type="MSShapeGroup" mask="url(#mask-3)"></path>
                    <path d="M87.9926667,43.9926667 L87.9926667,88 L126.104,109.992667 L87.9926667,175.992667 C136.598,175.992667 176,136.598 176,88 C176,71.9546667 171.629333,56.958 164.134667,43.9926667 L87.9926667,43.9926667" id="Fill-93" fill="#DCEEFD" sketch:type="MSShapeGroup" mask="url(#mask-3)"></path>
                    <path d="M87.9926667,88 L49.896,109.992667 L11.8286667,44.0586667 C4.34866667,57.0093333 0,71.9766667 0,88 C0,136.598 39.3946667,175.992667 87.9926667,175.992667 L126.104,109.992667 L87.9926667,88" id="Fill-94" fill="#7DBCFA" sketch:type="MSShapeGroup" mask="url(#mask-3)"></path>
                    <path d="M113.137498,175.362502 C121.118535,183.472049 132.221488,188.5 144.5,188.5 C168.802667,188.5 188.5,168.802667 188.5,144.5 C188.5,132.224284 183.471304,121.120557 175.3607,113.138446 C175.195367,112.970451 119.528694,57.303779 119.3607,57.1384458 C111.379794,49.0290663 100.277588,44 88,44 C63.6973333,44 44,63.7046667 44,88 C44,100.278512 49.0279514,111.381465 57.1374983,119.362502 C57.302831,119.530497 112.969503,175.197169 113.137498,175.362502 Z" id="Mask-Copy-3" fill="url(#linearGradient-4)" sketch:type="MSShapeGroup" mask="url(#mask-3)"></path>
                    <mask id="mask-7" sketch:name="Mask Copy" fill="white">
                        <use xlink:href="#path-6"></use>
                    </mask>
                    <g id="Mask-Copy" filter="url(#filter-5)"></g>
                    <rect id="Finish-Lighting-+-Tints" fill="url(#radialGradient-8)" sketch:type="MSShapeGroup" mask="url(#mask-7)" x="-8" y="-8" width="192" height="192"></rect>
                </g>
                <g id="Fill-103-+-Fill-104" transform="translate(44.000000, 44.000000)">
                    <mask id="mask-11" sketch:name="Mask" fill="white">
                        <use xlink:href="#path-10"></use>
                    </mask>
                    <use id="Mask" fill="#FFFFFF" filter="url(#filter-9)" sketch:type="MSShapeGroup" xlink:href="#path-10"></use>
                    <path d="M76.2666667,44 C76.2666667,61.82 61.82,76.2666667 44,76.2666667 C26.18,76.2666667 11.7333333,61.82 11.7333333,44 C11.7333333,26.18 26.18,11.7333333 44,11.7333333 C61.82,11.7333333 76.2666667,26.18 76.2666667,44" id="Fill-104" fill="#0071CA" sketch:type="MSShapeGroup" mask="url(#mask-11)"></path>
                    <mask id="mask-14" sketch:name="Mask Copy 2" fill="white">
                        <use xlink:href="#path-13"></use>
                    </mask>
                    <g id="Mask-Copy-2" filter="url(#filter-12)"></g>
                    <rect id="Finish-Lighting-+-Tints-Copy" fill="url(#radialGradient-8)" sketch:type="MSShapeGroup" mask="url(#mask-14)" x="-52" y="-52" width="192" height="192"></rect>
                </g>
            </g>
        </g>
    </g>
    <g id="Copyright Daniel Hickman and Corbin Crutchley. View our license at http://materialos.com/license/ Credit: Wayne Kosimoto."></g>
</svg>