<?xml version="1.0" encoding="UTF-8" standalone="no"?>
<svg width="192px" height="192px" viewBox="0 0 192 192" version="1.1" xmlns="http://www.w3.org/2000/svg" xmlns:xlink="http://www.w3.org/1999/xlink" xmlns:sketch="http://www.bohemiancoding.com/sketch/ns">
    <!-- Generator: Sketch 3.3.2 (12043) - http://www.bohemiancoding.com/sketch -->
    <title>Midori</title>
    <desc>Created with Sketch.</desc>
    <defs>
        <filter x="-50%" y="-50%" width="200%" height="200%" filterUnits="objectBoundingBox" id="filter-1">
            <feOffset dx="0" dy="4" in="SourceAlpha" result="shadowOffsetOuter1"></feOffset>
            <feGaussianBlur stdDeviation="1" in="shadowOffsetOuter1" result="shadowBlurOuter1"></feGaussianBlur>
            <feColorMatrix values="0 0 0 0 0   0 0 0 0 0   0 0 0 0 0  0 0 0 0.168 0" in="shadowBlurOuter1" type="matrix" result="shadowMatrixOuter1"></feColorMatrix>
            <feOffset dx="0" dy="0" in="SourceAlpha" result="shadowOffsetOuter2"></feOffset>
            <feGaussianBlur stdDeviation="1" in="shadowOffsetOuter2" result="shadowBlurOuter2"></feGaussianBlur>
            <feColorMatrix values="0 0 0 0 0   0 0 0 0 0   0 0 0 0 0  0 0 0 0.084 0" in="shadowBlurOuter2" type="matrix" result="shadowMatrixOuter2"></feColorMatrix>
            <feMerge>
                <feMergeNode in="shadowMatrixOuter1"></feMergeNode>
                <feMergeNode in="shadowMatrixOuter2"></feMergeNode>
                <feMergeNode in="SourceGraphic"></feMergeNode>
            </feMerge>
        </filter>
        <circle id="path-2" cx="88" cy="88" r="88"></circle>
        <linearGradient x1="60.5739076%" y1="68.6706788%" x2="-10.436402%" y2="11.0532519%" id="linearGradient-4">
            <stop stop-color="#000000" stop-opacity="0" offset="0%"></stop>
            <stop stop-color="#2F1D1A" stop-opacity="0.2" offset="100%"></stop>
        </linearGradient>
        <filter x="-50%" y="-50%" width="200%" height="200%" filterUnits="objectBoundingBox" id="filter-5">
            <feOffset dx="0" dy="-1" in="SourceAlpha" result="shadowOffsetInner1"></feOffset>
            <feGaussianBlur stdDeviation="0" in="shadowOffsetInner1" result="shadowBlurInner1"></feGaussianBlur>
            <feComposite in="shadowBlurInner1" in2="SourceAlpha" operator="arithmetic" k2="-1" k3="1" result="shadowInnerInner1"></feComposite>
            <feColorMatrix values="0 0 0 0 0.0745098039   0 0 0 0 0.0588235294   0 0 0 0 0.42745098  0 0 0 0.14 0" in="shadowInnerInner1" type="matrix" result="shadowMatrixInner1"></feColorMatrix>
            <feOffset dx="0" dy="1" in="SourceAlpha" result="shadowOffsetInner2"></feOffset>
            <feGaussianBlur stdDeviation="0" in="shadowOffsetInner2" result="shadowBlurInner2"></feGaussianBlur>
            <feComposite in="shadowBlurInner2" in2="SourceAlpha" operator="arithmetic" k2="-1" k3="1" result="shadowInnerInner2"></feComposite>
            <feColorMatrix values="0 0 0 0 1   0 0 0 0 1   0 0 0 0 1  0 0 0 0.14 0" in="shadowInnerInner2" type="matrix" result="shadowMatrixInner2"></feColorMatrix>
            <feMerge>
                <feMergeNode in="SourceGraphic"></feMergeNode>
                <feMergeNode in="shadowMatrixInner1"></feMergeNode>
                <feMergeNode in="shadowMatrixInner2"></feMergeNode>
            </feMerge>
        </filter>
        <circle id="path-6" cx="88" cy="88" r="88"></circle>
        <radialGradient cx="0%" cy="0%" fx="0%" fy="0%" r="141.421356%" id="radialGradient-8">
            <stop stop-color="#FFFFFF" stop-opacity="0.2" offset="0%"></stop>
            <stop stop-color="#FFFFFF" stop-opacity="0" offset="100%"></stop>
        </radialGradient>
        <filter x="-50%" y="-50%" width="200%" height="200%" filterUnits="objectBoundingBox" id="filter-9">
            <feOffset dx="0" dy="4" in="SourceAlpha" result="shadowOffsetOuter1"></feOffset>
            <feGaussianBlur stdDeviation="1" in="shadowOffsetOuter1" result="shadowBlurOuter1"></feGaussianBlur>
            <feColorMatrix values="0 0 0 0 0   0 0 0 0 0   0 0 0 0 0  0 0 0 0.168 0" in="shadowBlurOuter1" type="matrix" result="shadowMatrixOuter1"></feColorMatrix>
            <feOffset dx="0" dy="0" in="SourceAlpha" result="shadowOffsetOuter2"></feOffset>
            <feGaussianBlur stdDeviation="1" in="shadowOffsetOuter2" result="shadowBlurOuter2"></feGaussianBlur>
            <feColorMatrix values="0 0 0 0 0   0 0 0 0 0   0 0 0 0 0  0 0 0 0.084 0" in="shadowBlurOuter2" type="matrix" result="shadowMatrixOuter2"></feColorMatrix>
            <feMerge>
                <feMergeNode in="shadowMatrixOuter1"></feMergeNode>
                <feMergeNode in="shadowMatrixOuter2"></feMergeNode>
                <feMergeNode in="SourceGraphic"></feMergeNode>
            </feMerge>
        </filter>
        <path d="M45.9166667,88.10196 L45.9166667,88 C70.4703262,88 90.375,68.300529 90.375,44 C90.375,20.459058 71.6952404,1.23602941 48.2050718,0.0572818881 C95.3214522,1.7440814 133,40.4718925 133,88 C133,136.295135 94.0954956,175.503637 45.9166667,175.995324 L45.9166667,175.995324 C45.6118551,175.996931 45.3062896,176 45,176 C20.4722288,176 0.588541667,156.321299 0.588541667,132.046392 C0.588541667,107.771484 20.4722288,88.0927835 45,88.0927835 C45.3062896,88.0927835 45.6118551,88.0958521 45.9166667,88.10196 Z" id="path-10"></path>
        <filter x="-50%" y="-50%" width="200%" height="200%" filterUnits="objectBoundingBox" id="filter-12">
            <feOffset dx="0" dy="-1" in="SourceAlpha" result="shadowOffsetInner1"></feOffset>
            <feGaussianBlur stdDeviation="0" in="shadowOffsetInner1" result="shadowBlurInner1"></feGaussianBlur>
            <feComposite in="shadowBlurInner1" in2="SourceAlpha" operator="arithmetic" k2="-1" k3="1" result="shadowInnerInner1"></feComposite>
            <feColorMatrix values="0 0 0 0 0.145098039   0 0 0 0 0.196078431   0 0 0 0 0.223529412  0 0 0 0.14 0" in="shadowInnerInner1" type="matrix" result="shadowMatrixInner1"></feColorMatrix>
            <feMerge>
                <feMergeNode in="SourceGraphic"></feMergeNode>
                <feMergeNode in="shadowMatrixInner1"></feMergeNode>
            </feMerge>
        </filter>
        <path d="M45.9166667,88.10196 L45.9166667,88 C70.4703262,88 90.375,68.300529 90.375,44 C90.375,20.459058 71.6952404,1.23602941 48.2050718,0.0572818881 C95.3214522,1.7440814 133,40.4718925 133,88 C133,136.295135 94.0954956,175.503637 45.9166667,175.995324 L45.9166667,175.995324 C45.6118551,175.996931 45.3062896,176 45,176 C20.4722288,176 0.588541667,156.321299 0.588541667,132.046392 C0.588541667,107.771484 20.4722288,88.0927835 45,88.0927835 C45.3062896,88.0927835 45.6118551,88.0958521 45.9166667,88.10196 Z" id="path-13"></path>
    </defs>
    <g id="Midori" stroke="none" stroke-width="1" fill="none" fill-rule="evenodd" sketch:type="MSPage">
        <g sketch:type="MSArtboardGroup">
            <g sketch:type="MSLayerGroup">
                <g id="Oval-3-+-Rectangle-15" transform="translate(8.000000, 8.000000)">
                    <mask id="mask-3" sketch:name="Mask" fill="white">
                        <use xlink:href="#path-2"></use>
                    </mask>
                    <use id="Mask" fill="#0060B2" filter="url(#filter-1)" sketch:type="MSShapeGroup" xlink:href="#path-2"></use>
                    <path d="M76.9690141,175.73 C33.4517746,170.34 -0.247887324,133.38 -0.247887324,88.5 C-0.247887324,81.735 0.57943662,75.135 2.06861972,68.81 L54.9070423,121.5 L54.9070423,132.5 C54.9070423,144.655 64.7797746,154.5 76.9690141,154.5 L76.9690141,175.73 Z M153.027662,147.845 C150.214761,138.935 141.941521,132.5 132.123944,132.5 L121.092958,132.5 L121.092958,99.5 C121.092958,93.45 116.129014,88.5 110.061972,88.5 L43.8760563,88.5 L43.8760563,66.5 L65.9380282,66.5 C72.0050704,66.5 76.9690141,61.55 76.9690141,55.5 L76.9690141,33.5 L99.0309859,33.5 C111.220225,33.5 121.092958,23.655 121.092958,11.5 L121.092958,6.935 C153.413746,19.97 176.247887,51.54 176.247887,88.5 C176.247887,111.38 167.423099,132.17 153.027662,147.845 Z" id="Shape" fill="#157EF4" sketch:type="MSShapeGroup" mask="url(#mask-3)"></path>
                    <path d="M91.2050718,0.0572818881 C93.8187887,0.18843941 133.375,43.3512476 133.375,44 C133.375,68.300529 113.470326,88 88.9166667,88 C88.6118551,88.0958521 88.3062896,88.0927835 88,88.0927835 C63.4722288,88.0927835 43.5885417,107.771484 43.5885417,132.046392 C43.5885417,144.227931 48.5956398,155.252057 56.6840528,163.212838 C56.8493786,163.380815 101.016051,207.547487 101.184053,207.712838 C109.251346,215.909493 120.525005,221 133,221 C133.30629,221 133.611855,220.996931 133.916667,220.995324 C182.095496,220.503637 221,181.295135 221,133 C221,108.572308 211.046909,86.4692857 194.974898,70.5251023 C194.808897,70.357771 150.642229,26.1911028 150.474898,26.0251023 C135.231039,10.6590304 114.357495,0.886154906 91.2050718,0.0572818881 Z" id="Long-Shadow" fill="url(#linearGradient-4)" sketch:type="MSShapeGroup" mask="url(#mask-3)"></path>
                    <mask id="mask-7" sketch:name="Mask Copy" fill="white">
                        <use xlink:href="#path-6"></use>
                    </mask>
                    <g id="Mask-Copy" filter="url(#filter-5)"></g>
                    <rect id="Finish-Lighting-+-Tints" fill="url(#radialGradient-8)" sketch:type="MSShapeGroup" mask="url(#mask-7)" x="-8" y="-8" width="192" height="192"></rect>
                </g>
                <g id="Mask-+-Finish-Lighting-+-Tints-Copy" transform="translate(51.000000, 8.000000)">
                    <mask id="mask-11" sketch:name="Mask" fill="white">
                        <use xlink:href="#path-10"></use>
                    </mask>
                    <use id="Mask" fill="#54B254" filter="url(#filter-9)" sketch:type="MSShapeGroup" xlink:href="#path-10"></use>
                    <mask id="mask-14" sketch:name="Mask Copy 2" fill="white">
                        <use xlink:href="#path-13"></use>
                    </mask>
                    <g id="Mask-Copy-2" filter="url(#filter-12)"></g>
                    <rect id="Finish-Lighting-+-Tints-Copy" fill="url(#radialGradient-8)" sketch:type="MSShapeGroup" mask="url(#mask-14)" x="-49" y="-9" width="192" height="192"></rect>
                </g>
            </g>
        </g>
    </g>
</svg>