<?xml version="1.0" encoding="UTF-8" standalone="no"?>
<!-- Created with Inkscape (http://www.inkscape.org/) -->

<svg
   xmlns:dc="http://purl.org/dc/elements/1.1/"
   xmlns:cc="http://creativecommons.org/ns#"
   xmlns:rdf="http://www.w3.org/1999/02/22-rdf-syntax-ns#"
   xmlns:svg="http://www.w3.org/2000/svg"
   xmlns="http://www.w3.org/2000/svg"
   xmlns:xlink="http://www.w3.org/1999/xlink"
   xmlns:sodipodi="http://sodipodi.sourceforge.net/DTD/sodipodi-0.dtd"
   xmlns:inkscape="http://www.inkscape.org/namespaces/inkscape"
   width="192"
   height="192"
   id="svg2"
   version="1.1"
   inkscape:version="0.91 r13725"
   sodipodi:docname="instagram.svg"
   inkscape:export-filename="C:\Users\Simon\Documents\Material Design Icon Pack\PNG\instagram.png"
   inkscape:export-xdpi="90"
   inkscape:export-ydpi="90">
  <sodipodi:namedview
     id="base"
     pagecolor="#ffffff"
     bordercolor="#666666"
     borderopacity="1.0"
     inkscape:pageopacity="0.0"
     inkscape:pageshadow="2"
     inkscape:zoom="2.8284271"
     inkscape:cx="173.4246"
     inkscape:cy="95.722498"
     inkscape:document-units="px"
     inkscape:current-layer="layer4"
     showgrid="true"
     showguides="true"
     inkscape:guide-bbox="true"
     inkscape:window-width="1920"
     inkscape:window-height="1017"
     inkscape:window-x="-8"
     inkscape:window-y="-8"
     inkscape:window-maximized="1"
     inkscape:snap-global="false">
    <inkscape:grid
       snapvisiblegridlinesonly="true"
       enabled="true"
       visible="true"
       empspacing="5"
       id="grid2985"
       type="xygrid" />
    <sodipodi:guide
       id="guide3002"
       position="8,58.524064"
       orientation="1,0" />
    <sodipodi:guide
       id="guide3004"
       position="20,69.304813"
       orientation="1,0" />
    <sodipodi:guide
       id="guide3006"
       position="32,62.631016"
       orientation="1,0" />
    <sodipodi:guide
       id="guide3008"
       position="68,53.390374"
       orientation="1,0" />
    <sodipodi:guide
       id="guide3010"
       position="119.61497,8"
       orientation="0,1" />
    <sodipodi:guide
       id="guide3012"
       position="155.5508,20"
       orientation="0,1" />
    <sodipodi:guide
       id="guide3014"
       position="132.96257,32"
       orientation="0,1" />
    <sodipodi:guide
       id="guide3016"
       position="56.250001,68.000001"
       orientation="0,1" />
    <sodipodi:guide
       id="guide3018"
       position="137.06952,184"
       orientation="0,1" />
    <sodipodi:guide
       id="guide3020"
       position="184,145.79679"
       orientation="1,0" />
    <sodipodi:guide
       id="guide3022"
       position="91.379679,172"
       orientation="0,1" />
    <sodipodi:guide
       id="guide3024"
       position="172,101.64706"
       orientation="1,0" />
    <sodipodi:guide
       id="guide3026"
       position="149.39037,160"
       orientation="0,1" />
    <sodipodi:guide
       id="guide3028"
       position="160,88.299465"
       orientation="1,0" />
    <sodipodi:guide
       id="guide3030"
       position="128.34225,124"
       orientation="0,1" />
    <sodipodi:guide
       id="guide3032"
       position="124,92.919786"
       orientation="1,0" />
  </sodipodi:namedview>
  <defs
     id="defs4">
    <linearGradient
       inkscape:collect="always"
       id="linearGradient4221">
      <stop
         style="stop-color:#3e2723;stop-opacity:1;"
         offset="0"
         id="stop4223" />
      <stop
         style="stop-color:#3e2723;stop-opacity:0;"
         offset="1"
         id="stop4225" />
    </linearGradient>
    <linearGradient
       inkscape:collect="always"
       id="linearGradient7857">
      <stop
         style="stop-color:#ffffff;stop-opacity:1;"
         offset="0"
         id="stop7859" />
      <stop
         style="stop-color:#ffffff;stop-opacity:0;"
         offset="1"
         id="stop7861" />
    </linearGradient>
    <linearGradient
       inkscape:collect="always"
       id="linearGradient7849">
      <stop
         style="stop-color:#ffffff;stop-opacity:1;"
         offset="0"
         id="stop7851" />
      <stop
         style="stop-color:#ffffff;stop-opacity:0;"
         offset="1"
         id="stop7853" />
    </linearGradient>
    <clipPath
       id="clipPath6220"
       clipPathUnits="userSpaceOnUse">
      <rect
         style="fill:#efebe9;fill-opacity:1;stroke:#efebe9;stroke-width:1.00005436;stroke-linejoin:round;stroke-miterlimit:4;stroke-dasharray:none;stroke-opacity:1"
         id="rect6222"
         width="150.99994"
         height="150.99994"
         x="20.500031"
         y="20.500031"
         ry="10.897427" />
    </clipPath>
    <filter
       id="filter6255"
       inkscape:label="Drop Shadow"
       style="color-interpolation-filters:sRGB;"
       width="1.25"
       height="1.3300000000000001">
      <feFlood
         id="feFlood6257"
         result="flood"
         flood-color="rgb(0,0,0)"
         flood-opacity="0.11" />
      <feComposite
         id="feComposite6259"
         result="composite1"
         operator="in"
         in2="SourceGraphic"
         in="flood" />
      <feGaussianBlur
         id="feGaussianBlur6261"
         result="blur"
         stdDeviation="3"
         in="composite1" />
      <feOffset
         id="feOffset6263"
         result="offset"
         dy="3"
         dx="4.57967e-015" />
      <feComposite
         id="feComposite6265"
         result="composite2"
         operator="over"
         in2="offset"
         in="SourceGraphic" />
    </filter>
    <radialGradient
       inkscape:collect="always"
       xlink:href="#linearGradient7849"
       id="radialGradient7855"
       cx="20"
       cy="20.5"
       fx="20"
       fy="20.5"
       r="75.999997"
       gradientUnits="userSpaceOnUse"
       gradientTransform="matrix(0.00326785,1.9934292,-1.9999945,0.00327861,60.934531,-19.435796)" />
    <radialGradient
       inkscape:collect="always"
       xlink:href="#linearGradient7857"
       id="radialGradient7863"
       cx="20"
       cy="20.5"
       fx="20"
       fy="20.5"
       r="75.999997"
       gradientUnits="userSpaceOnUse"
       gradientTransform="matrix(0.00326786,1.9934292,-1.9999945,0.00327862,60.93453,-19.435796)" />
    <filter
       style="color-interpolation-filters:sRGB;"
       inkscape:label="Drop Shadow"
       id="filter7869">
      <feFlood
         flood-opacity="0.29999999999999999"
         flood-color="rgb(0,0,0)"
         result="flood"
         id="feFlood7871" />
      <feComposite
         in="flood"
         in2="SourceGraphic"
         operator="in"
         result="composite1"
         id="feComposite7873" />
      <feGaussianBlur
         in="composite1"
         stdDeviation="3"
         result="blur"
         id="feGaussianBlur7875" />
      <feOffset
         dx="4.57967e-015"
         dy="3"
         result="offset"
         id="feOffset7877" />
      <feComposite
         in="SourceGraphic"
         in2="offset"
         operator="over"
         result="composite2"
         id="feComposite7879" />
    </filter>
    <clipPath
       clipPathUnits="userSpaceOnUse"
       id="clipPath7887">
      <g
         id="g7889">
        <rect
           style="opacity:1;fill:#bfbcba;fill-opacity:1;stroke:#bfbcba;stroke-width:1.00005436;stroke-linejoin:round;stroke-miterlimit:4;stroke-dasharray:none;stroke-opacity:1"
           id="rect7891"
           width="150.99994"
           height="150.99994"
           x="20.500031"
           y="20.500031"
           ry="10.897427" />
        <rect
           ry="10.824311"
           y="20.498356"
           x="20.498356"
           height="149.98682"
           width="151.0033"
           id="rect7893"
           style="fill:#efebe9;fill-opacity:1;stroke:#efebe9;stroke-width:0.99670488;stroke-linejoin:round;stroke-miterlimit:4;stroke-dasharray:none;stroke-opacity:1" />
      </g>
    </clipPath>
    <clipPath
       clipPathUnits="userSpaceOnUse"
       id="clipPath4236">
      <g
         style="filter:url(#filter7869)"
         id="g4238"
         transform="matrix(0.94474793,0,0,0.94474793,5.4675865,5.2874142)">
        <rect
           style="opacity:1;fill:#bfbcba;fill-opacity:1;stroke:#bfbcba;stroke-width:1.00005436;stroke-linejoin:round;stroke-miterlimit:4;stroke-dasharray:none;stroke-opacity:1"
           id="rect4240"
           width="150.99994"
           height="150.99994"
           x="20.500031"
           y="20.500031"
           ry="10.897427" />
        <rect
           ry="10.824311"
           y="20.498356"
           x="20.498356"
           height="149.98682"
           width="151.0033"
           id="rect4242"
           style="fill:#ebe4df;fill-opacity:1;stroke:#ebe4df;stroke-width:0.99670488;stroke-linejoin:round;stroke-miterlimit:4;stroke-dasharray:none;stroke-opacity:1" />
      </g>
    </clipPath>
    <clipPath
       clipPathUnits="userSpaceOnUse"
       id="clipPath4250">
      <g
         style="filter:url(#filter7869)"
         id="g4252"
         transform="matrix(0.89105062,0,0,0.89105062,10.266296,10.077705)">
        <rect
           style="opacity:1;fill:#bfbcba;fill-opacity:1;stroke:#bfbcba;stroke-width:1.00005436;stroke-linejoin:round;stroke-miterlimit:4;stroke-dasharray:none;stroke-opacity:1"
           id="rect4254"
           width="150.99994"
           height="150.99994"
           x="20.500031"
           y="20.500031"
           ry="10.897427" />
        <rect
           ry="10.824311"
           y="20.498356"
           x="20.498356"
           height="149.98682"
           width="151.0033"
           id="rect4256"
           style="fill:#ebe4df;fill-opacity:1;stroke:#ebe4df;stroke-width:0.99670488;stroke-linejoin:round;stroke-miterlimit:4;stroke-dasharray:none;stroke-opacity:1" />
      </g>
    </clipPath>
    <linearGradient
       inkscape:collect="always"
       xlink:href="#linearGradient4221"
       id="linearGradient4227"
       x1="54.567921"
       y1="52.594063"
       x2="162.45288"
       y2="162.85596"
       gradientUnits="userSpaceOnUse" />
    <filter
       style="color-interpolation-filters:sRGB;"
       inkscape:label="Drop Shadow"
       id="filter4241"
       height="1.3400000000000001"
       width="1.5100000000000002"
       x="-0.22000000000000008">
      <feFlood
         flood-opacity="0.20000000000000001"
         flood-color="rgb(62,39,35)"
         result="flood"
         id="feFlood4243" />
      <feComposite
         in="flood"
         in2="SourceGraphic"
         operator="in"
         result="composite1"
         id="feComposite4245" />
      <feGaussianBlur
         in="composite1"
         stdDeviation="6"
         result="blur"
         id="feGaussianBlur4247" />
      <feOffset
         dx="4.57967e-015"
         dy="6"
         result="offset"
         id="feOffset4249" />
      <feComposite
         in="SourceGraphic"
         in2="offset"
         operator="over"
         result="composite2"
         id="feComposite4251" />
    </filter>
  </defs>
  <metadata
     id="metadata7">
    <rdf:RDF>
      <cc:Work
         rdf:about="">
        <dc:format>image/svg+xml</dc:format>
        <dc:type
           rdf:resource="http://purl.org/dc/dcmitype/StillImage" />
        <dc:title />
      </cc:Work>
    </rdf:RDF>
  </metadata>
  <g
     style="display:inline"
     inkscape:label="Square"
     id="layer4"
     inkscape:groupmode="layer">
    <g
       id="g4257"
       style="filter:url(#filter7869)">
      <rect
         ry="10.897427"
         y="20.500031"
         x="20.500031"
         height="150.99994"
         width="150.99994"
         id="rect7797"
         style="opacity:1;fill:#c8bfba;fill-opacity:1;stroke:#bfbcba;stroke-width:1.00005436;stroke-linejoin:round;stroke-miterlimit:4;stroke-dasharray:none;stroke-opacity:1" />
      <rect
         style="fill:#ebe4df;fill-opacity:1;stroke:#ebe4df;stroke-width:0.99670488;stroke-linejoin:round;stroke-miterlimit:4;stroke-dasharray:none;stroke-opacity:1;"
         id="rect3811"
         width="151.0033"
         height="149.98682"
         x="20.498356"
         y="20.498356"
         ry="10.824311" />
    </g>
    <rect
       style="opacity:1;fill:#94776d;fill-opacity:1;fill-rule:nonzero;stroke:none;stroke-width:15;stroke-linecap:butt;stroke-linejoin:miter;stroke-miterlimit:4;stroke-dasharray:none;stroke-dashoffset:0;stroke-opacity:1"
       id="rect7799"
       width="153.93333"
       height="49.066669"
       x="19"
       y="19"
       ry="0"
       clip-path="url(#clipPath6220)"
       transform="matrix(1.0066226,0,0,0.96312749,-0.63576184,0.25588822)" />
    <rect
       transform="matrix(1.0066226,0,0,0.96719006,-0.63576184,1.1726055)"
       clip-path="url(#clipPath6220)"
       ry="0"
       y="19"
       x="19"
       height="50.10059"
       width="153.87125"
       id="rect6211"
       style="opacity:1;fill:#795548;fill-opacity:1;fill-rule:nonzero;stroke:none;stroke-width:15;stroke-linecap:butt;stroke-linejoin:miter;stroke-miterlimit:4;stroke-dasharray:none;stroke-dashoffset:0;stroke-opacity:1" />
    <path
       style="opacity:0.2;fill:url(#linearGradient4227);fill-opacity:1;fill-rule:nonzero;stroke:none;stroke-width:6;stroke-linecap:butt;stroke-linejoin:miter;stroke-miterlimit:4;stroke-dasharray:none;stroke-dashoffset:0;stroke-opacity:1"
       d="m 96.654481,60.748444 c -19.590336,4.63e-4 -35.47112,16.023826 -35.470846,35.789309 -1.4e-4,10.033977 4.097976,19.098037 10.690893,25.596607 0.194634,0.20121 0.390202,0.40055 0.589456,0.59711 0.205726,0.21283 0.413731,0.42289 0.624619,0.6305 0.191218,0.1974 0.385517,0.3917 0.581183,0.5846 0.192466,0.19893 0.386275,0.39649 0.583254,0.59085 0.204381,0.21141 0.411005,0.42006 0.62048,0.62636 0.189354,0.19543 0.381264,0.38729 0.574979,0.57832 0.194523,0.201 0.390327,0.40075 0.589458,0.59711 0.193849,0.20029 0.391031,0.39725 0.589457,0.59293 0.193339,0.19975 0.387429,0.39778 0.585319,0.59296 0.192668,0.19902 0.388135,0.39427 0.585322,0.58874 0.193541,0.19994 0.389288,0.39762 0.587389,0.59296 0.189911,0.19609 0.380678,0.39083 0.574979,0.58248 0.194648,0.20106 0.392267,0.39864 0.591527,0.59503 0.188601,0.19466 0.377914,0.38807 0.570842,0.57834 0.184487,0.19043 0.371873,0.37744 0.5605,0.5637 0.200041,0.20675 0.40109,0.41198 0.606005,0.61382 0.181884,0.18749 0.366325,0.37191 0.552228,0.55535 0.189833,0.19601 0.38076,0.39092 0.574978,0.58251 0.185863,0.19182 0.374574,0.3803 0.564638,0.56787 0.186794,0.19284 0.375669,0.38351 0.566707,0.57208 0.186444,0.19248 0.373966,0.38386 0.564637,0.57206 0.185772,0.19175 0.374669,0.38037 0.564639,0.56788 0.187141,0.19315 0.375306,0.38529 0.566707,0.57415 0.183166,0.18898 0.369118,0.37468 0.556363,0.55952 0.184099,0.19 0.370215,0.37788 0.558434,0.56374 0.18375,0.18961 0.368509,0.37821 0.556365,0.56369 0.18485,0.19074 0.371494,0.37924 0.560502,0.56579 0.180729,0.18642 0.363394,0.37089 0.548091,0.55329 0.183773,0.1896 0.370554,0.37615 0.558434,0.56161 0.179795,0.18544 0.36023,0.36972 0.543954,0.55118 0.180713,0.18643 0.363408,0.37086 0.548093,0.55328 0.182231,0.18799 0.365959,0.37353 0.552228,0.55744 0.17982,0.1854 0.362275,0.36765 0.546023,0.5491 0.177447,0.18294 0.356479,0.36375 0.53775,0.54283 0.180071,0.18572 0.362014,0.36945 0.546024,0.55117 0.17643,0.18189 0.353403,0.3627 0.533614,0.54075 0.179379,0.18498 0.360666,0.36806 0.543955,0.54911 0.177122,0.18255 0.356818,0.36202 0.537752,0.54073 0.176445,0.18186 0.353385,0.36271 0.533612,0.54074 0.174058,0.17938 0.349674,0.35674 0.527408,0.53241 0.175322,0.18074 0.352494,0.35959 0.531548,0.53656 0.174653,0.18002 0.35112,0.35819 0.529476,0.53447 0.175684,0.18109 0.354184,0.35928 0.533616,0.53658 0.173745,0.17902 0.34793,0.35708 0.52534,0.53238 0.17272,0.17795 0.346929,0.35395 0.523273,0.52823 0.171354,0.17652 0.344215,0.35112 0.519135,0.52405 0.171273,0.17647 0.344302,0.35113 0.519137,0.52402 0.17127,0.17649 0.344302,0.35117 0.519134,0.52405 0.172636,0.17789 0.34702,0.35399 0.523274,0.52823 0.17002,0.1751 0.341469,0.34829 0.514999,0.51986 0.170021,0.1751 0.341475,0.3483 0.514995,0.51985 0.16731,0.17228 0.33603,0.3427 0.50673,0.51154 0.16448,0.1694 0.33068,0.33703 0.49846,0.50314 0.17777,0.18328 0.35613,0.36552 0.53773,0.54493 0.16156,0.16613 0.3255,0.32979 0.4902,0.49271 0.16865,0.17372 0.33876,0.34548 0.51086,0.51571 0.16467,0.16949 0.3305,0.33696 0.49845,0.50315 0.16587,0.17079 0.33339,0.33991 0.50259,0.50735 0.16657,0.17148 0.33472,0.34132 0.50465,0.50941 0.16327,0.16803 0.32785,0.33424 0.49433,0.499 0.16385,0.16866 0.32926,0.3357 0.49638,0.50107 0.1635,0.16832 0.32757,0.33605 0.4943,0.50109 0.16284,0.16758 0.32828,0.33253 0.49434,0.49687 0.16351,0.16832 0.32756,0.33607 0.49432,0.50109 0.16054,0.16516 0.32236,0.32863 0.48603,0.49064 0.16285,0.16758 0.32827,0.33256 0.49431,0.4969 0.15921,0.16377 0.31966,0.32579 0.48192,0.48645 0.1598,0.16442 0.32108,0.32726 0.48397,0.48856 0.15538,0.15983 0.31122,0.31914 0.4695,0.47602 0.17001,0.17509 0.34147,0.34832 0.515,0.51987 0.15179,0.1559 0.30457,0.3104 0.45916,0.46349 0.15775,0.16226 0.317,0.32307 0.47777,0.48229 0.1602,0.1648 0.32271,0.32687 0.48606,0.48854 0.15548,0.15983 0.31105,0.31915 0.46948,0.47604 0.15478,0.15912 0.31179,0.31561 0.46951,0.47183 0.15551,0.15995 0.31103,0.31905 0.46946,0.47603 0.15643,0.16082 0.31428,0.32026 0.47365,0.47809 0.15311,0.15738 0.30736,0.31319 0.46329,0.46768 0.15371,0.15802 0.30882,0.31462 0.46538,0.46975 0.15335,0.15768 0.30914,0.31287 0.46536,0.46769 0.15268,0.15696 0.3057,0.31355 0.46121,0.46768 0.15373,0.15799 0.3088,0.31462 0.46537,0.46975 0.15038,0.15452 0.30189,0.30754 0.45502,0.45931 0.15099,0.15519 0.30333,0.309 0.45708,0.4614 0.15216,0.15638 0.30628,0.30996 0.46123,0.46349 0.15007,0.15418 0.30016,0.30791 0.45295,0.45934 0.14802,0.15204 0.29814,0.30158 0.44882,0.45097 0.15006,0.15418 0.30016,0.30786 0.45295,0.4593 0.14832,0.15233 0.29783,0.30342 0.44881,0.45307 0.14769,0.15167 0.29642,0.30194 0.44675,0.45095 0.14565,0.14958 0.29232,0.29774 0.44053,0.44472 0.14695,0.15094 0.29514,0.30058 0.44469,0.44888 0.14147,0.14531 0.28423,0.28931 0.42814,0.43218 0.15582,0.16019 0.3128,0.31877 0.47155,0.476 0.14166,0.14528 0.28407,0.28937 0.42813,0.4322 0.1416,0.1453 0.28412,0.28929 0.42815,0.43217 0.14422,0.14811 0.28966,0.29495 0.43638,0.44054 0.14288,0.14668 0.28695,0.29214 0.43228,0.43634 0.14288,0.1467 0.28693,0.29213 0.43228,0.43635 0.14321,0.14704 0.2886,0.29181 0.43432,0.43636 0.14057,0.14427 0.28104,0.28823 0.424,0.43008 0.14085,0.14457 0.28283,0.28795 0.42607,0.43009 0.14164,0.14539 0.28405,0.28924 0.42813,0.43218 0.13955,0.14319 0.28001,0.2851 0.42192,0.42592 0.1382,0.14179 0.27731,0.28227 0.4178,0.42174 0.14015,0.14385 0.28146,0.28655 0.42398,0.42799 0.13687,0.14038 0.27457,0.27948 0.41366,0.41758 0.13884,0.14242 0.27871,0.28374 0.41987,0.42381 0.13718,0.1407 0.27419,0.28124 0.41364,0.41966 0.1365,0.14001 0.27492,0.27774 0.41367,0.41548 0.13445,0.13789 0.26873,0.27561 0.40538,0.41128 0.13518,0.13868 0.27213,0.27487 0.40951,0.41131 0.13474,0.13821 0.27051,0.2753 0.40746,0.41129 0.13586,0.13938 0.27142,0.27837 0.40951,0.41549 0.12797,0.13119 0.25682,0.2612 0.38677,0.39042 0.14429,0.14812 0.28957,0.29492 0.43641,0.44052 0.12567,0.12868 0.25298,0.25533 0.38057,0.38207 0.13179,0.13515 0.26321,0.26993 0.39709,0.40295 0.13168,0.13501 0.2654,0.26796 0.39917,0.40087 0.13215,0.13548 0.26492,0.26958 0.39918,0.40293 0.12423,0.12734 0.24825,0.25454 0.37436,0.38 0.14159,0.1453 0.28412,0.28931 0.42814,0.43216 0.12193,0.12479 0.24441,0.24869 0.36815,0.37163 0.12872,0.13194 0.25811,0.2626 0.38883,0.39253 0.12794,0.13112 0.25684,0.26127 0.38678,0.39041 0.12873,0.13194 0.25809,0.2626 0.38882,0.39252 0.127,0.1301 0.25575,0.25809 0.38469,0.38624 0.12633,0.1294 0.25231,0.25879 0.38057,0.38624 0.12462,0.12764 0.24996,0.25424 0.37643,0.37999 0.12596,0.12905 0.25266,0.25702 0.38057,0.38416 0.12354,0.12652 0.24895,0.25113 0.37434,0.37581 0.12526,0.12829 0.25135,0.25566 0.37851,0.38205 0.12359,0.12659 0.24683,0.25318 0.37228,0.37791 0.12189,0.1248 0.24447,0.24862 0.36814,0.37163 0.12193,0.12488 0.24444,0.24855 0.36818,0.37162 0.12318,0.12618 0.24724,0.25148 0.37228,0.37581 0.11985,0.1227 0.24036,0.24441 0.36193,0.36536 0.12083,0.12374 0.24351,0.2455 0.36609,0.36746 0.12014,0.12301 0.24007,0.24621 0.36195,0.36747 0.12054,0.1234 0.24173,0.2458 0.36402,0.36745 0.11777,0.12053 0.23629,0.24025 0.35573,0.35909 0.11846,0.12126 0.23768,0.24168 0.35782,0.3612 0.11889,0.12169 0.23928,0.24121 0.35988,0.36119 0.11613,0.11882 0.23179,0.23775 0.34954,0.35493 0.1164,0.11914 0.23358,0.23745 0.35161,0.35494 0.11639,0.11912 0.23357,0.23744 0.35161,0.35491 0.11674,0.11949 0.23526,0.23713 0.35366,0.35494 0.11408,0.1167 0.2277,0.23354 0.34333,0.34867 0.1154,0.11806 0.23255,0.23431 0.34954,0.35074 0.1141,0.1167 0.22768,0.23355 0.34333,0.34867 0.11307,0.11564 0.22667,0.23042 0.34128,0.34449 0.11306,0.11565 0.22667,0.2304 0.34127,0.34449 0.11098,0.11353 0.22255,0.22618 0.33504,0.33822 0.11266,0.11522 0.22501,0.23079 0.33922,0.3445 0.10997,0.11245 0.22154,0.22305 0.33298,0.33404 0.11028,0.11277 0.22124,0.22483 0.33298,0.33614 0.10995,0.11243 0.21954,0.22519 0.33093,0.33615 0.10925,0.1117 0.22023,0.2217 0.33091,0.33195 0.10995,0.11242 0.21954,0.22521 0.33094,0.33614 0.10725,0.10965 0.21607,0.21745 0.32472,0.32569 0.10859,0.111 0.21678,0.22241 0.32678,0.33197 0.10729,0.10964 0.21606,0.21746 0.32472,0.32572 0.10658,0.10891 0.21263,0.21813 0.32059,0.32569 0.1059,0.10822 0.21331,0.21465 0.32059,0.32151 0.10419,0.10647 0.20885,0.21218 0.31436,0.31735 0.1059,0.10819 0.2113,0.21679 0.31852,0.3236 0.1031,0.1054 0.20784,0.20906 0.31232,0.31318 0.10341,0.1057 0.20752,0.21085 0.31229,0.31527 0.1031,0.10539 0.20583,0.21117 0.31026,0.31526 0.10341,0.1057 0.20752,0.21085 0.31229,0.31525 0.10215,0.10429 0.20476,0.20801 0.30817,0.31108 0.10051,0.1026 0.20238,0.20346 0.30404,0.30483 0.10071,0.10289 0.20206,0.20522 0.30405,0.3069 0.10038,0.10249 0.20033,0.20558 0.30196,0.30692 0.0998,0.10195 0.20097,0.202 0.30195,0.30273 0.10008,0.10225 0.20065,0.20378 0.30198,0.30482 0.0922,0.0941 0.18391,0.18875 0.27714,0.28185 0.10967,0.11211 0.21983,0.2234 0.33092,0.33406 0.0922,0.0939 0.18593,0.18671 0.27923,0.27976 0.0971,0.0991 0.19343,0.19854 0.29163,0.29647 0.0964,0.0985 0.19414,0.19506 0.29162,0.29229 0.0951,0.0971 0.18932,0.19434 0.28541,0.29021 0.0958,0.0978 0.19279,0.19366 0.28958,0.29022 0.0935,0.0954 0.18661,0.19156 0.28127,0.28602 0.0955,0.0975 0.19103,0.19397 0.28749,0.2902 0.0932,0.0953 0.18696,0.1898 0.28131,0.28395 0.0929,0.0948 0.18727,0.18805 0.28126,0.28185 0.0926,0.0945 0.18557,0.18839 0.27922,0.28185 0.0909,0.0927 0.18111,0.18594 0.27302,0.2777 0.0919,0.0937 0.18424,0.18702 0.27715,0.27976 0.0843,0.086 0.16916,0.17158 0.25439,0.2568 0.10143,0.10367 0.20338,0.2066 0.30609,0.30899 0.084,0.0855 0.16946,0.16992 0.25439,0.25471 0.0893,0.0909 0.17871,0.18139 0.26889,0.27142 0.0875,0.0893 0.17426,0.17894 0.26266,0.26725 0.0889,0.0906 0.17912,0.17968 0.26888,0.26933 0.0872,0.089 0.17459,0.17719 0.26269,0.26513 0.0853,0.0872 0.17012,0.17477 0.25645,0.26097 0.0872,0.0889 0.17465,0.17725 0.26268,0.26518 0.0858,0.0875 0.17185,0.17439 0.25854,0.26096 0.0843,0.086 0.1691,0.17161 0.25439,0.25682 0.0849,0.0868 0.17052,0.17303 0.25646,0.25887 0.0777,0.079 0.15543,0.1576 0.23372,0.23593 0.0958,0.0978 0.1907,0.19575 0.28749,0.29229 0.0765,0.078 0.15434,0.15453 0.23165,0.23175 0.0817,0.0832 0.16364,0.16601 0.24612,0.24845 0.0814,0.083 0.16189,0.16632 0.24405,0.24846 0.0811,0.0826 0.16231,0.16467 0.24405,0.24635 0.0815,0.083 0.16396,0.16424 0.24612,0.24637 0.08,0.0815 0.15918,0.16357 0.23993,0.24426 0.0794,0.0809 0.15987,0.1601 0.23992,0.24011 0.0781,0.0795 0.15505,0.15937 0.23373,0.238 0.0787,0.0801 0.15851,0.15871 0.23784,0.23801 0.077,0.0784 0.15401,0.15622 0.23164,0.23385 0.0773,0.0788 0.15372,0.158 0.23165,0.23592 0.0765,0.0781 0.15434,0.15444 0.23165,0.23174 0.0758,0.0773 0.1509,0.15515 0.22752,0.23174 0.0751,0.0765 0.15166,0.15173 0.2275,0.22757 0.0754,0.0769 0.15131,0.15348 0.2275,0.22968 0.0735,0.0748 0.14717,0.14923 0.22131,0.22338 0.0735,0.0748 0.1472,0.14928 0.22131,0.22341 0.0731,0.0744 0.14548,0.14961 0.21925,0.22339 0.0725,0.0737 0.14615,0.14612 0.21922,0.21923 0.0728,0.074 0.14581,0.14784 0.21924,0.2213 0.0708,0.072 0.14167,0.14364 0.21304,0.21505 0.0714,0.0727 0.14305,0.14506 0.21509,0.21712 0.0704,0.0718 0.13995,0.14399 0.21096,0.21504 0.0632,0.0642 0.12661,0.12827 0.19029,0.1921 0.0817,0.0833 0.16363,0.16601 0.24611,0.24845 0.0616,0.0626 0.12414,0.12375 0.18615,0.18581 0.0622,0.0633 0.12353,0.12722 0.18615,0.18998 0.0797,0.0812 0.1595,0.16183 0.2399,0.2422 0.0603,0.0613 0.12145,0.121 0.18203,0.18163 0.0662,0.0673 0.13173,0.13563 0.19854,0.20253 0.0659,0.0669 0.13211,0.13389 0.19855,0.20043 0.0592,0.06 0.11839,0.11989 0.17788,0.17954 0.077,0.0784 0.15402,0.15623 0.23165,0.23386 0.0581,0.0589 0.1173,0.11679 0.17581,0.17536 0.0566,0.0576 0.11249,0.11602 0.16958,0.17329 0.0694,0.0707 0.13895,0.1408 0.2089,0.21086 0.0688,0.0699 0.13752,0.13948 0.20684,0.20879 0.0551,0.0558 0.11005,0.11153 0.16546,0.16703 0.0616,0.0626 0.1242,0.12375 0.18614,0.1858 0.0602,0.0612 0.11935,0.12302 0.17995,0.18374 0.06,0.0608 0.11972,0.12131 0.17994,0.18164 0.0591,0.0602 0.11835,0.11991 0.17787,0.17955 0.0591,0.0602 0.11835,0.1199 0.17785,0.17955 0.0588,0.0598 0.1187,0.11817 0.17788,0.17746 0.0574,0.0583 0.11385,0.11744 0.17166,0.17538 0.0571,0.0579 0.11425,0.11573 0.17166,0.17329 0.0571,0.0579 0.11425,0.11573 0.17169,0.17328 0.0557,0.0565 0.11145,0.11291 0.16753,0.16911 0.0551,0.0559 0.11004,0.1115 0.16545,0.16703 0.0554,0.0562 0.10977,0.11328 0.16547,0.16913 0.054,0.0548 0.10905,0.10837 0.16339,0.16285 0.0543,0.0552 0.10874,0.11013 0.1634,0.16492 0.0532,0.0541 0.10557,0.10908 0.15926,0.16285 0.0526,0.0535 0.10631,0.10561 0.15925,0.15866 0.0516,0.0524 0.10321,0.10461 0.15511,0.15661 0.051,0.0519 0.10185,0.1031 0.15306,0.15449 0.0517,0.0525 0.10321,0.1046 0.1551,0.15658 0.0436,0.0444 0.0865,0.0896 0.13031,0.13362 0.0626,0.0636 0.12522,0.12688 0.18823,0.18999 0.0427,0.0432 0.0852,0.0863 0.12823,0.12944 0.0487,0.0495 0.0978,0.0991 0.14684,0.14825 0.0477,0.0484 0.0968,0.0958 0.14478,0.14407 0.0477,0.0484 0.0948,0.098 0.14271,0.14615 0.0468,0.0473 0.0935,0.0947 0.14064,0.14196 0.0457,0.0463 0.0926,0.0916 0.13858,0.13779 0.046,0.0467 0.0922,0.0933 0.13857,0.13989 0.0454,0.046 0.0909,0.0919 0.13651,0.13779 0.0444,0.045 0.0878,0.0909 0.13237,0.13571 0.0444,0.045 0.0898,0.0889 0.13443,0.13363 0.0434,0.0439 0.0868,0.0878 0.13031,0.13151 0.0424,0.043 0.0836,0.0868 0.12616,0.12946 0.0427,0.0432 0.0852,0.0865 0.12823,0.12945 0.042,0.0426 0.0839,0.0849 0.12617,0.12735 0.041,0.0415 0.0829,0.0819 0.1241,0.12317 0.0411,0.0416 0.0809,0.084 0.12204,0.12527 0.0399,0.0406 0.0799,0.0809 0.11994,0.12109 0.0391,0.0398 0.0786,0.0795 0.11789,0.11901 0.0325,0.0329 0.0646,0.0653 0.0973,0.0982 0.052,0.0528 0.10278,0.10626 0.15511,0.15868 0.0306,0.0309 0.0623,0.0611 0.0931,0.0918 0.0372,0.0376 0.0743,0.0752 0.11168,0.11273 0.0372,0.0377 0.0743,0.0752 0.11168,0.11274 0.0361,0.0366 0.0733,0.072 0.10962,0.10857 0.0355,0.036 0.0699,0.0728 0.10548,0.10858 0.0345,0.0349 0.0689,0.0697 0.10341,0.10428 0.0345,0.0349 0.0689,0.0697 0.10341,0.10439 0.0334,0.0339 0.0678,0.0664 0.10133,0.10018 0.0334,0.0338 0.0657,0.0686 0.0993,0.10226 0.0331,0.0335 0.066,0.0667 0.0993,0.10018 0.0318,0.0322 0.0633,0.064 0.0951,0.0961 0.0317,0.0319 0.0633,0.064 0.095,0.0959 0.031,0.0312 0.062,0.0628 0.0931,0.0939 0.0302,0.0306 0.0607,0.0614 0.0909,0.0918 0.0296,0.0299 0.0593,0.06 0.089,0.0898 0.0289,0.0293 0.0578,0.0584 0.0869,0.0877 0.0289,0.0293 0.0578,0.0584 0.0869,0.0877 0.0281,0.0285 0.0564,0.057 0.0847,0.0855 0.0275,0.0278 0.055,0.0557 0.0827,0.0834 0.0269,0.0272 0.0537,0.0543 0.0807,0.0815 0.0196,0.0199 0.0382,0.0407 0.0579,0.0606 0.0324,0.0329 0.0646,0.0653 0.0973,0.0982 0.0322,0.0325 0.0649,0.0637 0.0974,0.096 0.0179,0.0182 0.0358,0.0362 0.0538,0.0543 0.0237,0.0241 0.0465,0.0489 0.0703,0.0731 0.023,0.0233 0.0472,0.0456 0.0704,0.069 0.0234,0.0238 0.0467,0.0472 0.0704,0.071 0.022,0.0222 0.044,0.0446 0.0661,0.0667 0.0219,0.0222 0.044,0.0446 0.0661,0.0667 0.0209,0.0212 0.041,0.0435 0.0621,0.0647 0.0203,0.0205 0.0417,0.0401 0.0621,0.0606 0.0206,0.0209 0.0414,0.0419 0.0621,0.0627 0.0193,0.0196 0.0385,0.0389 0.0579,0.0584 0.012,0.0121 0.0231,0.0255 0.0352,0.0376 0.0323,0.0329 0.0646,0.0655 0.0973,0.0982 0.0106,0.0108 0.0222,0.0205 0.0331,0.0312 0.0173,0.0175 0.0345,0.0349 0.0517,0.0522 0.0166,0.0168 0.0331,0.0334 0.0497,0.0502 0.016,0.0161 0.0316,0.0322 0.0475,0.0479 0.0156,0.0157 0.0299,0.0325 0.0456,0.0479 0.0149,0.015 0.0306,0.0289 0.0455,0.0438 0.0146,0.0147 0.0289,0.0292 0.0434,0.0438 0.0133,0.0136 0.0258,0.0282 0.0393,0.0419 0.0131,0.0133 0.0261,0.0265 0.0393,0.0397 0.013,0.0131 0.0262,0.0264 0.0393,0.0397 0.012,0.0121 0.0251,0.0232 0.0372,0.0355 0.006,0.006 0.0106,0.0127 0.0166,0.0189 0.005,0.005 0.0112,0.009 0.0166,0.0147 0.011,0.0111 0.022,0.0222 0.0331,0.0334 0.009,0.009 0.019,0.0212 0.029,0.0314 0.0106,0.0106 0.0206,0.0208 0.0309,0.0312 0.008,0.008 0.0203,0.0184 0.0289,0.0271 0,0 0.002,0.002 0.002,0.002 0.008,0.007 0.0149,0.017 0.0227,0.025 0.007,0.007 0.0153,0.0154 0.0228,0.023 0.007,0.007 0.0153,0.0153 0.0227,0.023 0.007,0.007 0.0138,0.0139 0.0206,0.0208 0.003,0.003 0.007,0.007 0.0105,0.0106 0.0138,0.0139 0.0275,0.0277 0.0415,0.0419 0.005,0.005 0.009,0.009 0.0146,0.0147 0.002,0.002 0.004,0.004 0.006,0.006 10e-4,0.001 0.003,0.003 0.004,0.004 0.002,0.002 0.004,0.004 0.006,0.006 0.001,0.001 0.003,0.003 0.004,0.004 0.002,0.002 0.004,0.004 0.006,0.006 0,0 0.002,0.002 0.002,0.002 0.001,0.001 0.003,0.003 0.004,0.004 0,0 0.002,0.002 0.002,0.002 0.001,0.001 0.003,0.003 0.004,0.004 0,0 0.002,0.002 0.002,0.002 0,0 0.002,0.002 0.002,0.002 7e-4,6.9e-4 10e-4,0.001 0.002,0.002 6.9e-4,6.9e-4 0.001,10e-4 0.002,0.002 0.0293,0.0296 0.0616,0.0561 0.091,0.0855 0.0739,0.0736 0.15081,0.14415 0.22543,0.21712 0.0159,0.0155 0.0318,0.0306 0.0475,0.0459 0.27233,0.26699 0.54455,0.53525 0.82524,0.79337 0.004,0.004 0.008,0.008 0.0123,0.0124 0.003,0.002 0.005,0.005 0.008,0.008 0.003,0.002 0.005,0.005 0.008,0.008 0.002,0.002 0.004,0.004 0.006,0.006 0.001,0.001 0.003,0.003 0.004,0.004 7.4e-4,6.6e-4 10e-4,0.001 0.002,0.002 0.41581,0.38094 0.8406,0.75188 1.27404,1.1128 0.002,0.002 0.004,0.004 0.006,0.006 0.001,10e-4 0.002,0.003 0.004,0.004 7.6e-4,6.2e-4 0.001,0.001 0.002,0.002 0.43725,0.36403 0.88371,0.71767 1.33818,1.06061 7.8e-4,5.8e-4 0.001,0.001 0.002,0.002 0.36864,0.27813 0.74768,0.54419 1.12722,0.80798 0.0877,0.0611 0.17232,0.12568 0.26059,0.18583 0,0 0.002,0.002 0.002,0.002 7.9e-4,5.4e-4 0.001,0.001 0.002,0.002 0.47019,0.32052 0.9495,0.62901 1.43539,0.927 0.4862,0.29819 0.97971,0.5832 1.48087,0.8581 0.002,0.001 0.004,0.003 0.006,0.004 8.4e-4,4.7e-4 0.001,0.002 0.002,0.002 0.50182,0.27499 1.01032,0.53829 1.52638,0.7892 8.5e-4,3.9e-4 0.001,0.002 0.002,0.002 0.5161,0.25088 1.0402,0.48802 1.56982,0.71404 8.3e-4,3.6e-4 0.001,0.002 0.002,0.002 0.52967,0.226 1.0667,0.43847 1.60912,0.63887 8.5e-4,3e-4 0.001,0.002 0.002,0.002 0.54248,0.20036 1.08977,0.38757 1.64428,0.56161 0.001,4.6e-4 0.003,0.002 0.004,0.002 3.33212,1.04576 6.87499,1.60964 10.54817,1.60972 19.59033,-4.5e-4 35.47112,-16.02382 35.47085,-35.7893 6e-5,-4.32372 -0.76067,-8.46856 -2.15306,-12.30559 -0.79592,-2.19415 -1.79878,-4.2861 -2.98452,-6.25509 -0.88835,-1.47486 -1.88013,-2.87992 -2.96383,-4.20485 -6.1e-4,-7.6e-4 -0.001,-10e-4 -0.002,-0.002 -0.003,-0.004 -0.007,-0.006 -0.0105,-0.0107 -0.35792,-0.43716 -0.72463,-0.86674 -1.10239,-1.28609 -6.4e-4,-7.4e-4 -0.001,-0.001 -0.002,-0.002 -0.001,-0.001 -0.003,-0.003 -0.004,-0.004 -0.002,-0.002 -0.004,-0.004 -0.006,-0.006 -0.002,-0.003 -0.007,-0.007 -0.0105,-0.0106 0,0 -0.002,-0.002 -0.002,-0.002 0,0 0,-0.002 0,-0.002 -10e-4,-10e-4 -0.003,-0.003 -0.004,-0.004 -0.29176,-0.32388 -0.59442,-0.63708 -0.89763,-0.94996 -6.8e-4,-6.8e-4 -0.001,-0.001 -0.002,-0.002 -0.004,-0.004 -0.006,-0.008 -0.0105,-0.0124 -0.0796,-0.082 -0.15549,-0.16725 -0.23579,-0.24845 -6.9e-4,-6.9e-4 -0.001,-0.001 -0.002,-0.002 0,0 -0.002,-0.002 -0.002,-0.002 0,0 -0.002,-0.002 -0.002,-0.002 -0.001,-0.001 -0.003,-0.003 -0.004,-0.004 0,0 -0.002,-0.002 -0.002,-0.002 0,0 -0.002,-0.002 -0.002,-0.002 -0.001,-0.001 -0.003,-0.003 -0.004,-0.004 0,0 -0.002,-0.002 -0.002,-0.002 -3.6e-4,-3.8e-4 -0.002,3.6e-4 -0.002,0 0,0 -0.002,-0.002 -0.002,-0.002 0,0 -0.002,-0.002 -0.002,-0.002 -3.4e-4,-3.3e-4 3.4e-4,-0.002 0,-0.002 0,0 -0.002,-0.002 -0.002,-0.002 0,0 -0.002,-0.002 -0.002,-0.002 -3.4e-4,-3.5e-4 -0.002,3.5e-4 -0.002,0 0,0 -0.002,-0.002 -0.002,-0.002 -3.4e-4,-3.4e-4 3.4e-4,-0.002 0,-0.002 0,0 -0.002,-0.002 -0.002,-0.002 0,0 -0.002,-0.002 -0.002,-0.002 -6.8e-4,-6.9e-4 -0.003,-0.003 -0.004,-0.004 0,0 -0.002,0 -0.002,0 0,0 -0.002,-0.002 -0.002,-0.002 0,0 -0.002,-0.002 -0.002,-0.002 0,0 -0.002,-0.002 -0.002,-0.002 -0.001,-0.001 -0.001,-0.003 -0.002,-0.004 0,0 -0.002,-0.002 -0.002,-0.002 0,0 -0.002,0 -0.002,0 -0.001,-0.001 -0.003,-0.003 -0.004,-0.004 -0.001,-10e-4 -0.001,-0.003 -0.002,-0.004 -0.001,-0.001 -0.003,-0.003 -0.004,-0.004 -0.003,-0.003 -0.005,-0.005 -0.008,-0.008 -0.003,-0.003 -0.005,-0.005 -0.008,-0.008 -0.003,-0.003 -0.005,-0.005 -0.008,-0.008 -0.003,-0.003 -0.005,-0.005 -0.008,-0.008 -0.004,-0.004 -0.008,-0.006 -0.0123,-0.0106 0,0 -0.002,-0.002 -0.002,-0.002 -0.002,-0.002 -0.004,-0.006 -0.006,-0.008 -0.003,-0.003 -0.007,-0.007 -0.0105,-0.0106 -0.003,-0.003 -0.007,-0.007 -0.0105,-0.0106 -0.0166,-0.0168 -0.0331,-0.0334 -0.0498,-0.0502 -0.004,-0.004 -0.008,-0.008 -0.0123,-0.0124 -0.001,-0.001 -0.003,-0.003 -0.004,-0.004 -0.003,-0.003 -0.005,-0.005 -0.008,-0.008 -0.005,-0.005 -0.009,-0.009 -0.0146,-0.0147 -0.005,-0.005 -0.009,-0.009 -0.0147,-0.0147 -0.005,-0.005 -0.0113,-0.009 -0.0166,-0.0147 -0.005,-0.005 -0.009,-0.0115 -0.0146,-0.0167 -0.005,-0.005 -0.0114,-0.009 -0.0166,-0.0147 -0.005,-0.005 -0.009,-0.0115 -0.0146,-0.0168 -0.005,-0.005 -0.011,-0.0111 -0.0166,-0.0167 -0.005,-0.005 -0.011,-0.011 -0.0166,-0.0167 -0.006,-0.006 -0.0126,-0.0107 -0.0186,-0.0168 -0.006,-0.006 -0.0106,-0.0128 -0.0166,-0.0189 -0.006,-0.006 -0.0123,-0.0124 -0.0187,-0.0189 -0.006,-0.006 -0.0123,-0.0124 -0.0187,-0.0189 -0.006,-0.006 -0.0142,-0.0121 -0.0206,-0.0189 -0.006,-0.006 -0.012,-0.0144 -0.0187,-0.0208 -0.006,-0.007 -0.0138,-0.0139 -0.0206,-0.0208 -0.006,-0.006 -0.0123,-0.0124 -0.0187,-0.0189 -0.007,-0.007 -0.0155,-0.0137 -0.0228,-0.0208 -0.0292,-0.0297 -0.0575,-0.0604 -0.0869,-0.0898 -0.0155,-0.0157 -0.0322,-0.0302 -0.0475,-0.0459 -0.0163,-0.0165 -0.0312,-0.0338 -0.0475,-0.0503 -0.0163,-0.0165 -0.0335,-0.0316 -0.0497,-0.0479 -0.0173,-0.0175 -0.0345,-0.0349 -0.0517,-0.0522 -0.0179,-0.0182 -0.0359,-0.0362 -0.0538,-0.0543 -0.0187,-0.0189 -0.0372,-0.0376 -0.0558,-0.0563 -0.0187,-0.0189 -0.0372,-0.0376 -0.0558,-0.0563 -0.0193,-0.0196 -0.0385,-0.0389 -0.0579,-0.0584 -0.0203,-0.0205 -0.0396,-0.0422 -0.0601,-0.0627 -0.0203,-0.0205 -0.0417,-0.0401 -0.0621,-0.0606 -0.0213,-0.0215 -0.0427,-0.0432 -0.064,-0.0646 -0.0213,-0.0215 -0.0427,-0.0432 -0.064,-0.0647 -0.0227,-0.023 -0.0454,-0.0459 -0.0684,-0.0688 -0.0234,-0.0238 -0.0468,-0.0472 -0.0703,-0.071 -0.0228,-0.023 -0.0454,-0.0459 -0.0683,-0.0689 -0.0242,-0.0244 -0.0481,-0.0486 -0.0725,-0.0731 -0.0248,-0.0251 -0.0495,-0.0502 -0.0744,-0.0751 -0.0255,-0.0258 -0.0511,-0.0517 -0.0766,-0.0772 -0.0256,-0.0257 -0.051,-0.0517 -0.0766,-0.0772 -0.0261,-0.0265 -0.0524,-0.0529 -0.0787,-0.0794 -0.0275,-0.0279 -0.0551,-0.0557 -0.0827,-0.0835 -0.0269,-0.0271 -0.0537,-0.0544 -0.0808,-0.0815 -0.0282,-0.0285 -0.0564,-0.057 -0.0847,-0.0855 -0.0282,-0.0285 -0.0565,-0.0571 -0.0847,-0.0855 -0.0296,-0.0299 -0.0593,-0.06 -0.089,-0.0898 -0.0296,-0.0301 -0.0593,-0.0599 -0.089,-0.0898 -0.0302,-0.0307 -0.0607,-0.0614 -0.0909,-0.0918 -0.0309,-0.0316 -0.062,-0.0627 -0.0931,-0.0939 -0.0309,-0.0312 -0.062,-0.0628 -0.0931,-0.0939 -0.0323,-0.0329 -0.0646,-0.0655 -0.0973,-0.0982 -0.0323,-0.0328 -0.0646,-0.0655 -0.0973,-0.0982 -0.0338,-0.0343 -0.0675,-0.0681 -0.10133,-0.10226 -0.0334,-0.0339 -0.0677,-0.0664 -0.10133,-0.10018 -0.0345,-0.0349 -0.0689,-0.0697 -0.10342,-0.10449 -0.0352,-0.0356 -0.0703,-0.0712 -0.10548,-0.10646 -0.0289,-0.0293 -0.0558,-0.0607 -0.0847,-0.0898 -0.049,-0.0498 -0.0995,-0.0988 -0.14892,-0.14821 -0.0296,-0.0299 -0.0592,-0.0601 -0.089,-0.0898 -0.0372,-0.0376 -0.0743,-0.0752 -0.11168,-0.11273 -0.0382,-0.0386 -0.0775,-0.0763 -0.11582,-0.11484 -0.0385,-0.0391 -0.0773,-0.0781 -0.11582,-0.1169 -0.0388,-0.0395 -0.077,-0.0798 -0.11584,-0.11902 -0.0388,-0.0394 -0.0789,-0.0778 -0.11789,-0.11693 -0.0399,-0.0404 -0.0799,-0.0809 -0.11996,-0.12108 -0.041,-0.0415 -0.0809,-0.0839 -0.12204,-0.12528 -0.0414,-0.042 -0.0826,-0.0836 -0.12408,-0.12525 -0.042,-0.0426 -0.0839,-0.0849 -0.12617,-0.12736 -0.0424,-0.0429 -0.0858,-0.0846 -0.12822,-0.12737 -0.0427,-0.0433 -0.0852,-0.0863 -0.12824,-0.12944 -0.043,-0.0436 -0.0849,-0.0881 -0.12822,-0.13153 -0.0444,-0.045 -0.0898,-0.0888 -0.13446,-0.13363 -0.0447,-0.0453 -0.0895,-0.0905 -0.13442,-0.13569 -0.0454,-0.046 -0.0908,-0.0919 -0.13652,-0.13779 -0.0457,-0.0463 -0.0905,-0.0936 -0.1365,-0.13989 -0.046,-0.0467 -0.0922,-0.0933 -0.13858,-0.13989 -0.0465,-0.047 -0.0938,-0.093 -0.14063,-0.13988 -0.0474,-0.0481 -0.0949,-0.0964 -0.1427,-0.14407 -0.0484,-0.0491 -0.0961,-0.0994 -0.1448,-0.14823 -0.0487,-0.0497 -0.0978,-0.0991 -0.14685,-0.14823 -0.049,-0.0499 -0.0995,-0.0987 -0.14891,-0.14823 -0.0487,-0.0495 -0.0978,-0.099 -0.14685,-0.14824 -0.0503,-0.0512 -0.10051,-0.10174 -0.15098,-0.15241 -0.051,-0.0519 -0.10174,-0.10311 -0.15304,-0.1545 -0.052,-0.0528 -0.10289,-0.10627 -0.15513,-0.15866 -0.0454,-0.046 -0.0908,-0.0919 -0.13651,-0.13781 -0.0659,-0.0669 -0.13206,-0.13387 -0.19855,-0.20043 -0.0457,-0.0463 -0.0925,-0.0916 -0.13858,-0.13779 -0.0546,-0.0555 -0.10839,-0.11191 -0.1634,-0.16704 -0.054,-0.0549 -0.10906,-0.10838 -0.16338,-0.16284 -0.0543,-0.0552 -0.10875,-0.11015 -0.1634,-0.16494 -0.0557,-0.0565 -0.11148,-0.11293 -0.16753,-0.16912 -0.0557,-0.0565 -0.11148,-0.11293 -0.16752,-0.16909 -0.0571,-0.0579 -0.11423,-0.11575 -0.17168,-0.1733 -0.0571,-0.058 -0.11418,-0.11569 -0.17166,-0.17329 -0.058,-0.059 -0.11732,-0.11677 -0.17579,-0.17537 -0.0582,-0.059 -0.11525,-0.11885 -0.17374,-0.17747 -0.0585,-0.0594 -0.117,-0.11853 -0.17582,-0.17746 -0.06,-0.0609 -0.11973,-0.12132 -0.17993,-0.18164 -0.0537,-0.0545 -0.10735,-0.1087 -0.16133,-0.16284 -0.0731,-0.0744 -0.14544,-0.1496 -0.21924,-0.22341 -0.0546,-0.0555 -0.11044,-0.10984 -0.16545,-0.16493 -0.0622,-0.0632 -0.12556,-0.12517 -0.18821,-0.18791 -0.0626,-0.0636 -0.1252,-0.12687 -0.18822,-0.18998 -0.0626,-0.0636 -0.12519,-0.12688 -0.18822,-0.18999 -0.0629,-0.0639 -0.12484,-0.12863 -0.1882,-0.1921 -0.0645,-0.0656 -0.12935,-0.13109 -0.19442,-0.19625 -0.0638,-0.0649 -0.12796,-0.12967 -0.19237,-0.19416 -0.0652,-0.0663 -0.13071,-0.13249 -0.19646,-0.19834 -0.0652,-0.0663 -0.13073,-0.1325 -0.19649,-0.19835 -0.0662,-0.0673 -0.13382,-0.13353 -0.20063,-0.20043 -0.0676,-0.0689 -0.13448,-0.13843 -0.20268,-0.20669 -0.0665,-0.0677 -0.13347,-0.13527 -0.20064,-0.20252 -0.0683,-0.0695 -0.13792,-0.13774 -0.20683,-0.20669 -0.0688,-0.0699 -0.13753,-0.13944 -0.2068,-0.20878 -0.0694,-0.0706 -0.13892,-0.14085 -0.20891,-0.21087 -0.0688,-0.07 -0.13754,-0.13945 -0.20683,-0.20879 -0.07,-0.0713 -0.14032,-0.14226 -0.21097,-0.21295 -0.0648,-0.066 -0.12902,-0.1328 -0.19441,-0.19835 -0.0837,-0.0852 -0.16773,-0.17021 -0.25233,-0.2547 -0.0656,-0.0666 -0.13234,-0.13212 -0.19855,-0.19835 -0.0725,-0.0737 -0.1441,-0.14821 -0.21717,-0.2213 -0.0745,-0.0759 -0.15024,-0.15031 -0.22543,-0.22549 -0.0721,-0.0735 -0.14443,-0.14644 -0.21718,-0.21922 -0.074,-0.0754 -0.14856,-0.15066 -0.22337,-0.22549 -0.0748,-0.0762 -0.14988,-0.15199 -0.22544,-0.22757 -0.0751,-0.0765 -0.1496,-0.1538 -0.22545,-0.22964 -0.0758,-0.0772 -0.15303,-0.15313 -0.22957,-0.22968 -0.0765,-0.0781 -0.15234,-0.15662 -0.22958,-0.23383 -0.0781,-0.0794 -0.15715,-0.15731 -0.23577,-0.23593 -0.0771,-0.0784 -0.15402,-0.15622 -0.23166,-0.23383 -0.0781,-0.0794 -0.15509,-0.1594 -0.23371,-0.238 -0.0731,-0.0745 -0.14757,-0.14752 -0.22131,-0.22133 -0.0919,-0.0937 -0.18417,-0.18698 -0.27715,-0.27975 -0.0728,-0.0741 -0.14574,-0.14787 -0.21923,-0.22132 -0.0807,-0.0823 -0.16058,-0.16499 -0.242,-0.24637 -0.081,-0.0825 -0.16224,-0.16458 -0.24405,-0.24635 -0.0757,-0.0772 -0.15305,-0.15309 -0.22957,-0.22966 -0.0949,-0.0971 -0.18933,-0.19435 -0.28544,-0.2902 -0.0765,-0.0778 -0.15432,-0.15451 -0.23163,-0.23175 -0.0824,-0.0839 -0.165,-0.16742 -0.24819,-0.25054 -0.0836,-0.0852 -0.16778,-0.17025 -0.25232,-0.25471 -0.0843,-0.086 -0.16917,-0.17164 -0.25442,-0.25681 -0.0858,-0.0875 -0.17188,-0.17444 -0.25853,-0.26097 -0.0859,-0.0875 -0.17185,-0.17442 -0.25853,-0.26098 -0.0858,-0.0875 -0.17186,-0.17442 -0.25853,-0.26098 -0.0857,-0.0875 -0.17186,-0.17439 -0.25854,-0.26096 -0.0872,-0.0888 -0.17464,-0.17724 -0.26268,-0.26516 -0.0879,-0.0896 -0.176,-0.17864 -0.26473,-0.26725 -0.0895,-0.0913 -0.18044,-0.18109 -0.27095,-0.27142 -0.0892,-0.0909 -0.17867,-0.18138 -0.26886,-0.27139 -0.0896,-0.0913 -0.17835,-0.18316 -0.26888,-0.27352 -0.0892,-0.0909 -0.17871,-0.18141 -0.26888,-0.27141 -0.0905,-0.0923 -0.1815,-0.18424 -0.27302,-0.2756 -0.0919,-0.0936 -0.18419,-0.18699 -0.27713,-0.27976 -0.092,-0.0937 -0.18424,-0.18707 -0.27715,-0.27978 -0.0926,-0.0944 -0.18556,-0.18839 -0.27922,-0.28185 -0.0865,-0.0882 -0.17325,-0.17577 -0.2606,-0.26305 -0.10494,-0.1072 -0.21024,-0.21362 -0.31645,-0.31946 -0.0889,-0.0905 -0.17904,-0.17971 -0.26888,-0.26931 -0.0935,-0.0957 -0.18657,-0.19154 -0.28128,-0.28603 -0.096,-0.0981 -0.19246,-0.19547 -0.28956,-0.2923 -0.0958,-0.0978 -0.19277,-0.19365 -0.28957,-0.2902 -0.0958,-0.0978 -0.19069,-0.19572 -0.28749,-0.29228 -0.0967,-0.0987 -0.19381,-0.19686 -0.2916,-0.2944 -0.0987,-0.10081 -0.19796,-0.20104 -0.29783,-0.30065 -0.0971,-0.0991 -0.19551,-0.19645 -0.2937,-0.29437 -0.0985,-0.10051 -0.19623,-0.20138 -0.29577,-0.30065 -0.0991,-0.10113 -0.19966,-0.20069 -0.29989,-0.30064 -0.0998,-0.10184 -0.19898,-0.20417 -0.29992,-0.30484 -0.10142,-0.10354 -0.20342,-0.20664 -0.30609,-0.30898 -0.0998,-0.10185 -0.201,-0.20206 -0.30197,-0.30273 -0.10236,-0.10465 -0.20443,-0.2098 -0.30816,-0.31318 -0.10112,-0.10321 -0.20376,-0.20484 -0.30612,-0.30691 -0.10247,-0.10476 -0.20436,-0.2097 -0.30818,-0.31315 -0.10525,-0.10753 -0.21192,-0.21328 -0.31849,-0.31945 -0.10247,-0.10466 -0.2044,-0.20975 -0.30819,-0.31319 -0.1031,-0.10537 -0.20784,-0.20905 -0.31231,-0.31316 -0.10483,-0.10713 -0.21027,-0.21363 -0.31644,-0.31945 -0.10038,-0.10257 -0.20037,-0.20553 -0.30198,-0.30687 -0.11198,-0.11462 -0.2236,-0.22934 -0.33711,-0.34243 -0.1114,-0.11382 -0.22425,-0.2259 -0.33713,-0.33822 -0.10112,-0.10321 -0.20375,-0.20492 -0.30611,-0.30691 -0.10277,-0.10506 -0.20619,-0.20939 -0.31023,-0.31317 -0.11955,-0.12234 -0.23864,-0.24477 -0.35989,-0.36537 -0.10259,-0.10476 -0.20639,-0.20764 -0.31025,-0.31108 -0.10923,-0.11172 -0.21814,-0.22379 -0.32884,-0.33404 -0.10993,-0.11244 -0.2216,-0.22312 -0.333,-0.33406 -0.10557,-0.10798 -0.21158,-0.21492 -0.31852,-0.32154 -0.12225,-0.12516 -0.24409,-0.25036 -0.36815,-0.3737 -0.10524,-0.10745 -0.21194,-0.21335 -0.31849,-0.31943 -0.10721,-0.10965 -0.21408,-0.21956 -0.32266,-0.3278 -0.12462,-0.12762 -0.24994,-0.25424 -0.37644,-0.37997 -0.10627,-0.10853 -0.21293,-0.21646 -0.32056,-0.32363 -0.11404,-0.11665 -0.22984,-0.23151 -0.34541,-0.34658 -0.11574,-0.1184 -0.23219,-0.23605 -0.34954,-0.35283 -0.11477,-0.1174 -0.23111,-0.23288 -0.34746,-0.34865 -0.11477,-0.11742 -0.22906,-0.23495 -0.34541,-0.35076 -0.11582,-0.11853 -0.23209,-0.23595 -0.34954,-0.35285 -0.11786,-0.12063 -0.2362,-0.24017 -0.35574,-0.35911 -0.11646,-0.11915 -0.2335,-0.23741 -0.35162,-0.35492 -0.11879,-0.12158 -0.23938,-0.24133 -0.35986,-0.3612 -0.11749,-0.12024 -0.23452,-0.24055 -0.35368,-0.3591 -0.11879,-0.12161 -0.23939,-0.24131 -0.35988,-0.36119 -0.11948,-0.1223 -0.23869,-0.2448 -0.35987,-0.36537 -0.12016,-0.12302 -0.24214,-0.24412 -0.36403,-0.36535 -0.12292,-0.12588 -0.24545,-0.25178 -0.37021,-0.3758 -0.11919,-0.12199 -0.23898,-0.24305 -0.35988,-0.36331 -0.1215,-0.12441 -0.24486,-0.24692 -0.36816,-0.36953 -0.12218,-0.12512 -0.24417,-0.25041 -0.36815,-0.37372 -0.12286,-0.12583 -0.2476,-0.24973 -0.37229,-0.37372 -0.12355,-0.12654 -0.2469,-0.25323 -0.37229,-0.37788 -0.12523,-0.12829 -0.25135,-0.25572 -0.37849,-0.38209 -0.12325,-0.12622 -0.24719,-0.25143 -0.37229,-0.3758 -0.12627,-0.12936 -0.25443,-0.25675 -0.38263,-0.38416 -0.126,-0.12905 -0.25266,-0.25704 -0.38054,-0.38415 -0.12635,-0.1294 -0.25232,-0.2588 -0.38058,-0.38627 -0.12563,-0.12869 -0.25302,-0.25527 -0.38055,-0.38206 -0.12763,-0.13077 -0.25513,-0.26163 -0.38471,-0.39041 -0.12805,-0.13123 -0.25673,-0.26119 -0.38676,-0.39042 -0.12386,-0.12692 -0.24868,-0.25286 -0.37435,-0.37791 -0.14093,-0.14459 -0.28276,-0.28791 -0.42608,-0.43009 -0.11783,-0.12057 -0.23624,-0.24021 -0.35575,-0.35909 -0.1409,-0.1446 -0.28275,-0.28791 -0.42606,-0.43009 -0.12494,-0.12791 -0.25165,-0.25399 -0.3785,-0.37999 -0.13111,-0.13441 -0.26185,-0.26852 -0.39502,-0.40085 -0.12726,-0.13045 -0.25553,-0.25985 -0.38473,-0.38834 -0.14428,-0.14813 -0.28955,-0.29493 -0.43639,-0.44054 -0.12187,-0.12479 -0.24446,-0.24861 -0.36815,-0.37161 -0.14361,-0.14744 -0.28822,-0.29354 -0.43432,-0.43846 -0.12833,-0.13142 -0.25852,-0.26097 -0.38885,-0.3904 -0.13484,-0.13833 -0.27039,-0.27519 -0.40745,-0.4113 -0.13644,-0.13995 -0.2729,-0.27989 -0.41157,-0.41758 -0.13038,-0.13367 -0.26264,-0.26506 -0.39505,-0.39667 -0.14804,-0.15205 -0.29606,-0.3037 -0.44676,-0.45308 -0.12974,-0.13287 -0.26118,-0.26375 -0.39295,-0.39457 -0.13915,-0.14278 -0.27837,-0.2855 -0.41987,-0.42592 -0.13718,-0.14071 -0.27627,-0.27915 -0.41572,-0.41757 -0.13814,-0.14173 -0.27735,-0.28232 -0.41779,-0.42173 -0.13949,-0.14315 -0.28009,-0.28515 -0.42193,-0.42592 -0.13947,-0.14314 -0.28009,-0.28513 -0.42193,-0.42592 -0.14083,-0.14455 -0.28283,-0.28794 -0.42604,-0.43008 -0.13641,-0.14 -0.27296,-0.27984 -0.41161,-0.41756 -0.15175,-0.15594 -0.30461,-0.31037 -0.45915,-0.46351 -0.13658,-0.14004 -0.27481,-0.27772 -0.41366,-0.41547 -0.1422,-0.14598 -0.28555,-0.29075 -0.4302,-0.43426 -0.14356,-0.14739 -0.2883,-0.29357 -0.43432,-0.43843 -0.14495,-0.14881 -0.29102,-0.29639 -0.43848,-0.44263 -0.14295,-0.14673 -0.28687,-0.29211 -0.43228,-0.43635 -0.14627,-0.15022 -0.29375,-0.29919 -0.44261,-0.44678 -0.14566,-0.14957 -0.29231,-0.29776 -0.44053,-0.44473 -0.14566,-0.14956 -0.29232,-0.29771 -0.44056,-0.4447 -0.14701,-0.15097 -0.29503,-0.30053 -0.44468,-0.44888 -0.14564,-0.14957 -0.2923,-0.29771 -0.44053,-0.44469 -0.14761,-0.15164 -0.29648,-0.30199 -0.44675,-0.45097 -0.14841,-0.1525 -0.29773,-0.30326 -0.4488,-0.45306 -0.14866,-0.15271 -0.29958,-0.30303 -0.4509,-0.45305 -0.14929,-0.15344 -0.29887,-0.30654 -0.45088,-0.45723 -0.14999,-0.15414 -0.3023,-0.30585 -0.45502,-0.45723 -0.15066,-0.15486 -0.3016,-0.30935 -0.455,-0.46143 -0.1538,-0.15804 -0.30873,-0.31456 -0.46538,-0.46973 -0.15041,-0.1545 -0.30185,-0.30761 -0.45502,-0.45934 -0.15107,-0.15524 -0.30325,-0.30895 -0.45709,-0.4614 -0.15413,-0.15843 -0.31042,-0.31425 -0.46742,-0.46975 -0.15483,-0.15911 -0.3097,-0.31775 -0.46744,-0.47393 -0.15108,-0.15523 -0.30323,-0.30897 -0.45707,-0.46142 -0.15439,-0.15871 -0.31017,-0.31605 -0.46746,-0.47185 -0.15647,-0.16089 -0.31415,-0.32019 -0.47361,-0.47812 -0.15406,-0.15834 -0.3105,-0.31428 -0.46744,-0.46974 -0.15606,-0.16051 -0.31253,-0.32058 -0.47156,-0.47811 -0.15674,-0.1612 -0.31597,-0.31989 -0.4757,-0.4781 -0.15742,-0.16192 -0.31527,-0.3234 -0.47572,-0.48231 -0.15788,-0.16239 -0.31685,-0.32292 -0.47775,-0.48226 -0.15979,-0.16439 -0.32108,-0.32732 -0.48398,-0.48856 -0.1592,-0.16373 -0.31962,-0.32583 -0.48191,-0.48645 -0.15955,-0.16409 -0.32135,-0.32551 -0.48397,-0.48647 -0.15443,-0.15882 -0.31013,-0.31592 -0.46744,-0.47185 -0.17034,-0.17546 -0.34111,-0.35004 -0.51498,-0.52195 -0.15716,-0.16149 -0.31558,-0.32173 -0.47571,-0.48021 -0.16021,-0.1648 -0.32273,-0.32685 -0.48604,-0.48853 -0.16395,-0.16874 -0.3292,-0.33565 -0.4964,-0.50107 -0.16148,-0.16616 -0.32344,-0.33186 -0.48809,-0.49483 -0.1649,-0.16968 -0.33236,-0.33678 -0.50054,-0.50316 -0.16395,-0.16871 -0.32917,-0.33567 -0.49637,-0.50107 -0.16328,-0.168 -0.32782,-0.33422 -0.49433,-0.49899 -0.16534,-0.17023 -0.33185,-0.33838 -0.50051,-0.50527 -0.16522,-0.17006 -0.33202,-0.33849 -0.50054,-0.50523 -0.16654,-0.1715 -0.33472,-0.34131 -0.50465,-0.50942 -0.16655,-0.17151 -0.33473,-0.34133 -0.50466,-0.50944 -0.16926,-0.17432 -0.34018,-0.34695 -0.51293,-0.51777 -0.16663,-0.17156 -0.33464,-0.34126 -0.50465,-0.50942 -0.1679,-0.17292 -0.33746,-0.34414 -0.50879,-0.51361 -0.17063,-0.17574 -0.34291,-0.34977 -0.51707,-0.52195 -0.16799,-0.17298 -0.33737,-0.344081 -0.5088,-0.513604 -0.17062,-0.175763 -0.34293,-0.349757 -0.51707,-0.521956 -0.17234,-0.177523 -0.34737,-0.352242 -0.52326,-0.52613 -0.16971,-0.17476 -0.33978,-0.348628 -0.51295,-0.519866 -0.17195,-0.177176 -0.34566,-0.35257 -0.52121,-0.526128 -0.17399,-0.179286 -0.34973,-0.356815 -0.52739,-0.532392 -0.17137,-0.176524 -0.3442,-0.351115 -0.51914,-0.524041 -0.17329,-0.178599 -0.34839,-0.355386 -0.52534,-0.530305 -0.17602,-0.181424 -0.35384,-0.36103 -0.53362,-0.538657 -0.17337,-0.178655 -0.34831,-0.355332 -0.52534,-0.530303 -0.17465,-0.180019 -0.35111,-0.358201 -0.52948,-0.534481 -0.17736,-0.182845 -0.35657,-0.363845 -0.53774,-0.542832 -0.17473,-0.180081 -0.35103,-0.358141 -0.52949,-0.534481 -0.17734,-0.182858 -0.35657,-0.363827 -0.53774,-0.542831 -0.17907,-0.184625 -0.361,-0.366316 -0.54397,-0.547007 -0.17643,-0.181864 -0.35341,-0.362696 -0.53359,-0.540746 -0.17871,-0.184277 -0.35932,-0.366641 -0.5419,-0.547005 -0.1787,-0.18428 -0.35931,-0.366643 -0.54187,-0.547006 -0.18005,-0.185703 -0.36204,-0.369459 -0.54604,-0.551185 -0.18004,-0.185699 -0.36203,-0.369457 -0.54603,-0.551182 -0.18275,-0.188527 -0.36747,-0.375104 -0.55428,-0.559535 -0.17981,-0.185415 -0.3623,-0.367643 -0.54602,-0.549095 -0.18174,-0.187489 -0.36442,-0.374008 -0.55018,-0.557445 -0.18242,-0.1882 -0.36784,-0.373329 -0.55428,-0.557447 -0.18309,-0.18891 -0.36714,-0.376825 -0.5543,-0.561624 -0.18547,-0.191367 -0.37294,-0.380733 -0.56258,-0.567885 -0.1825,-0.188259 -0.36774,-0.37327 -0.5543,-0.557445 -0.18647,-0.192442 -0.37393,-0.383888 -0.56463,-0.57206 -0.18385,-0.189681 -0.37048,-0.376089 -0.55844,-0.561625 -0.18756,-0.193602 -0.37692,-0.38486 -0.56877,-0.574147 -0.18478,-0.190676 -0.37155,-0.379311 -0.56051,-0.565797 -0.18354,-0.189473 -0.36873,-0.376282 -0.55635,-0.561623 -0.19667,-0.203208 -0.3943,-0.404921 -0.59567,-0.603378 -0.18416,-0.189884 -0.37014,-0.377983 -0.55844,-0.563711 -0.18892,-0.194984 -0.37964,-0.387719 -0.5729,-0.578323 -0.1896,-0.1957 -0.38103,-0.389124 -0.57499,-0.580412 -0.18447,-0.190427 -0.37188,-0.377459 -0.56049,-0.563709 -0.19937,-0.206057 -0.39973,-0.410557 -0.60394,-0.611731 -0.1872,-0.193086 -0.37731,-0.383273 -0.56879,-0.572061 -0.1899,-0.196083 -0.38066,-0.390843 -0.57497,-0.5825 -0.19184,-0.198155 -0.38693,-0.39304 -0.58325,-0.586675 -0.1925,-0.198867 -0.38623,-0.396537 -0.58325,-0.590852 -0.19318,-0.199579 -0.38966,-0.395855 -0.58739,-0.59085 -0.19556,-0.202058 -0.39336,-0.401846 -0.59358,-0.599202 -0.19228,-0.198588 -0.3865,-0.394719 -0.58326,-0.588766 -0.19693,-0.203481 -0.3961,-0.404662 -0.59774,-0.603377 -0.19566,-0.202124 -0.39324,-0.401782 -0.59358,-0.599205 -0.19567,-0.202122 -0.39327,-0.40178 -0.5936,-0.599202 -0.19703,-0.203546 -0.39599,-0.404599 -0.59774,-0.603378 -0.19496,-0.201432 -0.39193,-0.40035 -0.59151,-0.597115 -0.1996,-0.206327 -0.40155,-0.410296 -0.606,-0.611729 -6.4412,-6.656342 -15.42744,-10.794292 -25.375656,-10.794526 z"
       id="path6323"
       inkscape:connector-curvature="0"
       clip-path="url(#clipPath4250)"
       transform="matrix(1.1222707,0,0,1.1222707,-11.521563,-11.309913)" />
    <ellipse
       cy="96.376175"
       cx="96.230705"
       id="path6224"
       style="opacity:1;fill:#37474f;fill-opacity:1;fill-rule:nonzero;stroke:none;stroke-width:15;stroke-linecap:butt;stroke-linejoin:miter;stroke-miterlimit:4;stroke-dasharray:none;stroke-dashoffset:0;stroke-opacity:1"
       rx="33.277847"
       ry="33.592285" />
    <ellipse
       cy="96.335526"
       cx="96.270973"
       id="path6249"
       style="opacity:1;fill:#396c99;fill-opacity:1;fill-rule:nonzero;stroke:none;stroke-width:6;stroke-linecap:butt;stroke-linejoin:miter;stroke-miterlimit:4;stroke-dasharray:none;stroke-dashoffset:0;stroke-opacity:1"
       rx="11.896199"
       ry="12.008607" />
    <ellipse
       ry="7.6173625"
       rx="7.5062499"
       cy="45.297478"
       cx="145.92035"
       id="path6251"
       style="opacity:0.2;fill:#000000;fill-opacity:1;fill-rule:nonzero;stroke:none;stroke-width:6;stroke-linecap:butt;stroke-linejoin:miter;stroke-miterlimit:4;stroke-dasharray:none;stroke-dashoffset:0;stroke-opacity:1" />
    <ellipse
       ry="31"
       rx="31.015625"
       cy="96"
       cx="96.015625"
       id="path6253"
       style="opacity:1;fill:none;fill-opacity:1;fill-rule:nonzero;stroke:#efebe9;stroke-width:6;stroke-linecap:butt;stroke-linejoin:miter;stroke-miterlimit:4;stroke-dasharray:none;stroke-dashoffset:0;stroke-opacity:1;filter:url(#filter4241)"
       transform="matrix(1.1884339,0,0,1.1996635,-17.832744,-18.817947)" />
    <g
       id="g7819">
      <rect
         style="opacity:1;fill:#ef5350;fill-opacity:1;fill-rule:nonzero;stroke:none;stroke-width:6;stroke-linecap:butt;stroke-linejoin:miter;stroke-miterlimit:4;stroke-dasharray:none;stroke-dashoffset:0;stroke-opacity:1"
         id="rect7821"
         width="8.9973183"
         height="35.0625"
         x="32"
         y="20"
         ry="0" />
      <rect
         ry="0"
         y="20"
         x="41"
         height="35.0625"
         width="8.9973183"
         id="rect7823"
         style="opacity:1;fill:#ffee58;fill-opacity:1;fill-rule:nonzero;stroke:none;stroke-width:6;stroke-linecap:butt;stroke-linejoin:miter;stroke-miterlimit:4;stroke-dasharray:none;stroke-dashoffset:0;stroke-opacity:1" />
      <rect
         style="opacity:1;fill:#66bb6a;fill-opacity:1;fill-rule:nonzero;stroke:none;stroke-width:6;stroke-linecap:butt;stroke-linejoin:miter;stroke-miterlimit:4;stroke-dasharray:none;stroke-dashoffset:0;stroke-opacity:1"
         id="rect7825"
         width="8.9973183"
         height="35.0625"
         x="50"
         y="20"
         ry="0" />
      <rect
         ry="0"
         y="20"
         x="59"
         height="35.0625"
         width="8.9973183"
         id="rect7827"
         style="opacity:1;fill:#42a5f5;fill-opacity:1;fill-rule:nonzero;stroke:none;stroke-width:6;stroke-linecap:butt;stroke-linejoin:miter;stroke-miterlimit:4;stroke-dasharray:none;stroke-dashoffset:0;stroke-opacity:1" />
    </g>
    <g
       id="g7809"
       style="opacity:0.2;fill:#ffffff;fill-opacity:1">
      <rect
         style="opacity:1;fill:#ffffff;fill-opacity:1;fill-rule:nonzero;stroke:none;stroke-width:6;stroke-linecap:butt;stroke-linejoin:miter;stroke-miterlimit:4;stroke-dasharray:none;stroke-dashoffset:0;stroke-opacity:1"
         id="rect7811"
         width="8.9973183"
         height="35.0625"
         x="32"
         y="20"
         ry="0" />
      <rect
         ry="0"
         y="20"
         x="41"
         height="35.0625"
         width="8.9973183"
         id="rect7813"
         style="opacity:1;fill:#ffffff;fill-opacity:1;fill-rule:nonzero;stroke:none;stroke-width:6;stroke-linecap:butt;stroke-linejoin:miter;stroke-miterlimit:4;stroke-dasharray:none;stroke-dashoffset:0;stroke-opacity:1" />
      <rect
         style="opacity:1;fill:#ffffff;fill-opacity:1;fill-rule:nonzero;stroke:none;stroke-width:6;stroke-linecap:butt;stroke-linejoin:miter;stroke-miterlimit:4;stroke-dasharray:none;stroke-dashoffset:0;stroke-opacity:1"
         id="rect7815"
         width="8.9973183"
         height="35.0625"
         x="50"
         y="20"
         ry="0" />
      <rect
         ry="0"
         y="20"
         x="59"
         height="35.0625"
         width="8.9973183"
         id="rect7817"
         style="opacity:1;fill:#ffffff;fill-opacity:1;fill-rule:nonzero;stroke:none;stroke-width:6;stroke-linecap:butt;stroke-linejoin:miter;stroke-miterlimit:4;stroke-dasharray:none;stroke-dashoffset:0;stroke-opacity:1" />
    </g>
    <g
       transform="matrix(1,0,0,0.9714795,0,1.57041)"
       id="g7829"
       style="opacity:0.2;fill:#000000;fill-opacity:1">
      <rect
         style="opacity:1;fill:#000000;fill-opacity:1;fill-rule:nonzero;stroke:none;stroke-width:6;stroke-linecap:butt;stroke-linejoin:miter;stroke-miterlimit:4;stroke-dasharray:none;stroke-dashoffset:0;stroke-opacity:1"
         id="rect7831"
         width="8.9973183"
         height="35.0625"
         x="32"
         y="20"
         ry="0" />
      <rect
         ry="0"
         y="20"
         x="41"
         height="35.0625"
         width="8.9973183"
         id="rect7833"
         style="opacity:1;fill:#000000;fill-opacity:1;fill-rule:nonzero;stroke:none;stroke-width:6;stroke-linecap:butt;stroke-linejoin:miter;stroke-miterlimit:4;stroke-dasharray:none;stroke-dashoffset:0;stroke-opacity:1" />
      <rect
         style="opacity:1;fill:#000000;fill-opacity:1;fill-rule:nonzero;stroke:none;stroke-width:6;stroke-linecap:butt;stroke-linejoin:miter;stroke-miterlimit:4;stroke-dasharray:none;stroke-dashoffset:0;stroke-opacity:1"
         id="rect7835"
         width="8.9973183"
         height="35.0625"
         x="50"
         y="20"
         ry="0" />
      <rect
         ry="0"
         y="20"
         x="59"
         height="35.0625"
         width="8.9973183"
         id="rect7837"
         style="opacity:1;fill:#000000;fill-opacity:1;fill-rule:nonzero;stroke:none;stroke-width:6;stroke-linecap:butt;stroke-linejoin:miter;stroke-miterlimit:4;stroke-dasharray:none;stroke-dashoffset:0;stroke-opacity:1" />
    </g>
    <g
       id="g7801"
       transform="matrix(1,0,0,0.94122894,0,2.1754211)">
      <rect
         ry="0"
         y="20"
         x="32"
         height="35.0625"
         width="8.9973183"
         id="rect7775"
         style="opacity:1;fill:#ef5350;fill-opacity:1;fill-rule:nonzero;stroke:none;stroke-width:6;stroke-linecap:butt;stroke-linejoin:miter;stroke-miterlimit:4;stroke-dasharray:none;stroke-dashoffset:0;stroke-opacity:1" />
      <rect
         style="opacity:1;fill:#ffee58;fill-opacity:1;fill-rule:nonzero;stroke:none;stroke-width:6;stroke-linecap:butt;stroke-linejoin:miter;stroke-miterlimit:4;stroke-dasharray:none;stroke-dashoffset:0;stroke-opacity:1"
         id="rect7791"
         width="8.9973183"
         height="35.0625"
         x="41"
         y="20"
         ry="0" />
      <rect
         ry="0"
         y="20"
         x="50"
         height="35.0625"
         width="8.9973183"
         id="rect7793"
         style="opacity:1;fill:#66bb6a;fill-opacity:1;fill-rule:nonzero;stroke:none;stroke-width:6;stroke-linecap:butt;stroke-linejoin:miter;stroke-miterlimit:4;stroke-dasharray:none;stroke-dashoffset:0;stroke-opacity:1" />
      <rect
         style="opacity:1;fill:#42a5f5;fill-opacity:1;fill-rule:nonzero;stroke:none;stroke-width:6;stroke-linecap:butt;stroke-linejoin:miter;stroke-miterlimit:4;stroke-dasharray:none;stroke-dashoffset:0;stroke-opacity:1"
         id="rect7795"
         width="8.9973183"
         height="35.0625"
         x="59"
         y="20"
         ry="0" />
    </g>
    <ellipse
       transform="matrix(1.1884339,0,0,1.1996635,-17.832744,-18.817947)"
       style="opacity:0.2;fill:none;fill-opacity:1;fill-rule:nonzero;stroke:#3e2723;stroke-width:6;stroke-linecap:butt;stroke-linejoin:miter;stroke-miterlimit:4;stroke-dasharray:none;stroke-dashoffset:0;stroke-opacity:1"
       id="ellipse4227"
       cx="96.015625"
       cy="96"
       rx="31.015625"
       ry="31" />
    <ellipse
       style="opacity:1;fill:none;fill-opacity:1;fill-rule:nonzero;stroke:#efebe9;stroke-width:7.12335014;stroke-linecap:butt;stroke-linejoin:miter;stroke-miterlimit:4;stroke-dasharray:none;stroke-dashoffset:0;stroke-opacity:1"
       id="ellipse4229"
       cx="96.275482"
       cy="95.885712"
       rx="36.880463"
       ry="36.746162" />
  </g>
  <g
     style="display:inline"
     inkscape:label="Square 1"
     id="layer1"
     inkscape:groupmode="layer">
    <rect
       style="display:inline;opacity:0.1;fill:url(#radialGradient7855);fill-opacity:1;stroke:url(#radialGradient7863);stroke-width:1.00005436;stroke-linejoin:round;stroke-miterlimit:4;stroke-dasharray:none;stroke-opacity:1"
       id="rect6215"
       width="150.99994"
       height="150.99994"
       x="20.500031"
       y="20.500031"
       ry="10.897427" />
  </g>
</svg>
