<?xml version="1.0" encoding="UTF-8" standalone="no"?>
<!-- Created with Inkscape (http://www.inkscape.org/) -->

<svg
   xmlns:dc="http://purl.org/dc/elements/1.1/"
   xmlns:cc="http://creativecommons.org/ns#"
   xmlns:rdf="http://www.w3.org/1999/02/22-rdf-syntax-ns#"
   xmlns:svg="http://www.w3.org/2000/svg"
   xmlns="http://www.w3.org/2000/svg"
   xmlns:xlink="http://www.w3.org/1999/xlink"
   xmlns:sodipodi="http://sodipodi.sourceforge.net/DTD/sodipodi-0.dtd"
   xmlns:inkscape="http://www.inkscape.org/namespaces/inkscape"
   width="192"
   height="192"
   id="svg2"
   version="1.1"
   inkscape:version="0.91 r13725"
   sodipodi:docname="pushbullet.svg"
   inkscape:export-filename="C:\Users\Simon\Documents\Material Design Icon Pack\PNG\pushbullet.png"
   inkscape:export-xdpi="90"
   inkscape:export-ydpi="90">
  <sodipodi:namedview
     id="base"
     pagecolor="#ffffff"
     bordercolor="#666666"
     borderopacity="1.0"
     inkscape:pageopacity="0.0"
     inkscape:pageshadow="2"
     inkscape:zoom="2.8284271"
     inkscape:cx="199.68546"
     inkscape:cy="94.501172"
     inkscape:document-units="px"
     inkscape:current-layer="layer3"
     showgrid="true"
     showguides="false"
     inkscape:guide-bbox="true"
     inkscape:window-width="1920"
     inkscape:window-height="1017"
     inkscape:window-x="-8"
     inkscape:window-y="-8"
     inkscape:window-maximized="1"
     inkscape:snap-global="false">
    <inkscape:grid
       type="xygrid"
       id="grid2985"
       empspacing="5"
       visible="true"
       enabled="true"
       snapvisiblegridlinesonly="true" />
    <sodipodi:guide
       orientation="1,0"
       position="8,58.524064"
       id="guide3002" />
    <sodipodi:guide
       orientation="1,0"
       position="20,69.304813"
       id="guide3004" />
    <sodipodi:guide
       orientation="1,0"
       position="32,62.631016"
       id="guide3006" />
    <sodipodi:guide
       orientation="1,0"
       position="68,53.390374"
       id="guide3008" />
    <sodipodi:guide
       orientation="0,1"
       position="119.61497,8"
       id="guide3010" />
    <sodipodi:guide
       orientation="0,1"
       position="155.5508,20"
       id="guide3012" />
    <sodipodi:guide
       orientation="0,1"
       position="132.96257,32"
       id="guide3014" />
    <sodipodi:guide
       orientation="0,1"
       position="130.90909,68"
       id="guide3016" />
    <sodipodi:guide
       orientation="0,1"
       position="137.06952,184"
       id="guide3018" />
    <sodipodi:guide
       orientation="1,0"
       position="184,145.79679"
       id="guide3020" />
    <sodipodi:guide
       orientation="0,1"
       position="91.379679,172"
       id="guide3022" />
    <sodipodi:guide
       orientation="1,0"
       position="172,101.64706"
       id="guide3024" />
    <sodipodi:guide
       orientation="0,1"
       position="149.39037,160"
       id="guide3026" />
    <sodipodi:guide
       orientation="1,0"
       position="160,88.299465"
       id="guide3028" />
    <sodipodi:guide
       orientation="0,1"
       position="128.34225,124"
       id="guide3030" />
    <sodipodi:guide
       orientation="1,0"
       position="124,92.919786"
       id="guide3032" />
  </sodipodi:namedview>
  <defs
     id="defs4">
    <linearGradient
       inkscape:collect="always"
       id="linearGradient5739">
      <stop
         style="stop-color:#263238;stop-opacity:1;"
         offset="0"
         id="stop5741" />
      <stop
         style="stop-color:#263238;stop-opacity:0;"
         offset="1"
         id="stop5743" />
    </linearGradient>
    <linearGradient
       inkscape:collect="always"
       id="linearGradient10379">
      <stop
         style="stop-color:#ffffff;stop-opacity:1;"
         offset="0"
         id="stop10381" />
      <stop
         style="stop-color:#ffffff;stop-opacity:0;"
         offset="1"
         id="stop10383" />
    </linearGradient>
    <linearGradient
       inkscape:collect="always"
       id="linearGradient10371">
      <stop
         style="stop-color:#ffffff;stop-opacity:1;"
         offset="0"
         id="stop10373" />
      <stop
         style="stop-color:#ffffff;stop-opacity:0;"
         offset="1"
         id="stop10375" />
    </linearGradient>
    <radialGradient
       inkscape:collect="always"
       xlink:href="#linearGradient10371"
       id="radialGradient10377"
       cx="123.86079"
       cy="46.32069"
       fx="123.86079"
       fy="46.32069"
       r="24.139205"
       gradientUnits="userSpaceOnUse"
       gradientTransform="matrix(0.00303984,2.0030302,-1.9969697,0.00303064,215.98528,-201.91659)" />
    <radialGradient
       inkscape:collect="always"
       xlink:href="#linearGradient10379"
       id="radialGradient10385"
       cx="123.86079"
       cy="46.320686"
       fx="123.86079"
       fy="46.320686"
       r="24.139205"
       gradientUnits="userSpaceOnUse"
       gradientTransform="matrix(0.00303979,2.0030297,-1.9969697,0.00303061,215.98528,-201.91653)" />
    <filter
       height="1.4800000000000002"
       width="1.5700000000000003"
       x="-0.26000000000000012"
       id="filter12037"
       inkscape:label="Drop Shadow"
       style="color-interpolation-filters:sRGB;">
      <feFlood
         id="feFlood12039"
         result="flood"
         flood-color="rgb(38,50,56)"
         flood-opacity="0.20000000000000001" />
      <feComposite
         id="feComposite12041"
         result="composite1"
         operator="in"
         in2="SourceGraphic"
         in="flood" />
      <feGaussianBlur
         id="feGaussianBlur12043"
         result="blur"
         stdDeviation="6"
         in="composite1" />
      <feOffset
         id="feOffset12045"
         result="offset"
         dy="6"
         dx="4.57967e-015" />
      <feComposite
         id="feComposite12047"
         result="composite2"
         operator="over"
         in2="offset"
         in="SourceGraphic" />
    </filter>
    <filter
       id="filter12054"
       inkscape:label="Drop Shadow"
       style="color-interpolation-filters:sRGB;">
      <feFlood
         id="feFlood12056"
         result="flood"
         flood-color="rgb(0,0,0)"
         flood-opacity="0.29999999999999999" />
      <feComposite
         id="feComposite12058"
         result="composite1"
         operator="in"
         in2="SourceGraphic"
         in="flood" />
      <feGaussianBlur
         id="feGaussianBlur12060"
         result="blur"
         stdDeviation="3"
         in="composite1" />
      <feOffset
         id="feOffset12062"
         result="offset"
         dy="3"
         dx="4.57967e-015" />
      <feComposite
         in="SourceGraphic"
         id="feComposite12064"
         result="composite2"
         operator="over"
         in2="offset" />
    </filter>
    <clipPath
       id="clipPath12076"
       clipPathUnits="userSpaceOnUse">
      <g
         id="g12078"
         style="filter:url(#filter12054)">
        <circle
           r="87.492523"
           cy="96"
           cx="96"
           id="circle12080"
           style="opacity:1;fill:#0ba490;fill-opacity:1;stroke:#049b86;stroke-width:1.01494646;stroke-linejoin:round;stroke-miterlimit:4;stroke-dasharray:none;stroke-opacity:1" />
        <ellipse
           cy="95.490234"
           cx="96"
           id="ellipse12082"
           style="opacity:1;fill:#38cdb9;fill-opacity:1;stroke:#37cdb8;stroke-width:1.01200247;stroke-linejoin:round;stroke-miterlimit:4;stroke-dasharray:none;stroke-opacity:1"
           rx="87.493996"
           ry="86.98423" />
        <ellipse
           style="fill:#00bfa5;fill-opacity:1;stroke:#00bfa5;stroke-width:1.00914049;stroke-linejoin:round;stroke-miterlimit:4;stroke-dasharray:none;stroke-opacity:1"
           id="ellipse12084"
           cx="96"
           cy="96"
           rx="87.49543"
           ry="86.491524" />
      </g>
    </clipPath>
    <linearGradient
       inkscape:collect="always"
       xlink:href="#linearGradient5739"
       id="linearGradient5745"
       x1="49.408203"
       y1="49.399414"
       x2="158.75485"
       y2="160.39941"
       gradientUnits="userSpaceOnUse" />
    <clipPath
       clipPathUnits="userSpaceOnUse"
       id="clipPath5750">
      <circle
         style="display:inline;opacity:0.1;fill:url(#radialGradient5754);fill-opacity:1;stroke:url(#radialGradient5756);stroke-width:1.01494646;stroke-linejoin:round;stroke-miterlimit:4;stroke-dasharray:none;stroke-opacity:1"
         id="circle5752"
         cx="96"
         cy="96"
         r="87.492523"
         inkscape:export-filename="C:\Users\Simon\Documents\Material Design Icon Pack\PNG\g12049.png"
         inkscape:export-xdpi="90"
         inkscape:export-ydpi="90" />
    </clipPath>
    <radialGradient
       inkscape:collect="always"
       xlink:href="#linearGradient10379"
       id="radialGradient5754"
       gradientUnits="userSpaceOnUse"
       gradientTransform="matrix(0.01108162,7.3020886,-7.2799968,0.01104816,343.84183,-896.95421)"
       cx="123.86079"
       cy="46.320686"
       fx="123.86079"
       fy="46.320686"
       r="24.139205" />
    <radialGradient
       inkscape:collect="always"
       xlink:href="#linearGradient10371"
       id="radialGradient5756"
       gradientUnits="userSpaceOnUse"
       gradientTransform="matrix(0.0110818,7.3020905,-7.2799968,0.01104826,343.84183,-896.95443)"
       cx="123.86079"
       cy="46.32069"
       fx="123.86079"
       fy="46.32069"
       r="24.139205" />
  </defs>
  <metadata
     id="metadata7">
    <rdf:RDF>
      <cc:Work
         rdf:about="">
        <dc:format>image/svg+xml</dc:format>
        <dc:type
           rdf:resource="http://purl.org/dc/dcmitype/StillImage" />
        <dc:title />
      </cc:Work>
    </rdf:RDF>
  </metadata>
  <g
     inkscape:groupmode="layer"
     id="layer3"
     inkscape:label="circle"
     style="display:inline">
    <g
       style="filter:url(#filter12054)"
       id="g4220">
      <circle
         style="opacity:1;fill:#43995d;fill-opacity:1;stroke:#43995d;stroke-width:1.01494646;stroke-linejoin:round;stroke-miterlimit:4;stroke-dasharray:none;stroke-opacity:1"
         id="circle10389"
         cx="96"
         cy="96"
         r="87.492523" />
      <ellipse
         ry="86.98423"
         rx="87.493996"
         style="opacity:1;fill:#74c58a;fill-opacity:1;stroke:#74c58a;stroke-width:1.01200247;stroke-linejoin:round;stroke-miterlimit:4;stroke-dasharray:none;stroke-opacity:1"
         id="circle10391"
         cx="96"
         cy="95.490234" />
      <ellipse
         ry="86.491524"
         rx="87.49543"
         cy="96"
         cx="96"
         id="path3040"
         style="fill:#4ab367;fill-opacity:1;stroke:#4ab367;stroke-width:1.009;stroke-linejoin:round;stroke-miterlimit:4;stroke-dasharray:none;stroke-opacity:1" />
    </g>
    <path
       style="opacity:0.2;fill:url(#linearGradient5745);fill-opacity:1;fill-rule:nonzero;stroke:none;stroke-width:1.00899994;stroke-linecap:butt;stroke-linejoin:miter;stroke-miterlimit:4;stroke-dasharray:none;stroke-dashoffset:0;stroke-opacity:1"
       d="M 56.164062 53.671875 C 52.975516 53.671875 50.408203 56.239188 50.408203 59.427734 L 50.408203 133.92383 C 50.408203 135.66195 51.176191 137.21193 52.386719 138.26562 C 52.563637 138.4693 52.753341 138.66099 52.957031 138.83789 C 53.131465 139.03818 53.319152 139.22605 53.519531 139.40039 C 53.694186 139.60113 53.883282 139.78819 54.083984 139.96289 C 54.25808 140.1629 54.444567 140.35125 54.644531 140.52539 C 54.817152 140.7236 55.003128 140.90922 55.201172 141.08203 C 55.376108 141.28312 55.564555 141.47152 55.765625 141.64648 C 55.934515 141.84004 56.117362 142.02015 56.310547 142.18945 C 56.48764 142.3936 56.676889 142.58638 56.880859 142.76367 C 57.050647 142.95762 57.233517 143.1391 57.427734 143.30859 C 57.5969 143.50249 57.779112 143.68396 57.972656 143.85352 C 58.148785 144.05606 58.33839 144.24584 58.541016 144.42188 C 58.70557 144.60937 58.880908 144.78657 59.068359 144.95117 C 59.244127 145.15339 59.434542 145.34177 59.636719 145.51758 C 59.803502 145.70743 59.98162 145.8864 60.171875 146.05273 C 60.340948 146.24612 60.523447 146.42659 60.716797 146.5957 C 60.885308 146.78836 61.065198 146.97011 61.257812 147.13867 C 61.422706 147.3271 61.599127 147.50454 61.787109 147.66992 C 61.960651 147.86919 62.148427 148.05493 62.347656 148.22852 C 62.512187 148.41544 62.687676 148.59177 62.875 148.75586 C 63.038481 148.94249 63.214237 149.11724 63.400391 149.28125 C 63.569232 149.47485 63.750217 149.65682 63.943359 149.82617 C 64.110061 150.0163 64.29025 150.19473 64.480469 150.36133 C 64.644823 150.54841 64.820648 150.72441 65.007812 150.88867 C 65.172685 151.07653 65.349254 151.2531 65.537109 151.41797 C 65.69834 151.60167 65.871453 151.7738 66.054688 151.93555 C 66.223107 152.12829 66.403171 152.30987 66.595703 152.47852 C 66.755466 152.65979 66.926177 152.83044 67.107422 152.99023 C 67.272116 153.17825 67.449023 153.35448 67.636719 153.51953 C 67.802377 153.70792 67.97918 153.88557 68.167969 154.05078 C 68.324048 154.22733 68.491456 154.39271 68.667969 154.54883 C 68.835358 154.74002 69.01393 154.92045 69.205078 155.08789 C 69.363361 155.26676 69.531684 155.43589 69.710938 155.59375 C 69.871547 155.77613 70.044223 155.94677 70.226562 156.10742 C 70.383564 156.28562 70.55074 156.45386 70.728516 156.61133 C 70.894194 156.80029 71.07085 156.97881 71.259766 157.14453 C 71.412976 157.31741 71.577154 157.47956 71.75 157.63281 C 71.914554 157.82031 72.089892 157.99751 72.277344 158.16211 C 72.432788 158.33734 72.599777 158.50123 72.775391 158.65625 C 72.93317 158.83498 73.100603 159.00429 73.279297 159.16211 C 73.433437 159.33663 73.597376 159.50165 73.771484 159.65625 C 73.934351 159.84155 74.109662 160.01483 74.294922 160.17773 C 74.44528 160.34699 74.604218 160.5078 74.773438 160.6582 C 74.935177 160.84204 75.109169 161.014 75.292969 161.17578 C 75.445561 161.34739 75.607319 161.50992 75.779297 161.66211 C 75.934241 161.8372 76.100331 162.00127 76.275391 162.15625 C 76.426714 162.32718 76.587294 162.48885 76.757812 162.64062 C 76.917855 162.82227 77.087922 162.99421 77.269531 163.1543 C 77.417032 163.31993 77.574631 163.47551 77.740234 163.62305 C 77.899146 163.80324 78.067896 163.97386 78.248047 164.13281 C 78.397754 164.30077 78.556293 164.46007 78.724609 164.60938 C 78.87668 164.78081 79.039542 164.94164 79.210938 165.09375 C 79.359383 165.26102 79.516726 165.41948 79.683594 165.56836 C 79.840808 165.74636 80.009532 165.91306 80.1875 166.07031 C 80.332131 166.23234 80.484493 166.38658 80.646484 166.53125 C 80.801316 166.70639 80.965677 166.8723 81.140625 167.02734 C 81.289764 167.19461 81.449586 167.35123 81.617188 167.5 C 81.762277 167.66286 81.915518 167.81753 82.078125 167.96289 C 82.23153 168.13625 82.395227 168.29947 82.568359 168.45312 C 82.716329 168.61894 82.872935 168.7762 83.039062 168.92383 C 83.185787 169.08828 83.341269 169.24406 83.505859 169.39062 C 83.64998 169.55247 83.803422 169.70503 83.964844 169.84961 C 84.114431 170.01832 84.273093 170.1781 84.441406 170.32812 C 84.587761 170.49232 84.744045 170.64658 84.908203 170.79297 C 85.055334 170.95796 85.211846 171.11472 85.376953 171.26172 C 85.517993 171.41949 85.666688 171.56963 85.824219 171.71094 C 85.975149 171.88092 86.136695 172.04044 86.306641 172.19141 C 86.448302 172.34926 86.597659 172.49934 86.755859 172.64062 C 86.899918 172.80193 87.053572 172.95356 87.214844 173.09766 C 87.358326 173.25824 87.509373 173.41117 87.669922 173.55469 C 87.812831 173.71455 87.96517 173.86487 88.125 174.00781 C 88.267653 174.16732 88.418622 174.31828 88.578125 174.46094 C 88.717069 174.61629 88.862631 174.76491 89.017578 174.9043 C 89.165079 175.06993 89.322678 175.22551 89.488281 175.37305 C 89.626474 175.52659 89.771899 175.67272 89.925781 175.81055 C 90.065129 175.96613 90.211779 176.11437 90.367188 176.25391 C 90.50855 176.41199 90.658486 176.56158 90.816406 176.70312 C 90.957338 176.86036 91.106337 177.00957 91.263672 177.15039 C 91.401728 177.304 91.547424 177.44998 91.701172 177.58789 C 91.836624 177.7389 91.980246 177.8817 92.130859 178.01758 C 92.270131 178.17352 92.418835 178.32105 92.574219 178.46094 C 92.714641 178.61772 92.864758 178.76577 93.021484 178.90625 C 93.157508 179.05739 93.299937 179.20197 93.451172 179.33789 C 93.58463 179.48639 93.726857 179.62592 93.875 179.75977 C 94.014087 179.91528 94.161283 180.06361 94.316406 180.20312 C 94.453626 180.3557 94.599243 180.49965 94.751953 180.63672 C 94.885979 180.78535 95.027021 180.92666 95.175781 181.06055 C 95.309343 181.20895 95.449418 181.35064 95.597656 181.48438 C 95.736453 181.63885 95.882451 181.78719 96.037109 181.92578 C 96.16798 182.07035 96.306318 182.20733 96.451172 182.33789 C 96.584518 182.48584 96.725101 182.62642 96.873047 182.75977 C 97.0061 182.90739 97.147333 183.0466 97.294922 183.17969 C 97.427392 183.32659 97.566018 183.4671 97.712891 183.59961 C 97.844781 183.7458 97.9847 183.8837 98.130859 184.01562 C 98.260934 184.15973 98.397065 184.29749 98.541016 184.42773 C 98.674652 184.57604 98.814589 184.71793 98.962891 184.85156 C 99.088822 184.99067 99.22243 185.12189 99.361328 185.24805 C 99.494204 185.39583 99.633824 185.53666 99.78125 185.66992 C 99.910782 185.81322 100.04619 185.95051 100.18945 186.08008 C 100.32026 186.22471 100.45873 186.36156 100.60352 186.49219 C 100.73207 186.63389 100.86775 186.76826 101.00977 186.89648 C 101.13309 187.03239 101.26271 187.16164 101.39844 187.28516 C 101.53055 187.4318 101.66995 187.57081 101.81641 187.70312 C 101.94351 187.8431 102.07654 187.97671 102.2168 188.10352 C 102.34204 188.24141 102.47331 188.37293 102.61133 188.49805 C 102.73427 188.63366 102.86276 188.76342 102.99805 188.88672 C 103.12994 189.03291 103.26986 189.17081 103.41602 189.30273 C 103.535 189.43323 103.6586 189.55872 103.78906 189.67773 C 103.91979 189.82249 104.0584 189.95908 104.20312 190.08984 C 104.32436 190.22268 104.45086 190.34979 104.58398 190.4707 C 104.70767 190.60688 104.83651 190.73761 104.97266 190.86133 C 105.0942 190.99507 105.2219 191.12241 105.35547 191.24414 C 105.4812 191.3828 105.61332 191.51486 105.75195 191.64062 C 105.87277 191.77319 106.00016 191.89881 106.13281 192.01953 C 106.25448 192.15322 106.38194 192.28068 106.51562 192.40234 C 106.63696 192.53568 106.76318 192.66378 106.89648 192.78516 C 107.01724 192.91778 107.14475 193.04328 107.27734 193.16406 C 107.39751 193.29598 107.52241 193.42277 107.6543 193.54297 C 107.77231 193.67246 107.89608 193.79587 108.02539 193.91406 C 108.14788 194.04881 108.27546 194.17823 108.41016 194.30078 C 108.52744 194.42903 108.6509 194.55084 108.7793 194.66797 C 108.8977 194.79775 109.02259 194.92063 109.15234 195.03906 C 109.27015 195.16814 109.39244 195.29232 109.52148 195.41016 C 109.63867 195.53849 109.76036 195.66208 109.88867 195.7793 C 110.00557 195.90725 110.12791 196.02959 110.25586 196.14648 C 110.3706 196.27208 110.49179 196.39091 110.61719 196.50586 C 110.73617 196.63632 110.85977 196.76187 110.99023 196.88086 C 111.10397 197.00487 111.2235 197.12274 111.34766 197.23633 C 111.46248 197.36184 111.58155 197.4828 111.70703 197.59766 C 111.8197 197.72074 111.93762 197.83833 112.06055 197.95117 C 112.17916 198.08104 112.3036 198.20574 112.43359 198.32422 C 112.54071 198.44057 112.65321 198.55106 112.76953 198.6582 C 112.88852 198.7887 113.01211 198.91418 113.14258 199.0332 C 113.25192 199.15185 113.36546 199.26594 113.48438 199.375 C 113.59624 199.49698 113.71398 199.61271 113.83594 199.72461 C 113.9441 199.84249 114.05623 199.95598 114.17383 200.06445 C 114.29102 200.19279 114.41271 200.31637 114.54102 200.43359 C 114.64512 200.5464 114.75441 200.65368 114.86719 200.75781 C 114.97871 200.87983 115.0952 200.9974 115.2168 201.10938 C 115.32742 201.23 115.44396 201.34431 115.56445 201.45508 C 115.67335 201.57354 115.78587 201.68795 115.9043 201.79688 C 116.01601 201.91834 116.13218 202.03506 116.25391 202.14648 C 116.35874 202.25986 116.46842 202.36806 116.58203 202.47266 C 116.68944 202.58933 116.8013 202.70118 116.91797 202.80859 C 117.02508 202.92494 117.13758 203.03544 117.25391 203.14258 C 117.35856 203.25619 117.46664 203.36586 117.58008 203.4707 C 117.68928 203.58951 117.80309 203.70327 117.92188 203.8125 C 118.02576 203.92491 118.13359 204.03294 118.24609 204.13672 C 118.34768 204.24684 118.45265 204.35321 118.5625 204.45508 C 118.67318 204.57565 118.78961 204.69007 118.91016 204.80078 C 119.01113 204.90962 119.11553 205.01452 119.22461 205.11523 C 119.32812 205.22734 119.4348 205.33592 119.54688 205.43945 C 119.64979 205.55086 119.75776 205.65683 119.86914 205.75977 C 119.96833 205.86709 120.07067 205.97084 120.17773 206.07031 C 120.28604 206.18807 120.39985 206.29987 120.51758 206.4082 C 120.61427 206.51222 120.71425 206.61239 120.81836 206.70898 C 120.91966 206.81877 121.02329 206.92576 121.13281 207.02734 C 121.23448 207.13739 121.34124 207.24196 121.45117 207.34375 C 121.55267 207.45336 121.65787 207.55877 121.76758 207.66016 C 121.86765 207.76794 121.97205 207.87089 122.08008 207.9707 C 122.17394 208.07168 122.27024 208.16969 122.37109 208.26367 C 122.4758 208.37718 122.58379 208.48707 122.69727 208.5918 C 122.7922 208.69362 122.89208 208.79008 122.99414 208.88477 C 123.09166 208.98988 123.19179 209.09191 123.29688 209.18945 C 123.39379 209.29386 123.49522 209.39329 123.59961 209.49023 C 123.69279 209.59058 123.78858 209.6878 123.88867 209.78125 C 123.99098 209.89195 124.09635 209.99922 124.20703 210.10156 C 124.29955 210.20061 124.39682 210.29444 124.49609 210.38672 C 124.58933 210.48702 124.68502 210.58433 124.78516 210.67773 C 124.88111 210.78118 124.9807 210.88044 125.08398 210.97656 C 125.18008 211.07986 125.2794 211.17943 125.38281 211.27539 C 125.47438 211.37347 125.56978 211.46715 125.66797 211.55859 C 125.761 211.65848 125.85714 211.75463 125.95703 211.84766 C 126.04627 211.94347 126.13687 212.03744 126.23242 212.12695 C 126.32834 212.23038 126.42801 212.32967 126.53125 212.42578 C 126.62186 212.52282 126.71541 212.61649 126.8125 212.70703 C 126.90325 212.80431 126.99648 212.89947 127.09375 212.99023 C 127.18747 213.09067 127.28605 213.18581 127.38672 213.2793 C 127.47031 213.3684 127.55545 213.45545 127.64453 213.53906 C 127.74025 213.64208 127.84037 213.7402 127.94336 213.83594 C 128.02921 213.92736 128.11735 214.01593 128.20898 214.10156 C 128.29743 214.1962 128.3878 214.28849 128.48242 214.37695 C 128.56804 214.46853 128.65663 214.55678 128.74805 214.64258 C 128.84096 214.74227 128.93736 214.83878 129.03711 214.93164 C 129.11858 215.01828 129.20238 215.10216 129.28906 215.18359 C 129.37962 215.28067 129.47326 215.37426 129.57031 215.46484 C 129.65426 215.5542 129.7406 215.64079 129.83008 215.72461 C 129.91549 215.81579 130.00455 215.90285 130.0957 215.98828 C 130.18051 216.07877 130.26696 216.16713 130.35742 216.25195 C 130.43844 216.33836 130.52123 216.42266 130.60742 216.50391 C 130.69631 216.59916 130.78963 216.69029 130.88477 216.7793 C 130.96628 216.8659 131.05 216.94986 131.13672 217.03125 C 131.2197 217.11966 131.30614 217.20411 131.39453 217.28711 C 131.4769 217.37483 131.56074 217.46058 131.64844 217.54297 C 131.7302 217.63 131.81533 217.71314 131.90234 217.79492 C 131.98034 217.87791 132.0598 217.95889 132.14258 218.03711 C 132.22981 218.13036 132.31888 218.22134 132.41211 218.30859 C 132.48939 218.39034 132.57041 218.46784 132.65234 218.54492 C 132.73228 218.62988 132.8135 218.71302 132.89844 218.79297 C 132.97773 218.87721 133.05836 218.95975 133.14258 219.03906 C 133.22126 219.12261 133.30319 219.20255 133.38672 219.28125 C 133.46164 219.36076 133.53787 219.43855 133.61719 219.51367 C 133.70138 219.60346 133.78913 219.68922 133.87891 219.77344 C 133.95312 219.85175 134.02893 219.92793 134.10742 220.00195 C 134.18427 220.08344 134.26228 220.16337 134.34375 220.24023 C 134.41999 220.32103 134.4993 220.39835 134.58008 220.47461 C 134.6557 220.55472 134.73241 220.63334 134.8125 220.70898 C 134.88781 220.78873 134.96518 220.86609 135.04492 220.94141 C 135.11741 221.01815 135.19294 221.09141 135.26953 221.16406 C 135.34824 221.24763 135.42816 221.32949 135.51172 221.4082 C 135.58312 221.48344 135.65706 221.55568 135.73242 221.62695 C 135.80559 221.70432 135.87968 221.78032 135.95703 221.85352 C 136.0264 221.92682 136.0968 221.9988 136.16992 222.06836 C 136.2486 222.15191 136.33053 222.23185 136.41406 222.31055 C 136.4792 222.37899 136.54486 222.44656 136.61328 222.51172 C 136.68852 222.59153 136.76603 222.66875 136.8457 222.74414 C 136.91774 222.82004 136.99229 222.89298 137.06836 222.96484 C 137.13286 223.03262 137.1979 223.09951 137.26562 223.16406 C 137.34186 223.24486 137.42117 223.32218 137.50195 223.39844 C 137.56782 223.46751 137.63586 223.53389 137.70508 223.59961 C 137.77366 223.67185 137.84378 223.74196 137.91602 223.81055 C 137.98077 223.87875 138.04527 223.94677 138.11328 224.01172 C 138.18391 224.08643 138.25751 224.15769 138.33203 224.22852 C 138.40255 224.30272 138.47445 224.37497 138.54883 224.44531 C 138.61219 224.51163 138.67573 224.5774 138.74219 224.64062 C 138.80477 224.70642 138.86992 224.76927 138.93555 224.83203 C 139.00749 224.90803 139.08027 224.98272 139.15625 225.05469 C 139.21806 225.11928 139.28096 225.18249 139.3457 225.24414 C 139.41022 225.3119 139.47718 225.37687 139.54492 225.44141 C 139.60882 225.50848 139.67317 225.57475 139.74023 225.63867 C 139.80034 225.70174 139.86287 225.76199 139.92578 225.82227 C 139.99527 225.89552 140.06543 225.96761 140.13867 226.03711 C 140.19451 226.09535 140.25232 226.15118 140.31055 226.20703 C 140.37563 226.27558 140.44139 226.34294 140.50977 226.4082 C 140.57119 226.47256 140.63293 226.53622 140.69727 226.59766 C 140.75807 226.66133 140.82111 226.72238 140.88477 226.7832 C 140.94846 226.84987 141.01326 226.91498 141.08008 226.97852 C 141.13339 227.03402 141.1867 227.08925 141.24219 227.14258 C 141.30794 227.2117 141.3762 227.27798 141.44531 227.34375 C 141.5009 227.40157 141.55728 227.45823 141.61523 227.51367 C 141.67356 227.57463 141.73398 227.63307 141.79492 227.69141 C 141.85262 227.75169 141.91044 227.81143 141.9707 227.86914 C 142.02457 227.92539 142.07866 227.98114 142.13477 228.03516 C 142.19805 228.10155 142.2637 228.16522 142.33008 228.22852 C 142.38316 228.28363 142.43695 228.33767 142.49219 228.39062 C 142.54451 228.4452 142.59792 228.49831 142.65234 228.55078 C 142.71059 228.61181 142.76921 228.67206 142.83008 228.73047 C 142.88815 228.79099 142.94715 228.85027 143.00781 228.9082 C 143.05869 228.96094 143.11121 229.01174 143.16406 229.0625 C 143.21516 229.1157 143.26721 229.16755 143.32031 229.21875 C 143.37517 229.27606 143.43111 229.33172 143.48828 229.38672 C 143.54479 229.44559 143.60119 229.50413 143.66016 229.56055 C 143.70627 229.60826 143.75304 229.65508 143.80078 229.70117 C 143.85433 229.75708 143.90908 229.81153 143.96484 229.86523 C 144.01979 229.92239 144.07555 229.97837 144.13281 230.0332 C 144.17673 230.0786 144.22219 230.12209 144.26758 230.16602 C 144.32403 230.22494 144.38054 230.28337 144.43945 230.33984 C 144.48562 230.38752 144.5323 230.43442 144.58008 230.48047 C 144.62901 230.53125 144.6797 230.57996 144.73047 230.62891 C 144.77878 230.67901 144.82686 230.72902 144.87695 230.77734 C 144.92239 230.82444 144.96861 230.87049 145.01562 230.91602 C 145.06801 230.97051 145.12129 231.02378 145.17578 231.07617 C 145.22005 231.12184 145.26479 231.16676 145.31055 231.21094 C 145.35698 231.25902 145.40505 231.30512 145.45312 231.35156 C 145.49893 231.39898 145.5444 231.44637 145.5918 231.49219 C 145.63697 231.53893 145.68374 231.58372 145.73047 231.62891 C 145.77182 231.67167 145.81282 231.7144 145.85547 231.75586 C 145.90628 231.80866 145.95698 231.86128 146.00977 231.91211 C 146.05026 231.95375 146.09303 231.99281 146.13477 232.0332 C 146.17805 232.07793 146.22091 232.12272 146.26562 232.16602 C 146.30828 232.21007 146.35244 232.25225 146.39648 232.29492 C 146.43851 232.3383 146.48007 232.38179 146.52344 232.42383 C 146.56161 232.46321 146.5994 232.50274 146.63867 232.54102 C 146.68636 232.59045 146.73574 232.63785 146.78516 232.68555 C 146.82249 232.72384 146.86005 232.76159 146.89844 232.79883 C 146.93855 232.84017 146.9782 232.88176 147.01953 232.92188 C 147.05901 232.96254 147.09996 233.00153 147.14062 233.04102 C 147.17947 233.08102 147.21782 233.1213 147.25781 233.16016 C 147.29282 233.19619 147.32929 233.23052 147.36523 233.26562 C 147.40978 233.31169 147.45394 233.35779 147.5 233.40234 C 147.53413 233.43727 147.5685 233.47181 147.60352 233.50586 C 147.64047 233.54385 147.67881 233.58023 147.7168 233.61719 C 147.75312 233.65451 147.78885 233.69219 147.82617 233.72852 C 147.86186 233.76517 147.8989 233.80024 147.93555 233.83594 C 147.96803 233.86929 147.99992 233.90299 148.0332 233.93555 C 148.07364 233.97723 148.11457 234.01815 148.15625 234.05859 C 148.18754 234.09055 148.21993 234.12113 148.25195 234.15234 C 148.28574 234.187 148.31887 234.22206 148.35352 234.25586 C 148.38667 234.28985 148.4211 234.32231 148.45508 234.35547 C 148.48438 234.3855 148.51301 234.41593 148.54297 234.44531 C 148.58181 234.48531 148.62017 234.5256 148.66016 234.56445 C 148.68501 234.58977 148.71101 234.61381 148.73633 234.63867 C 148.77391 234.67733 148.81096 234.71631 148.84961 234.75391 C 148.87674 234.78153 148.90591 234.80692 148.93359 234.83398 C 148.961 234.86202 148.98765 234.8905 149.01562 234.91797 C 149.04807 234.95128 149.08004 234.98507 149.11328 235.01758 C 149.14456 235.04952 149.17697 235.08012 149.20898 235.11133 C 149.23484 235.13763 149.26076 235.16365 149.28711 235.18945 C 149.31162 235.21449 149.33636 235.23909 149.36133 235.26367 C 149.3919 235.29504 149.42184 235.32676 149.45312 235.35742 C 149.48023 235.38508 149.5075 235.41235 149.53516 235.43945 C 149.56419 235.46905 149.59338 235.49838 149.62305 235.52734 C 149.64244 235.54703 149.66196 235.56653 149.68164 235.58594 C 149.71352 235.6186 149.74665 235.64975 149.7793 235.68164 C 149.80068 235.70331 149.82203 235.72477 149.84375 235.74609 C 149.86796 235.77075 149.89136 235.79609 149.91602 235.82031 C 149.93959 235.84431 149.96429 235.86705 149.98828 235.89062 C 150.00799 235.91068 150.02687 235.93141 150.04688 235.95117 C 150.07622 235.98117 150.10673 236.00971 150.13672 236.03906 C 150.15196 236.05448 150.16623 236.07069 150.18164 236.08594 C 150.20646 236.11129 150.23057 236.13722 150.25586 236.16211 C 150.27688 236.18346 150.29897 236.20359 150.32031 236.22461 C 150.34069 236.2453 150.36017 236.26673 150.38086 236.28711 C 150.40413 236.31073 150.4275 236.33421 150.45117 236.35742 C 150.46381 236.37018 150.47748 236.38189 150.49023 236.39453 C 150.51572 236.42051 150.54043 236.44716 150.56641 236.47266 C 150.58133 236.48771 150.59819 236.50074 150.61328 236.51562 C 150.63109 236.53368 150.64797 236.5525 150.66602 236.57031 C 150.68319 236.58771 150.70136 236.60392 150.71875 236.62109 C 150.73205 236.63456 150.74438 236.64878 150.75781 236.66211 C 150.78075 236.68544 150.80284 236.70948 150.82617 236.73242 C 150.83525 236.74156 150.84438 236.75069 150.85352 236.75977 C 150.87162 236.77816 150.88986 236.79631 150.9082 236.81445 C 150.9228 236.82921 150.93837 236.84282 150.95312 236.85742 C 150.97065 236.87514 150.9881 236.89267 151.00586 236.91016 C 151.01593 236.92028 151.02501 236.93136 151.03516 236.94141 C 151.04487 236.95121 151.05467 236.96097 151.06445 236.9707 C 151.07999 236.98646 151.09561 237.002 151.11133 237.01758 C 151.12657 237.03296 151.14279 237.04729 151.1582 237.0625 C 151.16049 237.0648 151.16177 237.06802 151.16406 237.07031 C 151.16965 237.07581 151.17603 237.08046 151.18164 237.08594 C 151.18911 237.09346 151.19562 237.10189 151.20312 237.10938 C 151.22029 237.12677 151.23847 237.14298 151.25586 237.16016 C 151.25684 237.16116 151.25683 237.16306 151.25781 237.16406 C 151.25781 237.16406 151.25977 237.16602 151.25977 237.16602 C 151.26108 237.16731 151.26236 237.16863 151.26367 237.16992 C 151.27956 237.186 151.29643 237.20091 151.3125 237.2168 C 151.31349 237.21779 151.31346 237.21971 151.31445 237.2207 C 151.31872 237.22492 151.32384 237.22822 151.32812 237.23242 C 151.33625 237.24059 151.34339 237.24969 151.35156 237.25781 C 151.35904 237.26533 151.36749 237.27182 151.375 237.2793 C 151.37793 237.28227 151.37988 237.2861 151.38281 237.28906 C 151.38281 237.28906 151.38477 237.29102 151.38477 237.29102 C 151.40066 237.30707 151.41751 237.32202 151.43359 237.33789 C 151.43653 237.34084 151.43846 237.34471 151.44141 237.34766 C 151.44141 237.34766 151.44336 237.34961 151.44336 237.34961 C 151.44336 237.34961 151.44531 237.34961 151.44531 237.34961 C 151.45183 237.35617 151.4583 237.36262 151.46484 237.36914 C 151.46484 237.36914 151.46484 237.37109 151.46484 237.37109 C 151.46677 237.37302 151.47073 237.37698 151.47266 237.37891 C 151.47396 237.38021 151.47526 237.38151 151.47656 237.38281 C 151.47851 237.38477 151.48047 237.38672 151.48242 237.38867 C 151.48894 237.39522 151.4954 237.40168 151.50195 237.4082 C 151.50326 237.4095 151.50455 237.41081 151.50586 237.41211 C 151.50716 237.41341 151.50846 237.41471 151.50977 237.41602 C 151.51007 237.41633 151.51141 237.41571 151.51172 237.41602 C 151.51172 237.41602 151.51367 237.41797 151.51367 237.41797 C 151.51432 237.41862 151.51498 237.41927 151.51562 237.41992 C 151.51602 237.42032 151.51523 237.42148 151.51562 237.42188 C 151.51562 237.42188 151.51758 237.42383 151.51758 237.42383 C 151.51758 237.42383 151.51953 237.42578 151.51953 237.42578 C 151.52018 237.42643 151.52083 237.42708 151.52148 237.42773 C 151.59994 237.50574 151.68473 237.577 151.76758 237.65039 C 151.81261 237.68995 151.85607 237.73528 151.90234 237.77344 C 151.90483 237.77552 151.90766 237.77722 151.91016 237.7793 C 151.91299 237.78165 151.91513 237.78477 151.91797 237.78711 C 151.9201 237.78887 151.9217 237.79121 151.92383 237.79297 C 151.92525 237.79414 151.92631 237.7957 151.92773 237.79688 C 151.92844 237.79746 151.92898 237.79824 151.92969 237.79883 C 152.07032 237.91479 152.2177 238.02459 152.36914 238.12695 C 152.37065 238.12797 152.37154 238.12984 152.37305 238.13086 C 152.52335 238.23183 152.67986 238.32541 152.83984 238.41211 C 152.84063 238.41254 152.84101 238.41363 152.8418 238.41406 C 152.84386 238.41518 152.84559 238.41685 152.84766 238.41797 C 153.66335 238.86001 154.59928 239.11133 155.5957 239.11133 L 168.83984 239.11133 C 172.02839 239.11133 174.5957 236.54402 174.5957 233.35547 L 174.5957 224.80664 C 174.61483 224.82535 174.63686 224.84093 174.65625 224.85938 C 174.72172 224.92813 174.78863 224.99511 174.85742 225.06055 C 174.92256 225.12896 174.98822 225.1966 175.05664 225.26172 C 175.12116 225.32945 175.18812 225.39448 175.25586 225.45898 C 175.31976 225.52603 175.38411 225.59236 175.45117 225.65625 C 175.51446 225.72261 175.5801 225.78634 175.64648 225.84961 C 175.70948 225.91564 175.77378 225.98 175.83984 226.04297 C 175.90164 226.10775 175.96454 226.17059 176.0293 226.23242 C 176.09166 226.29779 176.15533 226.36147 176.2207 226.42383 C 176.28213 226.48815 176.34386 226.55187 176.4082 226.61328 C 176.46901 226.67693 176.53204 226.73804 176.5957 226.79883 C 176.65622 226.86214 176.71791 226.92389 176.78125 226.98438 C 176.84057 227.04643 176.90086 227.10667 176.96289 227.16602 C 177.02277 227.22866 177.08384 227.28973 177.14648 227.34961 C 177.20543 227.41122 177.26455 227.47232 177.32617 227.53125 C 177.38449 227.59218 177.44492 227.65068 177.50586 227.70898 C 177.56356 227.76924 177.62138 227.82903 177.68164 227.88672 C 177.73872 227.94629 177.79784 228.00348 177.85742 228.06055 C 177.91421 228.11979 177.97198 228.17761 178.03125 228.23438 C 178.09089 228.29659 178.15052 228.35849 178.21289 228.41797 C 178.26183 228.46872 178.31251 228.51748 178.36328 228.56641 C 178.42153 228.62741 178.48014 228.68771 178.54102 228.74609 C 178.59845 228.80593 178.65683 228.86458 178.7168 228.92188 C 178.76516 228.97204 178.81509 229.01998 178.86523 229.06836 C 178.92288 229.12867 178.98081 229.18835 179.04102 229.24609 C 179.09249 229.29956 179.14572 229.3509 179.19922 229.40234 C 179.25255 229.45787 179.30582 229.51306 179.36133 229.56641 C 179.41339 229.62053 179.46539 229.67451 179.51953 229.72656 C 179.57097 229.78002 179.62427 229.83139 179.67773 229.88281 C 179.72888 229.93594 179.78083 229.98794 179.83398 230.03906 C 179.88391 230.09092 179.93449 230.14145 179.98633 230.19141 C 180.03684 230.24387 180.08816 230.29519 180.14062 230.3457 C 180.19019 230.39713 180.23957 230.4485 180.29102 230.49805 C 180.33995 230.5488 180.39064 230.59756 180.44141 230.64648 C 180.48972 230.69657 180.5378 230.74662 180.58789 230.79492 C 180.63621 230.84499 180.68622 230.89312 180.73633 230.94141 C 180.78246 230.98914 180.8292 231.03592 180.87695 231.08203 C 180.92462 231.13145 180.97208 231.18083 181.02148 231.22852 C 181.06791 231.27658 181.11599 231.32272 181.16406 231.36914 C 181.20928 231.41592 181.25401 231.46259 181.30078 231.50781 C 181.34598 231.55461 181.39269 231.5993 181.43945 231.64453 C 181.48461 231.69126 181.52945 231.73803 181.57617 231.7832 C 181.62039 231.82889 181.66523 231.87377 181.71094 231.91797 C 181.75485 231.96334 181.80032 232.00688 181.8457 232.05078 C 181.89161 232.09819 181.93687 232.14561 181.98438 232.19141 C 182.02099 232.22904 182.05807 232.26612 182.0957 232.30273 C 182.14052 232.34922 182.18606 232.3945 182.23242 232.43945 C 182.27444 232.48283 182.31797 232.52438 182.36133 232.56641 C 182.40243 232.60877 182.44394 232.65032 182.48633 232.69141 C 182.5271 232.73343 182.56734 232.77565 182.60938 232.81641 C 182.65213 232.86045 182.69609 232.90265 182.74023 232.94531 C 182.77371 232.97964 182.80747 233.01339 182.8418 233.04688 C 182.88381 233.09034 182.92539 233.13366 182.96875 233.17578 C 183.00729 233.21545 183.04627 233.25443 183.08594 233.29297 C 183.12386 233.33196 183.16216 233.3703 183.20117 233.4082 C 183.23875 233.44685 183.2758 233.48586 183.31445 233.52344 C 183.35081 233.5608 183.38843 233.59645 183.42578 233.63281 C 183.46246 233.67053 183.49941 233.70744 183.53711 233.74414 C 183.57312 233.78114 183.60949 233.8175 183.64648 233.85352 C 183.68187 233.88983 183.71757 233.92557 183.75391 233.96094 C 183.78802 233.99592 183.82242 234.03035 183.85742 234.06445 C 183.89217 234.10011 183.92723 234.13517 183.96289 234.16992 C 183.99668 234.20456 184.0298 234.23966 184.06445 234.27344 C 184.09761 234.30741 184.13203 234.3399 184.16602 234.37305 C 184.19853 234.40636 184.23036 234.44015 184.26367 234.47266 C 184.29586 234.50561 184.32836 234.53814 184.36133 234.57031 C 184.39261 234.60233 184.42502 234.63278 184.45703 234.66406 C 184.48828 234.69604 184.5188 234.72852 184.55078 234.75977 C 184.58139 234.79108 184.61321 234.82096 184.64453 234.85156 C 184.67451 234.88221 184.70372 234.91339 184.73438 234.94336 C 184.76402 234.97366 184.79391 235.00357 184.82422 235.0332 C 184.85259 235.06217 184.88118 235.09078 184.91016 235.11914 C 184.94238 235.15207 184.97481 235.18465 185.00781 235.2168 C 185.02883 235.23814 185.05092 235.25829 185.07227 235.2793 C 185.10284 235.31065 185.13278 235.3424 185.16406 235.37305 C 185.19116 235.40069 185.21844 235.42799 185.24609 235.45508 C 185.27192 235.48139 185.29789 235.50739 185.32422 235.5332 C 185.35034 235.55984 185.37571 235.58715 185.40234 235.61328 C 185.4275 235.6389 185.45288 235.66431 185.47852 235.68945 C 185.50337 235.71476 185.52937 235.73883 185.55469 235.76367 C 185.57862 235.78804 185.60259 235.812 185.62695 235.83594 C 185.65055 235.85996 185.67325 235.8846 185.69727 235.9082 C 185.7205 235.93184 185.74394 235.95528 185.76758 235.97852 C 185.79018 236.00149 185.81295 236.02428 185.83594 236.04688 C 185.85761 236.06891 185.88032 236.08965 185.90234 236.11133 C 185.924 236.13333 185.94479 236.15608 185.9668 236.17773 C 185.98781 236.19908 186.0099 236.21922 186.03125 236.24023 C 186.05163 236.26092 186.07111 236.28236 186.0918 236.30273 C 186.11184 236.32307 186.132 236.34325 186.15234 236.36328 C 186.17146 236.38267 186.19155 236.40081 186.21094 236.41992 C 186.23003 236.43928 186.24821 236.45943 186.26758 236.47852 C 186.28603 236.49722 186.30551 236.51475 186.32422 236.5332 C 186.34174 236.55096 186.3592 236.56841 186.37695 236.58594 C 186.39414 236.60335 186.41033 236.62148 186.42773 236.63867 C 186.44457 236.65571 186.46147 236.67262 186.47852 236.68945 C 186.49471 236.70583 186.51096 236.7221 186.52734 236.73828 C 186.54289 236.75401 186.55849 236.76961 186.57422 236.78516 C 186.58912 236.80022 186.60407 236.81518 186.61914 236.83008 C 186.63374 236.84483 186.6493 236.85845 186.66406 236.87305 C 186.68159 236.89075 186.69904 236.9083 186.7168 236.92578 C 186.72362 236.93264 186.72947 236.94044 186.73633 236.94727 C 186.7525 236.96367 186.76879 236.97988 186.78516 236.99609 C 186.79715 237.00819 186.80821 237.02121 186.82031 237.0332 C 186.83261 237.04561 186.84501 237.05801 186.85742 237.07031 C 186.86877 237.08175 186.88113 237.09217 186.89258 237.10352 C 186.90328 237.1143 186.91304 237.12602 186.92383 237.13672 C 186.93419 237.14716 186.94463 237.15761 186.95508 237.16797 C 186.9645 237.17746 186.97489 237.18589 186.98438 237.19531 C 186.99379 237.20479 187.00224 237.2152 187.01172 237.22461 C 187.02049 237.23343 187.03024 237.24124 187.03906 237.25 C 187.04718 237.25817 187.05433 237.26727 187.0625 237.27539 C 187.06997 237.2829 187.07842 237.2894 187.08594 237.29688 C 187.09276 237.30373 187.09861 237.31153 187.10547 237.31836 C 187.10872 237.32162 187.11198 237.32487 187.11523 237.32812 C 187.1185 237.33136 187.12173 237.33466 187.125 237.33789 C 187.13118 237.3441 187.13832 237.34929 187.14453 237.35547 C 187.15007 237.36103 187.1546 237.36751 187.16016 237.37305 C 187.16275 237.37565 187.16537 237.37826 187.16797 237.38086 C 187.17028 237.38315 187.17347 237.38443 187.17578 237.38672 C 187.17578 237.38672 187.17578 237.38867 187.17578 237.38867 C 187.17966 237.39256 187.18361 237.39652 187.1875 237.40039 C 187.19071 237.40361 187.196 237.40695 187.19922 237.41016 C 187.19922 237.41016 187.20117 237.41211 187.20117 237.41211 C 187.20218 237.41312 187.20211 237.41501 187.20312 237.41602 C 187.20414 237.41702 187.20602 237.41696 187.20703 237.41797 C 187.20703 237.41797 187.20898 237.41992 187.20898 237.41992 C 187.20898 237.41992 187.21094 237.42188 187.21094 237.42188 C 187.21195 237.42289 187.21188 237.42477 187.21289 237.42578 C 187.2142 237.42708 187.21549 237.42839 187.2168 237.42969 C 187.2181 237.43099 187.2194 237.43229 187.2207 237.43359 C 187.2207 237.43359 187.22266 237.43555 187.22266 237.43555 C 187.22297 237.43586 187.2243 237.43524 187.22461 237.43555 C 187.22522 237.43615 187.22595 237.4369 187.22656 237.4375 C 187.22885 237.43979 187.23013 237.44302 187.23242 237.44531 C 187.29029 237.5031 187.35378 237.5541 187.41406 237.60938 C 187.42194 237.61647 187.42958 237.62381 187.4375 237.63086 C 187.4986 237.68633 187.55763 237.74405 187.62109 237.79688 C 187.6225 237.79803 187.62359 237.79962 187.625 237.80078 C 187.76973 237.921 187.91988 238.03488 188.07617 238.14062 C 188.07769 238.14165 188.07856 238.14351 188.08008 238.14453 C 188.08127 238.14533 188.08279 238.14568 188.08398 238.14648 C 188.23454 238.24761 188.3905 238.34093 188.55078 238.42773 C 188.55157 238.42816 188.55195 238.42926 188.55273 238.42969 C 188.71662 238.51854 188.88549 238.6009 189.05859 238.67383 C 189.0594 238.67417 189.05974 238.67544 189.06055 238.67578 C 189.74962 238.9661 190.5095 239.12695 191.30664 239.12695 L 204.55078 239.12695 C 204.56398 239.12695 204.57664 239.125 204.58984 239.125 L 217.125 239.125 C 217.125 239.125 221.07553 238.92303 222.875 238.5625 C 225.61501 238.01353 227.98246 237.21286 230.5 236 C 233.09444 234.75009 235.63788 233.31348 237.875 231.5 C 240.2334 229.58821 242.33498 227.32711 244.125 224.875 C 246.25822 221.95273 247.94184 218.6971 249.375 215.375 C 250.67469 212.36229 251.79375 209.22921 252.375 206 C 253.01048 202.46953 253.2964 198.89941 253.25 195.3125 C 253.2127 192.4302 252.77709 189.45894 252.25 186.625 C 251.97509 185.14692 251.60413 183.68289 251.16016 182.24219 C 250.71667 180.80306 250.20033 179.38721 249.625 178 C 249.36256 177.36721 249.08105 176.73989 248.78516 176.12109 C 248.78478 176.1203 248.78358 176.11993 248.7832 176.11914 C 248.2127 174.92626 247.58202 173.76185 246.9082 172.62305 C 246.88268 172.57991 246.85964 172.53525 246.83398 172.49219 C 246.83307 172.49065 246.831 172.48982 246.83008 172.48828 C 246.48069 171.9017 246.12104 171.32161 245.75 170.75 C 245.74902 170.74849 245.74708 170.74761 245.74609 170.74609 C 245.44203 170.27796 245.12548 169.81665 244.80664 169.35742 C 244.71867 169.23071 244.63599 169.10056 244.54688 168.97461 C 244.13516 168.39256 243.71185 167.81984 243.27539 167.25586 C 243.27483 167.25513 243.274 167.25463 243.27344 167.25391 C 243.06524 166.98492 242.8448 166.72527 242.63086 166.46094 C 242.39551 166.1702 242.16621 165.8745 241.92383 165.58984 C 241.92264 165.58844 241.92111 165.58734 241.91992 165.58594 C 241.45978 165.04544 240.98602 164.51612 240.5 164 C 240.49874 163.99866 240.49736 163.99743 240.49609 163.99609 C 240.49483 163.99475 240.49345 163.99353 240.49219 163.99219 C 240.49029 163.99018 240.48822 163.98834 240.48633 163.98633 C 240.48443 163.98432 240.48236 163.98248 240.48047 163.98047 C 240.47731 163.97712 240.47386 163.97405 240.4707 163.9707 C 240.46755 163.96735 240.46409 163.96429 240.46094 163.96094 C 240.45652 163.95625 240.45169 163.95195 240.44727 163.94727 C 240.44285 163.94258 240.43802 163.93828 240.43359 163.93359 C 240.42854 163.92823 240.42302 163.92332 240.41797 163.91797 C 240.41292 163.91261 240.4074 163.9077 240.40234 163.90234 C 240.39603 163.89564 240.38913 163.88951 240.38281 163.88281 C 240.3765 163.87611 240.3696 163.86997 240.36328 163.86328 C 240.35634 163.85591 240.34875 163.84916 240.3418 163.8418 C 240.33927 163.83912 240.33456 163.83471 240.33203 163.83203 C 240.33203 163.83203 240.33008 163.83008 240.33008 163.83008 C 240.33008 163.83008 240.32812 163.82812 240.32812 163.82812 C 240.32812 163.82812 240.32617 163.82617 240.32617 163.82617 C 240.32617 163.82617 240.32422 163.82422 240.32422 163.82422 C 240.32422 163.82422 240.32227 163.82227 240.32227 163.82227 C 240.32227 163.82227 240.32031 163.82031 240.32031 163.82031 C 240.31999 163.81998 240.32063 163.81869 240.32031 163.81836 C 240.32031 163.81836 240.31836 163.81641 240.31836 163.81641 C 240.15741 163.64558 239.9852 163.48547 239.82031 163.31836 C 239.82031 163.31836 239.81836 163.31641 239.81836 163.31641 C 239.81836 163.31641 239.81641 163.31445 239.81641 163.31445 C 239.78106 163.27694 239.74258 163.24241 239.70703 163.20508 C 239.6229 163.12187 239.54207 163.03544 239.45703 162.95312 C 239.41673 162.91391 239.37839 162.873 239.33789 162.83398 C 239.32369 162.82018 239.31111 162.80479 239.29688 162.79102 C 239.29554 162.78975 239.2943 162.78838 239.29297 162.78711 C 239.29297 162.78711 239.29102 162.78516 239.29102 162.78516 C 239.29102 162.78516 239.28906 162.7832 239.28906 162.7832 C 239.28906 162.7832 239.28711 162.78125 239.28711 162.78125 C 239.28578 162.77998 239.28454 162.77861 239.2832 162.77734 C 239.2832 162.77734 239.28125 162.77539 239.28125 162.77539 C 239.27992 162.77412 239.27868 162.77275 239.27734 162.77148 C 239.27734 162.77148 239.27539 162.76953 239.27539 162.76953 C 239.27273 162.76699 239.27024 162.76425 239.26758 162.76172 C 239.26758 162.76172 239.26562 162.75977 239.26562 162.75977 C 239.26296 162.75723 239.26047 162.75449 239.25781 162.75195 C 239.25781 162.75195 239.25586 162.75 239.25586 162.75 C 239.25187 162.74619 239.24813 162.74208 239.24414 162.73828 C 239.24414 162.73828 239.24219 162.73633 239.24219 162.73633 C 239.23819 162.73252 239.23447 162.72842 239.23047 162.72461 C 239.22546 162.71983 239.21986 162.71571 239.21484 162.71094 C 239.21484 162.71094 239.21289 162.70898 239.21289 162.70898 C 239.20791 162.70419 239.20421 162.69815 239.19922 162.69336 C 239.19922 162.69336 239.19727 162.69141 239.19727 162.69141 C 239.19128 162.6857 239.18568 162.67953 239.17969 162.67383 C 239.17969 162.67383 239.17773 162.67188 239.17773 162.67188 C 239.17175 162.66617 239.16615 162.66 239.16016 162.6543 C 239.16016 162.6543 239.1582 162.65234 239.1582 162.65234 C 239.15155 162.64598 239.14533 162.63918 239.13867 162.63281 C 239.13034 162.62487 239.12162 162.61731 239.11328 162.60938 C 239.10495 162.60142 239.09623 162.58998 239.08789 162.58203 C 239.07929 162.5737 239.07111 162.56496 239.0625 162.55664 C 239.0625 162.55664 239.06055 162.55469 239.06055 162.55469 C 239.05127 162.54573 239.04249 162.53629 239.0332 162.52734 C 239.0332 162.52734 239.03125 162.52539 239.03125 162.52539 C 239.02196 162.51644 239.0132 162.50698 239.00391 162.49805 C 239.00391 162.49805 239.00195 162.49609 239.00195 162.49609 C 238.99199 162.48652 238.98263 162.47636 238.97266 162.4668 C 238.97266 162.4668 238.9707 162.46484 238.9707 162.46484 C 238.96006 162.45464 238.95011 162.44378 238.93945 162.43359 C 238.93945 162.43359 238.9375 162.43164 238.9375 162.43164 C 238.91653 162.41159 238.89602 162.39109 238.875 162.37109 C 238.87203 162.3682 238.87016 162.36422 238.86719 162.36133 C 238.85819 162.35275 238.84885 162.34451 238.83984 162.33594 C 238.83623 162.33237 238.83369 162.32779 238.83008 162.32422 C 238.82609 162.32041 238.82235 162.3163 238.81836 162.3125 C 238.80852 162.30279 238.79891 162.2929 238.78906 162.2832 C 238.7864 162.28066 238.78391 162.27793 238.78125 162.27539 C 238.77008 162.2644 238.75923 162.25316 238.74805 162.24219 C 238.74605 162.24028 238.74418 162.23823 238.74219 162.23633 C 238.72968 162.22407 238.7176 162.21146 238.70508 162.19922 C 238.70375 162.19795 238.7025 162.19658 238.70117 162.19531 C 238.68733 162.18179 238.67403 162.1678 238.66016 162.1543 C 238.65316 162.14762 238.64568 162.14143 238.63867 162.13477 C 238.61388 162.11068 238.59127 162.08456 238.56641 162.06055 C 238.56539 162.05958 238.56351 162.05956 238.5625 162.05859 C 238.54691 162.04355 238.53319 162.02674 238.51758 162.01172 C 238.51058 162.00504 238.5031 161.99886 238.49609 161.99219 C 238.4675 161.96473 238.4408 161.93556 238.41211 161.9082 C 238.39249 161.88941 238.37514 161.86836 238.35547 161.84961 C 238.33618 161.83114 238.31816 161.8114 238.29883 161.79297 C 238.27852 161.77352 238.25863 161.75377 238.23828 161.73438 C 238.21799 161.71495 238.20002 161.69321 238.17969 161.67383 C 238.16111 161.65594 238.14362 161.63699 238.125 161.61914 C 238.12332 161.61754 238.12082 161.61683 238.11914 161.61523 C 238.09784 161.59483 238.07799 161.57308 238.05664 161.55273 C 238.03685 161.53281 238.01789 161.51206 237.99805 161.49219 C 237.99238 161.48678 237.98614 161.48196 237.98047 161.47656 C 237.98047 161.47656 237.97852 161.47461 237.97852 161.47461 C 237.96256 161.45866 237.94763 161.4417 237.93164 161.42578 C 237.92831 161.42261 237.92521 161.41919 237.92188 161.41602 C 237.90294 161.39719 237.88422 161.37816 237.86523 161.35938 C 237.86289 161.35714 237.85977 161.35575 237.85742 161.35352 C 237.8368 161.33312 237.81756 161.31136 237.79688 161.29102 C 237.78987 161.28434 237.7824 161.27815 237.77539 161.27148 C 237.75831 161.25471 237.74173 161.23744 237.72461 161.2207 C 237.71862 161.21499 237.71302 161.20883 237.70703 161.20312 C 237.66387 161.16098 237.62348 161.11613 237.58008 161.07422 C 237.57773 161.07198 237.57461 161.07059 237.57227 161.06836 C 237.54874 161.04565 237.5275 161.02069 237.50391 160.99805 C 237.49691 160.99137 237.48943 160.98518 237.48242 160.97852 C 237.46313 160.96004 237.44512 160.94031 237.42578 160.92188 C 237.39688 160.89413 237.3708 160.86358 237.3418 160.83594 C 237.31455 160.8098 237.28906 160.78191 237.26172 160.75586 C 237.23381 160.72908 237.20769 160.70052 237.17969 160.67383 C 237.15111 160.64641 237.12438 160.61717 237.0957 160.58984 C 237.06647 160.56179 237.0391 160.53186 237.00977 160.50391 C 236.97987 160.47521 236.95188 160.44461 236.92188 160.41602 C 236.89539 160.38908 236.86838 160.36278 236.8418 160.33594 C 236.83945 160.3337 236.83633 160.33231 236.83398 160.33008 C 236.80642 160.30226 236.77963 160.27381 236.75195 160.24609 C 236.74996 160.24419 236.74809 160.24214 236.74609 160.24023 C 236.71744 160.21155 236.68892 160.18287 236.66016 160.1543 C 236.65848 160.1527 236.65598 160.15199 236.6543 160.15039 C 236.62454 160.12084 236.59628 160.08998 236.56641 160.06055 C 236.56508 160.05928 236.56383 160.05791 236.5625 160.05664 C 236.46664 159.96221 236.37437 159.86476 236.27734 159.77148 C 236.27601 159.77022 236.27477 159.76885 236.27344 159.76758 C 236.23854 159.73403 236.20497 159.69941 236.16992 159.66602 C 236.13537 159.63282 236.10305 159.59751 236.06836 159.56445 C 236.03315 159.53061 236.0002 159.49463 235.96484 159.46094 C 235.92897 159.42646 235.8954 159.3898 235.85938 159.35547 C 235.81719 159.31492 235.77677 159.27276 235.73438 159.23242 C 235.70611 159.20529 235.6807 159.17548 235.65234 159.14844 C 235.61219 159.1098 235.5755 159.06774 235.53516 159.0293 C 235.49732 158.99291 235.46184 158.95419 235.42383 158.91797 C 235.38599 158.88158 235.35051 158.84286 235.3125 158.80664 C 235.27334 158.76897 235.23661 158.72889 235.19727 158.69141 C 235.15811 158.65374 235.12137 158.61366 235.08203 158.57617 C 235.04155 158.53721 235.00357 158.49579 234.96289 158.45703 C 234.92206 158.41774 234.88283 158.37698 234.8418 158.33789 C 234.80064 158.29828 234.76207 158.25621 234.7207 158.2168 C 234.67954 158.17719 234.64097 158.13511 234.59961 158.0957 C 234.55713 158.05481 234.51731 158.01138 234.47461 157.9707 C 234.43213 157.92981 234.39231 157.88638 234.34961 157.8457 C 234.30581 157.80352 234.26474 157.75875 234.2207 157.7168 C 234.17659 157.67431 234.13615 157.62819 234.0918 157.58594 C 234.05089 157.5461 234.01182 157.50448 233.9707 157.46484 C 233.96804 157.4623 233.96555 157.45957 233.96289 157.45703 C 233.91845 157.41422 233.87671 157.36874 233.83203 157.32617 C 233.78129 157.27728 233.73269 157.22632 233.68164 157.17773 C 233.66239 157.15921 233.64429 157.13957 233.625 157.12109 C 233.60613 157.10281 233.58922 157.08269 233.57031 157.06445 C 233.56331 157.05778 233.55583 157.05159 233.54883 157.04492 C 233.53621 157.03277 233.52436 157.01994 233.51172 157.00781 C 233.47622 156.97293 233.44191 156.93707 233.40625 156.90234 C 233.36888 156.86351 233.33055 156.82574 233.29297 156.78711 C 233.28463 156.77916 233.27592 156.77161 233.26758 156.76367 C 233.18301 156.67692 233.0973 156.59165 233.01172 156.50586 C 233.00472 156.49918 232.99724 156.493 232.99023 156.48633 C 232.94887 156.44494 232.90878 156.4025 232.86719 156.36133 C 232.86152 156.35592 232.85528 156.35111 232.84961 156.3457 C 232.80667 156.30327 232.76583 156.259 232.72266 156.2168 C 232.71933 156.21363 232.71622 156.2102 232.71289 156.20703 C 232.66673 156.16195 232.6226 156.11513 232.57617 156.07031 C 232.57449 156.06871 232.57199 156.06801 232.57031 156.06641 C 232.51825 156.01617 232.47036 155.96202 232.41797 155.91211 C 232.36693 155.86288 232.31893 155.81064 232.26758 155.76172 C 232.21588 155.71184 232.16725 155.65893 232.11523 155.60938 C 232.06288 155.55885 232.01362 155.50527 231.96094 155.45508 C 231.90858 155.40456 231.85933 155.35097 231.80664 155.30078 C 231.75328 155.24928 231.70214 155.19569 231.64844 155.14453 C 231.59475 155.09271 231.54427 155.0378 231.49023 154.98633 C 231.43589 154.93386 231.38478 154.87828 231.33008 154.82617 C 231.27507 154.77306 231.22334 154.71681 231.16797 154.66406 C 231.1123 154.61031 231.05995 154.55338 231.00391 154.5 C 230.94726 154.4453 230.89492 154.38635 230.83789 154.33203 C 230.78657 154.28177 230.73719 154.22963 230.68555 154.17969 C 230.68222 154.17652 230.67911 154.17309 230.67578 154.16992 C 230.6175 154.11361 230.5626 154.05395 230.50391 153.99805 C 230.45125 153.94644 230.40067 153.89306 230.34766 153.8418 C 230.34398 153.83829 230.33961 153.83553 230.33594 153.83203 C 230.2776 153.77566 230.22282 153.71612 230.16406 153.66016 C 230.10982 153.60696 230.05852 153.55088 230.00391 153.49805 C 230.00058 153.49488 229.99747 153.49145 229.99414 153.48828 C 229.9309 153.42715 229.87037 153.36338 229.80664 153.30273 C 229.75894 153.25666 229.71204 153.20595 229.66406 153.16016 C 229.59984 153.09794 229.53933 153.03242 229.47461 152.9707 C 229.40974 152.90792 229.34858 152.84157 229.2832 152.7793 C 229.21334 152.71174 229.14662 152.64118 229.07617 152.57422 C 229.02675 152.52653 228.98135 152.47513 228.93164 152.42773 C 228.8648 152.36302 228.80176 152.29465 228.73438 152.23047 C 228.67148 152.16963 228.61221 152.10529 228.54883 152.04492 C 228.48065 151.97896 228.4164 151.90915 228.34766 151.84375 C 228.30593 151.80342 228.26655 151.76082 228.22461 151.7207 C 228.21106 151.70753 228.19912 151.69284 228.18555 151.67969 C 228.17855 151.67301 228.17107 151.66683 228.16406 151.66016 C 228.10641 151.6044 228.05219 151.54558 227.99414 151.49023 C 227.92952 151.42658 227.86789 151.36001 227.80273 151.29688 C 227.79941 151.2937 227.7963 151.29028 227.79297 151.28711 C 227.71687 151.21343 227.64321 151.13743 227.56641 151.06445 C 227.51417 151.01315 227.46469 150.95917 227.41211 150.9082 C 227.41211 150.9082 227.41016 150.90625 227.41016 150.90625 C 227.34402 150.84215 227.28152 150.77451 227.21484 150.71094 C 227.14829 150.6453 227.0847 150.5768 227.01758 150.51172 C 227.01359 150.50791 227.00985 150.5038 227.00586 150.5 C 226.93773 150.434 226.87338 150.36426 226.80469 150.29883 C 226.73656 150.23283 226.67221 150.16309 226.60352 150.09766 C 226.53407 150.03036 226.46847 149.95929 226.39844 149.89258 C 226.32899 149.82529 226.26339 149.75421 226.19336 149.6875 C 226.12326 149.61956 226.05703 149.54781 225.98633 149.48047 C 225.91522 149.41155 225.84711 149.33979 225.77539 149.27148 C 225.70462 149.20289 225.63779 149.13049 225.56641 149.0625 C 225.49432 148.99261 225.42623 148.91887 225.35352 148.84961 C 225.28143 148.77972 225.21334 148.70598 225.14062 148.63672 C 225.06788 148.56618 224.99917 148.49177 224.92578 148.42188 C 224.85239 148.35069 224.78304 148.27561 224.70898 148.20508 C 224.63493 148.13325 224.56495 148.05749 224.49023 147.98633 C 224.41553 147.91385 224.34492 147.83743 224.26953 147.76562 C 224.19483 147.69315 224.12421 147.61672 224.04883 147.54492 C 223.97347 147.4718 223.90222 147.3947 223.82617 147.32227 C 223.74984 147.24819 223.6786 147.16907 223.60156 147.0957 C 223.51995 147.01649 223.4418 146.93388 223.35938 146.85547 C 223.29362 146.78769 223.22653 146.72148 223.16016 146.6543 C 223.15382 146.64826 223.14697 146.64275 223.14062 146.63672 C 223.0703 146.56566 223.00069 146.49424 222.92969 146.42383 C 222.92636 146.42065 222.92325 146.41724 222.91992 146.41406 C 222.84595 146.34076 222.7739 146.26597 222.69922 146.19336 C 222.69656 146.19082 222.69407 146.18808 222.69141 146.18555 C 222.61042 146.10687 222.53296 146.02515 222.45117 145.94727 C 222.36858 145.86705 222.29045 145.78252 222.20703 145.70312 C 222.19656 145.69276 222.18626 145.68223 222.17578 145.67188 C 222.11419 145.61225 222.0562 145.5494 221.99414 145.49023 C 221.90896 145.40739 221.82825 145.32024 221.74219 145.23828 C 221.66093 145.15933 221.58401 145.07619 221.50195 144.99805 C 221.4207 144.9191 221.34378 144.83596 221.26172 144.75781 C 221.17915 144.67756 221.10098 144.59309 221.01758 144.51367 C 220.93501 144.43342 220.85684 144.34895 220.77344 144.26953 C 220.69022 144.18863 220.61141 144.10349 220.52734 144.02344 C 220.44413 143.94254 220.36531 143.8574 220.28125 143.77734 C 220.19673 143.69515 220.11665 143.60867 220.03125 143.52734 C 219.94673 143.44515 219.86665 143.35867 219.78125 143.27734 C 219.6951 143.19354 219.6144 143.10438 219.52734 143.02148 C 219.43226 142.929 219.34033 142.83357 219.24414 142.74219 C 219.23107 142.72922 219.21817 142.71607 219.20508 142.70312 C 219.20316 142.70114 219.20114 142.69925 219.19922 142.69727 C 219.14322 142.64192 219.08961 142.58425 219.0332 142.5293 C 219.03187 142.52803 219.03063 142.52666 219.0293 142.52539 C 218.93758 142.43607 218.85056 142.3422 218.75781 142.25391 C 218.66835 142.16687 218.58263 142.0763 218.49219 141.99023 C 218.40304 141.90354 218.31864 141.81229 218.22852 141.72656 C 218.15074 141.64733 218.07276 141.56865 217.99414 141.49023 C 217.99214 141.48833 217.99028 141.48628 217.98828 141.48438 C 217.80816 141.3048 217.63351 141.12078 217.44922 140.94531 C 217.35881 140.85728 217.27305 140.76477 217.18164 140.67773 C 217.09058 140.58905 217.00419 140.49587 216.91211 140.4082 C 216.82105 140.31952 216.73465 140.22634 216.64258 140.13867 C 216.55087 140.04934 216.46383 139.95549 216.37109 139.86719 C 216.27873 139.77721 216.19106 139.68269 216.09766 139.59375 C 216.00464 139.50312 215.91634 139.40793 215.82227 139.31836 C 215.72299 139.22161 215.62783 139.12093 215.52734 139.02539 C 215.46442 138.96265 215.40329 138.89817 215.33984 138.83594 C 215.32054 138.81744 215.30255 138.79775 215.2832 138.7793 C 215.18271 138.6812 215.08806 138.57733 214.98633 138.48047 C 214.89137 138.38791 214.80114 138.29068 214.70508 138.19922 C 214.60913 138.10567 214.517 138.00844 214.41992 137.91602 C 214.32364 137.82214 214.23218 137.7236 214.13477 137.63086 C 214.03783 137.53633 213.94575 137.43713 213.84766 137.34375 C 213.75073 137.24923 213.65863 137.15002 213.56055 137.05664 C 213.46231 136.96081 213.36896 136.86028 213.26953 136.76562 C 213.1713 136.6698 213.07793 136.56926 212.97852 136.47461 C 212.87963 136.37813 212.78563 136.27692 212.68555 136.18164 C 212.58601 136.08451 212.49138 135.98264 212.39062 135.88672 C 212.29109 135.78959 212.19646 135.68771 212.0957 135.5918 C 211.99487 135.49337 211.89896 135.39016 211.79688 135.29297 C 211.69604 135.19454 211.60013 135.09133 211.49805 134.99414 C 211.39656 134.89506 211.30002 134.79118 211.19727 134.69336 C 211.09447 134.59298 210.99667 134.48775 210.89258 134.38867 C 210.79044 134.28894 210.69327 134.18439 210.58984 134.08594 C 210.49389 133.98967 210.39991 133.89195 210.30273 133.79688 C 210.29941 133.7937 210.2963 133.79028 210.29297 133.78711 C 210.18587 133.68241 210.08312 133.57399 209.97461 133.4707 C 209.86987 133.36837 209.77016 133.26114 209.66406 133.16016 C 209.55932 133.05782 209.45961 132.9506 209.35352 132.84961 C 209.24878 132.74727 209.14906 132.64006 209.04297 132.53906 C 208.94449 132.44012 208.84783 132.33988 208.74805 132.24219 C 208.74437 132.23868 208.74 132.23592 208.73633 132.23242 C 208.62695 132.12544 208.52296 132.01372 208.41211 131.9082 C 208.30477 131.80326 208.20252 131.69337 208.09375 131.58984 C 207.98641 131.4849 207.88416 131.37501 207.77539 131.27148 C 207.6674 131.16589 207.56451 131.05534 207.45508 130.95117 C 207.34644 130.84492 207.24291 130.7337 207.13281 130.62891 C 207.02352 130.52201 206.91936 130.41012 206.80859 130.30469 C 206.69865 130.19713 206.59386 130.08458 206.48242 129.97852 C 206.37182 129.87032 206.26641 129.75708 206.1543 129.65039 C 206.04304 129.54153 205.937 129.42765 205.82422 129.32031 C 205.71297 129.21146 205.60692 129.09756 205.49414 128.99023 C 205.38225 128.88073 205.27555 128.76617 205.16211 128.6582 C 205.04956 128.54804 204.94224 128.43282 204.82812 128.32422 C 204.71558 128.21406 204.60825 128.09883 204.49414 127.99023 C 204.38029 127.87876 204.2717 127.76222 204.15625 127.65234 C 204.04241 127.54088 203.93381 127.42432 203.81836 127.31445 C 203.70156 127.20007 203.5892 127.08145 203.4707 126.96875 C 203.36699 126.86413 203.26532 126.75751 203.16016 126.6543 C 203.15449 126.64889 203.14825 126.64407 203.14258 126.63867 C 203.02354 126.522 202.90986 126.40008 202.78906 126.28516 C 202.6805 126.17884 202.57682 126.06776 202.4668 125.96289 C 202.34389 125.84227 202.22635 125.71642 202.10156 125.59766 C 201.98414 125.48259 201.87109 125.36337 201.75195 125.25 C 201.63389 125.1343 201.52214 125.01243 201.40234 124.89844 C 201.28396 124.78241 201.17091 124.66118 201.05078 124.54688 C 200.93175 124.43019 200.81806 124.3083 200.69727 124.19336 C 200.57526 124.07374 200.45783 123.94981 200.33398 123.83203 C 200.22651 123.72337 200.12076 123.61301 200.01172 123.50586 C 200.00538 123.49982 199.99853 123.49432 199.99219 123.48828 C 199.86926 123.36768 199.75176 123.24178 199.62695 123.12305 C 199.51255 123.01085 199.40314 122.89378 199.28711 122.7832 C 199.15967 122.658 199.03767 122.52749 198.9082 122.4043 C 198.78428 122.28271 198.6649 122.1568 198.53906 122.03711 C 198.41973 121.92006 198.30665 121.79693 198.18555 121.68164 C 198.07071 121.56519 197.95648 121.4487 197.83984 121.33398 C 197.83585 121.33018 197.83212 121.32607 197.82812 121.32227 C 197.69895 121.19535 197.57461 121.0643 197.44336 120.93945 C 197.1988 120.6915 196.95755 120.44137 196.70508 120.20117 C 196.57791 120.07632 196.45535 119.94707 196.32617 119.82422 C 196.20425 119.70455 196.08862 119.57877 195.96484 119.46094 C 195.84688 119.3411 195.72925 119.22151 195.60938 119.10352 C 195.60504 119.09938 195.60005 119.09593 195.5957 119.0918 C 195.46036 118.95871 195.33099 118.82027 195.19336 118.68945 C 195.07562 118.5739 194.96322 118.45368 194.84375 118.33984 C 194.70984 118.20809 194.58146 118.07094 194.44531 117.94141 C 194.31657 117.8149 194.19331 117.68305 194.0625 117.55859 C 193.93048 117.42885 193.80412 117.2936 193.66992 117.16602 C 193.54574 117.04406 193.42689 116.91693 193.30078 116.79688 C 193.17907 116.67297 193.05734 116.54967 192.93359 116.42773 C 192.92925 116.4236 192.92426 116.42015 192.91992 116.41602 C 192.78428 116.28251 192.65357 116.1449 192.51562 116.01367 C 192.38427 115.88453 192.2585 115.75005 192.125 115.62305 C 191.99269 115.49295 191.86692 115.35645 191.73242 115.22852 C 191.59978 115.09808 191.47273 114.96224 191.33789 114.83398 C 191.20526 114.70356 191.07819 114.5677 190.94336 114.43945 C 190.81008 114.30837 190.68237 114.17185 190.54688 114.04297 C 190.41296 113.91123 190.2846 113.77405 190.14844 113.64453 C 190.01387 113.51213 189.88488 113.3743 189.74805 113.24414 C 189.62461 113.11826 189.50054 112.99299 189.375 112.86914 C 189.36866 112.8631 189.36181 112.8576 189.35547 112.85156 C 189.21965 112.7178 189.0893 112.57874 188.95117 112.44727 C 188.81471 112.31284 188.68372 112.17313 188.54492 112.04102 C 188.40846 111.90659 188.27747 111.76688 188.13867 111.63477 C 188.00157 111.49969 187.86993 111.35931 187.73047 111.22656 C 187.59272 111.09083 187.46044 110.94979 187.32031 110.81641 C 187.18191 110.68001 187.04901 110.53832 186.9082 110.4043 C 186.76785 110.26597 186.63306 110.12221 186.49023 109.98633 C 186.3597 109.85771 186.23424 109.72416 186.10156 109.59766 C 185.9548 109.45269 185.81354 109.30243 185.66406 109.16016 C 185.52373 109.02178 185.3889 108.87811 185.24609 108.74219 C 185.10512 108.60315 184.96964 108.45883 184.82617 108.32227 C 184.6852 108.18324 184.54972 108.0389 184.40625 107.90234 C 184.26399 107.762 184.12722 107.61634 183.98242 107.47852 C 183.84017 107.33817 183.70339 107.19251 183.55859 107.05469 C 183.4157 106.91368 183.27828 106.76737 183.13281 106.62891 C 182.98927 106.48724 182.85121 106.34027 182.70508 106.20117 C 182.56089 106.05885 182.42219 105.91122 182.27539 105.77148 C 182.13056 105.62851 181.99122 105.48021 181.84375 105.33984 C 181.69892 105.19686 181.55958 105.04857 181.41211 104.9082 C 181.26599 104.7639 181.12537 104.6143 180.97656 104.47266 C 180.83045 104.32836 180.68982 104.17875 180.54102 104.03711 C 180.39426 103.89215 180.25299 103.74188 180.10352 103.59961 C 179.95546 103.45334 179.81293 103.30174 179.66211 103.1582 C 179.51501 103.01291 179.37248 102.8633 179.22266 102.7207 C 179.07395 102.57376 178.93079 102.42153 178.7793 102.27734 C 178.63028 102.13009 178.48775 101.97651 178.33594 101.83203 C 178.1866 101.68445 178.04278 101.53152 177.89062 101.38672 C 177.74065 101.23848 177.59618 101.08489 177.44336 100.93945 C 177.29274 100.79055 177.14763 100.6363 176.99414 100.49023 C 176.84287 100.34067 176.69713 100.18577 176.54297 100.03906 C 176.38483 99.882704 176.2316 99.721599 176.07031 99.568359 C 175.93521 99.429442 175.79783 99.2927 175.66016 99.15625 C 175.66016 99.15625 175.6582 99.154297 175.6582 99.154297 C 175.4986 98.99614 175.34447 98.832701 175.18164 98.677734 C 175.02845 98.526187 174.88077 98.369319 174.72461 98.220703 C 174.57142 98.069162 174.42373 97.912281 174.26758 97.763672 C 174.10623 97.604009 173.94979 97.439616 173.78516 97.283203 C 173.64759 97.141549 173.50743 97.002371 173.36719 96.863281 C 173.36586 96.862013 173.36461 96.860643 173.36328 96.859375 C 173.20176 96.699239 173.04569 96.533819 172.88086 96.376953 C 172.72511 96.222769 172.57484 96.063259 172.41602 95.912109 C 172.25962 95.757265 172.10871 95.597097 171.94922 95.445312 C 171.79218 95.289801 171.64063 95.128989 171.48047 94.976562 C 171.32343 94.821057 171.17188 94.660233 171.01172 94.507812 C 170.8534 94.350985 170.70056 94.188846 170.53906 94.035156 C 170.38075 93.878328 170.2279 93.71619 170.06641 93.5625 C 169.90745 93.405011 169.75396 93.242216 169.5918 93.087891 C 169.4322 92.92974 169.27806 92.766288 169.11523 92.611328 C 168.94748 92.445063 168.7846 92.274071 168.61328 92.111328 C 168.47081 91.964176 168.32505 91.820169 168.17969 91.675781 C 168.17836 91.674513 168.17711 91.673143 168.17578 91.671875 C 168.00817 91.505439 167.84502 91.334781 167.67383 91.171875 C 167.51229 91.01173 167.35626 90.846327 167.19141 90.689453 C 167.02923 90.528647 166.87255 90.362587 166.70703 90.205078 C 166.5439 90.043302 166.38721 89.875236 166.2207 89.716797 C 166.05725 89.55469 165.89926 89.387272 165.73242 89.228516 C 165.56833 89.06574 165.40971 88.897679 165.24219 88.738281 C 165.0781 88.575512 164.91946 88.407438 164.75195 88.248047 C 164.58722 88.084616 164.42794 87.915886 164.25977 87.755859 C 164.0944 87.591766 163.93447 87.42238 163.76562 87.261719 C 163.59962 87.096963 163.43904 86.926921 163.26953 86.765625 C 163.10288 86.600206 162.94166 86.42951 162.77148 86.267578 C 162.60419 86.10149 162.44234 85.930151 162.27148 85.767578 C 162.1042 85.601497 161.94233 85.430145 161.77148 85.267578 C 161.60356 85.100834 161.44105 84.928827 161.26953 84.765625 C 161.10097 84.598218 160.93781 84.425555 160.76562 84.261719 C 160.59642 84.093648 160.43262 83.920331 160.25977 83.755859 C 160.08992 83.587126 159.92547 83.413154 159.75195 83.248047 C 159.58147 83.078643 159.41638 82.90403 159.24219 82.738281 C 159.07171 82.568884 158.90661 82.394257 158.73242 82.228516 C 158.5613 82.058455 158.39555 81.883174 158.2207 81.716797 C 158.04895 81.546073 157.88255 81.370137 157.70703 81.203125 C 157.53299 81.030103 157.36345 80.852804 157.18555 80.683594 C 157.01281 80.511906 156.84647 80.33395 156.66992 80.166016 C 156.50405 80.001128 156.34321 79.831344 156.17383 79.669922 C 155.99344 79.490223 155.81736 79.306451 155.63281 79.130859 C 155.45848 78.957472 155.28954 78.778935 155.11133 78.609375 C 154.93636 78.435324 154.76677 78.256132 154.58789 78.085938 C 154.41228 77.911222 154.24205 77.731377 154.0625 77.560547 C 153.88594 77.384851 153.7157 77.203017 153.53516 77.03125 C 153.35892 76.855895 153.18802 76.675348 153.00781 76.503906 C 152.8303 76.327215 152.65811 76.145375 152.47656 75.972656 C 152.29905 75.795972 152.12685 75.614118 151.94531 75.441406 C 151.76552 75.262422 151.59017 75.079206 151.40625 74.904297 C 151.24191 74.732591 151.07258 74.566392 150.9043 74.398438 C 150.89796 74.392392 150.89111 74.3869 150.88477 74.380859 C 150.7033 74.200043 150.52748 74.014548 150.3418 73.837891 C 150.16174 73.658548 149.98694 73.474079 149.80273 73.298828 C 149.61453 73.111365 149.43102 72.919325 149.23828 72.736328 C 149.06315 72.562213 148.89389 72.383146 148.71484 72.212891 C 148.54853 72.038884 148.37544 71.871327 148.20508 71.701172 C 148.20273 71.698937 148.19961 71.697547 148.19727 71.695312 C 148.00926 71.507648 147.82732 71.314049 147.63477 71.130859 C 147.45216 70.948856 147.27477 70.761776 147.08789 70.583984 C 146.90464 70.401308 146.72662 70.21359 146.53906 70.035156 C 146.35582 69.852487 146.17778 69.664754 145.99023 69.486328 C 145.80636 69.302993 145.62767 69.114608 145.43945 68.935547 C 145.25494 68.751546 145.0756 68.562509 144.88672 68.382812 C 144.70157 68.198146 144.52158 68.008456 144.33203 67.828125 C 144.1459 67.642445 143.96402 67.452782 143.77344 67.271484 C 143.57918 67.07771 143.3905 66.87846 143.19141 66.689453 C 143.02648 66.516673 142.85447 66.350624 142.68555 66.181641 C 142.68289 66.179103 142.6804 66.176365 142.67773 66.173828 C 142.48398 65.980148 142.29429 65.782667 142.0957 65.59375 C 141.89918 65.39762 141.70733 65.197106 141.50586 65.005859 C 141.34003 64.832027 141.16792 64.66413 140.99805 64.494141 C 140.99539 64.491603 140.9929 64.488865 140.99023 64.486328 C 140.79522 64.29132 140.60421 64.092523 140.4043 63.902344 C 139.01677 62.516872 137.50864 61.24801 135.94336 60.068359 C 133.44853 58.188162 130.71598 56.653243 127.91211 55.443359 C 126.66876 54.906848 125.08688 54.482629 123.43359 54.105469 C 121.78031 53.72831 119.94336 53.693359 119.94336 53.693359 L 105.16211 53.689453 C 105.14761 53.689347 105.13364 53.6875 105.11914 53.6875 L 91.875 53.6875 C 88.686418 53.6875 86.119141 56.254777 86.119141 59.443359 L 86.119141 67.992188 C 86.032069 67.905199 85.938208 67.825407 85.845703 67.744141 C 85.679106 67.553922 85.500671 67.373733 85.310547 67.207031 C 85.141199 67.013889 84.959222 66.832904 84.765625 66.664062 C 84.601614 66.477909 84.426866 66.302153 84.240234 66.138672 C 84.076147 65.951348 83.899815 65.775859 83.712891 65.611328 C 83.539304 65.412099 83.353567 65.224323 83.154297 65.050781 C 82.988911 64.862799 82.811473 64.686378 82.623047 64.521484 C 82.454488 64.32887 82.272735 64.148979 82.080078 63.980469 C 81.910962 63.787119 81.730498 63.60462 81.537109 63.435547 C 81.370776 63.245292 81.191803 63.067174 81.001953 62.900391 C 80.828464 62.700887 80.640625 62.513651 80.441406 62.339844 C 80.274983 62.14967 80.096181 61.971381 79.90625 61.804688 C 79.730217 61.602062 79.540431 61.412457 79.337891 61.236328 C 79.16833 61.042784 78.986868 60.860572 78.792969 60.691406 C 78.623477 60.497189 78.441998 60.314319 78.248047 60.144531 C 78.070756 59.940561 77.877975 59.751312 77.673828 59.574219 C 77.504528 59.381034 77.324413 59.198187 77.130859 59.029297 C 76.955897 58.828227 76.7675 58.639779 76.566406 58.464844 C 76.393598 58.2668 76.207978 58.080823 76.009766 57.908203 C 75.83562 57.708239 75.647274 57.521752 75.447266 57.347656 C 75.272565 57.146954 75.085508 56.957858 74.884766 56.783203 C 74.710427 56.582824 74.52256 56.395137 74.322266 56.220703 C 74.145367 56.017013 73.953672 55.827309 73.75 55.650391 C 72.696303 54.439863 71.146328 53.671875 69.408203 53.671875 L 56.164062 53.671875 z "
       id="path4282"
       clip-path="url(#clipPath5750)" />
    <path
       id="rect4201"
       d="M 55.595703 53.103516 C 52.407156 53.103516 49.839844 55.670829 49.839844 58.859375 L 49.839844 133.35547 C 49.839844 136.54402 52.407156 139.11133 55.595703 139.11133 L 68.839844 139.11133 C 72.028391 139.11133 74.595703 136.54402 74.595703 133.35547 L 74.595703 58.859375 C 74.595703 55.670829 72.028391 53.103516 68.839844 53.103516 L 55.595703 53.103516 z M 91.306641 53.119141 C 88.118059 53.119141 85.550781 55.686418 85.550781 58.875 L 85.550781 133.37305 C 85.550781 136.56163 88.118059 139.12695 91.306641 139.12695 L 104.55078 139.12695 C 104.56398 139.12695 104.57667 139.12509 104.58984 139.125 L 117.125 139.125 C 117.125 139.125 121.07553 138.92303 122.875 138.5625 C 125.61501 138.01353 127.98246 137.21286 130.5 136 C 133.09444 134.75009 135.63788 133.31348 137.875 131.5 C 140.2334 129.58821 142.33498 127.32711 144.125 124.875 C 146.25822 121.95273 147.94184 118.6971 149.375 115.375 C 150.67469 112.36229 151.79375 109.22921 152.375 106 C 153.01048 102.46953 153.2964 98.899406 153.25 95.3125 C 153.21273 92.430203 152.77709 89.458939 152.25 86.625 C 151.70049 83.670464 150.77628 80.775932 149.625 78 C 148.57524 75.468857 147.24239 73.048139 145.75 70.75 C 144.19757 68.359404 142.45471 66.074637 140.5 64 C 138.94099 62.34534 137.19056 60.868272 135.375 59.5 C 132.88017 57.619803 130.14762 56.084884 127.34375 54.875 C 126.1004 54.338488 124.51852 53.914269 122.86523 53.537109 C 121.21195 53.15995 119.375 53.125 119.375 53.125 L 104.59375 53.121094 C 104.57926 53.120988 104.5653 53.119141 104.55078 53.119141 L 91.306641 53.119141 z "
       style="opacity:1;fill:#ffffff;fill-opacity:1;fill-rule:nonzero;stroke:none;stroke-width:1.00899994;stroke-linecap:butt;stroke-linejoin:miter;stroke-miterlimit:4;stroke-dasharray:none;stroke-dashoffset:0;stroke-opacity:1;filter:url(#filter12037)" />
    <path
       style="opacity:1;fill:#cccccc;fill-opacity:1;fill-rule:nonzero;stroke:none;stroke-width:1.00899994;stroke-linecap:butt;stroke-linejoin:miter;stroke-miterlimit:4;stroke-dasharray:none;stroke-dashoffset:0;stroke-opacity:1"
       d="M 55.595703 53.103516 C 52.407156 53.103516 49.839844 55.670829 49.839844 58.859375 L 49.839844 133.35547 C 49.839844 136.54402 52.407156 139.11133 55.595703 139.11133 L 68.839844 139.11133 C 72.028391 139.11133 74.595703 136.54402 74.595703 133.35547 L 74.595703 58.859375 C 74.595703 55.670829 72.028391 53.103516 68.839844 53.103516 L 55.595703 53.103516 z M 91.306641 53.119141 C 88.118059 53.119141 85.550781 55.686418 85.550781 58.875 L 85.550781 133.37305 C 85.550781 136.56163 88.118059 139.12695 91.306641 139.12695 L 104.55078 139.12695 C 104.56398 139.12695 104.57667 139.12509 104.58984 139.125 L 117.125 139.125 C 117.125 139.125 121.07553 138.92303 122.875 138.5625 C 125.61501 138.01353 127.98246 137.21286 130.5 136 C 133.09444 134.75009 135.63788 133.31348 137.875 131.5 C 140.2334 129.58821 142.33498 127.32711 144.125 124.875 C 146.25822 121.95273 147.94184 118.6971 149.375 115.375 C 150.67469 112.36229 151.79375 109.22921 152.375 106 C 153.01048 102.46953 153.2964 98.899406 153.25 95.3125 C 153.21273 92.430203 152.77709 89.458939 152.25 86.625 C 151.70049 83.670464 150.77628 80.775932 149.625 78 C 148.57524 75.468857 147.24239 73.048139 145.75 70.75 C 144.19757 68.359404 142.45471 66.074637 140.5 64 C 138.94099 62.34534 137.19056 60.868272 135.375 59.5 C 132.88017 57.619803 130.14762 56.084884 127.34375 54.875 C 126.1004 54.338488 124.51852 53.914269 122.86523 53.537109 C 121.21195 53.15995 119.375 53.125 119.375 53.125 L 104.59375 53.121094 C 104.57926 53.120988 104.5653 53.119141 104.55078 53.119141 L 91.306641 53.119141 z "
       id="path4191" />
    <path
       id="path4193"
       d="m 55.595703,53.103516 c -3.188547,0 -5.755859,2.537469 -5.755859,5.688949 l 0,73.630095 c 0,3.15149 2.567312,5.68895 5.755859,5.68895 l 13.244141,0 c 3.188547,0 5.755859,-2.53746 5.755859,-5.68895 l 0,-73.630095 c 0,-3.15148 -2.567312,-5.688949 -5.755859,-5.688949 l -13.244141,0 z m 35.710938,0.01544 c -3.188582,0 -5.75586,2.537433 -5.75586,5.688949 l 0,73.632032 c 0,3.15151 2.567278,5.68701 5.75586,5.68701 l 13.244139,0 c 0.0132,0 0.0259,-0.002 0.0391,-0.002 l 12.53516,0 c 0,0 3.95053,-0.19962 5.75,-0.55596 2.74001,-0.54259 5.10746,-1.33395 7.625,-2.53271 2.59444,-1.23538 5.13788,-2.65529 7.375,-4.44769 2.3584,-1.88956 4.45998,-4.12438 6.25,-6.54798 2.13322,-2.8883 3.81684,-6.10609 5.25,-9.38957 1.29969,-2.97769 2.41875,-6.07435 3,-9.26602 0.63548,-3.48943 0.9214,-7.018049 0.875,-10.563258 -0.0373,-2.848791 -0.47291,-5.785515 -1,-8.586511 -0.54951,-2.92019 -1.47372,-5.781074 -2.625,-8.524736 -1.04976,-2.501719 -2.38261,-4.894297 -3.875,-7.165721 -1.55243,-2.362806 -3.29529,-4.621013 -5.25,-6.671533 -1.55901,-1.635425 -3.30944,-3.095322 -5.125,-4.447688 -2.49483,-1.858341 -5.22738,-3.375417 -8.03125,-4.571236 -1.24335,-0.530275 -2.82523,-0.949563 -4.47852,-1.322338 C 121.21195,53.159294 119.375,53.12475 119.375,53.12475 l -14.78125,-0.0039 c -0.0145,-1.05e-4 -0.0285,-0.0019 -0.043,-0.0019 l -13.244139,0 z"
       style="opacity:1;fill:#ffffff;fill-opacity:1;fill-rule:nonzero;stroke:none;stroke-width:1.00899994;stroke-linecap:butt;stroke-linejoin:miter;stroke-miterlimit:4;stroke-dasharray:none;stroke-dashoffset:0;stroke-opacity:1"
       inkscape:connector-curvature="0" />
    <path
       inkscape:connector-curvature="0"
       style="opacity:1;fill:#f2f2f2;fill-opacity:1;fill-rule:nonzero;stroke:none;stroke-width:1.00899994;stroke-linecap:butt;stroke-linejoin:miter;stroke-miterlimit:4;stroke-dasharray:none;stroke-dashoffset:0;stroke-opacity:1"
       d="m 55.595703,54.103516 c -3.188547,0 -5.755859,2.507625 -5.755859,5.622039 l 0,72.764095 c 0,3.11443 2.567312,5.62204 5.755859,5.62204 l 13.244141,0 c 3.188547,0 5.755859,-2.50761 5.755859,-5.62204 l 0,-72.764095 c 0,-3.114414 -2.567312,-5.622039 -5.755859,-5.622039 l -13.244141,0 z m 35.710938,0.01526 c -3.188582,0 -5.75586,2.507589 -5.75586,5.622039 l 0,72.766007 c 0,3.11445 2.567278,5.62013 5.75586,5.62013 l 13.244139,0 c 0.0132,0 0.0259,-0.002 0.0391,-0.002 l 12.53516,0 c 0,0 3.95053,-0.19727 5.75,-0.54942 2.74001,-0.53621 5.10746,-1.31826 7.625,-2.50292 2.59444,-1.22085 5.13788,-2.62406 7.375,-4.39538 2.3584,-1.86734 4.45998,-4.07587 6.25,-6.47097 2.13322,-2.85433 3.81684,-6.03427 5.25,-9.27913 1.29969,-2.94267 2.41875,-6.00291 3,-9.15704 0.63548,-3.44839 0.9214,-6.935506 0.875,-10.439019 -0.0373,-2.815285 -0.47291,-5.717468 -1,-8.485521 -0.54951,-2.885844 -1.47372,-5.71308 -2.625,-8.424472 -1.04976,-2.472295 -2.38261,-4.836733 -3.875,-7.081442 -1.55243,-2.335016 -3.29529,-4.566663 -5.25,-6.593066 -1.55901,-1.61619 -3.30944,-3.058916 -5.125,-4.395377 -2.49483,-1.836484 -5.22738,-3.335717 -8.03125,-4.517471 -1.24335,-0.524038 -2.82523,-0.938395 -4.47852,-1.306786 C 121.21195,54.158638 119.375,54.1245 119.375,54.1245 l -14.78125,-0.0039 c -0.0145,-1.04e-4 -0.0285,-0.0019 -0.043,-0.0019 l -13.244139,0 z"
       id="path4195" />
  </g>
  <g
     style="display:inline"
     inkscape:groupmode="layer"
     id="layer4"
     inkscape:label="circle 1">
    <circle
       transform="matrix(3.6455219,0,0,3.6455219,-443.53724,-160.86308)"
       inkscape:export-ydpi="90"
       inkscape:export-xdpi="90"
       inkscape:export-filename="C:\Users\Simon\Documents\Material Design Icon Pack\PNG\g12049.png"
       r="24"
       cy="70.459892"
       cx="148"
       id="circle10368"
       style="display:inline;opacity:0.1;fill:url(#radialGradient10385);fill-opacity:1;stroke:url(#radialGradient10377);stroke-width:0.27840909;stroke-linejoin:round;stroke-miterlimit:4;stroke-dasharray:none;stroke-opacity:1" />
  </g>
</svg>
