<?xml version="1.0" encoding="UTF-8" standalone="no"?>
<!-- Created with Inkscape (http://www.inkscape.org/) -->

<svg
   xmlns:dc="http://purl.org/dc/elements/1.1/"
   xmlns:cc="http://creativecommons.org/ns#"
   xmlns:rdf="http://www.w3.org/1999/02/22-rdf-syntax-ns#"
   xmlns:svg="http://www.w3.org/2000/svg"
   xmlns="http://www.w3.org/2000/svg"
   xmlns:xlink="http://www.w3.org/1999/xlink"
   xmlns:sodipodi="http://sodipodi.sourceforge.net/DTD/sodipodi-0.dtd"
   xmlns:inkscape="http://www.inkscape.org/namespaces/inkscape"
   width="192"
   height="192"
   id="svg2"
   version="1.1"
   inkscape:version="0.91 r13725"
   sodipodi:docname="snapchat.svg"
   inkscape:export-filename="C:\Users\Simon\Documents\Material Design Icon Pack\PNG\snapchat.png"
   inkscape:export-xdpi="90"
   inkscape:export-ydpi="90">
  <sodipodi:namedview
     id="base"
     pagecolor="#ffffff"
     bordercolor="#666666"
     borderopacity="1.0"
     inkscape:pageopacity="0.0"
     inkscape:pageshadow="2"
     inkscape:zoom="3.75"
     inkscape:cx="72.576303"
     inkscape:cy="74.246387"
     inkscape:document-units="px"
     inkscape:current-layer="layer4"
     showgrid="true"
     showguides="true"
     inkscape:guide-bbox="true"
     inkscape:window-width="1920"
     inkscape:window-height="1017"
     inkscape:window-x="-8"
     inkscape:window-y="-8"
     inkscape:window-maximized="1"
     inkscape:snap-global="false">
    <inkscape:grid
       type="xygrid"
       id="grid2985"
       empspacing="5"
       visible="true"
       enabled="true"
       snapvisiblegridlinesonly="true" />
    <sodipodi:guide
       orientation="1,0"
       position="8,58.524064"
       id="guide3002" />
    <sodipodi:guide
       orientation="1,0"
       position="20,69.304813"
       id="guide3004" />
    <sodipodi:guide
       orientation="1,0"
       position="32,62.631016"
       id="guide3006" />
    <sodipodi:guide
       orientation="1,0"
       position="68,53.390374"
       id="guide3008" />
    <sodipodi:guide
       orientation="0,1"
       position="119.61497,8"
       id="guide3010" />
    <sodipodi:guide
       orientation="0,1"
       position="155.5508,20"
       id="guide3012" />
    <sodipodi:guide
       orientation="0,1"
       position="132.96257,32"
       id="guide3014" />
    <sodipodi:guide
       orientation="0,1"
       position="130.90909,68"
       id="guide3016" />
    <sodipodi:guide
       orientation="0,1"
       position="137.06952,184"
       id="guide3018" />
    <sodipodi:guide
       orientation="1,0"
       position="184,145.79679"
       id="guide3020" />
    <sodipodi:guide
       orientation="0,1"
       position="91.379679,172"
       id="guide3022" />
    <sodipodi:guide
       orientation="1,0"
       position="172.15693,140.10142"
       id="guide3024" />
    <sodipodi:guide
       orientation="0,1"
       position="149.39037,160"
       id="guide3026" />
    <sodipodi:guide
       orientation="1,0"
       position="160,88.299465"
       id="guide3028" />
    <sodipodi:guide
       orientation="0,1"
       position="128.34225,124"
       id="guide3030" />
    <sodipodi:guide
       orientation="1,0"
       position="124,92.919786"
       id="guide3032" />
  </sodipodi:namedview>
  <defs
     id="defs4">
    <linearGradient
       inkscape:collect="always"
       id="linearGradient9234">
      <stop
         style="stop-color:#f2c732;stop-opacity:1;"
         offset="0"
         id="stop9236" />
      <stop
         style="stop-color:#f2c732;stop-opacity:0;"
         offset="1"
         id="stop9238" />
    </linearGradient>
    <linearGradient
       inkscape:collect="always"
       id="linearGradient7772">
      <stop
         style="stop-color:#ffffff;stop-opacity:1;"
         offset="0"
         id="stop7774" />
      <stop
         style="stop-color:#ffffff;stop-opacity:0;"
         offset="1"
         id="stop7776" />
    </linearGradient>
    <linearGradient
       inkscape:collect="always"
       id="linearGradient7764">
      <stop
         style="stop-color:#ffffff;stop-opacity:1;"
         offset="0"
         id="stop7766" />
      <stop
         style="stop-color:#ffffff;stop-opacity:0;"
         offset="1"
         id="stop7768" />
    </linearGradient>
    <filter
       style="color-interpolation-filters:sRGB;"
       inkscape:label="Drop Shadow"
       id="filter7743">
      <feFlood
         flood-opacity="0.301961"
         flood-color="rgb(0,0,0)"
         result="flood"
         id="feFlood7745" />
      <feComposite
         in="flood"
         in2="SourceGraphic"
         operator="in"
         result="composite1"
         id="feComposite7747" />
      <feGaussianBlur
         in="composite1"
         stdDeviation="1.7"
         result="blur"
         id="feGaussianBlur7749" />
      <feOffset
         dx="4.57967e-015"
         dy="3"
         result="offset"
         id="feOffset7751" />
      <feComposite
         in="SourceGraphic"
         in2="offset"
         operator="over"
         result="composite2"
         id="feComposite7753" />
    </filter>
    <radialGradient
       inkscape:collect="always"
       xlink:href="#linearGradient7764"
       id="radialGradient7770"
       cx="20.009592"
       cy="20.198151"
       fx="20.009592"
       fy="20.198149"
       r="75.999997"
       gradientUnits="userSpaceOnUse"
       gradientTransform="matrix(0.00253475,1.9947837,-2.002355,0.00254437,60.402743,-19.768048)" />
    <radialGradient
       inkscape:collect="always"
       xlink:href="#linearGradient7772"
       id="radialGradient7778"
       cx="20.009592"
       cy="20.198151"
       fx="20.009592"
       fy="20.198151"
       r="75.999997"
       gradientUnits="userSpaceOnUse"
       gradientTransform="matrix(0.00253472,1.9947836,-2.0023549,0.00254435,60.40274,-19.768047)" />
    <filter
       id="filter9347"
       inkscape:label="Drop Shadow"
       style="color-interpolation-filters:sRGB;">
      <feFlood
         id="feFlood9349"
         result="flood"
         flood-color="rgb(0,0,0)"
         flood-opacity="0.101961" />
      <feComposite
         id="feComposite9351"
         result="composite1"
         operator="in"
         in2="SourceGraphic"
         in="flood" />
      <feGaussianBlur
         id="feGaussianBlur9353"
         result="blur"
         stdDeviation="3"
         in="composite1" />
      <feOffset
         id="feOffset9355"
         result="offset"
         dy="3"
         dx="4.57967e-015" />
      <feComposite
         id="feComposite9357"
         result="composite2"
         operator="over"
         in2="offset"
         in="SourceGraphic" />
    </filter>
    <clipPath
       id="clipPath6245"
       clipPathUnits="userSpaceOnUse">
      <rect
         style="fill:none;stroke:#455a64;stroke-width:1.05268884;stroke-linejoin:round;stroke-miterlimit:4;stroke-dasharray:none;stroke-opacity:1"
         id="rect6247"
         width="158.94731"
         height="158.94731"
         x="15.410013"
         y="16.685434"
         ry="11.470975" />
    </clipPath>
    <filter
       style="color-interpolation-filters:sRGB;"
       inkscape:label="Drop Shadow"
       id="filter6352">
      <feFlood
         flood-opacity="1"
         flood-color="rgb(242,199,50)"
         result="flood"
         id="feFlood6354" />
      <feComposite
         in="flood"
         in2="SourceGraphic"
         operator="in"
         result="composite1"
         id="feComposite6356" />
      <feGaussianBlur
         in="composite1"
         stdDeviation="3"
         result="blur"
         id="feGaussianBlur6358" />
      <feOffset
         dx="4.57967e-015"
         dy="3"
         result="offset"
         id="feOffset6360" />
      <feComposite
         in="SourceGraphic"
         in2="offset"
         operator="over"
         result="composite2"
         id="feComposite6362" />
    </filter>
    <filter
       style="color-interpolation-filters:sRGB;"
       inkscape:label="Drop Shadow"
       id="filter6384">
      <feFlood
         flood-opacity="0.301961"
         flood-color="rgb(0,0,0)"
         result="flood"
         id="feFlood6386" />
      <feComposite
         in="flood"
         in2="SourceGraphic"
         operator="in"
         result="composite1"
         id="feComposite6388" />
      <feGaussianBlur
         in="composite1"
         stdDeviation="1.7"
         result="blur"
         id="feGaussianBlur6390" />
      <feOffset
         dx="4.57967e-015"
         dy="3"
         result="offset"
         id="feOffset6392" />
      <feComposite
         in="SourceGraphic"
         in2="offset"
         operator="over"
         result="composite2"
         id="feComposite6394" />
    </filter>
    <filter
       style="color-interpolation-filters:sRGB;"
       inkscape:label="Drop Shadow"
       id="filter6412">
      <feFlood
         flood-opacity="0.29999999999999999"
         flood-color="rgb(0,0,0)"
         result="flood"
         id="feFlood6414" />
      <feComposite
         in="flood"
         in2="SourceGraphic"
         operator="in"
         result="composite1"
         id="feComposite6416" />
      <feGaussianBlur
         in="composite1"
         stdDeviation="3"
         result="blur"
         id="feGaussianBlur6418" />
      <feOffset
         dx="4.57967e-015"
         dy="3"
         result="offset"
         id="feOffset6420" />
      <feComposite
         in="SourceGraphic"
         in2="offset"
         operator="over"
         result="composite2"
         id="feComposite6422" />
    </filter>
    <clipPath
       clipPathUnits="userSpaceOnUse"
       id="clipPath4228">
      <g
         id="g4230">
        <rect
           ry="10.827893"
           y="20.498438"
           x="20.498438"
           height="150.03645"
           width="151.00313"
           id="rect4232"
           style="opacity:1;fill:#fff068;fill-opacity:1;stroke:#fff068;stroke-width:0.99699998;stroke-linejoin:round;stroke-miterlimit:4;stroke-dasharray:none;stroke-opacity:1" />
        <rect
           ry="10.827893"
           y="21.465105"
           x="20.498438"
           height="150.03645"
           width="151.00313"
           id="rect4234"
           style="opacity:1;fill:#ccbc2f;fill-opacity:1;stroke:#ccbc2f;stroke-width:0.99699998;stroke-linejoin:round;stroke-miterlimit:4;stroke-dasharray:none;stroke-opacity:1" />
        <rect
           style="fill:#ffeb3b;fill-opacity:1;stroke:#ffeb3b;stroke-width:0.99361873;stroke-linejoin:round;stroke-miterlimit:4;stroke-dasharray:none;stroke-opacity:1"
           id="rect4236"
           width="151.00638"
           height="149.05637"
           x="20.496813"
           y="21.46348"
           ry="10.757162" />
      </g>
    </clipPath>
    <linearGradient
       inkscape:collect="always"
       xlink:href="#linearGradient9234"
       id="linearGradient9240"
       x1="48.291603"
       y1="49.158291"
       x2="168.67706"
       y2="168.40976"
       gradientUnits="userSpaceOnUse" />
  </defs>
  <metadata
     id="metadata7">
    <rdf:RDF>
      <cc:Work
         rdf:about="">
        <dc:format>image/svg+xml</dc:format>
        <dc:type
           rdf:resource="http://purl.org/dc/dcmitype/StillImage" />
        <dc:title />
      </cc:Work>
    </rdf:RDF>
  </metadata>
  <g
     inkscape:groupmode="layer"
     id="layer6"
     inkscape:label="Square 2"
     style="display:inline">
    <rect
       ry="10.897427"
       y="20.500031"
       x="20.500031"
       height="150.99994"
       width="150.99994"
       id="rect7720"
       style="display:inline;fill:#ffeb3b;fill-opacity:1;stroke:#ccbc2f;stroke-width:1.00005436;stroke-linejoin:round;stroke-miterlimit:4;stroke-dasharray:none;stroke-opacity:1;filter:url(#filter6412)" />
  </g>
  <g
     inkscape:groupmode="layer"
     id="layer4"
     inkscape:label="Square"
     style="display:inline">
    <rect
       ry="10.827893"
       y="20.498438"
       x="20.498438"
       height="150.03645"
       width="151.00313"
       id="rect7755"
       style="opacity:1;fill:#fff068;fill-opacity:1;stroke:#fff068;stroke-width:0.99699998;stroke-linejoin:round;stroke-miterlimit:4;stroke-dasharray:none;stroke-opacity:1" />
    <rect
       ry="10.827893"
       y="21.465105"
       x="20.498438"
       height="150.03645"
       width="151.00313"
       id="rect7757"
       style="opacity:1;fill:#f2c732;fill-opacity:0;stroke:#f2c732;stroke-width:0.99699998;stroke-linejoin:round;stroke-miterlimit:4;stroke-dasharray:none;stroke-opacity:0" />
    <rect
       style="fill:#ffeb3b;fill-opacity:1;stroke:#ffeb3b;stroke-width:0.99361873;stroke-linejoin:round;stroke-miterlimit:4;stroke-dasharray:none;stroke-opacity:1"
       id="rect3811"
       width="151.00638"
       height="149.05637"
       x="20.496813"
       y="21.46348"
       ry="10.757162" />
    <flowRoot
       style="font-style:normal;font-variant:normal;font-weight:normal;font-stretch:normal;font-size:40px;line-height:125%;font-family:roboto;-inkscape-font-specification:roboto;letter-spacing:0px;word-spacing:0px;fill:#000000;fill-opacity:1;stroke:none;stroke-width:1px;stroke-linecap:butt;stroke-linejoin:miter;stroke-opacity:1"
       id="flowRoot9367"
       xml:space="preserve"><flowRegion
         id="flowRegion9369"><rect
           style="font-style:normal;font-variant:normal;font-weight:normal;font-stretch:normal;font-family:roboto;-inkscape-font-specification:roboto"
           y="31.533901"
           x="31.866945"
           height="128.4106"
           width="128.97627"
           id="rect9371" /></flowRegion><flowPara
         id="flowPara9373" /></flowRoot>    <path
       style="display:inline;opacity:1;fill:url(#linearGradient9240);fill-opacity:1"
       d="m 97.839844,49.769531 c 0,0 -1.647848,0.01758 -1.753906,0.01758 -4.027959,0 -17.676448,1.122343 -24.113282,15.550782 -2.151628,4.820009 -1.620409,13.226598 -1.197265,19.980468 0,0 0.002,0.01257 0.002,0.01367 0.06093,0.964678 0.126647,1.984541 0.179687,2.949219 -0.210989,0.19632 -1.086724,0.884766 -2.896484,0.884766 -1.454352,0 -3.143724,-0.44694 -5.023438,-1.328125 -0.346382,-0.16248 -0.754203,-0.242188 -1.216797,-0.242188 -1.664211,0 -3.721969,1.084727 -4.017578,2.640625 -0.188651,0.990944 0.379617,1.849319 1.214844,2.564453 0.165842,0.19684 0.354512,0.381947 0.5625,0.560547 0.167147,0.198829 0.356288,0.388121 0.566406,0.56836 0.166216,0.197282 0.355918,0.383539 0.564454,0.5625 0.165741,0.196603 0.352762,0.384098 0.560546,0.5625 0.165499,0.196156 0.353196,0.382516 0.560547,0.560546 0.163427,0.193701 0.348409,0.376705 0.552735,0.552735 0.165214,0.196371 0.353342,0.382312 0.560546,0.560547 0.163805,0.194148 0.349812,0.378292 0.554688,0.554687 0.162861,0.19303 0.34728,0.375299 0.550781,0.550781 0.162722,0.193136 0.347354,0.375199 0.550781,0.550782 0.1631,0.193585 0.348755,0.376784 0.552735,0.552734 0.162247,0.192033 0.34635,0.374174 0.548828,0.548828 0.160736,0.190244 0.342688,0.369779 0.542969,0.542972 0.161815,0.19179 0.344897,0.37436 0.546875,0.54882 0.160575,0.18991 0.342993,0.37007 0.542969,0.54297 0.160574,0.1899 0.342993,0.37007 0.542968,0.54297 0.15858,0.1873 0.340136,0.3644 0.53711,0.53516 0.16012,0.18978 0.341501,0.37014 0.541015,0.54297 0.158445,0.18712 0.338389,0.36455 0.535157,0.53515 -0.03302,0.0708 -0.06034,0.13933 -0.0957,0.21094 -0.0079,0.018 -0.01824,0.0383 -0.02734,0.0586 -0.180524,0.42085 -1.865475,4.24305 -5.298829,8.23828 -4.430755,5.16526 -9.657646,8.27329 -15.537109,9.24023 -0.599117,0.0993 -1.02686,0.6324 -0.994141,1.23828 0.01354,0.21325 0.06404,0.42933 0.154297,0.64258 0.176395,0.41288 0.503083,0.81117 0.962891,1.19336 0.156177,0.19181 0.344686,0.37998 0.566406,0.56445 0.156098,0.1919 0.342758,0.38185 0.564453,0.56641 0.155633,0.19114 0.341779,0.37669 0.5625,0.56055 0.155555,0.19123 0.339851,0.37855 0.560547,0.5625 0.154942,0.19029 0.341092,0.37747 0.560547,0.56054 0.1546,0.18955 0.339969,0.37621 0.558594,0.5586 0.153575,0.18829 0.335977,0.37151 0.552734,0.55273 0.154529,0.18991 0.339815,0.37587 0.558594,0.55859 0.153501,0.18788 0.336314,0.37386 0.552734,0.55469 0.153035,0.18712 0.337275,0.37065 0.552735,0.55078 0.153121,0.18731 0.335114,0.37047 0.550781,0.55078 0.153413,0.18745 0.334721,0.37231 0.550781,0.55274 0.151227,0.18396 0.331359,0.36576 0.542969,0.54297 0.151987,0.18552 0.333508,0.36822 0.546875,0.54687 0.151636,0.18478 0.332383,0.36696 0.544922,0.54492 0.150796,0.18344 0.330179,0.3643 0.541016,0.54102 0.150795,0.18344 0.330179,0.3643 0.541015,0.54102 0.150151,0.18256 0.327484,0.3612 0.537109,0.53711 0.150037,0.18251 0.327634,0.36319 0.53711,0.53906 0.149737,0.18193 0.326345,0.35983 0.535156,0.53515 0.149193,0.18123 0.325396,0.35854 0.533203,0.53321 0.149251,0.18134 0.325261,0.35842 0.533203,0.5332 0.149466,0.18133 0.325041,0.36039 0.533204,0.53516 0.14757,0.17825 0.323013,0.35349 0.527343,0.52539 0.147285,0.17834 0.319355,0.3534 0.523438,0.52539 0.147905,0.17939 0.323939,0.35438 0.529297,0.52734 0.146964,0.17769 0.320077,0.35401 0.523437,0.52539 0.146543,0.17701 0.320921,0.35074 0.523438,0.52149 0.146705,0.17734 0.318602,0.35042 0.521484,0.52148 0.146156,0.17641 0.317772,0.35129 0.519531,0.52148 0.145589,0.17549 0.316962,0.34631 0.517578,0.51563 0.145296,0.17508 0.315551,0.34863 0.515625,0.51758 0.145087,0.17466 0.316014,0.34707 0.515625,0.51562 0.143729,0.17273 0.312694,0.34301 0.509766,0.50977 0.144706,0.17432 0.314656,0.34543 0.513672,0.51367 0.144212,0.17331 0.311852,0.34442 0.509766,0.51172 0.143257,0.17183 0.311749,0.33994 0.507812,0.50586 0.143078,0.17165 0.310086,0.34205 0.505859,0.50781 0.142865,0.17124 0.310549,0.34049 0.50586,0.50586 0.14199,0.1699 0.308316,0.33783 0.501953,0.50195 0.141949,0.16986 0.308387,0.33788 0.501953,0.50196 0.142259,0.17022 0.307854,0.33753 0.501953,0.50195 0.140689,0.16778 0.305015,0.33396 0.496094,0.49609 0.141113,0.16857 0.306081,0.33517 0.498047,0.49805 0.140232,0.16723 0.303843,0.33251 0.49414,0.49414 0.139956,0.1669 0.302365,0.33282 0.492188,0.49414 0.139481,0.16618 0.303263,0.32959 0.492187,0.49024 0.139729,0.16663 0.300799,0.33111 0.490235,0.49218 0.138986,0.16544 0.300287,0.32834 0.488281,0.48828 0.138632,0.16489 0.300957,0.32689 0.488281,0.48633 0.138184,0.16424 0.297879,0.3275 0.484375,0.48633 0.137962,0.16382 0.298339,0.32594 0.484375,0.48438 0.137347,0.16303 0.295505,0.32276 0.480469,0.48046 0.137464,0.16323 0.297229,0.32454 0.482422,0.48243 0.136456,0.1617 0.293248,0.3201 0.476562,0.47656 0.136538,0.16185 0.295035,0.32191 0.478516,0.47851 0.135894,0.16083 0.292357,0.32093 0.474609,0.47657 0.135138,0.15977 0.291754,0.318 0.472657,0.47265 0.135502,0.16046 0.291011,0.31737 0.472656,0.47266 0.135168,0.15981 0.291701,0.31797 0.472656,0.47266 0.134517,0.15877 0.289027,0.31308 0.46875,0.46679 0.134386,0.15872 0.28724,0.31509 0.466797,0.46875 0.133661,0.15772 0.286574,0.31212 0.464844,0.46485 0.133704,0.15779 0.286487,0.31204 0.464843,0.46484 0.13286,0.15656 0.286066,0.31125 0.462891,0.46289 0.132425,0.15579 0.284967,0.31002 0.460938,0.46094 0.132171,0.15549 0.283434,0.3103 0.458984,0.46094 0.132718,0.15598 0.284558,0.30984 0.460937,0.46093 0.130869,0.15331 0.280061,0.3026 0.453126,0.45118 0.131258,0.15415 0.281168,0.30764 0.455078,0.45703 0.130108,0.15241 0.279356,0.30343 0.451172,0.45117 0.130468,0.15307 0.278645,0.30281 0.451171,0.45117 0.129582,0.15179 0.278265,0.30206 0.449219,0.44922 0.129604,0.15182 0.278229,0.30203 0.449219,0.44922 0.128905,0.15075 0.275592,0.30108 0.445312,0.44726 0.128425,0.15005 0.276444,0.29784 0.445313,0.44336 0.128632,0.15042 0.274091,0.2975 0.443359,0.44336 0.12798,0.14942 0.273316,0.29843 0.441407,0.44336 0.128526,0.14992 0.274449,0.29796 0.443359,0.44336 0.126342,0.14687 0.268471,0.29106 0.433594,0.4336 0.127189,0.14834 0.270768,0.29358 0.4375,0.4375 0.126287,0.14706 0.268432,0.29087 0.433593,0.43359 0.126306,0.14709 0.270358,0.29281 0.435547,0.43555 0.12533,0.14569 0.266195,0.28826 0.429688,0.42968 0.125371,0.14576 0.268074,0.29016 0.43164,0.43164 0.124659,0.14469 0.265429,0.28922 0.427735,0.42969 0.12419,0.14402 0.266241,0.28594 0.427734,0.42578 0.123704,0.14335 0.263162,0.28657 0.423828,0.42578 0.123869,0.14363 0.262857,0.28436 0.423828,0.42383 0.122964,0.14236 0.262452,0.2836 0.421875,0.42188 0.122964,0.14235 0.262452,0.2836 0.421875,0.42187 0.122516,0.14161 0.259369,0.28041 0.417969,0.41797 0.122006,0.14102 0.258223,0.27901 0.416016,0.41602 0.121507,0.14044 0.259014,0.27955 0.416015,0.41601 0.121059,0.13969 0.257877,0.2783 0.414063,0.41406 0.122078,0.14087 0.258218,0.2811 0.416015,0.41797 0.118572,0.13623 0.250341,0.26986 0.402344,0.40235 0.120166,0.13887 0.255281,0.27516 0.410156,0.41015 0.120236,0.13873 0.255275,0.27531 0.410157,0.41016 0.119326,0.13733 0.252957,0.27077 0.40625,0.4043 0.118872,0.13672 0.251756,0.27329 0.404297,0.40625 0.118595,0.13627 0.250297,0.26982 0.402343,0.40234 0.117659,0.13498 0.249902,0.26908 0.400391,0.40039 0.117372,0.13465 0.248395,0.2694 0.398438,0.40039 0.115574,0.13247 0.24733,0.2656 0.394531,0.39453 0.117566,0.13509 0.249951,0.26704 0.40039,0.39844 0.117208,0.13424 0.246795,0.26783 0.396477,0.39844 0.11501,0.13118 0.24458,0.26097 0.39063,0.38867 0.11492,0.13141 0.24457,0.26465 0.39062,0.39258 0.11467,0.131 0.24307,0.26114 0.38868,0.38867 0.11466,0.131 0.24306,0.26114 0.38867,0.38867 0.1142,0.13027 0.2419,0.25988 0.38672,0.38672 0.11361,0.12958 0.24086,0.25857 0.38476,0.38477 0.11375,0.12952 0.24075,0.25862 0.38477,0.38476 0.11328,0.1288 0.23959,0.25737 0.38281,0.38281 0.11052,0.12545 0.23412,0.25078 0.37305,0.37305 0.11134,0.127 0.23651,0.25321 0.37695,0.37695 0.11134,0.127 0.23652,0.25322 0.37695,0.37696 0.11074,0.1263 0.23354,0.24996 0.37305,0.37304 0.1102,0.12569 0.23435,0.25055 0.37305,0.37305 0.10962,0.12504 0.23326,0.24921 0.37109,0.37109 0.10905,0.12439 0.23218,0.24789 0.36914,0.36915 0.10848,0.12372 0.23109,0.24654 0.36719,0.36718 0.10848,0.12373 0.23109,0.24655 0.36719,0.36719 0.10814,0.12334 0.22769,0.24496 0.36328,0.36523 0.10735,0.12234 0.22892,0.24397 0.36328,0.36329 0.10678,0.12167 0.22783,0.24263 0.36133,0.36132 0.10649,0.12136 0.22826,0.241 0.36132,0.35938 0.10572,0.12038 0.22556,0.23996 0.35743,0.35742 0.10571,0.12038 0.22555,0.23997 0.35742,0.35742 0.10684,0.12167 0.22582,0.24265 0.35937,0.36133 0.10287,0.11646 0.22029,0.23198 0.34766,0.3457 0.10399,0.11842 0.22226,0.23597 0.35156,0.35157 0.10342,0.11776 0.22116,0.23464 0.34961,0.34961 0.10342,0.11776 0.22116,0.23464 0.34961,0.3496 0.10276,0.11701 0.21824,0.23147 0.3457,0.34571 0.10227,0.11646 0.21896,0.23198 0.34571,0.3457 0.10162,0.11571 0.21601,0.22879 0.34179,0.3418 0.10113,0.11515 0.21674,0.22932 0.3418,0.34179 0.10112,0.11516 0.21674,0.22932 0.3418,0.3418 0.10045,0.11438 0.21383,0.22616 0.33789,0.33789 0.0999,0.11376 0.21267,0.22479 0.33594,0.33594 0.0997,0.11352 0.21299,0.22697 0.33593,0.33789 0.0986,0.11213 0.21273,0.22244 0.33399,0.33203 0.0987,0.11243 0.21048,0.22215 0.33203,0.33203 0.0984,0.1121 0.20895,0.22247 0.33008,0.33203 0.0991,0.11274 0.21195,0.22382 0.33398,0.33399 0.0956,0.1083 0.20542,0.21633 0.32227,0.32226 0.0964,0.10972 0.20604,0.21693 0.32422,0.32422 0.096,0.10919 0.20672,0.21744 0.32421,0.32422 0.0957,0.10886 0.20714,0.2158 0.32422,0.32227 0.0949,0.10789 0.2044,0.21477 0.32032,0.32031 0.0949,0.10789 0.20439,0.21477 0.32031,0.32031 0.0942,0.10708 0.20151,0.21164 0.31641,0.31641 0.0935,0.10625 0.2006,0.21243 0.31445,0.3164 0.0938,0.10677 0.20198,0.20999 0.3164,0.31446 0.093,0.10576 0.19927,0.20899 0.3125,0.3125 0.0925,0.1051 0.19814,0.20767 0.31055,0.31054 0.0919,0.10448 0.19699,0.20633 0.3086,0.3086 0.0914,0.10397 0.19762,0.2068 0.30859,0.30859 0.091,0.10346 0.19434,0.20534 0.30469,0.30664 0.0903,0.10258 0.19537,0.20424 0.30468,0.30469 0.0897,0.10192 0.19424,0.20291 0.30274,0.30274 0.0892,0.10126 0.1931,0.20158 0.30078,0.30078 0.0892,0.10126 0.1931,0.20158 0.30078,0.30078 0.0884,0.10042 0.19023,0.19848 0.29688,0.29687 0.088,0.1 0.19082,0.19893 0.29687,0.29688 0.0879,0.0998 0.18906,0.19712 0.29492,0.29492 0.0873,0.0991 0.18794,0.19581 0.29297,0.29297 0.0867,0.0985 0.1868,0.19449 0.29102,0.29101 0.0876,0.0996 0.18936,0.19736 0.29492,0.29493 0.0842,0.0951 0.18264,0.18987 0.2832,0.2832 0.0832,0.0945 0.1799,0.18654 0.2793,0.2793 0.0868,0.0992 0.18839,0.19576 0.29297,0.29296 0.0838,0.095 0.18313,0.18808 0.2832,0.28125 0.0838,0.0951 0.18116,0.18996 0.28125,0.28321 0.0835,0.0948 0.18149,0.18626 0.28125,0.27929 0.0829,0.0941 0.1804,0.18699 0.2793,0.2793 0.0824,0.0935 0.17716,0.18557 0.27539,0.27735 0.0817,0.0927 0.17811,0.18442 0.27539,0.27539 0.0812,0.092 0.17696,0.18309 0.27344,0.27343 0.0806,0.0914 0.17579,0.18178 0.27148,0.27149 0.0806,0.0914 0.1758,0.18177 0.27149,0.27148 0.0798,0.0905 0.17293,0.17871 0.26757,0.26758 0.0794,0.0901 0.17347,0.17913 0.26758,0.26758 0.0789,0.0894 0.17231,0.1778 0.26563,0.26562 0.0783,0.0888 0.17113,0.17648 0.26367,0.26367 0.0777,0.0881 0.16997,0.17516 0.26172,0.26172 0.0777,0.0881 0.16997,0.17516 0.26172,0.26172 0.0769,0.0872 0.16712,0.17211 0.25781,0.25782 0.0766,0.0868 0.16763,0.17251 0.25781,0.25781 0.076,0.0862 0.16645,0.17118 0.25586,0.25586 0.077,0.0874 0.16698,0.17393 0.25781,0.25976 0.0735,0.083 0.1621,0.16449 0.24805,0.2461 0.0748,0.0849 0.1641,0.16854 0.25195,0.25195 0.0743,0.0843 0.1609,0.16716 0.24805,0.25 0.0737,0.0835 0.16178,0.16598 0.24805,0.24805 0.0734,0.0831 0.16216,0.16434 0.24804,0.24609 0.0739,0.0837 0.16146,0.16577 0.24805,0.24805 0.0709,0.0801 0.15574,0.1595 0.23828,0.23828 0.0717,0.0812 0.1566,0.16232 0.24024,0.24219 0.0714,0.0809 0.15696,0.15867 0.24023,0.23828 0.0709,0.0802 0.1558,0.15936 0.23828,0.23828 0.0703,0.0796 0.15461,0.15804 0.23633,0.23633 0.0697,0.0789 0.15342,0.15672 0.23437,0.23437 0.0691,0.0783 0.15223,0.1554 0.23243,0.23242 0.0691,0.0783 0.15222,0.1554 0.23242,0.23242 0.0683,0.0773 0.1494,0.1524 0.22851,0.22852 0.068,0.077 0.14985,0.15276 0.22852,0.22852 0.0674,0.0763 0.14865,0.15143 0.22656,0.22656 0.0668,0.0756 0.14745,0.15012 0.22461,0.22461 0.0645,0.073 0.14265,0.14484 0.2168,0.21679 0.0688,0.0784 0.15051,0.15527 0.23047,0.23243 0.0648,0.0732 0.14423,0.14467 0.21875,0.21679 0.0651,0.0737 0.14188,0.14615 0.21679,0.21875 0.0645,0.0729 0.14269,0.14493 0.2168,0.2168 0.0639,0.0723 0.14148,0.1436 0.21484,0.21484 0.0639,0.0723 0.14148,0.14361 0.21485,0.21485 0.0631,0.0713 0.13867,0.14063 0.21094,0.21094 0.0627,0.071 0.13906,0.14096 0.21093,0.21093 0.0635,0.0718 0.14007,0.14211 0.21289,0.21289 0.0594,0.0669 0.13175,0.13124 0.19922,0.19727 0.0627,0.0712 0.13711,0.14074 0.20899,0.21094 0.061,0.069 0.13542,0.13504 0.20508,0.20312 0.0605,0.0684 0.13416,0.13568 0.20312,0.20313 0.0596,0.0674 0.13138,0.13274 0.19922,0.19922 0.0593,0.0671 0.13173,0.13304 0.19922,0.19921 0.0588,0.0664 0.13051,0.13173 0.19726,0.19727 0.0582,0.0658 0.1293,0.13041 0.19532,0.19531 0.0559,0.0632 0.1244,0.12514 0.1875,0.1875 0.0602,0.0685 0.13243,0.13557 0.20117,0.20313 0.0562,0.0633 0.12602,0.12497 0.18945,0.1875 0.0547,0.0618 0.12003,0.12254 0.18164,0.18359 0.0571,0.0648 0.12674,0.12744 0.19141,0.19141 0.0577,0.0653 0.12792,0.12888 0.19336,0.19336 0.0538,0.0606 0.11917,0.1198 0.17968,0.17968 0.0524,0.0592 0.11707,0.11733 0.17579,0.17579 0.0571,0.0648 0.12674,0.12743 0.1914,0.1914 0.0524,0.059 0.11705,0.11747 0.17578,0.17578 0.053,0.0598 0.1183,0.11864 0.17774,0.17774 0.0524,0.0592 0.11706,0.11732 0.17578,0.17578 0.0524,0.0592 0.11706,0.11732 0.17578,0.17578 0.0515,0.0581 0.11429,0.11443 0.17188,0.17187 0.0512,0.0579 0.11458,0.1147 0.17187,0.17188 0.0509,0.0575 0.11305,0.11311 0.16992,0.16992 0.0503,0.0568 0.11182,0.11181 0.16797,0.16797 0.05,0.0565 0.11216,0.11016 0.16797,0.16602 0.0492,0.0555 0.10927,0.10915 0.16406,0.16406 0.049,0.0553 0.10957,0.10942 0.16406,0.16406 0.0483,0.0545 0.10645,0.10817 0.16016,0.16211 0.0478,0.0539 0.10713,0.10687 0.16016,0.16016 0.0472,0.0532 0.10588,0.10556 0.1582,0.1582 0.0472,0.0532 0.10588,0.10556 0.1582,0.1582 0.0463,0.0522 0.10312,0.1027 0.1543,0.1543 0.0462,0.052 0.10324,0.1028 0.1543,0.1543 0.002,0.003 0.004,0.005 0.006,0.008 0.0468,0.0469 0.0917,0.0941 0.14257,0.14062 0.0455,0.0513 0.10213,0.10155 0.15235,0.15235 0.0443,0.0499 0.0996,0.099 0.14844,0.14844 0.0437,0.0493 0.0984,0.0977 0.14648,0.14648 0.0437,0.0493 0.0984,0.0977 0.14648,0.14648 0.0428,0.0482 0.0956,0.0948 0.14258,0.14258 0.0426,0.048 0.0958,0.095 0.14258,0.14258 0.042,0.0473 0.0946,0.0937 0.14063,0.14063 0.0427,0.0481 0.0957,0.0949 0.14257,0.14257 0.002,0.002 0.002,0.004 0.004,0.006 0.0419,0.0425 0.0837,0.0849 0.12891,0.12696 0.0408,0.046 0.0921,0.0911 0.13671,0.13672 0.0399,0.0449 0.0893,0.0883 0.13282,0.13281 0.04,0.0451 0.0911,0.0882 0.13476,0.13281 0.0401,0.0452 0.089,0.09 0.13282,0.13477 0.002,0.002 0.002,0.004 0.004,0.006 0.0392,0.0399 0.079,0.0796 0.1211,0.11915 0.0392,0.0442 0.0881,0.0871 0.13086,0.13085 0.002,0.002 0.002,0.004 0.004,0.006 0.0391,0.0399 0.0791,0.0796 0.1211,0.11914 0.0369,0.0416 0.083,0.0818 0.12304,0.12305 0.0368,0.0414 0.0832,0.082 0.12305,0.12305 0.0369,0.0415 0.0831,0.0819 0.12305,0.12305 0.002,0.002 0.002,0.004 0.004,0.006 0.0364,0.0373 0.0743,0.0743 0.11328,0.11133 0.0357,0.0402 0.0805,0.0793 0.11914,0.11914 0.0344,0.0387 0.0781,0.0768 0.11524,0.11524 0.0326,0.0367 0.0744,0.071 0.10937,0.10742 0.0348,0.0393 0.0777,0.0782 0.11524,0.11719 0.0333,0.0375 0.0755,0.0741 0.11133,0.11133 0.034,0.0383 0.0767,0.0753 0.11328,0.11328 0.0315,0.0354 0.0717,0.0703 0.10547,0.10547 0.031,0.0349 0.0703,0.0689 0.10351,0.10351 0.0317,0.0358 0.0714,0.0699 0.10547,0.10547 0.031,0.0349 0.0703,0.0688 0.10352,0.10352 0.0304,0.0343 0.069,0.0675 0.10156,0.10156 0.0298,0.0336 0.0677,0.0662 0.0996,0.0996 0.0298,0.0336 0.0677,0.0662 0.0996,0.0996 0.0292,0.0329 0.0665,0.065 0.0976,0.0976 0.0273,0.0307 0.0609,0.0613 0.0899,0.0918 0.0563,0.0635 0.12587,0.12476 0.18945,0.1875 0.0269,0.0303 0.0613,0.0597 0.0898,0.0898 0.0269,0.0303 0.0613,0.0597 0.0898,0.0898 0.0259,0.0291 0.0585,0.057 0.0859,0.0859 0.0258,0.029 0.0587,0.0571 0.0859,0.0859 0.0253,0.0285 0.0572,0.0557 0.084,0.084 0.0247,0.0278 0.0559,0.0544 0.082,0.082 0.0241,0.0271 0.0546,0.0531 0.0801,0.0801 0.0238,0.0268 0.053,0.0534 0.0781,0.0801 0.0211,0.0237 0.0482,0.0467 0.0703,0.0703 0.0264,0.0299 0.0598,0.0582 0.0879,0.0879 0.0207,0.0232 0.0487,0.0453 0.0703,0.0684 0.0217,0.0243 0.0495,0.048 0.0723,0.0723 0.0211,0.0237 0.0482,0.0467 0.0703,0.0703 0.0205,0.023 0.0469,0.0454 0.0684,0.0684 0.0205,0.0231 0.0469,0.0454 0.0684,0.0684 0.0199,0.0224 0.0456,0.0441 0.0664,0.0664 0.0188,0.0212 0.0428,0.0414 0.0625,0.0625 0.0188,0.0211 0.0429,0.0415 0.0625,0.0625 0.0188,0.0211 0.0429,0.0415 0.0625,0.0625 0.018,0.0202 0.0399,0.0404 0.0586,0.0606 0.001,0.001 0.003,0.002 0.004,0.004 0.0162,0.0173 0.036,0.0335 0.0527,0.0508 0.017,0.0191 0.039,0.0376 0.0566,0.0566 0.0164,0.0185 0.0376,0.0363 0.0547,0.0547 0.0159,0.0178 0.0363,0.035 0.0527,0.0527 0.0156,0.0175 0.0346,0.0353 0.0508,0.0527 0.0129,0.0145 0.0297,0.0285 0.043,0.043 0.0305,0.0344 0.0689,0.0674 0.10156,0.10156 0.001,0.001 0.003,0.002 0.004,0.004 0.0121,0.0127 0.0286,0.0264 0.041,0.0391 0.0136,0.0153 0.0309,0.0297 0.0449,0.0449 0.0124,0.0139 0.0283,0.0272 0.041,0.041 0.0118,0.0133 0.0269,0.0258 0.0391,0.0391 0.0118,0.0132 0.027,0.0259 0.0391,0.0391 10e-4,0.001 9.6e-4,0.003 0.002,0.004 0.01,0.0107 0.0231,0.0205 0.0332,0.0312 0.0106,0.0119 0.0243,0.0233 0.0352,0.0352 0.01,0.0112 0.023,0.022 0.0332,0.0332 0.008,0.009 0.0173,0.0184 0.0254,0.0273 0.0194,0.0219 0.0442,0.0426 0.0644,0.0645 0,0 0.002,0.002 0.002,0.002 0.007,0.008 0.016,0.0156 0.0234,0.0234 0.001,0.001 0.003,0.002 0.004,0.004 0.006,0.006 0.0155,0.0134 0.0215,0.0195 0.002,0.002 0.002,0.004 0.004,0.006 0.007,0.007 0.0149,0.0143 0.0215,0.0215 0,0 0.002,0.002 0.002,0.002 0.006,0.006 0.0134,0.013 0.0195,0.0195 0,0 0.002,0.002 0.002,0.002 0.006,0.006 0.0137,0.0114 0.0195,0.0176 0.001,0.001 9.6e-4,0.003 0.002,0.004 0.004,0.005 0.009,0.009 0.0137,0.0137 0.001,0.001 0.003,0.002 0.004,0.004 0.003,0.004 0.0102,0.008 0.0137,0.0117 0.002,0.002 0.002,0.004 0.004,0.006 0.004,0.004 0.008,0.008 0.0117,0.0117 0.001,0.001 0.003,0.002 0.004,0.004 0.002,0.002 0.004,0.002 0.006,0.004 0,0 0.002,0.002 0.002,0.002 0.006,0.006 0.0118,0.0131 0.0176,0.0195 0.006,0.007 0.0156,0.015 0.0215,0.0215 0.004,0.004 0.008,0.008 0.0117,0.0117 10e-4,0.001 0.003,0.002 0.004,0.004 6.4e-4,7.2e-4 0.001,0.001 0.002,0.002 0.006,0.007 0.0136,0.013 0.0195,0.0195 0.0125,0.0133 0.0282,0.0258 0.041,0.0391 0.0194,0.0208 0.0423,0.0418 0.0625,0.0625 0.005,0.005 0.0104,0.0105 0.0156,0.0156 0.0549,0.0532 0.10396,0.10947 0.16407,0.16211 0.0184,0.0166 0.0318,0.0342 0.0508,0.0508 0.004,0.003 0.006,0.007 0.01,0.01 0.001,9.6e-4 0.003,0.001 0.004,0.002 0.0303,0.0265 0.068,0.0518 0.0996,0.0781 0.39222,0.3272 0.88016,0.64268 1.47461,0.94531 8.7e-4,4.4e-4 0.001,0.002 0.002,0.002 0.42845,0.21788 0.90834,0.42854 1.43945,0.63282 8.7e-4,3.3e-4 0.001,0.002 0.002,0.002 0.5314,0.20431 1.11381,0.39987 1.74609,0.58984 0.7256,0.21808 1.53472,0.42489 2.39063,0.62305 0.0231,0.022 0.0463,0.0449 0.0703,0.0644 0.0482,0.055 0.0977,0.1075 0.15039,0.15039 0.0466,0.0529 0.0938,0.10486 0.14453,0.14649 0.0474,0.054 0.0967,0.10415 0.14844,0.14648 0.0486,0.0551 0.0973,0.10746 0.15039,0.15039 0.0454,0.0506 0.0913,0.10051 0.14062,0.14063 0.046,0.0515 0.0926,0.10187 0.14258,0.14258 0.0448,0.05 0.0901,0.0989 0.13867,0.13867 0.0448,0.05 0.0901,0.0989 0.13868,0.13867 0.0438,0.0486 0.0874,0.0978 0.13476,0.13672 0.0457,0.0508 0.091,0.10042 0.14063,0.14062 0.0422,0.0462 0.0854,0.0917 0.13085,0.12891 0.0421,0.0463 0.0836,0.0935 0.12891,0.13086 0.0446,0.0491 0.0885,0.0976 0.13672,0.13672 0.0407,0.0442 0.0812,0.0891 0.125,0.125 0.0405,0.0442 0.0814,0.0891 0.125,0.125 0.0428,0.0467 0.0847,0.0933 0.13086,0.13086 0.0395,0.0425 0.0788,0.0864 0.12109,0.12109 0.0388,0.0419 0.0776,0.0848 0.11914,0.11914 0.0416,0.0451 0.0822,0.0905 0.12696,0.12695 0.0377,0.0402 0.0749,0.082 0.11523,0.11524 0.0376,0.0402 0.0751,0.082 0.11524,0.11523 0.0405,0.0435 0.0796,0.0877 0.12304,0.12305 0.0359,0.0378 0.0712,0.0779 0.10938,0.10938 0.0371,0.0394 0.0737,0.0806 0.11328,0.11328 0.0366,0.0387 0.0724,0.0792 0.11133,0.11132 0.0359,0.0378 0.0711,0.0779 0.10937,0.10938 0.0343,0.0359 0.0672,0.0753 0.10352,0.10547 0.0361,0.038 0.071,0.0777 0.10937,0.10937 0.0339,0.0353 0.0676,0.0718 0.10352,0.10157 0.0341,0.0355 0.0674,0.0736 0.10351,0.10351 0.0335,0.0348 0.0661,0.0722 0.10157,0.10156 0.0311,0.0322 0.0609,0.0682 0.0937,0.0957 0.0354,0.037 0.0698,0.0765 0.10742,0.10742 0.0286,0.0292 0.0559,0.0626 0.0859,0.0879 0.0339,0.0351 0.0676,0.072 0.10351,0.10156 0.0299,0.0304 0.0584,0.0637 0.0898,0.0899 0.0286,0.0292 0.0559,0.0626 0.0859,0.0879 0.032,0.0329 0.0639,0.0677 0.0977,0.0957 0.0301,0.0304 0.0582,0.0638 0.0898,0.0898 0.0266,0.0266 0.0523,0.0568 0.0801,0.0801 0.0296,0.03 0.0568,0.064 0.0879,0.0898 0.0281,0.0282 0.0546,0.0596 0.084,0.084 0.0272,0.0271 0.0536,0.0564 0.082,0.0801 0.0283,0.0282 0.0544,0.0596 0.084,0.084 0.0231,0.0227 0.0444,0.0501 0.0684,0.0703 0.0284,0.0284 0.0562,0.0594 0.0859,0.084 0.0242,0.0237 0.0471,0.0513 0.0723,0.0723 0.0242,0.0238 0.0471,0.0512 0.0723,0.0723 0.0242,0.0238 0.0471,0.0512 0.0723,0.0723 0.0217,0.0213 0.0419,0.0473 0.0645,0.0664 0.0265,0.0263 0.0523,0.0552 0.0801,0.0781 0.02,0.0193 0.038,0.0431 0.0586,0.0605 0.023,0.0225 0.0445,0.0483 0.0684,0.0684 0.0213,0.0206 0.0405,0.046 0.0625,0.0645 0.0214,0.0206 0.0423,0.044 0.0644,0.0625 0.0216,0.0208 0.0421,0.0439 0.0645,0.0625 0.017,0.0162 0.0314,0.0379 0.0488,0.0527 0.0225,0.0217 0.0451,0.0451 0.0684,0.0645 0.0172,0.0162 0.0331,0.0359 0.0508,0.0508 0.0185,0.0176 0.0356,0.0386 0.0547,0.0547 0.0175,0.0166 0.0328,0.0376 0.0508,0.0527 0.0157,0.0149 0.0307,0.0331 0.0469,0.0469 0.0199,0.0189 0.0381,0.0415 0.0586,0.0586 0.0132,0.0123 0.0256,0.0276 0.0391,0.0391 0.0169,0.0159 0.0315,0.0361 0.0488,0.0508 0.0153,0.0143 0.0293,0.0317 0.0449,0.0449 0.0147,0.0136 0.028,0.0303 0.043,0.043 0.0151,0.014 0.0294,0.03 0.0449,0.043 0.0102,0.009 0.0209,0.0243 0.0313,0.0332 0.014,0.013 0.0267,0.0289 0.041,0.041 0.0144,0.0133 0.0282,0.0286 0.043,0.041 0.01,0.009 0.0191,0.0207 0.0293,0.0293 0.01,0.009 0.0176,0.021 0.0273,0.0293 0.014,0.0129 0.0267,0.029 0.041,0.041 0.007,0.007 0.0142,0.0152 0.0215,0.0215 0.0125,0.0114 0.0244,0.0245 0.0371,0.0351 0.008,0.007 0.0137,0.0168 0.0215,0.0234 0.008,0.008 0.0169,0.0162 0.0254,0.0234 0.007,0.006 0.0125,0.0155 0.0195,0.0215 0,0 0.002,0 0.002,0 0,0 0.002,0.002 0.002,0.002 0.006,0.006 0.0112,0.0141 0.0176,0.0195 0.009,0.009 0.0177,0.0192 0.0273,0.0273 0.005,0.004 0.0105,0.009 0.0156,0.0137 0,0 0.002,0.002 0.002,0.002 0.004,0.004 0.009,0.0119 0.0137,0.0156 0.005,0.004 0.011,0.0116 0.0156,0.0156 0.004,0.003 0.01,0.0102 0.0137,0.0137 0.003,0.003 0.006,0.007 0.01,0.01 0.004,0.003 0.006,0.009 0.01,0.0117 0,0 0.002,0 0.002,0 0.005,0.005 0.0103,0.011 0.0156,0.0156 0.004,0.003 0.006,0.007 0.01,0.01 6.6e-4,5.8e-4 0.001,0.001 0.002,0.002 0.006,0.005 0.012,0.007 0.0176,0.0117 0.0595,0.0493 0.12168,0.0933 0.18554,0.12891 0.28703,0.16003 0.60968,0.19336 0.90235,0.19336 0.55512,0 1.2728,-0.14139 2.10547,-0.30273 1.35281,-0.26514 3.21012,-0.62891 5.55468,-0.62891 1.30204,0 2.64884,0.11337 4.00391,0.33789 0.68823,0.11428 1.35176,0.30335 1.99805,0.55078 0.001,5.2e-4 0.003,0.001 0.004,0.002 0.3224,0.1237 0.6419,0.26175 0.95703,0.41211 7.8e-4,3.7e-4 10e-4,0.002 0.002,0.002 0.31565,0.15067 0.62896,0.31321 0.93945,0.48632 7.7e-4,4.4e-4 0.001,0.002 0.002,0.002 0.62099,0.34623 1.23462,0.73248 1.84766,1.14258 0.002,0.001 0.002,0.003 0.004,0.004 0.6116,0.40947 1.22505,0.84083 1.8457,1.2793 7.5e-4,5.3e-4 0.001,0.001 0.002,0.002 7.5e-4,5.3e-4 0.001,0.001 0.002,0.002 0.001,8.4e-4 0.003,0.001 0.004,0.002 0.13403,0.0948 0.27466,0.19154 0.41016,0.28711 0.30379,0.21428 0.60545,0.42916 0.91797,0.64453 7.5e-4,5.2e-4 0.001,0.001 0.002,0.002 0.45134,0.31101 0.91424,0.62079 1.38867,0.92383 0.002,9.8e-4 0.002,0.003 0.004,0.004 0.9514,0.60749 1.95415,1.18504 3.0332,1.6875 8.1e-4,3.7e-4 0.001,0.002 0.002,0.002 0.53929,0.25095 1.09788,0.481 1.67774,0.6875 0.28978,0.10324 0.58572,0.20115 0.88672,0.29102 0.001,4.1e-4 0.003,0.002 0.004,0.002 1.508,0.44983 3.15988,0.72265 5.00391,0.72265 0.16924,0 0.33445,-0.004 0.49805,-0.0176 0.20309,0.008 0.47214,0.0176 0.75195,0.0176 5.90314,10e-6 9.85038,-2.78863 13.33789,-5.2539 2.49237,-1.76013 4.84518,-3.42472 7.60156,-3.88281 1.35508,-0.22452 2.70186,-0.33789 4.00391,-0.33789 2.23286,0 3.98977,0.28211 5.55469,0.58789 0.89473,0.17377 1.60338,0.26757 2.10547,0.26757 l 0.11718,0 c 0.76948,0 1.24738,-0.36201 1.46289,-1.09765 0.2313,-0.7819 0.39942,-1.52697 0.56641,-2.28516 0.40054,-1.84023 0.69252,-2.96424 1.38867,-3.07031 7.40377,-1.14409 11.77801,-2.8263 12.64453,-4.85156 0.0902,-0.21325 0.14265,-0.43099 0.15625,-0.64649 0.008,-0.15298 -0.013,-0.30163 -0.0586,-0.43945 -0.0455,-0.13748 -0.11536,-0.26398 -0.20508,-0.375 -0.001,-0.001 -0.003,-0.002 -0.004,-0.004 0,0 -0.002,-0.002 -0.002,-0.002 -0.001,-0.001 -0.003,-0.002 -0.004,-0.004 -9e-4,-0.001 -0.003,-8.7e-4 -0.004,-0.002 0,0 0,-0.002 0,-0.002 -0.003,-0.004 -0.008,-0.007 -0.0117,-0.0117 -0.001,-0.002 -0.004,-0.002 -0.006,-0.004 0,0 0,-0.002 0,-0.002 -0.005,-0.006 -0.0106,-0.0115 -0.0156,-0.0176 -0.004,-0.005 -0.0112,-0.008 -0.0156,-0.0137 0,0 -0.002,-0.002 -0.002,-0.002 -0.002,-0.003 -0.006,-0.003 -0.008,-0.006 -0.007,-0.008 -0.0146,-0.0152 -0.0215,-0.0234 -0.005,-0.006 -0.0126,-0.01 -0.0176,-0.0156 -0.006,-0.007 -0.0135,-0.0124 -0.0195,-0.0195 -0.006,-0.007 -0.0139,-0.0108 -0.0195,-0.0176 -0.008,-0.01 -0.0156,-0.018 -0.0234,-0.0273 -0.007,-0.009 -0.0176,-0.0162 -0.0254,-0.0254 -0.009,-0.0116 -0.0216,-0.02 -0.0312,-0.0312 -0.007,-0.009 -0.0182,-0.013 -0.0254,-0.0215 -0.009,-0.011 -0.0202,-0.0186 -0.0293,-0.0293 -0.009,-0.0117 -0.0215,-0.0199 -0.0313,-0.0312 -0.01,-0.0124 -0.0229,-0.0212 -0.0332,-0.0332 -0.0104,-0.0131 -0.0242,-0.0225 -0.0351,-0.0352 -0.0104,-0.0131 -0.0242,-0.0225 -0.0352,-0.0352 -0.0104,-0.0132 -0.0243,-0.0224 -0.0352,-0.0352 -0.0135,-0.0172 -0.0306,-0.0304 -0.0449,-0.0469 -0.0112,-0.0142 -0.0272,-0.0235 -0.0391,-0.0371 -0.0127,-0.0161 -0.0295,-0.0276 -0.043,-0.043 -0.0129,-0.0165 -0.0311,-0.0272 -0.0449,-0.043 -0.013,-0.0165 -0.0291,-0.0291 -0.043,-0.0449 -0.0155,-0.0198 -0.0361,-0.034 -0.0527,-0.0527 -0.013,-0.0165 -0.0311,-0.0272 -0.0449,-0.043 -0.0152,-0.0195 -0.0344,-0.0342 -0.0508,-0.0527 -0.0154,-0.0198 -0.0361,-0.034 -0.0527,-0.0527 -0.016,-0.0205 -0.0374,-0.0353 -0.0547,-0.0547 -0.0171,-0.022 -0.04,-0.0379 -0.0586,-0.0586 -0.0152,-0.0194 -0.0363,-0.0324 -0.0527,-0.0508 -0.0188,-0.0243 -0.0438,-0.0417 -0.0644,-0.0645 -0.017,-0.0217 -0.0401,-0.0362 -0.0586,-0.0566 -0.0183,-0.0236 -0.0425,-0.0404 -0.0625,-0.0625 -0.0189,-0.0243 -0.0437,-0.0417 -0.0645,-0.0645 -0.0184,-0.0236 -0.0424,-0.0403 -0.0625,-0.0625 -0.0208,-0.0269 -0.0473,-0.0472 -0.0703,-0.0723 -0.0189,-0.0242 -0.0438,-0.0418 -0.0645,-0.0645 -0.021,-0.0272 -0.049,-0.047 -0.0723,-0.0723 -0.0211,-0.0272 -0.0489,-0.047 -0.0723,-0.0723 -0.0214,-0.0276 -0.0505,-0.0466 -0.0742,-0.0723 -0.0228,-0.0295 -0.0527,-0.0509 -0.0781,-0.0781 -0.0212,-0.0272 -0.0488,-0.0469 -0.0723,-0.0723 -0.0241,-0.0313 -0.0549,-0.0552 -0.082,-0.084 -0.0228,-0.0294 -0.0546,-0.049 -0.0801,-0.0762 -0.0237,-0.0307 -0.0535,-0.0538 -0.0801,-0.082 -0.0242,-0.0313 -0.0568,-0.0532 -0.084,-0.082 -0.0242,-0.0314 -0.0549,-0.0551 -0.082,-0.084 -0.0266,-0.0347 -0.0616,-0.0602 -0.0918,-0.0918 -0.0248,-0.032 -0.058,-0.0546 -0.0859,-0.084 -0.0258,-0.0336 -0.0606,-0.0572 -0.0899,-0.0879 -0.0269,-0.0351 -0.0612,-0.0618 -0.0918,-0.0937 -0.0269,-0.035 -0.0632,-0.06 -0.0937,-0.0918 -0.0276,-0.036 -0.0623,-0.0631 -0.0937,-0.0957 -0.028,-0.0366 -0.0656,-0.0626 -0.0977,-0.0957 -0.0275,-0.0359 -0.0624,-0.0632 -0.0937,-0.0957 -0.0293,-0.0385 -0.0678,-0.0669 -0.10156,-0.10156 -0.0294,-0.0385 -0.0677,-0.0669 -0.10156,-0.10156 -0.0305,-0.0399 -0.0702,-0.0696 -0.10547,-0.10547 -0.0295,-0.0383 -0.0696,-0.0651 -0.10352,-0.0996 -0.0309,-0.0405 -0.0697,-0.0711 -0.10547,-0.10742 -0.0299,-0.0392 -0.0689,-0.0683 -0.10351,-0.10352 -0.0331,-0.0438 -0.0764,-0.0763 -0.11524,-0.11523 -0.0311,-0.0408 -0.0713,-0.071 -0.10742,-0.10742 -0.0326,-0.0431 -0.0751,-0.075 -0.11328,-0.11328 -0.0337,-0.0445 -0.0775,-0.0778 -0.11719,-0.11719 -0.0323,-0.0423 -0.0737,-0.0737 -0.11133,-0.11133 -0.0342,-0.0453 -0.0789,-0.0791 -0.11914,-0.11914 -0.0349,-0.046 -0.0799,-0.0806 -0.12109,-0.12109 -0.0335,-0.0441 -0.0778,-0.0762 -0.11719,-0.11524 -0.0356,-0.0473 -0.0809,-0.0834 -0.12304,-0.125 -0.0364,-0.0482 -0.0837,-0.0847 -0.12696,-0.12695 -0.0352,-0.0464 -0.0814,-0.0803 -0.12304,-0.12109 -0.0375,-0.0499 -0.086,-0.0874 -0.13086,-0.13086 -0.0366,-0.0483 -0.0834,-0.0847 -0.12696,-0.12696 -0.0376,-0.0498 -0.0859,-0.0874 -0.13086,-0.13086 -0.037,-0.0491 -0.0847,-0.086 -0.1289,-0.1289 -0.0396,-0.0529 -0.0909,-0.093 -0.13867,-0.13867 -0.0375,-0.0495 -0.0862,-0.0858 -0.13086,-0.12891 -0.0393,-0.0527 -0.0893,-0.0931 -0.13672,-0.13867 -0.0407,-0.0544 -0.0932,-0.0958 -0.14258,-0.14258 -0.039,-0.0517 -0.0898,-0.09 -0.13672,-0.13477 -0.0412,-0.0553 -0.0943,-0.0971 -0.14453,-0.14453 -0.0408,-0.0542 -0.0932,-0.096 -0.14258,-0.14258 -0.0413,-0.0552 -0.0942,-0.0972 -0.14453,-0.14453 -0.041,-0.0547 -0.0948,-0.0956 -0.14453,-0.14258 -0.043,-0.0581 -0.0976,-0.1029 -0.15039,-0.15234 -0.0429,-0.0575 -0.0979,-0.10144 -0.15039,-0.15039 -0.0435,-0.0582 -0.099,-0.10288 -0.15235,-0.15234 -0.0428,-0.0571 -0.0981,-0.0998 -0.15039,-0.14844 -0.0452,-0.061 -0.10221,-0.10871 -0.1582,-0.16016 -0.0441,-0.0589 -0.10005,-0.10437 -0.1543,-0.15429 -0.0447,-0.06 -0.10305,-0.10558 -0.1582,-0.15625 -0.0452,-0.0609 -0.10416,-0.10688 -0.16016,-0.15821 -0.0464,-0.0627 -0.10432,-0.11151 -0.16211,-0.16406 -0.0456,-0.0614 -0.1036,-0.10848 -0.16015,-0.16016 -0.0475,-0.0644 -0.10848,-0.11419 -0.16797,-0.16796 -0.047,-0.0633 -0.10744,-0.11117 -0.16602,-0.16407 -0.0478,-0.0645 -0.10812,-0.11418 -0.16797,-0.16797 -0.0483,-0.0653 -0.10925,-0.11565 -0.16992,-0.16992 -0.0478,-0.0645 -0.10812,-0.11418 -0.16797,-0.16797 -0.0499,-0.0679 -0.11259,-0.12167 -0.17578,-0.17773 -0.0487,-0.0655 -0.11082,-0.11556 -0.17187,-0.16992 -0.0491,-0.0666 -0.11202,-0.11868 -0.17383,-0.17383 -0.0506,-0.0692 -0.1154,-0.12279 -0.17969,-0.17969 -0.0505,-0.0687 -0.11372,-0.12315 -0.17773,-0.17969 -0.0517,-0.0704 -0.11769,-0.12593 -0.1836,-0.18359 -0.0507,-0.0685 -0.11549,-0.12137 -0.17968,-0.17773 -0.0528,-0.0721 -0.11989,-0.12877 -0.1875,-0.1875 -0.0523,-0.071 -0.11881,-0.1257 -0.18555,-0.1836 -0.0528,-0.0718 -0.11799,-0.12901 -0.18555,-0.1875 -0.0532,-0.0725 -0.1212,-0.12856 -0.18945,-0.1875 -0.0532,-0.0727 -0.11927,-0.13038 -0.1875,-0.18945 -0.055,-0.0756 -0.12601,-0.13443 -0.19727,-0.19531 -0.0536,-0.073 -0.1206,-0.13028 -0.18945,-0.18946 -0.055,-0.0757 -0.12407,-0.13624 -0.19531,-0.19726 -0.0553,-0.0759 -0.12561,-0.13618 -0.19727,-0.19727 -0.0561,-0.0771 -0.12821,-0.13746 -0.20117,-0.19922 -0.0562,-0.0769 -0.1282,-0.13766 -0.20117,-0.19922 -0.0559,-0.0766 -0.12476,-0.13776 -0.19727,-0.19921 -0.0578,-0.0799 -0.13124,-0.14348 -0.20703,-0.20703 -0.0576,-0.0791 -0.12978,-0.14217 -0.20508,-0.20508 -0.0579,-0.0795 -0.13124,-0.14192 -0.20703,-0.20508 -0.0587,-0.0808 -0.13189,-0.14504 -0.20898,-0.20899 -0.0587,-0.0808 -0.13193,-0.14506 -0.20899,-0.20898 -0.0595,-0.082 -0.1345,-0.1483 -0.21289,-0.21289 -0.0598,-0.0823 -0.13405,-0.14812 -0.21289,-0.21289 -0.06,-0.0827 -0.13554,-0.1479 -0.21484,-0.21289 -0.0601,-0.083 -0.13537,-0.14961 -0.21484,-0.21485 -0.061,-0.0846 -0.13772,-0.15255 -0.21875,-0.21875 -0.0609,-0.0845 -0.13597,-0.15264 -0.2168,-0.21875 -0.0627,-0.0874 -0.14262,-0.15684 -0.22656,-0.22461 -0.0619,-0.0855 -0.13833,-0.15414 -0.22071,-0.2207 -0.0619,-0.086 -0.14005,-0.15572 -0.22265,-0.22265 -0.0631,-0.0883 -0.14176,-0.16022 -0.22657,-0.22852 -0.0637,-0.0889 -0.14475,-0.15998 -0.23046,-0.22852 -0.0634,-0.088 -0.1435,-0.15858 -0.22852,-0.22656 -0.0643,-0.09 -0.14363,-0.16325 -0.23047,-0.23242 -0.0637,-0.0889 -0.14475,-0.15998 -0.23047,-0.22852 -0.0655,-0.0924 -0.14723,-0.16772 -0.23633,-0.23828 -0.0655,-0.0917 -0.14748,-0.1663 -0.23632,-0.23633 -0.0661,-0.0924 -0.14855,-0.16788 -0.23829,-0.23828 -0.0663,-0.0925 -0.15025,-0.16793 -0.24023,-0.23828 -0.0663,-0.0927 -0.14823,-0.16776 -0.23828,-0.23828 -0.0671,-0.0946 -0.1504,-0.17248 -0.24219,-0.24414 -0.0683,-0.0959 -0.15441,-0.17388 -0.24804,-0.24609 -0.0673,-0.0941 -0.15037,-0.17097 -0.24219,-0.24219 -0.069,-0.0973 -0.155,-0.17708 -0.25,-0.25 -0.0686,-0.096 -0.154,-0.17591 -0.24805,-0.24805 -0.0692,-0.0973 -0.1547,-0.17714 -0.25,-0.25 -0.0689,-0.0969 -0.15524,-0.17732 -0.25,-0.25 -0.0709,-0.10038 -0.15936,-0.18333 -0.25781,-0.25781 -0.0698,-0.098 -0.15578,-0.17878 -0.25195,-0.25195 -0.0709,-0.10039 -0.15936,-0.18333 -0.25782,-0.25782 -0.0717,-0.10153 -0.16185,-0.18476 -0.26172,-0.25976 -0.0716,-0.10089 -0.15837,-0.1852 -0.25781,-0.25977 -0.0713,-0.10076 -0.16064,-0.18518 -0.25976,-0.25976 -0.0725,-0.10318 -0.16412,-0.18782 -0.26563,-0.26367 -0.0727,-0.10322 -0.16199,-0.18981 -0.26367,-0.26563 -0.0736,-0.10468 -0.16617,-0.19108 -0.26953,-0.26758 -0.0368,-0.0521 -0.0785,-0.097 -0.12305,-0.14258 0.0274,-0.08 0.049,-0.16249 0.082,-0.24023 0.95453,-2.24753 4.11017,-3.2495 6.20313,-3.91406 0.5224,-0.16473 1.01452,-0.32117 1.40039,-0.47461 3.78199,-1.49272 4.55155,-3.03877 4.53125,-4.07227 -0.002,-0.13959 -0.0209,-0.27908 -0.0527,-0.41601 -0.0313,-0.13537 -0.0765,-0.26943 -0.13476,-0.40039 -3.6e-4,-8e-4 -0.002,-0.001 -0.002,-0.002 -0.0466,-0.10436 -0.10718,-0.20611 -0.16992,-0.30664 -0.0165,-0.0263 -0.0274,-0.0541 -0.0449,-0.0801 -0.0838,-0.12465 -0.17974,-0.24473 -0.28711,-0.36132 -6.1e-4,-6.6e-4 -0.001,-0.001 -0.002,-0.002 -0.001,-0.001 -0.003,-0.003 -0.004,-0.004 -0.001,-0.001 -0.005,-0.005 -0.006,-0.006 -0.002,-0.002 -0.006,-0.006 -0.008,-0.008 -0.002,-0.002 -0.006,-0.006 -0.008,-0.008 -0.003,-0.003 -0.009,-0.008 -0.0117,-0.0117 -0.003,-0.003 -0.009,-0.008 -0.0117,-0.0117 -0.003,-0.004 -0.008,-0.006 -0.0117,-0.01 0,0 0,-0.002 0,-0.002 0,0 -0.002,-0.002 -0.002,-0.002 -0.004,-0.004 -0.01,-0.007 -0.0137,-0.0117 -9.2e-4,-9.7e-4 -0.001,-0.003 -0.002,-0.004 -0.005,-0.006 -0.012,-0.0117 -0.0176,-0.0176 -0.005,-0.006 -0.012,-0.0117 -0.0176,-0.0176 -0.007,-0.007 -0.0147,-0.0143 -0.0215,-0.0215 -0.007,-0.007 -0.0147,-0.0143 -0.0215,-0.0215 -0.007,-0.008 -0.0161,-0.0156 -0.0234,-0.0234 -0.008,-0.009 -0.0174,-0.0169 -0.0254,-0.0254 -0.009,-0.009 -0.0187,-0.0182 -0.0273,-0.0273 -0.009,-0.009 -0.0187,-0.0182 -0.0273,-0.0273 -0.009,-0.01 -0.02,-0.0195 -0.0293,-0.0293 -0.008,-0.009 -0.019,-0.0166 -0.0274,-0.0254 -0.0104,-0.0114 -0.0225,-0.0219 -0.0332,-0.0332 -0.009,-0.009 -0.0186,-0.018 -0.0273,-0.0274 -0.015,-0.0165 -0.0334,-0.0345 -0.0488,-0.0508 -0.01,-0.0109 -0.023,-0.0205 -0.0332,-0.0312 -0.0117,-0.0127 -0.0252,-0.0245 -0.0371,-0.0371 -0.0129,-0.014 -0.0278,-0.0271 -0.041,-0.041 -0.0134,-0.0147 -0.0292,-0.0284 -0.043,-0.043 -0.014,-0.0153 -0.0305,-0.0297 -0.0449,-0.0449 -0.0147,-0.016 -0.0318,-0.031 -0.0469,-0.0469 -0.0147,-0.016 -0.0318,-0.031 -0.0469,-0.0469 -0.0152,-0.0167 -0.0331,-0.0324 -0.0488,-0.0488 -0.0159,-0.0174 -0.0344,-0.0336 -0.0508,-0.0508 -0.0165,-0.0181 -0.0357,-0.0349 -0.0527,-0.0527 -0.0171,-0.0187 -0.037,-0.0362 -0.0547,-0.0547 -0.0153,-0.0167 -0.0331,-0.0323 -0.0488,-0.0488 -0.0234,-0.0258 -0.0497,-0.0508 -0.0742,-0.0762 -0.0146,-0.0158 -0.0338,-0.0293 -0.0488,-0.0449 -0.0189,-0.0207 -0.0409,-0.0401 -0.0605,-0.0605 -0.0196,-0.0215 -0.0422,-0.0413 -0.0625,-0.0625 -0.0196,-0.0215 -0.0422,-0.0413 -0.0625,-0.0625 -0.0207,-0.0227 -0.0448,-0.044 -0.0664,-0.0664 -0.0192,-0.0211 -0.0406,-0.0417 -0.0606,-0.0625 -0.0249,-0.0275 -0.0539,-0.0531 -0.0801,-0.0801 -0.0201,-0.022 -0.0435,-0.0428 -0.0645,-0.0644 -0.0228,-0.0251 -0.0504,-0.0476 -0.0742,-0.0723 -0.0228,-0.0251 -0.0484,-0.0496 -0.0723,-0.0742 -0.0229,-0.0251 -0.0503,-0.0476 -0.0742,-0.0723 -0.0243,-0.0267 -0.0526,-0.0519 -0.0781,-0.0781 -0.0244,-0.0268 -0.0526,-0.0518 -0.0781,-0.0781 -0.025,-0.0275 -0.0539,-0.0531 -0.0801,-0.0801 -0.0249,-0.0274 -0.0539,-0.0532 -0.0801,-0.0801 -0.0261,-0.0288 -0.0565,-0.0558 -0.084,-0.084 -0.0268,-0.0295 -0.0577,-0.057 -0.0859,-0.0859 -0.0268,-0.0295 -0.0577,-0.057 -0.0859,-0.0859 -0.0273,-0.0301 -0.0591,-0.0584 -0.0879,-0.0879 -0.028,-0.0309 -0.0603,-0.0596 -0.0898,-0.0898 -0.0286,-0.0316 -0.0615,-0.0609 -0.0918,-0.0918 -0.0286,-0.0316 -0.0615,-0.0609 -0.0918,-0.0918 -0.0294,-0.0325 -0.0645,-0.062 -0.0957,-0.0938 -0.0283,-0.0312 -0.0599,-0.0612 -0.0898,-0.0918 -0.0339,-0.0377 -0.0731,-0.0727 -0.10938,-0.10938 -0.0295,-0.0325 -0.0644,-0.062 -0.0957,-0.0937 -0.0319,-0.0352 -0.0676,-0.0691 -0.10156,-0.10351 -0.0316,-0.0349 -0.0679,-0.0675 -0.10157,-0.10157 -0.0319,-0.0353 -0.0696,-0.0671 -0.10351,-0.10156 -0.034,-0.0376 -0.0731,-0.0727 -0.10938,-0.10937 -0.0329,-0.0363 -0.0704,-0.0701 -0.10547,-0.10547 -0.0343,-0.0379 -0.0727,-0.0744 -0.10937,-0.11133 -0.0346,-0.0382 -0.0744,-0.0741 -0.11133,-0.11133 -0.0348,-0.0385 -0.076,-0.0738 -0.11328,-0.11133 -0.0346,-0.0383 -0.0743,-0.074 -0.11133,-0.11132 -0.0363,-0.0402 -0.0782,-0.0781 -0.11719,-0.11719 -0.0364,-0.0404 -0.0781,-0.0779 -0.11718,-0.11719 -0.0372,-0.0412 -0.0791,-0.081 -0.11914,-0.12109 -0.0373,-0.0412 -0.0811,-0.079 -0.1211,-0.11914 -0.0382,-0.0423 -0.082,-0.082 -0.12304,-0.12305 -0.0381,-0.0423 -0.082,-0.082 -0.12305,-0.12305 -0.0387,-0.0428 -0.0833,-0.0834 -0.125,-0.125 -0.0394,-0.0437 -0.0844,-0.0845 -0.12695,-0.12695 -0.0399,-0.0443 -0.0858,-0.0859 -0.12891,-0.12891 -0.0405,-0.045 -0.087,-0.0872 -0.13086,-0.13086 -0.0411,-0.0456 -0.0883,-0.0886 -0.13281,-0.13281 -0.0406,-0.0451 -0.087,-0.0872 -0.13086,-0.13086 -0.0422,-0.0469 -0.0909,-0.0913 -0.13672,-0.13672 -0.0424,-0.0471 -0.0907,-0.0911 -0.13672,-0.13671 -0.0435,-0.0483 -0.0933,-0.0939 -0.14062,-0.14063 -0.0432,-0.0479 -0.0937,-0.0923 -0.14063,-0.13867 -0.0438,-0.0487 -0.0929,-0.0955 -0.14062,-0.14258 -0.0436,-0.0484 -0.0933,-0.0938 -0.14063,-0.14062 -0.0459,-0.0511 -0.0983,-0.0991 -0.14844,-0.14844 -0.0445,-0.0494 -0.0961,-0.0948 -0.14453,-0.14258 -0.0459,-0.0512 -0.0982,-0.099 -0.14844,-0.14844 -0.047,-0.0524 -0.10083,-0.10175 -0.15234,-0.15234 -0.0442,-0.0492 -0.0944,-0.095 -0.14258,-0.14258 -0.0502,-0.0563 -0.10675,-0.10986 -0.16211,-0.16406 -0.047,-0.0523 -0.10084,-0.10188 -0.15234,-0.15235 -0.0478,-0.0533 -0.1038,-0.10292 -0.15625,-0.15429 -0.0489,-0.0546 -0.10447,-0.1056 -0.1582,-0.15821 -0.0471,-0.0526 -0.10074,-0.10159 -0.15235,-0.15234 -0.0525,-0.059 -0.11173,-0.11517 -0.16992,-0.17187 -0.0503,-0.056 -0.10863,-0.10818 -0.16406,-0.16211 -0.0495,-0.0552 -0.10568,-0.107 -0.16016,-0.16016 -0.0517,-0.0579 -0.11077,-0.11231 -0.16797,-0.16797 -0.0511,-0.057 -0.10965,-0.11115 -0.16601,-0.16602 -0.0519,-0.0581 -0.1125,-0.11211 -0.16992,-0.16796 -0.0538,-0.0603 -0.1141,-0.11793 -0.17383,-0.17578 -0.0529,-0.0591 -0.11326,-0.1151 -0.17188,-0.17188 -0.0529,-0.059 -0.11336,-0.11518 -0.17187,-0.17188 -0.0542,-0.0607 -0.11564,-0.11754 -0.17578,-0.17578 -0.0552,-0.0619 -0.11825,-0.12035 -0.17969,-0.17968 -0.0553,-0.0618 -0.11821,-0.12042 -0.17969,-0.17969 -0.0545,-0.061 -0.11719,-0.11729 -0.17773,-0.17578 -0.0564,-0.0632 -0.12078,-0.12306 -0.1836,-0.1836 -0.057,-0.064 -0.12189,-0.12432 -0.18554,-0.18554 -0.0558,-0.0625 -0.11952,-0.12178 -0.18164,-0.18164 -0.0575,-0.0646 -0.12327,-0.1257 -0.1875,-0.1875 -0.0581,-0.0653 -0.12449,-0.12705 -0.18946,-0.18946 -0.0587,-0.0659 -0.12571,-0.12839 -0.1914,-0.1914 -0.0593,-0.0667 -0.12682,-0.12966 -0.19336,-0.19336 -0.0593,-0.0665 -0.1269,-0.12981 -0.19336,-0.19336 -0.0598,-0.0671 -0.1263,-0.13118 -0.19336,-0.19531 -0.0306,-0.0344 -0.0632,-0.0679 -0.0957,-0.10157 0.0505,-4.00592 -0.1915,-7.90014 -1.19922,-10.79883 -0.11376,-0.3274 -0.23722,-0.64257 -0.3711,-0.94335 -3.6e-4,-8.1e-4 -0.002,-0.001 -0.002,-0.002 -0.40213,-0.90144 -0.83069,-1.75215 -1.28516,-2.55273 -4.5e-4,-7.9e-4 -0.001,-0.001 -0.002,-0.002 -0.15011,-0.26443 -0.30766,-0.51566 -0.46289,-0.76953 -0.0801,-0.13093 -0.15689,-0.26831 -0.23828,-0.39648 -9.9e-4,-0.002 -0.003,-0.002 -0.004,-0.004 -0.23752,-0.37417 -0.47863,-0.73682 -0.72656,-1.08789 -5.3e-4,-7.5e-4 -0.001,-0.001 -0.002,-0.002 -0.15203,-0.21512 -0.30922,-0.41834 -0.46485,-0.625 -0.1,-0.13271 -0.19745,-0.27111 -0.29883,-0.40039 -0.001,-10e-4 -0.003,-0.002 -0.004,-0.004 -0.002,-0.002 -0.004,-0.004 -0.006,-0.006 -0.25559,-0.32605 -0.5135,-0.6406 -0.77735,-0.94531 -6.1e-4,-7e-4 -0.001,-10e-4 -0.002,-0.002 -0.001,-0.001 -0.003,-0.002 -0.004,-0.004 -0.002,-0.002 -0.004,-0.004 -0.006,-0.006 -0.002,-0.003 -0.005,-0.005 -0.008,-0.008 -0.26153,-0.30116 -0.52628,-0.59405 -0.79492,-0.875 -6.4e-4,-6.8e-4 -0.001,-0.001 -0.002,-0.002 -0.001,-0.001 -0.003,-0.003 -0.004,-0.004 -0.002,-0.002 -0.004,-0.004 -0.006,-0.006 -0.003,-0.003 -0.005,-0.005 -0.008,-0.008 -0.003,-0.003 -0.005,-0.005 -0.008,-0.008 -0.004,-0.004 -0.008,-0.008 -0.0117,-0.0117 -0.004,-0.004 -0.008,-0.008 -0.0117,-0.0117 -0.005,-0.005 -0.009,-0.009 -0.0137,-0.0137 -0.005,-0.005 -0.0105,-0.0102 -0.0156,-0.0156 -0.006,-0.006 -0.0118,-0.0115 -0.0176,-0.0176 -0.006,-0.006 -0.0118,-0.0115 -0.0176,-0.0176 -6.5e-4,-6.7e-4 -0.003,-0.003 -0.004,-0.004 -3.2e-4,-3.4e-4 -0.002,3.3e-4 -0.002,0 -0.005,-0.005 -0.0105,-0.0103 -0.0156,-0.0156 0,0 -0.002,-0.002 -0.002,-0.002 -0.004,-0.005 -0.009,-0.009 -0.0137,-0.0137 0,0 -0.002,-0.002 -0.002,-0.002 0,0 0,-0.002 0,-0.002 0,0 -0.002,-0.002 -0.002,-0.002 0,0 -0.002,-0.002 -0.002,-0.002 -0.007,-0.007 -0.0163,-0.016 -0.0234,-0.0234 -0.008,-0.008 -0.0176,-0.0173 -0.0254,-0.0254 -0.002,-0.002 -0.006,-0.006 -0.008,-0.008 -3.3e-4,-3.4e-4 -0.002,3.3e-4 -0.002,0 -0.006,-0.006 -0.0118,-0.0116 -0.0176,-0.0176 -0.003,-0.003 -0.005,-0.005 -0.008,-0.008 0,0 -0.002,-0.002 -0.002,-0.002 -3.2e-4,-3.3e-4 3.3e-4,-0.002 0,-0.002 0,0 -0.002,-0.002 -0.002,-0.002 0,0 -0.002,-0.002 -0.002,-0.002 -0.001,-0.001 -0.003,-0.003 -0.004,-0.004 -0.001,-0.001 -0.003,-0.003 -0.004,-0.004 -0.001,-0.001 -0.003,-0.003 -0.004,-0.004 0,0 -0.002,-0.002 -0.002,-0.002 -0.01,-0.0101 -0.0196,-0.0192 -0.0293,-0.0293 -0.001,-0.001 -0.005,-0.005 -0.006,-0.006 -3.3e-4,-3.3e-4 -0.002,3.3e-4 -0.002,0 -0.008,-0.009 -0.0171,-0.0167 -0.0254,-0.0254 -0.005,-0.005 -0.009,-0.009 -0.0137,-0.0137 -0.003,-0.003 -0.007,-0.006 -0.01,-0.01 0,0 -0.002,-0.002 -0.002,-0.002 -3.2e-4,-3.2e-4 3.3e-4,-0.002 0,-0.002 0,0 -0.002,-0.002 -0.002,-0.002 0,0 -0.002,-0.002 -0.002,-0.002 -0.001,-0.001 -0.003,-0.003 -0.004,-0.004 -0.008,-0.008 -0.0177,-0.0173 -0.0254,-0.0254 -3.3e-4,-3.3e-4 -0.002,3.2e-4 -0.002,0 -0.003,-0.003 -0.005,-0.005 -0.008,-0.008 -0.005,-0.005 -0.0105,-0.0102 -0.0156,-0.0156 -0.003,-0.003 -0.005,-0.007 -0.008,-0.01 -9.8e-4,-9.7e-4 -0.003,-9.7e-4 -0.004,-0.002 -0.001,-10e-4 -0.003,-0.003 -0.004,-0.004 0,0 0,-0.002 0,-0.002 -0.001,-10e-4 -0.003,-0.003 -0.004,-0.004 -0.0122,-0.0128 -0.0268,-0.0263 -0.0391,-0.0391 -0.0123,-0.0128 -0.0268,-0.0263 -0.0391,-0.0391 -0.0129,-0.0135 -0.0281,-0.0276 -0.041,-0.041 -0.0135,-0.0141 -0.0294,-0.0289 -0.043,-0.043 -0.0142,-0.0148 -0.0307,-0.0302 -0.0449,-0.0449 -0.0148,-0.0155 -0.032,-0.0315 -0.0469,-0.0469 -0.0148,-0.0155 -0.032,-0.0314 -0.0469,-0.0469 -0.0161,-0.0168 -0.0347,-0.034 -0.0508,-0.0508 -0.0161,-0.0169 -0.0327,-0.032 -0.0488,-0.0488 0,0 -0.002,-0.002 -0.002,-0.002 -0.002,-0.002 -0.004,-0.002 -0.006,-0.004 -0.003,-0.003 -0.006,-0.007 -0.01,-0.01 -0.0119,-0.0125 -0.0232,-0.0247 -0.0352,-0.0371 0,0 -0.002,-0.002 -0.002,-0.002 -0.0174,-0.0182 -0.0372,-0.0366 -0.0547,-0.0547 -0.0174,-0.0182 -0.0372,-0.0366 -0.0547,-0.0547 -0.0187,-0.0195 -0.0399,-0.0392 -0.0586,-0.0586 -0.0187,-0.0196 -0.0398,-0.0391 -0.0586,-0.0586 -0.0203,-0.0212 -0.0422,-0.0395 -0.0625,-0.0605 -0.007,-0.007 -0.0164,-0.0161 -0.0234,-0.0234 0,0 -0.002,0 -0.002,0 -0.01,-0.01 -0.0195,-0.0196 -0.0293,-0.0293 0,0 0,-0.002 0,-0.002 0,0 -0.002,-0.002 -0.002,-0.002 0,0 -0.002,-0.002 -0.002,-0.002 0,0 -0.002,-0.002 -0.002,-0.002 0,0 -0.002,-0.002 -0.002,-0.002 -6.4e-4,-6.7e-4 -0.003,-0.003 -0.004,-0.004 0,0 -0.002,0 -0.002,0 -0.003,-0.003 -0.005,-0.005 -0.008,-0.008 -0.005,-0.005 -0.0104,-0.0104 -0.0156,-0.0156 -0.003,-0.003 -0.005,-0.005 -0.008,-0.008 0,0 -0.002,-0.002 -0.002,-0.002 0,0 0,-0.002 0,-0.002 0,0 -0.002,-0.002 -0.002,-0.002 -0.002,-0.002 -0.004,-0.004 -0.006,-0.006 0,0 -0.002,-0.002 -0.002,-0.002 0,0 0,-0.002 0,-0.002 -0.001,-0.001 -0.003,-0.003 -0.004,-0.004 -0.003,-0.003 -0.007,-0.006 -0.01,-0.01 -0.0219,-0.0229 -0.0445,-0.0436 -0.0664,-0.0664 -0.0219,-0.0229 -0.0444,-0.0436 -0.0664,-0.0664 -0.0232,-0.0242 -0.0471,-0.0462 -0.0703,-0.0703 -0.0232,-0.0243 -0.047,-0.0462 -0.0703,-0.0703 -0.0239,-0.025 -0.0483,-0.0475 -0.0723,-0.0723 -0.0245,-0.0256 -0.0496,-0.0488 -0.0742,-0.0742 -0.0245,-0.0256 -0.0496,-0.0488 -0.0742,-0.0742 -0.0258,-0.0269 -0.0523,-0.0514 -0.0781,-0.0781 -0.0258,-0.027 -0.0523,-0.0513 -0.0781,-0.0781 -0.0264,-0.0276 -0.0536,-0.0527 -0.0801,-0.0801 -0.0271,-0.0283 -0.0549,-0.054 -0.082,-0.082 -0.0277,-0.0289 -0.0562,-0.0553 -0.084,-0.084 -0.0283,-0.0296 -0.0575,-0.0565 -0.0859,-0.0859 -0.0284,-0.0297 -0.0575,-0.0565 -0.0859,-0.0859 -0.0261,-0.0273 -0.0539,-0.0511 -0.0801,-0.0781 -0.003,-0.003 -0.007,-0.007 -0.01,-0.01 -0.0226,-0.0236 -0.0457,-0.0449 -0.0684,-0.0684 -10e-4,-0.001 -0.003,-0.003 -0.004,-0.004 -0.003,-0.003 -0.007,-0.007 -0.01,-0.01 -9.7e-4,-9.8e-4 -9.8e-4,-0.003 -0.002,-0.004 -0.002,-0.002 -0.004,-0.004 -0.006,-0.006 -0.0216,-0.0226 -0.0447,-0.042 -0.0664,-0.0645 -0.005,-0.005 -0.0107,-0.009 -0.0156,-0.0137 -0.004,-0.004 -0.006,-0.008 -0.01,-0.0117 -0.0197,-0.0206 -0.0409,-0.0382 -0.0605,-0.0586 0,0 -0.002,-0.002 -0.002,-0.002 -9.9e-4,-9.4e-4 -9.6e-4,-0.003 -0.002,-0.004 -0.001,-10e-4 -0.003,-0.003 -0.004,-0.004 0,0 -0.002,-0.002 -0.002,-0.002 0,0 -0.002,-0.002 -0.002,-0.002 -0.004,-0.004 -0.006,-0.008 -0.01,-0.0117 -0.003,-0.003 -0.007,-0.006 -0.01,-0.01 -0.0316,-0.033 -0.0641,-0.063 -0.0957,-0.0957 -0.0319,-0.0333 -0.0657,-0.0626 -0.0976,-0.0957 -0.0132,-0.0138 -0.0278,-0.0253 -0.041,-0.0391 -0.005,-0.005 -0.009,-0.009 -0.0137,-0.0137 -0.004,-0.004 -0.008,-0.008 -0.0117,-0.0117 -9.9e-4,-9.4e-4 -9.7e-4,-0.003 -0.002,-0.004 -0.003,-0.003 -0.005,-0.005 -0.008,-0.008 -0.002,-0.002 -0.004,-0.004 -0.006,-0.006 -0.004,-0.004 -0.006,-0.008 -0.01,-0.0117 -0.002,-0.002 -0.004,-0.004 -0.006,-0.006 -0.0313,-0.0327 -0.0643,-0.0613 -0.0957,-0.0937 -9.8e-4,-9.8e-4 -9.8e-4,-0.003 -0.002,-0.004 0,0 -0.002,-0.002 -0.002,-0.002 -0.0319,-0.0334 -0.0676,-0.0645 -0.0996,-0.0977 0,0 0,-0.002 0,-0.002 0,0 -0.002,-0.002 -0.002,-0.002 -0.0339,-0.0354 -0.0695,-0.0665 -0.10352,-0.10157 -0.0271,-0.0283 -0.0549,-0.0539 -0.082,-0.082 -0.004,-0.004 -0.008,-0.008 -0.0117,-0.0117 0,0 0,-0.002 0,-0.002 0,0 -0.002,-0.002 -0.002,-0.002 -0.003,-0.003 -0.005,-0.005 -0.008,-0.008 -0.0338,-0.0353 -0.0716,-0.0685 -0.10547,-0.10351 -9.9e-4,-9.5e-4 -9.7e-4,-0.003 -0.002,-0.004 -0.0355,-0.0371 -0.0718,-0.0707 -0.10743,-0.10742 -0.0361,-0.0378 -0.0731,-0.072 -0.10937,-0.10937 -0.0361,-0.0377 -0.0751,-0.074 -0.11133,-0.11133 -0.0374,-0.0391 -0.0757,-0.0745 -0.11328,-0.11328 -0.0374,-0.0391 -0.0757,-0.0745 -0.11328,-0.11328 -0.0386,-0.0404 -0.0784,-0.0772 -0.11719,-0.11719 -0.0387,-0.0405 -0.0783,-0.0771 -0.11719,-0.11719 -0.0383,-0.0401 -0.0787,-0.0755 -0.11718,-0.11523 0,0 0,-0.002 0,-0.002 0,0 -0.002,-0.002 -0.002,-0.002 -0.0399,-0.0417 -0.081,-0.0798 -0.12109,-0.12109 -0.0396,-0.0414 -0.0813,-0.0801 -0.1211,-0.1211 0,0 -0.002,-0.002 -0.002,-0.002 -0.0407,-0.0425 -0.0822,-0.081 -0.12305,-0.12305 -0.0419,-0.0437 -0.0849,-0.0837 -0.12695,-0.12695 -0.0419,-0.0439 -0.0848,-0.0836 -0.12695,-0.12695 -0.0426,-0.0445 -0.0862,-0.0849 -0.12891,-0.12891 -0.0431,-0.0451 -0.0875,-0.0863 -0.13086,-0.13086 -0.0438,-0.0458 -0.0888,-0.0875 -0.13281,-0.13281 -0.0439,-0.0459 -0.0887,-0.0875 -0.13281,-0.13281 -0.0451,-0.0471 -0.0915,-0.0902 -0.13672,-0.13672 -0.0452,-0.0472 -0.0914,-0.0901 -0.13672,-0.13672 -0.0436,-0.0455 -0.091,-0.0878 -0.13477,-0.13281 0,0 0,-0.002 0,-0.002 -0.001,-0.001 -0.003,-0.003 -0.004,-0.004 -0.0464,-0.0485 -0.094,-0.0927 -0.14063,-0.14063 -0.0465,-0.0486 -0.0939,-0.0926 -0.14062,-0.14062 0,0 -0.002,-0.002 -0.002,-0.002 -0.0449,-0.0469 -0.0936,-0.0904 -0.13868,-0.13672 0,0 -0.002,-0.002 -0.002,-0.002 -9.8e-4,-9.7e-4 -9.7e-4,-0.003 -0.002,-0.004 -0.0254,-0.0266 -0.0526,-0.0498 -0.0781,-0.0762 -0.0229,-0.0226 -0.0454,-0.0459 -0.0684,-0.0684 -0.0403,-0.0421 -0.0826,-0.0814 -0.12304,-0.12304 -0.002,-0.002 -0.002,-0.004 -0.004,-0.006 -9.8e-4,-9.8e-4 -0.003,-9.8e-4 -0.004,-0.002 0,0 -0.002,-0.002 -0.002,-0.002 -0.005,-0.005 -0.009,-0.0109 -0.0137,-0.0156 -0.049,-0.0513 -0.0992,-0.0978 -0.14844,-0.14844 -0.0497,-0.0519 -0.10047,-0.0991 -0.15039,-0.15039 -0.0387,-0.0405 -0.0803,-0.0752 -0.11914,-0.11524 -0.003,-0.003 -0.005,-0.005 -0.008,-0.008 -0.002,-0.002 -0.002,-0.004 -0.004,-0.006 -0.005,-0.004 -0.009,-0.009 -0.0137,-0.0137 0,0 -0.002,-0.002 -0.002,-0.002 -0.002,-0.002 -0.002,-0.004 -0.004,-0.006 -0.0509,-0.0532 -0.10319,-0.10184 -0.1543,-0.1543 -0.051,-0.0533 -0.10307,-0.10172 -0.15429,-0.1543 -0.0518,-0.0542 -0.10613,-0.10281 -0.15821,-0.15625 -0.0345,-0.036 -0.0689,-0.0697 -0.10351,-0.10547 -0.0167,-0.0166 -0.0341,-0.0323 -0.0508,-0.0488 -10e-4,-0.001 -0.003,-0.003 -0.004,-0.004 -0.0335,-0.035 -0.0679,-0.0668 -0.10156,-0.10156 -0.0182,-0.0182 -0.0364,-0.0366 -0.0547,-0.0547 -0.001,-0.001 -0.003,-0.003 -0.004,-0.004 -0.0451,-0.0472 -0.0914,-0.0901 -0.13671,-0.13671 -0.0619,-0.0649 -0.12524,-0.12562 -0.1875,-0.18946 -0.0542,-0.0567 -0.10959,-0.1082 -0.16407,-0.16406 -0.0547,-0.0572 -0.11101,-0.10963 -0.16601,-0.16602 -0.0554,-0.0579 -0.11232,-0.11093 -0.16797,-0.16796 -0.056,-0.0585 -0.11362,-0.11224 -0.16992,-0.16993 -0.0567,-0.0592 -0.11493,-0.11353 -0.17188,-0.17187 -0.0568,-0.0594 -0.11479,-0.1134 -0.17187,-0.17188 -0.058,-0.0606 -0.11753,-0.11613 -0.17578,-0.17578 -0.0581,-0.0607 -0.11739,-0.11599 -0.17579,-0.17578 -0.0558,-0.0583 -0.11576,-0.11242 -0.17187,-0.16992 -0.002,-0.002 -0.004,-0.006 -0.006,-0.008 -0.0565,-0.059 -0.11707,-0.11373 -0.17383,-0.17188 -0.002,-0.002 -0.004,-0.006 -0.006,-0.008 -0.0565,-0.059 -0.11706,-0.11373 -0.17383,-0.17188 -0.002,-0.002 -0.004,-0.006 -0.006,-0.008 -0.0576,-0.0602 -0.1198,-0.11646 -0.17773,-0.17578 -0.002,-0.002 -0.004,-0.006 -0.006,-0.008 -0.0578,-0.0604 -0.11967,-0.11632 -0.17773,-0.17578 -0.002,-0.002 -0.004,-0.006 -0.006,-0.008 -0.0583,-0.0609 -0.12111,-0.11776 -0.17969,-0.17773 -0.002,-0.002 -0.004,-0.006 -0.006,-0.008 -0.0589,-0.0616 -0.12046,-0.11906 -0.17969,-0.17969 -0.003,-0.003 -0.005,-0.005 -0.008,-0.008 -0.0596,-0.0623 -0.12176,-0.12036 -0.18164,-0.18164 -0.003,-0.003 -0.005,-0.005 -0.008,-0.008 -0.0602,-0.0629 -0.12306,-0.12166 -0.1836,-0.18359 -0.003,-0.003 -0.005,-0.005 -0.008,-0.008 -0.0603,-0.0631 -0.12292,-0.12152 -0.18359,-0.1836 -0.003,-0.003 -0.005,-0.005 -0.008,-0.008 -0.0644,-0.0673 -0.13054,-0.12915 -0.19531,-0.19531 -0.0645,-0.0675 -0.13039,-0.129 -0.19531,-0.19531 -0.0652,-0.0681 -0.1317,-0.1303 -0.19727,-0.19727 -0.0658,-0.0688 -0.13299,-0.1316 -0.19921,-0.19922 -0.0658,-0.0688 -0.133,-0.1316 -0.19922,-0.19922 -0.067,-0.07 -0.13576,-0.13436 -0.20313,-0.20312 -0.0671,-0.0702 -0.13559,-0.13421 -0.20312,-0.20313 -0.0676,-0.0707 -0.13706,-0.13566 -0.20508,-0.20507 -0.0683,-0.0713 -0.13836,-0.13698 -0.20703,-0.20704 -0.0689,-0.072 -0.13966,-0.13827 -0.20899,-0.20898 -0.0696,-0.0728 -0.14088,-0.1395 -0.21093,-0.21094 -0.0697,-0.0729 -0.1408,-0.13941 -0.21094,-0.21094 -0.0702,-0.0734 -0.14226,-0.14088 -0.21289,-0.21289 -0.0654,-0.0683 -0.13348,-0.13012 -0.19922,-0.19726 -0.006,-0.006 -0.0115,-0.0118 -0.0176,-0.0176 -0.0664,-0.0694 -0.13437,-0.13298 -0.20117,-0.20117 -0.003,-0.003 -0.007,-0.007 -0.01,-0.01 -0.002,-0.002 -0.004,-0.004 -0.006,-0.006 0,0 -0.002,-0.002 -0.002,-0.002 0,0 -0.002,0 -0.002,0 -0.0613,-0.064 -0.12397,-0.12259 -0.18555,-0.18555 -10e-4,-0.001 -0.003,-0.003 -0.004,-0.004 -9.7e-4,-0.001 -9.7e-4,-0.003 -0.002,-0.004 -10e-4,-10e-4 -0.003,-0.003 -0.004,-0.004 -0.0787,-0.0824 -0.15902,-0.15951 -0.23828,-0.24024 -0.0729,-0.0762 -0.14729,-0.14593 -0.2207,-0.2207 -0.074,-0.0774 -0.15007,-0.14872 -0.22461,-0.22461 -0.0742,-0.0776 -0.14989,-0.14855 -0.22461,-0.22461 -0.0749,-0.0782 -0.15119,-0.14985 -0.22656,-0.22656 -0.0752,-0.0786 -0.15282,-0.14953 -0.22852,-0.22657 -0.0622,-0.065 -0.12689,-0.12354 -0.18945,-0.1875 -0.002,-0.002 -0.004,-0.006 -0.006,-0.008 -0.003,-0.003 -0.005,-0.005 -0.008,-0.008 -0.0847,-0.0888 -0.17245,-0.17097 -0.25781,-0.25781 -0.0613,-0.064 -0.12397,-0.12257 -0.18555,-0.18555 -0.007,-0.007 -0.0143,-0.0144 -0.0215,-0.0215 -0.0859,-0.09 -0.17323,-0.17373 -0.25976,-0.26171 -0.0781,-0.0816 -0.15769,-0.15638 -0.23633,-0.23633 -0.0787,-0.0823 -0.15898,-0.15768 -0.23828,-0.23828 -0.0787,-0.0823 -0.15898,-0.15768 -0.23828,-0.23828 -0.0799,-0.0834 -0.16177,-0.16049 -0.24219,-0.24219 -0.08,-0.0837 -0.16158,-0.1603 -0.24219,-0.24219 -0.0807,-0.0843 -0.16288,-0.1616 -0.24414,-0.24414 -0.0812,-0.0849 -0.16427,-0.163 -0.24609,-0.24609 -0.082,-0.0857 -0.16548,-0.16422 -0.24805,-0.24805 -0.082,-0.0857 -0.16547,-0.16422 -0.24805,-0.24805 -0.0831,-0.0868 -0.16827,-0.16702 -0.25195,-0.25195 -0.0833,-0.087 -0.16807,-0.16683 -0.25195,-0.25195 -0.0839,-0.0877 -0.16937,-0.16814 -0.25391,-0.25391 -0.0845,-0.0883 -0.17077,-0.16955 -0.25586,-0.25586 -0.0826,-0.0864 -0.16676,-0.16551 -0.25,-0.25 -0.003,-0.003 -0.005,-0.005 -0.008,-0.008 -0.081,-0.0847 -0.16646,-0.16323 -0.24805,-0.2461 -0.004,-0.003 -0.006,-0.008 -0.01,-0.0117 -0.0863,-0.0902 -0.17477,-0.17358 -0.26172,-0.26172 -0.0865,-0.0904 -0.17456,-0.17338 -0.26172,-0.26172 -0.0871,-0.0911 -0.17586,-0.17468 -0.26367,-0.26367 -0.0878,-0.0917 -0.17716,-0.176 -0.26563,-0.26563 -0.0881,-0.0921 -0.17878,-0.17567 -0.26757,-0.26562 -0.0493,-0.0515 -0.10086,-0.0976 -0.1504,-0.14844 -0.009,-0.009 -0.0182,-0.0183 -0.0273,-0.0273 -0.0221,-0.0212 -0.0424,-0.0453 -0.0644,-0.0664 -0.0976,-0.1023 -0.19844,-0.19719 -0.29688,-0.29688 -0.0483,-0.0505 -0.0979,-0.0966 -0.14648,-0.14648 -0.0332,-0.0331 -0.0663,-0.0668 -0.0996,-0.0996 -0.0988,-0.10353 -0.19919,-0.19992 -0.29883,-0.30078 -0.091,-0.0951 -0.18364,-0.18254 -0.27539,-0.27539 -0.091,-0.0951 -0.18365,-0.18254 -0.27539,-0.27539 -0.0921,-0.0962 -0.18646,-0.18538 -0.2793,-0.2793 -0.0923,-0.0965 -0.18624,-0.18516 -0.27929,-0.2793 -0.093,-0.0972 -0.18939,-0.18637 -0.28321,-0.28125 -0.0893,-0.0933 -0.18148,-0.17839 -0.27148,-0.26953 -0.002,-0.002 -0.004,-0.004 -0.006,-0.006 -0.002,-0.002 -0.002,-0.004 -0.004,-0.006 0,0 -0.002,-0.002 -0.002,-0.002 -0.0848,-0.0886 -0.1724,-0.16922 -0.25781,-0.25586 -0.002,-0.002 -0.002,-0.004 -0.004,-0.006 -0.10182,-0.10669 -0.20584,-0.20669 -0.30859,-0.31055 -0.0953,-0.0996 -0.19296,-0.19194 -0.28906,-0.28906 -0.0955,-0.0998 -0.19273,-0.19172 -0.28907,-0.28906 -0.0961,-0.10039 -0.19413,-0.19315 -0.29101,-0.29102 -0.0966,-0.10094 -0.19555,-0.19457 -0.29297,-0.29296 -0.0972,-0.10162 -0.19685,-0.19589 -0.29492,-0.29493 -0.0979,-0.10229 -0.19815,-0.1972 -0.29688,-0.29687 -0.0981,-0.10253 -0.19791,-0.19697 -0.29687,-0.29688 -0.0992,-0.10364 -0.20075,-0.19983 -0.30078,-0.30078 -0.0994,-0.10388 -0.20051,-0.1996 -0.30079,-0.30078 -0.10004,-0.10456 -0.2018,-0.20091 -0.30273,-0.30273 -0.10069,-0.10523 -0.2031,-0.20223 -0.30469,-0.30469 -0.10068,-0.10523 -0.2031,-0.20223 -0.30469,-0.30469 -0.10173,-0.10633 -0.20593,-0.20509 -0.30859,-0.30859 -0.10198,-0.10658 -0.20569,-0.20486 -0.30859,-0.3086 -0.10238,-0.107 -0.20723,-0.2064 -0.31055,-0.31054 -0.10303,-0.10768 -0.20853,-0.20773 -0.3125,-0.3125 -0.10367,-0.10835 -0.20983,-0.20904 -0.31445,-0.31446 -0.10432,-0.10902 -0.21113,-0.21035 -0.31641,-0.3164 -0.10456,-0.10928 -0.21087,-0.21012 -0.31641,-0.31641 -0.1056,-0.11037 -0.21371,-0.21299 -0.32031,-0.32031 -0.10585,-0.11063 -0.21346,-0.21275 -0.32031,-0.32031 -0.1065,-0.11131 -0.21476,-0.21406 -0.32227,-0.32227 -0.10714,-0.11198 -0.21605,-0.21538 -0.32421,-0.32422 -0.10714,-0.11197 -0.21606,-0.21538 -0.32422,-0.32422 -0.10818,-0.11306 -0.21891,-0.21826 -0.32813,-0.32812 -0.10843,-0.11333 -0.21865,-0.21801 -0.32812,-0.32813 -0.10895,-0.11386 -0.22008,-0.21945 -0.33008,-0.33007 -0.10528,-0.11003 -0.21405,-0.21136 -0.32031,-0.31836 -0.004,-0.004 -0.007,-0.01 -0.0117,-0.0137 -0.11011,-0.11508 -0.2228,-0.22221 -0.33399,-0.33398 -0.11069,-0.11569 -0.22416,-0.22164 -0.33593,-0.33398 -0.0268,-0.028 -0.0552,-0.0523 -0.082,-0.0801 -0.01,-0.01 -0.0195,-0.0196 -0.0293,-0.0293 -0.0184,-0.0176 -0.0362,-0.0372 -0.0547,-0.0547 -0.0481,-0.0474 -0.0943,-0.0977 -0.14258,-0.14453 -0.1204,-0.12624 -0.24354,-0.24491 -0.36523,-0.36719 -0.11237,-0.11743 -0.22832,-0.22585 -0.3418,-0.33984 -0.0251,-0.0263 -0.051,-0.0501 -0.0762,-0.0762 -0.0789,-0.0785 -0.15697,-0.15945 -0.23633,-0.23633 -0.12235,-0.12829 -0.2474,-0.24885 -0.37109,-0.37305 -0.11398,-0.11911 -0.23058,-0.23013 -0.34571,-0.3457 -0.11424,-0.1194 -0.2303,-0.22987 -0.3457,-0.3457 -0.11526,-0.12047 -0.23317,-0.23278 -0.34961,-0.34961 -0.11553,-0.12075 -0.23289,-0.23251 -0.34961,-0.34961 -0.11617,-0.12142 -0.23419,-0.23383 -0.35156,-0.35156 -0.11618,-0.12142 -0.23419,-0.23383 -0.35156,-0.35157 -0.1172,-0.12248 -0.23706,-0.23673 -0.35547,-0.35547 -0.11752,-0.12281 -0.23869,-0.23641 -0.35742,-0.35546 -0.10863,-0.11353 -0.22041,-0.21782 -0.33008,-0.32813 -0.12808,-0.13431 -0.25718,-0.2608 -0.38672,-0.39062 -0.1194,-0.1248 -0.24066,-0.24043 -0.36133,-0.36133 -0.11973,-0.12513 -0.24228,-0.24011 -0.36328,-0.36133 -0.0177,-0.0185 -0.035,-0.0362 -0.0527,-0.0547 -0.0937,-0.0933 -0.18681,-0.18827 -0.28126,-0.27929 -0.13036,-0.13673 -0.2646,-0.26442 -0.39648,-0.39649 -0.11185,-0.1169 -0.22688,-0.22441 -0.33984,-0.33789 -0.13131,-0.13769 -0.26365,-0.26741 -0.39649,-0.40039 -0.12263,-0.12817 -0.24713,-0.24703 -0.37109,-0.37109 -0.12328,-0.12884 -0.24843,-0.24836 -0.37305,-0.37305 -0.12327,-0.12884 -0.24842,-0.24835 -0.37305,-0.37305 -0.12427,-0.12988 -0.25131,-0.25128 -0.37695,-0.37695 -0.12456,-0.13019 -0.25101,-0.251 -0.37695,-0.37695 -0.12521,-0.13087 -0.25231,-0.25232 -0.37891,-0.37891 -0.12585,-0.13154 -0.2536,-0.25364 -0.38086,-0.38086 -0.12618,-0.13188 -0.25522,-0.25333 -0.38281,-0.38086 -0.11701,-0.12229 -0.23725,-0.23496 -0.35547,-0.35351 -0.13649,-0.14314 -0.27592,-0.27798 -0.41406,-0.41602 -0.0103,-0.0108 -0.0209,-0.0205 -0.0312,-0.0312 -0.10884,-0.10836 -0.21639,-0.22092 -0.32617,-0.32617 -0.13805,-0.14478 -0.27823,-0.28035 -0.41797,-0.41992 -0.12909,-0.13492 -0.26007,-0.26026 -0.39063,-0.39063 -0.12908,-0.13491 -0.26006,-0.26026 -0.39062,-0.39062 -0.13007,-0.13595 -0.26297,-0.26321 -0.39453,-0.39454 -0.13023,-0.1361 -0.26281,-0.26305 -0.39453,-0.39453 -0.12524,-0.13089 -0.25619,-0.25424 -0.38282,-0.38086 -0.006,-0.005 -0.01,-0.0122 -0.0156,-0.0176 -0.13167,-0.13761 -0.26524,-0.26556 -0.39844,-0.39844 -0.13231,-0.13829 -0.26653,-0.26688 -0.40039,-0.40039 -0.13231,-0.13829 -0.26653,-0.26688 -0.40039,-0.40039 -0.13329,-0.13931 -0.26944,-0.26984 -0.4043,-0.4043 -0.1336,-0.13963 -0.26912,-0.26953 -0.40429,-0.4043 -0.13394,-0.13998 -0.27074,-0.27116 -0.40625,-0.40625 -0.1349,-0.14099 -0.27365,-0.27217 -0.41016,-0.4082 -0.003,-0.003 -0.005,-0.005 -0.008,-0.008 -0.12383,-0.12328 -0.24605,-0.25183 -0.3711,-0.3711 -0.14549,-0.15258 -0.29403,-0.29655 -0.4414,-0.44336 -0.13635,-0.1425 -0.27608,-0.27467 -0.41406,-0.4121 -0.127,-0.13274 -0.25634,-0.25644 -0.38477,-0.38477 0,0 -0.002,-0.002 -0.002,-0.002 -0.01,-0.009 -0.0178,-0.0202 -0.0273,-0.0293 -0.13747,-0.14368 -0.27687,-0.27749 -0.41601,-0.41602 -0.13796,-0.14418 -0.27833,-0.27897 -0.41797,-0.41796 -0.13168,-0.13763 -0.26718,-0.26555 -0.40039,-0.39844 -0.005,-0.005 -0.0103,-0.0106 -0.0156,-0.0156 -0.14081,-0.14725 -0.28322,-0.28589 -0.42578,-0.42773 -0.13263,-0.13862 -0.26815,-0.26657 -0.40234,-0.40039 -0.003,-0.003 -0.006,-0.007 -0.01,-0.01 -0.14347,-0.15013 -0.29025,-0.29103 -0.43554,-0.43554 -0.13087,-0.13678 -0.26411,-0.26438 -0.39649,-0.39649 -0.14418,-0.15121 -0.29148,-0.29197 -0.4375,-0.4375 -0.14173,-0.14847 -0.28618,-0.2867 -0.42969,-0.42969 -0.14173,-0.148472 -0.28618,-0.286694 -0.42968,-0.429684 -0.14272,-0.149508 -0.28908,-0.289647 -0.4336,-0.433594 -0.14302,-0.149826 -0.28876,-0.289352 -0.43359,-0.433593 -0.15027,-0.157421 -0.30282,-0.305774 -0.45508,-0.457031 -0.13748,-0.143682 -0.27883,-0.277487 -0.41797,-0.416016 -0.14464,-0.151531 -0.29296,-0.293635 -0.43945,-0.439453 -0.14528,-0.152189 -0.29427,-0.29498 -0.44141,-0.441407 -0.14495,-0.151854 -0.29264,-0.293336 -0.43945,-0.439453 -0.15298,-0.160297 -0.31175,-0.312888 -0.4668,-0.466797 -0.13699,-0.143176 -0.27737,-0.276002 -0.41601,-0.414062 -0.15095,-0.158327 -0.30407,-0.306883 -0.45704,-0.458984 -0.15398,-0.161315 -0.31267,-0.313907 -0.46874,-0.46875 -0.13796,-0.144187 -0.27834,-0.278971 -0.41797,-0.417969 -0.15222,-0.15967 -0.30863,-0.309551 -0.46289,-0.462891 -0.14945,-0.156591 -0.30171,-0.302632 -0.45313,-0.453125 -0.15009,-0.157267 -0.303,-0.303961 -0.45508,-0.455078 -0.15797,-0.165529 -0.31834,-0.321749 -0.47851,-0.480469 -0.1515,-0.158336 -0.30547,-0.306899 -0.45899,-0.458984 -0.15135,-0.158185 -0.30757,-0.307039 -0.46093,-0.458984 -0.14215,-0.148567 -0.28772,-0.286628 -0.43165,-0.429688 -0.16269,-0.170652 -0.32715,-0.332669 -0.49218,-0.496094 -0.14585,-0.15243 -0.29564,-0.294771 -0.44336,-0.441406 -0.15363,-0.16098 -0.31108,-0.31226 -0.4668,-0.466797 -0.15427,-0.161654 -0.31237,-0.313592 -0.46875,-0.46875 -0.15491,-0.162319 -0.31367,-0.314933 -0.4707,-0.470703 -0.15525,-0.162673 -0.31333,-0.314608 -0.47071,-0.470703 -0.16263,-0.170411 -0.33113,-0.332898 -0.49609,-0.496094 -0.14634,-0.152946 -0.29513,-0.296248 -0.44336,-0.443359 -0.16736,-0.175563 -0.33798,-0.339896 -0.50781,-0.507813 -0.15794,-0.165074 -0.31839,-0.320233 -0.47852,-0.478515 -0.14763,-0.154294 -0.29772,-0.29891 -0.44726,-0.447266 -0.16911,-0.177396 -0.34204,-0.344082 -0.51367,-0.513672 -0.14892,-0.155641 -0.30031,-0.301572 -0.45118,-0.451172 -0.16285,-0.170828 -0.32895,-0.330554 -0.49414,-0.49414 -0.1604,-0.16808 -0.32365,-0.325269 -0.48632,-0.486328 -0.16815,-0.176191 -0.33914,-0.341286 -0.50977,-0.509766 -0.15085,-0.157662 -0.30418,-0.305567 -0.45703,-0.457031 -0.17214,-0.180576 -0.34869,-0.350949 -0.52344,-0.523438 -0.15214,-0.15901 -0.30676,-0.308232 -0.46094,-0.460937 -0.16543,-0.173534 -0.33411,-0.335891 -0.50195,-0.501953 -0.16361,-0.171469 -0.33013,-0.331929 -0.49609,-0.496094 -0.17199,-0.180256 -0.3469,-0.349295 -0.52149,-0.521485 -0.1544,-0.161368 -0.31226,-0.31192 -0.46875,-0.466796 -0.17507,-0.183635 -0.35348,-0.357931 -0.53125,-0.533204 -0.15536,-0.162378 -0.31322,-0.314897 -0.4707,-0.470703 -0.16865,-0.176916 -0.34056,-0.342566 -0.51172,-0.511718 -0.16683,-0.174849 -0.33658,-0.338604 -0.50586,-0.50586 -0.17521,-0.183635 -0.35334,-0.355984 -0.53125,-0.53125 -0.15698,-0.164063 -0.31742,-0.317255 -0.47656,-0.474609 -0.1789,-0.187684 -0.36126,-0.365969 -0.54297,-0.544922 -0.15827,-0.165411 -0.32001,-0.319924 -0.48047,-0.478516 -0.1722,-0.180657 -0.34667,-0.350873 -0.52148,-0.523437 -0.17006,-0.178228 -0.34303,-0.345284 -0.51563,-0.515625 -0.17844,-0.187016 -0.35978,-0.362679 -0.54101,-0.541016 -0.1602,-0.167432 -0.32388,-0.323929 -0.48633,-0.484375 -0.17414,-0.182687 -0.35054,-0.354884 -0.52735,-0.529297 -0.17998,-0.188639 -0.36404,-0.367064 -0.54687,-0.546875 -0.17277,-0.18057 -0.34806,-0.350986 -0.52344,-0.523437 -0.17341,-0.181245 -0.34935,-0.352326 -0.52539,-0.525391 -0.16278,-0.170127 -0.32904,-0.329272 -0.49414,-0.492187 -0.17667,-0.18535 -0.35769,-0.360276 -0.53711,-0.53711 -0.17457,-0.182982 -0.35205,-0.354624 -0.5293,-0.529296 -0.17482,-0.183249 -0.35374,-0.356336 -0.53125,-0.53125 -0.17548,-0.183944 -0.35501,-0.357657 -0.5332,-0.533204 -0.17613,-0.184617 -0.3563,-0.358996 -0.53516,-0.535156 -0.17677,-0.185292 -0.35759,-0.360337 -0.5371,-0.537109 -0.18586,-0.194812 -0.37362,-0.379053 -0.5625,-0.564453 -0.1673,-0.174844 -0.33808,-0.338631 -0.50782,-0.50586 -0.18058,-0.189451 -0.36343,-0.368272 -0.54687,-0.548828 -0.17866,-0.187284 -0.36151,-0.364386 -0.54297,-0.542969 -0.1793,-0.187958 -0.3628,-0.365727 -0.54492,-0.544921 -0.18873,-0.197845 -0.38042,-0.384126 -0.57227,-0.572266 -0.16987,-0.177539 -0.34323,-0.343983 -0.51562,-0.513672 -0.19177,-0.201182 -0.38705,-0.392826 -0.58203,-0.583984 -0.17116,-0.178887 -0.34582,-0.346661 -0.51954,-0.517578 -0.18445,-0.193511 -0.37115,-0.376315 -0.55859,-0.560547 -0.19131,-0.200549 -0.38557,-0.389499 -0.58008,-0.580079 -0.17245,-0.180234 -0.34839,-0.349339 -0.52344,-0.521484 -0.18598,-0.195121 -0.37543,-0.380717 -0.56445,-0.566406 -0.18421,-0.193112 -0.3714,-0.37473 -0.55859,-0.558594 -0.18486,-0.193788 -0.3727,-0.376071 -0.56055,-0.560547 -0.1851,-0.194039 -0.3744,-0.377797 -0.5625,-0.5625 -0.18574,-0.194713 -0.37569,-0.37914 -0.56445,-0.564453 -0.1868,-0.195816 -0.37656,-0.380097 -0.56641,-0.566406 -0.18679,-0.195816 -0.37656,-0.380098 -0.5664,-0.566406 -6.8769,-7.209051 -15.93402,-7.896485 -19.091798,-7.896485 -0.08349,0 -0.165774,0 -0.240234,0 z"
       id="path4885"
       inkscape:connector-curvature="0"
       clip-path="url(#clipPath4228)" />
    <path
       transform="matrix(0.95,0,0,0.95,6.4158894,3.6059163)"
       style="display:inline;fill:#ffffff;filter:url(#filter6352)"
       inkscape:connector-curvature="0"
       d="m 95.51672,145.95837 c -0.29454,0 -0.577203,-0.01 -0.790983,-0.0189 -0.172211,0.0142 -0.34561,0.0189 -0.523759,0.0189 -6.211475,0 -10.367107,-2.93709 -14.033421,-5.52976 -2.625923,-1.85512 -5.103387,-3.6093 -8.007222,-4.0915 -1.426382,-0.23634 -2.844452,-0.35511 -4.215015,-0.35511 -2.467962,0 -4.421668,0.38243 -5.845674,0.66153 -0.876495,0.16983 -1.633037,0.31829 -2.217366,0.31829 -0.612835,0 -1.355123,-0.13657 -1.665103,-1.1924 -0.243471,-0.83493 -0.421621,-1.64492 -0.591457,-2.42403 -0.423995,-1.94657 -0.732787,-3.13424 -1.460824,-3.24469 -7.793442,-1.20191 -12.39801,-2.97391 -13.314886,-5.12001 -0.09501,-0.22447 -0.148458,-0.4525 -0.16271,-0.67697 -0.03444,-0.63777 0.415682,-1.19954 1.046331,-1.30405 6.188909,-1.01783 11.69135,-4.28866 16.355302,-9.72578 3.614057,-4.20551 5.388425,-8.22811 5.57845,-8.67111 0.0096,-0.0214 0.019,-0.0427 0.02732,-0.0617 0.900247,-1.82305 1.078397,-3.40027 0.53326,-4.682951 C 65.2242,97.48993 61.898745,96.434097 59.699194,95.735751 59.151682,95.562353 58.635048,95.399643 58.221741,95.235746 56.270412,94.46614 53.06491,92.836667 53.492469,90.590798 c 0.311168,-1.637788 2.477464,-2.779131 4.229267,-2.779131 0.486941,0 0.915687,0.08432 1.2803,0.255347 1.978646,0.927564 3.757764,1.397879 5.288661,1.397879 1.90501,0 2.825449,-0.724475 3.047543,-0.931128 -0.05583,-1.015451 -0.123517,-2.090286 -0.187651,-3.105737 0,-0.0012 -0.0024,-0.01307 -0.0024,-0.01307 -0.445415,-7.109337 -1.004803,-15.958611 1.260069,-21.032305 6.775614,-15.18783 21.141582,-16.369554 25.381537,-16.369554 0.11164,0 1.846816,-0.01781 1.846816,-0.01781 0.07838,0 0.165085,-0.0012 0.252971,-0.0012 4.249438,0 18.647478,1.181724 25.425458,16.379055 2.26132,5.077257 1.70549,13.93247 1.25774,21.05132 l -0.0238,0.340859 c -0.0605,0.96557 -0.11638,1.88007 -0.16508,2.767254 0.20902,0.192401 1.05108,0.857492 2.76251,0.925189 1.45963,-0.05701 3.13662,-0.523759 4.98462,-1.389566 0.57007,-0.268412 1.20191,-0.324231 1.63065,-0.324231 0.64965,0 1.30881,0.12708 1.85988,0.357487 l 0.0297,0.01069 c 1.56535,0.557014 2.59386,1.668666 2.61404,2.837326 0.0214,1.087899 -0.7886,2.716184 -4.76965,4.287462 -0.40617,0.161522 -0.92517,0.326608 -1.47507,0.500006 -2.20311,0.699533 -5.525,1.754178 -6.52977,4.120001 -0.54513,1.283879 -0.36698,2.861089 0.53326,4.684149 0.01,0.0202 0.0189,0.0392 0.0273,0.0617 0.27554,0.64846 6.97989,15.93249 21.93494,18.3957 0.62827,0.10452 1.08078,0.66628 1.04633,1.30643 -0.0143,0.22684 -0.0701,0.45725 -0.16508,0.68172 -0.91213,2.13186 -5.51669,3.90146 -13.31014,5.10576 -0.73279,0.11165 -1.0392,1.29455 -1.46082,3.23163 -0.17578,0.7981 -0.35274,1.58196 -0.59621,2.40501 -0.22685,0.77436 -0.73042,1.1556 -1.5404,1.1556 l -0.12351,0 c -0.52852,0 -1.27555,-0.0974 -2.21737,-0.28028 -1.64729,-0.32187 -3.49529,-0.61879 -5.84567,-0.61879 -1.37057,0 -2.78863,0.11877 -4.21503,0.35511 -2.90145,0.4822 -5.37891,2.234 -8.00246,4.08676 -3.67106,2.59503 -7.82551,5.53093 -14.039342,5.53093"
       id="path4361"
       clip-path="url(#clipPath6245)" />
    <path
       clip-path="url(#clipPath6245)"
       id="path8081"
       d="m 95.51672,145.95837 c -0.29454,0 -0.577203,-0.01 -0.790983,-0.0189 -0.172211,0.0142 -0.34561,0.0189 -0.523759,0.0189 -6.211475,0 -10.367107,-2.93709 -14.033421,-5.52976 -2.625923,-1.85512 -5.103387,-3.6093 -8.007222,-4.0915 -1.426382,-0.23634 -2.844452,-0.35511 -4.215015,-0.35511 -2.467962,0 -4.421668,0.38243 -5.845674,0.66153 -0.876495,0.16983 -1.633037,0.31829 -2.217366,0.31829 -0.612835,0 -1.355123,-0.13657 -1.665103,-1.1924 -0.243471,-0.83493 -0.421621,-1.64492 -0.591457,-2.42403 -0.423995,-1.94657 -0.732787,-3.13424 -1.460824,-3.24469 -7.793442,-1.20191 -12.39801,-2.97391 -13.314886,-5.12001 -0.09501,-0.22447 -0.148458,-0.4525 -0.16271,-0.67697 -0.03444,-0.63777 0.415682,-1.19954 1.046331,-1.30405 6.188909,-1.01783 11.69135,-4.28866 16.355302,-9.72578 3.614057,-4.20551 5.388425,-8.22811 5.57845,-8.67111 0.0096,-0.0214 0.019,-0.0427 0.02732,-0.0617 0.900247,-1.82305 1.078397,-3.40027 0.53326,-4.682951 C 65.2242,97.48993 61.898745,96.434097 59.699194,95.735751 59.151682,95.562353 58.635048,95.399643 58.221741,95.235746 56.270412,94.46614 53.06491,92.836667 53.492469,90.590798 c 0.311168,-1.637788 2.477464,-2.779131 4.229267,-2.779131 0.486941,0 0.915687,0.08432 1.2803,0.255347 1.978646,0.927564 3.757764,1.397879 5.288661,1.397879 1.90501,0 2.825449,-0.724475 3.047543,-0.931128 -0.05583,-1.015451 -0.123517,-2.090286 -0.187651,-3.105737 0,-0.0012 -0.0024,-0.01307 -0.0024,-0.01307 -0.445415,-7.109337 -1.004803,-15.958611 1.260069,-21.032305 6.775614,-15.18783 21.141582,-16.369554 25.381537,-16.369554 0.11164,0 1.846816,-0.01781 1.846816,-0.01781 0.07838,0 0.165085,-0.0012 0.252971,-0.0012 4.249438,0 18.647478,1.181724 25.425458,16.379055 2.26132,5.077257 1.70549,13.93247 1.25774,21.05132 l -0.0238,0.340859 c -0.0605,0.96557 -0.11638,1.88007 -0.16508,2.767254 0.20902,0.192401 1.05108,0.857492 2.76251,0.925189 1.45963,-0.05701 3.13662,-0.523759 4.98462,-1.389566 0.57007,-0.268412 1.20191,-0.324231 1.63065,-0.324231 0.64965,0 1.30881,0.12708 1.85988,0.357487 l 0.0297,0.01069 c 1.56535,0.557014 2.59386,1.668666 2.61404,2.837326 0.0214,1.087899 -0.7886,2.716184 -4.76965,4.287462 -0.40617,0.161522 -0.92517,0.326608 -1.47507,0.500006 -2.20311,0.699533 -5.525,1.754178 -6.52977,4.120001 -0.54513,1.283879 -0.36698,2.861089 0.53326,4.684149 0.01,0.0202 0.0189,0.0392 0.0273,0.0617 0.27554,0.64846 6.97989,15.93249 21.93494,18.3957 0.62827,0.10452 1.08078,0.66628 1.04633,1.30643 -0.0143,0.22684 -0.0701,0.45725 -0.16508,0.68172 -0.91213,2.13186 -5.51669,3.90146 -13.31014,5.10576 -0.73279,0.11165 -1.0392,1.29455 -1.46082,3.23163 -0.17578,0.7981 -0.35274,1.58196 -0.59621,2.40501 -0.22685,0.77436 -0.73042,1.1556 -1.5404,1.1556 l -0.12351,0 c -0.52852,0 -1.27555,-0.0974 -2.21737,-0.28028 -1.64729,-0.32187 -3.49529,-0.61879 -5.84567,-0.61879 -1.37057,0 -2.78863,0.11877 -4.21503,0.35511 -2.90145,0.4822 -5.37891,2.234 -8.00246,4.08676 -3.67106,2.59503 -7.82551,5.53093 -14.039342,5.53093"
       inkscape:connector-curvature="0"
       style="display:inline;fill:#000000;fill-opacity:1;opacity:0.2"
       transform="matrix(0.95,0,0,0.95,6.4158894,3.6059163)" />
    <path
       transform="matrix(0.95,0,0,0.93941359,6.4158894,4.1140014)"
       style="display:inline;opacity:1;fill:#ffffff;fill-opacity:1"
       inkscape:connector-curvature="0"
       d="m 95.51672,145.95837 c -0.29454,0 -0.577203,-0.01 -0.790983,-0.0189 -0.172211,0.0142 -0.34561,0.0189 -0.523759,0.0189 -6.211475,0 -10.367107,-2.93709 -14.033421,-5.52976 -2.625923,-1.85512 -5.103387,-3.6093 -8.007222,-4.0915 -1.426382,-0.23634 -2.844452,-0.35511 -4.215015,-0.35511 -2.467962,0 -4.421668,0.38243 -5.845674,0.66153 -0.876495,0.16983 -1.633037,0.31829 -2.217366,0.31829 -0.612835,0 -1.355123,-0.13657 -1.665103,-1.1924 -0.243471,-0.83493 -0.421621,-1.64492 -0.591457,-2.42403 -0.423995,-1.94657 -0.732787,-3.13424 -1.460824,-3.24469 -7.793442,-1.20191 -12.39801,-2.97391 -13.314886,-5.12001 -0.09501,-0.22447 -0.148458,-0.4525 -0.16271,-0.67697 -0.03444,-0.63777 0.415682,-1.19954 1.046331,-1.30405 6.188909,-1.01783 11.69135,-4.28866 16.355302,-9.72578 3.614057,-4.20551 5.388425,-8.22811 5.57845,-8.67111 0.0096,-0.0214 0.019,-0.0427 0.02732,-0.0617 0.900247,-1.82305 1.078397,-3.40027 0.53326,-4.682951 C 65.2242,97.48993 61.898745,96.434097 59.699194,95.735751 59.151682,95.562353 58.635048,95.399643 58.221741,95.235746 56.270412,94.46614 53.06491,92.836667 53.492469,90.590798 c 0.311168,-1.637788 2.477464,-2.779131 4.229267,-2.779131 0.486941,0 0.915687,0.08432 1.2803,0.255347 1.978646,0.927564 3.757764,1.397879 5.288661,1.397879 1.90501,0 2.825449,-0.724475 3.047543,-0.931128 -0.05583,-1.015451 -0.123517,-2.090286 -0.187651,-3.105737 0,-0.0012 -0.0024,-0.01307 -0.0024,-0.01307 -0.445415,-7.109337 -1.004803,-15.958611 1.260069,-21.032305 6.775614,-15.18783 21.141582,-16.369554 25.381537,-16.369554 0.11164,0 1.846816,-0.01781 1.846816,-0.01781 0.07838,0 0.165085,-0.0012 0.252971,-0.0012 4.249438,0 18.647478,1.181724 25.425458,16.379055 2.26132,5.077257 1.70549,13.93247 1.25774,21.05132 l -0.0238,0.340859 c -0.0605,0.96557 -0.11638,1.88007 -0.16508,2.767254 0.20902,0.192401 1.05108,0.857492 2.76251,0.925189 1.45963,-0.05701 3.13662,-0.523759 4.98462,-1.389566 0.57007,-0.268412 1.20191,-0.324231 1.63065,-0.324231 0.64965,0 1.30881,0.12708 1.85988,0.357487 l 0.0297,0.01069 c 1.56535,0.557014 2.59386,1.668666 2.61404,2.837326 0.0214,1.087899 -0.7886,2.716184 -4.76965,4.287462 -0.40617,0.161522 -0.92517,0.326608 -1.47507,0.500006 -2.20311,0.699533 -5.525,1.754178 -6.52977,4.120001 -0.54513,1.283879 -0.36698,2.861089 0.53326,4.684149 0.01,0.0202 0.0189,0.0392 0.0273,0.0617 0.27554,0.64846 6.97989,15.93249 21.93494,18.3957 0.62827,0.10452 1.08078,0.66628 1.04633,1.30643 -0.0143,0.22684 -0.0701,0.45725 -0.16508,0.68172 -0.91213,2.13186 -5.51669,3.90146 -13.31014,5.10576 -0.73279,0.11165 -1.0392,1.29455 -1.46082,3.23163 -0.17578,0.7981 -0.35274,1.58196 -0.59621,2.40501 -0.22685,0.77436 -0.73042,1.1556 -1.5404,1.1556 l -0.12351,0 c -0.52852,0 -1.27555,-0.0974 -2.21737,-0.28028 -1.64729,-0.32187 -3.49529,-0.61879 -5.84567,-0.61879 -1.37057,0 -2.78863,0.11877 -4.21503,0.35511 -2.90145,0.4822 -5.37891,2.234 -8.00246,4.08676 -3.67106,2.59503 -7.82551,5.53093 -14.039342,5.53093"
       id="path8083"
       clip-path="url(#clipPath6245)" />
    <path
       clip-path="url(#clipPath6245)"
       id="path4214"
       d="m 95.51672,145.95837 c -0.29454,0 -0.577203,-0.01 -0.790983,-0.0189 -0.172211,0.0142 -0.34561,0.0189 -0.523759,0.0189 -6.211475,0 -10.367107,-2.93709 -14.033421,-5.52976 -2.625923,-1.85512 -5.103387,-3.6093 -8.007222,-4.0915 -1.426382,-0.23634 -2.844452,-0.35511 -4.215015,-0.35511 -2.467962,0 -4.421668,0.38243 -5.845674,0.66153 -0.876495,0.16983 -1.633037,0.31829 -2.217366,0.31829 -0.612835,0 -1.355123,-0.13657 -1.665103,-1.1924 -0.243471,-0.83493 -0.421621,-1.64492 -0.591457,-2.42403 -0.423995,-1.94657 -0.732787,-3.13424 -1.460824,-3.24469 -7.793442,-1.20191 -12.39801,-2.97391 -13.314886,-5.12001 -0.09501,-0.22447 -0.148458,-0.4525 -0.16271,-0.67697 -0.03444,-0.63777 0.415682,-1.19954 1.046331,-1.30405 6.188909,-1.01783 11.69135,-4.28866 16.355302,-9.72578 3.614057,-4.20551 5.388425,-8.22811 5.57845,-8.67111 0.0096,-0.0214 0.019,-0.0427 0.02732,-0.0617 0.900247,-1.82305 1.078397,-3.40027 0.53326,-4.682951 C 65.2242,97.48993 61.898745,96.434097 59.699194,95.735751 59.151682,95.562353 58.635048,95.399643 58.221741,95.235746 56.270412,94.46614 53.06491,92.836667 53.492469,90.590798 c 0.311168,-1.637788 2.477464,-2.779131 4.229267,-2.779131 0.486941,0 0.915687,0.08432 1.2803,0.255347 1.978646,0.927564 3.757764,1.397879 5.288661,1.397879 1.90501,0 2.825449,-0.724475 3.047543,-0.931128 -0.05583,-1.015451 -0.123517,-2.090286 -0.187651,-3.105737 0,-0.0012 -0.0024,-0.01307 -0.0024,-0.01307 -0.445415,-7.109337 -1.004803,-15.958611 1.260069,-21.032305 6.775614,-15.18783 21.141582,-16.369554 25.381537,-16.369554 0.11164,0 1.846816,-0.01781 1.846816,-0.01781 0.07838,0 0.165085,-0.0012 0.252971,-0.0012 4.249438,0 18.647478,1.181724 25.425458,16.379055 2.26132,5.077257 1.70549,13.93247 1.25774,21.05132 l -0.0238,0.340859 c -0.0605,0.96557 -0.11638,1.88007 -0.16508,2.767254 0.20902,0.192401 1.05108,0.857492 2.76251,0.925189 1.45963,-0.05701 3.13662,-0.523759 4.98462,-1.389566 0.57007,-0.268412 1.20191,-0.324231 1.63065,-0.324231 0.64965,0 1.30881,0.12708 1.85988,0.357487 l 0.0297,0.01069 c 1.56535,0.557014 2.59386,1.668666 2.61404,2.837326 0.0214,1.087899 -0.7886,2.716184 -4.76965,4.287462 -0.40617,0.161522 -0.92517,0.326608 -1.47507,0.500006 -2.20311,0.699533 -5.525,1.754178 -6.52977,4.120001 -0.54513,1.283879 -0.36698,2.861089 0.53326,4.684149 0.01,0.0202 0.0189,0.0392 0.0273,0.0617 0.27554,0.64846 6.97989,15.93249 21.93494,18.3957 0.62827,0.10452 1.08078,0.66628 1.04633,1.30643 -0.0143,0.22684 -0.0701,0.45725 -0.16508,0.68172 -0.91213,2.13186 -5.51669,3.90146 -13.31014,5.10576 -0.73279,0.11165 -1.0392,1.29455 -1.46082,3.23163 -0.17578,0.7981 -0.35274,1.58196 -0.59621,2.40501 -0.22685,0.77436 -0.73042,1.1556 -1.5404,1.1556 l -0.12351,0 c -0.52852,0 -1.27555,-0.0974 -2.21737,-0.28028 -1.64729,-0.32187 -3.49529,-0.61879 -5.84567,-0.61879 -1.37057,0 -2.78863,0.11877 -4.21503,0.35511 -2.90145,0.4822 -5.37891,2.234 -8.00246,4.08676 -3.67106,2.59503 -7.82551,5.53093 -14.039342,5.53093"
       inkscape:connector-curvature="0"
       style="display:inline;opacity:1;fill:#f2f2f2;fill-opacity:1"
       transform="matrix(0.95,0,0,0.92920579,6.4158894,5.6039156)" />
  </g>
  <g
     inkscape:groupmode="layer"
     id="layer5"
     inkscape:label="Square 1"
     style="display:inline">
    <rect
       style="display:inline;opacity:0.1;fill:url(#radialGradient7770);fill-opacity:1;stroke:url(#radialGradient7778);stroke-width:1.00005436;stroke-linejoin:round;stroke-miterlimit:4;stroke-dasharray:none;stroke-opacity:1"
       id="rect7724"
       width="150.99994"
       height="150.99994"
       x="20.500031"
       y="20.500031"
       ry="10.897427" />
  </g>
</svg>
