<?xml version="1.0" encoding="UTF-8" standalone="no"?>
<!-- Created with Inkscape (http://www.inkscape.org/) -->

<svg
   xmlns:dc="http://purl.org/dc/elements/1.1/"
   xmlns:cc="http://creativecommons.org/ns#"
   xmlns:rdf="http://www.w3.org/1999/02/22-rdf-syntax-ns#"
   xmlns:svg="http://www.w3.org/2000/svg"
   xmlns="http://www.w3.org/2000/svg"
   xmlns:xlink="http://www.w3.org/1999/xlink"
   xmlns:sodipodi="http://sodipodi.sourceforge.net/DTD/sodipodi-0.dtd"
   xmlns:inkscape="http://www.inkscape.org/namespaces/inkscape"
   width="192"
   height="192"
   id="svg2"
   version="1.1"
   inkscape:version="0.91 r13725"
   sodipodi:docname="sync.svg"
   inkscape:export-filename="C:\Users\Simon\Documents\Material Design Icon Pack\PNG\sync.png"
   inkscape:export-xdpi="90"
   inkscape:export-ydpi="90">
  <sodipodi:namedview
     id="base"
     pagecolor="#ffffff"
     bordercolor="#666666"
     borderopacity="1.0"
     inkscape:pageopacity="0.0"
     inkscape:pageshadow="2"
     inkscape:zoom="3.1304207"
     inkscape:cx="175.93805"
     inkscape:cy="71.687711"
     inkscape:document-units="px"
     inkscape:current-layer="layer4"
     showgrid="true"
     showguides="true"
     inkscape:guide-bbox="true"
     inkscape:window-width="1920"
     inkscape:window-height="1017"
     inkscape:window-x="-8"
     inkscape:window-y="-8"
     inkscape:window-maximized="1"
     inkscape:snap-global="false">
    <inkscape:grid
       type="xygrid"
       id="grid2985"
       empspacing="5"
       visible="true"
       enabled="true"
       snapvisiblegridlinesonly="true" />
    <sodipodi:guide
       orientation="1,0"
       position="8,58.524064"
       id="guide3002" />
    <sodipodi:guide
       orientation="1,0"
       position="20,69.304813"
       id="guide3004" />
    <sodipodi:guide
       orientation="1,0"
       position="32,62.631016"
       id="guide3006" />
    <sodipodi:guide
       orientation="1,0"
       position="68,53.390374"
       id="guide3008" />
    <sodipodi:guide
       orientation="0,1"
       position="119.61497,8"
       id="guide3010" />
    <sodipodi:guide
       orientation="0,1"
       position="155.5508,20"
       id="guide3012" />
    <sodipodi:guide
       orientation="0,1"
       position="132.96257,32"
       id="guide3014" />
    <sodipodi:guide
       orientation="0,1"
       position="130.90909,68"
       id="guide3016" />
    <sodipodi:guide
       orientation="0,1"
       position="137.06952,184"
       id="guide3018" />
    <sodipodi:guide
       orientation="1,0"
       position="184,145.79679"
       id="guide3020" />
    <sodipodi:guide
       orientation="0,1"
       position="91.379679,172"
       id="guide3022" />
    <sodipodi:guide
       orientation="1,0"
       position="172.15693,140.10142"
       id="guide3024" />
    <sodipodi:guide
       orientation="0,1"
       position="149.39037,160"
       id="guide3026" />
    <sodipodi:guide
       orientation="1,0"
       position="160,88.299465"
       id="guide3028" />
    <sodipodi:guide
       orientation="0,1"
       position="128.34225,124"
       id="guide3030" />
    <sodipodi:guide
       orientation="1,0"
       position="124,92.919786"
       id="guide3032" />
  </sodipodi:namedview>
  <defs
     id="defs4">
    <linearGradient
       inkscape:collect="always"
       id="linearGradient4200">
      <stop
         style="stop-color:#1a237e;stop-opacity:1;"
         offset="0"
         id="stop4202" />
      <stop
         style="stop-color:#1a237e;stop-opacity:0;"
         offset="1"
         id="stop4204" />
    </linearGradient>
    <linearGradient
       inkscape:collect="always"
       id="linearGradient7772">
      <stop
         style="stop-color:#ffffff;stop-opacity:1;"
         offset="0"
         id="stop7774" />
      <stop
         style="stop-color:#ffffff;stop-opacity:0;"
         offset="1"
         id="stop7776" />
    </linearGradient>
    <linearGradient
       inkscape:collect="always"
       id="linearGradient7764">
      <stop
         style="stop-color:#ffffff;stop-opacity:1;"
         offset="0"
         id="stop7766" />
      <stop
         style="stop-color:#ffffff;stop-opacity:0;"
         offset="1"
         id="stop7768" />
    </linearGradient>
    <filter
       style="color-interpolation-filters:sRGB;"
       inkscape:label="Drop Shadow"
       id="filter7743">
      <feFlood
         flood-opacity="0.30000000000000004"
         flood-color="rgb(0,0,0)"
         result="flood"
         id="feFlood7745" />
      <feComposite
         in="flood"
         in2="SourceGraphic"
         operator="in"
         result="composite1"
         id="feComposite7747" />
      <feGaussianBlur
         stdDeviation="3"
         result="blur"
         id="feGaussianBlur7749" />
      <feOffset
         dx="4.57967e-015"
         dy="3"
         result="offset"
         id="feOffset7751" />
      <feComposite
         in="SourceGraphic"
         in2="offset"
         operator="over"
         result="composite2"
         id="feComposite7753" />
    </filter>
    <radialGradient
       inkscape:collect="always"
       xlink:href="#linearGradient7764"
       id="radialGradient7770"
       cx="19.857685"
       cy="20.286076"
       fx="19.857685"
       fy="20.286076"
       r="75.999997"
       gradientUnits="userSpaceOnUse"
       gradientTransform="matrix(0.00253468,1.9947838,-2.0023551,0.0025443,60.402746,-19.768049)" />
    <radialGradient
       inkscape:collect="always"
       xlink:href="#linearGradient7772"
       id="radialGradient7778"
       cx="19.857687"
       cy="20.286074"
       fx="19.857687"
       fy="20.286074"
       r="75.999997"
       gradientUnits="userSpaceOnUse"
       gradientTransform="matrix(0.00253472,1.9947837,-2.002355,0.00254435,60.402741,-19.768048)" />
    <filter
       id="filter9347"
       inkscape:label="Drop Shadow"
       style="color-interpolation-filters:sRGB;">
      <feFlood
         id="feFlood9349"
         result="flood"
         flood-color="rgb(0,0,0)"
         flood-opacity="0.101961" />
      <feComposite
         id="feComposite9351"
         result="composite1"
         operator="in"
         in2="SourceGraphic"
         in="flood" />
      <feGaussianBlur
         id="feGaussianBlur9353"
         result="blur"
         stdDeviation="3"
         in="composite1" />
      <feOffset
         id="feOffset9355"
         result="offset"
         dy="3"
         dx="4.57967e-015" />
      <feComposite
         id="feComposite9357"
         result="composite2"
         operator="over"
         in2="offset"
         in="SourceGraphic" />
    </filter>
    <filter
       style="color-interpolation-filters:sRGB;"
       inkscape:label="Drop Shadow"
       id="filter9197">
      <feFlood
         flood-opacity="0.101961"
         flood-color="rgb(0,0,0)"
         result="flood"
         id="feFlood9199" />
      <feComposite
         in="flood"
         in2="SourceGraphic"
         operator="in"
         result="composite1"
         id="feComposite9201" />
      <feGaussianBlur
         in="composite1"
         stdDeviation="3"
         result="blur"
         id="feGaussianBlur9203" />
      <feOffset
         dx="4.57967e-015"
         dy="3"
         result="offset"
         id="feOffset9205" />
      <feComposite
         in="SourceGraphic"
         in2="offset"
         operator="over"
         result="composite2"
         id="feComposite9207" />
    </filter>
    <linearGradient
       inkscape:collect="always"
       xlink:href="#linearGradient4200"
       id="linearGradient4206"
       x1="51.200333"
       y1="52.1087"
       x2="169.72987"
       y2="170.05333"
       gradientUnits="userSpaceOnUse" />
    <filter
       style="color-interpolation-filters:sRGB;"
       inkscape:label="Drop Shadow"
       id="filter4208"
       x="-0.17000000000000004"
       width="1.3500000000000001"
       height="1.4300000000000002">
      <feFlood
         flood-opacity="0.20000000000000001"
         flood-color="rgb(26,35,126)"
         result="flood"
         id="feFlood4210" />
      <feComposite
         in="flood"
         in2="SourceGraphic"
         operator="in"
         result="composite1"
         id="feComposite4212" />
      <feGaussianBlur
         in="composite1"
         stdDeviation="6"
         result="blur"
         id="feGaussianBlur4214" />
      <feOffset
         dx="4.57967e-015"
         dy="6"
         result="offset"
         id="feOffset4216" />
      <feComposite
         in="SourceGraphic"
         in2="offset"
         operator="over"
         result="composite2"
         id="feComposite4218" />
    </filter>
    <clipPath
       clipPathUnits="userSpaceOnUse"
       id="clipPath4223">
      <rect
         ry="10.897427"
         y="20.500031"
         x="20.500031"
         height="150.99994"
         width="150.99994"
         id="rect4225"
         style="display:inline;opacity:0.1;fill:url(#radialGradient4227);fill-opacity:1;stroke:url(#radialGradient4229);stroke-width:1.00005436;stroke-linejoin:round;stroke-miterlimit:4;stroke-dasharray:none;stroke-opacity:1" />
    </clipPath>
    <radialGradient
       inkscape:collect="always"
       xlink:href="#linearGradient7764"
       id="radialGradient4227"
       gradientUnits="userSpaceOnUse"
       gradientTransform="matrix(0.00253468,1.9947838,-2.0023551,0.0025443,60.402746,-19.768049)"
       cx="19.857685"
       cy="20.286076"
       fx="19.857685"
       fy="20.286076"
       r="75.999997" />
    <radialGradient
       inkscape:collect="always"
       xlink:href="#linearGradient7772"
       id="radialGradient4229"
       gradientUnits="userSpaceOnUse"
       gradientTransform="matrix(0.00253472,1.9947837,-2.002355,0.00254435,60.402741,-19.768048)"
       cx="19.857687"
       cy="20.286074"
       fx="19.857687"
       fy="20.286074"
       r="75.999997" />
    <clipPath
       clipPathUnits="userSpaceOnUse"
       id="clipPath4914">
      <rect
         ry="10.580026"
         y="23.082588"
         x="22.427307"
         height="146.60188"
         width="146.60188"
         id="rect4916"
         style="display:inline;opacity:0.1;fill:url(#radialGradient4918);fill-opacity:1;stroke:url(#radialGradient4920);stroke-width:0.97092658;stroke-linejoin:round;stroke-miterlimit:4;stroke-dasharray:none;stroke-opacity:1" />
    </clipPath>
    <radialGradient
       inkscape:collect="always"
       xlink:href="#linearGradient7764"
       id="radialGradient4918"
       gradientUnits="userSpaceOnUse"
       gradientTransform="matrix(0.00246085,1.9366833,-1.9440341,0.00247019,61.167808,-16.012635)"
       cx="19.857685"
       cy="20.286076"
       fx="19.857685"
       fy="20.286076"
       r="75.999997" />
    <radialGradient
       inkscape:collect="always"
       xlink:href="#linearGradient7772"
       id="radialGradient4920"
       gradientUnits="userSpaceOnUse"
       gradientTransform="matrix(0.00246089,1.9366832,-1.944034,0.00247024,61.167804,-16.012634)"
       cx="19.857687"
       cy="20.286074"
       fx="19.857687"
       fy="20.286074"
       r="75.999997" />
  </defs>
  <metadata
     id="metadata7">
    <rdf:RDF>
      <cc:Work
         rdf:about="">
        <dc:format>image/svg+xml</dc:format>
        <dc:type
           rdf:resource="http://purl.org/dc/dcmitype/StillImage" />
        <dc:title />
      </cc:Work>
    </rdf:RDF>
  </metadata>
  <g
     inkscape:groupmode="layer"
     id="layer6"
     inkscape:label="Square 2"
     style="display:inline">
    <rect
       ry="10.897427"
       y="20.500031"
       x="20.500031"
       height="150.99994"
       width="150.99994"
       id="rect7720"
       style="display:inline;fill:#000000;fill-opacity:1;stroke:#4484f6;stroke-width:1.00005436;stroke-linejoin:round;stroke-miterlimit:4;stroke-dasharray:none;stroke-opacity:1;filter:url(#filter7743)" />
  </g>
  <g
     inkscape:groupmode="layer"
     id="layer4"
     inkscape:label="Square"
     style="display:inline">
    <rect
       ry="10.827893"
       y="20.498438"
       x="20.498438"
       height="150.03645"
       width="151.00313"
       id="rect7755"
       style="opacity:1;fill:#70a2f8;fill-opacity:1;stroke:#6fa1f8;stroke-width:0.99686927;stroke-linejoin:round;stroke-miterlimit:4;stroke-dasharray:none;stroke-opacity:1" />
    <rect
       ry="10.827893"
       y="21.465105"
       x="20.498438"
       height="150.03645"
       width="151.00313"
       id="rect7757"
       style="opacity:1;fill:#3d72de;fill-opacity:1;stroke:#366ac5;stroke-width:0.99699998;stroke-linejoin:round;stroke-miterlimit:4;stroke-dasharray:none;stroke-opacity:1" />
    <rect
       style="fill:#4484f6;fill-opacity:1;stroke:#4484f6;stroke-width:0.99361873;stroke-linejoin:round;stroke-miterlimit:4;stroke-dasharray:none;stroke-opacity:1"
       id="rect3811"
       width="151.00638"
       height="149.05637"
       x="20.496813"
       y="21.46348"
       ry="10.757162" />
    <flowRoot
       style="font-style:normal;font-variant:normal;font-weight:normal;font-stretch:normal;font-size:40px;line-height:125%;font-family:roboto;-inkscape-font-specification:roboto;letter-spacing:0px;word-spacing:0px;fill:#000000;fill-opacity:1;stroke:none;stroke-width:1px;stroke-linecap:butt;stroke-linejoin:miter;stroke-opacity:1"
       id="flowRoot9367"
       xml:space="preserve"><flowRegion
         id="flowRegion9369"><rect
           style="font-style:normal;font-variant:normal;font-weight:normal;font-stretch:normal;font-family:roboto;-inkscape-font-specification:roboto"
           y="31.533901"
           x="31.866945"
           height="128.4106"
           width="128.97627"
           id="rect9371" /></flowRegion><flowPara
         id="flowPara9373" /></flowRoot>    <path
       style="opacity:0.2;fill:url(#linearGradient4206);fill-opacity:1;fill-rule:evenodd;stroke:none;stroke-width:1;stroke-linecap:butt;stroke-linejoin:miter;stroke-opacity:1"
       d="m 128.74414,55.390625 c -3.55443,6.22e-4 -6.76842,2.113859 -8.17773,5.376953 l -16.79883,-3.93164 c 0,0 -0.68104,-0.149282 -1.26563,0.199218 -0.52547,0.313256 -0.80078,0.900391 -0.80078,0.900391 l -6.464842,20.386719 c -10.657361,0.15509 -20.840735,2.973235 -28.541016,7.898437 -1.967033,-1.644913 -4.449503,-2.546373 -7.013671,-2.546875 -6.040061,5.73e-4 -10.936053,4.897439 -10.935547,10.9375 0.0042,3.007495 1.259734,5.832862 3.388672,7.871092 0.181552,0.20141 0.37916,0.38796 0.576172,0.57617 0.172936,0.19132 0.361906,0.36749 0.548828,0.54688 0.157709,0.17518 0.328624,0.33864 0.498046,0.50391 -0.127341,0.88555 -0.200381,1.77432 -0.203124,2.66406 5.7e-5,5.98895 2.77484,11.54344 7.501953,16.1289 0.192561,0.19671 0.386347,0.39265 0.585937,0.58594 0.18188,0.18544 0.364601,0.37033 0.552734,0.55274 0.185626,0.18946 0.372304,0.37815 0.564454,0.56445 0.185001,0.1888 0.371019,0.37685 0.5625,0.5625 0.181511,0.1852 0.363034,0.37056 0.550781,0.55273 0.190036,0.19404 0.381247,0.38742 0.578125,0.57813 0.177135,0.18052 0.355999,0.35947 0.539062,0.53711 0.186264,0.19013 0.373573,0.37946 0.566407,0.5664 0.182191,0.18578 0.364267,0.37197 0.552734,0.55469 0.181565,0.18512 0.364937,0.36869 0.552734,0.55078 0.183801,0.18739 0.368409,0.37432 0.558594,0.5586 0.174306,0.17756 0.349254,0.35452 0.529297,0.52929 0.186285,0.19009 0.373553,0.37951 0.566406,0.56641 0.175896,0.17915 0.351469,0.35885 0.533203,0.53516 0.179021,0.18251 0.359843,0.3634 0.544922,0.54296 0.178388,0.18185 0.356614,0.36405 0.541016,0.54297 0.175527,0.17892 0.351853,0.35712 0.533203,0.53321 0.183756,0.18742 0.368451,0.37427 0.558594,0.55859 0.175287,0.17845 0.35212,0.35562 0.533203,0.53125 0.171991,0.17517 0.343909,0.35099 0.521484,0.52344 0.183778,0.18738 0.368432,0.37432 0.558594,0.55859 0.168933,0.17185 0.339361,0.34249 0.513672,0.51172 0.177464,0.18084 0.355649,0.36111 0.539062,0.53906 0.172822,0.17596 0.344982,0.35218 0.523438,0.52539 0.171117,0.1743 0.342886,0.34793 0.519531,0.51953 0.176812,0.18021 0.354391,0.35978 0.53711,0.53711 0.173056,0.1762 0.346684,0.35195 0.52539,0.52539 0.176573,0.17974 0.354657,0.35828 0.53711,0.53516 0.165142,0.16789 0.329723,0.33657 0.5,0.50195 0.169219,0.17233 0.339047,0.34397 0.513671,0.51368 0.174925,0.17822 0.350546,0.35583 0.53125,0.53125 0.174357,0.17741 0.349211,0.35466 0.529297,0.52929 0.165915,0.16861 0.332813,0.33587 0.503906,0.50196 0.164596,0.16743 0.328347,0.33505 0.498047,0.5 0.17558,0.17882 0.351805,0.3572 0.533203,0.5332 0.161043,0.16368 0.322358,0.32698 0.488282,0.48828 0.175918,0.17914 0.353399,0.35691 0.535156,0.5332 0.161474,0.16402 0.321905,0.32861 0.488281,0.49024 0.168329,0.17124 0.338051,0.34112 0.511719,0.50976 0.161437,0.16413 0.321937,0.3285 0.488281,0.49024 0.17243,0.17552 0.3454,0.35064 0.523438,0.52343 0.157882,0.16038 0.315945,0.32042 0.478515,0.47852 0.173076,0.17615 0.346668,0.35199 0.525391,0.52539 0.157989,0.16038 0.315837,0.32042 0.478516,0.47852 0.164845,0.1676 0.330038,0.33488 0.5,0.5 0.158584,0.16115 0.317152,0.32161 0.480468,0.48047 0.169278,0.17222 0.338994,0.34408 0.513672,0.51367 0.15472,0.15708 0.309532,0.31386 0.46875,0.46875 0.169923,0.17284 0.340263,0.34543 0.515625,0.51562 0.156736,0.15902 0.313263,0.31784 0.47461,0.47461 0.159879,0.16238 0.31969,0.32433 0.484375,0.48438 0.155421,0.15785 0.31074,0.31506 0.470703,0.4707 0.166123,0.16892 0.332586,0.33752 0.503906,0.50391 0.151555,0.15378 0.303117,0.3073 0.458984,0.45898 0.161985,0.16468 0.323309,0.32991 0.490235,0.49219 0.15789,0.16033 0.315939,0.32047 0.478515,0.47851 0.156953,0.15935 0.314981,0.31752 0.476563,0.47461 0.161104,0.16355 0.322302,0.32711 0.488281,0.48828 0.14901,0.15107 0.297999,0.30214 0.451172,0.45118 0.156616,0.15906 0.313382,0.31779 0.474609,0.47461 0.151844,0.15416 0.302808,0.30888 0.458985,0.46093 0.158504,0.16104 0.317238,0.32173 0.480468,0.48047 0.15825,0.16058 0.317519,0.32023 0.480469,0.47852 0.14711,0.14908 0.294147,0.2982 0.445313,0.44531 0.150575,0.15285 0.300242,0.30626 0.455078,0.45703 0.159485,0.16198 0.320108,0.32277 0.484375,0.48242 0.147446,0.14943 0.293792,0.29983 0.445312,0.44727 0.151233,0.15344 0.303458,0.30568 0.458985,0.45703 0.150924,0.15312 0.301831,0.306 0.457031,0.45703 0.151568,0.15374 0.303105,0.30734 0.458984,0.45899 0.149749,0.15181 0.299172,0.30335 0.453125,0.45312 0.144169,0.14616 0.28748,0.29324 0.435547,0.4375 0.157597,0.15997 0.316253,0.31886 0.478516,0.47656 0.143723,0.1455 0.286006,0.29193 0.433594,0.43555 0.143054,0.14499 0.286702,0.28852 0.433593,0.43164 0.156022,0.15833 0.312064,0.31655 0.472657,0.47266 0.14141,0.14312 0.282583,0.28643 0.427734,0.42773 0.145295,0.14725 0.290205,0.29413 0.439455,0.43945 0.14713,0.14914 0.29412,0.29816 0.44531,0.44532 0.14393,0.14581 0.28774,0.29162 0.43555,0.43554 0.14295,0.14485 0.28485,0.29061 0.43164,0.4336 0.14617,0.14814 0.29318,0.29521 0.44336,0.4414 0.14307,0.1449 0.28473,0.29057 0.43164,0.4336 0.13754,0.13929 0.27493,0.27844 0.41601,0.41601 0.15157,0.15372 0.30311,0.30737 0.45899,0.45899 0.13768,0.13924 0.2748,0.2785 0.41601,0.41601 0.13638,0.13807 0.27226,0.27574 0.41211,0.41211 0.15,0.15207 0.30086,0.30311 0.45508,0.45313 0.13506,0.13654 0.26974,0.27331 0.4082,0.4082 0.13926,0.14098 0.27704,0.28267 0.41993,0.42188 0.13885,0.14058 0.27745,0.28109 0.41992,0.41992 0.13886,0.14058 0.27745,0.28109 0.41992,0.41992 0.13791,0.1396 0.2765,0.27815 0.41797,0.41602 0.13408,0.13571 0.26685,0.27217 0.4043,0.40624 0.14459,0.14649 0.28899,0.29293 0.4375,0.4375 0.12868,0.13007 0.2569,0.26012 0.38867,0.38868 0.14044,0.14225 0.27969,0.28533 0.42383,0.42578 0.13537,0.13693 0.27135,0.27294 0.41015,0.4082 0.13954,0.14113 0.2787,0.28252 0.42188,0.42188 0.12803,0.12931 0.25563,0.25889 0.38672,0.38672 0.13568,0.13727 0.27102,0.27456 0.41015,0.41015 0.12801,0.12943 0.25566,0.25878 0.38672,0.38672 0.14237,0.14415 0.28353,0.28934 0.42969,0.43164 0.1278,0.12903 0.25587,0.25722 0.38672,0.38477 0.12683,0.12819 0.25298,0.25607 0.38281,0.38281 0.13951,0.14121 0.27872,0.28244 0.42187,0.42187 0.12262,0.12381 0.24372,0.24866 0.36915,0.3711 0.13791,0.13955 0.27649,0.27819 0.41796,0.41601 0.12487,0.12606 0.24918,0.25232 0.37696,0.37696 0.12932,0.13071 0.25818,0.26143 0.39062,0.39062 0.12485,0.12617 0.24919,0.2522 0.37696,0.37695 0.13728,0.13888 0.27325,0.27886 0.41406,0.41602 0.1184,0.11945 0.2364,0.23924 0.35742,0.35742 0.13474,0.13627 0.27007,0.27164 0.4082,0.40625 0.12199,0.12309 0.24243,0.24741 0.36719,0.36914 0.12581,0.12709 0.2521,0.25326 0.38086,0.37891 0.12645,0.12772 0.25143,0.25655 0.38086,0.38281 0.12491,0.12612 0.24913,0.25226 0.37695,0.37695 0.12355,0.12474 0.24666,0.24971 0.37305,0.37305 0.12332,0.12451 0.24689,0.24797 0.37305,0.37109 0.12325,0.12446 0.245,0.24998 0.37109,0.37305 0.12262,0.1238 0.24567,0.24671 0.37109,0.36914 0.11848,0.1196 0.23633,0.2391 0.35742,0.35742 0.13093,0.1323 0.26041,0.26575 0.39454,0.39649 0.1111,0.11197 0.22253,0.22313 0.33593,0.33398 0.12965,0.13101 0.25785,0.2631 0.39063,0.39258 0.11528,0.11618 0.2299,0.23268 0.34766,0.34766 0.11943,0.12051 0.23923,0.24015 0.36132,0.35937 0.11496,0.11599 0.22829,0.23287 0.34571,0.34766 0.12741,0.12869 0.25432,0.25755 0.38476,0.38476 0.10952,0.11034 0.21833,0.22083 0.33008,0.33008 0.12678,0.12801 0.25304,0.25627 0.38281,0.38281 0.11214,0.11292 0.22342,0.22612 0.33789,0.3379 0.11631,0.11725 0.23274,0.23358 0.35157,0.3496 0.11054,0.11144 0.21921,0.22366 0.33203,0.33399 0.12422,0.12541 0.2479,0.25099 0.375,0.375 0.11113,0.1119 0.2225,0.2232 0.33593,0.33398 0.10854,0.10939 0.21545,0.21981 0.32618,0.32813 0.11878,0.11989 0.23601,0.24076 0.35742,0.35937 0.11335,0.11424 0.22605,0.22873 0.3418,0.3418 0.11624,0.11713 0.2328,0.2337 0.35156,0.34961 0.10376,0.10444 0.20674,0.20904 0.3125,0.3125 0.12108,0.12214 0.24142,0.24442 0.36523,0.36523 0.10633,0.10697 0.21189,0.21438 0.32031,0.32032 0.10984,0.11062 0.21996,0.22054 0.33204,0.33007 0.10887,0.10968 0.21704,0.21953 0.32812,0.32813 0.10985,0.11067 0.21799,0.22245 0.33008,0.33203 0.11016,0.11096 0.21961,0.22217 0.33203,0.33203 0.10758,0.10832 0.21449,0.21695 0.32422,0.32422 0.10702,0.10776 0.21312,0.21555 0.32226,0.32227 0.10761,0.10836 0.21447,0.2169 0.32422,0.32422 0.10761,0.10834 0.21447,0.21692 0.32422,0.32421 0.10125,0.10192 0.20153,0.20371 0.30469,0.30469 0.11465,0.11556 0.22861,0.23134 0.3457,0.3457 0.1012,0.10174 0.20159,0.20389 0.30469,0.30469 0.0993,0.0999 0.19775,0.19984 0.29883,0.29883 0.1092,0.11004 0.2167,0.22112 0.32812,0.33008 0.10889,0.10955 0.21704,0.21964 0.32813,0.32812 0.0964,0.0968 0.19293,0.1931 0.29101,0.28907 0.099,0.0996 0.19612,0.20014 0.29688,0.29882 0.11177,0.11258 0.2238,0.22449 0.33789,0.33594 0.0958,0.0962 0.18963,0.19369 0.28711,0.28906 0.10087,0.10147 0.20193,0.20219 0.30469,0.30274 0.1012,0.10178 0.20158,0.20383 0.30468,0.30469 0.0948,0.0953 0.18865,0.19061 0.28516,0.28515 0.10857,0.10931 0.21542,0.21989 0.32617,0.32813 0.0938,0.0942 0.18776,0.18784 0.2832,0.28125 0.0993,0.0998 0.19773,0.1999 0.29883,0.29883 0.097,0.0975 0.19227,0.19632 0.29102,0.29296 0.0964,0.0969 0.19293,0.19305 0.29101,0.28907 0.098,0.0985 0.19515,0.19728 0.29493,0.29492 0.0951,0.0956 0.18833,0.19233 0.28515,0.28711 0.0916,0.092 0.18228,0.18413 0.27539,0.27539 0.0996,0.10018 0.19741,0.2015 0.29883,0.30078 0.0945,0.0949 0.18905,0.18912 0.28516,0.2832 0.0941,0.0946 0.18742,0.18944 0.2832,0.28321 0.0974,0.0978 0.19387,0.19605 0.29297,0.29296 0.0838,0.0841 0.16681,0.16848 0.25195,0.25196 0.10248,0.10305 0.20417,0.20649 0.3086,0.30859 0.0858,0.086 0.17064,0.17244 0.25781,0.25781 0.0922,0.0926 0.18357,0.18552 0.27734,0.27735 0.0858,0.0862 0.17063,0.17231 0.25781,0.25781 0.0993,0.0998 0.19773,0.19993 0.29883,0.29883 0.0806,0.0808 0.16036,0.16193 0.24219,0.24219 0.0986,0.0991 0.19644,0.19862 0.29688,0.29687 0.0832,0.0834 0.16552,0.16724 0.25,0.25 0.0883,0.0887 0.17583,0.17765 0.26562,0.26563 0.0884,0.0887 0.17584,0.17767 0.26563,0.26562 0.0868,0.0871 0.17353,0.17338 0.26171,0.25977 0.0861,0.0864 0.17036,0.17406 0.25782,0.25976 0.0855,0.0858 0.17095,0.17074 0.25781,0.25586 0.0855,0.0857 0.16905,0.17273 0.25586,0.25781 0.0851,0.0854 0.16939,0.17111 0.25586,0.25586 0.0851,0.0854 0.16939,0.17113 0.25586,0.25586 0.0781,0.0783 0.15514,0.15662 0.23437,0.23438 0.0935,0.0939 0.18614,0.18815 0.28125,0.28125 0.0774,0.0775 0.15388,0.15543 0.23242,0.23242 0.0819,0.0821 0.16294,0.16457 0.2461,0.24609 0.0819,0.0821 0.16294,0.16457 0.24609,0.2461 0.0819,0.0821 0.16294,0.16458 0.2461,0.24609 0.0807,0.0808 0.16032,0.16194 0.24218,0.24219 0.0793,0.0795 0.1578,0.15936 0.23828,0.23828 0.0794,0.0795 0.15774,0.1593 0.23829,0.23828 0.0787,0.0789 0.15649,0.15803 0.23632,0.23633 0.0787,0.0789 0.15649,0.15802 0.23633,0.23633 0.0732,0.0734 0.14454,0.14782 0.21875,0.2207 0.088,0.0883 0.17617,0.17606 0.26563,0.26367 0.0661,0.0661 0.13039,0.13353 0.19726,0.19922 0.0861,0.0864 0.1723,0.17212 0.25977,0.25781 0.0703,0.0703 0.13972,0.14107 0.21094,0.21094 0.0761,0.0762 0.15133,0.1528 0.22851,0.22852 0.0694,0.0695 0.13676,0.13994 0.20703,0.20898 0.0842,0.0844 0.16843,0.1682 0.25391,0.25195 0.0635,0.0635 0.12518,0.12826 0.18945,0.19141 0.0781,0.0783 0.1552,0.15668 0.23438,0.23438 0.0729,0.073 0.14488,0.14626 0.21875,0.21875 0.0722,0.0723 0.14359,0.14496 0.21679,0.21679 0.0768,0.0768 0.15265,0.15421 0.23047,0.23047 0.0651,0.065 0.12943,0.13065 0.19532,0.19531 0.07,0.0701 0.14001,0.13937 0.21093,0.20899 0.071,0.071 0.14101,0.14234 0.21289,0.21289 0.0632,0.0632 0.12551,0.12658 0.18946,0.18945 0.0797,0.0798 0.15745,0.161 0.23828,0.24024 0.0625,0.0624 0.12428,0.12543 0.1875,0.1875 0.0626,0.0626 0.12421,0.12527 0.1875,0.1875 0.078,0.0782 0.15521,0.15676 0.23437,0.23437 0.0606,0.0605 0.12035,0.12145 0.18164,0.18164 0.0664,0.0664 0.13199,0.13319 0.19922,0.19922 0.0655,0.0654 0.13102,0.13024 0.19727,0.19531 0.0603,0.0603 0.11871,0.12168 0.17968,0.18164 0.0748,0.0749 0.14876,0.15022 0.22461,0.22461 0.059,0.0589 0.11812,0.11723 0.17774,0.17578 0.0577,0.0577 0.11356,0.11646 0.17187,0.17383 0.0684,0.0684 0.13584,0.13706 0.20508,0.20508 0.0677,0.0677 0.13458,0.13588 0.20313,0.20313 0.0557,0.0556 0.11166,0.11068 0.16797,0.16601 0.0564,0.0564 0.11095,0.11382 0.16796,0.16992 0.071,0.071 0.14102,0.14236 0.2129,0.21289 0.0548,0.0546 0.10874,0.10971 0.16406,0.16407 0.06,0.0599 0.11907,0.12011 0.17968,0.17968 0.0596,0.0596 0.1194,0.11849 0.17969,0.17774 0.0529,0.0528 0.10285,0.1076 0.15625,0.16015 0.0687,0.0687 0.13748,0.13682 0.20703,0.20508 0.0525,0.0523 0.1052,0.10416 0.15821,0.15625 0.0512,0.0511 0.10064,0.1034 0.15234,0.1543 0.0619,0.0619 0.12292,0.12398 0.18555,0.18555 0.0612,0.0611 0.12166,0.1228 0.18359,0.18359 0.0502,0.05 0.0997,0.10057 0.15039,0.15039 0.0548,0.0547 0.10871,0.10965 0.16406,0.16406 0.0483,0.0482 0.0958,0.0965 0.14454,0.14453 0.0651,0.0651 0.12939,0.1306 0.19531,0.19532 0.0418,0.0417 0.0828,0.0835 0.125,0.125 0.0584,0.0583 0.11484,0.11777 0.17383,0.17578 0.0573,0.0572 0.11393,0.11497 0.17187,0.17187 0.0408,0.0407 0.0819,0.0806 0.12305,0.1211 0.0622,0.0621 0.12262,0.1257 0.18555,0.1875 0.0441,0.0439 0.0884,0.0871 0.13281,0.13086 0.0502,0.0501 0.0997,0.1005 0.15039,0.15039 0.0441,0.044 0.0864,0.089 0.13086,0.13281 0.0603,0.0602 0.12069,0.11982 0.18164,0.17969 0.0424,0.0422 0.0842,0.0849 0.12695,0.12695 0.0477,0.0475 0.0945,0.0953 0.14258,0.14258 0.0473,0.0472 0.0929,0.0956 0.14062,0.14258 0.0467,0.0465 0.0936,0.0924 0.14063,0.13867 0.0463,0.0462 0.0919,0.0927 0.13867,0.13867 0.0402,0.0401 0.0786,0.0812 0.11914,0.12109 0.0561,0.0559 0.11133,0.11231 0.16797,0.16797 0.0389,0.0386 0.0781,0.0767 0.11719,0.11524 0.0441,0.0439 0.0864,0.0891 0.13086,0.13281 0.0434,0.0433 0.0871,0.0858 0.13086,0.12891 0.0428,0.0426 0.0838,0.0865 0.12695,0.1289 0.0373,0.0371 0.0738,0.0743 0.11133,0.11133 0.0528,0.0527 0.10487,0.10577 0.1582,0.1582 0.0356,0.0354 0.0716,0.0702 0.10742,0.10547 0.0408,0.0406 0.08,0.0825 0.1211,0.12305 0.0402,0.04 0.0806,0.0793 0.12109,0.11914 0.0395,0.0393 0.0774,0.0799 0.11719,0.11914 0.034,0.0339 0.0673,0.0678 0.10156,0.10156 0.0496,0.0494 0.0984,0.0992 0.14844,0.14844 0.0323,0.0322 0.0651,0.0636 0.0976,0.0957 0.0376,0.0374 0.0735,0.076 0.11133,0.11328 0.0369,0.0368 0.0742,0.0728 0.11133,0.10938 0.0369,0.0367 0.0722,0.0747 0.10938,0.11133 0.0359,0.0358 0.0712,0.0718 0.10742,0.10742 0.0295,0.0293 0.0583,0.0587 0.0879,0.0879 0.0463,0.0462 0.0919,0.0927 0.13867,0.13867 0.0281,0.0279 0.0557,0.0562 0.084,0.084 0.0337,0.0335 0.0677,0.0662 0.10157,0.0996 0.0279,0.0277 0.054,0.0564 0.082,0.084 0.044,0.0439 0.0864,0.0891 0.13086,0.13281 0.0206,0.0205 0.0418,0.0401 0.0625,0.0606 0.0376,0.0374 0.0735,0.076 0.11133,0.11328 0.0369,0.0367 0.0742,0.0728 0.11132,0.10938 0.0184,0.0182 0.0363,0.0365 0.0547,0.0547 0.0418,0.0416 0.0829,0.0836 0.125,0.125 0.0235,0.0233 0.0467,0.047 0.0703,0.0703 0.0288,0.0286 0.057,0.0574 0.0859,0.0859 0.0226,0.0225 0.0437,0.0459 0.0664,0.0684 0.0334,0.0332 0.066,0.0665 0.0996,0.0996 0.0336,0.0334 0.0677,0.0663 0.10156,0.0996 0.0203,0.0201 0.0402,0.0405 0.0605,0.0606 0.0207,0.0205 0.0398,0.042 0.0605,0.0625 0.0372,0.037 0.0739,0.0744 0.11133,0.11133 0.0189,0.0188 0.0376,0.0379 0.0566,0.0566 0.0245,0.0244 0.0496,0.0479 0.0742,0.0723 0.0242,0.024 0.048,0.0483 0.0723,0.0723 0.0174,0.0173 0.0333,0.0355 0.0508,0.0527 0.0346,0.0344 0.0687,0.0692 0.10351,0.10352 0.0105,0.0104 0.0207,0.0208 0.0312,0.0312 0.0282,0.028 0.0557,0.0561 0.084,0.084 0.0209,0.0208 0.0415,0.0418 0.0625,0.0625 0.0209,0.0208 0.0415,0.0418 0.0625,0.0625 0.0261,0.0259 0.0519,0.0523 0.0781,0.0781 0.008,0.008 0.0155,0.0156 0.0234,0.0234 0.0304,0.0302 0.0612,0.0597 0.0918,0.0898 0.0127,0.0126 0.0243,0.0265 0.0371,0.0391 0.018,0.0179 0.0366,0.0349 0.0547,0.0527 0.0177,0.0175 0.035,0.0352 0.0527,0.0527 0.007,0.007 0.0126,0.0146 0.0195,0.0215 0.003,0.003 0.008,0.008 0.0117,0.0117 0.0281,0.0279 0.0557,0.0561 0.084,0.084 0.0101,0.01 0.0211,0.0193 0.0312,0.0293 0.01,0.009 0.0178,0.0198 0.0273,0.0293 0.0206,0.0205 0.0398,0.042 0.0605,0.0625 0.0199,0.0197 0.0406,0.0389 0.0606,0.0586 0.008,0.008 0.0156,0.0157 0.0234,0.0234 0.0131,0.013 0.0259,0.0261 0.0391,0.0391 0.008,0.008 0.0155,0.0156 0.0234,0.0234 0.0229,0.0227 0.0454,0.0457 0.0684,0.0684 0,0 0.002,0.002 0.002,0.002 0.0158,0.0156 0.0311,0.0313 0.0469,0.0469 0.0163,0.0162 0.0325,0.0327 0.0488,0.0488 0.0216,0.0214 0.0428,0.0431 0.0645,0.0644 0.005,0.005 0.0103,0.0104 0.0156,0.0156 0.002,0.002 0.006,0.004 0.008,0.006 0.002,0.002 0.002,0.004 0.004,0.006 0.006,0.006 0.0152,0.0134 0.0215,0.0195 0.002,0.002 0.002,0.004 0.004,0.006 0.006,0.005 0.012,0.0101 0.0176,0.0156 0.002,0.002 0.004,0.004 0.006,0.006 0,0 0.002,0.002 0.002,0.002 0.002,0.002 0.002,0.004 0.004,0.006 0.002,0.002 0.006,0.004 0.008,0.006 0.002,0.002 0.004,0.004 0.006,0.006 0,0 0.002,0.002 0.002,0.002 0,0 0,0.002 0,0.002 0.002,0.002 0.004,0.004 0.006,0.006 0,0 0.002,0 0.002,0 0,0 0.002,0.002 0.002,0.002 0,0 0.002,0.002 0.002,0.002 0.001,9.9e-4 9.6e-4,0.003 0.002,0.004 0,0 0.002,0.002 0.002,0.002 0.001,0.001 0.003,0.003 0.004,0.004 0.002,0.002 0.004,0.004 0.006,0.006 0.005,0.005 0.0104,0.0104 0.0156,0.0156 0.003,0.003 0.005,0.005 0.008,0.008 0.001,0.001 0.003,0.003 0.004,0.004 0.003,0.003 0.005,0.005 0.008,0.008 0.007,0.007 0.013,0.013 0.0195,0.0195 3.2e-4,3.2e-4 0.002,-3.2e-4 0.002,0 0,0 0.002,0.002 0.002,0.002 0.001,0.001 0.003,0.003 0.004,0.004 3.4e-4,3.3e-4 -3.3e-4,0.002 0,0.002 0,0 0.002,0.002 0.002,0.002 0.001,10e-4 0.003,0.003 0.004,0.004 0,0 0.002,0.002 0.002,0.002 0,0 0.002,0.002 0.002,0.002 6.6e-4,6.6e-4 0.001,0.001 0.002,0.002 0.37643,0.37227 0.7663,0.7382 1.16797,1.09765 0.003,0.002 0.005,0.005 0.008,0.008 0.002,0.002 0.004,0.004 0.006,0.006 0.001,0.001 0.003,0.003 0.004,0.004 6.9e-4,6.2e-4 0.001,0.001 0.002,0.002 1.22642,1.09569 2.56857,2.13004 4.01367,3.09571 7.7e-4,5.1e-4 0.001,0.001 0.002,0.002 1.44527,0.96563 2.99487,1.86017 4.63476,2.67969 8e-4,3.9e-4 0.001,0.002 0.002,0.002 0.54618,0.27287 1.10198,0.53749 1.66796,0.79297 8e-4,3.6e-4 0.001,0.002 0.002,0.002 0.56604,0.25547 1.14161,0.50081 1.72656,0.73828 0.001,5.6e-4 0.003,0.001 0.004,0.002 0.58446,0.23721 1.17879,0.46493 1.78125,0.68359 7.9e-4,2.9e-4 10e-4,0.002 0.002,0.002 0.60308,0.21886 1.21572,0.42729 1.83594,0.62696 0.62042,0.19977 1.25003,0.39033 1.88672,0.57031 10e-4,3.9e-4 0.003,0.002 0.004,0.002 0.63597,0.17967 1.28034,0.34848 1.93164,0.50782 0.001,3.4e-4 0.003,0.002 0.004,0.002 4.56888,1.1177 9.50393,1.72854 14.65234,1.72851 23.53483,-6.2e-4 42.61313,-12.74805 42.61328,-28.47265 -0.0138,-0.93117 -0.0959,-1.86132 -0.24609,-2.78711 3.46428,-1.91508 5.6165,-5.55921 5.62109,-9.51758 -8e-5,-1.12841 -0.17352,-2.2167 -0.49218,-3.24023 -0.10563,-0.33956 -0.22817,-0.67364 -0.36524,-0.99805 -5.7e-4,-0.001 -0.001,-0.003 -0.002,-0.004 -0.26311,-0.62128 -0.5843,-1.21161 -0.95313,-1.76758 -0.0178,-0.0268 -0.0328,-0.0554 -0.0508,-0.082 -0.19517,-0.28887 -0.40374,-0.5677 -0.625,-0.83593 -5.8e-4,-7.2e-4 -0.001,-0.001 -0.002,-0.002 -10e-4,-10e-4 -0.003,-0.002 -0.004,-0.004 -0.002,-0.002 -0.004,-0.004 -0.006,-0.006 -0.21877,-0.26427 -0.44706,-0.51738 -0.68945,-0.75977 -0.001,-0.001 -0.003,-0.003 -0.004,-0.004 0,0 -0.002,-0.002 -0.002,-0.002 0,0 -0.002,-0.002 -0.002,-0.002 -9.9e-4,-9.9e-4 -0.005,-0.003 -0.006,-0.004 -6.5e-4,-6.5e-4 -0.001,-0.001 -0.002,-0.002 0,0 -0.002,-0.002 -0.002,-0.002 -3.1e-4,-3.1e-4 3.1e-4,-0.002 0,-0.002 0,0 -0.002,-0.002 -0.002,-0.002 0,0 -0.002,-0.002 -0.002,-0.002 -0.001,-0.001 -0.003,-9.5e-4 -0.004,-0.002 0,0 -0.002,-0.002 -0.002,-0.002 -9.7e-4,-9.6e-4 -9.9e-4,-0.003 -0.002,-0.004 -0.001,-0.001 -0.003,-9.5e-4 -0.004,-0.002 0,0 -0.002,-0.002 -0.002,-0.002 0,0 0,-0.002 0,-0.002 -0.001,-0.001 -0.003,-0.003 -0.004,-0.004 -0.002,-0.002 -0.006,-0.004 -0.008,-0.006 -0.002,-0.002 -0.004,-0.006 -0.006,-0.008 -0.005,-0.005 -0.009,-0.009 -0.0137,-0.0137 -0.005,-0.005 -0.0104,-0.0104 -0.0156,-0.0156 -0.005,-0.005 -0.0104,-0.0104 -0.0156,-0.0156 -0.006,-0.007 -0.013,-0.013 -0.0195,-0.0195 -0.006,-0.006 -0.013,-0.013 -0.0195,-0.0195 -0.004,-0.004 -0.008,-0.006 -0.0117,-0.01 -0.008,-0.008 -0.0156,-0.0156 -0.0234,-0.0234 -0.008,-0.008 -0.0153,-0.0172 -0.0234,-0.0254 -0.008,-0.008 -0.0169,-0.017 -0.0254,-0.0254 -0.009,-0.009 -0.0198,-0.0179 -0.0293,-0.0273 -0.01,-0.01 -0.0195,-0.0195 -0.0293,-0.0293 -0.0101,-0.0101 -0.0192,-0.0212 -0.0293,-0.0312 -0.0107,-0.0108 -0.0224,-0.0205 -0.0332,-0.0312 -0.0114,-0.0114 -0.0218,-0.0238 -0.0332,-0.0352 -0.012,-0.0121 -0.025,-0.0231 -0.0371,-0.0351 -0.0123,-0.0124 -0.0247,-0.0248 -0.0371,-0.0371 -0.013,-0.0131 -0.026,-0.0261 -0.0391,-0.0391 -0.0137,-0.0137 -0.0273,-0.0274 -0.041,-0.041 -0.014,-0.0141 -0.0289,-0.027 -0.043,-0.041 -0.0146,-0.0147 -0.0283,-0.0303 -0.043,-0.0449 -0.0117,-0.0118 -0.0234,-0.0234 -0.0352,-0.0352 -0.0221,-0.0223 -0.0441,-0.0443 -0.0664,-0.0664 -0.013,-0.0131 -0.026,-0.0261 -0.0391,-0.0391 -0.0169,-0.017 -0.0338,-0.0339 -0.0508,-0.0508 -0.0175,-0.0177 -0.0351,-0.0352 -0.0527,-0.0527 -0.0175,-0.0177 -0.0351,-0.0352 -0.0527,-0.0527 -0.0182,-0.0183 -0.0364,-0.0365 -0.0547,-0.0547 -0.0191,-0.0193 -0.0393,-0.0375 -0.0586,-0.0566 -0.0195,-0.0197 -0.0389,-0.0391 -0.0586,-0.0586 -0.0198,-0.02 -0.0386,-0.0408 -0.0586,-0.0605 -0.0204,-0.0206 -0.0419,-0.0401 -0.0625,-0.0606 -0.0211,-0.0213 -0.0412,-0.0434 -0.0625,-0.0644 -0.0217,-0.0219 -0.0445,-0.0427 -0.0664,-0.0645 -0.0221,-0.0223 -0.0441,-0.0443 -0.0664,-0.0664 -0.0224,-0.0226 -0.0438,-0.046 -0.0664,-0.0684 -0.0234,-0.0236 -0.0467,-0.047 -0.0703,-0.0703 -0.024,-0.0242 -0.048,-0.0483 -0.0723,-0.0723 -0.0243,-0.0246 -0.0497,-0.0479 -0.0742,-0.0723 -0.0243,-0.0246 -0.0477,-0.0499 -0.0723,-0.0742 -0.0224,-0.0226 -0.0458,-0.044 -0.0684,-0.0664 -0.0321,-0.0325 -0.0632,-0.0656 -0.0957,-0.0977 -0.0233,-0.0235 -0.0468,-0.047 -0.0703,-0.0703 -0.0269,-0.0272 -0.0549,-0.0532 -0.082,-0.0801 -0.0276,-0.0279 -0.0561,-0.0545 -0.084,-0.082 -0.0282,-0.0285 -0.0555,-0.0577 -0.084,-0.0859 -0.0282,-0.0285 -0.0574,-0.0558 -0.0859,-0.084 -0.0292,-0.0295 -0.0584,-0.0587 -0.0879,-0.0879 -0.0295,-0.0298 -0.0581,-0.0604 -0.0879,-0.0898 -0.0301,-0.0305 -0.0613,-0.0597 -0.0918,-0.0898 -0.0308,-0.0311 -0.0606,-0.063 -0.0918,-0.0937 -0.0314,-0.0318 -0.0639,-0.0623 -0.0957,-0.0937 -0.0314,-0.0318 -0.0619,-0.0643 -0.0937,-0.0957 -0.0327,-0.0331 -0.0665,-0.065 -0.0996,-0.0977 -0.0324,-0.0328 -0.0648,-0.0652 -0.0977,-0.0976 -0.0334,-0.0338 -0.0658,-0.0682 -0.0996,-0.10157 -0.034,-0.0345 -0.069,-0.0675 -0.10352,-0.10156 -0.0346,-0.0351 -0.0684,-0.0708 -0.10352,-0.10547 -0.0349,-0.0354 -0.0701,-0.0705 -0.10546,-0.10547 -0.0356,-0.0361 -0.0714,-0.0718 -0.10743,-0.10742 -0.0362,-0.0368 -0.0726,-0.0731 -0.10937,-0.10937 -0.0362,-0.0367 -0.0726,-0.0731 -0.10938,-0.10938 -0.0372,-0.0378 -0.0755,-0.0741 -0.11328,-0.11133 -0.0376,-0.0381 -0.0752,-0.0757 -0.11328,-0.11328 -0.0382,-0.0387 -0.0765,-0.0771 -0.11523,-0.11523 -0.0388,-0.0394 -0.0778,-0.0784 -0.11719,-0.11719 -0.0395,-0.0401 -0.0791,-0.0797 -0.11914,-0.11914 -0.0397,-0.0404 -0.0788,-0.0814 -0.11914,-0.12109 -0.0398,-0.0404 -0.0807,-0.0794 -0.1211,-0.11915 -0.0411,-0.0418 -0.0832,-0.0819 -0.125,-0.12304 -0.0417,-0.0424 -0.0826,-0.0853 -0.125,-0.12696 -0.0418,-0.0424 -0.0845,-0.0833 -0.12695,-0.125 -0.0424,-0.0431 -0.0839,-0.0865 -0.12695,-0.1289 -0.0433,-0.044 -0.0868,-0.0876 -0.13086,-0.13086 -0.0433,-0.044 -0.0868,-0.0876 -0.13086,-0.13086 -0.044,-0.0447 -0.0881,-0.0889 -0.13281,-0.13281 -0.0449,-0.0457 -0.091,-0.0899 -0.13672,-0.13477 -0.0449,-0.0457 -0.089,-0.0918 -0.13477,-0.13672 -0.0459,-0.0467 -0.0919,-0.0928 -0.13867,-0.13867 -0.0459,-0.0467 -0.092,-0.0928 -0.13867,-0.13867 -0.0469,-0.0477 -0.0949,-0.0937 -0.14258,-0.14063 -0.0471,-0.048 -0.0945,-0.0954 -0.14258,-0.14257 -0.0478,-0.0487 -0.0959,-0.0967 -0.14453,-0.14454 -0.0481,-0.049 -0.0955,-0.0984 -0.14453,-0.14648 -0.0488,-0.0497 -0.0987,-0.0977 -0.14844,-0.14648 -0.0498,-0.0507 -0.0996,-0.10064 -0.15039,-0.15039 -0.0497,-0.0507 -0.0997,-0.10068 -0.15039,-0.15039 -0.0506,-0.0516 -0.10069,-0.10367 -0.15234,-0.1543 -0.0507,-0.0517 -0.10262,-0.10168 -0.1543,-0.15235 -0.0516,-0.0526 -0.10359,-0.10464 -0.15625,-0.15625 -0.0519,-0.053 -0.10327,-0.10629 -0.15625,-0.1582 -0.0525,-0.0536 -0.10652,-0.10566 -0.16016,-0.1582 -0.0532,-0.0543 -0.10585,-0.10893 -0.16015,-0.16211 -0.0538,-0.055 -0.1091,-0.1083 -0.16406,-0.16211 -0.0539,-0.055 -0.10903,-0.10824 -0.16407,-0.16211 -0.0548,-0.056 -0.11001,-0.1112 -0.16601,-0.16602 -0.0551,-0.0563 -0.10969,-0.11285 -0.16602,-0.16796 -0.0558,-0.057 -0.11293,-0.11222 -0.16992,-0.16797 -0.0561,-0.0573 -0.11259,-0.11383 -0.16992,-0.16992 -0.0568,-0.0581 -0.11379,-0.11509 -0.17188,-0.17188 -0.0577,-0.059 -0.11484,-0.11812 -0.17383,-0.17578 -0.0577,-0.059 -0.11675,-0.11614 -0.17578,-0.17383 -0.0587,-0.0601 -0.11766,-0.11903 -0.17773,-0.17773 -0.059,-0.0604 -0.11734,-0.12068 -0.17773,-0.17969 -0.059,-0.0603 -0.11933,-0.11878 -0.17969,-0.17774 -0.0602,-0.0616 -0.12,-0.12339 -0.18164,-0.18359 -0.0606,-0.062 -0.12156,-0.12301 -0.1836,-0.18359 -0.0608,-0.0623 -0.12323,-0.12276 -0.18554,-0.1836 -0.0615,-0.063 -0.12257,-0.12603 -0.18555,-0.1875 -0.0621,-0.0636 -0.12581,-0.12539 -0.18945,-0.1875 -0.0627,-0.0643 -0.12515,-0.12867 -0.18946,-0.1914 -0.0631,-0.0647 -0.12669,-0.12829 -0.1914,-0.19141 -0.064,-0.0656 -0.12967,-0.12936 -0.19532,-0.19336 -0.0638,-0.0653 -0.12798,-0.12963 -0.19335,-0.19336 -0.0651,-0.0667 -0.13053,-0.13221 -0.19727,-0.19726 -0.0657,-0.0674 -0.1318,-0.13354 -0.19922,-0.19922 -0.065,-0.0667 -0.13056,-0.13227 -0.19727,-0.19727 -0.0662,-0.068 -0.13318,-0.13493 -0.20117,-0.20117 -0.067,-0.0687 -0.13437,-0.13617 -0.20312,-0.20312 -0.0675,-0.0693 -0.13576,-0.13758 -0.20508,-0.20508 -0.0678,-0.0697 -0.13736,-0.13725 -0.20703,-0.20508 -0.0685,-0.0703 -0.13669,-0.14052 -0.20703,-0.20899 -0.0694,-0.0713 -0.13961,-0.14154 -0.21094,-0.21093 -0.0264,-0.0271 -0.0495,-0.0572 -0.0762,-0.084 0.47945,0.08 0.96872,0.13266 1.4707,0.13281 4.92032,-7.4e-4 8.90853,-3.98983 8.9082,-8.91015 -1.3e-4,-0.9233 -0.14347,-1.81488 -0.40429,-2.65235 -0.0865,-0.27812 -0.18456,-0.55071 -0.29688,-0.8164 -3.4e-4,-8.1e-4 -0.002,-10e-4 -0.002,-0.002 -0.11214,-0.26508 -0.23671,-0.52417 -0.37305,-0.77539 -6.9e-4,-0.001 -0.001,-0.003 -0.002,-0.004 -8.6e-4,-0.002 -0.003,-0.002 -0.004,-0.004 -0.0984,-0.18113 -0.20998,-0.35407 -0.32031,-0.52734 -0.0425,-0.0666 -0.0788,-0.13771 -0.12305,-0.20313 -0.005,-0.008 -0.0121,-0.0153 -0.0176,-0.0234 -0.15543,-0.22819 -0.31874,-0.44979 -0.49414,-0.66211 -10e-4,-0.001 -0.003,-0.002 -0.004,-0.004 -0.002,-0.002 -0.004,-0.004 -0.006,-0.006 -0.17772,-0.21534 -0.36759,-0.42148 -0.56445,-0.61914 -9.9e-4,-9.9e-4 -9.7e-4,-0.003 -0.002,-0.004 0,0 -0.002,-0.002 -0.002,-0.002 0,0 -0.002,-0.002 -0.002,-0.002 -9.9e-4,-9.9e-4 -0.003,-9.6e-4 -0.004,-0.002 0,0 -0.002,-0.002 -0.002,-0.002 -3.1e-4,-3.1e-4 -0.002,-0.002 -0.002,-0.002 0,0 -0.002,-0.002 -0.002,-0.002 0,0 0,-0.002 0,-0.002 0,0 -0.002,-0.002 -0.002,-0.002 0,0 -0.002,-0.002 -0.002,-0.002 -0.001,-0.001 -0.005,-0.003 -0.006,-0.004 -9.7e-4,-9.6e-4 -0.001,-0.003 -0.002,-0.004 -0.001,-0.001 -0.005,-0.003 -0.006,-0.004 0,0 0,-0.002 0,-0.002 -0.001,-0.001 -0.003,-0.003 -0.004,-0.004 -0.002,-0.002 -0.006,-0.004 -0.008,-0.006 0,0 0,-0.002 0,-0.002 -0.002,-0.002 -0.004,-0.004 -0.006,-0.006 -0.005,-0.005 -0.009,-0.009 -0.0137,-0.0137 -0.005,-0.005 -0.0107,-0.009 -0.0156,-0.0137 0,0 -0.002,-0.002 -0.002,-0.002 -0.0114,-0.0114 -0.0218,-0.0238 -0.0332,-0.0352 -0.006,-0.006 -0.013,-0.013 -0.0195,-0.0195 -0.007,-0.007 -0.0159,-0.014 -0.0234,-0.0215 -0.004,-0.004 -0.008,-0.008 -0.0117,-0.0117 -0.004,-0.004 -0.01,-0.01 -0.0137,-0.0137 -0.0123,-0.0124 -0.0247,-0.0248 -0.0371,-0.0371 -0.009,-0.009 -0.0182,-0.0182 -0.0273,-0.0273 -0.01,-0.01 -0.0195,-0.0195 -0.0293,-0.0293 -0.0101,-0.0101 -0.0192,-0.0212 -0.0293,-0.0312 -0.0107,-0.0108 -0.0224,-0.0205 -0.0332,-0.0312 -0.0117,-0.0118 -0.0234,-0.0235 -0.0352,-0.0352 -0.0117,-0.0118 -0.0234,-0.0234 -0.0352,-0.0352 -0.0124,-0.0124 -0.0247,-0.0247 -0.0371,-0.0371 -0.013,-0.0131 -0.026,-0.0261 -0.0391,-0.0391 -0.0136,-0.0137 -0.0273,-0.0274 -0.041,-0.041 -0.014,-0.0141 -0.0289,-0.027 -0.043,-0.041 -0.0146,-0.0147 -0.0282,-0.0303 -0.043,-0.0449 -0.0182,-0.0183 -0.0363,-0.0365 -0.0547,-0.0547 -0.009,-0.009 -0.0198,-0.0179 -0.0293,-0.0273 -0.0191,-0.0193 -0.0373,-0.0394 -0.0566,-0.0586 -0.0201,-0.0203 -0.0402,-0.0405 -0.0606,-0.0605 -0.0139,-0.014 -0.0289,-0.0271 -0.043,-0.041 -0.0179,-0.018 -0.0367,-0.0349 -0.0547,-0.0527 -0.0153,-0.0154 -0.0296,-0.0316 -0.0449,-0.0469 -0.0217,-0.022 -0.0425,-0.0447 -0.0645,-0.0664 -0.0198,-0.02 -0.0406,-0.0388 -0.0605,-0.0586 -0.0198,-0.02 -0.0386,-0.0408 -0.0586,-0.0605 -0.0204,-0.0206 -0.0419,-0.0401 -0.0625,-0.0606 -0.0211,-0.0213 -0.0412,-0.0434 -0.0625,-0.0644 -0.0217,-0.022 -0.0445,-0.0427 -0.0664,-0.0645 -0.022,-0.0223 -0.0441,-0.0444 -0.0664,-0.0664 -0.0224,-0.0226 -0.0438,-0.046 -0.0664,-0.0684 -0.0262,-0.0265 -0.0535,-0.0519 -0.0801,-0.0781 -0.0204,-0.0206 -0.0419,-0.0401 -0.0625,-0.0605 -0.0211,-0.0213 -0.0412,-0.0434 -0.0625,-0.0645 -0.0284,-0.0289 -0.0571,-0.0574 -0.0859,-0.0859 -0.0282,-0.0285 -0.0574,-0.0558 -0.0859,-0.084 -0.0198,-0.02 -0.0386,-0.0408 -0.0586,-0.0606 -0.0294,-0.0299 -0.0581,-0.0604 -0.0879,-0.0898 -0.0269,-0.0272 -0.0548,-0.0532 -0.082,-0.0801 -0.0272,-0.0276 -0.0545,-0.0548 -0.082,-0.082 -0.0282,-0.0285 -0.0574,-0.0558 -0.0859,-0.084 -0.0288,-0.0292 -0.0567,-0.0591 -0.0859,-0.0879 -0.0288,-0.0292 -0.0587,-0.0571 -0.0879,-0.0859 -0.0295,-0.0299 -0.058,-0.0604 -0.0879,-0.0898 -0.0304,-0.0308 -0.061,-0.0614 -0.0918,-0.0918 -0.0307,-0.0312 -0.0626,-0.0611 -0.0937,-0.0918 -0.0308,-0.0312 -0.0606,-0.063 -0.0918,-0.0937 -0.032,-0.0325 -0.0652,-0.0637 -0.0977,-0.0957 -0.032,-0.0325 -0.0632,-0.0656 -0.0957,-0.0977 -0.0359,-0.0364 -0.0729,-0.0716 -0.10937,-0.10742 -0.0308,-0.0312 -0.0625,-0.0611 -0.0937,-0.0918 -0.0307,-0.0312 -0.0606,-0.063 -0.0918,-0.0937 -0.0371,-0.0378 -0.0735,-0.0761 -0.11133,-0.11328 -0.0349,-0.0355 -0.07,-0.0706 -0.10547,-0.10547 -0.0384,-0.0391 -0.078,-0.0769 -0.11718,-0.11523 -0.0298,-0.0302 -0.0597,-0.0601 -0.0899,-0.0898 -0.0426,-0.0434 -0.0855,-0.0863 -0.1289,-0.1289 -0.031,-0.0315 -0.0623,-0.0627 -0.0937,-0.0937 -0.0409,-0.0418 -0.0813,-0.084 -0.12305,-0.125 -0.0378,-0.0385 -0.0768,-0.0755 -0.11523,-0.11328 -0.0387,-0.0395 -0.0777,-0.0785 -0.11719,-0.11719 -0.039,-0.0398 -0.0774,-0.0801 -0.11719,-0.11914 -0.0397,-0.0404 -0.0807,-0.0795 -0.12109,-0.11914 -0.0404,-0.0411 -0.0819,-0.0807 -0.12305,-0.1211 -0.041,-0.0418 -0.0812,-0.084 -0.12305,-0.125 -0.041,-0.0418 -0.0832,-0.082 -0.125,-0.12304 -0.042,-0.0428 -0.0841,-0.085 -0.12695,-0.12696 -0.0422,-0.0431 -0.0838,-0.0866 -0.12695,-0.1289 -0.0429,-0.0438 -0.0871,-0.086 -0.13086,-0.12891 -0.0435,-0.0445 -0.0864,-0.0893 -0.13086,-0.13281 -0.0442,-0.0451 -0.0897,-0.0887 -0.13477,-0.13281 -0.0442,-0.0451 -0.0877,-0.0906 -0.13281,-0.13477 -0.048,-0.049 -0.0974,-0.0966 -0.14648,-0.14453 -0.0394,-0.0401 -0.079,-0.0798 -0.11914,-0.11914 -0.0521,-0.0534 -0.10478,-0.10608 -0.15821,-0.1582 -0.0406,-0.0414 -0.0816,-0.0824 -0.12305,-0.12305 -0.0505,-0.0518 -0.10061,-0.10375 -0.15234,-0.1543 -0.0474,-0.0485 -0.0961,-0.0952 -0.14453,-0.14258 -0.0509,-0.0521 -0.10211,-0.10344 -0.1543,-0.15429 -0.0461,-0.0471 -0.0935,-0.0926 -0.14062,-0.13868 -0.0467,-0.0478 -0.0928,-0.0958 -0.14063,-0.14257 -0.0527,-0.0541 -0.10606,-0.10739 -0.16015,-0.16016 -0.0496,-0.0508 -0.0996,-0.10078 -0.15039,-0.15039 -0.0511,-0.0524 -0.10188,-0.10509 -0.1543,-0.15625 -0.0512,-0.0525 -0.10378,-0.10311 -0.15625,-0.1543 -0.0518,-0.0531 -0.10312,-0.10638 -0.15625,-0.1582 -0.0531,-0.0544 -0.10768,-0.10711 -0.16211,-0.16016 -0.0525,-0.0538 -0.10631,-0.10572 -0.16016,-0.1582 -0.0534,-0.0548 -0.10726,-0.10865 -0.16211,-0.16211 -0.054,-0.0554 -0.10666,-0.112 -0.1621,-0.16601 -0.0547,-0.0561 -0.11187,-0.10941 -0.16797,-0.16407 -0.055,-0.0565 -0.10952,-0.11294 -0.16602,-0.16797 -0.0557,-0.0572 -0.11275,-0.11231 -0.16992,-0.16796 -0.0592,-0.0608 -0.11879,-0.12058 -0.17969,-0.17969 -0.0512,-0.0524 -0.10185,-0.10511 -0.1543,-0.15625 -0.0594,-0.0612 -0.12049,-0.1202 -0.18164,-0.17969 -0.0607,-0.0624 -0.12108,-0.12493 -0.18359,-0.18555 -0.0554,-0.0568 -0.11305,-0.11072 -0.16992,-0.16601 -0.0556,-0.0572 -0.11088,-0.11426 -0.16797,-0.16992 -0.0629,-0.0649 -0.12661,-0.12848 -0.19141,-0.19141 -0.0617,-0.0635 -0.12391,-0.12587 -0.1875,-0.1875 -0.0553,-0.0568 -0.11119,-0.11268 -0.16797,-0.16797 -0.0635,-0.0656 -0.12785,-0.12975 -0.19336,-0.19336 -0.0614,-0.0632 -0.12235,-0.12615 -0.18554,-0.1875 -0.062,-0.0639 -0.1256,-0.12552 -0.18946,-0.1875 -0.0649,-0.0668 -0.13033,-0.13247 -0.19726,-0.19726 -0.0578,-0.0594 -0.11634,-0.11796 -0.17578,-0.17578 -0.0661,-0.0683 -0.13299,-0.13504 -0.20117,-0.20118 -0.0667,-0.0688 -0.13424,-0.1365 -0.20313,-0.20312 -0.062,-0.0638 -0.12554,-0.12556 -0.18945,-0.1875 -0.0626,-0.0646 -0.12496,-0.12875 -0.18945,-0.19141 -0.0685,-0.0709 -0.13815,-0.1404 -0.20899,-0.20898 -0.0684,-0.0705 -0.13833,-0.13878 -0.20898,-0.20703 -0.0613,-0.0631 -0.12241,-0.1262 -0.18555,-0.1875 -0.0698,-0.0722 -0.14073,-0.14304 -0.21289,-0.21289 -0.0677,-0.0699 -0.1371,-0.13741 -0.20703,-0.20508 -0.0677,-0.0699 -0.13516,-0.13935 -0.20508,-0.20703 -0.0692,-0.0715 -0.13942,-0.14175 -0.21094,-0.21094 -0.0698,-0.0722 -0.14067,-0.1431 -0.21289,-0.21289 -0.0693,-0.0716 -0.13934,-0.14171 -0.21094,-0.21094 -0.0702,-0.0726 -0.14222,-0.1427 -0.21484,-0.21289 -0.0708,-0.0733 -0.14156,-0.14598 -0.21484,-0.2168 -0.0715,-0.0739 -0.14479,-0.14535 -0.21875,-0.21679 -0.0743,-0.077 -0.14952,-0.15232 -0.22657,-0.22657 -0.0673,-0.0695 -0.13555,-0.13777 -0.20507,-0.20507 -0.0755,-0.0784 -0.15217,-0.15488 -0.23047,-0.23047 -0.0768,-0.0796 -0.15468,-0.15771 -0.23438,-0.23438 -0.0686,-0.0708 -0.1381,-0.14044 -0.20898,-0.20898 -0.077,-0.08 -0.15444,-0.15927 -0.23438,-0.23633 -0.074,-0.0766 -0.14991,-0.15065 -0.22656,-0.22461 -0.0761,-0.079 -0.15347,-0.1563 -0.23242,-0.23242 -0.0781,-0.081 -0.15719,-0.16028 -0.23828,-0.23828 -0.0718,-0.0743 -0.14448,-0.14698 -0.21875,-0.21875 -0.0821,-0.0854 -0.16659,-0.16792 -0.25196,-0.25 -0.0734,-0.076 -0.14666,-0.15127 -0.22265,-0.22461 -0.0811,-0.0844 -0.16371,-0.16692 -0.24805,-0.24805 -0.0777,-0.0807 -0.15562,-0.16058 -0.23633,-0.23828 -0.0821,-0.0853 -0.16653,-0.16804 -0.25195,-0.25 -0.0736,-0.0762 -0.14837,-0.15102 -0.22461,-0.22461 -0.0855,-0.0891 -0.17266,-0.17621 -0.26172,-0.26172 -0.0758,-0.0786 -0.15381,-0.15467 -0.23242,-0.23047 -0.0845,-0.0881 -0.16976,-0.17516 -0.25781,-0.25976 -0.0812,-0.0844 -0.16362,-0.16689 -0.24805,-0.24805 -0.0849,-0.0883 -0.17129,-0.17498 -0.25977,-0.25977 -0.077,-0.08 -0.15637,-0.15732 -0.23632,-0.23437 -0.0886,-0.0925 -0.17901,-0.18284 -0.27149,-0.27148 -0.0792,-0.0823 -0.15985,-0.16294 -0.24219,-0.24219 -0.0876,-0.0915 -0.17612,-0.18183 -0.26757,-0.26953 -0.084,-0.0875 -0.17031,-0.17188 -0.25782,-0.25586 -0.0881,-0.0918 -0.17764,-0.1816 -0.26953,-0.26953 -0.0834,-0.0868 -0.16898,-0.17058 -0.25586,-0.25391 -0.0864,-0.0901 -0.17354,-0.17919 -0.26367,-0.26563 -0.0848,-0.0884 -0.17139,-0.17486 -0.25976,-0.25976 -0.0886,-0.0926 -0.17897,-0.18274 -0.27149,-0.27149 -0.0889,-0.0928 -0.17868,-0.18449 -0.27148,-0.27343 -0.0884,-0.0922 -0.17926,-0.18118 -0.27149,-0.26953 -0.0899,-0.0938 -0.1815,-0.18556 -0.27539,-0.2754 -0.0893,-0.0931 -0.18021,-0.18423 -0.27344,-0.27343 -0.0905,-0.0945 -0.18276,-0.1869 -0.27734,-0.27735 -0.0919,-0.0959 -0.18521,-0.18952 -0.28125,-0.28125 -0.0867,-0.0905 -0.17518,-0.17889 -0.26562,-0.26562 -0.0939,-0.0984 -0.18883,-0.19505 -0.28711,-0.28906 -0.0921,-0.0963 -0.1869,-0.18917 -0.28321,-0.28125 -0.0927,-0.097 -0.18814,-0.19047 -0.28515,-0.28321 -0.0927,-0.097 -0.18621,-0.1924 -0.28321,-0.28515 -0.0942,-0.0986 -0.19046,-0.19484 -0.28906,-0.28907 -0.0942,-0.0986 -0.19044,-0.19486 -0.28906,-0.28906 -0.0948,-0.0993 -0.19172,-0.19618 -0.29102,-0.29101 -0.0952,-0.0997 -0.19323,-0.1958 -0.29297,-0.29102 -0.0952,-0.0997 -0.19129,-0.19773 -0.29101,-0.29297 -0.0967,-0.10134 -0.19556,-0.20017 -0.29688,-0.29687 -0.0977,-0.10233 -0.19838,-0.20124 -0.30078,-0.29883 -0.0965,-0.10107 -0.19381,-0.20043 -0.29492,-0.29688 -0.10111,-0.106 -0.20436,-0.20962 -0.31055,-0.31054 -0.0959,-0.10021 -0.19451,-0.19732 -0.29492,-0.29297 -0.0967,-0.10135 -0.19555,-0.20017 -0.29687,-0.29688 -0.10167,-0.10681 -0.20569,-0.21083 -0.3125,-0.3125 -0.10057,-0.10547 -0.203,-0.20815 -0.3086,-0.30859 -0.0974,-0.10211 -0.19672,-0.20143 -0.29883,-0.29883 -0.10261,-0.10794 -0.20659,-0.21371 -0.31445,-0.3164 -0.10143,-0.10653 -0.20595,-0.20914 -0.3125,-0.31055 -0.10204,-0.10721 -0.20527,-0.21243 -0.3125,-0.31445 -0.1049,-0.11025 -0.21384,-0.21556 -0.32422,-0.32032 -0.0989,-0.10371 -0.19897,-0.20583 -0.30273,-0.30468 -0.10508,-0.11068 -0.21167,-0.21906 -0.32227,-0.32422 -0.10731,-0.11286 -0.21898,-0.22102 -0.33203,-0.32813 -0.10241,-0.10739 -0.20683,-0.21227 -0.31445,-0.31445 -0.10258,-0.10783 -0.20663,-0.21382 -0.31445,-0.31641 -0.10783,-0.11364 -0.2184,-0.2242 -0.33204,-0.33203 -0.10517,-0.11064 -0.21352,-0.21714 -0.32421,-0.32226 -0.10662,-0.11226 -0.21389,-0.2235 -0.32618,-0.33008 -0.10722,-0.11295 -0.21907,-0.22091 -0.33203,-0.32813 -0.10762,-0.11339 -0.21667,-0.22442 -0.33008,-0.33203 -0.10727,-0.11306 -0.21705,-0.22276 -0.33007,-0.33008 -0.10936,-0.11538 -0.22255,-0.22653 -0.33789,-0.33594 -0.10911,-0.11502 -0.22089,-0.22686 -0.33594,-0.33593 -0.10971,-0.11572 -0.22217,-0.22819 -0.33789,-0.33789 -0.11009,-0.11613 -0.22175,-0.22977 -0.33789,-0.33985 -0.11071,-0.11681 -0.22497,-0.22915 -0.3418,-0.33984 -0.11132,-0.1175 -0.22428,-0.23245 -0.3418,-0.34375 -0.1132,-0.11952 -0.23,-0.23455 -0.34961,-0.34766 -0.10946,-0.11543 -0.22049,-0.22844 -0.33593,-0.33789 -0.11403,-0.12061 -0.23102,-0.23746 -0.35157,-0.35156 -0.11401,-0.12045 -0.23104,-0.23762 -0.35156,-0.35156 -0.11374,-0.1201 -0.23135,-0.23599 -0.35156,-0.34961 -0.11436,-0.12078 -0.23066,-0.23928 -0.35156,-0.35352 -0.11317,-0.11955 -0.23004,-0.23451 -0.34961,-0.34765 -0.11611,-0.12293 -0.23455,-0.24322 -0.35742,-0.35938 -0.11562,-0.1223 -0.23511,-0.23987 -0.35743,-0.35547 -0.11899,-0.12591 -0.24109,-0.24837 -0.36718,-0.36718 -0.11542,-0.12187 -0.2334,-0.24028 -0.35547,-0.35547 -0.11522,-0.12187 -0.2336,-0.24026 -0.35547,-0.35547 -0.11898,-0.12613 -0.2411,-0.24818 -0.36719,-0.36719 -0.11838,-0.12542 -0.23981,-0.24685 -0.36523,-0.36523 -0.12028,-0.12743 -0.24356,-0.25094 -0.3711,-0.3711 -0.11812,-0.12503 -0.24011,-0.24525 -0.36523,-0.36328 -0.11889,-0.12604 -0.24119,-0.24825 -0.36719,-0.36719 -0.11985,-0.1272 -0.24206,-0.25111 -0.36914,-0.37109 -0.12318,-0.13083 -0.25004,-0.25767 -0.38086,-0.38086 -0.12057,-0.12781 -0.24517,-0.25058 -0.37305,-0.37109 -0.12419,-0.13179 -0.25086,-0.26075 -0.38281,-0.38477 -0.12028,-0.1274 -0.24355,-0.25096 -0.37109,-0.37109 -0.12288,-0.13047 -0.25038,-0.25604 -0.38086,-0.37891 -0.12194,-0.12949 -0.24754,-0.25495 -0.37696,-0.37695 -0.12413,-0.13205 -0.2509,-0.26049 -0.38281,-0.38477 -0.12558,-0.13361 -0.25513,-0.26301 -0.38867,-0.38867 -0.12483,-0.13265 -0.25404,-0.25996 -0.38672,-0.38477 -0.12881,-0.13693 -0.26126,-0.26986 -0.39844,-0.39843 -0.12142,-0.12871 -0.24617,-0.2537 -0.375,-0.375 -0.12869,-0.13706 -0.26138,-0.26974 -0.39843,-0.39844 -0.12514,-0.13303 -0.2537,-0.26158 -0.38672,-0.38672 -0.12866,-0.13709 -0.26142,-0.2697 -0.39844,-0.39844 -0.12787,-0.1361 -0.25841,-0.26863 -0.39453,-0.39648 -0.12964,-0.13803 -0.26422,-0.27085 -0.40234,-0.40039 -0.12878,-0.13698 -0.26131,-0.26983 -0.39844,-0.39844 -0.12884,-0.13713 -0.26123,-0.26969 -0.39844,-0.39844 -0.13223,-0.14091 -0.2691,-0.27612 -0.41016,-0.4082 -0.12753,-0.13565 -0.25879,-0.26709 -0.39453,-0.39453 -0.13212,-0.14102 -0.26725,-0.27797 -0.4082,-0.41016 -0.13156,-0.14028 -0.2679,-0.27471 -0.4082,-0.40625 -0.13217,-0.14097 -0.26721,-0.27801 -0.40821,-0.41015 -0.13181,-0.14065 -0.2676,-0.27635 -0.4082,-0.40821 -0.13385,-0.14297 -0.27309,-0.28016 -0.41602,-0.41406 -0.13463,-0.1437 -0.2722,-0.28344 -0.41601,-0.41797 -0.1309,-0.13962 -0.26669,-0.27334 -0.40625,-0.40429 -0.13557,-0.14514 -0.27501,-0.28607 -0.41992,-0.42188 -0.13502,-0.1444 -0.27566,-0.28281 -0.41992,-0.41797 -0.13658,-0.14612 -0.27779,-0.28717 -0.42383,-0.42383 -0.13729,-0.14671 -0.27895,-0.28862 -0.42578,-0.42578 -0.13555,-0.14477 -0.27507,-0.28446 -0.41993,-0.41992 -0.13701,-0.14652 -0.27729,-0.28878 -0.42382,-0.42578 -0.13878,-0.14844 -0.28311,-0.29102 -0.43164,-0.42969 -0.13822,-0.1477 -0.27985,-0.29167 -0.42774,-0.42969 -0.13767,-0.14716 -0.28046,-0.28822 -0.42773,-0.42578 -0.13914,-0.14897 -0.28267,-0.292497 -0.43164,-0.431638 -0.13967,-0.149528 -0.28403,-0.29397 -0.4336,-0.433594 -0.14025,-0.150236 -0.2853,-0.295303 -0.43554,-0.435547 -0.14065,-0.150679 -0.28485,-0.296871 -0.43555,-0.4375 -0.14,-0.150027 -0.28558,-0.293525 -0.43555,-0.433593 -0.14262,-0.153057 -0.29038,-0.300654 -0.44336,-0.44336 -0.14333,-0.153648 -0.29154,-0.302113 -0.44531,-0.445312 -0.14161,-0.151705 -0.28766,-0.297939 -0.43945,-0.439454 -0.1431,-0.153491 -0.2918,-0.300285 -0.44532,-0.443359 -0.14484,-0.155414 -0.2937,-0.306438 -0.44921,-0.451172 -0.14459,-0.154991 -0.29402,-0.304861 -0.44922,-0.449219 -0.14219,-0.152421 -0.28894,-0.299264 -0.44141,-0.441406 -0.14624,-0.157229 -0.29793,-0.308753 -0.45508,-0.455078 -0.14757,-0.158491 -0.30032,-0.311592 -0.45898,-0.458984 -0.14111,-0.151315 -0.28821,-0.296311 -0.43945,-0.4375 -0.14855,-0.16016 -0.30305,-0.314009 -0.4629,-0.462891 -0.14899,-0.160345 -0.30256,-0.315831 -0.46289,-0.464844 -0.1461,-0.156962 -0.29809,-0.307041 -0.45507,-0.453125 -0.14973,-0.161152 -0.30367,-0.317092 -0.46485,-0.466796 -0.14594,-0.156876 -0.29828,-0.307107 -0.45508,-0.453126 -0.15116,-0.162994 -0.30785,-0.319393 -0.4707,-0.470703 -0.14973,-0.161152 -0.30367,-0.317092 -0.46484,-0.466797 -0.14908,-0.160499 -0.30442,-0.313739 -0.46485,-0.46289 -0.15167,-0.163533 -0.30921,-0.320888 -0.47265,-0.472656 -0.1524,-0.164122 -0.31036,-0.322358 -0.47461,-0.47461 -0.15069,-0.162179 -0.30648,-0.318166 -0.46875,-0.46875 -0.15214,-0.163943 -0.30869,-0.3225 -0.47266,-0.474609 -0.15273,-0.16464 -0.3119,-0.321901 -0.47656,-0.474609 -0.15334,-0.16534 -0.3112,-0.325206 -0.47656,-0.478516 -0.15457,-0.166712 -0.31564,-0.325985 -0.48243,-0.480469 -0.15167,-0.1635 -0.30921,-0.320919 -0.47265,-0.472656 -0.15626,-0.168907 -0.31755,-0.331894 -0.48633,-0.488281 -0.15627,-0.168654 -0.31951,-0.330183 -0.48828,-0.486328 -0.15604,-0.168261 -0.31784,-0.330533 -0.48633,-0.486329 -0.15604,-0.16826 -0.31783,-0.330532 -0.48633,-0.486328 -0.15423,-0.166415 -0.31405,-0.326231 -0.48047,-0.480469 -0.15856,-0.171597 -0.3246,-0.335452 -0.49609,-0.49414 -0.15756,-0.170268 -0.31994,-0.334651 -0.49023,-0.492188 -0.16146,-0.174528 -0.32909,-0.342759 -0.50391,-0.503906 -0.15482,-0.166863 -0.31536,-0.327821 -0.48242,-0.482422 -0.16135,-0.17463 -0.32919,-0.342651 -0.50391,-0.503906 -0.15726,-0.169888 -0.3203,-0.333025 -0.49023,-0.490234 -0.16126,-0.174721 -0.32928,-0.342555 -0.50391,-0.503907 -0.16055,-0.173767 -0.32816,-0.339473 -0.50195,-0.5 -0.16447,-0.178064 -0.33531,-0.349516 -0.51367,-0.513671 -0.15814,-0.170712 -0.32125,-0.336247 -0.49219,-0.494141 -0.16407,-0.177787 -0.33577,-0.34778 -0.51367,-0.511719 -0.15996,-0.173068 -0.32496,-0.34007 -0.49805,-0.5 -0.16454,-0.178606 -0.33714,-0.349011 -0.51563,-0.513672 -0.16354,-0.177275 -0.33246,-0.348204 -0.50976,-0.511718 -0.16556,-0.179512 -0.33792,-0.352177 -0.51758,-0.517579 -0.16474,-0.17841 -0.33694,-0.34922 -0.51562,-0.513671 -0.16393,-0.177579 -0.33399,-0.347961 -0.51172,-0.511719 -0.16626,-0.180439 -0.33904,-0.353334 -0.51953,-0.519531 -0.16566,-0.179732 -0.3378,-0.351981 -0.51758,-0.517579 -0.16682,-0.181167 -0.34032,-0.354663 -0.52149,-0.521484 -0.16714,-0.181522 -0.34189,-0.354366 -0.52343,-0.521484 -0.16775,-0.182227 -0.34119,-0.357676 -0.52344,-0.525391 -0.16677,-0.181219 -0.34037,-0.354608 -0.52149,-0.521484 -0.16991,-0.184964 -0.34836,-0.361204 -0.5332,-0.53125 -0.1691,-0.183814 -0.34349,-0.362193 -0.52734,-0.53125 -0.16968,-0.18453 -0.34866,-0.359632 -0.53321,-0.529297 -0.17012,-0.18504 -0.34618,-0.363109 -0.53125,-0.533203 -0.16914,-0.184033 -0.34537,-0.360039 -0.52929,-0.529297 -0.17292,-0.188457 -0.35458,-0.368029 -0.54297,-0.541016 -0.17071,-0.18574 -0.34744,-0.364471 -0.53321,-0.535156 -0.17247,-0.187882 -0.35315,-0.366565 -0.54101,-0.539063 -0.17423,-0.189743 -0.355,-0.372834 -0.54492,-0.546875 -0.16998,-0.184878 -0.34831,-0.36129 -0.53321,-0.53125 -0.17496,-0.19095 -0.358,-0.373737 -0.54882,-0.548828 -0.17385,-0.189472 -0.35544,-0.37109 -0.54493,-0.544922 -0.17333,-0.188997 -0.35407,-0.369522 -0.54296,-0.542968 -0.17644,-0.192715 -0.36015,-0.378116 -0.55274,-0.554688 -0.17546,-0.191381 -0.35937,-0.373394 -0.55078,-0.548828 -0.17606,-0.192088 -0.35867,-0.376706 -0.55078,-0.552734 -0.17665,-0.192793 -0.36187,-0.376116 -0.55469,-0.552735 -0.1757,-0.191819 -0.35907,-0.374962 -0.55078,-0.550781 -0.1788,-0.195538 -0.36514,-0.383562 -0.56055,-0.5625 -0.17845,-0.194883 -0.36558,-0.380229 -0.56054,-0.558594 -0.17491,-0.191006 -0.35806,-0.373678 -0.54883,-0.548828 -0.18042,-0.197796 -0.36902,-0.3875 -0.56641,-0.568359 -0.18119,-0.198337 -0.37204,-0.387089 -0.57031,-0.56836 -0.17934,-0.195972 -0.36647,-0.38322 -0.5625,-0.5625 -0.17925,-0.196058 -0.36655,-0.383128 -0.5625,-0.5625 -1.62903,-1.784824 -3.96741,-2.911716 -6.57422,-2.912109 z"
       id="path7724"
       clip-path="url(#clipPath4914)"
       inkscape:connector-curvature="0"
       transform="matrix(1.03,0,0,1.03,-2.6000967,-3.275035)" />
    <g
       id="g7630"
       style="filter:url(#filter4208)"
       transform="matrix(1.03,0,0,1.03,-2.6000967,-3.275035)">
      <path
         style="fill:#ffffff;fill-opacity:1;fill-rule:evenodd;stroke:none;stroke-width:1px;stroke-linecap:butt;stroke-linejoin:miter;stroke-opacity:1"
         d="m 94.633333,77.866667 6.499997,-20.499999 c 0,0 0.27453,-0.586744 0.8,-0.9 0.58459,-0.3485 1.26667,-0.2 1.26667,-0.2 l 17.23333,4.033333 -0.83333,3.6 -15.5,-3.633333 -5.600001,17.633333 z"
         id="path7628"
         inkscape:connector-curvature="0"
         sodipodi:nodetypes="ccscccccc" />
      <ellipse
         style="opacity:1;fill:#ffffff;fill-opacity:1;fill-rule:nonzero;stroke:none;stroke-width:3.66300011;stroke-linecap:butt;stroke-linejoin:miter;stroke-miterlimit:4;stroke-dasharray:none;stroke-dashoffset:0;stroke-opacity:1"
         id="path6014"
         cx="95.600838"
         cy="106.20438"
         rx="42.614967"
         ry="28.472834" />
      <circle
         style="opacity:1;fill:#ffffff;fill-opacity:1;fill-rule:nonzero;stroke:none;stroke-width:3.66300011;stroke-linecap:butt;stroke-linejoin:miter;stroke-miterlimit:4;stroke-dasharray:none;stroke-dashoffset:0;stroke-opacity:1"
         id="path6018"
         cx="59.114128"
         cy="94.042145"
         r="10.936584" />
      <circle
         style="opacity:1;fill:#ffffff;fill-opacity:1;fill-rule:nonzero;stroke:none;stroke-width:3.66300011;stroke-linecap:butt;stroke-linejoin:miter;stroke-miterlimit:4;stroke-dasharray:none;stroke-dashoffset:0;stroke-opacity:1"
         id="path6020"
         cx="132.70036"
         cy="93.900719"
         r="10.889444" />
      <circle
         style="opacity:1;fill:#ffffff;fill-opacity:1;fill-rule:nonzero;stroke:none;stroke-width:3.66300011;stroke-linecap:butt;stroke-linejoin:miter;stroke-miterlimit:4;stroke-dasharray:none;stroke-dashoffset:0;stroke-opacity:1"
         id="path6022"
         cx="128.1749"
         cy="63.730835"
         r="8.9095449" />
    </g>
    <g
       style="opacity:0.2;fill:#000000;fill-opacity:1"
       id="g4887"
       transform="matrix(1.03,0,0,1.03,-2.6000967,-3.275035)">
      <path
         sodipodi:nodetypes="ccscccccc"
         inkscape:connector-curvature="0"
         id="path4889"
         d="m 94.633333,77.866667 6.499997,-20.499999 c 0,0 0.27453,-0.586744 0.8,-0.9 0.58459,-0.3485 1.26667,-0.2 1.26667,-0.2 l 17.23333,4.033333 -0.83333,3.6 -15.5,-3.633333 -5.600001,17.633333 z"
         style="fill:#000000;fill-opacity:1;fill-rule:evenodd;stroke:none;stroke-width:1px;stroke-linecap:butt;stroke-linejoin:miter;stroke-opacity:1" />
      <ellipse
         ry="28.472834"
         rx="42.614967"
         cy="106.20438"
         cx="95.600838"
         id="ellipse4891"
         style="opacity:1;fill:#000000;fill-opacity:1;fill-rule:nonzero;stroke:none;stroke-width:3.66300011;stroke-linecap:butt;stroke-linejoin:miter;stroke-miterlimit:4;stroke-dasharray:none;stroke-dashoffset:0;stroke-opacity:1" />
      <circle
         r="10.936584"
         cy="94.042145"
         cx="59.114128"
         id="circle4893"
         style="opacity:1;fill:#000000;fill-opacity:1;fill-rule:nonzero;stroke:none;stroke-width:3.66300011;stroke-linecap:butt;stroke-linejoin:miter;stroke-miterlimit:4;stroke-dasharray:none;stroke-dashoffset:0;stroke-opacity:1" />
      <circle
         r="10.889444"
         cy="93.900719"
         cx="132.70036"
         id="circle4895"
         style="opacity:1;fill:#000000;fill-opacity:1;fill-rule:nonzero;stroke:none;stroke-width:3.66300011;stroke-linecap:butt;stroke-linejoin:miter;stroke-miterlimit:4;stroke-dasharray:none;stroke-dashoffset:0;stroke-opacity:1" />
      <circle
         r="8.9095449"
         cy="63.730835"
         cx="128.1749"
         id="circle4897"
         style="opacity:1;fill:#000000;fill-opacity:1;fill-rule:nonzero;stroke:none;stroke-width:3.66300011;stroke-linecap:butt;stroke-linejoin:miter;stroke-miterlimit:4;stroke-dasharray:none;stroke-dashoffset:0;stroke-opacity:1" />
    </g>
    <g
       id="g4899"
       style="opacity:1;fill:#ffffff;fill-opacity:1"
       transform="matrix(1.03,0,0,1.0176248,-2.6000967,-2.596609)">
      <path
         style="fill:#ffffff;fill-opacity:1;fill-rule:evenodd;stroke:none;stroke-width:1px;stroke-linecap:butt;stroke-linejoin:miter;stroke-opacity:1"
         d="m 94.633333,77.866667 6.499997,-20.499999 c 0,0 0.27453,-0.586744 0.8,-0.9 0.58459,-0.3485 1.26667,-0.2 1.26667,-0.2 l 17.23333,4.033333 -0.83333,3.6 -15.5,-3.633333 -5.600001,17.633333 z"
         id="path4901"
         inkscape:connector-curvature="0"
         sodipodi:nodetypes="ccscccccc" />
      <ellipse
         style="opacity:1;fill:#ffffff;fill-opacity:1;fill-rule:nonzero;stroke:none;stroke-width:3.66300011;stroke-linecap:butt;stroke-linejoin:miter;stroke-miterlimit:4;stroke-dasharray:none;stroke-dashoffset:0;stroke-opacity:1"
         id="ellipse4903"
         cx="95.600838"
         cy="106.20438"
         rx="42.614967"
         ry="28.472834" />
      <circle
         style="opacity:1;fill:#ffffff;fill-opacity:1;fill-rule:nonzero;stroke:none;stroke-width:3.66300011;stroke-linecap:butt;stroke-linejoin:miter;stroke-miterlimit:4;stroke-dasharray:none;stroke-dashoffset:0;stroke-opacity:1"
         id="circle4905"
         cx="59.114128"
         cy="94.042145"
         r="10.936584" />
      <circle
         style="opacity:1;fill:#ffffff;fill-opacity:1;fill-rule:nonzero;stroke:none;stroke-width:3.66300011;stroke-linecap:butt;stroke-linejoin:miter;stroke-miterlimit:4;stroke-dasharray:none;stroke-dashoffset:0;stroke-opacity:1"
         id="circle4907"
         cx="132.70036"
         cy="93.900719"
         r="10.889444" />
      <circle
         style="opacity:1;fill:#ffffff;fill-opacity:1;fill-rule:nonzero;stroke:none;stroke-width:3.66300011;stroke-linecap:butt;stroke-linejoin:miter;stroke-miterlimit:4;stroke-dasharray:none;stroke-dashoffset:0;stroke-opacity:1"
         id="circle4909"
         cx="128.1749"
         cy="63.730835"
         r="8.9095449" />
    </g>
    <g
       transform="matrix(1.03,0,0,1.0046239,-2.6000967,-0.84568358)"
       style="opacity:1;fill:#f2f2f2;fill-opacity:1"
       id="g4226">
      <path
         sodipodi:nodetypes="ccscccccc"
         inkscape:connector-curvature="0"
         id="path4228"
         d="m 94.633333,77.866667 6.499997,-20.499999 c 0,0 0.27453,-0.586744 0.8,-0.9 0.58459,-0.3485 1.26667,-0.2 1.26667,-0.2 l 17.23333,4.033333 -0.83333,3.6 -15.5,-3.633333 -5.600001,17.633333 z"
         style="fill:#f2f2f2;fill-opacity:1;fill-rule:evenodd;stroke:none;stroke-width:1px;stroke-linecap:butt;stroke-linejoin:miter;stroke-opacity:1" />
      <ellipse
         ry="28.472834"
         rx="42.614967"
         cy="106.20438"
         cx="95.600838"
         id="ellipse4230"
         style="opacity:1;fill:#f2f2f2;fill-opacity:1;fill-rule:nonzero;stroke:none;stroke-width:3.66300011;stroke-linecap:butt;stroke-linejoin:miter;stroke-miterlimit:4;stroke-dasharray:none;stroke-dashoffset:0;stroke-opacity:1" />
      <circle
         r="10.936584"
         cy="94.042145"
         cx="59.114128"
         id="circle4232"
         style="opacity:1;fill:#f2f2f2;fill-opacity:1;fill-rule:nonzero;stroke:none;stroke-width:3.66300011;stroke-linecap:butt;stroke-linejoin:miter;stroke-miterlimit:4;stroke-dasharray:none;stroke-dashoffset:0;stroke-opacity:1" />
      <circle
         r="10.889444"
         cy="93.900719"
         cx="132.70036"
         id="circle4234"
         style="opacity:1;fill:#f2f2f2;fill-opacity:1;fill-rule:nonzero;stroke:none;stroke-width:3.66300011;stroke-linecap:butt;stroke-linejoin:miter;stroke-miterlimit:4;stroke-dasharray:none;stroke-dashoffset:0;stroke-opacity:1" />
      <circle
         r="8.9095449"
         cy="63.730835"
         cx="128.1749"
         id="circle4236"
         style="opacity:1;fill:#f2f2f2;fill-opacity:1;fill-rule:nonzero;stroke:none;stroke-width:3.66300011;stroke-linecap:butt;stroke-linejoin:miter;stroke-miterlimit:4;stroke-dasharray:none;stroke-dashoffset:0;stroke-opacity:1" />
    </g>
    <path
       style="display:inline;fill:#ff5722;fill-opacity:1;stroke:none"
       d="m 81.438305,93.990451 c -3.728164,0 -6.855774,3.12761 -6.855774,6.855769 0,3.72817 3.12761,6.75358 6.855774,6.75358 3.728164,0 6.753576,-3.02541 6.753576,-6.75358 0,-3.728159 -3.025412,-6.855769 -6.753576,-6.855769 z"
       id="path4373"
       inkscape:connector-curvature="0" />
    <path
       style="display:inline;fill:#ff5722;fill-opacity:1;stroke:none"
       d="m 111.02459,93.990451 c -3.73007,0 -6.8643,3.125714 -6.8643,6.855769 0,3.73007 3.13423,6.75358 6.8643,6.75358 3.73006,0 6.75357,-3.02351 6.75357,-6.75358 0,-3.730055 -3.02351,-6.855769 -6.75357,-6.855769 z"
       id="path4375"
       inkscape:connector-curvature="0" />
  </g>
  <g
     inkscape:groupmode="layer"
     id="layer5"
     inkscape:label="Square 1"
     style="display:inline">
    <rect
       style="display:inline;opacity:0.1;fill:url(#radialGradient7770);fill-opacity:1;stroke:url(#radialGradient7778);stroke-width:1.00005436;stroke-linejoin:round;stroke-miterlimit:4;stroke-dasharray:none;stroke-opacity:1"
       id="rect7724"
       width="150.99994"
       height="150.99994"
       x="20.500031"
       y="20.500031"
       ry="10.897427" />
  </g>
</svg>
