<?xml version="1.0" encoding="utf-8"?>
<!-- Generator: Adobe Illustrator 19.0.1, SVG Export Plug-In . SVG Version: 6.00 Build 0)  -->
<!DOCTYPE svg PUBLIC "-//W3C//DTD SVG 1.1//EN" "http://www.w3.org/Graphics/SVG/1.1/DTD/svg11.dtd">
<svg version="1.1"
	 id="svg4258" xmlns:rdf="http://www.w3.org/1999/02/22-rdf-syntax-ns#" xmlns:dc="http://purl.org/dc/elements/1.1/" xmlns:sodipodi="http://sodipodi.sourceforge.net/DTD/sodipodi-0.dtd" xmlns:inkscape="http://www.inkscape.org/namespaces/inkscape" xmlns:cc="http://creativecommons.org/ns#" xmlns:svg="http://www.w3.org/2000/svg" sodipodi:docname="email.svg" inkscape:version="0.91 r13725"
	 xmlns="http://www.w3.org/2000/svg" xmlns:xlink="http://www.w3.org/1999/xlink" x="0px" y="0px" viewBox="-439 861 200 200"
	 style="enable-background:new -439 861 200 200;" xml:space="preserve">
<style type="text/css">
	.st0{fill:#306EBF;}
	.st1{opacity:0.128;fill:#FFFFFF;enable-background:new    ;}
	.st2{fill:#EDEDED;}
	.st3{opacity:0.23;clip-path:url(#SVGID_2_);filter:url(#filter6476);enable-background:new    ;}
	.st4{fill:url(#path5768_1_);}
	.st5{opacity:0.375;clip-path:url(#SVGID_4_);fill:#7E3C05;enable-background:new    ;}
	.st6{fill:url(#path5786_1_);}
	.st7{opacity:9.800000e-002;fill:#FFFFFF;enable-background:new    ;}
	.st8{fill:#DEDEDE;}
	.st9{fill:#798992;}
	.st10{opacity:4.700000e-002;fill:#FFFFFF;enable-background:new    ;}
	.st11{opacity:1.400000e-002;enable-background:new    ;}
</style>
<filter  height="1.3561905" width="1.2037256" style="color-interpolation-filters:sRGB" y="-0.17809527" x="-0.1018628" id="filter6476" inkscape:collect="always">
	<feGaussianBlur  stdDeviation="6.7675637" id="feGaussianBlur6478" inkscape:collect="always"></feGaussianBlur>
</filter>
<sodipodi:namedview  id="base" showgrid="false" inkscape:cy="41.965064" bordercolor="#666666" borderopacity="1.0" inkscape:cx="208.06091" units="px" inkscape:zoom="0.7071068" pagecolor="#4e4e4e" inkscape:window-width="1338" inkscape:pageopacity="0" inkscape:snap-object-midpoints="true" inkscape:pageshadow="2" inkscape:snap-center="true" inkscape:object-paths="true" inkscape:document-units="px" inkscape:object-nodes="true" inkscape:snap-smooth-nodes="true" inkscape:snap-nodes="true" inkscape:snap-midpoints="true" inkscape:snap-others="true" inkscape:snap-text-baseline="true" inkscape:window-x="2502" inkscape:current-layer="g5494" inkscape:window-height="931" inkscape:window-y="32" inkscape:window-maximized="0" inkscape:snap-intersection-paths="true">
	</sodipodi:namedview>
<g id="layer1" transform="translate(0,-852.36216)" inkscape:label="Layer 1" inkscape:groupmode="layer">
	<g id="g5494">
		<path id="rect5746" sodipodi:nodetypes="sccssssssssccs" inkscape:connector-curvature="0" class="st0" d="M-339.6,1735.2
			c-1.9,0-3.5,0.8-5.2,2.1l-67.8,48.2c-1.2,0.6-2.3,1.4-3.2,2.3c-2.2,2.2-3.6,5.2-3.6,8.6v76.3c0,6.7,5.4,12.2,12.2,12.2h135.1
			c6.7,0,12.2-5.4,12.2-12.2v-76.3c0-3.4-1.4-6.4-3.6-8.6c-0.9-0.9-2-1.7-3.2-2.3l-67.8-48.3
			C-336.1,1736.1-337.8,1735.2-339.6,1735.2z"/>
		<path id="rect5746-8" class="st1" d="M-339.6,1735.2c-1.9,0-3.5,0.8-5.2,2.1l-67.8,48.2c-1.2,0.6-2.3,1.4-3.2,2.3
			c-2.2,2.2-3.6,5.2-3.6,8.6v0.8c0-3.4,1.4-6.4,3.6-8.6c0.9-0.9,2-1.7,3.2-2.3l67.8-48.2c1.7-1.3,3.3-2.1,5.2-2.1s3.6,0.9,5.2,2.1
			l67.8,48.3c1.2,0.6,2.3,1.4,3.2,2.3c2.2,2.2,3.6,5.2,3.6,8.6v-0.8c0-3.4-1.4-6.4-3.6-8.6c-0.9-0.9-2-1.7-3.2-2.3l-67.8-48.3
			C-336.1,1736.1-337.8,1735.2-339.6,1735.2z"/>
		<path id="rect5977" class="st2" d="M-399.7,1745.7h119.9c5.2,0,9.5,4.3,9.5,9.5v82.4c0,5.2-4.3,9.5-9.5,9.5h-119.9
			c-5.2,0-9.5-4.3-9.5-9.5v-82.4C-409.2,1750-405,1745.7-399.7,1745.7z"/>
		<g>
			<defs>
				<path id="SVGID_1_" d="M-399.7,1743.7h119.9c5.2,0,9.5,4.3,9.5,9.5v82.4c0,5.2-4.3,9.5-9.5,9.5h-119.9c-5.2,0-9.5-4.3-9.5-9.5
					v-82.4C-409.2,1748-405,1743.7-399.7,1743.7z"/>
			</defs>
			<clipPath id="SVGID_2_">
				<use xlink:href="#SVGID_1_"  style="overflow:visible;"/>
			</clipPath>
			<g id="path5768-3" inkscape:connector-curvature="0" class="st3">
				<path d="M-419.1,1791.7c-0.2,0.9-0.3,1.8-0.3,2.8v76.3c0,6.1,4.4,11.1,10.2,12c0.3,0,0.6,0.1,0.9,0.1c0.3,0,0.7,0.1,1,0.1h135.1
					c0.4,0,0.8,0,1.3-0.1c0,0,0,0,0,0c0,0,0.1,0,0.1,0c0.4,0,0.7-0.1,1.1-0.2c5.5-1.1,9.7-6,9.7-11.9v-76.3c0-0.9-0.1-1.8-0.3-2.6
					l-79.2,48.3L-419.1,1791.7z"/>
			</g>
		</g>
		
			<linearGradient id="path5768_1_" gradientUnits="userSpaceOnUse" x1="-435.4048" y1="1808.7112" x2="-314.0885" y2="1726.1083" gradientTransform="matrix(1 0 0 -1 0 3628.7244)">
			<stop  offset="0" style="stop-color:#4DC6FF"/>
			<stop  offset="1" style="stop-color:#00B9E6"/>
		</linearGradient>
		<path id="path5768" class="st4" d="M-419.1,1793.7c-0.2,0.9-0.3,1.8-0.3,2.8v76.3c0,6.7,5.4,12.2,12.2,12.2h135.1
			c0.9,0,1.7-0.1,2.5-0.3L-419.1,1793.7z"/>
		<g>
			<defs>
				<path id="SVGID_3_" d="M-419.1,1793.7c-0.2,0.9-0.3,1.8-0.3,2.8v76.3c0,6.7,5.4,12.2,12.2,12.2h135.1c0.9,0,1.7-0.1,2.5-0.3
					L-419.1,1793.7z"/>
			</defs>
			<clipPath id="SVGID_4_">
				<use xlink:href="#SVGID_3_"  style="overflow:visible;"/>
			</clipPath>
			<path id="rect5827" sodipodi:nodetypes="ssssssssscccssc" inkscape:connector-curvature="0" class="st5" d="M-443.1,1777.6
				c-4.8,0-8.7,3.9-8.7,8.7V1910c0,4.8,3.9,8.7,8.7,8.7h124.4c4.8,0,8.7-3.9,8.7-8.7v-123.7c0-4.8-3.9-8.7-8.7-8.7H-443.1z
				 M-419.1,1793.7l81.9,49.3l-71.1,43.4c-10.6-4-11.2-7.5-11.2-13.6v-76.3C-419.4,1795.5-419.3,1794.6-419.1,1793.7z"/>
		</g>
		
			<linearGradient id="path5786_1_" gradientUnits="userSpaceOnUse" x1="-343.1414" y1="1800.2346" x2="-288.7444" y2="1730.7452" gradientTransform="matrix(1 0 0 -1 0 3628.7244)">
			<stop  offset="0" style="stop-color:#84D5FA"/>
			<stop  offset="1" style="stop-color:#81D4FB"/>
		</linearGradient>
		<path id="path5786" class="st6" d="M-260.2,1793.9l-148.9,90.9c0.6,0.1,1.3,0.2,1.9,0.2h135.1c6.7,0,12.2-5.4,12.2-12.2v-76.3
			C-259.9,1795.6-260,1794.7-260.2,1793.9z"/>
		<path id="path5786-1" class="st7" d="M-260.2,1793.9l-148.9,90.9c0.6,0.1,1.3,0.2,1.9,0.2h0.1l146.9-89.6c0.2,0.8,0.3,1.7,0.3,2.6
			v-1.4C-259.9,1795.6-260,1794.7-260.2,1793.9z"/>
		<path id="rect6687" sodipodi:nodetypes="ssccsss" inkscape:connector-curvature="0" class="st8" d="M-398.8,1747.6
			c-5.2,0-9.3,4.2-9.3,9.4v36.6h136.7v-36.6c0-5.2-4.2-9.4-9.4-9.4H-398.8z"/>
		<path id="path6485" inkscape:connector-curvature="0" class="st9" d="M-330.9,1801.8c-1.5,0-2.8-0.4-3.9-1s-1.9-1.6-2.3-3
			c-2.5,2.7-5.1,4-7.7,4c-2.2,0-3.8-0.8-5-2.4c-1.2-1.6-1.7-3.7-1.5-6.5c0.1-2.8,1-5.6,2.5-8.5c1.5-2.9,3.4-5.1,5.5-6.6
			s4.5-2.2,7-2.2c1.6,0,3.1,0.3,4.3,0.8c1.3,0.5,2.6,1.1,3.8,2l-3.8,14.7l-0.2,1.6c-0.1,1.1,0,2,0.4,2.6c0.4,0.6,1,1,1.9,1
			c1.7,0.1,3.2-0.5,4.5-1.8c1.3-1.2,2.4-3.1,3.2-5.4c0.8-2.4,1.3-5.1,1.4-8.1c0.1-2.3-0.2-4.4-0.7-6.3c-0.6-1.9-1.4-3.4-2.5-4.6
			c-2.4-2.5-5.9-3.8-10.5-3.9c-3.2-0.1-6.2,0.6-9,1.8c-2.8,1.2-5.3,3.1-7.6,5.6c-2.2,2.5-4,5.4-5.3,8.6c-1.3,3.2-2,6.5-2.1,9.8
			c-0.2,3,0.3,5.7,1.3,8c1,2.3,2.6,4.1,4.6,5.3c2.1,1.2,4.7,1.8,7.7,1.8c3.2,0,6.4-0.6,9.7-1.9l0.8,3.6c-2.6,1.5-6.1,2.2-10.5,2.2
			c-3.7,0-7-0.7-9.8-2.2c-2.8-1.4-4.9-3.5-6.4-6.2c-1.5-2.7-2.3-5.9-2.3-9.5c-0.1-3.8,0.6-7.7,2.1-11.6s3.6-7.3,6.4-10.3
			c2.7-3,5.9-5.3,9.3-6.8c3.5-1.5,7.2-2.3,11-2.2c3.7,0.1,6.8,0.8,9.5,2.2s4.8,3.5,6.2,6.2c1.5,2.7,2.2,5.8,2.3,9.2
			c0.1,3.7-0.5,7.1-1.7,10.2c-1.2,3.2-2.9,5.6-5.1,7.3C-325.5,1801.1-328,1801.9-330.9,1801.8L-330.9,1801.8z M-345.7,1793.3
			c-0.1,2.8,0.9,4.2,2.9,4.3c1.1,0.1,2.2-0.4,3.3-1.3c1.1-0.9,2-2.1,2.5-3.4l3.7-12.9c-0.9-0.3-1.7-0.5-2.5-0.5
			c-2.5-0.1-4.6,1-6.3,3.1c-1.7,2.2-2.9,5.2-3.5,9.2L-345.7,1793.3z"/>
		<path id="path6485-7" class="st10" d="M-334.5,1764.3c-3.8-0.1-7.5,0.7-11,2.2c-3.5,1.5-6.6,3.8-9.3,6.8s-4.9,6.4-6.4,10.3
			s-2.2,7.7-2.1,11.6c0,0,0,0.1,0,0.1c0.1-3.4,0.8-6.9,2.1-10.3c1.5-3.9,3.6-7.3,6.4-10.3s5.9-5.3,9.3-6.8c3.5-1.5,7.2-2.3,11-2.2
			c3.7,0.1,6.8,0.8,9.5,2.2c2.7,1.4,4.8,3.5,6.2,6.2c1.5,2.7,2.2,5.7,2.3,9.2c0-0.4,0-0.9,0-1.3c-0.1-3.5-0.8-6.5-2.3-9.2
			c-1.5-2.7-3.5-4.8-6.2-6.2C-327.7,1765.1-330.8,1764.4-334.5,1764.3z M-336.3,1775.5c-2.5,0-4.8,0.7-7,2.2s-4,3.7-5.5,6.6
			c-1.5,2.9-2.3,5.7-2.5,8.5c0,0.6,0,1.2,0,1.7c0-0.1,0-0.2,0-0.3c0.1-2.8,1-5.6,2.5-8.5c1.5-2.9,3.4-5.1,5.5-6.6s4.5-2.2,7-2.2
			c1.6,0,3.1,0.3,4.3,0.8c1.2,0.4,2.3,1,3.5,1.8l0.3-1.2c-1.3-0.8-2.6-1.5-3.8-2C-333.2,1775.9-334.7,1775.6-336.3,1775.5z
			 M-333.7,1781.3l-3.3,11.6c-0.6,1.3-1.4,2.4-2.5,3.4c-1.1,0.9-2.2,1.3-3.3,1.3c-1.7,0-2.7-1.1-2.9-3.2l0,0.3
			c-0.1,2.8,0.9,4.2,2.9,4.3c1.1,0.1,2.2-0.4,3.3-1.3c1.1-0.9,2-2.1,2.5-3.4l3.7-12.9C-333.5,1781.3-333.6,1781.3-333.7,1781.3z
			 M-320.8,1783c-0.1,3-0.6,5.6-1.4,8c-0.8,2.4-1.9,4.2-3.2,5.4c-1.3,1.2-2.8,1.8-4.5,1.8c-0.9,0-1.5-0.4-1.9-1
			c-0.2-0.3-0.3-0.7-0.4-1.1c-0.1,1,0,1.9,0.4,2.5c0.4,0.6,1,1,1.9,1c1.7,0.1,3.2-0.5,4.5-1.8c1.3-1.2,2.4-3.1,3.2-5.4
			c0.8-2.4,1.3-5.1,1.4-8.1C-320.8,1783.9-320.8,1783.4-320.8,1783z M-358.5,1795.9c-0.1,2.8,0.3,5.3,1.3,7.5c1,2.3,2.6,4.1,4.6,5.3
			c2.1,1.2,4.7,1.8,7.7,1.8c3.2,0,6.4-0.6,9.7-1.9l0.5,2.4c0.1,0,0.2-0.1,0.3-0.1l-0.8-3.6c-3.3,1.3-6.5,1.9-9.7,1.9
			c-3,0-5.6-0.6-7.7-1.8c-2.1-1.2-3.6-3-4.6-5.3C-358,1800.1-358.4,1798.1-358.5,1795.9z"/>
		<path id="path6485-2" class="st11" d="M-334.6,1766.8c-3.2-0.1-6.2,0.6-9,1.8c-2.8,1.2-5.3,3.1-7.6,5.6c-2.2,2.5-4,5.4-5.3,8.6
			c-1.3,3.2-2,6.5-2.1,9.8c0,0.6,0,1.3,0,1.9c0-0.2,0-0.4,0-0.5c0.1-3.3,0.8-6.5,2.1-9.8c1.3-3.2,3-6.1,5.3-8.6
			c2.2-2.5,4.8-4.4,7.6-5.6c2.8-1.3,5.8-1.9,9-1.8c4.6,0.1,8.1,1.4,10.5,3.9c1.1,1.2,2,2.8,2.5,4.6c0.5,1.5,0.7,3.2,0.7,5
			c0,0,0,0,0,0c0.1-2.3-0.2-4.4-0.7-6.3c-0.6-1.9-1.4-3.4-2.5-4.6C-326.4,1768.2-329.9,1766.9-334.6,1766.8z M-328.4,1778.1
			l-3.5,13.6l-0.2,1.6c-0.1,0.5-0.1,1,0,1.5c0,0,0-0.1,0-0.1l0.2-1.6l3.8-14.7C-328.2,1778.3-328.3,1778.2-328.4,1778.1z
			 M-335.8,1778.2c-2.5-0.1-4.6,1-6.3,3.1c-1.7,2.2-2.9,5.2-3.5,9.2l-0.1,1.5c0,0.4,0,0.7,0,1.1l0.1-1.2c0.7-4,1.9-7,3.5-9.2
			c1.7-2.2,3.8-3.2,6.3-3.1c0.7,0,1.4,0.2,2.1,0.4l0.4-1.2C-334.2,1778.4-335,1778.2-335.8,1778.2z M-316.4,1781.8
			c-0.1,3.2-0.6,6.2-1.7,8.9c-1.2,3.2-2.9,5.6-5.1,7.3c-2.2,1.7-4.7,2.5-7.6,2.4c-1.5,0-2.8-0.4-3.9-1c-1.1-0.6-1.9-1.6-2.3-3
			c-2.5,2.7-5.1,4-7.7,4c-2.2,0-3.8-0.8-5-2.4c-0.9-1.2-1.4-2.8-1.5-4.8c-0.1,2.6,0.4,4.6,1.5,6.1c1.2,1.6,2.8,2.4,5,2.4
			c2.6,0.1,5.2-1.3,7.7-4c0.4,1.4,1.1,2.3,2.3,3c1.1,0.6,2.4,1,3.9,1c2.9,0.1,5.4-0.7,7.6-2.4c2.2-1.7,3.9-4.1,5.1-7.3
			C-316.9,1788.9-316.4,1785.5-316.4,1781.8C-316.4,1781.8-316.4,1781.8-316.4,1781.8z M-363.4,1794c0,0.4,0,0.8,0,1.2
			c0.1,3.7,0.9,6.8,2.3,9.5s3.6,4.8,6.4,6.2c2.8,1.4,6,2.1,9.8,2.2c4.4,0,7.9-0.7,10.5-2.2l-0.3-1.2c-2.6,1.4-6,2.1-10.2,2.1
			c-3.7,0-7-0.7-9.8-2.2c-2.8-1.4-4.9-3.5-6.4-6.2C-362.5,1800.7-363.3,1797.6-363.4,1794z"/>
	</g>
</g>
</svg>
