<?xml version="1.0" encoding="utf-8"?>
<!-- Generator: Adobe Illustrator 19.0.1, SVG Export Plug-In . SVG Version: 6.00 Build 0)  -->
<!DOCTYPE svg PUBLIC "-//W3C//DTD SVG 1.1//EN" "http://www.w3.org/Graphics/SVG/1.1/DTD/svg11.dtd">
<svg version="1.1"
	 id="svg4258" xmlns:dc="http://purl.org/dc/elements/1.1/" xmlns:sodipodi="http://sodipodi.sourceforge.net/DTD/sodipodi-0.dtd" xmlns:inkscape="http://www.inkscape.org/namespaces/inkscape" xmlns:rdf="http://www.w3.org/1999/02/22-rdf-syntax-ns#" xmlns:cc="http://creativecommons.org/ns#" xmlns:svg="http://www.w3.org/2000/svg" sodipodi:docname="email.svg" inkscape:version="0.91 r13725"
	 xmlns="http://www.w3.org/2000/svg" xmlns:xlink="http://www.w3.org/1999/xlink" x="0px" y="0px" viewBox="-859 441 200 200"
	 style="enable-background:new -859 441 200 200;" xml:space="preserve">
<style type="text/css">
	.st0{fill:#306EBF;}
	.st1{opacity:0.128;fill:#FFFFFF;enable-background:new    ;}
	.st2{fill:#EDEDED;}
	.st3{opacity:0.23;clip-path:url(#SVGID_2_);enable-background:new    ;}
	.st4{fill:url(#path5768_1_);}
	.st5{opacity:0.375;clip-path:url(#SVGID_4_);fill:#7E3C05;enable-background:new    ;}
	.st6{fill:url(#path5786_1_);}
	.st7{opacity:9.800000e-002;fill:#FFFFFF;enable-background:new    ;}
	.st8{fill:#DEDEDE;}
	.st9{fill:#798992;}
	.st10{opacity:4.700000e-002;fill:#FFFFFF;enable-background:new    ;}
	.st11{opacity:1.400000e-002;enable-background:new    ;}
</style>
<sodipodi:namedview  id="base" inkscape:window-y="32" inkscape:window-width="1338" inkscape:document-units="px" inkscape:window-height="931" inkscape:current-layer="g5494" inkscape:window-x="2502" inkscape:pageopacity="0" inkscape:pageshadow="2" inkscape:window-maximized="0" inkscape:snap-center="true" inkscape:snap-midpoints="true" inkscape:snap-others="true" inkscape:object-paths="true" inkscape:snap-text-baseline="true" inkscape:snap-object-midpoints="true" inkscape:snap-smooth-nodes="true" inkscape:snap-nodes="true" inkscape:object-nodes="true" units="px" inkscape:snap-intersection-paths="true" bordercolor="#666666" inkscape:zoom="0.7071068" borderopacity="1.0" showgrid="false" inkscape:cx="208.06091" inkscape:cy="41.965064" pagecolor="#4e4e4e">
	</sodipodi:namedview>
<g id="layer1" transform="translate(0,-852.36216)" inkscape:label="Layer 1" inkscape:groupmode="layer">
	<g id="g5494">
		<path id="rect5746" inkscape:connector-curvature="0" sodipodi:nodetypes="sccssssssssccs" class="st0" d="M-1198.6,2176.2
			c-1.9,0-3.5,0.8-5.2,2.1l-67.8,48.2c-1.2,0.6-2.3,1.4-3.2,2.3c-2.2,2.2-3.6,5.2-3.6,8.6v76.3c0,6.7,5.4,12.2,12.2,12.2h135.1
			c6.7,0,12.2-5.4,12.2-12.2v-76.3c0-3.4-1.4-6.4-3.6-8.6c-0.9-0.9-2-1.7-3.2-2.3l-67.8-48.3
			C-1195.1,2177.1-1196.8,2176.2-1198.6,2176.2z"/>
		<path id="rect5746-8" class="st1" d="M-1198.6,2176.2c-1.9,0-3.5,0.8-5.2,2.1l-67.8,48.2c-1.2,0.6-2.3,1.4-3.2,2.3
			c-2.2,2.2-3.6,5.2-3.6,8.6v0.8c0-3.4,1.4-6.4,3.6-8.6c0.9-0.9,2-1.7,3.2-2.3l67.8-48.2c1.7-1.3,3.3-2.1,5.2-2.1
			c1.9,0,3.6,0.9,5.2,2.1l67.8,48.3c1.2,0.6,2.3,1.4,3.2,2.3c2.2,2.2,3.6,5.2,3.6,8.6v-0.8c0-3.4-1.4-6.4-3.6-8.6
			c-0.9-0.9-2-1.7-3.2-2.3l-67.8-48.3C-1195.1,2177.1-1196.8,2176.2-1198.6,2176.2z"/>
		<path id="rect5977" class="st2" d="M-1258.7,2186.7h119.9c5.2,0,9.5,4.3,9.5,9.5v82.4c0,5.2-4.3,9.5-9.5,9.5h-119.9
			c-5.2,0-9.5-4.3-9.5-9.5v-82.4C-1268.2,2191-1264,2186.7-1258.7,2186.7z"/>
		<g>
			<g>
				<defs>
					<path id="SVGID_1_" d="M-1258.7,2184.7h119.9c5.2,0,9.5,4.3,9.5,9.5v82.4c0,5.2-4.3,9.5-9.5,9.5h-119.9c-5.2,0-9.5-4.3-9.5-9.5
						v-82.4C-1268.2,2189-1264,2184.7-1258.7,2184.7z"/>
				</defs>
				<clipPath id="SVGID_2_">
					<use xlink:href="#SVGID_1_"  style="overflow:visible;"/>
				</clipPath>
				<g id="path5768-3" inkscape:connector-curvature="0" class="st3">
					<path d="M-1278.1,2232.7c-0.2,0.9-0.3,1.8-0.3,2.8v76.3c0,6.1,4.4,11.1,10.2,12c0.3,0,0.6,0.1,0.9,0.1c0.3,0,0.7,0.1,1,0.1
						h135.1c0.4,0,0.8,0,1.3-0.1l0,0h0.1c0.4,0,0.7-0.1,1.1-0.2c5.5-1.1,9.7-6,9.7-11.9v-76.3c0-0.9-0.1-1.8-0.3-2.6l-79.2,48.3
						L-1278.1,2232.7z"/>
				</g>
			</g>
		</g>
		
			<linearGradient id="path5768_1_" gradientUnits="userSpaceOnUse" x1="-1294.4384" y1="564.7003" x2="-1173.1221" y2="647.3031" gradientTransform="matrix(1 0 0 1 0 1696.3622)">
			<stop  offset="0" style="stop-color:#4DC6FF"/>
			<stop  offset="1" style="stop-color:#00B9E6"/>
		</linearGradient>
		<path id="path5768" class="st4" d="M-1278.1,2234.7c-0.2,0.9-0.3,1.8-0.3,2.8v76.3c0,6.7,5.4,12.2,12.2,12.2h135.1
			c0.9,0,1.7-0.1,2.5-0.3L-1278.1,2234.7z"/>
		<g>
			<g>
				<defs>
					<path id="SVGID_3_" d="M-1278.1,2234.7c-0.2,0.9-0.3,1.8-0.3,2.8v76.3c0,6.7,5.4,12.2,12.2,12.2h135.1c0.9,0,1.7-0.1,2.5-0.3
						L-1278.1,2234.7z"/>
				</defs>
				<clipPath id="SVGID_4_">
					<use xlink:href="#SVGID_3_"  style="overflow:visible;"/>
				</clipPath>
				<path id="rect5827" inkscape:connector-curvature="0" sodipodi:nodetypes="ssssssssscccssc" class="st5" d="M-1302.1,2218.6
					c-4.8,0-8.7,3.9-8.7,8.7V2351c0,4.8,3.9,8.7,8.7,8.7h124.4c4.8,0,8.7-3.9,8.7-8.7v-123.7c0-4.8-3.9-8.7-8.7-8.7H-1302.1
					L-1302.1,2218.6z M-1278.1,2234.7l81.9,49.3l-71.1,43.4c-10.6-4-11.2-7.5-11.2-13.6v-76.3
					C-1278.4,2236.5-1278.3,2235.6-1278.1,2234.7z"/>
			</g>
		</g>
		
			<linearGradient id="path5786_1_" gradientUnits="userSpaceOnUse" x1="-1202.1477" y1="573.1325" x2="-1147.7507" y2="642.6219" gradientTransform="matrix(1 0 0 1 0 1696.3622)">
			<stop  offset="0" style="stop-color:#84D5FA"/>
			<stop  offset="1" style="stop-color:#81D4FB"/>
		</linearGradient>
		<path id="path5786" class="st6" d="M-1119.2,2234.9l-148.9,90.9c0.6,0.1,1.3,0.2,1.9,0.2h135.1c6.7,0,12.2-5.4,12.2-12.2v-76.3
			C-1118.9,2236.6-1119,2235.7-1119.2,2234.9z"/>
		<path id="path5786-1" class="st7" d="M-1119.2,2234.9l-148.9,90.9c0.6,0.1,1.3,0.2,1.9,0.2h0.1l146.9-89.6
			c0.2,0.8,0.3,1.7,0.3,2.6v-1.4C-1118.9,2236.6-1119,2235.7-1119.2,2234.9z"/>
		<path id="rect6687" inkscape:connector-curvature="0" sodipodi:nodetypes="ssccsss" class="st8" d="M-1257.8,2188.6
			c-5.2,0-9.3,4.2-9.3,9.4v36.6h136.7V2198c0-5.2-4.2-9.4-9.4-9.4H-1257.8z"/>
		<path id="path6485" inkscape:connector-curvature="0" class="st9" d="M-1189.9,2242.8c-1.5,0-2.8-0.4-3.9-1
			c-1.1-0.6-1.9-1.6-2.3-3c-2.5,2.7-5.1,4-7.7,4c-2.2,0-3.8-0.8-5-2.4c-1.2-1.6-1.7-3.7-1.5-6.5c0.1-2.8,1-5.6,2.5-8.5
			c1.5-2.9,3.4-5.1,5.5-6.6c2.1-1.5,4.5-2.2,7-2.2c1.6,0,3.1,0.3,4.3,0.8c1.3,0.5,2.6,1.1,3.8,2l-3.8,14.7l-0.2,1.6
			c-0.1,1.1,0,2,0.4,2.6c0.4,0.6,1,1,1.9,1c1.7,0.1,3.2-0.5,4.5-1.8c1.3-1.2,2.4-3.1,3.2-5.4c0.8-2.4,1.3-5.1,1.4-8.1
			c0.1-2.3-0.2-4.4-0.7-6.3c-0.6-1.9-1.4-3.4-2.5-4.6c-2.4-2.5-5.9-3.8-10.5-3.9c-3.2-0.1-6.2,0.6-9,1.8c-2.8,1.2-5.3,3.1-7.6,5.6
			c-2.2,2.5-4,5.4-5.3,8.6s-2,6.5-2.1,9.8c-0.2,3,0.3,5.7,1.3,8s2.6,4.1,4.6,5.3c2.1,1.2,4.7,1.8,7.7,1.8c3.2,0,6.4-0.6,9.7-1.9
			l0.8,3.6c-2.6,1.5-6.1,2.2-10.5,2.2c-3.7,0-7-0.7-9.8-2.2c-2.8-1.4-4.9-3.5-6.4-6.2s-2.3-5.9-2.3-9.5c-0.1-3.8,0.6-7.7,2.1-11.6
			c1.5-3.9,3.6-7.3,6.4-10.3c2.7-3,5.9-5.3,9.3-6.8c3.5-1.5,7.2-2.3,11-2.2c3.7,0.1,6.8,0.8,9.5,2.2c2.7,1.4,4.8,3.5,6.2,6.2
			c1.5,2.7,2.2,5.8,2.3,9.2c0.1,3.7-0.5,7.1-1.7,10.2c-1.2,3.2-2.9,5.6-5.1,7.3C-1184.5,2242.1-1187,2242.9-1189.9,2242.8
			L-1189.9,2242.8z M-1204.7,2234.3c-0.1,2.8,0.9,4.2,2.9,4.3c1.1,0.1,2.2-0.4,3.3-1.3c1.1-0.9,2-2.1,2.5-3.4l3.7-12.9
			c-0.9-0.3-1.7-0.5-2.5-0.5c-2.5-0.1-4.6,1-6.3,3.1c-1.7,2.2-2.9,5.2-3.5,9.2L-1204.7,2234.3z"/>
		<path id="path6485-7" class="st10" d="M-1193.5,2205.3c-3.8-0.1-7.5,0.7-11,2.2s-6.6,3.8-9.3,6.8c-2.7,3-4.9,6.4-6.4,10.3
			c-1.5,3.9-2.2,7.7-2.1,11.6v0.1c0.1-3.4,0.8-6.9,2.1-10.3c1.5-3.9,3.6-7.3,6.4-10.3c2.8-3,5.9-5.3,9.3-6.8c3.5-1.5,7.2-2.3,11-2.2
			c3.7,0.1,6.8,0.8,9.5,2.2c2.7,1.4,4.8,3.5,6.2,6.2c1.5,2.7,2.2,5.7,2.3,9.2c0-0.4,0-0.9,0-1.3c-0.1-3.5-0.8-6.5-2.3-9.2
			s-3.5-4.8-6.2-6.2C-1186.7,2206.1-1189.8,2205.4-1193.5,2205.3z M-1195.3,2216.5c-2.5,0-4.8,0.7-7,2.2c-2.2,1.5-4,3.7-5.5,6.6
			c-1.5,2.9-2.3,5.7-2.5,8.5c0,0.6,0,1.2,0,1.7c0-0.1,0-0.2,0-0.3c0.1-2.8,1-5.6,2.5-8.5c1.5-2.9,3.4-5.1,5.5-6.6
			c2.1-1.5,4.5-2.2,7-2.2c1.6,0,3.1,0.3,4.3,0.8c1.2,0.4,2.3,1,3.5,1.8l0.3-1.2c-1.3-0.8-2.6-1.5-3.8-2
			C-1192.2,2216.9-1193.7,2216.6-1195.3,2216.5z M-1192.7,2222.3l-3.3,11.6c-0.6,1.3-1.4,2.4-2.5,3.4c-1.1,0.9-2.2,1.3-3.3,1.3
			c-1.7,0-2.7-1.1-2.9-3.2v0.3c-0.1,2.8,0.9,4.2,2.9,4.3c1.1,0.1,2.2-0.4,3.3-1.3c1.1-0.9,2-2.1,2.5-3.4l3.7-12.9
			C-1192.5,2222.3-1192.6,2222.3-1192.7,2222.3z M-1179.8,2224c-0.1,3-0.6,5.6-1.4,8c-0.8,2.4-1.9,4.2-3.2,5.4
			c-1.3,1.2-2.8,1.8-4.5,1.8c-0.9,0-1.5-0.4-1.9-1c-0.2-0.3-0.3-0.7-0.4-1.1c-0.1,1,0,1.9,0.4,2.5c0.4,0.6,1,1,1.9,1
			c1.7,0.1,3.2-0.5,4.5-1.8c1.3-1.2,2.4-3.1,3.2-5.4c0.8-2.4,1.3-5.1,1.4-8.1C-1179.8,2224.9-1179.8,2224.4-1179.8,2224z
			 M-1217.5,2236.9c-0.1,2.8,0.3,5.3,1.3,7.5c1,2.3,2.6,4.1,4.6,5.3c2.1,1.2,4.7,1.8,7.7,1.8c3.2,0,6.4-0.6,9.7-1.9l0.5,2.4
			c0.1,0,0.2-0.1,0.3-0.1l-0.8-3.6c-3.3,1.3-6.5,1.9-9.7,1.9c-3,0-5.6-0.6-7.7-1.8c-2.1-1.2-3.6-3-4.6-5.3
			C-1217,2241.1-1217.4,2239.1-1217.5,2236.9z"/>
		<path id="path6485-2" class="st11" d="M-1193.6,2207.8c-3.2-0.1-6.2,0.6-9,1.8c-2.8,1.2-5.3,3.1-7.6,5.6c-2.2,2.5-4,5.4-5.3,8.6
			s-2,6.5-2.1,9.8c0,0.6,0,1.3,0,1.9c0-0.2,0-0.4,0-0.5c0.1-3.3,0.8-6.5,2.1-9.8c1.3-3.2,3-6.1,5.3-8.6c2.2-2.5,4.8-4.4,7.6-5.6
			c2.8-1.3,5.8-1.9,9-1.8c4.6,0.1,8.1,1.4,10.5,3.9c1.1,1.2,2,2.8,2.5,4.6c0.5,1.5,0.7,3.2,0.7,5l0,0c0.1-2.3-0.2-4.4-0.7-6.3
			c-0.6-1.9-1.4-3.4-2.5-4.6C-1185.4,2209.2-1188.9,2207.9-1193.6,2207.8z M-1187.4,2219.1l-3.5,13.6l-0.2,1.6c-0.1,0.5-0.1,1,0,1.5
			v-0.1l0.2-1.6l3.8-14.7C-1187.2,2219.3-1187.3,2219.2-1187.4,2219.1z M-1194.8,2219.2c-2.5-0.1-4.6,1-6.3,3.1
			c-1.7,2.2-2.9,5.2-3.5,9.2l-0.1,1.5c0,0.4,0,0.7,0,1.1l0.1-1.2c0.7-4,1.9-7,3.5-9.2c1.7-2.2,3.8-3.2,6.3-3.1
			c0.7,0,1.4,0.2,2.1,0.4l0.4-1.2C-1193.2,2219.4-1194,2219.2-1194.8,2219.2z M-1175.4,2222.8c-0.1,3.2-0.6,6.2-1.7,8.9
			c-1.2,3.2-2.9,5.6-5.1,7.3c-2.2,1.7-4.7,2.5-7.6,2.4c-1.5,0-2.8-0.4-3.9-1c-1.1-0.6-1.9-1.6-2.3-3c-2.5,2.7-5.1,4-7.7,4
			c-2.2,0-3.8-0.8-5-2.4c-0.9-1.2-1.4-2.8-1.5-4.8c-0.1,2.6,0.4,4.6,1.5,6.1c1.2,1.6,2.8,2.4,5,2.4c2.6,0.1,5.2-1.3,7.7-4
			c0.4,1.4,1.1,2.3,2.3,3c1.1,0.6,2.4,1,3.9,1c2.9,0.1,5.4-0.7,7.6-2.4c2.2-1.7,3.9-4.1,5.1-7.3
			C-1175.9,2229.9-1175.4,2226.5-1175.4,2222.8L-1175.4,2222.8z M-1222.4,2235c0,0.4,0,0.8,0,1.2c0.1,3.7,0.9,6.8,2.3,9.5
			s3.6,4.8,6.4,6.2c2.8,1.4,6,2.1,9.8,2.2c4.4,0,7.9-0.7,10.5-2.2l-0.3-1.2c-2.6,1.4-6,2.1-10.2,2.1c-3.7,0-7-0.7-9.8-2.2
			c-2.8-1.4-4.9-3.5-6.4-6.2C-1221.5,2241.7-1222.3,2238.6-1222.4,2235z"/>
	</g>
</g>
</svg>
