<?xml version="1.0" encoding="utf-8"?>
<!-- Generator: Adobe Illustrator 19.0.1, SVG Export Plug-In . SVG Version: 6.00 Build 0)  -->
<!DOCTYPE svg PUBLIC "-//W3C//DTD SVG 1.1//EN" "http://www.w3.org/Graphics/SVG/1.1/DTD/svg11.dtd">
<svg version="1.1"
	 id="svg4258" xmlns:dc="http://purl.org/dc/elements/1.1/" xmlns:sodipodi="http://sodipodi.sourceforge.net/DTD/sodipodi-0.dtd" xmlns:inkscape="http://www.inkscape.org/namespaces/inkscape" xmlns:rdf="http://www.w3.org/1999/02/22-rdf-syntax-ns#" xmlns:cc="http://creativecommons.org/ns#" xmlns:svg="http://www.w3.org/2000/svg" sodipodi:docname="steam-alt.svg" inkscape:version="0.91 r13725"
	 xmlns="http://www.w3.org/2000/svg" xmlns:xlink="http://www.w3.org/1999/xlink" x="0px" y="0px" viewBox="-859 441 200 200"
	 style="enable-background:new -859 441 200 200;" xml:space="preserve">
<style type="text/css">
	.st0{fill:url(#path5551_1_);}
</style>
<sodipodi:namedview  id="base" inkscape:window-y="32" inkscape:window-width="1920" inkscape:document-units="px" inkscape:window-height="931" inkscape:current-layer="g5494" inkscape:window-x="1920" inkscape:pageopacity="0" inkscape:pageshadow="2" inkscape:window-maximized="1" inkscape:snap-center="true" inkscape:snap-others="true" inkscape:object-paths="true" inkscape:snap-text-baseline="true" inkscape:snap-object-midpoints="true" inkscape:snap-smooth-nodes="true" inkscape:snap-nodes="true" inkscape:snap-page="true" inkscape:object-nodes="true" units="px" inkscape:snap-intersection-paths="true" bordercolor="#666666" inkscape:zoom="1.4142136" borderopacity="1.0" showgrid="false" inkscape:cx="145.82653" inkscape:cy="99.242527" pagecolor="#4e4e4e">
	</sodipodi:namedview>
<g id="layer1" transform="translate(0,-852.36216)" inkscape:label="Layer 1" inkscape:groupmode="layer">
	<g id="g5494">
		
			<linearGradient id="path5551_1_" gradientUnits="userSpaceOnUse" x1="-1283.1357" y1="1374.8348" x2="-994.0055" y2="1501.4679" gradientTransform="matrix(1 0 0 1 15.5563 840.818)">
			<stop  offset="0" style="stop-color:#CDE0E9"/>
			<stop  offset="1" style="stop-color:#FFFFFF"/>
		</linearGradient>
		<path id="path5551" inkscape:connector-curvature="0" sodipodi:nodetypes="ccccccccccccccccccccssssscccccsscc" class="st0" d="
			M-1152.5,2198c-17.6,0-31.9,14.2-31.9,31.8l-20.7,30.5c-1.2-0.2-2.4-0.3-3.6-0.3c-5,0-9.9,1.6-14,4.7l-56.2-23.2l11.6,33.1
			l34.7,14.3c1.8,12.3,11.9,21.4,23.9,21.4c13.3,0,24.2-11.3,24.2-25.2c0-0.8,0-1.5-0.1-2.3l32.9-21.3c17.3-0.4,31.2-14.5,31.2-31.8
			C-1120.6,2212.3-1134.8,2198-1152.5,2198L-1152.5,2198z M-1152.5,2207.3c12.5,0,22.6,10.1,22.6,22.5c0,12.4-10.1,22.5-22.6,22.5
			s-22.6-10.1-22.6-22.5C-1175,2217.4-1164.9,2207.3-1152.5,2207.3z M-1152.5,2213.9c-9,0-16.3,7.3-16.3,16.2
			c0,9,7.3,16.2,16.3,16.2s16.3-7.3,16.3-16.2C-1136.2,2221.1-1143.5,2213.9-1152.5,2213.9z M-1208.5,2266.4c9.7,0,17.6,8,17.6,17.8
			s-7.9,17.8-17.6,17.8c-6.5,0-12.5-3.7-15.5-9.5c3.3,1.4,6.9,2.8,9.5,3.7c6.2,2.1,13.8,2,17.5-5s2.4-15.4-7.7-19.7
			c-3.8-1.6-7.2-2.9-10-4C-1212.7,2266.8-1210.6,2266.4-1208.5,2266.4L-1208.5,2266.4z"/>
	</g>
</g>
</svg>
