<?xml version="1.0" encoding="utf-8"?>
<!-- Generator: Adobe Illustrator 19.0.1, SVG Export Plug-In . SVG Version: 6.00 Build 0)  -->
<!DOCTYPE svg PUBLIC "-//W3C//DTD SVG 1.1//EN" "http://www.w3.org/Graphics/SVG/1.1/DTD/svg11.dtd">
<svg version="1.1"
	 id="svg4258" xmlns:rdf="http://www.w3.org/1999/02/22-rdf-syntax-ns#" xmlns:dc="http://purl.org/dc/elements/1.1/" xmlns:sodipodi="http://sodipodi.sourceforge.net/DTD/sodipodi-0.dtd" xmlns:inkscape="http://www.inkscape.org/namespaces/inkscape" xmlns:cc="http://creativecommons.org/ns#" xmlns:svg="http://www.w3.org/2000/svg" sodipodi:docname="steam.svg" inkscape:version="0.91 r13725"
	 xmlns="http://www.w3.org/2000/svg" xmlns:xlink="http://www.w3.org/1999/xlink" x="0px" y="0px" viewBox="-439 861 200 200"
	 style="enable-background:new -439 861 200 200;" xml:space="preserve">
<style type="text/css">
	.st0{fill:url(#path5549_1_);}
	.st1{opacity:0.568;fill:url(#path5628_1_);enable-background:new    ;}
	.st2{opacity:0.186;fill:url(#path5663_1_);enable-background:new    ;}
	.st3{fill:#FFFFFF;}
</style>
<sodipodi:namedview  id="base" showgrid="false" inkscape:cy="50.148988" bordercolor="#666666" borderopacity="1.0" inkscape:cx="179.02469" units="px" inkscape:zoom="2" pagecolor="#4e4e4e" inkscape:window-width="1920" inkscape:pageopacity="0" inkscape:snap-object-midpoints="true" inkscape:pageshadow="2" inkscape:snap-center="true" inkscape:object-paths="true" inkscape:document-units="px" inkscape:object-nodes="true" inkscape:snap-smooth-nodes="true" inkscape:snap-nodes="true" inkscape:snap-others="true" inkscape:snap-text-baseline="true" inkscape:window-x="1920" inkscape:current-layer="g5494" inkscape:window-height="944" inkscape:snap-page="true" inkscape:window-y="32" inkscape:window-maximized="1" inkscape:snap-intersection-paths="true">
	</sodipodi:namedview>
<g id="layer1" transform="translate(0,-852.36216)" inkscape:label="Layer 1" inkscape:groupmode="layer">
	<g id="g5494">
		
			<linearGradient id="path5549_1_" gradientUnits="userSpaceOnUse" x1="-423.8892" y1="999.0314" x2="-134.7588" y2="872.3983" gradientTransform="matrix(1 0 0 -1 0 2776.3623)">
			<stop  offset="0" style="stop-color:#263238"/>
			<stop  offset="1" style="stop-color:#232323"/>
		</linearGradient>
		<circle id="path5549" class="st0" cx="-338.4" cy="1814.8" r="86.2"/>
		
			<linearGradient id="path5628_1_" gradientUnits="userSpaceOnUse" x1="-375.0281" y1="974.0951" x2="-218.7781" y2="869.8451" gradientTransform="matrix(1 0 0 -1 0 2776.3623)">
			<stop  offset="0" style="stop-color:#000000"/>
			<stop  offset="1" style="stop-color:#000000;stop-opacity:0"/>
		</linearGradient>
		<path id="path5628" class="st1" d="M-320.1,1762.1l-18.2,17.2l-4.1,44.5l-30.4,3.8l-3.6,3.8l-45.3,5.3
			c9.9,37.9,44.1,64.4,83.3,64.4c47.6,0,86.2-38.6,86.2-86.2c0,0,0,0,0,0c0-4-0.3-8-0.9-11.9l-32.7-32.7L-320.1,1762.1z"/>
		
			<linearGradient id="path5663_1_" gradientUnits="userSpaceOnUse" x1="-294.4445" y1="1867.8794" x2="-459.011" y2="1715.5972" gradientTransform="matrix(1 0 0 -1 0 3628.7244)">
			<stop  offset="0" style="stop-color:#000000"/>
			<stop  offset="1" style="stop-color:#000000;stop-opacity:0"/>
		</linearGradient>
		<path id="path5663" class="st2" d="M-314.8,1763.4l-20.6,10.8l-50.1,50.1l-39-9.5c0,36.1,22.6,68.3,56.4,80.8l85.3-85.3l-2.9-40.1
			L-314.8,1763.4z"/>
		<path id="path5551" sodipodi:nodetypes="ccccccccccccccccccccssssscccccsscc" inkscape:connector-curvature="0" class="st3" d="
			M-309,1760.2c-17.6,0-31.9,14.2-31.9,31.8l-20.7,30.5c-1.2-0.2-2.4-0.3-3.6-0.3c-5,0-9.9,1.6-14,4.7l-56.2-23.2l11.6,33.1
			l34.7,14.3c1.8,12.3,11.9,21.4,23.9,21.4c13.3,0,24.2-11.3,24.2-25.2c0-0.8,0-1.5-0.1-2.3l32.9-21.3c17.3-0.4,31.2-14.5,31.2-31.8
			C-277.1,1774.4-291.4,1760.2-309,1760.2L-309,1760.2z M-309,1769.5c12.5,0,22.6,10.1,22.6,22.5c0,12.4-10.1,22.5-22.6,22.5
			c-12.5,0-22.6-10.1-22.6-22.5C-331.6,1779.6-321.5,1769.5-309,1769.5z M-309,1776c-9,0-16.3,7.3-16.3,16.2c0,9,7.3,16.2,16.3,16.2
			c9,0,16.3-7.3,16.3-16.2S-300,1776-309,1776z M-365,1828.6c9.7,0,17.6,8,17.6,17.8c0,9.8-7.9,17.8-17.6,17.8
			c-6.5,0-12.5-3.7-15.5-9.5c3.3,1.4,6.9,2.8,9.5,3.7c6.2,2.1,13.8,2,17.5-5c3.7-7,2.4-15.4-7.7-19.7c-3.8-1.6-7.2-2.9-10-4
			C-369.2,1829-367.1,1828.6-365,1828.6L-365,1828.6z"/>
	</g>
</g>
</svg>
