<?xml version="1.0" encoding="utf-8"?>
<!-- Generator: Adobe Illustrator 19.0.1, SVG Export Plug-In . SVG Version: 6.00 Build 0)  -->
<!DOCTYPE svg PUBLIC "-//W3C//DTD SVG 1.1//EN" "http://www.w3.org/Graphics/SVG/1.1/DTD/svg11.dtd">
<svg version="1.1"
	 id="svg4258" xmlns:rdf="http://www.w3.org/1999/02/22-rdf-syntax-ns#" xmlns:dc="http://purl.org/dc/elements/1.1/" xmlns:sodipodi="http://sodipodi.sourceforge.net/DTD/sodipodi-0.dtd" xmlns:inkscape="http://www.inkscape.org/namespaces/inkscape" xmlns:cc="http://creativecommons.org/ns#" xmlns:svg="http://www.w3.org/2000/svg" sodipodi:docname="steam-alt.svg" inkscape:version="0.91 r13725"
	 xmlns="http://www.w3.org/2000/svg" xmlns:xlink="http://www.w3.org/1999/xlink" x="0px" y="0px" viewBox="-439 861 200 200"
	 style="enable-background:new -439 861 200 200;" xml:space="preserve">
<style type="text/css">
	.st0{fill:url(#path5551_1_);}
</style>
<sodipodi:namedview  id="base" showgrid="false" inkscape:cy="99.242527" bordercolor="#666666" borderopacity="1.0" inkscape:cx="145.82653" units="px" inkscape:zoom="1.4142136" pagecolor="#4e4e4e" inkscape:window-width="1920" inkscape:pageopacity="0" inkscape:snap-object-midpoints="true" inkscape:pageshadow="2" inkscape:snap-center="true" inkscape:object-paths="true" inkscape:document-units="px" inkscape:object-nodes="true" inkscape:snap-smooth-nodes="true" inkscape:snap-nodes="true" inkscape:snap-others="true" inkscape:snap-text-baseline="true" inkscape:window-x="1920" inkscape:current-layer="g5494" inkscape:window-height="931" inkscape:snap-page="true" inkscape:window-y="32" inkscape:window-maximized="1" inkscape:snap-intersection-paths="true">
	</sodipodi:namedview>
<g id="layer1" transform="translate(0,-852.36216)" inkscape:label="Layer 1" inkscape:groupmode="layer">
	<g id="g5494">
		
			<linearGradient id="path5551_1_" gradientUnits="userSpaceOnUse" x1="-424.0901" y1="998.5148" x2="-134.9598" y2="871.8817" gradientTransform="matrix(1 0 0 -1 15.5563 2773.1802)">
			<stop  offset="0" style="stop-color:#CDE0E9"/>
			<stop  offset="1" style="stop-color:#FFFFFF"/>
		</linearGradient>
		<path id="path5551" sodipodi:nodetypes="ccccccccccccccccccccssssscccccsscc" inkscape:connector-curvature="0" class="st0" d="
			M-293.5,1757c-17.6,0-31.9,14.2-31.9,31.8l-20.7,30.5c-1.2-0.2-2.4-0.3-3.6-0.3c-5,0-9.9,1.6-14,4.7l-56.2-23.2l11.6,33.1
			l34.7,14.3c1.8,12.3,11.9,21.4,23.9,21.4c13.3,0,24.2-11.3,24.2-25.2c0-0.8,0-1.5-0.1-2.3l32.9-21.3c17.3-0.4,31.2-14.5,31.2-31.8
			C-261.6,1771.3-275.8,1757-293.5,1757L-293.5,1757z M-293.5,1766.3c12.5,0,22.6,10.1,22.6,22.5c0,12.4-10.1,22.5-22.6,22.5
			c-12.5,0-22.6-10.1-22.6-22.5C-316,1776.4-305.9,1766.3-293.5,1766.3z M-293.5,1772.9c-9,0-16.3,7.3-16.3,16.2
			c0,9,7.3,16.2,16.3,16.2c9,0,16.3-7.3,16.3-16.2C-277.2,1780.1-284.5,1772.9-293.5,1772.9z M-349.5,1825.4c9.7,0,17.6,8,17.6,17.8
			c0,9.8-7.9,17.8-17.6,17.8c-6.5,0-12.5-3.7-15.5-9.5c3.3,1.4,6.9,2.8,9.5,3.7c6.2,2.1,13.8,2,17.5-5c3.7-7,2.4-15.4-7.7-19.7
			c-3.8-1.6-7.2-2.9-10-4C-353.7,1825.8-351.6,1825.4-349.5,1825.4L-349.5,1825.4z"/>
	</g>
</g>
</svg>
