<?xml version="1.0" encoding="UTF-8" standalone="no"?>
<!-- Created with Inkscape (http://www.inkscape.org/) -->

<svg
   xmlns:dc="http://purl.org/dc/elements/1.1/"
   xmlns:cc="http://creativecommons.org/ns#"
   xmlns:rdf="http://www.w3.org/1999/02/22-rdf-syntax-ns#"
   xmlns:svg="http://www.w3.org/2000/svg"
   xmlns="http://www.w3.org/2000/svg"
   xmlns:xlink="http://www.w3.org/1999/xlink"
   xmlns:sodipodi="http://sodipodi.sourceforge.net/DTD/sodipodi-0.dtd"
   xmlns:inkscape="http://www.inkscape.org/namespaces/inkscape"
   width="192"
   height="192"
   viewBox="0 0 192 192"
   id="svg2"
   version="1.1"
   inkscape:version="0.91 r13725"
   sodipodi:docname="preferences-system-notifications.svg">
  <sodipodi:namedview
     id="base"
     pagecolor="#ffffff"
     bordercolor="#666666"
     borderopacity="1.0"
     inkscape:pageopacity="0.0"
     inkscape:pageshadow="2"
     inkscape:zoom="3.959798"
     inkscape:cx="86.129272"
     inkscape:cy="99.003197"
     inkscape:document-units="px"
     inkscape:current-layer="layer1"
     showgrid="true"
     units="px"
     inkscape:showpageshadow="false"
     borderlayer="true"
     inkscape:window-width="1920"
     inkscape:window-height="1023"
     inkscape:window-x="0"
     inkscape:window-y="27"
     inkscape:window-maximized="1"
     showguides="true"
     inkscape:guide-bbox="true"
     inkscape:snap-center="false"
     inkscape:snap-grids="true"
     inkscape:object-nodes="true"
     inkscape:snap-bbox="true"
     inkscape:bbox-nodes="true"
     inkscape:bbox-paths="false">
    <inkscape:grid
       empspacing="4"
       id="grid3336"
       type="xygrid" />
    <sodipodi:guide
       id="guide3359"
       orientation="1,0"
       position="96,96" />
    <sodipodi:guide
       id="guide3361"
       orientation="0,1"
       position="96,96" />
    <sodipodi:guide
       id="guide3363"
       orientation="1,0"
       position="68,96" />
    <sodipodi:guide
       id="guide3365"
       orientation="1,0"
       position="124,96" />
    <sodipodi:guide
       id="guide3367"
       orientation="0,1"
       position="96,124" />
    <sodipodi:guide
       id="guide3369"
       orientation="0,1"
       position="96,68" />
  </sodipodi:namedview>
  <defs
     id="defs4">
    <linearGradient
       inkscape:collect="always"
       id="linearGradient5083">
      <stop
         style="stop-color:#ffffff;stop-opacity:0.1"
         offset="0"
         id="stop5085" />
      <stop
         style="stop-color:#ffffff;stop-opacity:0"
         offset="1"
         id="stop5087" />
    </linearGradient>
    <linearGradient
       inkscape:collect="always"
       id="linearGradient5018">
      <stop
         style="stop-color:#3e2723;stop-opacity:0.2"
         offset="0"
         id="stop5020" />
      <stop
         style="stop-color:#3e2723;stop-opacity:0"
         offset="1"
         id="stop5022" />
    </linearGradient>
    <linearGradient
       inkscape:collect="always"
       xlink:href="#linearGradient5018"
       id="linearGradient5024"
       x1="53.333984"
       y1="49.33403"
       x2="172"
       y2="168"
       gradientUnits="userSpaceOnUse" />
    <filter
       style="color-interpolation-filters:sRGB;"
       inkscape:label="Drop Shadow"
       id="filter5038">
      <feFlood
         flood-opacity="0.2"
         flood-color="rgb(33,33,33)"
         result="flood"
         id="feFlood5040" />
      <feComposite
         in="flood"
         in2="SourceGraphic"
         operator="in"
         result="composite1"
         id="feComposite5042" />
      <feGaussianBlur
         in="composite1"
         stdDeviation="4"
         result="blur"
         id="feGaussianBlur5044" />
      <feOffset
         dx="4"
         dy="4"
         result="offset"
         id="feOffset5046" />
      <feComposite
         in="SourceGraphic"
         in2="offset"
         operator="over"
         result="composite2"
         id="feComposite5048" />
    </filter>
    <radialGradient
       inkscape:collect="always"
       xlink:href="#linearGradient5083"
       id="radialGradient5089"
       cx="20"
       cy="880.36218"
       fx="20"
       fy="880.36218"
       r="76"
       gradientUnits="userSpaceOnUse"
       gradientTransform="matrix(2.0000002,2.0000002,-2.0000002,2.0000002,1740.7245,-920.36237)" />
    <filter
       style="color-interpolation-filters:sRGB;"
       inkscape:label="Drop Shadow"
       id="filter3445">
      <feFlood
         flood-opacity="0.12"
         flood-color="rgb(0,0,0)"
         result="flood"
         id="feFlood3447" />
      <feComposite
         in="flood"
         in2="SourceGraphic"
         operator="in"
         result="composite1"
         id="feComposite3449" />
      <feGaussianBlur
         in="composite1"
         stdDeviation="2"
         result="blur"
         id="feGaussianBlur3451" />
      <feOffset
         dx="0"
         dy="0"
         result="offset"
         id="feOffset3453" />
      <feComposite
         in="SourceGraphic"
         in2="offset"
         operator="over"
         result="fbSourceGraphic"
         id="feComposite3455" />
      <feColorMatrix
         result="fbSourceGraphicAlpha"
         in="fbSourceGraphic"
         values="0 0 0 -1 0 0 0 0 -1 0 0 0 0 -1 0 0 0 0 1 0"
         id="feColorMatrix3457" />
      <feFlood
         id="feFlood3459"
         flood-opacity="0.23999999999999999"
         flood-color="rgb(0,0,0)"
         result="flood"
         in="fbSourceGraphic" />
      <feComposite
         id="feComposite3461"
         in2="fbSourceGraphic"
         in="flood"
         operator="in"
         result="composite1" />
      <feGaussianBlur
         id="feGaussianBlur3463"
         in="composite1"
         stdDeviation="2"
         result="blur" />
      <feOffset
         id="feOffset3465"
         dx="0"
         dy="4"
         result="offset" />
      <feComposite
         id="feComposite3467"
         in2="offset"
         in="fbSourceGraphic"
         operator="over"
         result="composite2" />
    </filter>
  </defs>
  <metadata
     id="metadata7">
    <rdf:RDF>
      <cc:Work
         rdf:about="">
        <dc:format>image/svg+xml</dc:format>
        <dc:type
           rdf:resource="http://purl.org/dc/dcmitype/StillImage" />
        <dc:title />
      </cc:Work>
    </rdf:RDF>
  </metadata>
  <g
     transform="translate(0,-860.36216)"
     id="layer1"
     inkscape:groupmode="layer"
     inkscape:label="Main">
    <rect
       ry="12"
       rx="12"
       y="880.36218"
       x="20"
       height="152"
       width="152"
       id="rect3371"
       style="color:#000000;clip-rule:nonzero;display:inline;overflow:visible;visibility:visible;opacity:1;isolation:auto;mix-blend-mode:normal;color-interpolation:sRGB;color-interpolation-filters:linearRGB;solid-color:#000000;solid-opacity:1;fill:#f44336;fill-opacity:1;fill-rule:evenodd;stroke:none;stroke-width:1;stroke-linecap:butt;stroke-linejoin:round;stroke-miterlimit:4;stroke-dasharray:none;stroke-dashoffset:0;stroke-opacity:1;color-rendering:auto;image-rendering:auto;shape-rendering:auto;text-rendering:auto;enable-background:accumulate;filter:url(#filter3445)" />
    <path
       style="opacity:1;fill:url(#linearGradient5024);fill-opacity:1"
       d="M 96 44 C 91.573708 44.00044 88 47.57361 88 52 L 88 55.626953 C 72.693769 59.253873 64 72.907564 64 89.333984 L 64 116 L 53.333984 126.66602 L 53.333984 126.66797 L 53.333984 132 L 93.333984 172 L 160 172 C 166.648 172 172 166.648 172 160 L 172 116.76367 L 102.26562 47.029297 C 100.8016 45.18495 98.544195 44 96 44 z "
       transform="translate(0,860.36216)"
       id="path4373" />
    <path
       id="path4223"
       d="m 96,1008.3622 c 5.86667,0 10.66667,-4.8 10.66667,-10.6667 l -21.333337,0 c 0,5.8667 4.746667,10.6667 10.666667,10.6667 z m 32,-32.00004 0,-26.66666 c 0,-16.37334 -8.74667,-30.08 -24,-33.70667 l 0,-3.62667 c 0,-4.42666 -3.57333,-8 -8,-8 -4.426667,0 -8,3.57334 -8,8 l 0,3.62667 c -15.306667,3.62667 -24,17.28 -24,33.70667 l 0,26.66666 -10.666667,10.66667 0,5.33333 85.333337,0 0,-5.33333 L 128,976.36216 Z"
       inkscape:connector-curvature="0"
       style="fill:#fafafa;filter:url(#filter5038)" />
    <path
       inkscape:connector-curvature="0"
       id="path4223-4"
       d="m 96,904.36218 c -4.426667,0 -8,3.57334 -8,8 l 0,1 c 0,-4.42666 3.573333,-8 8,-8 4.42667,0 8,3.57334 8,8 l 0,-1 c 0,-4.42666 -3.57333,-8 -8,-8 z m -8,11.62695 c -15.306667,3.62667 -24,17.28036 -24,33.70703 l 0,1 c 0,-16.42667 8.693333,-30.08036 24,-33.70703 l 0,-1 z m 16,0 0,1 c 15.25333,3.62667 24,17.33369 24,33.70703 l 0,-1 c 0,-16.37334 -8.74667,-30.08036 -24,-33.70703 z m -40,60.37305 -10.666016,10.66602 0,1 L 64,977.36218 l 0,-1 z m 64,0 0,1 10.66602,10.66602 0,-1 L 128,976.36218 Z m -42.666016,21.33398 c 0,0.33766 0.02002,0.67012 0.05078,1 l 21.230464,0 c 0.0311,-0.32988 0.0508,-0.66234 0.0508,-1 l -21.332036,0 z"
       style="fill:#ffffff;opacity:1" />
    <path
       id="path4223-5"
       transform="translate(0,860.36216)"
       d="M 53.333984 132 L 53.333984 133 L 138.66602 133 L 138.66602 132 L 53.333984 132 z M 85.333984 138.33398 C 85.333984 144.20068 90.08 149 96 149 C 101.86667 149 106.66602 144.20068 106.66602 138.33398 L 106.61523 138.33398 C 106.10616 143.73565 101.52901 148 96 148 C 90.420727 148 85.888553 143.73565 85.384766 138.33398 L 85.333984 138.33398 z "
       style="fill:#3e2723;opacity:0.2" />
    <path
       inkscape:connector-curvature="0"
       id="rect3371-0"
       d="m 32,880.36216 c -6.648,0 -12,5.352 -12,12 l 0,1 c 0,-6.648 5.352,-12 12,-12 l 128,0 c 6.648,0 12,5.352 12,12 l 0,-1 c 0,-6.648 -5.352,-12 -12,-12 l -128,0 z"
       style="color:#000000;clip-rule:nonzero;display:inline;overflow:visible;visibility:visible;opacity:0.2;isolation:auto;mix-blend-mode:normal;color-interpolation:sRGB;color-interpolation-filters:linearRGB;solid-color:#000000;solid-opacity:1;fill:#ffffff;fill-opacity:1;fill-rule:evenodd;stroke:none;stroke-width:1;stroke-linecap:butt;stroke-linejoin:round;stroke-miterlimit:4;stroke-dasharray:none;stroke-dashoffset:0;stroke-opacity:1;color-rendering:auto;image-rendering:auto;shape-rendering:auto;text-rendering:auto;enable-background:accumulate" />
    <path
       id="rect3371-8"
       d="m 20,1019.3622 0,1 c 0,6.648 5.352,12 12,12 l 128,0 c 6.648,0 12,-5.352 12,-12 l 0,-1 c 0,6.648 -5.352,12 -12,12 l -128,0 c -6.648,0 -12,-5.352 -12,-12 z"
       style="color:#000000;clip-rule:nonzero;display:inline;overflow:visible;visibility:visible;opacity:0.2;isolation:auto;mix-blend-mode:normal;color-interpolation:sRGB;color-interpolation-filters:linearRGB;solid-color:#000000;solid-opacity:1;fill:#3e2723;fill-opacity:1;fill-rule:evenodd;stroke:none;stroke-width:1;stroke-linecap:butt;stroke-linejoin:round;stroke-miterlimit:4;stroke-dasharray:none;stroke-dashoffset:0;stroke-opacity:1;color-rendering:auto;image-rendering:auto;shape-rendering:auto;text-rendering:auto;enable-background:accumulate"
       inkscape:connector-curvature="0" />
  </g>
  <g
     sodipodi:insensitive="true"
     inkscape:label="Finish"
     id="layer2"
     inkscape:groupmode="layer">
    <rect
       transform="translate(0,-860.36216)"
       ry="12"
       rx="12"
       y="880.36218"
       x="20"
       height="152"
       width="152"
       id="rect3371-2"
       style="color:#000000;clip-rule:nonzero;display:inline;overflow:visible;visibility:visible;opacity:1;isolation:auto;mix-blend-mode:normal;color-interpolation:sRGB;color-interpolation-filters:linearRGB;solid-color:#000000;solid-opacity:1;fill:url(#radialGradient5089);fill-opacity:1;fill-rule:evenodd;stroke:none;stroke-width:1;stroke-linecap:butt;stroke-linejoin:round;stroke-miterlimit:4;stroke-dasharray:none;stroke-dashoffset:0;stroke-opacity:1;color-rendering:auto;image-rendering:auto;shape-rendering:auto;text-rendering:auto;enable-background:accumulate" />
  </g>
</svg>
