<?xml version="1.0" encoding="UTF-8" standalone="no"?>
<!-- Created with Inkscape (http://www.inkscape.org/) -->

<svg
   xmlns:dc="http://purl.org/dc/elements/1.1/"
   xmlns:cc="http://creativecommons.org/ns#"
   xmlns:rdf="http://www.w3.org/1999/02/22-rdf-syntax-ns#"
   xmlns:svg="http://www.w3.org/2000/svg"
   xmlns="http://www.w3.org/2000/svg"
   xmlns:xlink="http://www.w3.org/1999/xlink"
   xmlns:sodipodi="http://sodipodi.sourceforge.net/DTD/sodipodi-0.dtd"
   xmlns:inkscape="http://www.inkscape.org/namespaces/inkscape"
   inkscape:export-ydpi="90"
   inkscape:export-xdpi="90"
   inkscape:export-filename="C:\createme\Material Design Icons\PNG\cover_plan.png"
   sodipodi:docname="cover_plan.svg"
   inkscape:version="0.91 r13725"
   version="1.1"
   id="svg2"
   viewBox="0 0 192 192"
   height="192"
   width="192">
  <sodipodi:namedview
     inkscape:window-maximized="1"
     inkscape:window-y="-8"
     inkscape:window-x="-8"
     inkscape:window-height="1017"
     inkscape:window-width="1920"
     showguides="false"
     units="px"
     showgrid="false"
     inkscape:current-layer="layer2"
     inkscape:document-units="px"
     inkscape:cy="14.355773"
     inkscape:cx="-201.3496"
     inkscape:zoom="0.5"
     inkscape:pageshadow="2"
     inkscape:pageopacity="0.0"
     borderopacity="1.0"
     bordercolor="#666666"
     pagecolor="#ffffff"
     id="base">
    <sodipodi:guide
       inkscape:color="rgb(0,0,255)"
       inkscape:label=""
       id="guide3354"
       orientation="0,1"
       position="0,184" />
    <sodipodi:guide
       inkscape:color="rgb(0,0,255)"
       inkscape:label=""
       id="guide3356"
       orientation="1,0"
       position="8,0" />
    <sodipodi:guide
       inkscape:color="rgb(0,0,255)"
       inkscape:label=""
       id="guide3358"
       orientation="0,1"
       position="0,8" />
    <sodipodi:guide
       inkscape:color="rgb(0,0,255)"
       inkscape:label=""
       id="guide3360"
       orientation="1,0"
       position="184,0" />
    <sodipodi:guide
       inkscape:color="rgb(0,0,255)"
       inkscape:label=""
       id="guide3362"
       orientation="0,1"
       position="0,20" />
    <sodipodi:guide
       inkscape:color="rgb(0,0,255)"
       inkscape:label=""
       id="guide3364"
       orientation="1,0"
       position="172,0" />
    <sodipodi:guide
       inkscape:color="rgb(0,0,255)"
       inkscape:label=""
       id="guide3366"
       orientation="0,1"
       position="96,172" />
    <sodipodi:guide
       inkscape:color="rgb(0,0,255)"
       inkscape:label=""
       id="guide3368"
       orientation="1,0"
       position="20,0" />
    <sodipodi:guide
       inkscape:color="rgb(0,0,255)"
       inkscape:label=""
       id="guide3370"
       orientation="0,1"
       position="0,32" />
    <sodipodi:guide
       inkscape:color="rgb(0,0,255)"
       inkscape:label=""
       id="guide3372"
       orientation="1,0"
       position="160,0" />
    <sodipodi:guide
       inkscape:color="rgb(0,0,255)"
       inkscape:label=""
       id="guide3374"
       orientation="0,1"
       position="0,160" />
    <sodipodi:guide
       inkscape:color="rgb(0,0,255)"
       inkscape:label=""
       id="guide3376"
       orientation="1,0"
       position="32,0" />
    <inkscape:grid
       id="grid3378"
       type="xygrid" />
    <sodipodi:guide
       inkscape:color="rgb(255,0,0)"
       inkscape:label=""
       id="guide5849"
       orientation="-0.70710678,0.70710678"
       position="0,0" />
    <sodipodi:guide
       inkscape:color="rgb(255,0,0)"
       inkscape:label=""
       id="guide5851"
       orientation="1,0"
       position="124,0" />
    <sodipodi:guide
       inkscape:color="rgb(255,0,0)"
       inkscape:label=""
       id="guide5853"
       orientation="0.70710678,0.70710678"
       position="0,192" />
    <sodipodi:guide
       inkscape:color="rgb(255,0,0)"
       inkscape:label=""
       id="guide5855"
       orientation="1,0"
       position="96,0" />
    <sodipodi:guide
       inkscape:color="rgb(255,0,0)"
       inkscape:label=""
       id="guide5859"
       orientation="0,1"
       position="0,96" />
    <sodipodi:guide
       inkscape:color="rgb(255,0,0)"
       inkscape:label=""
       id="guide5861"
       orientation="0,1"
       position="0,124" />
    <sodipodi:guide
       inkscape:color="rgb(255,0,0)"
       inkscape:label=""
       id="guide5863"
       orientation="0,1"
       position="0,68" />
    <sodipodi:guide
       inkscape:color="rgb(255,0,0)"
       inkscape:label=""
       id="guide5865"
       orientation="1,0"
       position="68,0" />
    <sodipodi:guide
       id="guide5869"
       orientation="-192,0"
       position="192,0" />
    <sodipodi:guide
       id="guide5871"
       orientation="0,-192"
       position="192,192" />
  </sodipodi:namedview>
  <defs
     id="defs4">
    <linearGradient
       inkscape:collect="always"
       id="linearGradient9396">
      <stop
         style="stop-color:#f5f5f5;stop-opacity:1;"
         offset="0"
         id="stop9398" />
      <stop
         style="stop-color:#f5f5f5;stop-opacity:0;"
         offset="1"
         id="stop9400" />
    </linearGradient>
    <clipPath
       id="clipPath10430"
       clipPathUnits="userSpaceOnUse">
      <path
         id="path10432"
         d="m 1241.028,39.3409 224.537,0 0,178.031 -224.537,0 0,-178.031 z"
         inkscape:connector-curvature="0" />
    </clipPath>
    <clipPath
       id="clipPath10438"
       clipPathUnits="userSpaceOnUse">
      <path
         id="path10440"
         d="m 1260.156,213.3477 0,-170.2268 191.3337,0 0,170.2268"
         inkscape:connector-curvature="0" />
    </clipPath>
    <filter
       id="filter5248"
       inkscape:label="Drop Shadow"
       style="color-interpolation-filters:sRGB;">
      <feFlood
         id="feFlood5250"
         result="flood"
         flood-color="rgb(0,0,0)"
         flood-opacity="0.2" />
      <feComposite
         id="feComposite5252"
         result="composite1"
         operator="in"
         in2="SourceGraphic"
         in="flood" />
      <feGaussianBlur
         id="feGaussianBlur5254"
         result="blur"
         stdDeviation="2"
         in="composite1" />
      <feOffset
         id="feOffset5256"
         result="offset"
         dy="4"
         dx="4.57967e-015" />
      <feComposite
         id="feComposite5258"
         result="fbSourceGraphic"
         operator="over"
         in2="offset"
         in="SourceGraphic" />
      <feColorMatrix
         id="feColorMatrix7649"
         values="0 0 0 -1 0 0 0 0 -1 0 0 0 0 -1 0 0 0 0 1 0"
         in="fbSourceGraphic"
         result="fbSourceGraphicAlpha" />
      <feFlood
         in="fbSourceGraphic"
         result="flood"
         flood-color="rgb(0,0,0)"
         flood-opacity="0.2"
         id="feFlood7651" />
      <feComposite
         result="composite1"
         operator="in"
         in="flood"
         in2="fbSourceGraphic"
         id="feComposite7653" />
      <feGaussianBlur
         result="blur"
         stdDeviation="2"
         in="composite1"
         id="feGaussianBlur7655" />
      <feOffset
         result="offset"
         dy="0"
         dx="0"
         id="feOffset7657" />
      <feComposite
         result="composite2"
         operator="over"
         in="fbSourceGraphic"
         in2="offset"
         id="feComposite7659" />
    </filter>
    <clipPath
       clipPathUnits="userSpaceOnUse"
       id="clipPath9375">
      <path
         style="fill:#f5f5f5;fill-opacity:1;fill-rule:evenodd;stroke:none;stroke-width:1px;stroke-linecap:butt;stroke-linejoin:miter;stroke-opacity:1"
         d="m 32,20 128,0 c 6,0 12,6 12,12 l 0,128.00004 c 0,6 -6,12 -12,12 l -128,0 c -6,0 -12,-6 -12,-12 L 20,32 c 0,-6 6,-12 12,-12 z"
         id="path9377"
         inkscape:connector-curvature="0"
         sodipodi:nodetypes="ccccccccc" />
    </clipPath>
    <radialGradient
       inkscape:collect="always"
       xlink:href="#linearGradient9396"
       id="radialGradient9402"
       cx="20"
       cy="880.36243"
       fx="20"
       fy="880.36243"
       r="76"
       gradientTransform="matrix(9.0193796e-7,1.9999999,-2,9.0193801e-7,1780.7248,840.36138)"
       gradientUnits="userSpaceOnUse" />
    <path
       id="a"
       d="M0 0h24v24H0V0z" />
    <filter
       style="color-interpolation-filters:sRGB;"
       inkscape:label="Drop Shadow"
       id="filter7222"
       height="1.7000000000000004">
      <feFlood
         flood-opacity="0.2"
         flood-color="rgb(26,35,126)"
         result="flood"
         id="feFlood7224" />
      <feComposite
         in="flood"
         in2="SourceGraphic"
         operator="in"
         result="composite1"
         id="feComposite7226" />
      <feGaussianBlur
         in="composite1"
         stdDeviation="4"
         result="blur"
         id="feGaussianBlur7228" />
      <feOffset
         dx="0"
         dy="4"
         result="offset"
         id="feOffset7230" />
      <feComposite
         in="SourceGraphic"
         in2="offset"
         operator="over"
         result="composite2"
         id="feComposite7232" />
    </filter>
    <clipPath
       clipPathUnits="userSpaceOnUse"
       id="clipPath7244">
      <path
         style="fill:#448aff;fill-opacity:1;fill-rule:evenodd;stroke:none;stroke-width:1px;stroke-linecap:butt;stroke-linejoin:miter;stroke-opacity:1"
         d="m 32,20 c -6,0 -12,6 -12,12 l 0,128 c 0,6 6,12 12,12 l 69.61328,0 c 8.74199,7.46766 20.05795,12 32.38672,12 27.5,0 50,-22.5 50,-50 0,-12.32877 -4.53234,-23.64473 -12,-32.38672 L 172,32 c 0,-6 -6,-12 -12,-12 L 32,20 Z"
         id="path7246"
         inkscape:connector-curvature="0" />
    </clipPath>
  </defs>
  <metadata
     id="metadata7">
    <rdf:RDF>
      <cc:Work
         rdf:about="">
        <dc:format>image/svg+xml</dc:format>
        <dc:type
           rdf:resource="http://purl.org/dc/dcmitype/StillImage" />
        <dc:title></dc:title>
      </cc:Work>
    </rdf:RDF>
  </metadata>
  <g
     inkscape:label="background"
     id="layer2"
     inkscape:groupmode="layer">
    <g
       id="g5464"
       style="filter:url(#filter5248)">
      <path
         style="fill:#448aff;fill-opacity:1;fill-rule:evenodd;stroke:none;stroke-width:1px;stroke-linecap:butt;stroke-linejoin:miter;stroke-opacity:1"
         d="m 32,20 128,0 c 6,0 12,6 12,12 l 0,128.00004 c 0,6 -6,12 -12,12 l -128,0 c -6,0 -12,-6 -12,-12 L 20,32 c 0,-6 6,-12 12,-12 z"
         id="path5588"
         inkscape:connector-curvature="0"
         sodipodi:nodetypes="ccccccccc" />
      <path
         clip-path="none"
         id="path7099"
         d="m 32,20 c -6,0 -12,6 -12,12 l 0,36 152,0 0,-36 c 0,-6 -6,-12 -12,-12 L 32,20 Z"
         style="opacity:1;fill:#82b1ff;fill-opacity:1;fill-rule:evenodd;stroke:none;stroke-width:1px;stroke-linecap:butt;stroke-linejoin:miter;stroke-opacity:1"
         inkscape:connector-curvature="0" />
      <path
         inkscape:connector-curvature="0"
         id="path7101"
         d="m 50,42 a 8,8 0 0 0 -8,8 8,8 0 0 0 8,8 8,8 0 0 0 8,-8 8,8 0 0 0 -8,-8 z m 92,0 a 8,8 0 0 0 -8,8 8,8 0 0 0 8,8 8,8 0 0 0 8,-8 8,8 0 0 0 -8,-8 z"
         style="opacity:1;fill:#f5f5f5;fill-opacity:1;fill-rule:nonzero;stroke:none;stroke-width:2.94899988;stroke-linecap:butt;stroke-linejoin:miter;stroke-miterlimit:4;stroke-dasharray:none;stroke-dashoffset:0;stroke-opacity:1" />
      <g
         id="g7116">
        <path
           inkscape:connector-curvature="0"
           style="opacity:0.2;fill:#1a237e;fill-opacity:1;fill-rule:nonzero;stroke:none;stroke-width:2.94899988;stroke-linecap:butt;stroke-linejoin:miter;stroke-miterlimit:4;stroke-dasharray:none;stroke-dashoffset:0;stroke-opacity:1"
           d="M 42.021484,50.423828 A 8,8 0 0 0 42,51 8,8 0 0 0 50,59 8,8 0 0 0 58,51 8,8 0 0 0 57.978516,50.576172 8,8 0 0 1 50,58 8,8 0 0 1 42.021484,50.423828 Z m 91.999996,0 A 8,8 0 0 0 134,51 a 8,8 0 0 0 8,8 8,8 0 0 0 8,-8 8,8 0 0 0 -0.0215,-0.423828 A 8,8 0 0 1 142,58 8,8 0 0 1 134.02148,50.423828 Z"
           id="path7108" />
        <path
           inkscape:connector-curvature="0"
           style="opacity:0.2;fill:#ffffff;fill-opacity:1;fill-rule:nonzero;stroke:none;stroke-width:2.94899988;stroke-linecap:butt;stroke-linejoin:miter;stroke-miterlimit:4;stroke-dasharray:none;stroke-dashoffset:0;stroke-opacity:1"
           d="m 50,42 a 8,8 0 0 0 -8,8 8,8 0 0 0 0.02148,0.423828 A 8,8 0 0 1 50,43 8,8 0 0 1 57.978516,50.576172 8,8 0 0 0 58,50 8,8 0 0 0 50,42 Z m 92,0 a 8,8 0 0 0 -8,8 8,8 0 0 0 0.0215,0.423828 A 8,8 0 0 1 142,43 8,8 0 0 1 149.97852,50.576172 8,8 0 0 0 150,50 8,8 0 0 0 142,42 Z"
           id="path7111" />
      </g>
      <path
         id="path7136"
         d="m 41.715,160 34.285715,0 0,-40 -34.285715,0 0,40 z m 40,0 68.57144,0 0,-40 -68.57144,0 0,40 z m -40,-80 0,34.28572 108.57144,0 0,-34.28572 L 41.715,80 Z"
         inkscape:connector-curvature="0"
         style="opacity:1;fill:#82b1ff;fill-opacity:1" />
      <path
         id="path7158"
         d="m 134,84 c -27.5,0 -50,22.5 -50,50 0,27.5 22.5,50 50,50 27.5,0 50,-22.5 50,-50 0,-27.5 -22.5,-50 -50,-50 z"
         clip-path="url(#clipPath7244)"
         inkscape:connector-curvature="0"
         sodipodi:nodetypes="sssss"
         style="fill:#f44336;fill-opacity:1;filter:url(#filter7222)" />
      <g
         style="fill:#000000"
         id="g7179"
         transform="matrix(5,0,0,5,74,74)">
        <path
           style="fill:#f5f5f5"
           sodipodi:nodetypes="ccccccc"
           id="path7181"
           d="M 16.2,16.2 11,13 l 0,-6 1.5,0 0,5.2 4.5,2.7 z"
           clip-path="url(#b)"
           inkscape:connector-curvature="0" />
      </g>
      <g
         id="g7214">
        <path
           inkscape:connector-curvature="0"
           style="opacity:0.2;fill:#ffffff;fill-opacity:1"
           clip-path="url(#b)"
           d="m 134,84 c -27.5,0 -50,22.5 -50,50 0,0.16768 0.01005,0.3327 0.01172,0.5 C 84.283778,107.22892 106.66768,85 134,85 c 27.33232,0 49.71622,22.22892 49.98828,49.5 0.002,-0.1673 0.0117,-0.33232 0.0117,-0.5 0,-27.5 -22.5,-50 -50,-50 z"
           id="path7204" />
        <path
           inkscape:connector-curvature="0"
           style="opacity:0.2;fill:#3e2723;fill-opacity:1"
           clip-path="url(#b)"
           d="M 84.011719,133.5 C 84.01005,133.6673 84,133.83232 84,134 c 0,27.5 22.5,50 50,50 27.5,0 50,-22.5 50,-50 0,-0.16768 -0.0101,-0.3327 -0.0117,-0.5 C 183.71622,160.77108 161.33232,183 134,183 106.66768,183 84.283778,160.77108 84.011719,133.5 Z"
           id="path7209" />
      </g>
      <path
         style="opacity:1;fill:#f5f5f5;fill-opacity:1;fill-rule:nonzero;stroke:none;stroke-width:2.94899988;stroke-linecap:butt;stroke-linejoin:miter;stroke-miterlimit:4;stroke-dasharray:none;stroke-dashoffset:0;stroke-opacity:1;filter:url(#filter7222)"
         d="m 50,42 a 8,8 0 0 0 -8,8 8,8 0 0 0 8,8 8,8 0 0 0 8,-8 8,8 0 0 0 -8,-8 z m 92,0 a 8,8 0 0 0 -8,8 8,8 0 0 0 8,8 8,8 0 0 0 8,-8 8,8 0 0 0 -8,-8 z"
         id="path7277"
         inkscape:connector-curvature="0" />
    </g>
  </g>
  <g
     inkscape:label="finish"
     id="layer3"
     inkscape:groupmode="layer"
     sodipodi:insensitive="true">
    <path
       inkscape:connector-curvature="0"
       id="path4180"
       d="m 32,20 c -6,0 -12,6 -12,12 l 0,1 c 0,-6 6,-12 12,-12 l 128,0 c 6,0 12,6 12,12 l 0,-1 c 0,-6 -6,-12 -12,-12 L 32,20 Z"
       style="opacity:0.1;fill:#ffffff;fill-opacity:1;fill-rule:evenodd;stroke:none;stroke-width:1px;stroke-linecap:butt;stroke-linejoin:miter;stroke-opacity:1" />
    <path
       style="opacity:0.2;fill:#1a237e;fill-opacity:1;fill-rule:evenodd;stroke:none;stroke-width:1px;stroke-linecap:butt;stroke-linejoin:miter;stroke-opacity:1"
       d="m 20,159 0,1 c 0,6 6,12 12,12 l 69.61328,0 c -0.38717,-0.33073 -0.77739,-0.65785 -1.1543,-1 L 32,171 c -6,0 -12,-6 -12,-12 z"
       id="path4186"
       inkscape:connector-curvature="0" />
    <path
       style="opacity:0.1;fill:url(#radialGradient9402);fill-opacity:1;fill-rule:evenodd;stroke:none;stroke-width:1px;stroke-linecap:butt;stroke-linejoin:miter;stroke-opacity:1"
       d="m 32,880.36216 128,0 c 6,0 12,6 12,12 l 0,128.00004 c 0,6 -6,12 -12,12 l -128,0 c -6,0 -12,-6 -12,-12 l 0,-128.00004 c 0,-6 6,-12 12,-12 z"
       id="path9393"
       inkscape:connector-curvature="0"
       sodipodi:nodetypes="ccccccccc"
       transform="translate(0,-860.36216)" />
  </g>
</svg>
