<?xml version="1.0" encoding="UTF-8" standalone="no"?>
<!-- Created with Inkscape (http://www.inkscape.org/) -->

<svg
   xmlns:dc="http://purl.org/dc/elements/1.1/"
   xmlns:cc="http://creativecommons.org/ns#"
   xmlns:rdf="http://www.w3.org/1999/02/22-rdf-syntax-ns#"
   xmlns:svg="http://www.w3.org/2000/svg"
   xmlns="http://www.w3.org/2000/svg"
   xmlns:xlink="http://www.w3.org/1999/xlink"
   xmlns:sodipodi="http://sodipodi.sourceforge.net/DTD/sodipodi-0.dtd"
   xmlns:inkscape="http://www.inkscape.org/namespaces/inkscape"
   id="svg2"
   version="1.1"
   inkscape:version="0.91 r"
   xml:space="preserve"
   width="48"
   height="48"
   viewBox="0 0 48 48"
   sodipodi:docname="banshee.svg"
   style="enable-background:new"
   inkscape:export-filename="/home/german/Desktop/icons/banshee.png"
   inkscape:export-xdpi="90"
   inkscape:export-ydpi="90"><metadata
     id="metadata8"><rdf:RDF><cc:Work
         rdf:about=""><dc:format>image/svg+xml</dc:format><dc:type
           rdf:resource="http://purl.org/dc/dcmitype/StillImage" /><dc:title></dc:title></cc:Work></rdf:RDF></metadata><defs
     id="defs6"><linearGradient
       inkscape:collect="always"
       id="linearGradient5472"><stop
         style="stop-color:#ffffff;stop-opacity:0.10196079"
         offset="0"
         id="stop5474" /><stop
         style="stop-color:#ffffff;stop-opacity:0"
         offset="1"
         id="stop5476" /></linearGradient><clipPath
       clipPathUnits="userSpaceOnUse"
       id="clipPath18"><path
         d="M 0,512 512,512 512,0 0,0 0,512 Z"
         id="path20"
         inkscape:connector-curvature="0" /></clipPath><filter
       style="color-interpolation-filters:sRGB"
       inkscape:label="Drop Shadow"
       id="filter4376"><feFlood
         flood-opacity="0.12549"
         flood-color="rgb(0,0,0)"
         result="flood"
         id="feFlood4378" /><feComposite
         in="flood"
         in2="SourceGraphic"
         operator="in"
         result="composite1"
         id="feComposite4380" /><feGaussianBlur
         in="composite1"
         stdDeviation="1"
         result="blur"
         id="feGaussianBlur4382" /><feOffset
         dx="0"
         dy="1"
         result="offset"
         id="feOffset4384" /><feComposite
         in="SourceGraphic"
         in2="offset"
         operator="over"
         result="composite2"
         id="feComposite4386" /></filter><radialGradient
       inkscape:collect="always"
       xlink:href="#linearGradient5472"
       id="radialGradient5478"
       cx="0.032475598"
       cy="6.9838867"
       fx="0.032475598"
       fy="6.9838867"
       r="15.696289"
       gradientTransform="matrix(0,3.0465541,-3.0407548,0,21.268763,0.05118892)"
       gradientUnits="userSpaceOnUse" /><filter
       style="color-interpolation-filters:sRGB;"
       inkscape:label="Drop Shadow"
       id="filter5483"><feFlood
         flood-opacity="0.12549"
         flood-color="rgb(0,0,0)"
         result="flood"
         id="feFlood5485" /><feComposite
         in="flood"
         in2="SourceGraphic"
         operator="in"
         result="composite1"
         id="feComposite5487" /><feGaussianBlur
         in="composite1"
         stdDeviation="1"
         result="blur"
         id="feGaussianBlur5489" /><feOffset
         dx="0"
         dy="1"
         result="offset"
         id="feOffset5491" /><feComposite
         in="SourceGraphic"
         in2="offset"
         operator="over"
         result="composite2"
         id="feComposite5493" /></filter><filter
       style="color-interpolation-filters:sRGB;"
       inkscape:label="Drop Shadow"
       id="filter5513"><feFlood
         flood-opacity="0.2"
         flood-color="rgb(0,0,0)"
         result="flood"
         id="feFlood5515" /><feComposite
         in="flood"
         in2="SourceGraphic"
         operator="in"
         result="composite1"
         id="feComposite5517" /><feGaussianBlur
         in="composite1"
         stdDeviation="1"
         result="blur"
         id="feGaussianBlur5519" /><feOffset
         dx="0"
         dy="1"
         result="offset"
         id="feOffset5521" /><feComposite
         in="SourceGraphic"
         in2="offset"
         operator="over"
         result="composite2"
         id="feComposite5523" /></filter><filter
       style="color-interpolation-filters:sRGB;"
       inkscape:label="Drop Shadow"
       id="filter5543"><feFlood
         flood-opacity="0.12549"
         flood-color="rgb(0,0,0)"
         result="flood"
         id="feFlood5545" /><feComposite
         in="flood"
         in2="SourceGraphic"
         operator="in"
         result="composite1"
         id="feComposite5547" /><feGaussianBlur
         in="composite1"
         stdDeviation="0.5"
         result="blur"
         id="feGaussianBlur5549" /><feOffset
         dx="0"
         dy="0"
         result="offset"
         id="feOffset5551" /><feComposite
         in="SourceGraphic"
         in2="offset"
         operator="over"
         result="fbSourceGraphic"
         id="feComposite5553" /><feColorMatrix
         result="fbSourceGraphicAlpha"
         in="fbSourceGraphic"
         values="0 0 0 -1 0 0 0 0 -1 0 0 0 0 -1 0 0 0 0 1 0"
         id="feColorMatrix5603" /><feFlood
         id="feFlood5605"
         flood-opacity="0.239216"
         flood-color="rgb(0,0,0)"
         result="flood"
         in="fbSourceGraphic" /><feComposite
         id="feComposite5607"
         in2="fbSourceGraphic"
         in="flood"
         operator="in"
         result="composite1" /><feGaussianBlur
         id="feGaussianBlur5609"
         in="composite1"
         stdDeviation="0.5"
         result="blur" /><feOffset
         id="feOffset5611"
         dx="0"
         dy="0.5"
         result="offset" /><feComposite
         id="feComposite5613"
         in2="offset"
         in="fbSourceGraphic"
         operator="over"
         result="composite2" /></filter></defs><sodipodi:namedview
     pagecolor="#ffffff"
     bordercolor="#666666"
     borderopacity="1"
     objecttolerance="10"
     gridtolerance="10"
     guidetolerance="10"
     inkscape:pageopacity="0"
     inkscape:pageshadow="2"
     inkscape:window-width="1360"
     inkscape:window-height="709"
     id="namedview4"
     showgrid="false"
     inkscape:zoom="5.9"
     inkscape:cx="24.333395"
     inkscape:cy="26.84197"
     inkscape:window-x="0"
     inkscape:window-y="0"
     inkscape:window-maximized="1"
     inkscape:current-layer="layer1"
     borderlayer="true"
     inkscape:showpageshadow="true"
     showguides="false"
     inkscape:guide-bbox="true"><sodipodi:guide
       position="8,96"
       orientation="1,0"
       id="guide4338"
       inkscape:label=""
       inkscape:color="rgb(0,0,255)" /><sodipodi:guide
       position="136,96"
       orientation="1,0"
       id="guide4340"
       inkscape:label=""
       inkscape:color="rgb(0,0,255)" /><sodipodi:guide
       position="96,8"
       orientation="0,1"
       id="guide4342"
       inkscape:label=""
       inkscape:color="rgb(0,0,255)" /><sodipodi:guide
       position="96,160"
       orientation="0,1"
       id="guide4344"
       inkscape:label=""
       inkscape:color="rgb(0,0,255)" /><sodipodi:guide
       position="96,96"
       orientation="-0.70710678,0.70710678"
       id="guide4346"
       inkscape:label=""
       inkscape:color="rgb(0,0,255)" /><sodipodi:guide
       position="96,96"
       orientation="0.70710678,0.70710678"
       id="guide4348"
       inkscape:label=""
       inkscape:color="rgb(0,0,255)" /><sodipodi:guide
       position="20,96"
       orientation="1,0"
       id="guide4350"
       inkscape:label=""
       inkscape:color="rgb(0,0,255)" /><sodipodi:guide
       position="32,96"
       orientation="1,0"
       id="guide4352"
       inkscape:label=""
       inkscape:color="rgb(0,0,255)" /><sodipodi:guide
       position="96,172"
       orientation="0,1"
       id="guide4354"
       inkscape:label=""
       inkscape:color="rgb(0,0,255)" /><sodipodi:guide
       position="96,96"
       orientation="0,1"
       id="guide4356"
       inkscape:label=""
       inkscape:color="rgb(0,0,255)" /><sodipodi:guide
       position="96,96"
       orientation="1,0"
       id="guide4358"
       inkscape:label=""
       inkscape:color="rgb(0,0,255)" /><sodipodi:guide
       position="96,20"
       orientation="0,1"
       id="guide4360"
       inkscape:label=""
       inkscape:color="rgb(0,0,255)" /><sodipodi:guide
       position="96,32"
       orientation="0,1"
       id="guide4362"
       inkscape:label=""
       inkscape:color="rgb(0,0,255)" /><sodipodi:guide
       position="96,184"
       orientation="0,1"
       id="guide4364"
       inkscape:label=""
       inkscape:color="rgb(0,0,255)" /><sodipodi:guide
       position="160,96"
       orientation="1,0"
       id="guide4366"
       inkscape:label=""
       inkscape:color="rgb(0,0,255)" /><sodipodi:guide
       position="184,96"
       orientation="1,0"
       id="guide4368"
       inkscape:label=""
       inkscape:color="rgb(0,0,255)" /><sodipodi:guide
       position="96,136"
       orientation="0,1"
       id="guide4370"
       inkscape:label=""
       inkscape:color="rgb(0,0,255)" /><sodipodi:guide
       position="96,56"
       orientation="0,1"
       id="guide4372"
       inkscape:label=""
       inkscape:color="rgb(0,0,255)" /><sodipodi:guide
       position="56,96"
       orientation="1,0"
       id="guide4374"
       inkscape:label=""
       inkscape:color="rgb(0,0,255)" /><sodipodi:guide
       position="172,96"
       orientation="1,0"
       id="guide4376"
       inkscape:label=""
       inkscape:color="rgb(0,0,255)" /></sodipodi:namedview><g
     inkscape:groupmode="layer"
     id="layer1"
     inkscape:label="Bg"
     transform="translate(0,-144)"><circle
       style="opacity:1;fill:#e0e0e0;fill-opacity:1;fill-rule:evenodd;stroke:none;stroke-width:12;stroke-linecap:butt;stroke-linejoin:miter;stroke-miterlimit:4;stroke-dasharray:none;stroke-dashoffset:0;stroke-opacity:1;enable-background:new;filter:url(#filter5543)"
       id="path5350"
       cx="23.999952"
       cy="175.49995"
       r="14.500043" /><g
       id="g5505"><path
         inkscape:connector-curvature="0"
         id="path5350-2"
         d="m 23.999953,160.99991 a 14.500043,14.500043 0 0 0 -14.5000428,14.50005 14.500043,14.500043 0 0 0 0.0054,0.14648 14.500043,14.500043 0 0 1 14.4946718,-14.39652 14.500043,14.500043 0 0 1 14.494673,14.35355 14.500043,14.500043 0 0 0 0.0054,-0.10351 14.500043,14.500043 0 0 0 -14.500043,-14.50005 z"
         style="opacity:1;fill:#ffffff;fill-opacity:0.41568627;fill-rule:evenodd;stroke:none;stroke-width:12;stroke-linecap:butt;stroke-linejoin:miter;stroke-miterlimit:4;stroke-dasharray:none;stroke-dashoffset:0;stroke-opacity:1;enable-background:new" /><path
         inkscape:connector-curvature="0"
         id="path5350-3"
         d="M 38.494626,175.35347 A 14.500043,14.500043 0 0 1 23.999953,189.75 14.500043,14.500043 0 0 1 9.5052812,175.39644 14.500043,14.500043 0 0 0 9.4999102,175.49996 14.500043,14.500043 0 0 0 23.999953,190 a 14.500043,14.500043 0 0 0 14.500043,-14.50004 14.500043,14.500043 0 0 0 -0.0054,-0.14649 z"
         style="opacity:1;fill:#212121;fill-opacity:0.10196078;fill-rule:evenodd;stroke:none;stroke-width:12;stroke-linecap:butt;stroke-linejoin:miter;stroke-miterlimit:4;stroke-dasharray:none;stroke-dashoffset:0;stroke-opacity:1;enable-background:new" /></g></g><g
     inkscape:groupmode="layer"
     id="layer2"
     inkscape:label="Fg"
     transform="translate(0,-144)"><g
       id="g5525"><path
         inkscape:connector-curvature="0"
         id="path6"
         d="m 7.10675,145.99987 0,8.44409 8.444094,0 0,21.11193 c -6.6e-5,4.66555 3.780212,8.44409 8.445782,8.44409 4.665567,0 8.444095,-3.77854 8.444095,-8.44409 0,-4.66558 -3.778528,-8.4441 -8.444095,-8.4441 -1.541116,0 -2.978175,0.44273 -4.223734,1.16052 l 0,-22.27244 z m 16.889876,26.10146 c 1.907898,0 3.454556,1.54666 3.454556,3.45456 0,1.90789 -1.546658,3.45455 -3.454556,3.45455 -1.907899,0 -3.454556,-1.54666 -3.454556,-3.45455 0,-1.9079 1.546657,-3.45456 3.454556,-3.45456 z"
         style="display:inline;fill:#448aff;fill-opacity:1;enable-background:new;filter:url(#filter5513)"
         sodipodi:nodetypes="ccccssscccsssss" /><g
         id="g5495"><path
           style="display:inline;fill:#ffffff;fill-opacity:0.2;enable-background:new"
           d="m 7.1591839,145.99987 0,0.21591 12.6661421,0 0,-0.21591 -12.6661421,0 z M 24.04906,167.11179 c -1.541116,0 -2.978175,0.44273 -4.223734,1.16052 l 0,0.21591 c 1.245559,-0.71779 2.682618,-1.16052 4.223734,-1.16052 4.629125,0 8.380642,3.72093 8.439035,8.33614 4.59e-4,-0.0363 0.0051,-0.0715 0.0051,-0.10795 0,-4.66558 -3.778527,-8.4441 -8.444095,-8.4441 z m 3.449496,8.5335 a 3.4545557,3.4545557 0 0 1 -3.449496,3.36515 3.4545557,3.4545557 0 0 1 -3.449495,-3.32804 3.4545557,3.4545557 0 0 0 -0.0051,0.0894 3.4545557,3.4545557 0 0 0 3.454555,3.45455 3.4545557,3.4545557 0 0 0 3.454556,-3.45455 3.4545557,3.4545557 0 0 0 -0.0051,-0.12651 z"
           id="path6-6"
           inkscape:connector-curvature="0" /><path
           style="display:inline;fill:#1a237e;fill-opacity:0.2;enable-background:new"
           d="m 7.1591839,154.22805 0,0.21591 8.4440941,0 0,-0.21591 -8.4440941,0 z M 24.04906,171.88542 a 3.4545557,3.4545557 0 0 0 -3.454556,3.45456 3.4545557,3.4545557 0 0 0 0.0051,0.12651 3.4545557,3.4545557 0 0 1 3.449494,-3.36516 3.4545557,3.4545557 0 0 1 3.449496,3.32805 3.4545557,3.4545557 0 0 0 0.0051,-0.0894 3.4545557,3.4545557 0 0 0 -3.454556,-3.45456 z m -8.445782,3.45456 0,0.21591 c -6.6e-5,4.66555 3.780212,8.44409 8.445782,8.44409 4.665567,0 8.444095,-3.77854 8.444095,-8.44409 0,-0.0365 -0.0046,-0.0716 -0.0051,-0.10796 -0.05836,4.61519 -3.809874,8.33614 -8.438999,8.33614 -4.66557,0 -8.445848,-3.77854 -8.445782,-8.44409 z"
           id="path6-2"
           inkscape:connector-curvature="0" /></g></g></g><g
     inkscape:groupmode="layer"
     id="layer4"
     inkscape:label="Finish"
     transform="translate(0,-144)"
     sodipodi:insensitive="true"><path
       style="opacity:1;fill:url(#radialGradient5478);fill-opacity:1;fill-rule:evenodd;stroke:none;stroke-width:12;stroke-linecap:butt;stroke-linejoin:miter;stroke-miterlimit:4;stroke-dasharray:none;stroke-dashoffset:0;stroke-opacity:1;enable-background:new"
       d="m 7.1074219,2 0,8.443359 8.4433591,0 0,9.294922 A 14.500043,14.500043 0 0 0 9.5,31.5 14.500043,14.500043 0 0 0 24,46 14.500043,14.500043 0 0 0 38.5,31.5 14.500043,14.500043 0 0 0 24,17 14.500043,14.500043 0 0 0 19.773438,17.642578 l 0,-15.4277342 0.05273,0 0,-0.2148438 -0.05273,0 -12.6660161,0 z"
       transform="translate(0,144)"
       id="path5350-5"
       inkscape:connector-curvature="0" /></g></svg>