<?xml version="1.0" encoding="UTF-8" standalone="no"?>
<!-- Created with Inkscape (http://www.inkscape.org/) -->

<svg
   xmlns:osb="http://www.openswatchbook.org/uri/2009/osb"
   xmlns:dc="http://purl.org/dc/elements/1.1/"
   xmlns:cc="http://creativecommons.org/ns#"
   xmlns:rdf="http://www.w3.org/1999/02/22-rdf-syntax-ns#"
   xmlns:svg="http://www.w3.org/2000/svg"
   xmlns="http://www.w3.org/2000/svg"
   xmlns:xlink="http://www.w3.org/1999/xlink"
   xmlns:sodipodi="http://sodipodi.sourceforge.net/DTD/sodipodi-0.dtd"
   xmlns:inkscape="http://www.inkscape.org/namespaces/inkscape"
   id="svg2"
   version="1.1"
   inkscape:version="0.91 r"
   xml:space="preserve"
   width="48"
   height="48"
   viewBox="0 0 48 48"
   sodipodi:docname="brasero.svg"
   style="enable-background:new"
   inkscape:export-filename="/home/german/Proyects/Linux-Icon-Pack/MaterialOS/48x48/devices/media-optical.png"
   inkscape:export-xdpi="90.300003"
   inkscape:export-ydpi="90.300003"><metadata
     id="metadata8"><rdf:RDF><cc:Work
         rdf:about=""><dc:format>image/svg+xml</dc:format><dc:type
           rdf:resource="http://purl.org/dc/dcmitype/StillImage" /><dc:title></dc:title><cc:license
           rdf:resource="" /></cc:Work></rdf:RDF></metadata><defs
     id="defs6"><linearGradient
       inkscape:collect="always"
       id="linearGradient5811"><stop
         style="stop-color:#ffffff;stop-opacity:0.1"
         offset="0"
         id="stop5813" /><stop
         style="stop-color:#e0e0e0;stop-opacity:0;"
         offset="1"
         id="stop5815" /></linearGradient><linearGradient
       id="linearGradient6179"
       osb:paint="solid"><stop
         style="stop-color:#000000;stop-opacity:1;"
         offset="0"
         id="stop6181" /></linearGradient><clipPath
       clipPathUnits="userSpaceOnUse"
       id="clipPath18"><path
         d="M 0,512 512,512 512,0 0,0 0,512 Z"
         id="path20"
         inkscape:connector-curvature="0" /></clipPath><filter
       style="color-interpolation-filters:sRGB"
       inkscape:label="Drop Shadow"
       id="filter4889"><feFlood
         flood-opacity="0.26000000000000001"
         flood-color="rgb(0,0,0)"
         result="flood"
         id="feFlood4891" /><feComposite
         in="flood"
         in2="SourceGraphic"
         operator="in"
         result="composite1"
         id="feComposite4893" /><feGaussianBlur
         in="composite1"
         stdDeviation="0.40000000000000002"
         result="blur"
         id="feGaussianBlur4895" /><feOffset
         dx="0"
         dy="0.80000000000000004"
         result="offset"
         id="feOffset4897" /><feComposite
         in2="offset"
         operator="over"
         result="composite2"
         id="feComposite4899"
         in="SourceGraphic" /></filter><filter
       style="color-interpolation-filters:sRGB"
       inkscape:label="Drop Shadow"
       id="filter4683"><feFlood
         flood-opacity="0.2"
         flood-color="rgb(0,0,0)"
         result="flood"
         id="feFlood4685" /><feComposite
         in="flood"
         in2="SourceGraphic"
         operator="in"
         result="composite1"
         id="feComposite4687" /><feGaussianBlur
         in="composite1"
         stdDeviation="4"
         result="blur"
         id="feGaussianBlur4689" /><feOffset
         dx="0"
         dy="4"
         result="offset"
         id="feOffset4691" /><feComposite
         in="SourceGraphic"
         in2="offset"
         operator="over"
         result="composite2"
         id="feComposite4693" /></filter><filter
       style="color-interpolation-filters:sRGB"
       inkscape:label="Drop Shadow"
       id="filter4683-6"><feFlood
         flood-opacity="0.2"
         flood-color="rgb(0,0,0)"
         result="flood"
         id="feFlood4685-4" /><feComposite
         in="flood"
         in2="SourceGraphic"
         operator="in"
         result="composite1"
         id="feComposite4687-7" /><feGaussianBlur
         in="composite1"
         stdDeviation="4"
         result="blur"
         id="feGaussianBlur4689-4" /><feOffset
         dx="0"
         dy="4"
         result="offset"
         id="feOffset4691-6" /><feComposite
         in="SourceGraphic"
         in2="offset"
         operator="over"
         result="composite2"
         id="feComposite4693-0" /></filter><filter
       style="color-interpolation-filters:sRGB"
       inkscape:label="Drop Shadow"
       id="filter5680"><feFlood
         flood-opacity="0.2"
         flood-color="rgb(0,0,0)"
         result="flood"
         id="feFlood5682" /><feComposite
         in="flood"
         in2="SourceGraphic"
         operator="in"
         result="composite1"
         id="feComposite5684" /><feGaussianBlur
         in="composite1"
         stdDeviation="4"
         result="blur"
         id="feGaussianBlur5686" /><feOffset
         dx="0"
         dy="4"
         result="offset"
         id="feOffset5688" /><feComposite
         in="SourceGraphic"
         in2="offset"
         operator="over"
         result="composite2"
         id="feComposite5690" /></filter><filter
       style="color-interpolation-filters:sRGB"
       inkscape:label="Drop Shadow"
       id="filter4683-3"><feFlood
         flood-opacity="0.2"
         flood-color="rgb(0,0,0)"
         result="flood"
         id="feFlood4685-5" /><feComposite
         in="flood"
         in2="SourceGraphic"
         operator="in"
         result="composite1"
         id="feComposite4687-4" /><feGaussianBlur
         in="composite1"
         stdDeviation="4"
         result="blur"
         id="feGaussianBlur4689-7" /><feOffset
         dx="0"
         dy="4"
         result="offset"
         id="feOffset4691-4" /><feComposite
         in="SourceGraphic"
         in2="offset"
         operator="over"
         result="composite2"
         id="feComposite4693-1" /></filter><filter
       style="color-interpolation-filters:sRGB"
       inkscape:label="Drop Shadow"
       id="filter5680-7"><feFlood
         flood-opacity="0.2"
         flood-color="rgb(0,0,0)"
         result="flood"
         id="feFlood5682-7" /><feComposite
         in="flood"
         in2="SourceGraphic"
         operator="in"
         result="composite1"
         id="feComposite5684-9" /><feGaussianBlur
         in="composite1"
         stdDeviation="4"
         result="blur"
         id="feGaussianBlur5686-9" /><feOffset
         dx="0"
         dy="4"
         result="offset"
         id="feOffset5688-9" /><feComposite
         in="SourceGraphic"
         in2="offset"
         operator="over"
         result="composite2"
         id="feComposite5690-9" /></filter><radialGradient
       inkscape:collect="always"
       xlink:href="#linearGradient5811"
       id="radialGradient5817"
       cx="0.18703108"
       cy="0.18703113"
       fx="0.18703108"
       fy="0.18703113"
       r="88"
       gradientUnits="userSpaceOnUse"
       gradientTransform="matrix(0.52174315,0.52174315,-0.1767767,0.1767767,-0.01776168,143.91611)" /><filter
       style="color-interpolation-filters:sRGB;"
       inkscape:label="Drop Shadow"
       id="filter4217"><feFlood
         flood-opacity="0.2"
         flood-color="rgb(0,0,0)"
         result="flood"
         id="feFlood4219" /><feComposite
         in="flood"
         in2="SourceGraphic"
         operator="in"
         result="composite1"
         id="feComposite4221" /><feGaussianBlur
         in="composite1"
         stdDeviation="1"
         result="blur"
         id="feGaussianBlur4223" /><feOffset
         dx="0"
         dy="1"
         result="offset"
         id="feOffset4225" /><feComposite
         in="SourceGraphic"
         in2="offset"
         operator="over"
         result="composite2"
         id="feComposite4227" /></filter><filter
       style="color-interpolation-filters:sRGB;"
       inkscape:label="Drop Shadow"
       id="filter4229"><feFlood
         flood-opacity="0.2"
         flood-color="rgb(0,0,0)"
         result="flood"
         id="feFlood4231" /><feComposite
         in="flood"
         in2="SourceGraphic"
         operator="in"
         result="composite1"
         id="feComposite4233" /><feGaussianBlur
         in="composite1"
         stdDeviation="1"
         result="blur"
         id="feGaussianBlur4235" /><feOffset
         dx="0"
         dy="1"
         result="offset"
         id="feOffset4237" /><feComposite
         in="SourceGraphic"
         in2="offset"
         operator="over"
         result="composite2"
         id="feComposite4239" /></filter><filter
       style="color-interpolation-filters:sRGB"
       inkscape:label="Drop Shadow"
       id="filter5680-8"><feFlood
         flood-opacity="0.2"
         flood-color="rgb(0,0,0)"
         result="flood"
         id="feFlood5682-8" /><feComposite
         in="flood"
         in2="SourceGraphic"
         operator="in"
         result="composite1"
         id="feComposite5684-91" /><feGaussianBlur
         in="composite1"
         stdDeviation="4"
         result="blur"
         id="feGaussianBlur5686-93" /><feOffset
         dx="0"
         dy="4"
         result="offset"
         id="feOffset5688-8" /><feComposite
         in="SourceGraphic"
         in2="offset"
         operator="over"
         result="composite2"
         id="feComposite5690-4" /></filter><filter
       style="color-interpolation-filters:sRGB;"
       inkscape:label="Drop Shadow"
       id="filter4248"><feFlood
         flood-opacity="0.2"
         flood-color="rgb(0,0,0)"
         result="flood"
         id="feFlood4250" /><feComposite
         in="flood"
         in2="SourceGraphic"
         operator="in"
         result="composite1"
         id="feComposite4252" /><feGaussianBlur
         in="composite1"
         stdDeviation="1"
         result="blur"
         id="feGaussianBlur4254" /><feOffset
         dx="0"
         dy="1"
         result="offset"
         id="feOffset4256" /><feComposite
         in="SourceGraphic"
         in2="offset"
         operator="over"
         result="composite2"
         id="feComposite4258" /></filter></defs><sodipodi:namedview
     pagecolor="#ffffff"
     bordercolor="#666666"
     borderopacity="1"
     objecttolerance="10"
     gridtolerance="10"
     guidetolerance="10"
     inkscape:pageopacity="0"
     inkscape:pageshadow="2"
     inkscape:window-width="1360"
     inkscape:window-height="709"
     id="namedview4"
     showgrid="false"
     inkscape:zoom="8"
     inkscape:cx="23.146417"
     inkscape:cy="18.557937"
     inkscape:window-x="0"
     inkscape:window-y="0"
     inkscape:window-maximized="1"
     inkscape:current-layer="layer1"
     borderlayer="true"
     inkscape:showpageshadow="true"
     showguides="false"
     inkscape:guide-bbox="true"
     showborder="true"><sodipodi:guide
       position="8,96"
       orientation="1,0"
       id="guide4338"
       inkscape:label=""
       inkscape:color="rgb(0,0,255)" /><sodipodi:guide
       position="136,96"
       orientation="1,0"
       id="guide4340"
       inkscape:label=""
       inkscape:color="rgb(0,0,255)" /><sodipodi:guide
       position="96,8"
       orientation="0,1"
       id="guide4342"
       inkscape:label=""
       inkscape:color="rgb(0,0,255)" /><sodipodi:guide
       position="96,160"
       orientation="0,1"
       id="guide4344"
       inkscape:label=""
       inkscape:color="rgb(0,0,255)" /><sodipodi:guide
       position="96,96"
       orientation="-0.70710678,0.70710678"
       id="guide4346"
       inkscape:label=""
       inkscape:color="rgb(0,0,255)" /><sodipodi:guide
       position="96,96"
       orientation="0.70710678,0.70710678"
       id="guide4348"
       inkscape:label=""
       inkscape:color="rgb(0,0,255)" /><sodipodi:guide
       position="20,96"
       orientation="1,0"
       id="guide4350"
       inkscape:label=""
       inkscape:color="rgb(0,0,255)" /><sodipodi:guide
       position="32,96"
       orientation="1,0"
       id="guide4352"
       inkscape:label=""
       inkscape:color="rgb(0,0,255)" /><sodipodi:guide
       position="96,172"
       orientation="0,1"
       id="guide4354"
       inkscape:label=""
       inkscape:color="rgb(0,0,255)" /><sodipodi:guide
       position="96,96"
       orientation="0,1"
       id="guide4356"
       inkscape:label=""
       inkscape:color="rgb(0,0,255)" /><sodipodi:guide
       position="96,96"
       orientation="1,0"
       id="guide4358"
       inkscape:label=""
       inkscape:color="rgb(0,0,255)" /><sodipodi:guide
       position="96,20"
       orientation="0,1"
       id="guide4360"
       inkscape:label=""
       inkscape:color="rgb(0,0,255)" /><sodipodi:guide
       position="96,32"
       orientation="0,1"
       id="guide4362"
       inkscape:label=""
       inkscape:color="rgb(0,0,255)" /><sodipodi:guide
       position="96,184"
       orientation="0,1"
       id="guide4364"
       inkscape:label=""
       inkscape:color="rgb(0,0,255)" /><sodipodi:guide
       position="160,96"
       orientation="1,0"
       id="guide4366"
       inkscape:label=""
       inkscape:color="rgb(0,0,255)" /><sodipodi:guide
       position="184,96"
       orientation="1,0"
       id="guide4368"
       inkscape:label=""
       inkscape:color="rgb(0,0,255)" /><sodipodi:guide
       position="96,136"
       orientation="0,1"
       id="guide4370"
       inkscape:label=""
       inkscape:color="rgb(0,0,255)" /><sodipodi:guide
       position="96,56"
       orientation="0,1"
       id="guide4372"
       inkscape:label=""
       inkscape:color="rgb(0,0,255)" /><sodipodi:guide
       position="56,96"
       orientation="1,0"
       id="guide4374"
       inkscape:label=""
       inkscape:color="rgb(0,0,255)" /><sodipodi:guide
       position="172,96"
       orientation="1,0"
       id="guide4376"
       inkscape:label=""
       inkscape:color="rgb(0,0,255)" /></sodipodi:namedview><g
     inkscape:groupmode="layer"
     id="layer6"
     inkscape:label="Base"
     style="display:inline"
     transform="translate(0,-144)"><path
       style="opacity:1;fill:#e0e0e0;fill-opacity:1;fill-rule:evenodd;stroke:none;stroke-width:4;stroke-linecap:butt;stroke-linejoin:miter;stroke-miterlimit:4;stroke-dasharray:none;stroke-dashoffset:0;stroke-opacity:1;filter:url(#filter4229)"
       d="M 96,8 A 88,88 0 0 0 8,96 88,88 0 0 0 96,184 88,88 0 0 0 184,96 88,88 0 0 0 96,8 Z m 0,68 A 20,20 0 0 1 116,96 20,20 0 0 1 96,116 20,20 0 0 1 76,96 20,20 0 0 1 96,76 Z"
       id="path4468"
       inkscape:connector-curvature="0"
       transform="matrix(0.24999999,0,0,0.24999999,0,144)" /><path
       style="opacity:1;fill:#eeeeee;fill-opacity:1;fill-rule:evenodd;stroke:none;stroke-width:4;stroke-linecap:butt;stroke-linejoin:miter;stroke-miterlimit:4;stroke-dasharray:none;stroke-dashoffset:0;stroke-opacity:1;enable-background:new"
       d="m 19.172362,169.29346 -16.4228504,4.40039 a 21.999999,21.999999 0 0 0 15.5566394,15.55664 l 4.401367,-16.42627 a 4.9999997,4.9999997 0 0 1 -3.535156,-3.53076 z"
       id="path4468-2"
       inkscape:connector-curvature="0" /><path
       style="display:inline;opacity:1;fill:#eeeeee;fill-opacity:1;fill-rule:evenodd;stroke:none;stroke-width:4;stroke-linecap:butt;stroke-linejoin:miter;stroke-miterlimit:4;stroke-dasharray:none;stroke-dashoffset:0;stroke-opacity:1;enable-background:new"
       d="m 29.693845,146.74951 -4.401367,16.42627 a 4.9999997,4.9999997 0 0 1 3.535157,3.53076 l 16.422849,-4.40039 A 21.999999,21.999999 0 0 0 29.693845,146.74951 Z"
       id="path4468-2-8"
       inkscape:connector-curvature="0" /><path
       style="display:inline;opacity:1;fill:#ffffff;fill-opacity:0.40000001;fill-rule:evenodd;stroke:none;stroke-width:4;stroke-linecap:butt;stroke-linejoin:miter;stroke-miterlimit:4;stroke-dasharray:none;stroke-dashoffset:0;stroke-opacity:1;enable-background:new"
       d="m 23.999998,146 a 21.999999,21.999999 0 0 0 -21.9999981,22 21.999999,21.999999 0 0 0 0.00537,0.14648 A 21.999999,21.999999 0 0 1 23.999997,146.25 21.999999,21.999999 0 0 1 45.994626,168.10352 21.999999,21.999999 0 0 0 46.000026,168 21.999999,21.999999 0 0 0 24.000027,146 Z"
       id="path4468-3"
       inkscape:connector-curvature="0" /><path
       style="display:inline;opacity:1;fill:#212121;fill-opacity:0.10196079;fill-rule:evenodd;stroke:none;stroke-width:4;stroke-linecap:butt;stroke-linejoin:miter;stroke-miterlimit:4;stroke-dasharray:none;stroke-dashoffset:0;stroke-opacity:1;enable-background:new"
       d="M 45.994627,167.85352 A 21.999999,21.999999 0 0 1 23.999998,189.75 21.999999,21.999999 0 0 1 2.005371,167.89648 21.999999,21.999999 0 0 0 2.000001,168 a 21.999999,21.999999 0 0 0 21.999998,22 21.999999,21.999999 0 0 0 21.999999,-22 21.999999,21.999999 0 0 0 -0.0054,-0.14648 z"
       id="path4468-23"
       inkscape:connector-curvature="0" /><path
       style="opacity:1;fill:#bdbdbd;fill-opacity:1;fill-rule:evenodd;stroke:none;stroke-width:4;stroke-linecap:butt;stroke-linejoin:miter;stroke-miterlimit:4;stroke-dasharray:none;stroke-dashoffset:0;stroke-opacity:1"
       d="m 23.999998,158 a 9.9999994,9.9999994 0 0 0 -9.999999,10 9.9999994,9.9999994 0 0 0 9.999999,10 9.9999994,9.9999994 0 0 0 10,-10 9.9999994,9.9999994 0 0 0 -10,-10 z m 0,5 a 4.9999997,4.9999997 0 0 1 5,5 4.9999997,4.9999997 0 0 1 -5,5 4.9999997,4.9999997 0 0 1 -5,-5 4.9999997,4.9999997 0 0 1 5,-5 z"
       id="path4602"
       inkscape:connector-curvature="0" /><path
       style="display:inline;opacity:1;fill:#ffffff;fill-opacity:0.2;fill-rule:evenodd;stroke:none;stroke-width:4;stroke-linecap:butt;stroke-linejoin:miter;stroke-miterlimit:4;stroke-dasharray:none;stroke-dashoffset:0;stroke-opacity:1;enable-background:new"
       d="m 28.994628,168.10449 c -0.05682,2.71845 -2.275592,4.89318 -4.99463,4.89551 -2.703498,-0.002 -4.915953,-2.15214 -4.994629,-4.85449 -0.0022,0.0348 -0.0039,0.0696 -0.0054,0.10449 0,2.76142 2.238577,5 5,5 2.761423,0 5,-2.23858 5,-5 -0.001,-0.0485 -0.0029,-0.097 -0.0054,-0.14551 z"
       id="path4602-6"
       inkscape:connector-curvature="0"
       sodipodi:nodetypes="ccccscc" /><path
       style="display:inline;opacity:1;fill:#212121;fill-opacity:0.2;fill-rule:evenodd;stroke:none;stroke-width:4;stroke-linecap:butt;stroke-linejoin:miter;stroke-miterlimit:4;stroke-dasharray:none;stroke-dashoffset:0;stroke-opacity:1;enable-background:new"
       d="m 23.999998,162.75 c -2.761423,0 -5,2.23858 -5,5 0.0011,0.0485 0.0029,0.097 0.0054,0.14551 0.05682,-2.71845 2.275593,-4.89318 4.99463,-4.89551 2.703498,0.002 4.915955,2.15214 4.99463,4.85449 0.0022,-0.0348 0.0039,-0.0696 0.0054,-0.10449 0,-2.76142 -2.238577,-5 -5,-5 z"
       id="path4602-4"
       inkscape:connector-curvature="0"
       sodipodi:nodetypes="scccccs" /></g><g
     inkscape:groupmode="layer"
     id="layer1"
     inkscape:label="Burn"><g
       id="g5673"
       style="enable-background:new;filter:url(#filter4248)"
       transform="matrix(0.24999881,0,0,0.24999881,1.7127647e-4,2.5995525e-4)"><g
         id="g5669"
         style=""><path
           style="fill:#f44336;fill-opacity:1;fill-rule:evenodd;stroke:none;stroke-width:0.09649627;stroke-linecap:butt;stroke-linejoin:miter;stroke-miterlimit:4;stroke-dasharray:none;stroke-opacity:1;"
           d="M 121.45443,104.00003 C 113.6738,114.29153 104,128.36958 104,148.35224 c 0,22.60884 12.37416,35.64779 40,35.64779 27.62584,0 40,-13.03895 40,-35.64779 0,-19.98266 -9.6738,-34.06071 -17.45443,-44.35221 l -9.1862,16.68295 L 144,104.00003 l -13.35938,16.68295 -9.18619,-16.68295 z"
           id="path5375"
           inkscape:connector-curvature="0" /><path
           inkscape:connector-curvature="0"
           style="display:inline;fill:#ffab40;fill-opacity:1;fill-rule:evenodd;stroke:none;stroke-width:0.09649627;stroke-linecap:butt;stroke-linejoin:miter;stroke-miterlimit:4;stroke-dasharray:none;stroke-opacity:1;"
           d="m 128.96962,128.66667 c -5.18709,6.86117 -11.63629,16.2465 -11.63629,29.56816 C 117.33333,173.3075 125.58277,182 144,182 c 18.41722,0 26.66666,-8.6925 26.66666,-23.76517 0,-13.32166 -6.4492,-22.70699 -11.63628,-29.56816 l -6.12413,11.122 -8.90625,-11.122 -8.90625,11.122 -6.12413,-11.122 z"
           id="path5375-9" /></g><path
         id="path5375-8"
         d="M 121.45508,104 C 113.67445,114.2915 104,128.3689 104,148.35156 c 0,0.15305 0.007,0.30096 0.008,0.45313 0.17559,-19.69102 9.7383,-33.60798 17.44727,-43.80469 l 9.18554,16.68359 L 144,105 157.35938,121.68359 166.54492,105 c 7.70897,10.19671 17.27168,24.11367 17.44727,43.80469 0.001,-0.15217 0.008,-0.30008 0.008,-0.45313 C 184,128.3689 174.32555,114.2915 166.54492,104 L 157.35938,120.68359 144,104 130.64062,120.68359 121.45508,104 Z"
         style="fill:#ffffff;fill-opacity:0.2;fill-rule:evenodd;stroke:none;stroke-width:0.09649627;stroke-linecap:butt;stroke-linejoin:miter;stroke-miterlimit:4;stroke-dasharray:none;stroke-opacity:1;enable-background:new;"
         inkscape:connector-curvature="0" /><path
         id="path5375-6"
         d="m 104.00781,147.80469 c -0.002,0.18305 -0.008,0.36282 -0.008,0.54687 C 104,170.9604 116.37416,184 144,184 c 27.62584,0 40,-13.0396 40,-35.64844 0,-0.18405 -0.006,-0.36382 -0.008,-0.54687 C 183.82566,170.13164 171.43883,183 144,183 c -27.43883,0 -39.82566,-12.86836 -39.99219,-35.19531 z"
         style="fill:#3e2723;fill-opacity:0.2;fill-rule:evenodd;stroke:none;stroke-width:0.09649627;stroke-linecap:butt;stroke-linejoin:miter;stroke-miterlimit:4;stroke-dasharray:none;stroke-opacity:1;enable-background:new;"
         inkscape:connector-curvature="0" /></g></g><g
     inkscape:groupmode="layer"
     id="layer7"
     inkscape:label="Finish"
     style="display:inline"
     transform="translate(0,-144)"
     sodipodi:insensitive="true"><path
       style="display:inline;opacity:1;fill:url(#radialGradient5817);fill-opacity:1;fill-rule:evenodd;stroke:none;stroke-width:4;stroke-linecap:butt;stroke-linejoin:miter;stroke-miterlimit:4;stroke-dasharray:none;stroke-dashoffset:0;stroke-opacity:1;enable-background:new"
       d="m 24,146 a 22,22 0 0 0 -22,22 22,22 0 0 0 22,22 22,22 0 0 0 6.501953,-0.98242 C 31.957592,189.6618 33.781027,190 36,190 c 6.90646,0 10,-3.2599 10,-8.91211 0,-2.26496 -0.49936,-4.22371 -1.22412,-5.93115 A 22,22 0 0 0 46,168 22,22 0 0 0 24,146 Z m 0,17 a 5,5 0 0 1 5,5 5,5 0 0 1 -5,5 5,5 0 0 1 -5,-5 5,5 0 0 1 5,-5 z"
       id="path4468-4"
       inkscape:connector-curvature="0" /></g></svg>