<?xml version="1.0" encoding="UTF-8" standalone="no"?>
<!-- Created with Inkscape (http://www.inkscape.org/) -->

<svg
   xmlns:dc="http://purl.org/dc/elements/1.1/"
   xmlns:cc="http://creativecommons.org/ns#"
   xmlns:rdf="http://www.w3.org/1999/02/22-rdf-syntax-ns#"
   xmlns:svg="http://www.w3.org/2000/svg"
   xmlns="http://www.w3.org/2000/svg"
   xmlns:xlink="http://www.w3.org/1999/xlink"
   xmlns:sodipodi="http://sodipodi.sourceforge.net/DTD/sodipodi-0.dtd"
   xmlns:inkscape="http://www.inkscape.org/namespaces/inkscape"
   id="svg2"
   version="1.1"
   inkscape:version="0.91 r"
   xml:space="preserve"
   width="48"
   height="48"
   viewBox="0 0 48 48"
   sodipodi:docname="preferences-system-alt.svg"
   style="enable-background:new"
   inkscape:export-filename="/home/german/Desktop/icons/preferences-system-alt.png"
   inkscape:export-xdpi="90"
   inkscape:export-ydpi="90"><metadata
     id="metadata8"><rdf:RDF><cc:Work
         rdf:about=""><dc:format>image/svg+xml</dc:format><dc:type
           rdf:resource="http://purl.org/dc/dcmitype/StillImage" /><dc:title></dc:title></cc:Work></rdf:RDF></metadata><defs
     id="defs6"><linearGradient
       inkscape:collect="always"
       id="linearGradient4445"><stop
         style="stop-color:#ffffff;stop-opacity:0.1"
         offset="0"
         id="stop4447" /><stop
         style="stop-color:#ffffff;stop-opacity:0"
         offset="1"
         id="stop4449" /></linearGradient><clipPath
       clipPathUnits="userSpaceOnUse"
       id="clipPath18"><path
         d="M 0,512 512,512 512,0 0,0 0,512 Z"
         id="path20"
         inkscape:connector-curvature="0" /></clipPath><filter
       inkscape:collect="always"
       style="color-interpolation-filters:sRGB"
       id="filter4404"><feBlend
         inkscape:collect="always"
         mode="darken"
         in2="BackgroundImage"
         id="feBlend4406" /></filter><filter
       id="filter4616"
       inkscape:label="Drop Shadow"
       style="color-interpolation-filters:sRGB"><feFlood
         id="feFlood4618"
         result="flood"
         flood-color="rgb(0,0,0)"
         flood-opacity="0.2" /><feComposite
         id="feComposite4620"
         result="composite1"
         operator="in"
         in2="SourceGraphic"
         in="flood" /><feGaussianBlur
         id="feGaussianBlur4622"
         result="blur"
         stdDeviation="4"
         in="composite1" /><feOffset
         id="feOffset4624"
         result="offset"
         dy="4"
         dx="0" /><feComposite
         id="feComposite4626"
         result="composite2"
         operator="over"
         in2="offset"
         in="SourceGraphic" /></filter><filter
       style="color-interpolation-filters:sRGB"
       inkscape:label="Drop Shadow"
       id="filter4673"><feFlood
         flood-opacity="0.2"
         flood-color="rgb(0,0,0)"
         result="flood"
         id="feFlood4675" /><feComposite
         in="flood"
         in2="SourceGraphic"
         operator="in"
         result="composite1"
         id="feComposite4677" /><feGaussianBlur
         in="composite1"
         stdDeviation="4"
         result="blur"
         id="feGaussianBlur4679" /><feOffset
         dx="0"
         dy="4"
         result="offset"
         id="feOffset4681" /><feComposite
         in="SourceGraphic"
         in2="offset"
         operator="over"
         result="composite2"
         id="feComposite4683" /></filter><filter
       style="color-interpolation-filters:sRGB"
       inkscape:label="Drop Shadow"
       id="filter4673-5"><feFlood
         flood-opacity="0.2"
         flood-color="rgb(0,0,0)"
         result="flood"
         id="feFlood4675-9" /><feComposite
         in="flood"
         in2="SourceGraphic"
         operator="in"
         result="composite1"
         id="feComposite4677-9" /><feGaussianBlur
         in="composite1"
         stdDeviation="4"
         result="blur"
         id="feGaussianBlur4679-1" /><feOffset
         dx="0"
         dy="4"
         result="offset"
         id="feOffset4681-1" /><feComposite
         in="SourceGraphic"
         in2="offset"
         operator="over"
         result="composite2"
         id="feComposite4683-4" /></filter><radialGradient
       inkscape:collect="always"
       xlink:href="#linearGradient4445"
       id="radialGradient4453"
       cx="0.40190232"
       cy="2.8506167"
       fx="0.40190232"
       fy="2.8506167"
       r="85.598297"
       gradientTransform="matrix(0.5273165,0.5273165,-0.54211183,0.54211183,1.2817147,142.31583)"
       gradientUnits="userSpaceOnUse" /><filter
       style="color-interpolation-filters:sRGB;"
       inkscape:label="Drop Shadow"
       id="filter4427"><feFlood
         flood-opacity="0.12549"
         flood-color="rgb(0,0,0)"
         result="flood"
         id="feFlood4429" /><feComposite
         in="flood"
         in2="SourceGraphic"
         operator="in"
         result="composite1"
         id="feComposite4431" /><feGaussianBlur
         in="composite1"
         stdDeviation="0.5"
         result="blur"
         id="feGaussianBlur4433" /><feOffset
         dx="0"
         dy="0"
         result="offset"
         id="feOffset4435" /><feComposite
         in="SourceGraphic"
         in2="offset"
         operator="over"
         result="composite2"
         id="feComposite4437" /></filter><filter
       style="color-interpolation-filters:sRGB;"
       inkscape:label="Drop Shadow"
       id="filter4493"><feFlood
         flood-opacity="0.239216"
         flood-color="rgb(0,0,0)"
         result="flood"
         id="feFlood4495" /><feComposite
         in="flood"
         in2="SourceGraphic"
         operator="in"
         result="composite1"
         id="feComposite4497" /><feGaussianBlur
         in="composite1"
         stdDeviation="0.5"
         result="blur"
         id="feGaussianBlur4499" /><feOffset
         dx="0"
         dy="1"
         result="offset"
         id="feOffset4501" /><feComposite
         in="SourceGraphic"
         in2="offset"
         operator="over"
         result="composite2"
         id="feComposite4503" /></filter><filter
       style="color-interpolation-filters:sRGB;"
       inkscape:label="Drop Shadow"
       id="filter4534"><feFlood
         flood-opacity="0.12549"
         flood-color="rgb(0,0,0)"
         result="flood"
         id="feFlood4536" /><feComposite
         in="flood"
         in2="SourceGraphic"
         operator="in"
         result="composite1"
         id="feComposite4538" /><feGaussianBlur
         in="composite1"
         stdDeviation="0.5"
         result="blur"
         id="feGaussianBlur4540" /><feOffset
         dx="0"
         dy="0"
         result="offset"
         id="feOffset4542" /><feComposite
         in="SourceGraphic"
         in2="offset"
         operator="over"
         result="fbSourceGraphic"
         id="feComposite4544" /><feColorMatrix
         result="fbSourceGraphicAlpha"
         in="fbSourceGraphic"
         values="0 0 0 -1 0 0 0 0 -1 0 0 0 0 -1 0 0 0 0 1 0"
         id="feColorMatrix4570" /><feFlood
         id="feFlood4572"
         flood-opacity="0.239216"
         flood-color="rgb(0,0,0)"
         result="flood"
         in="fbSourceGraphic" /><feComposite
         id="feComposite4574"
         in2="fbSourceGraphic"
         in="flood"
         operator="in"
         result="composite1" /><feGaussianBlur
         id="feGaussianBlur4576"
         in="composite1"
         stdDeviation="0.5"
         result="blur" /><feOffset
         id="feOffset4578"
         dx="0"
         dy="1"
         result="offset" /><feComposite
         id="feComposite4580"
         in2="offset"
         in="fbSourceGraphic"
         operator="over"
         result="composite2" /></filter><filter
       style="color-interpolation-filters:sRGB"
       inkscape:label="Drop Shadow"
       id="filter4534-8"><feFlood
         flood-opacity="0.12549"
         flood-color="rgb(0,0,0)"
         result="flood"
         id="feFlood4536-3" /><feComposite
         in="flood"
         in2="SourceGraphic"
         operator="in"
         result="composite1"
         id="feComposite4538-6" /><feGaussianBlur
         in="composite1"
         stdDeviation="0.5"
         result="blur"
         id="feGaussianBlur4540-3" /><feOffset
         dx="0"
         dy="0"
         result="offset"
         id="feOffset4542-2" /><feComposite
         in="SourceGraphic"
         in2="offset"
         operator="over"
         result="fbSourceGraphic"
         id="feComposite4544-0" /><feColorMatrix
         result="fbSourceGraphicAlpha"
         in="fbSourceGraphic"
         values="0 0 0 -1 0 0 0 0 -1 0 0 0 0 -1 0 0 0 0 1 0"
         id="feColorMatrix4570-9" /><feFlood
         id="feFlood4572-5"
         flood-opacity="0.239216"
         flood-color="rgb(0,0,0)"
         result="flood"
         in="fbSourceGraphic" /><feComposite
         id="feComposite4574-7"
         in2="fbSourceGraphic"
         in="flood"
         operator="in"
         result="composite1" /><feGaussianBlur
         id="feGaussianBlur4576-7"
         in="composite1"
         stdDeviation="0.5"
         result="blur" /><feOffset
         id="feOffset4578-8"
         dx="0"
         dy="1"
         result="offset" /><feComposite
         id="feComposite4580-9"
         in2="offset"
         in="fbSourceGraphic"
         operator="over"
         result="composite2" /></filter></defs><sodipodi:namedview
     pagecolor="#ffffff"
     bordercolor="#666666"
     borderopacity="1"
     objecttolerance="10"
     gridtolerance="10"
     guidetolerance="10"
     inkscape:pageopacity="0"
     inkscape:pageshadow="2"
     inkscape:window-width="1360"
     inkscape:window-height="709"
     id="namedview4"
     showgrid="false"
     inkscape:zoom="11.313709"
     inkscape:cx="19.870411"
     inkscape:cy="20.672878"
     inkscape:window-x="0"
     inkscape:window-y="0"
     inkscape:window-maximized="1"
     inkscape:current-layer="layer1"
     borderlayer="true"
     inkscape:showpageshadow="true"
     showguides="false"
     inkscape:guide-bbox="true"><sodipodi:guide
       position="8,96"
       orientation="1,0"
       id="guide4338"
       inkscape:label=""
       inkscape:color="rgb(0,0,255)" /><sodipodi:guide
       position="136,96"
       orientation="1,0"
       id="guide4340"
       inkscape:label=""
       inkscape:color="rgb(0,0,255)" /><sodipodi:guide
       position="96,8"
       orientation="0,1"
       id="guide4342"
       inkscape:label=""
       inkscape:color="rgb(0,0,255)" /><sodipodi:guide
       position="96,160"
       orientation="0,1"
       id="guide4344"
       inkscape:label=""
       inkscape:color="rgb(0,0,255)" /><sodipodi:guide
       position="96,96"
       orientation="-0.70710678,0.70710678"
       id="guide4346"
       inkscape:label=""
       inkscape:color="rgb(0,0,255)" /><sodipodi:guide
       position="96,96"
       orientation="0.70710678,0.70710678"
       id="guide4348"
       inkscape:label=""
       inkscape:color="rgb(0,0,255)" /><sodipodi:guide
       position="20,96"
       orientation="1,0"
       id="guide4350"
       inkscape:label=""
       inkscape:color="rgb(0,0,255)" /><sodipodi:guide
       position="32,96"
       orientation="1,0"
       id="guide4352"
       inkscape:label=""
       inkscape:color="rgb(0,0,255)" /><sodipodi:guide
       position="96,172"
       orientation="0,1"
       id="guide4354"
       inkscape:label=""
       inkscape:color="rgb(0,0,255)" /><sodipodi:guide
       position="96,96"
       orientation="0,1"
       id="guide4356"
       inkscape:label=""
       inkscape:color="rgb(0,0,255)" /><sodipodi:guide
       position="96,96"
       orientation="1,0"
       id="guide4358"
       inkscape:label=""
       inkscape:color="rgb(0,0,255)" /><sodipodi:guide
       position="96,20"
       orientation="0,1"
       id="guide4360"
       inkscape:label=""
       inkscape:color="rgb(0,0,255)" /><sodipodi:guide
       position="96,32"
       orientation="0,1"
       id="guide4362"
       inkscape:label=""
       inkscape:color="rgb(0,0,255)" /><sodipodi:guide
       position="96,184"
       orientation="0,1"
       id="guide4364"
       inkscape:label=""
       inkscape:color="rgb(0,0,255)" /><sodipodi:guide
       position="160,96"
       orientation="1,0"
       id="guide4366"
       inkscape:label=""
       inkscape:color="rgb(0,0,255)" /><sodipodi:guide
       position="184,96"
       orientation="1,0"
       id="guide4368"
       inkscape:label=""
       inkscape:color="rgb(0,0,255)" /><sodipodi:guide
       position="96,136"
       orientation="0,1"
       id="guide4370"
       inkscape:label=""
       inkscape:color="rgb(0,0,255)" /><sodipodi:guide
       position="96,56"
       orientation="0,1"
       id="guide4372"
       inkscape:label=""
       inkscape:color="rgb(0,0,255)" /><sodipodi:guide
       position="56,96"
       orientation="1,0"
       id="guide4374"
       inkscape:label=""
       inkscape:color="rgb(0,0,255)" /><sodipodi:guide
       position="172,96"
       orientation="1,0"
       id="guide4376"
       inkscape:label=""
       inkscape:color="rgb(0,0,255)" /><sodipodi:guide
       position="96,124"
       orientation="0,1"
       id="guide7642"
       inkscape:label=""
       inkscape:color="rgb(255,0,61)" /><sodipodi:guide
       position="96,68"
       orientation="0,1"
       id="guide7644"
       inkscape:label=""
       inkscape:color="rgb(255,0,82)" /><sodipodi:guide
       position="124,96"
       orientation="1,0"
       id="guide7646"
       inkscape:label=""
       inkscape:color="rgb(255,0,50)" /><sodipodi:guide
       position="68,96"
       orientation="1,0"
       id="guide7648"
       inkscape:label=""
       inkscape:color="rgb(255,0,137)" /></sodipodi:namedview><g
     id="g10"
     inkscape:groupmode="layer"
     inkscape:label="Grid"
     transform="matrix(1.25,0,0,-1.25,0,48)"
     style="display:none;filter:url(#filter4404)"
     sodipodi:insensitive="true"><g
       id="g14"
       transform="scale(0.075,0.075)"><g
         id="g16"
         clip-path="url(#clipPath18)"><path
           d="m 0.06,512.145 512,0 0,-512 -512,0 0,512 z"
           style="fill:none;stroke:#e7e8e9;stroke-width:1;stroke-linecap:butt;stroke-linejoin:miter;stroke-miterlimit:10;stroke-dasharray:none;stroke-opacity:1"
           id="path22"
           inkscape:connector-curvature="0" /><g
           id="g24"
           transform="translate(0.0599,10.8115)"><path
             d="M 0,0 512,0"
             style="fill:none;stroke:#e7e8e9;stroke-width:1;stroke-linecap:butt;stroke-linejoin:miter;stroke-miterlimit:10;stroke-dasharray:none;stroke-opacity:1"
             id="path26"
             inkscape:connector-curvature="0" /></g><g
           id="g28"
           transform="translate(0.0599,21.4782)"><path
             d="M 0,0 512,0"
             style="fill:none;stroke:#e7e8e9;stroke-width:1;stroke-linecap:butt;stroke-linejoin:miter;stroke-miterlimit:10;stroke-dasharray:none;stroke-opacity:1"
             id="path30"
             inkscape:connector-curvature="0" /></g><g
           id="g32"
           transform="translate(0.0599,32.1448)"><path
             d="M 0,0 512,0"
             style="fill:none;stroke:#e7e8e9;stroke-width:1;stroke-linecap:butt;stroke-linejoin:miter;stroke-miterlimit:10;stroke-dasharray:none;stroke-opacity:1"
             id="path34"
             inkscape:connector-curvature="0" /></g><g
           id="g36"
           transform="translate(0.0599,42.8115)"><path
             d="M 0,0 512,0"
             style="fill:none;stroke:#e7e8e9;stroke-width:1;stroke-linecap:butt;stroke-linejoin:miter;stroke-miterlimit:10;stroke-dasharray:none;stroke-opacity:1"
             id="path38"
             inkscape:connector-curvature="0" /></g><g
           id="g40"
           transform="translate(0.0599,53.4782)"><path
             d="M 0,0 512,0"
             style="fill:none;stroke:#e7e8e9;stroke-width:1;stroke-linecap:butt;stroke-linejoin:miter;stroke-miterlimit:10;stroke-dasharray:none;stroke-opacity:1"
             id="path42"
             inkscape:connector-curvature="0" /></g><g
           id="g44"
           transform="translate(0.0599,64.1448)"><path
             d="M 0,0 512,0"
             style="fill:none;stroke:#e7e8e9;stroke-width:1;stroke-linecap:butt;stroke-linejoin:miter;stroke-miterlimit:10;stroke-dasharray:none;stroke-opacity:1"
             id="path46"
             inkscape:connector-curvature="0" /></g><g
           id="g48"
           transform="translate(0.0599,74.8115)"><path
             d="M 0,0 512,0"
             style="fill:none;stroke:#e7e8e9;stroke-width:1;stroke-linecap:butt;stroke-linejoin:miter;stroke-miterlimit:10;stroke-dasharray:none;stroke-opacity:1"
             id="path50"
             inkscape:connector-curvature="0" /></g><g
           id="g52"
           transform="translate(0.0599,85.4782)"><path
             d="M 0,0 512,0"
             style="fill:none;stroke:#e7e8e9;stroke-width:1;stroke-linecap:butt;stroke-linejoin:miter;stroke-miterlimit:10;stroke-dasharray:none;stroke-opacity:1"
             id="path54"
             inkscape:connector-curvature="0" /></g><g
           id="g56"
           transform="translate(0.0599,96.1448)"><path
             d="M 0,0 512,0"
             style="fill:none;stroke:#e7e8e9;stroke-width:1;stroke-linecap:butt;stroke-linejoin:miter;stroke-miterlimit:10;stroke-dasharray:none;stroke-opacity:1"
             id="path58"
             inkscape:connector-curvature="0" /></g><g
           id="g60"
           transform="translate(0.0599,106.8115)"><path
             d="M 0,0 512,0"
             style="fill:none;stroke:#e7e8e9;stroke-width:1;stroke-linecap:butt;stroke-linejoin:miter;stroke-miterlimit:10;stroke-dasharray:none;stroke-opacity:1"
             id="path62"
             inkscape:connector-curvature="0" /></g><g
           id="g64"
           transform="translate(0.0599,117.4782)"><path
             d="M 0,0 512,0"
             style="fill:none;stroke:#e7e8e9;stroke-width:1;stroke-linecap:butt;stroke-linejoin:miter;stroke-miterlimit:10;stroke-dasharray:none;stroke-opacity:1"
             id="path66"
             inkscape:connector-curvature="0" /></g><g
           id="g68"
           transform="translate(0.0599,128.1448)"><path
             d="M 0,0 512,0"
             style="fill:none;stroke:#e7e8e9;stroke-width:1;stroke-linecap:butt;stroke-linejoin:miter;stroke-miterlimit:10;stroke-dasharray:none;stroke-opacity:1"
             id="path70"
             inkscape:connector-curvature="0" /></g><g
           id="g72"
           transform="translate(0.0599,138.8115)"><path
             d="M 0,0 512,0"
             style="fill:none;stroke:#e7e8e9;stroke-width:1;stroke-linecap:butt;stroke-linejoin:miter;stroke-miterlimit:10;stroke-dasharray:none;stroke-opacity:1"
             id="path74"
             inkscape:connector-curvature="0" /></g><g
           id="g76"
           transform="translate(0.0599,149.4782)"><path
             d="M 0,0 512,0"
             style="fill:none;stroke:#e7e8e9;stroke-width:1;stroke-linecap:butt;stroke-linejoin:miter;stroke-miterlimit:10;stroke-dasharray:none;stroke-opacity:1"
             id="path78"
             inkscape:connector-curvature="0" /></g><g
           id="g80"
           transform="translate(0.0599,160.1448)"><path
             d="M 0,0 512,0"
             style="fill:none;stroke:#e7e8e9;stroke-width:1;stroke-linecap:butt;stroke-linejoin:miter;stroke-miterlimit:10;stroke-dasharray:none;stroke-opacity:1"
             id="path82"
             inkscape:connector-curvature="0" /></g><g
           id="g84"
           transform="translate(0.0599,170.8115)"><path
             d="M 0,0 512,0"
             style="fill:none;stroke:#e7e8e9;stroke-width:1;stroke-linecap:butt;stroke-linejoin:miter;stroke-miterlimit:10;stroke-dasharray:none;stroke-opacity:1"
             id="path86"
             inkscape:connector-curvature="0" /></g><g
           id="g88"
           transform="translate(0.0599,181.4782)"><path
             d="M 0,0 512,0"
             style="fill:none;stroke:#d2d4d5;stroke-width:1;stroke-linecap:butt;stroke-linejoin:miter;stroke-miterlimit:10;stroke-dasharray:none;stroke-opacity:1"
             id="path90"
             inkscape:connector-curvature="0" /></g><g
           id="g92"
           transform="translate(0.0599,192.1448)"><path
             d="M 0,0 512,0"
             style="fill:none;stroke:#e7e8e9;stroke-width:1;stroke-linecap:butt;stroke-linejoin:miter;stroke-miterlimit:10;stroke-dasharray:none;stroke-opacity:1"
             id="path94"
             inkscape:connector-curvature="0" /></g><g
           id="g96"
           transform="translate(0.0599,202.8115)"><path
             d="M 0,0 512,0"
             style="fill:none;stroke:#e7e8e9;stroke-width:1;stroke-linecap:butt;stroke-linejoin:miter;stroke-miterlimit:10;stroke-dasharray:none;stroke-opacity:1"
             id="path98"
             inkscape:connector-curvature="0" /></g><g
           id="g100"
           transform="translate(0.0599,213.4782)"><path
             d="M 0,0 512,0"
             style="fill:none;stroke:#e7e8e9;stroke-width:1;stroke-linecap:butt;stroke-linejoin:miter;stroke-miterlimit:10;stroke-dasharray:none;stroke-opacity:1"
             id="path102"
             inkscape:connector-curvature="0" /></g><g
           id="g104"
           transform="translate(0.0599,224.1448)"><path
             d="M 0,0 512,0"
             style="fill:none;stroke:#e7e8e9;stroke-width:1;stroke-linecap:butt;stroke-linejoin:miter;stroke-miterlimit:10;stroke-dasharray:none;stroke-opacity:1"
             id="path106"
             inkscape:connector-curvature="0" /></g><g
           id="g108"
           transform="translate(0.0599,234.8115)"><path
             d="M 0,0 512,0"
             style="fill:none;stroke:#e7e8e9;stroke-width:1;stroke-linecap:butt;stroke-linejoin:miter;stroke-miterlimit:10;stroke-dasharray:none;stroke-opacity:1"
             id="path110"
             inkscape:connector-curvature="0" /></g><g
           id="g112"
           transform="translate(0.0599,245.4782)"><path
             d="M 0,0 512,0"
             style="fill:none;stroke:#e7e8e9;stroke-width:1;stroke-linecap:butt;stroke-linejoin:miter;stroke-miterlimit:10;stroke-dasharray:none;stroke-opacity:1"
             id="path114"
             inkscape:connector-curvature="0" /></g><g
           id="g116"
           transform="translate(0.0599,266.8115)"><path
             d="M 0,0 512,0"
             style="fill:none;stroke:#e7e8e9;stroke-width:1;stroke-linecap:butt;stroke-linejoin:miter;stroke-miterlimit:10;stroke-dasharray:none;stroke-opacity:1"
             id="path118"
             inkscape:connector-curvature="0" /></g><g
           id="g120"
           transform="translate(0.0599,277.4782)"><path
             d="M 0,0 512,0"
             style="fill:none;stroke:#e7e8e9;stroke-width:1;stroke-linecap:butt;stroke-linejoin:miter;stroke-miterlimit:10;stroke-dasharray:none;stroke-opacity:1"
             id="path122"
             inkscape:connector-curvature="0" /></g><g
           id="g124"
           transform="translate(0.0599,288.1448)"><path
             d="M 0,0 512,0"
             style="fill:none;stroke:#e7e8e9;stroke-width:1;stroke-linecap:butt;stroke-linejoin:miter;stroke-miterlimit:10;stroke-dasharray:none;stroke-opacity:1"
             id="path126"
             inkscape:connector-curvature="0" /></g><g
           id="g128"
           transform="translate(0.0599,298.8115)"><path
             d="M 0,0 512,0"
             style="fill:none;stroke:#e7e8e9;stroke-width:1;stroke-linecap:butt;stroke-linejoin:miter;stroke-miterlimit:10;stroke-dasharray:none;stroke-opacity:1"
             id="path130"
             inkscape:connector-curvature="0" /></g><g
           id="g132"
           transform="translate(0.0599,309.4782)"><path
             d="M 0,0 512,0"
             style="fill:none;stroke:#e7e8e9;stroke-width:1;stroke-linecap:butt;stroke-linejoin:miter;stroke-miterlimit:10;stroke-dasharray:none;stroke-opacity:1"
             id="path134"
             inkscape:connector-curvature="0" /></g><g
           id="g136"
           transform="translate(0.0599,320.1448)"><path
             d="M 0,0 512,0"
             style="fill:none;stroke:#e7e8e9;stroke-width:1;stroke-linecap:butt;stroke-linejoin:miter;stroke-miterlimit:10;stroke-dasharray:none;stroke-opacity:1"
             id="path138"
             inkscape:connector-curvature="0" /></g><g
           id="g140"
           transform="translate(0.0599,330.8115)"><path
             d="M 0,0 512,0"
             style="fill:none;stroke:#d2d4d5;stroke-width:1;stroke-linecap:butt;stroke-linejoin:miter;stroke-miterlimit:10;stroke-dasharray:none;stroke-opacity:1"
             id="path142"
             inkscape:connector-curvature="0" /></g><g
           id="g144"
           transform="translate(0.0599,341.4782)"><path
             d="M 0,0 512,0"
             style="fill:none;stroke:#e7e8e9;stroke-width:1;stroke-linecap:butt;stroke-linejoin:miter;stroke-miterlimit:10;stroke-dasharray:none;stroke-opacity:1"
             id="path146"
             inkscape:connector-curvature="0" /></g><g
           id="g148"
           transform="translate(0.0599,352.1448)"><path
             d="M 0,0 512,0"
             style="fill:none;stroke:#e7e8e9;stroke-width:1;stroke-linecap:butt;stroke-linejoin:miter;stroke-miterlimit:10;stroke-dasharray:none;stroke-opacity:1"
             id="path150"
             inkscape:connector-curvature="0" /></g><g
           id="g152"
           transform="translate(0.0599,362.8115)"><path
             d="M 0,0 512,0"
             style="fill:none;stroke:#e7e8e9;stroke-width:1;stroke-linecap:butt;stroke-linejoin:miter;stroke-miterlimit:10;stroke-dasharray:none;stroke-opacity:1"
             id="path154"
             inkscape:connector-curvature="0" /></g><g
           id="g156"
           transform="translate(0.0599,373.4782)"><path
             d="M 0,0 512,0"
             style="fill:none;stroke:#e7e8e9;stroke-width:1;stroke-linecap:butt;stroke-linejoin:miter;stroke-miterlimit:10;stroke-dasharray:none;stroke-opacity:1"
             id="path158"
             inkscape:connector-curvature="0" /></g><g
           id="g160"
           transform="translate(0.0599,384.1448)"><path
             d="M 0,0 512,0"
             style="fill:none;stroke:#e7e8e9;stroke-width:1;stroke-linecap:butt;stroke-linejoin:miter;stroke-miterlimit:10;stroke-dasharray:none;stroke-opacity:1"
             id="path162"
             inkscape:connector-curvature="0" /></g><g
           id="g164"
           transform="translate(0.0599,394.8115)"><path
             d="M 0,0 512,0"
             style="fill:none;stroke:#e7e8e9;stroke-width:1;stroke-linecap:butt;stroke-linejoin:miter;stroke-miterlimit:10;stroke-dasharray:none;stroke-opacity:1"
             id="path166"
             inkscape:connector-curvature="0" /></g><g
           id="g168"
           transform="translate(0.0599,405.4782)"><path
             d="M 0,0 512,0"
             style="fill:none;stroke:#e7e8e9;stroke-width:1;stroke-linecap:butt;stroke-linejoin:miter;stroke-miterlimit:10;stroke-dasharray:none;stroke-opacity:1"
             id="path170"
             inkscape:connector-curvature="0" /></g><g
           id="g172"
           transform="translate(0.0599,416.1448)"><path
             d="M 0,0 512,0"
             style="fill:none;stroke:#e7e8e9;stroke-width:1;stroke-linecap:butt;stroke-linejoin:miter;stroke-miterlimit:10;stroke-dasharray:none;stroke-opacity:1"
             id="path174"
             inkscape:connector-curvature="0" /></g><g
           id="g176"
           transform="translate(0.0599,426.8115)"><path
             d="M 0,0 512,0"
             style="fill:none;stroke:#e7e8e9;stroke-width:1;stroke-linecap:butt;stroke-linejoin:miter;stroke-miterlimit:10;stroke-dasharray:none;stroke-opacity:1"
             id="path178"
             inkscape:connector-curvature="0" /></g><g
           id="g180"
           transform="translate(0.0599,437.4782)"><path
             d="M 0,0 512,0"
             style="fill:none;stroke:#e7e8e9;stroke-width:1;stroke-linecap:butt;stroke-linejoin:miter;stroke-miterlimit:10;stroke-dasharray:none;stroke-opacity:1"
             id="path182"
             inkscape:connector-curvature="0" /></g><g
           id="g184"
           transform="translate(0.0599,448.1448)"><path
             d="M 0,0 512,0"
             style="fill:none;stroke:#e7e8e9;stroke-width:1;stroke-linecap:butt;stroke-linejoin:miter;stroke-miterlimit:10;stroke-dasharray:none;stroke-opacity:1"
             id="path186"
             inkscape:connector-curvature="0" /></g><g
           id="g188"
           transform="translate(0.0599,458.8115)"><path
             d="M 0,0 512,0"
             style="fill:none;stroke:#e7e8e9;stroke-width:1;stroke-linecap:butt;stroke-linejoin:miter;stroke-miterlimit:10;stroke-dasharray:none;stroke-opacity:1"
             id="path190"
             inkscape:connector-curvature="0" /></g><g
           id="g192"
           transform="translate(0.0599,469.4782)"><path
             d="M 0,0 512,0"
             style="fill:none;stroke:#e7e8e9;stroke-width:1;stroke-linecap:butt;stroke-linejoin:miter;stroke-miterlimit:10;stroke-dasharray:none;stroke-opacity:1"
             id="path194"
             inkscape:connector-curvature="0" /></g><g
           id="g196"
           transform="translate(0.0599,480.1448)"><path
             d="M 0,0 512,0"
             style="fill:none;stroke:#e7e8e9;stroke-width:1;stroke-linecap:butt;stroke-linejoin:miter;stroke-miterlimit:10;stroke-dasharray:none;stroke-opacity:1"
             id="path198"
             inkscape:connector-curvature="0" /></g><g
           id="g200"
           transform="translate(0.0599,490.8115)"><path
             d="M 0,0 512,0"
             style="fill:none;stroke:#e7e8e9;stroke-width:1;stroke-linecap:butt;stroke-linejoin:miter;stroke-miterlimit:10;stroke-dasharray:none;stroke-opacity:1"
             id="path202"
             inkscape:connector-curvature="0" /></g><g
           id="g204"
           transform="translate(0.0599,501.4782)"><path
             d="M 0,0 512,0"
             style="fill:none;stroke:#e7e8e9;stroke-width:1;stroke-linecap:butt;stroke-linejoin:miter;stroke-miterlimit:10;stroke-dasharray:none;stroke-opacity:1"
             id="path206"
             inkscape:connector-curvature="0" /></g><g
           id="g208"
           transform="translate(501.3932,512.1448)"><path
             d="M 0,0 0,-512"
             style="fill:none;stroke:#e7e8e9;stroke-width:1;stroke-linecap:butt;stroke-linejoin:miter;stroke-miterlimit:10;stroke-dasharray:none;stroke-opacity:1"
             id="path210"
             inkscape:connector-curvature="0" /></g><g
           id="g212"
           transform="translate(490.7266,512.1448)"><path
             d="M 0,0 0,-512"
             style="fill:none;stroke:#e7e8e9;stroke-width:1;stroke-linecap:butt;stroke-linejoin:miter;stroke-miterlimit:10;stroke-dasharray:none;stroke-opacity:1"
             id="path214"
             inkscape:connector-curvature="0" /></g><g
           id="g216"
           transform="translate(480.0599,512.1448)"><path
             d="M 0,0 0,-512"
             style="fill:none;stroke:#e7e8e9;stroke-width:1;stroke-linecap:butt;stroke-linejoin:miter;stroke-miterlimit:10;stroke-dasharray:none;stroke-opacity:1"
             id="path218"
             inkscape:connector-curvature="0" /></g><g
           id="g220"
           transform="translate(469.3932,512.1448)"><path
             d="M 0,0 0,-512"
             style="fill:none;stroke:#e7e8e9;stroke-width:1;stroke-linecap:butt;stroke-linejoin:miter;stroke-miterlimit:10;stroke-dasharray:none;stroke-opacity:1"
             id="path222"
             inkscape:connector-curvature="0" /></g><g
           id="g224"
           transform="translate(458.7266,512.1448)"><path
             d="M 0,0 0,-512"
             style="fill:none;stroke:#e7e8e9;stroke-width:1;stroke-linecap:butt;stroke-linejoin:miter;stroke-miterlimit:10;stroke-dasharray:none;stroke-opacity:1"
             id="path226"
             inkscape:connector-curvature="0" /></g><g
           id="g228"
           transform="translate(448.0599,512.1448)"><path
             d="M 0,0 0,-512"
             style="fill:none;stroke:#e7e8e9;stroke-width:1;stroke-linecap:butt;stroke-linejoin:miter;stroke-miterlimit:10;stroke-dasharray:none;stroke-opacity:1"
             id="path230"
             inkscape:connector-curvature="0" /></g><g
           id="g232"
           transform="translate(437.3932,512.1448)"><path
             d="M 0,0 0,-512"
             style="fill:none;stroke:#e7e8e9;stroke-width:1;stroke-linecap:butt;stroke-linejoin:miter;stroke-miterlimit:10;stroke-dasharray:none;stroke-opacity:1"
             id="path234"
             inkscape:connector-curvature="0" /></g><g
           id="g236"
           transform="translate(426.7266,512.1448)"><path
             d="M 0,0 0,-512"
             style="fill:none;stroke:#e7e8e9;stroke-width:1;stroke-linecap:butt;stroke-linejoin:miter;stroke-miterlimit:10;stroke-dasharray:none;stroke-opacity:1"
             id="path238"
             inkscape:connector-curvature="0" /></g><g
           id="g240"
           transform="translate(416.0599,512.1448)"><path
             d="M 0,0 0,-512"
             style="fill:none;stroke:#e7e8e9;stroke-width:1;stroke-linecap:butt;stroke-linejoin:miter;stroke-miterlimit:10;stroke-dasharray:none;stroke-opacity:1"
             id="path242"
             inkscape:connector-curvature="0" /></g><g
           id="g244"
           transform="translate(405.3932,512.1448)"><path
             d="M 0,0 0,-512"
             style="fill:none;stroke:#e7e8e9;stroke-width:1;stroke-linecap:butt;stroke-linejoin:miter;stroke-miterlimit:10;stroke-dasharray:none;stroke-opacity:1"
             id="path246"
             inkscape:connector-curvature="0" /></g><g
           id="g248"
           transform="translate(394.7266,512.1448)"><path
             d="M 0,0 0,-512"
             style="fill:none;stroke:#e7e8e9;stroke-width:1;stroke-linecap:butt;stroke-linejoin:miter;stroke-miterlimit:10;stroke-dasharray:none;stroke-opacity:1"
             id="path250"
             inkscape:connector-curvature="0" /></g><g
           id="g252"
           transform="translate(384.0599,512.1448)"><path
             d="M 0,0 0,-512"
             style="fill:none;stroke:#e7e8e9;stroke-width:1;stroke-linecap:butt;stroke-linejoin:miter;stroke-miterlimit:10;stroke-dasharray:none;stroke-opacity:1"
             id="path254"
             inkscape:connector-curvature="0" /></g><g
           id="g256"
           transform="translate(373.3932,512.1448)"><path
             d="M 0,0 0,-512"
             style="fill:none;stroke:#e7e8e9;stroke-width:1;stroke-linecap:butt;stroke-linejoin:miter;stroke-miterlimit:10;stroke-dasharray:none;stroke-opacity:1"
             id="path258"
             inkscape:connector-curvature="0" /></g><g
           id="g260"
           transform="translate(362.7266,512.1448)"><path
             d="M 0,0 0,-512"
             style="fill:none;stroke:#e7e8e9;stroke-width:1;stroke-linecap:butt;stroke-linejoin:miter;stroke-miterlimit:10;stroke-dasharray:none;stroke-opacity:1"
             id="path262"
             inkscape:connector-curvature="0" /></g><g
           id="g264"
           transform="translate(352.0599,512.1448)"><path
             d="M 0,0 0,-512"
             style="fill:none;stroke:#e7e8e9;stroke-width:1;stroke-linecap:butt;stroke-linejoin:miter;stroke-miterlimit:10;stroke-dasharray:none;stroke-opacity:1"
             id="path266"
             inkscape:connector-curvature="0" /></g><g
           id="g268"
           transform="translate(341.3932,512.1448)"><path
             d="M 0,0 0,-512"
             style="fill:none;stroke:#e7e8e9;stroke-width:1;stroke-linecap:butt;stroke-linejoin:miter;stroke-miterlimit:10;stroke-dasharray:none;stroke-opacity:1"
             id="path270"
             inkscape:connector-curvature="0" /></g><g
           id="g272"
           transform="translate(330.7266,512.1448)"><path
             d="M 0,0 0,-512"
             style="fill:none;stroke:#d2d4d5;stroke-width:1;stroke-linecap:butt;stroke-linejoin:miter;stroke-miterlimit:10;stroke-dasharray:none;stroke-opacity:1"
             id="path274"
             inkscape:connector-curvature="0" /></g><g
           id="g276"
           transform="translate(320.0599,512.1448)"><path
             d="M 0,0 0,-512"
             style="fill:none;stroke:#e7e8e9;stroke-width:1;stroke-linecap:butt;stroke-linejoin:miter;stroke-miterlimit:10;stroke-dasharray:none;stroke-opacity:1"
             id="path278"
             inkscape:connector-curvature="0" /></g><g
           id="g280"
           transform="translate(309.3932,512.1448)"><path
             d="M 0,0 0,-512"
             style="fill:none;stroke:#e7e8e9;stroke-width:1;stroke-linecap:butt;stroke-linejoin:miter;stroke-miterlimit:10;stroke-dasharray:none;stroke-opacity:1"
             id="path282"
             inkscape:connector-curvature="0" /></g><g
           id="g284"
           transform="translate(298.7266,512.1448)"><path
             d="M 0,0 0,-512"
             style="fill:none;stroke:#e7e8e9;stroke-width:1;stroke-linecap:butt;stroke-linejoin:miter;stroke-miterlimit:10;stroke-dasharray:none;stroke-opacity:1"
             id="path286"
             inkscape:connector-curvature="0" /></g><g
           id="g288"
           transform="translate(288.0599,512.1448)"><path
             d="M 0,0 0,-512"
             style="fill:none;stroke:#e7e8e9;stroke-width:1;stroke-linecap:butt;stroke-linejoin:miter;stroke-miterlimit:10;stroke-dasharray:none;stroke-opacity:1"
             id="path290"
             inkscape:connector-curvature="0" /></g><g
           id="g292"
           transform="translate(277.3932,512.1448)"><path
             d="M 0,0 0,-512"
             style="fill:none;stroke:#e7e8e9;stroke-width:1;stroke-linecap:butt;stroke-linejoin:miter;stroke-miterlimit:10;stroke-dasharray:none;stroke-opacity:1"
             id="path294"
             inkscape:connector-curvature="0" /></g><g
           id="g296"
           transform="translate(266.7266,512.1448)"><path
             d="M 0,0 0,-512"
             style="fill:none;stroke:#e7e8e9;stroke-width:1;stroke-linecap:butt;stroke-linejoin:miter;stroke-miterlimit:10;stroke-dasharray:none;stroke-opacity:1"
             id="path298"
             inkscape:connector-curvature="0" /></g><g
           id="g300"
           transform="translate(245.3933,512.1448)"><path
             d="M 0,0 0,-512"
             style="fill:none;stroke:#e7e8e9;stroke-width:1;stroke-linecap:butt;stroke-linejoin:miter;stroke-miterlimit:10;stroke-dasharray:none;stroke-opacity:1"
             id="path302"
             inkscape:connector-curvature="0" /></g><g
           id="g304"
           transform="translate(234.7266,512.1448)"><path
             d="M 0,0 0,-512"
             style="fill:none;stroke:#e7e8e9;stroke-width:1;stroke-linecap:butt;stroke-linejoin:miter;stroke-miterlimit:10;stroke-dasharray:none;stroke-opacity:1"
             id="path306"
             inkscape:connector-curvature="0" /></g><g
           id="g308"
           transform="translate(224.0599,512.1448)"><path
             d="M 0,0 0,-512"
             style="fill:none;stroke:#e7e8e9;stroke-width:1;stroke-linecap:butt;stroke-linejoin:miter;stroke-miterlimit:10;stroke-dasharray:none;stroke-opacity:1"
             id="path310"
             inkscape:connector-curvature="0" /></g><g
           id="g312"
           transform="translate(213.3933,512.1448)"><path
             d="M 0,0 0,-512"
             style="fill:none;stroke:#e7e8e9;stroke-width:1;stroke-linecap:butt;stroke-linejoin:miter;stroke-miterlimit:10;stroke-dasharray:none;stroke-opacity:1"
             id="path314"
             inkscape:connector-curvature="0" /></g><g
           id="g316"
           transform="translate(202.7266,512.1448)"><path
             d="M 0,0 0,-512"
             style="fill:none;stroke:#e7e8e9;stroke-width:1;stroke-linecap:butt;stroke-linejoin:miter;stroke-miterlimit:10;stroke-dasharray:none;stroke-opacity:1"
             id="path318"
             inkscape:connector-curvature="0" /></g><g
           id="g320"
           transform="translate(192.0599,512.1448)"><path
             d="M 0,0 0,-512"
             style="fill:none;stroke:#e7e8e9;stroke-width:1;stroke-linecap:butt;stroke-linejoin:miter;stroke-miterlimit:10;stroke-dasharray:none;stroke-opacity:1"
             id="path322"
             inkscape:connector-curvature="0" /></g><g
           id="g324"
           transform="translate(181.3933,512.1448)"><path
             d="M 0,0 0,-512"
             style="fill:none;stroke:#d2d4d5;stroke-width:1;stroke-linecap:butt;stroke-linejoin:miter;stroke-miterlimit:10;stroke-dasharray:none;stroke-opacity:1"
             id="path326"
             inkscape:connector-curvature="0" /></g><g
           id="g328"
           transform="translate(170.7266,512.1448)"><path
             d="M 0,0 0,-512"
             style="fill:none;stroke:#e7e8e9;stroke-width:1;stroke-linecap:butt;stroke-linejoin:miter;stroke-miterlimit:10;stroke-dasharray:none;stroke-opacity:1"
             id="path330"
             inkscape:connector-curvature="0" /></g><g
           id="g332"
           transform="translate(160.0599,512.1448)"><path
             d="M 0,0 0,-512"
             style="fill:none;stroke:#e7e8e9;stroke-width:1;stroke-linecap:butt;stroke-linejoin:miter;stroke-miterlimit:10;stroke-dasharray:none;stroke-opacity:1"
             id="path334"
             inkscape:connector-curvature="0" /></g><g
           id="g336"
           transform="translate(149.3933,512.1448)"><path
             d="M 0,0 0,-512"
             style="fill:none;stroke:#e7e8e9;stroke-width:1;stroke-linecap:butt;stroke-linejoin:miter;stroke-miterlimit:10;stroke-dasharray:none;stroke-opacity:1"
             id="path338"
             inkscape:connector-curvature="0" /></g><g
           id="g340"
           transform="translate(138.7266,512.1448)"><path
             d="M 0,0 0,-512"
             style="fill:none;stroke:#e7e8e9;stroke-width:1;stroke-linecap:butt;stroke-linejoin:miter;stroke-miterlimit:10;stroke-dasharray:none;stroke-opacity:1"
             id="path342"
             inkscape:connector-curvature="0" /></g><g
           id="g344"
           transform="translate(128.0599,512.1448)"><path
             d="M 0,0 0,-512"
             style="fill:none;stroke:#e7e8e9;stroke-width:1;stroke-linecap:butt;stroke-linejoin:miter;stroke-miterlimit:10;stroke-dasharray:none;stroke-opacity:1"
             id="path346"
             inkscape:connector-curvature="0" /></g><g
           id="g348"
           transform="translate(117.3933,512.1448)"><path
             d="M 0,0 0,-512"
             style="fill:none;stroke:#e7e8e9;stroke-width:1;stroke-linecap:butt;stroke-linejoin:miter;stroke-miterlimit:10;stroke-dasharray:none;stroke-opacity:1"
             id="path350"
             inkscape:connector-curvature="0" /></g><g
           id="g352"
           transform="translate(106.7266,512.1448)"><path
             d="M 0,0 0,-512"
             style="fill:none;stroke:#e7e8e9;stroke-width:1;stroke-linecap:butt;stroke-linejoin:miter;stroke-miterlimit:10;stroke-dasharray:none;stroke-opacity:1"
             id="path354"
             inkscape:connector-curvature="0" /></g><g
           id="g356"
           transform="translate(96.0599,512.1448)"><path
             d="M 0,0 0,-512"
             style="fill:none;stroke:#e7e8e9;stroke-width:1;stroke-linecap:butt;stroke-linejoin:miter;stroke-miterlimit:10;stroke-dasharray:none;stroke-opacity:1"
             id="path358"
             inkscape:connector-curvature="0" /></g><g
           id="g360"
           transform="translate(85.3933,512.1448)"><path
             d="M 0,0 0,-512"
             style="fill:none;stroke:#e7e8e9;stroke-width:1;stroke-linecap:butt;stroke-linejoin:miter;stroke-miterlimit:10;stroke-dasharray:none;stroke-opacity:1"
             id="path362"
             inkscape:connector-curvature="0" /></g><g
           id="g364"
           transform="translate(74.7266,512.1448)"><path
             d="M 0,0 0,-512"
             style="fill:none;stroke:#e7e8e9;stroke-width:1;stroke-linecap:butt;stroke-linejoin:miter;stroke-miterlimit:10;stroke-dasharray:none;stroke-opacity:1"
             id="path366"
             inkscape:connector-curvature="0" /></g><g
           id="g368"
           transform="translate(64.0599,512.1448)"><path
             d="M 0,0 0,-512"
             style="fill:none;stroke:#e7e8e9;stroke-width:1;stroke-linecap:butt;stroke-linejoin:miter;stroke-miterlimit:10;stroke-dasharray:none;stroke-opacity:1"
             id="path370"
             inkscape:connector-curvature="0" /></g><g
           id="g372"
           transform="translate(53.3933,512.1448)"><path
             d="M 0,0 0,-512"
             style="fill:none;stroke:#e7e8e9;stroke-width:1;stroke-linecap:butt;stroke-linejoin:miter;stroke-miterlimit:10;stroke-dasharray:none;stroke-opacity:1"
             id="path374"
             inkscape:connector-curvature="0" /></g><g
           id="g376"
           transform="translate(42.7266,512.1448)"><path
             d="M 0,0 0,-512"
             style="fill:none;stroke:#e7e8e9;stroke-width:1;stroke-linecap:butt;stroke-linejoin:miter;stroke-miterlimit:10;stroke-dasharray:none;stroke-opacity:1"
             id="path378"
             inkscape:connector-curvature="0" /></g><g
           id="g380"
           transform="translate(32.0599,512.1448)"><path
             d="M 0,0 0,-512"
             style="fill:none;stroke:#e7e8e9;stroke-width:1;stroke-linecap:butt;stroke-linejoin:miter;stroke-miterlimit:10;stroke-dasharray:none;stroke-opacity:1"
             id="path382"
             inkscape:connector-curvature="0" /></g><g
           id="g384"
           transform="translate(21.3933,512.1448)"><path
             d="M 0,0 0,-512"
             style="fill:none;stroke:#e7e8e9;stroke-width:1;stroke-linecap:butt;stroke-linejoin:miter;stroke-miterlimit:10;stroke-dasharray:none;stroke-opacity:1"
             id="path386"
             inkscape:connector-curvature="0" /></g><g
           id="g388"
           transform="translate(10.7266,512.1448)"><path
             d="M 0,0 0,-512"
             style="fill:none;stroke:#e7e8e9;stroke-width:1;stroke-linecap:butt;stroke-linejoin:miter;stroke-miterlimit:10;stroke-dasharray:none;stroke-opacity:1"
             id="path390"
             inkscape:connector-curvature="0" /></g><g
           id="g392"
           transform="translate(0.0599,256.1448)"><path
             d="M 0,0 512,0"
             style="fill:none;stroke:#d2d4d5;stroke-width:1;stroke-linecap:butt;stroke-linejoin:miter;stroke-miterlimit:10;stroke-dasharray:none;stroke-opacity:1"
             id="path394"
             inkscape:connector-curvature="0" /></g><g
           id="g396"
           transform="translate(256.0599,512.1448)"><path
             d="M 0,0 0,-512"
             style="fill:none;stroke:#d2d4d5;stroke-width:1;stroke-linecap:butt;stroke-linejoin:miter;stroke-miterlimit:10;stroke-dasharray:none;stroke-opacity:1"
             id="path398"
             inkscape:connector-curvature="0" /></g><g
           id="g400"
           transform="translate(512.0599,512.1448)"><path
             d="M 0,0 -512,-512"
             style="fill:none;stroke:#d2d4d5;stroke-width:1;stroke-linecap:butt;stroke-linejoin:miter;stroke-miterlimit:10;stroke-dasharray:none;stroke-opacity:1"
             id="path402"
             inkscape:connector-curvature="0" /></g><g
           id="g404"
           transform="translate(0.0599,512.1448)"><path
             d="M 0,0 512,-512"
             style="fill:none;stroke:#d2d4d5;stroke-width:1;stroke-linecap:butt;stroke-linejoin:miter;stroke-miterlimit:10;stroke-dasharray:none;stroke-opacity:1"
             id="path406"
             inkscape:connector-curvature="0" /></g><g
           id="g408"
           transform="translate(362.7266,256.1448)"><path
             d="m 0,0 c 0,-58.91 -47.756,-106.667 -106.667,-106.667 -58.91,0 -106.666,47.757 -106.666,106.667 0,58.91 47.756,106.667 106.666,106.667 C -47.756,106.667 0,58.91 0,0 Z"
             style="fill:none;stroke:#d2d4d5;stroke-width:1;stroke-linecap:butt;stroke-linejoin:miter;stroke-miterlimit:10;stroke-dasharray:none;stroke-opacity:1"
             id="path410"
             inkscape:connector-curvature="0" /></g><g
           id="g412"
           transform="translate(394.4138,21.4782)"><path
             d="m 0,0 -276.933,0 c -17.721,0 -32.088,14.366 -32.088,32.088 l 0,405.158 c 0,17.721 14.367,32.087 32.088,32.087 l 276.933,0 c 17.722,0 32.088,-14.366 32.088,-32.087 l 0,-405.158 C 32.088,14.366 17.722,0 0,0 Z"
             style="fill:none;stroke:#bec0c2;stroke-width:1;stroke-linecap:butt;stroke-linejoin:miter;stroke-miterlimit:10;stroke-dasharray:none;stroke-opacity:1"
             id="path414"
             inkscape:connector-curvature="0" /></g><g
           id="g416"
           transform="translate(21.2807,117.6784)"><path
             d="m 0,0 0,276.933 c 0,17.721 14.366,32.088 32.088,32.088 l 405.158,0 c 17.721,0 32.087,-14.367 32.087,-32.088 L 469.333,0 c 0,-17.722 -14.366,-32.088 -32.087,-32.088 l -405.158,0 C 14.366,-32.088 0,-17.722 0,0 Z"
             style="fill:none;stroke:#bec0c2;stroke-width:1;stroke-linecap:butt;stroke-linejoin:miter;stroke-miterlimit:10;stroke-dasharray:none;stroke-opacity:1"
             id="path418"
             inkscape:connector-curvature="0" /></g><g
           id="g420"
           transform="translate(426.1808,53.4782)"><path
             d="m 0,0 -340.718,0 c -17.843,0 -32.308,14.465 -32.308,32.307 l 0,340.719 c 0,17.843 14.465,32.307 32.308,32.307 l 340.718,0 c 17.843,0 32.307,-14.464 32.307,-32.307 l 0,-340.719 C 32.307,14.465 17.843,0 0,0 Z"
             style="fill:none;stroke:#bec0c2;stroke-width:1;stroke-linecap:butt;stroke-linejoin:miter;stroke-miterlimit:10;stroke-dasharray:none;stroke-opacity:1"
             id="path422"
             inkscape:connector-curvature="0" /></g></g></g></g><g
     inkscape:groupmode="layer"
     id="layer2"
     inkscape:label="Shadows"
     style="display:none"
     sodipodi:insensitive="true"><path
       style="display:inline;opacity:1;fill:#757575;fill-opacity:1;fill-rule:evenodd;stroke:none;stroke-width:0.1;stroke-linecap:butt;stroke-linejoin:miter;stroke-miterlimit:4;stroke-dasharray:none;stroke-dashoffset:0;stroke-opacity:1;filter:url(#filter4427);enable-background:new"
       d="m 19.604954,1.999981 c -0.549999,0 -1.012125,0.3958284 -1.078125,0.9238283 L 17.690891,8.7538897 C 16.348894,9.3038899 15.116626,10.05214 13.972628,10.91014 L 8.4950874,8.7099444 C 7.9890882,8.5119443 7.4168015,8.7098312 7.1528016,9.1938313 L 2.7528978,16.806139 c -0.286,0.484001 -0.1538391,1.077715 0.2641601,1.407715 l 4.6416034,3.630372 c -0.088,0.704001 -0.1538088,1.429763 -0.1538088,2.155763 0,0.726 0.065809,1.451765 0.1538088,2.155763 l -4.6416034,3.630372 c -0.4179992,0.330002 -0.5281601,0.923715 -0.2641601,1.407715 l 4.3999038,7.612308 c 0.2639999,0.484 0.8582861,0.65989 1.3422858,0.483887 l 5.4775406,-2.200195 c 1.143998,0.880002 2.376266,1.60625 3.718263,2.15625 l 0.835938,5.83008 c 0.066,0.528003 0.528126,0.923828 1.078125,0.923828 l 8.799808,0 c 0.55,0 1.012125,-0.395825 1.078125,-0.923828 l 0.835938,-5.83008 c 1.342001,-0.55 2.573776,-1.298253 3.717774,-2.15625 l 5.478029,2.200195 c 0.505998,0.198003 1.078286,1.13e-4 1.342286,-0.483887 l 4.399904,-7.612308 c 0.263998,-0.484003 0.153842,-1.077713 -0.26416,-1.407715 l -4.642092,-3.630372 c 0.088,-0.703998 0.154298,-1.407763 0.154298,-2.155763 0,-0.748 -0.0663,-1.451762 -0.154298,-2.155763 l 4.642092,-3.630372 c 0.418002,-0.33 0.528158,-0.923714 0.26416,-1.407715 L 40.856914,9.1938313 C 40.592914,8.7098312 39.998626,8.5339444 39.514628,8.7099444 L 34.036599,10.91014 c -1.143998,-0.88 -2.375773,-1.6062501 -3.717774,-2.1562503 L 29.482887,2.9238093 C 29.416887,2.3958094 28.954762,1.999981 28.404762,1.999981 l -8.799808,0 z m 4.395021,12.000004 a 10.000004,10.000004 0 0 0 -0.852539,0.04248 10.000004,10.000004 0 0 1 0.852539,-0.04248 z m 0.85254,0.04248 a 10.000004,10.000004 0 0 1 0.499511,0.06055 10.000004,10.000004 0 0 0 -0.499511,-0.06055 z m -2.204591,0.06055 a 10.000004,10.000004 0 0 0 -0.488281,0.07422 10.000004,10.000004 0 0 1 0.488281,-0.07422 z m 3.192384,0.07422 a 10.000004,10.000004 0 0 1 0.487793,0.109375 10.000004,10.000004 0 0 0 -0.487793,-0.109375 z m -4.168459,0.109375 a 10.000004,10.000004 0 0 0 -0.488281,0.124512 10.000004,10.000004 0 0 1 0.488281,-0.124512 z m 5.144532,0.124512 a 10.000004,10.000004 0 0 1 0.465823,0.155274 10.000004,10.000004 0 0 0 -0.465823,-0.155274 z m -6.098633,0.155274 a 10.000004,10.000004 0 0 0 -0.476563,0.173828 10.000004,10.000004 0 0 1 0.476563,-0.173828 z m 7.041019,0.173828 a 10.000004,10.000004 0 0 1 0.450195,0.201172 10.000004,10.000004 0 0 0 -0.450195,-0.201172 z m -7.967778,0.201172 a 10.000004,10.000004 0 0 0 -0.453613,0.219238 10.000004,10.000004 0 0 1 0.453613,-0.219238 z m 8.871585,0.219238 a 10.000004,10.000004 0 0 1 0.440431,0.252442 10.000004,10.000004 0 0 0 -0.440431,-0.252442 z m -9.765628,0.252442 a 10.000004,10.000004 0 0 0 -0.416016,0.255371 10.000004,10.000004 0 0 1 0.416016,-0.255371 z m 10.622074,0.255371 a 10.000004,10.000004 0 0 1 0.40918,0.291992 10.000004,10.000004 0 0 0 -0.40918,-0.291992 z m -11.44727,0.291992 a 10.000004,10.000004 0 0 0 -0.399414,0.303711 10.000004,10.000004 0 0 1 0.399414,-0.303711 z m 12.255865,0.303711 a 10.000004,10.000004 0 0 1 0.373535,0.328614 10.000004,10.000004 0 0 0 -0.373535,-0.328614 z m -13.028814,0.328614 a 10.000004,10.000004 0 0 0 -0.365723,0.340332 10.000004,10.000004 0 0 1 0.365723,-0.340332 z m 13.768072,0.340332 a 10.000004,10.000004 0 0 1 0.340332,0.365723 10.000004,10.000004 0 0 0 -0.340332,-0.365723 z m -7.066898,0.06689 a 7.0000025,7.0000025 0 0 1 7.000003,7.000003 7.0000025,7.0000025 0 0 1 -7.000003,7.000002 7.0000025,7.0000025 0 0 1 -7.000002,-7.000002 7.0000025,7.0000025 0 0 1 7.000002,-7.000003 z m -7.407229,0.298829 a 10.000004,10.000004 0 0 0 -0.328613,0.373535 10.000004,10.000004 0 0 1 0.328613,-0.373535 z m 15.143072,0.373535 a 10.000004,10.000004 0 0 1 0.30371,0.399414 10.000004,10.000004 0 0 0 -0.30371,-0.399414 z m -15.775396,0.399414 a 10.000004,10.000004 0 0 0 -0.291993,0.40918 10.000004,10.000004 0 0 1 0.291993,-0.40918 z m 16.371099,0.40918 a 10.000004,10.000004 0 0 1 0.255372,0.416016 10.000004,10.000004 0 0 0 -0.255372,-0.416016 z M 15.413058,18.89696 a 10.000004,10.000004 0 0 0 -0.252441,0.440429 10.000004,10.000004 0 0 1 0.252441,-0.440429 z m 17.426275,0.440429 a 10.000004,10.000004 0 0 1 0.219241,0.453614 10.000004,10.000004 0 0 0 -0.219241,-0.453614 z m -17.897955,0.453614 a 10.000004,10.000004 0 0 0 -0.201172,0.450196 10.000004,10.000004 0 0 1 0.201172,-0.450196 z m 18.318366,0.450196 a 10.000004,10.000004 0 0 1 0.17383,0.476562 10.000004,10.000004 0 0 0 -0.17383,-0.476562 z m -18.693366,0.476562 a 10.000004,10.000004 0 0 0 -0.155273,0.465821 10.000004,10.000004 0 0 1 0.155273,-0.465821 z m 19.022468,0.465821 a 10.000004,10.000004 0 0 1 0.124513,0.488281 10.000004,10.000004 0 0 0 -0.124513,-0.488281 z m -19.302253,0.488281 a 10.000004,10.000004 0 0 0 -0.109375,0.487793 10.000004,10.000004 0 0 1 0.109375,-0.487793 z m 19.536141,0.487793 a 10.000004,10.000004 0 0 1 0.07422,0.488282 10.000004,10.000004 0 0 0 -0.07422,-0.488282 z m -19.719735,0.488282 a 10.000004,10.000004 0 0 0 -0.06055,0.499512 10.000004,10.000004 0 0 1 0.06055,-0.499512 z m 19.8545,0.499512 a 10.000004,10.000004 0 0 1 0.04248,0.852539 10.000004,10.000004 0 0 0 -0.04248,-0.852539 z m -19.957527,0.852539 a 10.000004,10.000004 0 0 0 0.04248,0.852539 10.000004,10.000004 0 0 1 -0.04248,-0.852539 z m 19.957527,0.852539 a 10.000004,10.000004 0 0 1 -0.06055,0.499511 10.000004,10.000004 0 0 0 0.06055,-0.499511 z m -19.8545,0.499511 a 10.000004,10.000004 0 0 0 0.07422,0.488283 10.000004,10.000004 0 0 1 -0.07422,-0.488283 z m 19.719735,0.488283 a 10.000004,10.000004 0 0 1 -0.109375,0.487793 10.000004,10.000004 0 0 0 0.109375,-0.487793 z m -19.536141,0.487793 a 10.000004,10.000004 0 0 0 0.124512,0.48828 10.000004,10.000004 0 0 1 -0.124512,-0.48828 z m 19.302253,0.48828 a 10.000004,10.000004 0 0 1 -0.155272,0.465823 10.000004,10.000004 0 0 0 0.155272,-0.465823 z m -19.022468,0.465823 a 10.000004,10.000004 0 0 0 0.173828,0.476562 10.000004,10.000004 0 0 1 -0.173828,-0.476562 z m 18.693366,0.476562 a 10.000004,10.000004 0 0 1 -0.20117,0.450195 10.000004,10.000004 0 0 0 0.20117,-0.450195 z m -18.318366,0.450195 a 10.000004,10.000004 0 0 0 0.219239,0.453613 10.000004,10.000004 0 0 1 -0.219239,-0.453613 z m 17.897955,0.453613 a 10.000004,10.000004 0 0 1 -0.25244,0.44043 10.000004,10.000004 0 0 0 0.25244,-0.44043 z m -17.426275,0.44043 a 10.000004,10.000004 0 0 0 0.255371,0.416015 10.000004,10.000004 0 0 1 -0.255371,-0.416015 z m 16.918463,0.416015 a 10.000004,10.000004 0 0 1 -0.291993,0.409181 10.000004,10.000004 0 0 0 0.291993,-0.409181 z m -16.371099,0.409181 a 10.000004,10.000004 0 0 0 0.303711,0.399415 10.000004,10.000004 0 0 1 -0.303711,-0.399415 z m 15.775396,0.399415 a 10.000004,10.000004 0 0 1 -0.328613,0.373535 10.000004,10.000004 0 0 0 0.328613,-0.373535 z m -15.143072,0.373535 a 10.000004,10.000004 0 0 0 0.340332,0.365722 10.000004,10.000004 0 0 1 -0.340332,-0.365722 z m 14.474127,0.365722 a 10.000004,10.000004 0 0 1 -0.365723,0.340333 10.000004,10.000004 0 0 0 0.365723,-0.340333 z m -13.768072,0.340333 a 10.000004,10.000004 0 0 0 0.373535,0.328613 10.000004,10.000004 0 0 1 -0.373535,-0.328613 z m 13.028814,0.328613 a 10.000004,10.000004 0 0 1 -0.399415,0.30371 10.000004,10.000004 0 0 0 0.399415,-0.30371 z m -12.255865,0.30371 a 10.000004,10.000004 0 0 0 0.40918,0.291992 10.000004,10.000004 0 0 1 -0.40918,-0.291992 z m 11.44727,0.291992 a 10.000004,10.000004 0 0 1 -0.416015,0.255373 10.000004,10.000004 0 0 0 0.416015,-0.255373 z m -10.622074,0.255373 a 10.000004,10.000004 0 0 0 0.44043,0.25244 10.000004,10.000004 0 0 1 -0.44043,-0.25244 z m 9.765628,0.25244 a 10.000004,10.000004 0 0 1 -0.453612,0.21924 10.000004,10.000004 0 0 0 0.453612,-0.21924 z m -8.871585,0.21924 a 10.000004,10.000004 0 0 0 0.450196,0.20117 10.000004,10.000004 0 0 1 -0.450196,-0.20117 z m 7.967778,0.20117 a 10.000004,10.000004 0 0 1 -0.476563,0.17383 10.000004,10.000004 0 0 0 0.476563,-0.17383 z m -7.041019,0.17383 a 10.000004,10.000004 0 0 0 0.46582,0.155273 10.000004,10.000004 0 0 1 -0.46582,-0.155273 z m 6.098633,0.155273 a 10.000004,10.000004 0 0 1 -0.48828,0.124512 10.000004,10.000004 0 0 0 0.48828,-0.124512 z m -5.144532,0.124512 a 10.000004,10.000004 0 0 0 0.487794,0.109375 10.000004,10.000004 0 0 1 -0.487794,-0.109375 z m 4.168459,0.109375 a 10.000004,10.000004 0 0 1 -0.488282,0.07422 10.000004,10.000004 0 0 0 0.488282,-0.07422 z m -3.192384,0.07422 a 10.000004,10.000004 0 0 0 0.499512,0.06055 10.000004,10.000004 0 0 1 -0.499512,-0.06055 z m 2.204591,0.06055 a 10.000004,10.000004 0 0 1 -0.85254,0.04248 10.000004,10.000004 0 0 0 0.85254,-0.04248 z"
       id="path7650-0"
       inkscape:export-xdpi="240"
       inkscape:export-ydpi="240"
       inkscape:connector-curvature="0" /><path
       style="display:inline;opacity:1;fill:#757575;fill-opacity:1;fill-rule:evenodd;stroke:none;stroke-width:0.1;stroke-linecap:butt;stroke-linejoin:miter;stroke-miterlimit:4;stroke-dasharray:none;stroke-dashoffset:0;stroke-opacity:1;filter:url(#filter4493);enable-background:new"
       d="m 19.604954,1.999981 c -0.549999,0 -1.012125,0.3958284 -1.078125,0.9238283 L 17.690891,8.7538897 C 16.348894,9.3038899 15.116626,10.05214 13.972628,10.91014 L 8.4950874,8.7099444 C 7.9890882,8.5119443 7.4168015,8.7098312 7.1528016,9.1938313 L 2.7528978,16.806139 c -0.286,0.484001 -0.1538391,1.077715 0.2641601,1.407715 l 4.6416034,3.630372 c -0.088,0.704001 -0.1538088,1.429763 -0.1538088,2.155763 0,0.726 0.065809,1.451765 0.1538088,2.155763 l -4.6416034,3.630372 c -0.4179992,0.330002 -0.5281601,0.923715 -0.2641601,1.407715 l 4.3999038,7.612308 c 0.2639999,0.484 0.8582861,0.65989 1.3422858,0.483887 l 5.4775406,-2.200195 c 1.143998,0.880002 2.376266,1.60625 3.718263,2.15625 l 0.835938,5.83008 c 0.066,0.528003 0.528126,0.923828 1.078125,0.923828 l 8.799808,0 c 0.55,0 1.012125,-0.395825 1.078125,-0.923828 l 0.835938,-5.83008 c 1.342001,-0.55 2.573776,-1.298253 3.717774,-2.15625 l 5.478029,2.200195 c 0.505998,0.198003 1.078286,1.13e-4 1.342286,-0.483887 l 4.399904,-7.612308 c 0.263998,-0.484003 0.153842,-1.077713 -0.26416,-1.407715 l -4.642092,-3.630372 c 0.088,-0.703998 0.154298,-1.407763 0.154298,-2.155763 0,-0.748 -0.0663,-1.451762 -0.154298,-2.155763 l 4.642092,-3.630372 c 0.418002,-0.33 0.528158,-0.923714 0.26416,-1.407715 L 40.856914,9.1938313 C 40.592914,8.7098312 39.998626,8.5339444 39.514628,8.7099444 L 34.036599,10.91014 c -1.143998,-0.88 -2.375773,-1.6062501 -3.717774,-2.1562503 L 29.482887,2.9238093 C 29.416887,2.3958094 28.954762,1.999981 28.404762,1.999981 l -8.799808,0 z m 4.395021,12.000004 a 10.000004,10.000004 0 0 0 -0.852539,0.04248 10.000004,10.000004 0 0 1 0.852539,-0.04248 z m 0.85254,0.04248 a 10.000004,10.000004 0 0 1 0.499511,0.06055 10.000004,10.000004 0 0 0 -0.499511,-0.06055 z m -2.204591,0.06055 a 10.000004,10.000004 0 0 0 -0.488281,0.07422 10.000004,10.000004 0 0 1 0.488281,-0.07422 z m 3.192384,0.07422 a 10.000004,10.000004 0 0 1 0.487793,0.109375 10.000004,10.000004 0 0 0 -0.487793,-0.109375 z m -4.168459,0.109375 a 10.000004,10.000004 0 0 0 -0.488281,0.124512 10.000004,10.000004 0 0 1 0.488281,-0.124512 z m 5.144532,0.124512 a 10.000004,10.000004 0 0 1 0.465823,0.155274 10.000004,10.000004 0 0 0 -0.465823,-0.155274 z m -6.098633,0.155274 a 10.000004,10.000004 0 0 0 -0.476563,0.173828 10.000004,10.000004 0 0 1 0.476563,-0.173828 z m 7.041019,0.173828 a 10.000004,10.000004 0 0 1 0.450195,0.201172 10.000004,10.000004 0 0 0 -0.450195,-0.201172 z m -7.967778,0.201172 a 10.000004,10.000004 0 0 0 -0.453613,0.219238 10.000004,10.000004 0 0 1 0.453613,-0.219238 z m 8.871585,0.219238 a 10.000004,10.000004 0 0 1 0.440431,0.252442 10.000004,10.000004 0 0 0 -0.440431,-0.252442 z m -9.765628,0.252442 a 10.000004,10.000004 0 0 0 -0.416016,0.255371 10.000004,10.000004 0 0 1 0.416016,-0.255371 z m 10.622074,0.255371 a 10.000004,10.000004 0 0 1 0.40918,0.291992 10.000004,10.000004 0 0 0 -0.40918,-0.291992 z m -11.44727,0.291992 a 10.000004,10.000004 0 0 0 -0.399414,0.303711 10.000004,10.000004 0 0 1 0.399414,-0.303711 z m 12.255865,0.303711 a 10.000004,10.000004 0 0 1 0.373535,0.328614 10.000004,10.000004 0 0 0 -0.373535,-0.328614 z m -13.028814,0.328614 a 10.000004,10.000004 0 0 0 -0.365723,0.340332 10.000004,10.000004 0 0 1 0.365723,-0.340332 z m 13.768072,0.340332 a 10.000004,10.000004 0 0 1 0.340332,0.365723 10.000004,10.000004 0 0 0 -0.340332,-0.365723 z m -7.066898,0.06689 a 7.0000025,7.0000025 0 0 1 7.000003,7.000003 7.0000025,7.0000025 0 0 1 -7.000003,7.000002 7.0000025,7.0000025 0 0 1 -7.000002,-7.000002 7.0000025,7.0000025 0 0 1 7.000002,-7.000003 z m -7.407229,0.298829 a 10.000004,10.000004 0 0 0 -0.328613,0.373535 10.000004,10.000004 0 0 1 0.328613,-0.373535 z m 15.143072,0.373535 a 10.000004,10.000004 0 0 1 0.30371,0.399414 10.000004,10.000004 0 0 0 -0.30371,-0.399414 z m -15.775396,0.399414 a 10.000004,10.000004 0 0 0 -0.291993,0.40918 10.000004,10.000004 0 0 1 0.291993,-0.40918 z m 16.371099,0.40918 a 10.000004,10.000004 0 0 1 0.255372,0.416016 10.000004,10.000004 0 0 0 -0.255372,-0.416016 z M 15.413058,18.89696 a 10.000004,10.000004 0 0 0 -0.252441,0.440429 10.000004,10.000004 0 0 1 0.252441,-0.440429 z m 17.426275,0.440429 a 10.000004,10.000004 0 0 1 0.219241,0.453614 10.000004,10.000004 0 0 0 -0.219241,-0.453614 z m -17.897955,0.453614 a 10.000004,10.000004 0 0 0 -0.201172,0.450196 10.000004,10.000004 0 0 1 0.201172,-0.450196 z m 18.318366,0.450196 a 10.000004,10.000004 0 0 1 0.17383,0.476562 10.000004,10.000004 0 0 0 -0.17383,-0.476562 z m -18.693366,0.476562 a 10.000004,10.000004 0 0 0 -0.155273,0.465821 10.000004,10.000004 0 0 1 0.155273,-0.465821 z m 19.022468,0.465821 a 10.000004,10.000004 0 0 1 0.124513,0.488281 10.000004,10.000004 0 0 0 -0.124513,-0.488281 z m -19.302253,0.488281 a 10.000004,10.000004 0 0 0 -0.109375,0.487793 10.000004,10.000004 0 0 1 0.109375,-0.487793 z m 19.536141,0.487793 a 10.000004,10.000004 0 0 1 0.07422,0.488282 10.000004,10.000004 0 0 0 -0.07422,-0.488282 z m -19.719735,0.488282 a 10.000004,10.000004 0 0 0 -0.06055,0.499512 10.000004,10.000004 0 0 1 0.06055,-0.499512 z m 19.8545,0.499512 a 10.000004,10.000004 0 0 1 0.04248,0.852539 10.000004,10.000004 0 0 0 -0.04248,-0.852539 z m -19.957527,0.852539 a 10.000004,10.000004 0 0 0 0.04248,0.852539 10.000004,10.000004 0 0 1 -0.04248,-0.852539 z m 19.957527,0.852539 a 10.000004,10.000004 0 0 1 -0.06055,0.499511 10.000004,10.000004 0 0 0 0.06055,-0.499511 z m -19.8545,0.499511 a 10.000004,10.000004 0 0 0 0.07422,0.488283 10.000004,10.000004 0 0 1 -0.07422,-0.488283 z m 19.719735,0.488283 a 10.000004,10.000004 0 0 1 -0.109375,0.487793 10.000004,10.000004 0 0 0 0.109375,-0.487793 z m -19.536141,0.487793 a 10.000004,10.000004 0 0 0 0.124512,0.48828 10.000004,10.000004 0 0 1 -0.124512,-0.48828 z m 19.302253,0.48828 a 10.000004,10.000004 0 0 1 -0.155272,0.465823 10.000004,10.000004 0 0 0 0.155272,-0.465823 z m -19.022468,0.465823 a 10.000004,10.000004 0 0 0 0.173828,0.476562 10.000004,10.000004 0 0 1 -0.173828,-0.476562 z m 18.693366,0.476562 a 10.000004,10.000004 0 0 1 -0.20117,0.450195 10.000004,10.000004 0 0 0 0.20117,-0.450195 z m -18.318366,0.450195 a 10.000004,10.000004 0 0 0 0.219239,0.453613 10.000004,10.000004 0 0 1 -0.219239,-0.453613 z m 17.897955,0.453613 a 10.000004,10.000004 0 0 1 -0.25244,0.44043 10.000004,10.000004 0 0 0 0.25244,-0.44043 z m -17.426275,0.44043 a 10.000004,10.000004 0 0 0 0.255371,0.416015 10.000004,10.000004 0 0 1 -0.255371,-0.416015 z m 16.918463,0.416015 a 10.000004,10.000004 0 0 1 -0.291993,0.409181 10.000004,10.000004 0 0 0 0.291993,-0.409181 z m -16.371099,0.409181 a 10.000004,10.000004 0 0 0 0.303711,0.399415 10.000004,10.000004 0 0 1 -0.303711,-0.399415 z m 15.775396,0.399415 a 10.000004,10.000004 0 0 1 -0.328613,0.373535 10.000004,10.000004 0 0 0 0.328613,-0.373535 z m -15.143072,0.373535 a 10.000004,10.000004 0 0 0 0.340332,0.365722 10.000004,10.000004 0 0 1 -0.340332,-0.365722 z m 14.474127,0.365722 a 10.000004,10.000004 0 0 1 -0.365723,0.340333 10.000004,10.000004 0 0 0 0.365723,-0.340333 z m -13.768072,0.340333 a 10.000004,10.000004 0 0 0 0.373535,0.328613 10.000004,10.000004 0 0 1 -0.373535,-0.328613 z m 13.028814,0.328613 a 10.000004,10.000004 0 0 1 -0.399415,0.30371 10.000004,10.000004 0 0 0 0.399415,-0.30371 z m -12.255865,0.30371 a 10.000004,10.000004 0 0 0 0.40918,0.291992 10.000004,10.000004 0 0 1 -0.40918,-0.291992 z m 11.44727,0.291992 a 10.000004,10.000004 0 0 1 -0.416015,0.255373 10.000004,10.000004 0 0 0 0.416015,-0.255373 z m -10.622074,0.255373 a 10.000004,10.000004 0 0 0 0.44043,0.25244 10.000004,10.000004 0 0 1 -0.44043,-0.25244 z m 9.765628,0.25244 a 10.000004,10.000004 0 0 1 -0.453612,0.21924 10.000004,10.000004 0 0 0 0.453612,-0.21924 z m -8.871585,0.21924 a 10.000004,10.000004 0 0 0 0.450196,0.20117 10.000004,10.000004 0 0 1 -0.450196,-0.20117 z m 7.967778,0.20117 a 10.000004,10.000004 0 0 1 -0.476563,0.17383 10.000004,10.000004 0 0 0 0.476563,-0.17383 z m -7.041019,0.17383 a 10.000004,10.000004 0 0 0 0.46582,0.155273 10.000004,10.000004 0 0 1 -0.46582,-0.155273 z m 6.098633,0.155273 a 10.000004,10.000004 0 0 1 -0.48828,0.124512 10.000004,10.000004 0 0 0 0.48828,-0.124512 z m -5.144532,0.124512 a 10.000004,10.000004 0 0 0 0.487794,0.109375 10.000004,10.000004 0 0 1 -0.487794,-0.109375 z m 4.168459,0.109375 a 10.000004,10.000004 0 0 1 -0.488282,0.07422 10.000004,10.000004 0 0 0 0.488282,-0.07422 z m -3.192384,0.07422 a 10.000004,10.000004 0 0 0 0.499512,0.06055 10.000004,10.000004 0 0 1 -0.499512,-0.06055 z m 2.204591,0.06055 a 10.000004,10.000004 0 0 1 -0.85254,0.04248 10.000004,10.000004 0 0 0 0.85254,-0.04248 z"
       id="path7650-2"
       inkscape:export-xdpi="240"
       inkscape:export-ydpi="240"
       inkscape:connector-curvature="0" /></g><g
     inkscape:groupmode="layer"
     id="layer1"
     inkscape:label="Bg"
     style="display:inline"
     transform="translate(0,-144)"><path
       style="display:inline;opacity:1;fill:#424242;fill-opacity:1;fill-rule:evenodd;stroke:none;stroke-width:0.1;stroke-linecap:butt;stroke-linejoin:miter;stroke-miterlimit:4;stroke-dasharray:none;stroke-dashoffset:0;stroke-opacity:1;enable-background:new"
       d="M 24 12.332031 A 11.667261 11.667261 0 0 0 12.332031 24 A 11.667261 11.667261 0 0 0 24 35.667969 A 11.667261 11.667261 0 0 0 35.667969 24 A 11.667261 11.667261 0 0 0 24 12.332031 z M 24 16 A 8 8 0 0 1 32 24 A 8 8 0 0 1 24 32 A 8 8 0 0 1 16 24 A 8 8 0 0 1 24 16 z "
       id="path4505-1"
       transform="translate(0,144)" /><path
       style="display:inline;opacity:1;fill:#757575;fill-opacity:1;enable-background:new;filter:url(#filter4534)"
       d="m 19.604955,145.99998 c -0.55,0 -1.012126,0.39583 -1.078126,0.92383 l -0.835938,5.83008 c -1.341997,0.55 -2.574265,1.29825 -3.718263,2.15625 l -5.4775408,-2.20019 c -0.5059992,-0.198 -1.0782859,-1.2e-4 -1.3422857,0.48388 l -4.3999038,7.61231 c -0.2860001,0.484 -0.1538391,1.07771 0.2641601,1.40771 l 4.6416033,3.63038 c -0.088,0.704 -0.1538088,1.42976 -0.1538088,2.15576 0,0.726 0.065809,1.45177 0.1538088,2.15576 l -4.6416033,3.63037 c -0.4179992,0.33001 -0.5281601,0.92372 -0.2641601,1.40772 l 4.3999038,7.61231 c 0.2639998,0.484 0.858286,0.65989 1.3422857,0.48388 l 5.4775408,-2.20019 c 1.143998,0.88 2.376266,1.60625 3.718263,2.15625 l 0.835938,5.83008 c 0.066,0.528 0.528126,0.92383 1.078126,0.92383 l 8.799807,0 c 0.55,0 1.012126,-0.39583 1.078126,-0.92383 l 0.835937,-5.83008 c 1.342001,-0.55 2.573776,-1.29825 3.717774,-2.15625 l 5.47803,2.20019 c 0.505997,0.19801 1.078285,1.2e-4 1.342285,-0.48388 l 4.399904,-7.61231 c 0.263998,-0.484 0.153843,-1.07771 -0.26416,-1.40772 l -4.642092,-3.63037 c 0.088,-0.70399 0.154298,-1.40776 0.154298,-2.15576 0,-0.748 -0.0663,-1.45176 -0.154298,-2.15576 l 4.642092,-3.63038 c 0.418003,-0.33 0.528158,-0.92371 0.26416,-1.40771 l -4.399904,-7.61231 c -0.264,-0.484 -0.858288,-0.65988 -1.342285,-0.48388 l -5.47803,2.20019 c -1.143998,-0.88 -2.375773,-1.60625 -3.717774,-2.15625 l -0.835937,-5.83008 c -0.066,-0.528 -0.528126,-0.92383 -1.078126,-0.92383 l -8.799807,0 z m 4.395021,12.00001 a 10.000003,10.000003 0 0 1 10.000003,10 10.000003,10.000003 0 0 1 -10.000003,10 10.000003,10.000003 0 0 1 -10.000004,-10 10.000003,10.000003 0 0 1 10.000004,-10 z"
       id="path6"
       inkscape:connector-curvature="0" /><path
       style="display:inline;opacity:1;fill:#757575;fill-opacity:1;enable-background:new"
       d="m 7.6322939,166.07372 c -0.07378,0.632 -0.1274416,1.2786 -0.1274416,1.92627 0,0.0417 0.0025,0.0833 0.00293,0.125 0.00699,-0.6842 0.067935,-1.36721 0.1508791,-2.03076 l -0.026367,-0.0205 z"
       id="path4430"
       inkscape:connector-curvature="0" /><path
       style="display:inline;opacity:1;fill:#757575;fill-opacity:1;enable-background:new"
       d="m 40.376934,166.07372 -0.02637,0.0205 c 0.08303,0.66423 0.144925,1.32959 0.151858,2.03076 5e-4,-0.042 0.0025,-0.0827 0.0025,-0.125 0,-0.66685 -0.05414,-1.29823 -0.12793,-1.92627 z"
       id="path4428"
       inkscape:connector-curvature="0" /><path
       style="display:inline;opacity:1;fill:#ffffff;fill-opacity:0.2;enable-background:new"
       d="m 33.994609,168.10351 a 10.000003,10.000003 0 0 1 -9.994633,9.89648 10.000003,10.000003 0 0 1 -9.994633,-9.85352 10.000003,10.000003 0 0 0 -0.0054,0.10352 10.000003,10.000003 0 0 0 10.000004,10 10.000003,10.000003 0 0 0 10.000003,-10 10.000003,10.000003 0 0 0 -0.0054,-0.14648 z"
       id="path4426"
       inkscape:connector-curvature="0" /><path
       style="display:inline;opacity:1;fill:#212121;fill-opacity:0.2;enable-background:new"
       d="m 23.999976,157.74999 a 10.000003,10.000003 0 0 0 -10.000004,10 10.000003,10.000003 0 0 0 0.0054,0.14648 10.000003,10.000003 0 0 1 9.994633,-9.89648 10.000003,10.000003 0 0 1 9.994633,9.85352 10.000003,10.000003 0 0 0 0.0054,-0.10352 10.000003,10.000003 0 0 0 -10.000003,-10 z"
       id="path4466"
       inkscape:connector-curvature="0" /><path
       style="display:inline;opacity:1;fill:#757575;fill-opacity:1;enable-background:new"
       d="m 7.5077821,167.87499 c -4.25e-4,0.0417 -0.00293,0.0833 -0.00293,0.125 0,0.64767 0.053662,1.29427 0.1274415,1.92627 l 0.026367,-0.0205 c -0.082944,-0.66356 -0.1438868,-1.34657 -0.1508785,-2.03077 z"
       id="path4460"
       inkscape:connector-curvature="0" /><path
       style="display:inline;opacity:1;fill:#757575;fill-opacity:1;enable-background:new"
       d="m 40.502424,167.87499 c -0.0069,0.70117 -0.06883,1.36653 -0.151858,2.03076 l 0.02637,0.0205 c 0.07379,-0.62804 0.12793,-1.25942 0.12793,-1.92627 0,-0.0423 -0.002,-0.083 -0.0025,-0.125 z"
       id="path4458"
       inkscape:connector-curvature="0" /><path
       style="display:inline;opacity:1;fill:#263238;fill-opacity:0.2;enable-background:new"
       d="m 2.6111829,161.2285 c -0.045417,0.37221 0.104403,0.74744 0.4057611,0.98535 l 4.6157144,3.60987 c 0.00893,-0.0764 0.016872,-0.15354 0.026369,-0.22949 L 3.0169446,161.96385 C 2.7834852,161.77954 2.6432162,161.51236 2.6111837,161.2285 Z"
       id="path4493"
       inkscape:connector-curvature="0" /><path
       style="display:inline;opacity:1;fill:#263238;fill-opacity:0.2;enable-background:new"
       d="m 45.388943,161.23291 c -0.03075,0.2822 -0.163747,0.5476 -0.395998,0.73096 l -4.642084,3.63036 c 0.0096,0.0764 0.01738,0.15299 0.02638,0.22949 l 4.615714,-3.60986 c 0.300186,-0.23699 0.437936,-0.6102 0.395998,-0.98096 z"
       id="path4491"
       inkscape:connector-curvature="0" /><path
       style="display:inline;opacity:1;fill:#263238;fill-opacity:0.2;enable-background:new"
       d="m 7.5076583,167.87499 c -4.5e-4,0.0417 -0.00294,0.0833 -0.00294,0.125 0,0.64767 0.054115,1.29422 0.1279301,1.92627 l 0.026366,-0.0205 c -0.082942,-0.66356 -0.1443538,-1.34655 -0.1513651,-2.03077 z"
       id="path4489"
       inkscape:connector-curvature="0" /><path
       style="display:inline;opacity:1;fill:#263238;fill-opacity:0.2;enable-background:new"
       d="m 40.502231,167.87499 c -0.0069,0.70119 -0.06833,1.36653 -0.15137,2.03076 l 0.02638,0.0205 c 0.07373,-0.62801 0.127445,-1.25949 0.127445,-1.92627 0,-0.0423 -0.0018,-0.083 -0.0025,-0.125 z"
       id="path4487"
       inkscape:connector-curvature="0" /><path
       style="display:inline;opacity:1;fill:#263238;fill-opacity:0.2;enable-background:new"
       d="m 45.388943,174.51708 c -0.01642,0.14553 -0.05791,0.29033 -0.132325,0.42676 l -4.399894,7.61231 c -0.264,0.484 -0.8358,0.68189 -1.3418,0.48388 l -5.478015,-2.20019 c -1.143995,0.858 -2.376253,1.60625 -3.718254,2.15625 l -0.835935,5.83008 c -0.066,0.528 -0.528125,0.92383 -1.078123,0.92383 l -8.799791,0 c -0.549999,0 -1.012123,-0.39583 -1.078123,-0.92383 l -0.835936,-5.83008 c -1.341998,-0.55 -2.573769,-1.27625 -3.717768,-2.15625 l -5.4780173,2.20019 c -0.4839997,0.17601 -1.0782831,1.2e-4 -1.342283,-0.48388 l -4.399894,-7.61231 c -0.074001,-0.13567 -0.1156421,-0.2796 -0.1323246,-0.42432 -0.024023,0.22497 0.01543,0.46002 0.1323246,0.67432 l 4.399894,7.61231 c 0.2639999,0.484 0.8582833,0.65989 1.342283,0.48388 l 5.4780173,-2.20019 c 1.143999,0.88 2.37577,1.60625 3.717768,2.15625 l 0.835936,5.83008 c 0.066,0.528 0.528124,0.92383 1.078123,0.92383 l 8.799791,0 c 0.549998,0 1.012123,-0.39583 1.078123,-0.92383 l 0.835935,-5.83008 c 1.342001,-0.55 2.574259,-1.29825 3.718254,-2.15625 l 5.478015,2.20019 c 0.506,0.19801 1.0778,1.2e-4 1.3418,-0.48388 l 4.399894,-7.61231 c 0.117318,-0.21508 0.156928,-0.45105 0.132325,-0.67676 z"
       id="path6-3"
       inkscape:connector-curvature="0" /><path
       inkscape:connector-curvature="0"
       style="display:inline;opacity:1;fill:#ffffff;fill-opacity:0.2;enable-background:new"
       d="m 19.604806,145.99998 c -0.549999,0 -1.012123,0.39583 -1.078123,0.92383 l -0.835936,5.83008 c -1.341998,0.55 -2.573769,1.29825 -3.717768,2.15625 l -5.4780173,-2.2002 c -0.5059992,-0.198 -1.0782831,-1.1e-4 -1.342283,0.48389 l -4.399894,7.6123 c -0.1262651,0.21368 -0.1669223,0.44799 -0.1416018,0.67237 0.017583,-0.14406 0.061794,-0.2873 0.1416018,-0.42236 l 4.399894,-7.61231 c 0.2639999,-0.484 0.8362838,-0.68189 1.342283,-0.48389 l 5.4780173,2.2002 c 1.143999,-0.858 2.37577,-1.60625 3.717768,-2.15625 l 0.835936,-5.83008 c 0.066,-0.528 0.528124,-0.92383 1.078123,-0.92383 l 8.799791,0 c 0.549998,0 1.012123,0.39583 1.078123,0.92383 l 0.835935,5.83008 c 1.342001,0.55 2.574259,1.27625 3.718254,2.15625 l 5.478015,-2.2002 c 0.484,-0.176 1.0778,-1.1e-4 1.3418,0.48389 l 4.399894,7.61231 c 0.07442,0.13642 0.115863,0.28122 0.132325,0.42676 0.0246,-0.22571 -0.015,-0.46168 -0.132325,-0.67677 l -4.399894,-7.6123 c -0.264,-0.484 -0.8578,-0.65989 -1.3418,-0.48389 l -5.478015,2.2002 c -1.143995,-0.88 -2.376253,-1.60625 -3.718254,-2.15625 l -0.835935,-5.83008 c -0.066,-0.528 -0.528125,-0.92383 -1.078123,-0.92383 l -8.799791,0 z"
       id="path4625" /><path
       inkscape:connector-curvature="0"
       style="display:inline;opacity:1;fill:#ffffff;fill-opacity:0.2;enable-background:new"
       d="m 7.6326584,166.07372 c -0.073815,0.63205 -0.1279298,1.27859 -0.1279298,1.92627 0,0.0417 0.0025,0.0833 0.00294,0.125 0.00701,-0.68422 0.068423,-1.36721 0.151367,-2.03077 l -0.026369,-0.0205 z"
       id="path4623" /><path
       inkscape:connector-curvature="0"
       style="display:inline;opacity:1;fill:#ffffff;fill-opacity:0.2;enable-background:new"
       d="m 40.377231,166.07372 -0.02638,0.0205 c 0.08304,0.66423 0.144465,1.32957 0.151368,2.03076 5e-4,-0.042 0.0025,-0.0828 0.0025,-0.125 0,-0.66678 -0.05372,-1.29825 -0.127443,-1.92627 z"
       id="path4621" /><path
       inkscape:connector-curvature="0"
       style="display:inline;opacity:1;fill:#ffffff;fill-opacity:0.2;enable-background:new"
       d="m 7.6326584,170.17626 -4.6157144,3.60986 c -0.3008311,0.2375 -0.4393166,0.61184 -0.3964839,0.9834 0.030231,-0.28312 0.1635621,-0.54951 0.3964839,-0.7334 l 4.6420816,-3.63037 c -0.00949,-0.076 -0.01744,-0.15305 -0.026369,-0.22949 z"
       id="path4617" /><path
       inkscape:connector-curvature="0"
       style="display:inline;opacity:1;fill:#ffffff;fill-opacity:0.2;enable-background:new"
       d="m 40.377231,170.17626 c -0.009,0.0765 -0.01682,0.15305 -0.02638,0.22949 l 4.642082,3.63037 c 0.23225,0.18336 0.365235,0.44876 0.395998,0.73096 0.04194,-0.37077 -0.09581,-0.74397 -0.395998,-0.98096 l -4.615714,-3.60986 z"
       id="path6-8" /><g
       id="g4640"><path
         transform="translate(0,144)"
         id="path4505"
         d="M 24 14 A 10.000003 10.000003 0 0 0 14 24 A 10.000003 10.000003 0 0 0 24 34 A 10.000003 10.000003 0 0 0 34 24 A 10.000003 10.000003 0 0 0 24 14 z M 24 17 A 7.0000025 7.0000025 0 0 1 31 24 A 7.0000025 7.0000025 0 0 1 24 31 A 7.0000025 7.0000025 0 0 1 17 24 A 7.0000025 7.0000025 0 0 1 24 17 z "
         style="opacity:1;fill:#424242;fill-opacity:1;fill-rule:evenodd;stroke:none;stroke-width:0.1;stroke-linecap:butt;stroke-linejoin:miter;stroke-miterlimit:4;stroke-dasharray:none;stroke-dashoffset:0;stroke-opacity:1" /><path
         inkscape:connector-curvature="0"
         id="path7650-6"
         d="m 30.994608,168.10351 a 7.0000024,7.0000024 0 0 1 -6.994632,6.89648 7.0000024,7.0000024 0 0 1 -6.994632,-6.85352 7.0000024,7.0000024 0 0 0 -0.0054,0.10352 7.0000024,7.0000024 0 0 0 7.000003,7 7.0000024,7.0000024 0 0 0 7.000002,-7 7.0000024,7.0000024 0 0 0 -0.0054,-0.14648 z"
         style="display:inline;opacity:1;fill:#ffffff;fill-opacity:0.2;fill-rule:evenodd;stroke:none;stroke-width:0.1;stroke-linecap:butt;stroke-linejoin:miter;stroke-miterlimit:4;stroke-dasharray:none;stroke-dashoffset:0;stroke-opacity:1;enable-background:new" /><path
         inkscape:connector-curvature="0"
         id="path7723"
         d="m 23.999976,160.74999 a 7.0000024,7.0000024 0 0 0 -7.000003,7 7.0000024,7.0000024 0 0 0 0.0054,0.14648 7.0000024,7.0000024 0 0 1 6.994632,-6.89648 7.0000024,7.0000024 0 0 1 6.994632,6.85352 7.0000024,7.0000024 0 0 0 0.0054,-0.10352 7.0000024,7.0000024 0 0 0 -7.000002,-7 z"
         style="display:inline;opacity:1;fill:#000000;fill-opacity:0.2;fill-rule:evenodd;stroke:none;stroke-width:0.1;stroke-linecap:butt;stroke-linejoin:miter;stroke-miterlimit:4;stroke-dasharray:none;stroke-dashoffset:0;stroke-opacity:1;enable-background:new" /></g></g><g
     inkscape:groupmode="layer"
     id="layer4"
     inkscape:label="Finish"
     style="display:inline"
     transform="translate(0,-144)"
     sodipodi:insensitive="true"><path
       inkscape:connector-curvature="0"
       style="display:inline;opacity:1;fill:url(#radialGradient4453);fill-opacity:1;fill-rule:evenodd;stroke:none;stroke-width:0.1;stroke-linecap:butt;stroke-linejoin:miter;stroke-miterlimit:4;stroke-dasharray:none;stroke-dashoffset:0;stroke-opacity:1;enable-background:new"
       d="m 19.605072,145.9999 c -0.55,0 -1.012128,0.39583 -1.078128,0.92383 l -0.835939,5.83009 c -1.342,0.55 -2.57427,1.29825 -3.718271,2.15625 l -5.4775517,-2.2002 c -0.506,-0.198 -1.078288,-1.1e-4 -1.342288,0.48389 l -4.399913,7.61232 c -0.286,0.48401 -0.153839,1.07772 0.264161,1.40772 l 4.641613,3.63038 c -0.088,0.704 -0.153809,1.42977 -0.153809,2.15577 0,0.726 0.06581,1.45177 0.153809,2.15577 l -4.641613,3.63037 c -0.418,0.33001 -0.528161,0.92372 -0.264161,1.40772 l 4.399913,7.61233 c 0.264,0.484 0.858288,0.65989 1.342288,0.48388 l 5.4775517,-2.2002 c 1.144001,0.88001 2.376271,1.60626 3.718271,2.15626 l 0.835939,5.83009 c 0.066,0.528 0.528128,0.92383 1.078128,0.92383 l 8.799825,0 c 0.550001,0 1.012128,-0.39583 1.078128,-0.92383 l 0.835939,-5.83009 c 1.342003,-0.55 2.573781,-1.29826 3.717781,-2.15626 l 5.478041,2.2002 c 0.505999,0.19801 1.078287,1.2e-4 1.342288,-0.48388 l 4.399913,-7.61233 c 0.263998,-0.484 0.153843,-1.07771 -0.264161,-1.40772 l -4.642101,-3.63037 c 0.088,-0.704 0.154298,-1.40777 0.154298,-2.15577 0,-0.748 -0.06629,-1.45177 -0.154298,-2.15577 l 4.642101,-3.63038 c 0.418004,-0.33 0.528159,-0.92371 0.264161,-1.40772 l -4.399913,-7.61232 c -0.264001,-0.484 -0.858289,-0.65989 -1.342288,-0.48389 l -5.478041,2.2002 c -1.144,-0.88 -2.375778,-1.60625 -3.717781,-2.15625 l -0.835939,-5.83009 c -0.066,-0.528 -0.528127,-0.92383 -1.078128,-0.92383 l -8.799825,0 z m 4.395031,12.00002 a 10.000024,10.000024 0 0 0 -0.852542,0.0425 10.000024,10.000024 0 0 1 0.852542,-0.0425 z m 0.852539,0.0425 a 10.000024,10.000024 0 0 1 0.499513,0.0606 10.000024,10.000024 0 0 0 -0.499513,-0.0606 z m -2.204594,0.0606 a 10.000024,10.000024 0 0 0 -0.488283,0.0742 10.000024,10.000024 0 0 1 0.488283,-0.0742 z m 3.192391,0.0742 a 10.000024,10.000024 0 0 1 0.487793,0.10938 10.000024,10.000024 0 0 0 -0.487793,-0.10938 z m -4.168468,0.10938 a 10.000024,10.000024 0 0 0 -0.488282,0.12451 10.000024,10.000024 0 0 1 0.488282,-0.12451 z m 5.144542,0.12451 a 10.000024,10.000024 0 0 1 0.465824,0.15527 10.000024,10.000024 0 0 0 -0.465824,-0.15527 z m -6.098646,0.15527 a 10.000024,10.000024 0 0 0 -0.476563,0.17383 10.000024,10.000024 0 0 1 0.476563,-0.17383 z m 7.041034,0.17383 a 10.000024,10.000024 0 0 1 0.450196,0.20117 10.000024,10.000024 0 0 0 -0.450196,-0.20117 z m -7.967794,0.20117 a 10.000024,10.000024 0 0 0 -0.453614,0.21924 10.000024,10.000024 0 0 1 0.453614,-0.21924 z m 8.871603,0.21924 a 10.000024,10.000024 0 0 1 0.440431,0.25244 10.000024,10.000024 0 0 0 -0.440431,-0.25244 z m -9.765648,0.25244 a 10.000024,10.000024 0 0 0 -0.416016,0.25538 10.000024,10.000024 0 0 1 0.416016,-0.25538 z m 10.622095,0.25538 a 10.000024,10.000024 0 0 1 0.409181,0.29199 10.000024,10.000024 0 0 0 -0.409181,-0.29199 z m -11.447292,0.29199 a 10.000024,10.000024 0 0 0 -0.399415,0.30371 10.000024,10.000024 0 0 1 0.399415,-0.30371 z m 12.255889,0.30371 a 10.000024,10.000024 0 0 1 0.373536,0.32861 10.000024,10.000024 0 0 0 -0.373536,-0.32861 z m -13.02884,0.32861 a 10.000024,10.000024 0 0 0 -0.365723,0.34034 10.000024,10.000024 0 0 1 0.365723,-0.34034 z m 13.768099,0.34034 a 10.000024,10.000024 0 0 1 0.340334,0.36572 10.000024,10.000024 0 0 0 -0.340334,-0.36572 z m -7.06691,0.0669 a 7.0000165,7.0000165 0 0 1 7.000015,7.00002 7.0000165,7.0000165 0 0 1 -7.000015,7.00001 7.0000165,7.0000165 0 0 1 -7.000018,-7.00001 7.0000165,7.0000165 0 0 1 7.000018,-7.00002 z m -7.407245,0.29883 a 10.000024,10.000024 0 0 0 -0.328614,0.37354 10.000024,10.000024 0 0 1 0.328614,-0.37354 z m 15.143102,0.37354 a 10.000024,10.000024 0 0 1 0.303711,0.39941 10.000024,10.000024 0 0 0 -0.303711,-0.39941 z m -15.775428,0.39941 a 10.000024,10.000024 0 0 0 -0.291993,0.40918 10.000024,10.000024 0 0 1 0.291993,-0.40918 z m 16.371132,0.40918 a 10.000024,10.000024 0 0 1 0.255373,0.41602 10.000024,10.000024 0 0 0 -0.255373,-0.41602 z m -16.918497,0.41602 a 10.000024,10.000024 0 0 0 -0.252442,0.44043 10.000024,10.000024 0 0 1 0.252442,-0.44043 z m 17.426311,0.44043 a 10.000024,10.000024 0 0 1 0.21924,0.45361 10.000024,10.000024 0 0 0 -0.21924,-0.45361 z m -17.897991,0.45361 a 10.000024,10.000024 0 0 0 -0.201173,0.4502 10.000024,10.000024 0 0 1 0.201173,-0.4502 z m 18.318402,0.4502 a 10.000024,10.000024 0 0 1 0.17383,0.47656 10.000024,10.000024 0 0 0 -0.17383,-0.47656 z m -18.693403,0.47656 a 10.000024,10.000024 0 0 0 -0.155274,0.46583 10.000024,10.000024 0 0 1 0.155274,-0.46583 z m 19.022506,0.46583 a 10.000024,10.000024 0 0 1 0.124513,0.48828 10.000024,10.000024 0 0 0 -0.124513,-0.48828 z M 14.2867,165.67188 a 10.000024,10.000024 0 0 0 -0.109375,0.48779 10.000024,10.000024 0 0 1 0.109375,-0.48779 z m 19.53618,0.48779 a 10.000024,10.000024 0 0 1 0.07422,0.48828 10.000024,10.000024 0 0 0 -0.07422,-0.48828 z m -19.719774,0.48822 a 10.000024,10.000024 0 0 0 -0.06055,0.49952 10.000024,10.000024 0 0 1 0.06055,-0.49952 z m 19.854539,0.49952 a 10.000024,10.000024 0 0 1 0.04248,0.85254 10.000024,10.000024 0 0 0 -0.04248,-0.85254 z m -19.957567,0.85254 a 10.000024,10.000024 0 0 0 0.04248,0.85254 10.000024,10.000024 0 0 1 -0.04248,-0.85254 z m 19.957567,0.85254 a 10.000024,10.000024 0 0 1 -0.06055,0.49951 10.000024,10.000024 0 0 0 0.06055,-0.49951 z M 14.103106,169.352 a 10.000024,10.000024 0 0 0 0.07422,0.48828 10.000024,10.000024 0 0 1 -0.07422,-0.48828 z m 19.719774,0.48828 a 10.000024,10.000024 0 0 1 -0.109375,0.4878 10.000024,10.000024 0 0 0 0.109375,-0.4878 z m -19.53618,0.4878 a 10.000024,10.000024 0 0 0 0.124512,0.48828 10.000024,10.000024 0 0 1 -0.124512,-0.48828 z m 19.302292,0.48828 a 10.000024,10.000024 0 0 1 -0.155273,0.46582 10.000024,10.000024 0 0 0 0.155273,-0.46582 z m -19.022506,0.46582 a 10.000024,10.000024 0 0 0 0.173828,0.47657 10.000024,10.000024 0 0 1 -0.173828,-0.47657 z m 18.693403,0.47657 a 10.000024,10.000024 0 0 1 -0.201171,0.45019 10.000024,10.000024 0 0 0 0.201171,-0.45019 z m -18.318402,0.45019 a 10.000024,10.000024 0 0 0 0.219238,0.45362 10.000024,10.000024 0 0 1 -0.219238,-0.45362 z m 17.897991,0.45362 a 10.000024,10.000024 0 0 1 -0.252441,0.44043 10.000024,10.000024 0 0 0 0.252441,-0.44043 z m -17.426311,0.44043 a 10.000024,10.000024 0 0 0 0.255372,0.41601 10.000024,10.000024 0 0 1 -0.255372,-0.41601 z m 16.918497,0.41601 a 10.000024,10.000024 0 0 1 -0.291993,0.40918 10.000024,10.000024 0 0 0 0.291993,-0.40918 z m -16.371132,0.40918 a 10.000024,10.000024 0 0 0 0.303712,0.39942 10.000024,10.000024 0 0 1 -0.303712,-0.39942 z m 15.775428,0.39942 a 10.000024,10.000024 0 0 1 -0.328613,0.37354 10.000024,10.000024 0 0 0 0.328613,-0.37354 z m -15.143102,0.37354 a 10.000024,10.000024 0 0 0 0.340333,0.36572 10.000024,10.000024 0 0 1 -0.340333,-0.36572 z m 14.474155,0.36572 a 10.000024,10.000024 0 0 1 -0.365723,0.34033 10.000024,10.000024 0 0 0 0.365723,-0.34033 z m -13.768099,0.34033 a 10.000024,10.000024 0 0 0 0.373536,0.32862 10.000024,10.000024 0 0 1 -0.373536,-0.32862 z m 13.02884,0.32862 a 10.000024,10.000024 0 0 1 -0.399416,0.30371 10.000024,10.000024 0 0 0 0.399416,-0.30371 z m -12.255889,0.30371 a 10.000024,10.000024 0 0 0 0.409181,0.29199 10.000024,10.000024 0 0 1 -0.409181,-0.29199 z m 11.447292,0.29199 a 10.000024,10.000024 0 0 1 -0.416016,0.25537 10.000024,10.000024 0 0 0 0.416016,-0.25537 z m -10.622095,0.25537 a 10.000024,10.000024 0 0 0 0.440431,0.25244 10.000024,10.000024 0 0 1 -0.440431,-0.25244 z m 9.765648,0.25244 a 10.000024,10.000024 0 0 1 -0.453613,0.21924 10.000024,10.000024 0 0 0 0.453613,-0.21924 z m -8.871603,0.21924 a 10.000024,10.000024 0 0 0 0.450197,0.20117 10.000024,10.000024 0 0 1 -0.450197,-0.20117 z m 7.967794,0.20117 a 10.000024,10.000024 0 0 1 -0.476564,0.17384 10.000024,10.000024 0 0 0 0.476564,-0.17384 z m -7.041034,0.17384 a 10.000024,10.000024 0 0 0 0.465822,0.15527 10.000024,10.000024 0 0 1 -0.465822,-0.15527 z m 6.098646,0.15527 a 10.000024,10.000024 0 0 1 -0.488281,0.12451 10.000024,10.000024 0 0 0 0.488281,-0.12451 z m -5.144542,0.12451 a 10.000024,10.000024 0 0 0 0.487794,0.10938 10.000024,10.000024 0 0 1 -0.487794,-0.10938 z m 4.168468,0.10938 a 10.000024,10.000024 0 0 1 -0.488284,0.0742 10.000024,10.000024 0 0 0 0.488284,-0.0742 z m -3.192391,0.0742 a 10.000024,10.000024 0 0 0 0.499513,0.0606 10.000024,10.000024 0 0 1 -0.499513,-0.0606 z m 2.204594,0.0606 a 10.000024,10.000024 0 0 1 -0.852539,0.0425 10.000024,10.000024 0 0 0 0.852539,-0.0425 z"
       id="path7650-3"
       inkscape:export-xdpi="240"
       inkscape:export-ydpi="240" /></g></svg>