<?xml version="1.0" encoding="UTF-8" standalone="no"?>
<!-- Created with Inkscape (http://www.inkscape.org/) -->

<svg
   xmlns:dc="http://purl.org/dc/elements/1.1/"
   xmlns:cc="http://creativecommons.org/ns#"
   xmlns:rdf="http://www.w3.org/1999/02/22-rdf-syntax-ns#"
   xmlns:svg="http://www.w3.org/2000/svg"
   xmlns="http://www.w3.org/2000/svg"
   xmlns:xlink="http://www.w3.org/1999/xlink"
   xmlns:sodipodi="http://sodipodi.sourceforge.net/DTD/sodipodi-0.dtd"
   xmlns:inkscape="http://www.inkscape.org/namespaces/inkscape"
   id="svg2"
   version="1.1"
   inkscape:version="0.91 r"
   xml:space="preserve"
   width="48"
   height="48"
   viewBox="0 0 48 48"
   sodipodi:docname="preferences-system.svg"
   style="enable-background:new"
   inkscape:export-filename="/home/german/Proyects/Linux-Icon-Pack/Materialos/48x48/categories/svg/preferences-system.png"
   inkscape:export-xdpi="90"
   inkscape:export-ydpi="90"><sodipodi:namedview
     pagecolor="#ffffff"
     bordercolor="#666666"
     borderopacity="1"
     objecttolerance="10"
     gridtolerance="10"
     guidetolerance="10"
     inkscape:pageopacity="0"
     inkscape:pageshadow="2"
     inkscape:window-width="1360"
     inkscape:window-height="709"
     id="namedview4"
     showgrid="false"
     inkscape:zoom="3.8890873"
     inkscape:cx="-9.2719756"
     inkscape:cy="7.6717405"
     inkscape:window-x="0"
     inkscape:window-y="0"
     inkscape:window-maximized="1"
     inkscape:current-layer="layer2"
     borderlayer="true"
     inkscape:showpageshadow="true"
     showguides="false"
     inkscape:guide-bbox="true"><sodipodi:guide
       inkscape:color="rgb(0,0,255)"
       inkscape:label=""
       id="guide4338"
       orientation="1,0"
       position="8,96" /><sodipodi:guide
       inkscape:color="rgb(0,0,255)"
       inkscape:label=""
       id="guide4340"
       orientation="1,0"
       position="136,96" /><sodipodi:guide
       inkscape:color="rgb(0,0,255)"
       inkscape:label=""
       id="guide4342"
       orientation="0,1"
       position="96,8" /><sodipodi:guide
       inkscape:color="rgb(0,0,255)"
       inkscape:label=""
       id="guide4344"
       orientation="0,1"
       position="96,160" /><sodipodi:guide
       inkscape:color="rgb(0,0,255)"
       inkscape:label=""
       id="guide4346"
       orientation="-0.70710678,0.70710678"
       position="96,96" /><sodipodi:guide
       inkscape:color="rgb(0,0,255)"
       inkscape:label=""
       id="guide4348"
       orientation="0.70710678,0.70710678"
       position="96,96" /><sodipodi:guide
       inkscape:color="rgb(0,0,255)"
       inkscape:label=""
       id="guide4350"
       orientation="1,0"
       position="20,96" /><sodipodi:guide
       inkscape:color="rgb(0,0,255)"
       inkscape:label=""
       id="guide4352"
       orientation="1,0"
       position="32,96" /><sodipodi:guide
       inkscape:color="rgb(0,0,255)"
       inkscape:label=""
       id="guide4354"
       orientation="0,1"
       position="96,172" /><sodipodi:guide
       inkscape:color="rgb(0,0,255)"
       inkscape:label=""
       id="guide4356"
       orientation="0,1"
       position="96,96" /><sodipodi:guide
       inkscape:color="rgb(0,0,255)"
       inkscape:label=""
       id="guide4358"
       orientation="1,0"
       position="96,96" /><sodipodi:guide
       inkscape:color="rgb(0,0,255)"
       inkscape:label=""
       id="guide4360"
       orientation="0,1"
       position="96,20" /><sodipodi:guide
       inkscape:color="rgb(0,0,255)"
       inkscape:label=""
       id="guide4362"
       orientation="0,1"
       position="96,32" /><sodipodi:guide
       inkscape:color="rgb(0,0,255)"
       inkscape:label=""
       id="guide4364"
       orientation="0,1"
       position="96,184" /><sodipodi:guide
       inkscape:color="rgb(0,0,255)"
       inkscape:label=""
       id="guide4366"
       orientation="1,0"
       position="164.91168,56" /><sodipodi:guide
       inkscape:color="rgb(0,0,255)"
       inkscape:label=""
       id="guide4368"
       orientation="1,0"
       position="184,96" /><sodipodi:guide
       inkscape:color="rgb(0,0,255)"
       inkscape:label=""
       id="guide4370"
       orientation="0,1"
       position="96,136" /><sodipodi:guide
       inkscape:color="rgb(0,0,255)"
       inkscape:label=""
       id="guide4372"
       orientation="0,1"
       position="96,56" /><sodipodi:guide
       inkscape:color="rgb(0,0,255)"
       inkscape:label=""
       id="guide4374"
       orientation="1,0"
       position="56,96" /><sodipodi:guide
       inkscape:color="rgb(0,0,255)"
       inkscape:label=""
       id="guide4376"
       orientation="1,0"
       position="172,96" /></sodipodi:namedview><metadata
     id="metadata8"><rdf:RDF><cc:Work
         rdf:about=""><dc:format>image/svg+xml</dc:format><dc:type
           rdf:resource="http://purl.org/dc/dcmitype/StillImage" /><dc:title></dc:title></cc:Work></rdf:RDF></metadata><defs
     id="defs6"><linearGradient
       id="linearGradient4462"
       inkscape:collect="always"><stop
         id="stop4464"
         offset="0"
         style="stop-color:#ffffff;stop-opacity:0.1" /><stop
         id="stop4466"
         offset="1"
         style="stop-color:#ffffff;stop-opacity:0" /></linearGradient><clipPath
       id="clipPath18"
       clipPathUnits="userSpaceOnUse"><path
         inkscape:connector-curvature="0"
         id="path20"
         d="M 0,512 512,512 512,0 0,0 0,512 Z" /></clipPath><filter
       id="filter4616"
       inkscape:label="Drop Shadow"
       style="color-interpolation-filters:sRGB"><feFlood
         id="feFlood4618"
         result="flood"
         flood-color="rgb(0,0,0)"
         flood-opacity="0.2" /><feComposite
         id="feComposite4620"
         result="composite1"
         operator="in"
         in2="SourceGraphic"
         in="flood" /><feGaussianBlur
         id="feGaussianBlur4622"
         result="blur"
         stdDeviation="4"
         in="composite1" /><feOffset
         id="feOffset4624"
         result="offset"
         dy="4"
         dx="0" /><feComposite
         id="feComposite4626"
         result="composite2"
         operator="over"
         in2="offset"
         in="SourceGraphic" /></filter><filter
       height="2"
       width="2"
       y="-0.5"
       x="-0.5"
       id="filter4628"
       inkscape:label="Drop Shadow"
       style="color-interpolation-filters:sRGB"><feFlood
         id="feFlood4630"
         result="flood"
         flood-color="rgb(0,0,0)"
         flood-opacity="0.2" /><feComposite
         id="feComposite4632"
         result="composite1"
         operator="in"
         in2="SourceGraphic"
         in="flood" /><feGaussianBlur
         id="feGaussianBlur4634"
         result="blur"
         stdDeviation="4"
         in="composite1" /><feOffset
         id="feOffset4636"
         result="offset"
         dy="4"
         dx="0" /><feComposite
         id="feComposite4638"
         result="composite2"
         operator="over"
         in2="offset"
         in="SourceGraphic" /></filter><filter
       y="-0.5"
       x="-0.5"
       height="2"
       width="2"
       id="filter4640"
       inkscape:label="Drop Shadow"
       style="color-interpolation-filters:sRGB"><feFlood
         id="feFlood4642"
         result="flood"
         flood-color="rgb(0,0,0)"
         flood-opacity="0.2" /><feComposite
         id="feComposite4644"
         result="composite1"
         operator="in"
         in2="SourceGraphic"
         in="flood" /><feGaussianBlur
         id="feGaussianBlur4646"
         result="blur"
         stdDeviation="4"
         in="composite1" /><feOffset
         id="feOffset4648"
         result="offset"
         dy="4"
         dx="0" /><feComposite
         id="feComposite4650"
         result="composite2"
         operator="over"
         in2="offset"
         in="SourceGraphic" /></filter><filter
       id="filter4616-5"
       inkscape:label="Drop Shadow"
       style="color-interpolation-filters:sRGB"><feFlood
         id="feFlood4618-8"
         result="flood"
         flood-color="rgb(0,0,0)"
         flood-opacity="0.2" /><feComposite
         id="feComposite4620-5"
         result="composite1"
         operator="in"
         in2="SourceGraphic"
         in="flood" /><feGaussianBlur
         id="feGaussianBlur4622-9"
         result="blur"
         stdDeviation="4"
         in="composite1" /><feOffset
         id="feOffset4624-7"
         result="offset"
         dy="4"
         dx="0" /><feComposite
         id="feComposite4626-6"
         result="composite2"
         operator="over"
         in2="offset"
         in="SourceGraphic" /></filter><radialGradient
       spreadMethod="pad"
       gradientUnits="userSpaceOnUse"
       gradientTransform="matrix(1.5570923,1.5570923,-1.6007739,1.6007739,3.5140922,-6.6868239)"
       r="102.71841"
       fy="2.7374444"
       fx="1.5579776"
       cy="2.7374444"
       cx="1.5579776"
       id="radialGradient4468"
       xlink:href="#linearGradient4462"
       inkscape:collect="always" /><filter
       height="2"
       width="2"
       y="-0.5"
       x="-0.5"
       id="filter4628-8"
       inkscape:label="Drop Shadow"
       style="color-interpolation-filters:sRGB"><feFlood
         id="feFlood4630-8"
         result="flood"
         flood-color="rgb(0,0,0)"
         flood-opacity="0.2" /><feComposite
         id="feComposite4632-8"
         result="composite1"
         operator="in"
         in2="SourceGraphic"
         in="flood" /><feGaussianBlur
         id="feGaussianBlur4634-3"
         result="blur"
         stdDeviation="4"
         in="composite1" /><feOffset
         id="feOffset4636-6"
         result="offset"
         dy="4"
         dx="0" /><feComposite
         id="feComposite4638-2"
         result="composite2"
         operator="over"
         in2="offset"
         in="SourceGraphic" /></filter><filter
       id="filter4616-6"
       inkscape:label="Drop Shadow"
       style="color-interpolation-filters:sRGB"><feFlood
         id="feFlood4618-5"
         result="flood"
         flood-color="rgb(0,0,0)"
         flood-opacity="0.2" /><feComposite
         id="feComposite4620-3"
         result="composite1"
         operator="in"
         in2="SourceGraphic"
         in="flood" /><feGaussianBlur
         id="feGaussianBlur4622-93"
         result="blur"
         stdDeviation="4"
         in="composite1" /><feOffset
         id="feOffset4624-9"
         result="offset"
         dy="4"
         dx="0" /><feComposite
         id="feComposite4626-3"
         result="composite2"
         operator="over"
         in2="offset"
         in="SourceGraphic" /></filter></defs><g
     inkscape:label="Bg"
     id="layer1"
     inkscape:groupmode="layer"
     transform="translate(0,-144)"><path
       style="opacity:1;fill:#546e7a;fill-opacity:1;filter:url(#filter4616);enable-background:new"
       id="path6"
       d="m 161.4021,104.62399 c 0.35201,-2.81599 0.616,-5.631995 0.616,-8.623995 0,-2.991999 -0.26399,-5.807999 -0.616,-8.624 l 18.56799,-14.519999 c 1.67202,-1.32 2.11202,-3.696 1.05602,-5.632001 L 163.4261,36.775997 c -1.056,-1.936001 -3.432,-2.64 -5.36799,-1.936001 l -21.912,8.8 c -4.576,-3.519999 -9.504,-6.423999 -14.87201,-8.624 L 117.9301,11.696 C 117.6661,9.584 115.81811,8 113.61811,8 L 78.418099,8 c -2.2,0 -4.048,1.584 -4.312,3.696 l -3.344,23.319996 c -5.367999,2.200001 -10.296,5.192 -14.871999,8.624 l -21.911976,-8.8 c -2.024,-0.792 -4.312005,0 -5.368006,1.936001 l -17.6,30.447998 c -1.1439999,1.936001 -0.616,4.312001 1.056001,5.632001 l 18.568005,14.519999 c -0.352001,2.816001 -0.616002,5.720001 -0.616002,8.624 0,2.904 0.264001,5.808005 0.616002,8.623995 L 12.066119,119.144 c -1.672001,1.32001 -2.1120009,3.69599 -1.056001,5.632 l 17.6,30.44799 c 1.056001,1.936 3.432004,2.64001 5.368006,1.936 l 21.911976,-8.8 c 4.575999,3.52002 9.504,6.42401 14.871999,8.62401 l 3.344,23.31999 c 0.264,2.11201 2.112,3.69601 4.312,3.69601 l 35.200011,0 c 2.2,0 4.04799,-1.584 4.31199,-3.69601 l 3.344,-23.31999 c 5.36801,-2.2 10.29601,-5.19201 14.87201,-8.62401 l 21.912,8.8 c 2.02399,0.79201 4.31199,0 5.36799,-1.936 L 181.02611,124.776 c 1.056,-1.93601 0.616,-4.31199 -1.05602,-5.632 L 161.4021,104.62399 Z M 96.0181,126.8 c -16.984001,0 -30.8,-13.816 -30.8,-30.800005 0,-16.983999 13.815999,-30.799999 30.8,-30.799999 16.984,0 30.80001,13.816 30.80001,30.799999 C 126.81811,112.984 113.0021,126.8 96.0181,126.8 Z"
       inkscape:connector-curvature="0"
       transform="matrix(0.25000021,0,0,0.25000021,-6.4653758e-5,143.99995)" /><path
       inkscape:connector-curvature="0"
       id="path6-8"
       d="m 19.604444,145.99995 c -0.55,0 -1.012126,0.39583 -1.078126,0.92383 l -0.835938,5.83008 c -1.342001,0.55 -2.573776,1.29825 -3.717777,2.15625 L 8.4945714,152.70992 C 7.988571,152.51191 7.4162855,152.7098 7.152285,153.1938 l -4.3999059,7.61231 c -0.1262649,0.21368 -0.1669224,0.44799 -0.1416019,0.67237 0.01758,-0.14407 0.061795,-0.28731 0.1416019,-0.42237 L 7.152285,153.4438 c 0.2640005,-0.484 0.836286,-0.68188 1.3422864,-0.48388 l 5.4780316,2.20019 c 1.144001,-0.858 2.375776,-1.60625 3.717777,-2.15625 l 0.835938,-5.83008 c 0.066,-0.528 0.528126,-0.92383 1.078126,-0.92383 l 8.799813,0 c 0.55,0 1.012126,0.39583 1.078126,0.92383 l 0.835938,5.83008 c 1.342004,0.55 2.574262,1.27625 3.718263,2.15625 l 5.478032,-2.20019 c 0.483998,-0.176 1.077798,-1.2e-4 1.341799,0.48388 l 4.399906,7.61231 c 0.07441,0.13643 0.115862,0.28123 0.132325,0.42676 0.0246,-0.22571 -0.015,-0.46167 -0.132325,-0.67676 l -4.399906,-7.61231 c -0.264001,-0.484 -0.857801,-0.65988 -1.341799,-0.48388 l -5.478032,2.20019 c -1.144001,-0.88 -2.376259,-1.60625 -3.718263,-2.15625 l -0.835938,-5.83008 c -0.066,-0.528 -0.528126,-0.92383 -1.078126,-0.92383 l -8.799813,0 z M 7.6322659,166.0737 c -0.073815,0.63205 -0.1279298,1.27859 -0.1279298,1.92627 0,0.0417 0.0025,0.0833 0.00293,0.125 0.00701,-0.68422 0.068423,-1.36721 0.1513673,-2.03077 l -0.026367,-0.0205 z m 32.7446561,0 -0.02637,0.0205 c 0.08303,0.66424 0.144465,1.32957 0.151368,2.03077 5e-4,-0.042 0.0025,-0.0828 0.0025,-0.125 0,-0.66678 -0.05372,-1.29826 -0.127443,-1.92627 z m -24.069356,2.05127 c -6.75e-4,0.0418 -0.0029,0.0831 -0.0029,0.125 0,4.246 3.45371,7.7002 7.699714,7.7002 4.246004,0 7.700202,-3.4542 7.700202,-7.7002 0,-0.0419 -0.0027,-0.0832 -0.0034,-0.125 -0.0673,4.18832 -3.492718,7.5752 -7.696785,7.5752 -4.204069,0 -7.629489,-3.38688 -7.696783,-7.5752 z m -8.6753001,2.05127 -4.6157266,3.60986 c -0.3008317,0.2375 -0.4393176,0.61184 -0.3964846,0.9834 0.030232,-0.28312 0.1635624,-0.54951 0.3964846,-0.7334 l 4.6420939,-3.63037 c -0.0095,-0.076 -0.01744,-0.15305 -0.026367,-0.22949 z m 32.7446561,0 c -0.009,0.0765 -0.0168,0.15305 -0.02637,0.22949 l 4.642094,3.63037 c 0.23225,0.18336 0.365235,0.44876 0.395998,0.73096 0.04194,-0.37077 -0.09581,-0.74397 -0.395998,-0.98096 l -4.615726,-3.60986 z"
       style="opacity:1;fill:#ffffff;fill-opacity:0.2;enable-background:new" /><path
       inkscape:connector-curvature="0"
       id="path6-3"
       d="m 24.00435,160.04976 c -4.246004,0 -7.699713,3.4542 -7.699713,7.70021 0,0.0419 0.0023,0.0832 0.0029,0.125 0.06729,-4.18833 3.492714,-7.5752 7.696783,-7.5752 4.204067,0 7.629484,3.38688 7.696785,7.5752 7.5e-4,-0.0418 0.0034,-0.0831 0.0034,-0.125 0,-4.24601 -3.454198,-7.70021 -7.700202,-7.70021 z m -21.3935728,1.17872 c -0.045417,0.3722 0.1044031,0.74743 0.4057621,0.98535 l 4.6157266,3.60987 c 0.00893,-0.0764 0.016872,-0.15354 0.026367,-0.2295 L 3.016539,161.96383 c -0.2334597,-0.18431 -0.3737293,-0.4515 -0.4057621,-0.73535 z m 42.7778688,0.004 c -0.03076,0.2822 -0.163748,0.54761 -0.395998,0.73096 l -4.642094,3.63037 c 0.0096,0.0764 0.01738,0.15299 0.02637,0.2295 l 4.615726,-3.60987 c 0.300183,-0.23698 0.437938,-0.61019 0.395998,-0.98096 z m -37.8813802,6.6421 c -4.25e-4,0.0417 -0.00293,0.0833 -0.00293,0.125 0,0.64767 0.054115,1.29422 0.1279299,1.92627 l 0.026367,-0.0205 c -0.082944,-0.66356 -0.1443558,-1.34655 -0.1513671,-2.03077 z m 32.9946562,0 c -0.0069,0.70119 -0.06834,1.36653 -0.151368,2.03076 l 0.02637,0.0205 c 0.07372,-0.62801 0.127442,-1.25949 0.127442,-1.92627 0,-0.0423 -0.002,-0.083 -0.0025,-0.125 z m 4.886724,6.64209 c -0.01645,0.14553 -0.05791,0.29033 -0.132325,0.42676 l -4.399906,7.61231 c -0.264001,0.484 -0.835801,0.68189 -1.341799,0.48389 l -5.478032,-2.2002 c -1.144001,0.858 -2.376259,1.60625 -3.718263,2.15625 l -0.835938,5.83009 c -0.066,0.528 -0.528126,0.92382 -1.078126,0.92382 l -8.799813,0 c -0.55,0 -1.012126,-0.39582 -1.078126,-0.92382 l -0.835938,-5.83009 c -1.342001,-0.55 -2.573776,-1.27624 -3.717777,-2.15625 l -5.4780316,2.2002 c -0.4840009,0.176 -1.0782859,1.1e-4 -1.3422864,-0.48389 l -4.3999059,-7.61231 c -0.074001,-0.13567 -0.1156419,-0.2796 -0.1323244,-0.42432 -0.024022,0.22497 0.015433,0.46002 0.1323244,0.67432 l 4.3999059,7.61231 c 0.2640005,0.484 0.8582855,0.65989 1.3422864,0.48389 l 5.4780316,-2.2002 c 1.144001,0.88001 2.375776,1.60625 3.717777,2.15625 l 0.835938,5.83009 c 0.066,0.528 0.528126,0.92383 1.078126,0.92383 l 8.799813,0 c 0.55,0 1.012126,-0.39583 1.078126,-0.92383 l 0.835938,-5.83009 c 1.342004,-0.55 2.574262,-1.29825 3.718263,-2.15625 l 5.478032,2.2002 c 0.505998,0.198 1.077798,1.1e-4 1.341799,-0.48389 l 4.399906,-7.61231 c 0.117317,-0.21508 0.156927,-0.45105 0.132325,-0.67676 z"
       style="opacity:1;fill:#263238;fill-opacity:0.2;enable-background:new" /></g><g
     style="display:inline"
     inkscape:label="Fg"
     id="layer2"
     inkscape:groupmode="layer"
     transform="translate(0,-144)"><path
       style="opacity:1;fill:#263238;fill-opacity:0.2;enable-background:new"
       d="m 24.00005,157.99993 c -2.652091,0 -5.195467,1.05345 -7.070819,2.92871 l -5e-4,0 c -1.875287,1.87531 -2.928642,4.41923 -2.928706,7.07131 0,2.65209 1.053457,5.19547 2.928718,7.07082 l 0,5e-4 c 4.255019,4.23971 8.499393,8.48328 12.736848,12.72708 l 0.652834,-4.55226 c 1.342006,-0.55 2.574267,-1.29825 3.71827,-2.15625 l 5.478041,2.2002 c 0.505998,0.198 1.0778,1.1e-4 1.341801,-0.48389 l 4.399913,-7.61232 c 0.0035,-0.006 0.005,-0.0131 0.0083,-0.0195 -5.03701,-5.04559 -9.99706,-10.03342 -14.193393,-14.24566 -1.875367,-1.87536 -4.419136,-2.92871 -7.071307,-2.92871 z m 0.0044,2.29981 c 4.246008,0 7.700214,3.4542 7.700214,7.70021 0,4.24601 -3.454206,7.70021 -7.700214,7.70021 -4.246013,0 -7.699727,-3.4542 -7.699727,-7.70021 0,-4.24601 3.453714,-7.70021 7.699726,-7.70021 z"
       id="path6-0"
       inkscape:connector-curvature="0" /><circle
       r="40"
       cy="96"
       cx="96"
       id="path4375"
       style="opacity:1;fill:#4dd0e1;fill-opacity:1;fill-rule:evenodd;stroke:none;stroke-width:0.1;stroke-linecap:butt;stroke-linejoin:miter;stroke-miterlimit:4;stroke-dasharray:none;stroke-dashoffset:0;stroke-opacity:1;filter:url(#filter4628);enable-background:new"
       transform="matrix(0.25000062,0,0,0.25000062,-9.92e-6,143.99989)" /><circle
       r="30.799999"
       cy="95.993004"
       cx="96.019997"
       id="path4373"
       style="opacity:1;fill:#03a9f4;fill-opacity:1;fill-rule:evenodd;stroke:none;stroke-width:0.1;stroke-linecap:butt;stroke-linejoin:miter;stroke-miterlimit:4;stroke-dasharray:none;stroke-dashoffset:0;stroke-opacity:1;filter:url(#filter4640);enable-background:new"
       transform="matrix(0.25000062,0,0,0.25000062,-9.92e-6,143.99989)" /><path
       inkscape:connector-curvature="0"
       id="path4375-1"
       d="m 24.00005,157.99993 a 10.000025,10.000025 0 0 0 -10.000025,10.00002 10.000025,10.000025 0 0 0 0.0054,0.14649 10.000025,10.000025 0 0 1 9.994654,-9.89651 10.000025,10.000025 0 0 1 9.994655,9.85354 10.000025,10.000025 0 0 0 0.0054,-0.10352 10.000025,10.000025 0 0 0 -10.000025,-10.00002 z"
       style="opacity:1;fill:#ffffff;fill-opacity:0.2;fill-rule:evenodd;stroke:none;stroke-width:0.1;stroke-linecap:butt;stroke-linejoin:miter;stroke-miterlimit:4;stroke-dasharray:none;stroke-dashoffset:0;stroke-opacity:1;enable-background:new" /><path
       inkscape:connector-curvature="0"
       id="path4373-7"
       d="m 24.004932,160.29827 a 7.7000189,7.7000189 0 0 0 -7.699726,7.69973 7.7000189,7.7000189 0 0 0 0.0049,0.14648 7.7000189,7.7000189 0 0 1 7.694843,-7.59621 7.7000189,7.7000189 0 0 1 7.694844,7.55373 7.7000189,7.7000189 0 0 0 0.0054,-0.104 7.7000189,7.7000189 0 0 0 -7.700214,-7.69973 z"
       style="opacity:1;fill:#ffffff;fill-opacity:0.2;fill-rule:evenodd;stroke:none;stroke-width:0.1;stroke-linecap:butt;stroke-linejoin:miter;stroke-miterlimit:4;stroke-dasharray:none;stroke-dashoffset:0;stroke-opacity:1;enable-background:new" /><path
       inkscape:connector-curvature="0"
       id="path4375-4"
       d="m 33.994705,167.85347 a 10.000025,10.000025 0 0 1 -9.994655,9.8965 10.000025,10.000025 0 0 1 -9.994654,-9.85354 10.000025,10.000025 0 0 0 -0.0054,0.10352 10.000025,10.000025 0 0 0 10.000025,10.00003 10.000025,10.000025 0 0 0 10.000025,-10.00003 10.000025,10.000025 0 0 0 -0.0054,-0.14648 z"
       style="opacity:1;fill:#263238;fill-opacity:0.2;fill-rule:evenodd;stroke:none;stroke-width:0.1;stroke-linecap:butt;stroke-linejoin:miter;stroke-miterlimit:4;stroke-dasharray:none;stroke-dashoffset:0;stroke-opacity:1;enable-background:new" /><path
       inkscape:connector-curvature="0"
       id="path4373-9"
       d="m 31.699776,167.852 a 7.7000189,7.7000189 0 0 1 -7.694844,7.59621 7.7000189,7.7000189 0 0 1 -7.694843,-7.55373 7.7000189,7.7000189 0 0 0 -0.0049,0.10352 7.7000189,7.7000189 0 0 0 7.699726,7.70021 7.7000189,7.7000189 0 0 0 7.700213,-7.70021 7.7000189,7.7000189 0 0 0 -0.0054,-0.146 z"
       style="opacity:1;fill:#263238;fill-opacity:0.2;fill-rule:evenodd;stroke:none;stroke-width:0.1;stroke-linecap:butt;stroke-linejoin:miter;stroke-miterlimit:4;stroke-dasharray:none;stroke-dashoffset:0;stroke-opacity:1;enable-background:new" /></g><g
     style="display:inline"
     inkscape:label="Finish"
     id="layer4"
     inkscape:groupmode="layer"
     transform="translate(0,-144)"
     sodipodi:insensitive="true"><path
       sodipodi:nodetypes="csccccccccssccccccccsccccccccsscccccccc"
       style="opacity:1;fill:url(#radialGradient4468);fill-opacity:1;filter:url(#filter4616-5);enable-background:new"
       id="path6-80"
       d="m 161.4021,104.62399 c 0.35201,-2.81599 0.616,-5.63199 0.616,-8.62399 0,-2.992 -0.26399,-5.808004 -0.616,-8.624005 l 18.56799,-14.519999 c 1.67202,-1.32 2.11202,-3.696 1.05602,-5.632001 L 163.4261,36.775997 c -1.056,-1.936001 -3.432,-2.64 -5.36799,-1.936001 l -21.912,8.8 c -4.576,-3.519999 -9.504,-6.423999 -14.87201,-8.624 L 117.9301,11.696 c -0.264,-2.1119996 -2.11199,-3.6959996 -4.31199,-3.6959996 l -35.200011,0 c -2.2,0 -4.048,1.584 -4.312,3.6959996 l -3.344,23.319996 c -5.367999,2.200001 -10.296,5.192 -14.871999,8.624 l -21.911976,-8.8 c -2.024,-0.792 -4.312005,0 -5.368006,1.936001 l -17.6,30.447998 c -1.1439999,1.936001 -0.616,4.312001 1.056001,5.632001 L 30.634124,87.375995 C 30.282123,90.191996 30.018122,93.096 30.018122,96 c 0,2.904 0.264001,5.808 0.616002,8.62399 L 12.066119,119.144 c -1.672001,1.32001 -2.1120009,3.69599 -1.056001,5.632 l 17.6,30.44799 c 1.056001,1.936 3.432004,2.64001 5.368006,1.936 l 21.911976,-8.8 c 4.575999,3.52002 9.504,6.42401 14.871999,8.62401 l 3.344,23.31999 c 0.264,2.11201 2.112,3.69601 4.312,3.69601 l 35.200011,0 c 2.2,0 4.04799,-1.584 4.31199,-3.69601 l 3.344,-23.31999 c 5.36801,-2.2 10.29601,-5.19201 14.87201,-8.62401 l 21.912,8.8 c 2.02399,0.79201 4.31199,0 5.36799,-1.936 L 181.02611,124.776 c 1.056,-1.93601 0.616,-4.31199 -1.05602,-5.632 z"
       inkscape:connector-curvature="0"
       transform="matrix(0.25000021,0,0,0.25000021,-6.4653758e-5,143.99995)" /></g></svg>