<?xml version="1.0" encoding="UTF-8" standalone="no"?>
<!-- Created with Inkscape (http://www.inkscape.org/) -->

<svg
   xmlns:dc="http://purl.org/dc/elements/1.1/"
   xmlns:cc="http://creativecommons.org/ns#"
   xmlns:rdf="http://www.w3.org/1999/02/22-rdf-syntax-ns#"
   xmlns:svg="http://www.w3.org/2000/svg"
   xmlns="http://www.w3.org/2000/svg"
   xmlns:xlink="http://www.w3.org/1999/xlink"
   xmlns:sodipodi="http://sodipodi.sourceforge.net/DTD/sodipodi-0.dtd"
   xmlns:inkscape="http://www.inkscape.org/namespaces/inkscape"
   inkscape:export-ydpi="90"
   inkscape:export-xdpi="90"
   inkscape:export-filename="C:\createme\Material Design Icons\PNG\adaway.png"
   sodipodi:docname="adaway.svg"
   inkscape:version="0.91 r13725"
   version="1.1"
   id="svg2"
   viewBox="0 0 192 192"
   height="192"
   width="192">
  <sodipodi:namedview
     inkscape:window-maximized="1"
     inkscape:window-y="-8"
     inkscape:window-x="-8"
     inkscape:window-height="1017"
     inkscape:window-width="1920"
     showguides="true"
     units="px"
     showgrid="false"
     inkscape:current-layer="layer1"
     inkscape:document-units="px"
     inkscape:cy="24.570817"
     inkscape:cx="144.12014"
     inkscape:zoom="1.4142136"
     inkscape:pageshadow="2"
     inkscape:pageopacity="0.0"
     borderopacity="1.0"
     bordercolor="#666666"
     pagecolor="#ffffff"
     id="base">
    <sodipodi:guide
       position="0,184"
       orientation="0,1"
       id="guide3354"
       inkscape:label=""
       inkscape:color="rgb(0,0,255)" />
    <sodipodi:guide
       position="8,0"
       orientation="1,0"
       id="guide3356"
       inkscape:label=""
       inkscape:color="rgb(0,0,255)" />
    <sodipodi:guide
       position="0,8"
       orientation="0,1"
       id="guide3358"
       inkscape:label=""
       inkscape:color="rgb(0,0,255)" />
    <sodipodi:guide
       position="184,0"
       orientation="1,0"
       id="guide3360"
       inkscape:label=""
       inkscape:color="rgb(0,0,255)" />
    <sodipodi:guide
       position="0,20"
       orientation="0,1"
       id="guide3362"
       inkscape:label=""
       inkscape:color="rgb(0,0,255)" />
    <sodipodi:guide
       position="172,0"
       orientation="1,0"
       id="guide3364"
       inkscape:label=""
       inkscape:color="rgb(0,0,255)" />
    <sodipodi:guide
       position="96,172"
       orientation="0,1"
       id="guide3366"
       inkscape:label=""
       inkscape:color="rgb(0,0,255)" />
    <sodipodi:guide
       position="20,0"
       orientation="1,0"
       id="guide3368"
       inkscape:label=""
       inkscape:color="rgb(0,0,255)" />
    <sodipodi:guide
       position="0,32"
       orientation="0,1"
       id="guide3370"
       inkscape:label=""
       inkscape:color="rgb(0,0,255)" />
    <sodipodi:guide
       position="160,0"
       orientation="1,0"
       id="guide3372"
       inkscape:label=""
       inkscape:color="rgb(0,0,255)" />
    <sodipodi:guide
       position="0,160"
       orientation="0,1"
       id="guide3374"
       inkscape:label=""
       inkscape:color="rgb(0,0,255)" />
    <sodipodi:guide
       position="32,0"
       orientation="1,0"
       id="guide3376"
       inkscape:label=""
       inkscape:color="rgb(0,0,255)" />
    <inkscape:grid
       type="xygrid"
       id="grid3378" />
    <sodipodi:guide
       position="0,0"
       orientation="-0.70710678,0.70710678"
       id="guide5849"
       inkscape:label=""
       inkscape:color="rgb(255,0,0)" />
    <sodipodi:guide
       position="124,0"
       orientation="1,0"
       id="guide5851"
       inkscape:label=""
       inkscape:color="rgb(255,0,0)" />
    <sodipodi:guide
       position="0,192"
       orientation="0.70710678,0.70710678"
       id="guide5853"
       inkscape:label=""
       inkscape:color="rgb(255,0,0)" />
    <sodipodi:guide
       position="96,0"
       orientation="1,0"
       id="guide5855"
       inkscape:label=""
       inkscape:color="rgb(255,0,0)" />
    <sodipodi:guide
       position="0,96"
       orientation="0,1"
       id="guide5859"
       inkscape:label=""
       inkscape:color="rgb(255,0,0)" />
    <sodipodi:guide
       position="0,124"
       orientation="0,1"
       id="guide5861"
       inkscape:label=""
       inkscape:color="rgb(255,0,0)" />
    <sodipodi:guide
       position="0,68"
       orientation="0,1"
       id="guide5863"
       inkscape:label=""
       inkscape:color="rgb(255,0,0)" />
    <sodipodi:guide
       position="68,0"
       orientation="1,0"
       id="guide5865"
       inkscape:label=""
       inkscape:color="rgb(255,0,0)" />
    <sodipodi:guide
       position="192,0"
       orientation="-192,0"
       id="guide5869" />
    <sodipodi:guide
       position="192,192"
       orientation="0,-192"
       id="guide5871" />
  </sodipodi:namedview>
  <defs
     id="defs4">
    <linearGradient
       id="linearGradient6096"
       inkscape:collect="always">
      <stop
         id="stop6098"
         offset="0"
         style="stop-color:#ffffff;stop-opacity:1;" />
      <stop
         id="stop6100"
         offset="1"
         style="stop-color:#ffffff;stop-opacity:0;" />
    </linearGradient>
    <clipPath
       clipPathUnits="userSpaceOnUse"
       id="clipPath10430">
      <path
         inkscape:connector-curvature="0"
         d="m 1241.028,39.3409 224.537,0 0,178.031 -224.537,0 0,-178.031 z"
         id="path10432" />
    </clipPath>
    <clipPath
       clipPathUnits="userSpaceOnUse"
       id="clipPath10438">
      <path
         inkscape:connector-curvature="0"
         d="m 1260.156,213.3477 0,-170.2268 191.3337,0 0,170.2268"
         id="path10440" />
    </clipPath>
    <filter
       style="color-interpolation-filters:sRGB;"
       inkscape:label="Drop Shadow"
       id="filter5248">
      <feFlood
         flood-opacity="0.2"
         flood-color="rgb(0,0,0)"
         result="flood"
         id="feFlood5250" />
      <feComposite
         in="flood"
         in2="SourceGraphic"
         operator="in"
         result="composite1"
         id="feComposite5252" />
      <feGaussianBlur
         in="composite1"
         stdDeviation="4"
         result="blur"
         id="feGaussianBlur5254" />
      <feOffset
         dx="4.57967e-015"
         dy="4"
         result="offset"
         id="feOffset5256" />
      <feComposite
         in="SourceGraphic"
         in2="offset"
         operator="over"
         result="composite2"
         id="feComposite5258" />
    </filter>
    <linearGradient
       id="linearGradient3906">
      <stop
         id="stop3908"
         offset="0"
         style="stop-color:#ffffff;stop-opacity:0;" />
      <stop
         id="stop3910"
         offset="0.3588765"
         style="stop-color:#ffffff;stop-opacity:1;" />
      <stop
         id="stop3912"
         offset="0.88415229"
         style="stop-color:#ffffff;stop-opacity:0.43333334;" />
      <stop
         id="stop3914"
         offset="1"
         style="stop-color:#ffffff;stop-opacity:0;" />
    </linearGradient>
    <marker
       style="overflow:visible"
       id="Tail"
       refX="0.0"
       refY="0.0"
       orient="auto"
       inkscape:stockid="Tail">
      <g
         transform="scale(-1.2)"
         id="g4692">
        <path
           style="fill:none;fill-rule:evenodd;stroke:#000000;stroke-width:0.8;marker-start:none;marker-end:none;stroke-linecap:round"
           d="M -3.8048674,-3.9585227 L 0.54352094,0"
           id="path4694" />
        <path
           style="fill:none;fill-rule:evenodd;stroke:#000000;stroke-width:0.8;marker-start:none;marker-end:none;stroke-linecap:round"
           d="M -1.2866832,-3.9585227 L 3.0617053,0"
           id="path4696" />
        <path
           style="fill:none;fill-rule:evenodd;stroke:#000000;stroke-width:0.8;marker-start:none;marker-end:none;stroke-linecap:round"
           d="M 1.3053582,-3.9585227 L 5.6537466,0"
           id="path4698" />
        <path
           style="fill:none;fill-rule:evenodd;stroke:#000000;stroke-width:0.8;marker-start:none;marker-end:none;stroke-linecap:round"
           d="M -3.8048674,4.1775838 L 0.54352094,0.21974226"
           id="path4700" />
        <path
           style="fill:none;fill-rule:evenodd;stroke:#000000;stroke-width:0.8;marker-start:none;marker-end:none;stroke-linecap:round"
           d="M -1.2866832,4.1775838 L 3.0617053,0.21974226"
           id="path4702" />
        <path
           style="fill:none;fill-rule:evenodd;stroke:#000000;stroke-width:0.8;marker-start:none;marker-end:none;stroke-linecap:round"
           d="M 1.3053582,4.1775838 L 5.6537466,0.21974226"
           id="path4704" />
      </g>
    </marker>
    <linearGradient
       id="linearGradient4263">
      <stop
         id="stop4265"
         offset="0"
         style="stop-color:#bfbfbf;stop-opacity:1;" />
      <stop
         id="stop4267"
         offset="1"
         style="stop-color:#ffffff;stop-opacity:1;" />
    </linearGradient>
    <linearGradient
       id="linearGradient4158">
      <stop
         id="stop4160"
         offset="0"
         style="stop-color:#ffffff;stop-opacity:1;" />
      <stop
         id="stop4162"
         offset="1"
         style="stop-color:#ffffff;stop-opacity:0;" />
    </linearGradient>
    <linearGradient
       id="linearGradient3177">
      <stop
         style="stop-color:#ffffff;stop-opacity:0;"
         offset="0"
         id="stop3187" />
      <stop
         style="stop-color:#ffffff;stop-opacity:1;"
         offset="0.4375"
         id="stop3200" />
      <stop
         style="stop-color:#ffffff;stop-opacity:0.43333334;"
         offset="0.9375"
         id="stop3191" />
      <stop
         style="stop-color:#ffffff;stop-opacity:0;"
         offset="1"
         id="stop3181" />
    </linearGradient>
    <inkscape:perspective
       sodipodi:type="inkscape:persp3d"
       inkscape:vp_z="744.09448 : 526.18109 : 1"
       inkscape:vp_y="0 : 1000 : 0"
       inkscape:vp_x="0 : 526.18109 : 1"
       inkscape:persp3d-origin="372.04724 : 350.78739 : 1"
       id="perspective10" />
    <linearGradient
       y2="645.40979"
       x2="416.38455"
       y1="402.10623"
       x1="337.49271"
       gradientTransform="matrix(0.08737273,0,0,0.08134103,83.682183,966.62592)"
       gradientUnits="userSpaceOnUse"
       id="linearGradient3341"
       xlink:href="#linearGradient4158"
       inkscape:collect="always" />
    <linearGradient
       gradientTransform="matrix(0.08334585,0,0,0.08334585,2.6106401,974.71004)"
       y2="646.65405"
       x2="425.96066"
       y1="164.76173"
       x1="356.35681"
       gradientUnits="userSpaceOnUse"
       id="linearGradient3345"
       xlink:href="#linearGradient3177"
       inkscape:collect="always" />
    <radialGradient
       gradientUnits="userSpaceOnUse"
       gradientTransform="matrix(1,0,0,0.90369811,0,3.9133352)"
       r="17.497915"
       fy="40.636124"
       fx="33.772423"
       cy="40.636124"
       cx="33.772423"
       id="radialGradient4275"
       xlink:href="#linearGradient4263"
       inkscape:collect="always" />
    <filter
       id="filter6059"
       inkscape:label="Drop Shadow"
       style="color-interpolation-filters:sRGB;">
      <feFlood
         id="feFlood6061"
         result="flood"
         flood-color="rgb(62,39,35)"
         flood-opacity="0.2" />
      <feComposite
         id="feComposite6063"
         result="composite1"
         operator="in"
         in2="SourceGraphic"
         in="flood" />
      <feGaussianBlur
         id="feGaussianBlur6065"
         result="blur"
         stdDeviation="4"
         in="composite1" />
      <feOffset
         id="feOffset6067"
         result="offset"
         dy="4"
         dx="0" />
      <feComposite
         id="feComposite6069"
         result="composite2"
         operator="over"
         in2="offset"
         in="SourceGraphic" />
    </filter>
    <radialGradient
       gradientTransform="matrix(2.6575977e-8,2,-2,2.1052632e-8,59.999999,-19.999999)"
       gradientUnits="userSpaceOnUse"
       r="76"
       fy="20"
       fx="20"
       cy="20"
       cx="20"
       id="radialGradient6102"
       xlink:href="#linearGradient6096"
       inkscape:collect="always" />
  </defs>
  <metadata
     id="metadata7">
    <rdf:RDF>
      <cc:Work
         rdf:about="">
        <dc:format>image/svg+xml</dc:format>
        <dc:type
           rdf:resource="http://purl.org/dc/dcmitype/StillImage" />
        <dc:title></dc:title>
      </cc:Work>
    </rdf:RDF>
  </metadata>
  <g
     inkscape:groupmode="layer"
     id="layer2"
     inkscape:label="background">
    <path
       inkscape:connector-curvature="0"
       id="path6082"
       d="m 20,63 0,66 43,43 66,0 43,-43 0,-66 -43,-43 -66,0 z"
       style="fill:#f5f5f5;fill-opacity:1;fill-rule:evenodd;stroke:none;stroke-width:1px;stroke-linecap:butt;stroke-linejoin:miter;stroke-opacity:1;filter:url(#filter5248)" />
    <path
       sodipodi:nodetypes="ccccccccc"
       style="fill:#f44336;fill-opacity:1;fill-rule:evenodd;stroke:none;stroke-width:1px;stroke-linecap:butt;stroke-linejoin:miter;stroke-opacity:1"
       d="m 68,32 -36,36 0,56 36,36 56,0 36,-36 0,-56 -36,-36 z"
       id="path4333"
       inkscape:connector-curvature="0" />
  </g>
  <g
     inkscape:label="objects"
     inkscape:groupmode="layer"
     id="layer1"
     transform="translate(0,-860.36216)">
    <path
       transform="matrix(0.77794731,0,0,0.77794731,21.466012,214.52006)"
       style="fill:#f5f5f5;fill-opacity:1;fill-rule:nonzero;stroke:none;stroke-width:2.94899988;stroke-linecap:butt;stroke-linejoin:miter;stroke-miterlimit:4;stroke-dasharray:none;stroke-opacity:1;filter:url(#filter6059)"
       d="m 43.350117,918.52033 c -4.949516,-5.98961 16.496919,5.59955 43.064747,5.69621 11.087456,0.68107 15.280136,3.88229 18.394186,7.13356 6.98649,6.56291 8.50484,9.89018 17.34318,5.64457 3.60039,-1.72917 8.0323,-11.95962 13.03026,-13.05512 3.89642,-0.56695 9.61279,4.33776 11.04496,5.74679 1.56343,1.53851 2.98541,2.96686 4.47872,3.64926 -5.12717,0.2709 -12.23222,12.20193 -12.41277,22.33626 1.02241,28.315 -11.76212,26.75345 -24.33678,40.60749 -4.00931,3.81025 -6.25702,11.79225 -6.26072,19.07275 l -5.28138,-0.1615 c -3.130694,0.072 -6.704146,-3.9909 -8.435165,-6.712 -3.305225,-5.4915 -6.722731,5.0308 -11.864552,-3.5913 0.237961,-2.8511 -13.726441,-3.4085 -5.70348,-10.06809 18.949278,-13.37368 28.201937,-16.19067 27.805547,-20.22258 -0.4683,-4.7633 -11.579006,-0.4499 -21.613514,-0.91225 -16.576479,-0.76343 -14.752398,-11.23671 -16.221838,-16.11017 -13.916237,-7.72673 10.697588,-11.3617 -0.111385,-13.64113 -5.281549,-0.83731 -14.600416,1.12118 -16.564247,-7.9865 1.766063,2.17536 24.874644,-2.27282 15.561221,-3.72315 -12.922923,-5.84688 -16.558699,-2.71716 -21.91699,-13.7039 z"
       id="path4253"
       inkscape:connector-curvature="0"
       sodipodi:nodetypes="cccscsccccccccssccccc" />
    <g
       id="g4382" />
    <g
       id="g6117">
      <path
         style="fill:#3e2723;fill-opacity:1;fill-rule:nonzero;stroke:none;stroke-width:2.94899988;stroke-linecap:butt;stroke-linejoin:miter;stroke-miterlimit:4;stroke-dasharray:none;stroke-opacity:1;opacity:0.2"
         d="M 54.962891 68.417969 C 54.485209 68.522349 54.524127 68.913235 55.189453 69.71875 C 59.357476 78.263868 62.187534 75.830642 72.240234 80.378906 C 72.748591 80.45807 73.122016 80.548897 73.396484 80.648438 C 74.280207 80.153742 74.186957 79.682059 72.240234 79.378906 C 62.187534 74.830637 59.357476 77.263873 55.189453 68.71875 C 55.09916 68.609432 55.030768 68.512511 54.962891 68.417969 z M 137.58398 80.541016 C 133.75552 82.152732 129.17848 90.453509 129.05078 97.621094 C 129.05989 97.873425 129.0601 98.107231 129.06641 98.353516 C 129.32382 90.528224 134.76306 81.452529 138.70703 81.244141 C 138.32859 81.071203 137.95637 80.820022 137.58398 80.541016 z M 60.134766 83.275391 C 61.662523 90.360691 68.912717 88.836901 73.021484 89.488281 C 74.022258 89.699328 74.62236 89.925413 74.939453 90.169922 C 75.517979 89.509546 75.256699 88.95965 73.021484 88.488281 C 69.166662 87.877157 62.547561 89.179835 60.482422 83.492188 C 60.329504 83.431374 60.205461 83.36247 60.134766 83.275391 z M 69.769531 95.898438 C 69.461908 97.096748 70.193082 98.481476 73.107422 100.09961 C 74.250569 103.89091 72.830934 112.03891 85.726562 112.63281 C 93.283998 112.98103 101.62565 109.8476 102.48047 113.00977 C 102.53631 112.78998 102.56325 112.56797 102.54102 112.3418 C 102.1767 108.6362 93.532881 111.9925 85.726562 111.63281 C 72.830935 111.0389 74.250569 102.8909 73.107422 99.099609 C 70.970759 97.913267 70.013361 96.853163 69.769531 95.898438 z M 129.08789 100.31445 C 128.98657 119.55127 119.48203 118.89545 110.11914 129.21094 C 107.00011 132.17511 105.25093 138.38498 105.24805 144.04883 L 101.13867 143.92188 C 98.703157 143.97789 95.922813 140.81804 94.576172 138.70117 C 92.004881 134.42907 89.347722 142.61574 85.347656 135.9082 C 85.481985 134.29877 79.802718 133.62624 79.058594 131.40039 C 78.155761 134.46035 85.500218 135.0803 85.347656 136.9082 C 89.347722 143.61577 92.004882 135.42905 94.576172 139.70117 C 95.922814 141.81797 98.703159 144.97788 101.13867 144.92188 L 105.24805 145.04883 C 105.25093 139.38498 107.00011 133.17511 110.11914 130.21094 C 119.64247 119.71867 129.31577 120.58416 129.08789 100.31445 z "
         transform="translate(0,860.36216)"
         id="path6109" />
      <path
         style="fill:#ffffff;fill-opacity:1;fill-rule:nonzero;stroke:none;stroke-width:2.94899988;stroke-linecap:butt;stroke-linejoin:miter;stroke-miterlimit:4;stroke-dasharray:none;stroke-opacity:1;opacity:0.2"
         d="M 55.080078 67.390625 C 54.544331 67.444137 54.48888 67.757755 54.962891 68.417969 C 57.246562 67.918952 71.600087 74.088205 88.691406 74.150391 C 97.316863 74.680231 100.57938 77.169909 103.00195 79.699219 C 108.43707 84.804819 109.61838 87.392704 116.49414 84.089844 C 119.29505 82.744644 122.74271 74.785834 126.63086 73.933594 C 129.66207 73.492534 134.10851 77.308147 135.22266 78.404297 C 136.04271 79.211277 136.81325 79.963553 137.58398 80.541016 C 137.96663 80.379927 138.34459 80.26329 138.70703 80.244141 C 137.54531 79.713269 136.43892 78.601177 135.22266 77.404297 C 134.1085 76.308146 129.66207 72.492537 126.63086 72.933594 C 122.74271 73.785835 119.29505 81.744641 116.49414 83.089844 C 109.61838 86.392705 108.43707 83.804817 103.00195 78.699219 C 100.57939 76.169902 97.316863 73.680227 88.691406 73.150391 C 71.898355 73.089294 57.735476 67.125398 55.080078 67.390625 z M 73.396484 80.648438 C 70.991151 81.994911 61.139521 83.513005 60.134766 82.275391 C 60.229189 82.713301 60.346376 83.117502 60.482422 83.492188 C 63.092829 84.530309 76.832592 81.894594 73.396484 80.648438 z M 74.939453 90.169922 C 73.77112 91.503551 69.106321 93.301612 69.769531 95.898438 C 70.468652 93.175089 76.569451 91.426807 74.939453 90.169922 z M 129.06641 98.353516 C 129.06349 98.442209 129.05236 98.532737 129.05078 98.621094 C 129.07185 99.204491 129.08169 99.763008 129.08789 100.31445 C 129.09122 99.682714 129.08372 99.029288 129.06641 98.353516 z M 102.48047 113.00977 C 101.76192 115.83791 94.588701 118.42042 80.910156 128.07422 C 79.197654 129.49571 78.777222 130.55874 79.058594 131.40039 C 79.251271 130.74735 79.812419 129.98541 80.910156 129.07422 C 95.651696 118.6702 102.84939 116.47841 102.54102 113.3418 C 102.5294 113.22365 102.50862 113.1139 102.48047 113.00977 z "
         transform="translate(0,860.36216)"
         id="path6112" />
    </g>
    <path
       transform="matrix(0.77794731,0,0,0.77794731,21.466012,214.52006)"
       sodipodi:nodetypes="cccscsccccccccssccccc"
       inkscape:connector-curvature="0"
       id="path6121"
       d="m 43.350117,918.52033 c -4.949516,-5.98961 16.496919,5.59955 43.064747,5.69621 11.087456,0.68107 15.280136,3.88229 18.394186,7.13356 6.98649,6.56291 8.50484,9.89018 17.34318,5.64457 3.60039,-1.72917 8.0323,-11.95962 13.03026,-13.05512 3.89642,-0.56695 9.61279,4.33776 11.04496,5.74679 1.56343,1.53851 2.98541,2.96686 4.47872,3.64926 -5.12717,0.2709 -12.23222,12.20193 -12.41277,22.33626 1.02241,28.315 -11.76212,26.75345 -24.33678,40.60749 -4.00931,3.81025 -6.25702,11.79225 -6.26072,19.07275 l -5.28138,-0.1615 c -3.130694,0.072 -6.704146,-3.9909 -8.435165,-6.712 -3.305225,-5.4915 -6.722731,5.0308 -11.864552,-3.5913 0.237961,-2.8511 -13.726441,-3.4085 -5.70348,-10.06809 18.949278,-13.37368 28.201937,-16.19067 27.805547,-20.22258 -0.4683,-4.7633 -11.579006,-0.4499 -21.613514,-0.91225 -16.576479,-0.76343 -14.752398,-11.23671 -16.221838,-16.11017 -13.916237,-7.72673 10.697588,-11.3617 -0.111385,-13.64113 -5.281549,-0.83731 -14.600416,1.12118 -16.564247,-7.9865 1.766063,2.17536 24.874644,-2.27282 15.561221,-3.72315 -12.922923,-5.84688 -16.558699,-2.71716 -21.91699,-13.7039 z"
       style="fill:#f5f5f5;fill-opacity:1;fill-rule:nonzero;stroke:none;stroke-width:2.94899988;stroke-linecap:butt;stroke-linejoin:miter;stroke-miterlimit:4;stroke-dasharray:none;stroke-opacity:1;filter:url(#filter6059)" />
  </g>
  <g
     sodipodi:insensitive="true"
     inkscape:groupmode="layer"
     id="layer3"
     inkscape:label="finish">
    <path
       inkscape:connector-curvature="0"
       id="path6084"
       d="m 63,20 -43,43 0,1 43,-43 66,0 43,43 0,-1 -43,-43 -66,0 z"
       style="opacity:0.2;fill:#ffffff;fill-opacity:1;fill-rule:evenodd;stroke:none;stroke-width:1px;stroke-linecap:butt;stroke-linejoin:miter;stroke-opacity:1" />
    <path
       inkscape:connector-curvature="0"
       id="path6091"
       d="m 20,128 0,1 43,43 66,0 43,-43 0,-1 -43,43 -66,0 -43,-43 z"
       style="opacity:0.2;fill:#000000;fill-opacity:1;fill-rule:evenodd;stroke:none;stroke-width:1px;stroke-linecap:butt;stroke-linejoin:miter;stroke-opacity:1" />
    <path
       style="opacity:0.1;fill:url(#radialGradient6102);fill-opacity:1;fill-rule:evenodd;stroke:none;stroke-width:1px;stroke-linecap:butt;stroke-linejoin:miter;stroke-opacity:1"
       d="m 20,63 0,66 43,43 66,0 43,-43 0,-66 -43,-43 -66,0 z"
       id="path6094"
       inkscape:connector-curvature="0" />
  </g>
</svg>
