<?xml version="1.0" encoding="utf-8"?>
<!-- Generator: Adobe Illustrator 19.0.1, SVG Export Plug-In . SVG Version: 6.00 Build 0)  -->
<!DOCTYPE svg PUBLIC "-//W3C//DTD SVG 1.1//EN" "http://www.w3.org/Graphics/SVG/1.1/DTD/svg11.dtd">
<svg version="1.1"
	 id="svg2" xmlns:svg="http://www.w3.org/2000/svg" xmlns:dc="http://purl.org/dc/elements/1.1/" xmlns:rdf="http://www.w3.org/1999/02/22-rdf-syntax-ns#" xmlns:cc="http://creativecommons.org/ns#" xmlns:sodipodi="http://sodipodi.sourceforge.net/DTD/sodipodi-0.dtd" xmlns:inkscape="http://www.inkscape.org/namespaces/inkscape" inkscape:export-ydpi="90" inkscape:export-xdpi="90" inkscape:export-filename="C:\Users\Simon\Documents\Material Design Icon Pack\PNG\adaway.png" sodipodi:docname="adaway.svg" inkscape:version="0.91 r13725"
	 xmlns="http://www.w3.org/2000/svg" xmlns:xlink="http://www.w3.org/1999/xlink" x="0px" y="0px" viewBox="-443 865 192 192"
	 style="enable-background:new -443 865 192 192;" xml:space="preserve">
<style type="text/css">
	.st0{filter:url(#filter4194);}
	.st1{fill:#F44336;stroke:#CCCCCC;stroke-width:13.0681;}
	.st2{fill:#F44336;stroke:#FFFFFF;stroke-width:13.0309;}
	.st3{opacity:0.2;fill:url(#path7107_1_);enable-background:new    ;}
	.st4{fill:#FFFFFF;}
	.st5{opacity:0.2;enable-background:new    ;}
	.st6{opacity:0.1;}
	.st7{fill:url(#path5740_1_);stroke:#CCCCCC;stroke-width:13.0681;}
	.st8{fill:url(#path5742_1_);stroke:#FFFFFF;stroke-width:13.0309;}
	.st9{fill:url(#path5744_1_);stroke:#FFFFFF;stroke-width:13.0309;}
</style>
<filter  inkscape:label="Drop Shadow" style="color-interpolation-filters:sRGB;" id="filter4194">
	<feFlood  result="flood" flood-color="rgb(0,0,0)" flood-opacity="0.29999999999999999" id="feFlood4196"></feFlood>
	<feComposite  operator="in" in2="SourceGraphic" in="flood" result="composite1" id="feComposite4198"></feComposite>
	<feGaussianBlur  in="composite1" stdDeviation="3" result="blur" id="feGaussianBlur4200"></feGaussianBlur>
	<feOffset  dy="3" dx="4.57967e-015" result="offset" id="feOffset4202"></feOffset>
	<feComposite  operator="over" in2="offset" in="SourceGraphic" result="composite2" id="feComposite4204"></feComposite>
</filter>
<sodipodi:namedview  showgrid="true" showguides="true" inkscape:cy="106.79715" inkscape:cx="170.19965" borderopacity="1.0" bordercolor="#666666" pagecolor="#ffffff" id="base" inkscape:zoom="3.75" inkscape:snap-global="false" inkscape:window-maximized="1" inkscape:window-y="-8" inkscape:window-x="-8" inkscape:window-height="1017" inkscape:window-width="1920" inkscape:guide-bbox="true" inkscape:pageshadow="2" inkscape:current-layer="layer3" inkscape:pageopacity="0.0" inkscape:document-units="px">
	<inkscape:grid  type="xygrid" empspacing="5" enabled="true" visible="true" id="grid2985" snapvisiblegridlinesonly="true">
		</inkscape:grid>
	<sodipodi:guide  id="guide3002" orientation="1,0" position="8,58.524064"></sodipodi:guide>
	<sodipodi:guide  id="guide3004" orientation="1,0" position="20,69.304813"></sodipodi:guide>
	<sodipodi:guide  id="guide3006" orientation="1,0" position="32,62.631016"></sodipodi:guide>
	<sodipodi:guide  id="guide3008" orientation="1,0" position="68,53.390374"></sodipodi:guide>
	<sodipodi:guide  id="guide3010" orientation="0,1" position="119.61497,8"></sodipodi:guide>
	<sodipodi:guide  id="guide3012" orientation="0,1" position="155.5508,20"></sodipodi:guide>
	<sodipodi:guide  id="guide3014" orientation="0,1" position="132.96257,32"></sodipodi:guide>
	<sodipodi:guide  id="guide3016" orientation="0,1" position="130.90909,68"></sodipodi:guide>
	<sodipodi:guide  id="guide3018" orientation="0,1" position="137.06952,184"></sodipodi:guide>
	<sodipodi:guide  id="guide3020" orientation="1,0" position="184,145.79679"></sodipodi:guide>
	<sodipodi:guide  id="guide3022" orientation="0,1" position="91.379679,172"></sodipodi:guide>
	<sodipodi:guide  id="guide3024" orientation="1,0" position="172,101.64706"></sodipodi:guide>
	<sodipodi:guide  id="guide3026" orientation="0,1" position="149.39037,160"></sodipodi:guide>
	<sodipodi:guide  id="guide3028" orientation="1,0" position="160,88.299465"></sodipodi:guide>
	<sodipodi:guide  id="guide3030" orientation="0,1" position="128.34225,124"></sodipodi:guide>
	<sodipodi:guide  id="guide3032" orientation="1,0" position="124,92.919786"></sodipodi:guide>
</sodipodi:namedview>
<g id="layer3" inkscape:label="circle" inkscape:groupmode="layer">
	<g id="g4190" class="st0">
		<path id="path4188_1_" inkscape:connector-curvature="0" class="st1" d="M-428.5,994.9v-67.7l48-47.7l67.2,0.1l47.7,47.4l0.3,67.6
			l-48.2,48l-67.2-0.1L-428.5,994.9z"/>
		<path id="path4181_1_" inkscape:connector-curvature="0" class="st2" d="M-428.6,994.2v-67.3l48-47.4l67.2,0.1l47.7,47.1l0.3,67.2
			l-48.2,47.7l-67.2-0.1L-428.6,994.2z"/>
		<path id="path5698_1_" inkscape:connector-curvature="0" class="st2" d="M-428.6,994.2v-67.3l48-47.4l67.2,0.1l47.7,47.1l0.3,67.2
			l-48.2,47.7l-67.2-0.1L-428.6,994.2z"/>
	</g>
	
		<linearGradient id="path7107_1_" gradientUnits="userSpaceOnUse" x1="-391.0056" y1="1012.0201" x2="-280.6546" y2="901.3535" gradientTransform="matrix(1 0 0 -1 0 1924)">
		<stop  offset="0" style="stop-color:#3E2723"/>
		<stop  offset="1" style="stop-color:#3E2723;stop-opacity:0"/>
	</linearGradient>
	<path id="path7107" class="st3" d="M-390.5,928c-0.4,0-0.7,0-1.1,0.1c-0.4,0.1-0.8,0.2-1.1,0.4c-0.2,0.2-0.2,0.7-0.2,0.7
		s0,0.8,0.2,1.2c0.4,1.1,1.1,2,1.7,2.9c0.5,0.8,1,1.6,1.6,2.4c0.4,0.6,0.9,1.1,1.4,1.6c0,0,0.1,0.1,0.1,0.1c0.1,0.2,0.3,0.3,0.4,0.5
		c0,0,0.1,0.1,0.1,0.1c0.1,0.2,0.3,0.3,0.4,0.5c0,0,0.1,0.1,0.1,0.1c0.1,0.2,0.3,0.3,0.4,0.5c0,0,0.1,0.1,0.1,0.1
		c0.1,0.2,0.3,0.3,0.4,0.5c0,0,0.1,0.1,0.1,0.1c0.1,0.2,0.3,0.3,0.4,0.5c0,0,0.1,0.1,0.1,0.1c0.1,0.2,0.3,0.3,0.4,0.5
		c0,0,0.1,0.1,0.1,0.1c0.1,0.2,0.3,0.3,0.4,0.5c0,0,0.1,0.1,0.1,0.1c0.1,0.2,0.3,0.3,0.4,0.5c0,0,0.1,0.1,0.1,0.1
		c0.1,0.2,0.3,0.3,0.4,0.4c0,0,0.1,0.1,0.1,0.1c0.1,0.2,0.3,0.3,0.4,0.4c0,0,0.1,0.1,0.1,0.1c0.1,0.2,0.3,0.3,0.4,0.5
		c0,0,0.1,0.1,0.1,0.1c0.1,0.1,0.3,0.3,0.4,0.4c0,0,0.1,0.1,0.1,0.1c0.1,0.1,0.3,0.3,0.4,0.4c0,0,0.1,0.1,0.1,0.1c0,0,0,0.1,0.1,0.1
		c-0.2,0-0.9,0.1-0.9,0.1s-2.1,0.3-3.1,0c-1.2-0.3-3.2-1.9-3.2-1.9s0.5,1.4,0.7,2.1c0.2,0.8,0.3,1.6,0.6,2.3
		c0.3,0.8,0.7,1.5,1.2,2.2c0.3,0.5,0.7,0.9,1.2,1.3c0.2,0.2,0.4,0.4,0.6,0.6c0.2,0.2,0.4,0.4,0.6,0.6c0.2,0.2,0.4,0.4,0.6,0.6
		c0.2,0.2,0.4,0.4,0.6,0.6c0.2,0.2,0.4,0.4,0.6,0.6c0.2,0.2,0.4,0.4,0.6,0.6c0.2,0.2,0.4,0.4,0.5,0.5c0.2,0.2,0.4,0.4,0.6,0.6
		c0.2,0.2,0.4,0.4,0.6,0.6c0.2,0.2,0.4,0.4,0.6,0.6c0.2,0.2,0.4,0.4,0.5,0.5c0.2,0.2,0.4,0.4,0.6,0.6c0.2,0.2,0.4,0.4,0.5,0.5
		c0.2,0.2,0.4,0.4,0.6,0.6c0,0,0.1,0.1,0.1,0.1c-0.1,0.3-0.2,0.5-0.2,0.8c0,0.4,0,0.7,0.1,1.1c0,0.3,0.1,0.6,0.2,0.9
		c0.1,0.3,0.3,0.6,0.5,0.9c0.2,0.3,0.4,0.5,0.7,0.7c0.2,0.2,0.4,0.4,0.6,0.6c0.2,0.2,0.4,0.4,0.6,0.6c0.2,0.2,0.4,0.4,0.6,0.6
		c0.2,0.2,0.4,0.4,0.6,0.6c0.1,0.1,0.2,0.2,0.3,0.3c0.1,0.7,0.3,2.1,0.5,3c0.1,0.5,0.2,0.9,0.4,1.4c0.2,0.5,0.4,1.1,0.6,1.6
		c0.2,0.6,0.5,1.1,0.8,1.7c0.4,0.6,0.8,1.2,1.4,1.8c0.1,0.1,0.2,0.2,0.3,0.3c0.1,0.1,0.2,0.2,0.2,0.3c0.1,0.1,0.2,0.2,0.3,0.3
		c0.1,0.1,0.2,0.2,0.2,0.3c0.1,0.1,0.2,0.2,0.3,0.3c0.1,0.1,0.2,0.2,0.2,0.3c0.1,0.1,0.2,0.2,0.3,0.3c0.1,0.1,0.2,0.2,0.2,0.3
		c0.1,0.1,0.2,0.2,0.3,0.3c0.1,0.1,0.2,0.2,0.2,0.3c0.1,0.1,0.2,0.2,0.3,0.3c0.1,0.1,0.2,0.2,0.2,0.3c0.1,0.1,0.2,0.2,0.3,0.3
		c0.1,0.1,0.2,0.2,0.2,0.3c0.1,0.1,0.2,0.2,0.3,0.3c0.1,0.1,0.2,0.2,0.2,0.3c0.1,0.1,0.2,0.2,0.3,0.3c0.1,0.1,0.2,0.2,0.2,0.3
		c0.1,0.1,0.2,0.2,0.3,0.3c0.1,0.1,0.2,0.2,0.2,0.3c0.1,0.1,0.2,0.2,0.3,0.3c0.1,0.1,0.2,0.2,0.2,0.3c0.1,0.1,0.2,0.2,0.3,0.3
		c0.1,0.1,0.2,0.2,0.2,0.3c0.1,0.1,0.2,0.2,0.3,0.3c0.1,0.1,0.2,0.2,0.2,0.3c0.1,0.1,0.2,0.2,0.3,0.3c0.1,0.1,0.2,0.2,0.2,0.3
		c0.1,0.1,0.2,0.2,0.3,0.3c0.1,0.1,0.2,0.2,0.2,0.3c0.1,0.1,0.2,0.2,0.3,0.3c0.1,0.1,0.1,0.2,0.2,0.3c0.1,0.1,0.2,0.2,0.3,0.3
		c0.1,0.1,0.1,0.2,0.2,0.3c0.1,0.1,0.2,0.2,0.3,0.3c0.1,0.1,0.1,0.2,0.2,0.3c0.1,0.1,0.2,0.2,0.3,0.3c0.1,0.1,0.1,0.2,0.2,0.3
		c0.1,0.1,0.2,0.2,0.3,0.3c0.1,0.1,0.1,0.2,0.2,0.3c0.1,0.1,0.2,0.2,0.3,0.3c0.1,0.1,0.1,0.2,0.2,0.3c0.1,0.1,0.2,0.2,0.3,0.3
		c0.1,0.1,0.1,0.2,0.2,0.3c0.1,0.1,0.2,0.2,0.3,0.3c0.1,0.1,0.1,0.2,0.2,0.3c0.1,0.1,0.2,0.2,0.3,0.3c0.1,0.1,0.1,0.2,0.2,0.3
		c0.1,0.1,0.2,0.2,0.3,0.3c0.1,0.1,0.1,0.2,0.2,0.3c0.1,0.1,0.2,0.2,0.3,0.3c0,0,0.1,0.1,0.1,0.1c-2.7,1.8-5.4,3.5-8.1,5.4
		c-0.5,0.4-1,0.7-1.5,1.1c-0.3,0.3-0.7,0.6-0.9,1c-0.2,0.3-0.5,0.7-0.6,1c-0.1,0.3-0.2,0.6-0.3,1c0,0.3-0.1,0.6,0,0.9
		c0.1,0.4,0.2,0.9,0.5,1.2c0.2,0.3,0.4,0.5,0.7,0.7c0.2,0.2,0.4,0.4,0.6,0.6c0.2,0.2,0.4,0.4,0.6,0.6c0.2,0.2,0.4,0.4,0.6,0.6
		c0.2,0.2,0.4,0.4,0.6,0.6c0.2,0.2,0.4,0.4,0.6,0.6c0.2,0.2,0.4,0.4,0.6,0.6c0.2,0.2,0.4,0.4,0.6,0.6c0.2,0.2,0.4,0.4,0.6,0.6
		c0.2,0.2,0.4,0.4,0.6,0.5c0.2,0.2,0.4,0.4,0.6,0.6c0.2,0.2,0.4,0.4,0.6,0.6c0.2,0.2,0.3,0.4,0.5,0.5c0.2,0.2,0.3,0.4,0.5,0.6
		c0.2,0.2,0.3,0.4,0.5,0.5c0.2,0.2,0.3,0.4,0.5,0.5c0.2,0.2,0.3,0.4,0.5,0.5c0.2,0.2,0.3,0.4,0.5,0.5c0.2,0.2,0.3,0.4,0.5,0.5
		c0.2,0.2,0.3,0.4,0.5,0.5c0.2,0.2,0.3,0.4,0.5,0.5c0.2,0.2,0.3,0.4,0.5,0.5c0.2,0.2,0.3,0.4,0.5,0.5c0.2,0.2,0.3,0.4,0.5,0.5
		c0.2,0.2,0.3,0.4,0.5,0.5c0.2,0.2,0.3,0.4,0.5,0.5c0.2,0.2,0.3,0.4,0.5,0.5c0.2,0.2,0.3,0.4,0.5,0.5c0.2,0.2,0.3,0.4,0.5,0.5
		c0.2,0.2,0.3,0.4,0.5,0.5c0.2,0.2,0.3,0.4,0.5,0.5c0.2,0.2,0.3,0.4,0.5,0.5c0.2,0.2,0.3,0.4,0.5,0.5c0.2,0.2,0.3,0.4,0.5,0.5
		c0.2,0.2,0.3,0.4,0.5,0.5c0.2,0.2,0.3,0.4,0.5,0.5c0.1,0.2,0.3,0.3,0.5,0.5c0.2,0.2,0.3,0.4,0.5,0.5c0.2,0.2,0.3,0.3,0.5,0.5
		c0.1,0.2,0.3,0.3,0.5,0.5c0.1,0.2,0.3,0.3,0.5,0.5c0.2,0.2,0.3,0.4,0.5,0.5c0.1,0.2,0.3,0.3,0.5,0.5c0.1,0.2,0.3,0.3,0.5,0.5
		c0.1,0.2,0.3,0.3,0.5,0.5c0.1,0.2,0.3,0.3,0.5,0.5c0.1,0.2,0.3,0.3,0.5,0.5c0.1,0.2,0.3,0.3,0.5,0.5c0.1,0.2,0.3,0.3,0.5,0.5
		c0.1,0.2,0.3,0.3,0.5,0.5c0.1,0.2,0.3,0.3,0.5,0.5c0.1,0.2,0.3,0.3,0.5,0.5c0.1,0.2,0.3,0.3,0.5,0.5c0.1,0.2,0.3,0.3,0.5,0.5
		c0.1,0.2,0.3,0.3,0.5,0.5c0.1,0.2,0.3,0.3,0.5,0.5c0.1,0.2,0.3,0.3,0.5,0.5c0.1,0.2,0.3,0.3,0.5,0.5c0.1,0.2,0.3,0.3,0.5,0.5
		c0.1,0.2,0.3,0.3,0.5,0.5c0.1,0.2,0.3,0.3,0.5,0.5c0.1,0.2,0.3,0.3,0.5,0.5c0.1,0.2,0.3,0.3,0.5,0.5c0.1,0.2,0.3,0.3,0.5,0.5
		c0.1,0.2,0.3,0.3,0.5,0.5c0.1,0.2,0.3,0.3,0.5,0.5c0.1,0.2,0.3,0.3,0.5,0.5c0.1,0.2,0.3,0.3,0.5,0.5c0.1,0.2,0.3,0.3,0.5,0.5
		c0.1,0.2,0.3,0.3,0.5,0.5c0.1,0.2,0.3,0.3,0.5,0.5c0.1,0.2,0.3,0.3,0.5,0.5c0.1,0.2,0.3,0.3,0.4,0.4c0.1,0.2,0.3,0.3,0.5,0.5
		c0.1,0.2,0.3,0.3,0.4,0.4c0.1,0.2,0.3,0.3,0.4,0.4c0.1,0.2,0.3,0.3,0.4,0.4c0.1,0.2,0.3,0.3,0.4,0.4c0.1,0.2,0.3,0.3,0.4,0.4
		c0.1,0.2,0.3,0.3,0.4,0.4c0.1,0.2,0.3,0.3,0.4,0.4c0.1,0.2,0.3,0.3,0.4,0.4c0.1,0.2,0.3,0.3,0.4,0.4c0.1,0.2,0.3,0.3,0.4,0.4
		c0.1,0.2,0.3,0.3,0.4,0.4c0.1,0.2,0.3,0.3,0.4,0.4c0.1,0.2,0.3,0.3,0.4,0.4c0.1,0.2,0.3,0.3,0.4,0.4c0.1,0.2,0.3,0.3,0.4,0.4
		c0.1,0.2,0.3,0.3,0.4,0.4c0.1,0.2,0.3,0.3,0.4,0.4c0.1,0.2,0.3,0.3,0.4,0.4c0.1,0.1,0.3,0.3,0.4,0.4c0.1,0.1,0.3,0.3,0.4,0.4
		c0.1,0.1,0.3,0.3,0.4,0.4c0.1,0.2,0.3,0.3,0.4,0.4c0.1,0.1,0.3,0.3,0.4,0.4c0.1,0.1,0.3,0.3,0.4,0.4c0.1,0.1,0.3,0.3,0.4,0.4
		c0.1,0.1,0.3,0.3,0.4,0.4c0.1,0.1,0.3,0.3,0.4,0.4c0.1,0.1,0.3,0.3,0.4,0.4c0.1,0.1,0.3,0.3,0.4,0.4c0.1,0.1,0.3,0.3,0.4,0.4
		c0.1,0.1,0.3,0.3,0.4,0.4c0.1,0.1,0.3,0.3,0.4,0.4c0.1,0.1,0.3,0.3,0.4,0.4c0.1,0.1,0.2,0.3,0.4,0.4c0.1,0.1,0.3,0.3,0.4,0.4
		c0.1,0.1,0.2,0.3,0.4,0.4c0.1,0.1,0.3,0.3,0.4,0.4c0.1,0.1,0.2,0.3,0.4,0.4c0.1,0.1,0.3,0.3,0.4,0.4c0.1,0.1,0.2,0.3,0.4,0.4
		c0.1,0.1,0.2,0.3,0.4,0.4c0.1,0.1,0.2,0.3,0.4,0.4c0.1,0.1,0.2,0.3,0.4,0.4c0.1,0.1,0.2,0.3,0.4,0.4c0.1,0.1,0.2,0.3,0.4,0.4
		c0.1,0.1,0.2,0.3,0.4,0.4c0.1,0.1,0.2,0.3,0.4,0.4c0.1,0.1,0.2,0.3,0.4,0.4c0.1,0.1,0.2,0.3,0.4,0.4c0.1,0.1,0.2,0.2,0.4,0.4
		c0.1,0.1,0.2,0.3,0.4,0.4c0.1,0.1,0.2,0.2,0.4,0.4c0.1,0.1,0.2,0.2,0.4,0.4c0.1,0.1,0.2,0.2,0.4,0.4c0.1,0.1,0.2,0.2,0.4,0.4
		c0.1,0.1,0.2,0.2,0.4,0.4c0.1,0.1,0.2,0.3,0.4,0.4c0.1,0.1,0.2,0.2,0.3,0.3c0.1,0.1,0.2,0.2,0.4,0.4c0.1,0.1,0.2,0.2,0.3,0.3
		c0.1,0.1,0.2,0.2,0.4,0.4c0.1,0.1,0.2,0.2,0.3,0.3c0.1,0.1,0.2,0.2,0.4,0.4c0.1,0.1,0.2,0.2,0.3,0.3c0.1,0.1,0.2,0.2,0.3,0.3
		c0.1,0.1,0.2,0.2,0.3,0.3c0.1,0.1,0.2,0.2,0.3,0.3c0.1,0.1,0.2,0.2,0.3,0.3c0.1,0.1,0.2,0.2,0.3,0.3c0.1,0.1,0.2,0.2,0.3,0.3
		c0.1,0.1,0.2,0.2,0.3,0.3c0.1,0.1,0.2,0.2,0.3,0.3c0.1,0.1,0.2,0.2,0.3,0.3c0.1,0.1,0.2,0.2,0.3,0.3c0.1,0.1,0.2,0.2,0.3,0.3
		c0.1,0.1,0.2,0.2,0.3,0.3c0.1,0.1,0.2,0.2,0.3,0.3c0.1,0.1,0.2,0.2,0.3,0.3c0.1,0.1,0.2,0.2,0.3,0.3c0.1,0.1,0.2,0.2,0.3,0.3
		c0.1,0.1,0.2,0.2,0.3,0.3c0.1,0.1,0.2,0.2,0.3,0.3c0.1,0.1,0.2,0.2,0.3,0.3c0.1,0.1,0.2,0.2,0.3,0.3c0.1,0.1,0.2,0.2,0.3,0.3
		c0.1,0.1,0.2,0.2,0.3,0.3c0.1,0.1,0.2,0.2,0.3,0.3c0.1,0.1,0.2,0.2,0.3,0.3c0.1,0.1,0.2,0.2,0.3,0.3c0.1,0.1,0.2,0.2,0.3,0.3
		c0.1,0.1,0.2,0.2,0.3,0.3c0.1,0.1,0.2,0.2,0.3,0.3c0.1,0.1,0.2,0.2,0.3,0.3l0,0c0.1,0.1,0.2,0.2,0.3,0.3c0.1,0.1,0.2,0.2,0.3,0.3
		c0.1,0.1,0.2,0.2,0.3,0.3c0.1,0.1,0.2,0.2,0.3,0.3c0.1,0.1,0.2,0.2,0.3,0.3c0.1,0.1,0.2,0.2,0.3,0.3l0,0c0.1,0.1,0.2,0.2,0.3,0.3
		c0.1,0.1,0.2,0.2,0.3,0.3v0c0.1,0.1,0.2,0.2,0.3,0.3c0.1,0.1,0.2,0.2,0.3,0.3c0.1,0.1,0.2,0.2,0.3,0.3c0.1,0.1,0.2,0.2,0.3,0.3
		c0.1,0.1,0.2,0.2,0.3,0.3c0.1,0.1,0.2,0.2,0.3,0.3c0.1,0.1,0.2,0.2,0.3,0.3c0.1,0.1,0.2,0.2,0.3,0.3c0.1,0.1,0.2,0.2,0.3,0.3
		c0,0,0,0,0,0c0.1,0.1,0.2,0.2,0.3,0.3c0.1,0.1,0.2,0.2,0.3,0.3c0.1,0.1,0.2,0.2,0.3,0.3c0.1,0.1,0.2,0.2,0.3,0.3
		c0.1,0.1,0.2,0.2,0.3,0.3c0.1,0.1,0.2,0.2,0.3,0.3c0.1,0.1,0.2,0.2,0.3,0.3c0.1,0.1,0.2,0.2,0.3,0.3c0.1,0.1,0.2,0.2,0.3,0.3
		c0.1,0.1,0.2,0.2,0.3,0.3c0.1,0.1,0.2,0.2,0.2,0.2c0.1,0.1,0.2,0.2,0.3,0.3c0.1,0.1,0.2,0.2,0.3,0.3c0.1,0.1,0.2,0.2,0.3,0.2
		c0.1,0.1,0.2,0.2,0.2,0.2c0.1,0.1,0.2,0.2,0.2,0.2c0.1,0.1,0.1,0.1,0.2,0.2v0c0,0,0,0,0,0c0.1,0.1,0.2,0.2,0.2,0.2
		c0.1,0.1,0.2,0.2,0.3,0.3c0.1,0.1,0.2,0.2,0.2,0.2c0.1,0.1,0.2,0.2,0.2,0.2c0.1,0.1,0.2,0.2,0.2,0.2c0.1,0.1,0.1,0.2,0.2,0.2
		c0.1,0.1,0.2,0.2,0.2,0.2c0.1,0.1,0.2,0.2,0.2,0.2c0.1,0.1,0.1,0.2,0.2,0.2c0.1,0.1,0.1,0.2,0.2,0.2c0.1,0.1,0.1,0.1,0.2,0.2l0,0
		c0,0,0,0,0,0c0.1,0.1,0.1,0.2,0.2,0.2c0.1,0.1,0.2,0.2,0.2,0.2c0.1,0.1,0.1,0.1,0.2,0.2c0.1,0.1,0.1,0.2,0.2,0.2
		c0.1,0.1,0.1,0.1,0.2,0.2c0.1,0.1,0.1,0.1,0.2,0.2c0.1,0.1,0.2,0.2,0.2,0.2c0.1,0.1,0.1,0.1,0.2,0.2c0.1,0.1,0.1,0.1,0.2,0.2
		c0.1,0.1,0.1,0.1,0.2,0.2c0.1,0.1,0.1,0.1,0.2,0.2c0.1,0.1,0.1,0.1,0.2,0.2c0.1,0.1,0.1,0.1,0.2,0.2c0,0,0.1,0.1,0.1,0.1
		c0,0,0,0,0,0c0,0,0,0,0.1,0.1c0.1,0.1,0.1,0.2,0.2,0.2c0.1,0.1,0.1,0.1,0.2,0.2c0.1,0.1,0.1,0.1,0.2,0.2c0.1,0.1,0.1,0.1,0.2,0.2
		c0,0,0.1,0.1,0.1,0.1c0,0,0,0,0,0c0,0,0,0.1,0.1,0.1c0.1,0.1,0.1,0.1,0.2,0.2c0,0,0.1,0.1,0.1,0.1c0,0,0,0,0,0c0,0,0.1,0.1,0.1,0.1
		c0.1,0.1,0.1,0.1,0.2,0.2c0.1,0.1,0.1,0.1,0.2,0.2c0.1,0.1,0.1,0.1,0.2,0.2c0.1,0.1,0.1,0.1,0.2,0.2c0.1,0.1,0.1,0.1,0.2,0.2
		c0.1,0.1,0.1,0.1,0.2,0.2c0.1,0.1,0.1,0.1,0.2,0.2c0.1,0.1,0.1,0.1,0.2,0.2c0,0,0,0.1,0.1,0.1c0,0,0,0,0,0c0,0,0.1,0.1,0.1,0.1
		c0.1,0.1,0.1,0.1,0.2,0.2c0.1,0.1,0.1,0.1,0.2,0.2c0.1,0.1,0.1,0.1,0.2,0.2c0,0,0,0,0.1,0.1l0,0c0,0,0,0,0,0c0,0,0.1,0.1,0.1,0.1
		c0.1,0.1,0.1,0.1,0.2,0.2c0.1,0.1,0.1,0.1,0.2,0.2c0,0,0,0,0,0c0,0,0,0,0,0c0,0,0.1,0.1,0.1,0.1c0.1,0.1,0.1,0.1,0.2,0.2
		c0.1,0.1,0.1,0.1,0.2,0.2c0.1,0.1,0.1,0.1,0.2,0.2c0,0,0.1,0.1,0.1,0.1c0.1,0.1,0.1,0.1,0.2,0.2c0.1,0.1,0.1,0.1,0.2,0.2
		c0,0,0,0,0,0c0,0,0,0,0,0c0,0,0.1,0.1,0.1,0.1c0.1,0.1,0.1,0.1,0.2,0.2c0,0,0.1,0.1,0.1,0.1c0,0,0.1,0.1,0.1,0.2
		c0,0,0.1,0.1,0.1,0.1c0,0,0.1,0.1,0.1,0.1c0.1,0.1,0.1,0.1,0.2,0.2c0,0,0.1,0.1,0.1,0.1c0,0,0.1,0.1,0.1,0.1c0,0,0.1,0.1,0.1,0.1
		c0,0,0.1,0.1,0.1,0.1l0,0c0,0,0.1,0.1,0.1,0.1c0.1,0.1,0.1,0.1,0.2,0.2c0,0,0.1,0.1,0.1,0.1c0,0,0.1,0.1,0.1,0.1
		c0,0,0.1,0.1,0.1,0.1c0,0,0.1,0.1,0.1,0.1c0.1,0.1,0.2,0.2,0.3,0.3c0,0,0.1,0.1,0.1,0.1c0,0,0,0,0,0c0,0,0.1,0.1,0.1,0.1
		c0,0,0,0,0,0c0,0,0.1,0.1,0.1,0.1c0,0,0,0,0,0c0,0,0,0,0,0c0,0,0,0,0,0c0,0,0,0,0,0c0.1,0.1,0.2,0.2,0.2,0.2c0,0,0.1,0.1,0.1,0.1
		c0,0,0,0,0,0c0,0,0.1,0.1,0.1,0.1c0,0,0,0,0,0c0,0,0,0,0,0c0,0,0,0,0,0c0,0,0,0,0.1,0.1c0,0,0.1,0.1,0.1,0.1c0,0,0.1,0.1,0.1,0.1
		c0,0,0.1,0.1,0.1,0.1c0,0,0.1,0.1,0.1,0.1c0,0,0.1,0.1,0.1,0.1c0,0,0.1,0.1,0.1,0.1c0,0,0.1,0.1,0.1,0.1c0,0,0.1,0.1,0.1,0.1
		c0,0,0.1,0.1,0.1,0.1c0,0,0.1,0.1,0.1,0.1c0,0,0.1,0.1,0.1,0.1h0c0,0,0.1,0.1,0.1,0.1c0,0,0.1,0.1,0.1,0.1c0,0,0.1,0.1,0.1,0.1
		c0,0,0,0.1,0.1,0.1c0,0,0.1,0.1,0.1,0.1c0,0,0,0,0,0c0,0,0,0,0,0c0,0,0.1,0.1,0.1,0.1c0,0,0,0,0,0c0,0,0,0,0.1,0.1c0,0,0,0,0.1,0.1
		c0,0,0.1,0.1,0.1,0.1c0,0,0,0,0.1,0.1h0c0,0,0,0,0,0v0c0,0,0,0,0,0c0,0,0,0,0,0c0,0,0,0,0.1,0.1l0,0c0,0,0,0,0.1,0.1c0,0,0,0,0,0
		c0,0,0,0,0,0c0,0,0,0,0,0c0,0,0,0,0,0c0,0,0,0,0.1,0.1c0,0,0,0,0,0c0,0,0,0,0,0c0,0,0,0,0,0c0,0,0,0,0,0c0,0,0,0,0.1,0.1
		c0,0,0,0,0.1,0.1c0,0,0,0,0.1,0.1c0,0,0,0,0,0c0,0,0,0,0.1,0.1c0,0,0,0,0,0c0,0,0,0,0,0c0,0,0,0,0,0c0,0,0,0,0.1,0.1
		c0,0,0,0,0.1,0.1c0,0,0,0,0,0c0,0,0,0,0,0c0,0,0,0,0,0c0,0,0,0,0,0l0,0h0c0,0,0,0,0,0c0,0,0,0,0,0c0,0,0,0,0,0c0,0,0,0,0,0
		c0,0,0,0,0,0c0,0,0,0,0.1,0.1c0,0,0,0,0,0c0,0,0,0,0,0l0,0c0,0,0,0,0,0c0,0,0,0,0,0c0,0,0,0,0,0c0,0,0,0,0,0c0,0,0,0,0,0
		c0,0,0,0,0,0c0,0,0,0,0,0h0c0,0,0,0,0,0c0,0,0,0,0,0c0,0,0,0,0,0c0,0,0,0,0,0c0,0,0,0,0,0c0,0,0,0,0,0c0,0,0,0,0,0c0,0,0,0,0,0l0,0
		c0,0,0,0,0,0c0,0,0,0,0,0l0,0c0,0,0,0,0,0c0,0,0,0,0,0c0,0,0,0,0,0c0,0,0,0,0,0c0,0,0,0,0,0c0,0,0,0,0,0c0,0,0,0,0,0c0,0,0,0,0,0
		c0,0,0,0,0,0c0,0,0,0,0,0c0,0,0,0,0,0c0,0,0,0,0,0c0,0,0,0,0,0c0.2,0.2,0.4,0.3,0.6,0.5c0,0,0,0,0,0c0,0,0,0,0,0
		c0.1,0.1,0.3,0.2,0.4,0.3c0.1,0.1,0.1,0.1,0.2,0.2l0,0l0,0c0,0,0,0,0,0c0,0,0,0,0,0c0.2,0.2,0.5,0.3,0.7,0.5c0,0,0,0,0,0
		c0.3,0.2,0.5,0.3,0.8,0.4c0,0,0,0,0,0c0.3,0.1,0.6,0.2,0.8,0.4c0,0,0,0,0,0c0.2,0.1,0.3,0.1,0.5,0.2c0,0,0,0,0,0c0,0,0,0,0,0
		c0,0,0,0.1,0.1,0.1c0,0,0,0,0.1,0c0,0,0,0,0.1,0.1c0,0,0,0,0,0c0,0,0,0,0.1,0.1c0,0,0,0,0,0c0,0,0,0,0.1,0.1c0,0,0,0,0,0
		c0,0,0,0.1,0.1,0.1c0,0,0,0,0,0c0,0,0,0,0.1,0.1c0,0,0,0,0,0c0,0,0,0,0.1,0.1c0,0,0,0,0,0c0,0,0,0,0.1,0.1c0,0,0,0,0,0
		c0,0,0,0,0.1,0.1c0,0,0,0,0,0c0,0,0,0,0,0.1c0,0,0,0,0,0c0,0,0,0,0.1,0.1c0,0,0,0,0,0c0,0,0,0,0.1,0.1c0,0,0,0,0,0c0,0,0,0,0.1,0.1
		c0,0,0,0,0,0c0,0,0,0,0.1,0.1c0,0,0,0,0,0c0,0,0,0,0.1,0.1c0,0,0,0,0,0c0,0,0,0,0.1,0.1c0,0,0,0,0,0c0,0,0,0,0,0.1c0,0,0,0,0,0
		c0,0,0,0,0,0.1c0,0,0,0,0,0c0,0,0,0,0,0.1c0,0,0,0,0,0c0,0,0,0,0.1,0.1c0,0,0,0,0,0c0,0,0,0,0,0c0,0,0,0,0,0c0,0,0,0,0,0.1
		c0,0,0,0,0,0c0,0,0,0,0.1,0.1c0,0,0,0,0,0c0,0,0,0,0,0c0,0,0,0,0,0c0,0,0,0,0,0c0,0,0,0,0,0c0,0,0,0,0,0c0,0,0,0,0,0c0,0,0,0,0,0.1
		c0,0,0,0,0,0c0,0,0,0,0,0c0,0,0,0,0,0c0,0,0,0,0,0c0,0,0,0,0,0c0,0,0,0,0,0c0,0,0,0,0,0c0,0,0,0,0,0c0,0,0,0,0,0c0,0,0,0,0,0
		c0,0,0,0,0,0c0,0,0,0,0,0c0,0,0,0,0,0c0,0,0,0,0,0c0,0,0,0,0,0c0,0,0,0,0,0c0,0,0,0,0,0c0,0,0,0,0,0c0,0,0,0,0,0c0,0,0,0,0,0
		c0,0,0,0,0,0c0,0,0,0,0,0c0,0,0,0,0,0c0,0,0,0,0,0c0,0,0,0,0,0c0,0,0,0,0,0c0,0,0,0,0,0c0,0,0,0,0,0c0,0,0,0,0,0c0,0,0,0,0,0
		c0,0,0,0,0,0c0,0,0,0,0,0c0,0,0,0,0,0c0,0,0,0,0,0c0,0,0,0,0,0c0,0,0,0,0,0c0,0,0,0,0,0c0,0,0,0,0,0c0,0,0,0,0,0c0,0,0,0,0,0
		c0,0,0,0,0,0c0,0,0,0,0,0c0,0,0,0,0,0c0,0,0,0,0,0c0,0,0,0,0,0c0,0,0,0,0,0c0,0,0,0,0,0c0,0,0,0,0,0l0,0c0,0,0,0,0,0c0,0,0,0,0,0
		c0,0,0,0,0,0c0,0,0,0,0,0c0,0,0,0,0,0c0,0,0,0,0,0c0,0,0,0,0,0c0,0,0,0,0,0c0,0,0,0,0,0c0,0,0,0,0,0c0,0,0,0,0,0c0,0,0,0,0,0
		c0,0,0,0,0,0c0,0,0,0,0,0c0,0,0,0,0,0c0,0,0,0,0,0c0,0,0,0,0,0c0,0,0,0,0,0l0,0c0,0,0,0,0,0s0,0,0,0l0,0c0,0,0,0,0,0l0,0
		c0,0,0,0,0,0c0,0,0,0,0,0l0,0c0,0,0,0,0,0c0,0,0,0,0,0c0,0,0,0,0,0c0.1,0.1,0.2,0.2,0.3,0.3c0.1,0.1,0.1,0.1,0.2,0.2c0,0,0,0,0,0
		c0,0,0,0,0,0c0,0,0,0,0,0c0.2,0.1,0.4,0.3,0.6,0.4c0,0,0,0,0,0s0,0,0,0c0.2,0.1,0.3,0.2,0.5,0.2c0.2,0.1,0.4,0.1,0.6,0.2
		c0.5,0.1,0.9,0.2,1.4,0.1c0.5,0,0.9-0.2,1.4-0.4c0.7-0.2,1.3-0.7,2-0.9c0,0,0.1,0,0.1,0c0,0,0,0,0.1,0.1c0,0,0,0,0,0
		c0,0,0.1,0.1,0.1,0.1c0,0,0,0,0,0c0,0,0.1,0.1,0.1,0.1c0,0,0,0,0,0c0,0,0.1,0.1,0.1,0.1c0,0,0,0,0,0c0,0,0.1,0.1,0.1,0.1
		c0,0,0,0,0,0c0,0,0.1,0.1,0.1,0.1c0,0,0.1,0.1,0.1,0.1c0,0,0,0,0,0c0,0,0.1,0.1,0.1,0.1c0,0,0,0,0,0c0,0,0.1,0.1,0.1,0.1
		c0,0,0,0,0,0c0,0,0.1,0.1,0.1,0.1c0,0,0,0,0,0c0,0,0.1,0.1,0.1,0.1c0,0,0,0,0,0c0,0,0.1,0.1,0.1,0.1c0,0,0,0,0,0c0,0,0,0,0,0
		c0,0,0.1,0.1,0.1,0.1c0,0,0,0,0,0c0,0,0.1,0.1,0.1,0.1c0,0,0,0,0,0c0,0,0.1,0.1,0.1,0.1c0,0,0,0,0,0c0,0,0.1,0.1,0.1,0.1
		c0,0,0,0,0,0c0,0,0.1,0.1,0.1,0.1c0,0,0,0,0,0c0,0,0.1,0.1,0.1,0.1c0,0,0,0,0,0c0,0,0.1,0.1,0.1,0.1c0,0,0,0,0,0
		c0,0,0.1,0.1,0.1,0.1c0,0,0,0,0,0c0,0,0,0,0,0c0,0,0,0,0.1,0.1c0,0,0,0,0,0c0,0,0,0,0,0c0,0,0,0,0.1,0.1c0,0,0,0,0,0c0,0,0,0,0,0
		c0,0,0,0,0.1,0.1c0,0,0,0,0,0c0,0,0.1,0.1,0.1,0.1c0,0,0,0,0,0c0,0,0.1,0.1,0.1,0.1c0,0,0,0,0,0c0,0,0,0,0,0c0,0,0,0,0,0
		c0,0,0,0,0,0c0,0,0,0,0,0c0,0,0,0,0,0c0,0,0,0,0,0c0,0,0,0.1,0.1,0.1c0,0,0,0,0,0c0,0,0,0,0.1,0.1c0,0,0,0,0,0c0,0,0,0,0,0
		c0,0,0,0,0,0c0,0,0,0,0,0c0,0,0,0,0.1,0.1c0,0,0,0,0,0c0,0,0,0,0,0c0,0,0,0,0,0c0,0,0,0,0,0c0,0,0,0,0,0c0,0,0,0,0.1,0.1
		c0,0,0,0,0,0c0,0,0,0,0.1,0.1c0,0,0,0,0,0c0,0,0,0,0.1,0.1c0,0,0,0,0,0c0,0,0,0,0.1,0.1c0,0,0,0,0,0c0,0,0,0,0.1,0.1c0,0,0,0,0,0
		c0,0,0,0,0,0c0,0,0,0,0,0c0,0,0,0,0,0c0,0,0,0,0,0c0,0,0,0,0.1,0.1c0,0,0,0,0,0c0,0,0,0,0,0c0,0,0,0,0,0c0,0,0,0,0,0c0,0,0,0,0,0
		c0,0,0,0,0,0c0,0,0,0,0.1,0.1c0,0,0,0,0,0c0,0,0,0,0.1,0.1c0,0,0,0,0,0c0,0,0,0,0.1,0.1c0,0,0,0,0,0c0,0,0,0,0,0c0,0,0,0,0,0
		c0,0,0,0,0,0c0,0,0,0,0,0c0,0,0,0,0,0c0,0,0,0,0,0c0,0,0,0,0,0c0,0,0,0,0,0c0,0,0,0,0,0c0,0,0,0,0,0c0,0,0,0,0,0c0,0,0,0,0,0
		c0,0,0,0,0,0c0,0,0,0,0,0c0,0,0,0,0,0l0,0c0,0,0,0,0,0c0,0,0,0,0,0c0,0,0,0,0,0c0,0,0,0,0,0h0v0h0c0,0,0,0,0,0v0c0,0,0,0,0,0
		c0,0,0,0,0,0c0,0,0,0,0,0h0l0,0c0,0,0,0,0,0l0,0v0l0,0l0,0l0,0c0,0,0,0,0,0l0,0c0,0,0,0,0,0l0,0c0,0,0,0,0,0l0,0c0,0,0,0,0,0l0,0
		c0,0,0,0,0,0l0,0c0,0,0,0,0,0l0,0c0,0,0,0,0,0l0,0c0,0,0,0,0,0l0,0c0,0,0,0,0,0l0,0c0,0,0,0,0,0l0,0c0,0,0,0,0,0l0,0c0,0,0,0,0,0
		l0,0c0,0,0,0,0,0l0,0c0,0,0,0,0,0c0,0,0,0,0,0c0,0,0,0,0,0c0,0,0,0,0,0l0,0l0,0l0,0c0,0,0,0,0,0c0,0,0,0,0,0c0,0,0,0,0,0
		c0,0,0,0,0,0c0,0,0,0,0,0c0,0,0,0,0,0c0,0,0,0,0,0c0,0,0,0,0,0c0,0,0,0,0.1,0c0,0,0.1,0.1,0.1,0.1c0,0,0,0,0,0c0,0,0,0,0,0
		c0.3,0.2,0.5,0.4,0.7,0.6c0,0,0,0,0,0c0,0,0,0,0,0c0.2,0.2,0.5,0.4,0.7,0.5c0,0,0,0,0,0c0.2,0.2,0.5,0.3,0.7,0.4c0,0,0,0,0,0
		c0.2,0.1,0.5,0.3,0.7,0.3c0,0,0,0,0,0c0.6,0.2,1.3,0.3,1.9,0.4c1.9,0.2,5.6-0.1,5.6-0.1s0-2.9,0.2-4.4c0.1-1.1,0.3-2.3,0.6-3.4
		c0.2-0.8,0.4-1.6,0.7-2.5c0.2-0.8,0.5-1.6,0.8-2.4c0.2-0.6,0.5-1.1,0.9-1.7c0.3-0.5,0.7-1.1,1.1-1.6c0.4-0.5,0.9-1.1,1.4-1.6
		c0.6-0.6,1.2-1.2,1.8-1.8c0.6-0.6,1.3-1.2,2-1.8c0.6-0.5,1.1-0.9,1.7-1.4c0.7-0.5,1.3-1,2-1.6c0.6-0.5,1.1-0.9,1.7-1.4
		c0.6-0.5,1.2-0.9,1.8-1.3c0.6-0.5,1.1-1,1.7-1.5c0.6-0.5,1.1-1.1,1.6-1.7c0.5-0.5,1-1.1,1.5-1.7c0.5-0.6,0.9-1.2,1.3-1.8
		c0.4-0.7,1.1-2.2,1.1-2.2s0.7-1.6,1-2.4c0.4-1.4,0.7-2.8,1-4.3c0.2-1.4,0.3-2.7,0.4-4.1c0-0.3,0-0.6,0-0.8c0.1-1.2,0.1-2.3,0.1-3.5
		c0-1.1,0-2.2,0.1-3.4c0.1-1.1,0.2-2.2,0.4-3.2c0.2-1,0.5-1.9,0.8-2.9c0.1-0.2,0.2-0.4,0.2-0.6c0.4-1.2,1-2.3,1.6-3.4
		c0.4-0.8,0.9-1.5,1.4-2.2c0.5-0.8,1.1-1.5,1.7-2.2c0.4-0.4,0.9-0.8,1.4-1.2c0.3-0.2,0.6-0.4,0.9-0.6c0.1-0.1,0.3-0.1,0.4-0.2
		c1.1-0.4,3.6-0.6,3.6-0.6l0,0h0l0,0l0,0h0l0,0c0,0,0,0,0,0l0,0c0,0,0,0,0,0l0,0c0,0,0,0,0,0l0,0c0,0,0,0,0,0l0,0c0,0,0,0,0,0l0,0
		c0,0,0,0,0,0l0,0c0,0,0,0,0,0l0,0c0,0,0,0,0,0l0,0c0,0,0,0,0,0l0,0c0,0,0,0,0,0l0,0c0,0,0,0,0,0l0,0c0,0,0,0,0,0l0,0c0,0,0,0,0,0
		l0,0c0,0,0,0,0,0l0,0c0,0,0,0,0,0l-0.1,0c0,0,0,0,0,0l-0.1,0c0,0,0,0,0,0l-0.1,0c0,0,0,0,0,0l-0.1,0c0,0,0,0,0,0l-0.1,0
		c0,0,0,0,0,0l-0.1,0c0,0,0,0,0,0l-0.1,0c0,0,0,0,0,0l-0.1,0c0,0,0,0,0,0l-0.1,0c0,0,0,0,0,0l-0.1,0c0,0,0,0,0,0l-0.1,0c0,0,0,0,0,0
		l-0.1,0c0,0,0,0,0,0l-0.1,0c0,0,0,0,0,0l-0.1,0c0,0,0,0,0,0l-0.1-0.1c0,0,0,0,0,0l-0.1-0.1c0,0,0,0,0,0l-0.1-0.1c0,0,0,0,0,0
		l-0.1-0.1c0,0,0,0,0,0l-0.1-0.1c0,0,0,0,0,0l-0.1-0.1c0,0,0,0,0,0l-0.1-0.1c0,0,0,0,0,0l-0.1-0.1c0,0,0,0,0,0l-0.1-0.1c0,0,0,0,0,0
		l-0.1-0.1c0,0,0,0,0,0l-0.1-0.1c0,0,0,0,0,0l-0.1-0.1c0,0,0,0,0,0l-0.1-0.1c0,0,0,0,0,0l-0.1-0.1c0,0,0,0,0,0l-0.1-0.1
		c0,0,0.1,0,0.1,0l-0.1-0.1c0,0,0.1,0,0.1,0l-0.1-0.1c0,0,0,0,0,0l-0.1-0.1c0,0,0.1,0,0.1,0l-0.1-0.1c0,0,0.1,0,0.1,0l-0.1-0.1
		c0,0,0.1,0,0.1,0l-0.1-0.1c0,0,0.1,0,0.1,0l-0.1-0.1c0,0,0.1,0,0.1,0l-0.1-0.1c0,0,0.1,0,0.1,0l-0.2-0.1c0,0,0.1,0,0.1,0l-0.2-0.1
		c0,0,0.1,0,0.1,0l-0.2-0.1c0,0,0.1,0,0.1,0l-0.2-0.1c0,0,0.1,0,0.1,0l-0.2-0.1c0,0,0.1,0,0.1,0l-0.2-0.1c0,0,0.1,0,0.1,0l-0.2-0.1
		c0,0,0.1,0,0.1,0l-0.2-0.1c0,0,0.1,0,0.1,0l-0.2-0.1c0,0,0.1,0,0.1,0l-0.2-0.1c0,0,0.1,0,0.1,0l-0.2-0.1c0,0,0.1,0,0.1,0l-0.2-0.1
		c0,0,0.1,0,0.1,0l-0.2-0.1c0,0,0.1,0,0.1,0l-0.2-0.1c0,0,0.1,0,0.1,0l-0.2-0.1c0,0,0.1,0,0.1,0l-0.2-0.1c0,0,0.1,0,0.1,0l-0.2-0.1
		c0,0,0.1,0,0.1,0l-0.2-0.1c0,0,0.1,0,0.1,0l-0.2-0.1c0,0,0.1,0,0.1,0l-0.2-0.1c0,0,0.1,0,0.1,0l-0.2-0.1c0,0,0.1,0,0.1,0l-0.2-0.1
		c0,0,0.1,0,0.1,0l-0.2-0.1c0,0,0.1,0,0.1,0l-0.2-0.1c0,0,0.1,0,0.1,0l-0.2-0.1c0,0,0.1,0,0.1,0l-0.2-0.1c0,0,0.1,0,0.1,0l-0.2-0.1
		c0,0,0.1,0,0.1,0l-0.2-0.1c0,0,0.1,0,0.1,0l-0.2-0.1c0,0,0.1,0,0.1,0l-0.2-0.1c0,0,0.1,0,0.1,0l-0.2-0.1c0,0,0.1,0,0.1,0l-0.2-0.1
		c0,0,0.1,0,0.1,0l-0.2-0.1c0,0,0.1,0,0.1,0l-0.2-0.1c0,0,0.1,0,0.1,0l-0.2-0.1c0,0,0.1,0,0.1,0l-0.2-0.1c0,0,0.1,0,0.1,0l-0.2-0.1
		c0,0,0.1,0,0.1,0l-0.2-0.1c0,0,0.1,0,0.1,0l-0.3-0.1c0,0,0.1,0,0.1,0l-0.3-0.1c0,0,0.1,0,0.1,0l-0.3-0.1c0,0,0.1,0,0.1,0l-0.3-0.1
		c0,0,0.1,0,0.1,0l-0.3-0.1c0,0,0.1,0,0.1,0l-0.3-0.2c0,0,0.1,0,0.1,0l-0.3-0.2c0,0,0.1,0,0.1,0l-0.3-0.2c0,0,0.1,0,0.1,0l-0.3-0.2
		c0,0,0.1,0,0.1,0l-0.3-0.2c0,0,0.1,0,0.1,0l-0.3-0.2c0,0,0.1,0,0.1,0l-0.3-0.2c0,0,0.1,0,0.1,0l-0.3-0.2c0,0,0.1,0,0.1,0l-0.3-0.2
		c0,0,0.1,0,0.1,0l-0.3-0.2c0,0,0.1,0,0.1,0l-0.3-0.2c0,0,0.1,0,0.1,0l-0.3-0.2c0,0,0.1,0,0.1,0l-0.3-0.2c0,0,0.1,0,0.1,0l-0.3-0.2
		c0,0,0.1,0,0.1,0l-0.3-0.2c0,0,0.1,0,0.1,0l-0.3-0.2c0,0,0.1,0,0.1,0l-0.3-0.2c0,0,0.1,0,0.1,0l-0.3-0.2c0,0,0.1,0,0.1,0l-0.3-0.2
		c0,0,0.1,0,0.1,0l-0.3-0.2c0,0,0.1,0,0.1,0l-0.3-0.2c0,0,0.1,0,0.1,0l-0.3-0.2c0,0,0.1,0,0.1,0l-0.3-0.2c0,0,0.1,0,0.1,0l-0.3-0.2
		c0,0,0.1,0,0.1,0l-0.3-0.2c0,0,0.1,0,0.1,0l-0.3-0.2c0,0,0.1,0,0.1,0l-0.3-0.2c0,0,0.1,0,0.1,0l-0.3-0.2c0,0,0.1,0,0.1,0l-0.3-0.2
		c0,0,0.1,0,0.1,0l-0.3-0.2c0,0,0.1,0,0.1,0l-0.3-0.2c0,0,0.1,0,0.1,0l-0.3-0.2c0,0,0.1,0,0.1,0l-0.3-0.2c0,0,0.1,0,0.1,0l-0.4-0.2
		c0,0,0.1,0,0.1,0l-0.4-0.2c0,0,0.1,0,0.1,0l-0.4-0.2c0,0,0.1,0,0.1,0l-0.4-0.2c0,0,0.1,0,0.1,0l-0.4-0.2c0,0,0.1,0,0.1,0l-0.4-0.2
		c0,0,0.1,0,0.1,0l-0.4-0.2c0,0,0.1,0,0.1,0l-0.4-0.2c0,0,0.1,0,0.1,0l-0.4-0.2c0,0,0.1,0,0.1,0l-0.4-0.2c0,0,0.1,0,0.1,0l-0.4-0.2
		c0,0,0.1,0,0.1,0l-0.4-0.2c0,0,0.2,0,0.2,0l-0.4-0.2c0,0,0.2,0,0.2,0l-0.4-0.2c0,0,0.2,0,0.2,0l-0.4-0.2c0,0,0.2,0,0.2,0l-0.4-0.2
		c0,0,0.2,0,0.2,0l-0.4-0.2c0,0,0.2,0,0.2,0l-0.4-0.2c0,0,0.2,0,0.2,0l-0.4-0.2c0,0,0.2,0,0.2,0l-0.4-0.2c0,0,0.2,0,0.2,0l-0.4-0.2
		c0,0,0.2,0,0.2,0l-0.4-0.2c0,0,0.2,0,0.2,0l-0.4-0.2c0,0,0.2,0,0.2,0l-0.4-0.2c0,0,0.2,0,0.2,0l-0.4-0.2c0,0,0.2,0,0.2,0l-0.4-0.2
		c0,0,0.2,0,0.2,0l-0.4-0.2c0,0,0.2,0,0.2,0l-0.4-0.2c0,0,0.2,0,0.2,0l-0.4-0.2c0,0,0.2,0,0.2,0l-0.4-0.2c0,0,0.2,0,0.2,0l-0.4-0.2
		c0,0,0.2,0,0.2,0l-0.4-0.2c0,0,0.2,0,0.2,0l-0.4-0.3c0,0,0.2,0,0.2,0l-0.4-0.3c0,0,0.2,0,0.2,0l-0.4-0.3c0,0,0.2,0,0.2,0l-0.4-0.3
		c0,0,0.2,0,0.2,0l-0.5-0.3c0,0,0.2,0,0.2,0l-0.5-0.3c0,0,0.2,0,0.2,0l-0.5-0.3c0,0,0.2,0,0.2,0l-0.5-0.3c0,0,0.2,0,0.2,0l-0.5-0.3
		c0,0,0.2,0,0.2,0l-0.5-0.3c0,0,0.2,0,0.2,0l-0.5-0.3c0,0,0.2,0,0.2,0l-0.5-0.3c0,0,0.2,0,0.2,0l-0.5-0.3c0,0,0.2,0,0.2,0l-0.5-0.3
		c0,0,0.2,0,0.2,0l-0.5-0.3c0,0,0.2,0,0.2,0l-0.5-0.3c0,0,0.2,0,0.2,0l-0.5-0.3c0,0,0.2,0,0.2,0l-0.5-0.3c0,0,0.2,0,0.2,0l-0.5-0.3
		c0,0,0.2,0,0.2,0l-0.5-0.3c0,0,0.2,0,0.2,0l-0.5-0.3c0,0,0.2,0,0.2,0l-0.5-0.3c0,0,0.2,0,0.2,0l-0.5-0.3c0,0,0.2,0,0.2,0l-0.5-0.3
		c0,0,0.2,0,0.2,0l-0.5-0.3c0,0,0.2,0,0.2,0l-0.5-0.3c0,0,0.2,0,0.2,0l-0.5-0.3c0,0,0.2,0,0.2,0l-0.5-0.3c0,0,0.2,0,0.2,0l-0.5-0.3
		c0,0,0.2,0,0.2,0l-0.5-0.3c0,0,0.2,0,0.2,0l-0.5-0.3c0,0,0.2,0,0.2,0l-0.5-0.3c0,0,0.2,0,0.2,0l-0.5-0.3c0,0,0.2,0,0.2,0l-0.5-0.3
		c0,0,0.2,0,0.2,0l-0.5-0.3c0,0,0.2,0,0.2,0l-0.5-0.3c0,0,0.2,0,0.2,0l-0.5-0.3c0,0,0.2,0,0.2,0l-0.5-0.3c0,0,0.2,0,0.2,0l-0.5-0.3
		c0,0,0.2,0,0.2,0l-0.5-0.3c0,0,0.2,0,0.2,0l-0.5-0.3c0,0,0.2,0,0.2,0l-0.5-0.3c0,0,0.2,0,0.2,0l-0.6-0.3c0,0,0.2,0,0.2,0l-0.6-0.3
		c0,0,0.2,0,0.2,0l-0.6-0.3c0,0,0.2,0,0.2,0l-0.6-0.3c0,0,0.2,0,0.2,0l-0.6-0.3c0,0,0.2,0,0.2,0l-0.6-0.3c0,0,0.2,0,0.2,0l-0.6-0.3
		c0,0,0.2,0,0.2,0l-0.6-0.3c0,0,0.2,0,0.2,0l-0.6-0.3c0,0,0.2,0,0.2,0l-0.6-0.3c0,0,0.2,0,0.2,0l-0.6-0.3c0,0,0.2,0,0.2,0l-0.6-0.3
		c0,0,0.2,0,0.2,0l-0.6-0.3c0,0,0.2,0,0.2,0l-0.6-0.3c0,0,0.2,0,0.2,0l-0.6-0.3c0,0,0.2,0,0.2,0l-0.6-0.3c0,0,0.2,0,0.2,0l-0.6-0.3
		c0,0,0.2,0,0.2,0l-0.6-0.3c0,0,0.2,0,0.2,0l-0.6-0.3c0,0,0.2,0,0.2,0l-0.6-0.3c0,0,0.2,0,0.2,0l-0.6-0.3c0,0,0.2,0,0.2,0l-0.6-0.3
		c0,0,0.2,0,0.2,0l-0.6-0.3c0,0,0,0,0,0c0,0,0.2,0,0.2,0l-0.6-0.3c0,0,0,0,0,0c0,0,0.2,0,0.2,0l-0.6-0.3c0,0,0,0,0,0
		c0,0,0.2,0,0.2,0l-0.6-0.3c0,0,0,0,0,0c0,0,0.2,0,0.2,0l-0.6-0.3c0,0,0,0,0,0c0,0,0.2,0,0.2,0l-0.6-0.3c0,0,0,0,0,0
		c0,0,0.2,0,0.2,0l-0.6-0.3c0,0,0,0,0,0c0,0,0.2,0,0.2,0l-0.6-0.3c0,0,0,0,0,0c0,0,0.2,0,0.2,0l-0.6-0.3c0,0,0,0,0,0
		c0,0,0.2,0,0.2,0l-0.6-0.3c0,0,0,0,0,0c0,0,0.2,0,0.2,0l-0.6-0.3c0,0,0,0,0,0c0,0,0.2,0,0.2,0l-0.6-0.3c0,0,0,0,0,0
		c0,0,0.2,0,0.2,0l-0.6-0.3c0,0,0,0,0,0c0,0,0.2,0,0.2,0l-0.6-0.3c0,0,0,0,0,0c0,0,0.2,0,0.2,0l-0.6-0.3c0,0,0,0,0,0
		c0,0,0.2,0,0.2,0l-0.6-0.3c0,0,0,0,0,0c0,0,0.2,0,0.2,0l-0.6-0.3c0,0,0,0,0,0c0,0,0.3,0,0.3,0l-0.6-0.3c0,0,0,0,0,0
		c0,0,0.3,0,0.3,0l-0.6-0.3c0,0,0,0,0,0c0,0,0.3,0,0.3,0l-0.6-0.3c0,0,0,0,0,0c0,0,0.3,0,0.3,0l-0.6-0.3c0,0-0.1,0-0.1,0
		c0,0,0.3,0,0.3,0l-0.6-0.3c0,0-0.1,0-0.1,0c0,0,0.3,0,0.3,0l-0.6-0.3c0,0-0.1,0-0.1,0c0,0,0.3,0,0.3,0l-0.6-0.3c0,0-0.1,0-0.1,0
		c0,0,0.3,0,0.3,0l-0.6-0.3c0,0-0.1,0-0.1,0c0,0,0.3,0,0.3,0l-0.6-0.3c0,0-0.1,0-0.1,0c0,0,0.3,0,0.3,0l-0.6-0.3c0,0-0.1,0-0.1,0
		c0,0,0.3,0,0.3,0l-0.6-0.3c0,0-0.1,0-0.1,0c0,0,0.3,0,0.3,0l-0.6-0.3c0,0-0.1,0-0.1,0c0,0,0.3,0,0.3,0l-0.6-0.3c0,0-0.1,0-0.1,0
		c0,0,0.3,0,0.3,0l-0.6-0.3c0,0-0.1,0-0.1,0c0,0,0.3,0,0.3,0l-0.6-0.3c0,0-0.1,0-0.1-0.1c0,0,0.3,0,0.3,0l-0.6-0.3
		c0,0-0.1,0-0.1-0.1c0,0,0.3,0,0.3,0l-0.6-0.3c0,0-0.1,0-0.1-0.1c0,0,0.3,0,0.3,0l-0.6-0.3c0,0-0.1-0.1-0.1-0.1c0,0,0.3,0,0.3,0
		l-0.6-0.3c0,0-0.1-0.1-0.1-0.1c0,0,0.3,0,0.3,0l-0.6-0.3c0,0-0.1-0.1-0.1-0.1c0,0,0.3,0,0.3,0l-0.6-0.3c0,0-0.1-0.1-0.1-0.1
		c0,0,0.3,0,0.3,0l-0.6-0.3c0,0-0.1-0.1-0.1-0.1c0,0,0.3,0,0.3,0l-0.6-0.3c0,0-0.1-0.1-0.1-0.1c0,0,0.3,0,0.3,0l-0.6-0.3
		c0,0-0.1-0.1-0.1-0.1c0,0,0.3,0,0.3,0l-0.6-0.3c0,0-0.1-0.1-0.1-0.1c0,0,0.3,0,0.3,0l-0.6-0.3c0,0-0.1-0.1-0.1-0.1c0,0,0.3,0,0.3,0
		l-0.6-0.3c0,0-0.1-0.1-0.1-0.1c0,0,0.3,0,0.3,0l-0.6-0.3c0,0-0.1-0.1-0.1-0.1c0,0,0.3,0,0.3,0l-0.6-0.3c0,0-0.1-0.1-0.1-0.1
		c0,0,0.3,0,0.3,0l-0.6-0.3c0,0-0.1-0.1-0.1-0.1c0,0,0.3,0,0.3,0l-0.6-0.3c0,0-0.1-0.1-0.1-0.1c0,0,0.3,0,0.3,0l-0.6-0.3
		c0,0-0.1-0.1-0.1-0.1c0,0,0.3,0,0.3,0l-0.6-0.3c0,0-0.1-0.1-0.1-0.1c0,0,0.3,0,0.3,0l-0.6-0.3c0,0-0.1-0.1-0.1-0.1c0,0,0.3,0,0.3,0
		l-0.6-0.3c0,0-0.1-0.1-0.1-0.1c0,0,0.3,0,0.3,0l-0.6-0.3c0,0-0.1-0.1-0.1-0.1c0,0,0.3,0,0.3,0l-0.6-0.3c0,0-0.1-0.1-0.1-0.1
		c0,0,0.3,0,0.3,0l-0.6-0.3c0,0-0.1-0.1-0.1-0.1c0,0,0.3,0,0.3,0l-0.6-0.3c0,0-0.1-0.1-0.1-0.1c0,0,0.3,0,0.3,0l-0.6-0.3
		c0,0-0.1-0.1-0.1-0.1c0,0,0.3,0,0.3,0l-0.6-0.3c0,0-0.1-0.1-0.1-0.1c0,0,0.3,0,0.3,0l-0.6-0.3c0,0-0.1-0.1-0.1-0.1c0,0,0.3,0,0.3,0
		l-0.6-0.3c0,0-0.1-0.1-0.1-0.1c0,0,0.3,0,0.3,0l-0.6-0.3c0,0-0.1-0.1-0.1-0.1c0,0,0.3,0,0.3,0l-0.6-0.3c0,0-0.1-0.1-0.1-0.1
		c0,0,0.3,0,0.3,0l-0.6-0.3c0,0-0.1-0.1-0.2-0.1c0,0,0.3,0,0.3,0l-0.6-0.3c0,0-0.1-0.1-0.2-0.1c0,0,0.3,0,0.3,0l-0.6-0.3
		c0,0-0.1-0.1-0.2-0.1c0,0,0.3,0,0.3,0l-0.6-0.3c0,0-0.1-0.1-0.2-0.1c0,0,0.3,0,0.3,0l-0.6-0.3c0,0-0.1-0.1-0.2-0.1c0,0,0.3,0,0.3,0
		l-0.6-0.3c0,0-0.1-0.1-0.2-0.1c0.1,0,0.3,0,0.3,0l-0.6-0.3c0,0-0.1-0.1-0.2-0.1c0.1,0,0.3,0,0.3,0l-0.6-0.3c0,0-0.1-0.1-0.2-0.1
		c0.1,0,0.3,0,0.3,0l-0.6-0.3c0,0-0.1-0.1-0.2-0.1c0.1,0,0.3,0,0.3,0l-0.6-0.3c0,0-0.1-0.1-0.2-0.1c0.1,0,0.3,0,0.3,0l-0.6-0.3
		c0,0-0.1-0.1-0.2-0.1c0.1,0,0.3,0,0.3,0l-0.6-0.3c0,0-0.1-0.1-0.2-0.1c0.1,0,0.3,0,0.3,0l-0.6-0.3c0,0-0.2-0.1-0.2-0.1
		c0.1,0,0.3,0,0.3,0l-0.6-0.3c0,0-0.2-0.1-0.2-0.1c0.1,0,0.3,0,0.3,0l-0.6-0.3c0,0-0.2-0.1-0.2-0.1c0.1,0,0.3,0,0.3,0l-0.6-0.3
		c0,0-0.2-0.1-0.2-0.1c0.1,0,0.3,0,0.3,0l-0.6-0.3c0,0-0.2-0.1-0.2-0.1c0.1,0,0.3,0,0.3,0l-0.6-0.3c0,0-0.2-0.1-0.2-0.1
		c0.1,0,0.3,0,0.3,0l-0.6-0.3c0,0-0.2-0.1-0.2-0.1c0.1,0,0.3,0,0.3,0l-0.6-0.3c0,0-0.2-0.1-0.2-0.1c0.1,0,0.3,0,0.3,0l-0.6-0.3
		c0,0-0.2-0.1-0.2-0.1c0.1,0,0.3,0,0.3,0l-0.6-0.3c0,0-0.2-0.1-0.2-0.1c0.1,0,0.3,0,0.3,0l-0.6-0.3c0,0-0.2-0.1-0.2-0.1
		c0.1,0,0.3,0,0.3,0l-0.6-0.3c0,0-0.2-0.1-0.2-0.1c0.1,0,0.3,0,0.3,0l-0.6-0.3c0,0-0.2-0.1-0.2-0.1c0.1,0,0.3,0,0.3,0l-0.6-0.3
		c0,0-0.2-0.1-0.2-0.1c0.1,0,0.3,0,0.3,0l-0.6-0.3c0,0-0.2-0.1-0.2-0.1c0.1,0,0.3,0,0.3,0l-0.6-0.3c0,0-0.2-0.1-0.2-0.1
		c0.1,0,0.3,0,0.3,0l-0.6-0.3c0,0-0.2-0.1-0.2-0.1c0.1,0,0.3,0,0.3,0l-0.6-0.3c0,0-0.2-0.1-0.2-0.1c0.1,0,0.3,0,0.3,0l-0.6-0.3
		c0,0-0.2-0.1-0.2-0.1c0.1,0,0.3,0,0.3,0l-0.6-0.3c0,0-0.2-0.1-0.2-0.1c0.1,0,0.3,0,0.3,0l-0.6-0.3c0,0-0.2-0.1-0.2-0.1
		c0.1,0,0.3,0,0.3,0l-0.6-0.3c0,0-0.2-0.1-0.2-0.1c0.1,0,0.3,0,0.3,0l-0.6-0.3c0,0-0.2-0.1-0.2-0.2c0.1,0,0.3,0,0.3,0l-0.6-0.3
		c0,0-0.2-0.1-0.2-0.2c0.1,0,0.3,0,0.3,0l-0.6-0.3c0,0-0.2-0.1-0.2-0.2c0.1,0,0.3,0,0.3,0l-0.6-0.3c0,0-0.2-0.1-0.2-0.2
		c0.1,0,0.3,0,0.3,0l-0.6-0.3c0,0-0.2-0.1-0.2-0.2c0.1,0,0.3,0,0.3,0l-0.6-0.3c0,0-0.2-0.1-0.2-0.2c0.1,0,0.3,0,0.3,0l-0.6-0.3
		c0,0-0.2-0.1-0.2-0.2c0.1,0,0.3,0,0.3,0l-0.6-0.3c0,0-0.2-0.1-0.2-0.2c0.1,0,0.3,0,0.3,0l-0.6-0.3c0,0-0.2-0.1-0.3-0.2
		c0.1,0,0.3,0,0.3,0l-0.6-0.3c0,0-0.2-0.1-0.3-0.2c0.1,0,0.3,0,0.3,0l-0.6-0.3c0,0-0.2-0.1-0.3-0.2c0.1,0,0.3,0,0.3,0l-0.6-0.3
		c0,0-0.2-0.1-0.3-0.2c0.1,0,0.3,0,0.3,0l-0.6-0.3c0,0-0.2-0.1-0.3-0.2c0.1,0,0.3,0,0.3,0l-0.6-0.3c0,0-0.2-0.1-0.3-0.2
		c0.1,0,0.3,0,0.3,0l-0.6-0.3c0,0-0.2-0.1-0.3-0.2c0.1,0,0.3,0,0.3,0l-0.6-0.3c0,0-0.2-0.1-0.3-0.2c0.1,0,0.3,0,0.3,0l-0.6-0.3
		c0,0-0.2-0.1-0.3-0.2c0.1,0,0.3,0,0.3,0l-0.6-0.3c0,0-0.2-0.1-0.3-0.2c0.1,0,0.3,0,0.3,0l-0.6-0.3c0,0-0.2-0.1-0.3-0.2
		c0.1,0,0.3,0,0.3,0l-0.6-0.3c0,0-0.2-0.1-0.3-0.2c0.1,0,0.3,0,0.3,0l-0.6-0.3c0,0-0.2-0.1-0.3-0.2c0.1,0,0.3,0,0.3,0l-0.6-0.3
		c0,0-0.2-0.1-0.3-0.2c0.1,0,0.3,0,0.3,0l-0.6-0.3c0,0-0.2-0.1-0.3-0.2c0.1,0,0.3,0,0.3,0l-0.6-0.3c0,0-0.2-0.1-0.3-0.2
		c0.1,0,0.3,0,0.3,0l-0.6-0.3c0,0-0.2-0.1-0.3-0.2c0.1,0,0.3,0,0.3,0l-0.6-0.3c0,0-0.2-0.1-0.3-0.2c0.1,0,0.3,0,0.3,0l-0.6-0.3
		c0,0-1.7-1.1-2.5-1.6c-0.2-0.2-0.4-0.3-0.6-0.5c-0.4-0.3-0.7-0.6-1.1-0.9c-0.4-0.4-0.7-0.7-1.1-1.1c-0.5-0.5-1-1-1.6-1.4
		c-0.5-0.4-1-0.8-1.6-1.3c-0.4-0.3-0.9-0.7-1.3-1c-0.4-0.3-0.9-0.5-1.3-0.7c-0.4-0.2-0.8-0.4-1.1-0.5c-0.4-0.2-0.9-0.3-1.3-0.4
		c-0.5-0.1-1-0.2-1.6-0.2c-0.4,0-0.7,0-1.1,0c-0.4,0.1-0.9,0.3-1.3,0.5c-0.5,0.3-1,0.7-1.5,1c-0.5,0.4-0.2,0.1-1.3,1.3
		s-3.2,4.4-5,6.4c-0.5,0.6-1.1,1.3-1.7,1.8c-0.5,0.4-1.1,0.6-1.7,0.9c-0.6,0.2-1.1,0.5-1.7,0.6c-0.6,0.2-1.2,0.3-1.8,0.3
		c-0.6,0-1.2,0-1.8-0.2c-0.5-0.2-1-0.5-1.4-0.8c-0.4-0.3-0.7-0.6-1-0.9c0,0,0,0-0.1-0.1c0,0-0.1-0.1-0.1-0.1
		c-0.2-0.2-0.3-0.3-0.5-0.5c0,0-0.1-0.1-0.1-0.1c-0.2-0.2-0.3-0.3-0.5-0.5c0,0-0.1-0.1-0.1-0.1c-0.2-0.2-0.3-0.3-0.5-0.5
		c0,0-0.1-0.1-0.1-0.1c-0.2-0.2-0.3-0.3-0.5-0.5c-0.8-0.8-1.6-1.6-2.5-2.3c-0.7-0.7-1.5-1.4-2.3-2c-0.6-0.5-1.2-0.9-1.9-1.3
		c-0.6-0.3-1.2-0.6-1.8-0.8c-0.8-0.3-1.7-0.6-2.6-0.9c-0.9-0.3-1.8-0.5-2.7-0.7c-1.1-0.2-2.3-0.4-3.4-0.5c-2.4-0.2-4.9-0.1-7.4-0.3
		c-1.6-0.1-3.2-0.2-4.7-0.4c-1.5-0.2-2.6-0.4-4.6-0.7s-4.9-0.9-7.4-1.5c-2.8-0.6-5.5-1.4-8.3-2.1c-1.6-0.4-3.1-1-4.7-1.2
		C-389.7,928.1-390.1,928-390.5,928z"/>
	<path id="path4183" inkscape:connector-curvature="0" class="st4" d="M-391.1,927.4c-0.4,0-0.7,0-1.1,0.1c-0.4,0.1-0.8,0.2-1.1,0.4
		c-0.2,0.2-0.2,0.7-0.2,0.7s0,0.8,0.2,1.2c0.4,1.1,1.1,2,1.7,2.9c0.5,0.8,1,1.6,1.6,2.4c0.4,0.6,0.9,1.1,1.4,1.6
		c0.6,0.5,1.2,1,1.8,1.4c0.9,0.5,2,0.9,3,1.2c3,1.1,7.7,2.3,9.2,3.1c0.5,0.3,0.5,0.3,0.5,0.3c0.1,0,0,0,0,0c0,0,0.1,0.1,0,0
		c0,0,0,0-0.4,0.2c-1.2,0.6-7.5,1.2-7.5,1.2s-2.1,0.3-3.1,0c-1.2-0.3-3.2-1.9-3.2-1.9s0.5,1.4,0.7,2.1c0.2,0.8,0.3,1.6,0.6,2.3
		c0.3,0.8,0.7,1.5,1.2,2.2c0.5,0.6,1,1.2,1.6,1.7c0.5,0.4,1.1,0.7,1.7,1c1,0.4,2,0.7,3,0.9c1,0.2,1.9,0.2,2.9,0.3
		c1.5,0.1,4.5,0.2,4.5,0.2s0.3,0.1,0.4,0.2c0,0,0,0.2,0,0.2s-0.9,0.6-1.3,0.8c-0.4,0.3-0.9,0.6-1.3,0.9c-0.4,0.3-0.7,0.5-1.1,0.8
		c-0.3,0.3-0.7,0.6-0.9,0.9c-0.2,0.3-0.4,0.7-0.5,1c-0.1,0.3-0.2,0.7-0.3,1c0,0.4,0,0.7,0.1,1.1c0,0.3,0.1,0.6,0.2,0.9
		c0.1,0.3,0.3,0.6,0.5,0.9c0.3,0.3,0.6,0.6,0.9,0.9c0.7,0.6,2.2,1.8,2.2,1.8s0.4,2.4,0.6,3.6c0.1,0.5,0.2,0.9,0.4,1.4
		c0.2,0.5,0.4,1.1,0.6,1.6c0.2,0.6,0.5,1.1,0.8,1.7c0.4,0.6,0.8,1.2,1.4,1.8c0.6,0.6,1.2,1.1,1.9,1.5c0.6,0.4,1.2,0.8,1.8,1.1
		c0.7,0.3,1.5,0.6,2.3,0.8c0.9,0.2,1.8,0.3,2.7,0.4c1.4,0.2,2.8,0.3,4.2,0.3c1.4,0,2.8-0.1,4.2-0.3c1.6-0.1,3.1-0.4,4.7-0.5
		c1.6-0.2,4.9-0.4,4.9-0.4s0.8,0.1,1.2,0.2c0.2,0,0.4,0.1,0.5,0.2c0.1,0.1,0.1,0.3,0.1,0.4c0,0.1,0,0.3,0,0.4
		c-0.1,0.2-0.5,0.6-0.5,0.6s-0.9,0.9-1.3,1.3c-0.5,0.4-1,0.8-1.6,1.2c-2.5,1.7-5.2,3.1-7.7,4.7c-3.8,2.4-7.6,4.9-11.3,7.5
		c-0.5,0.4-1,0.7-1.5,1.1c-0.3,0.3-0.7,0.6-0.9,1c-0.2,0.3-0.5,0.7-0.6,1c-0.1,0.3-0.2,0.6-0.3,1c0,0.3-0.1,0.6,0,0.9
		c0.1,0.4,0.2,0.9,0.5,1.2c0.3,0.4,0.7,0.7,1.1,1.1c0.4,0.4,0.9,0.7,1.4,1c0.5,0.3,1.1,0.5,1.6,0.8c0.6,0.3,1.3,0.4,1.9,0.8
		c0.3,0.2,0.4,0.5,0.6,0.8c0.3,0.4,0.5,0.8,0.8,1.2c0.3,0.4,0.6,0.8,0.9,1.1c0.3,0.3,0.7,0.6,1.1,0.9c0.3,0.2,0.7,0.3,1.1,0.4
		c0.5,0.1,0.9,0.2,1.4,0.1c0.5,0,0.9-0.2,1.4-0.4c0.7-0.2,1.3-0.7,2-0.9c0.2-0.1,0.4-0.2,0.7-0.1c0.2,0,0.3,0.2,0.5,0.4
		c0.4,0.4,0.7,0.9,1,1.3c0.4,0.5,0.7,1,1.1,1.4c0.5,0.6,1,1.1,1.6,1.7c0.1,0.1,0.1,0.1,0.2,0.2c0.6,0.5,0.9,0.8,1.5,1.2
		c0.5,0.3,0.9,0.6,1.4,0.8c0.6,0.2,1.3,0.3,1.9,0.4c1.9,0.2,5.6-0.1,5.6-0.1s0-2.9,0.2-4.4c0.1-1.1,0.3-2.3,0.6-3.4
		c0.2-0.8,0.4-1.6,0.7-2.5c0.2-0.8,0.5-1.6,0.8-2.4c0.2-0.6,0.5-1.1,0.9-1.7c0.3-0.5,0.7-1.1,1.1-1.6c0.4-0.5,0.9-1,1.4-1.6
		c0.6-0.6,1.2-1.2,1.8-1.8c0.6-0.6,1.3-1.2,2-1.8c0.6-0.5,1.1-0.9,1.7-1.4c0.7-0.5,1.3-1,2-1.6c0.6-0.5,1.1-0.9,1.7-1.4
		c0.6-0.5,1.2-0.9,1.8-1.3c0.6-0.5,1.1-1,1.7-1.5c0.6-0.5,1.1-1.1,1.6-1.7c0.5-0.5,1-1.1,1.5-1.7c0.5-0.6,0.9-1.2,1.3-1.8
		c0.4-0.7,1.1-2.2,1.1-2.2s0.7-1.6,1-2.4c0.4-1.4,0.7-2.8,1-4.3c0.2-1.4,0.3-2.7,0.4-4.1c0-0.3,0-0.6,0-0.8c0.1-1.2,0.1-2.3,0.1-3.5
		c0-1.1,0-2.2,0.1-3.4c0.1-1.1,0.2-2.2,0.4-3.2c0.2-1,0.5-1.9,0.8-2.9c0.1-0.2,0.2-0.4,0.2-0.6c0.4-1.2,1-2.3,1.6-3.4
		c0.4-0.8,0.9-1.5,1.4-2.2c0.5-0.8,1.1-1.5,1.7-2.2c0.4-0.4,0.9-0.8,1.4-1.2c0.3-0.2,0.6-0.4,0.9-0.6c0.1-0.1,0.3-0.1,0.4-0.2
		c1.1-0.4,3.6-0.6,3.6-0.6l-0.6-0.3c0,0-1.7-1.1-2.5-1.6c-0.2-0.2-0.4-0.3-0.6-0.5c-0.4-0.3-0.7-0.6-1.1-0.9
		c-0.4-0.4-0.7-0.7-1.1-1.1c-0.5-0.5-1-1-1.6-1.4c-0.5-0.4-1-0.8-1.6-1.3c-0.4-0.3-0.9-0.7-1.3-1c-0.4-0.3-0.9-0.5-1.3-0.7
		c-0.4-0.2-0.8-0.4-1.1-0.5c-0.4-0.2-0.9-0.3-1.3-0.4c-0.5-0.1-1-0.2-1.6-0.2c-0.4,0-0.7,0-1.1,0c-0.4,0.1-0.9,0.3-1.3,0.5
		c-0.5,0.3-1,0.7-1.5,1c-0.5,0.4-0.2,0.1-1.3,1.3c-1.1,1.2-3.2,4.4-5,6.4c-0.5,0.6-1.1,1.3-1.7,1.8c-0.5,0.4-1.1,0.6-1.7,0.9
		c-0.6,0.2-1.1,0.5-1.7,0.6c-0.6,0.2-1.2,0.3-1.8,0.3c-0.6,0-1.2,0-1.8-0.2c-0.5-0.2-1-0.5-1.4-0.8c-1.2-0.9-2.2-2.1-3.3-3.2
		c-0.8-0.8-1.6-1.6-2.5-2.3c-0.7-0.7-1.5-1.4-2.3-2c-0.6-0.5-1.2-0.9-1.9-1.2c-0.6-0.3-1.2-0.6-1.8-0.8c-0.8-0.3-1.7-0.6-2.6-0.9
		c-0.9-0.3-1.8-0.5-2.7-0.7c-1.1-0.2-2.3-0.4-3.4-0.5c-2.4-0.2-4.9-0.1-7.4-0.3c-1.6-0.1-3.2-0.2-4.7-0.4c-1.5-0.2-2.6-0.4-4.6-0.7
		c-2-0.4-4.9-0.9-7.4-1.5c-2.8-0.6-5.5-1.4-8.3-2.1c-1.6-0.4-3.1-1-4.7-1.2C-390.3,927.5-390.7,927.5-391.1,927.4L-391.1,927.4z
		 M-374,942.9C-374,942.9-374,942.9-374,942.9C-374,942.9-374,942.9-374,942.9C-374,942.9-374,942.9-374,942.9
		C-374,942.9-374,942.9-374,942.9z M-374,942.9c-0.1,0-0.1,0-0.1,0C-374.2,942.9-374.1,942.9-374,942.9z"/>
	<path id="path4189" inkscape:connector-curvature="0" class="st5" d="M-391.1,927.4c-0.4,0-0.7,0-1.1,0.1c-0.4,0.1-0.8,0.2-1.1,0.4
		c-0.2,0.2-0.2,0.7-0.2,0.7s0,0.8,0.2,1.2c0.4,1.1,1.1,2,1.7,2.9c0.5,0.8,1,1.6,1.6,2.4c0.4,0.6,0.9,1.1,1.4,1.6
		c0.6,0.5,1.2,1,1.8,1.4c0.9,0.5,2,0.9,3,1.2c3,1.1,7.7,2.3,9.2,3.1c0.5,0.3,0.5,0.3,0.5,0.3c0.1,0,0,0,0,0c0,0,0.1,0.1,0,0
		c0,0,0,0-0.4,0.2c-1.2,0.6-7.5,1.2-7.5,1.2s-2.1,0.3-3.1,0c-1.2-0.3-3.2-1.9-3.2-1.9s0.5,1.4,0.7,2.1c0.2,0.8,0.3,1.6,0.6,2.3
		c0.3,0.8,0.7,1.5,1.2,2.2c0.5,0.6,1,1.2,1.6,1.7c0.5,0.4,1.1,0.7,1.7,1c1,0.4,2,0.7,3,0.9c1,0.2,1.9,0.2,2.9,0.3
		c1.5,0.1,4.5,0.2,4.5,0.2s0.3,0.1,0.4,0.2c0,0,0,0.2,0,0.2s-0.9,0.6-1.3,0.8c-0.4,0.3-0.9,0.6-1.3,0.9c-0.4,0.3-0.7,0.5-1.1,0.8
		c-0.3,0.3-0.7,0.6-0.9,0.9c-0.2,0.3-0.4,0.7-0.5,1c-0.1,0.3-0.2,0.7-0.3,1c0,0.4,0,0.7,0.1,1.1c0,0.3,0.1,0.6,0.2,0.9
		c0.1,0.3,0.3,0.6,0.5,0.9c0.3,0.3,0.6,0.6,0.9,0.9c0.7,0.6,2.2,1.8,2.2,1.8s0.4,2.4,0.6,3.6c0.1,0.5,0.2,0.9,0.4,1.4
		c0.2,0.5,0.4,1.1,0.6,1.6c0.2,0.6,0.5,1.1,0.8,1.7c0.4,0.6,0.8,1.2,1.4,1.8c0.6,0.6,1.2,1.1,1.9,1.5c0.6,0.4,1.2,0.8,1.8,1.1
		c0.7,0.3,1.5,0.6,2.3,0.8c0.9,0.2,1.8,0.3,2.7,0.4c1.4,0.2,2.8,0.3,4.2,0.3c1.4,0,2.8-0.1,4.2-0.3c1.6-0.1,3.1-0.4,4.7-0.5
		c1.6-0.2,4.9-0.4,4.9-0.4s0.8,0.1,1.2,0.2c0.2,0,0.4,0.1,0.5,0.2c0.1,0.1,0.1,0.3,0.1,0.4c0,0.1,0,0.3,0,0.4
		c-0.1,0.2-0.5,0.6-0.5,0.6s-0.9,0.9-1.3,1.3c-0.5,0.4-1,0.8-1.6,1.2c-2.5,1.7-5.2,3.1-7.7,4.7c-3.8,2.4-7.6,4.9-11.3,7.5
		c-0.5,0.4-1,0.7-1.5,1.1c-0.3,0.3-0.7,0.6-0.9,1c-0.2,0.3-0.5,0.7-0.6,1c-0.1,0.3-0.2,0.6-0.3,1c0,0.3-0.1,0.6,0,0.9
		c0.1,0.4,0.2,0.9,0.5,1.2c0.3,0.4,0.7,0.7,1.1,1.1c0.4,0.4,0.9,0.7,1.4,1c0.5,0.3,1.1,0.5,1.6,0.8c0.6,0.3,1.3,0.4,1.9,0.8
		c0.3,0.2,0.4,0.5,0.6,0.8c0.3,0.4,0.5,0.8,0.8,1.2c0.3,0.4,0.6,0.8,0.9,1.1c0.3,0.3,0.7,0.6,1.1,0.9c0.3,0.2,0.7,0.3,1.1,0.4
		c0.5,0.1,0.9,0.2,1.4,0.1c0.5,0,0.9-0.2,1.4-0.4c0.7-0.2,1.3-0.7,2-0.9c0.2-0.1,0.4-0.2,0.7-0.1c0.2,0,0.3,0.2,0.5,0.4
		c0.4,0.4,0.7,0.9,1,1.3c0.4,0.5,0.7,1,1.1,1.4c0.5,0.6,1,1.1,1.6,1.7c0.1,0.1,0.1,0.1,0.2,0.2c0.6,0.5,0.9,0.8,1.5,1.2
		c0.5,0.3,0.9,0.6,1.4,0.8c0.6,0.2,1.3,0.3,1.9,0.4c1.9,0.2,5.6-0.1,5.6-0.1s0-2.9,0.2-4.4c0.1-1.1,0.3-2.3,0.6-3.4
		c0.2-0.8,0.4-1.6,0.7-2.5c0.2-0.8,0.5-1.6,0.8-2.4c0.2-0.6,0.5-1.1,0.9-1.7c0.3-0.5,0.7-1.1,1.1-1.6c0.4-0.5,0.9-1,1.4-1.6
		c0.6-0.6,1.2-1.2,1.8-1.8c0.6-0.6,1.3-1.2,2-1.8c0.6-0.5,1.1-0.9,1.7-1.4c0.7-0.5,1.3-1,2-1.6c0.6-0.5,1.1-0.9,1.7-1.4
		c0.6-0.5,1.2-0.9,1.8-1.3c0.6-0.5,1.1-1,1.7-1.5c0.6-0.5,1.1-1.1,1.6-1.7c0.5-0.5,1-1.1,1.5-1.7c0.5-0.6,0.9-1.2,1.3-1.8
		c0.4-0.7,1.1-2.2,1.1-2.2s0.7-1.6,1-2.4c0.4-1.4,0.7-2.8,1-4.3c0.2-1.4,0.3-2.7,0.4-4.1c0-0.3,0-0.6,0-0.8c0.1-1.2,0.1-2.3,0.1-3.5
		c0-1.1,0-2.2,0.1-3.4c0.1-1.1,0.2-2.2,0.4-3.2c0.2-1,0.5-1.9,0.8-2.9c0.1-0.2,0.2-0.4,0.2-0.6c0.4-1.2,1-2.3,1.6-3.4
		c0.4-0.8,0.9-1.5,1.4-2.2c0.5-0.8,1.1-1.5,1.7-2.2c0.4-0.4,0.9-0.8,1.4-1.2c0.3-0.2,0.6-0.4,0.9-0.6c0.1-0.1,0.3-0.1,0.4-0.2
		c1.1-0.4,3.6-0.6,3.6-0.6l-0.6-0.3c0,0-1.7-1.1-2.5-1.6c-0.2-0.2-0.4-0.3-0.6-0.5c-0.4-0.3-0.7-0.6-1.1-0.9
		c-0.4-0.4-0.7-0.7-1.1-1.1c-0.5-0.5-1-1-1.6-1.4c-0.5-0.4-1-0.8-1.6-1.3c-0.4-0.3-0.9-0.7-1.3-1c-0.4-0.3-0.9-0.5-1.3-0.7
		c-0.4-0.2-0.8-0.4-1.1-0.5c-0.4-0.2-0.9-0.3-1.3-0.4c-0.5-0.1-1-0.2-1.6-0.2c-0.4,0-0.7,0-1.1,0c-0.4,0.1-0.9,0.3-1.3,0.5
		c-0.5,0.3-1,0.7-1.5,1c-0.5,0.4-0.2,0.1-1.3,1.3c-1.1,1.2-3.2,4.4-5,6.4c-0.5,0.6-1.1,1.3-1.7,1.8c-0.5,0.4-1.1,0.6-1.7,0.9
		c-0.6,0.2-1.1,0.5-1.7,0.6c-0.6,0.2-1.2,0.3-1.8,0.3c-0.6,0-1.2,0-1.8-0.2c-0.5-0.2-1-0.5-1.4-0.8c-1.2-0.9-2.2-2.1-3.3-3.2
		c-0.8-0.8-1.6-1.6-2.5-2.3c-0.7-0.7-1.5-1.4-2.3-2c-0.6-0.5-1.2-0.9-1.9-1.2c-0.6-0.3-1.2-0.6-1.8-0.8c-0.8-0.3-1.7-0.6-2.6-0.9
		c-0.9-0.3-1.8-0.5-2.7-0.7c-1.1-0.2-2.3-0.4-3.4-0.5c-2.4-0.2-4.9-0.1-7.4-0.3c-1.6-0.1-3.2-0.2-4.7-0.4c-1.5-0.2-2.6-0.4-4.6-0.7
		c-2-0.4-4.9-0.9-7.4-1.5c-2.8-0.6-5.5-1.4-8.3-2.1c-1.6-0.4-3.1-1-4.7-1.2C-390.3,927.5-390.7,927.5-391.1,927.4z M-374,942.9
		C-374,942.9-374,942.9-374,942.9C-374,942.9-374,942.9-374,942.9C-374,942.9-374,942.9-374,942.9C-374,942.9-374,942.9-374,942.9z
		 M-374,942.9c-0.1,0-0.1,0-0.1,0C-374.2,942.9-374.1,942.9-374,942.9z"/>
	<path id="path4191" inkscape:connector-curvature="0" class="st4" d="M-391.1,927.4c-0.4,0-0.7,0-1.1,0.1c-0.4,0.1-0.8,0.2-1.1,0.4
		c-0.2,0.2-0.2,0.7-0.2,0.7s0,0.8,0.2,1.2c0.4,1.1,1.1,1.9,1.7,2.9c0.5,0.8,1,1.6,1.6,2.4c0.4,0.6,0.9,1.1,1.4,1.6
		c0.6,0.5,1.2,1,1.8,1.4c0.9,0.5,2,0.9,3,1.2c3,1.1,7.7,2.2,9.2,3.1c0.5,0.3,0.5,0.3,0.5,0.3c0.1,0,0,0,0,0c0,0,0.1,0.1,0,0
		c0,0,0,0-0.4,0.2c-1.2,0.5-7.5,1.2-7.5,1.2s-2.1,0.3-3.1,0c-1.2-0.3-3.2-1.8-3.2-1.8s0.5,1.4,0.7,2.1c0.2,0.8,0.3,1.6,0.6,2.3
		c0.3,0.8,0.7,1.5,1.2,2.2c0.5,0.6,1,1.2,1.6,1.7c0.5,0.4,1.1,0.7,1.7,1c1,0.4,2,0.7,3,0.9c1,0.2,1.9,0.2,2.9,0.3
		c1.5,0.1,4.5,0.2,4.5,0.2s0.3,0.1,0.4,0.2c0,0,0,0.2,0,0.2s-0.9,0.5-1.3,0.8c-0.4,0.3-0.9,0.6-1.3,0.9c-0.4,0.3-0.7,0.5-1.1,0.8
		c-0.3,0.3-0.7,0.6-0.9,0.9c-0.2,0.3-0.4,0.6-0.5,1c-0.1,0.3-0.2,0.7-0.3,1c0,0.4,0,0.7,0.1,1.1c0,0.3,0.1,0.6,0.2,0.9
		c0.1,0.3,0.3,0.6,0.5,0.9c0.3,0.3,0.6,0.6,0.9,0.9c0.7,0.6,2.2,1.7,2.2,1.7s0.4,2.4,0.6,3.6c0.1,0.5,0.2,0.9,0.4,1.4
		c0.2,0.5,0.4,1.1,0.6,1.6c0.2,0.6,0.5,1.1,0.8,1.7c0.4,0.6,0.8,1.2,1.4,1.8c0.6,0.6,1.2,1,1.9,1.5c0.6,0.4,1.2,0.8,1.8,1.1
		c0.7,0.3,1.5,0.6,2.3,0.8c0.9,0.2,1.8,0.3,2.7,0.4c1.4,0.2,2.8,0.3,4.2,0.3c1.4,0,2.8-0.1,4.2-0.3c1.6-0.1,3.1-0.4,4.7-0.5
		c1.6-0.1,4.9-0.4,4.9-0.4s0.8,0.1,1.2,0.2c0.2,0,0.4,0.1,0.5,0.2c0.1,0.1,0.1,0.3,0.1,0.4c0,0.1,0,0.3,0,0.4
		c-0.1,0.2-0.5,0.6-0.5,0.6s-0.9,0.8-1.3,1.2c-0.5,0.4-1,0.8-1.6,1.2c-2.5,1.7-5.2,3.1-7.7,4.7c-3.8,2.4-7.6,4.9-11.3,7.4
		c-0.5,0.4-1,0.7-1.5,1.1c-0.3,0.3-0.7,0.6-0.9,1c-0.2,0.3-0.5,0.7-0.6,1c-0.1,0.3-0.2,0.6-0.3,1c0,0.3-0.1,0.6,0,0.9
		c0.1,0.4,0.2,0.9,0.5,1.2c0.3,0.4,0.7,0.7,1.1,1.1c0.4,0.4,0.9,0.7,1.4,1c0.5,0.3,1.1,0.5,1.6,0.8c0.6,0.3,1.3,0.4,1.9,0.8
		c0.3,0.2,0.4,0.5,0.6,0.8c0.3,0.4,0.5,0.8,0.8,1.2c0.3,0.4,0.6,0.8,0.9,1.1c0.3,0.3,0.7,0.6,1.1,0.9c0.3,0.2,0.7,0.3,1.1,0.4
		c0.5,0.1,0.9,0.2,1.4,0.1c0.5,0,0.9-0.2,1.4-0.4c0.7-0.2,1.3-0.7,2-0.9c0.2-0.1,0.4-0.2,0.7-0.1c0.2,0,0.3,0.2,0.5,0.4
		c0.4,0.4,0.7,0.9,1,1.3c0.4,0.5,0.7,1,1.1,1.4c0.5,0.6,1,1.1,1.6,1.7c0.1,0.1,0.1,0.1,0.2,0.2c0.6,0.5,0.9,0.8,1.5,1.2
		c0.5,0.3,0.9,0.6,1.4,0.8c0.6,0.2,1.3,0.3,1.9,0.4c1.9,0.2,5.6-0.1,5.6-0.1s0-2.9,0.2-4.3c0.1-1.1,0.3-2.2,0.6-3.3
		c0.2-0.8,0.4-1.6,0.7-2.4c0.2-0.8,0.5-1.6,0.8-2.3c0.2-0.6,0.5-1.1,0.9-1.7c0.3-0.5,0.7-1.1,1.1-1.6c0.4-0.5,0.9-1,1.4-1.5
		c0.6-0.6,1.2-1.2,1.8-1.8c0.6-0.6,1.3-1.2,2-1.7c0.6-0.5,1.1-0.9,1.7-1.4c0.7-0.5,1.3-1,2-1.5c0.6-0.4,1.1-0.9,1.7-1.4
		c0.6-0.5,1.2-0.9,1.8-1.3c0.6-0.5,1.1-1,1.7-1.5c0.6-0.5,1.1-1.1,1.6-1.6c0.5-0.5,1-1.1,1.5-1.6c0.5-0.6,0.9-1.2,1.3-1.8
		c0.4-0.7,1.1-2.2,1.1-2.2s0.7-1.6,1-2.4c0.4-1.4,0.7-2.8,1-4.2c0.2-1.3,0.3-2.7,0.4-4.1c0-0.3,0-0.6,0-0.8c0.1-1.2,0.1-2.3,0.1-3.5
		c0-1.1,0-2.2,0.1-3.3c0.1-1.1,0.2-2.1,0.4-3.2c0.2-1,0.5-1.9,0.8-2.8c0.1-0.2,0.2-0.4,0.2-0.6c0.4-1.2,1-2.3,1.6-3.4
		c0.4-0.8,0.9-1.5,1.4-2.2c0.5-0.8,1.1-1.5,1.7-2.2c0.4-0.4,0.9-0.8,1.4-1.2c0.3-0.2,0.6-0.4,0.9-0.6c0.1-0.1,0.3-0.1,0.4-0.2
		c1.1-0.4,3.6-0.6,3.6-0.6l-0.6-0.3c0,0-1.7-1-2.5-1.6c-0.2-0.2-0.4-0.3-0.6-0.5c-0.4-0.3-0.7-0.6-1.1-0.9c-0.4-0.4-0.7-0.7-1.1-1.1
		c-0.5-0.5-1-0.9-1.6-1.4c-0.5-0.4-1-0.8-1.6-1.2c-0.4-0.3-0.9-0.7-1.3-1c-0.4-0.3-0.9-0.5-1.3-0.7c-0.4-0.2-0.8-0.4-1.1-0.5
		c-0.4-0.2-0.9-0.3-1.3-0.4c-0.5-0.1-1-0.2-1.6-0.2c-0.4,0-0.7,0-1.1,0c-0.4,0.1-0.9,0.3-1.3,0.5c-0.5,0.3-1,0.7-1.5,1
		c-0.5,0.4-0.2,0.1-1.3,1.3c-1.1,1.2-3.2,4.3-5,6.3c-0.5,0.6-1.1,1.3-1.7,1.8c-0.5,0.4-1.1,0.6-1.7,0.9c-0.6,0.2-1.1,0.5-1.7,0.6
		c-0.6,0.2-1.2,0.3-1.8,0.3c-0.6,0-1.2,0-1.8-0.2c-0.5-0.2-1-0.4-1.4-0.8c-1.2-0.9-2.2-2.1-3.3-3.1c-0.8-0.8-1.6-1.5-2.5-2.3
		c-0.7-0.7-1.5-1.4-2.3-2c-0.6-0.5-1.2-0.9-1.9-1.2c-0.6-0.3-1.2-0.6-1.8-0.8c-0.8-0.3-1.7-0.6-2.6-0.9c-0.9-0.3-1.8-0.5-2.7-0.7
		c-1.1-0.2-2.3-0.4-3.4-0.5c-2.4-0.2-4.9-0.1-7.4-0.3c-1.6-0.1-3.2-0.2-4.7-0.4c-1.5-0.2-2.6-0.4-4.6-0.7c-2-0.4-4.9-0.9-7.4-1.5
		c-2.8-0.6-5.5-1.4-8.3-2.1c-1.6-0.4-3.1-1-4.7-1.2C-390.3,927.5-390.7,927.5-391.1,927.4L-391.1,927.4z M-374,942.7
		C-374,942.7-374,942.7-374,942.7C-374,942.7-374,942.7-374,942.7C-374,942.7-374,942.7-374,942.7C-374,942.7-374,942.7-374,942.7z
		 M-374,942.7c-0.1,0-0.1,0-0.1,0C-374.2,942.8-374.1,942.8-374,942.7z"/>
</g>
<g id="layer4" inkscape:label="Square" inkscape:groupmode="layer">
	<g id="g5738" class="st6">
		
			<radialGradient id="path5740_1_" cx="-443.5425" cy="2136.1663" r="88.0806" gradientTransform="matrix(4.591617e-004 1.9891 1.993 -4.600718e-004 -4691.7007 1756.2361)" gradientUnits="userSpaceOnUse">
			<stop  offset="0" style="stop-color:#FFFFFF"/>
			<stop  offset="1" style="stop-color:#FFFFFF;stop-opacity:0"/>
		</radialGradient>
		<path id="path5740" inkscape:connector-curvature="0" class="st7" d="M-428.5,994.9v-67.7l48-47.7l67.2,0.1l47.7,47.4l0.3,67.6
			l-48.2,48l-67.2-0.1L-428.5,994.9z"/>
		
			<radialGradient id="path5742_1_" cx="-443.5425" cy="2136.1663" r="88.0806" gradientTransform="matrix(4.591617e-004 1.9891 1.993 -4.600718e-004 -4691.7007 1756.2361)" gradientUnits="userSpaceOnUse">
			<stop  offset="0" style="stop-color:#FFFFFF"/>
			<stop  offset="1" style="stop-color:#FFFFFF;stop-opacity:0"/>
		</radialGradient>
		<path id="path5742" inkscape:connector-curvature="0" class="st8" d="M-428.6,994.2v-67.3l48-47.4l67.2,0.1l47.7,47.1l0.3,67.2
			l-48.2,47.7l-67.2-0.1L-428.6,994.2z"/>
		
			<radialGradient id="path5744_1_" cx="-443.5425" cy="2136.1663" r="88.0806" gradientTransform="matrix(4.591617e-004 1.9891 1.993 -4.600718e-004 -4691.7007 1756.2361)" gradientUnits="userSpaceOnUse">
			<stop  offset="0" style="stop-color:#FFFFFF"/>
			<stop  offset="1" style="stop-color:#FFFFFF;stop-opacity:0"/>
		</radialGradient>
		<path id="path5744" inkscape:connector-curvature="0" class="st9" d="M-428.6,994.2v-67.3l48-47.4l67.2,0.1l47.7,47.1l0.3,67.2
			l-48.2,47.7l-67.2-0.1L-428.6,994.2z"/>
	</g>
</g>
</svg>
