<?xml version="1.0" encoding="UTF-8" standalone="no"?>
<!-- Created with Inkscape (http://www.inkscape.org/) -->

<svg
   xmlns:dc="http://purl.org/dc/elements/1.1/"
   xmlns:cc="http://creativecommons.org/ns#"
   xmlns:rdf="http://www.w3.org/1999/02/22-rdf-syntax-ns#"
   xmlns:svg="http://www.w3.org/2000/svg"
   xmlns="http://www.w3.org/2000/svg"
   xmlns:xlink="http://www.w3.org/1999/xlink"
   xmlns:sodipodi="http://sodipodi.sourceforge.net/DTD/sodipodi-0.dtd"
   xmlns:inkscape="http://www.inkscape.org/namespaces/inkscape"
   inkscape:export-ydpi="90"
   inkscape:export-xdpi="90"
   inkscape:export-filename="C:\createme\Material Design Icons\PNG\adaway.png"
   sodipodi:docname="adaway.svg"
   inkscape:version="0.91 r13725"
   version="1.1"
   id="svg2"
   viewBox="0 0 192 192"
   height="192"
   width="192">
  <sodipodi:namedview
     inkscape:window-maximized="1"
     inkscape:window-y="-8"
     inkscape:window-x="-8"
     inkscape:window-height="1017"
     inkscape:window-width="1920"
     showguides="false"
     units="px"
     showgrid="false"
     inkscape:current-layer="layer1"
     inkscape:document-units="px"
     inkscape:cy="162.46603"
     inkscape:cx="113.30109"
     inkscape:zoom="2.8284271"
     inkscape:pageshadow="2"
     inkscape:pageopacity="0.0"
     borderopacity="1.0"
     bordercolor="#666666"
     pagecolor="#ffffff"
     id="base">
    <sodipodi:guide
       position="0,184"
       orientation="0,1"
       id="guide3354"
       inkscape:label=""
       inkscape:color="rgb(0,0,255)" />
    <sodipodi:guide
       position="8,0"
       orientation="1,0"
       id="guide3356"
       inkscape:label=""
       inkscape:color="rgb(0,0,255)" />
    <sodipodi:guide
       position="0,8"
       orientation="0,1"
       id="guide3358"
       inkscape:label=""
       inkscape:color="rgb(0,0,255)" />
    <sodipodi:guide
       position="184,0"
       orientation="1,0"
       id="guide3360"
       inkscape:label=""
       inkscape:color="rgb(0,0,255)" />
    <sodipodi:guide
       position="0,20"
       orientation="0,1"
       id="guide3362"
       inkscape:label=""
       inkscape:color="rgb(0,0,255)" />
    <sodipodi:guide
       position="172,0"
       orientation="1,0"
       id="guide3364"
       inkscape:label=""
       inkscape:color="rgb(0,0,255)" />
    <sodipodi:guide
       position="96,172"
       orientation="0,1"
       id="guide3366"
       inkscape:label=""
       inkscape:color="rgb(0,0,255)" />
    <sodipodi:guide
       position="20,0"
       orientation="1,0"
       id="guide3368"
       inkscape:label=""
       inkscape:color="rgb(0,0,255)" />
    <sodipodi:guide
       position="0,32"
       orientation="0,1"
       id="guide3370"
       inkscape:label=""
       inkscape:color="rgb(0,0,255)" />
    <sodipodi:guide
       position="160,0"
       orientation="1,0"
       id="guide3372"
       inkscape:label=""
       inkscape:color="rgb(0,0,255)" />
    <sodipodi:guide
       position="0,160"
       orientation="0,1"
       id="guide3374"
       inkscape:label=""
       inkscape:color="rgb(0,0,255)" />
    <sodipodi:guide
       position="32,0"
       orientation="1,0"
       id="guide3376"
       inkscape:label=""
       inkscape:color="rgb(0,0,255)" />
    <inkscape:grid
       type="xygrid"
       id="grid3378" />
    <sodipodi:guide
       position="0,0"
       orientation="-0.70710678,0.70710678"
       id="guide5849"
       inkscape:label=""
       inkscape:color="rgb(255,0,0)" />
    <sodipodi:guide
       position="124,0"
       orientation="1,0"
       id="guide5851"
       inkscape:label=""
       inkscape:color="rgb(255,0,0)" />
    <sodipodi:guide
       position="0,192"
       orientation="0.70710678,0.70710678"
       id="guide5853"
       inkscape:label=""
       inkscape:color="rgb(255,0,0)" />
    <sodipodi:guide
       position="96,0"
       orientation="1,0"
       id="guide5855"
       inkscape:label=""
       inkscape:color="rgb(255,0,0)" />
    <sodipodi:guide
       position="0,96"
       orientation="0,1"
       id="guide5859"
       inkscape:label=""
       inkscape:color="rgb(255,0,0)" />
    <sodipodi:guide
       position="0,124"
       orientation="0,1"
       id="guide5861"
       inkscape:label=""
       inkscape:color="rgb(255,0,0)" />
    <sodipodi:guide
       position="0,68"
       orientation="0,1"
       id="guide5863"
       inkscape:label=""
       inkscape:color="rgb(255,0,0)" />
    <sodipodi:guide
       position="68,0"
       orientation="1,0"
       id="guide5865"
       inkscape:label=""
       inkscape:color="rgb(255,0,0)" />
    <sodipodi:guide
       position="192,0"
       orientation="-192,0"
       id="guide5869" />
    <sodipodi:guide
       position="192,192"
       orientation="0,-192"
       id="guide5871" />
  </sodipodi:namedview>
  <defs
     id="defs4">
    <linearGradient
       inkscape:collect="always"
       id="linearGradient5046">
      <stop
         style="stop-color:#ffffff;stop-opacity:1;"
         offset="0"
         id="stop5048" />
      <stop
         style="stop-color:#ffffff;stop-opacity:0;"
         offset="1"
         id="stop5050" />
    </linearGradient>
    <clipPath
       clipPathUnits="userSpaceOnUse"
       id="clipPath10430">
      <path
         inkscape:connector-curvature="0"
         d="m 1241.028,39.3409 224.537,0 0,178.031 -224.537,0 0,-178.031 z"
         id="path10432" />
    </clipPath>
    <clipPath
       clipPathUnits="userSpaceOnUse"
       id="clipPath10438">
      <path
         inkscape:connector-curvature="0"
         d="m 1260.156,213.3477 0,-170.2268 191.3337,0 0,170.2268"
         id="path10440" />
    </clipPath>
    <filter
       style="color-interpolation-filters:sRGB;"
       inkscape:label="Drop Shadow"
       id="filter5248">
      <feFlood
         flood-opacity="0.2"
         flood-color="rgb(0,0,0)"
         result="flood"
         id="feFlood5250" />
      <feComposite
         in="flood"
         in2="SourceGraphic"
         operator="in"
         result="composite1"
         id="feComposite5252" />
      <feGaussianBlur
         in="composite1"
         stdDeviation="2"
         result="blur"
         id="feGaussianBlur5254" />
      <feOffset
         dx="4.57967e-015"
         dy="4"
         result="offset"
         id="feOffset5256" />
      <feComposite
         in="SourceGraphic"
         in2="offset"
         operator="over"
         result="fbSourceGraphic"
         id="feComposite5258" />
      <feColorMatrix
         result="fbSourceGraphicAlpha"
         in="fbSourceGraphic"
         values="0 0 0 -1 0 0 0 0 -1 0 0 0 0 -1 0 0 0 0 1 0"
         id="feColorMatrix4249" />
      <feFlood
         id="feFlood4251"
         flood-opacity="0.2"
         flood-color="rgb(0,0,0)"
         result="flood"
         in="fbSourceGraphic" />
      <feComposite
         id="feComposite4253"
         in2="fbSourceGraphic"
         in="flood"
         operator="in"
         result="composite1" />
      <feGaussianBlur
         id="feGaussianBlur4255"
         in="composite1"
         stdDeviation="2"
         result="blur" />
      <feOffset
         id="feOffset4257"
         dx="0"
         dy="0"
         result="offset" />
      <feComposite
         id="feComposite4259"
         in2="offset"
         in="fbSourceGraphic"
         operator="over"
         result="composite2" />
    </filter>
    <linearGradient
       id="linearGradient3906">
      <stop
         id="stop3908"
         offset="0"
         style="stop-color:#ffffff;stop-opacity:0;" />
      <stop
         id="stop3910"
         offset="0.3588765"
         style="stop-color:#ffffff;stop-opacity:1;" />
      <stop
         id="stop3912"
         offset="0.88415229"
         style="stop-color:#ffffff;stop-opacity:0.43333334;" />
      <stop
         id="stop3914"
         offset="1"
         style="stop-color:#ffffff;stop-opacity:0;" />
    </linearGradient>
    <marker
       style="overflow:visible"
       id="Tail"
       refX="0.0"
       refY="0.0"
       orient="auto"
       inkscape:stockid="Tail">
      <g
         transform="scale(-1.2)"
         id="g4692">
        <path
           style="fill:none;fill-rule:evenodd;stroke:#000000;stroke-width:0.8;marker-start:none;marker-end:none;stroke-linecap:round"
           d="M -3.8048674,-3.9585227 L 0.54352094,0"
           id="path4694" />
        <path
           style="fill:none;fill-rule:evenodd;stroke:#000000;stroke-width:0.8;marker-start:none;marker-end:none;stroke-linecap:round"
           d="M -1.2866832,-3.9585227 L 3.0617053,0"
           id="path4696" />
        <path
           style="fill:none;fill-rule:evenodd;stroke:#000000;stroke-width:0.8;marker-start:none;marker-end:none;stroke-linecap:round"
           d="M 1.3053582,-3.9585227 L 5.6537466,0"
           id="path4698" />
        <path
           style="fill:none;fill-rule:evenodd;stroke:#000000;stroke-width:0.8;marker-start:none;marker-end:none;stroke-linecap:round"
           d="M -3.8048674,4.1775838 L 0.54352094,0.21974226"
           id="path4700" />
        <path
           style="fill:none;fill-rule:evenodd;stroke:#000000;stroke-width:0.8;marker-start:none;marker-end:none;stroke-linecap:round"
           d="M -1.2866832,4.1775838 L 3.0617053,0.21974226"
           id="path4702" />
        <path
           style="fill:none;fill-rule:evenodd;stroke:#000000;stroke-width:0.8;marker-start:none;marker-end:none;stroke-linecap:round"
           d="M 1.3053582,4.1775838 L 5.6537466,0.21974226"
           id="path4704" />
      </g>
    </marker>
    <linearGradient
       id="linearGradient4263">
      <stop
         id="stop4265"
         offset="0"
         style="stop-color:#bfbfbf;stop-opacity:1;" />
      <stop
         id="stop4267"
         offset="1"
         style="stop-color:#ffffff;stop-opacity:1;" />
    </linearGradient>
    <linearGradient
       id="linearGradient4158">
      <stop
         id="stop4160"
         offset="0"
         style="stop-color:#ffffff;stop-opacity:1;" />
      <stop
         id="stop4162"
         offset="1"
         style="stop-color:#ffffff;stop-opacity:0;" />
    </linearGradient>
    <linearGradient
       id="linearGradient3177">
      <stop
         style="stop-color:#ffffff;stop-opacity:0;"
         offset="0"
         id="stop3187" />
      <stop
         style="stop-color:#ffffff;stop-opacity:1;"
         offset="0.4375"
         id="stop3200" />
      <stop
         style="stop-color:#ffffff;stop-opacity:0.43333334;"
         offset="0.9375"
         id="stop3191" />
      <stop
         style="stop-color:#ffffff;stop-opacity:0;"
         offset="1"
         id="stop3181" />
    </linearGradient>
    <inkscape:perspective
       sodipodi:type="inkscape:persp3d"
       inkscape:vp_z="744.09448 : 526.18109 : 1"
       inkscape:vp_y="0 : 1000 : 0"
       inkscape:vp_x="0 : 526.18109 : 1"
       inkscape:persp3d-origin="372.04724 : 350.78739 : 1"
       id="perspective10" />
    <linearGradient
       y2="645.40979"
       x2="416.38455"
       y1="402.10623"
       x1="337.49271"
       gradientTransform="matrix(0.08737273,0,0,0.08134103,83.682183,966.62592)"
       gradientUnits="userSpaceOnUse"
       id="linearGradient3341"
       xlink:href="#linearGradient4158"
       inkscape:collect="always" />
    <linearGradient
       gradientTransform="matrix(0.08334585,0,0,0.08334585,2.6106401,974.71004)"
       y2="646.65405"
       x2="425.96066"
       y1="164.76173"
       x1="356.35681"
       gradientUnits="userSpaceOnUse"
       id="linearGradient3345"
       xlink:href="#linearGradient3177"
       inkscape:collect="always" />
    <radialGradient
       gradientUnits="userSpaceOnUse"
       gradientTransform="matrix(1,0,0,0.90369811,0,3.9133352)"
       r="17.497915"
       fy="40.636124"
       fx="33.772423"
       cy="40.636124"
       cx="33.772423"
       id="radialGradient4275"
       xlink:href="#linearGradient4263"
       inkscape:collect="always" />
    <filter
       id="filter6059"
       inkscape:label="Drop Shadow"
       style="color-interpolation-filters:sRGB;">
      <feFlood
         id="feFlood6061"
         result="flood"
         flood-color="rgb(62,39,35)"
         flood-opacity="0.2" />
      <feComposite
         id="feComposite6063"
         result="composite1"
         operator="in"
         in2="SourceGraphic"
         in="flood" />
      <feGaussianBlur
         id="feGaussianBlur6065"
         result="blur"
         stdDeviation="4"
         in="composite1" />
      <feOffset
         id="feOffset6067"
         result="offset"
         dy="4"
         dx="0" />
      <feComposite
         id="feComposite6069"
         result="composite2"
         operator="over"
         in2="offset"
         in="SourceGraphic" />
    </filter>
    <radialGradient
       inkscape:collect="always"
       xlink:href="#linearGradient5046"
       id="radialGradient5052"
       cx="8"
       cy="8"
       fx="8"
       fy="8"
       r="88"
       gradientUnits="userSpaceOnUse"
       gradientTransform="matrix(0,2,-2,0,24,-8.0000002)" />
  </defs>
  <metadata
     id="metadata7">
    <rdf:RDF>
      <cc:Work
         rdf:about="">
        <dc:format>image/svg+xml</dc:format>
        <dc:type
           rdf:resource="http://purl.org/dc/dcmitype/StillImage" />
        <dc:title></dc:title>
      </cc:Work>
    </rdf:RDF>
  </metadata>
  <g
     inkscape:groupmode="layer"
     id="layer2"
     inkscape:label="background">
    <path
       inkscape:connector-curvature="0"
       id="path6082"
       d="M 8,57.789473 8,134.21053 57.789473,184 134.21053,184 184,134.21053 184,57.789473 134.21053,8 57.789473,8 Z"
       style="fill:#f5f5f5;fill-opacity:1;fill-rule:evenodd;stroke:none;stroke-width:1px;stroke-linecap:butt;stroke-linejoin:miter;stroke-opacity:1;filter:url(#filter5248)" />
    <path
       sodipodi:nodetypes="ccccccccc"
       style="fill:#f44336;fill-opacity:1;fill-rule:evenodd;stroke:none;stroke-width:1px;stroke-linecap:butt;stroke-linejoin:miter;stroke-opacity:1"
       d="m 63.578947,21.894737 -41.68421,41.68421 0,64.842103 41.68421,41.68422 64.842113,0 41.6842,-41.68422 0,-64.842103 -41.6842,-41.68421 z"
       id="path4333"
       inkscape:connector-curvature="0" />
  </g>
  <g
     inkscape:label="objects"
     inkscape:groupmode="layer"
     id="layer1"
     transform="translate(0,-860.36216)">
    <g
       id="g4382" />
    <path
       transform="matrix(0.90078109,0,0,0.9007811,9.697487,97.3871)"
       sodipodi:nodetypes="cccscsccccccccssccccc"
       inkscape:connector-curvature="0"
       id="path6121"
       d="m 43.350117,918.52033 c -4.949516,-5.98961 16.496919,5.59955 43.064747,5.69621 11.087456,0.68107 15.280136,3.88229 18.394186,7.13356 6.98649,6.56291 8.50484,9.89018 17.34318,5.64457 3.60039,-1.72917 8.0323,-11.95962 13.03026,-13.05512 3.89642,-0.56695 9.61279,4.33776 11.04496,5.74679 1.56343,1.53851 2.98541,2.96686 4.47872,3.64926 -5.12717,0.2709 -12.23222,12.20193 -12.41277,22.33626 1.02241,28.315 -11.76212,26.75345 -24.33678,40.60749 -4.00931,3.81025 -6.25702,11.79225 -6.26072,19.07275 l -5.28138,-0.1615 c -3.130694,0.072 -6.704146,-3.9909 -8.435165,-6.712 -3.305225,-5.4915 -6.722731,5.0308 -11.864552,-3.5913 0.237961,-2.8511 -13.726441,-3.4085 -5.70348,-10.06809 18.949278,-13.37368 28.201937,-16.19067 27.805547,-20.22258 -0.4683,-4.7633 -11.579006,-0.4499 -21.613514,-0.91225 -16.576479,-0.76343 -14.752398,-11.23671 -16.221838,-16.11017 -13.916237,-7.72673 10.697588,-11.3617 -0.111385,-13.64113 -5.281549,-0.83731 -14.600416,1.12118 -16.564247,-7.9865 1.766063,2.17536 24.874644,-2.27282 15.561221,-3.72315 -12.922923,-5.84688 -16.558699,-2.71716 -21.91699,-13.7039 z"
       style="fill:#f5f5f5;fill-opacity:1;fill-rule:nonzero;stroke:none;stroke-width:2.94899988;stroke-linecap:butt;stroke-linejoin:miter;stroke-miterlimit:4;stroke-dasharray:none;stroke-opacity:1;filter:url(#filter6059)" />
    <g
       id="g5066">
      <path
         id="path5056"
         transform="translate(0,860.36216)"
         d="M 49.033203 62.869141 C 48.100545 62.817333 47.846755 63.116561 48.384766 63.927734 C 50.703817 63.143203 67.499943 70.468108 87.539062 70.541016 C 97.526433 71.154516 101.30234 74.038107 104.10742 76.966797 C 110.40072 82.878537 111.76906 85.877094 119.73047 82.052734 C 122.97363 80.495134 126.96473 71.279779 131.4668 70.292969 C 134.97662 69.782279 140.12595 74.19953 141.41602 75.46875 C 142.41202 76.448879 143.3449 77.36665 144.28125 78.044922 C 144.67931 77.890479 145.07263 77.77586 145.45117 77.755859 C 144.10603 77.141166 142.82432 75.854611 141.41602 74.46875 C 140.12594 73.199522 134.97662 68.782271 131.4668 69.292969 C 126.96473 70.279774 122.97363 79.495131 119.73047 81.052734 C 111.76906 84.8771 110.40072 81.878542 104.10742 75.966797 C 101.30234 73.038114 97.526433 70.154511 87.539062 69.541016 C 68.842346 69.472993 52.960532 63.087296 49.033203 62.869141 z M 70 78.136719 C 67.500898 79.716255 55.655963 81.567374 54.470703 80.107422 C 54.565348 80.546359 54.683449 80.952156 54.814453 81.335938 C 57.631807 82.585595 73.322815 79.616071 70 78.136719 z M 71.701172 89.162109 C 70.491948 90.700753 64.947573 92.782634 65.609375 95.800781 C 66.310645 92.65381 73.294409 90.624124 71.701172 89.162109 z M 134.28516 98.605469 C 134.28237 98.695375 134.27113 98.787348 134.26953 98.876953 C 134.29445 99.56696 134.30554 100.22748 134.3125 100.87891 C 134.31509 100.1464 134.3064 99.388868 134.28516 98.605469 z M 103.52344 115.63867 C 102.77383 118.93592 94.457383 121.89586 78.527344 133.13867 C 76.599139 134.73921 76.088875 135.94661 76.361328 136.9082 C 76.562553 136.13601 77.214778 135.22819 78.527344 134.13867 C 95.596495 122.09191 103.93128 119.5557 103.57422 115.92383 C 103.5643 115.82296 103.54381 115.73066 103.52344 115.63867 z "
         style="fill:#ffffff;fill-opacity:1;fill-rule:nonzero;stroke:none;stroke-width:2.94899988;stroke-linecap:butt;stroke-linejoin:miter;stroke-miterlimit:4;stroke-dasharray:none;stroke-opacity:1;opacity:0.2" />
      <path
         id="path5063"
         transform="translate(0,860.36216)"
         d="M 48.384766 63.927734 C 47.934281 64.080133 48.020898 64.532569 48.746094 65.410156 C 53.572741 75.306806 56.847556 72.487146 68.488281 77.753906 C 69.194203 77.863836 69.678791 77.993713 70 78.136719 C 70.855151 77.596228 70.627108 77.086974 68.488281 76.753906 C 56.847557 71.487147 53.572741 74.306804 48.746094 64.410156 C 48.597986 64.230925 48.481098 64.072977 48.384766 63.927734 z M 144.28125 78.044922 C 139.82267 79.7748 134.41884 89.496356 134.26953 97.876953 C 134.2786 98.128048 134.27849 98.359551 134.28516 98.605469 C 134.56667 89.53596 140.87805 78.997484 145.45117 78.755859 C 145.05736 78.5759 144.66886 78.325697 144.28125 78.044922 z M 54.470703 81.107422 C 56.239685 89.311452 64.635058 87.548504 69.392578 88.302734 C 70.646095 88.56708 71.363258 88.852027 71.701172 89.162109 C 72.272235 88.435477 71.884099 87.828154 69.392578 87.302734 C 64.889599 86.588855 57.131996 88.125275 54.814453 81.335938 C 54.667509 81.270759 54.542927 81.196384 54.470703 81.107422 z M 65.609375 95.800781 C 65.304106 97.170686 66.179815 98.750712 69.492188 100.58984 C 70.815832 104.97976 69.17369 114.41387 84.105469 115.10156 C 92.931873 115.50824 102.67709 111.81749 103.52344 115.63867 C 103.57704 115.40289 103.59805 115.1662 103.57422 114.92383 C 103.15238 110.63314 93.144364 114.51804 84.105469 114.10156 C 69.17369 113.41388 70.815831 103.97976 69.492188 99.589844 C 66.956891 98.182168 65.856395 96.927315 65.609375 95.800781 z M 134.3125 100.87891 C 134.23334 123.27345 123.20793 122.48985 112.34766 134.45508 C 108.73615 137.88728 106.71036 145.07663 106.70703 151.63477 L 101.95117 151.49023 C 99.131102 151.55509 95.910832 147.89447 94.351562 145.44336 C 91.374278 140.49672 88.295718 149.97561 83.664062 142.20898 C 83.821223 140.32599 77.110032 139.55067 76.361328 136.9082 C 75.454615 140.38768 83.839483 141.10722 83.664062 143.20898 C 88.295718 150.97558 91.374279 141.49666 94.351562 146.44336 C 95.910831 148.89446 99.131102 152.55523 101.95117 152.49023 L 106.70703 152.63477 C 106.71036 146.07657 108.73614 138.88728 112.34766 135.45508 C 123.36824 123.31323 134.56282 124.30684 134.3125 100.87891 z "
         style="fill:#3e2723;fill-opacity:1;fill-rule:nonzero;stroke:none;stroke-width:2.94899988;stroke-linecap:butt;stroke-linejoin:miter;stroke-miterlimit:4;stroke-dasharray:none;stroke-opacity:1;opacity:0.2" />
    </g>
  </g>
  <g
     inkscape:groupmode="layer"
     id="layer3"
     inkscape:label="finish"
     sodipodi:insensitive="true">
    <path
       style="opacity:0.2;fill:#000000;fill-opacity:1;fill-rule:evenodd;stroke:none;stroke-width:1px;stroke-linecap:butt;stroke-linejoin:miter;stroke-opacity:1"
       d="m 8,133.21094 0,1 L 57.789062,184 134.21094,184 184,134.21094 l 0,-1 L 134.21094,183 57.789062,183 8,133.21094 Z"
       id="path5014"
       inkscape:connector-curvature="0" />
    <path
       style="opacity:0.2;fill:#ffffff;fill-opacity:1;fill-rule:evenodd;stroke:none;stroke-width:1px;stroke-linecap:butt;stroke-linejoin:miter;stroke-opacity:1"
       d="M 57.789062,8 8,57.789062 l 0,1 L 57.789062,9 134.21094,9 184,58.789062 l 0,-1 L 134.21094,8 57.789062,8 Z"
       id="path5009"
       inkscape:connector-curvature="0" />
    <path
       style="opacity:0.1;fill:url(#radialGradient5052);fill-opacity:1;fill-rule:evenodd;stroke:none;stroke-width:1px;stroke-linecap:butt;stroke-linejoin:miter;stroke-opacity:1"
       d="M 8,57.789473 8,134.21053 57.789473,184 134.21053,184 184,134.21053 184,57.789473 134.21053,8 57.789473,8 Z"
       id="path5043"
       inkscape:connector-curvature="0" />
  </g>
</svg>
