<?xml version="1.0" encoding="UTF-8" standalone="no"?>
<!-- Created with Inkscape (http://www.inkscape.org/) -->

<svg
   xmlns:dc="http://purl.org/dc/elements/1.1/"
   xmlns:cc="http://creativecommons.org/ns#"
   xmlns:rdf="http://www.w3.org/1999/02/22-rdf-syntax-ns#"
   xmlns:svg="http://www.w3.org/2000/svg"
   xmlns="http://www.w3.org/2000/svg"
   xmlns:xlink="http://www.w3.org/1999/xlink"
   xmlns:sodipodi="http://sodipodi.sourceforge.net/DTD/sodipodi-0.dtd"
   xmlns:inkscape="http://www.inkscape.org/namespaces/inkscape"
   width="192"
   height="192"
   id="svg2"
   version="1.1"
   inkscape:version="0.91 r13725"
   sodipodi:docname="ally.svg"
   inkscape:export-filename="C:\Users\Simon\Documents\Material Design Icons\PNG\ally.png"
   inkscape:export-xdpi="90"
   inkscape:export-ydpi="90">
  <sodipodi:namedview
     id="base"
     pagecolor="#ffffff"
     bordercolor="#666666"
     borderopacity="1.0"
     inkscape:pageopacity="0.0"
     inkscape:pageshadow="2"
     inkscape:zoom="2.8284271"
     inkscape:cx="106.31139"
     inkscape:cy="120.22234"
     inkscape:document-units="px"
     inkscape:current-layer="layer4"
     showgrid="true"
     showguides="false"
     inkscape:guide-bbox="true"
     inkscape:window-width="1920"
     inkscape:window-height="1017"
     inkscape:window-x="-8"
     inkscape:window-y="-8"
     inkscape:window-maximized="1"
     inkscape:snap-global="false">
    <inkscape:grid
       type="xygrid"
       id="grid2985"
       empspacing="5"
       visible="true"
       enabled="true"
       snapvisiblegridlinesonly="true" />
    <sodipodi:guide
       orientation="1,0"
       position="8,58.524064"
       id="guide3002" />
    <sodipodi:guide
       orientation="1,0"
       position="20,69.304813"
       id="guide3004" />
    <sodipodi:guide
       orientation="1,0"
       position="32,62.631016"
       id="guide3006" />
    <sodipodi:guide
       orientation="1,0"
       position="68,53.390374"
       id="guide3008" />
    <sodipodi:guide
       orientation="0,1"
       position="119.61497,8"
       id="guide3010" />
    <sodipodi:guide
       orientation="0,1"
       position="155.5508,20"
       id="guide3012" />
    <sodipodi:guide
       orientation="0,1"
       position="132.96257,32"
       id="guide3014" />
    <sodipodi:guide
       orientation="0,1"
       position="130.90909,68"
       id="guide3016" />
    <sodipodi:guide
       orientation="0,1"
       position="137.06952,184"
       id="guide3018" />
    <sodipodi:guide
       orientation="1,0"
       position="184,145.79679"
       id="guide3020" />
    <sodipodi:guide
       orientation="0,1"
       position="91.379679,172"
       id="guide3022" />
    <sodipodi:guide
       orientation="1,0"
       position="172.15693,140.10142"
       id="guide3024" />
    <sodipodi:guide
       orientation="0,1"
       position="149.39037,160"
       id="guide3026" />
    <sodipodi:guide
       orientation="1,0"
       position="160,88.299465"
       id="guide3028" />
    <sodipodi:guide
       orientation="0,1"
       position="128.34225,124"
       id="guide3030" />
    <sodipodi:guide
       orientation="1,0"
       position="124,92.919786"
       id="guide3032" />
  </sodipodi:namedview>
  <defs
     id="defs4">
    <linearGradient
       inkscape:collect="always"
       id="linearGradient8372">
      <stop
         style="stop-color:#1a237e;stop-opacity:1;"
         offset="0"
         id="stop8374" />
      <stop
         style="stop-color:#1a237e;stop-opacity:0;"
         offset="1"
         id="stop8376" />
    </linearGradient>
    <inkscape:perspective
       id="perspective6853"
       inkscape:persp3d-origin="96 : 64 : 1"
       inkscape:vp_z="192 : 96 : 1"
       inkscape:vp_y="0 : 1000 : 0"
       inkscape:vp_x="0 : 96 : 1"
       sodipodi:type="inkscape:persp3d" />
    <linearGradient
       inkscape:collect="always"
       id="linearGradient7772">
      <stop
         style="stop-color:#ffffff;stop-opacity:1;"
         offset="0"
         id="stop7774" />
      <stop
         style="stop-color:#ffffff;stop-opacity:0;"
         offset="1"
         id="stop7776" />
    </linearGradient>
    <linearGradient
       inkscape:collect="always"
       id="linearGradient7764">
      <stop
         style="stop-color:#ffffff;stop-opacity:1;"
         offset="0"
         id="stop7766" />
      <stop
         style="stop-color:#ffffff;stop-opacity:0;"
         offset="1"
         id="stop7768" />
    </linearGradient>
    <filter
       style="color-interpolation-filters:sRGB;"
       inkscape:label="Drop Shadow"
       id="filter7743">
      <feFlood
         flood-opacity="0.301961"
         flood-color="rgb(0,0,0)"
         result="flood"
         id="feFlood7745" />
      <feComposite
         in="flood"
         in2="SourceGraphic"
         operator="in"
         result="composite1"
         id="feComposite7747" />
      <feGaussianBlur
         in="composite1"
         stdDeviation="1.7"
         result="blur"
         id="feGaussianBlur7749" />
      <feOffset
         dx="4.57967e-015"
         dy="3"
         result="offset"
         id="feOffset7751" />
      <feComposite
         in="SourceGraphic"
         in2="offset"
         operator="over"
         result="composite2"
         id="feComposite7753" />
    </filter>
    <radialGradient
       inkscape:collect="always"
       xlink:href="#linearGradient7764"
       id="radialGradient7770"
       cx="20.009592"
       cy="20.198151"
       fx="20.009592"
       fy="20.198149"
       r="75.999997"
       gradientUnits="userSpaceOnUse"
       gradientTransform="matrix(0.00253475,1.9947837,-2.002355,0.00254437,60.402743,-19.768048)" />
    <radialGradient
       inkscape:collect="always"
       xlink:href="#linearGradient7772"
       id="radialGradient7778"
       cx="20.009592"
       cy="20.198151"
       fx="20.009592"
       fy="20.198151"
       r="75.999997"
       gradientUnits="userSpaceOnUse"
       gradientTransform="matrix(0.00253472,1.9947836,-2.0023549,0.00254435,60.40274,-19.768047)" />
    <filter
       id="filter9347"
       inkscape:label="Drop Shadow"
       style="color-interpolation-filters:sRGB;">
      <feFlood
         id="feFlood9349"
         result="flood"
         flood-color="rgb(0,0,0)"
         flood-opacity="0.101961" />
      <feComposite
         id="feComposite9351"
         result="composite1"
         operator="in"
         in2="SourceGraphic"
         in="flood" />
      <feGaussianBlur
         id="feGaussianBlur9353"
         result="blur"
         stdDeviation="3"
         in="composite1" />
      <feOffset
         id="feOffset9355"
         result="offset"
         dy="3"
         dx="4.57967e-015" />
      <feComposite
         id="feComposite9357"
         result="composite2"
         operator="over"
         in2="offset"
         in="SourceGraphic" />
    </filter>
    <linearGradient
       inkscape:collect="always"
       xlink:href="#linearGradient8372"
       id="linearGradient8378"
       x1="50.643364"
       y1="49.046169"
       x2="171.88614"
       y2="170.56906"
       gradientUnits="userSpaceOnUse"
       gradientTransform="matrix(1.0874468,0,0,1.0874468,-8.4103859,-7.4711507)" />
    <filter
       style="color-interpolation-filters:sRGB;"
       inkscape:label="Drop Shadow"
       id="filter8392"
       width="1.5400000000000003"
       x="-0.27000000000000013"
       height="1.4100000000000001"
       y="-0.20000000000000007">
      <feFlood
         flood-opacity="0.2"
         flood-color="rgb(26,35,126)"
         result="flood"
         id="feFlood8394" />
      <feComposite
         in="flood"
         in2="SourceGraphic"
         operator="in"
         result="composite1"
         id="feComposite8396" />
      <feGaussianBlur
         in="composite1"
         stdDeviation="6"
         result="blur"
         id="feGaussianBlur8398" />
      <feOffset
         dx="4.57967e-015"
         dy="6"
         result="offset"
         id="feOffset8400" />
      <feComposite
         in="SourceGraphic"
         in2="offset"
         operator="over"
         result="composite2"
         id="feComposite8402" />
    </filter>
    <clipPath
       clipPathUnits="userSpaceOnUse"
       id="clipPath9018">
      <rect
         style="display:inline;opacity:0.1;fill:url(#radialGradient9022);fill-opacity:1;stroke:url(#radialGradient9024);stroke-width:1.00005436;stroke-linejoin:round;stroke-miterlimit:4;stroke-dasharray:none;stroke-opacity:1"
         id="rect9020"
         width="150.99994"
         height="150.99994"
         x="20.500031"
         y="20.500031"
         ry="10.897427" />
    </clipPath>
    <radialGradient
       inkscape:collect="always"
       xlink:href="#linearGradient7764"
       id="radialGradient9022"
       gradientUnits="userSpaceOnUse"
       gradientTransform="matrix(0.00253475,1.9947837,-2.002355,0.00254437,60.402743,-19.768048)"
       cx="20.009592"
       cy="20.198151"
       fx="20.009592"
       fy="20.198149"
       r="75.999997" />
    <radialGradient
       inkscape:collect="always"
       xlink:href="#linearGradient7772"
       id="radialGradient9024"
       gradientUnits="userSpaceOnUse"
       gradientTransform="matrix(0.00253472,1.9947836,-2.0023549,0.00254435,60.40274,-19.768047)"
       cx="20.009592"
       cy="20.198151"
       fx="20.009592"
       fy="20.198151"
       r="75.999997" />
    <clipPath
       clipPathUnits="userSpaceOnUse"
       id="clipPath9040">
      <rect
         style="display:inline;opacity:0.1;fill:url(#radialGradient9044);fill-opacity:1;stroke:url(#radialGradient9046);stroke-width:1.00005436;stroke-linejoin:round;stroke-miterlimit:4;stroke-dasharray:none;stroke-opacity:1"
         id="rect9042"
         width="150.99994"
         height="150.99994"
         x="20.500031"
         y="20.500031"
         ry="10.897427" />
    </clipPath>
    <radialGradient
       inkscape:collect="always"
       xlink:href="#linearGradient7764"
       id="radialGradient9044"
       gradientUnits="userSpaceOnUse"
       gradientTransform="matrix(0.00253475,1.9947837,-2.002355,0.00254437,60.402743,-19.768048)"
       cx="20.009592"
       cy="20.198151"
       fx="20.009592"
       fy="20.198149"
       r="75.999997" />
    <radialGradient
       inkscape:collect="always"
       xlink:href="#linearGradient7772"
       id="radialGradient9046"
       gradientUnits="userSpaceOnUse"
       gradientTransform="matrix(0.00253472,1.9947836,-2.0023549,0.00254435,60.40274,-19.768047)"
       cx="20.009592"
       cy="20.198151"
       fx="20.009592"
       fy="20.198151"
       r="75.999997" />
    <clipPath
       clipPathUnits="userSpaceOnUse"
       id="clipPath9048">
      <rect
         style="display:inline;opacity:0.1;fill:url(#radialGradient9052);fill-opacity:1;stroke:url(#radialGradient9054);stroke-width:1.00005436;stroke-linejoin:round;stroke-miterlimit:4;stroke-dasharray:none;stroke-opacity:1"
         id="rect9050"
         width="150.99994"
         height="150.99994"
         x="20.500031"
         y="20.500031"
         ry="10.897427" />
    </clipPath>
    <radialGradient
       inkscape:collect="always"
       xlink:href="#linearGradient7764"
       id="radialGradient9052"
       gradientUnits="userSpaceOnUse"
       gradientTransform="matrix(0.00253475,1.9947837,-2.002355,0.00254437,60.402743,-19.768048)"
       cx="20.009592"
       cy="20.198151"
       fx="20.009592"
       fy="20.198149"
       r="75.999997" />
    <radialGradient
       inkscape:collect="always"
       xlink:href="#linearGradient7772"
       id="radialGradient9054"
       gradientUnits="userSpaceOnUse"
       gradientTransform="matrix(0.00253472,1.9947836,-2.0023549,0.00254435,60.40274,-19.768047)"
       cx="20.009592"
       cy="20.198151"
       fx="20.009592"
       fy="20.198151"
       r="75.999997" />
    <clipPath
       clipPathUnits="userSpaceOnUse"
       id="clipPath9056">
      <rect
         style="display:inline;opacity:0.1;fill:url(#radialGradient9060);fill-opacity:1;stroke:url(#radialGradient9062);stroke-width:1.00005436;stroke-linejoin:round;stroke-miterlimit:4;stroke-dasharray:none;stroke-opacity:1"
         id="rect9058"
         width="150.99994"
         height="150.99994"
         x="20.500031"
         y="20.500031"
         ry="10.897427" />
    </clipPath>
    <radialGradient
       inkscape:collect="always"
       xlink:href="#linearGradient7764"
       id="radialGradient9060"
       gradientUnits="userSpaceOnUse"
       gradientTransform="matrix(0.00253475,1.9947837,-2.002355,0.00254437,60.402743,-19.768048)"
       cx="20.009592"
       cy="20.198151"
       fx="20.009592"
       fy="20.198149"
       r="75.999997" />
    <radialGradient
       inkscape:collect="always"
       xlink:href="#linearGradient7772"
       id="radialGradient9062"
       gradientUnits="userSpaceOnUse"
       gradientTransform="matrix(0.00253472,1.9947836,-2.0023549,0.00254435,60.40274,-19.768047)"
       cx="20.009592"
       cy="20.198151"
       fx="20.009592"
       fy="20.198151"
       r="75.999997" />
  </defs>
  <metadata
     id="metadata7">
    <rdf:RDF>
      <cc:Work
         rdf:about="">
        <dc:format>image/svg+xml</dc:format>
        <dc:type
           rdf:resource="http://purl.org/dc/dcmitype/StillImage" />
        <dc:title></dc:title>
      </cc:Work>
    </rdf:RDF>
  </metadata>
  <g
     sodipodi:insensitive="true"
     inkscape:groupmode="layer"
     id="layer6"
     inkscape:label="Square 2"
     style="display:inline">
    <rect
       ry="10.897427"
       y="20.500031"
       x="20.500031"
       height="150.99994"
       width="150.99994"
       id="rect7720"
       style="display:inline;fill:#0288d1;fill-opacity:1;stroke:#0288d1;stroke-width:1.00005436;stroke-linejoin:round;stroke-miterlimit:4;stroke-dasharray:none;stroke-opacity:1;filter:url(#filter7743)" />
  </g>
  <g
     inkscape:groupmode="layer"
     id="layer4"
     inkscape:label="Square"
     style="display:inline">
    <rect
       ry="10.827893"
       y="20.498438"
       x="20.498438"
       height="150.03645"
       width="151.00313"
       id="rect7755"
       style="opacity:0.2;fill:#339489;fill-opacity:1;stroke:#ffffff;stroke-width:0.99686927;stroke-linejoin:round;stroke-miterlimit:4;stroke-dasharray:none;stroke-opacity:1" />
    <rect
       ry="10.827893"
       y="21.465105"
       x="20.498438"
       height="150.03645"
       width="151.00313"
       id="rect7757"
       style="opacity:0.2;fill:#1a237e;fill-opacity:1;stroke:#1a237e;stroke-width:0.99699998;stroke-linejoin:round;stroke-miterlimit:4;stroke-dasharray:none;stroke-opacity:1" />
    <rect
       style="fill:#0288d1;fill-opacity:1;stroke:#0288d1;stroke-width:0.99361873;stroke-linejoin:round;stroke-miterlimit:4;stroke-dasharray:none;stroke-opacity:1"
       id="rect3811"
       width="151.00638"
       height="149.05637"
       x="20.496813"
       y="21.46348"
       ry="10.757162" />
    <rect
       style="opacity:0.2;fill:#1a237e;fill-opacity:1;fill-rule:nonzero;stroke:none;stroke-width:1;stroke-linecap:butt;stroke-linejoin:round;stroke-miterlimit:4;stroke-dasharray:none;stroke-dashoffset:0;stroke-opacity:1"
       id="rect9032"
       width="154.00037"
       height="0.9970969"
       x="19.001577"
       y="95.001991"
       clip-path="url(#clipPath9056)"
       transform="matrix(1.005004,0,0,1.005004,-0.480384,-0.29404524)" />
    <flowRoot
       style="font-style:normal;font-variant:normal;font-weight:normal;font-stretch:normal;font-size:40px;line-height:125%;font-family:roboto;-inkscape-font-specification:roboto;letter-spacing:0px;word-spacing:0px;fill:#000000;fill-opacity:1;stroke:none;stroke-width:1px;stroke-linecap:butt;stroke-linejoin:miter;stroke-opacity:1"
       id="flowRoot9367"
       xml:space="preserve"><flowRegion
         id="flowRegion9369"><rect
           style="font-style:normal;font-variant:normal;font-weight:normal;font-stretch:normal;font-family:roboto;-inkscape-font-specification:roboto"
           y="31.533901"
           x="31.866945"
           height="128.4106"
           width="128.97627"
           id="rect9371" /></flowRegion><flowPara
         id="flowPara9373" /></flowRoot>    <path
       style="display:inline;opacity:0.2;fill:url(#linearGradient8378);fill-opacity:1;fill-rule:evenodd;stroke:none;stroke-width:1;stroke-linecap:butt;stroke-linejoin:miter;stroke-opacity:1"
       d="m 97.165394,38.477719 c -9.80937,-0.17779 -20.119095,3.181824 -28.02724,8.988426 -7.312567,5.369301 -12.923102,13.599491 -15.689389,22.239562 -2.910685,9.09108 -2.614779,19.411924 -0.152924,28.634678 2.681647,10.046155 9.040289,18.968615 15.691517,26.961045 9.543337,11.46764 9.511929,11.37046 14.317338,16.60478 2.531804,2.7578 6.102867,6.3901 9.088251,9.39199 2.481202,2.50385 4.006069,4.01246 4.466603,4.46871 0.121103,0.12019 0.554636,0.55522 0.61806,0.61804 0,0 0.002,0 0.002,0 0.06288,0.0616 0.613813,0.61382 0.613813,0.61382 0.103018,0.10242 0.467823,0.4684 0.528855,0.52889 0.01529,0.0156 0.03819,0.0377 0.05311,0.053 0.0024,0.002 0.0034,0.003 0.0059,0.006 0,0 0.002,0.002 0.002,0.002 0,0 0,0.002 0,0.002 0.002,0.002 0.0038,0.004 0.0059,0.006 0.0014,10e-4 0.01333,0.0128 0.01492,0.0148 0.118924,0.11806 0.549329,0.54993 0.611687,0.61172 0,0 0.002,0 0.002,0 0.06203,0.0607 0.609564,0.60957 0.609564,0.60957 0.002,0.002 0.0019,0.002 0.0039,0.004 0,0 0.002,0.002 0.002,0.002 0.0086,0.009 0.009,0.0114 0.01908,0.0216 0.02599,0.026 0.03813,0.0377 0.06372,0.0633 0.0416,0.0416 0.0834,0.0831 0.12319,0.12314 0.0404,0.0407 0.12671,0.127 0.16354,0.16356 0.0318,0.0311 0.2081,0.20831 0.23151,0.23151 0.11662,0.11573 0.54415,0.54473 0.60532,0.60534 0.11643,0.11553 0.54434,0.5449 0.60531,0.60529 0.11567,0.11476 0.54262,0.54322 0.60321,0.60321 0.11489,0.11401 0.54089,0.54149 0.60106,0.60105 0.1142,0.11336 0.53917,0.53976 0.59896,0.59894 0.11352,0.11265 0.53731,0.53788 0.5968,0.59685 0.11333,0.11241 0.53761,0.53811 0.59682,0.59679 0,0 0.002,0 0.002,0 0.0172,0.0171 0.0722,0.0723 0.0864,0.0864 0.0339,0.0342 0.0743,0.0759 0.10829,0.11046 0.063,0.0622 0.35797,0.35617 0.39722,0.39506 0.2233,0.22159 1.183,1.18301 1.183,1.18301 0.0559,0.056 0.0569,0.0568 0.11259,0.11258 0.0114,0.0115 0.0262,0.0261 0.0376,0.038 0.004,0.004 0.004,0.004 0.008,0.008 0.0712,0.0707 0.3869,0.38939 0.42906,0.43114 0.10966,0.10884 0.5288,0.52938 0.58618,0.58624 0.10921,0.1083 0.52911,0.52751 0.58621,0.58406 0.0317,0.032 0.0705,0.0701 0.10213,0.10211 0.0248,0.0248 0.0396,0.0395 0.0635,0.0632 0.0303,0.0303 0.0398,0.04 0.0707,0.0707 0.0161,0.0161 0.0174,0.0174 0.0314,0.0314 0.006,0.006 0.006,0.006 0.0119,0.0122 0,0 0.002,0.002 0.002,0.002 0.0231,0.023 0.0522,0.0542 0.0746,0.0766 0.008,0.008 0.22516,0.22514 0.22516,0.22514 0.0274,0.0276 0.0591,0.0589 0.0864,0.0866 0.0415,0.0413 0.49486,0.49487 0.49486,0.49487 0.10736,0.10648 0.52375,0.52427 0.57985,0.57981 0.0181,0.0182 0.0374,0.0373 0.055,0.055 0.0926,0.0915 0.472,0.47249 0.52249,0.5225 0.10648,0.10565 0.52224,0.52274 0.5777,0.57772 0.10522,0.10447 0.51844,0.51891 0.57349,0.57344 0.1051,0.10427 0.51859,0.51913 0.57343,0.57347 0.10439,0.10354 0.5169,0.51739 0.57133,0.5713 0.10367,0.10292 0.51513,0.51567 0.56922,0.56922 0.10303,0.10232 0.51333,0.51382 0.56707,0.56708 0,0 0.002,0 0.002,0 0.0534,0.0529 0.56496,0.56499 0.56496,0.56499 0.0946,0.0941 0.28914,0.28967 0.36532,0.36532 0.0236,0.0235 0.0596,0.0598 0.0825,0.0825 0.004,0.004 0.006,0.006 0.01,0.01 0.002,0.002 0.002,0.002 0.004,0.004 0,0 0.002,0.002 0.002,0.002 0.002,0.002 0.004,0.006 0.006,0.008 0.009,0.009 0.0824,0.0825 0.0912,0.091 0.10161,0.1008 0.50994,0.51046 0.56279,0.56282 0.1009,0.10019 0.50826,0.50876 0.56072,0.56072 0.1002,0.0995 0.50652,0.50699 0.5586,0.55858 0.0996,0.0989 0.50473,0.50523 0.55648,0.55646 0.099,0.0983 0.50284,0.50335 0.55434,0.55437 0.0989,0.0982 0.50304,0.50353 0.55436,0.55434 0.0982,0.0975 0.50133,0.50183 0.5522,0.55222 0,0 0.002,0 0.002,0 0.0505,0.0501 0.54795,0.54799 0.54795,0.54799 0.0418,0.0412 0.0689,0.0687 0.10832,0.1083 0.0156,0.0156 0.0177,0.0177 0.0314,0.0314 0.007,0.007 0.007,0.007 0.0156,0.0155 0.002,0.002 0.002,0.002 0.004,0.004 0.0194,0.0193 0.0439,0.046 0.061,0.0633 0.0307,0.0305 0.11182,0.11207 0.14017,0.14023 0.0229,0.0227 0.16978,0.16991 0.18694,0.1869 0.0962,0.0955 0.49602,0.49647 0.54583,0.54582 0.0955,0.0948 0.49414,0.49461 0.54373,0.54372 0.0953,0.0946 0.49432,0.49479 0.54372,0.54373 0.0946,0.0938 0.49265,0.49311 0.54161,0.54161 0,0 0.002,0 0.002,0 0.0487,0.0483 0.53733,0.53735 0.53733,0.53735 0.0316,0.0315 0.0716,0.0718 0.1021,0.10211 0.0339,0.0342 0.0743,0.0759 0.10833,0.11046 0.003,0.003 0.009,0.007 0.0123,0.01 0.0254,0.0253 0.0478,0.0479 0.0727,0.0727 0.0102,0.0101 0.0174,0.0174 0.0275,0.0275 0,0 0.002,0.002 0.002,0.002 0.004,0.004 0.004,0.006 0.008,0.01 0.004,0.004 0.0193,0.0193 0.0236,0.0236 0.0217,0.0216 0.16429,0.16448 0.18054,0.18055 0.0927,0.091 0.48725,0.48774 0.53521,0.53524 0.0915,0.0905 0.4854,0.48582 0.53308,0.5331 0.0916,0.0907 0.4856,0.48605 0.53314,0.53308 0.0906,0.0895 0.4838,0.48428 0.53097,0.53099 0.0899,0.0889 0.48204,0.48255 0.52885,0.52887 0.0891,0.088 0.48032,0.48074 0.52676,0.52674 0.0883,0.0873 0.47843,0.47885 0.5246,0.52458 0.0839,0.0832 0.45763,0.45595 0.50336,0.50127 0.002,0.002 0.0199,0.0199 0.0216,0.0216 0.0172,0.0173 0.034,0.0358 0.0511,0.053 0.017,0.017 0.0244,0.0225 0.0407,0.038 0.0199,0.0199 0.0235,0.0235 0.0431,0.0431 0.009,0.009 0.009,0.009 0.0197,0.0197 0.004,0.004 0.004,0.004 0.008,0.008 0.0186,0.0185 0.0447,0.0467 0.0609,0.0635 0.0267,0.0266 0.10305,0.10324 0.12746,0.12743 0.02,0.0198 0.15503,0.15521 0.16992,0.16989 0.0865,0.0859 0.47503,0.47551 0.52034,0.52036 0.0857,0.0851 0.47327,0.47373 0.51825,0.51826 0.0453,0.0449 0.51609,0.51611 0.51609,0.51611 0.0848,0.0841 0.46957,0.46999 0.51399,0.51399 0.0845,0.0839 0.4699,0.47032 0.51398,0.51398 0.0835,0.0829 0.46607,0.46647 0.50975,0.50974 0.16731,0.16594 1.01737,1.01736 1.01737,1.01736 0.0822,0.0816 0.46256,0.463 0.50546,0.50549 0,0 0.002,0 0.002,0 0.0434,0.0429 0.50335,0.50334 0.50335,0.50334 0.0919,0.0912 0.32305,0.32361 0.39295,0.39295 0.0195,0.0193 0.0579,0.058 0.0766,0.0766 0.006,0.006 0.0101,0.0101 0.0177,0.0177 0,0 0,0.002 0,0.002 0.002,0.002 0.002,0.002 0.004,0.004 9e-4,8.8e-4 0.009,0.009 0.01,0.01 0.12847,0.12829 0.19821,0.19854 0.31647,0.31647 0.002,0.002 0.004,0.004 0.006,0.006 0.0669,0.0661 0.11571,0.11376 0.17844,0.1763 0.0873,0.0869 0.22058,0.22103 0.29736,0.29732 0.002,0.002 0.004,0.004 0.006,0.006 0.0247,0.0247 0.0423,0.0421 0.0657,0.0657 0.0115,0.0115 0.0181,0.0181 0.0295,0.0294 0,0 0.002,0.002 0.002,0.002 0.005,0.005 0.005,0.007 0.01,0.0123 0.008,0.008 0.0779,0.0779 0.0844,0.0844 0.0798,0.0792 0.45546,0.45588 0.49699,0.497 0.019,0.0189 0.0651,0.0626 0.0825,0.0805 0.0209,0.0208 0.0745,0.0746 0.0937,0.094 0.0283,0.0286 0.0602,0.062 0.0889,0.0913 0.0451,0.0448 0.19471,0.19289 0.2315,0.22935 0.0249,0.0248 0.0366,0.0369 0.061,0.061 0.008,0.008 0.009,0.009 0.0197,0.0197 0.005,0.005 0.003,0.005 0.008,0.01 0.018,0.018 0.0333,0.0334 0.0511,0.0511 0.0323,0.0326 0.0719,0.0716 0.10417,0.10417 0.003,0.003 0.009,0.009 0.0126,0.0129 0.0252,0.025 0.1069,0.10711 0.12959,0.12957 0.002,0.002 0.10625,0.10627 0.10625,0.10627 0.0781,0.0775 0.45008,0.45049 0.49064,0.49067 0.0779,0.0773 0.45021,0.45061 0.49061,0.49059 0.0773,0.0767 0.44848,0.44885 0.4885,0.48852 0.15284,0.15156 0.97062,0.97063 0.97062,0.97063 0.0757,0.0751 0.44298,0.44332 0.48216,0.48212 0.0755,0.0749 0.44323,0.44361 0.4821,0.48212 0.028,0.0283 0.0605,0.0602 0.0886,0.0889 0.0257,0.0255 0.38871,0.38866 0.38871,0.38866 0.0744,0.0738 0.43951,0.43991 0.47785,0.47787 0.0738,0.0733 0.43773,0.43813 0.47576,0.47579 0.0733,0.0728 0.4358,0.43616 0.47363,0.4736 0.0731,0.0725 0.43611,0.4365 0.47364,0.47366 0.0722,0.0716 0.43222,0.43262 0.46939,0.46938 0.072,0.0715 0.43236,0.43276 0.46938,0.46939 0.0715,0.0709 0.43059,0.43096 0.46729,0.46726 0.0709,0.0703 0.42874,0.42916 0.46513,0.46515 0.0703,0.0698 0.42698,0.42731 0.46301,0.463 0.0699,0.0693 0.42498,0.42537 0.46088,0.46092 0.0696,0.069 0.42523,0.42559 0.46088,0.46087 0,0 0.002,0 0.002,0 0.0146,0.0144 0.17618,0.1763 0.18477,0.18479 0.0339,0.0342 0.0743,0.0759 0.10832,0.11043 0.004,0.004 0.16354,0.16141 0.16354,0.16141 0.0277,0.0277 0.0378,0.0383 0.0659,0.0662 0.015,0.015 0.0181,0.018 0.0314,0.0314 0.0229,0.0228 0.0484,0.0504 0.0707,0.0727 0.0297,0.0296 0.0905,0.0908 0.11891,0.11894 0.0181,0.0179 0.15494,0.15504 0.1678,0.1678 0.0678,0.0669 0.41969,0.42003 0.45453,0.4545 0.0503,0.05 0.139,0.13724 0.18476,0.18268 0.0161,0.0162 0.0329,0.0328 0.0491,0.0491 0.0535,0.0531 0.17402,0.17437 0.22087,0.22089 0.0552,0.055 0.11791,0.11816 0.16994,0.16992 0.0144,0.0145 0.0163,0.016 0.0294,0.0294 0.003,0.003 0.007,0.007 0.01,0.01 0.002,0.002 0.002,0.002 0.004,0.004 0.003,0.003 0.003,0.003 0.006,0.006 0.0164,0.0164 0.0488,0.0509 0.0631,0.0664 0.0624,0.0616 0.6138,0.61379 0.6138,0.61379 0.0656,0.0647 0.41435,0.41471 0.44815,0.44816 0.12931,0.12821 0.88991,0.88991 0.88991,0.88991 0.0633,0.0625 0.40884,0.40918 0.44179,0.44178 0.008,0.008 0.057,0.0551 0.0657,0.0636 0.006,0.006 0.0123,0.0124 0.0196,0.0196 0.0471,0.0467 0.33035,0.33061 0.35682,0.35682 0.0202,0.0204 0.0426,0.0445 0.0609,0.063 0.0512,0.0509 0.21771,0.21593 0.25909,0.25702 0.009,0.009 0.0262,0.0262 0.0353,0.0353 0,0 0.002,0.002 0.002,0.002 0.001,10e-4 8.9e-4,0.003 0.002,0.004 0.002,0.002 0.004,0.004 0.006,0.006 0.002,0.002 0.006,0.006 0.008,0.008 0.005,0.005 0.0567,0.0567 0.0609,0.0609 0.0617,0.0613 0.40525,0.40565 0.43751,0.43754 0.0611,0.0605 0.40347,0.40377 0.43539,0.43539 0.0606,0.0601 0.40169,0.40199 0.43329,0.43328 0.0601,0.0596 0.3998,0.40015 0.43112,0.43114 0.0596,0.0592 0.3979,0.39821 0.42905,0.42904 0.0595,0.059 0.39803,0.39836 0.42904,0.42904 0.0589,0.0585 0.39627,0.39658 0.42691,0.42692 0.10937,0.1087 0.33996,0.33846 0.4248,0.42266 0.0299,0.0297 0.42265,0.42263 0.42265,0.42263 0.021,0.021 0.0224,0.0243 0.0431,0.0452 0.0458,0.0458 0.0713,0.0714 0.11473,0.11469 0.0325,0.0322 0.15905,0.15931 0.1869,0.1869 9.8e-4,0.001 0.0766,0.0766 0.0766,0.0766 0.057,0.0565 0.38879,0.38908 0.41841,0.41846 0.0568,0.0564 0.38898,0.38922 0.41846,0.4184 0.0444,0.0442 0.10333,0.10152 0.14441,0.1423 0.0114,0.0113 0.0262,0.0261 0.0378,0.0378 0.0665,0.0654 0.1746,0.17499 0.23366,0.23366 0.11203,0.11104 0.82617,0.82617 0.82617,0.82617 0.022,0.0221 0.0253,0.0252 0.0471,0.0471 0.0212,0.0214 0.0457,0.0455 0.0654,0.066 0.0188,0.0187 0.0286,0.0306 0.0471,0.0491 0.0303,0.0301 0.15256,0.15276 0.17843,0.17839 8.8e-4,8.9e-4 0.0727,0.0727 0.0727,0.0727 0.0544,0.054 0.37961,0.37987 0.40783,0.40781 0.0543,0.0538 0.37976,0.38007 0.40777,0.40778 0.12097,0.12035 0.3057,0.30424 0.40567,0.40353 0.006,0.006 0.0153,0.0151 0.0216,0.0216 0.0493,0.0489 0.35628,0.35651 0.38229,0.38231 0.0272,0.027 0.40146,0.40141 0.40146,0.40141 0.0269,0.0268 0.0364,0.0364 0.0633,0.0634 0.0151,0.015 0.0182,0.0182 0.0314,0.0314 0.008,0.008 0.008,0.008 0.0177,0.0177 0.004,0.004 0.004,0.004 0.008,0.008 0.002,0.002 0.002,0.002 0.004,0.004 0,0 0.002,0.002 0.002,0.002 0.0123,0.0125 0.0215,0.0235 0.0334,0.0353 0.0282,0.0279 0.14596,0.14618 0.16993,0.16998 8.1e-4,7.4e-4 0.0687,0.0684 0.0687,0.0684 0.0519,0.0515 0.37043,0.3707 0.39717,0.39715 0.0518,0.0513 0.37061,0.3709 0.39717,0.39723 0,0 0.002,0 0.002,0 0.0509,0.0505 0.36674,0.36694 0.39293,0.3929 0.1014,0.1006 0.78373,0.78372 0.78373,0.78372 0.0524,0.0521 0.17294,0.17329 0.21876,0.21875 0.002,0.002 0.002,0.002 0.004,0.004 0,0 0.002,0.002 0.002,0.002 0,0 0.002,0.002 0.002,0.002 0.002,0.002 0.003,0.005 0.006,0.008 0.004,0.004 0.01,0.01 0.0157,0.0155 0.005,0.005 0.0164,0.0167 0.0216,0.0216 0.003,0.003 0.0222,0.0222 0.0255,0.0255 0.007,0.007 0.0867,0.0867 0.094,0.0938 0.0495,0.0491 0.36119,0.36144 0.38657,0.38652 0.0494,0.049 0.36132,0.36159 0.38652,0.38657 0.0489,0.0485 0.35951,0.3597 0.38441,0.38441 0.0484,0.048 0.35764,0.35788 0.38234,0.38231 0.0479,0.0475 0.35575,0.356 0.38019,0.3802 0.0181,0.0182 0.0374,0.0373 0.055,0.055 0.0368,0.0365 0.30213,0.30234 0.32282,0.32282 0.003,0.003 0.0211,0.0192 0.0236,0.0216 0.002,0.002 0.005,0.005 0.008,0.008 0.0418,0.0416 0.32412,0.32439 0.34617,0.3462 0.002,0.002 0.004,0.004 0.006,0.006 0.0506,0.0502 0.24393,0.24428 0.28246,0.28245 0.005,0.005 0.0138,0.0135 0.0197,0.0197 0.002,0.002 0.002,0.002 0.004,0.004 0,0 0.002,0.002 0.002,0.002 0.001,0.001 0.003,0.005 0.004,0.006 0.002,0.002 0.01,0.01 0.0123,0.0126 0.003,0.003 0.0398,0.0402 0.0432,0.0431 0.0465,0.0461 0.35017,0.35041 0.37382,0.37382 0.046,0.0456 0.34831,0.34856 0.37164,0.37169 0.0456,0.0452 0.34648,0.34666 0.36958,0.36954 0.0452,0.0448 0.34448,0.34474 0.36744,0.36745 0.045,0.0447 0.34466,0.34487 0.36744,0.36741 0.0111,0.0106 0.087,0.085 0.0982,0.0961 0.0311,0.0314 0.069,0.0688 0.10019,0.1002 0.0153,0.0154 0.15741,0.15754 0.16777,0.16779 0.0456,0.0453 0.1001,0.1003 0.14231,0.14229 0.005,0.005 0.007,0.007 0.0127,0.0122 0.005,0.005 0.009,0.0114 0.0157,0.0177 0.003,0.003 0.005,0.005 0.008,0.008 0.0102,0.0101 0.0452,0.0453 0.055,0.055 0.009,0.009 0.0623,0.0626 0.0727,0.0727 5.3e-4,5.3e-4 0.055,0.055 0.055,0.055 0.0438,0.0434 0.33901,0.3392 0.36104,0.36106 0.0847,0.084 0.71791,0.71788 0.71791,0.71788 0.0423,0.0419 0.33327,0.3335 0.35469,0.35469 0.0418,0.0416 0.33347,0.33368 0.35472,0.3547 0.0932,0.0921 0.22226,0.22065 0.3037,0.30159 0.004,0.004 0.0115,0.0115 0.0177,0.0177 0.005,0.005 0.0105,0.0137 0.0177,0.0197 0.003,0.003 0.0103,0.008 0.0156,0.0129 0.0213,0.0211 0.35046,0.35044 0.35046,0.35044 0.0442,0.044 0.10151,0.10172 0.1423,0.14229 0.005,0.005 0.007,0.007 0.0122,0.0123 0.002,0.002 0.002,0.002 0.004,0.004 0.007,0.007 0.0105,0.0131 0.0196,0.0216 0.0112,0.0112 0.0367,0.037 0.0491,0.0491 0.009,0.009 0.11396,0.11402 0.12106,0.12108 0.0399,0.0395 0.32586,0.32609 0.3462,0.34618 0.0255,0.0253 0.2055,0.20568 0.22302,0.22302 0,0 0.002,0.002 0.002,0.002 0.009,0.009 0.11405,0.112 0.12108,0.11894 0.052,0.0517 0.12377,0.12404 0.17207,0.17203 0.007,0.007 0.0181,0.0181 0.0255,0.0255 0.009,0.009 0.0222,0.0222 0.0314,0.0314 10e-4,0.001 5.6e-4,0.002 0.002,0.004 0.005,0.005 0.007,0.007 0.0122,0.0123 0.003,0.003 0.0226,0.0226 0.0255,0.0255 0.005,0.005 0.0686,0.0687 0.0727,0.0727 0.0772,0.0766 0.68176,0.68175 0.68176,0.68175 0.0373,0.0369 0.31834,0.31851 0.33771,0.33773 0.11309,0.11259 0.2382,0.23657 0.33772,0.33559 0.0165,0.0165 0.019,0.019 0.0334,0.0334 0.009,0.009 0.009,0.009 0.0197,0.0197 0,0 0.002,0.002 0.002,0.002 0.004,0.004 0.004,0.004 0.008,0.008 0.003,0.003 0.003,0.003 0.006,0.006 0,0 0.002,0.002 0.002,0.002 0.0156,0.0155 0.0256,0.0276 0.0411,0.0431 0.0263,0.0262 0.0851,0.0853 0.11043,0.11045 0.008,0.008 0.10428,0.10428 0.11046,0.11045 0.008,0.008 0.0195,0.0194 0.0275,0.0275 0.0318,0.0316 0.28861,0.28877 0.30584,0.30585 0.0351,0.0349 0.14467,0.14279 0.17627,0.17418 0.009,0.009 0.0461,0.0462 0.055,0.055 0.0224,0.0226 0.0483,0.0482 0.0707,0.0707 0.004,0.004 0.0251,0.0251 0.0295,0.0294 0.0191,0.0189 0.32919,0.32919 0.32919,0.32919 0.0535,0.0532 0.21744,0.21782 0.26121,0.26124 0.004,0.004 0.006,0.006 0.01,0.01 0,0 0.002,0.002 0.002,0.002 0,0 0,0.002 0,0.002 0,0 0.002,0.002 0.002,0.002 0.002,0.002 0.004,0.004 0.006,0.006 0.005,0.005 0.0138,0.0132 0.0196,0.0196 1.4e-4,1.2e-4 0.0255,0.0255 0.0255,0.0255 0.0344,0.0341 0.30694,0.30717 0.32493,0.32495 0.0485,0.0481 0.27644,0.27465 0.31011,0.308 0.001,0.001 0.0131,0.0131 0.0156,0.015 0.008,0.008 0.0335,0.0336 0.0431,0.0432 0.0339,0.0342 0.0743,0.0759 0.10833,0.11042 0.0195,0.0194 0.0884,0.0863 0.10628,0.10418 0,0 0.002,0.002 0.002,0.002 0,0 0,0.002 0,0.002 0,0 0.002,0.002 0.002,0.002 0.002,0.002 0.004,0.004 0.006,0.006 0.002,0.002 0.006,0.006 0.008,0.008 0.003,0.003 0.009,0.009 0.0129,0.0122 0.003,0.003 0.0114,0.0114 0.0156,0.0155 6e-5,5e-5 0.0177,0.0177 0.0177,0.0177 0.0182,0.018 0.32074,0.32073 0.32074,0.32073 0.0331,0.0328 0.30136,0.30155 0.31859,0.31854 0.0328,0.0325 0.29936,0.29957 0.31645,0.31651 0.0326,0.0323 0.29958,0.29973 0.31647,0.31648 0,0 0.002,0 0.002,0 0.0278,0.0275 0.25136,0.25365 0.26763,0.26968 0.004,0.004 0.009,0.009 0.0155,0.0157 0.001,0.001 0.0261,0.0261 0.0275,0.0275 0.0319,0.0316 0.2957,0.29585 0.31223,0.31223 0.0634,0.0625 0.61805,0.61805 0.61805,0.61805 0.0308,0.0305 0.28993,0.29008 0.30583,0.30584 0.0386,0.0385 0.0907,0.0882 0.12746,0.12533 0.002,0.002 0.004,0.006 0.006,0.008 0,0 0.002,0 0.002,0 0.05,0.0497 0.12378,0.12404 0.16993,0.16991 0.0295,0.0298 0.0633,0.0659 0.0941,0.0958 0.0241,0.0239 0.11469,0.11274 0.13594,0.13381 0.004,0.004 0.006,0.006 0.01,0.01 0.002,0.002 0.002,0.002 0.004,0.004 0,0 0.002,0.002 0.002,0.002 0.002,0.002 0.005,0.007 0.008,0.01 0.003,0.003 0.0115,0.0115 0.0156,0.0156 0.002,0.002 0.0299,0.0299 0.0314,0.0314 0.0299,0.0297 0.28619,0.28638 0.30157,0.3016 0.006,0.006 0.0313,0.0294 0.0378,0.0353 0.0483,0.048 0.22343,0.22372 0.26126,0.26125 0.0231,0.023 0.0342,0.0342 0.0569,0.0569 0.01,0.01 0.0126,0.0128 0.0236,0.0236 0.005,0.005 0.005,0.005 0.01,0.01 0.002,0.002 0.002,0.002 0.004,0.004 0.01,0.01 0.0216,0.0236 0.0314,0.0334 0.0173,0.0172 0.0822,0.0823 0.0982,0.0982 0.0232,0.023 0.36747,0.36743 0.36747,0.36743 0.0285,0.0283 0.27836,0.27857 0.29306,0.29311 0.0284,0.0281 0.27857,0.27867 0.29312,0.29311 0.0111,0.0111 0.0446,0.0425 0.055,0.053 0.008,0.008 0.0299,0.0299 0.038,0.038 0.0115,0.0114 0.0262,0.0261 0.0382,0.038 0.0323,0.0321 0.13011,0.13039 0.15929,0.15933 0.0305,0.0307 0.0676,0.0669 0.0982,0.0982 0.0162,0.0161 0.18176,0.18189 0.19116,0.19116 0.0205,0.0207 0.0443,0.0442 0.0633,0.0628 0.008,0.008 0.22298,0.22304 0.22298,0.22304 0.009,0.009 0.0208,0.0207 0.0294,0.0295 0.0115,0.0114 0.0224,0.0224 0.0334,0.0334 0,0 0.002,0.002 0.002,0.002 0.002,0.002 0.002,0.004 0.004,0.006 0.006,0.006 0.009,0.009 0.0177,0.0177 0.009,0.009 0.0247,0.0247 0.0334,0.0334 0.0141,0.0146 0.0562,0.0563 0.0707,0.0707 0.006,0.006 0.0534,0.0535 0.0589,0.0589 0.009,0.009 0.0208,0.0207 0.0294,0.0294 0,0 0.004,0.004 0.004,0.004 0.0267,0.0264 0.26887,0.26896 0.28252,0.28246 0.0266,0.0263 0.26893,0.26911 0.28245,0.28251 0.0126,0.0125 0.0512,0.0493 0.063,0.0609 0.004,0.004 0.0192,0.0192 0.0236,0.0236 0.028,0.0282 0.0605,0.0602 0.0888,0.0888 0.0204,0.0203 0.0851,0.0852 0.10419,0.10418 0.0105,0.0103 0.0173,0.0173 0.0275,0.0275 0.004,0.004 0.004,0.004 0.008,0.008 0.002,0.002 0.002,0.002 0.004,0.004 0.008,0.008 0.0157,0.0178 0.0236,0.0255 0.0168,0.0167 0.0426,0.0426 0.057,0.057 0.013,0.0123 0.0533,0.0534 0.0663,0.0661 0.006,0.006 0.0518,0.0518 0.057,0.057 0.002,0.002 0.03,0.03 0.0314,0.0314 0.0276,0.0274 0.18696,0.18506 0.20812,0.20603 0.007,0.007 0.0628,0.0633 0.0707,0.0707 0.0224,0.0226 0.0484,0.0482 0.0707,0.0707 0.0152,0.0152 0.039,0.0393 0.053,0.053 0.0114,0.0115 0.0244,0.0245 0.0353,0.0354 0.004,0.004 0.006,0.006 0.01,0.01 0.002,0.002 0.002,0.002 0.004,0.004 0,0 0.002,0.002 0.002,0.002 0.002,0.002 0.008,0.01 0.01,0.0126 0.005,0.005 0.0501,0.0501 0.055,0.055 1.6e-4,1.8e-4 0.0314,0.0314 0.0314,0.0314 0.0248,0.0246 0.25922,0.25932 0.27186,0.27187 0.0248,0.0246 0.25937,0.25946 0.27188,0.27188 0.0158,0.0153 0.0574,0.0575 0.0727,0.0727 0,0 0.002,0 0.002,0 0,0 0.002,0.002 0.002,0.002 0.0377,0.0378 0.16027,0.16058 0.19326,0.19327 0.0189,0.0189 0.0284,0.0284 0.0471,0.0471 0.007,0.007 0.009,0.009 0.0177,0.0177 0.005,0.005 0.005,0.005 0.01,0.01 0.002,0.002 0.002,0.002 0.004,0.004 0,0 0.002,0.002 0.002,0.002 0,0 0.002,0.002 0.002,0.002 0.002,0.002 0.004,0.006 0.006,0.008 0.004,0.004 0.008,0.008 0.0126,0.0122 0.0187,0.0188 0.0396,0.039 0.0569,0.0569 0.004,0.004 0.0197,0.0197 0.0236,0.0236 0.005,0.005 0.0484,0.0485 0.053,0.053 0.001,0.001 0.0282,0.0282 0.0295,0.0295 0.0136,0.013 0.0951,0.0925 0.10615,0.10417 0,0 0.002,0.002 0.002,0.002 0.001,0.001 0.0105,0.0106 0.0128,0.0128 0.001,0.001 0.003,0.003 0.004,0.004 0.0166,0.0165 0.12974,0.12985 0.14228,0.1423 0.0274,0.0276 0.0591,0.0589 0.0865,0.0864 0.0179,0.0178 0.13494,0.13507 0.14867,0.14868 0,0 0.002,0.002 0.002,0.002 0,0 0,0.002 0,0.002 0,0 0.002,0.002 0.002,0.002 0.002,0.002 0.004,0.004 0.006,0.006 0.002,0.002 0.006,0.006 0.008,0.008 2e-5,2e-5 0.008,0.008 0.008,0.008 0.0161,0.0162 0.0329,0.0328 0.0491,0.0491 0.0177,0.0175 0.2029,0.203 0.21237,0.2124 0.004,0.004 0.008,0.008 0.0122,0.0126 0.0216,0.0214 0.2375,0.2376 0.24849,0.2485 0.0521,0.0517 0.2167,0.21489 0.25912,0.257 0.0447,0.0443 0.51187,0.51186 0.51187,0.51186 0.0255,0.0257 0.0551,0.0549 0.0805,0.0805 0.008,0.008 0.0256,0.0256 0.0334,0.0334 0.009,0.009 0.0224,0.0224 0.0314,0.0314 0.002,0.002 0.004,0.004 0.006,0.006 0,0 0.002,0.002 0.002,0.002 0,0 0,0.002 0,0.002 0,0 0.002,0.002 0.002,0.002 0.002,0.002 0.008,0.008 0.01,0.01 0.005,0.005 0.054,0.0541 0.0589,0.0589 1.1e-4,1.1e-4 0.0255,0.0255 0.0255,0.0255 0.0215,0.0213 0.23985,0.23999 0.25062,0.25064 0.0214,0.0212 0.24,0.24007 0.25067,0.2506 0.0429,0.0428 0.0824,0.0806 0.12316,0.1211 0.0167,0.017 0.0343,0.0341 0.0511,0.051 0.0243,0.0242 0.0509,0.051 0.0746,0.0746 9.8e-4,0.001 0.0228,0.0227 0.0236,0.0236 0.0339,0.0342 0.0743,0.0759 0.10834,0.11047 0.002,0.002 0.11468,0.11255 0.11468,0.11255 0.0154,0.0151 0.0318,0.0319 0.0471,0.0471 0.003,0.003 0.003,0.003 0.006,0.006 0.001,0.001 6.2e-4,0.003 0.002,0.004 0.003,0.003 0.005,0.005 0.008,0.008 0.003,0.003 0.0104,0.0105 0.0155,0.0155 0.007,0.007 0.0284,0.0284 0.0353,0.0353 0.007,0.006 0.0329,0.033 0.0409,0.0405 0.005,0.005 0.0345,0.0346 0.0405,0.0409 0.002,0.002 0.0472,0.0472 0.0491,0.0491 0.0202,0.02 0.23214,0.23219 0.24215,0.24214 0.003,0.003 0.007,0.007 0.01,0.01 0.0365,0.0363 0.1388,0.13688 0.17203,0.16989 0.002,0.002 0.008,0.008 0.01,0.01 0.006,0.006 0.0123,0.0127 0.0197,0.0196 0.005,0.005 0.0243,0.0243 0.0295,0.0295 0.0189,0.0187 0.21756,0.21762 0.22723,0.22724 9e-4,8.8e-4 0.009,0.009 0.01,0.01 0,0 0,0.002 0,0.002 0.0195,0.0194 0.22826,0.22837 0.23791,0.2379 0.0364,0.036 0.46931,0.4693 0.46939,0.46938 0.0187,0.0185 0.22231,0.2224 0.2315,0.23152 0.0186,0.0184 0.2225,0.22253 0.23147,0.23151 0.0311,0.0314 0.069,0.0686 0.1002,0.1002 0.003,0.003 0.12742,0.12749 0.12742,0.12749 0.0187,0.0188 0.0391,0.0387 0.0569,0.0569 0.005,0.005 0.16992,0.16992 0.16992,0.16992 0.004,0.004 0.008,0.008 0.0122,0.0122 0.007,0.007 0.21239,0.21244 0.21239,0.21244 0.0175,0.0173 0.21452,0.21457 0.22303,0.22301 0.0258,0.0257 0.0637,0.0644 0.0888,0.0888 0.004,0.004 0.008,0.008 0.0122,0.0123 0.0326,0.0325 0.0891,0.0872 0.12109,0.11891 0.0181,0.0182 0.0373,0.0373 0.055,0.055 0.008,0.008 0.0219,0.0219 0.0294,0.0294 0.002,0.002 0.004,0.004 0.006,0.006 0,0 0.002,0.002 0.002,0.002 0,0 0.002,0.002 0.002,0.002 10e-4,10e-4 9.3e-4,0.003 0.002,0.004 0.004,0.004 0.01,0.01 0.0156,0.0152 0.003,0.003 0.0164,0.0164 0.0197,0.0197 0.005,0.005 0.0321,0.0321 0.038,0.0378 0.002,0.002 0.0474,0.0474 0.0491,0.0491 0.0168,0.0167 0.21064,0.21072 0.21875,0.21877 0.0314,0.0312 0.13319,0.13125 0.16143,0.15929 0,0 0.002,0.002 0.002,0.002 0.009,0.009 0.0447,0.0448 0.053,0.053 0.0274,0.0276 0.0591,0.0589 0.0865,0.0865 0.003,0.003 0.12741,0.12741 0.12741,0.12741 0.0114,0.0115 0.0262,0.0261 0.0379,0.0378 0.0186,0.0185 0.0768,0.0769 0.094,0.0938 0.003,0.003 0.005,0.005 0.008,0.008 0,0 0,0.002 0,0.002 0,0 0.002,0.002 0.002,0.002 10e-4,10e-4 0.003,0.003 0.004,0.004 0.002,0.002 0.006,0.006 0.008,0.008 0.002,0.002 0.0102,0.0101 0.0122,0.0122 0.001,0.001 0.0341,0.0341 0.0354,0.0354 3.3e-4,3.1e-4 0.008,0.008 0.008,0.008 0.0156,0.0155 0.20268,0.20277 0.21026,0.21025 0.01,0.009 0.13979,0.13983 0.14652,0.14657 0,0 0.002,0 0.002,0 0,0 0.002,0.002 0.002,0.002 0.003,0.002 0.057,0.057 0.0589,0.0589 0.0181,0.0182 0.0376,0.0371 0.055,0.055 0.01,0.01 0.0415,0.0415 0.051,0.0511 0.006,0.006 0.0175,0.0175 0.0236,0.0236 0.002,0.002 0.005,0.005 0.008,0.008 0,0 0.002,0.002 0.002,0.002 0,0 0,0.002 0,0.002 0,0 0.002,0.002 0.002,0.002 0.003,0.003 0.0347,0.0347 0.0378,0.0377 9.9e-4,10e-4 0.0247,0.0247 0.0255,0.0255 0.002,0.002 0.004,0.004 0.006,0.006 0.0275,0.0272 0.40354,0.4036 0.40354,0.4036 0.0134,0.0131 0.19481,0.19486 0.20177,0.20173 0.0321,0.032 0.0952,0.0954 0.1253,0.12535 0,0 0.002,0 0.002,0 0,0 0.002,0.002 0.002,0.002 0.002,0.002 0.007,0.007 0.01,0.01 0.006,0.006 0.0123,0.0122 0.0196,0.0197 0.01,0.01 0.0319,0.0319 0.0432,0.0432 0.0327,0.033 0.0716,0.0732 0.1042,0.10627 0.004,0.003 0.0201,0.0182 0.0236,0.0216 0.002,0.002 0.004,0.004 0.006,0.006 0,0 0.002,0.002 0.002,0.002 0,0 0,0.002 0,0.002 0,0 0.002,0.002 0.002,0.002 0.002,0.002 0.006,0.006 0.008,0.008 0.002,0.002 0.0102,0.0103 0.0123,0.0123 0.001,0.001 0.0361,0.0362 0.038,0.038 0.0123,0.0122 0.19089,0.19097 0.19755,0.19754 0.0151,0.0151 0.0696,0.0698 0.0825,0.0825 0.001,0.001 0.003,5.6e-4 0.004,0.002 0.003,0.003 0.0183,0.0184 0.0216,0.0216 0.01,0.01 0.0235,0.0234 0.0334,0.0334 0.008,0.008 0.0455,0.0455 0.053,0.053 0.0274,0.0276 0.0591,0.0589 0.0866,0.0865 0.002,0.002 0.10628,0.10625 0.10628,0.10625 0.009,0.009 0.0222,0.0221 0.0314,0.0314 0.008,0.008 0.14771,0.14779 0.15289,0.15293 0,0 0.002,0.002 0.002,0.002 0,0 0,0.002 0,0.002 0,0 0.002,0.002 0.002,0.002 0,0 0.002,0.002 0.002,0.002 0.0113,0.0114 0.18291,0.18299 0.18901,0.18904 4.2e-4,4.2e-4 0.007,0.007 0.008,0.008 0,0 0.002,0.002 0.002,0.002 0,0 0.002,0.002 0.002,0.002 0.004,0.004 0.007,0.005 0.0122,0.01 0,0 0.002,0.002 0.002,0.002 0,0 0.002,0.002 0.002,0.002 0.002,0.002 0.002,0.002 0.004,0.004 0.007,0.007 0.0166,0.0166 0.0236,0.0236 0.007,0.007 0.12744,0.12751 0.13169,0.13165 0.0183,0.0182 0.061,0.0612 0.0786,0.0786 0.002,0.002 0.006,0.006 0.008,0.008 0,0 0.002,0.002 0.002,0.002 0,0 0,0.002 0,0.002 0,0 0.002,0.002 0.002,0.002 0.001,0.001 0.004,0.005 0.006,0.006 0.001,0.001 0.006,0.006 0.008,0.008 0.004,0.004 0.0277,0.0277 0.0314,0.0314 0.002,0.002 0.0233,0.0233 0.0255,0.0255 8e-5,7e-5 0.0216,0.0216 0.0216,0.0216 0.005,0.005 0.18477,0.1848 0.18477,0.1848 0.0105,0.0103 0.17695,0.177 0.18265,0.18264 0.0225,0.0223 0.36108,0.36109 0.36108,0.36109 0.01,0.01 0.17093,0.17096 0.1763,0.17627 0.004,0.004 0.008,0.008 0.0123,0.0123 0.009,0.009 0.15861,0.15867 0.16354,0.16352 0.003,0.003 0.06,0.0581 0.0631,0.0609 0.0342,0.0345 0.0759,0.0756 0.11047,0.11044 0,0 0,0.002 0,0.002 0.009,0.009 0.16699,0.16704 0.17203,0.17203 0.002,0.002 0.0407,0.0377 0.0432,0.0408 0.033,0.0332 0.0732,0.073 0.10626,0.10627 7.1e-4,7e-4 0.021,0.023 0.0216,0.0236 0.009,0.009 0.16292,0.16299 0.16779,0.16781 7.6e-4,7.4e-4 0.0135,0.0112 0.0153,0.0122 0.0311,0.0314 0.0691,0.0687 0.1002,0.1002 0.002,0.002 0.0516,0.0536 0.053,0.055 0.002,0.002 0.0432,0.041 0.0452,0.043 0.0302,0.0304 0.0651,0.0677 0.0959,0.0982 8e-4,8.4e-4 0.0249,0.0249 0.0255,0.0255 0.005,0.005 0.0482,0.0483 0.053,0.053 0.002,0.002 0.002,3.7e-4 0.004,0.002 5.8e-4,5.9e-4 0.005,0.005 0.006,0.006 0.002,0.002 0.004,0.004 0.006,0.006 0.008,0.008 0.0853,0.0854 0.0939,0.0938 0.0283,0.0286 0.0602,0.0622 0.0885,0.0915 8.4e-4,8.4e-4 0.0726,0.0707 0.0727,0.0707 0.005,0.005 0.0113,0.0113 0.0177,0.0177 0.0132,0.0124 0.0492,0.0493 0.061,0.0609 0.004,0.004 0.0153,0.0155 0.0197,0.0197 0,0 0.002,0.002 0.002,0.002 0,0 0,0.002 0,0.002 0,0 0.002,0.002 0.002,0.002 0,0 0.002,0.002 0.002,0.002 0.003,0.003 0.023,0.023 0.0255,0.0255 10e-4,10e-4 0.0187,0.0187 0.0196,0.0196 3e-5,3e-5 0.01,0.01 0.01,0.01 0.002,0.002 0.03,0.0281 0.0314,0.0294 0.0261,0.0264 0.0564,0.0562 0.0825,0.0825 0.001,10e-4 0.0417,0.0441 0.0432,0.0452 0.002,0.002 0.0386,0.0356 0.0409,0.0379 0.0255,0.0257 0.0551,0.0549 0.0805,0.0805 0.001,0.001 0.0344,0.0365 0.0353,0.0379 0,0 0.002,0.002 0.002,0.002 0.002,0.002 0.002,4.8e-4 0.004,0.002 0.002,0.002 0.0193,0.0193 0.0216,0.0216 0.004,0.004 0.009,0.009 0.0155,0.0155 0.0243,0.0245 0.0524,0.0522 0.0766,0.0766 0.004,0.004 0.032,0.032 0.0354,0.0353 0.005,0.005 0.0162,0.0161 0.0216,0.0216 0.001,10e-4 0.003,0.003 0.004,0.004 0,0 0.002,0.002 0.002,0.002 0,0 0,0.002 0,0.002 0.001,0.001 0.003,0.003 0.004,0.004 0.003,0.003 0.0132,0.0136 0.0177,0.0177 0.003,0.003 0.0165,0.0165 0.0197,0.0197 0.003,0.003 0.0169,0.017 0.0197,0.0197 0.002,0.002 0.0174,0.0174 0.0197,0.0197 3.6e-4,3.2e-4 0.006,0.004 0.006,0.004 0.002,0.002 0.002,0.004 0.004,0.006 9.1e-4,9e-4 0.007,0.007 0.008,0.008 9.5e-4,9.5e-4 0.0169,0.0169 0.0177,0.0177 2.8e-4,2.3e-4 0.008,0.008 0.008,0.008 0.001,10e-4 0.0166,0.0166 0.0177,0.0177 0.004,0.004 0.009,0.009 0.0157,0.0153 0.002,0.002 0.0295,0.0295 0.0314,0.0314 0,0 0.002,0.002 0.002,0.002 0.002,0.002 0.002,0.002 0.004,0.004 0.001,10e-4 0.002,5.1e-4 0.004,0.002 0.008,0.008 0.0195,0.0194 0.0275,0.0275 0.003,0.003 0.0487,0.0487 0.0511,0.0511 0.005,0.005 0.0113,0.0114 0.0177,0.0177 0.01,0.01 0.0495,0.0495 0.0589,0.0589 0.002,0.002 0.004,0.006 0.006,0.008 0.001,0.001 0.006,0.004 0.008,0.006 0,0 0.002,0.002 0.002,0.002 0,0 0,0.002 0,0.002 0,0 0.002,0.002 0.002,0.002 0.002,0.002 0.016,0.016 0.0177,0.0177 0.001,0.001 0.0145,0.0134 0.0154,0.0156 6.6e-4,6.5e-4 0.0115,0.0113 0.0129,0.0122 1e-5,2e-5 0.008,0.008 0.008,0.008 0.003,0.003 0.0586,0.0567 0.061,0.0589 0.0199,0.0201 0.0429,0.0425 0.061,0.0609 7.1e-4,7e-4 0.023,0.025 0.0236,0.0255 0.002,0.002 0.0339,0.032 0.0354,0.0334 0.0187,0.0188 0.0392,0.0393 0.057,0.057 0.002,0.002 0.0518,0.0537 0.053,0.055 0,0 0.002,0 0.002,0 0.0175,0.0176 0.0357,0.0356 0.053,0.053 0.0174,0.0176 0.0358,0.0356 0.053,0.053 0.008,0.008 0.0192,0.0211 0.0275,0.0295 1.5e-4,1.6e-4 0.006,0.006 0.006,0.006 0.004,0.004 0.009,0.009 0.0154,0.0155 0.002,0.002 0.0474,0.0455 0.0491,0.0471 0.0158,0.0159 0.0313,0.0331 0.0471,0.0491 9.6e-4,9.4e-4 0.0307,0.0307 0.0314,0.0314 6e-4,5.3e-4 0.0146,0.0115 0.0155,0.0127 0.0132,0.0132 0.0289,0.0288 0.0432,0.0432 0.0129,0.0126 0.0272,0.0291 0.0407,0.0431 0.001,0.001 0.0421,0.0423 0.043,0.0432 0.0168,0.0168 0.0465,0.0465 0.061,0.0609 0,0 0.002,0.002 0.002,0.002 0,0 0.002,0.002 0.002,0.002 10e-4,10e-4 0.002,5.6e-4 0.004,0.002 0,0 0.002,0.002 0.002,0.002 0.005,0.005 0.0143,0.0138 0.0197,0.0196 0.004,0.004 0.009,0.009 0.0157,0.0157 0.008,0.008 0.0255,0.0255 0.0334,0.0334 0.009,0.009 0.0208,0.0207 0.0294,0.0294 0.009,0.009 0.0208,0.0207 0.0295,0.0295 0.008,0.008 0.0195,0.0194 0.0275,0.0275 0.007,0.007 0.0181,0.0181 0.0255,0.0255 8.7e-4,8.3e-4 0.0169,0.017 0.0177,0.0177 7.4e-4,7e-4 0.005,0.005 0.006,0.006 0.006,0.007 0.0148,0.017 0.0216,0.0236 0.004,0.004 0.0174,0.015 0.0216,0.0197 0,0 0,0.002 0,0.002 0.004,0.004 0.0158,0.013 0.0197,0.0177 0.005,0.005 0.0113,0.0113 0.0177,0.0177 0,0 0,0.002 0,0.002 0.003,0.003 0.0113,0.009 0.0155,0.0123 0.003,0.003 0.009,0.009 0.0126,0.012 7e-4,7.4e-4 0.001,0.003 0.002,0.004 0,0 0.002,0.002 0.002,0.002 0,0 0.002,0.002 0.002,0.002 0,0 0.002,0.002 0.002,0.002 0,0 0.002,0 0.002,0 0.003,0.003 0.003,0.005 0.006,0.008 0.002,0.002 0.002,4.1e-4 0.004,0.002 0,0 0.002,0.002 0.002,0.002 0,0 0.002,0.002 0.002,0.002 0.002,0.002 0.002,0.002 0.004,0.004 0.002,0.002 0.004,0.004 0.006,0.006 0.001,0.001 0.003,0.003 0.004,0.004 6.9e-4,6.5e-4 0.001,10e-4 0.002,0.002 0.009,0.009 0.0488,0.0489 0.0569,0.057 0.002,0.002 0.006,0.006 0.008,0.008 0,0 0.002,0.002 0.002,0.002 0,0 0,0.002 0,0.002 4.7e-4,4.8e-4 0.003,0.003 0.004,0.004 0.001,10e-4 0.0111,0.0112 0.0122,0.0127 9.4e-4,8.7e-4 0.0113,0.0114 0.0122,0.0128 5.3e-4,5.1e-4 0.009,0.009 0.01,0.01 2.8e-4,2.4e-4 0.01,0.01 0.01,0.01 0.005,0.005 0.12874,0.12876 0.13172,0.13169 0.005,0.005 0.12664,0.12665 0.12955,0.12954 0.005,0.005 0.12673,0.12677 0.12954,0.12954 0.005,0.005 0.12263,0.12264 0.12534,0.12533 0.005,0.005 0.12266,0.12269 0.12531,0.12532 0.006,0.006 0.0576,0.0576 0.0628,0.0631 0,0 0.002,0.002 0.002,0.002 0,0 0.002,0.002 0.002,0.002 0,0 0.002,0.002 0.002,0.002 0,0 0.002,0.002 0.002,0.002 0.001,0.001 0.003,6e-4 0.004,0.002 0.004,0.004 0.0437,0.0437 0.0471,0.0471 0,0 0.002,0.002 0.002,0.002 0,0 0,0.002 0,0.002 0,0 0.002,0.002 0.002,0.002 10e-4,10e-4 0.003,0.003 0.004,0.004 0.001,0.001 0.003,0.003 0.004,0.004 0.001,10e-4 0.004,0.005 0.006,0.006 0.002,0.002 0.006,0.006 0.008,0.008 0.002,0.002 0.008,0.008 0.01,0.01 0.002,0.002 0.01,0.01 0.0123,0.0128 0.002,0.002 0.0114,0.0114 0.0155,0.0154 0.002,0.002 0.015,0.0153 0.0177,0.0177 0.001,10e-4 0.0182,0.0182 0.0197,0.0197 4.6e-4,4.4e-4 0.009,0.009 0.01,0.01 1.4e-4,1.3e-4 0.006,0.006 0.006,0.006 0.006,0.006 0.1,0.1001 0.10417,0.10419 0,0 0.002,0.002 0.002,0.002 10e-4,10e-4 0.004,0.004 0.006,0.006 0,0 0.002,0.002 0.002,0.002 0,0 0.002,0.002 0.002,0.002 0.001,10e-4 0.003,5.8e-4 0.004,0.002 0.009,0.009 0.0448,0.0449 0.053,0.053 0.002,0.002 0.008,0.008 0.01,0.01 0,0 0.002,0.002 0.002,0.002 0,0 0,0.002 0,0.002 0.002,0.002 0.0123,0.013 0.0157,0.0156 0.002,0.002 0.0136,0.0131 0.0155,0.0156 6.3e-4,6.2e-4 0.0143,0.0139 0.0154,0.0147 1e-5,1e-5 0.006,0.006 0.006,0.006 0.004,0.004 0.11242,0.11241 0.11471,0.11467 0.004,0.004 0.11245,0.11248 0.11468,0.11466 0.002,0.002 0.0115,0.0115 0.0155,0.0155 0,0 0.002,0.002 0.002,0.002 0.002,0.002 0.004,0.004 0.006,0.006 0.0201,0.0201 0.0292,0.0292 0.0491,0.0491 0,0 0.002,0.002 0.002,0.002 4.6e-4,4.7e-4 0.002,-4.9e-4 0.002,0 0,0 0.002,0.002 0.002,0.002 0.0139,0.0142 0.0204,0.0205 0.0334,0.0334 0.008,0.008 0.21876,0.21877 0.21876,0.21877 0.007,0.007 0.0269,0.027 0.0334,0.0334 0.002,0.002 0.006,0.006 0.008,0.008 0,0 0.002,0.002 0.002,0.002 0,0 0,0.002 0,0.002 0.001,10e-4 0.008,0.008 0.01,0.01 0.001,10e-4 0.009,0.009 0.01,0.01 9.6e-4,9.9e-4 0.009,0.009 0.01,0.01 6.4e-4,6.5e-4 0.007,0.007 0.008,0.008 4.5e-4,4.7e-4 0.007,0.007 0.008,0.008 2.3e-4,2.2e-4 0.006,0.006 0.006,0.006 8e-5,8e-5 0.006,0.006 0.006,0.006 0.003,0.003 0.10242,0.10241 0.10417,0.10417 0.003,0.003 0.10242,0.10241 0.10417,0.10418 0.003,0.003 0.1005,0.1005 0.10211,0.10212 0.006,0.006 0.1975,0.19754 0.1975,0.19754 0.003,0.003 0.0945,0.0945 0.0961,0.0958 0.006,0.005 0.18692,0.18692 0.18692,0.18692 0.005,0.005 0.18053,0.18053 0.18053,0.18053 0.002,0.002 0.0852,0.0852 0.0864,0.0865 0.001,0.001 0.0138,0.0139 0.0157,0.0155 0,0 0.002,0.002 0.002,0.002 0,0 0.002,0.002 0.002,0.002 0,0 0.002,0.002 0.002,0.002 3.2e-4,3.6e-4 0.002,-3.3e-4 0.002,0 0,0 0.002,0.002 0.002,0.002 0.006,0.006 0.055,0.055 0.0609,0.061 0.004,0.004 0.0174,0.0174 0.0216,0.0216 0,0 0.002,0.002 0.002,0.002 0,0 0,0.002 0,0.002 0,0 0.002,0.002 0.002,0.002 0,0 0.002,0.002 0.002,0.002 0.001,0.001 0.006,0.006 0.008,0.008 0.001,10e-4 0.008,0.008 0.01,0.01 0.001,10e-4 0.009,0.009 0.01,0.01 9e-4,8.9e-4 0.007,0.007 0.008,0.008 6.2e-4,5.9e-4 0.007,0.007 0.008,0.008 1.1e-4,10e-5 0.008,0.008 0.008,0.008 0.002,0.002 0.0814,0.0814 0.0825,0.0825 0.004,0.004 0.0572,0.0572 0.061,0.0609 2.8e-4,3e-4 0.002,-2.8e-4 0.002,0 0,0 0.002,0.002 0.002,0.002 9.9e-4,10e-4 0.0141,0.0146 0.0151,0.0155 0.004,0.004 0.15508,0.15505 0.15508,0.15505 0.003,0.003 0.0701,0.0702 0.0727,0.0727 0,0 0.002,0.002 0.002,0.002 0,0 0,0.002 0,0.002 0,0 0.002,0.002 0.002,0.002 4.3e-4,4.5e-4 0.0212,0.0212 0.0216,0.0216 0,0 0.002,0.002 0.002,0.002 2.6e-4,2.6e-4 0.002,-2.4e-4 0.002,0 0,0 0.002,0.002 0.002,0.002 8.9e-4,8.8e-4 0.0447,0.0447 0.0452,0.0452 0.006,0.006 0.0518,0.0519 0.0569,0.057 8.3e-4,8.4e-4 0.005,0.005 0.006,0.006 0,0 0,0.002 0,0.002 1.4e-4,1.1e-4 0.004,0.004 0.004,0.004 0,0 0.002,0.002 0.002,0.002 0.003,0.003 0.13805,0.13806 0.13805,0.13806 0.001,10e-4 0.0653,0.0653 0.0662,0.066 5.3e-4,5.2e-4 0.005,0.005 0.006,0.006 0,0 0.002,0.002 0.002,0.002 2e-4,2.2e-4 0.002,-1.9e-4 0.002,0 6.8e-4,7.4e-4 0.003,0.003 0.004,0.004 0.004,0.004 0.0475,0.0475 0.0511,0.0511 0.004,0.004 0.0356,0.0356 0.0409,0.0405 6.4e-4,6.3e-4 0.003,0.003 0.004,0.004 0,0 0,0.002 0,0.002 5.1e-4,4.9e-4 0.005,0.005 0.006,0.006 2.1e-4,2.3e-4 0.004,0.004 0.004,0.004 1.9e-4,1.7e-4 0.004,0.004 0.004,0.004 0,0 0.002,0.002 0.002,0.002 0.001,10e-4 0.0167,0.0166 0.0177,0.0177 1.9e-4,1.8e-4 0.002,-1.6e-4 0.002,0 6.4e-4,6.5e-4 0.003,0.003 0.004,0.004 0.002,0.002 0.0353,0.0353 0.0377,0.0378 0.002,0.002 0.11684,0.11681 0.11684,0.11681 0.003,0.003 0.0486,0.0487 0.051,0.0511 4.3e-4,4.2e-4 0.002,0.004 0.002,0.004 0,0 0.002,0.002 0.002,0.002 9.5e-4,9.5e-4 0.0526,0.0526 0.053,0.053 0,0 0.002,0.002 0.002,0.002 0,0 0.002,0.002 0.002,0.002 0,0 0.002,0.002 0.002,0.002 8e-4,7.2e-4 0.0468,0.0448 0.0471,0.0452 0.002,0.002 0.0292,0.0292 0.0314,0.0314 3.6e-4,4e-4 0.002,0.004 0.002,0.004 0,0 0.002,0.002 0.002,0.002 0,0 0.002,0.002 0.002,0.002 0,0 0.002,0.002 0.002,0.002 0,0 0.002,0.002 0.002,0.002 0,0 0.002,0.002 0.002,0.002 0,0 0.002,0.002 0.002,0.002 0,0 0.002,0.002 0.002,0.002 4.1e-4,4.3e-4 0.0491,0.0491 0.0491,0.0491 7.5e-4,7.2e-4 0.0468,0.0468 0.0471,0.0471 0.001,0.001 0.0892,0.0888 0.0892,0.0888 5.3e-4,5.5e-4 0.0406,0.0403 0.041,0.0411 5.6e-4,5.4e-4 0.0406,0.0407 0.0409,0.0409 4.8e-4,4.6e-4 0.0375,0.0378 0.0381,0.0378 4e-4,4.2e-4 0.0351,0.0351 0.0353,0.0353 4e-4,3.6e-4 0.0332,0.0332 0.0334,0.0334 3.6e-4,3.4e-4 0.0313,0.0313 0.0314,0.0314 3.1e-4,3.4e-4 0.0313,0.0313 0.0314,0.0314 5e-5,6e-5 0.002,-4e-5 0.002,0 6.2e-4,6.1e-4 0.0271,0.0271 0.0275,0.0275 4.7e-4,4.8e-4 0.053,0.053 0.053,0.053 6.8e-4,6.8e-4 0.023,0.025 0.0236,0.0255 1.6e-4,1.5e-4 0.0215,0.0215 0.0216,0.0216 1.4e-4,1.6e-4 0.0216,0.0216 0.0216,0.0216 2e-5,2e-5 0.002,-2e-5 0.002,0 5e-5,5e-5 0.0177,0.0177 0.0177,0.0177 2.4e-4,2.2e-4 0.0155,0.0175 0.0155,0.0177 1e-5,1e-5 0.002,-10e-6 0.002,0 3e-5,4e-5 0.0153,0.0153 0.0153,0.0153 1.1e-4,1.3e-4 0.0122,0.0151 0.0122,0.0151 4e-5,3e-5 0.01,0.01 0.01,0.01 1e-5,10e-6 0.002,0 0.002,0 2e-5,10e-6 0.008,0.008 0.008,0.008 5e-5,4e-5 0.0122,0.0152 0.0122,0.0152 0,0 0.006,0.004 0.006,0.004 0,0 0.002,0.002 0.002,0.002 0,0 8.39579,-8.16535 12.33784,-12.49076 5.31614,-5.83319 10.98583,-12.43515 15.23275,-18.12556 7.17424,-9.6127 14.46766,-19.97107 17.05931,-31.6825 1.58661,-7.16955 1.2941,-15.02417 -0.90478,-22.06115 -4.7e-4,-0.001 -0.002,-0.003 -0.002,-0.004 -0.1463,-0.46828 -0.29982,-0.93271 -0.46302,-1.3933 -3e-4,-8.3e-4 -0.002,-0.001 -0.002,-0.002 -0.18505,-0.52209 -0.37956,-1.04307 -0.58405,-1.56107 -3.5e-4,-8.6e-4 -0.002,-0.001 -0.002,-0.002 -0.40944,-1.03683 -0.85566,-2.06318 -1.34021,-3.07756 -6.6e-4,-0.001 -0.001,-0.003 -0.002,-0.004 -0.24177,-0.5062 -0.49206,-1.00895 -0.75187,-1.508 -7.3e-4,-0.001 -0.001,-0.003 -0.002,-0.004 -0.2602,-0.49962 -0.52935,-0.9953 -0.80711,-1.48677 -4.9e-4,-8.1e-4 -0.002,-0.001 -0.002,-0.002 -0.2778,-0.49141 -0.56314,-0.979 -0.85809,-1.46124 -4.8e-4,-8.5e-4 -10e-4,-0.001 -0.002,-0.002 -0.59048,-0.96526 -1.21466,-1.91104 -1.87117,-2.8333 -5.7e-4,-8.3e-4 -0.001,-0.001 -0.002,-0.002 -0.32798,-0.46077 -0.66298,-0.91509 -1.00676,-1.36358 -5.9e-4,-7.8e-4 -0.001,-10e-4 -0.002,-0.002 -0.17493,-0.22821 -0.35839,-0.45055 -0.53736,-0.67538 -0.17348,-0.218 -0.34314,-0.43949 -0.52035,-0.65421 -0.001,-0.001 -0.003,-0.002 -0.004,-0.004 -0.002,-0.002 -0.004,-0.004 -0.006,-0.006 -0.36156,-0.43767 -0.72994,-0.86811 -1.10659,-1.29132 0,0 -0.002,-0.002 -0.002,-0.002 -0.36835,-0.41387 -0.74336,-0.8222 -1.12569,-1.22123 -6.9e-4,-7.4e-4 -0.001,-0.001 -0.002,-0.002 -0.001,-0.001 -0.003,-0.003 -0.004,-0.004 -0.002,-0.002 -0.004,-0.004 -0.006,-0.006 -0.003,-0.003 -0.005,-0.005 -0.008,-0.008 -0.003,-0.003 -0.005,-0.005 -0.008,-0.008 -0.004,-0.004 -0.008,-0.008 -0.0132,-0.0122 -0.004,-0.004 -0.008,-0.008 -0.0123,-0.0125 -0.004,-0.005 -0.009,-0.009 -0.0152,-0.0152 -0.005,-0.005 -0.0106,-0.0103 -0.0177,-0.0177 -0.006,-0.006 -0.0123,-0.0121 -0.0196,-0.0197 -0.006,-0.006 -0.0129,-0.0123 -0.0197,-0.0197 -0.007,-0.007 -0.0165,-0.016 -0.0236,-0.0236 -0.007,-0.007 -0.0165,-0.0162 -0.0236,-0.0236 -0.008,-0.008 -0.0178,-0.0175 -0.0255,-0.0255 -0.008,-0.009 -0.0192,-0.0188 -0.0275,-0.0275 -0.009,-0.009 -0.0205,-0.0201 -0.0294,-0.0295 -0.009,-0.009 -0.0205,-0.0201 -0.0295,-0.0294 -0.0103,-0.0111 -0.0231,-0.0227 -0.0334,-0.0334 -0.0103,-0.011 -0.0231,-0.0227 -0.0334,-0.0334 -0.0114,-0.0114 -0.0244,-0.024 -0.0353,-0.0353 -0.10556,-0.10755 -0.21203,-0.21439 -0.31862,-0.32072 -0.16122,-0.16084 -0.31859,-0.32614 -0.48211,-0.48427 -0.001,-0.001 -0.001,-0.003 -0.002,-0.004 -10e-4,-0.001 -0.003,-0.003 -0.004,-0.004 0,0 -0.002,0 -0.002,0 -0.001,-10e-4 -0.003,-0.003 -0.004,-0.004 0,0 0,-0.002 0,-0.002 0,0 -0.002,-0.002 -0.002,-0.002 -0.001,-0.001 -0.003,-0.001 -0.004,-0.002 0,0 -0.002,-0.002 -0.002,-0.002 0,0 -0.002,-0.002 -0.002,-0.002 0,0 0,-0.002 0,-0.002 0,0 -0.002,-0.002 -0.002,-0.002 -0.001,-10e-4 -0.003,-0.003 -0.004,-0.004 -0.002,-0.002 -0.004,-0.002 -0.006,-0.004 -0.002,-0.002 -0.004,-0.004 -0.006,-0.006 -0.001,-0.001 -0.003,-0.003 -0.004,-0.004 -0.002,-0.002 -0.004,-0.004 -0.006,-0.006 0,0 -0.002,-0.002 -0.002,-0.002 0,0 -0.002,-0.002 -0.002,-0.002 -0.004,-0.004 -0.007,-0.01 -0.0122,-0.0156 -0.005,-0.005 -0.0114,-0.009 -0.0177,-0.0155 -0.004,-0.004 -0.008,-0.008 -0.0122,-0.0123 -0.002,-0.002 -0.004,-0.004 -0.006,-0.006 -0.006,-0.006 -0.0114,-0.0151 -0.0197,-0.0216 -0.003,-0.003 -0.007,-0.005 -0.01,-0.008 -0.002,-0.002 -0.002,-0.004 -0.004,-0.006 -0.002,-0.002 -0.004,-0.004 -0.006,-0.006 -0.008,-0.007 -0.0179,-0.0162 -0.0255,-0.0236 -0.001,-0.001 -0.003,-0.003 -0.004,-0.004 -0.005,-0.004 -0.009,-0.009 -0.0157,-0.0155 -0.002,-0.002 -0.004,-0.004 -0.006,-0.006 -0.009,-0.008 -0.0188,-0.0191 -0.0275,-0.0275 -0.009,-0.009 -0.0186,-0.0207 -0.0275,-0.0294 -0.002,-0.002 -0.006,-0.004 -0.008,-0.006 -0.008,-0.007 -0.0158,-0.0181 -0.0236,-0.0255 -0.007,-0.007 -0.0164,-0.0138 -0.0236,-0.0216 0,0 -0.002,-0.002 -0.002,-0.002 -0.002,-0.002 -0.004,-0.006 -0.006,-0.008 -0.004,-0.004 -0.009,-0.008 -0.0152,-0.0123 -0.006,-0.006 -0.0115,-0.0146 -0.0196,-0.0216 -0.0122,-0.0115 -0.0256,-0.0241 -0.0377,-0.0353 -0.0115,-0.0115 -0.0238,-0.0259 -0.0353,-0.038 -0.002,-0.002 -0.004,-0.004 -0.006,-0.006 -0.0106,-0.0104 -0.0228,-0.023 -0.0334,-0.0334 -0.0139,-0.0134 -0.0282,-0.0267 -0.0432,-0.0405 -0.001,-10e-4 -0.003,-0.003 -0.004,-0.004 -0.0125,-0.0123 -0.0251,-0.0273 -0.0379,-0.0406 -0.009,-0.009 -0.0224,-0.0208 -0.0314,-0.0295 -0.004,-0.004 -0.007,-0.009 -0.0123,-0.0154 -0.005,-0.005 -0.009,-0.009 -0.0155,-0.0152 -0.01,-0.01 -0.0216,-0.0217 -0.0314,-0.0314 -0.003,-0.003 -0.006,-0.007 -0.01,-0.01 -0.0123,-0.0123 -0.0255,-0.0256 -0.0377,-0.038 -0.0177,-0.0171 -0.0334,-0.032 -0.0511,-0.0491 -0.0181,-0.0179 -0.0329,-0.0352 -0.0511,-0.053 -0.019,-0.0184 -0.0362,-0.0346 -0.055,-0.053 -0.0575,-0.0563 -0.1138,-0.11574 -0.17203,-0.17203 -0.0305,-0.0297 -0.0597,-0.0607 -0.091,-0.0913 -0.01,-0.01 -0.0215,-0.0218 -0.0314,-0.0314 -0.0242,-0.0235 -0.0465,-0.0492 -0.0707,-0.0727 -0.0226,-0.0219 -0.0442,-0.0449 -0.0657,-0.066 -0.0232,-0.0226 -0.0455,-0.0462 -0.0684,-0.0687 -0.0322,-0.0313 -0.0648,-0.0639 -0.0982,-0.0961 -0.0122,-0.0128 -0.0253,-0.0258 -0.0379,-0.0379 -0.0364,-0.0352 -0.0737,-0.0729 -0.11043,-0.10831 -0.0132,-0.0125 -0.0251,-0.0273 -0.0379,-0.041 -0.003,-0.003 -0.005,-0.005 -0.008,-0.008 -0.0231,-0.0227 -0.0456,-0.0461 -0.0687,-0.0685 -0.002,-0.002 -0.004,-0.004 -0.006,-0.006 -0.0245,-0.0239 -0.0482,-0.0488 -0.0727,-0.0727 -0.002,-0.002 -0.004,-0.004 -0.006,-0.006 -0.0252,-0.0245 -0.0494,-0.0502 -0.0746,-0.0746 -0.0389,-0.0374 -0.076,-0.0772 -0.11468,-0.11468 -0.0179,-0.0174 -0.0331,-0.0337 -0.0511,-0.0511 -0.0314,-0.0306 -0.0608,-0.0646 -0.0937,-0.0962 -0.0291,-0.0284 -0.0572,-0.0581 -0.0864,-0.0864 -0.0298,-0.029 -0.0585,-0.0594 -0.0887,-0.0889 -0.0401,-0.0384 -0.0789,-0.0783 -0.11892,-0.11681 -0.0199,-0.0194 -0.0373,-0.0385 -0.0569,-0.057 -0.0314,-0.0308 -0.0608,-0.064 -0.0939,-0.096 -0.003,-0.003 -0.005,-0.005 -0.008,-0.008 -0.0414,-0.04 -0.0818,-0.0792 -0.12321,-0.11893 -0.0222,-0.0216 -0.0426,-0.0452 -0.0632,-0.0661 -0.0354,-0.0345 -0.0705,-0.0736 -0.10626,-0.10831 -0.0342,-0.0333 -0.0698,-0.0687 -0.10419,-0.10211 -0.0344,-0.0335 -0.0696,-0.0707 -0.10418,-0.10418 -0.0477,-0.0466 -0.0932,-0.0946 -0.14019,-0.14019 -0.0211,-0.0208 -0.0412,-0.0419 -0.0609,-0.0609 -0.004,-0.004 -0.009,-0.008 -0.0153,-0.0122 -0.0314,-0.0308 -0.0608,-0.0645 -0.0937,-0.096 -0.003,-0.003 -0.007,-0.005 -0.01,-0.008 -0.0334,-0.0326 -0.0657,-0.0696 -0.1002,-0.10213 -0.0419,-0.0408 -0.0796,-0.0828 -0.12103,-0.12319 -0.0494,-0.0482 -0.0978,-0.0974 -0.14655,-0.14444 -0.0251,-0.0246 -0.0495,-0.0501 -0.0746,-0.0746 -0.003,-0.003 -0.006,-0.007 -0.01,-0.01 -0.0351,-0.0342 -0.0709,-0.072 -0.10625,-0.10629 -0.0526,-0.0514 -0.10427,-0.10408 -0.15715,-0.15504 -0.0311,-0.0303 -0.0612,-0.0621 -0.0939,-0.0937 -0.0376,-0.037 -0.0746,-0.0774 -0.11257,-0.11468 0,0 -0.002,-0.002 -0.002,-0.002 -0.0416,-0.0404 -0.0798,-0.0827 -0.12107,-0.12314 -0.009,-0.009 -0.0204,-0.0188 -0.0295,-0.0275 -0.0324,-0.0316 -0.0645,-0.0661 -0.0982,-0.0982 -0.0576,-0.0562 -0.11373,-0.11585 -0.17203,-0.17208 -0.0286,-0.0283 -0.0558,-0.0582 -0.0844,-0.0864 -0.005,-0.005 -0.0111,-0.009 -0.0177,-0.0157 -0.0386,-0.0378 -0.0759,-0.0787 -0.1147,-0.11678 -0.009,-0.009 -0.0204,-0.0188 -0.0295,-0.0275 -0.0344,-0.0336 -0.0696,-0.0706 -0.10419,-0.10418 -0.0576,-0.0563 -0.11365,-0.11574 -0.17203,-0.17203 -0.0331,-0.0323 -0.0666,-0.0677 -0.1002,-0.1002 -0.0512,-0.0501 -0.0998,-0.10346 -0.15079,-0.15292 -0.0476,-0.0465 -0.0932,-0.0949 -0.1402,-0.14018 -0.0566,-0.0553 -0.11265,-0.11264 -0.16989,-0.16781 -0.0344,-0.0336 -0.0695,-0.0707 -0.10418,-0.10418 -0.0662,-0.064 -0.12913,-0.13158 -0.19541,-0.19541 -0.0323,-0.0318 -0.0647,-0.0657 -0.0982,-0.0982 -0.004,-0.004 -0.009,-0.008 -0.0156,-0.0123 -0.046,-0.0449 -0.0876,-0.0918 -0.13378,-0.1359 -0.0657,-0.0639 -0.12953,-0.12981 -0.19544,-0.1933 -0.0359,-0.0354 -0.072,-0.0747 -0.1083,-0.11045 -0.005,-0.005 -0.0113,-0.009 -0.0177,-0.0156 -0.0473,-0.0462 -0.091,-0.0951 -0.13805,-0.14016 -0.0568,-0.0556 -0.11241,-0.11435 -0.16991,-0.16991 -0.0609,-0.0595 -0.12072,-0.12293 -0.18268,-0.18268 -0.052,-0.0508 -0.10304,-0.10273 -0.15505,-0.15291 -0.0212,-0.0207 -0.0414,-0.042 -0.0609,-0.0609 -0.0228,-0.0224 -0.044,-0.0464 -0.0662,-0.0687 -0.006,-0.005 -0.0123,-0.0102 -0.0197,-0.0177 -0.0493,-0.0482 -0.0959,-0.0994 -0.14441,-0.14655 -0.0599,-0.0586 -0.11759,-0.12177 -0.1784,-0.18055 -0.0565,-0.0553 -0.11277,-0.11256 -0.16992,-0.16777 -0.0563,-0.055 -0.11094,-0.11285 -0.1678,-0.16782 -0.0569,-0.0557 -0.1123,-0.11426 -0.16991,-0.16989 -0.0576,-0.0563 -0.11372,-0.11571 -0.17201,-0.17202 -0.0663,-0.0643 -0.12915,-0.13145 -0.19542,-0.19542 -0.0463,-0.0452 -0.0895,-0.0918 -0.13596,-0.13592 -0.001,-0.001 -0.001,-0.003 -0.002,-0.004 -0.009,-0.009 -0.0205,-0.0188 -0.0295,-0.0275 -0.0503,-0.0492 -0.0988,-0.1003 -0.14867,-0.14867 -0.0663,-0.0648 -0.12891,-0.13334 -0.1954,-0.19756 -0.0605,-0.0592 -0.12118,-0.12113 -0.18266,-0.18051 -0.0609,-0.0595 -0.12085,-0.12296 -0.18267,-0.18267 -0.0685,-0.0665 -0.1334,-0.13583 -0.20176,-0.20178 -0.0509,-0.0498 -0.1001,-0.10171 -0.15083,-0.15077 -0.0777,-0.0762 -0.15329,-0.15401 -0.23147,-0.22944 -0.0552,-0.054 -0.1078,-0.11178 -0.16353,-0.16562 -0.0641,-0.0623 -0.12641,-0.12863 -0.19116,-0.19114 -0.0658,-0.0635 -0.12957,-0.12972 -0.19541,-0.1933 -0.0589,-0.0583 -0.11656,-0.11991 -0.1763,-0.1784 -0.003,-0.003 -0.005,-0.005 -0.008,-0.008 -0.0324,-0.0317 -0.0641,-0.0661 -0.0982,-0.0982 -0.03,-0.0296 -0.0583,-0.0609 -0.0888,-0.0916 -0.009,-0.009 -0.0205,-0.0188 -0.0294,-0.0275 -0.0568,-0.0556 -0.11241,-0.1143 -0.16989,-0.16991 -0.0733,-0.0719 -0.14335,-0.14581 -0.21666,-0.21665 -0.0686,-0.0667 -0.13338,-0.13569 -0.20174,-0.20177 -0.0693,-0.0674 -0.1348,-0.13712 -0.20392,-0.20388 -0.0796,-0.0781 -0.15762,-0.15835 -0.23791,-0.23574 -0.0539,-0.0527 -0.105,-0.10894 -0.15927,-0.16143 -0.0843,-0.0827 -0.16737,-0.1683 -0.25274,-0.25062 -0.0552,-0.0569 -0.11209,-0.11299 -0.16778,-0.16991 -0.003,-0.003 -0.006,-0.007 -0.01,-0.01 -0.067,-0.0687 -0.13481,-0.13422 -0.20179,-0.20178 -0.003,-0.003 -0.005,-0.005 -0.008,-0.008 -0.14039,-0.14146 -0.28052,-0.28326 -0.42265,-0.42264 -0.002,-0.002 -0.004,-0.002 -0.006,-0.004 -0.0716,-0.0703 -0.13874,-0.14324 -0.21023,-0.21238 0,0 0,-0.002 0,-0.002 -0.009,-0.009 -0.0205,-0.0188 -0.0295,-0.0275 -0.0639,-0.0622 -0.12647,-0.12862 -0.19115,-0.19113 -0.0805,-0.079 -0.15877,-0.16158 -0.24001,-0.24 -0.0752,-0.0738 -0.14749,-0.15013 -0.22301,-0.22301 -0.0762,-0.0748 -0.14856,-0.15336 -0.22515,-0.22727 -0.0819,-0.0803 -0.16362,-0.16235 -0.24634,-0.24212 -0.0645,-0.0628 -0.12614,-0.13037 -0.19115,-0.19331 -0.0834,-0.082 -0.16404,-0.16904 -0.24852,-0.25059 -0.078,-0.0765 -0.15304,-0.15574 -0.2315,-0.23152 -0.079,-0.0775 -0.15618,-0.15682 -0.23576,-0.23363 -0.0793,-0.0779 -0.15582,-0.15857 -0.23577,-0.23575 -0.0838,-0.0823 -0.16573,-0.16873 -0.2506,-0.25062 -0.0164,-0.0164 -0.0307,-0.0308 -0.0471,-0.0471 -0.0536,-0.0524 -0.10542,-0.10724 -0.1593,-0.15931 -0.0967,-0.0949 -0.18977,-0.19113 -0.28671,-0.28457 -0.0737,-0.0722 -0.14291,-0.14757 -0.21667,-0.21876 -0.0792,-0.0778 -0.15593,-0.15863 -0.23572,-0.23575 -0.0315,-0.0314 -0.063,-0.0633 -0.0962,-0.0961 -0.0476,-0.0466 -0.0931,-0.095 -0.14017,-0.14017 -0.0899,-0.0881 -0.17656,-0.18184 -0.26763,-0.26971 -0.0838,-0.0823 -0.1658,-0.16876 -0.2506,-0.2507 -0.0932,-0.0911 -0.18457,-0.18364 -0.27823,-0.27395 -0.0766,-0.0752 -0.15029,-0.15299 -0.22728,-0.22725 -0.0851,-0.0837 -0.16851,-0.17151 -0.25488,-0.25489 -0.0841,-0.0827 -0.16539,-0.17042 -0.25062,-0.25274 -0.0471,-0.0471 -0.0937,-0.0938 -0.14019,-0.14018 -0.0344,-0.0336 -0.0696,-0.0707 -0.10415,-0.10417 -0.10358,-0.10191 -0.20362,-0.20739 -0.30797,-0.30797 -0.0779,-0.0765 -0.15311,-0.15579 -0.23152,-0.2315 -0.053,-0.053 -0.10596,-0.1066 -0.15927,-0.15929 -0.0291,-0.0284 -0.0572,-0.0581 -0.0865,-0.0865 -0.10595,-0.10426 -0.20957,-0.21131 -0.31645,-0.31433 -0.0792,-0.0778 -0.15589,-0.15862 -0.23577,-0.23576 -0.0592,-0.0592 -0.11831,-0.12113 -0.17839,-0.18051 -0.0245,-0.0239 -0.0481,-0.0489 -0.0727,-0.0727 -0.10738,-0.10564 -0.2124,-0.21414 -0.32075,-0.31859 -0.0819,-0.0804 -0.16149,-0.16435 -0.24426,-0.24426 -0.0653,-0.0653 -0.12961,-0.1325 -0.1954,-0.19752 -0.0199,-0.0194 -0.0375,-0.0385 -0.0569,-0.0569 -0.10981,-0.10805 -0.21627,-0.22026 -0.32709,-0.32707 -0.0835,-0.082 -0.16607,-0.16688 -0.25063,-0.24852 -0.0723,-0.0723 -0.1423,-0.1453 -0.2145,-0.21662 -0.0146,-0.0142 -0.0279,-0.0284 -0.043,-0.0432 -0.11158,-0.10986 -0.22082,-0.22278 -0.33345,-0.33134 -0.0858,-0.0843 -0.16992,-0.17293 -0.25701,-0.25699 -0.0965,-0.0948 -0.18783,-0.19333 -0.28457,-0.28671 -0.0966,-0.0951 -0.18998,-0.19121 -0.28675,-0.28462 -0.0815,-0.0816 -0.16191,-0.16514 -0.24427,-0.24637 -0.006,-0.006 -0.0123,-0.0123 -0.0197,-0.0197 -0.10638,-0.10482 -0.20917,-0.21293 -0.31646,-0.31645 -0.0988,-0.0974 -0.19388,-0.19737 -0.29311,-0.2931 -0.10742,-0.10577 -0.21221,-0.21412 -0.32066,-0.31859 -0.0808,-0.0809 -0.16057,-0.16385 -0.24216,-0.24428 -0.006,-0.005 -0.013,-0.0103 -0.0197,-0.0177 -0.1005,-0.0991 -0.19629,-0.20187 -0.29734,-0.29948 -0.0947,-0.0931 -0.1855,-0.18863 -0.28036,-0.28035 -0.1163,-0.11464 -0.22873,-0.23298 -0.3462,-0.34619 -0.0857,-0.0844 -0.17005,-0.17291 -0.25703,-0.25699 -0.11105,-0.10953 -0.21913,-0.2231 -0.33129,-0.33135 -0.10365,-0.10212 -0.20353,-0.20717 -0.30794,-0.30797 -0.10368,-0.10211 -0.20358,-0.20721 -0.308,-0.30794 -0.10367,-0.10212 -0.20357,-0.20722 -0.30797,-0.30797 -0.11155,-0.10987 -0.22084,-0.22279 -0.33347,-0.33134 -0.0892,-0.0875 -0.17741,-0.18255 -0.26759,-0.26974 -0.11464,-0.11311 -0.22621,-0.23021 -0.34197,-0.34197 -0.10616,-0.10459 -0.2093,-0.21304 -0.31647,-0.31644 -0.10688,-0.10535 -0.21071,-0.21448 -0.31861,-0.3186 -0.11363,-0.11199 -0.22501,-0.22708 -0.33982,-0.33772 -0.0936,-0.0922 -0.18403,-0.18716 -0.2782,-0.27823 -0.12355,-0.12192 -0.24259,-0.24921 -0.36747,-0.36959 -0.1008,-0.0994 -0.198,-0.20152 -0.29944,-0.29945 -0.10975,-0.10818 -0.21632,-0.22011 -0.3271,-0.32703 -0.11042,-0.10893 -0.21769,-0.22157 -0.3292,-0.32923 -0.10552,-0.10409 -0.20794,-0.21152 -0.31435,-0.31436 -0.13063,-0.129 -0.25869,-0.26143 -0.39079,-0.38868 -0.0303,-0.0299 -0.0599,-0.0606 -0.0914,-0.091 -0.001,-0.001 -0.003,-0.003 -0.004,-0.004 -0.0586,-0.0585 -0.11689,-0.11974 -0.17628,-0.1784 -0.003,-0.003 -0.005,-0.005 -0.008,-0.008 -0.11884,-0.11737 -0.23461,-0.23879 -0.35467,-0.3547 -0.10345,-0.10426 -0.20586,-0.20914 -0.31012,-0.31219 -0.005,-0.005 -0.0111,-0.009 -0.0177,-0.0154 -0.11899,-0.11749 -0.23452,-0.23871 -0.35469,-0.3547 -0.12075,-0.11906 -0.23907,-0.24138 -0.36109,-0.35894 -0.1011,-0.0998 -0.19773,-0.20326 -0.29946,-0.3016 -0.12987,-0.12834 -0.25734,-0.25997 -0.38868,-0.38654 -0.10765,-0.10606 -0.21207,-0.21582 -0.32072,-0.32072 -0.11716,-0.11569 -0.22998,-0.23619 -0.3483,-0.35043 -0.11182,-0.1104 -0.22058,-0.22438 -0.33348,-0.33346 -0.1268,-0.12538 -0.24987,-0.25436 -0.37803,-0.37808 -0.1246,-0.12296 -0.24574,-0.25031 -0.37168,-0.37169 -0.10554,-0.10407 -0.20796,-0.2115 -0.31435,-0.31431 -0.12838,-0.12695 -0.25463,-0.25709 -0.38444,-0.38231 -0.12066,-0.11912 -0.23703,-0.24348 -0.35893,-0.36111 -0.12639,-0.12476 -0.25032,-0.25279 -0.37808,-0.37591 -0.10723,-0.10582 -0.21037,-0.21613 -0.31857,-0.32069 -0.13105,-0.12966 -0.25828,-0.26296 -0.39082,-0.39078 -0.1231,-0.12165 -0.24298,-0.24743 -0.36744,-0.36749 -0.12327,-0.12177 -0.24281,-0.24719 -0.36741,-0.36744 -0.124,-0.12247 -0.24427,-0.24864 -0.36958,-0.36954 -0.12471,-0.12321 -0.24563,-0.2501 -0.37169,-0.37168 -0.1309,-0.12938 -0.25837,-0.2632 -0.3908,-0.39081 -0.11179,-0.11036 -0.22056,-0.22438 -0.33345,-0.33344 -0.13508,-0.13374 -0.26688,-0.27173 -0.40354,-0.40356 -0.13218,-0.13064 -0.26135,-0.26412 -0.39506,-0.39291 -0.11892,-0.11746 -0.23453,-0.23875 -0.3547,-0.3547 -0.12308,-0.12177 -0.24303,-0.24724 -0.36744,-0.36745 -0.13703,-0.13573 -0.26912,-0.27616 -0.40779,-0.40989 -0.12943,-0.12803 -0.25563,-0.26032 -0.38657,-0.38658 -0.13496,-0.13351 -0.26694,-0.26982 -0.40351,-0.40141 -0.12175,-0.1203 -0.24014,-0.24444 -0.3632,-0.36318 -0.1309,-0.12959 -0.25838,-0.26307 -0.39079,-0.39081 -0.12696,-0.12569 -0.24971,-0.25619 -0.37806,-0.38019 -0.12602,-0.12808 -0.25276,-0.25589 -0.38018,-0.3823 -0.008,-0.008 -0.0192,-0.0175 -0.0275,-0.0255 -0.13289,-0.1316 -0.26271,-0.26741 -0.39716,-0.39719 -0.14272,-0.14137 -0.28239,-0.28556 -0.42691,-0.42476 -0.12528,-0.12388 -0.24715,-0.25162 -0.37379,-0.37381 -0.13445,-0.13315 -0.26544,-0.27019 -0.40145,-0.40144 -0.26754,-0.27204 -0.53309,-0.54482 -0.80709,-0.80919 -0.13641,-0.13519 -0.26971,-0.27459 -0.40778,-0.4078 -0.14555,-0.14424 -0.288,-0.29132 -0.43541,-0.4333 -0.12882,-0.12744 -0.25417,-0.25873 -0.38444,-0.38441 -0.13791,-0.13673 -0.27243,-0.27731 -0.41201,-0.41206 -0.12756,-0.12984 -0.25541,-0.25842 -0.38444,-0.38656 0,0 -0.002,-0.002 -0.002,-0.002 -0.14789,-0.14686 -0.292,-0.29723 -0.44178,-0.44176 -0.13994,-0.13877 -0.27679,-0.28172 -0.41842,-0.41843 -0.14975,-0.14851 -0.29643,-0.29989 -0.44815,-0.44604 -0.13231,-0.13097 -0.26119,-0.26588 -0.39503,-0.39505 -0.14146,-0.14025 -0.27945,-0.28446 -0.42268,-0.42267 -0.13027,-0.13276 -0.26109,-0.26402 -0.39292,-0.39502 0,0 -0.002,-0.002 -0.002,-0.002 -0.15137,-0.15046 -0.29896,-0.30437 -0.45235,-0.45241 -0.14348,-0.14233 -0.2838,-0.28888 -0.42904,-0.42906 -0.15332,-0.15208 -0.30344,-0.30697 -0.45881,-0.4566 -0.13582,-0.13456 -0.2682,-0.27307 -0.40565,-0.40565 -0.13302,-0.13579 -0.26677,-0.26971 -0.40143,-0.40356 0,0 -0.002,-0.002 -0.002,-0.002 -0.15456,-0.15367 -0.30639,-0.30977 -0.46302,-0.4609 -0.15553,-0.15438 -0.30748,-0.31331 -0.46513,-0.46516 -0.12583,-0.12828 -0.25291,-0.25567 -0.38021,-0.38228 0,0 -0.002,-0.002 -0.002,-0.002 -0.15675,-0.15593 -0.31046,-0.31609 -0.46939,-0.4694 -0.14716,-0.14612 -0.29058,-0.29577 -0.43966,-0.43963 -0.14858,-0.14759 -0.29336,-0.29867 -0.44386,-0.44392 -0.14978,-0.14874 -0.29644,-0.30173 -0.44817,-0.44814 -0.14977,-0.14874 -0.29645,-0.30174 -0.44815,-0.44813 -0.15958,-0.15854 -0.31607,-0.31994 -0.4779,-0.47578 -0.12924,-0.13193 -0.26003,-0.26273 -0.3908,-0.39292 -10e-4,-0.001 -0.003,-0.003 -0.004,-0.004 -0.16026,-0.15952 -0.3175,-0.32324 -0.48001,-0.48002 -0.1615,-0.16047 -0.32047,-0.32442 -0.48426,-0.48213 -0.14429,-0.14313 -0.28504,-0.29023 -0.43113,-0.43116 -0.1396,-0.14286 -0.2813,-0.28398 -0.42268,-0.42478 -10e-4,-0.001 -0.003,-0.003 -0.004,-0.004 -0.16236,-0.161659 -0.3217,-0.327508 -0.4864,-0.48638 -0.16451,-0.163547 -0.32583,-0.329931 -0.49271,-0.49062 -0.14642,-0.145273 -0.28928,-0.294519 -0.43755,-0.43753 -0.14186,-0.145342 -0.28528,-0.287945 -0.42903,-0.431155 -0.001,-0.0013 -0.003,-0.0026 -0.004,-0.0039 -0.16505,-0.164434 -0.32741,-0.331191 -0.49485,-0.492747 -0.16673,-0.16584 -0.32998,-0.336219 -0.49914,-0.499122 -0.13471,-0.137844 -0.2714,-0.273994 -0.40778,-0.409914 -0.002,-0.0016 -0.004,-0.0023 -0.006,-0.0039 -0.1669,-0.16631 -0.32977,-0.337871 -0.49909,-0.501241 -0.15817,-0.157342 -0.31329,-0.318936 -0.47366,-0.473638 -0.15883,-0.158053 -0.31468,-0.320359 -0.47573,-0.475756 -0.16958,-0.168717 -0.33768,-0.339812 -0.50974,-0.505491 -0.13711,-0.140425 -0.27536,-0.279977 -0.4142,-0.418414 -0.002,-0.0019 -0.004,-0.004 -0.006,-0.0059 -0.16933,-0.168826 -0.33572,-0.341817 -0.50759,-0.507615 -0.17155,-0.170728 -0.33989,-0.344244 -0.51402,-0.511863 -0.15343,-0.152426 -0.30327,-0.308826 -0.45874,-0.458769 -0.14801,-0.152006 -0.29813,-0.30058 -0.44816,-0.450267 -0.002,-0.0019 -0.004,-0.004 -0.006,-0.0059 -0.17171,-0.171259 -0.33969,-0.345839 -0.51398,-0.513985 -0.16379,-0.163084 -0.32451,-0.330377 -0.49062,-0.490627 -0.17472,-0.173976 -0.34727,-0.349613 -0.52462,-0.520361 -0.14118,-0.144857 -0.28392,-0.288406 -0.42694,-0.431156 -0.002,-0.0019 -0.004,-0.004 -0.006,-0.0059 -0.17423,-0.173864 -0.3456,-0.351835 -0.52252,-0.522486 -0.17688,-0.176231 -0.35133,-0.355926 -0.53097,-0.528855 -0.14244,-0.146236 -0.28683,-0.28919 -0.43115,-0.43328 -0.002,-0.0023 -0.006,-0.0036 -0.008,-0.0059 -0.18586,-0.185518 -0.36755,-0.374605 -0.55644,-0.556465 -0.14425,-0.148175 -0.29139,-0.293683 -0.43755,-0.439655 -0.002,-0.0023 -0.006,-0.0036 -0.008,-0.0059 -0.17742,-0.177084 -0.35088,-0.359338 -0.53102,-0.533101 -0.16895,-0.168384 -0.33404,-0.340125 -0.50549,-0.505492 -0.16936,-0.168818 -0.33575,-0.341831 -0.50762,-0.507619 -0.18075,-0.180198 -0.36014,-0.362732 -0.54374,-0.539473 -0.1459,-0.150038 -0.2939,-0.298241 -0.44176,-0.446025 -0.003,-0.0026 -0.005,-0.0053 -0.008,-0.0078 -0.17984,-0.179611 -0.35682,-0.363288 -0.53952,-0.539476 -0.17172,-0.171254 -0.33965,-0.345853 -0.51397,-0.513987 -0.17241,-0.171964 -0.34109,-0.347293 -0.51612,-0.516114 -0.1731,-0.172682 -0.34248,-0.348722 -0.51823,-0.518236 -0.18458,-0.184138 -0.36679,-0.371683 -0.55436,-0.552219 -0.14921,-0.153652 -0.30109,-0.303227 -0.45239,-0.45452 -0.003,-0.0026 -0.005,-0.0053 -0.008,-0.0078 -0.19502,-0.194909 -0.38789,-0.391073 -0.58624,-0.581954 -0.16706,-0.166392 -0.32957,-0.337804 -0.49911,-0.501248 -0.1758,-0.175382 -0.34819,-0.354615 -0.52671,-0.526728 -0.15954,-0.164659 -0.32241,-0.324419 -0.48429,-0.486378 -0.003,-0.0029 -0.007,-0.0049 -0.01,-0.0078 -0.18529,-0.18532 -0.36595,-0.374786 -0.55431,-0.556468 -0.17811,-0.177818 -0.35434,-0.358642 -0.53526,-0.533105 -0.18903,-0.188747 -0.37488,-0.379998 -0.56705,-0.564963 -0.17094,-0.170351 -0.33836,-0.3446 -0.5119,-0.511864 -0.17932,-0.178989 -0.35519,-0.361761 -0.53734,-0.537352 -0.16256,-0.168012 -0.32772,-0.331785 -0.49277,-0.496996 -0.003,-0.0032 -0.006,-0.0066 -0.01,-0.0098 -0.18881,-0.188934 -0.37508,-0.379799 -0.56704,-0.564961 -0.18159,-0.1814 -0.35926,-0.367936 -0.54373,-0.545849 -0.19254,-0.192334 -0.38195,-0.387167 -0.57774,-0.575581 -0.17479,-0.174296 -0.34711,-0.351414 -0.52457,-0.522483 -0.18282,-0.18258 -0.36221,-0.368923 -0.54797,-0.547972 -0.16527,-0.171005 -0.33348,-0.337384 -0.50127,-0.505491 -0.003,-0.0032 -0.006,-0.0066 -0.01,-0.0098 -0.19264,-0.192891 -0.3818,-0.388744 -0.57768,-0.577704 -0.18471,-0.184639 -0.36666,-0.373312 -0.55435,-0.554343 -0.1964,-0.19632 -0.39069,-0.393966 -0.59048,-0.586202 -0.17828,-0.177882 -0.35199,-0.360709 -0.53307,-0.535227 -0.16765,-0.173624 -0.33953,-0.341227 -0.50977,-0.511865 -0.004,-0.0035 -0.008,-0.0063 -0.0125,-0.0098 -0.19546,-0.19578 -0.38738,-0.394466 -0.58622,-0.5862 -0.19953,-0.199607 -0.39582,-0.403561 -0.5989,-0.598948 -0.16048,-0.166015 -0.32571,-0.327338 -0.48854,-0.490624 -0.004,-0.0035 -0.008,-0.0063 -0.0127,-0.0098 -0.19723,-0.197642 -0.3919,-0.399056 -0.59257,-0.592575 -0.1888,-0.188916 -0.37301,-0.381942 -0.56496,-0.567086 -0.19058,-0.190699 -0.37757,-0.384476 -0.57135,-0.571336 -0.19024,-0.190364 -0.3779,-0.382672 -0.57129,-0.569211 -0.20345,-0.203583 -0.40468,-0.410359 -0.61171,-0.609562 -0.16349,-0.169371 -0.33107,-0.33471 -0.497,-0.501245 -0.004,-0.0039 -0.008,-0.0079 -0.0123,-0.01277 -0.2007,-0.201232 -0.39893,-0.406224 -0.6032,-0.603191 -0.19239,-0.192566 -0.38208,-0.38906 -0.57771,-0.577707 -0.19307,-0.193284 -0.38349,-0.390491 -0.57981,-0.579828 -0.20659,-0.206828 -0.41201,-0.415758 -0.62233,-0.618064 -0.16577,-0.171932 -0.33504,-0.338595 -0.50336,-0.507614 -0.004,-0.0039 -0.008,-0.0079 -0.0123,-0.01277 -0.21658,-0.21731 -0.43132,-0.435467 -0.65205,-0.647796 -0.18773,-0.187596 -0.372,-0.378974 -0.56284,-0.562839 -0.19609,-0.196263 -0.38884,-0.396138 -0.58832,-0.588328 -0.19679,-0.196982 -0.39024,-0.397567 -0.59044,-0.590448 -0.17671,-0.18375 -0.35775,-0.361166 -0.53738,-0.541599 -0.004,-0.0042 -0.009,-0.0076 -0.0154,-0.01276 -0.20653,-0.207358 -0.40978,-0.41735 -0.62016,-0.620185 -0.19863,-0.199073 -0.3947,-0.401926 -0.59682,-0.596819 -0.19894,-0.199412 -0.39437,-0.401605 -0.59678,-0.596823 -0.20001,-0.200453 -0.39547,-0.404854 -0.59899,-0.601067 -0.20031,-0.200817 -0.39719,-0.404508 -0.60106,-0.601072 -0.20067,-0.201208 -0.39897,-0.404125 -0.60321,-0.601067 -0.20172,-0.202309 -0.39994,-0.409451 -0.60528,-0.607445 -0.20632,-0.206888 -0.41011,-0.415679 -0.6202,-0.618057 -0.18921,-0.189598 -0.37473,-0.38341 -0.56707,-0.569211 -0.21183,-0.212804 -0.42142,-0.42913 -0.6372,-0.637175 -0.20812,-0.208754 -0.4146,-0.420276 -0.62654,-0.624433 -0.19063,-0.19104 -0.37755,-0.386263 -0.57133,-0.573459 -0.21356,-0.214594 -0.4239,-0.431668 -0.64145,-0.641423 -1.38127,-1.386128 -2.84403,-2.678913 -4.38589,-3.844294 -7.75189,-5.859004 -17.70225,-9.72563 -27.417672,-9.901712 z"
       id="path6916"
       inkscape:connector-curvature="0"
       clip-path="url(#clipPath9018)" />
    <rect
       style="opacity:0.2;fill:#ffffff;fill-opacity:1;fill-rule:nonzero;stroke:none;stroke-width:1;stroke-linecap:butt;stroke-linejoin:round;stroke-miterlimit:4;stroke-dasharray:none;stroke-dashoffset:0;stroke-opacity:1"
       id="rect9030"
       width="166.00716"
       height="1.0230929"
       x="6.9926896"
       y="96.000954"
       ry="0"
       clip-path="url(#clipPath9048)"
       transform="matrix(1.005004,0,0,1.005004,-0.480384,-0.29404524)" />
    <rect
       style="opacity:0.2;fill:#1a237e;fill-opacity:1;fill-rule:nonzero;stroke:none;stroke-width:1;stroke-linecap:butt;stroke-linejoin:round;stroke-miterlimit:4;stroke-dasharray:none;stroke-dashoffset:0;stroke-opacity:1"
       id="rect9026"
       width="192.46265"
       height="89.563522"
       x="8.0005674"
       y="6.4474401"
       ry="10.911744"
       clip-path="url(#clipPath9040)"
       transform="matrix(1.005004,0,0,1.005004,-0.480384,-0.29404524)" />
    <path
       inkscape:connector-curvature="0"
       id="path6849"
       d="m 96.51683,41.685166 c -9.020554,-0.163493 -18.500492,2.925411 -25.772705,8.265077 -6.724533,4.937528 -11.884124,12.505415 -14.427961,20.450696 -2.676622,8.360029 -2.404028,17.85218 -0.140143,26.333288 2.466003,9.238293 8.311589,17.443753 14.427959,24.793453 8.775914,10.54549 8.74766,10.45542 13.166645,15.26884 4.153207,4.52393 12.465909,12.74621 12.465909,12.74621 0,0 7.721476,-7.50905 11.346526,-11.48665 4.88866,-5.36411 10.10211,-11.43575 14.00752,-16.66855 6.59734,-8.83971 13.30427,-18.36479 15.6875,-29.134433 1.55628,-7.032569 1.14682,-14.783021 -1.25954,-21.571866 -2.72731,-7.694281 -7.77537,-14.967896 -14.28782,-19.890112 -7.12853,-5.387856 -16.27974,-8.94403 -25.21389,-9.105953 z m -1.539833,9.386246 c 5.625623,-0.170207 11.541383,1.199834 16.388253,4.060691 5.97508,3.52681 11.2466,8.966127 14.14765,15.268836 2.71214,5.892325 3.49861,12.96615 2.24056,19.32953 -1.34572,6.806877 -4.88683,13.614331 -10.0852,18.210091 -5.43049,4.80104 -12.9231,7.99944 -20.170406,8.12498 -7.797516,0.13507 -17.087977,-1.91979 -21.99053,-7.98481 -1.718528,-2.12599 -1.938444,-5.51624 -1.121172,-8.12492 1.359516,-4.33953 4.639632,-5.050642 4.926406,-5.123313 0.908395,-0.230198 1.495482,-0.198689 1.495482,-0.198689 l 15.70879,0 0,10.365502 21.0113,-21.011287 -21.0113,-21.712015 0,9.945057 -15.437366,0.140147 c 0,0 -0.485633,0.05455 -1.449359,-0.147242 -0.715698,-0.149857 -5.744177,-1.76019 -5.804536,-8.5365 -0.03273,-3.671871 4.132489,-7.196519 7.424199,-8.823888 4.202484,-2.077634 8.885703,-3.635685 13.727229,-3.78217 z"
       style="display:inline;fill:#cccccc;fill-opacity:1;fill-rule:evenodd;stroke:none;stroke-width:1px;stroke-linecap:butt;stroke-linejoin:miter;stroke-opacity:1;filter:url(#filter8392)"
       transform="matrix(1.0874468,0,0,1.0874468,-8.4103859,-7.4711507)" />
    <path
       style="display:inline;fill:#ffffff;fill-opacity:1;fill-rule:evenodd;stroke:none;stroke-width:1px;stroke-linecap:butt;stroke-linejoin:miter;stroke-opacity:1"
       d="m 96.546522,37.859184 c -9.809372,-0.176171 -20.118297,3.152281 -28.026445,8.906052 -7.312569,5.320445 -12.92335,13.475237 -15.689637,22.036693 -2.910681,9.00837 -2.614252,19.236655 -0.152399,28.375495 2.681647,9.954736 9.038412,18.796536 15.689636,26.716236 9.543339,11.36329 9.512613,11.26627 14.318025,16.45298 4.51639,4.87475 13.556012,13.7347 13.556012,13.7347 0,0 8.396676,-8.09141 12.338726,-12.37747 5.31618,-5.78008 10.9855,-12.3226 15.23244,-17.96124 7.17427,-9.52524 14.46768,-19.789 17.05932,-31.393861 1.69237,-7.57796 1.2471,-15.929476 -1.36967,-23.244813 -2.96578,-8.290986 -8.45534,-16.12869 -15.53725,-21.432633 -7.75192,-5.805696 -17.70334,-9.637659 -27.418758,-9.812139 z m -1.674487,10.114169 c 6.117555,-0.183404 12.550645,1.292886 17.821335,4.375607 6.49761,3.800325 12.23007,9.661471 15.38484,16.452969 2.94931,6.34929 3.80455,13.9717 2.43647,20.828576 -1.4634,7.334765 -5.31417,14.670185 -10.96711,19.622315 -5.90536,5.17337 -14.05317,8.61982 -21.934238,8.75512 -8.479383,0.14553 -18.582266,-2.06868 -23.913528,-8.60408 -1.868808,-2.29086 -2.107956,-5.94402 -1.219217,-8.75501 1.478402,-4.676074 5.045354,-5.442335 5.357206,-5.520644 0.987832,-0.248049 1.626254,-0.214093 1.626254,-0.214093 l 17.082475,0 0,11.169367 22.848658,-22.640757 -22.848658,-23.395831 0,10.716319 -16.787315,0.151017 c 0,0 -0.528099,0.05879 -1.5761,-0.158664 -0.778284,-0.16148 -6.246486,-1.896695 -6.312124,-9.198523 -0.03558,-3.956636 4.493862,-7.754625 8.073422,-9.508202 4.569976,-2.238758 9.662728,-3.917641 14.92763,-4.075486 z"
       id="path8404"
       inkscape:connector-curvature="0" />
    <path
       inkscape:connector-curvature="0"
       id="path9009"
       d="M 96.546522,38.985667 C 86.73715,38.8112 76.428225,42.107394 68.520077,47.805396 c -7.312569,5.268876 -12.92335,13.344629 -15.689637,21.8231 -2.910681,8.921056 -2.614252,19.050205 -0.152399,28.100465 2.681647,9.858229 9.038412,18.614369 15.689636,26.457279 9.543339,11.2532 9.512613,11.1571 14.318025,16.29355 4.51639,4.82748 13.556012,13.60155 13.556012,13.60155 0,0 8.396676,-8.01293 12.338726,-12.25754 5.31618,-5.72404 10.9855,-12.20314 15.23244,-17.7871 7.17427,-9.43294 14.46768,-19.59721 17.05932,-31.089588 1.69237,-7.504512 1.2471,-15.775083 -1.36967,-23.01951 -2.96578,-8.210633 -8.45534,-15.972366 -15.53725,-21.224902 -7.75192,-5.749423 -17.70334,-9.544248 -27.418758,-9.717033 z m -1.674487,10.016137 c 6.117555,-0.181632 12.550645,1.280352 17.821335,4.333197 6.49761,3.763486 12.23007,9.567822 15.38484,16.293495 2.94931,6.287751 3.80455,13.836289 2.43647,20.626698 -1.4634,7.263674 -5.31417,14.527966 -10.96711,19.432126 -5.90536,5.12323 -14.05317,8.53626 -21.934238,8.67023 -8.479383,0.14417 -18.582266,-2.04862 -23.913528,-8.52065 -1.868808,-2.26865 -2.107956,-5.88641 -1.219217,-8.67016 1.478402,-4.630749 5.045354,-5.389581 5.357206,-5.467127 0.987832,-0.245649 1.626254,-0.212025 1.626254,-0.212025 l 17.082475,0 0,11.061092 22.848658,-22.421297 -22.848658,-23.169064 0,10.612448 -16.787315,0.149553 c 0,0 -0.528099,0.05823 -1.5761,-0.157124 -0.778284,-0.159913 -6.246486,-1.878309 -6.312124,-9.109368 -0.03558,-3.91828 4.493862,-7.679459 8.073422,-9.41604 4.569976,-2.21706 9.662728,-3.879668 14.92763,-4.035984 z"
       style="display:inline;fill:#f2f2f2;fill-opacity:1;fill-rule:evenodd;stroke:none;stroke-width:1px;stroke-linecap:butt;stroke-linejoin:miter;stroke-opacity:1" />
    <rect
       ry="10.897427"
       y="20.500031"
       x="20.500031"
       height="150.99994"
       width="150.99994"
       id="rect9015"
       style="display:inline;opacity:0.1;fill:url(#radialGradient7770);fill-opacity:1;stroke:url(#radialGradient7778);stroke-width:1.00005436;stroke-linejoin:round;stroke-miterlimit:4;stroke-dasharray:none;stroke-opacity:1" />
  </g>
  <g
     inkscape:groupmode="layer"
     id="layer5"
     inkscape:label="Square 1"
     style="display:inline" />
</svg>
