<?xml version="1.0" encoding="UTF-8" standalone="no"?>
<!-- Created with Inkscape (http://www.inkscape.org/) -->

<svg
   xmlns:dc="http://purl.org/dc/elements/1.1/"
   xmlns:cc="http://creativecommons.org/ns#"
   xmlns:rdf="http://www.w3.org/1999/02/22-rdf-syntax-ns#"
   xmlns:svg="http://www.w3.org/2000/svg"
   xmlns="http://www.w3.org/2000/svg"
   xmlns:xlink="http://www.w3.org/1999/xlink"
   xmlns:sodipodi="http://sodipodi.sourceforge.net/DTD/sodipodi-0.dtd"
   xmlns:inkscape="http://www.inkscape.org/namespaces/inkscape"
   width="192"
   height="192"
   viewBox="0 0 192 192"
   id="svg2"
   version="1.1"
   inkscape:version="0.91 r13725"
   sodipodi:docname="ally.svg"
   inkscape:export-filename="C:\createme\Material Design Icons\PNG\ally.png"
   inkscape:export-xdpi="90"
   inkscape:export-ydpi="90">
  <sodipodi:namedview
     id="base"
     pagecolor="#ffffff"
     bordercolor="#666666"
     borderopacity="1.0"
     inkscape:pageopacity="0.0"
     inkscape:pageshadow="2"
     inkscape:zoom="0.7071068"
     inkscape:cx="75.404408"
     inkscape:cy="10.778687"
     inkscape:document-units="px"
     inkscape:current-layer="layer3"
     showgrid="false"
     units="px"
     showguides="false"
     inkscape:window-width="1920"
     inkscape:window-height="1017"
     inkscape:window-x="-8"
     inkscape:window-y="-8"
     inkscape:window-maximized="1">
    <sodipodi:guide
       inkscape:color="rgb(0,0,255)"
       inkscape:label=""
       id="guide3354"
       orientation="0,1"
       position="0,184" />
    <sodipodi:guide
       inkscape:color="rgb(0,0,255)"
       inkscape:label=""
       id="guide3356"
       orientation="1,0"
       position="8,0" />
    <sodipodi:guide
       inkscape:color="rgb(0,0,255)"
       inkscape:label=""
       id="guide3358"
       orientation="0,1"
       position="0,8" />
    <sodipodi:guide
       inkscape:color="rgb(0,0,255)"
       inkscape:label=""
       id="guide3360"
       orientation="1,0"
       position="184,0" />
    <sodipodi:guide
       inkscape:color="rgb(0,0,255)"
       inkscape:label=""
       id="guide3362"
       orientation="0,1"
       position="0,20" />
    <sodipodi:guide
       inkscape:color="rgb(0,0,255)"
       inkscape:label=""
       id="guide3364"
       orientation="1,0"
       position="172,0" />
    <sodipodi:guide
       inkscape:color="rgb(0,0,255)"
       inkscape:label=""
       id="guide3366"
       orientation="0,1"
       position="96,172" />
    <sodipodi:guide
       inkscape:color="rgb(0,0,255)"
       inkscape:label=""
       id="guide3368"
       orientation="1,0"
       position="20,0" />
    <sodipodi:guide
       inkscape:color="rgb(0,0,255)"
       inkscape:label=""
       id="guide3370"
       orientation="0,1"
       position="0,32" />
    <sodipodi:guide
       inkscape:color="rgb(0,0,255)"
       inkscape:label=""
       id="guide3372"
       orientation="1,0"
       position="160,0" />
    <sodipodi:guide
       inkscape:color="rgb(0,0,255)"
       inkscape:label=""
       id="guide3374"
       orientation="0,1"
       position="0,160" />
    <sodipodi:guide
       inkscape:color="rgb(0,0,255)"
       inkscape:label=""
       id="guide3376"
       orientation="1,0"
       position="32,0" />
    <inkscape:grid
       id="grid3378"
       type="xygrid" />
    <sodipodi:guide
       inkscape:color="rgb(255,0,0)"
       inkscape:label=""
       id="guide5849"
       orientation="-0.70710678,0.70710678"
       position="0,0" />
    <sodipodi:guide
       inkscape:color="rgb(255,0,0)"
       inkscape:label=""
       id="guide5851"
       orientation="1,0"
       position="124,0" />
    <sodipodi:guide
       inkscape:color="rgb(255,0,0)"
       inkscape:label=""
       id="guide5853"
       orientation="0.70710678,0.70710678"
       position="0,192" />
    <sodipodi:guide
       inkscape:color="rgb(255,0,0)"
       inkscape:label=""
       id="guide5855"
       orientation="1,0"
       position="96,0" />
    <sodipodi:guide
       inkscape:color="rgb(255,0,0)"
       inkscape:label=""
       id="guide5859"
       orientation="0,1"
       position="0,96" />
    <sodipodi:guide
       inkscape:color="rgb(255,0,0)"
       inkscape:label=""
       id="guide5861"
       orientation="0,1"
       position="0,124" />
    <sodipodi:guide
       inkscape:color="rgb(255,0,0)"
       inkscape:label=""
       id="guide5863"
       orientation="0,1"
       position="0,68" />
    <sodipodi:guide
       inkscape:color="rgb(255,0,0)"
       inkscape:label=""
       id="guide5865"
       orientation="1,0"
       position="68,0" />
    <sodipodi:guide
       id="guide5869"
       orientation="-192,0"
       position="192,0" />
    <sodipodi:guide
       id="guide5871"
       orientation="0,-192"
       position="192,192" />
  </sodipodi:namedview>
  <defs
     id="defs4">
    <linearGradient
       inkscape:collect="always"
       id="linearGradient6457">
      <stop
         style="stop-color:#1a237e;stop-opacity:1;"
         offset="0"
         id="stop6459" />
      <stop
         style="stop-color:#1a237e;stop-opacity:0;"
         offset="1"
         id="stop6461" />
    </linearGradient>
    <linearGradient
       id="linearGradient4194"
       inkscape:collect="always">
      <stop
         id="stop4196"
         offset="0"
         style="stop-color:#ffffff;stop-opacity:1;" />
      <stop
         id="stop4198"
         offset="1"
         style="stop-color:#ffffff;stop-opacity:0;" />
    </linearGradient>
    <clipPath
       id="clipPath10430"
       clipPathUnits="userSpaceOnUse">
      <path
         id="path10432"
         d="m 1241.028,39.3409 224.537,0 0,178.031 -224.537,0 0,-178.031 z"
         inkscape:connector-curvature="0" />
    </clipPath>
    <clipPath
       id="clipPath10438"
       clipPathUnits="userSpaceOnUse">
      <path
         id="path10440"
         d="m 1260.156,213.3477 0,-170.2268 191.3337,0 0,170.2268"
         inkscape:connector-curvature="0" />
    </clipPath>
    <radialGradient
       gradientUnits="userSpaceOnUse"
       gradientTransform="matrix(2.6607556e-7,1.9999998,-2.0000002,2.6629458e-7,1780.725,840.36195)"
       r="76"
       fy="880.36243"
       fx="20"
       cy="880.36243"
       cx="20"
       id="radialGradient4200"
       xlink:href="#linearGradient4194"
       inkscape:collect="always" />
    <filter
       id="filter5248"
       inkscape:label="Drop Shadow"
       style="color-interpolation-filters:sRGB;">
      <feFlood
         id="feFlood5250"
         result="flood"
         flood-color="rgb(0,0,0)"
         flood-opacity="0.2" />
      <feComposite
         id="feComposite5252"
         result="composite1"
         operator="in"
         in2="SourceGraphic"
         in="flood" />
      <feGaussianBlur
         id="feGaussianBlur5254"
         result="blur"
         stdDeviation="4"
         in="composite1" />
      <feOffset
         id="feOffset5256"
         result="offset"
         dy="4"
         dx="4.57967e-015" />
      <feComposite
         id="feComposite5258"
         result="composite2"
         operator="over"
         in2="offset"
         in="SourceGraphic" />
    </filter>
    <linearGradient
       inkscape:collect="always"
       xlink:href="#linearGradient6457"
       id="linearGradient6463"
       x1="41"
       y1="41"
       x2="172"
       y2="172"
       gradientUnits="userSpaceOnUse" />
    <filter
       style="color-interpolation-filters:sRGB;"
       inkscape:label="Drop Shadow"
       id="filter6477">
      <feFlood
         flood-opacity="0.2"
         flood-color="rgb(26,35,126)"
         result="flood"
         id="feFlood6479" />
      <feComposite
         in="flood"
         in2="SourceGraphic"
         operator="in"
         result="composite1"
         id="feComposite6481" />
      <feGaussianBlur
         in="composite1"
         stdDeviation="4"
         result="blur"
         id="feGaussianBlur6483" />
      <feOffset
         dx="0"
         dy="4"
         result="offset"
         id="feOffset6485" />
      <feComposite
         in="SourceGraphic"
         in2="offset"
         operator="over"
         result="composite2"
         id="feComposite6487" />
    </filter>
  </defs>
  <metadata
     id="metadata7">
    <rdf:RDF>
      <cc:Work
         rdf:about="">
        <dc:format>image/svg+xml</dc:format>
        <dc:type
           rdf:resource="http://purl.org/dc/dcmitype/StillImage" />
        <dc:title></dc:title>
      </cc:Work>
    </rdf:RDF>
  </metadata>
  <g
     inkscape:label="background"
     id="layer2"
     inkscape:groupmode="layer"
     style="display:inline">
    <g
       id="g4832">
      <path
         style="fill:#0288d1;fill-opacity:1;fill-rule:evenodd;stroke:none;stroke-width:1px;stroke-linecap:butt;stroke-linejoin:miter;stroke-opacity:1;filter:url(#filter5248)"
         d="m 32,880.36216 128,0 c 6,0 12,6 12,12 l 0,128.00004 c 0,6 -6,12 -12,12 l -128,0 c -6,0 -12,-6 -12,-12 l 0,-128.00004 c 0,-6 6,-12 12,-12 z"
         id="path5588"
         inkscape:connector-curvature="0"
         sodipodi:nodetypes="ccccccccc"
         transform="translate(0,-860.36216)" />
      <path
         style="fill:none;fill-rule:evenodd;stroke:none;stroke-width:1px;stroke-linecap:butt;stroke-linejoin:miter;stroke-opacity:1"
         d="m 20,96 0,76 152,0 0,-76 z"
         id="path4811"
         inkscape:connector-curvature="0" />
      <path
         style="opacity:0.2;fill:#1a237e;fill-opacity:1;fill-rule:evenodd;stroke:none;stroke-width:1px;stroke-linecap:butt;stroke-linejoin:miter;stroke-opacity:1"
         d="m 32,20 c -6,0 -12,6 -12,12 l 0,64 152,0 0,-64 c 0,-6 -6,-12 -12,-12 L 32,20 Z"
         id="path4817"
         inkscape:connector-curvature="0" />
      <path
         style="opacity:0.2;fill:#ffffff;fill-opacity:1;fill-rule:evenodd;stroke:none;stroke-width:1px;stroke-linecap:butt;stroke-linejoin:miter;stroke-opacity:1"
         d="m 20,96 0,1 152,0 0,-1 -152,0 z"
         id="path4824"
         inkscape:connector-curvature="0" />
      <path
         style="opacity:0.2;fill:#1a237e;fill-opacity:1;fill-rule:evenodd;stroke:none;stroke-width:1px;stroke-linecap:butt;stroke-linejoin:miter;stroke-opacity:1"
         d="m 20,95 0,1 152,0 0,-1 -152,0 z"
         id="path4827"
         inkscape:connector-curvature="0" />
    </g>
    <path
       id="path4894"
       d="m -189.5125,418.975 c 2.7125,-5.65 8.95,-8.4125 14.8,-9.575 9.75,-1.8375 19.7125,-0.725 29.5625,-1 0.0125,8.5125 0.05,17.025 -0.025,25.5375 -7.2125,8.25 -18.675,11.475 -29.3375,11 -5.925,-0.175 -12.175,-2.9875 -14.9,-8.5 -2.5375,-5.425 -2.6125,-12.025 -0.1,-17.4625 z"
       inkscape:connector-curvature="0"
       style="fill:#feffff" />
  </g>
  <g
     transform="translate(0,-860.36216)"
     id="layer1"
     inkscape:groupmode="layer"
     inkscape:label="objects"
     style="display:inline">
    <path
       style="display:inline;opacity:0.2;fill:url(#linearGradient6463);fill-opacity:1"
       d="M 95.943359 41.376953 L 95.943359 41.378906 C 87.487063 41.448476 79.081615 44.107303 72.091797 48.859375 C 64.998485 53.640157 59.348236 60.520688 56.039062 68.408203 C 52.600116 76.576023 51.597144 85.820837 53.572266 94.484375 C 55.339756 102.29145 58.894935 109.57035 63.076172 116.34961 C 66.896647 122.50598 71.288598 128.29068 75.986328 133.80078 C 79.280711 137.64063 82.720874 141.35394 86.291016 144.93945 C 86.492947 145.14384 86.697604 145.34529 86.900391 145.54883 C 87.104958 145.75576 87.312133 145.95995 87.517578 146.16602 C 87.688829 146.33912 87.863291 146.50914 88.035156 146.68164 C 88.203448 146.85186 88.374083 147.01982 88.542969 147.18945 C 88.744877 147.39383 88.947627 147.59725 89.150391 147.80078 C 89.352064 148.00477 89.55724 148.20505 89.759766 148.4082 C 89.912244 148.56233 90.067738 148.71355 90.220703 148.86719 C 90.419731 149.06863 90.620454 149.26813 90.820312 149.46875 C 91.00354 149.65408 91.189116 149.83685 91.373047 150.02148 C 91.555627 150.20616 91.740549 150.38828 91.923828 150.57227 C 92.123123 150.77385 92.325264 150.97307 92.525391 151.17383 C 92.674956 151.325 92.826528 151.47429 92.976562 151.625 C 93.173322 151.82414 93.372741 152.02041 93.570312 152.21875 C 93.767786 152.41849 93.967725 152.61553 94.166016 152.81445 C 94.312671 152.96268 94.462269 153.10807 94.609375 153.25586 C 94.805464 153.45433 95.002323 153.65193 95.199219 153.84961 C 95.378237 154.03068 95.560544 154.20827 95.740234 154.38867 C 95.917962 154.56843 96.097001 154.74668 96.275391 154.92578 C 96.471224 155.12386 96.67055 155.31834 96.867188 155.51562 C 97.011901 155.66189 97.159533 155.80534 97.304688 155.95117 C 97.514607 156.16363 97.726656 156.3744 97.9375 156.58594 C 98.097422 156.74757 98.259465 156.90726 98.419922 157.06836 C 98.579154 157.2294 98.740627 157.38831 98.900391 157.54883 C 99.108159 157.7591 99.31867 157.9664 99.527344 158.17578 C 99.66947 158.31943 99.814481 158.46029 99.957031 158.60352 C 100.14636 158.79512 100.33726 158.98492 100.52734 159.17578 C 100.70119 159.35161 100.8763 159.52597 101.05078 159.70117 C 101.24146 159.89402 101.43551 160.08329 101.62695 160.27539 C 101.76551 160.41543 101.90596 160.55372 102.04492 160.69336 C 102.23325 160.88396 102.42421 161.07185 102.61328 161.26172 C 102.78476 161.43515 102.95876 161.60647 103.13086 161.7793 C 103.30212 161.9525 103.47461 162.12427 103.64648 162.29688 C 103.81709 162.46941 103.99089 162.6386 104.16211 162.81055 C 104.33175 162.98212 104.50358 163.15129 104.67383 163.32227 C 104.86031 163.51086 105.04912 163.69689 105.23633 163.88477 C 105.37263 164.02252 105.51175 164.15755 105.64844 164.29492 C 105.83227 164.48096 106.01663 164.66623 106.20117 164.85156 C 106.36887 165.02116 106.53875 165.18841 106.70703 165.35742 C 106.87441 165.52669 107.04493 165.69264 107.21289 165.86133 C 107.3793 166.02962 107.54785 166.19556 107.71484 166.36328 C 107.89809 166.5486 108.08363 166.73139 108.26758 166.91602 C 108.40065 167.05049 108.53648 167.18229 108.66992 167.31641 C 108.85052 167.49916 109.03161 167.6812 109.21289 167.86328 C 109.37768 168.02993 109.54558 168.19328 109.71094 168.35938 C 109.87476 168.52505 110.04069 168.6884 110.20508 168.85352 C 110.36825 169.01853 110.53353 169.18124 110.69727 169.3457 C 110.87727 169.52774 111.05955 169.7073 111.24023 169.88867 C 111.37007 170.01988 111.50263 170.14844 111.63281 170.2793 C 111.8105 170.4591 111.98962 170.63725 112.16797 170.81641 C 112.3292 170.97946 112.49252 171.14022 112.6543 171.30273 C 112.81488 171.46513 112.97755 171.62525 113.13867 171.78711 C 113.20925 171.85849 113.2807 171.92895 113.35156 172 L 160 172 C 166 172 172 166 172 160 L 172 98.693359 C 171.98428 98.67782 171.96882 98.662049 171.95312 98.646484 C 171.79603 98.4865 171.638 98.327514 171.47852 98.169922 C 171.34566 98.035055 171.21074 97.902693 171.07617 97.769531 C 170.93665 97.62768 170.7957 97.487625 170.6543 97.347656 C 170.51287 97.203808 170.36993 97.061834 170.22656 96.919922 C 170.0896 96.780598 169.95129 96.643369 169.8125 96.505859 C 169.65572 96.346208 169.49706 96.188519 169.33789 96.03125 C 169.21025 95.901621 169.08234 95.772586 168.95312 95.644531 C 168.80091 95.489458 168.64666 95.336422 168.49219 95.183594 C 168.34758 95.036518 168.20132 94.891146 168.05469 94.746094 C 167.91008 94.599018 167.76382 94.453646 167.61719 94.308594 C 167.4642 94.152975 167.30955 93.999055 167.1543 93.845703 C 167.02409 93.713439 166.89162 93.583751 166.75977 93.453125 C 166.59658 93.286856 166.43139 93.122671 166.26562 92.958984 C 166.12601 92.817181 165.98525 92.677027 165.84375 92.537109 C 165.69846 92.389314 165.55164 92.243409 165.4043 92.097656 C 165.26324 91.954096 165.12151 91.811556 164.97852 91.669922 C 164.82148 91.509887 164.66139 91.352957 164.50195 91.195312 C 164.34544 91.036052 164.18819 90.87759 164.0293 90.720703 C 163.89323 90.582442 163.75505 90.447018 163.61719 90.310547 C 163.46014 90.150525 163.30203 89.991615 163.14258 89.833984 C 162.9922 89.680963 162.84007 89.529737 162.6875 89.378906 C 162.53584 89.224564 162.3824 89.072037 162.22852 88.919922 C 162.07686 88.765579 161.92342 88.613053 161.76953 88.460938 C 161.61723 88.305937 161.46315 88.152753 161.30859 88 C 161.15566 87.844335 161.00091 87.690509 160.8457 87.537109 C 160.69244 87.38111 160.5364 87.227943 160.38086 87.074219 C 160.22695 86.917557 160.07222 86.76179 159.91602 86.607422 C 159.76147 86.4501 159.60413 86.295633 159.44727 86.140625 C 159.28466 85.975082 159.12025 85.811417 158.95508 85.648438 C 158.81555 85.506595 158.67462 85.366521 158.5332 85.226562 C 158.36849 85.058586 158.20251 84.891908 158.03516 84.726562 C 157.87159 84.560036 157.70522 84.396354 157.53906 84.232422 C 157.38818 84.078994 157.23512 83.928568 157.08203 83.777344 C 156.93124 83.623817 156.77995 83.471637 156.62695 83.320312 C 156.46222 83.152355 156.29628 82.985636 156.12891 82.820312 C 155.9702 82.658698 155.80959 82.499017 155.64844 82.339844 C 155.48167 82.170014 155.31205 82.003071 155.14258 81.835938 C 154.99146 81.682253 154.83888 81.53038 154.68555 81.378906 C 154.5252 81.215554 154.36206 81.055392 154.19922 80.894531 C 154.04532 80.737741 153.89057 80.582228 153.73438 80.427734 C 153.56454 80.254467 153.39335 80.082576 153.2207 79.912109 C 153.0588 79.747192 152.89492 79.584252 152.73047 79.421875 C 152.56114 79.249397 152.38891 79.079853 152.2168 78.910156 C 152.06893 78.759725 151.91952 78.611205 151.76953 78.462891 C 151.59037 78.280065 151.40885 78.099631 151.22656 77.919922 C 151.07837 77.769157 150.92767 77.621295 150.77734 77.472656 C 150.6043 77.296064 150.42987 77.120951 150.25391 76.947266 C 150.08879 76.779025 149.92167 76.612862 149.75391 76.447266 C 149.58105 76.271141 149.40622 76.097054 149.23047 75.923828 C 149.07939 75.770095 148.92673 75.61832 148.77344 75.466797 C 148.59107 75.280661 148.4063 75.096967 148.2207 74.914062 C 148.0693 74.759995 147.91535 74.608879 147.76172 74.457031 C 147.58547 74.27713 147.40778 74.09876 147.22852 73.921875 C 147.0602 73.750329 146.88982 73.580907 146.71875 73.412109 C 146.54269 73.232679 146.36461 73.055329 146.18555 72.878906 C 146.02449 72.71497 145.86084 72.554001 145.69727 72.392578 C 145.52763 72.219622 145.35603 72.049071 145.18359 71.878906 C 145.01809 71.71014 144.85177 71.543063 144.68359 71.376953 C 144.50574 71.19542 144.32546 71.016352 144.14453 70.837891 C 143.97301 70.663038 143.79938 70.490357 143.625 70.318359 C 143.45348 70.143507 143.27985 69.970826 143.10547 69.798828 C 142.92396 69.613773 142.7394 69.431856 142.55469 69.25 C 142.39651 69.088986 142.23678 68.930073 142.07617 68.771484 C 141.89607 68.587625 141.71451 68.405317 141.53125 68.224609 C 141.34975 68.039544 141.16517 67.857649 140.98047 67.675781 C 140.82105 67.513443 140.65994 67.353235 140.49805 67.193359 C 140.31477 67.006168 140.1299 66.820646 139.94336 66.636719 C 139.76736 66.457234 139.58917 66.279994 139.41016 66.103516 C 139.23416 65.924031 139.05596 65.746791 138.87695 65.570312 C 138.69968 65.389501 138.52018 65.210962 138.33984 65.033203 C 138.16257 64.852393 137.98307 64.673853 137.80273 64.496094 C 137.61804 64.307719 137.4302 64.122562 137.24219 63.9375 C 137.07893 63.771189 136.9139 63.607086 136.74805 63.443359 C 136.5603 63.251529 136.37087 63.06145 136.17969 62.873047 C 136.00049 62.690254 135.81904 62.509753 135.63672 62.330078 C 135.45689 62.146617 135.27477 61.965478 135.0918 61.785156 C 134.91132 61.601037 134.72857 61.419237 134.54492 61.238281 C 134.36381 61.053494 134.18039 60.871055 133.99609 60.689453 C 133.80725 60.496777 133.61614 60.3064 133.42383 60.117188 C 133.24794 59.937956 133.06952 59.762166 132.89062 59.585938 C 132.71453 59.406258 132.53654 59.229402 132.35742 59.052734 C 132.16805 58.859265 131.97607 58.668498 131.7832 58.478516 C 131.59243 58.283837 131.39939 58.091533 131.20508 57.900391 C 131.03372 57.725746 130.86171 57.552656 130.6875 57.380859 C 130.49623 57.185412 130.30226 56.992671 130.10742 56.800781 C 129.92247 56.612027 129.73516 56.425665 129.54688 56.240234 C 129.36065 56.050152 129.17203 55.862493 128.98242 55.675781 C 128.78911 55.478467 128.59344 55.283526 128.39648 55.089844 C 128.22256 54.912554 128.046 54.738808 127.86914 54.564453 C 125.82708 52.477438 123.5848 50.586759 121.16797 48.945312 C 114.03314 44.06331 105.41488 41.353594 96.761719 41.376953 C 96.488874 41.373753 96.216142 41.374753 95.943359 41.376953 z "
       transform="translate(0,860.36216)"
       id="path4993" />
    <path
       inkscape:connector-curvature="0"
       id="path4882"
       d="m 95.374846,40.809214 c -8.456296,0.06957 -16.861377,2.729258 -23.851195,7.48133 -7.093312,4.780782 -12.743563,11.661348 -16.052737,19.548863 -3.438946,8.16782 -4.443216,17.412825 -2.468094,26.076363 1.76749,7.80707 5.323309,15.08481 9.504546,21.86407 3.820475,6.15637 8.2117,11.94135 12.90943,17.45145 6.348423,7.39956 13.229234,14.34241 20.56392,20.76871 6.247214,-5.40369 12.117824,-11.24066 17.659074,-17.36586 6.8156,-7.61761 13.13799,-15.74397 18.14976,-24.67486 4.39406,-7.90048 7.87486,-16.595331 8.19671,-25.731243 0.14533,-5.834534 -0.85682,-11.700043 -2.9669,-17.145259 -3.21056,-8.352093 -9.01882,-15.676482 -16.42099,-20.70383 -7.13483,-4.882003 -15.75199,-7.591469 -24.405154,-7.56811 -0.272845,-0.0032 -0.545587,-0.0037 -0.81837,-0.0015 z m 0.996401,9.940499 c 6.097543,0.04308 12.182123,1.757429 17.385333,4.945917 6.14339,3.714062 11.04622,9.436741 13.77403,16.075851 4.02552,9.597902 3.28598,21.056898 -2.01388,30.026699 -4.40446,7.60201 -11.85593,13.36914 -20.33521,15.68166 -9.618668,2.70186 -20.395221,0.86136 -28.531894,-4.9524 -2.091916,-1.34183 -3.669778,-3.53983 -4.025353,-6.02627 -0.643665,-3.81008 1.492536,-7.926757 5.04568,-9.494397 1.404128,-0.64886 2.969172,-0.825016 4.503072,-0.783505 3.973604,0.01822 7.94956,-0.01296 11.923163,0.01295 1.038174,-0.02085 1.94398,0.903139 1.894666,1.94132 0.0597,2.501972 -0.03357,5.008922 0.0365,7.510902 0.01817,0.77344 1.167862,0.99178 1.603895,0.42339 6.592401,-6.566431 13.166541,-13.156228 19.745961,-19.738249 0.88762,-0.820154 0.94206,-2.361839 0.0597,-3.205351 -6.35373,-6.366571 -12.72549,-12.717759 -19.076531,-19.086941 -0.433434,-0.399699 -0.799389,-0.949845 -1.401528,-1.097784 -0.461988,0.04413 -1.009379,0.373499 -0.944494,0.90556 -0.03633,2.429321 0.02345,4.861403 -0.02068,7.290727 0.0545,1.017406 -0.786741,2.06872 -1.850868,2.009023 -4.326582,0.0078 -8.655436,-0.0032 -12.982018,0.0046 -2.359247,0.02075 -4.68751,-1.022277 -6.26553,-2.768997 -2.374821,-2.543523 -3.098782,-6.532866 -1.611601,-9.704475 0.752675,-1.655886 2.083807,-2.979476 3.59954,-3.952765 4.741849,-3.30398 10.350575,-5.339038 16.104645,-5.868511 1.12455,-0.107869 2.254212,-0.157214 3.383386,-0.149237 z"
       style="display:inline;fill:#f5f5f5;fill-opacity:1;filter:url(#filter6477)"
       transform="translate(0,860.36216)" />
    <g
       style="display:inline"
       id="g4931"
       transform="translate(0,860.36216)">
      <path
         style="opacity:0.2;fill:#ffffff;fill-opacity:1"
         d="m 95.375,40.808594 c -8.456296,0.06957 -16.861745,2.73035 -23.851562,7.482422 -7.093312,4.780782 -12.743561,11.661313 -16.052735,19.548828 -2.368068,5.624384 -3.579648,11.75893 -3.460937,17.863281 0.02484,-5.772651 1.222187,-11.54604 3.460937,-16.863281 3.309174,-7.887515 8.959423,-14.768046 16.052735,-19.548828 6.989817,-4.752072 15.395266,-7.412852 23.851562,-7.482422 0.272783,-0.0022 0.545514,-0.0012 0.818359,0.002 8.653161,-0.02336 17.269471,2.686356 24.404301,7.568359 7.40217,5.027348 13.21131,12.351032 16.42187,20.703125 1.84632,4.764564 2.84349,9.851208 2.9668,14.957031 -0.01,-5.440303 -1.00001,-10.881589 -2.9668,-15.957031 -3.21056,-8.352093 -9.0197,-15.675777 -16.42187,-20.703125 -7.13483,-4.882003 -15.75114,-7.591718 -24.404301,-7.568359 -0.272845,-0.0032 -0.545576,-0.0042 -0.818359,-0.002 z m 1.583984,22.175781 c -0.461988,0.04413 -1.010197,0.372236 -0.945312,0.904297 -0.03633,2.429321 0.0246,4.861691 -0.01953,7.291016 0.0545,1.017405 -0.787436,2.069462 -1.851563,2.009765 -4.326582,0.0078 -8.65584,-0.0039 -12.982422,0.0039 -2.359247,0.02075 -4.687605,-1.022811 -6.265625,-2.769531 -1.410393,-1.510585 -2.221132,-3.531547 -2.349609,-5.58789 -0.118341,2.389205 0.710218,4.83204 2.349609,6.58789 1.57802,1.74672 3.906378,2.790281 6.265625,2.769531 4.326582,-0.0078 8.65584,0.0039 12.982422,-0.0039 1.064127,0.0597 1.906063,-0.99236 1.851563,-2.009765 0.04413,-2.429325 -0.0168,-4.861695 0.01953,-7.291016 -0.06489,-0.532061 0.483324,-0.860167 0.945312,-0.904297 0.602139,0.147939 0.96891,0.697957 1.402344,1.097656 6.351042,6.369182 12.722442,12.719367 19.076172,19.085938 0.30613,0.292649 0.49124,0.670828 0.57617,1.072265 0.16283,-0.731295 -0.0196,-1.540237 -0.57617,-2.072265 -6.35373,-6.366571 -12.72513,-12.716756 -19.076172,-19.085938 -0.433434,-0.399699 -0.800205,-0.949717 -1.402344,-1.097656 z m 33.124996,22.410156 c -0.11121,5.73821 -1.64005,11.451557 -4.5664,16.404299 -4.40446,7.60201 -11.85666,13.36912 -20.33594,15.68164 -9.618667,2.70186 -20.394576,0.86063 -28.531249,-4.95313 -2.091916,-1.34183 -3.669816,-3.53895 -4.025391,-6.02539 -0.04722,-0.27953 -0.07591,-0.56204 -0.09375,-0.84375 -0.034,0.6145 -0.0094,1.23325 0.09375,1.84375 0.355575,2.48644 1.933475,4.68356 4.025391,6.02539 8.136673,5.81376 18.912582,7.65499 28.531249,4.95313 8.47928,-2.31252 15.93148,-8.07963 20.33594,-15.68164 3.09645,-5.24063 4.62412,-11.331893 4.5664,-17.404299 z"
         id="path4923"
         inkscape:connector-curvature="0" />
      <path
         style="opacity:0.2;fill:#1a237e;fill-opacity:1"
         d="m 96.371094,50.75 c -1.129174,-0.008 -2.258263,0.04057 -3.382813,0.148438 -5.75407,0.529472 -11.363619,2.56516 -16.105469,5.86914 -1.515733,0.973289 -2.846934,2.297239 -3.599609,3.953125 -0.603952,1.288008 -0.826134,2.709106 -0.738281,4.115235 0.05309,-1.071796 0.277734,-2.133057 0.738281,-3.115235 0.752675,-1.655886 2.083876,-2.979836 3.599609,-3.953125 4.74185,-3.30398 10.351399,-5.339668 16.105469,-5.86914 1.12455,-0.10787 2.253639,-0.156415 3.382813,-0.148438 6.097546,0.04308 12.181556,1.756824 17.384766,4.945312 6.14339,3.714062 11.04758,9.437062 13.77539,16.076172 1.6736,3.990305 2.51166,8.301991 2.55273,12.623047 0.0902,-4.654139 -0.74993,-9.324695 -2.55273,-13.623047 -2.72781,-6.63911 -7.632,-12.36211 -13.77539,-16.076172 C 108.55265,52.506824 102.46864,50.79308 96.371094,50.75 Z m 21.642576,34.490234 c -0.0953,0.428147 -0.30895,0.829955 -0.63672,1.132813 -6.57942,6.582021 -13.15369,13.17185 -19.746091,19.738283 -0.436033,0.56839 -1.585345,0.34961 -1.603515,-0.42383 -0.07007,-2.50198 0.02259,-5.00779 -0.03711,-7.509766 0.04931,-1.038181 -0.856357,-1.962256 -1.894531,-1.941406 -3.973603,-0.02591 -7.948271,0.0045 -11.921875,-0.01367 -1.5339,-0.04151 -3.099778,0.134343 -4.503906,0.783203 -3.292457,1.452626 -5.363932,5.094359 -5.138672,8.652339 0.178194,-3.22052 2.154858,-6.335886 5.138672,-7.652339 1.404128,-0.64886 2.970006,-0.824714 4.503906,-0.783203 3.973604,0.01822 7.948272,-0.01224 11.921875,0.01367 1.038174,-0.02085 1.943845,0.903225 1.894531,1.941406 0.0597,2.501976 -0.03296,5.007786 0.03711,7.509766 0.01817,0.77344 1.167482,0.99222 1.603515,0.42383 6.592401,-6.56643 13.166671,-13.156262 19.746091,-19.738283 0.57967,-0.535609 0.79659,-1.377175 0.63672,-2.132813 z m -66.003904,0.462891 c -0.01332,3.094725 0.302867,6.189305 0.992187,9.212891 1.76749,7.807074 5.324623,15.084024 9.505859,21.863284 3.820475,6.15637 8.210474,11.94107 12.908204,17.45117 6.348423,7.39956 13.229767,14.34323 20.564453,20.76953 6.247211,-5.40369 12.118901,-11.24003 17.660151,-17.36523 6.81561,-7.61761 13.13667,-15.7449 18.14844,-24.67579 4.39406,-7.90048 7.87542,-16.594552 8.19727,-25.730464 0.008,-0.333105 -8.3e-4,-0.666778 0,-1 -0.32185,9.135912 -3.80321,17.829984 -8.19727,25.730464 -5.01177,8.93089 -11.33283,17.05818 -18.14844,24.67579 -5.54125,6.1252 -11.41294,11.96154 -17.660151,17.36523 -7.334686,-6.4263 -14.21603,-13.36997 -20.564453,-20.76953 -4.69773,-5.5101 -9.087729,-11.2948 -12.908204,-17.45117 -4.181236,-6.77926 -7.738369,-14.05621 -9.505859,-21.863284 -0.615047,-2.697802 -0.938504,-5.452406 -0.992187,-8.212891 z"
         id="path4928"
         inkscape:connector-curvature="0" />
    </g>
  </g>
  <g
     inkscape:label="finish"
     id="layer3"
     inkscape:groupmode="layer">
    <path
       inkscape:connector-curvature="0"
       id="path4180"
       d="m 32,20 c -6,0 -12,6 -12,12 l 0,1 c 0,-6 6,-12 12,-12 l 128,0 c 6,0 12,6 12,12 l 0,-1 c 0,-6 -6,-12 -12,-12 L 32,20 Z"
       style="opacity:0.1;fill:#ffffff;fill-opacity:1;fill-rule:evenodd;stroke:none;stroke-width:1px;stroke-linecap:butt;stroke-linejoin:miter;stroke-opacity:1" />
    <path
       inkscape:connector-curvature="0"
       id="path4186"
       d="m 20,159 0,1 c 0,6 6,12 12,12 l 128,0 c 6,0 12,-6 12,-12 l 0,-1 c 0,6 -6,12 -12,12 l -128,0 c -6,0 -12,-6 -12,-12 z"
       style="opacity:0.2;fill:#1a237e;fill-opacity:1;fill-rule:evenodd;stroke:none;stroke-width:1px;stroke-linecap:butt;stroke-linejoin:miter;stroke-opacity:1" />
    <path
       style="opacity:0.1;fill:url(#radialGradient4200);fill-opacity:1;fill-rule:evenodd;stroke:none;stroke-width:0.1;stroke-linecap:butt;stroke-linejoin:miter;stroke-miterlimit:4;stroke-dasharray:none;stroke-opacity:1"
       d="m 32,880.36216 128,0 c 6,0 12,6 12,12 l 0,128.00004 c 0,6 -6,12 -12,12 l -128,0 c -6,0 -12,-6 -12,-12 l 0,-128.00004 c 0,-6 6,-12 12,-12 z"
       id="path4192"
       inkscape:connector-curvature="0"
       sodipodi:nodetypes="ccccccccc"
       transform="translate(0,-860.36216)" />
  </g>
</svg>
