<?xml version="1.0" encoding="UTF-8" standalone="no"?>
<!-- Created with Inkscape (http://www.inkscape.org/) -->

<svg
   xmlns:dc="http://purl.org/dc/elements/1.1/"
   xmlns:cc="http://creativecommons.org/ns#"
   xmlns:rdf="http://www.w3.org/1999/02/22-rdf-syntax-ns#"
   xmlns:svg="http://www.w3.org/2000/svg"
   xmlns="http://www.w3.org/2000/svg"
   xmlns:xlink="http://www.w3.org/1999/xlink"
   xmlns:sodipodi="http://sodipodi.sourceforge.net/DTD/sodipodi-0.dtd"
   xmlns:inkscape="http://www.inkscape.org/namespaces/inkscape"
   width="192"
   height="192"
   viewBox="0 0 192 192"
   id="svg2"
   version="1.1"
   inkscape:version="0.91 r13725"
   sodipodi:docname="app_ops.svg"
   inkscape:export-filename="C:\createme\Material Design Icons\PNG\app_ops.png"
   inkscape:export-xdpi="90"
   inkscape:export-ydpi="90">
  <sodipodi:namedview
     id="base"
     pagecolor="#ffffff"
     bordercolor="#666666"
     borderopacity="1.0"
     inkscape:pageopacity="0.0"
     inkscape:pageshadow="2"
     inkscape:zoom="1"
     inkscape:cx="552.55003"
     inkscape:cy="-31.65504"
     inkscape:document-units="px"
     inkscape:current-layer="layer1"
     showgrid="false"
     units="px"
     showguides="false"
     inkscape:window-width="1920"
     inkscape:window-height="1017"
     inkscape:window-x="-8"
     inkscape:window-y="-8"
     inkscape:window-maximized="1">
    <sodipodi:guide
       position="0,184"
       orientation="0,1"
       id="guide3354"
       inkscape:label=""
       inkscape:color="rgb(0,0,255)" />
    <sodipodi:guide
       position="8,0"
       orientation="1,0"
       id="guide3356"
       inkscape:label=""
       inkscape:color="rgb(0,0,255)" />
    <sodipodi:guide
       position="0,8"
       orientation="0,1"
       id="guide3358"
       inkscape:label=""
       inkscape:color="rgb(0,0,255)" />
    <sodipodi:guide
       position="184,0"
       orientation="1,0"
       id="guide3360"
       inkscape:label=""
       inkscape:color="rgb(0,0,255)" />
    <sodipodi:guide
       position="0,20"
       orientation="0,1"
       id="guide3362"
       inkscape:label=""
       inkscape:color="rgb(0,0,255)" />
    <sodipodi:guide
       position="172,0"
       orientation="1,0"
       id="guide3364"
       inkscape:label=""
       inkscape:color="rgb(0,0,255)" />
    <sodipodi:guide
       position="96,172"
       orientation="0,1"
       id="guide3366"
       inkscape:label=""
       inkscape:color="rgb(0,0,255)" />
    <sodipodi:guide
       position="20,0"
       orientation="1,0"
       id="guide3368"
       inkscape:label=""
       inkscape:color="rgb(0,0,255)" />
    <sodipodi:guide
       position="0,32"
       orientation="0,1"
       id="guide3370"
       inkscape:label=""
       inkscape:color="rgb(0,0,255)" />
    <sodipodi:guide
       position="160,0"
       orientation="1,0"
       id="guide3372"
       inkscape:label=""
       inkscape:color="rgb(0,0,255)" />
    <sodipodi:guide
       position="0,160"
       orientation="0,1"
       id="guide3374"
       inkscape:label=""
       inkscape:color="rgb(0,0,255)" />
    <sodipodi:guide
       position="32,0"
       orientation="1,0"
       id="guide3376"
       inkscape:label=""
       inkscape:color="rgb(0,0,255)" />
    <inkscape:grid
       type="xygrid"
       id="grid3378" />
    <sodipodi:guide
       position="0,0"
       orientation="-0.70710678,0.70710678"
       id="guide5849"
       inkscape:label=""
       inkscape:color="rgb(255,0,0)" />
    <sodipodi:guide
       position="124,0"
       orientation="1,0"
       id="guide5851"
       inkscape:label=""
       inkscape:color="rgb(255,0,0)" />
    <sodipodi:guide
       position="0,192"
       orientation="0.70710678,0.70710678"
       id="guide5853"
       inkscape:label=""
       inkscape:color="rgb(255,0,0)" />
    <sodipodi:guide
       position="96,0"
       orientation="1,0"
       id="guide5855"
       inkscape:label=""
       inkscape:color="rgb(255,0,0)" />
    <sodipodi:guide
       position="0,96"
       orientation="0,1"
       id="guide5859"
       inkscape:label=""
       inkscape:color="rgb(255,0,0)" />
    <sodipodi:guide
       position="0,124"
       orientation="0,1"
       id="guide5861"
       inkscape:label=""
       inkscape:color="rgb(255,0,0)" />
    <sodipodi:guide
       position="0,68"
       orientation="0,1"
       id="guide5863"
       inkscape:label=""
       inkscape:color="rgb(255,0,0)" />
    <sodipodi:guide
       position="68,0"
       orientation="1,0"
       id="guide5865"
       inkscape:label=""
       inkscape:color="rgb(255,0,0)" />
    <sodipodi:guide
       position="192,0"
       orientation="-192,0"
       id="guide5869" />
    <sodipodi:guide
       position="192,192"
       orientation="0,-192"
       id="guide5871" />
  </sodipodi:namedview>
  <defs
     id="defs4">
    <linearGradient
       inkscape:collect="always"
       id="linearGradient8529">
      <stop
         style="stop-color:#000000;stop-opacity:1;"
         offset="0"
         id="stop8531" />
      <stop
         style="stop-color:#000000;stop-opacity:0;"
         offset="1"
         id="stop8533" />
    </linearGradient>
    <linearGradient
       inkscape:collect="always"
       id="linearGradient5463">
      <stop
         style="stop-color:#ffffff;stop-opacity:1;"
         offset="0"
         id="stop5465" />
      <stop
         style="stop-color:#ffffff;stop-opacity:0;"
         offset="1"
         id="stop5467" />
    </linearGradient>
    <clipPath
       clipPathUnits="userSpaceOnUse"
       id="clipPath10430">
      <path
         inkscape:connector-curvature="0"
         d="m 1241.028,39.3409 224.537,0 0,178.031 -224.537,0 0,-178.031 z"
         id="path10432" />
    </clipPath>
    <clipPath
       clipPathUnits="userSpaceOnUse"
       id="clipPath10438">
      <path
         inkscape:connector-curvature="0"
         d="m 1260.156,213.3477 0,-170.2268 191.3337,0 0,170.2268"
         id="path10440" />
    </clipPath>
    <filter
       height="1.3"
       style="color-interpolation-filters:sRGB;"
       inkscape:label="Drop Shadow"
       id="filter5248">
      <feFlood
         flood-opacity="0.20000000000000001"
         flood-color="rgb(0,0,0)"
         result="flood"
         id="feFlood5250" />
      <feComposite
         in="flood"
         in2="SourceGraphic"
         operator="in"
         result="composite1"
         id="feComposite5252" />
      <feGaussianBlur
         in="composite1"
         stdDeviation="4"
         result="blur"
         id="feGaussianBlur5254" />
      <feOffset
         dx="4.57967e-015"
         dy="4"
         result="offset"
         id="feOffset5256" />
      <feComposite
         in="SourceGraphic"
         in2="offset"
         operator="over"
         result="composite2"
         id="feComposite5258" />
    </filter>
    <radialGradient
       inkscape:collect="always"
       xlink:href="#linearGradient5463"
       id="radialGradient5469"
       cx="8"
       cy="11.564153"
       fx="8"
       fy="11.564153"
       r="84.436"
       gradientTransform="matrix(0,2.084419,-2.084419,0,32.10454,-8.6753518)"
       gradientUnits="userSpaceOnUse" />
    <linearGradient
       inkscape:collect="always"
       xlink:href="#linearGradient8529"
       id="linearGradient8535"
       x1="56.92627"
       y1="56.92627"
       x2="153"
       y2="153"
       gradientUnits="userSpaceOnUse" />
  </defs>
  <metadata
     id="metadata7">
    <rdf:RDF>
      <cc:Work
         rdf:about="">
        <dc:format>image/svg+xml</dc:format>
        <dc:type
           rdf:resource="http://purl.org/dc/dcmitype/StillImage" />
        <dc:title></dc:title>
      </cc:Work>
    </rdf:RDF>
  </metadata>
  <g
     inkscape:groupmode="layer"
     id="layer2"
     inkscape:label="background">
    <path
       inkscape:connector-curvature="0"
       id="path5428"
       d="m 78.804227,183.59202 c -0.363316,-0.21167 -0.832195,-0.70552 -1.04195,-1.09746 -0.20976,-0.39194 -1.318983,-5.18918 -2.464946,-10.66055 -2.118082,-10.11272 -2.564225,-11.3971 -4.644069,-13.36937 -0.938857,-0.89029 -9.694076,-6.01782 -14.566846,-8.5311 -3.181787,-1.64112 -5.346641,-1.34814 -15.775661,2.135 -5.008002,1.6726 -9.655878,3.04109 -10.328611,3.04109 -0.736941,0 -1.596237,-0.33999 -2.161709,-0.85531 -0.734566,-0.66941 -13.83578,-22.26874 -15.779173,-26.01435 -0.644896,-1.24295 -0.518853,-3.97166 0.236434,-5.11862 0.364781,-0.55395 3.590971,-3.5774 7.169311,-6.71878 10.346287,-9.08291 10.030776,-8.44775 10.027741,-20.186764 -0.0012,-4.510136 -0.179076,-8.837408 -0.395354,-9.61616 -0.567704,-2.044125 -2.300898,-4.126752 -6.825119,-8.201145 -2.195287,-1.977018 -5.510805,-4.998775 -7.367817,-6.715019 l -3.376386,-3.120442 0.178281,-2.248038 c 0.168507,-2.124818 0.591008,-2.935634 7.708104,-14.79254 4.141403,-6.899476 7.863335,-12.914918 8.27096,-13.367646 1.424817,-1.582473 2.154605,-1.470535 12.019831,1.843669 8.39118,2.819005 9.663557,3.147453 12.217667,3.153843 l 2.851024,0.0071 6.842455,-3.860638 c 3.76335,-2.123351 7.477314,-4.298041 8.253248,-4.832646 2.733572,-1.883381 3.202063,-3.0801 5.47071,-13.974492 1.1477,-5.511434 2.344385,-10.414026 2.659301,-10.8946473 0.314913,-0.4806197 1.002416,-1.0372816 1.527779,-1.2370247 1.26359,-0.4804163 31.338888,-0.4804163 32.602468,0 0.52537,0.1997431 1.21287,0.756405 1.52779,1.2370247 0.31491,0.4806213 1.5116,5.3832133 2.6593,10.8946473 2.26864,10.894392 2.73713,12.091111 5.47071,13.974492 0.77594,0.534605 4.48989,2.709295 8.25325,4.832646 l 6.84245,3.860638 2.85103,-0.0071 c 2.55411,-0.0064 3.82648,-0.334838 12.21766,-3.153843 9.86523,-3.314204 10.59502,-3.426142 12.01983,-1.843669 0.40763,0.452728 4.12956,6.46817 8.27096,13.367646 7.1171,11.856906 7.53959,12.667722 7.7081,14.79254 l 0.17829,2.248038 -3.3764,3.120442 c -1.857,1.716244 -5.17252,4.738001 -7.36781,6.715019 -4.6199,4.160566 -6.27426,6.176476 -6.863,8.36289 -0.26999,1.002633 -0.37287,4.582143 -0.28634,9.962597 0.15079,9.376412 0.27864,9.952762 2.83587,12.783812 0.80435,0.89048 4.40807,4.25069 8.00829,7.46713 7.25626,6.48278 7.89047,7.41287 7.01633,10.28971 -0.23823,0.78403 -3.85632,7.15606 -8.04022,14.16009 -6.11054,10.22932 -7.8495,12.86543 -8.83939,13.3998 -0.67778,0.36588 -1.49164,0.66524 -1.80856,0.66524 -0.31694,0 -4.68166,-1.39264 -9.69941,-3.09475 -10.75974,-3.9698 -12.20235,-4.41689 -21.66768,0.81395 -11.49526,5.84278 -11.42248,8.81755 -13.64545,19.36257 -1.8415,8.78051 -2.12185,9.74992 -3.05058,10.54879 L 112.30421,184 95.884508,183.9885 c -10.370799,-0.007 -16.663055,-0.15334 -17.080281,-0.39643 z"
       style="fill:#9e9e9e;filter:url(#filter5248)"
       sodipodi:nodetypes="csssssssssscssscssssccssssssssssccsssscssssssssssccccccc" />
  </g>
  <g
     inkscape:label="objects"
     inkscape:groupmode="layer"
     id="layer1"
     transform="translate(0,-860.36216)">
    <path
       style="display:inline;fill:url(#linearGradient8535);opacity:0.2;fill-opacity:1"
       d="M 96.568359 56.568359 C 74.488359 56.568359 56.568359 74.488359 56.568359 96.568359 C 56.568359 107.75241 61.170989 117.86572 68.578125 125.12695 C 68.76512 125.31771 68.955733 125.50441 69.146484 125.69141 C 69.334455 125.88315 69.523077 126.07377 69.714844 126.26172 C 69.901228 126.45178 70.089181 126.63984 70.279297 126.82617 C 70.464405 127.01491 70.651056 127.20166 70.839844 127.38672 C 71.023332 127.5738 71.207427 127.75989 71.394531 127.94336 C 71.578958 128.13144 71.765045 128.31752 71.953125 128.50195 C 72.142397 128.69497 72.334225 128.88505 72.527344 129.07422 C 72.699577 129.24965 72.873413 129.42346 73.048828 129.5957 C 73.235753 129.78653 73.424551 129.97504 73.615234 130.16211 C 73.802892 130.3535 73.992154 130.54286 74.183594 130.73047 C 74.357434 130.90756 74.533855 131.08201 74.710938 131.25586 C 74.901459 131.45026 75.092687 131.64348 75.287109 131.83398 C 75.455556 132.00551 75.625385 132.17527 75.796875 132.34375 C 75.9838 132.53458 76.172598 132.72309 76.363281 132.91016 C 76.544217 133.09459 76.725706 133.27807 76.910156 133.45898 C 77.087899 133.6401 77.268085 133.81837 77.449219 133.99609 C 77.631783 134.18216 77.815811 134.36634 78.001953 134.54883 C 78.171631 134.72161 78.34286 134.89281 78.515625 135.0625 C 78.697405 135.24792 78.881076 135.43141 79.066406 135.61328 C 79.248988 135.79934 79.432981 135.98354 79.619141 136.16602 C 79.79113 136.34105 79.965465 136.51368 80.140625 136.68555 C 80.311307 136.85941 80.482442 137.03239 80.65625 137.20312 C 80.835542 137.38596 81.016474 137.56671 81.199219 137.74609 C 81.374085 137.92424 81.550369 138.10052 81.728516 138.27539 C 81.908544 138.4588 82.089932 138.64039 82.273438 138.82031 C 82.436089 138.9858 82.600138 139.14985 82.765625 139.3125 C 82.948141 139.49862 83.132266 139.68269 83.318359 139.86523 C 83.487124 140.03699 83.658261 140.2063 83.830078 140.375 C 83.998133 140.54616 84.166805 140.71663 84.337891 140.88477 C 84.5178 141.06815 84.699428 141.24978 84.882812 141.42969 C 85.043846 141.59353 85.205329 141.75691 85.369141 141.91797 C 85.543927 142.09617 85.72037 142.27234 85.898438 142.44727 C 86.068478 142.62046 86.24092 142.79084 86.414062 142.96094 C 86.588953 143.13906 86.765189 143.31539 86.943359 143.49023 C 87.104088 143.65374 87.266191 143.81582 87.429688 143.97656 C 87.608069 144.15834 87.786953 144.33922 87.96875 144.51758 C 88.125316 144.67678 88.284168 144.83366 88.443359 144.99023 C 88.614968 145.16514 88.78812 145.33802 88.962891 145.50977 C 89.129736 145.67965 89.296966 145.84873 89.466797 146.01562 C 89.638806 146.19076 89.8131 146.3632 89.988281 146.53516 C 90.145487 146.69501 90.303038 146.85451 90.462891 147.01172 C 90.638079 147.19018 90.81566 147.36585 90.994141 147.54102 C 91.147506 147.69691 91.301147 147.85249 91.457031 148.00586 C 91.62543 148.17743 91.795354 148.34711 91.966797 148.51562 C 92.13076 148.68252 92.296045 148.84771 92.462891 149.01172 C 92.631379 149.18319 92.801125 149.35305 92.972656 149.52148 C 93.126662 149.67804 93.282908 149.83232 93.439453 149.98633 C 93.611447 150.16148 93.783818 150.33584 93.958984 150.50781 C 94.109149 150.6604 94.261484 150.81077 94.414062 150.96094 C 94.579596 151.12953 94.74559 151.29723 94.914062 151.46289 C 95.074189 151.62581 95.235564 151.78709 95.398438 151.94727 C 95.564053 152.11577 95.731835 152.2817 95.900391 152.44727 C 96.051196 152.60051 96.20223 152.75349 96.355469 152.9043 C 96.524267 153.07613 96.695335 153.24528 96.867188 153.41406 C 97.01415 153.56334 97.161273 153.71241 97.310547 153.85938 C 97.472554 154.02432 97.635959 154.18748 97.800781 154.34961 C 97.963839 154.51547 98.129016 154.67879 98.294922 154.8418 C 98.443166 154.9924 98.591592 155.14277 98.742188 155.29102 C 98.902603 155.45427 99.063388 155.61684 99.226562 155.77734 C 99.382215 155.93559 99.53902 156.09239 99.697266 156.24805 C 99.8581 156.41156 100.02194 156.57168 100.18555 156.73242 C 100.33448 156.88364 100.48346 157.03475 100.63477 157.18359 C 100.79006 157.34146 100.94759 157.49706 101.10547 157.65234 C 101.2531 157.80236 101.40082 157.95192 101.55078 158.09961 C 101.71413 158.26581 101.87871 158.43041 102.04492 158.59375 C 102.18708 158.73806 102.33029 158.88129 102.47461 159.02344 C 102.63113 159.18267 102.78812 159.34144 102.94727 159.49805 C 103.10005 159.65332 103.25487 159.80621 103.41016 159.95898 C 103.56072 160.11194 103.71225 160.26353 103.86523 160.41406 C 104.0145 160.56571 104.16475 160.71597 104.31641 160.86523 C 104.46631 161.01754 104.61722 161.16845 104.76953 161.31836 C 104.9246 161.47592 105.08064 161.63212 105.23828 161.78711 C 105.3753 161.92615 105.51332 162.06414 105.65234 162.20117 C 105.80539 162.35685 105.95967 162.51089 106.11523 162.66406 C 106.26287 162.81407 106.41058 162.96365 106.56055 163.11133 C 106.70883 163.26199 106.85912 163.41029 107.00977 163.55859 C 107.15646 163.7076 107.30414 163.85525 107.45312 164.00195 C 107.59919 164.1503 107.74619 164.2973 107.89453 164.44336 C 108.04705 164.59826 108.20046 164.75188 108.35547 164.9043 C 108.49452 165.0453 108.63428 165.18528 108.77539 165.32422 C 108.91436 165.46531 109.05428 165.60511 109.19531 165.74414 C 109.34389 165.89517 109.49359 166.0447 109.64453 166.19336 C 109.78803 166.33906 109.93243 166.48345 110.07812 166.62695 C 110.22098 166.772 110.36473 166.91573 110.50977 167.05859 C 110.651 167.20198 110.79218 167.34507 110.93555 167.48633 C 111.07742 167.63039 111.22121 167.77216 111.36523 167.91406 C 111.50646 168.05746 111.64765 168.20053 111.79102 168.3418 C 111.9329 168.48584 112.07667 168.62764 112.2207 168.76953 C 112.36099 168.91193 112.50214 169.05306 112.64453 169.19336 C 112.78418 169.3351 112.92467 169.47558 113.06641 169.61523 C 113.2067 169.75763 113.34783 169.89878 113.49023 170.03906 C 113.62893 170.17979 113.76745 170.32031 113.9082 170.45898 C 114.04626 170.59905 114.18608 170.73697 114.32617 170.875 C 114.46159 171.01239 114.59699 171.14973 114.73438 171.28516 C 114.87241 171.42524 115.01227 171.56312 115.15234 171.70117 C 115.29492 171.84583 115.43729 171.99032 115.58203 172.13281 C 115.71203 172.26453 115.84281 172.39548 115.97461 172.52539 C 116.08675 172.63916 116.20073 172.75109 116.31445 172.86328 C 116.33943 172.74436 116.35138 172.69418 116.37695 172.57227 C 118.59992 162.02725 118.52818 159.05176 130.02344 153.20898 C 139.48877 147.97814 140.93167 148.42473 151.69141 152.39453 C 156.70916 154.09664 161.07369 155.49023 161.39062 155.49023 C 161.70754 155.49023 162.52144 155.1901 163.19922 154.82422 C 164.18911 154.28985 165.92657 151.65315 172.03711 141.42383 C 176.22101 134.4198 179.8399 128.0477 180.07812 127.26367 C 180.95227 124.38683 180.31876 123.45739 173.0625 116.97461 C 169.46228 113.75817 165.85708 110.39829 165.05273 109.50781 C 164.02466 108.36965 163.40017 107.57686 162.99805 106.44922 C 162.88688 106.33774 162.77632 106.22572 162.66406 106.11523 C 162.51671 105.96558 162.36843 105.81725 162.21875 105.66992 C 162.07018 105.51899 161.92047 105.36927 161.76953 105.2207 C 161.62026 105.06906 161.47001 104.91879 161.31836 104.76953 C 161.16845 104.61722 161.01754 104.46631 160.86523 104.31641 C 160.71598 104.16475 160.56571 104.0145 160.41406 103.86523 C 160.26353 103.71225 160.11194 103.56072 159.95898 103.41016 C 159.80621 103.25487 159.65332 103.10005 159.49805 102.94727 C 159.34009 102.78674 159.18016 102.62855 159.01953 102.4707 C 158.87866 102.32772 158.73675 102.18579 158.59375 102.04492 C 158.43041 101.87871 158.26581 101.71413 158.09961 101.55078 C 157.95068 101.39956 157.79973 101.25041 157.64844 101.10156 C 157.49443 100.94502 157.34014 100.78877 157.18359 100.63477 C 157.03475 100.48346 156.88364 100.33448 156.73242 100.18555 C 156.57168 100.02194 156.41156 99.8581 156.24805 99.697266 C 156.09239 99.53902 155.93559 99.382214 155.77734 99.226562 C 155.61684 99.063388 155.45427 98.902603 155.29102 98.742188 C 155.14277 98.591592 154.9924 98.443166 154.8418 98.294922 C 154.67879 98.129016 154.51547 97.963839 154.34961 97.800781 C 154.18748 97.635959 154.02432 97.472554 153.85938 97.310547 C 153.71241 97.161273 153.56334 97.014149 153.41406 96.867188 C 153.24528 96.695335 153.07613 96.524267 152.9043 96.355469 C 152.75349 96.20223 152.60051 96.051196 152.44727 95.900391 C 152.2817 95.731835 152.11577 95.564053 151.94727 95.398438 C 151.78709 95.235563 151.62581 95.074188 151.46289 94.914062 C 151.29724 94.745589 151.12953 94.579596 150.96094 94.414062 C 150.81077 94.261484 150.6604 94.109149 150.50781 93.958984 C 150.33584 93.783818 150.16148 93.611447 149.98633 93.439453 C 149.83232 93.282908 149.67803 93.126662 149.52148 92.972656 C 149.35305 92.801125 149.18319 92.631379 149.01172 92.462891 C 148.84771 92.296045 148.68253 92.13076 148.51562 91.966797 C 148.3471 91.795354 148.17743 91.62543 148.00586 91.457031 C 147.85249 91.301147 147.6969 91.147506 147.54102 90.994141 C 147.36585 90.81566 147.19018 90.638079 147.01172 90.462891 C 146.85451 90.303038 146.69501 90.145487 146.53516 89.988281 C 146.3632 89.8131 146.19075 89.638806 146.01562 89.466797 C 145.84873 89.296966 145.67965 89.129735 145.50977 88.962891 C 145.33802 88.78812 145.16514 88.614968 144.99023 88.443359 C 144.83366 88.284169 144.67677 88.125316 144.51758 87.96875 C 144.33922 87.786953 144.15834 87.608069 143.97656 87.429688 C 143.81582 87.266191 143.65374 87.104088 143.49023 86.943359 C 143.31539 86.765189 143.13906 86.588953 142.96094 86.414062 C 142.79084 86.240921 142.62046 86.068478 142.44727 85.898438 C 142.27234 85.72037 142.09617 85.543927 141.91797 85.369141 C 141.75691 85.205329 141.59353 85.043845 141.42969 84.882812 C 141.24978 84.699428 141.06815 84.5178 140.88477 84.337891 C 140.71663 84.166805 140.54616 83.998133 140.375 83.830078 C 140.2063 83.658261 140.03699 83.487124 139.86523 83.318359 C 139.68269 83.132266 139.49862 82.948141 139.3125 82.765625 C 139.14985 82.600138 138.9858 82.436089 138.82031 82.273438 C 138.64039 82.089933 138.4588 81.908544 138.27539 81.728516 C 138.10052 81.550369 137.92424 81.374085 137.74609 81.199219 C 137.56672 81.016474 137.38597 80.835542 137.20312 80.65625 C 137.03116 80.481191 136.85678 80.308606 136.68164 80.136719 C 136.51104 79.962897 136.33974 79.78984 136.16602 79.619141 C 135.98354 79.432982 135.79934 79.248988 135.61328 79.066406 C 135.43141 78.881076 135.24792 78.697404 135.0625 78.515625 C 134.89281 78.34286 134.72161 78.171631 134.54883 78.001953 C 134.36634 77.815811 134.18216 77.631783 133.99609 77.449219 C 133.81837 77.268085 133.6401 77.087899 133.45898 76.910156 C 133.27807 76.725706 133.09459 76.544217 132.91016 76.363281 C 132.72987 76.179508 132.54901 75.996689 132.36523 75.816406 C 132.1847 75.632372 132.0024 75.450066 131.81836 75.269531 C 131.63324 75.080816 131.44466 74.895972 131.25586 74.710938 C 131.08201 74.533855 130.90756 74.357434 130.73047 74.183594 C 130.54286 73.992154 130.3535 73.802892 130.16211 73.615234 C 129.97504 73.424551 129.78653 73.235753 129.5957 73.048828 C 129.42346 72.873413 129.24965 72.699577 129.07422 72.527344 C 128.88505 72.334225 128.69497 72.142397 128.50195 71.953125 C 128.31752 71.765045 128.13144 71.578958 127.94336 71.394531 C 127.75989 71.207427 127.5738 71.023332 127.38672 70.839844 C 127.20166 70.651056 127.01491 70.464405 126.82617 70.279297 C 126.63984 70.089182 126.45178 69.901228 126.26172 69.714844 C 126.07377 69.523077 125.88315 69.334455 125.69141 69.146484 C 125.50441 68.955733 125.31771 68.76512 125.12695 68.578125 C 117.86575 61.170992 107.75241 56.568359 96.568359 56.568359 z "
       transform="translate(0,860.36216)"
       id="path7075" />
    <path
       style="display:inline;fill:#f5f5f5;filter:url(#filter5248)"
       inkscape:connector-curvature="0"
       d="m 95.999998,916.36212 c -22.08,0 -40.000002,17.91999 -40.000002,39.99999 0,22.08 17.920002,40.00009 40.000002,40.00009 C 118.07999,996.3622 136,978.44211 136,956.36211 c 0,-22.08 -17.92001,-39.99999 -40.000002,-39.99999 z m -32.000001,39.99999 c 0,-17.68 14.320001,-31.99999 32.000001,-31.99999 7.400002,0 14.200002,2.52 19.600002,6.75999 L 70.759996,975.9621 c -4.24,-5.39999 -6.759999,-12.19999 -6.759999,-19.59999 z m 32.000001,32 c -7.400001,0 -14.2,-2.52001 -19.600001,-6.76001 L 121.24,936.7621 c 4.23999,5.40001 6.75998,12.20001 6.75998,19.60001 0,17.67999 -14.31998,32 -31.999982,32 z"
       id="path5478" />
    <g
       id="g8548">
      <path
         id="path8539"
         transform="translate(0,860.36216)"
         d="M 96 64 C 78.32 64 64 78.32 64 96 C 64 96.181208 64.008708 96.360539 64.011719 96.541016 C 64.25822 79.073893 78.474021 65 96 65 C 103.14373 65 109.72362 67.352859 115.0293 71.330078 L 115.59961 70.759766 C 110.19961 66.519776 103.4 64 96 64 z M 121.24023 76.400391 L 76.400391 121.24023 C 76.5878 121.38739 76.779955 121.52695 76.970703 121.66992 L 121.24023 77.400391 C 125.3764 82.668168 127.86835 89.269325 127.98828 96.458984 C 127.99045 96.305481 128 96.154021 128 96 C 128 88.6 125.48022 81.800401 121.24023 76.400391 z M 56.013672 96.5 C 56.011609 96.66727 56 96.832243 56 97 C 56 119.08 73.92 137 96 137 C 118.07999 137 136 119.08 136 97 C 136 96.832243 135.98839 96.66727 135.98633 96.5 C 135.71688 118.34872 117.91224 136 96 136 C 74.087757 136 56.283115 118.34872 56.013672 96.5 z "
         style="display:inline;fill:#000000;opacity:0.2" />
      <path
         id="path8542"
         transform="translate(0,860.36216)"
         d="M 96 56 C 73.92 56 56 73.92 56 96 C 56 96.167757 56.011609 96.33273 56.013672 96.5 C 56.283115 74.651277 74.087757 57 96 57 C 117.91224 57 135.71688 74.651277 135.98633 96.5 C 135.98839 96.33273 136 96.167757 136 96 C 136 73.92 118.07999 56 96 56 z M 115.0293 71.330078 L 70.759766 115.59961 C 66.623593 110.33185 64.131646 103.73067 64.011719 96.541016 C 64.009552 96.694519 64 96.845979 64 97 C 64 104.4 66.519766 111.19962 70.759766 116.59961 L 115.59961 71.759766 C 115.4126 71.612928 115.21963 71.472757 115.0293 71.330078 z M 127.98828 96.458984 C 127.74178 113.9261 113.52598 128 96 128 C 88.856819 128 82.276167 125.6466 76.970703 121.66992 L 76.400391 122.24023 C 81.800392 126.48023 88.599999 129 96 129 C 113.68 129 128 114.67999 128 97 C 128 96.818792 127.99129 96.639461 127.98828 96.458984 z "
         style="display:inline;fill:#ffffff;fill-opacity:1;opacity:0.2" />
    </g>
  </g>
  <g
     inkscape:groupmode="layer"
     id="layer3"
     inkscape:label="finish"
     style="display:inline"
     sodipodi:insensitive="true">
    <path
       style="opacity:0.2;fill:#000000"
       d="m 11.583984,67.630859 -0.07422,0.931641 3.376953,3.121094 c 1.857012,1.716244 5.1719,4.737825 7.367187,6.714844 4.524221,4.074393 6.258468,6.157046 6.826172,8.201171 0.214002,0.770558 0.387727,5.018059 0.392578,9.476563 -3.32e-4,-0.308266 0.002,-0.534338 0.002,-0.861328 -0.0012,-4.510136 -0.178253,-8.836483 -0.394531,-9.615235 -0.567704,-2.044125 -2.301951,-4.126778 -6.826172,-8.201171 -2.195287,-1.977019 -5.510175,-4.9986 -7.367187,-6.714844 l -3.302735,-3.052735 z m 168.453126,0 -3.30273,3.052735 c -1.857,1.716244 -5.1719,4.737826 -7.36719,6.714844 -4.6199,4.160566 -6.27454,6.176867 -6.86328,8.363281 -0.21394,0.794482 -0.31756,3.257921 -0.31055,6.902343 0.0133,-3.090171 0.11667,-5.182368 0.31055,-5.902343 0.58874,-2.186414 2.24338,-4.202715 6.86328,-8.363281 2.19529,-1.977018 5.51019,-4.9986 7.36719,-6.714844 l 3.37695,-3.121094 -0.0742,-0.931641 z m 0.30078,57.521481 c -0.0493,0.34678 -0.13748,0.7089 -0.25977,1.11133 -0.23822,0.78403 -3.85711,7.15613 -8.04101,14.16016 -6.11054,10.22932 -7.848,12.86602 -8.83789,13.40039 -0.67778,0.36588 -1.49168,0.66601 -1.8086,0.66601 -0.31693,0 -4.68146,-1.39359 -9.69921,-3.0957 -10.75974,-3.9698 -12.20264,-4.41639 -21.66797,0.81445 -11.49526,5.84278 -11.42352,8.81827 -13.64649,19.36329 -1.8415,8.78051 -2.12205,9.74995 -3.05078,10.54882 L 112.30469,183 95.884766,182.98828 c -10.370799,-0.007 -16.662852,-0.15339 -17.080078,-0.39648 -0.363316,-0.21167 -0.833214,-0.70572 -1.042969,-1.09766 -0.20976,-0.39194 -1.318881,-5.18879 -2.464844,-10.66016 -2.118082,-10.11272 -2.564687,-11.39687 -4.644531,-13.36914 -0.938857,-0.89029 -9.693637,-6.01797 -14.566406,-8.53125 -3.181787,-1.64112 -5.346371,-1.34837 -15.775391,2.13477 -5.008002,1.6726 -9.655392,3.04101 -10.328125,3.04102 -0.736941,0 -1.596637,-0.34015 -2.16211,-0.85547 -0.734566,-0.66941 -13.835903,-22.26807 -15.779296,-26.01368 -0.225397,-0.43442 -0.351435,-1.05425 -0.394532,-1.7207 -0.06293,1.0213 0.05821,2.07249 0.394532,2.7207 1.943393,3.74561 15.04473,25.34427 15.779296,26.01368 0.565473,0.51532 1.425169,0.85547 2.16211,0.85547 0.672733,-10e-6 5.320123,-1.36842 10.328125,-3.04102 10.42902,-3.48314 12.593604,-3.77589 15.775391,-2.13477 4.872769,2.51328 13.627549,7.64096 14.566406,8.53125 2.079844,1.97227 2.526449,3.25642 4.644531,13.36914 1.145963,5.47137 2.255084,10.26822 2.464844,10.66016 0.209755,0.39194 0.679653,0.88599 1.042969,1.09766 0.417226,0.24309 6.709279,0.38948 17.080078,0.39648 L 112.30469,184 l 1.02148,-0.87891 c 0.92873,-0.79887 1.20928,-1.76831 3.05078,-10.54882 2.22297,-10.54502 2.15123,-13.52051 13.64649,-19.36329 9.46533,-5.23084 10.90823,-4.78425 21.66797,-0.81445 5.01775,1.70211 9.38228,3.0957 9.69921,3.0957 0.31692,0 1.13082,-0.30013 1.8086,-0.66601 0.98989,-0.53437 2.72735,-3.17107 8.83789,-13.40039 4.1839,-7.00403 7.80279,-13.37613 8.04101,-14.16016 0.24336,-0.80089 0.36055,-1.45038 0.25977,-2.11133 z"
       id="path5446"
       inkscape:connector-curvature="0" />
    <path
       style="opacity:0.2;fill:#ffffff"
       d="M 95.810547,8 C 87.975826,8 80.141561,8.1191668 79.509766,8.359375 78.984403,8.5591181 78.297335,9.1170365 77.982422,9.5976562 77.667506,10.078278 76.469966,14.980753 75.322266,20.492188 c -2.268647,10.894391 -2.737132,12.091228 -5.470704,13.974609 -0.775933,0.534605 -4.490556,2.70868 -8.253906,4.832031 l -6.841797,3.861328 -2.851562,-0.0078 C 49.350187,43.145954 48.07868,42.817052 39.6875,39.998047 29.822274,36.683843 29.092786,36.571824 27.667969,38.154297 27.260344,38.607025 23.537887,44.623962 19.396484,51.523438 12.279388,63.380344 11.856007,64.189635 11.6875,66.314453 l -0.177734,2.248047 0.07422,0.06836 0.103516,-1.316406 c 0.168507,-2.124818 0.591888,-2.934109 7.708984,-14.791015 4.141403,-6.899476 7.86386,-12.916413 8.271485,-13.369141 1.424817,-1.582473 2.154305,-1.470454 12.019531,1.84375 8.39118,2.819005 9.662687,3.147907 12.216797,3.154297 l 2.851562,0.0078 6.841797,-3.861328 c 3.76335,-2.123351 7.477973,-4.297426 8.253906,-4.832031 2.733572,-1.883381 3.202057,-3.080218 5.470704,-13.974609 1.1477,-5.511435 2.34524,-10.413911 2.660156,-10.894532 0.314913,-0.48062 1.001981,-1.0385379 1.527344,-1.238281 1.26359,-0.4804163 31.337982,-0.4804163 32.601562,0 0.52537,0.1997431 1.21437,0.757661 1.52929,1.238281 0.31491,0.480621 1.51051,5.383097 2.65821,10.894532 2.26864,10.894391 2.73712,12.091228 5.4707,13.974609 0.77594,0.534605 4.49055,2.70868 8.25391,4.832031 l 6.84179,3.861328 2.85157,-0.0078 c 2.55411,-0.0064 3.82561,-0.335292 12.21679,-3.154297 9.86523,-3.314204 10.59473,-3.426223 12.01953,-1.84375 0.40764,0.452728 4.13009,6.469665 8.27149,13.369141 7.1171,11.856906 7.54047,12.666197 7.70898,14.791015 l 0.10352,1.316406 0.0742,-0.06836 -0.17774,-2.248047 c -0.16851,-2.124818 -0.59188,-2.934109 -7.70898,-14.791015 -4.1414,-6.899476 -7.86385,-12.916413 -8.27149,-13.369141 -1.4248,-1.582473 -2.1543,-1.470454 -12.01953,1.84375 -8.39118,2.819005 -9.66268,3.147897 -12.21679,3.154297 l -2.85157,0.0078 -6.84179,-3.861328 c -3.76336,-2.123351 -7.47797,-4.297426 -8.25391,-4.832031 -2.73358,-1.883381 -3.20206,-3.080217 -5.4707,-13.974609 -1.1477,-5.511435 -2.3433,-10.41391 -2.65821,-10.8945318 C 113.3257,9.1170366 112.6367,8.5591181 112.11133,8.359375 111.47954,8.1191668 103.64527,8 95.810547,8 Z m 66.382813,85.664062 c -0.005,1.213185 -9.6e-4,2.543712 0.0234,4.060547 0.15079,9.376411 0.2787,9.952151 2.83593,12.783201 0.80435,0.89048 4.40955,4.25036 8.00977,7.4668 5.23617,4.67802 7.01416,6.46453 7.27539,8.17773 0.30282,-2.13216 -1.03419,-3.60181 -7.27539,-9.17773 -3.60022,-3.21644 -7.20542,-6.57632 -8.00977,-7.4668 -2.55723,-2.83105 -2.68514,-3.40679 -2.83593,-12.783201 -0.018,-1.117004 -0.0216,-2.105724 -0.0234,-3.060547 z m -132.720704,3.41211 c 0.0116,10.758528 0.0327,10.496268 -10.02539,19.326168 -3.57834,3.14138 -6.805141,6.1648 -7.169922,6.71875 -0.491308,0.74609 -0.711068,2.15808 -0.63086,3.39844 0.05774,-0.93705 0.269462,-1.84963 0.63086,-2.39844 0.364781,-0.55395 3.591582,-3.57737 7.169922,-6.71875 10.346287,-9.08291 10.030378,-8.44848 10.027343,-20.187496 -1.2e-5,-0.04746 -0.0019,-0.09126 -0.002,-0.138672 z"
       id="path5456"
       inkscape:connector-curvature="0" />
    <path
       sodipodi:nodetypes="csssssssssscssscssssccssssssssssccsssscssssssssssccccccc"
       style="opacity:0.1;fill:url(#radialGradient5469);fill-opacity:1"
       d="m 78.804227,183.59202 c -0.363316,-0.21167 -0.832195,-0.70552 -1.04195,-1.09746 -0.20976,-0.39194 -1.318983,-5.18918 -2.464946,-10.66055 -2.118082,-10.11272 -2.564225,-11.3971 -4.644069,-13.36937 -0.938857,-0.89029 -9.694076,-6.01782 -14.566846,-8.5311 -3.181787,-1.64112 -5.346641,-1.34814 -15.775661,2.135 -5.008002,1.6726 -9.655878,3.04109 -10.328611,3.04109 -0.736941,0 -1.596237,-0.33999 -2.161709,-0.85531 -0.734566,-0.66941 -13.83578,-22.26874 -15.779173,-26.01435 -0.644896,-1.24295 -0.518853,-3.97166 0.236434,-5.11862 0.364781,-0.55395 3.590971,-3.5774 7.169311,-6.71878 10.346287,-9.08291 10.030776,-8.44775 10.027741,-20.186764 -0.0012,-4.510136 -0.179076,-8.837408 -0.395354,-9.61616 -0.567704,-2.044125 -2.300898,-4.126752 -6.825119,-8.201145 -2.195287,-1.977018 -5.510805,-4.998775 -7.367817,-6.715019 l -3.376386,-3.120442 0.178281,-2.248038 c 0.168507,-2.124818 0.591008,-2.935634 7.708104,-14.79254 4.141403,-6.899476 7.863335,-12.914918 8.27096,-13.367646 1.424817,-1.582473 2.154605,-1.470535 12.019831,1.843669 8.39118,2.819005 9.663557,3.147453 12.217667,3.153843 l 2.851024,0.0071 6.842455,-3.860638 c 3.76335,-2.123351 7.477314,-4.298041 8.253248,-4.832646 2.733572,-1.883381 3.202063,-3.0801 5.47071,-13.974492 1.1477,-5.511434 2.344385,-10.414026 2.659301,-10.8946473 0.314913,-0.4806197 1.002416,-1.0372816 1.527779,-1.2370247 1.26359,-0.4804163 31.338888,-0.4804163 32.602468,0 0.52537,0.1997431 1.21287,0.756405 1.52779,1.2370247 0.31491,0.4806213 1.5116,5.3832133 2.6593,10.8946473 2.26864,10.894392 2.73713,12.091111 5.47071,13.974492 0.77594,0.534605 4.48989,2.709295 8.25325,4.832646 l 6.84245,3.860638 2.85103,-0.0071 c 2.55411,-0.0064 3.82648,-0.334838 12.21766,-3.153843 9.86523,-3.314204 10.59502,-3.426142 12.01983,-1.843669 0.40763,0.452728 4.12956,6.46817 8.27096,13.367646 7.1171,11.856906 7.53959,12.667722 7.7081,14.79254 l 0.17829,2.248038 -3.3764,3.120442 c -1.857,1.716244 -5.17252,4.738001 -7.36781,6.715019 -4.6199,4.160566 -6.27426,6.176476 -6.863,8.36289 -0.26999,1.002633 -0.37287,4.582143 -0.28634,9.962597 0.15079,9.376412 0.27864,9.952762 2.83587,12.783812 0.80435,0.89048 4.40807,4.25069 8.00829,7.46713 7.25626,6.48278 7.89047,7.41287 7.01633,10.28971 -0.23823,0.78403 -3.85632,7.15606 -8.04022,14.16009 -6.11054,10.22932 -7.8495,12.86543 -8.83939,13.3998 -0.67778,0.36588 -1.49164,0.66524 -1.80856,0.66524 -0.31694,0 -4.68166,-1.39264 -9.69941,-3.09475 -10.75974,-3.9698 -12.20235,-4.41689 -21.66768,0.81395 -11.49526,5.84278 -11.42248,8.81755 -13.64545,19.36257 -1.8415,8.78051 -2.12185,9.74992 -3.05058,10.54879 L 112.30421,184 95.884508,183.9885 c -10.370799,-0.007 -16.663055,-0.15334 -17.080281,-0.39643 z"
       id="path5461"
       inkscape:connector-curvature="0" />
  </g>
</svg>
