<?xml version="1.0" encoding="UTF-8" standalone="no"?>
<!-- Created with Inkscape (http://www.inkscape.org/) -->

<svg
   xmlns:dc="http://purl.org/dc/elements/1.1/"
   xmlns:cc="http://creativecommons.org/ns#"
   xmlns:rdf="http://www.w3.org/1999/02/22-rdf-syntax-ns#"
   xmlns:svg="http://www.w3.org/2000/svg"
   xmlns="http://www.w3.org/2000/svg"
   xmlns:xlink="http://www.w3.org/1999/xlink"
   xmlns:sodipodi="http://sodipodi.sourceforge.net/DTD/sodipodi-0.dtd"
   xmlns:inkscape="http://www.inkscape.org/namespaces/inkscape"
   width="192"
   height="192"
   id="svg2"
   version="1.1"
   inkscape:version="0.91 r13725"
   sodipodi:docname="app_ops.svg"
   inkscape:export-filename="C:\Users\Simon\Documents\Material Design Icons\PNG\app_ops.png"
   inkscape:export-xdpi="90"
   inkscape:export-ydpi="90">
  <sodipodi:namedview
     id="base"
     pagecolor="#ffffff"
     bordercolor="#666666"
     borderopacity="1.0"
     inkscape:pageopacity="0.0"
     inkscape:pageshadow="2"
     inkscape:zoom="0.57638889"
     inkscape:cx="538.11843"
     inkscape:cy="237.77141"
     inkscape:document-units="px"
     inkscape:current-layer="layer3"
     showgrid="false"
     showguides="false"
     inkscape:guide-bbox="true"
     inkscape:window-width="1920"
     inkscape:window-height="1017"
     inkscape:window-x="-8"
     inkscape:window-y="-8"
     inkscape:window-maximized="1"
     inkscape:snap-global="false">
    <inkscape:grid
       snapvisiblegridlinesonly="true"
       enabled="true"
       visible="true"
       empspacing="5"
       id="grid2985"
       type="xygrid" />
    <sodipodi:guide
       id="guide3002"
       position="8,58.524064"
       orientation="1,0" />
    <sodipodi:guide
       id="guide3004"
       position="20,69.304813"
       orientation="1,0" />
    <sodipodi:guide
       id="guide3006"
       position="32,62.631016"
       orientation="1,0" />
    <sodipodi:guide
       id="guide3008"
       position="68,53.390374"
       orientation="1,0" />
    <sodipodi:guide
       id="guide3010"
       position="119.61497,8"
       orientation="0,1" />
    <sodipodi:guide
       id="guide3012"
       position="155.5508,20"
       orientation="0,1" />
    <sodipodi:guide
       id="guide3014"
       position="132.96257,32"
       orientation="0,1" />
    <sodipodi:guide
       id="guide3016"
       position="130.90909,68"
       orientation="0,1" />
    <sodipodi:guide
       id="guide3018"
       position="137.06952,184"
       orientation="0,1" />
    <sodipodi:guide
       id="guide3020"
       position="184,145.79679"
       orientation="1,0" />
    <sodipodi:guide
       id="guide3022"
       position="72.030612,172.72262"
       orientation="0,1" />
    <sodipodi:guide
       id="guide3024"
       position="172,101.64706"
       orientation="1,0" />
    <sodipodi:guide
       id="guide3026"
       position="149.39037,160"
       orientation="0,1" />
    <sodipodi:guide
       id="guide3028"
       position="160,88.299465"
       orientation="1,0" />
    <sodipodi:guide
       id="guide3030"
       position="128.34225,124"
       orientation="0,1" />
    <sodipodi:guide
       id="guide3032"
       position="124,92.919786"
       orientation="1,0" />
  </sodipodi:namedview>
  <defs
     id="defs4">
    <linearGradient
       inkscape:collect="always"
       id="linearGradient8610">
      <stop
         style="stop-color:#000000;stop-opacity:1;"
         offset="0"
         id="stop8612" />
      <stop
         style="stop-color:#000000;stop-opacity:0;"
         offset="1"
         id="stop8614" />
    </linearGradient>
    <linearGradient
       id="linearGradient5221"
       inkscape:collect="always">
      <stop
         id="stop5223"
         offset="0"
         style="stop-color:#ffffff;stop-opacity:1;" />
      <stop
         id="stop5225"
         offset="1"
         style="stop-color:#ffffff;stop-opacity:0;" />
    </linearGradient>
    <filter
       id="filter4284"
       inkscape:label="z-depth1"
       style="color-interpolation-filters:sRGB">
      <feFlood
         id="feFlood4286"
         result="flood"
         flood-color="rgb(96,125,139)"
         flood-opacity="0.01" />
      <feComposite
         id="feComposite4288"
         result="composite1"
         operator="in"
         in2="SourceGraphic"
         in="flood" />
      <feGaussianBlur
         id="feGaussianBlur4290"
         result="blur"
         stdDeviation="10" />
      <feOffset
         id="feOffset4292"
         result="offset"
         dy="1"
         dx="0" />
      <feComposite
         id="feComposite4294"
         result="fbSourceGraphic"
         operator="over"
         in2="offset"
         in="SourceGraphic" />
      <feColorMatrix
         id="feColorMatrix4332"
         values="0 0 0 -1 0 0 0 0 -1 0 0 0 0 -1 0 0 0 0 1 0"
         in="fbSourceGraphic"
         result="fbSourceGraphicAlpha" />
      <feFlood
         in="fbSourceGraphic"
         result="flood"
         flood-color="rgb(0,0,0)"
         flood-opacity="0.089999999999999997"
         id="feFlood4334" />
      <feComposite
         result="composite1"
         operator="in"
         in="flood"
         in2="fbSourceGraphic"
         id="feComposite4336" />
      <feGaussianBlur
         result="blur"
         stdDeviation="5"
         id="feGaussianBlur4338" />
      <feOffset
         result="offset"
         dy="1"
         dx="0"
         id="feOffset4340" />
      <feComposite
         result="composite2"
         operator="over"
         in="fbSourceGraphic"
         in2="offset"
         id="feComposite4342" />
    </filter>
    <filter
       id="filter5207"
       inkscape:label="Drop Shadow"
       style="color-interpolation-filters:sRGB;">
      <feFlood
         id="feFlood5209"
         result="flood"
         flood-color="rgb(0,0,0)"
         flood-opacity="0.29999999999999999" />
      <feComposite
         id="feComposite5211"
         result="composite1"
         operator="in"
         in2="SourceGraphic"
         in="flood" />
      <feGaussianBlur
         id="feGaussianBlur5213"
         result="blur"
         stdDeviation="3"
         in="composite1" />
      <feOffset
         id="feOffset5215"
         result="offset"
         dy="3"
         dx="4.57967e-015" />
      <feComposite
         id="feComposite5217"
         result="composite2"
         operator="over"
         in2="offset"
         in="SourceGraphic" />
    </filter>
    <radialGradient
       gradientUnits="userSpaceOnUse"
       gradientTransform="matrix(-0.00327185,2.0956032,-2.089758,-0.00326272,32.592422,-9.2890947)"
       r="83.98526"
       fy="11.661161"
       fx="8.1965981"
       cy="11.661161"
       cx="8.1965981"
       id="radialGradient5229"
       xlink:href="#linearGradient5221"
       inkscape:collect="always" />
    <filter
       height="1.4800000000000002"
       width="1.5200000000000002"
       x="-0.25000000000000011"
       id="filter4182"
       inkscape:label="Drop Shadow"
       style="color-interpolation-filters:sRGB;">
      <feFlood
         id="feFlood4184"
         result="flood"
         flood-color="rgb(0,0,0)"
         flood-opacity="0.20000000000000001" />
      <feComposite
         id="feComposite4186"
         result="composite1"
         operator="in"
         in2="SourceGraphic"
         in="flood" />
      <feGaussianBlur
         id="feGaussianBlur4188"
         result="blur"
         stdDeviation="6"
         in="composite1" />
      <feOffset
         id="feOffset4190"
         result="offset"
         dy="6"
         dx="4.57967e-015" />
      <feComposite
         id="feComposite4192"
         result="composite2"
         operator="over"
         in2="offset"
         in="SourceGraphic" />
    </filter>
    <clipPath
       id="clipPath4193"
       clipPathUnits="userSpaceOnUse">
      <path
         style="display:inline;opacity:0.1;fill:url(#radialGradient4197);fill-opacity:1;fill-rule:evenodd;stroke:none;stroke-width:1px;stroke-linecap:butt;stroke-linejoin:miter;stroke-opacity:1"
         d="m 81.505842,8.3407984 28.897098,0 c 0,0 1.94913,0.1066516 2.687,0.6599663 0.82801,0.6209027 1.55564,2.6870053 1.55564,2.6870053 l 3.77124,18.526198 c 0,0 0.7206,1.904183 1.74419,2.969849 0.62578,0.651501 2.07418,1.744196 2.07418,1.744196 l 12.30366,7.165349 c 0,0 1.17936,0.711296 3.53553,1.225652 2.64114,0.576565 4.33693,0 4.33693,0 l 16.16917,-5.421152 c 0,0 2.24924,-0.557551 3.34697,-0.329983 0.47523,0.09852 0.92307,0.169231 1.44066,0.498154 0.51759,0.328923 1.10493,0.916059 1.10493,0.916059 l 14.70782,25.455844 c 0,0 0.90051,1.907623 0.70711,2.875568 -0.34074,1.705382 -1.60278,2.734146 -1.60278,2.734146 L 164.4259,82.869853 c 0,0 -1.38461,1.657299 -1.79134,2.639866 -0.54456,1.31553 -0.80139,4.1955 -0.80139,4.1955 l 0,14.424981 c 0,0 0.41361,1.82428 0.84853,2.63986 0.5843,1.0957 2.30988,2.92271 2.30988,2.92271 l 12.82221,11.83225 c 0,0 1.38126,1.6164 1.74419,2.59273 0.77283,2.07905 -0.0943,3.25269 -0.0943,3.25269 l -15.65063,26.25723 c 0,0 -0.41688,0.85116 -2.40416,0.94281 -1.08125,0.0499 -3.20555,-0.51854 -3.20555,-0.51854 l -16.92342,-5.60972 c 0,0 -1.40598,-0.12299 -2.96985,0.11785 -1.47774,0.22757 -2.96985,0.8721 -2.96985,0.8721 l -12.8222,7.49533 c 0,0 -1.70156,1.55971 -2.35703,2.49845 -1.20191,1.72134 -1.9799,3.77123 -1.9799,3.77123 l -3.25269,16.5463 c 0,0 -0.28922,0.62411 -0.45776,0.9235 -0.27759,0.4931 -0.60827,1.09351 -0.90931,1.43353 -0.58747,0.66355 -1.30403,1.26004 -2.12132,1.60277 -0.19776,0.0829 -0.6364,0.0943 -0.6364,0.0943 l -30.617721,0.0943 c 0,0 -1.013771,-0.11799 -1.979899,-1.17851 -1.10084,-1.20839 -1.08423,-2.02704 -1.08423,-2.02704 l -3.865517,-18.71476 c 0,0 -1.123813,-2.54976 -2.02704,-3.58267 -0.804753,-0.92029 -2.922708,-2.2156 -2.922708,-2.2156 l -11.926534,-6.88251 c 0,0 -2.001019,-0.8494 -3.06413,-0.89567 -1.921142,-0.0836 -5.656854,1.13137 -5.656854,1.13137 l -14.849242,4.66691 c 0,0 -1.134516,0.35448 -1.791337,0.28286 -0.47746,-0.0521 -1.254723,-0.11493 -1.84302,-0.32189 -0.404556,-0.14232 -1.126829,-0.62092 -1.126829,-0.62092 L 12.303638,127.22904 c 0,0 -0.479816,-1.67187 -0.329983,-2.49845 0.190583,-1.05138 1.508494,-2.82842 1.508494,-2.82842 L 27.0586,109.64565 c 0,0 1.274328,-1.43441 1.744196,-2.26274 0.549966,-0.96954 1.225652,-3.11127 1.225652,-3.11127 l 0,-15.839193 c 0,0 -0.226127,-1.684551 -0.565685,-2.451304 C 28.905016,84.721698 27.10574,82.587031 27.10574,82.587031 L 13.670711,69.859108 C 12.940136,69.129255 12.727605,68.96207 12.162216,67.313524 11.89979,65.830914 12.19246,65.513494 12.4922,64.532237 L 27.341442,38.557848 c 0,0 0.747061,-1.146088 2.262742,-1.319932 1.353495,-0.155242 4.054079,0.518545 4.054079,0.518545 l 13.623591,4.431202 c 0,0 3.358833,1.013879 5.374011,1.084231 1.149893,0.04014 2.309882,-0.329984 2.309882,-0.329984 l 15.744911,-9.38095 c 0,0 1.788037,-0.818709 2.404164,-2.922707 0.349564,-1.19372 0.801387,-3.629816 0.801387,-3.629816 l 3.016989,-15.226366 c 0,0 0.360577,-1.293549 0.848528,-1.8856177 0.402856,-0.4888166 0.655309,-0.808652 1.225652,-1.0842304 0.582848,-0.2816206 2.498464,-0.4714245 2.498464,-0.4714245 z"
         id="path4195"
         inkscape:connector-curvature="0"
         sodipodi:nodetypes="ccsccsccsccssccsccsccsccsccsccsccsccassccsccsccsccsaccsccsccscccccsccsccsccssc" />
    </clipPath>
    <radialGradient
       r="83.98526"
       fy="11.661161"
       fx="8.1965981"
       cy="11.661161"
       cx="8.1965981"
       gradientTransform="matrix(-0.00327185,2.0956032,-2.089758,-0.00326272,32.592422,-9.2890947)"
       gradientUnits="userSpaceOnUse"
       id="radialGradient4197"
       xlink:href="#linearGradient5221"
       inkscape:collect="always" />
    <clipPath
       id="clipPath4200"
       clipPathUnits="userSpaceOnUse">
      <path
         inkscape:export-ydpi="90"
         inkscape:export-xdpi="90"
         inkscape:connector-curvature="0"
         style="opacity:1;fill:#fdd95f;fill-opacity:1;fill-rule:nonzero;stroke:none;stroke-width:1px;stroke-linecap:butt;stroke-linejoin:miter;stroke-opacity:1"
         d="m 42.262488,60.911575 0.118564,35.122997 16.212088,-0.04617 0,-15.375345 9.584198,-0.02409 0.02333,44.463835 -7.004959,0.14655 0.118564,19.67538 48.397191,0 0,-19.31002 -7.69108,-0.12245 0.21381,-44.807123 9.72608,-0.04617 0.16328,15.399435 16.284,-0.122456 -0.11662,-34.586999 -86.02844,-0.36737 z m 85.672752,41.187615 a 7.0999317,4.7664992 0 0 0 -7.10021,4.76578 7.0999317,4.7664992 0 0 0 7.10021,4.76778 7.0999317,4.7664992 0 0 0 7.10019,-4.76778 7.0999317,4.7664992 0 0 0 -7.10019,-4.76578 z m -9.70276,15.7668 0.0194,8.18855 2.77555,-0.012 0.0447,11.25598 -2.76582,0.0341 0.0447,8.39933 20.976,-0.0321 0,-8.58804 -3.10791,-0.0341 -0.0875,-19.14742 -17.89918,-0.0642 z"
         id="path4202" />
    </clipPath>
    <clipPath
       id="clipPath4204"
       clipPathUnits="userSpaceOnUse">
      <path
         inkscape:export-ydpi="90"
         inkscape:export-xdpi="90"
         inkscape:connector-curvature="0"
         style="opacity:1;fill:#fdd95f;fill-opacity:1;fill-rule:nonzero;stroke:none;stroke-width:1px;stroke-linecap:butt;stroke-linejoin:miter;stroke-opacity:1"
         d="m 52.943503,60.192459 0.103799,29.771773 14.193322,-0.03914 0,-13.032808 8.390753,-0.02042 0.02042,37.689473 -6.132687,0.12422 0.1038,16.6777 42.370668,0 0,-16.368 -6.73337,-0.1038 0.18718,-37.980456 8.51497,-0.03914 0.14294,13.053228 14.25629,-0.103799 -0.10211,-29.317437 -75.315976,-0.311399 z m 75.004587,34.912406 a 6.2158321,4.0402909 0 0 0 -6.21607,4.039678 6.2158321,4.0402909 0 0 0 6.21607,4.041377 6.2158321,4.0402909 0 0 0 6.21606,-4.041377 6.2158321,4.0402909 0 0 0 -6.21606,-4.039678 z m -8.49455,13.364625 0.017,6.94096 2.42993,-0.0102 0.0391,9.54105 -2.42142,0.0289 0.0391,7.11963 18.36402,-0.0272 0,-7.27958 -2.7209,-0.0289 -0.0766,-16.23018 -15.67034,-0.0545 z"
         id="path4206" />
    </clipPath>
    <linearGradient
       inkscape:collect="always"
       xlink:href="#linearGradient8610"
       id="linearGradient8616"
       x1="54.879162"
       y1="54.914539"
       x2="145.44507"
       y2="144.94492"
       gradientUnits="userSpaceOnUse"
       gradientTransform="matrix(1.134996,0,0,1.134996,-12.946504,-12.534783)" />
    <clipPath
       clipPathUnits="userSpaceOnUse"
       id="clipPath8626">
      <path
         sodipodi:nodetypes="ccsccsccsccssccsccsccsccsccsccsccsccassccsccsccsccsaccsccsccscccccsccsccsccssc"
         inkscape:connector-curvature="0"
         id="path8628"
         d="m 81.505842,9.7074651 28.897098,0 c 0,0 1.94913,0.1058213 2.687,0.6548289 0.82801,0.616069 1.55564,2.666086 1.55564,2.666086 l 3.77124,18.381972 c 0,0 0.7206,1.889359 1.74419,2.946729 0.62578,0.646429 2.07418,1.730617 2.07418,1.730617 l 12.30366,7.109567 c 0,0 1.17936,0.705758 3.53553,1.21611 2.64114,0.572076 4.33693,0 4.33693,0 l 16.16917,-5.378948 c 0,0 2.24924,-0.553211 3.34697,-0.327414 0.47523,0.09775 0.92307,0.167913 1.44066,0.494275 0.51759,0.326363 1.10493,0.908928 1.10493,0.908928 l 14.70782,25.25767 c 0,0 0.90051,1.892772 0.70711,2.853182 -0.34074,1.692105 -1.60278,2.71286 -1.60278,2.71286 L 164.4259,83.65631 c 0,0 -1.38461,1.644397 -1.79134,2.619315 -0.54456,1.305289 -0.80139,4.162838 -0.80139,4.162838 l 0,14.312687 c 0,0 0.41361,1.81007 0.84853,2.6193 0.5843,1.08717 2.30988,2.89996 2.30988,2.89996 l 12.82221,11.74014 c 0,0 1.38126,1.60381 1.74419,2.57254 0.77283,2.06287 -0.0943,3.22737 -0.0943,3.22737 l -15.65063,26.05282 c 0,0 -0.41688,0.84453 -2.40416,0.93547 -1.08125,0.0495 -3.20555,-0.51451 -3.20555,-0.51451 l -16.92342,-5.56604 c 0,0 -1.40598,-0.12204 -2.96985,0.11693 -1.47774,0.2258 -2.96985,0.86531 -2.96985,0.86531 l -12.8222,7.43698 c 0,0 -1.70156,1.54757 -2.35703,2.479 -1.20191,1.70794 -1.9799,3.74187 -1.9799,3.74187 l -3.25269,16.41749 c 0,0 -0.28922,0.61925 -0.45776,0.91631 -0.27759,0.48926 -0.60827,1.08499 -0.90931,1.42237 -0.58747,0.65838 -1.30403,1.25023 -2.12132,1.59029 -0.19776,0.0823 -0.6364,0.0936 -0.6364,0.0936 l -30.617721,0.0936 c 0,0 -1.013771,-0.11707 -1.979899,-1.16934 -1.10084,-1.19898 -1.08423,-2.01125 -1.08423,-2.01125 l -3.865517,-18.56907 c 0,0 -1.123813,-2.52991 -2.02704,-3.55478 -0.804753,-0.91312 -2.922708,-2.19835 -2.922708,-2.19835 l -11.926534,-6.82893 c 0,0 -2.001019,-0.84279 -3.06413,-0.8887 -1.921142,-0.0829 -5.656854,1.12256 -5.656854,1.12256 l -14.849242,4.63058 c 0,0 -1.134516,0.35172 -1.791337,0.28066 -0.47746,-0.0517 -1.254723,-0.11403 -1.84302,-0.31938 -0.404556,-0.14122 -1.126829,-0.61609 -1.126829,-0.61609 l -15.744911,-26.0997 c 0,0 -0.479816,-1.65885 -0.329983,-2.479 0.190583,-1.04319 1.508494,-2.8064 1.508494,-2.8064 L 27.0586,110.22366 c 0,0 1.274328,-1.42325 1.744196,-2.24513 0.549966,-0.96199 1.225652,-3.08705 1.225652,-3.08705 l 0,-15.71588 c 0,0 -0.226127,-1.671437 -0.565685,-2.432221 C 28.905016,85.493739 27.10574,83.37569 27.10574,83.37569 L 13.670711,70.746854 C 12.940136,70.022683 12.727605,69.8568 12.162216,68.221088 11.89979,66.75002 12.19246,66.435071 12.4922,65.461453 L 27.341442,39.689275 c 0,0 0.747061,-1.137166 2.262742,-1.309657 1.353495,-0.154033 4.054079,0.514508 4.054079,0.514508 l 13.623591,4.396706 c 0,0 3.358833,1.005985 5.374011,1.07579 1.149893,0.03983 2.309882,-0.327415 2.309882,-0.327415 l 15.744911,-9.307919 c 0,0 1.788037,-0.812336 2.404164,-2.899954 0.349564,-1.184427 0.801387,-3.601558 0.801387,-3.601558 l 3.016989,-15.107829 c 0,0 0.360577,-1.283478 0.848528,-1.870938 0.402856,-0.485011 0.655309,-0.802356 1.225652,-1.075789 0.582848,-0.2794286 2.498464,-0.4677549 2.498464,-0.4677549 z"
         style="opacity:0.2;fill:#000000;fill-opacity:1;fill-rule:evenodd;stroke:none;stroke-width:1px;stroke-linecap:butt;stroke-linejoin:miter;stroke-opacity:1" />
    </clipPath>
    <radialGradient
       inkscape:collect="always"
       xlink:href="#linearGradient5221"
       id="radialGradient4240"
       gradientUnits="userSpaceOnUse"
       gradientTransform="matrix(-0.00327185,2.0956032,-2.089758,-0.00326272,32.592422,-9.2890947)"
       cx="8.1965981"
       cy="11.661161"
       fx="8.1965981"
       fy="11.661161"
       r="83.98526" />
  </defs>
  <metadata
     id="metadata7">
    <rdf:RDF>
      <cc:Work
         rdf:about="">
        <dc:format>image/svg+xml</dc:format>
        <dc:type
           rdf:resource="http://purl.org/dc/dcmitype/StillImage" />
        <dc:title />
      </cc:Work>
    </rdf:RDF>
  </metadata>
  <g
     style="display:inline"
     inkscape:label="circle"
     id="layer3"
     inkscape:groupmode="layer">
    <path
       sodipodi:nodetypes="ccsccsccsccssccsccsccsccsccsccsccsccassccsccsccsccsaccsccsccscccccsccsccsccssc"
       inkscape:connector-curvature="0"
       id="path7050"
       d="m 81.505842,8.3407984 28.897098,0 c 0,0 1.94913,0.1066516 2.687,0.6599663 0.82801,0.6209027 1.55564,2.6870053 1.55564,2.6870053 l 3.77124,18.526198 c 0,0 0.7206,1.904183 1.74419,2.969849 0.62578,0.651501 2.07418,1.744196 2.07418,1.744196 l 12.30366,7.165349 c 0,0 1.17936,0.711296 3.53553,1.225652 2.64114,0.576565 4.33693,0 4.33693,0 l 16.16917,-5.421152 c 0,0 2.24924,-0.557551 3.34697,-0.329983 0.47523,0.09852 0.92307,0.169231 1.44066,0.498154 0.51759,0.328923 1.10493,0.916059 1.10493,0.916059 l 14.70782,25.455844 c 0,0 0.90051,1.907623 0.70711,2.875568 -0.34074,1.705382 -1.60278,2.734146 -1.60278,2.734146 L 164.4259,82.869853 c 0,0 -1.38461,1.657299 -1.79134,2.639866 -0.54456,1.31553 -0.80139,4.1955 -0.80139,4.1955 l 0,14.424981 c 0,0 0.41361,1.82428 0.84853,2.63986 0.5843,1.0957 2.30988,2.92271 2.30988,2.92271 l 12.82221,11.83225 c 0,0 1.38126,1.6164 1.74419,2.59273 0.77283,2.07905 -0.0943,3.25269 -0.0943,3.25269 l -15.65063,26.25723 c 0,0 -0.41688,0.85116 -2.40416,0.94281 -1.08125,0.0499 -3.20555,-0.51854 -3.20555,-0.51854 l -16.92342,-5.60972 c 0,0 -1.40598,-0.12299 -2.96985,0.11785 -1.47774,0.22757 -2.96985,0.8721 -2.96985,0.8721 l -12.8222,7.49533 c 0,0 -1.70156,1.55971 -2.35703,2.49845 -1.20191,1.72134 -1.9799,3.77123 -1.9799,3.77123 l -3.25269,16.5463 c 0,0 -0.28922,0.62411 -0.45776,0.9235 -0.27759,0.4931 -0.60827,1.09351 -0.90931,1.43353 -0.58747,0.66355 -1.30403,1.26004 -2.12132,1.60277 -0.19776,0.0829 -0.6364,0.0943 -0.6364,0.0943 l -30.617721,0.0943 c 0,0 -1.013771,-0.11799 -1.979899,-1.17851 -1.10084,-1.20839 -1.08423,-2.02704 -1.08423,-2.02704 l -3.865517,-18.71476 c 0,0 -1.123813,-2.54976 -2.02704,-3.58267 -0.804753,-0.92029 -2.922708,-2.2156 -2.922708,-2.2156 l -11.926534,-6.88251 c 0,0 -2.001019,-0.8494 -3.06413,-0.89567 -1.921142,-0.0836 -5.656854,1.13137 -5.656854,1.13137 l -14.849242,4.66691 c 0,0 -1.134516,0.35448 -1.791337,0.28286 -0.47746,-0.0521 -1.254723,-0.11493 -1.84302,-0.32189 -0.404556,-0.14232 -1.126829,-0.62092 -1.126829,-0.62092 L 12.303638,127.22904 c 0,0 -0.479816,-1.67187 -0.329983,-2.49845 0.190583,-1.05138 1.508494,-2.82842 1.508494,-2.82842 L 27.0586,109.64565 c 0,0 1.274328,-1.43441 1.744196,-2.26274 0.549966,-0.96954 1.225652,-3.11127 1.225652,-3.11127 l 0,-15.839193 c 0,0 -0.226127,-1.684551 -0.565685,-2.451304 C 28.905016,84.721698 27.10574,82.587031 27.10574,82.587031 L 13.670711,69.859108 C 12.940136,69.129255 12.727605,68.96207 12.162216,67.313524 11.89979,65.830914 12.19246,65.513494 12.4922,64.532237 L 27.341442,38.557848 c 0,0 0.747061,-1.146088 2.262742,-1.319932 1.353495,-0.155242 4.054079,0.518545 4.054079,0.518545 l 13.623591,4.431202 c 0,0 3.358833,1.013879 5.374011,1.084231 1.149893,0.04014 2.309882,-0.329984 2.309882,-0.329984 l 15.744911,-9.38095 c 0,0 1.788037,-0.818709 2.404164,-2.922707 0.349564,-1.19372 0.801387,-3.629816 0.801387,-3.629816 l 3.016989,-15.226366 c 0,0 0.360577,-1.293549 0.848528,-1.8856177 0.402856,-0.4888166 0.655309,-0.808652 1.225652,-1.0842304 0.582848,-0.2816206 2.498464,-0.4714245 2.498464,-0.4714245 z"
       style="opacity:1;fill:#9e9e9e;fill-opacity:1;fill-rule:evenodd;stroke:none;stroke-width:1px;stroke-linecap:butt;stroke-linejoin:miter;stroke-opacity:1;filter:url(#filter5207)" />
    <path
       style="opacity:0.2;fill:#000000;fill-opacity:1;fill-rule:evenodd;stroke:none;stroke-width:1px;stroke-linecap:butt;stroke-linejoin:miter;stroke-opacity:1"
       d="m 81.505842,9.7074651 28.897098,0 c 0,0 1.94913,0.1058213 2.687,0.6548289 0.82801,0.616069 1.55564,2.666086 1.55564,2.666086 l 3.77124,18.381972 c 0,0 0.7206,1.889359 1.74419,2.946729 0.62578,0.646429 2.07418,1.730617 2.07418,1.730617 l 12.30366,7.109567 c 0,0 1.17936,0.705758 3.53553,1.21611 2.64114,0.572076 4.33693,0 4.33693,0 l 16.16917,-5.378948 c 0,0 2.24924,-0.553211 3.34697,-0.327414 0.47523,0.09775 0.92307,0.167913 1.44066,0.494275 0.51759,0.326363 1.10493,0.908928 1.10493,0.908928 l 14.70782,25.25767 c 0,0 0.90051,1.892772 0.70711,2.853182 -0.34074,1.692105 -1.60278,2.71286 -1.60278,2.71286 L 164.4259,83.65631 c 0,0 -1.38461,1.644397 -1.79134,2.619315 -0.54456,1.305289 -0.80139,4.162838 -0.80139,4.162838 l 0,14.312687 c 0,0 0.41361,1.81007 0.84853,2.6193 0.5843,1.08717 2.30988,2.89996 2.30988,2.89996 l 12.82221,11.74014 c 0,0 1.38126,1.60381 1.74419,2.57254 0.77283,2.06287 -0.0943,3.22737 -0.0943,3.22737 l -15.65063,26.05282 c 0,0 -0.41688,0.84453 -2.40416,0.93547 -1.08125,0.0495 -3.20555,-0.51451 -3.20555,-0.51451 l -16.92342,-5.56604 c 0,0 -1.40598,-0.12204 -2.96985,0.11693 -1.47774,0.2258 -2.96985,0.86531 -2.96985,0.86531 l -12.8222,7.43698 c 0,0 -1.70156,1.54757 -2.35703,2.479 -1.20191,1.70794 -1.9799,3.74187 -1.9799,3.74187 l -3.25269,16.41749 c 0,0 -0.28922,0.61925 -0.45776,0.91631 -0.27759,0.48926 -0.60827,1.08499 -0.90931,1.42237 -0.58747,0.65838 -1.30403,1.25023 -2.12132,1.59029 -0.19776,0.0823 -0.6364,0.0936 -0.6364,0.0936 l -30.617721,0.0936 c 0,0 -1.013771,-0.11707 -1.979899,-1.16934 -1.10084,-1.19898 -1.08423,-2.01125 -1.08423,-2.01125 l -3.865517,-18.56907 c 0,0 -1.123813,-2.52991 -2.02704,-3.55478 -0.804753,-0.91312 -2.922708,-2.19835 -2.922708,-2.19835 l -11.926534,-6.82893 c 0,0 -2.001019,-0.84279 -3.06413,-0.8887 -1.921142,-0.0829 -5.656854,1.12256 -5.656854,1.12256 l -14.849242,4.63058 c 0,0 -1.134516,0.35172 -1.791337,0.28066 -0.47746,-0.0517 -1.254723,-0.11403 -1.84302,-0.31938 -0.404556,-0.14122 -1.126829,-0.61609 -1.126829,-0.61609 l -15.744911,-26.0997 c 0,0 -0.479816,-1.65885 -0.329983,-2.479 0.190583,-1.04319 1.508494,-2.8064 1.508494,-2.8064 L 27.0586,110.22366 c 0,0 1.274328,-1.42325 1.744196,-2.24513 0.549966,-0.96199 1.225652,-3.08705 1.225652,-3.08705 l 0,-15.71588 c 0,0 -0.226127,-1.671437 -0.565685,-2.432221 C 28.905016,85.493739 27.10574,83.37569 27.10574,83.37569 L 13.670711,70.746854 C 12.940136,70.022683 12.727605,69.8568 12.162216,68.221088 11.89979,66.75002 12.19246,66.435071 12.4922,65.461453 L 27.341442,39.689275 c 0,0 0.747061,-1.137166 2.262742,-1.309657 1.353495,-0.154033 4.054079,0.514508 4.054079,0.514508 l 13.623591,4.396706 c 0,0 3.358833,1.005985 5.374011,1.07579 1.149893,0.03983 2.309882,-0.327415 2.309882,-0.327415 l 15.744911,-9.307919 c 0,0 1.788037,-0.812336 2.404164,-2.899954 0.349564,-1.184427 0.801387,-3.601558 0.801387,-3.601558 l 3.016989,-15.107829 c 0,0 0.360577,-1.283478 0.848528,-1.870938 0.402856,-0.485011 0.655309,-0.802356 1.225652,-1.075789 0.582848,-0.2794286 2.498464,-0.4677549 2.498464,-0.4677549 z"
       id="path4791"
       inkscape:connector-curvature="0"
       sodipodi:nodetypes="ccsccsccsccssccsccsccsccsccsccsccsccassccsccsccsccsaccsccsccscccccsccsccsccssc" />
    <path
       style="opacity:0.1;fill:#ffffff;fill-opacity:1;fill-rule:evenodd;stroke:none;stroke-width:1px;stroke-linecap:butt;stroke-linejoin:miter;stroke-opacity:1"
       d="m 81.505842,8.3407984 28.897098,0 c 0,0 1.94913,0.1060441 2.687,0.6562069 0.82801,0.6173658 1.55564,2.6716987 1.55564,2.6716987 l 3.77124,18.420667 c 0,0 0.7206,1.893336 1.74419,2.952932 0.62578,0.647789 2.07418,1.73426 2.07418,1.73426 l 12.30366,7.124533 c 0,0 1.17936,0.707244 3.53553,1.21867 2.64114,0.573281 4.33693,0 4.33693,0 l 16.16917,-5.390271 c 0,0 2.24924,-0.554375 3.34697,-0.328104 0.47523,0.09796 0.92307,0.168267 1.44066,0.495317 0.51759,0.327049 1.10493,0.910841 1.10493,0.910841 l 14.70782,25.310838 c 0,0 0.90051,1.896757 0.70711,2.859188 -0.34074,1.695668 -1.60278,2.718571 -1.60278,2.718571 L 164.4259,82.44531 c 0,0 -1.38461,1.647858 -1.79134,2.624828 -0.54456,1.308036 -0.80139,4.171601 -0.80139,4.171601 l 0,14.342811 c 0,0 0.41361,1.81389 0.84853,2.62482 0.5843,1.08946 2.30988,2.90606 2.30988,2.90606 l 12.82221,11.76485 c 0,0 1.38126,1.6072 1.74419,2.57796 0.77283,2.06721 -0.0943,3.23417 -0.0943,3.23417 l -15.65063,26.10766 c 0,0 -0.41688,0.84631 -2.40416,0.93743 -1.08125,0.0496 -3.20555,-0.51558 -3.20555,-0.51558 l -16.92342,-5.57777 c 0,0 -1.40598,-0.12229 -2.96985,0.11718 -1.47774,0.22628 -2.96985,0.86713 -2.96985,0.86713 l -12.8222,7.45264 c 0,0 -1.70156,1.55082 -2.35703,2.48422 -1.20191,1.71153 -1.9799,3.74974 -1.9799,3.74974 l -3.25269,16.45205 c 0,0 -0.28922,0.62056 -0.45776,0.91824 -0.27759,0.49029 -0.60827,1.08728 -0.90931,1.42536 -0.58747,0.65977 -1.30403,1.25287 -2.12132,1.59364 -0.19776,0.0824 -0.6364,0.0938 -0.6364,0.0938 l -30.617721,0.0938 c 0,0 -1.013771,-0.11732 -1.979899,-1.1718 -1.10084,-1.2015 -1.08423,-2.01549 -1.08423,-2.01549 l -3.865517,-18.60815 c 0,0 -1.123813,-2.53524 -2.02704,-3.56227 -0.804753,-0.91504 -2.922708,-2.20298 -2.922708,-2.20298 l -11.926534,-6.8433 c 0,0 -2.001019,-0.84456 -3.06413,-0.89057 -1.921142,-0.0831 -5.656854,1.12493 -5.656854,1.12493 l -14.849242,4.64032 c 0,0 -1.134516,0.35246 -1.791337,0.28125 -0.47746,-0.0518 -1.254723,-0.11427 -1.84302,-0.32005 -0.404556,-0.14151 -1.126829,-0.61739 -1.126829,-0.61739 L 12.303638,126.55181 c 0,0 -0.479816,-1.66235 -0.329983,-2.48422 0.190583,-1.04539 1.508494,-2.81231 1.508494,-2.81231 L 27.0586,109.06858 c 0,0 1.274328,-1.42624 1.744196,-2.24985 0.549966,-0.96402 1.225652,-3.09355 1.225652,-3.09355 l 0,-15.748963 c 0,0 -0.226127,-1.674955 -0.565685,-2.43734 C 28.905016,84.286606 27.10574,82.164099 27.10574,82.164099 L 13.670711,69.508678 C 12.940136,68.782983 12.727605,68.61675 12.162216,66.977595 11.89979,65.50343 12.19246,65.187818 12.4922,64.212151 l 14.849242,-25.82643 c 0,0 0.747061,-1.139559 2.262742,-1.312413 1.353495,-0.154358 4.054079,0.515591 4.054079,0.515591 l 13.623591,4.40596 c 0,0 3.358833,1.008104 5.374011,1.078055 1.149893,0.03991 2.309882,-0.328104 2.309882,-0.328104 l 15.744911,-9.327513 c 0,0 1.788037,-0.814045 2.404164,-2.906058 0.349564,-1.18692 0.801387,-3.609139 0.801387,-3.609139 l 3.016989,-15.139632 c 0,0 0.360577,-1.28618 0.848528,-1.8748763 0.402856,-0.4860321 0.655309,-0.8040456 1.225652,-1.0780542 0.582848,-0.2800164 2.498464,-0.4687391 2.498464,-0.4687391 z"
       id="path4789"
       inkscape:connector-curvature="0"
       sodipodi:nodetypes="ccsccsccsccssccsccsccsccsccsccsccsccassccsccsccsccsaccsccsccscccccsccsccsccssc" />
    <path
       sodipodi:nodetypes="ccsccsccsccssccsccsccsccsccsccsccsccassccsccsccsccsaccsccsccscccccsccsccsccssc"
       inkscape:connector-curvature="0"
       id="path4787"
       d="m 81.505842,9.3189628 28.897098,0 c 0,0 1.94913,0.1054599 2.687,0.6525923 0.82801,0.6139649 1.55564,2.6569819 1.55564,2.6569819 l 3.77124,18.319198 c 0,0 0.7206,1.882907 1.74419,2.936666 0.62578,0.644222 2.07418,1.724707 2.07418,1.724707 l 12.30366,7.085288 c 0,0 1.17936,0.703349 3.53553,1.211958 2.64114,0.570122 4.33693,0 4.33693,0 l 16.16917,-5.360579 c 0,0 2.24924,-0.551322 3.34697,-0.326297 0.47523,0.09742 0.92307,0.16734 1.44066,0.492588 0.51759,0.325248 1.10493,0.905824 1.10493,0.905824 l 14.70782,25.171416 c 0,0 0.90051,1.886309 0.70711,2.843439 -0.34074,1.686326 -1.60278,2.703596 -1.60278,2.703596 L 164.4259,83.015276 c 0,0 -1.38461,1.638782 -1.79134,2.61037 -0.54456,1.300832 -0.80139,4.148623 -0.80139,4.148623 l 0,14.263801 c 0,0 0.41361,1.8039 0.84853,2.61037 0.5843,1.08346 2.30988,2.89005 2.30988,2.89005 l 12.82221,11.70005 c 0,0 1.38126,1.59833 1.74419,2.56376 0.77283,2.05582 -0.0943,3.21635 -0.0943,3.21635 l -15.65063,25.96384 c 0,0 -0.41688,0.84165 -2.40416,0.93228 -1.08125,0.0493 -3.20555,-0.51275 -3.20555,-0.51275 l -16.92342,-5.54705 c 0,0 -1.40598,-0.12161 -2.96985,0.11654 -1.47774,0.22503 -2.96985,0.86236 -2.96985,0.86236 l -12.8222,7.41158 c 0,0 -1.70156,1.54228 -2.35703,2.47053 -1.20191,1.70211 -1.9799,3.7291 -1.9799,3.7291 l -3.25269,16.36142 c 0,0 -0.28922,0.61714 -0.45776,0.91318 -0.27759,0.48759 -0.60827,1.0813 -0.90931,1.41751 -0.58747,0.65613 -1.30403,1.24596 -2.12132,1.58486 -0.19776,0.0819 -0.6364,0.0933 -0.6364,0.0933 l -30.617721,0.0933 c 0,0 -1.013771,-0.11667 -1.979899,-1.16534 -1.10084,-1.19489 -1.08423,-2.0044 -1.08423,-2.0044 l -3.865517,-18.50565 c 0,0 -1.123813,-2.52127 -2.02704,-3.54264 -0.804753,-0.91001 -2.922708,-2.19084 -2.922708,-2.19084 l -11.926534,-6.80561 c 0,0 -2.001019,-0.83991 -3.06413,-0.88566 -1.921142,-0.0826 -5.656854,1.11872 -5.656854,1.11872 L 32.809735,153.542 c 0,0 -1.134516,0.35051 -1.791337,0.2797 -0.47746,-0.0515 -1.254723,-0.11365 -1.84302,-0.31829 -0.404556,-0.14073 -1.126829,-0.61398 -1.126829,-0.61398 L 12.303638,126.87882 c 0,0 -0.479816,-1.65319 -0.329983,-2.47054 0.190583,-1.03963 1.508494,-2.79681 1.508494,-2.79681 L 27.0586,109.4919 c 0,0 1.274328,-1.41839 1.744196,-2.23746 0.549966,-0.9587 1.225652,-3.07651 1.225652,-3.07651 l 0,-15.662212 c 0,0 -0.226127,-1.665729 -0.565685,-2.423915 C 28.905016,84.84643 27.10574,82.735615 27.10574,82.735615 L 13.670711,70.149906 C 12.940136,69.428207 12.727605,69.26289 12.162216,67.632765 11.89979,66.16672 12.19246,65.852846 12.4922,64.882554 L 27.341442,39.198386 c 0,0 0.747061,-1.133282 2.262742,-1.305184 1.353495,-0.153507 4.054079,0.512751 4.054079,0.512751 l 13.623591,4.381691 c 0,0 3.358833,1.002551 5.374011,1.072117 1.149893,0.0397 2.309882,-0.326298 2.309882,-0.326298 l 15.744911,-9.276132 c 0,0 1.788037,-0.809563 2.404164,-2.890051 0.349564,-1.180383 0.801387,-3.589259 0.801387,-3.589259 l 3.016989,-15.056236 c 0,0 0.360577,-1.279096 0.848528,-1.864549 0.402856,-0.483355 0.655309,-0.799617 1.225652,-1.0721161 0.582848,-0.278474 2.498464,-0.4661571 2.498464,-0.4661571 z"
       style="fill:none;fill-opacity:1;fill-rule:evenodd;stroke:none;stroke-width:1px;stroke-linecap:butt;stroke-linejoin:miter;stroke-opacity:1" />
    <path
       sodipodi:nodetypes="ccsccsccsccssccsccsccsccsccsccsccsccassccsccsccsccsaccsccsccscccccsccsccsccssc"
       inkscape:connector-curvature="0"
       id="path7052"
       d="m 81.505842,9.4074651 28.897098,0 c 0,0 1.94913,0.1053961 2.687,0.6521969 0.82801,0.613593 1.55564,2.655372 1.55564,2.655372 l 3.77124,18.3081 c 0,0 0.7206,1.881766 1.74419,2.934887 0.62578,0.64383 2.07418,1.723662 2.07418,1.723662 l 12.30366,7.080996 c 0,0 1.17936,0.702922 3.53553,1.211222 2.64114,0.569778 4.33693,0 4.33693,0 l 16.16917,-5.357331 c 0,0 2.24924,-0.550987 3.34697,-0.326099 0.47523,0.09736 0.92307,0.167239 1.44066,0.49229 0.51759,0.325051 1.10493,0.905275 1.10493,0.905275 l 14.70782,25.156166 c 0,0 0.90051,1.885166 0.70711,2.841716 -0.34074,1.685305 -1.60278,2.701958 -1.60278,2.701958 L 164.4259,83.059131 c 0,0 -1.38461,1.637788 -1.79134,2.608787 -0.54456,1.300043 -0.80139,4.146109 -0.80139,4.146109 l 0,14.255163 c 0,0 0.41361,1.80281 0.84853,2.60878 0.5843,1.0828 2.30988,2.8883 2.30988,2.8883 l 12.82221,11.69296 c 0,0 1.38126,1.59738 1.74419,2.5622 0.77283,2.05458 -0.0943,3.21441 -0.0943,3.21441 l -15.65063,25.94812 c 0,0 -0.41688,0.84114 -2.40416,0.9317 -1.08125,0.0493 -3.20555,-0.51243 -3.20555,-0.51243 l -16.92342,-5.54368 c 0,0 -1.40598,-0.12155 -2.96985,0.11646 -1.47774,0.2249 -2.96985,0.86183 -2.96985,0.86183 l -12.8222,7.4071 c 0,0 -1.70156,1.54134 -2.35703,2.46904 -1.20191,1.70107 -1.9799,3.72682 -1.9799,3.72682 l -3.25269,16.35152 c 0,0 -0.28922,0.61676 -0.45776,0.91263 -0.27759,0.48729 -0.60827,1.08063 -0.90931,1.41665 -0.58747,0.65573 -1.30403,1.24521 -2.12132,1.5839 -0.19776,0.0819 -0.6364,0.0932 -0.6364,0.0932 l -30.617721,0.0932 c 0,0 -1.013771,-0.1166 -1.979899,-1.16464 -1.10084,-1.19416 -1.08423,-2.00317 -1.08423,-2.00317 L 73.256243,161.2297 c 0,0 -1.123813,-2.51975 -2.02704,-3.5405 -0.804753,-0.90945 -2.922708,-2.18952 -2.922708,-2.18952 L 56.379961,148.6982 c 0,0 -2.001019,-0.8394 -3.06413,-0.88513 -1.921142,-0.0826 -5.656854,1.11806 -5.656854,1.11806 l -14.849242,4.61196 c 0,0 -1.134516,0.35031 -1.791337,0.27953 -0.47746,-0.0515 -1.254723,-0.11357 -1.84302,-0.31809 -0.404556,-0.14065 -1.126829,-0.61362 -1.126829,-0.61362 L 12.303638,126.8961 c 0,0 -0.479816,-1.65219 -0.329983,-2.46904 0.190583,-1.039 1.508494,-2.79512 1.508494,-2.79512 L 27.0586,109.51971 c 0,0 1.274328,-1.41753 1.744196,-2.2361 0.549966,-0.95813 1.225652,-3.07465 1.225652,-3.07465 l 0,-15.652721 c 0,0 -0.226127,-1.66472 -0.565685,-2.422446 C 28.905016,84.889175 27.10574,82.779638 27.10574,82.779638 L 13.670711,70.201553 C 12.940136,69.480293 12.727605,69.315076 12.162216,67.685937 11.89979,66.220781 12.19246,65.907098 12.4922,64.937393 L 27.341442,39.268786 c 0,0 0.747061,-1.132595 2.262742,-1.304393 1.353495,-0.153415 4.054079,0.51244 4.054079,0.51244 l 13.623591,4.379036 c 0,0 3.358833,1.001943 5.374011,1.071467 1.149893,0.03967 2.309882,-0.326099 2.309882,-0.326099 l 15.744911,-9.270514 c 0,0 1.788037,-0.80907 2.404164,-2.888299 0.349564,-1.179667 0.801387,-3.587084 0.801387,-3.587084 l 3.016989,-15.047115 c 0,0 0.360577,-1.27832 0.848528,-1.863419 0.402856,-0.483062 0.655309,-0.799132 1.225652,-1.0714662 0.582848,-0.2783053 2.498464,-0.4658747 2.498464,-0.4658747 z"
       style="opacity:1;fill:#9e9e9e;fill-opacity:1;fill-rule:evenodd;stroke:none;stroke-width:1px;stroke-linecap:butt;stroke-linejoin:miter;stroke-opacity:1" />
    <path
       style="opacity:0.2;fill:url(#linearGradient8616);fill-opacity:1"
       d="m 96.84884,52.359499 c -24.6946,0 -44.737017,20.042418 -44.737017,44.73702 0,12.501641 5.141856,23.803871 13.418223,31.923991 0.218313,0.22303 0.437702,0.44436 0.660602,0.6628 0.217716,0.22217 0.438335,0.44078 0.660604,0.6584 0.204892,0.20878 0.41178,0.41592 0.6207,0.6207 0.204421,0.20854 0.412267,0.41395 0.620702,0.61847 0.215786,0.2204 0.431467,0.44024 0.651736,0.65618 0.215194,0.21952 0.43431,0.43446 0.653951,0.64951 0.196512,0.20023 0.393886,0.39982 0.594102,0.59632 0.213975,0.21851 0.428923,0.43542 0.6473,0.64954 0.207519,0.21164 0.417914,0.41982 0.62957,0.62734 0.206794,0.2109 0.414232,0.42054 0.625134,0.62735 0.212298,0.2165 0.42846,0.42848 0.645084,0.64066 0.193614,0.19722 0.388025,0.39383 0.585233,0.58743 0.211081,0.21549 0.423073,0.42944 0.638435,0.64066 0.203159,0.20715 0.409146,0.41086 0.616267,0.61405 0.20526,0.20934 0.411397,0.41763 0.620702,0.62292 0.203173,0.20714 0.409133,0.41086 0.616268,0.61404 0.202447,0.2064 0.405451,0.4116 0.611832,0.61405 0.202082,0.206 0.405834,0.40976 0.611836,0.61185 0.207576,0.21159 0.417855,0.41989 0.629567,0.62735 0.19475,0.19826 0.391282,0.39503 0.589668,0.58967 0.20013,0.20397 0.403422,0.40504 0.607398,0.60517 0.199409,0.20325 0.399742,0.40577 0.602967,0.60519 0.192458,0.19613 0.387002,0.39043 0.583016,0.583 0.21078,0.21507 0.423385,0.42766 0.638435,0.63845 0.185262,0.18856 0.372294,0.37556 0.560847,0.56084 0.203481,0.20759 0.408806,0.41267 0.616268,0.61628 0.196648,0.20036 0.39374,0.39965 0.594099,0.59631 0.202512,0.20633 0.407606,0.40944 0.614051,0.61183 0.183092,0.18631 0.367893,0.3711 0.554197,0.5542 0.200584,0.20457 0.40295,0.4067 0.6074,0.60741 0.195518,0.19915 0.3927,0.39638 0.591883,0.59187 0.192311,0.19584 0.38494,0.39073 0.580801,0.58302 0.193021,0.1966 0.388633,0.38998 0.58523,0.58302 0.192298,0.19582 0.384954,0.3907 0.580799,0.58301 0.198164,0.20181 0.398822,0.40048 0.600749,0.59852 0.178738,0.18181 0.359097,0.36218 0.540897,0.54092 0.196593,0.20041 0.393796,0.3996 0.594099,0.59632 0.190121,0.19358 0.382777,0.384 0.576366,0.57415 0.189395,0.19282 0.379094,0.38472 0.571931,0.57414 0.188671,0.19209 0.379848,0.38103 0.571933,0.56971 0.194177,0.19768 0.389655,0.39337 0.587449,0.58745 0.175101,0.17804 0.351771,0.3547 0.52981,0.5298 0.193339,0.19705 0.388307,0.39177 0.585233,0.58524 0.186495,0.18985 0.373238,0.37879 0.563065,0.56528 0.185768,0.18909 0.373989,0.37507 0.563065,0.56084 0.18504,0.18834 0.370308,0.37581 0.558629,0.56087 0.19091,0.19429 0.384183,0.38556 0.578583,0.57635 0.171106,0.17392 0.342605,0.34762 0.516512,0.51873 0.189695,0.19326 0.381003,0.38432 0.57415,0.57415 0.182863,0.18606 0.368128,0.36912 0.554196,0.55197 0.182138,0.18533 0.364447,0.36985 0.549764,0.552 0.181394,0.18456 0.362999,0.36836 0.547546,0.54975 0.181026,0.18417 0.363381,0.36652 0.547549,0.54755 0.180294,0.18343 0.361922,0.36503 0.545329,0.54531 0.180975,0.18409 0.363435,0.36662 0.547546,0.54757 0.177776,0.18079 0.357876,0.35871 0.538681,0.53645 0.178488,0.18157 0.357138,0.36241 0.53868,0.54091 0.184357,0.18749 0.37102,0.37214 0.558628,0.55641 0.16458,0.16717 0.33162,0.33199 0.49878,0.49656 0.1894,0.19285 0.37909,0.38475 0.57193,0.57415 0.16347,0.16601 0.32832,0.33088 0.49434,0.49434 0.18275,0.18604 0.36604,0.37137 0.55199,0.5542 0.18001,0.18298 0.3622,0.36324 0.54533,0.54311 0.16201,0.16453 0.32538,0.32792 0.4899,0.48991 0.17954,0.18273 0.36049,0.36348 0.54313,0.54312 0.17303,0.17593 0.34723,0.3501 0.52316,0.52316 0.1789,0.18187 0.35891,0.36207 0.54089,0.54091 0.16534,0.16785 0.33303,0.33353 0.501,0.49876 0.16524,0.16795 0.3309,0.33565 0.49877,0.50099 0.17663,0.17973 0.35463,0.35751 0.53425,0.53426 0.17601,0.17888 0.35305,0.35611 0.53203,0.53204 0.1569,0.15929 0.31511,0.31745 0.47439,0.47437 0.17517,0.17824 0.3517,0.35451 0.52982,0.52982 0.16831,0.17103 0.33661,0.34154 0.50764,0.50986 0.16758,0.17028 0.33737,0.33783 0.50763,0.50543 0.17348,0.17622 0.34684,0.35202 0.52318,0.52539 0.15362,0.15589 0.30962,0.30965 0.46551,0.4633 0.1785,0.18154 0.35715,0.3624 0.53868,0.54089 0.15879,0.16109 0.31986,0.32015 0.48105,0.47883 0.16456,0.16716 0.33161,0.33199 0.4988,0.49656 0.16383,0.16642 0.32793,0.33271 0.49432,0.49656 0.15687,0.15933 0.31515,0.31741 0.4744,0.4744 0.17558,0.17853 0.35127,0.35644 0.5298,0.53202 0.14929,0.1514 0.30083,0.30073 0.45224,0.45003 0.1679,0.17069 0.33703,0.33961 0.50765,0.50763 0.16103,0.16354 0.32193,0.32664 0.48548,0.48769 0.1603,0.16278 0.32269,0.32292 0.48547,0.48326 0.16617,0.16873 0.33217,0.33712 0.501,0.50321 0.14635,0.1484 0.29493,0.29478 0.44334,0.44114 0.1639,0.1666 0.32789,0.33255 0.49436,0.49657 0.16539,0.16792 0.33296,0.33345 0.50098,0.49876 0.15079,0.15287 0.3015,0.30598 0.45443,0.45667 0.15033,0.15256 0.30198,0.30404 0.45445,0.45445 0.16246,0.16508 0.32717,0.32734 0.49214,0.4899 0.16181,0.16423 0.32336,0.32818 0.48769,0.4899 0.14859,0.15061 0.29931,0.2993 0.45,0.4478 0.14894,0.15113 0.29896,0.30099 0.45002,0.45002 0.15881,0.16131 0.31758,0.32214 0.47881,0.48104 0.15964,0.16196 0.3212,0.32149 0.48327,0.48103 0.1398,0.14167 0.27951,0.28361 0.42119,0.42341 0.16468,0.16729 0.3315,0.33187 0.49877,0.49657 0.13835,0.14017 0.27657,0.28061 0.41677,0.41895 0.15699,0.15946 0.31504,0.31733 0.47439,0.47441 0.15011,0.15227 0.29996,0.30434 0.45221,0.45443 0.14937,0.15152 0.30073,0.30064 0.45223,0.45002 0.15564,0.15785 0.31202,0.31443 0.46995,0.46996 0.13508,0.13681 0.27111,0.27283 0.40791,0.40789 0.15409,0.15645 0.30918,0.31136 0.46553,0.46553 0.14718,0.14927 0.29409,0.29837 0.44336,0.44556 0.14645,0.14852 0.29484,0.29467 0.44334,0.44115 0.14575,0.14777 0.29118,0.29539 0.43892,0.44114 0.15163,0.15374 0.30508,0.30515 0.45889,0.45666 0.1314,0.13308 0.26374,0.26537 0.3968,0.39682 0.15079,0.15304 0.30148,0.30577 0.45444,0.45665 0.14355,0.14551 0.28898,0.28871 0.43449,0.43227 0.14283,0.14477 0.28529,0.28944 0.43006,0.43228 0.14209,0.14401 0.28602,0.28573 0.43005,0.42784 0.14836,0.15035 0.29736,0.29954 0.44781,0.44778 0.12776,0.12934 0.25637,0.25795 0.38571,0.38571 0.14678,0.14897 0.2945,0.29648 0.44335,0.44336 0.13992,0.14179 0.27943,0.28352 0.4212,0.42342 0.13917,0.14102 0.28017,0.27979 0.42119,0.41897 0.13843,0.14028 0.27648,0.28053 0.41675,0.41898 0.14433,0.14621 0.29042,0.29025 0.43673,0.43447 0.12409,0.12561 0.24904,0.25053 0.37462,0.37465 0.1435,0.14557 0.28679,0.29088 0.43228,0.43449 0.13623,0.13803 0.27428,0.27386 0.4123,0.41011 0.13554,0.13729 0.27062,0.27457 0.40792,0.41011 0.13479,0.13654 0.27134,0.27086 0.40786,0.40567 0.14106,0.14287 0.28268,0.28466 0.42563,0.42562 0.12048,0.12187 0.24171,0.24309 0.36357,0.36355 0.1395,0.14146 0.27982,0.2816 0.42119,0.4212 0.1326,0.13429 0.26472,0.26863 0.39902,0.40124 0.13188,0.13354 0.26548,0.26491 0.39901,0.39678 0.13116,0.13282 0.2618,0.26567 0.39459,0.39682 0.13184,0.13347 0.26552,0.26499 0.39902,0.39681 0.13596,0.13761 0.27239,0.27425 0.41011,0.4101 0.11574,0.11701 0.23103,0.23453 0.34803,0.35025 0.1355,0.13735 0.27286,0.27232 0.41011,0.4079 0.12822,0.12981 0.25592,0.2597 0.38573,0.38795 0.13446,0.13609 0.26946,0.27127 0.40566,0.40567 0.11354,0.11476 0.22886,0.22785 0.34361,0.34137 0.13258,0.13434 0.26478,0.26858 0.39901,0.40123 0.13334,0.13497 0.26843,0.268 0.40346,0.40126 0.11832,0.11957 0.23725,0.23865 0.35693,0.35689 0.12446,0.12597 0.24867,0.25239 0.37461,0.37686 0.11714,0.11851 0.23624,0.23524 0.35469,0.35246 0.13699,0.1388 0.27355,0.27756 0.41232,0.41455 0.10919,0.11032 0.22004,0.21894 0.3303,0.32809 0.12895,0.13059 0.25744,0.26114 0.38795,0.39014 0.12163,0.12307 0.24271,0.24635 0.36576,0.368 0.12092,0.12231 0.24346,0.24263 0.36578,0.36354 0.12018,0.12157 0.23978,0.24338 0.36134,0.36355 0.12088,0.12227 0.2435,0.2427 0.36575,0.36356 0.12499,0.1264 0.25039,0.25195 0.37686,0.37686 0.10476,0.10579 0.2112,0.21003 0.31701,0.31479 0.12453,0.12611 0.24862,0.25222 0.37464,0.37685 0.12424,0.12564 0.2489,0.25047 0.37464,0.37463 0.10328,0.10431 0.20824,0.20704 0.31256,0.31036 0.12271,0.12421 0.24384,0.24962 0.368,0.37242 0.11648,0.11777 0.23467,0.23376 0.35246,0.35025 0.11398,0.11523 0.22837,0.22962 0.3436,0.3436 0.11435,0.11559 0.22802,0.23148 0.3436,0.34582 0.11361,0.11484 0.22876,0.22778 0.34361,0.34139 0.11986,0.12116 0.2401,0.24152 0.36134,0.36133 0.0985,0.0994 0.19757,0.19852 0.29703,0.29706 0.1257,0.12718 0.2519,0.25339 0.37909,0.37906 0.10441,0.10543 0.20931,0.21043 0.31479,0.31478 0.11064,0.1118 0.22293,0.22191 0.33473,0.33251 0.10986,0.111 0.21926,0.22266 0.33029,0.33252 0.10215,0.1033 0.20497,0.20591 0.30813,0.30816 0.12275,0.12417 0.24601,0.24744 0.37022,0.3702 0.094,0.0949 0.18876,0.1896 0.28374,0.28375 0.11467,0.116 0.2299,0.23105 0.34581,0.34582 0.10703,0.10817 0.21332,0.21661 0.32144,0.32363 0.11365,0.11481 0.22872,0.22783 0.3436,0.34139 0.0925,0.0934 0.18578,0.1866 0.27931,0.27932 0.11103,0.11226 0.22254,0.22364 0.33475,0.33474 0.10454,0.10556 0.20927,0.2103 0.31479,0.31478 0.10405,0.10509 0.20742,0.21068 0.31256,0.3148 0.1034,0.10441 0.20816,0.20698 0.31256,0.31032 0.1026,0.10364 0.2045,0.20773 0.30814,0.31037 0.1093,0.11032 0.21992,0.21888 0.33029,0.32806 0.0877,0.0884 0.17552,0.17627 0.2638,0.26382 0.10772,0.10886 0.21483,0.21807 0.32367,0.32587 0.10044,0.10136 0.20229,0.20103 0.30368,0.30147 0.0998,0.10068 0.19863,0.20178 0.29925,0.30149 0.099,0.0999 0.19937,0.19807 0.29929,0.29705 0.1052,0.10623 0.21071,0.21182 0.31699,0.31701 0.084,0.0847 0.16815,0.16882 0.25273,0.25271 0.10442,0.10555 0.20931,0.21028 0.31477,0.31478 0.10376,0.10475 0.20776,0.20885 0.31257,0.31257 0.0809,0.0816 0.16227,0.16289 0.24384,0.24385 0.10329,0.10441 0.20606,0.20919 0.31037,0.31257 0.1019,0.10282 0.20521,0.20402 0.30813,0.30591 0.0797,0.0804 0.15895,0.16176 0.2394,0.24163 0.1,0.10102 0.20052,0.20137 0.3015,0.30148 0.10077,0.10169 0.20194,0.20295 0.3037,0.30371 0.0771,0.0777 0.15491,0.15549 0.23275,0.23276 0.0996,0.10066 0.19871,0.20178 0.29928,0.30147 0.0983,0.0991 0.19786,0.19663 0.29705,0.29483 0.076,0.0766 0.15379,0.15213 0.23054,0.22834 0.0971,0.098 0.1924,0.19766 0.29039,0.29484 0.0888,0.0895 0.17878,0.17728 0.26824,0.266 0.0896,0.09 0.17805,0.18103 0.26824,0.27044 0.0882,0.0889 0.1773,0.17583 0.266,0.26382 0.0945,0.0954 0.19049,0.18919 0.28597,0.28374 0.0726,0.073 0.14423,0.14693 0.21725,0.21945 0.0933,0.0942 0.18726,0.18803 0.28154,0.28155 0.086,0.0867 0.17066,0.17358 0.25715,0.25936 0.0851,0.0858 0.17141,0.16988 0.25714,0.25494 0.0844,0.0851 0.16771,0.17061 0.25272,0.25492 0.0833,0.084 0.16663,0.16729 0.25049,0.25049 0.084,0.0847 0.16813,0.1688 0.25271,0.25273 0.0833,0.084 0.16666,0.16731 0.2505,0.25048 0.0814,0.082 0.16405,0.16248 0.24607,0.24385 0.0814,0.0821 0.16184,0.16469 0.24384,0.24609 0.0881,0.0888 0.17727,0.17582 0.26602,0.26379 0.0663,0.0668 0.1328,0.13323 0.19949,0.19951 0.0934,0.0942 0.18724,0.18803 0.28153,0.28152 0.0721,0.0725 0.14497,0.14326 0.21725,0.21504 0.0783,0.0789 0.15602,0.15879 0.23499,0.23719 0.0775,0.0781 0.15675,0.1551 0.23497,0.23275 0.0704,0.071 0.13985,0.14246 0.21061,0.21281 0.0833,0.084 0.16664,0.16726 0.25049,0.2505 0.0757,0.0762 0.15188,0.15245 0.22833,0.22835 0.0753,0.0758 0.15007,0.15281 0.22611,0.22831 0.0746,0.0751 0.1508,0.14912 0.22612,0.22391 0.074,0.0744 0.14711,0.14984 0.22166,0.22388 0.0733,0.0738 0.14788,0.14615 0.22169,0.21947 0.0731,0.0734 0.14601,0.14651 0.21947,0.21947 0.0795,0.0801 0.15923,0.15987 0.2394,0.2394 0.0571,0.0574 0.11328,0.11582 0.1707,0.17292 0.078,0.0786 0.15636,0.15688 0.23499,0.23498 0.0776,0.0782 0.15666,0.15506 0.23498,0.23277 0.0557,0.0561 0.11031,0.11282 0.16625,0.16846 0.076,0.0767 0.15379,0.15205 0.23054,0.22833 0.0687,0.0691 0.13718,0.13761 0.20617,0.20617 0.0683,0.0688 0.13533,0.13797 0.20394,0.20615 0.0675,0.068 0.13608,0.13429 0.20393,0.20174 0.0668,0.0671 0.13241,0.13501 0.19952,0.20173 0.066,0.0664 0.13314,0.13132 0.19953,0.19729 0.0656,0.0661 0.13126,0.13167 0.19728,0.1973 0.0723,0.0727 0.14451,0.14503 0.21724,0.21723 0.0571,0.0572 0.11546,0.11359 0.17291,0.17069 0.0644,0.0649 0.128,0.13061 0.19287,0.19508 0.0621,0.0626 0.1236,0.12619 0.1862,0.18845 0.0555,0.0558 0.1108,0.11098 0.16626,0.16625 0.0761,0.0767 0.15374,0.15207 0.23056,0.22833 0.0467,0.0469 0.0924,0.095 0.13964,0.14186 0.0679,0.0683 0.13574,0.13613 0.20396,0.20396 0.0599,0.0602 0.11914,0.1217 0.17955,0.18178 0.0591,0.0595 0.11989,0.11798 0.17957,0.17732 0.0656,0.066 0.13129,0.13173 0.1973,0.1973 0.0441,0.0443 0.0887,0.0887 0.13299,0.13302 0.0648,0.0653 0.12985,0.13019 0.19508,0.19507 0.0571,0.0573 0.11328,0.11578 0.1707,0.17291 0.0566,0.0567 0.11399,0.11203 0.17069,0.16848 0.0558,0.0561 0.11033,0.11281 0.16625,0.16846 0.0622,0.0625 0.12577,0.12396 0.18845,0.18622 0.04,0.04 0.0797,0.0798 0.11968,0.11971 0.0614,0.0618 0.12212,0.12463 0.184,0.18621 0.0607,0.061 0.12281,0.12099 0.184,0.18177 0.0374,0.0375 0.0755,0.0736 0.11306,0.1109 0.0598,0.0603 0.11916,0.12166 0.17954,0.18177 0.0514,0.0516 0.10147,0.10384 0.15295,0.15516 0.0513,0.0516 0.10375,0.10171 0.15519,0.15297 0.0574,0.0577 0.11506,0.11541 0.17291,0.17291 0.0419,0.0421 0.0842,0.0844 0.12636,0.12635 0.049,0.0493 0.0993,0.0972 0.14852,0.14631 0.0409,0.041 0.0808,0.0833 0.12193,0.12414 0.0555,0.0559 0.11065,0.1109 0.16625,0.16627 0.0471,0.0474 0.0943,0.0945 0.14188,0.14187 0.054,0.0543 0.10771,0.10804 0.16182,0.16183 0.0389,0.039 0.0786,0.0763 0.11749,0.11527 0.0452,0.0454 0.0897,0.0918 0.13523,0.13743 0.0377,0.038 0.0752,0.0754 0.11304,0.11306 0.0513,0.0516 0.10147,0.10385 0.15296,0.15517 0.0437,0.0439 0.0892,0.0871 0.13302,0.1308 0.0422,0.0423 0.0838,0.0863 0.12635,0.12857 0.0499,0.05 0.10069,0.0987 0.15075,0.14853 0.0271,0.0272 0.0548,0.0549 0.0821,0.0821 0.0483,0.0486 0.0955,0.0979 0.1441,0.1463 0.0475,0.0477 0.0962,0.0942 0.1441,0.14188 0.025,0.0249 0.0503,0.0503 0.0751,0.0752 0.0467,0.047 0.0925,0.0949 0.13964,0.14186 0.0389,0.0392 0.0784,0.0763 0.11751,0.1153 0.0382,0.0383 0.0748,0.0771 0.11304,0.11527 0.0374,0.0376 0.0755,0.0735 0.11304,0.11088 0.0441,0.0443 0.0887,0.0888 0.13301,0.133 0.0212,0.0213 0.0411,0.043 0.062,0.0642 0.0429,0.0432 0.0877,0.0855 0.13081,0.12858 0.0352,0.0353 0.0691,0.0716 0.10419,0.10646 0.0343,0.0345 0.07,0.0677 0.10418,0.10193 0.0413,0.0415 0.0827,0.0829 0.12415,0.12413 0.0181,0.0182 0.0352,0.0375 0.0534,0.0556 0.0475,0.0477 0.0962,0.0942 0.1441,0.14188 0.0244,0.0245 0.0487,0.0488 0.0732,0.0732 0.0237,0.0238 0.0471,0.0473 0.0711,0.0712 0.046,0.0462 0.0909,0.0934 0.13745,0.13964 0.007,0.008 0.0147,0.0147 0.0224,0.0223 0.008,0.007 0.0147,0.0147 0.0224,0.0224 0.037,0.0372 0.0737,0.0738 0.11088,0.11088 0.0287,0.0287 0.0576,0.0575 0.0867,0.0867 0.0282,0.0283 0.056,0.0577 0.0843,0.0867 0.0275,0.0276 0.0567,0.0546 0.0843,0.0821 0.0267,0.0268 0.0529,0.0553 0.0797,0.0821 0.026,0.0262 0.0537,0.0515 0.0797,0.0775 0.0258,0.0257 0.0517,0.0519 0.0775,0.0775 0.0248,0.0251 0.0502,0.0503 0.0751,0.0751 0.0245,0.0244 0.0487,0.0488 0.0731,0.0732 0.0238,0.0238 0.0471,0.0473 0.0711,0.0712 0.0236,0.0238 0.0472,0.0473 0.0712,0.0711 0.0232,0.0232 0.0456,0.0457 0.0689,0.0688 0.0223,0.0225 0.0441,0.0442 0.0666,0.0666 0.0216,0.0216 0.0426,0.0427 0.0642,0.0642 0.0213,0.0213 0.0408,0.043 0.062,0.0642 0.0205,0.0205 0.0416,0.0397 0.062,0.0596 0.0196,0.0198 0.0382,0.0406 0.0576,0.0596 0.0189,0.0189 0.039,0.0367 0.0575,0.0555 0.0186,0.0186 0.037,0.037 0.0556,0.0556 0.0258,0.0257 0.0517,0.0519 0.0775,0.0775 7.2e-4,7.4e-4 0.004,0.004 0.005,0.005 0.0239,0.0242 0.0468,0.0492 0.0711,0.0732 0.0241,0.0242 0.0492,0.0469 0.073,0.0711 0.0287,0.0287 0.0596,0.0596 0.0889,0.0888 0.0205,0.0205 0.0397,0.0417 0.0596,0.062 0.0128,0.0128 0.0267,0.0247 0.04,0.0379 0.0121,0.0121 0.0234,0.0255 0.0355,0.0379 0.0174,0.0174 0.036,0.0336 0.0534,0.051 0.0159,0.0159 0.0306,0.0329 0.0464,0.0488 0.009,0.009 0.0216,0.0194 0.0309,0.0287 0,0 0.002,0.002 0.002,0.002 0.009,0.008 0.0159,0.0182 0.0245,0.0263 0.008,0.008 0.0181,0.0159 0.0263,0.0245 0.0116,0.0116 0.0237,0.0236 0.0355,0.0355 9.5e-4,9.4e-4 0.004,0.004 0.005,0.005 0.009,0.009 0.0178,0.0178 0.0263,0.0263 0,0 0,0.002 0,0.002 0.008,0.008 0.0167,0.0143 0.0243,0.0223 0,0 0.002,0.002 0.002,0.002 0.002,0.002 0.007,0.007 0.009,0.009 0,0 0.002,0.002 0.002,0.002 0.005,0.005 0.007,0.009 0.0112,0.0132 0.002,0.002 0.005,0.005 0.007,0.007 9.5e-4,9.7e-4 0.004,0.004 0.005,0.005 0.005,0.005 0.009,0.007 0.0132,0.0112 7.3e-4,7.5e-4 9.5e-4,9.7e-4 0.002,0.002 0.004,0.004 0.007,0.007 0.0112,0.0112 0.002,0.002 0.005,0.005 0.007,0.007 0,0 0.002,0.002 0.002,0.002 0,0 0.002,0.002 0.002,0.002 0.10907,0.10907 0.22457,0.21125 0.33473,0.31922 0.18034,0.17672 0.36423,0.34948 0.54756,0.52315 0.11041,0.10465 0.21877,0.21127 0.33028,0.31478 0.105,0.0972 0.20441,0.20075 0.31035,0.29706 9.7e-4,9.7e-4 0.004,0.004 0.005,0.005 4e-4,3.7e-4 0.002,-3.5e-4 0.002,0 7.1e-4,6.7e-4 0.004,0.004 0.005,0.005 0.004,0.002 0.006,0.006 0.009,0.009 0.002,0.002 0.005,0.005 0.007,0.007 9.6e-4,9.6e-4 0.004,0.004 0.005,0.005 7.7e-4,7e-4 9.6e-4,9.6e-4 0.002,0.002 1.05639,0.9602 2.16042,1.8698 3.30524,2.72665 0.002,0.002 0.005,0.005 0.007,0.007 8.1e-4,6.3e-4 9.6e-4,9.8e-4 0.002,0.002 1.72182,1.28792 3.53936,2.45392 5.44001,3.487 8.7e-4,5e-4 9.5e-4,0.002 0.002,0.002 1.2669,0.6885 2.57124,1.31615 3.9082,1.88206 9.1e-4,3.8e-4 9.7e-4,0.002 0.002,0.002 0.66811,0.28268 1.34421,0.54735 2.02839,0.79803 8.9e-4,3.5e-4 9.5e-4,0.002 0.002,0.002 0.68424,0.25063 1.37775,0.48502 2.07715,0.70272 4.20243,1.3083 8.66949,2.01506 13.30073,2.01506 24.69458,0 44.73701,-20.04244 44.73701,-44.73702 0,-4.63123 -0.70675,-9.09829 -2.01506,-13.30074 -0.21767,-0.69937 -0.45208,-1.3929 -0.70273,-2.07712 -3.3e-4,-9e-4 -0.002,-9.6e-4 -0.002,-0.002 -0.25069,-0.68417 -0.51536,-1.36026 -0.79804,-2.02835 -3.7e-4,-9e-4 -0.002,-9.7e-4 -0.002,-0.002 -0.56589,-1.33696 -1.19358,-2.64133 -1.88205,-3.90819 -5e-4,-9.1e-4 -0.002,-9.9e-4 -0.002,-0.002 -1.03309,-1.90066 -2.19908,-3.71822 -3.48701,-5.44001 -6.3e-4,-8.2e-4 -9.8e-4,-9.6e-4 -0.002,-0.002 -0.42888,-0.57337 -0.87257,-1.13752 -1.32787,-1.6892 -6.4e-4,-7.8e-4 -9.5e-4,-9.6e-4 -0.002,-0.002 -9.5e-4,-9.8e-4 -0.004,-0.002 -0.005,-0.005 -0.002,-0.002 -0.005,-0.005 -0.007,-0.007 -0.002,-0.004 -0.005,-0.006 -0.007,-0.009 -0.44933,-0.54437 -0.91136,-1.07815 -1.38549,-1.60051 -7e-4,-7.7e-4 -9.7e-4,-9.6e-4 -0.002,-0.002 -9.7e-4,-9.6e-4 -0.004,-0.004 -0.005,-0.005 -0.002,-0.002 -0.005,-0.005 -0.007,-0.007 -0.002,-0.004 -0.006,-0.006 -0.009,-0.009 -0.004,-0.004 -0.008,-0.007 -0.0112,-0.0112 -0.004,-0.004 -0.008,-0.007 -0.0112,-0.0112 -0.46922,-0.51479 -0.94844,-1.0195 -1.44091,-1.51188 -7.5e-4,-7.2e-4 -0.004,-0.004 -0.005,-0.005 -0.002,-0.002 -0.005,-0.005 -0.007,-0.007 -9.7e-4,-9.7e-4 -0.004,-0.004 -0.005,-0.005 -9.7e-4,-9.7e-4 -9.7e-4,-0.004 -0.002,-0.005 -0.004,-0.004 -0.008,-0.008 -0.0112,-0.0112 -0.004,-0.004 -0.008,-0.008 -0.0112,-0.0112 -0.005,-0.005 -0.009,-0.007 -0.0132,-0.0112 -0.004,-0.004 -0.008,-0.008 -0.0112,-0.0112 -0.002,-0.002 -0.005,-0.005 -0.007,-0.007 -9.5e-4,-9.6e-4 -0.004,-0.004 -0.005,-0.005 -0.01,-0.01 -0.0205,-0.0227 -0.0309,-0.0333 -0.007,-0.007 -0.015,-0.0128 -0.0223,-0.0201 -9.5e-4,-9.7e-4 -0.004,-0.004 -0.005,-0.005 -9.5e-4,-9.7e-4 -0.004,-0.004 -0.005,-0.005 -0.005,-0.005 -0.008,-0.01 -0.0132,-0.0155 -0.008,-0.008 -0.0162,-0.0162 -0.0243,-0.0245 -0.009,-0.009 -0.0177,-0.0178 -0.0263,-0.0263 -0.009,-0.009 -0.0193,-0.0193 -0.0287,-0.0287 -0.01,-0.01 -0.0208,-0.0208 -0.0309,-0.031 -0.01,-0.01 -0.0227,-0.0205 -0.0333,-0.0309 -0.0234,-0.0235 -0.0453,-0.0476 -0.0689,-0.0711 -0.0125,-0.0125 -0.025,-0.025 -0.0379,-0.0379 -0.0132,-0.0132 -0.0264,-0.0264 -0.04,-0.0401 -0.0136,-0.0135 -0.0282,-0.0261 -0.0419,-0.04 -0.0294,-0.0295 -0.0589,-0.0589 -0.0887,-0.0889 -0.01,-0.01 -0.0208,-0.0208 -0.0309,-0.0309 -0.006,-0.006 -0.01,-0.01 -0.0155,-0.0155 0,0 -0.002,-0.002 -0.002,-0.002 -0.0317,-0.0319 -0.0657,-0.0659 -0.0975,-0.0975 0,0 -0.002,-0.002 -0.002,-0.002 -0.0257,-0.0257 -0.0518,-0.0519 -0.0775,-0.0775 -0.0186,-0.0186 -0.0371,-0.0371 -0.0555,-0.0555 -0.0189,-0.0189 -0.0367,-0.039 -0.0556,-0.0576 -0.0196,-0.0198 -0.0404,-0.0382 -0.0596,-0.0577 -0.0205,-0.0205 -0.0398,-0.0417 -0.0596,-0.062 -0.0213,-0.0213 -0.043,-0.0411 -0.0642,-0.062 -0.0325,-0.0326 -0.0649,-0.065 -0.0975,-0.0975 -0.0112,-0.0112 -0.0224,-0.0224 -0.0333,-0.0333 -0.015,-0.0152 -0.0314,-0.029 -0.0464,-0.0442 -0.0309,-0.031 -0.0596,-0.0643 -0.0908,-0.0952 -0.036,-0.036 -0.0729,-0.0708 -0.10862,-0.10635 -0.0125,-0.0125 -0.025,-0.0249 -0.0379,-0.0379 -0.0178,-0.0178 -0.0355,-0.0356 -0.0534,-0.0534 -0.0333,-0.0334 -0.0664,-0.0666 -0.0998,-0.0998 -0.026,-0.026 -0.0514,-0.0537 -0.0775,-0.0797 -0.0267,-0.0268 -0.0553,-0.053 -0.0821,-0.0797 -0.0275,-0.0276 -0.0545,-0.0565 -0.0821,-0.0843 -0.0282,-0.0283 -0.0577,-0.0561 -0.0867,-0.0843 -0.0287,-0.0287 -0.0573,-0.0575 -0.0867,-0.0867 -0.0441,-0.0442 -0.0887,-0.0888 -0.13301,-0.13301 -0.015,-0.015 -0.0313,-0.029 -0.0464,-0.0442 -0.0306,-0.0307 -0.06,-0.0623 -0.0907,-0.0929 -0.0313,-0.0314 -0.0638,-0.0616 -0.0952,-0.0929 -0.0245,-0.0245 -0.0488,-0.0488 -0.0732,-0.0732 -0.0475,-0.0477 -0.0939,-0.0964 -0.14187,-0.14406 -0.0181,-0.0182 -0.0375,-0.0352 -0.0556,-0.0534 -0.0414,-0.0413 -0.0827,-0.0828 -0.12415,-0.12414 -0.0343,-0.0345 -0.0676,-0.0701 -0.10192,-0.10417 -0.0352,-0.0353 -0.0714,-0.0693 -0.10634,-0.1042 -0.0429,-0.0432 -0.0854,-0.0878 -0.12858,-0.1308 -0.0212,-0.0213 -0.043,-0.0412 -0.0642,-0.062 -0.0441,-0.0443 -0.0886,-0.0887 -0.133,-0.13298 -0.0374,-0.0376 -0.0734,-0.0756 -0.11089,-0.11305 -0.0382,-0.0383 -0.0769,-0.0748 -0.11527,-0.11306 -0.0389,-0.0391 -0.0762,-0.0787 -0.11528,-0.11749 -0.0468,-0.0469 -0.0947,-0.0927 -0.14186,-0.13966 -0.025,-0.0251 -0.0503,-0.0503 -0.0751,-0.0751 -0.0475,-0.0477 -0.094,-0.0964 -0.14187,-0.14407 -0.0483,-0.0484 -0.0977,-0.0957 -0.14633,-0.14412 -0.027,-0.0272 -0.0548,-0.0549 -0.0821,-0.0821 -0.0494,-0.0497 -0.0989,-0.0991 -0.14853,-0.14852 -0.0502,-0.0505 -0.10032,-0.10058 -0.15073,-0.15074 -0.0287,-0.0287 -0.0576,-0.0576 -0.0867,-0.0867 -0.0588,-0.0591 -0.11803,-0.11835 -0.17735,-0.17735 -0.0377,-0.0379 -0.075,-0.0752 -0.11303,-0.11304 -0.0452,-0.0454 -0.0917,-0.0898 -0.13743,-0.13521 -0.0389,-0.0392 -0.0762,-0.0787 -0.11527,-0.1175 -0.054,-0.0543 -0.10773,-0.10793 -0.16184,-0.16182 -0.0471,-0.0474 -0.0943,-0.0945 -0.14186,-0.14189 -0.0556,-0.0557 -0.11068,-0.11099 -0.16627,-0.16623 -0.041,-0.041 -0.0831,-0.081 -0.12415,-0.12195 -0.049,-0.0493 -0.097,-0.0995 -0.14631,-0.14851 -0.0418,-0.042 -0.0843,-0.0844 -0.12634,-0.12636 -0.0648,-0.0653 -0.12983,-0.1302 -0.1951,-0.19508 -0.0362,-0.0363 -0.0723,-0.0726 -0.1086,-0.10863 -0.0588,-0.0591 -0.11805,-0.11833 -0.17736,-0.17733 -0.0595,-0.0599 -0.11947,-0.11987 -0.17956,-0.17956 -0.0377,-0.038 -0.075,-0.0752 -0.11305,-0.11305 -0.0607,-0.061 -0.12063,-0.12318 -0.18177,-0.18401 -0.0615,-0.0617 -0.12428,-0.12248 -0.18621,-0.18398 -0.04,-0.0402 -0.0797,-0.0798 -0.1197,-0.11972 -0.0622,-0.0626 -0.12361,-0.12612 -0.18622,-0.18842 -0.0557,-0.0561 -0.11249,-0.11055 -0.16848,-0.16625 -0.0564,-0.0567 -0.11179,-0.1143 -0.16848,-0.1707 -0.0571,-0.0574 -0.11546,-0.11356 -0.17289,-0.17068 -0.0649,-0.0653 -0.12983,-0.13025 -0.19509,-0.19509 -0.0436,-0.0439 -0.0892,-0.0871 -0.13302,-0.13079 -0.066,-0.0664 -0.13093,-0.13352 -0.19728,-0.19951 -0.0591,-0.0595 -0.11766,-0.12022 -0.17734,-0.17957 -0.0598,-0.0602 -0.12138,-0.11948 -0.18178,-0.17957 -0.068,-0.0683 -0.13569,-0.13614 -0.20394,-0.20392 -0.0467,-0.0469 -0.0948,-0.0927 -0.14187,-0.13967 -0.0761,-0.0767 -0.15153,-0.1543 -0.22835,-0.23055 -0.0555,-0.0556 -0.11064,-0.111 -0.16625,-0.16626 -0.0629,-0.0633 -0.12729,-0.12546 -0.19064,-0.18843 -0.0637,-0.0641 -0.12875,-0.12693 -0.19286,-0.19064 -0.0572,-0.0574 -0.11327,-0.11577 -0.1707,-0.17289 -0.0724,-0.0728 -0.14454,-0.14501 -0.21724,-0.21726 -0.0656,-0.0661 -0.13127,-0.13169 -0.19728,-0.1973 -0.066,-0.0664 -0.13092,-0.13353 -0.19731,-0.19952 -0.0668,-0.0671 -0.13461,-0.1328 -0.20173,-0.19949 -0.0675,-0.068 -0.13387,-0.13652 -0.20173,-0.20395 -0.0683,-0.0688 -0.13754,-0.13577 -0.20614,-0.20394 -0.0687,-0.0692 -0.13719,-0.13762 -0.20619,-0.20617 -0.0761,-0.0765 -0.15148,-0.15432 -0.22833,-0.23053 -0.0558,-0.0561 -0.11258,-0.11067 -0.16846,-0.16626 -0.0775,-0.0782 -0.15451,-0.15724 -0.23277,-0.235 -0.078,-0.0786 -0.15631,-0.15692 -0.23497,-0.23497 -0.0572,-0.0573 -0.11551,-0.11359 -0.17292,-0.17068 -0.0795,-0.0801 -0.15928,-0.15984 -0.23941,-0.23942 -0.0731,-0.0734 -0.14601,-0.14652 -0.21947,-0.21945 -0.0734,-0.0738 -0.14561,-0.14839 -0.21946,-0.2217 -0.0739,-0.0745 -0.14932,-0.14762 -0.22388,-0.22168 -0.0747,-0.075 -0.14858,-0.15132 -0.22391,-0.22611 -0.0753,-0.0758 -0.15227,-0.1506 -0.22832,-0.22613 -0.0757,-0.0762 -0.15189,-0.15242 -0.22834,-0.22831 -0.0834,-0.084 -0.1666,-0.16731 -0.25049,-0.25051 -0.0706,-0.071 -0.142,-0.14029 -0.21282,-0.21058 -0.0775,-0.0781 -0.15452,-0.15732 -0.23274,-0.23499 -0.0783,-0.0789 -0.15824,-0.15656 -0.23721,-0.23496 -0.0719,-0.0724 -0.14279,-0.14543 -0.21504,-0.21726 -0.0934,-0.0942 -0.18721,-0.18804 -0.28151,-0.28152 -0.0663,-0.0668 -0.13282,-0.13324 -0.19953,-0.19952 -0.0882,-0.0889 -0.17511,-0.178 -0.26379,-0.26603 -0.0814,-0.082 -0.16407,-0.16246 -0.24607,-0.24384 -0.0821,-0.0828 -0.16331,-0.16617 -0.24606,-0.24826 -0.0826,-0.0831 -0.16517,-0.16581 -0.24828,-0.24829 -0.0832,-0.084 -0.16664,-0.1673 -0.25051,-0.25051 -0.084,-0.0847 -0.16809,-0.16877 -0.25269,-0.2527 -0.0844,-0.0851 -0.16996,-0.1684 -0.25494,-0.25272 -0.0851,-0.0858 -0.16922,-0.17211 -0.25494,-0.25714 -0.086,-0.0867 -0.17288,-0.17137 -0.25935,-0.25715 -0.0934,-0.0942 -0.1872,-0.1881 -0.28153,-0.28154 -0.0727,-0.073 -0.14644,-0.14472 -0.21948,-0.21724 -0.0944,-0.0954 -0.18833,-0.19137 -0.28373,-0.28596 -0.0952,-0.0961 -0.19198,-0.19068 -0.28819,-0.28598 -0.0743,-0.0747 -0.14894,-0.14947 -0.2239,-0.2239 -0.0963,-0.0972 -0.19093,-0.19617 -0.28818,-0.2926 -0.0971,-0.0981 -0.19676,-0.19328 -0.29484,-0.29041 -0.076,-0.0765 -0.15157,-0.15435 -0.22833,-0.23055 -0.0982,-0.0992 -0.19571,-0.19878 -0.29483,-0.29704 -0.099,-0.0999 -0.19933,-0.19812 -0.29926,-0.29704 -0.0778,-0.0784 -0.15638,-0.15696 -0.23498,-0.23498 -0.1,-0.10102 -0.2005,-0.2014 -0.30148,-0.30148 -0.10091,-0.10171 -0.20191,-0.20294 -0.3037,-0.30372 -0.0798,-0.0804 -0.16117,-0.15955 -0.24164,-0.23939 -0.10192,-0.10295 -0.20307,-0.2062 -0.30591,-0.30814 -0.10272,-0.10363 -0.20667,-0.20553 -0.31035,-0.30814 -0.0817,-0.0823 -0.16373,-0.16436 -0.24607,-0.24606 -0.10372,-0.10477 -0.20783,-0.2088 -0.31257,-0.31257 -0.10451,-0.10544 -0.20923,-0.21035 -0.31477,-0.3148 -0.084,-0.0847 -0.16815,-0.1688 -0.25272,-0.2527 -0.10521,-0.10624 -0.21076,-0.21176 -0.317,-0.31701 -0.099,-0.0999 -0.19714,-0.20028 -0.29704,-0.29925 -0.0998,-0.10069 -0.20082,-0.19956 -0.3015,-0.29926 -0.10043,-0.10138 -0.20007,-0.20327 -0.30148,-0.30372 -0.10782,-0.10883 -0.21697,-0.21592 -0.32586,-0.32365 -0.0877,-0.0885 -0.17551,-0.17625 -0.2638,-0.26379 -0.1092,-0.11044 -0.21777,-0.22105 -0.32809,-0.3303 -0.10261,-0.10363 -0.20671,-0.20551 -0.31034,-0.30814 -0.10338,-0.10443 -0.20597,-0.20917 -0.31035,-0.31257 -0.10409,-0.1051 -0.20966,-0.20845 -0.3148,-0.31256 -0.10452,-0.10557 -0.20925,-0.2103 -0.31477,-0.31478 -0.11181,-0.11295 -0.22394,-0.22521 -0.33695,-0.33696 -0.0917,-0.0925 -0.18436,-0.18516 -0.27711,-0.27712 -0.11358,-0.11484 -0.22659,-0.22993 -0.34138,-0.34357 -0.10703,-0.10817 -0.21554,-0.21443 -0.32365,-0.32145 -0.11477,-0.11593 -0.22982,-0.23114 -0.34583,-0.34581 -0.0941,-0.0949 -0.18876,-0.18961 -0.28373,-0.28375 -0.12278,-0.12418 -0.24603,-0.24747 -0.37022,-0.37021 -0.10225,-0.10318 -0.20491,-0.20597 -0.30813,-0.30814 -0.10989,-0.11098 -0.22149,-0.22043 -0.33253,-0.3303 -0.11065,-0.11179 -0.22073,-0.22413 -0.3325,-0.33473 -0.10431,-0.10544 -0.20939,-0.21035 -0.31479,-0.31478 -0.12569,-0.12718 -0.25188,-0.2534 -0.37906,-0.37908 -0.0985,-0.0994 -0.1976,-0.19852 -0.29706,-0.29703 -0.1198,-0.12125 -0.24017,-0.24148 -0.36133,-0.36135 -0.11363,-0.11484 -0.22655,-0.22999 -0.3414,-0.34361 -0.11433,-0.11557 -0.23023,-0.22924 -0.3458,-0.34359 -0.11508,-0.11634 -0.2295,-0.23298 -0.34583,-0.34803 -0.11544,-0.1167 -0.23134,-0.23263 -0.34805,-0.34804 -0.12278,-0.12414 -0.24819,-0.24529 -0.37242,-0.36799 -0.10327,-0.1043 -0.20602,-0.20926 -0.31033,-0.31256 -0.12418,-0.12572 -0.24901,-0.2504 -0.37466,-0.37464 -0.1246,-0.12603 -0.25073,-0.25009 -0.37684,-0.37464 -0.10477,-0.10579 -0.20899,-0.21226 -0.31479,-0.31702 -0.12599,-0.12756 -0.25156,-0.25521 -0.37907,-0.38127 -0.11981,-0.12117 -0.24016,-0.24153 -0.36134,-0.36134 -0.12018,-0.12156 -0.24198,-0.24116 -0.36355,-0.36132 -0.12092,-0.12233 -0.24125,-0.24488 -0.36355,-0.36579 -0.12165,-0.12306 -0.24493,-0.24412 -0.36799,-0.36576 -0.12901,-0.13052 -0.25955,-0.25902 -0.39015,-0.38794 -0.1092,-0.11033 -0.21781,-0.22116 -0.32809,-0.3303 -0.137,-0.13878 -0.27575,-0.27534 -0.41454,-0.41233 -0.11722,-0.11845 -0.23394,-0.23753 -0.35246,-0.35468 -0.12447,-0.12596 -0.25091,-0.25015 -0.37686,-0.37465 -0.1252,-0.12671 -0.25015,-0.25387 -0.37685,-0.37906 -0.11897,-0.12039 -0.23881,-0.24009 -0.35911,-0.35913 -0.13992,-0.14176 -0.28165,-0.28129 -0.42342,-0.42118 -0.11352,-0.11476 -0.22661,-0.23007 -0.34139,-0.34361 -0.13437,-0.1362 -0.26955,-0.27119 -0.40566,-0.40567 -0.12825,-0.12981 -0.25815,-0.25749 -0.38795,-0.38571 -0.13557,-0.13725 -0.27056,-0.27463 -0.40789,-0.41012 -0.11571,-0.11699 -0.23325,-0.2323 -0.35024,-0.34804 -0.14356,-0.14551 -0.28676,-0.29093 -0.43229,-0.43448 -0.11727,-0.11857 -0.23612,-0.2352 -0.35468,-0.35246 -0.13805,-0.13997 -0.27688,-0.27863 -0.41677,-0.41677 -0.13187,-0.13353 -0.26325,-0.26714 -0.39678,-0.39903 -0.13262,-0.13428 -0.26695,-0.26639 -0.40125,-0.39901 -0.13959,-0.14137 -0.27974,-0.28167 -0.42119,-0.4212 -0.12047,-0.12185 -0.24169,-0.24305 -0.36355,-0.36356 -0.14098,-0.14293 -0.28277,-0.28456 -0.42563,-0.42561 -0.13479,-0.13652 -0.26912,-0.27311 -0.40566,-0.40788 -0.13554,-0.1373 -0.27283,-0.27237 -0.41011,-0.40789 -0.13626,-0.13803 -0.27208,-0.27608 -0.4101,-0.41233 -0.14361,-0.14547 -0.28893,-0.28876 -0.4345,-0.43227 -0.12412,-0.1256 -0.24904,-0.25051 -0.37463,-0.37464 -0.14424,-0.14632 -0.28826,-0.29238 -0.4345,-0.43671 -0.13844,-0.14026 -0.27869,-0.2783 -0.41897,-0.41674 -0.13919,-0.14104 -0.27794,-0.28203 -0.41898,-0.42121 -0.1399,-0.14175 -0.28163,-0.28128 -0.4234,-0.4212 -0.14689,-0.14883 -0.29442,-0.29654 -0.44337,-0.44334 -0.12778,-0.12934 -0.25637,-0.25795 -0.38571,-0.38572 -0.14825,-0.15046 -0.29743,-0.29945 -0.4478,-0.4478 -0.1421,-0.14401 -0.28381,-0.28796 -0.42783,-0.43005 -0.14283,-0.14477 -0.2875,-0.28724 -0.43228,-0.43006 -0.14355,-0.14552 -0.28674,-0.29093 -0.43226,-0.43447 -0.15089,-0.15297 -0.30361,-0.30368 -0.45668,-0.45446 -0.13141,-0.13306 -0.26374,-0.2654 -0.39679,-0.3968 -0.15153,-0.1538 -0.30294,-0.30727 -0.45665,-0.45889 -0.14576,-0.14775 -0.29339,-0.29319 -0.44116,-0.43892 -0.14647,-0.14851 -0.29262,-0.29689 -0.44114,-0.44336 -0.14718,-0.14926 -0.29629,-0.29615 -0.44556,-0.44335 -0.15417,-0.15635 -0.30909,-0.31144 -0.46553,-0.46552 -0.13507,-0.13681 -0.27109,-0.27282 -0.4079,-0.40789 -0.15553,-0.15793 -0.3121,-0.31432 -0.46994,-0.46996 -0.14941,-0.15151 -0.29851,-0.30285 -0.45003,-0.45224 -0.1501,-0.15225 -0.30216,-0.30211 -0.45444,-0.45223 -0.15708,-0.15933 -0.31494,-0.3174 -0.47438,-0.47436 -0.13836,-0.14019 -0.27882,-0.27841 -0.41897,-0.41677 -0.1647,-0.16727 -0.32928,-0.3341 -0.49656,-0.49879 -0.13981,-0.14166 -0.28175,-0.28138 -0.42342,-0.42117 -0.15954,-0.16209 -0.31906,-0.32364 -0.48104,-0.48326 -0.16,-0.16236 -0.32081,-0.32337 -0.48326,-0.48327 -0.14785,-0.14986 -0.29783,-0.2978 -0.44778,-0.44558 -0.14852,-0.1507 -0.2972,-0.30142 -0.4478,-0.45 -0.16171,-0.16431 -0.32569,-0.32589 -0.48991,-0.48769 -0.16256,-0.16497 -0.32483,-0.32969 -0.48991,-0.49214 -0.1504,-0.15246 -0.30188,-0.30412 -0.45444,-0.45444 -0.1507,-0.15293 -0.30381,-0.30366 -0.45668,-0.45444 -0.16426,-0.16698 -0.32968,-0.33218 -0.49655,-0.49657 -0.1651,-0.16759 -0.33107,-0.33376 -0.49878,-0.49876 -0.14636,-0.14841 -0.29271,-0.297 -0.44114,-0.44336 -0.16609,-0.16884 -0.33448,-0.3348 -0.5032,-0.50099 -0.16033,-0.16277 -0.3205,-0.32517 -0.48326,-0.48548 -0.16106,-0.16352 -0.32416,-0.32444 -0.4877,-0.48547 -0.16802,-0.17063 -0.33694,-0.33974 -0.50763,-0.50766 -0.1493,-0.1514 -0.29861,-0.30295 -0.45001,-0.45222 -0.17559,-0.17853 -0.35349,-0.35424 -0.53203,-0.52982 -0.157,-0.15922 -0.31507,-0.31752 -0.4744,-0.4744 -0.16383,-0.1664 -0.33015,-0.33049 -0.49655,-0.49434 -0.16458,-0.16716 -0.32942,-0.33422 -0.49658,-0.49877 -0.15868,-0.1612 -0.31773,-0.32226 -0.47883,-0.48104 -0.17849,-0.18153 -0.35934,-0.3602 -0.54089,-0.53868 -0.15364,-0.15591 -0.30741,-0.31189 -0.4633,-0.46554 -0.17336,-0.17632 -0.34915,-0.34969 -0.52538,-0.52315 -0.16759,-0.17027 -0.33516,-0.34006 -0.50542,-0.50765 -0.16834,-0.17101 -0.33884,-0.33933 -0.50987,-0.50764 -0.17528,-0.17812 -0.35159,-0.35464 -0.52982,-0.52981 -0.15693,-0.15928 -0.31509,-0.31746 -0.47439,-0.4744 -0.17592,-0.17897 -0.35315,-0.356 -0.53204,-0.53203 -0.17674,-0.17962 -0.35451,-0.3576 -0.53424,-0.53425 -0.16535,-0.16784 -0.33305,-0.33352 -0.50098,-0.49875 -0.16527,-0.16797 -0.33093,-0.33566 -0.49878,-0.50102 -0.17884,-0.18196 -0.35902,-0.36197 -0.5409,-0.54089 -0.17306,-0.17592 -0.34725,-0.35012 -0.52317,-0.52317 -0.17964,-0.18261 -0.36037,-0.36357 -0.54311,-0.5431 -0.162,-0.16453 -0.32539,-0.3279 -0.48992,-0.48992 -0.18133,-0.18459 -0.36304,-0.36831 -0.54753,-0.54975 -0.18146,-0.1845 -0.36516,-0.36619 -0.54977,-0.54756 -0.16346,-0.16601 -0.32832,-0.33087 -0.49435,-0.49434 -0.18938,-0.19284 -0.3813,-0.38253 -0.57414,-0.57193 -0.16458,-0.16715 -0.32939,-0.33421 -0.49657,-0.49878 -0.18425,-0.18761 -0.36891,-0.374273 -0.55641,-0.55862 -0.1785,-0.181557 -0.35935,-0.360195 -0.54091,-0.538685 -0.18544,-0.188636 -0.37208,-0.37551 -0.56083,-0.56085 -0.16676,-0.169406 -0.33603,-0.336468 -0.50542,-0.503213 -0.18681,-0.190249 -0.37293,-0.380593 -0.56307,-0.567498 -0.18103,-0.184166 -0.36338,-0.366521 -0.54756,-0.547546 -0.18139,-0.184548 -0.3652,-0.366154 -0.54975,-0.547546 -0.18214,-0.185319 -0.36666,-0.367627 -0.552,-0.549765 -0.18286,-0.186069 -0.36588,-0.371334 -0.55196,-0.554197 -0.18982,-0.193148 -0.3809,-0.384456 -0.57415,-0.574149 -0.17113,-0.173906 -0.34481,-0.345407 -0.51874,-0.51651 -0.19079,-0.194401 -0.38206,-0.387674 -0.57636,-0.578583 -0.18504,-0.188325 -0.37251,-0.373589 -0.56085,-0.55863 -0.18577,-0.189078 -0.37176,-0.377297 -0.56083,-0.563065 -0.1865,-0.189828 -0.37545,-0.376571 -0.56529,-0.563065 -0.19348,-0.196925 -0.38818,-0.391895 -0.58524,-0.585233 -0.17512,-0.178037 -0.35176,-0.354709 -0.52981,-0.529812 -0.19407,-0.197792 -0.38976,-0.39327 -0.58746,-0.587449 -0.18867,-0.192083 -0.3776,-0.383259 -0.56968,-0.571932 -0.18943,-0.192836 -0.38133,-0.382534 -0.57416,-0.571931 -0.19015,-0.193588 -0.38058,-0.386242 -0.57415,-0.576366 -0.19673,-0.200303 -0.3959,-0.397506 -0.59631,-0.594097 -0.17875,-0.181801 -0.35911,-0.362159 -0.54092,-0.540898 -0.19804,-0.201927 -0.39672,-0.402587 -0.59852,-0.60075 -0.19231,-0.195845 -0.38718,-0.388501 -0.58301,-0.580798 -0.19305,-0.196597 -0.38642,-0.39221 -0.58303,-0.585232 -0.19961,-0.203315 -0.40175,-0.403476 -0.60517,-0.602967 -0.18166,-0.184802 -0.36498,-0.368122 -0.54978,-0.549764 -0.20717,-0.211292 -0.41606,-0.420183 -0.62735,-0.627352 -0.18308,-0.186306 -0.36788,-0.371104 -0.55419,-0.554197 -0.20239,-0.206446 -0.4055,-0.411537 -0.61183,-0.614051 -0.19665,-0.200359 -0.39595,-0.397449 -0.59632,-0.594099 -0.20361,-0.20746 -0.40868,-0.412784 -0.61628,-0.616268 -0.18527,-0.188551 -0.37227,-0.375585 -0.56084,-0.560846 -0.21079,-0.215052 -0.42336,-0.427654 -0.63845,-0.638435 -0.19256,-0.196015 -0.38686,-0.390557 -0.583,-0.583016 -0.19943,-0.203224 -0.40194,-0.403559 -0.60518,-0.602966 -0.20014,-0.203978 -0.40121,-0.407269 -0.60519,-0.6074 -0.19463,-0.198386 -0.39138,-0.394918 -0.58967,-0.589667 -0.20745,-0.211713 -0.41574,-0.421991 -0.62734,-0.629569 -0.20208,-0.205998 -0.40584,-0.409752 -0.61183,-0.611834 -0.20245,-0.206382 -0.40768,-0.409386 -0.61405,-0.611832 -0.20319,-0.207137 -0.40691,-0.413096 -0.61406,-0.616268 -0.2039,-0.20789 -0.41058,-0.41237 -0.61849,-0.616269 -0.20463,-0.208641 -0.40984,-0.416077 -0.61848,-0.620699 -0.21121,-0.215365 -0.42516,-0.427356 -0.64065,-0.638435 -0.19362,-0.197209 -0.39023,-0.39162 -0.58743,-0.585233 -0.21219,-0.216626 -0.42417,-0.432787 -0.64067,-0.645086 -0.20681,-0.210901 -0.41644,-0.418338 -0.62734,-0.625134 -0.20753,-0.211657 -0.41571,-0.42205 -0.62735,-0.629569 -0.21411,-0.218377 -0.43103,-0.433328 -0.64953,-0.647302 -0.19653,-0.200217 -0.3961,-0.397589 -0.59632,-0.594098 -0.21506,-0.219643 -0.43,-0.43876 -0.64951,-0.653954 -0.21594,-0.220268 -0.43578,-0.43595 -0.65618,-0.651736 -0.20455,-0.208435 -0.40992,-0.416282 -0.61847,-0.620701 -0.20479,-0.208919 -0.41191,-0.415809 -0.62072,-0.620702 -0.21759,-0.222267 -0.43623,-0.442887 -0.65837,-0.660603 -0.21846,-0.2229 -0.4398,-0.442288 -0.66283,-0.660602 -8.11888,-8.27478 -19.42111,-13.41664 -31.922749,-13.41664 z"
       id="path7140"
       clip-path="none"
       inkscape:connector-curvature="0" />
    <path
       sodipodi:nodetypes="ccsccsccsccssccsccsccsccsccsccsccsccassccsccsccsccsaccsccsccscccccsccsccsccssc"
       inkscape:connector-curvature="0"
       id="path4238"
       d="m 81.505841,8.3407988 28.897099,0 c 0,0 1.94913,0.1066514 2.687,0.6599656 0.82801,0.6209027 1.55564,2.6870056 1.55564,2.6870056 l 3.77125,18.526198 c 0,0 0.72059,1.904183 1.74418,2.969849 0.62579,0.651501 2.07418,1.744196 2.07418,1.744196 l 12.30366,7.165349 c 0,0 1.17935,0.711295 3.53553,1.225652 2.64114,0.576565 4.33693,0 4.33693,0 l 16.16917,-5.421152 c 0,0 2.24924,-0.557551 3.34697,-0.329983 0.47522,0.09852 0.92307,0.169231 1.44066,0.498154 0.51758,0.328923 1.10493,0.916059 1.10493,0.916059 l 14.70782,25.455845 c 0,0 0.90052,1.907622 0.70711,2.875567 -0.34074,1.705382 -1.60279,2.734146 -1.60279,2.734146 L 164.4259,82.869853 c 0,0 -1.38461,1.657299 -1.79134,2.639866 -0.54456,1.315531 -0.80139,4.1955 -0.80139,4.1955 l 0,14.424981 c 0,0 0.41361,1.82428 0.84853,2.63986 0.58429,1.0957 2.30988,2.92271 2.30988,2.92271 l 12.82222,11.83225 c 0,0 1.38125,1.6164 1.74418,2.59273 0.77283,2.07905 -0.0943,3.2527 -0.0943,3.2527 l -15.65062,26.25722 c 0,0 -0.41689,0.85116 -2.40416,0.94282 -1.08125,0.0498 -3.20556,-0.51855 -3.20556,-0.51855 l -16.92341,-5.60972 c 0,0 -1.40599,-0.12299 -2.96986,0.11791 -1.47774,0.22757 -2.96985,0.8721 -2.96985,0.8721 l -12.8222,7.49533 c 0,0 -1.70156,1.55971 -2.35703,2.49845 -1.20191,1.72134 -1.9799,3.77123 -1.9799,3.77123 l -3.25269,16.54629 c 0,0 -0.28921,0.62412 -0.45775,0.92351 -0.2776,0.4931 -0.60828,1.09351 -0.90932,1.43353 -0.58747,0.66354 -1.30403,1.26004 -2.12131,1.60277 -0.19776,0.0829 -0.63641,0.0943 -0.63641,0.0943 l -30.617718,0.0944 c 0,0 -1.013771,-0.11802 -1.979899,-1.1785 -1.10084,-1.20839 -1.084231,-2.02705 -1.084231,-2.02705 l -3.865516,-18.71475 c 0,0 -1.123813,-2.54976 -2.027041,-3.58268 -0.804752,-0.92028 -2.922707,-2.2156 -2.922707,-2.2156 l -11.926534,-6.8825 c 0,0 -2.001019,-0.8494 -3.06413,-0.89568 -1.921142,-0.0836 -5.656855,1.13138 -5.656855,1.13138 l -14.849242,4.66691 c 0,0 -1.134516,0.35447 -1.791336,0.28286 -0.47746,-0.0521 -1.254723,-0.11495 -1.843021,-0.3219 -0.404555,-0.14232 -1.126828,-0.62091 -1.126828,-0.62091 L 12.303638,127.22904 c 0,0 -0.479816,-1.67187 -0.329983,-2.49845 0.190583,-1.05138 1.508494,-2.82842 1.508494,-2.82842 L 27.0586,109.64565 c 0,0 1.274328,-1.4344 1.744196,-2.26274 0.549966,-0.96954 1.225652,-3.11126 1.225652,-3.11126 l 0,-15.839203 c 0,0 -0.226127,-1.684551 -0.565685,-2.451304 -0.557748,-1.259445 -2.357024,-3.394112 -2.357024,-3.394112 L 13.670711,69.859109 c -0.730575,-0.729853 -0.943106,-0.897039 -1.508495,-2.545585 -0.262426,-1.48261 0.03025,-1.80003 0.329985,-2.781287 L 27.341443,38.557848 c 0,0 0.74706,-1.146088 2.262741,-1.319932 1.353495,-0.155242 4.054079,0.518545 4.054079,0.518545 l 13.623591,4.431202 c 0,0 3.358832,1.013878 5.374011,1.084231 1.149893,0.04014 2.309882,-0.329984 2.309882,-0.329984 l 15.744911,-9.38095 c 0,0 1.788036,-0.818709 2.404164,-2.922707 0.349563,-1.19372 0.801387,-3.629816 0.801387,-3.629816 l 3.016989,-15.226366 c 0,0 0.360577,-1.293549 0.848528,-1.8856179 0.402856,-0.4888167 0.655309,-0.8086523 1.225652,-1.0842303 0.582848,-0.2816204 2.498463,-0.471424 2.498463,-0.471424 z"
       style="display:inline;opacity:0.1;fill:url(#radialGradient4240);fill-opacity:1;fill-rule:evenodd;stroke:none;stroke-width:1px;stroke-linecap:butt;stroke-linejoin:miter;stroke-opacity:1" />
    <path
       id="path7058"
       d="m 96.166527,56.606396 c -21.757435,0 -39.415644,17.658207 -39.415644,39.415643 0,21.757421 17.658209,39.415651 39.415644,39.415651 21.757423,0 39.415643,-17.65823 39.415643,-39.415651 0,-21.757436 -17.65822,-39.415643 -39.415643,-39.415643 z m 0,70.948174 c -17.421716,0 -31.532514,-14.11084 -31.532514,-31.532531 0,-7.291896 2.483185,-13.992553 6.661245,-19.313666 l 44.184932,44.184937 c -5.3211,4.17805 -12.02178,6.66126 -19.313663,6.66126 z M 121.03781,115.33569 76.852862,71.150768 c 5.321113,-4.178059 12.021769,-6.661243 19.313665,-6.661243 17.421713,0 31.532533,14.110799 31.532533,31.532514 0,7.291891 -2.4832,13.992561 -6.66125,19.313651 z"
       inkscape:connector-curvature="0"
       style="fill:#ffffff;fill-opacity:1;filter:url(#filter4182)"
       transform="matrix(1.134996,0,0,1.134996,-12.946504,-12.534783)" />
    <path
       style="opacity:0.2;fill:#000000;fill-opacity:1"
       inkscape:connector-curvature="0"
       d="m 96.202116,51.713246 c -24.694599,0 -44.736596,20.041997 -44.736596,44.736601 0,24.694603 20.041997,44.736633 44.736596,44.736633 24.694604,0 44.736624,-20.04203 44.736624,-44.736633 0,-24.694604 -20.04202,-44.736601 -44.736624,-44.736601 z m 0,80.525914 c -19.773577,0 -35.789277,-16.01578 -35.789277,-35.789313 0,-8.276277 2.818407,-15.881494 7.560487,-21.920932 l 50.149754,50.149735 c -6.03945,4.74207 -13.64471,7.56051 -21.920964,7.56051 z M 124.43092,118.37079 74.281184,68.221051 c 6.039443,-4.742081 13.64466,-7.560483 21.920932,-7.560483 19.773584,0 35.789294,16.015699 35.789294,35.789279 0,8.276253 -2.81842,15.881493 -7.56049,21.920943 z"
       id="path8618" />
    <path
       id="path8622"
       d="m 96.202116,51.713246 c -24.694599,0 -44.736596,19.838603 -44.736596,44.282601 0,24.443983 20.041997,44.282613 44.736596,44.282613 24.694604,0 44.736624,-19.83863 44.736624,-44.282613 0,-24.443998 -20.04202,-44.282601 -44.736624,-44.282601 z m 0,79.708724 c -19.773577,0 -35.789277,-15.85324 -35.789277,-35.426123 0,-8.192286 2.818407,-15.720322 7.560487,-21.698473 l 50.149754,49.640756 c -6.03945,4.69398 -13.64471,7.48384 -21.920964,7.48384 z M 124.43092,117.6943 74.281184,68.053524 c 6.039443,-4.693954 13.64466,-7.483762 21.920932,-7.483762 19.773584,0 35.789294,15.853173 35.789294,35.426085 0,8.192263 -2.81842,15.720333 -7.56049,21.698453 z"
       inkscape:connector-curvature="0"
       style="opacity:1;fill:#ffffff;fill-opacity:1" />
  </g>
  <g
     inkscape:label="circle 1"
     id="layer1"
     inkscape:groupmode="layer" />
  <g
     inkscape:label="circle 2"
     id="layer2"
     inkscape:groupmode="layer"
     sodipodi:insensitive="true">
    <path
       sodipodi:nodetypes="ccsccsccsccssccsccsccsccsccsccsccsccassccsccsccsccsaccsccsccscccccsccsccsccssc"
       inkscape:connector-curvature="0"
       id="path5219"
       d="m 81.505842,8.3407984 28.897098,0 c 0,0 1.94913,0.1066516 2.687,0.6599663 0.82801,0.6209027 1.55564,2.6870053 1.55564,2.6870053 l 3.77124,18.526198 c 0,0 0.7206,1.904183 1.74419,2.969849 0.62578,0.651501 2.07418,1.744196 2.07418,1.744196 l 12.30366,7.165349 c 0,0 1.17936,0.711296 3.53553,1.225652 2.64114,0.576565 4.33693,0 4.33693,0 l 16.16917,-5.421152 c 0,0 2.24924,-0.557551 3.34697,-0.329983 0.47523,0.09852 0.92307,0.169231 1.44066,0.498154 0.51759,0.328923 1.10493,0.916059 1.10493,0.916059 l 14.70782,25.455844 c 0,0 0.90051,1.907623 0.70711,2.875568 -0.34074,1.705382 -1.60278,2.734146 -1.60278,2.734146 L 164.4259,82.869853 c 0,0 -1.38461,1.657299 -1.79134,2.639866 -0.54456,1.31553 -0.80139,4.1955 -0.80139,4.1955 l 0,14.424981 c 0,0 0.41361,1.82428 0.84853,2.63986 0.5843,1.0957 2.30988,2.92271 2.30988,2.92271 l 12.82221,11.83225 c 0,0 1.38126,1.6164 1.74419,2.59273 0.77283,2.07905 -0.0943,3.25269 -0.0943,3.25269 l -15.65063,26.25723 c 0,0 -0.41688,0.85116 -2.40416,0.94281 -1.08125,0.0499 -3.20555,-0.51854 -3.20555,-0.51854 l -16.92342,-5.60972 c 0,0 -1.40598,-0.12299 -2.96985,0.11785 -1.47774,0.22757 -2.96985,0.8721 -2.96985,0.8721 l -12.8222,7.49533 c 0,0 -1.70156,1.55971 -2.35703,2.49845 -1.20191,1.72134 -1.9799,3.77123 -1.9799,3.77123 l -3.25269,16.5463 c 0,0 -0.28922,0.62411 -0.45776,0.9235 -0.27759,0.4931 -0.60827,1.09351 -0.90931,1.43353 -0.58747,0.66355 -1.30403,1.26004 -2.12132,1.60277 -0.19776,0.0829 -0.6364,0.0943 -0.6364,0.0943 l -30.617721,0.0943 c 0,0 -1.013771,-0.11799 -1.979899,-1.17851 -1.10084,-1.20839 -1.08423,-2.02704 -1.08423,-2.02704 l -3.865517,-18.71476 c 0,0 -1.123813,-2.54976 -2.02704,-3.58267 -0.804753,-0.92029 -2.922708,-2.2156 -2.922708,-2.2156 l -11.926534,-6.88251 c 0,0 -2.001019,-0.8494 -3.06413,-0.89567 -1.921142,-0.0836 -5.656854,1.13137 -5.656854,1.13137 l -14.849242,4.66691 c 0,0 -1.134516,0.35448 -1.791337,0.28286 -0.47746,-0.0521 -1.254723,-0.11493 -1.84302,-0.32189 -0.404556,-0.14232 -1.126829,-0.62092 -1.126829,-0.62092 L 12.303638,127.22904 c 0,0 -0.479816,-1.67187 -0.329983,-2.49845 0.190583,-1.05138 1.508494,-2.82842 1.508494,-2.82842 L 27.0586,109.64565 c 0,0 1.274328,-1.43441 1.744196,-2.26274 0.549966,-0.96954 1.225652,-3.11127 1.225652,-3.11127 l 0,-15.839193 c 0,0 -0.226127,-1.684551 -0.565685,-2.451304 C 28.905016,84.721698 27.10574,82.587031 27.10574,82.587031 L 13.670711,69.859108 C 12.940136,69.129255 12.727605,68.96207 12.162216,67.313524 11.89979,65.830914 12.19246,65.513494 12.4922,64.532237 L 27.341442,38.557848 c 0,0 0.747061,-1.146088 2.262742,-1.319932 1.353495,-0.155242 4.054079,0.518545 4.054079,0.518545 l 13.623591,4.431202 c 0,0 3.358833,1.013879 5.374011,1.084231 1.149893,0.04014 2.309882,-0.329984 2.309882,-0.329984 l 15.744911,-9.38095 c 0,0 1.788037,-0.818709 2.404164,-2.922707 0.349564,-1.19372 0.801387,-3.629816 0.801387,-3.629816 l 3.016989,-15.226366 c 0,0 0.360577,-1.293549 0.848528,-1.8856177 0.402856,-0.4888166 0.655309,-0.808652 1.225652,-1.0842304 0.582848,-0.2816206 2.498464,-0.4714245 2.498464,-0.4714245 z"
       style="display:inline;opacity:0.1;fill:url(#radialGradient5229);fill-opacity:1;fill-rule:evenodd;stroke:none;stroke-width:1px;stroke-linecap:butt;stroke-linejoin:miter;stroke-opacity:1" />
  </g>
</svg>
