<?xml version="1.0" encoding="UTF-8" standalone="no"?>
<!-- Created with Inkscape (http://www.inkscape.org/) -->

<svg
   xmlns:dc="http://purl.org/dc/elements/1.1/"
   xmlns:cc="http://creativecommons.org/ns#"
   xmlns:rdf="http://www.w3.org/1999/02/22-rdf-syntax-ns#"
   xmlns:svg="http://www.w3.org/2000/svg"
   xmlns="http://www.w3.org/2000/svg"
   xmlns:xlink="http://www.w3.org/1999/xlink"
   xmlns:sodipodi="http://sodipodi.sourceforge.net/DTD/sodipodi-0.dtd"
   xmlns:inkscape="http://www.inkscape.org/namespaces/inkscape"
   width="192"
   height="192"
   viewBox="0 0 192 192"
   id="svg2"
   version="1.1"
   inkscape:version="0.91 r13725"
   sodipodi:docname="audio_fx.svg"
   inkscape:export-filename="C:\createme\Material Design Icons\PNG\audio_fx.png"
   inkscape:export-xdpi="90"
   inkscape:export-ydpi="90">
  <sodipodi:namedview
     id="base"
     pagecolor="#ffffff"
     bordercolor="#666666"
     borderopacity="1.0"
     inkscape:pageopacity="0.0"
     inkscape:pageshadow="2"
     inkscape:zoom="2.8284272"
     inkscape:cx="186.24997"
     inkscape:cy="79.116699"
     inkscape:document-units="px"
     inkscape:current-layer="layer2"
     showgrid="false"
     units="px"
     showguides="true"
     inkscape:window-width="1920"
     inkscape:window-height="1017"
     inkscape:window-x="-8"
     inkscape:window-y="-8"
     inkscape:window-maximized="1">
    <sodipodi:guide
       inkscape:color="rgb(0,0,255)"
       inkscape:label=""
       id="guide3354"
       orientation="0,1"
       position="0,184" />
    <sodipodi:guide
       inkscape:color="rgb(0,0,255)"
       inkscape:label=""
       id="guide3356"
       orientation="1,0"
       position="8,0" />
    <sodipodi:guide
       inkscape:color="rgb(0,0,255)"
       inkscape:label=""
       id="guide3358"
       orientation="0,1"
       position="0,8" />
    <sodipodi:guide
       inkscape:color="rgb(0,0,255)"
       inkscape:label=""
       id="guide3360"
       orientation="1,0"
       position="184,0" />
    <sodipodi:guide
       inkscape:color="rgb(0,0,255)"
       inkscape:label=""
       id="guide3362"
       orientation="0,1"
       position="0,20" />
    <sodipodi:guide
       inkscape:color="rgb(0,0,255)"
       inkscape:label=""
       id="guide3364"
       orientation="1,0"
       position="172,0" />
    <sodipodi:guide
       inkscape:color="rgb(0,0,255)"
       inkscape:label=""
       id="guide3366"
       orientation="0,1"
       position="96,172" />
    <sodipodi:guide
       inkscape:color="rgb(0,0,255)"
       inkscape:label=""
       id="guide3368"
       orientation="1,0"
       position="20,0" />
    <sodipodi:guide
       inkscape:color="rgb(0,0,255)"
       inkscape:label=""
       id="guide3370"
       orientation="0,1"
       position="0,32" />
    <sodipodi:guide
       inkscape:color="rgb(0,0,255)"
       inkscape:label=""
       id="guide3372"
       orientation="1,0"
       position="160,0" />
    <sodipodi:guide
       inkscape:color="rgb(0,0,255)"
       inkscape:label=""
       id="guide3374"
       orientation="0,1"
       position="0,160" />
    <sodipodi:guide
       inkscape:color="rgb(0,0,255)"
       inkscape:label=""
       id="guide3376"
       orientation="1,0"
       position="32,0" />
    <inkscape:grid
       id="grid3378"
       type="xygrid" />
    <sodipodi:guide
       inkscape:color="rgb(255,0,0)"
       inkscape:label=""
       id="guide5849"
       orientation="-0.70710678,0.70710678"
       position="0,0" />
    <sodipodi:guide
       inkscape:color="rgb(255,0,0)"
       inkscape:label=""
       id="guide5851"
       orientation="1,0"
       position="124,0" />
    <sodipodi:guide
       inkscape:color="rgb(255,0,0)"
       inkscape:label=""
       id="guide5853"
       orientation="0.70710678,0.70710678"
       position="0,192" />
    <sodipodi:guide
       inkscape:color="rgb(255,0,0)"
       inkscape:label=""
       id="guide5855"
       orientation="1,0"
       position="96,0" />
    <sodipodi:guide
       inkscape:color="rgb(255,0,0)"
       inkscape:label=""
       id="guide5859"
       orientation="0,1"
       position="0,96" />
    <sodipodi:guide
       inkscape:color="rgb(255,0,0)"
       inkscape:label=""
       id="guide5861"
       orientation="0,1"
       position="0,124" />
    <sodipodi:guide
       inkscape:color="rgb(255,0,0)"
       inkscape:label=""
       id="guide5863"
       orientation="0,1"
       position="0,68" />
    <sodipodi:guide
       inkscape:color="rgb(255,0,0)"
       inkscape:label=""
       id="guide5865"
       orientation="1,0"
       position="68,0" />
    <sodipodi:guide
       id="guide5869"
       orientation="-192,0"
       position="192,0" />
    <sodipodi:guide
       id="guide5871"
       orientation="0,-192"
       position="192,192" />
  </sodipodi:namedview>
  <defs
     id="defs4">
    <linearGradient
       inkscape:collect="always"
       id="linearGradient6401">
      <stop
         style="stop-color:#000000;stop-opacity:1;"
         offset="0"
         id="stop6403" />
      <stop
         style="stop-color:#000000;stop-opacity:0;"
         offset="1"
         id="stop6405" />
    </linearGradient>
    <linearGradient
       id="linearGradient4198"
       inkscape:collect="always">
      <stop
         id="stop4200"
         offset="0"
         style="stop-color:#ffffff;stop-opacity:1;" />
      <stop
         id="stop4202"
         offset="1"
         style="stop-color:#ffffff;stop-opacity:0;" />
    </linearGradient>
    <clipPath
       id="clipPath10430"
       clipPathUnits="userSpaceOnUse">
      <path
         id="path10432"
         d="m 1241.028,39.3409 224.537,0 0,178.031 -224.537,0 0,-178.031 z"
         inkscape:connector-curvature="0" />
    </clipPath>
    <clipPath
       id="clipPath10438"
       clipPathUnits="userSpaceOnUse">
      <path
         id="path10440"
         d="m 1260.156,213.3477 0,-170.2268 191.3337,0 0,170.2268"
         inkscape:connector-curvature="0" />
    </clipPath>
    <filter
       id="filter5248"
       inkscape:label="Drop Shadow"
       style="color-interpolation-filters:sRGB;">
      <feFlood
         id="feFlood5250"
         result="flood"
         flood-color="rgb(0,0,0)"
         flood-opacity="0.2" />
      <feComposite
         id="feComposite5252"
         result="composite1"
         operator="in"
         in2="SourceGraphic"
         in="flood" />
      <feGaussianBlur
         id="feGaussianBlur5254"
         result="blur"
         stdDeviation="2"
         in="composite1" />
      <feOffset
         id="feOffset5256"
         result="offset"
         dy="4"
         dx="4.57967e-015" />
      <feComposite
         id="feComposite5258"
         result="fbSourceGraphic"
         operator="over"
         in2="offset"
         in="SourceGraphic" />
      <feColorMatrix
         id="feColorMatrix4818"
         values="0 0 0 -1 0 0 0 0 -1 0 0 0 0 -1 0 0 0 0 1 0"
         in="fbSourceGraphic"
         result="fbSourceGraphicAlpha" />
      <feFlood
         in="fbSourceGraphic"
         result="flood"
         flood-color="rgb(0,0,0)"
         flood-opacity="0.2"
         id="feFlood4820" />
      <feComposite
         result="composite1"
         operator="in"
         in="flood"
         in2="fbSourceGraphic"
         id="feComposite4822" />
      <feGaussianBlur
         result="blur"
         stdDeviation="2"
         in="composite1"
         id="feGaussianBlur4824" />
      <feOffset
         result="offset"
         dy="0"
         dx="0"
         id="feOffset4826" />
      <feComposite
         result="composite2"
         operator="over"
         in="fbSourceGraphic"
         in2="offset"
         id="feComposite4828" />
    </filter>
    <radialGradient
       gradientTransform="matrix(0,2,-2,0,24,-8)"
       gradientUnits="userSpaceOnUse"
       r="88"
       fy="8"
       fx="8"
       cy="8"
       cx="8"
       id="radialGradient4204"
       xlink:href="#linearGradient4198"
       inkscape:collect="always" />
    <linearGradient
       inkscape:collect="always"
       xlink:href="#linearGradient6401"
       id="linearGradient6407"
       x1="57.098213"
       y1="57.098213"
       x2="160"
       y2="160"
       gradientUnits="userSpaceOnUse" />
    <filter
       style="color-interpolation-filters:sRGB;"
       inkscape:label="Drop Shadow"
       id="filter6409"
       height="1.3">
      <feFlood
         flood-opacity="0.2"
         flood-color="rgb(0,0,0)"
         result="flood"
         id="feFlood6411" />
      <feComposite
         in="flood"
         in2="SourceGraphic"
         operator="in"
         result="composite1"
         id="feComposite6413" />
      <feGaussianBlur
         in="composite1"
         stdDeviation="4"
         result="blur"
         id="feGaussianBlur6415" />
      <feOffset
         dx="0"
         dy="4"
         result="offset"
         id="feOffset6417" />
      <feComposite
         in="SourceGraphic"
         in2="offset"
         operator="over"
         result="composite2"
         id="feComposite6419" />
    </filter>
  </defs>
  <metadata
     id="metadata7">
    <rdf:RDF>
      <cc:Work
         rdf:about="">
        <dc:format>image/svg+xml</dc:format>
        <dc:type
           rdf:resource="http://purl.org/dc/dcmitype/StillImage" />
        <dc:title></dc:title>
      </cc:Work>
    </rdf:RDF>
  </metadata>
  <g
     inkscape:label="background"
     id="layer2"
     inkscape:groupmode="layer">
    <circle
       r="88"
       cy="96"
       cx="96"
       id="path4184"
       style="display:inline;opacity:1;fill:#212121;fill-opacity:1;fill-rule:nonzero;stroke:none;stroke-width:2.94899988;stroke-linecap:butt;stroke-linejoin:miter;stroke-miterlimit:4;stroke-dasharray:none;stroke-dashoffset:0;stroke-opacity:1;filter:url(#filter5248)" />
    <path
       id="path4843"
       d="M 96 24 A 8 8 0 0 0 88 32 A 8 8 0 0 0 96 40 A 8 8 0 0 0 104 32 A 8 8 0 0 0 96 24 z M 51 43 A 8 8 0 0 0 43 51 A 8 8 0 0 0 51 59 A 8 8 0 0 0 59 51 A 8 8 0 0 0 51 43 z M 141 43 A 8 8 0 0 0 133 51 A 8 8 0 0 0 141 59 A 8 8 0 0 0 149 51 A 8 8 0 0 0 141 43 z M 32 88 A 8 8 0 0 0 24 96 A 8 8 0 0 0 32 104 A 8 8 0 0 0 40 96 A 8 8 0 0 0 32 88 z M 160 88 A 8 8 0 0 0 152 96 A 8 8 0 0 0 160 104 A 8 8 0 0 0 168 96 A 8 8 0 0 0 160 88 z M 51 133 A 8 8 0 0 0 43 141 A 8 8 0 0 0 51 149 A 8 8 0 0 0 59 141 A 8 8 0 0 0 51 133 z M 96 152 A 8 8 0 0 0 88 160 A 8 8 0 0 0 96 168 A 8 8 0 0 0 104 160 A 8 8 0 0 0 96 152 z "
       style="opacity:1;fill:#a7ffeb;fill-opacity:1;fill-rule:nonzero;stroke:none;stroke-width:2.94899988;stroke-linecap:butt;stroke-linejoin:miter;stroke-miterlimit:4;stroke-dasharray:none;stroke-dashoffset:0;stroke-opacity:1" />
    <path
       style="opacity:0.2;fill:url(#linearGradient6407);fill-opacity:1;fill-rule:nonzero;stroke:none;stroke-width:2.94899988;stroke-linecap:butt;stroke-linejoin:miter;stroke-miterlimit:4;stroke-dasharray:none;stroke-dashoffset:0;stroke-opacity:1"
       d="M 96.568359 56.568359 C 85.959699 56.568359 75.786611 60.783701 68.285156 68.285156 C 60.783701 75.786611 56.568359 85.959699 56.568359 96.568359 C 56.568359 107.17702 60.783701 117.35206 68.285156 124.85352 C 68.379845 124.9482 68.480636 125.03527 68.576172 125.12891 C 68.669811 125.22444 68.756875 125.32523 68.851562 125.41992 C 68.94781 125.51617 69.049363 125.60601 69.146484 125.70117 C 69.23852 125.79504 69.32492 125.89328 69.417969 125.98633 C 69.511017 126.07938 69.609258 126.16578 69.703125 126.25781 C 69.79765 126.35427 69.886828 126.45519 69.982422 126.55078 C 70.074818 126.64318 70.172422 126.72892 70.265625 126.82031 C 70.36015 126.91677 70.449328 127.01769 70.544922 127.11328 C 70.638623 127.20698 70.7375 127.29404 70.832031 127.38672 C 70.924705 127.48125 71.011767 127.58013 71.105469 127.67383 C 71.198852 127.76721 71.298371 127.85295 71.392578 127.94531 C 71.484941 128.03952 71.570679 128.13904 71.664062 128.23242 C 71.757367 128.32573 71.855092 128.41357 71.949219 128.50586 C 72.041504 128.59999 72.129353 128.69771 72.222656 128.79102 C 72.309179 128.87754 72.401051 128.95732 72.488281 129.04297 C 72.586384 129.14316 72.678087 129.2484 72.777344 129.34766 C 72.8766 129.44691 72.981844 129.53862 73.082031 129.63672 C 73.167039 129.72329 73.246161 129.81452 73.332031 129.90039 C 73.425669 129.99403 73.524674 130.08122 73.619141 130.17383 C 73.709261 130.2657 73.793675 130.36203 73.884766 130.45312 C 73.971548 130.53991 74.062896 130.62113 74.150391 130.70703 C 74.246892 130.80555 74.33793 130.90824 74.435547 131.00586 C 74.534151 131.10446 74.638759 131.1955 74.738281 131.29297 C 74.822649 131.37887 74.90111 131.46947 74.986328 131.55469 C 75.076767 131.64513 75.17246 131.72888 75.263672 131.81836 C 75.355133 131.91163 75.440741 132.0091 75.533203 132.10156 C 75.625855 132.19421 75.722943 132.2814 75.816406 132.37305 C 75.90556 132.46392 75.989974 132.55833 76.080078 132.64844 C 76.171169 132.73953 76.2675 132.82394 76.359375 132.91406 C 76.449495 133.00594 76.533909 133.10227 76.625 133.19336 C 76.715757 133.28412 76.810809 133.36919 76.902344 133.45898 C 76.992136 133.55052 77.077212 133.64557 77.167969 133.73633 C 77.258407 133.82677 77.354101 133.91052 77.445312 134 C 77.534795 134.09121 77.618546 134.18691 77.708984 134.27734 C 77.792563 134.36092 77.880605 134.43872 77.964844 134.52148 C 78.060707 134.61934 78.151083 134.7214 78.248047 134.81836 C 78.344358 134.91467 78.445781 135.00438 78.542969 135.09961 C 78.62573 135.18385 78.703531 135.27189 78.787109 135.35547 C 78.87559 135.44395 78.969373 135.52572 79.058594 135.61328 C 79.148653 135.70509 79.23319 135.80155 79.324219 135.89258 C 79.412365 135.98072 79.504869 136.06315 79.59375 136.15039 C 79.683483 136.24186 79.76868 136.33704 79.859375 136.42773 C 79.948572 136.51693 80.042864 136.59923 80.132812 136.6875 C 80.220957 136.77732 80.303505 136.87186 80.392578 136.96094 C 80.48144 137.0498 80.574454 137.13276 80.664062 137.2207 C 80.75188 137.31019 80.835089 137.40345 80.923828 137.49219 C 81.012309 137.58067 81.106093 137.66244 81.195312 137.75 C 81.282877 137.83922 81.364644 137.933 81.453125 138.02148 C 81.541546 138.10991 81.63545 138.19179 81.724609 138.2793 C 81.812115 138.36846 81.894001 138.46236 81.982422 138.55078 C 82.064042 138.6324 82.150171 138.70822 82.232422 138.78906 C 82.325734 138.88426 82.41346 138.98377 82.507812 139.07812 C 82.602166 139.17248 82.70168 139.2602 82.796875 139.35352 C 82.877076 139.4351 82.952235 139.52059 83.033203 139.60156 C 83.120638 139.689 83.212624 139.77088 83.300781 139.85742 C 83.38744 139.9457 83.469084 140.03744 83.556641 140.125 C 83.644075 140.21243 83.736062 140.29432 83.824219 140.38086 C 83.910759 140.46902 83.992644 140.561 84.080078 140.64844 C 84.168287 140.73665 84.260665 140.81895 84.349609 140.90625 C 84.434289 140.99248 84.514073 141.08243 84.599609 141.16797 C 84.685145 141.2535 84.7751 141.33329 84.861328 141.41797 C 84.948507 141.50679 85.031054 141.59941 85.119141 141.6875 C 85.206697 141.77506 85.298438 141.8567 85.386719 141.94336 C 85.470759 142.02892 85.549882 142.11824 85.634766 142.20312 C 85.7222 142.29056 85.814187 142.37244 85.902344 142.45898 C 85.986384 142.54455 86.065507 142.63387 86.150391 142.71875 C 86.237507 142.80587 86.330135 142.88643 86.417969 142.97266 C 86.501697 143.0579 86.579498 143.14786 86.664062 143.23242 C 86.744323 143.31268 86.829286 143.38729 86.910156 143.4668 C 87.000276 143.55867 87.08469 143.655 87.175781 143.74609 C 87.267525 143.83784 87.364492 143.92291 87.457031 144.01367 C 87.535311 144.09327 87.60849 144.17685 87.6875 144.25586 C 87.771078 144.33944 87.859121 144.41724 87.943359 144.5 C 88.028739 144.58695 88.109063 144.67742 88.195312 144.76367 C 88.281443 144.8498 88.372153 144.93036 88.458984 145.01562 C 88.541745 145.09986 88.619547 145.18791 88.703125 145.27148 C 88.788937 145.3573 88.880289 145.43653 88.966797 145.52148 C 89.049246 145.6054 89.125724 145.69408 89.208984 145.77734 C 89.293215 145.86157 89.381895 145.94004 89.466797 146.02344 C 89.550197 146.10834 89.62866 146.19702 89.712891 146.28125 C 89.796746 146.36511 89.886183 146.44236 89.970703 146.52539 C 90.05385 146.61003 90.130871 146.69923 90.214844 146.7832 C 90.298699 146.86706 90.388136 146.94431 90.472656 147.02734 C 90.555689 147.11186 90.632941 147.2013 90.716797 147.28516 C 90.79907 147.36743 90.885837 147.44391 90.96875 147.52539 C 91.05221 147.61035 91.130553 147.69891 91.214844 147.7832 C 91.299018 147.86738 91.387813 147.94595 91.472656 148.0293 C 91.554137 148.11221 91.630618 148.19898 91.712891 148.28125 C 91.797064 148.36542 91.885859 148.444 91.970703 148.52734 C 92.051544 148.60959 92.127364 148.69572 92.208984 148.77734 C 92.291592 148.85995 92.379638 148.93577 92.462891 149.01758 C 92.5447 149.10083 92.620517 149.18888 92.703125 149.27148 C 92.785342 149.3537 92.872222 149.43029 92.955078 149.51172 C 93.036617 149.59469 93.112982 149.68134 93.195312 149.76367 C 93.27753 149.84589 93.364409 149.92248 93.447266 150.00391 C 93.528692 150.08676 93.605283 150.17364 93.6875 150.25586 C 93.767815 150.33617 93.852668 150.41067 93.933594 150.49023 C 94.015773 150.57387 94.092796 150.66116 94.175781 150.74414 C 94.258651 150.82701 94.346168 150.90426 94.429688 150.98633 C 94.509248 151.06725 94.583748 151.15211 94.664062 151.23242 C 94.74628 151.31464 94.833159 151.39123 94.916016 151.47266 C 94.995576 151.55358 95.070075 151.63843 95.150391 151.71875 C 95.231359 151.79972 95.31685 151.87488 95.398438 151.95508 C 95.478638 152.03667 95.553798 152.12216 95.634766 152.20312 C 95.710128 152.27849 95.789335 152.34913 95.865234 152.42383 C 95.950554 152.51072 96.030998 152.60131 96.117188 152.6875 C 96.204363 152.77468 96.296872 152.85512 96.384766 152.94141 C 96.457918 153.01571 96.52582 153.09418 96.599609 153.16797 C 96.67862 153.24698 96.762196 153.32016 96.841797 153.39844 C 96.922584 153.48063 96.998513 153.56687 97.080078 153.64844 C 97.161104 153.72946 97.246478 153.80451 97.328125 153.88477 C 97.405764 153.9637 97.478283 154.04664 97.556641 154.125 C 97.637554 154.20591 97.723155 154.28118 97.804688 154.36133 C 97.882327 154.44027 97.954845 154.5232 98.033203 154.60156 C 98.112812 154.68117 98.197136 154.75512 98.277344 154.83398 C 98.355679 154.91364 98.428747 154.99711 98.507812 155.07617 C 98.587087 155.15545 98.670131 155.23005 98.75 155.30859 C 98.828539 155.38846 98.903147 155.47151 98.982422 155.55078 C 99.061114 155.62947 99.145332 155.70133 99.224609 155.7793 C 99.302577 155.85857 99.374433 155.94279 99.453125 156.02148 C 99.53083 156.09919 99.61313 156.17105 99.691406 156.24805 C 99.770274 156.32825 99.844219 156.41258 99.923828 156.49219 C 99.99566 156.56402 100.07221 156.62994 100.14453 156.70117 C 100.22826 156.78641 100.30606 156.87637 100.39062 156.96094 C 100.46865 157.03896 100.55031 157.11214 100.62891 157.18945 C 100.70622 157.26805 100.7794 157.34971 100.85742 157.42773 C 100.94068 157.51099 101.02937 157.58747 101.11328 157.66992 C 101.1851 157.74285 101.25178 157.82014 101.32422 157.89258 C 101.40263 157.97099 101.48546 158.0434 101.56445 158.12109 C 101.64017 158.19805 101.71071 158.27907 101.78711 158.35547 C 101.86286 158.43122 101.94324 158.5011 102.01953 158.57617 C 102.09723 158.65517 102.16963 158.73799 102.24805 158.81641 C 102.32635 158.89471 102.4094 158.96733 102.48828 159.04492 C 102.56336 159.12121 102.63324 159.2016 102.70898 159.27734 C 102.78473 159.35309 102.86512 159.42297 102.94141 159.49805 C 103.01835 159.57627 103.09032 159.65868 103.16797 159.73633 C 103.24306 159.81142 103.32281 159.88064 103.39844 159.95508 C 103.47538 160.0333 103.54735 160.11571 103.625 160.19336 C 103.70107 160.26942 103.78081 160.34063 103.85742 160.41602 C 103.93281 160.49263 104.00401 160.57237 104.08008 160.64844 C 104.15583 160.72418 104.23621 160.79406 104.3125 160.86914 C 104.38758 160.94543 104.45746 161.02582 104.5332 161.10156 C 104.6089 161.17726 104.6894 161.24724 104.76562 161.32227 C 104.84065 161.3985 104.91063 161.47899 104.98633 161.55469 C 105.06044 161.6288 105.13826 161.69802 105.21289 161.77148 C 105.28833 161.84815 105.35943 161.92779 105.43555 162.00391 C 105.5119 162.08025 105.59302 162.1509 105.66992 162.22656 C 105.74307 162.30087 105.81098 162.37935 105.88477 162.45312 C 105.96046 162.52882 106.04095 162.5988 106.11719 162.67383 C 106.19034 162.74813 106.25824 162.8266 106.33203 162.90039 C 106.40739 162.97575 106.4866 163.0464 106.5625 163.12109 C 106.63532 163.19506 106.70389 163.27225 106.77734 163.3457 C 106.85174 163.42009 106.93094 163.48876 107.00586 163.5625 C 107.0796 163.63742 107.14826 163.71662 107.22266 163.79102 C 107.29645 163.86481 107.37491 163.93271 107.44922 164.00586 C 107.52237 164.08016 107.59027 164.15863 107.66406 164.23242 C 107.73687 164.30522 107.81341 164.37313 107.88672 164.44531 C 107.96078 164.52055 108.03076 164.59912 108.10547 164.67383 C 108.17795 164.74631 108.25515 164.8129 108.32812 164.88477 C 108.40188 164.95968 108.47053 165.03889 108.54492 165.11328 C 108.61811 165.18647 108.69584 165.25361 108.76953 165.32617 C 108.84199 165.39976 108.90933 165.47769 108.98242 165.55078 C 109.05528 165.62364 109.13172 165.69144 109.20508 165.76367 C 109.27721 165.83693 109.34522 165.91357 109.41797 165.98633 C 109.49045 166.05881 109.56765 166.1254 109.64062 166.19727 C 109.7125 166.27025 109.77908 166.34744 109.85156 166.41992 C 109.92306 166.49142 109.99833 166.55801 110.07031 166.62891 C 110.14309 166.70282 110.21175 166.78011 110.28516 166.85352 C 110.35801 166.92637 110.43446 166.99417 110.50781 167.06641 C 110.57807 167.13773 110.644 167.21236 110.71484 167.2832 C 110.7876 167.35596 110.86425 167.42396 110.9375 167.49609 C 111.00776 167.56741 111.07369 167.64205 111.14453 167.71289 C 111.21697 167.78533 111.29426 167.85201 111.36719 167.92383 C 111.43713 167.99483 111.50174 168.0701 111.57227 168.14062 C 111.6434 168.21176 111.71941 168.27712 111.79102 168.34766 C 111.86165 168.41937 111.92682 168.49518 111.99805 168.56641 C 112.06918 168.63754 112.14519 168.7029 112.2168 168.77344 C 112.28734 168.84505 112.3527 168.92106 112.42383 168.99219 C 112.49435 169.06271 112.56964 169.12732 112.64062 169.19727 C 112.71058 169.26826 112.77518 169.34354 112.8457 169.41406 C 112.91715 169.48551 112.99252 169.5522 113.06445 169.62305 C 113.13343 169.69304 113.19804 169.7664 113.26758 169.83594 C 113.3368 169.90516 113.41079 169.96845 113.48047 170.03711 C 113.55101 170.10872 113.61637 170.18473 113.6875 170.25586 C 113.75639 170.32475 113.8291 170.3887 113.89844 170.45703 C 113.96865 170.5283 114.03467 170.60303 114.10547 170.67383 C 114.17501 170.74337 114.24836 170.80798 114.31836 170.87695 C 114.38733 170.94695 114.45194 171.0203 114.52148 171.08984 C 114.59071 171.15907 114.66469 171.22235 114.73438 171.29102 C 114.80303 171.36069 114.86633 171.43468 114.93555 171.50391 C 115.00569 171.57405 115.07978 171.63942 115.15039 171.70898 C 115.21808 171.77766 115.28137 171.84973 115.34961 171.91797 C 115.41753 171.98589 115.49024 172.04786 115.55859 172.11523 C 115.62785 172.18552 115.69189 172.26025 115.76172 172.33008 C 115.83 172.39836 115.90198 172.46156 115.9707 172.5293 C 116.03844 172.59802 116.10164 172.67 116.16992 172.73828 C 116.23256 172.80092 116.29832 172.8597 116.36133 172.92188 C 116.43479 172.9965 116.50403 173.07433 116.57812 173.14844 C 116.65192 173.22223 116.73038 173.29013 116.80469 173.36328 C 116.86655 173.42597 116.92401 173.49237 116.98633 173.55469 C 117.05391 173.62227 117.12535 173.68491 117.19336 173.75195 C 117.26041 173.81997 117.32305 173.8914 117.39062 173.95898 C 117.45725 174.0256 117.52867 174.08625 117.5957 174.15234 C 117.66368 174.22131 117.7264 174.29476 117.79492 174.36328 C 117.86255 174.43091 117.93389 174.49345 118.00195 174.56055 C 118.06772 174.62724 118.12904 174.69739 118.19531 174.76367 C 118.26318 174.83154 118.33599 174.89361 118.4043 174.96094 C 118.46975 175.02731 118.52974 175.0981 118.5957 175.16406 C 118.66324 175.2316 118.73477 175.29433 118.80273 175.36133 C 118.86785 175.42736 118.92852 175.49688 118.99414 175.5625 C 119.05482 175.62318 119.11866 175.67998 119.17969 175.74023 C 119.25123 175.81288 119.31847 175.88879 119.39062 175.96094 C 119.46312 176.03342 119.5403 176.10001 119.61328 176.17188 C 119.67261 176.23195 119.72736 176.29572 119.78711 176.35547 C 119.85208 176.42044 119.92096 176.48044 119.98633 176.54492 C 120.05214 176.61166 120.11336 176.68172 120.17969 176.74805 C 120.24592 176.81428 120.31617 176.87569 120.38281 176.94141 C 120.44729 177.00678 120.50729 177.07565 120.57227 177.14062 C 120.63757 177.20593 120.70773 177.26527 120.77344 177.33008 C 120.83824 177.39579 120.89758 177.46594 120.96289 177.53125 C 121.02786 177.59622 121.09674 177.65623 121.16211 177.7207 C 121.22659 177.78607 121.28659 177.85495 121.35156 177.91992 C 121.4162 177.98456 121.4838 178.04522 121.54883 178.10938 C 121.61298 178.17441 121.67364 178.242 121.73828 178.30664 C 121.80287 178.37123 121.87056 178.43199 121.93555 178.49609 C 121.99965 178.56108 122.06041 178.62877 122.125 178.69336 C 122.18898 178.75734 122.25594 178.81735 122.32031 178.88086 C 122.38382 178.94523 122.44383 179.01219 122.50781 179.07617 C 122.57274 179.1411 122.6417 179.20119 122.70703 179.26562 C 122.76958 179.32901 122.82761 179.39597 122.89062 179.45898 C 122.94678 179.51514 123.00536 179.56813 123.0625 179.62305 A 88 88 0 0 0 179.66797 123.10742 C 179.66032 123.10008 179.65209 123.09339 179.64453 123.08594 C 179.58134 123.02189 179.52265 122.95429 179.45898 122.89062 C 179.39597 122.82762 179.32901 122.76958 179.26562 122.70703 C 179.20119 122.6417 179.1411 122.57274 179.07617 122.50781 C 179.01219 122.44383 178.94523 122.38382 178.88086 122.32031 C 178.81735 122.25594 178.75734 122.18898 178.69336 122.125 C 178.62877 122.06041 178.56108 121.99965 178.49609 121.93555 C 178.43199 121.87056 178.37123 121.80287 178.30664 121.73828 C 178.242 121.67364 178.17441 121.61298 178.10938 121.54883 C 178.04523 121.4838 177.98456 121.4162 177.91992 121.35156 C 177.85495 121.28659 177.78607 121.22659 177.7207 121.16211 C 177.65623 121.09674 177.59622 121.02786 177.53125 120.96289 C 177.46594 120.89758 177.39579 120.83824 177.33008 120.77344 C 177.26527 120.70773 177.20594 120.63757 177.14062 120.57227 C 177.07565 120.50729 177.00678 120.44729 176.94141 120.38281 C 176.87569 120.31617 176.81428 120.24592 176.74805 120.17969 C 176.68172 120.11336 176.61166 120.05214 176.54492 119.98633 C 176.48044 119.92096 176.42044 119.85208 176.35547 119.78711 C 176.29572 119.72736 176.23196 119.67261 176.17188 119.61328 C 176.10001 119.5403 176.03342 119.46312 175.96094 119.39062 C 175.88879 119.31848 175.81288 119.25123 175.74023 119.17969 C 175.67998 119.11866 175.62318 119.05482 175.5625 118.99414 C 175.49688 118.92852 175.42736 118.86785 175.36133 118.80273 C 175.29433 118.73477 175.2316 118.66324 175.16406 118.5957 C 175.0981 118.52974 175.02731 118.46975 174.96094 118.4043 C 174.89361 118.33599 174.83154 118.26318 174.76367 118.19531 C 174.69739 118.12904 174.62724 118.06772 174.56055 118.00195 C 174.49345 117.93389 174.43091 117.86255 174.36328 117.79492 C 174.29476 117.7264 174.22131 117.66368 174.15234 117.5957 C 174.08625 117.52867 174.0256 117.45725 173.95898 117.39062 C 173.8914 117.32305 173.81997 117.26041 173.75195 117.19336 C 173.68491 117.12535 173.62227 117.05391 173.55469 116.98633 C 173.49237 116.92401 173.42597 116.86655 173.36328 116.80469 C 173.29013 116.73038 173.22223 116.65191 173.14844 116.57812 C 173.07433 116.50402 172.9965 116.43479 172.92188 116.36133 C 172.8597 116.29832 172.80092 116.23256 172.73828 116.16992 C 172.67 116.10164 172.59802 116.03844 172.5293 115.9707 C 172.46156 115.90198 172.39836 115.83 172.33008 115.76172 C 172.26025 115.69189 172.18552 115.62785 172.11523 115.55859 C 172.04786 115.49024 171.98589 115.41753 171.91797 115.34961 C 171.84973 115.28137 171.77766 115.21808 171.70898 115.15039 C 171.63942 115.07978 171.57405 115.00569 171.50391 114.93555 C 171.43468 114.86633 171.36069 114.80303 171.29102 114.73438 C 171.22235 114.66469 171.15907 114.59071 171.08984 114.52148 C 171.0203 114.45194 170.94695 114.38733 170.87695 114.31836 C 170.80798 114.24836 170.74337 114.17501 170.67383 114.10547 C 170.60303 114.03467 170.5283 113.96865 170.45703 113.89844 C 170.3887 113.8291 170.32475 113.75639 170.25586 113.6875 C 170.18473 113.61637 170.10872 113.55101 170.03711 113.48047 C 169.96845 113.41079 169.90516 113.3368 169.83594 113.26758 C 169.7664 113.19804 169.69304 113.13343 169.62305 113.06445 C 169.5522 112.99252 169.48551 112.91715 169.41406 112.8457 C 169.34354 112.77518 169.26826 112.71058 169.19727 112.64062 C 169.12732 112.56964 169.06271 112.49435 168.99219 112.42383 C 168.92106 112.3527 168.84505 112.28734 168.77344 112.2168 C 168.7029 112.14519 168.63754 112.06918 168.56641 111.99805 C 168.49621 111.92785 168.42222 111.86258 168.35156 111.79297 C 168.28007 111.72038 168.21273 111.64437 168.14062 111.57227 C 168.0701 111.50174 167.99483 111.43713 167.92383 111.36719 C 167.85201 111.29426 167.78533 111.21697 167.71289 111.14453 C 167.64205 111.07369 167.56741 111.00776 167.49609 110.9375 C 167.42396 110.86425 167.35596 110.7876 167.2832 110.71484 C 167.21137 110.64301 167.13482 110.57709 167.0625 110.50586 C 166.99127 110.43354 166.92535 110.35699 166.85352 110.28516 C 166.78011 110.21175 166.70282 110.14309 166.62891 110.07031 C 166.55801 109.99833 166.49142 109.92306 166.41992 109.85156 C 166.34744 109.77908 166.27025 109.71249 166.19727 109.64062 C 166.1254 109.56764 166.05881 109.49045 165.98633 109.41797 C 165.91259 109.34423 165.83402 109.27624 165.75977 109.20312 C 165.68854 109.1308 165.62261 109.05425 165.55078 108.98242 C 165.47672 108.90836 165.3988 108.83905 165.32422 108.76562 C 165.25268 108.69299 165.18543 108.61707 165.11328 108.54492 C 165.03889 108.47053 164.95968 108.40188 164.88477 108.32812 C 164.8129 108.25514 164.74631 108.17795 164.67383 108.10547 C 164.59912 108.03076 164.52055 107.96078 164.44531 107.88672 C 164.37313 107.81341 164.30522 107.73687 164.23242 107.66406 C 164.15863 107.59027 164.08016 107.52237 164.00586 107.44922 C 163.93271 107.37491 163.86481 107.29645 163.79102 107.22266 C 163.71662 107.14826 163.63742 107.0796 163.5625 107.00586 C 163.48876 106.93094 163.42009 106.85174 163.3457 106.77734 C 163.27225 106.70389 163.19506 106.63532 163.12109 106.5625 C 163.0464 106.4866 162.97575 106.40739 162.90039 106.33203 C 162.8266 106.25824 162.74813 106.19034 162.67383 106.11719 C 162.5988 106.04095 162.52882 105.96046 162.45312 105.88477 C 162.37935 105.81098 162.30087 105.74307 162.22656 105.66992 C 162.1509 105.59302 162.08025 105.5119 162.00391 105.43555 C 161.92779 105.35943 161.84815 105.28833 161.77148 105.21289 C 161.69802 105.13826 161.6288 105.06044 161.55469 104.98633 C 161.47899 104.91063 161.3985 104.84065 161.32227 104.76562 C 161.24724 104.6894 161.17726 104.6089 161.10156 104.5332 C 161.02582 104.45746 160.94543 104.38758 160.86914 104.3125 C 160.79406 104.23621 160.72418 104.15583 160.64844 104.08008 C 160.57237 104.00401 160.49263 103.93281 160.41602 103.85742 C 160.34063 103.78081 160.26942 103.70107 160.19336 103.625 C 160.11571 103.54735 160.0333 103.47538 159.95508 103.39844 C 159.88064 103.32281 159.81142 103.24306 159.73633 103.16797 C 159.65868 103.09032 159.57627 103.01835 159.49805 102.94141 C 159.42297 102.86512 159.35309 102.78473 159.27734 102.70898 C 159.2016 102.63324 159.12121 102.56336 159.04492 102.48828 C 158.96733 102.4094 158.89471 102.32635 158.81641 102.24805 C 158.73799 102.16963 158.65517 102.09723 158.57617 102.01953 C 158.5011 101.94324 158.43122 101.86286 158.35547 101.78711 C 158.27907 101.71071 158.19805 101.64017 158.12109 101.56445 C 158.0434 101.48546 157.97099 101.40263 157.89258 101.32422 C 157.82014 101.25178 157.74285 101.1851 157.66992 101.11328 C 157.58747 101.02937 157.51099 100.94068 157.42773 100.85742 C 157.34416 100.77384 157.25611 100.69604 157.17188 100.61328 C 157.10028 100.54059 157.03314 100.46478 156.96094 100.39258 C 156.88133 100.31297 156.797 100.23902 156.7168 100.16016 C 156.64044 100.08254 156.56924 100.00088 156.49219 99.923828 C 156.41258 99.844219 156.32825 99.770274 156.24805 99.691406 C 156.17105 99.61313 156.09919 99.53083 156.02148 99.453125 C 155.94279 99.374433 155.85857 99.302577 155.7793 99.224609 C 155.70133 99.145332 155.62947 99.061114 155.55078 98.982422 C 155.47151 98.903147 155.38846 98.828539 155.30859 98.75 C 155.23005 98.670131 155.15545 98.587087 155.07617 98.507812 C 154.99711 98.428747 154.91364 98.355679 154.83398 98.277344 C 154.75512 98.197136 154.68117 98.112812 154.60156 98.033203 C 154.5232 97.954845 154.44027 97.882326 154.36133 97.804688 C 154.28118 97.723155 154.20591 97.637554 154.125 97.556641 C 154.04664 97.478283 153.9637 97.405764 153.88477 97.328125 C 153.80451 97.246478 153.72946 97.161104 153.64844 97.080078 C 153.56687 96.998513 153.48063 96.922584 153.39844 96.841797 C 153.32016 96.762196 153.24698 96.67862 153.16797 96.599609 C 153.09418 96.52582 153.01571 96.457918 152.94141 96.384766 C 152.85512 96.296872 152.77468 96.204362 152.6875 96.117188 C 152.60131 96.030998 152.51072 95.950554 152.42383 95.865234 C 152.34913 95.789335 152.27849 95.710128 152.20312 95.634766 C 152.12216 95.553798 152.03667 95.478637 151.95508 95.398438 C 151.87488 95.31685 151.79972 95.231359 151.71875 95.150391 C 151.63843 95.070075 151.55358 94.995576 151.47266 94.916016 C 151.39123 94.833159 151.31464 94.74628 151.23242 94.664062 C 151.15211 94.583748 151.06725 94.509247 150.98633 94.429688 C 150.90426 94.346169 150.82701 94.258651 150.74414 94.175781 C 150.66116 94.092796 150.57387 94.015773 150.49023 93.933594 C 150.41067 93.852668 150.33617 93.767815 150.25586 93.6875 C 150.17489 93.606532 150.0894 93.531373 150.00781 93.451172 C 149.92511 93.366991 149.84719 93.278835 149.76367 93.195312 C 149.68003 93.111676 149.59211 93.033991 149.50781 92.951172 C 149.42761 92.869584 149.35245 92.784093 149.27148 92.703125 C 149.18888 92.620517 149.10083 92.5447 149.01758 92.462891 C 148.93577 92.379638 148.85995 92.291592 148.77734 92.208984 C 148.69442 92.126059 148.60701 92.048918 148.52344 91.966797 C 148.44132 91.883221 148.36418 91.795816 148.28125 91.712891 C 148.19898 91.630618 148.11221 91.554137 148.0293 91.472656 C 147.94595 91.387813 147.86738 91.299018 147.7832 91.214844 C 147.69891 91.130553 147.61035 91.05221 147.52539 90.96875 C 147.44391 90.885837 147.36743 90.79907 147.28516 90.716797 C 147.2013 90.632941 147.11186 90.555689 147.02734 90.472656 C 146.94431 90.388136 146.86706 90.298699 146.7832 90.214844 C 146.69826 90.1299 146.60906 90.050897 146.52344 89.966797 C 146.44132 89.883221 146.36418 89.795816 146.28125 89.712891 C 146.19702 89.62866 146.10834 89.550197 146.02344 89.466797 C 145.94004 89.381895 145.86157 89.293215 145.77734 89.208984 C 145.69408 89.125724 145.6054 89.049246 145.52148 88.966797 C 145.43653 88.880289 145.3573 88.788937 145.27148 88.703125 C 145.18791 88.619547 145.09986 88.541745 145.01562 88.458984 C 144.93036 88.372153 144.8498 88.281444 144.76367 88.195312 C 144.67742 88.109062 144.58695 88.028739 144.5 87.943359 C 144.41724 87.859121 144.33944 87.771078 144.25586 87.6875 C 144.17685 87.60849 144.09327 87.535311 144.01367 87.457031 C 143.92291 87.364492 143.83784 87.267525 143.74609 87.175781 C 143.655 87.08469 143.55867 87.000276 143.4668 86.910156 C 143.38729 86.829286 143.31268 86.744323 143.23242 86.664062 C 143.14786 86.579498 143.0579 86.501697 142.97266 86.417969 C 142.88643 86.330135 142.80587 86.237507 142.71875 86.150391 C 142.63387 86.065507 142.54455 85.986384 142.45898 85.902344 C 142.37244 85.814187 142.29056 85.7222 142.20312 85.634766 C 142.11824 85.549882 142.02892 85.470759 141.94336 85.386719 C 141.8567 85.298438 141.77506 85.206697 141.6875 85.119141 C 141.59941 85.031054 141.50679 84.948507 141.41797 84.861328 C 141.33329 84.7751 141.2535 84.685145 141.16797 84.599609 C 141.08243 84.514073 140.99248 84.434289 140.90625 84.349609 C 140.81895 84.260665 140.73665 84.168287 140.64844 84.080078 C 140.561 83.992644 140.46902 83.910759 140.38086 83.824219 C 140.29432 83.736062 140.21243 83.644075 140.125 83.556641 C 140.03744 83.469084 139.9457 83.38744 139.85742 83.300781 C 139.77088 83.212624 139.689 83.120638 139.60156 83.033203 C 139.51504 82.94668 139.42317 82.866897 139.33594 82.78125 C 139.24779 82.691427 139.16524 82.596885 139.07617 82.507812 C 138.98698 82.418616 138.89268 82.336313 138.80273 82.248047 C 138.71709 82.160816 138.6373 82.068945 138.55078 81.982422 C 138.46236 81.894001 138.36846 81.812115 138.2793 81.724609 C 138.19179 81.63545 138.10991 81.541546 138.02148 81.453125 C 137.933 81.364644 137.83922 81.282877 137.75 81.195312 C 137.66244 81.106093 137.58067 81.012309 137.49219 80.923828 C 137.40469 80.836334 137.31283 80.754567 137.22461 80.667969 C 137.13539 80.577032 137.05111 80.482747 136.96094 80.392578 C 136.87186 80.303505 136.77732 80.220957 136.6875 80.132812 C 136.59923 80.042864 136.51693 79.948572 136.42773 79.859375 C 136.33704 79.76868 136.24186 79.683483 136.15039 79.59375 C 136.06315 79.504869 135.98072 79.412365 135.89258 79.324219 C 135.80155 79.23319 135.70509 79.148653 135.61328 79.058594 C 135.52572 78.969373 135.44395 78.87559 135.35547 78.787109 C 135.27189 78.703531 135.18385 78.62573 135.09961 78.542969 C 135.00438 78.445781 134.91467 78.344358 134.81836 78.248047 C 134.7214 78.151083 134.61934 78.060707 134.52148 77.964844 C 134.43872 77.880605 134.36092 77.792563 134.27734 77.708984 C 134.18691 77.618546 134.09121 77.534795 134 77.445312 C 133.91052 77.354101 133.82677 77.258407 133.73633 77.167969 C 133.64557 77.077212 133.55052 76.992136 133.45898 76.902344 C 133.36919 76.810809 133.28412 76.715757 133.19336 76.625 C 133.10227 76.533909 133.00594 76.449495 132.91406 76.359375 C 132.82394 76.2675 132.73953 76.171169 132.64844 76.080078 C 132.55833 75.989974 132.46392 75.90556 132.37305 75.816406 C 132.2814 75.722943 132.19421 75.625855 132.10156 75.533203 C 132.0091 75.440741 131.91163 75.355133 131.81836 75.263672 C 131.72888 75.17246 131.64513 75.076767 131.55469 74.986328 C 131.46947 74.90111 131.37887 74.822649 131.29297 74.738281 C 131.1955 74.638759 131.10446 74.534151 131.00586 74.435547 C 130.90824 74.33793 130.80555 74.246892 130.70703 74.150391 C 130.62113 74.062896 130.53991 73.971548 130.45312 73.884766 C 130.36203 73.793675 130.2657 73.709261 130.17383 73.619141 C 130.08122 73.524674 129.99403 73.425669 129.90039 73.332031 C 129.81452 73.246161 129.72329 73.167039 129.63672 73.082031 C 129.53862 72.981844 129.44691 72.8766 129.34766 72.777344 C 129.2484 72.678087 129.14316 72.586384 129.04297 72.488281 C 128.95732 72.401051 128.87754 72.309179 128.79102 72.222656 C 128.69771 72.129353 128.59999 72.041504 128.50586 71.949219 C 128.41357 71.855092 128.32573 71.757367 128.23242 71.664062 C 128.13904 71.570679 128.03952 71.484941 127.94531 71.392578 C 127.85295 71.298371 127.76721 71.198852 127.67383 71.105469 C 127.58013 71.011767 127.48125 70.924705 127.38672 70.832031 C 127.29404 70.7375 127.20698 70.638623 127.11328 70.544922 C 127.01769 70.449328 126.91677 70.36015 126.82031 70.265625 C 126.72892 70.172422 126.64318 70.074818 126.55078 69.982422 C 126.45519 69.886828 126.35427 69.79765 126.25781 69.703125 C 126.16578 69.609258 126.07938 69.511017 125.98633 69.417969 C 125.89328 69.32492 125.79504 69.23852 125.70117 69.146484 C 125.60601 69.049363 125.51617 68.94781 125.41992 68.851562 C 125.32523 68.756874 125.22444 68.669811 125.12891 68.576172 C 125.03527 68.480636 124.9482 68.379845 124.85352 68.285156 C 117.35206 60.783701 107.17702 56.568359 96.568359 56.568359 z "
       id="path4936" />
    <path
       id="path4858"
       d="M 96 56 A 40 40 0 0 0 56 96 A 40 40 0 0 0 96 136 A 40 40 0 0 0 117.00781 130.00391 C 124.00527 134.00173 131.00291 137.00073 139 139 C 137 131 134 124 130 117 L 129.96484 117.03516 A 40 40 0 0 0 136 96 A 40 40 0 0 0 96 56 z "
       style="opacity:1;fill:#00b8d4;fill-opacity:1;fill-rule:nonzero;stroke:none;stroke-width:2.94899988;stroke-linecap:butt;stroke-linejoin:miter;stroke-miterlimit:4;stroke-dasharray:none;stroke-dashoffset:0;stroke-opacity:1;filter:url(#filter6409)" />
    <g
       id="g4873">
      <path
         style="opacity:0.2;fill:#000000;fill-opacity:1;fill-rule:nonzero;stroke:none;stroke-width:2.94899988;stroke-linecap:butt;stroke-linejoin:miter;stroke-miterlimit:4;stroke-dasharray:none;stroke-dashoffset:0;stroke-opacity:1"
         d="M 56.021484 96.414062 A 40 40 0 0 0 56 97 A 40 40 0 0 0 96 137 A 40 40 0 0 0 117.00781 131.00391 C 124.00527 135.00173 131.00291 138.00073 139 140 C 138.90878 139.63514 138.80436 139.28267 138.70898 138.92188 C 130.83453 136.92291 123.91911 133.9525 117.00781 130.00391 A 40 40 0 0 1 96 136 A 40 40 0 0 1 56.021484 96.414062 z M 135.98047 96.626953 A 40 40 0 0 1 129.96484 117.03516 L 130 117 C 130.09261 117.16206 130.178 117.32425 130.26953 117.48633 A 40 40 0 0 0 136 97 A 40 40 0 0 0 135.98047 96.626953 z "
         id="path4865" />
      <path
         style="opacity:0.2;fill:#ffffff;fill-opacity:1;fill-rule:nonzero;stroke:none;stroke-width:2.94899988;stroke-linecap:butt;stroke-linejoin:miter;stroke-miterlimit:4;stroke-dasharray:none;stroke-dashoffset:0;stroke-opacity:1"
         d="M 96 56 A 40 40 0 0 0 56 96 A 40 40 0 0 0 56.021484 96.414062 A 40 40 0 0 1 96 57 A 40 40 0 0 1 135.98047 96.626953 A 40 40 0 0 0 136 96 A 40 40 0 0 0 96 56 z M 130.26953 117.48633 A 40 40 0 0 1 129.96484 118.03516 L 130 118 C 133.81757 124.68075 136.71314 131.37181 138.70898 138.92188 C 138.80716 138.9468 138.90153 138.97538 139 139 C 137.0463 131.18521 134.13169 124.32479 130.26953 117.48633 z "
         id="path4868" />
    </g>
  </g>
  <g
     transform="translate(0,-860.36216)"
     id="layer1"
     inkscape:groupmode="layer"
     inkscape:label="objects" />
  <g
     sodipodi:insensitive="true"
     style="display:inline"
     inkscape:label="finish"
     id="layer3"
     inkscape:groupmode="layer">
    <path
       inkscape:connector-curvature="0"
       id="circle4186"
       d="M 183.97852,95.414062 A 88,88 0 0 1 96,183 88,88 0 0 1 8.0214844,95.585938 88,88 0 0 0 8,96 a 88,88 0 0 0 88,88 88,88 0 0 0 88,-88 88,88 0 0 0 -0.0215,-0.585938 z"
       style="opacity:0.2;fill:#000000;fill-opacity:1;fill-rule:nonzero;stroke:none;stroke-width:2.94899988;stroke-linecap:butt;stroke-linejoin:miter;stroke-miterlimit:4;stroke-dasharray:none;stroke-dashoffset:0;stroke-opacity:1" />
    <path
       inkscape:connector-curvature="0"
       id="circle4191"
       d="M 96,8 A 88,88 0 0 0 8,96 88,88 0 0 0 8.0214844,96.585938 88,88 0 0 1 96,9 88,88 0 0 1 183.97852,96.414062 88,88 0 0 0 184,96 88,88 0 0 0 96,8 Z"
       style="opacity:0.2;fill:#ffffff;fill-opacity:1;fill-rule:nonzero;stroke:none;stroke-width:2.94899988;stroke-linecap:butt;stroke-linejoin:miter;stroke-miterlimit:4;stroke-dasharray:none;stroke-dashoffset:0;stroke-opacity:1" />
    <circle
       style="opacity:0.1;fill:url(#radialGradient4204);fill-opacity:1;fill-rule:nonzero;stroke:none;stroke-width:2.94899988;stroke-linecap:butt;stroke-linejoin:miter;stroke-miterlimit:4;stroke-dasharray:none;stroke-dashoffset:0;stroke-opacity:1"
       id="circle4196"
       cx="96"
       cy="96"
       r="88" />
  </g>
</svg>
