<?xml version="1.0" encoding="UTF-8" standalone="no"?>
<!-- Created with Inkscape (http://www.inkscape.org/) -->

<svg
   xmlns:dc="http://purl.org/dc/elements/1.1/"
   xmlns:cc="http://creativecommons.org/ns#"
   xmlns:rdf="http://www.w3.org/1999/02/22-rdf-syntax-ns#"
   xmlns:svg="http://www.w3.org/2000/svg"
   xmlns="http://www.w3.org/2000/svg"
   xmlns:xlink="http://www.w3.org/1999/xlink"
   xmlns:sodipodi="http://sodipodi.sourceforge.net/DTD/sodipodi-0.dtd"
   xmlns:inkscape="http://www.inkscape.org/namespaces/inkscape"
   width="192"
   height="192"
   viewBox="0 0 192 192"
   id="svg2"
   version="1.1"
   inkscape:version="0.91 r13725"
   sodipodi:docname="db_navigator.svg"
   inkscape:export-filename="C:\createme\Material Design Icons\PNG\db_navigator.png"
   inkscape:export-xdpi="90"
   inkscape:export-ydpi="90">
  <defs
     id="defs4">
    <linearGradient
       inkscape:collect="always"
       id="linearGradient4194">
      <stop
         style="stop-color:#ffffff;stop-opacity:1;"
         offset="0"
         id="stop4196" />
      <stop
         style="stop-color:#ffffff;stop-opacity:0;"
         offset="1"
         id="stop4198" />
    </linearGradient>
    <clipPath
       clipPathUnits="userSpaceOnUse"
       id="clipPath10430">
      <path
         inkscape:connector-curvature="0"
         d="m 1241.028,39.3409 224.537,0 0,178.031 -224.537,0 0,-178.031 z"
         id="path10432" />
    </clipPath>
    <clipPath
       clipPathUnits="userSpaceOnUse"
       id="clipPath10438">
      <path
         inkscape:connector-curvature="0"
         d="m 1260.156,213.3477 0,-170.2268 191.3337,0 0,170.2268"
         id="path10440" />
    </clipPath>
    <radialGradient
       inkscape:collect="always"
       xlink:href="#linearGradient4194"
       id="radialGradient4200"
       cx="20"
       cy="880.36243"
       fx="20"
       fy="880.36243"
       r="76"
       gradientTransform="matrix(2.6607556e-7,1.9999998,-2.0000002,2.6629458e-7,1780.725,840.36195)"
       gradientUnits="userSpaceOnUse" />
    <filter
       style="color-interpolation-filters:sRGB;"
       inkscape:label="Drop Shadow"
       id="filter5248">
      <feFlood
         flood-opacity="0.2"
         flood-color="rgb(0,0,0)"
         result="flood"
         id="feFlood5250" />
      <feComposite
         in="flood"
         in2="SourceGraphic"
         operator="in"
         result="composite1"
         id="feComposite5252" />
      <feGaussianBlur
         in="composite1"
         stdDeviation="2"
         result="blur"
         id="feGaussianBlur5254" />
      <feOffset
         dx="4.57967e-015"
         dy="4"
         result="offset"
         id="feOffset5256" />
      <feComposite
         in="SourceGraphic"
         in2="offset"
         operator="over"
         result="fbSourceGraphic"
         id="feComposite5258" />
      <feColorMatrix
         result="fbSourceGraphicAlpha"
         in="fbSourceGraphic"
         values="0 0 0 -1 0 0 0 0 -1 0 0 0 0 -1 0 0 0 0 1 0"
         id="feColorMatrix7012" />
      <feFlood
         id="feFlood7014"
         flood-opacity="0.2"
         flood-color="rgb(0,0,0)"
         result="flood"
         in="fbSourceGraphic" />
      <feComposite
         id="feComposite7016"
         in2="fbSourceGraphic"
         in="flood"
         operator="in"
         result="composite1" />
      <feGaussianBlur
         id="feGaussianBlur7018"
         in="composite1"
         stdDeviation="2"
         result="blur" />
      <feOffset
         id="feOffset7020"
         dx="0"
         dy="0"
         result="offset" />
      <feComposite
         id="feComposite7022"
         in2="offset"
         in="fbSourceGraphic"
         operator="over"
         result="composite2" />
    </filter>
  </defs>
  <sodipodi:namedview
     id="base"
     pagecolor="#ffffff"
     bordercolor="#666666"
     borderopacity="1.0"
     inkscape:pageopacity="0.0"
     inkscape:pageshadow="2"
     inkscape:zoom="4.0000001"
     inkscape:cx="194.07479"
     inkscape:cy="139.42699"
     inkscape:document-units="px"
     inkscape:current-layer="layer2"
     showgrid="false"
     units="px"
     showguides="false"
     inkscape:window-width="1920"
     inkscape:window-height="1017"
     inkscape:window-x="-8"
     inkscape:window-y="-8"
     inkscape:window-maximized="1">
    <sodipodi:guide
       position="0,184"
       orientation="0,1"
       id="guide3354"
       inkscape:label=""
       inkscape:color="rgb(0,0,255)" />
    <sodipodi:guide
       position="8,0"
       orientation="1,0"
       id="guide3356"
       inkscape:label=""
       inkscape:color="rgb(0,0,255)" />
    <sodipodi:guide
       position="0,8"
       orientation="0,1"
       id="guide3358"
       inkscape:label=""
       inkscape:color="rgb(0,0,255)" />
    <sodipodi:guide
       position="184,0"
       orientation="1,0"
       id="guide3360"
       inkscape:label=""
       inkscape:color="rgb(0,0,255)" />
    <sodipodi:guide
       position="0,20"
       orientation="0,1"
       id="guide3362"
       inkscape:label=""
       inkscape:color="rgb(0,0,255)" />
    <sodipodi:guide
       position="172,0"
       orientation="1,0"
       id="guide3364"
       inkscape:label=""
       inkscape:color="rgb(0,0,255)" />
    <sodipodi:guide
       position="96,172"
       orientation="0,1"
       id="guide3366"
       inkscape:label=""
       inkscape:color="rgb(0,0,255)" />
    <sodipodi:guide
       position="20,0"
       orientation="1,0"
       id="guide3368"
       inkscape:label=""
       inkscape:color="rgb(0,0,255)" />
    <sodipodi:guide
       position="0,32"
       orientation="0,1"
       id="guide3370"
       inkscape:label=""
       inkscape:color="rgb(0,0,255)" />
    <sodipodi:guide
       position="160,0"
       orientation="1,0"
       id="guide3372"
       inkscape:label=""
       inkscape:color="rgb(0,0,255)" />
    <sodipodi:guide
       position="0,160"
       orientation="0,1"
       id="guide3374"
       inkscape:label=""
       inkscape:color="rgb(0,0,255)" />
    <sodipodi:guide
       position="32,0"
       orientation="1,0"
       id="guide3376"
       inkscape:label=""
       inkscape:color="rgb(0,0,255)" />
    <inkscape:grid
       type="xygrid"
       id="grid3378" />
    <sodipodi:guide
       position="0,0"
       orientation="-0.70710678,0.70710678"
       id="guide5849"
       inkscape:label=""
       inkscape:color="rgb(255,0,0)" />
    <sodipodi:guide
       position="124,0"
       orientation="1,0"
       id="guide5851"
       inkscape:label=""
       inkscape:color="rgb(255,0,0)" />
    <sodipodi:guide
       position="0,192"
       orientation="0.70710678,0.70710678"
       id="guide5853"
       inkscape:label=""
       inkscape:color="rgb(255,0,0)" />
    <sodipodi:guide
       position="96,0"
       orientation="1,0"
       id="guide5855"
       inkscape:label=""
       inkscape:color="rgb(255,0,0)" />
    <sodipodi:guide
       position="0,96"
       orientation="0,1"
       id="guide5859"
       inkscape:label=""
       inkscape:color="rgb(255,0,0)" />
    <sodipodi:guide
       position="0,124"
       orientation="0,1"
       id="guide5861"
       inkscape:label=""
       inkscape:color="rgb(255,0,0)" />
    <sodipodi:guide
       position="0,68"
       orientation="0,1"
       id="guide5863"
       inkscape:label=""
       inkscape:color="rgb(255,0,0)" />
    <sodipodi:guide
       position="68,0"
       orientation="1,0"
       id="guide5865"
       inkscape:label=""
       inkscape:color="rgb(255,0,0)" />
    <sodipodi:guide
       position="192,0"
       orientation="-192,0"
       id="guide5869" />
    <sodipodi:guide
       position="192,192"
       orientation="0,-192"
       id="guide5871" />
  </sodipodi:namedview>
  <metadata
     id="metadata7">
    <rdf:RDF>
      <cc:Work
         rdf:about="">
        <dc:format>image/svg+xml</dc:format>
        <dc:type
           rdf:resource="http://purl.org/dc/dcmitype/StillImage" />
        <dc:title></dc:title>
      </cc:Work>
    </rdf:RDF>
  </metadata>
  <g
     inkscape:groupmode="layer"
     id="layer2"
     inkscape:label="background">
    <path
       style="fill:#fafafa;fill-opacity:1;fill-rule:evenodd;stroke:none;stroke-width:1px;stroke-linecap:butt;stroke-linejoin:miter;stroke-opacity:1;filter:url(#filter5248)"
       d="m 32,880.36216 128,0 c 6,0 12,6 12,12 l 0,128.00004 c 0,6 -6,12 -12,12 l -128,0 c -6,0 -12,-6 -12,-12 l 0,-128.00004 c 0,-6 6,-12 12,-12 z"
       id="path5588"
       inkscape:connector-curvature="0"
       sodipodi:nodetypes="ccccccccc"
       transform="translate(0,-860.36216)" />
    <path
       style="fill:#f44336;fill-opacity:1;fill-rule:nonzero;stroke:none"
       d="m 52.622358,57.999781 c -5.967586,0 -10.908358,4.71893 -10.908358,10.81674 l 0,54.244199 C 41.714,129.16619 46.654772,134 52.622358,134 l 86.863072,0 c 5.86034,0 10.80157,-4.83381 10.80157,-10.93928 l 0,-54.244199 c 0,-6.09781 -4.94123,-10.81674 -10.80157,-10.81674 l -86.863072,0 z m 0,7.71416 86.863072,0 c 1.72363,0 2.87267,1.37895 2.87267,3.10258 l 0,54.244199 c 0,1.73129 -1.14904,3.11017 -2.87267,3.11017 l -86.863072,0 c -1.715967,0 -2.980046,-1.37888 -2.980046,-3.11017 l 0,-54.244199 c 0,-1.72363 1.264079,-3.10258 2.980046,-3.10258 z m 4.029223,5.40808 0,49.748159 18.26306,0 c 15.16794,-0.11491 19.75631,-10.70182 19.75631,-25.103699 0,-16.58514 -6.88654,-24.64446 -19.75631,-24.64446 l -18.26306,0 z m 43.313079,0 0,49.748159 19.29706,0 c 8.96288,0 17.46598,-4.25938 17.46598,-14.39432 0,-6.21273 -4.12899,-9.905379 -10.2268,-11.629009 4.36653,-2.19092 8.38812,-5.63799 8.38812,-10.47947 0,-9.33058 -5.16266,-13.24536 -14.70008,-13.24536 l -20.22428,0 z m 11.82798,7.71416 3.3325,0 c 3.90689,0 7.58403,1.26445 7.58403,5.99102 0,4.26694 -2.86546,5.99043 -6.77235,5.99043 l -4.14418,0 0,-11.98145 z m -43.198119,0.12254 2.42103,0 c 10.79375,0 11.83558,7.82173 11.83558,17.84176 0,10.946959 -3.6851,16.010679 -10.00507,16.010679 l -4.25154,0 0,-33.852439 z m 43.198119,21.066889 4.37409,0 c 4.70359,0 7.9213,1.1567 7.9213,6.22034 0,5.18621 -3.78457,6.56521 -8.04385,6.56521 l -4.25154,0 0,-12.78555 z"
       id="path375"
       inkscape:connector-curvature="0" />
  </g>
  <g
     inkscape:label="objects"
     inkscape:groupmode="layer"
     id="layer1"
     transform="translate(0,-860.36216)" />
  <g
     inkscape:groupmode="layer"
     id="layer3"
     inkscape:label="finish"
     sodipodi:insensitive="true">
    <path
       style="opacity:0.1;fill:#ffffff;fill-opacity:1;fill-rule:evenodd;stroke:none;stroke-width:1px;stroke-linecap:butt;stroke-linejoin:miter;stroke-opacity:1"
       d="m 32,20 c -6,0 -12,6 -12,12 l 0,1 c 0,-6 6,-12 12,-12 l 128,0 c 6,0 12,6 12,12 l 0,-1 c 0,-6 -6,-12 -12,-12 L 32,20 Z"
       id="path4180"
       inkscape:connector-curvature="0" />
    <path
       style="opacity:0.2;fill:#030303;fill-opacity:1;fill-rule:evenodd;stroke:none;stroke-width:1px;stroke-linecap:butt;stroke-linejoin:miter;stroke-opacity:1"
       d="m 20,159 0,1 c 0,6 6,12 12,12 l 128,0 c 6,0 12,-6 12,-12 l 0,-1 c 0,6 -6,12 -12,12 l -128,0 c -6,0 -12,-6 -12,-12 z"
       id="path4186"
       inkscape:connector-curvature="0" />
    <path
       transform="translate(0,-860.36216)"
       sodipodi:nodetypes="ccccccccc"
       inkscape:connector-curvature="0"
       id="path4192"
       d="m 32,880.36216 128,0 c 6,0 12,6 12,12 l 0,128.00004 c 0,6 -6,12 -12,12 l -128,0 c -6,0 -12,-6 -12,-12 l 0,-128.00004 c 0,-6 6,-12 12,-12 z"
       style="opacity:0.1;fill:url(#radialGradient4200);fill-opacity:1;fill-rule:evenodd;stroke:none;stroke-width:0.1;stroke-linecap:butt;stroke-linejoin:miter;stroke-miterlimit:4;stroke-dasharray:none;stroke-opacity:1" />
  </g>
</svg>
