<?xml version="1.0" encoding="UTF-8" standalone="no"?>
<!-- Created with Inkscape (http://www.inkscape.org/) -->

<svg
   xmlns:dc="http://purl.org/dc/elements/1.1/"
   xmlns:cc="http://creativecommons.org/ns#"
   xmlns:rdf="http://www.w3.org/1999/02/22-rdf-syntax-ns#"
   xmlns:svg="http://www.w3.org/2000/svg"
   xmlns="http://www.w3.org/2000/svg"
   xmlns:xlink="http://www.w3.org/1999/xlink"
   xmlns:sodipodi="http://sodipodi.sourceforge.net/DTD/sodipodi-0.dtd"
   xmlns:inkscape="http://www.inkscape.org/namespaces/inkscape"
   width="192"
   height="192"
   viewBox="0 0 192 192"
   id="svg2"
   version="1.1"
   inkscape:version="0.91 r13725"
   sodipodi:docname="feedly.svg"
   inkscape:export-filename="C:\createme\Material Design Icons\PNG\feedly.png"
   inkscape:export-xdpi="90"
   inkscape:export-ydpi="90">
  <defs
     id="defs4">
    <linearGradient
       inkscape:collect="always"
       id="linearGradient4270">
      <stop
         style="stop-color:#ffffff;stop-opacity:1;"
         offset="0"
         id="stop4272" />
      <stop
         style="stop-color:#ffffff;stop-opacity:0;"
         offset="1"
         id="stop4274" />
    </linearGradient>
    <clipPath
       clipPathUnits="userSpaceOnUse"
       id="clipPath10430">
      <path
         inkscape:connector-curvature="0"
         d="m 1241.028,39.3409 224.537,0 0,178.031 -224.537,0 0,-178.031 z"
         id="path10432" />
    </clipPath>
    <clipPath
       clipPathUnits="userSpaceOnUse"
       id="clipPath10438">
      <path
         inkscape:connector-curvature="0"
         d="m 1260.156,213.3477 0,-170.2268 191.3337,0 0,170.2268"
         id="path10440" />
    </clipPath>
    <filter
       style="color-interpolation-filters:sRGB;"
       inkscape:label="Drop Shadow"
       id="filter5248">
      <feFlood
         flood-opacity="0.2"
         flood-color="rgb(0,0,0)"
         result="flood"
         id="feFlood5250" />
      <feComposite
         in="flood"
         in2="SourceGraphic"
         operator="in"
         result="composite1"
         id="feComposite5252" />
      <feGaussianBlur
         in="composite1"
         stdDeviation="4"
         result="blur"
         id="feGaussianBlur5254" />
      <feOffset
         dx="4.57967e-015"
         dy="4"
         result="offset"
         id="feOffset5256" />
      <feComposite
         in="SourceGraphic"
         in2="offset"
         operator="over"
         result="composite2"
         id="feComposite5258" />
    </filter>
    <radialGradient
       inkscape:collect="always"
       xlink:href="#linearGradient4270"
       id="radialGradient4276"
       cx="8"
       cy="8.7692671"
       fx="8"
       fy="8.7692671"
       r="87.23098"
       gradientTransform="matrix(0,1.7425002,-2.0176318,0,25.693152,6.0599988)"
       gradientUnits="userSpaceOnUse" />
  </defs>
  <sodipodi:namedview
     id="base"
     pagecolor="#ffffff"
     bordercolor="#666666"
     borderopacity="1.0"
     inkscape:pageopacity="0.0"
     inkscape:pageshadow="2"
     inkscape:zoom="2.8284271"
     inkscape:cx="188.14996"
     inkscape:cy="101.84259"
     inkscape:document-units="px"
     inkscape:current-layer="layer2"
     showgrid="false"
     units="px"
     showguides="true"
     inkscape:window-width="1920"
     inkscape:window-height="1017"
     inkscape:window-x="-8"
     inkscape:window-y="-8"
     inkscape:window-maximized="1">
    <sodipodi:guide
       position="0,184"
       orientation="0,1"
       id="guide3354"
       inkscape:label=""
       inkscape:color="rgb(0,0,255)" />
    <sodipodi:guide
       position="8,0"
       orientation="1,0"
       id="guide3356"
       inkscape:label=""
       inkscape:color="rgb(0,0,255)" />
    <sodipodi:guide
       position="0,8"
       orientation="0,1"
       id="guide3358"
       inkscape:label=""
       inkscape:color="rgb(0,0,255)" />
    <sodipodi:guide
       position="184,0"
       orientation="1,0"
       id="guide3360"
       inkscape:label=""
       inkscape:color="rgb(0,0,255)" />
    <sodipodi:guide
       position="0,20"
       orientation="0,1"
       id="guide3362"
       inkscape:label=""
       inkscape:color="rgb(0,0,255)" />
    <sodipodi:guide
       position="172,0"
       orientation="1,0"
       id="guide3364"
       inkscape:label=""
       inkscape:color="rgb(0,0,255)" />
    <sodipodi:guide
       position="96,172"
       orientation="0,1"
       id="guide3366"
       inkscape:label=""
       inkscape:color="rgb(0,0,255)" />
    <sodipodi:guide
       position="20,0"
       orientation="1,0"
       id="guide3368"
       inkscape:label=""
       inkscape:color="rgb(0,0,255)" />
    <sodipodi:guide
       position="0,32"
       orientation="0,1"
       id="guide3370"
       inkscape:label=""
       inkscape:color="rgb(0,0,255)" />
    <sodipodi:guide
       position="160,0"
       orientation="1,0"
       id="guide3372"
       inkscape:label=""
       inkscape:color="rgb(0,0,255)" />
    <sodipodi:guide
       position="0,160"
       orientation="0,1"
       id="guide3374"
       inkscape:label=""
       inkscape:color="rgb(0,0,255)" />
    <sodipodi:guide
       position="32,0"
       orientation="1,0"
       id="guide3376"
       inkscape:label=""
       inkscape:color="rgb(0,0,255)" />
    <inkscape:grid
       type="xygrid"
       id="grid3378" />
    <sodipodi:guide
       position="0,0"
       orientation="-0.70710678,0.70710678"
       id="guide5849"
       inkscape:label=""
       inkscape:color="rgb(255,0,0)" />
    <sodipodi:guide
       position="124,0"
       orientation="1,0"
       id="guide5851"
       inkscape:label=""
       inkscape:color="rgb(255,0,0)" />
    <sodipodi:guide
       position="0,192"
       orientation="0.70710678,0.70710678"
       id="guide5853"
       inkscape:label=""
       inkscape:color="rgb(255,0,0)" />
    <sodipodi:guide
       position="96,0"
       orientation="1,0"
       id="guide5855"
       inkscape:label=""
       inkscape:color="rgb(255,0,0)" />
    <sodipodi:guide
       position="0,96"
       orientation="0,1"
       id="guide5859"
       inkscape:label=""
       inkscape:color="rgb(255,0,0)" />
    <sodipodi:guide
       position="0,124"
       orientation="0,1"
       id="guide5861"
       inkscape:label=""
       inkscape:color="rgb(255,0,0)" />
    <sodipodi:guide
       position="0,68"
       orientation="0,1"
       id="guide5863"
       inkscape:label=""
       inkscape:color="rgb(255,0,0)" />
    <sodipodi:guide
       position="68,0"
       orientation="1,0"
       id="guide5865"
       inkscape:label=""
       inkscape:color="rgb(255,0,0)" />
    <sodipodi:guide
       position="192,0"
       orientation="-192,0"
       id="guide5869" />
    <sodipodi:guide
       position="192,192"
       orientation="0,-192"
       id="guide5871" />
  </sodipodi:namedview>
  <metadata
     id="metadata7">
    <rdf:RDF>
      <cc:Work
         rdf:about="">
        <dc:format>image/svg+xml</dc:format>
        <dc:type
           rdf:resource="http://purl.org/dc/dcmitype/StillImage" />
        <dc:title></dc:title>
      </cc:Work>
    </rdf:RDF>
  </metadata>
  <g
     inkscape:groupmode="layer"
     id="layer2"
     inkscape:label="background">
    <path
       style="display:inline;fill:#00c853;fill-opacity:1;fill-rule:evenodd;stroke:none;stroke-width:0.27751422px;stroke-linecap:butt;stroke-linejoin:miter;stroke-opacity:1;filter:url(#filter5248)"
       d="m 96.336591,19.999712 1.685365,0.05201 1.237694,0.156005 1.31669,0.312008 1.36937,0.338012 0.94802,0.39001 1.60637,0.676021 0.86901,0.494014 0.73735,0.468013 0.73736,0.494015 0.84268,0.624017 0.73736,0.598018 1.05334,0.910025 8.26886,8.060236 12.85095,12.636367 26.99223,26.78078 18.82873,18.46053 1.50104,1.534053 1.00068,1.066018 0.92169,1.24805 1.00069,1.586038 0.89536,1.950063 0.50034,1.352025 c 0,0 0.39501,0.91003 0.36867,1.09202 -0.0264,0.18202 0,0.49403 -0.0264,0.26001 -0.0264,-0.23401 -0.237,-1.17002 0,-0.208 0.23701,0.96203 0.34234,1.82005 0.34234,1.82005 l 0.21068,1.22204 0.0789,1.58604 -0.0263,1.30005 -0.13167,1.14403 -0.18433,1.35204 -0.26335,1.63804 -0.57934,1.43006 -0.76368,1.56003 c 0,0 -0.57935,1.17004 -0.65836,1.30004 -0.0789,0.12999 -0.89535,1.35203 -0.89535,1.35203 l -1.05335,1.37803 -1.76438,1.79408 -4.52942,4.36812 -19.64509,19.34456 -18.35474,18.25253 -2.81771,2.70407 -1.94872,1.97607 -1.86969,1.40402 -1.4747,0.96203 -1.3957,0.70202 -0.86902,0.39002 -1.58004,0.67602 -1.73804,0.46802 -2.00138,0.39001 -1.73803,0.0779 -12.13994,0.026 -30.915987,0.0521 -1.369365,-0.0521 -1.316694,-0.23402 -1.896039,-0.57201 -2.159384,-0.88403 -1.711704,-0.96203 -1.869713,-1.30004 -1.81704,-1.76803 -1.527366,-1.53404 L 47.697839,152.44752 25.603696,130.71087 14.174782,119.42655 12.568414,117.60651 11.515059,116.04645 10.330035,113.8104 9.6453521,112.06834 9.1186744,110.27429 8.8553359,108.74026 8.75,107.4402 l 0.078994,-3.17208 0.2633384,-2.26206 0.5003426,-1.95005 0.842687,-2.054065 0.86902,-1.66405 1.106022,-1.716056 1.158691,-1.274028 2.159381,-2.158053 20.013765,-19.60458 17.854386,-17.472503 22.22581,-22.048639 5.635454,-5.668166 1.73804,-1.612047 1.264026,-1.014028 1.606367,-1.092032 1.685371,-0.884027 1.4747,-0.624017 1.817034,-0.650018 1.711706,-0.286011 1.448362,-0.208004 z"
       id="path4150"
       inkscape:connector-curvature="0" />
    <path
       style="display:inline;fill:#f5f5f5;fill-opacity:1;fill-rule:evenodd;stroke:none;stroke-width:0.27928361px;stroke-linecap:butt;stroke-linejoin:miter;stroke-opacity:1"
       d="M 95.424109,53.193766 95.045028,53.330067 94.691512,53.46423 94.499843,53.655899 78.444464,69.494052 61.302971,86.610005 43.1286,104.7013 l -0.217225,0.48981 -0.191666,0.70706 0,0.76028 0.163982,0.57074 0.244909,0.57074 7.877546,7.79663 0.760285,0.21721 7.498471,-0.16397 0.434448,-0.35352 0.517502,-0.48768 7.741252,-7.60708 20.212439,-20.29337 19.669377,-19.722626 0.35352,-0.517496 0.21722,-0.732608 0.0277,-0.707042 -0.1363,-0.62398 -0.24492,-0.570753 -10.188191,-10.079587 -0.48769,-0.381211 -0.570751,-0.24278 -0.408882,-0.136301 -0.596307,0 -0.3812,0 z m 0.27898,40.514329 -0.47065,0.10435 -0.575006,0.208702 -0.862504,0.694268 -30.042869,30.266475 -0.489818,0.5388 -0.210835,0.47278 -0.104349,0.3663 0,0.67935 0.315189,0.9413 8.267273,8.16293 8.214031,-0.0511 28.151729,-28.10064 0.31518,-0.73046 0.15548,-0.73473 0,-0.78371 -0.31305,-0.78582 -0.6815,-0.9413 -9.783558,-9.628124 -0.577138,-0.417413 -0.575007,-0.210835 -0.732598,-0.05109 z m -0.104351,40.761365 -0.628247,0.15758 -0.732598,0.62826 -10.411817,10.25637 -0.208706,0.57497 -0.210834,0.7326 0.05324,0.7837 0.3663,0.837 7.743379,7.58791 1.098896,0.47066 6.750964,0 0.836955,-0.20872 7.11513,-7.11725 0.73261,-1.04573 0.15759,-1.09885 -0.10434,-0.94132 -0.2087,-0.68151 -0.41956,-0.41733 -9.783568,-9.7325 -0.734727,-0.5239 -0.626119,-0.26194 -0.785837,0 z"
       id="path4337"
       inkscape:connector-curvature="0" />
  </g>
  <g
     inkscape:label="objects"
     inkscape:groupmode="layer"
     id="layer1"
     transform="translate(0,-860.36216)" />
  <g
     inkscape:groupmode="layer"
     id="layer3"
     inkscape:label="finish"
     sodipodi:insensitive="true">
    <path
       style="display:inline;opacity:0.2;fill:#ffffff;fill-opacity:1;fill-rule:evenodd;stroke:none;stroke-width:0.27751422px;stroke-linecap:butt;stroke-linejoin:miter;stroke-opacity:1"
       d="m 96.335938,20 -2.132813,0.02539 -1.447266,0.208984 -1.71289,0.285156 -1.816407,0.650391 -1.474609,0.623047 -1.685547,0.884765 -1.607422,1.091797 -1.263672,1.013672 -1.738281,1.613281 -5.634765,5.667969 -22.226563,22.048828 -17.853515,17.472657 -20.013672,19.603515 -2.160157,2.158203 -1.158203,1.273438 -1.105468,1.716797 -0.869141,1.664062 -0.8437501,2.054688 -0.5,1.94922 -0.2636719,2.26172 -0.078125,3.17187 0.019531,0.23243 0.058594,-2.4043 0.2636719,-2.26172 0.5,-1.94922 0.8437501,-2.054688 0.869141,-1.664062 1.105468,-1.716797 1.158203,-1.273438 2.160157,-2.158203 20.013672,-19.603515 17.853515,-17.472657 22.226563,-22.048828 5.634765,-5.667969 1.738281,-1.613281 1.263672,-1.013672 1.607422,-1.091797 1.685547,-0.884765 1.474609,-0.623047 1.816407,-0.650391 1.71289,-0.285156 L 94.203125,21.02539 96.335938,21 l 1.685546,0.05078 1.238282,0.15625 1.316404,0.3125 1.36914,0.337891 0.94922,0.390625 1.60547,0.675781 0.86914,0.494141 0.73828,0.46875 0.73633,0.492187 0.8418,0.625 0.73828,0.597656 1.05273,0.910157 8.26953,8.060547 12.85157,12.636718 26.99218,26.78125 18.82813,18.458985 1.50195,1.535156 1,1.066406 0.92188,1.248047 1,1.585938 0.89648,1.949218 0.5,1.351567 c 0,0 0.39353,0.9098 0.36719,1.09179 -0.007,0.047 -0.004,0.0957 -0.006,0.14844 0.21859,0.91727 0.32226,1.72461 0.32227,1.72461 l 0.21093,1.22266 0.0645,1.29101 0.0156,-0.70508 -0.0801,-1.58593 -0.21093,-1.22266 c -1e-5,0 -0.10368,-0.80734 -0.32227,-1.72461 -0.005,0.15131 4e-5,0.28486 -0.0195,0.11133 -0.0264,-0.23401 -0.237,-1.16905 0,-0.20703 0.009,0.0362 0.011,0.0598 0.0195,0.0957 0.002,-0.0527 -9.7e-4,-0.10139 0.006,-0.14844 0.0263,-0.18199 -0.36719,-1.09179 -0.36719,-1.09179 l -0.5,-1.351567 -0.89648,-1.949218 -1,-1.585938 -0.92188,-1.248047 -1,-1.066406 -1.50195,-1.535156 -18.82813,-18.458985 -26.99218,-26.78125 -12.85157,-12.636718 -8.26953,-8.060547 -1.05273,-0.910157 -0.73828,-0.597656 -0.8418,-0.625 -0.73633,-0.492187 -0.73828,-0.46875 L 104.5,21.923827 102.89453,21.248046 101.94531,20.857421 100.57617,20.51953 99.259766,20.20703 98.021484,20.05078 96.335938,20 Z m 86.263672,82.42578 c -0.009,-0.0359 -0.0106,-0.0595 -0.0195,-0.0957 -0.237,-0.96202 -0.0264,-0.027 0,0.20703 0.0196,0.17353 0.015,0.04 0.0195,-0.11133 z"
       id="path4258"
       inkscape:connector-curvature="0" />
    <path
       style="display:inline;opacity:0.2;fill:#263238;fill-opacity:1;fill-rule:evenodd;stroke:none;stroke-width:0.27751422px;stroke-linecap:butt;stroke-linejoin:miter;stroke-opacity:1"
       d="m 183.19727,105.66406 -0.0117,0.59375 -0.13086,1.14453 -0.18555,1.35157 -0.26367,1.63867 -0.57813,1.42969 -0.76367,1.56054 c 0,0 -0.57919,1.16883 -0.6582,1.29883 -0.0789,0.12999 -0.89649,1.35352 -0.89649,1.35352 l -1.05273,1.37695 -1.76367,1.79492 -4.5293,4.36719 -19.64648,19.3457 -18.35352,18.25196 -2.81836,2.70312 -1.94922,1.97656 -1.86914,1.4043 -1.47461,0.96289 -1.39648,0.70117 -0.86914,0.39063 -1.58008,0.67578 -1.73633,0.46875 -2.00195,0.38867 -1.73828,0.0781 -12.14063,0.0254 -30.916013,0.0527 -1.369141,-0.0527 -1.316406,-0.23243 -1.896484,-0.57226 -2.158204,-0.88477 -1.71289,-0.96093 -1.869141,-1.30079 -1.816406,-1.76757 -1.527344,-1.53516 -12.509765,-12.24609 -22.09375,-21.73633 -11.429688,-11.28516 -1.605469,-1.81836 -1.052734,-1.56054 -1.185547,-2.23633 -0.6855468,-1.74219 -0.5253906,-1.79492 -0.2636718,-1.53321 -0.085938,-1.06835 -0.019531,0.76757 0.1054688,1.30078 0.2636718,1.53321 0.5253906,1.79492 0.685547,1.74219 1.185547,2.23633 1.052734,1.56054 1.605469,1.81836 11.429688,11.28516 22.09375,21.73633 12.509765,12.24609 1.527344,1.53516 1.816406,1.76757 1.869141,1.30079 1.71289,0.96093 2.158204,0.88477 1.896484,0.57226 1.316406,0.23243 1.369141,0.0527 30.916013,-0.0527 12.14063,-0.0254 1.73828,-0.0781 2.00195,-0.38867 1.73633,-0.46875 1.58008,-0.67578 0.86914,-0.39063 1.39648,-0.70117 1.47461,-0.96289 1.86914,-1.4043 1.94922,-1.97656 2.81836,-2.70312 18.35352,-18.25196 19.64648,-19.3457 4.5293,-4.36719 1.76367,-1.79492 1.05273,-1.37695 c 0,0 0.81759,-1.22353 0.89649,-1.35352 0.079,-0.13 0.6582,-1.29883 0.6582,-1.29883 l 0.76367,-1.56054 0.57813,-1.42969 0.26367,-1.63867 0.18555,-1.35157 0.13086,-1.14453 0.0273,-1.29883 -0.0156,-0.29492 z"
       id="path4263"
       inkscape:connector-curvature="0" />
    <path
       inkscape:connector-curvature="0"
       id="path4268"
       d="m 96.336591,19.999712 1.685365,0.05201 1.237694,0.156005 1.31669,0.312008 1.36937,0.338012 0.94802,0.39001 1.60637,0.676021 0.86901,0.494014 0.73735,0.468013 0.73736,0.494015 0.84268,0.624017 0.73736,0.598018 1.05334,0.910025 8.26886,8.060236 12.85095,12.636367 26.99223,26.78078 18.82873,18.46053 1.50104,1.534053 1.00068,1.066018 0.92169,1.24805 1.00069,1.586038 0.89536,1.950063 0.50034,1.352025 c 0,0 0.39501,0.91003 0.36867,1.09202 -0.0264,0.18202 0,0.49403 -0.0264,0.26001 -0.0264,-0.23401 -0.237,-1.17002 0,-0.208 0.23701,0.96203 0.34234,1.82005 0.34234,1.82005 l 0.21068,1.22204 0.0789,1.58604 -0.0263,1.30005 -0.13167,1.14403 -0.18433,1.35204 -0.26335,1.63804 -0.57934,1.43006 -0.76368,1.56003 c 0,0 -0.57935,1.17004 -0.65836,1.30004 -0.0789,0.12999 -0.89535,1.35203 -0.89535,1.35203 l -1.05335,1.37803 -1.76438,1.79408 -4.52942,4.36812 -19.64509,19.34456 -18.35474,18.25253 -2.81771,2.70407 -1.94872,1.97607 -1.86969,1.40402 -1.4747,0.96203 -1.3957,0.70202 -0.86902,0.39002 -1.58004,0.67602 -1.73804,0.46802 -2.00138,0.39001 -1.73803,0.0779 -12.13994,0.026 -30.915987,0.0521 -1.369365,-0.0521 -1.316694,-0.23402 -1.896039,-0.57201 -2.159384,-0.88403 -1.711704,-0.96203 -1.869713,-1.30004 -1.81704,-1.76803 -1.527366,-1.53404 L 47.697839,152.44752 25.603696,130.71087 14.174782,119.42655 12.568414,117.60651 11.515059,116.04645 10.330035,113.8104 9.6453521,112.06834 9.1186744,110.27429 8.8553359,108.74026 8.75,107.4402 l 0.078994,-3.17208 0.2633384,-2.26206 0.5003426,-1.95005 0.842687,-2.054065 0.86902,-1.66405 1.106022,-1.716056 1.158691,-1.274028 2.159381,-2.158053 20.013765,-19.60458 17.854386,-17.472503 22.22581,-22.048639 5.635454,-5.668166 1.73804,-1.612047 1.264026,-1.014028 1.606367,-1.092032 1.685371,-0.884027 1.4747,-0.624017 1.817034,-0.650018 1.711706,-0.286011 1.448362,-0.208004 z"
       style="display:inline;opacity:0.1;fill:url(#radialGradient4276);fill-opacity:1;fill-rule:evenodd;stroke:none;stroke-width:0.27751422px;stroke-linecap:butt;stroke-linejoin:miter;stroke-opacity:1" />
  </g>
</svg>
