<?xml version="1.0" encoding="UTF-8" standalone="no"?>
<!-- Created with Inkscape (http://www.inkscape.org/) -->

<svg
   xmlns:dc="http://purl.org/dc/elements/1.1/"
   xmlns:cc="http://creativecommons.org/ns#"
   xmlns:rdf="http://www.w3.org/1999/02/22-rdf-syntax-ns#"
   xmlns:svg="http://www.w3.org/2000/svg"
   xmlns="http://www.w3.org/2000/svg"
   xmlns:xlink="http://www.w3.org/1999/xlink"
   xmlns:sodipodi="http://sodipodi.sourceforge.net/DTD/sodipodi-0.dtd"
   xmlns:inkscape="http://www.inkscape.org/namespaces/inkscape"
   width="192"
   height="192"
   id="svg2"
   version="1.1"
   inkscape:version="0.91 r13725"
   sodipodi:docname="feedly.svg"
   inkscape:export-filename="C:\Users\Simon\Documents\Material Design Icon Pack\PNG\feedly.png"
   inkscape:export-xdpi="90"
   inkscape:export-ydpi="90">
  <defs
     id="defs4">
    <linearGradient
       inkscape:collect="always"
       id="linearGradient8598">
      <stop
         style="stop-color:#ffffff;stop-opacity:1;"
         offset="0"
         id="stop8600" />
      <stop
         style="stop-color:#ffffff;stop-opacity:0;"
         offset="1"
         id="stop8602" />
    </linearGradient>
    <linearGradient
       inkscape:collect="always"
       id="linearGradient8590">
      <stop
         style="stop-color:#ffffff;stop-opacity:1;"
         offset="0"
         id="stop8592" />
      <stop
         style="stop-color:#ffffff;stop-opacity:0;"
         offset="1"
         id="stop8594" />
    </linearGradient>
    <filter
       color-interpolation-filters="sRGB"
       width="1"
       height="1"
       x="0"
       y="0"
       inkscape:menu-tooltip="Invert hue, or rotate it"
       inkscape:menu="Color"
       inkscape:label="Invert hue"
       id="filter3025">
      <feColorMatrix
         result="result1"
         values="180"
         type="hueRotate"
         id="feColorMatrix3027" />
    </filter>
    <filter
       style="color-interpolation-filters:sRGB;"
       inkscape:label="Drop Shadow"
       id="filter8574">
      <feFlood
         flood-opacity="0.29999999999999999"
         flood-color="rgb(0,0,0)"
         result="flood"
         id="feFlood8576" />
      <feComposite
         in="flood"
         in2="SourceGraphic"
         operator="in"
         result="composite1"
         id="feComposite8578" />
      <feGaussianBlur
         in="composite1"
         stdDeviation="3"
         result="blur"
         id="feGaussianBlur8580" />
      <feOffset
         dx="4.57967e-015"
         dy="3"
         result="offset"
         id="feOffset8582" />
      <feComposite
         in="SourceGraphic"
         in2="offset"
         operator="over"
         result="composite2"
         id="feComposite8584" />
    </filter>
    <radialGradient
       inkscape:collect="always"
       xlink:href="#linearGradient8590"
       id="radialGradient8596"
       cx="7.9999466"
       cy="9.5534124"
       fx="7.9999466"
       fy="9.5534124"
       r="87.096182"
       gradientTransform="matrix(8.3249151e-4,1.7285858,-1.9987949,9.6265738e-4,28.079757,6.4746877)"
       gradientUnits="userSpaceOnUse" />
    <radialGradient
       inkscape:collect="always"
       xlink:href="#linearGradient8598"
       id="radialGradient8604"
       cx="7.9999471"
       cy="9.5534134"
       fx="7.9999471"
       fy="9.5534134"
       r="87.096182"
       gradientTransform="matrix(8.32488e-4,1.7285858,-1.9987949,9.6262087e-4,28.079759,6.4746873)"
       gradientUnits="userSpaceOnUse" />
  </defs>
  <sodipodi:namedview
     id="base"
     pagecolor="#ffffff"
     bordercolor="#666666"
     borderopacity="1.0"
     inkscape:pageopacity="0.0"
     inkscape:pageshadow="2"
     inkscape:zoom="3.75"
     inkscape:cx="128.49383"
     inkscape:cy="115.73963"
     inkscape:document-units="px"
     inkscape:current-layer="layer4"
     showgrid="true"
     showguides="true"
     inkscape:guide-bbox="true"
     inkscape:window-width="1920"
     inkscape:window-height="1017"
     inkscape:window-x="-8"
     inkscape:window-y="-8"
     inkscape:window-maximized="1"
     inkscape:snap-global="false">
    <inkscape:grid
       type="xygrid"
       id="grid2985"
       empspacing="5"
       visible="true"
       enabled="true"
       snapvisiblegridlinesonly="true" />
    <sodipodi:guide
       orientation="1,0"
       position="8,58.524064"
       id="guide3002" />
    <sodipodi:guide
       orientation="1,0"
       position="20,69.304813"
       id="guide3004" />
    <sodipodi:guide
       orientation="1,0"
       position="32,62.631016"
       id="guide3006" />
    <sodipodi:guide
       orientation="1,0"
       position="68,53.390374"
       id="guide3008" />
    <sodipodi:guide
       orientation="0,1"
       position="119.61497,8"
       id="guide3010" />
    <sodipodi:guide
       orientation="0,1"
       position="155.5508,20"
       id="guide3012" />
    <sodipodi:guide
       orientation="0,1"
       position="132.96257,32"
       id="guide3014" />
    <sodipodi:guide
       orientation="0,1"
       position="130.90909,68"
       id="guide3016" />
    <sodipodi:guide
       orientation="0,1"
       position="137.06952,184"
       id="guide3018" />
    <sodipodi:guide
       orientation="1,0"
       position="184,145.79679"
       id="guide3020" />
    <sodipodi:guide
       orientation="0,1"
       position="91.379679,172"
       id="guide3022" />
    <sodipodi:guide
       orientation="1,0"
       position="172,101.64706"
       id="guide3024" />
    <sodipodi:guide
       orientation="0,1"
       position="149.39037,160"
       id="guide3026" />
    <sodipodi:guide
       orientation="1,0"
       position="160,88.299465"
       id="guide3028" />
    <sodipodi:guide
       orientation="0,1"
       position="128.34225,124"
       id="guide3030" />
    <sodipodi:guide
       orientation="1,0"
       position="124,92.919786"
       id="guide3032" />
  </sodipodi:namedview>
  <metadata
     id="metadata7">
    <rdf:RDF>
      <cc:Work
         rdf:about="">
        <dc:format>image/svg+xml</dc:format>
        <dc:type
           rdf:resource="http://purl.org/dc/dcmitype/StillImage" />
        <dc:title />
      </cc:Work>
    </rdf:RDF>
  </metadata>
  <g
     inkscape:groupmode="layer"
     id="layer4"
     inkscape:label="Square"
     style="display:inline">
    <path
       inkscape:connector-curvature="0"
       id="path8572"
       d="m 96.354456,19.534812 1.680064,0.0525 1.2338,0.157507 1.31255,0.315012 1.36506,0.341264 0.94504,0.393766 1.60132,0.682528 0.86628,0.49877 0.73503,0.472519 0.73503,0.49877 0.84004,0.630026 0.73503,0.603774 1.05003,0.918787 8.24285,8.137829 12.81052,12.758015 26.90733,27.038594 18.7695,18.638247 1.49632,1.548818 0.99754,1.076291 0.91878,1.260054 0.99754,1.601315 0.89254,1.968829 0.49877,1.365053 c 0,0 0.39377,0.91879 0.36751,1.10255 -0.0263,0.18375 0,0.49877 -0.0263,0.2625 -0.0263,-0.23626 -0.23626,-1.18129 0,-0.21001 0.23626,0.97129 0.34126,1.83758 0.34126,1.83758 l 0.21001,1.2338 0.0787,1.60131 -0.0263,1.31256 -0.13125,1.15504 -0.18375,1.36506 -0.26252,1.65382 -0.57752,1.44381 -0.76128,1.57506 c 0,0 -0.57752,1.1813 -0.65628,1.31255 -0.0787,0.13125 -0.89254,1.36505 -0.89254,1.36505 l -1.05004,1.39131 -1.75882,1.81133 -4.51518,4.41018 -19.58329,19.53079 -18.29699,18.42824 -2.80886,2.73011 -1.94258,1.99509 -1.86382,1.41755 -1.47006,0.97129 -1.39131,0.70878 -0.86629,0.39376 -1.57506,0.68253 -1.73257,0.47252 -1.99508,0.39377 -1.73257,0.0787 -12.10175,0.0263 -30.818741,0.0525 -1.365056,-0.0525 -1.312552,-0.23626 -1.890076,-0.57752 -2.152588,-0.89254 -1.70632,-0.97128 -1.863833,-1.31255 -1.811323,-1.78507 -1.522561,-1.54881 -12.469162,-12.36425 -22.02464,-21.9459 -11.392961,-11.39295 -1.601315,-1.83758 -1.050043,-1.57507 -1.181296,-2.25758 -0.6825284,-1.75883 -0.5250209,-1.81132 -0.2625109,-1.54881 -0.1050041,-1.31255 0.07875,-3.20263 0.262511,-2.28384 0.4987687,-1.96883 0.8400346,-2.073845 0.866286,-1.680065 1.102544,-1.73257 1.155046,-1.286297 2.152587,-2.178835 19.950808,-19.7933 17.79822,-17.64071 22.155894,-22.2609 5.617727,-5.722731 1.732572,-1.627567 1.26005,-1.023791 1.601315,-1.102544 1.680068,-0.892537 1.47006,-0.630025 1.81132,-0.656276 1.70632,-0.288762 1.443807,-0.210008 z"
       style="fill:#66bb6a;fill-opacity:1;fill-rule:evenodd;stroke:#66bb6a;stroke-width:0.27891752px;stroke-linecap:butt;stroke-linejoin:miter;stroke-opacity:1;filter:url(#filter8574)"
       transform="matrix(0.98873686,0,0,0.98873686,1.0812612,0.80142224)" />
    <path
       inkscape:connector-curvature="0"
       id="path8570"
       d="m 96.350463,20.116211 1.661142,0.05191 1.219903,0.155733 1.297772,0.311465 1.34968,0.33742 0.9344,0.389331 1.58328,0.67484 0.85652,0.493152 0.72675,0.467198 0.72676,0.493152 0.83058,0.62293 0.72675,0.596974 1.0382,0.908438 8.15001,8.046172 12.66623,12.614319 26.60427,26.734054 18.5581,18.428323 1.47946,1.531373 0.98631,1.064168 0.90843,1.245863 0.98631,1.583278 0.88248,1.946654 0.49315,1.349672 c 0,0 0.38934,0.90845 0.36338,1.09014 -0.026,0.18168 0,0.49315 -0.026,0.25954 -0.026,-0.2336 -0.2336,-1.16799 0,-0.20765 0.2336,0.96035 0.33742,1.81689 0.33742,1.81689 l 0.20765,1.2199 0.0778,1.58327 -0.026,1.29778 -0.12977,1.14203 -0.18168,1.34969 -0.25956,1.63519 -0.57102,1.42755 -0.7527,1.55732 c 0,0 -0.57102,1.16799 -0.64889,1.29776 -0.0778,0.12978 -0.88249,1.34968 -0.88249,1.34968 l -1.03822,1.37564 -1.739,1.79093 -4.46433,4.3605 -19.36272,19.31082 -18.0909,18.22069 -2.77723,2.69936 -1.9207,1.97262 -1.84283,1.40159 -1.4535,0.96034 -1.37564,0.7008 -0.85653,0.38932 -1.55732,0.67484 -1.71306,0.46719 -1.9726,0.38934 -1.71307,0.0778 -11.96544,0.026 -30.471626,0.0519 -1.349681,-0.0519 -1.297768,-0.23359 -1.868788,-0.57103 -2.128344,-0.88247 -1.687101,-0.96034 -1.842841,-1.29778 -1.790921,-1.76497 -1.505412,-1.53136 -12.32872,-12.22499 -21.776574,-21.69872 -11.26464,-11.26462 -1.58328,-1.81688 -1.038216,-1.55733 -1.167991,-2.23215 -0.67484,-1.73903 -0.519108,-1.79091 -0.259554,-1.53137 -0.103822,-1.29776 0.07786,-3.16657 0.259553,-2.25811 0.493152,-1.94666 0.830573,-2.050492 0.856529,-1.661142 1.090125,-1.713056 1.142037,-1.27181 2.128342,-2.154294 L 36.627043,71.611701 54.2248,54.16968 76.131149,32.159508 l 5.554453,-5.658275 1.713058,-1.609235 1.245858,-1.01226 1.58328,-1.090126 1.661145,-0.882484 1.453502,-0.622929 1.790919,-0.648885 1.687102,-0.285509 1.427544,-0.207643 z"
       style="opacity:1;fill:#85c988;fill-opacity:1;fill-rule:evenodd;stroke:#85c988;stroke-width:0.27577603px;stroke-linecap:butt;stroke-linejoin:miter;stroke-opacity:1" />
    <path
       inkscape:connector-curvature="0"
       id="path8552"
       d="m 96.350465,21.096263 1.66115,0.05158 1.21991,0.154728 1.297775,0.309453 1.34969,0.335241 0.93441,0.386818 1.58328,0.670485 0.85653,0.489968 0.72675,0.46418 0.72677,0.489969 0.83057,0.618909 0.72676,0.593119 1.03821,0.902573 8.15005,7.994225 12.6663,12.532882 26.6044,26.561458 18.5582,18.309349 1.47947,1.521487 0.98632,1.057298 0.90842,1.237818 0.98632,1.573058 0.88249,1.934086 0.49316,1.340953 c 0,0 0.38934,0.90259 0.36337,1.0831 -0.026,0.1805 0,0.48997 -0.026,0.25786 -0.026,-0.23209 -0.23359,-1.16044 0,-0.2063 0.2336,0.95415 0.33742,1.80516 0.33742,1.80516 l 0.20764,1.21203 0.0778,1.57304 -0.026,1.28941 -0.12977,1.13465 -0.18168,1.34097 -0.25957,1.62463 -0.57102,1.41834 -0.75271,1.54726 c 0,0 -0.57102,1.16046 -0.64888,1.2894 -0.0778,0.12892 -0.88251,1.34096 -0.88251,1.34096 l -1.03821,1.36675 -1.73901,1.77937 -4.46436,4.33236 -19.36282,19.18614 -18.091,18.10304 -2.77724,2.68194 -1.92071,1.95988 -1.84284,1.39254 -1.4535,0.95414 -1.37565,0.69628 -0.85654,0.38682 -1.55732,0.67048 -1.71307,0.46418 -1.97262,0.38682 -1.71307,0.0773 -11.9655,0.0258 -30.471788,0.0516 -1.349689,-0.0516 -1.297775,-0.23209 -1.868798,-0.56733 -2.128354,-0.87679 -1.687111,-0.95414 -1.84285,-1.28939 -1.79093,-1.75357 -1.50542,-1.52148 -12.328783,-12.14606 -21.776688,-21.55863 -11.264698,-11.19191 -1.583288,-1.80516 -1.03822,-1.54727 -1.167999,-2.21774 -0.674844,-1.72779 -0.51911,-1.77936 -0.259555,-1.52148 -0.103822,-1.28939 0.07786,-3.14612 0.259555,-2.24353 0.493154,-1.93409 0.830578,-2.037241 0.856533,-1.650418 1.090131,-1.701995 1.142043,-1.263599 2.128353,-2.140386 L 36.62672,72.259248 54.224567,54.929834 76.13103,33.061759 l 5.554482,-5.621744 1.713067,-1.598847 1.245864,-1.005724 1.583288,-1.083088 1.661153,-0.876788 1.45351,-0.618906 1.790928,-0.644696 1.687111,-0.283666 1.427552,-0.206302 z"
       style="opacity:1;fill:#5da263;fill-opacity:1;fill-rule:evenodd;stroke:#5da263;stroke-width:0.27488512px;stroke-linecap:butt;stroke-linejoin:miter;stroke-opacity:1;" />
    <path
       style="fill:#66bb6a;fill-opacity:1;fill-rule:evenodd;stroke:#66bb6a;stroke-width:0.27402887px;stroke-linecap:butt;stroke-linejoin:miter;stroke-opacity:1"
       d="m 96.350467,21.046398 1.661158,0.05126 1.219916,0.153764 1.297779,0.307527 1.3497,0.333156 0.93441,0.384409 1.58329,0.666311 0.85654,0.486918 0.72675,0.461291 0.72677,0.486919 0.83058,0.615054 0.72677,0.589428 1.03821,0.896955 8.15009,7.944462 12.66636,12.454866 26.60453,26.396114 18.55829,18.195374 1.47948,1.512015 0.98631,1.050717 0.90845,1.230113 0.98632,1.563266 0.88249,1.922047 0.49316,1.332606 c 0,0 0.38933,0.89696 0.36337,1.07635 -0.026,0.17939 0,0.48693 -0.026,0.25626 -0.026,-0.23064 -0.2336,-1.15321 0,-0.20501 0.23361,0.94821 0.33743,1.79391 0.33743,1.79391 l 0.20765,1.20448 0.0778,1.56326 -0.026,1.28138 -0.12977,1.1276 -0.18169,1.33262 -0.25957,1.61452 -0.57102,1.40951 -0.7527,1.53762 c 0,0 -0.57103,1.15323 -0.64891,1.28137 -0.0778,0.12812 -0.88249,1.33261 -0.88249,1.33261 l -1.03822,1.35825 -1.73904,1.7683 -4.46436,4.30539 -19.36292,19.0667 -18.0911,17.99036 -2.77724,2.66523 -1.92073,1.94769 -1.84283,1.38386 -1.45352,0.94821 -1.37566,0.69194 -0.85653,0.38441 -1.55734,0.66631 -1.71309,0.46129 -1.97263,0.38441 -1.71307,0.0768 -11.96556,0.0256 -30.471937,0.0513 -1.349695,-0.0513 -1.297783,-0.23065 -1.868805,-0.5638 -2.128367,-0.87133 -1.687118,-0.94821 -1.842858,-1.28137 -1.790941,-1.74264 -1.505428,-1.512 -12.328834,-12.0704 -21.776795,-21.42444 -11.264755,-11.12223 -1.583295,-1.79392 -1.038227,-1.53764 -1.168003,-2.20394 -0.674848,-1.71704 -0.519113,-1.76828 -0.259556,-1.512 -0.103823,-1.28138 0.07786,-3.12651 0.259556,-2.22958 0.493156,-1.922043 0.830583,-2.024566 0.856538,-1.640145 1.090136,-1.6914 1.142048,-1.255734 2.128365,-2.127061 L 36.62644,71.89091 54.224375,54.669369 76.130947,32.937424 l 5.55451,-5.586751 1.713075,-1.588893 1.245871,-0.999463 1.583294,-1.076347 1.661163,-0.871329 1.453518,-0.615055 1.790936,-0.640681 1.687119,-0.281902 1.427559,-0.205017 z"
       id="path4150"
       inkscape:connector-curvature="0" />
    <path
       style="fill:#ffffff;fill-opacity:1;fill-rule:evenodd;stroke:#ffffff;stroke-width:0.27577603px;stroke-linecap:butt;stroke-linejoin:miter;stroke-opacity:1"
       d="m 95.451092,53.763672 -0.373637,0.134343 -0.348438,0.132236 -0.188916,0.188916 L 78.715333,69.82983 61.82005,86.699937 43.906725,104.53139 l -0.214104,0.48278 -0.188914,0.69689 0,0.74937 0.161627,0.56254 0.241391,0.56254 7.764398,7.68464 0.749364,0.2141 7.390768,-0.16162 0.428208,-0.34845 0.510068,-0.48067 7.630062,-7.49782 19.922119,-20.001889 19.386858,-19.439341 0.34845,-0.510067 0.2141,-0.722076 0.0273,-0.696887 -0.13434,-0.615027 -0.2414,-0.562543 -10.041864,-9.934817 -0.480685,-0.375736 -0.562553,-0.239292 -0.40301,-0.134343 -0.587742,0 -0.375724,0 z m 0.274973,39.932406 -0.46389,0.102851 -0.566748,0.205702 -0.850115,0.684298 -29.61135,29.831751 -0.482783,0.53106 -0.207807,0.46599 -0.102849,0.36104 0,0.66959 0.310661,0.92778 8.148526,8.04568 8.09605,-0.0504 27.74738,-27.69702 0.31066,-0.71997 0.15324,-0.72417 0,-0.77246 -0.30856,-0.77454 -0.6717,-0.92778 -9.643044,-9.489832 -0.568848,-0.411413 -0.566749,-0.20781 -0.722074,-0.05036 z m -0.102852,40.175892 -0.619224,0.15532 -0.722075,0.61923 -10.262268,10.10906 -0.205708,0.56671 -0.207806,0.72208 0.05247,0.77244 0.361039,0.82498 7.632158,7.47892 1.083112,0.4639 6.653997,0 0.824932,-0.20572 7.01295,-7.01502 0.72208,-1.03071 0.15533,-1.08307 -0.10285,-0.9278 -0.2057,-0.67172 -0.41353,-0.41134 -9.643053,-9.59271 -0.724173,-0.51637 -0.617126,-0.25818 -0.774549,0 z"
       id="path4337"
       inkscape:connector-curvature="0" />
  </g>
  <g
     inkscape:groupmode="layer"
     id="layer2"
     inkscape:label="Square 1">
    <path
       style="display:inline;opacity:0.1;fill:url(#radialGradient8596);fill-opacity:1;fill-rule:evenodd;stroke:url(#radialGradient8604);stroke-width:0.27577603px;stroke-linecap:butt;stroke-linejoin:miter;stroke-opacity:1"
       d="m 96.350463,20.116211 1.661142,0.05191 1.219903,0.155733 1.297772,0.311465 1.34968,0.33742 0.9344,0.389331 1.58328,0.67484 0.85652,0.493152 0.72675,0.467198 0.72676,0.493152 0.83058,0.62293 0.72675,0.596974 1.0382,0.908438 8.15001,8.046172 12.66623,12.614319 26.60427,26.734054 18.5581,18.428323 1.47946,1.531373 0.98631,1.064168 0.90843,1.245863 0.98631,1.583278 0.88248,1.946654 0.49315,1.349672 c 0,0 0.38934,0.90845 0.36338,1.09014 -0.026,0.18168 0,0.49315 -0.026,0.25954 -0.026,-0.2336 -0.2336,-1.16799 0,-0.20765 0.2336,0.96035 0.33742,1.81689 0.33742,1.81689 l 0.20765,1.2199 0.0778,1.58327 -0.026,1.29778 -0.12977,1.14203 -0.18168,1.34969 -0.25956,1.63519 -0.57102,1.42755 -0.7527,1.55732 c 0,0 -0.57102,1.16799 -0.64889,1.29776 -0.0778,0.12978 -0.88249,1.34968 -0.88249,1.34968 l -1.03822,1.37564 -1.739,1.79093 -4.46433,4.3605 -19.36272,19.31082 -18.0909,18.22069 -2.77723,2.69936 -1.9207,1.97262 -1.84283,1.40159 -1.4535,0.96034 -1.37564,0.7008 -0.85653,0.38932 -1.55732,0.67484 -1.71306,0.46719 -1.9726,0.38934 -1.71307,0.0778 -11.96544,0.026 -30.471626,0.0519 -1.349681,-0.0519 -1.297768,-0.23359 -1.868788,-0.57103 -2.128344,-0.88247 -1.687101,-0.96034 -1.842841,-1.29778 -1.790921,-1.76497 -1.505412,-1.53136 -12.32872,-12.22499 -21.776574,-21.69872 -11.26464,-11.26462 -1.58328,-1.81688 -1.038216,-1.55733 -1.167991,-2.23215 -0.67484,-1.73903 -0.519108,-1.79091 -0.259554,-1.53137 -0.103822,-1.29776 0.07786,-3.16657 0.259553,-2.25811 0.493152,-1.94666 0.830573,-2.050492 0.856529,-1.661142 1.090125,-1.713056 1.142037,-1.27181 2.128342,-2.154294 L 36.627043,71.611701 54.2248,54.16968 76.131149,32.159508 l 5.554453,-5.658275 1.713058,-1.609235 1.245858,-1.01226 1.58328,-1.090126 1.661145,-0.882484 1.453502,-0.622929 1.790919,-0.648885 1.687102,-0.285509 1.427544,-0.207643 z"
       id="path8586"
       inkscape:connector-curvature="0" />
  </g>
</svg>
