<?xml version="1.0" encoding="utf-8"?>
<!-- Generator: Adobe Illustrator 19.0.1, SVG Export Plug-In . SVG Version: 6.00 Build 0)  -->
<!DOCTYPE svg PUBLIC "-//W3C//DTD SVG 1.1//EN" "http://www.w3.org/Graphics/SVG/1.1/DTD/svg11.dtd">
<svg version="1.1"
	 id="svg2" xmlns:svg="http://www.w3.org/2000/svg" xmlns:dc="http://purl.org/dc/elements/1.1/" xmlns:rdf="http://www.w3.org/1999/02/22-rdf-syntax-ns#" xmlns:cc="http://creativecommons.org/ns#" xmlns:sodipodi="http://sodipodi.sourceforge.net/DTD/sodipodi-0.dtd" xmlns:inkscape="http://www.inkscape.org/namespaces/inkscape" inkscape:export-ydpi="90" inkscape:export-xdpi="90" inkscape:export-filename="C:\Users\Simon\Documents\Material Design Icon Pack\PNG\feedly.png" sodipodi:docname="feedly.svg" inkscape:version="0.91 r13725"
	 xmlns="http://www.w3.org/2000/svg" xmlns:xlink="http://www.w3.org/1999/xlink" x="0px" y="0px" viewBox="-443 865 192 192"
	 style="enable-background:new -443 865 192 192;" xml:space="preserve">
<style type="text/css">
	.st0{filter:url(#filter8574);}
	.st1{fill:#66BB6A;}
	.st2{fill:none;stroke:#66BB6A;stroke-width:0.2789;}
	.st3{fill:#85C988;stroke:#85C988;stroke-width:0.2758;}
	.st4{fill:#5DA263;stroke:#5DA263;stroke-width:0.2749;}
	.st5{fill:#66BB6A;stroke:#66BB6A;stroke-width:0.274;}
	.st6{fill:#FFFFFF;stroke:#FFFFFF;stroke-width:0.2758;}
	.st7{opacity:0.1;fill:url(#path8586_1_);stroke:url(#path8586_2_);stroke-width:0.2758;enable-background:new    ;}
</style>
<filter  inkscape:label="Drop Shadow" style="color-interpolation-filters:sRGB;" id="filter8574">
	<feFlood  result="flood" flood-color="rgb(0,0,0)" flood-opacity="0.29999999999999999" id="feFlood8576"></feFlood>
	<feComposite  operator="in" in2="SourceGraphic" in="flood" result="composite1" id="feComposite8578"></feComposite>
	<feGaussianBlur  in="composite1" stdDeviation="3" result="blur" id="feGaussianBlur8580"></feGaussianBlur>
	<feOffset  dy="3" dx="4.57967e-015" result="offset" id="feOffset8582"></feOffset>
	<feComposite  operator="over" in2="offset" in="SourceGraphic" result="composite2" id="feComposite8584"></feComposite>
</filter>
<sodipodi:namedview  showgrid="true" showguides="true" inkscape:cy="115.73963" inkscape:cx="128.49383" borderopacity="1.0" bordercolor="#666666" pagecolor="#ffffff" id="base" inkscape:zoom="3.75" inkscape:snap-global="false" inkscape:window-maximized="1" inkscape:window-y="-8" inkscape:window-x="-8" inkscape:window-height="1017" inkscape:window-width="1920" inkscape:guide-bbox="true" inkscape:pageshadow="2" inkscape:current-layer="layer4" inkscape:pageopacity="0.0" inkscape:document-units="px">
	<inkscape:grid  type="xygrid" empspacing="5" enabled="true" visible="true" id="grid2985" snapvisiblegridlinesonly="true">
		</inkscape:grid>
	<sodipodi:guide  id="guide3002" orientation="1,0" position="8,58.524064"></sodipodi:guide>
	<sodipodi:guide  id="guide3004" orientation="1,0" position="20,69.304813"></sodipodi:guide>
	<sodipodi:guide  id="guide3006" orientation="1,0" position="32,62.631016"></sodipodi:guide>
	<sodipodi:guide  id="guide3008" orientation="1,0" position="68,53.390374"></sodipodi:guide>
	<sodipodi:guide  id="guide3010" orientation="0,1" position="119.61497,8"></sodipodi:guide>
	<sodipodi:guide  id="guide3012" orientation="0,1" position="155.5508,20"></sodipodi:guide>
	<sodipodi:guide  id="guide3014" orientation="0,1" position="132.96257,32"></sodipodi:guide>
	<sodipodi:guide  id="guide3016" orientation="0,1" position="130.90909,68"></sodipodi:guide>
	<sodipodi:guide  id="guide3018" orientation="0,1" position="137.06952,184"></sodipodi:guide>
	<sodipodi:guide  id="guide3020" orientation="1,0" position="184,145.79679"></sodipodi:guide>
	<sodipodi:guide  id="guide3022" orientation="0,1" position="91.379679,172"></sodipodi:guide>
	<sodipodi:guide  id="guide3024" orientation="1,0" position="172,101.64706"></sodipodi:guide>
	<sodipodi:guide  id="guide3026" orientation="0,1" position="149.39037,160"></sodipodi:guide>
	<sodipodi:guide  id="guide3028" orientation="1,0" position="160,88.299465"></sodipodi:guide>
	<sodipodi:guide  id="guide3030" orientation="0,1" position="128.34225,124"></sodipodi:guide>
	<sodipodi:guide  id="guide3032" orientation="1,0" position="124,92.919786"></sodipodi:guide>
</sodipodi:namedview>
<g id="layer4" inkscape:label="Square" inkscape:groupmode="layer">
	<g id="path8572" inkscape:connector-curvature="0" class="st0">
		<path class="st1" d="M-346.6,885.1l1.7,0.1l1.2,0.2l1.3,0.3l1.3,0.3l0.9,0.4l1.6,0.7l0.9,0.5l0.7,0.5l0.7,0.5l0.8,0.6l0.7,0.6
			l1,0.9l8.1,8l12.7,12.6l26.6,26.7l18.6,18.4l1.5,1.5l1,1.1l0.9,1.2l1,1.6l0.9,1.9l0.5,1.3c0,0,0.4,0.9,0.4,1.1c0,0.2,0,0.5,0,0.3
			c0-0.2-0.2-1.2,0-0.2c0.2,1,0.3,1.8,0.3,1.8l0.2,1.2l0.1,1.6l0,1.3l-0.1,1.1l-0.2,1.3l-0.3,1.6l-0.6,1.4l-0.8,1.6
			c0,0-0.6,1.2-0.6,1.3c-0.1,0.1-0.9,1.3-0.9,1.3l-1,1.4l-1.7,1.8l-4.5,4.4l-19.4,19.3l-18.1,18.2l-2.8,2.7l-1.9,2l-1.8,1.4l-1.5,1
			l-1.4,0.7l-0.9,0.4l-1.6,0.7l-1.7,0.5l-2,0.4l-1.7,0.1l-12,0l-30.5,0.1l-1.3-0.1l-1.3-0.2l-1.9-0.6l-2.1-0.9l-1.7-1l-1.8-1.3
			l-1.8-1.8l-1.5-1.5l-12.3-12.2l-21.8-21.7l-11.3-11.3l-1.6-1.8l-1-1.6l-1.2-2.2l-0.7-1.7l-0.5-1.8l-0.3-1.5l-0.1-1.3l0.1-3.2
			l0.3-2.3l0.5-1.9l0.8-2.1l0.9-1.7l1.1-1.7l1.1-1.3l2.1-2.2l19.7-19.6l17.6-17.4l21.9-22l5.6-5.7l1.7-1.6l1.2-1l1.6-1.1l1.7-0.9
			l1.5-0.6l1.8-0.6l1.7-0.3l1.4-0.2L-346.6,885.1z"/>
		<path class="st2" d="M-346.6,885.1l1.7,0.1l1.2,0.2l1.3,0.3l1.3,0.3l0.9,0.4l1.6,0.7l0.9,0.5l0.7,0.5l0.7,0.5l0.8,0.6l0.7,0.6
			l1,0.9l8.1,8l12.7,12.6l26.6,26.7l18.6,18.4l1.5,1.5l1,1.1l0.9,1.2l1,1.6l0.9,1.9l0.5,1.3c0,0,0.4,0.9,0.4,1.1c0,0.2,0,0.5,0,0.3
			c0-0.2-0.2-1.2,0-0.2c0.2,1,0.3,1.8,0.3,1.8l0.2,1.2l0.1,1.6l0,1.3l-0.1,1.1l-0.2,1.3l-0.3,1.6l-0.6,1.4l-0.8,1.6
			c0,0-0.6,1.2-0.6,1.3c-0.1,0.1-0.9,1.3-0.9,1.3l-1,1.4l-1.7,1.8l-4.5,4.4l-19.4,19.3l-18.1,18.2l-2.8,2.7l-1.9,2l-1.8,1.4l-1.5,1
			l-1.4,0.7l-0.9,0.4l-1.6,0.7l-1.7,0.5l-2,0.4l-1.7,0.1l-12,0l-30.5,0.1l-1.3-0.1l-1.3-0.2l-1.9-0.6l-2.1-0.9l-1.7-1l-1.8-1.3
			l-1.8-1.8l-1.5-1.5l-12.3-12.2l-21.8-21.7l-11.3-11.3l-1.6-1.8l-1-1.6l-1.2-2.2l-0.7-1.7l-0.5-1.8l-0.3-1.5l-0.1-1.3l0.1-3.2
			l0.3-2.3l0.5-1.9l0.8-2.1l0.9-1.7l1.1-1.7l1.1-1.3l2.1-2.2l19.7-19.6l17.6-17.4l21.9-22l5.6-5.7l1.7-1.6l1.2-1l1.6-1.1l1.7-0.9
			l1.5-0.6l1.8-0.6l1.7-0.3l1.4-0.2L-346.6,885.1z"/>
	</g>
	<path id="path8570" inkscape:connector-curvature="0" class="st3" d="M-346.6,885.1l1.7,0.1l1.2,0.2l1.3,0.3l1.3,0.3l0.9,0.4
		l1.6,0.7l0.9,0.5l0.7,0.5l0.7,0.5l0.8,0.6l0.7,0.6l1,0.9l8.1,8l12.7,12.6l26.6,26.7l18.6,18.4l1.5,1.5l1,1.1l0.9,1.2l1,1.6l0.9,1.9
		l0.5,1.3c0,0,0.4,0.9,0.4,1.1c0,0.2,0,0.5,0,0.3c0-0.2-0.2-1.2,0-0.2c0.2,1,0.3,1.8,0.3,1.8l0.2,1.2l0.1,1.6l0,1.3l-0.1,1.1
		l-0.2,1.3l-0.3,1.6l-0.6,1.4l-0.8,1.6c0,0-0.6,1.2-0.6,1.3c-0.1,0.1-0.9,1.3-0.9,1.3l-1,1.4l-1.7,1.8l-4.5,4.4l-19.4,19.3
		l-18.1,18.2l-2.8,2.7l-1.9,2l-1.8,1.4l-1.5,1l-1.4,0.7l-0.9,0.4l-1.6,0.7l-1.7,0.5l-2,0.4l-1.7,0.1l-12,0l-30.5,0.1l-1.3-0.1
		l-1.3-0.2l-1.9-0.6l-2.1-0.9l-1.7-1l-1.8-1.3l-1.8-1.8l-1.5-1.5l-12.3-12.2l-21.8-21.7l-11.3-11.3l-1.6-1.8l-1-1.6l-1.2-2.2
		l-0.7-1.7l-0.5-1.8l-0.3-1.5l-0.1-1.3l0.1-3.2l0.3-2.3l0.5-1.9l0.8-2.1l0.9-1.7l1.1-1.7l1.1-1.3l2.1-2.2l19.7-19.6l17.6-17.4
		l21.9-22l5.6-5.7l1.7-1.6l1.2-1l1.6-1.1l1.7-0.9l1.5-0.6l1.8-0.6l1.7-0.3l1.4-0.2L-346.6,885.1z"/>
	<path id="path8552" inkscape:connector-curvature="0" class="st4" d="M-346.6,886.1l1.7,0.1l1.2,0.2l1.3,0.3l1.3,0.3l0.9,0.4
		l1.6,0.7l0.9,0.5l0.7,0.5l0.7,0.5l0.8,0.6l0.7,0.6l1,0.9l8.2,8l12.7,12.5l26.6,26.6l18.6,18.3l1.5,1.5l1,1.1l0.9,1.2l1,1.6l0.9,1.9
		l0.5,1.3c0,0,0.4,0.9,0.4,1.1c0,0.2,0,0.5,0,0.3s-0.2-1.2,0-0.2s0.3,1.8,0.3,1.8l0.2,1.2l0.1,1.6l0,1.3l-0.1,1.1l-0.2,1.3l-0.3,1.6
		l-0.6,1.4l-0.8,1.5c0,0-0.6,1.2-0.6,1.3c-0.1,0.1-0.9,1.3-0.9,1.3l-1,1.4l-1.7,1.8l-4.5,4.3l-19.4,19.2l-18.1,18.1l-2.8,2.7l-1.9,2
		l-1.8,1.4l-1.5,1l-1.4,0.7l-0.9,0.4l-1.6,0.7l-1.7,0.5l-2,0.4l-1.7,0.1l-12,0l-30.5,0.1l-1.3-0.1l-1.3-0.2l-1.9-0.6l-2.1-0.9
		l-1.7-1l-1.8-1.3l-1.8-1.8l-1.5-1.5l-12.3-12.1l-21.8-21.6l-11.3-11.2l-1.6-1.8l-1-1.5l-1.2-2.2l-0.7-1.7l-0.5-1.8l-0.3-1.5
		l-0.1-1.3l0.1-3.1l0.3-2.2l0.5-1.9l0.8-2l0.9-1.7l1.1-1.7l1.1-1.3l2.1-2.1l19.7-19.4l17.6-17.3l21.9-21.9l5.6-5.6l1.7-1.6l1.2-1
		l1.6-1.1l1.7-0.9l1.5-0.6l1.8-0.6l1.7-0.3l1.4-0.2L-346.6,886.1z"/>
	<path id="path4150" inkscape:connector-curvature="0" class="st5" d="M-346.6,886l1.7,0.1l1.2,0.2l1.3,0.3l1.3,0.3l0.9,0.4l1.6,0.7
		l0.9,0.5l0.7,0.5l0.7,0.5l0.8,0.6l0.7,0.6l1,0.9l8.2,7.9l12.7,12.5l26.6,26.4l18.6,18.2l1.5,1.5l1,1.1l0.9,1.2l1,1.6l0.9,1.9
		l0.5,1.3c0,0,0.4,0.9,0.4,1.1c0,0.2,0,0.5,0,0.3s-0.2-1.2,0-0.2c0.2,0.9,0.3,1.8,0.3,1.8l0.2,1.2l0.1,1.6l0,1.3l-0.1,1.1l-0.2,1.3
		l-0.3,1.6l-0.6,1.4l-0.8,1.5c0,0-0.6,1.2-0.6,1.3c-0.1,0.1-0.9,1.3-0.9,1.3l-1,1.4l-1.7,1.8l-4.5,4.3l-19.4,19.1l-18.1,18l-2.8,2.7
		l-1.9,1.9l-1.8,1.4l-1.5,0.9l-1.4,0.7l-0.9,0.4l-1.6,0.7l-1.7,0.5l-2,0.4l-1.7,0.1l-12,0l-30.5,0.1l-1.3-0.1l-1.3-0.2l-1.9-0.6
		l-2.1-0.9l-1.7-0.9l-1.8-1.3l-1.8-1.7l-1.5-1.5l-12.3-12.1l-21.8-21.4l-11.3-11.1l-1.6-1.8l-1-1.5l-1.2-2.2l-0.7-1.7l-0.5-1.8
		l-0.3-1.5l-0.1-1.3l0.1-3.1l0.3-2.2l0.5-1.9l0.8-2l0.9-1.6l1.1-1.7l1.1-1.3l2.1-2.1l19.7-19.3l17.6-17.2l21.9-21.7l5.6-5.6l1.7-1.6
		l1.2-1l1.6-1.1l1.7-0.9l1.5-0.6l1.8-0.6l1.7-0.3l1.4-0.2L-346.6,886z"/>
	<path id="path4337" inkscape:connector-curvature="0" class="st6" d="M-347.5,918.8l-0.4,0.1l-0.3,0.1l-0.2,0.2l-15.8,15.6
		l-16.9,16.9l-17.9,17.8l-0.2,0.5l-0.2,0.7v0.7l0.2,0.6l0.2,0.6l7.8,7.7l0.7,0.2l7.4-0.2l0.4-0.3l0.5-0.5l7.6-7.5l19.9-20l19.4-19.4
		l0.3-0.5l0.2-0.7l0-0.7l-0.1-0.6l-0.2-0.6l-10-9.9l-0.5-0.4l-0.6-0.2l-0.4-0.1h-0.6C-347.2,918.8-347.5,918.8-347.5,918.8z
		 M-347.3,958.7l-0.5,0.1l-0.6,0.2l-0.9,0.7l-29.6,29.8l-0.5,0.5l-0.2,0.5l-0.1,0.4v0.7l0.3,0.9l8.1,8l8.1-0.1l27.7-27.7l0.3-0.7
		l0.2-0.7v-0.8l-0.3-0.8l-0.7-0.9l-9.6-9.5l-0.6-0.4l-0.6-0.2L-347.3,958.7L-347.3,958.7z M-347.4,998.9l-0.6,0.2l-0.7,0.6
		l-10.3,10.1l-0.2,0.6l-0.2,0.7l0.1,0.8l0.4,0.8l7.6,7.5l1.1,0.5h6.7l0.8-0.2l7-7l0.7-1l0.2-1.1l-0.1-0.9l-0.2-0.7l-0.4-0.4
		l-9.6-9.6l-0.7-0.5l-0.6-0.3H-347.4L-347.4,998.9z"/>
</g>
<g id="layer2" inkscape:label="Square 1" inkscape:groupmode="layer">
	
		<radialGradient id="path8586_1_" cx="-378.6247" cy="2133.8721" r="87.1065" gradientTransform="matrix(8.324915e-004 1.7286 1.9988 -9.626574e-004 -4698.8667 1541.8519)" gradientUnits="userSpaceOnUse">
		<stop  offset="0" style="stop-color:#FFFFFF"/>
		<stop  offset="1" style="stop-color:#FFFFFF;stop-opacity:0"/>
	</radialGradient>
	
		<radialGradient id="path8586_2_" cx="-378.6247" cy="2133.8721" r="87.0962" gradientTransform="matrix(8.324880e-004 1.7286 1.9988 -9.626209e-004 -4698.8667 1541.8519)" gradientUnits="userSpaceOnUse">
		<stop  offset="0" style="stop-color:#FFFFFF"/>
		<stop  offset="1" style="stop-color:#FFFFFF;stop-opacity:0"/>
	</radialGradient>
	<path id="path8586" inkscape:connector-curvature="0" class="st7" d="M-346.6,885.1l1.7,0.1l1.2,0.2l1.3,0.3l1.3,0.3l0.9,0.4
		l1.6,0.7l0.9,0.5l0.7,0.5l0.7,0.5l0.8,0.6l0.7,0.6l1,0.9l8.1,8l12.7,12.6l26.6,26.7l18.6,18.4l1.5,1.5l1,1.1l0.9,1.2l1,1.6l0.9,1.9
		l0.5,1.3c0,0,0.4,0.9,0.4,1.1c0,0.2,0,0.5,0,0.3c0-0.2-0.2-1.2,0-0.2c0.2,1,0.3,1.8,0.3,1.8l0.2,1.2l0.1,1.6l0,1.3l-0.1,1.1
		l-0.2,1.3l-0.3,1.6l-0.6,1.4l-0.8,1.6c0,0-0.6,1.2-0.6,1.3c-0.1,0.1-0.9,1.3-0.9,1.3l-1,1.4l-1.7,1.8l-4.5,4.4l-19.4,19.3
		l-18.1,18.2l-2.8,2.7l-1.9,2l-1.8,1.4l-1.5,1l-1.4,0.7l-0.9,0.4l-1.6,0.7l-1.7,0.5l-2,0.4l-1.7,0.1l-12,0l-30.5,0.1l-1.3-0.1
		l-1.3-0.2l-1.9-0.6l-2.1-0.9l-1.7-1l-1.8-1.3l-1.8-1.8l-1.5-1.5l-12.3-12.2l-21.8-21.7l-11.3-11.3l-1.6-1.8l-1-1.6l-1.2-2.2
		l-0.7-1.7l-0.5-1.8l-0.3-1.5l-0.1-1.3l0.1-3.2l0.3-2.3l0.5-1.9l0.8-2.1l0.9-1.7l1.1-1.7l1.1-1.3l2.1-2.2l19.7-19.6l17.6-17.4
		l21.9-22l5.6-5.7l1.7-1.6l1.2-1l1.6-1.1l1.7-0.9l1.5-0.6l1.8-0.6l1.7-0.3l1.4-0.2L-346.6,885.1z"/>
</g>
</svg>
