<?xml version="1.0" encoding="UTF-8" standalone="no"?>
<!-- Created with Inkscape (http://www.inkscape.org/) -->

<svg
   xmlns:dc="http://purl.org/dc/elements/1.1/"
   xmlns:cc="http://creativecommons.org/ns#"
   xmlns:rdf="http://www.w3.org/1999/02/22-rdf-syntax-ns#"
   xmlns:svg="http://www.w3.org/2000/svg"
   xmlns="http://www.w3.org/2000/svg"
   xmlns:xlink="http://www.w3.org/1999/xlink"
   xmlns:sodipodi="http://sodipodi.sourceforge.net/DTD/sodipodi-0.dtd"
   xmlns:inkscape="http://www.inkscape.org/namespaces/inkscape"
   width="192"
   height="192"
   id="svg2"
   version="1.1"
   inkscape:version="0.91 r13725"
   sodipodi:docname="fruit_ninja.svg"
   inkscape:export-filename="C:\Users\Simon\Documents\Material Design Icons\PNG\fruit_ninja.png"
   inkscape:export-xdpi="90"
   inkscape:export-ydpi="90">
  <sodipodi:namedview
     id="base"
     pagecolor="#ffffff"
     bordercolor="#666666"
     borderopacity="1.0"
     inkscape:pageopacity="0.0"
     inkscape:pageshadow="2"
     inkscape:zoom="2.8284271"
     inkscape:cx="160.35333"
     inkscape:cy="111.77097"
     inkscape:document-units="px"
     inkscape:current-layer="layer4"
     showgrid="false"
     showguides="false"
     inkscape:guide-bbox="true"
     inkscape:window-width="1920"
     inkscape:window-height="1017"
     inkscape:window-x="-8"
     inkscape:window-y="-8"
     inkscape:window-maximized="1"
     inkscape:snap-global="false">
    <inkscape:grid
       snapvisiblegridlinesonly="true"
       enabled="true"
       visible="true"
       empspacing="5"
       id="grid2985"
       type="xygrid" />
    <sodipodi:guide
       id="guide3002"
       position="8,58.524064"
       orientation="1,0" />
    <sodipodi:guide
       id="guide3004"
       position="20,69.304813"
       orientation="1,0" />
    <sodipodi:guide
       id="guide3006"
       position="32,62.631016"
       orientation="1,0" />
    <sodipodi:guide
       id="guide3008"
       position="68,53.390374"
       orientation="1,0" />
    <sodipodi:guide
       id="guide3010"
       position="119.61497,8"
       orientation="0,1" />
    <sodipodi:guide
       id="guide3012"
       position="155.5508,20"
       orientation="0,1" />
    <sodipodi:guide
       id="guide3014"
       position="132.96257,32"
       orientation="0,1" />
    <sodipodi:guide
       id="guide3016"
       position="130.90909,68"
       orientation="0,1" />
    <sodipodi:guide
       id="guide3018"
       position="137.06952,184"
       orientation="0,1" />
    <sodipodi:guide
       id="guide3020"
       position="184,145.79679"
       orientation="1,0" />
    <sodipodi:guide
       id="guide3022"
       position="91.379679,172"
       orientation="0,1" />
    <sodipodi:guide
       id="guide3024"
       position="172.15693,140.10142"
       orientation="1,0" />
    <sodipodi:guide
       id="guide3026"
       position="149.39037,160"
       orientation="0,1" />
    <sodipodi:guide
       id="guide3028"
       position="160,88.299465"
       orientation="1,0" />
    <sodipodi:guide
       id="guide3030"
       position="128.34225,124"
       orientation="0,1" />
    <sodipodi:guide
       id="guide3032"
       position="124,92.919786"
       orientation="1,0" />
  </sodipodi:namedview>
  <defs
     id="defs4">
    <linearGradient
       id="linearGradient7772"
       inkscape:collect="always">
      <stop
         id="stop7774"
         offset="0"
         style="stop-color:#ffffff;stop-opacity:1;" />
      <stop
         id="stop7776"
         offset="1"
         style="stop-color:#ffffff;stop-opacity:0;" />
    </linearGradient>
    <linearGradient
       id="linearGradient7764"
       inkscape:collect="always">
      <stop
         id="stop7766"
         offset="0"
         style="stop-color:#ffffff;stop-opacity:1;" />
      <stop
         id="stop7768"
         offset="1"
         style="stop-color:#ffffff;stop-opacity:0;" />
    </linearGradient>
    <filter
       id="filter7743"
       inkscape:label="Drop Shadow"
       style="color-interpolation-filters:sRGB;">
      <feFlood
         id="feFlood7745"
         result="flood"
         flood-color="rgb(0,0,0)"
         flood-opacity="0.30454545454545456" />
      <feComposite
         id="feComposite7747"
         result="composite1"
         operator="in"
         in2="SourceGraphic"
         in="flood" />
      <feGaussianBlur
         id="feGaussianBlur7749"
         result="blur"
         stdDeviation="1.7"
         in="composite1" />
      <feOffset
         id="feOffset7751"
         result="offset"
         dy="3"
         dx="4.57967e-015" />
      <feComposite
         id="feComposite7753"
         result="composite2"
         operator="over"
         in2="offset"
         in="SourceGraphic" />
    </filter>
    <radialGradient
       gradientTransform="matrix(0.00253475,1.9947837,-2.002355,0.00254437,60.402743,-19.768048)"
       gradientUnits="userSpaceOnUse"
       r="75.999997"
       fy="20.198149"
       fx="20.009592"
       cy="20.198151"
       cx="20.009592"
       id="radialGradient7770"
       xlink:href="#linearGradient7764"
       inkscape:collect="always" />
    <radialGradient
       gradientTransform="matrix(0.00253472,1.9947836,-2.0023549,0.00254435,60.40274,-19.768047)"
       gradientUnits="userSpaceOnUse"
       r="75.999997"
       fy="20.198151"
       fx="20.009592"
       cy="20.198151"
       cx="20.009592"
       id="radialGradient7778"
       xlink:href="#linearGradient7772"
       inkscape:collect="always" />
    <clipPath
       clipPathUnits="userSpaceOnUse"
       id="clipPath4206">
      <rect
         ry="10.897427"
         y="20.500031"
         x="20.500031"
         height="150.99994"
         width="150.99994"
         id="rect4208"
         style="display:inline;fill:#ff9e80;fill-opacity:1;stroke:#ff9e80;stroke-width:1.00005436;stroke-linejoin:round;stroke-miterlimit:4;stroke-dasharray:none;stroke-opacity:1;filter:url(#filter7743)" />
    </clipPath>
    <clipPath
       clipPathUnits="userSpaceOnUse"
       id="clipPath4222">
      <path
         sodipodi:nodetypes="cssssssssssscssssscssssssssc"
         inkscape:connector-curvature="0"
         id="path4224"
         d="m 78.75,133.75 c 0,0 7.276767,8.22165 11.25,12 2.849294,2.70954 5.765955,5.3887 9,7.625 3.17559,2.19588 6.51195,4.26407 10.125,5.625 2.39382,0.90168 4.95981,1.32357 7.5,1.625 2.35257,0.27916 4.45771,0.31047 7.10537,0.1624 0.1825,-0.0102 0.35639,-0.0226 0.51963,-0.0374 2.53908,-0.23042 5.04778,-0.80241 7.5,-1.5 2.52355,-0.71789 5.01258,-1.60867 7.375,-2.75 2.32277,-1.12217 4.5591,-2.45514 6.625,-4 2.12567,-1.58955 4.18496,-3.32832 5.875,-5.375 0.0242,-0.0293 0.0485,-0.0591 0.073,-0.0895 C 153.46998,144.84121 156,140 156,140 c 0,0 2.38966,-4.79219 3,-7.375 0.74007,-3.1318 0.69687,-6.40738 0.75,-9.625 0.0461,-2.79408 0.006,-5.60658 -0.375,-8.375 -0.50106,-3.64468 -1.37386,-7.24764 -2.5,-10.75 -0.89771,-2.79192 -2.11172,-5.47834 -3.375,-8.125 -1.20468,-2.523873 -4,-7.375 -4,-7.375 0,0 -3.55986,-0.855092 -5.375,-0.875 -2.39813,-0.0263 -4.78943,0.455164 -7.125,1 -4.52959,1.056651 -8.97769,2.53623 -13.25,4.375 -5.08577,2.188879 -9.92253,4.952153 -14.625,7.875 -4.2125,2.61831 -8.23164,5.55214 -12.125,8.625 -3.778319,2.98206 -7.523472,6.0452 -10.875,9.5 -2.102548,2.16734 -4.23278,4.38923 -5.75,7 -0.762069,1.31133 -1.349588,2.75853 -1.625,4.25 -0.219418,1.18824 0,3.625 0,3.625 z"
         style="opacity:0.27700004;fill:#9ccc65;fill-opacity:1;fill-rule:evenodd;stroke:none;stroke-width:1px;stroke-linecap:butt;stroke-linejoin:miter;stroke-opacity:1" />
    </clipPath>
    <clipPath
       clipPathUnits="userSpaceOnUse"
       id="clipPath4248">
      <path
         sodipodi:nodetypes="cssssssssssscssssscssssssssc"
         inkscape:connector-curvature="0"
         id="path4250"
         d="m 78.75,133.75 c 0,0 7.276767,8.22165 11.25,12 2.849294,2.70954 5.765955,5.3887 9,7.625 3.17559,2.19588 6.51195,4.26407 10.125,5.625 2.39382,0.90168 4.95981,1.32357 7.5,1.625 2.35257,0.27916 4.45771,0.31047 7.10537,0.1624 0.1825,-0.0102 0.35639,-0.0226 0.51963,-0.0374 2.53908,-0.23042 5.04778,-0.80241 7.5,-1.5 2.52355,-0.71789 5.01258,-1.60867 7.375,-2.75 2.32277,-1.12217 4.5591,-2.45514 6.625,-4 2.12567,-1.58955 4.18496,-3.32832 5.875,-5.375 0.0242,-0.0293 0.0485,-0.0591 0.073,-0.0895 C 153.46998,144.84121 156,140 156,140 c 0,0 2.38966,-4.79219 3,-7.375 0.74007,-3.1318 0.69687,-6.40738 0.75,-9.625 0.0461,-2.79408 0.006,-5.60658 -0.375,-8.375 -0.50106,-3.64468 -1.37386,-7.24764 -2.5,-10.75 -0.89771,-2.79192 -2.11172,-5.47834 -3.375,-8.125 -1.20468,-2.523873 -4,-7.375 -4,-7.375 0,0 -3.55986,-0.855092 -5.375,-0.875 -2.39813,-0.0263 -4.78943,0.455164 -7.125,1 -4.52959,1.056651 -8.97769,2.53623 -13.25,4.375 -5.08577,2.188879 -9.92253,4.952153 -14.625,7.875 -4.2125,2.61831 -8.23164,5.55214 -12.125,8.625 -3.778319,2.98206 -7.523472,6.0452 -10.875,9.5 -2.102548,2.16734 -4.23278,4.38923 -5.75,7 -0.762069,1.31133 -1.349588,2.75853 -1.625,4.25 -0.219418,1.18824 0,3.625 0,3.625 z"
         style="opacity:0.27700004;fill:#9ccc65;fill-opacity:1;fill-rule:evenodd;stroke:none;stroke-width:1px;stroke-linecap:butt;stroke-linejoin:miter;stroke-opacity:1" />
    </clipPath>
    <clipPath
       clipPathUnits="userSpaceOnUse"
       id="clipPath4268">
      <path
         sodipodi:nodetypes="csssssscssssssssssssc"
         inkscape:connector-curvature="0"
         id="path4270"
         d="m 54.75,111.25 c 0,0 4.430296,-0.90891 6.5,-1.875 3.467391,-1.6185 6.549994,-4.06282 9.5,-6.5 4.63452,-3.828853 8.794455,-8.204389 13,-12.5 4.043209,-4.129799 8.05309,-8.307519 11.75,-12.75 2.931764,-3.523025 5.71824,-7.179382 8.25,-11 1.46455,-2.210115 3.07201,-4.391384 4,-6.875 0.9353,-2.503167 1.5,-7.875 1.5,-7.875 0,0 -4.39815,-4.626573 -6.875,-6.625 -3.084892,-2.489025 -6.455179,-4.620847 -9.875,-6.625 -2.861679,-1.677059 -5.73965,-3.417727 -8.875,-4.5 -4.05525,-1.399808 -8.339175,-2.309681 -12.625,-2.5 -3.516566,-0.156159 -7.096861,0.225405 -10.5,1.125 -3.030878,0.801191 -6.001023,2.03452 -8.625,3.75 -3.948422,2.581363 -7.281002,6.06401 -10.375,9.625 -2.297026,2.643727 -4.424571,5.497117 -6,8.625 -1.641819,3.259695 -2.868887,6.78016 -3.5,10.375 -0.648595,3.694424 -0.958203,7.566538 -0.25,11.25 0.743752,3.868358 2.798909,7.38462 4.625,10.875 1.848832,3.533847 4.00126,6.920065 6.375,10.125 3.639407,4.91379 12,13.875 12,13.875 z"
         style="opacity:0;fill:#9ccc65;fill-opacity:1;fill-rule:evenodd;stroke:none;stroke-width:1px;stroke-linecap:butt;stroke-linejoin:miter;stroke-opacity:1" />
    </clipPath>
  </defs>
  <metadata
     id="metadata7">
    <rdf:RDF>
      <cc:Work
         rdf:about="">
        <dc:format>image/svg+xml</dc:format>
        <dc:type
           rdf:resource="http://purl.org/dc/dcmitype/StillImage" />
        <dc:title></dc:title>
      </cc:Work>
    </rdf:RDF>
  </metadata>
  <g
     style="display:inline"
     inkscape:label="Square 2"
     id="layer6"
     inkscape:groupmode="layer"
     sodipodi:insensitive="true">
    <rect
       style="display:inline;fill:#ff9e80;fill-opacity:1;stroke:#ff9e80;stroke-width:1.00005436;stroke-linejoin:round;stroke-miterlimit:4;stroke-dasharray:none;stroke-opacity:1;filter:url(#filter7743)"
       id="rect7720"
       width="150.99994"
       height="150.99994"
       x="20.500031"
       y="20.500031"
       ry="10.897427" />
  </g>
  <g
     style="display:inline"
     inkscape:label="Square"
     id="layer4"
     inkscape:groupmode="layer">
    <rect
       style="opacity:0.2;fill:#339489;fill-opacity:1;stroke:#ffffff;stroke-width:0.99686927;stroke-linejoin:round;stroke-miterlimit:4;stroke-dasharray:none;stroke-opacity:1"
       id="rect7755"
       width="151.00313"
       height="150.03645"
       x="20.498438"
       y="20.498438"
       ry="10.827893" />
    <rect
       style="opacity:0.2;fill:#3e2723;fill-opacity:1;stroke:#3e2723;stroke-width:0.99699998;stroke-linejoin:round;stroke-miterlimit:4;stroke-dasharray:none;stroke-opacity:1"
       id="rect7757"
       width="151.00313"
       height="150.03645"
       x="20.498438"
       y="21.465105"
       ry="10.827893" />
    <rect
       ry="10.757162"
       y="21.46348"
       x="20.496813"
       height="149.05637"
       width="151.00638"
       id="rect3811"
       style="fill:#ff9e80;fill-opacity:1;stroke:#ff9e80;stroke-width:0.99361873;stroke-linejoin:round;stroke-miterlimit:4;stroke-dasharray:none;stroke-opacity:1" />
    <flowRoot
       xml:space="preserve"
       id="flowRoot9367"
       style="font-style:normal;font-variant:normal;font-weight:normal;font-stretch:normal;font-size:40px;line-height:125%;font-family:roboto;-inkscape-font-specification:roboto;letter-spacing:0px;word-spacing:0px;fill:#000000;fill-opacity:1;stroke:none;stroke-width:1px;stroke-linecap:butt;stroke-linejoin:miter;stroke-opacity:1"><flowRegion
         id="flowRegion9369"><rect
           id="rect9371"
           width="128.97627"
           height="128.4106"
           x="31.866945"
           y="31.533901"
           style="font-style:normal;font-variant:normal;font-weight:normal;font-stretch:normal;font-family:roboto;-inkscape-font-specification:roboto" /></flowRegion><flowPara
         id="flowPara9373" /></flowRoot>    <path
       style="fill:#d32f2f;fill-opacity:1;fill-rule:evenodd;stroke:none;stroke-width:1px;stroke-linecap:butt;stroke-linejoin:miter;stroke-opacity:1"
       d="m 161.6875,107.625 c -1.21109,0.2211 -2.24142,1.01977 -3.375,1.5 -1.38755,0.58781 -2.44452,0.89621 -2.18934,2.392 0.57607,3.37676 1.20304,6.92607 2.93934,10.1705 0.82666,1.54469 3.01168,2.46839 4.75,2.25 1.101,-0.13832 2.5625,-2.125 2.5625,-2.125 0,0 0.12798,-4.50086 0.0625,-6.75 -0.045,-1.54453 0.26386,-3.19133 -0.3125,-4.625 -0.43579,-1.08402 -1.20594,-2.16314 -2.25,-2.6875 -0.65267,-0.32779 -1.46902,-0.25617 -2.1875,-0.125 z m -122.875,2.25 c -0.755387,0.10687 -1.626114,0.59133 -1.875,1.3125 -0.326798,0.94693 0.277478,2.07099 0.875,2.875 0.537666,0.72347 1.352361,1.58212 2.25,1.5 0.983008,-0.0899 1.900582,-1.10124 2.125,-2.0625 0.22621,-0.96894 -0.292226,-2.11316 -1,-2.8125 -0.595181,-0.58809 -1.546539,-0.92971 -2.375,-0.8125 z M 34,119.375 c 0,0 -1.688038,0.37284 -2.1875,1 -0.901049,1.13143 -0.602013,2.82962 -0.875,4.25 -0.223678,1.16382 -0.794446,2.32705 -0.625,3.5 0.09991,0.69159 0.393749,1.43612 0.9375,1.875 0.652703,0.52682 1.62452,0.83145 2.4375,0.625 1.543103,-0.39186 2.599123,-1.93731 3.5,-3.25 1.142696,-1.66504 2.405322,-4.87049 2.25,-5.625 -0.199564,-0.96942 -1.045337,-1.82146 -1.9375,-2.25 -0.113889,-0.0547 -0.244123,-0.099 -0.38583,-0.13459 C 35.946544,119.07243 34,119.375 34,119.375 Z m 14.0625,2.9375 c -1.495493,0.55006 -2.696045,1.85022 -3.5625,3.1875 -1.117785,1.72518 -1.068557,3.98414 -1.875,5.875 -1.301951,3.05267 -2.573719,6.24447 -4.75,8.75 -1.904467,2.19259 -4.098762,5.31895 -7,5.1875 -2.063642,-0.0935 -4.625,-4.125 -4.625,-4.125 0,0 -2.440144,1.88971 -3.875,1.875 -1.239124,-0.0127 -3.3125,-1.6875 -3.3125,-1.6875 l 0.1875,31.0625 68.9375,-0.0625 c 0,0 -3.300208,-2.10749 -3.0625,-3.6875 0.192564,-1.27995 2.476383,-1.08728 3.25,-2.125 0.610647,-0.81911 0.878862,-1.91582 0.875,-2.9375 -0.004,-1.06759 -0.312976,-2.19663 -0.9375,-3.0625 -0.672946,-0.933 -1.741408,-1.58034 -2.8125,-2 -1.662546,-0.65139 -3.528928,-0.77258 -5.3125,-0.6875 -1.686097,0.0804 -3.354463,0.53901 -4.9375,1.125 -1.634292,0.60497 -2.933328,2.019 -4.625,2.4375 -1.294315,0.3202 -3.166646,1.04082 -4,0 -0.773965,-0.96664 0.193393,-2.55256 0.8125,-3.625 1.430046,-2.47717 4.068817,-4.03843 6.3125,-5.8125 4.614127,-3.64836 9.857798,-6.42906 14.625,-9.875 1.408286,-1.01797 3.101049,-1.78356 4.125,-3.1875 0.757261,-1.03828 1.524389,-2.35749 1.3125,-3.625 -0.136799,-0.81832 -0.833794,-1.54082 -1.5625,-1.9375 -1.048741,-0.5709 -2.379761,-0.53904 -3.5625,-0.375 -1.555781,0.21578 -3.049968,0.90661 -4.375,1.75 -1.15636,0.73603 -2.15747,1.73127 -3,2.8125 -1.478839,1.89781 -2.101068,4.35505 -3.5,6.3125 -1.861099,2.60414 -3.738772,4.94661 -6.083947,7.125 -1.566345,1.45495 -3.393938,3.2437 -5.416053,3.9375 -1.339987,0.45976 -2.932022,0.5195 -4.25,0 -1.193058,-0.47026 -2.482421,-1.38582 -2.8125,-2.625 -0.372857,-1.39979 0.683938,-2.68457 1.281031,-4.15268 0.0316,-0.0777 0.06297,-0.15201 0.09397,-0.22232 0.301304,-0.68333 0.836822,-1.24853 1.125,-1.9375 0.18332,-0.43828 0.557832,-0.93652 0.375,-1.375 -0.211826,-0.50802 -0.88755,-0.83499 -1.4375,-0.8125 -0.704366,0.0288 -1.310718,0.63614 -1.75,1.1875 -0.501447,0.62938 -0.671885,1.47134 -0.875,2.25 -0.30267,1.16031 0.109685,2.52992 -0.5,3.5625 -0.900356,1.52486 -2.483284,3.06682 -4.25,3.1875 -1.925943,0.13156 -3.552436,-1.60989 -5.0625,-2.8125 -0.876999,-0.69844 -1.326322,-1.86458 -2.25,-2.5 -0.717205,-0.49339 -1.707572,-0.46314 -2.4375,-0.9375 -1.037581,-0.6743 -2.123957,-1.49354 -2.625,-2.625 -0.523613,-1.18243 -0.397096,-2.59892 -0.1875,-3.875 0.286556,-1.74464 1.112767,-3.37363 1.9375,-4.9375 0.622649,-1.18067 1.364392,-2.31381 2.25,-3.3125 1.136471,-1.28159 2.737825,-2.09404 3.875,-3.375 0.786424,-0.88586 1.486749,-1.86989 2,-2.9375 0.368328,-0.76615 0.831254,-1.5913 0.75,-2.4375 -0.0677,-0.70509 -0.397211,-1.503 -1,-1.875 -0.709385,-0.43778 -1.717648,-0.35026 -2.500001,-0.0625 z m 113.5625,23 c -0.39624,0.0767 -10.07176,11.10536 -9.625,12.4375 0.45361,1.35255 2.32426,2.11184 3.75,2.0625 1.8077,-0.0626 3.36985,-1.57761 4.5625,-2.9375 1.09378,-1.24715 1.68024,-2.9019 2.125,-4.5 0.55024,-1.97713 1.50953,-4.27313 0.625,-6.125 -0.24656,-0.5162 -0.87585,-1.04615 -1.4375,-0.9375 z M 104.9375,161.25 c -0.0907,0.0181 -0.18369,0.0387 -0.27878,0.0617 -2.81996,0.68196 -7.310924,2.35476 -7.47122,3.43827 -0.21861,1.47768 1.618076,2.63036 2.875,3.4375 1.32686,0.85205 2.98587,1.22178 4.5625,1.25 2.26856,0.0406 4.57835,-0.5831 6.625,-1.5625 1.2856,-0.61521 3.34448,-1.91186 3.375,-2.625 0.0738,-1.72357 -1.93133,-3.09459 -3.5,-3.8125 -1.87629,-0.85869 -4.16394,-0.59127 -6.1875,-0.1875 z"
       id="path4190"
       inkscape:connector-curvature="0"
       sodipodi:nodetypes="ssssscsasssssassscssssssssscssssscscccssssssssssssssssssssssssssssssssssssssssssssssssssscssssssssc"
       clip-path="url(#clipPath4206)"
       transform="translate(-0.5,-0.5)" />
    <path
       style="fill:#fafafa;fill-opacity:1;fill-rule:evenodd;stroke:none;stroke-width:1px;stroke-linecap:butt;stroke-linejoin:miter;stroke-opacity:1"
       d="m 50.29297,146.30322 c 0,0 25.398497,-36.57694 57.07635,-69.986246 10.89723,-11.492845 27.77646,-26.357048 27.77646,-26.357048 l 22.45064,-3.181981 -12.72792,18.296388 c 0,0 -28.11862,19.433283 -41.18897,30.405592 C 84.861405,111.27738 50.29297,146.30322 50.29297,146.30322 Z"
       id="path4210"
       inkscape:connector-curvature="0"
       sodipodi:nodetypes="cscccsc" />
    <g
       id="g4252"
       style="opacity:1">
      <path
         sodipodi:nodetypes="cssssssssssscssssscssssssssc"
         inkscape:connector-curvature="0"
         id="path4216"
         d="m 78.75,133.75 c 0,0 7.276767,8.22165 11.25,12 2.849294,2.70954 5.765955,5.3887 9,7.625 3.17559,2.19588 6.51195,4.26407 10.125,5.625 2.39382,0.90168 4.95981,1.32357 7.5,1.625 2.35257,0.27916 4.45771,0.31047 7.10537,0.1624 0.1825,-0.0102 0.35639,-0.0226 0.51963,-0.0374 2.53908,-0.23042 5.04778,-0.80241 7.5,-1.5 2.52355,-0.71789 5.01258,-1.60867 7.375,-2.75 2.32277,-1.12217 4.5591,-2.45514 6.625,-4 2.12567,-1.58955 4.18496,-3.32832 5.875,-5.375 0.0242,-0.0293 0.0485,-0.0591 0.073,-0.0895 C 153.46998,144.84121 156,140 156,140 c 0,0 2.38966,-4.79219 3,-7.375 0.74007,-3.1318 0.69687,-6.40738 0.75,-9.625 0.0461,-2.79408 0.006,-5.60658 -0.375,-8.375 -0.50106,-3.64468 -1.37386,-7.24764 -2.5,-10.75 -0.89771,-2.79192 -2.11172,-5.47834 -3.375,-8.125 -1.20468,-2.523873 -4,-7.375 -4,-7.375 0,0 -3.55986,-0.855092 -5.375,-0.875 -2.39813,-0.0263 -4.78943,0.455164 -7.125,1 -4.52959,1.056651 -8.97769,2.53623 -13.25,4.375 -5.08577,2.188879 -9.92253,4.952153 -14.625,7.875 -4.2125,2.61831 -8.23164,5.55214 -12.125,8.625 -3.778319,2.98206 -7.523472,6.0452 -10.875,9.5 -2.102548,2.16734 -4.23278,4.38923 -5.75,7 -0.762069,1.31133 -1.349588,2.75853 -1.625,4.25 -0.219418,1.18824 0,3.625 0,3.625 z"
         style="fill:#9ccc65;fill-rule:evenodd;stroke:none;stroke-width:1px;stroke-linecap:butt;stroke-linejoin:miter;stroke-opacity:1;fill-opacity:1;opacity:1" />
      <path
         clip-path="url(#clipPath4248)"
         id="path4241"
         d="M 148.75 94 L 139.875 103.5 C 139.875 103.5 147.86019 114.20339 150.875 120.125 C 152.38841 123.0976 153.59029 126.25794 154.375 129.5 C 155.46072 133.98571 156 143.25 156 143.25 L 158.625 135.5 C 158.625 135.5 159.08696 125.82175 158.75 121 C 158.55323 118.18428 158.21429 115.35572 157.5 112.625 C 156.4621 108.65714 154.93513 104.8053 153.125 101.125 C 151.89496 98.624127 148.75 94 148.75 94 z M 120.125 118.375 L 98.25 131.25 C 98.25 131.25 108.1268 144.01594 114 149.5 C 118.72043 153.90767 129.5 161.125 129.5 161.125 L 142.75 157 C 142.75 157 133.88405 145.03556 130.125 138.625 C 126.31699 132.13095 120.125 118.375 120.125 118.375 z "
         style="fill:#558b2f;fill-rule:evenodd;stroke:none;stroke-width:1px;stroke-linecap:butt;stroke-linejoin:miter;stroke-opacity:1;fill-opacity:1" />
      <path
         clip-path="url(#clipPath4222)"
         sodipodi:nodetypes="cssssssssssccc"
         inkscape:connector-curvature="0"
         id="path4218"
         d="m 74.5,127.625 c 0,0 2.700281,4.74114 4.625,6.625 0.858905,0.84067 1.84592,1.66452 3,2 1.800917,0.52351 3.76138,0.0854 5.625,-0.125 3.085607,-0.34841 6.175478,-0.90408 9.125,-1.875 5.84355,-1.92357 11.32147,-4.85548 16.75,-7.75 3.1843,-1.69788 6.2198,-3.6653 9.25,-5.625 3.5228,-2.27828 7.08609,-4.52044 10.375,-7.125 3.88474,-3.07641 7.69391,-6.30875 11,-10 2.12966,-2.37777 4.31111,-5.236157 5.27145,-8.28033 0.75223,-2.384508 0.49132,-4.483168 0.22855,-6.96967 -0.36678,-3.470711 -1,-8.25 -1,-8.25 L 112.875,90.5 Z"
         style="opacity:1;fill:#efebe9;fill-opacity:1;fill-rule:evenodd;stroke:none;stroke-width:1px;stroke-linecap:butt;stroke-linejoin:miter;stroke-opacity:1" />
      <path
         sodipodi:nodetypes="scsssssssssass"
         inkscape:connector-curvature="0"
         id="path4226"
         d="m 84.25,125.5 c 1.280465,-4.61158 6.000594,-7.61766 9.375,-10.875 3.374406,-3.25734 6.97784,-6.00265 10.75,-8.625 3.66706,-2.54929 7.56998,-4.75342 11.5,-6.875 3.95202,-2.133462 7.9182,-4.30244 12.125,-5.875 3.43676,-1.284708 6.95871,-2.733262 10.625,-2.875 1.56784,-0.06061 3.59481,-0.308435 4.625,0.875 1.123,1.290049 0.71448,3.478912 0.25,5.125 -1.16438,4.12649 -4.2729,7.53946 -7.25,10.625 -5.1731,5.36153 -11.63934,9.3707 -18,13.25 -5.52031,3.36678 -11.27306,6.48598 -17.375,8.625 -3.339483,1.17065 -6.836319,2.26755 -10.375,2.25 -1.880063,-0.009 -4.206747,0.11463 -5.5,-1.25 -1.017776,-1.07395 -1.145856,-2.94933 -0.75,-4.375 z"
         style="fill:#ef5350;fill-opacity:1;fill-rule:evenodd;stroke:none;stroke-width:1px;stroke-linecap:butt;stroke-linejoin:miter;stroke-opacity:1;opacity:1" />
      <path
         sodipodi:nodetypes="cscscssscssscssscsscccsssccccssc"
         inkscape:connector-curvature="0"
         id="path4228"
         d="m 134,94.625 c 0,0 -2.67665,0.786056 -3.75,1.625 -0.70256,0.549132 -1.625,2.125 -1.625,2.125 0,0 2.86261,-0.939722 4,-1.875 0.59864,-0.492263 1.375,-1.875 1.375,-1.875 z m -18.25,6.25 c -0.34389,-0.43677 -1.13349,0.11529 -1.625,0.375 -0.65176,0.34439 -1.73836,0.77161 -1.625,1.5 0.10607,0.6815 1.875,0.875 1.875,0.875 0,0 2.00899,-1.94477 1.375,-2.75 z m 19.375,2 c -0.54813,-0.68331 -1.78445,-0.12165 -2.625,0.125 -1.20009,0.35216 -3.25,1.875 -3.25,1.875 0,0 2.08068,0.64915 3.125,0.5 0.86719,-0.12385 1.81246,-0.4535 2.375,-1.125 0.30508,-0.36417 0.67227,-1.00442 0.375,-1.375 z m -37,11.125 c 0,0 -1.611874,0.48385 -2.25,1 -0.440632,0.3564 -1.366319,0.94258 -1,1.375 1.084004,1.27962 4.5,-2.25 4.5,-2.25 z m 14,4.125 c 0,0 -2.89616,2.01358 -2.375,3.25 0.22888,0.54299 1.17428,0.37556 1.75,0.25 0.67755,-0.14776 1.32449,-0.57742 1.75,-1.125 0.48509,-0.62425 0.75,-2.25 0.75,-2.25 z m -15,3.875 -5.75,3.375 c 0,0 -0.646646,0.83784 -0.375,1.125 0.652955,0.69024 1.94103,-0.25166 2.75,-0.75 1.431829,-0.88204 3.375,-3.75 3.375,-3.75 z"
         style="fill:#212121;fill-opacity:1;fill-rule:evenodd;stroke:none;stroke-width:1px;stroke-linecap:butt;stroke-linejoin:miter;stroke-opacity:1" />
    </g>
    <g
       id="g4272">
      <path
         sodipodi:nodetypes="csssssscssssssssssssc"
         inkscape:connector-curvature="0"
         id="path4212"
         d="m 54.75,111.25 c 0,0 4.430296,-0.90891 6.5,-1.875 3.467391,-1.6185 6.549994,-4.06282 9.5,-6.5 4.63452,-3.828853 8.794455,-8.204389 13,-12.5 4.043209,-4.129799 8.05309,-8.307519 11.75,-12.75 2.931764,-3.523025 5.71824,-7.179382 8.25,-11 1.46455,-2.210115 3.07201,-4.391384 4,-6.875 0.9353,-2.503167 1.5,-7.875 1.5,-7.875 0,0 -4.39815,-4.626573 -6.875,-6.625 -3.084892,-2.489025 -6.455179,-4.620847 -9.875,-6.625 -2.861679,-1.677059 -5.73965,-3.417727 -8.875,-4.5 -4.05525,-1.399808 -8.339175,-2.309681 -12.625,-2.5 -3.516566,-0.156159 -7.096861,0.225405 -10.5,1.125 -3.030878,0.801191 -6.001023,2.03452 -8.625,3.75 -3.948422,2.581363 -7.281002,6.06401 -10.375,9.625 -2.297026,2.643727 -4.424571,5.497117 -6,8.625 -1.641819,3.259695 -2.868887,6.78016 -3.5,10.375 -0.648595,3.694424 -0.958203,7.566538 -0.25,11.25 0.743752,3.868358 2.798909,7.38462 4.625,10.875 1.848832,3.533847 4.00126,6.920065 6.375,10.125 3.639407,4.91379 12,13.875 12,13.875 z"
         style="fill:#9ccc65;fill-opacity:1;fill-rule:evenodd;stroke:none;stroke-width:1px;stroke-linecap:butt;stroke-linejoin:miter;stroke-opacity:1;opacity:1" />
      <path
         clip-path="url(#clipPath4268)"
         id="path4259"
         d="M 69.869141 33.480469 C 66.722719 33.498567 63.563183 33.917396 60.457031 34.404297 C 57.844981 34.813746 55.191616 35.29196 52.767578 36.347656 C 50.130183 37.496272 45.519531 41.033203 45.519531 41.033203 C 45.519531 41.033203 50.999645 38.638965 53.916016 38.115234 C 56.67152 37.620392 59.520331 37.764645 62.314453 37.939453 C 65.346051 38.129118 68.440696 38.328591 71.330078 39.265625 C 74.902687 40.424231 78.077739 42.578644 81.316406 44.480469 C 85.206126 46.764609 89.090253 49.109422 92.630859 51.904297 C 97.587848 55.817233 106.41992 64.898438 106.41992 64.898438 L 109.95508 54.203125 C 109.95508 54.203125 103.73596 49.56959 100.58594 47.308594 C 97.956428 45.421204 95.391381 43.430228 92.630859 41.740234 C 88.932621 39.47617 85.188929 37.19439 81.140625 35.640625 C 78.532153 34.639477 75.79029 33.860884 73.007812 33.607422 C 71.964106 33.512348 70.917948 33.474436 69.869141 33.480469 z M 43.044922 43.773438 L 40.835938 45.275391 C 40.835938 45.275391 40.558574 46.332131 40.269531 47.636719 L 23.777344 60.832031 C 23.777344 60.832031 38.537568 100.34175 38.802734 100.69531 C 39.067899 101.04886 55.165977 116.03811 55.519531 115.86133 C 55.873084 115.68455 60.810547 109.79883 60.810547 109.79883 C 60.810547 109.79883 57.312054 107.12512 55.685547 105.64453 C 52.758203 102.9798 49.911793 100.20067 47.376953 97.160156 C 44.85916 94.140091 42.670353 91.51719 40.445312 88.275391 C 39.182913 86.436123 37.827471 83.965903 36.857422 81.957031 C 35.645999 79.448298 34.740817 76.824547 34.044922 74.126953 C 33.699964 72.789746 33.606417 71.312425 33.5 69.935547 C 33.32505 67.671942 33.408855 65.371364 33.763672 63.128906 C 33.950254 61.949697 34.297893 60.794054 34.736328 59.683594 C 35.903596 56.727156 38.316847 52.278655 39.916016 49.417969 C 39.7616 50.26143 39.631205 51.083772 39.597656 51.728516 C 39.490093 53.795676 39.631096 55.904857 40.128906 57.914062 C 40.729008 60.336135 41.924388 62.579028 43.044922 64.808594 C 44.272506 67.25116 45.701118 69.594205 47.199219 71.880859 C 49.834529 75.903313 52.614108 79.846704 55.685547 83.546875 C 57.5492 85.792023 59.644243 87.836778 61.695312 89.912109 C 65.181202 93.439232 68.465071 97.221763 72.390625 100.25195 C 73.782576 101.32642 76.898437 102.99219 76.898438 102.99219 L 90.863281 86.021484 C 90.863281 86.021484 83.018759 80.166264 79.285156 77.005859 C 73.237287 71.886484 67.730726 66.15554 61.783203 60.919922 C 57.734081 57.355471 53.408963 54.108882 49.408203 50.490234 C 47.36847 48.645316 43.486328 44.744141 43.486328 44.744141 L 43.044922 43.773438 z "
         style="fill:#558b2f;fill-rule:evenodd;stroke:none;stroke-width:1px;stroke-linecap:butt;stroke-linejoin:miter;stroke-opacity:1;fill-opacity:1" />
    </g>
  </g>
  <g
     sodipodi:insensitive="true"
     style="display:inline"
     inkscape:label="Square 1"
     id="layer5"
     inkscape:groupmode="layer">
    <rect
       ry="10.897427"
       y="20.500031"
       x="20.500031"
       height="150.99994"
       width="150.99994"
       id="rect7724"
       style="display:inline;opacity:0.1;fill:url(#radialGradient7770);fill-opacity:1;stroke:url(#radialGradient7778);stroke-width:1.00005436;stroke-linejoin:round;stroke-miterlimit:4;stroke-dasharray:none;stroke-opacity:1" />
  </g>
</svg>
