<?xml version="1.0" encoding="utf-8"?>
<!-- Generator: Adobe Illustrator 19.0.1, SVG Export Plug-In . SVG Version: 6.00 Build 0)  -->
<!DOCTYPE svg PUBLIC "-//W3C//DTD SVG 1.1//EN" "http://www.w3.org/Graphics/SVG/1.1/DTD/svg11.dtd">
<svg version="1.1"
	 id="svg2" xmlns:svg="http://www.w3.org/2000/svg" xmlns:dc="http://purl.org/dc/elements/1.1/" xmlns:rdf="http://www.w3.org/1999/02/22-rdf-syntax-ns#" xmlns:cc="http://creativecommons.org/ns#" xmlns:sodipodi="http://sodipodi.sourceforge.net/DTD/sodipodi-0.dtd" xmlns:inkscape="http://www.inkscape.org/namespaces/inkscape" inkscape:export-ydpi="90" inkscape:export-xdpi="90" inkscape:export-filename="C:\Users\Simon\Documents\Material Design Icon Pack\PNG\gallery.png" sodipodi:docname="gallery.svg" inkscape:version="0.91 r13725"
	 xmlns="http://www.w3.org/2000/svg" xmlns:xlink="http://www.w3.org/1999/xlink" x="0px" y="0px" viewBox="-443 865 192 192"
	 style="enable-background:new -443 865 192 192;" xml:space="preserve">
<style type="text/css">
	.st0{filter:url(#filter7743);}
	.st1{fill:#424242;}
	.st2{fill:none;stroke:#424242;stroke-width:1.0001;stroke-linejoin:round;}
	.st3{opacity:0.2;fill:#339489;stroke:#FFFFFF;stroke-width:0.9969;stroke-linejoin:round;enable-background:new    ;}
	.st4{opacity:0.2;fill:#006D60;stroke:#000000;stroke-width:0.997;stroke-linejoin:round;enable-background:new    ;}
	.st5{fill:#424242;stroke:#424242;stroke-width:0.9936;stroke-linejoin:round;}
	.st6{opacity:0.2;clip-path:url(#SVGID_2_);fill:url(#path4348_1_);enable-background:new    ;}
	.st7{fill:#AB47BC;}
	.st8{opacity:0.23;clip-path:url(#SVGID_4_);fill:#FFC107;enable-background:new    ;}
	.st9{opacity:0.831;clip-path:url(#SVGID_6_);fill:#FFC107;enable-background:new    ;}
	.st10{filter:url(#filter5813);}
	.st11{fill:none;stroke:#FFFFFF;stroke-width:12.1526;}
	.st12{opacity:0.2;fill:none;stroke:#000000;stroke-width:12.1526;enable-background:new    ;}
	.st13{fill:none;stroke:#FFFFFF;stroke-width:9.9594;}
	
		.st14{opacity:0.1;fill:url(#rect5844_1_);stroke:url(#rect5844_2_);stroke-width:1.0001;stroke-linejoin:round;enable-background:new    ;}
</style>
<filter  inkscape:label="Drop Shadow" style="color-interpolation-filters:sRGB;" id="filter7743">
	<feFlood  result="flood" flood-color="rgb(0,0,0)" flood-opacity="0.301961" id="feFlood7745"></feFlood>
	<feComposite  operator="in" in2="SourceGraphic" in="flood" result="composite1" id="feComposite7747"></feComposite>
	<feGaussianBlur  in="composite1" stdDeviation="1.7" result="blur" id="feGaussianBlur7749"></feGaussianBlur>
	<feOffset  dy="3" dx="4.57967e-015" result="offset" id="feOffset7751"></feOffset>
	<feComposite  operator="over" in2="offset" in="SourceGraphic" result="composite2" id="feComposite7753"></feComposite>
</filter>
<filter  height="1.4400000000000002" width="1.4400000000000002" y="-0.22000000000000008" x="-0.22000000000000008" inkscape:label="Drop Shadow" style="color-interpolation-filters:sRGB;" id="filter5813">
	<feFlood  result="flood" flood-color="rgb(0,0,0)" flood-opacity="0.301961" id="feFlood5815"></feFlood>
	<feComposite  operator="in" in2="SourceGraphic" in="flood" result="composite1" id="feComposite5817"></feComposite>
	<feGaussianBlur  in="composite1" stdDeviation="6" result="blur" id="feGaussianBlur5819"></feGaussianBlur>
	<feOffset  dy="6" dx="4.57967e-015" result="offset" id="feOffset5821"></feOffset>
	<feComposite  operator="over" in2="offset" in="SourceGraphic" result="composite2" id="feComposite5823"></feComposite>
</filter>
<sodipodi:namedview  showgrid="false" showguides="false" inkscape:cy="186.81517" inkscape:cx="165.07988" borderopacity="1.0" bordercolor="#666666" pagecolor="#ffffff" id="base" inkscape:zoom="1.875" inkscape:snap-global="false" inkscape:window-maximized="1" inkscape:window-y="-8" inkscape:window-x="-8" inkscape:window-height="1017" inkscape:window-width="1920" inkscape:guide-bbox="true" inkscape:pageshadow="2" inkscape:current-layer="layer4" inkscape:pageopacity="0.0" inkscape:document-units="px">
	<inkscape:grid  type="xygrid" empspacing="5" enabled="true" visible="true" id="grid2985" snapvisiblegridlinesonly="true">
		</inkscape:grid>
	<sodipodi:guide  id="guide3002" orientation="1,0" position="8,58.524064"></sodipodi:guide>
	<sodipodi:guide  id="guide3004" orientation="1,0" position="20,69.304813"></sodipodi:guide>
	<sodipodi:guide  id="guide3006" orientation="1,0" position="32,62.631016"></sodipodi:guide>
	<sodipodi:guide  id="guide3008" orientation="1,0" position="68,53.390374"></sodipodi:guide>
	<sodipodi:guide  id="guide3010" orientation="0,1" position="119.61497,8"></sodipodi:guide>
	<sodipodi:guide  id="guide3012" orientation="0,1" position="155.5508,20"></sodipodi:guide>
	<sodipodi:guide  id="guide3014" orientation="0,1" position="132.96257,32"></sodipodi:guide>
	<sodipodi:guide  id="guide3016" orientation="0,1" position="130.90909,68"></sodipodi:guide>
	<sodipodi:guide  id="guide3018" orientation="0,1" position="137.06952,184"></sodipodi:guide>
	<sodipodi:guide  id="guide3020" orientation="1,0" position="184,145.79679"></sodipodi:guide>
	<sodipodi:guide  id="guide3022" orientation="0,1" position="91.379679,172"></sodipodi:guide>
	<sodipodi:guide  id="guide3024" orientation="1,0" position="172.15693,140.10142"></sodipodi:guide>
	<sodipodi:guide  id="guide3026" orientation="0,1" position="149.39037,160"></sodipodi:guide>
	<sodipodi:guide  id="guide3028" orientation="1,0" position="160,88.299465"></sodipodi:guide>
	<sodipodi:guide  id="guide3030" orientation="0,1" position="128.34225,124"></sodipodi:guide>
	<sodipodi:guide  id="guide3032" orientation="1,0" position="124,92.919786"></sodipodi:guide>
</sodipodi:namedview>
<g id="layer6" inkscape:label="Square 2" inkscape:groupmode="layer">
	<g id="rect7720" class="st0">
		<path class="st1" d="M-411.6,885.5h129.2c6,0,10.9,4.9,10.9,10.9v129.2c0,6-4.9,10.9-10.9,10.9h-129.2c-6,0-10.9-4.9-10.9-10.9
			V896.4C-422.5,890.4-417.6,885.5-411.6,885.5z"/>
		<path class="st2" d="M-411.6,885.5h129.2c6,0,10.9,4.9,10.9,10.9v129.2c0,6-4.9,10.9-10.9,10.9h-129.2c-6,0-10.9-4.9-10.9-10.9
			V896.4C-422.5,890.4-417.6,885.5-411.6,885.5z"/>
	</g>
</g>
<g id="layer4" inkscape:label="Square" inkscape:groupmode="layer">
	<path id="rect7755" class="st3" d="M-411.7,885.5h129.3c6,0,10.8,4.8,10.8,10.8v128.4c0,6-4.8,10.8-10.8,10.8h-129.3
		c-6,0-10.8-4.8-10.8-10.8V896.3C-422.5,890.3-417.7,885.5-411.7,885.5z"/>
	<path id="rect7757" class="st4" d="M-411.7,886.5h129.3c6,0,10.8,4.8,10.8,10.8v128.4c0,6-4.8,10.8-10.8,10.8h-129.3
		c-6,0-10.8-4.8-10.8-10.8V897.3C-422.5,891.3-417.7,886.5-411.7,886.5z"/>
	<path id="rect3811" class="st5" d="M-411.7,886.5h129.5c5.9,0,10.8,4.8,10.8,10.8v127.5c0,5.9-4.8,10.8-10.8,10.8h-129.5
		c-5.9,0-10.8-4.8-10.8-10.8V897.2C-422.5,891.3-417.7,886.5-411.7,886.5z"/>
	<g id="flowRoot9367">
	</g>
	<g>
		<defs>
			<path id="SVGID_1_" d="M-411.6,885.5h129.2c6,0,10.9,4.9,10.9,10.9v129.2c0,6-4.9,10.9-10.9,10.9h-129.2c-6,0-10.9-4.9-10.9-10.9
				V896.4C-422.5,890.4-417.6,885.5-411.6,885.5z"/>
		</defs>
		<clipPath id="SVGID_2_">
			<use xlink:href="#SVGID_1_"  style="overflow:visible;"/>
		</clipPath>
		
			<linearGradient id="path4348_1_" gradientUnits="userSpaceOnUse" x1="-349.5734" y1="919.2383" x2="-213.6345" y2="784.0836" gradientTransform="matrix(0.9016 0 0 -0.9016 -77.5569 1744.3184)">
			<stop  offset="0" style="stop-color:#000000"/>
			<stop  offset="1" style="stop-color:#000000;stop-opacity:0"/>
		</linearGradient>
		<path id="path4348" inkscape:connector-curvature="0" class="st6" d="M-404.2,903.6V1019h0.4v0.4h0.4v0.4h0.4v0.4h0.4v0.4h0.4v0.4
			h0.4v0.4h0.4v0.4h0.4v0.4h0.4v0.4h0.3v0.3h0.3v0.3h0.3v0.3h0.3v0.3h0.3v0.3h0.3v0.3h0.3v0.3h0.3v0.3h0.3v0.3h0.3v0.3h0.3v0.3h0.3
			v0.3h0.3v0.3h0.3v0.3h0.3v0.3h0.3v0.3h0.3v0.3h0.3v0.3h0.3v0.3h0.3v0.3h0.3v0.3h0.3v0.3h0.3v0.3h0.3v0.3h0.3v0.3h0.3v0.3h0.3v0.3
			h0.3v0.3h0.3v0.3h0.3v0.3h0.3v0.3h0.3v0.3h0.3v0.3h0.3v0.3h0.3v0.3h0.3v0.3h0.3v0.3h0.3v0.3h0.3v0.3h0.3v0.3h0.3v0.3h0.3v0.3h0.3
			v0.3h0.3v0.3h0.3v0.3h0.3v0.3h0.3v0.3h0.3v0.3h0.3v0.3h0.3v0.3h0.3v0.3h0.3v0.3h0.3v0.3h0.3v0.3h0.3v0.3h0.3v0.3h0.3v0.3h0.3v0.3
			h0.3v0.3h0.3v0.3h0.3v0.3h0.3v0.3h0.3v0.3h0.3v0.3h0.3v0.3h0.3v0.3h0.3v0.3h0.3v0.3h0.3v0.3h0.3v0.3h0.3v0.3h0.3v0.3h0.3v0.3h0.3
			v0.3h0.3v0.3h0.3v0.3h0.3v0.3h0.3v0.3h0.3v0.3h0.3v0.3h0.3v0.3h0.3v0.3h0.3v0.3h0.3v0.3h0.3v0.3h0.3v0.3h0.3v0.3h0.3v0.3h0.3v0.3
			h0.3v0.3h0.3v0.3h0.3v0.3h0.3v0.3h0.3v0.3h0.3v0.3h0.3v0.3h0.3v0.3h0.2v0.2h0.2v0.2h0.2v0.2h0.2v0.2h0.2v0.2h0.2v0.2h0.2v0.2h0.2
			v0.2h0.2v0.2h0.2v0.2h0.2v0.2h0.2v0.2h0.2v0.2h0.2v0.2h0.2v0.2h0.2v0.2h0.2v0.2h0.2v0.2h0.2v0.2h0.2v0.2h0.2v0.2h0.2v0.2h0.2v0.2
			h0.2v0.2h0.2v0.2h0.2v0.2h0.2v0.2h0.2v0.2h0.2v0.2h0.2v0.2h0.2v0.2h0.2v0.2h0.2v0.2h0.2v0.2h0.2v0.2h0.2v0.2h0.2v0.2h0.2v0.2h0.2
			v0.2h0.2v0.2h0.2v0.2h0.2v0.2h0.2v0.2h0.2v0.2h0.2v0.2h0.2v0.2h0.2v0.2h0.2v0.2h0.2v0.2h0.2v0.2h0.2v0.2h0.2v0.2h0.2v0.2h0.2v0.2
			h0.2v0.2h0.2v0.2h0.2v0.2h0.2v0.2h0.2v0.2h0.2v0.2h0.2v0.2h0.2v0.2h0.2v0.2h0.2v0.2h0.2v0.2h0.2v0.2h0.2v0.2h0.2v0.2h0.2v0.2h0.2
			v0.2h0.2v0.2h0.2v0.2h0.2v0.2h0.2v0.2h0.2v0.2h0.2v0.2h0.2v0.2h0.2v0.2h0.2v0.2h0.2v0.2h0.2v0.2h0.2v0.2h0.2v0.2h0.2v0.2h0.2v0.2
			h0.2v0.2h0.2v0.2h0.2v0.2h0.2v0.2h0.2v0.2h0.2v0.2h0.2v0.2h0.2v0.2h0.2v0.2h0.2v0.2h0.2v0.2h0.2v0.2h0.1v0.1h0.1v0.1h0.1v0.1h0.1
			v0.1h0.1v0.1h0.1v0.1h0.1v0.1h0.1v0.1h0.1v0.1h0.1v0.1h0.1v0.1h0.1v0.1h0.1v0.1h0.1v0.1h0.1v0.1h0.1v0.1h0.1v0.1h0.1v0.1h0.1v0.1
			h0.1v0.1h0.1v0.1h0.1v0.1h0.1v0.1h0.1v0.1h0.1v0.1h0.1v0.1h0.1v0.1h0.1v0.1h0.1v0.1h0.1v0.1h0.1v0.1h0.1v0.1h0.1v0.1h0.1v0.1h0.1
			v0.1h0.1v0.1h0.1v0.1h0.1v0.1h0.1v0.1h0.1v0.1h0.1v0.1h0.1v0.1h0.1v0.1h0.1v0.1h0.1v0.1h0.1v0.1h0.1v0.1h0.1v0.1h0.1v0.1h0.1v0.1
			h0.1v0.1h0.1v0.1h0.1v0.1h0.1v0.1h0.1v0.1h0.1v0.1h0.1v0.1h0.1v0.1h0.1v0.1h0.1v0.1h0.1v0.1h0.1v0.1h0.1v0.1h0.1v0.1h0.1v0.1h0.1
			v0.1h0.1v0.1h0.1v0.1h0.1v0.1h0.1v0.1h0.1v0.1h0.1v0.1h0.1v0.1h0.1v0.1h0.1v0.1h0.1v0.1h0.1v0.1h0.1v0.1h0.1v0.1h0.1v0.1h0.1v0.1
			h0.1v0.1h0.1v0.1h0.1v0.1h0.1v0.1h0.1v0.1h0.1v0.1h0.1v0.1h0.1v0.1h0.1v0.1h0.1v0.1h0.1v0.1h0.1v0.1h0.1v0.1h0.1v0.1h0.1v0.1h0.1
			v0.1h0.1v0.1h0v0h0v0h0v0h0v0h0v0h0v0h0v0h0v0h0v0h0v0h0v0h0v0h0v0h0v0h0v0h0v0h0v0h0v0h0v0h0v0h0v0h0v0h0v0h0v0h0v0h0v0h0v0h0v0
			h0v0h0v0h0v0h0v0h0v0h0v0h0v0h0v0h0v0h0v0h0v0h0v0h0v0h0v0h0v0h0v0h0v0h0v0h0v0h0v0H-226V966.4h0v0h0v0h0v0h0v0h0v0h0v0h0v0h0v0h0
			v0h0v0h0v0h0v0h0v0h0v0h0v0h0v0h0v0h0v0h0v0h0v0h0v0h0v0h0v0h0v0h0v0h0v0h0v0h0v0h0v0h0v0h0v0h0v0h0v0h0v0h0v0h0v0h0v0h0v0h0v0h0
			v0h0v0h0v0h0v0h0v0h0v0h0v0h0v0h0v0h-0.1v-0.1h-0.1v-0.1h-0.1V965h-0.1V965h-0.1v-0.1h-0.1v-0.1h-0.1v-0.1h-0.1v-0.1h-0.1v-0.1
			h-0.1v-0.1h-0.1v-0.1h-0.1v-0.1h-0.1v-0.1h-0.1v-0.1h-0.1v-0.1h-0.1v-0.1h-0.1v-0.1h-0.1v-0.1h-0.1V964h-0.1V964h-0.1v-0.1h-0.1
			v-0.1h-0.1v-0.1h-0.1v-0.1h-0.1v-0.1h-0.1v-0.1h-0.1v-0.1h-0.1v-0.1h-0.1v-0.1h-0.1v-0.1h-0.1v-0.1h-0.1V963h-0.1V963h-0.1v-0.1
			h-0.1v-0.1h-0.1v-0.1h-0.1v-0.1h-0.1v-0.1h-0.1v-0.1h-0.1v-0.1h-0.1v-0.1h-0.1v-0.1h-0.1v-0.1h-0.1V962h-0.1v-0.1h-0.1v-0.1h-0.1
			v-0.1h-0.1v-0.1h-0.1v-0.1h-0.1v-0.1h-0.1v-0.1h-0.1v-0.1h-0.1v-0.1h-0.1V961h-0.1v-0.1h-0.1v-0.1h-0.1v-0.1h-0.1v-0.1h-0.1v-0.1
			h-0.1v-0.1h-0.1v-0.1h-0.1v-0.1h-0.1V960h-0.1v-0.1h-0.1v-0.1h-0.1v-0.1h-0.1v-0.1h-0.1v-0.1h-0.1v-0.1h-0.1v-0.1h-0.1V959h-0.1
			v-0.1h-0.1v-0.1h-0.1v-0.1h-0.1v-0.1h-0.1v-0.1h-0.1v-0.1h-0.1v-0.1h-0.1V958h-0.1v-0.1h-0.1v-0.1h-0.1v-0.1h-0.1v-0.1h-0.1v-0.1
			h-0.1v-0.1h-0.1v-0.1h-0.1v-0.1h-0.1v-0.1h-0.1v-0.1h-0.1v-0.1h-0.1v-0.1h-0.1v-0.1h-0.1v-0.1h-0.1v-0.1h-0.1v-0.1h-0.1v-0.1h-0.1
			v-0.1h-0.1v-0.1h-0.2v-0.2h-0.2V955h-0.2v-0.2h-0.2v-0.2h-0.2v-0.2h-0.2v-0.2h-0.2v-0.2h-0.2v-0.2h-0.2v-0.2h-0.2v-0.2h-0.2v-0.2
			h-0.2v-0.2h-0.2v-0.2h-0.2v-0.2h-0.2V953h-0.2v-0.2h-0.2v-0.2h-0.2v-0.2h-0.2v-0.2h-0.2v-0.2h-0.2v-0.2h-0.2v-0.2h-0.2v-0.2h-0.2
			v-0.2h-0.2v-0.2h-0.2v-0.2h-0.2v-0.2h-0.2v-0.2h-0.2v-0.2h-0.2v-0.2h-0.2v-0.2h-0.2V950h-0.2v-0.2h-0.2v-0.2h-0.2v-0.2h-0.2v-0.2
			h-0.2v-0.2h-0.2v-0.2h-0.2v-0.2h-0.2v-0.2h-0.2v-0.2h-0.2v-0.2h-0.2v-0.2h-0.2v-0.2h-0.2v-0.2h-0.2v-0.2h-0.2v-0.2h-0.2v-0.2h-0.2
			v-0.2h-0.2v-0.2h-0.2v-0.2h-0.2v-0.2h-0.2v-0.2h-0.2v-0.2h-0.2v-0.2h-0.2v-0.2h-0.2v-0.2h-0.2v-0.2h-0.2v-0.2h-0.2v-0.2h-0.2v-0.2
			h-0.2V944h-0.2v-0.2h-0.2v-0.2h-0.2v-0.2h-0.2v-0.2h-0.2v-0.2h-0.2v-0.2h-0.2v-0.2h-0.2v-0.2h-0.2v-0.2h-0.2v-0.2h-0.2v-0.2h-0.2
			v-0.2h-0.2v-0.2h-0.2v-0.2h-0.2v-0.2h-0.2v-0.2h-0.2v-0.2h-0.2V940h-0.2v-0.2h-0.2v-0.2h-0.2v-0.2h-0.2v-0.2h-0.2v-0.2h-0.2v-0.2
			h-0.2v-0.2h-0.2v-0.2h-0.2v-0.2h-0.2v-0.2h-0.2v-0.2h-0.2v-0.2h-0.2v-0.2h-0.2l0-0.2h-0.2v-0.2h-0.2v-0.2h-0.2v-0.2h-0.3v-0.3
			h-0.3v-0.3h-0.3v-0.3h-0.3v-0.3h-0.3v-0.3h-0.3v-0.3h-0.3v-0.3h-0.3v-0.3h-0.3v-0.3h-0.3v-0.3h-0.3v-0.3h-0.3v-0.3h-0.3v-0.3h-0.3
			v-0.3h-0.3V932h-0.3v-0.3h-0.3v-0.3h-0.3v-0.3h-0.3V931h-0.3v-0.3h-0.3v-0.3h-0.3v-0.3h-0.3v-0.3h-0.3v-0.3h-0.3v-0.3h-0.3v-0.3
			h-0.3v-0.3h-0.3v-0.3h-0.3v-0.3h-0.3v-0.3h-0.3v-0.3h-0.3v-0.3h-0.3v-0.3h-0.3v-0.3h-0.3v-0.3h-0.3v-0.3h-0.3V926h-0.3v-0.3h-0.3
			v-0.3h-0.3v-0.3h-0.3v-0.3h-0.3v-0.3h-0.3v-0.3h-0.3v-0.3h-0.3v-0.3h-0.3v-0.3h-0.3V923h-0.3v-0.3h-0.3v-0.3h-0.3v-0.3h-0.3v-0.3
			h-0.3v-0.3h-0.3v-0.3h-0.3v-0.3h-0.3v-0.3h-0.3v-0.3h-0.3V920h-0.3v-0.3h-0.3v-0.3h-0.3v-0.3h-0.3v-0.3h-0.3v-0.3h-0.3v-0.3h-0.3
			v-0.3h-0.3v-0.3h-0.3v-0.3h-0.3v-0.3h-0.3v-0.3h-0.3v-0.3h-0.3v-0.3h-0.3v-0.3h-0.3v-0.3h-0.3v-0.3h-0.3v-0.3h-0.3v-0.3h-0.3v-0.3
			h-0.3v-0.3h-0.3v-0.3h-0.3V913h-0.3v-0.3h-0.3v-0.3h-0.3V912h-0.3v-0.3h-0.3v-0.3h-0.3V911h-0.3v-0.3h-0.3v-0.3h-0.3v-0.3h-0.3
			v-0.3h-0.3v-0.3h-0.3v-0.3h-0.3v-0.3h-0.3v-0.3h-0.3v-0.3h-0.3v-0.3h-0.3v-0.3h-0.3v-0.3h-0.4v-0.4h-0.4v-0.4h-0.4v-0.4h-0.4v-0.4
			h-0.4v-0.4h-0.4v-0.4h-0.4v-0.4h-0.4V904h-0.4v-0.4L-404.2,903.6L-404.2,903.6z"/>
	</g>
	<rect id="rect4221" x="-395.2" y="913.4" class="st7" width="97.4" height="96.7"/>
	<g>
		<defs>
			<rect id="SVGID_3_" x="-395.2" y="913.4" width="97.4" height="96.7"/>
		</defs>
		<clipPath id="SVGID_4_">
			<use xlink:href="#SVGID_3_"  style="overflow:visible;"/>
		</clipPath>
		<path id="path4225" inkscape:connector-curvature="0" sodipodi:nodetypes="ccccccc" class="st8" d="M-405.5,997.3l102.3-102.6
			l17.8,22.3l-3.7,34.9l-86.3,65.6l-26.4,8.2L-405.5,997.3z"/>
	</g>
	<g>
		<defs>
			<rect id="SVGID_5_" x="-395.2" y="913.4" width="97.4" height="96.7"/>
		</defs>
		<clipPath id="SVGID_6_">
			<use xlink:href="#SVGID_5_"  style="overflow:visible;"/>
		</clipPath>
		<path id="path4238" inkscape:connector-curvature="0" sodipodi:nodetypes="ccccccc" class="st9" d="M-415.3,1029.5l138.7-139.4
			l-8.8,26.9l-0.1,36.7l-87.3,65.6l-29.1,6.3L-415.3,1029.5z"/>
	</g>
	<g id="rect4201" inkscape:connector-curvature="0" class="st10">
		<rect x="-399.5" y="908.3" class="st11" width="105.3" height="105.3"/>
	</g>
	<path id="path6544" inkscape:connector-curvature="0" class="st12" d="M-399.5,908.3v105.3h105.3V908.3H-399.5z"/>
	<path id="path6546" inkscape:connector-curvature="0" class="st13" d="M-399.5,908.3v104.4h105.4V908.3
		C-294.1,908.3-399.5,908.3-399.5,908.3z"/>
</g>
<g id="layer5" inkscape:label="Square 1" inkscape:groupmode="layer" sodipodi:insensitive="true">
	
		<radialGradient id="rect5844_1_" cx="-433.0806" cy="2122.4934" r="76" gradientTransform="matrix(2.534750e-003 1.9948 2.0024 -2.544370e-003 -4671.8779 1754.5006)" gradientUnits="userSpaceOnUse">
		<stop  offset="0" style="stop-color:#FFFFFF"/>
		<stop  offset="1" style="stop-color:#FFFFFF;stop-opacity:0"/>
	</radialGradient>
	
		<radialGradient id="rect5844_2_" cx="-433.0805" cy="2122.4934" r="76" gradientTransform="matrix(2.534720e-003 1.9948 2.0024 -2.544350e-003 -4671.8774 1754.5005)" gradientUnits="userSpaceOnUse">
		<stop  offset="0" style="stop-color:#FFFFFF"/>
		<stop  offset="1" style="stop-color:#FFFFFF;stop-opacity:0"/>
	</radialGradient>
	<path id="rect5844" class="st14" d="M-411.6,885.5h129.2c6,0,10.9,4.9,10.9,10.9v129.2c0,6-4.9,10.9-10.9,10.9h-129.2
		c-6,0-10.9-4.9-10.9-10.9V896.4C-422.5,890.4-417.6,885.5-411.6,885.5z"/>
</g>
</svg>
