<?xml version="1.0" encoding="UTF-8" standalone="no"?>
<!-- Created with Inkscape (http://www.inkscape.org/) -->

<svg
   xmlns:dc="http://purl.org/dc/elements/1.1/"
   xmlns:cc="http://creativecommons.org/ns#"
   xmlns:rdf="http://www.w3.org/1999/02/22-rdf-syntax-ns#"
   xmlns:svg="http://www.w3.org/2000/svg"
   xmlns="http://www.w3.org/2000/svg"
   xmlns:xlink="http://www.w3.org/1999/xlink"
   xmlns:sodipodi="http://sodipodi.sourceforge.net/DTD/sodipodi-0.dtd"
   xmlns:inkscape="http://www.inkscape.org/namespaces/inkscape"
   width="192"
   height="192"
   id="svg2"
   version="1.1"
   inkscape:version="0.91 r13725"
   sodipodi:docname="gallery.svg"
   inkscape:export-filename="C:\Users\Simon\Documents\Material Design Icon Pack\PNG\gallery.png"
   inkscape:export-xdpi="90"
   inkscape:export-ydpi="90">
  <sodipodi:namedview
     id="base"
     pagecolor="#ffffff"
     bordercolor="#666666"
     borderopacity="1.0"
     inkscape:pageopacity="0.0"
     inkscape:pageshadow="2"
     inkscape:zoom="1.875"
     inkscape:cx="165.07988"
     inkscape:cy="186.81517"
     inkscape:document-units="px"
     inkscape:current-layer="layer4"
     showgrid="false"
     showguides="false"
     inkscape:guide-bbox="true"
     inkscape:window-width="1920"
     inkscape:window-height="1017"
     inkscape:window-x="-8"
     inkscape:window-y="-8"
     inkscape:window-maximized="1"
     inkscape:snap-global="false">
    <inkscape:grid
       type="xygrid"
       id="grid2985"
       empspacing="5"
       visible="true"
       enabled="true"
       snapvisiblegridlinesonly="true" />
    <sodipodi:guide
       orientation="1,0"
       position="8,58.524064"
       id="guide3002" />
    <sodipodi:guide
       orientation="1,0"
       position="20,69.304813"
       id="guide3004" />
    <sodipodi:guide
       orientation="1,0"
       position="32,62.631016"
       id="guide3006" />
    <sodipodi:guide
       orientation="1,0"
       position="68,53.390374"
       id="guide3008" />
    <sodipodi:guide
       orientation="0,1"
       position="119.61497,8"
       id="guide3010" />
    <sodipodi:guide
       orientation="0,1"
       position="155.5508,20"
       id="guide3012" />
    <sodipodi:guide
       orientation="0,1"
       position="132.96257,32"
       id="guide3014" />
    <sodipodi:guide
       orientation="0,1"
       position="130.90909,68"
       id="guide3016" />
    <sodipodi:guide
       orientation="0,1"
       position="137.06952,184"
       id="guide3018" />
    <sodipodi:guide
       orientation="1,0"
       position="184,145.79679"
       id="guide3020" />
    <sodipodi:guide
       orientation="0,1"
       position="91.379679,172"
       id="guide3022" />
    <sodipodi:guide
       orientation="1,0"
       position="172.15693,140.10142"
       id="guide3024" />
    <sodipodi:guide
       orientation="0,1"
       position="149.39037,160"
       id="guide3026" />
    <sodipodi:guide
       orientation="1,0"
       position="160,88.299465"
       id="guide3028" />
    <sodipodi:guide
       orientation="0,1"
       position="128.34225,124"
       id="guide3030" />
    <sodipodi:guide
       orientation="1,0"
       position="124,92.919786"
       id="guide3032" />
  </sodipodi:namedview>
  <defs
     id="defs4">
    <linearGradient
       inkscape:collect="always"
       id="linearGradient5825">
      <stop
         style="stop-color:#000000;stop-opacity:1;"
         offset="0"
         id="stop5827" />
      <stop
         style="stop-color:#000000;stop-opacity:0;"
         offset="1"
         id="stop5829" />
    </linearGradient>
    <linearGradient
       inkscape:collect="always"
       id="linearGradient7772">
      <stop
         style="stop-color:#ffffff;stop-opacity:1;"
         offset="0"
         id="stop7774" />
      <stop
         style="stop-color:#ffffff;stop-opacity:0;"
         offset="1"
         id="stop7776" />
    </linearGradient>
    <linearGradient
       inkscape:collect="always"
       id="linearGradient7764">
      <stop
         style="stop-color:#ffffff;stop-opacity:1;"
         offset="0"
         id="stop7766" />
      <stop
         style="stop-color:#ffffff;stop-opacity:0;"
         offset="1"
         id="stop7768" />
    </linearGradient>
    <filter
       style="color-interpolation-filters:sRGB;"
       inkscape:label="Drop Shadow"
       id="filter7743">
      <feFlood
         flood-opacity="0.301961"
         flood-color="rgb(0,0,0)"
         result="flood"
         id="feFlood7745" />
      <feComposite
         in="flood"
         in2="SourceGraphic"
         operator="in"
         result="composite1"
         id="feComposite7747" />
      <feGaussianBlur
         in="composite1"
         stdDeviation="1.7"
         result="blur"
         id="feGaussianBlur7749" />
      <feOffset
         dx="4.57967e-015"
         dy="3"
         result="offset"
         id="feOffset7751" />
      <feComposite
         in="SourceGraphic"
         in2="offset"
         operator="over"
         result="composite2"
         id="feComposite7753" />
    </filter>
    <radialGradient
       inkscape:collect="always"
       xlink:href="#linearGradient7764"
       id="radialGradient7770"
       cx="20.009592"
       cy="20.198151"
       fx="20.009592"
       fy="20.198149"
       r="75.999997"
       gradientUnits="userSpaceOnUse"
       gradientTransform="matrix(0.00253475,1.9947837,-2.002355,0.00254437,60.402743,-19.768048)" />
    <radialGradient
       inkscape:collect="always"
       xlink:href="#linearGradient7772"
       id="radialGradient7778"
       cx="20.009592"
       cy="20.198151"
       fx="20.009592"
       fy="20.198151"
       r="75.999997"
       gradientUnits="userSpaceOnUse"
       gradientTransform="matrix(0.00253472,1.9947836,-2.0023549,0.00254435,60.40274,-19.768047)" />
    <filter
       id="filter9347"
       inkscape:label="Drop Shadow"
       style="color-interpolation-filters:sRGB;">
      <feFlood
         id="feFlood9349"
         result="flood"
         flood-color="rgb(0,0,0)"
         flood-opacity="0.101961" />
      <feComposite
         id="feComposite9351"
         result="composite1"
         operator="in"
         in2="SourceGraphic"
         in="flood" />
      <feGaussianBlur
         id="feGaussianBlur9353"
         result="blur"
         stdDeviation="3"
         in="composite1" />
      <feOffset
         id="feOffset9355"
         result="offset"
         dy="3"
         dx="4.57967e-015" />
      <feComposite
         id="feComposite9357"
         result="composite2"
         operator="over"
         in2="offset"
         in="SourceGraphic" />
    </filter>
    <clipPath
       id="clipPath4242"
       clipPathUnits="userSpaceOnUse">
      <rect
         style="opacity:1;fill:#9c27b0;fill-opacity:1;fill-rule:nonzero;stroke:none;stroke-width:1.00899994;stroke-linecap:butt;stroke-linejoin:miter;stroke-miterlimit:4;stroke-dasharray:none;stroke-dashoffset:0;stroke-opacity:1"
         id="rect4244"
         width="108"
         height="107.2"
         x="42.400002"
         y="43.200001" />
    </clipPath>
    <clipPath
       id="clipPath4246"
       clipPathUnits="userSpaceOnUse">
      <rect
         style="opacity:1;fill:#9c27b0;fill-opacity:1;fill-rule:nonzero;stroke:none;stroke-width:1.00899994;stroke-linecap:butt;stroke-linejoin:miter;stroke-miterlimit:4;stroke-dasharray:none;stroke-dashoffset:0;stroke-opacity:1"
         id="rect4248"
         width="108"
         height="107.2"
         x="42.400002"
         y="43.200001" />
    </clipPath>
    <filter
       style="color-interpolation-filters:sRGB;"
       inkscape:label="Drop Shadow"
       id="filter5813"
       width="1.4400000000000002"
       height="1.4400000000000002"
       x="-0.22000000000000008"
       y="-0.22000000000000008">
      <feFlood
         flood-opacity="0.301961"
         flood-color="rgb(0,0,0)"
         result="flood"
         id="feFlood5815" />
      <feComposite
         in="flood"
         in2="SourceGraphic"
         operator="in"
         result="composite1"
         id="feComposite5817" />
      <feGaussianBlur
         in="composite1"
         stdDeviation="6"
         result="blur"
         id="feGaussianBlur5819" />
      <feOffset
         dx="4.57967e-015"
         dy="6"
         result="offset"
         id="feOffset5821" />
      <feComposite
         in="SourceGraphic"
         in2="offset"
         operator="over"
         result="composite2"
         id="feComposite5823" />
    </filter>
    <linearGradient
       inkscape:collect="always"
       xlink:href="#linearGradient5825"
       id="linearGradient5831"
       x1="45.145046"
       y1="45.516563"
       x2="181.08397"
       y2="180.6713"
       gradientUnits="userSpaceOnUse"
       gradientTransform="matrix(0.90160603,0,0,0.90160603,9.6201895,9.4316366)" />
    <clipPath
       clipPathUnits="userSpaceOnUse"
       id="clipPath5847">
      <rect
         style="display:inline;opacity:0.1;fill:url(#radialGradient5851);fill-opacity:1;stroke:url(#radialGradient5853);stroke-width:1.00005436;stroke-linejoin:round;stroke-miterlimit:4;stroke-dasharray:none;stroke-opacity:1"
         id="rect5849"
         width="150.99994"
         height="150.99994"
         x="20.500031"
         y="20.500031"
         ry="10.897427" />
    </clipPath>
    <radialGradient
       inkscape:collect="always"
       xlink:href="#linearGradient7764"
       id="radialGradient5851"
       gradientUnits="userSpaceOnUse"
       gradientTransform="matrix(0.00253475,1.9947837,-2.002355,0.00254437,60.402743,-19.768048)"
       cx="20.009592"
       cy="20.198151"
       fx="20.009592"
       fy="20.198149"
       r="75.999997" />
    <radialGradient
       inkscape:collect="always"
       xlink:href="#linearGradient7772"
       id="radialGradient5853"
       gradientUnits="userSpaceOnUse"
       gradientTransform="matrix(0.00253472,1.9947836,-2.0023549,0.00254435,60.40274,-19.768047)"
       cx="20.009592"
       cy="20.198151"
       fx="20.009592"
       fy="20.198151"
       r="75.999997" />
  </defs>
  <metadata
     id="metadata7">
    <rdf:RDF>
      <cc:Work
         rdf:about="">
        <dc:format>image/svg+xml</dc:format>
        <dc:type
           rdf:resource="http://purl.org/dc/dcmitype/StillImage" />
        <dc:title />
      </cc:Work>
    </rdf:RDF>
  </metadata>
  <g
     inkscape:groupmode="layer"
     id="layer6"
     inkscape:label="Square 2"
     style="display:inline">
    <rect
       ry="10.897427"
       y="20.500031"
       x="20.500031"
       height="150.99994"
       width="150.99994"
       id="rect7720"
       style="display:inline;fill:#424242;fill-opacity:1;stroke:#424242;stroke-width:1.00005436;stroke-linejoin:round;stroke-miterlimit:4;stroke-dasharray:none;stroke-opacity:1;filter:url(#filter7743)" />
  </g>
  <g
     inkscape:groupmode="layer"
     id="layer4"
     inkscape:label="Square"
     style="display:inline">
    <rect
       ry="10.827893"
       y="20.498438"
       x="20.498438"
       height="150.03645"
       width="151.00313"
       id="rect7755"
       style="opacity:0.2;fill:#339489;fill-opacity:1;stroke:#ffffff;stroke-width:0.99686927;stroke-linejoin:round;stroke-miterlimit:4;stroke-dasharray:none;stroke-opacity:1" />
    <rect
       ry="10.827893"
       y="21.465105"
       x="20.498438"
       height="150.03645"
       width="151.00313"
       id="rect7757"
       style="opacity:0.2;fill:#006d60;fill-opacity:1;stroke:#000000;stroke-width:0.99699998;stroke-linejoin:round;stroke-miterlimit:4;stroke-dasharray:none;stroke-opacity:1" />
    <rect
       style="fill:#424242;fill-opacity:1;stroke:#424242;stroke-width:0.99361873;stroke-linejoin:round;stroke-miterlimit:4;stroke-dasharray:none;stroke-opacity:1"
       id="rect3811"
       width="151.00638"
       height="149.05637"
       x="20.496813"
       y="21.46348"
       ry="10.757162" />
    <flowRoot
       style="font-style:normal;font-variant:normal;font-weight:normal;font-stretch:normal;font-size:40px;line-height:125%;font-family:roboto;-inkscape-font-specification:roboto;letter-spacing:0px;word-spacing:0px;fill:#000000;fill-opacity:1;stroke:none;stroke-width:1px;stroke-linecap:butt;stroke-linejoin:miter;stroke-opacity:1"
       id="flowRoot9367"
       xml:space="preserve"><flowRegion
         id="flowRegion9369"><rect
           style="font-style:normal;font-variant:normal;font-weight:normal;font-stretch:normal;font-family:roboto;-inkscape-font-specification:roboto"
           y="31.533901"
           x="31.866945"
           height="128.4106"
           width="128.97627"
           id="rect9371" /></flowRegion><flowPara
         id="flowPara9373" /></flowRoot>    <path
       style="opacity:0.2;fill:url(#linearGradient5831);fill-opacity:1;fill-rule:nonzero;stroke:none;stroke-width:1.00899994;stroke-linecap:butt;stroke-linejoin:miter;stroke-miterlimit:4;stroke-dasharray:none;stroke-dashoffset:0;stroke-opacity:1"
       d="m 38.830817,38.642264 0,115.405566 0.357472,0 0,0.35748 0.357473,0 0,0.35748 0.355712,0 0,0.35571 0.355712,0 0,0.3557 0.35395,0 0,0.35395 0.352191,0 0,0.35218 0.352189,0 0,0.3522 0.350429,0 0,0.35043 0.350429,0 0,0.35044 0.348668,0 0,0.34866 0.348667,0 0,0.34867 0.346907,0 0,0.34691 0.345147,0 0,0.34514 0.345146,0 0,0.34514 0.343384,0 0,0.34339 0.343387,0 0,0.34339 0.341624,0 0,0.34162 0.339862,0 0,0.33986 0.339863,0 0,0.33987 0.338103,0 0,0.3381 0.338102,0 0,0.33809 0.336342,0 0,0.33636 0.336341,0 0,0.33633 0.334581,0 0,0.3346 0.332819,0 0,0.3328 0.332819,0 0,0.33283 0.331058,0 0,0.33106 0.331059,0 0,0.33104 0.329298,0 0,0.3293 0.327537,0 0,0.32753 0.327536,0 0,0.32755 0.325775,0 0,0.32578 0.325775,0 0,0.32577 0.324015,0 0,0.32401 0.324015,0 0,0.32403 0.322253,0 0,0.32225 0.320494,0 0,0.32048 0.320493,0 0,0.32051 0.318731,0 0,0.31872 0.318733,0 0,0.31874 0.316969,0 0,0.31697 0.31521,0 0,0.3152 0.315211,0 0,0.31522 0.31521,0 0,0.31521 0.311687,0 0,0.31168 0.31345,0 0,0.31345 0.309927,0 0,0.30993 0.309928,0 0,0.30992 0.309926,0 0,0.30993 0.306405,0 0,0.30641 0.308166,0 0,0.30817 0.304644,0 0,0.30463 0.304644,0 0,0.30466 0.304645,0 0,0.30463 0.302884,0 0,0.30288 0.301122,0 0,0.30113 0.301121,0 0,0.30112 0.299362,0 0,0.29936 0.299361,0 0,0.29937 0.2976,0 0,0.2976 0.29584,0 0,0.29584 0.295839,0 0,0.29584 0.294079,0 0,0.29408 0.294079,0 0,0.29407 0.292318,0 0,0.29232 0.292317,0 0,0.29232 0.290557,0 0,0.29055 0.288795,0 0,0.2888 0.288795,0 0,0.2888 0.287036,0 0,0.28703 0.287036,0 0,0.28704 0.285272,0 0,0.28527 0.283513,0 0,0.28351 0.283513,0 0,0.28352 0.281752,0 0,0.28175 0.281752,0 0,0.28176 0.279991,0 0,0.27999 0.27999,0 0,0.27998 0.27823,0 0,0.27824 0.276468,0 0,0.27647 0.276471,0 0,0.27646 0.274707,0 0,0.27471 0.27471,0 0,0.2747 0.272945,0 0,0.27295 0.271187,0 0,0.27119 0.271187,0 0,0.27118 0.269425,0 0,0.26943 0.269424,0 0,0.26943 0.267664,0 0,0.26765 0.267665,0 0,0.26767 0.265904,0 0,0.2659 0.264142,0 0,0.26415 0.264142,0 0,0.26415 0.262381,0 0,0.26236 0.262382,0 0,0.26241 0.26062,0 0,0.2606 0.258859,0 0,0.25887 0.258861,0 0,0.25885 0.258859,0 0,0.25886 0.255337,0 0,0.25534 0.255337,0 0,0.25533 0.25534,0 0,0.25534 0.253576,0 0,0.25359 0.251815,0 0,0.25181 0.251817,0 0,0.25181 0.251814,0 0,0.25183 0.248295,0 0,0.24828 0.248293,0 0,0.2483 0.248295,0 0,0.24828 0.246532,0 0,0.24655 0.244772,0 0,0.24477 0.244773,0 0,0.24477 0.243011,0 0,0.24301 0.243011,0 0,0.24301 0.241249,0 0,0.24126 0.23949,0 0,0.23948 0.239489,0 0,0.23949 0.237728,0 0,0.23773 0.237729,0 0,0.23773 0.235965,0 0,0.23596 0.235969,0 0,0.23596 0.234206,0 0,0.23422 0.232444,0 0,0.23245 0.232447,0 0,0.23245 0.230683,0 0,0.23068 0.228923,0 0,0.22891 0.228925,0 0,0.23069 0.228923,0 0,0.22716 0.227162,0 0,0.22717 0.225402,0 0,0.2254 0.225401,0 0,0.2254 0.223641,0 0,0.22364 0.22188,0 0,0.22187 0.221879,0 0,0.22189 0.22188,0 0,0.22188 0.220119,0 0,0.22012 0.218357,0 0,0.21836 0.216597,0 0,0.2166 0.218357,0 0,0.21835 0.214836,0 0,0.21483 0.214836,0 0,0.21483 0.213075,0 0,0.21309 0.213076,0 0,0.21307 0.211312,0 0,0.21131 0.211315,0 0,0.21133 0.209553,0 0,0.20953 0.207791,0 0,0.20779 0.207792,0 0,0.2078 0.206032,0 0,0.20603 0.206031,0 0,0.20603 0.204271,0 0,0.20428 0.202508,0 0,0.20251 0.20251,0 0,0.2025 0.202508,0 0,0.20252 0.198986,0 0,0.19898 0.198989,0 0,0.19898 0.198987,0 0,0.199 0.197227,0 0,0.19722 0.195465,0 0,0.19547 0.195465,0 0,0.19546 0.195465,0 0,0.19546 0.191944,0 0,0.19196 0.191943,0 0,0.19194 0.191944,0 0,0.19193 0.190183,0 0,0.19018 0.188421,0 0,0.18843 0.188421,0 0,0.18843 0.186661,0 0,0.18665 0.186661,0 0,0.18667 0.184899,0 0,0.1849 0.183139,0 0,0.18313 0.183138,0 0,0.18316 0.181378,0 0,0.18137 0.181379,0 0,0.18137 0.179616,0 0,0.17961 0.179617,0 0,0.17963 0.176096,0 0,0.17608 0.177854,0 0,0.17787 0.176096,0 0,0.17608 0.174334,0 0,0.17434 0.172573,0 0,0.17257 0.172572,0 0,0.17258 0.172573,0 0,0.17258 0.170813,0 0,0.17081 0.169051,0 0,0.16904 0.169051,0 0,0.16905 0.167291,0 0,0.16729 0.165529,0 0,0.16553 0.165528,0 0,0.16552 0.165531,0 0,0.16554 0.163767,0 0,0.16377 0.162007,0 0,0.16202 0.160248,0 0,0.16024 0.160246,0 0,0.16023 0.160245,0 0,0.16026 0.158486,0 0,0.15847 0.156726,0 0,0.15673 0.156723,0 0,0.15673 0.154964,0 0,0.15496 0.154964,0 0,0.15497 0.153202,0 0,0.1532 0.151442,0 0,0.15144 0.151442,0 0,0.15145 0.149681,0 0,0.14967 0.14968,0 0,0.14969 0.147919,0 0,0.14792 0.146159,0 0,0.14615 0.14616,0 0,0.14616 0.144397,0 0,0.1444 0.144398,0 0,0.1444 0.142637,0 0,0.14263 0.142636,0 0,0.14265 0.140877,0 0,0.14087 0.139113,0 0,0.13911 0.139116,0 0,0.13911 0.137354,0 0,0.13736 0.137354,0 0,0.13735 0.135593,0 0,0.1356 0.135595,0 0,0.13559 0.133831,0 0,0.13383 0.132071,0 0,0.13208 0.132071,0 0,0.13207 0.130311,0 0,0.13031 0.13031,0 0,0.1303 0.128549,0 0,0.12855 0.126789,0 0,0.12679 0.126789,0 0,0.1268 0.125026,0 0,0.12502 0.125027,0 0,0.12502 0.123267,0 0,0.12327 0.121505,0 0,0.12149 0.121505,0 0,0.12153 0.121506,0 0,0.12151 0.119745,0 0,0.11974 0.117983,0 0,0.11798 0.116223,0 0,0.11622 0.116222,0 0,0.11622 0.116224,0 0,0.11624 0.114462,0 0,0.11445 0.1127,0 0,0.1127 0.112702,0 0,0.11269 0.110939,0 0,0.11095 0.10918,0 0,0.10918 0.109177,0 0,0.10917 0.109179,0 0,0.10918 0.107418,0 0,0.10743 0.105656,0 0,0.10566 0.103897,0 0,0.10389 0.103896,0 0,0.10389 0.103895,0 0,0.1039 0.102137,0 0,0.10214 0.100373,0 0,0.10037 0.100375,0 0,0.10038 0.09861,0 0,0.0986 0.09861,0 0,0.0986 0.09685,0 0,0.0969 0.09509,0 0,0.0951 0.09509,0 0,0.0951 0.09333,0 0,0.0933 0.09333,0 0,0.0933 0.09157,0 0,0.0915 0.08981,0 0,0.0899 0.08981,0 0,0.0899 0.08805,0 0,0.0881 0.08805,0 0,0.0881 0.08629,0 0,0.0863 0.08629,0 0,0.0863 0.08453,0 0,0.0845 0.08276,0 0,0.0827 0.08281,0 0,0.0827 0.08096,0 0,0.081 0.08096,0 0,0.0809 0.07923,0 0,0.0792 0.0792,0 0,0.0792 0.0775,0 0,0.0774 0.0757,0 0,0.0758 0.0757,0 0,0.0758 0.0739,0 0,0.0739 0.0739,0 0,0.0739 0.0722,0 0,0.0722 0.0704,0 0,0.0704 0.0704,0 0,0.0704 0.0687,0 0,0.0687 0.0687,0 0,0.0688 0.0669,0 0,0.0669 0.0651,0 0,0.0652 0.0652,0 0,0.0652 0.0652,0 0,0.0651 0.0634,0 0,0.0634 0.0616,0 0,0.0616 0.0598,0 0,0.0598 0.0598,0 0,0.0599 0.0599,0 0,0.0598 0.0581,0 0,0.0581 0.0564,0 0,0.0563 0.0564,0 0,0.0564 0.0546,0 0,0.0546 0.0529,0 0,0.0529 0.0529,0 0,0.0529 0.0529,0 0,0.053 0.0511,0 0,0.0511 0.0492,0 0,0.0493 0.0476,0 0,0.0475 0.0475,0 0,0.0476 0.0476,0 0,0.0475 0.0458,0 0,0.0458 0.044,0 0,0.0439 0.044,0 0,0.044 0.0422,0 0,0.0422 0.0422,0 0,0.0422 0.0405,0 0,0.0405 0.0388,0 0,0.0388 0.0388,0 0,0.0388 0.0369,0 0,0.0369 0.0369,0 0,0.0369 0.0353,0 0,0.0353 0.0335,0 0,0.0335 0.0335,0 0,0.0335 0.0317,0 0,0.0317 0.0317,0 0,0.0317 0.0299,0 0,0.03 0.03,0 0,0.03 0.0282,0 0,0.0281 0.0264,0 0,0.0264 0.0264,0 0,0.0264 0.0246,0 0,0.0246 0.0246,0 0,0.0246 0.0229,0 0,0.0229 0.0228,0 0,0.0229 0.0211,0 0,0.0211 0.0194,0 0,0.0194 0.0193,0 0,0.0194 0.0176,0 0,0.0176 0.0176,0 0,0.0176 0.0158,0 0,0.0159 0.0141,0 0,0.0141 0.0142,0 0,0.0142 0.0124,0 0,0.0124 0.0124,0 0,0.0124 0.0105,0 0,0.0105 0.01,0 0,0.01 0.01,0 0,0.01 0.01,0 0,0.01 0.008,0 0,0.008 0.006,0 0,0.006 0.004,0 0,0.004 0.004,0 0,0.004 0.004,0 0,0.004 0.002,0 0,0.002 115.40557,0 0,-115.40557 -0.002,0 0,-0.002 -0.004,0 0,-0.004 -0.004,0 0,-0.004 -0.004,0 0,-0.004 -0.006,0 0,-0.006 -0.008,0 0,-0.007 -0.01,0 0,-0.009 -0.01,0 0,-0.009 -0.01,0 0,-0.009 -0.0106,0 0,-0.0105 -0.0124,0 0,-0.0124 -0.0124,0 0,-0.0124 -0.0141,0 0,-0.014 -0.0141,0 0,-0.014 -0.0159,0 0,-0.0159 -0.0176,0 0,-0.0176 -0.0176,0 0,-0.0176 -0.0193,0 0,-0.0193 -0.0194,0 0,-0.0194 -0.0211,0 0,-0.0211 -0.0229,0 0,-0.0229 -0.0229,0 0,-0.0229 -0.0246,0 0,-0.0247 -0.0246,0 0,-0.0246 -0.0264,0 0,-0.0264 -0.0264,0 0,-0.0264 -0.0281,0 0,-0.0282 -0.03,0 0,-0.03 -0.03,0 0,-0.03 -0.0317,0 0,-0.0317 -0.0317,0 0,-0.0317 -0.0335,0 0,-0.0335 -0.0335,0 0,-0.0335 -0.0353,0 0,-0.0352 -0.0369,0 0,-0.037 -0.0369,0 0,-0.037 -0.0388,0 0,-0.0388 -0.0388,0 0,-0.0388 -0.0405,0 0,-0.0404 -0.0423,0 0,-0.0423 -0.0422,0 0,-0.0423 -0.044,0 0,-0.044 -0.0439,0 0,-0.044 -0.0458,0 0,-0.0458 -0.0475,0 0,-0.0475 -0.0475,0 0,-0.0475 -0.0475,0 0,-0.0475 -0.0493,0 0,-0.0493 -0.0511,0 0,-0.051 -0.0529,0 0,-0.0528 -0.0529,0 0,-0.0528 -0.0529,0 0,-0.05283 -0.0546,0 0,-0.05463 -0.0564,0 0,-0.05635 -0.0564,0 0,-0.05635 -0.0581,0 0,-0.05806 -0.0598,0 0,-0.05986 -0.0599,0 0,-0.05986 -0.0598,0 0,-0.05987 -0.0616,0 0,-0.06163 -0.0634,0 0,-0.06339 -0.0652,0 0,-0.06517 -0.0652,0 0,-0.06517 -0.0651,0 0,-0.06517 -0.0669,0 0,-0.06693 -0.0688,0 0,-0.06867 -0.0687,0 0,-0.06867 -0.0704,0 0,-0.07044 -0.0704,0 0,-0.07044 -0.0723,0 0,-0.07219 -0.0739,0 0,-0.07397 -0.0739,0 0,-0.07396 -0.0758,0 0,-0.07572 -0.0758,0 0,-0.07572 -0.0775,0 0,-0.07749 -0.0792,0 0,-0.07923 -0.0792,0 0,-0.07923 -0.081,0 0,-0.08099 -0.081,0 0,-0.081 -0.0827,0 0,-0.08277 -0.0827,0 0,-0.08277 -0.0845,0 0,-0.08453 -0.0862,0 0,-0.08629 -0.0863,0 0,-0.08629 -0.0881,0 0,-0.08805 -0.0881,0 0,-0.08805 -0.0899,0 0,-0.08981 -0.0899,0 0,-0.08981 -0.0916,0 0,-0.09158 -0.0933,0 0,-0.09333 -0.0933,0 0,-0.09333 -0.0951,0 0,-0.09509 -0.0951,0 0,-0.09509 -0.0969,0 0,-0.09685 -0.0986,0 0,-0.09861 -0.0986,0 0,-0.09861 -0.10037,0 0,-0.100375 -0.10038,0 0,-0.100373 -0.10213,0 0,-0.102136 -0.1039,0 0,-0.103895 -0.1039,0 0,-0.103897 -0.1039,0 0,-0.103895 -0.10564,0 0,-0.105657 -0.10742,0 0,-0.107418 -0.10919,0 0,-0.10918 -0.10918,0 0,-0.109178 -0.10917,0 0,-0.109178 -0.11094,0 0,-0.110941 -0.11271,0 0,-0.1127 -0.1127,0 0,-0.112701 -0.11446,0 0,-0.114462 -0.11621,0 0,-0.116222 -0.11624,0 0,-0.116224 -0.11621,0 0,-0.116223 -0.11798,0 0,-0.117982 -0.11975,0 0,-0.119745 -0.12151,0 0,-0.121505 -0.12151,0 0,-0.121507 -0.12151,0 0,-0.121505 -0.12325,0 0,-0.123266 -0.12503,0 0,-0.125028 -0.12503,0 0,-0.125027 -0.12679,0 0,-0.126788 -0.12678,0 0,-0.126789 -0.12855,0 0,-0.128548 -0.13032,0 0,-0.130311 -0.13031,0 0,-0.13031 -0.13207,0 0,-0.132072 -0.13206,0 0,-0.132071 -0.13384,0 0,-0.133832 -0.13559,0 0,-0.135593 -0.13559,0 0,-0.135593 -0.13735,0 0,-0.137354 -0.13737,0 0,-0.137355 -0.13912,0 0,-0.139115 -0.13911,0 0,-0.139114 -0.14086,0 0,-0.140876 -0.14266,0 0,-0.142637 -0.14263,0 0,-0.142637 -0.1444,0 0,-0.144398 -0.14439,0 0,-0.144398 -0.14616,0 0,-0.146159 -0.14616,0 0,-0.146159 -0.14792,0 0,-0.147919 -0.14968,0 0,-0.149681 -0.14967,0 0,-0.149681 -0.15146,0 0,-0.151441 -0.15143,0 0,-0.151442 -0.1532,0 0,-0.153202 -0.15497,0 0,-0.154962 -0.15495,0 0,-0.154966 -0.15673,0 0,-0.156723 -0.15673,0 0,-0.156725 -0.15849,0 0,-0.158486 -0.16023,0 0,-0.160247 -0.16026,0 0,-0.160244 -0.16024,0 0,-0.160248 -0.16202,0 0,-0.162006 -0.16376,0 0,-0.163769 -0.16554,0 0,-0.165531 -0.16552,0 0,-0.165527 -0.16552,0 0,-0.16553 -0.16731,0 0,-0.167291 -0.16904,0 0,-0.169051 -0.16906,0 0,-0.16905 -0.1708,0 0,-0.170812 -0.17258,0 0,-0.172574 -0.17258,0 0,-0.172573 -0.17255,0 0,-0.172573 -0.17434,0 0,-0.174334 -0.17611,0 0,-0.176094 -0.17785,0 0,-0.177855 -0.17609,0 0,-0.176098 -0.17962,0 0,-0.179616 -0.17962,0 0,-0.179616 -0.18137,0 0,-0.181377 -0.18138,0 0,-0.181378 -0.18314,0 0,-0.183139 -0.18314,0 0,-0.183139 -0.18489,0 0,-0.1849 -0.18667,0 0,-0.186659 -0.18666,0 0,-0.186662 -0.18842,0 0,-0.188421 -0.18841,0 0,-0.188422 -0.19019,0 0,-0.190183 -0.19195,0 0,-0.191943 -0.19193,0 0,-0.191943 -0.19194,0 0,-0.191944 -0.19548,0 0,-0.195467 -0.19547,0 0,-0.195465 -0.19546,0 0,-0.195463 -0.19724,0 0,-0.197227 -0.19899,0 0,-0.198988 -0.19897,0 0,-0.198986 -0.19899,0 0,-0.198989 -0.20251,0 0,-0.202509 -0.20251,0 0,-0.202509 -0.20252,0 0,-0.202509 -0.20425,0 0,-0.204269 -0.20604,0 0,-0.206032 -0.20602,0 0,-0.206032 -0.20779,0 0,-0.20779 -0.20781,0 0,-0.207793 -0.20955,0 0,-0.209553 -0.21132,0 0,-0.211314 -0.21129,0 0,-0.211314 -0.21309,0 0,-0.213075 -0.21308,0 0,-0.213074 -0.21484,0 0,-0.214836 -0.21483,0 0,-0.214836 -0.21836,0 0,-0.218357 -0.21658,0 0,-0.216598 -0.21837,0 0,-0.218357 -0.22011,0 0,-0.220119 -0.22189,0 0,-0.22188 -0.22188,0 0,-0.221879 -0.22188,0 0,-0.22188 -0.22363,0 0,-0.223641 -0.22542,0 0,-0.225401 -0.22539,0 0,-0.225402 -0.22716,0 0,-0.227162 -0.22717,0 0,-0.228922 -0.23069,0 0,-0.228925 -0.22891,0 0,-0.228923 -0.23069,0 0,-0.230684 -0.23243,0 0,-0.232445 -0.23246,0 0,-0.232446 -0.2342,0 0,-0.234206 -0.23597,0 0,-0.235967 -0.23596,0 0,-0.235967 -0.23773,0 0,-0.237729 -0.23773,0 0,-0.237728 -0.23949,0 0,-0.239489 -0.23949,0 0,-0.239489 -0.24125,0 0,-0.24125 -0.24302,0 0,-0.243011 -0.243,0 0,-0.243012 -0.24477,0 0,-0.244772 -0.24479,0 0,-0.244771 -0.24652,0 1e-5,-0.246542 -0.24829,0 0,-0.248294 -0.2483,0 0,-0.248293 -0.24829,0 0,-0.248294 -0.25182,0 0,-0.251816 -0.25183,0 0,-0.251816 -0.2518,0 0,-0.251816 -0.25356,0 0,-0.253576 -0.25535,0 0,-0.255338 -0.25534,0 0,-0.255338 -0.25534,0 0,-0.255338 -0.25886,0 0,-0.258858 -0.25887,0 0,-0.258861 -0.25885,0 0,-0.258859 -0.26062,0 0,-0.260619 -0.26239,0 0,-0.262382 -0.26236,0 0,-0.262383 -0.26415,0 0,-0.264142 -0.26416,0 0,-0.264143 -0.26588,0 0,-0.265903 -0.26768,0 0,-0.267663 -0.26766,0 0,-0.267665 -0.26942,0 0,-0.269425 -0.26943,0 0,-0.269425 -0.27118,0 0,-0.271187 -0.27118,0 0,-0.271186 -0.27296,0 0,-0.272947 -0.2747,0 0,-0.274708 -0.27471,0 0,-0.274708 -0.27647,0 0,-0.276469 -0.27647,0 0,-0.276469 -0.27824,0 0,-0.278229 -0.27998,0 0,-0.279993 -0.28,0 0,-0.27999 -0.28175,0 0,-0.281752 -0.28175,0 0,-0.281752 -0.28351,0 0,-0.283512 -0.28351,0 0,-0.283512 -0.28528,0 0,-0.285275 -0.28703,0 0,-0.287035 -0.28704,0 0,-0.287034 -0.28879,0 0,-0.288797 -0.2888,0 0,-0.288795 -0.29055,0 0,-0.290557 -0.29232,0 0,-0.292318 -0.29232,0 0,-0.292317 -0.29407,0 0,-0.294078 -0.29409,0 0,-0.294079 -0.29584,0 0,-0.29584 -0.29582,0 0,-0.295839 -0.29762,0 0,-0.2976 -0.29935,0 0,-0.299361 -0.29937,0 0,-0.299362 -0.30113,0 0,-0.301122 -0.30111,0 0,-0.301122 -0.30288,0 0,-0.302884 -0.30465,0 0,-0.304645 -0.30464,0 0,-0.304643 -0.30464,0 0,-0.304644 -0.30818,0 0,-0.308167 -0.3064,0 0,-0.306404 -0.30993,0 0,-0.309928 -0.30993,0 0,-0.309926 -0.30993,0 0,-0.309928 -0.31344,0 0,-0.313449 -0.31168,0 0,-0.311689 -0.31522,0 0,-0.315209 -0.31521,0 0,-0.31521 -0.31521,0 0,-0.31521 -0.31696,0 0,-0.316971 -0.31874,0 0,-0.318732 -0.31873,0 0,-0.318731 -0.3205,0 0,-0.320493 -0.32049,0 0,-0.320492 -0.32225,0 0,-0.322254 -0.32402,0 0,-0.324016 -0.32402,0 0,-0.324014 -0.32576,0 0,-0.325775 -0.32578,0 0,-0.325776 -0.32753,0 0,-0.327537 -0.32755,0 0,-0.327537 -0.32929,0 0,-0.329297 -0.33105,0 0,-0.331059 -0.33107,0 0,-0.331058 -0.33282,0 0,-0.332819 -0.33281,0 0,-0.33282 -0.33459,0 0,-0.33458 -0.33634,0 0,-0.336342 -0.33635,0 0,-0.33634 -0.33811,0 0,-0.338103 -0.33809,0 0,-0.338101 -0.33986,0 0,-0.339864 -0.33987,0 0,-0.339863 -0.34162,0 0,-0.341625 -0.34339,0 0,-0.343384 -0.34338,0 0,-0.343386 -0.34514,0 0,-0.345146 -0.34516,0 0,-0.345146 -0.34689,0 0,-0.346908 -0.34868,0 0,-0.348667 -0.34866,0 0,-0.348667 -0.35043,0 0,-0.350429 -0.35044,0 0,-0.350429 -0.35219,0 0,-0.352191 -0.35219,0 0,-0.352189 -0.35395,0 0,-0.353951 -0.3557,0 0,-0.355711 -0.35572,0 0,-0.355713 -0.35747,0 0,-0.357473 -0.35747,0 0,-0.357472 -115.40557,0 z"
       id="path4348"
       inkscape:connector-curvature="0"
       clip-path="url(#clipPath5847)" />
    <rect
       y="48.381016"
       x="47.848289"
       height="96.652161"
       width="97.373444"
       id="rect4221"
       style="opacity:1;fill:#ab47bc;fill-opacity:1;fill-rule:nonzero;stroke:none;stroke-width:1.00899994;stroke-linecap:butt;stroke-linejoin:miter;stroke-miterlimit:4;stroke-dasharray:none;stroke-dashoffset:0;stroke-opacity:1" />
    <path
       clip-path="url(#clipPath4246)"
       sodipodi:nodetypes="ccccccc"
       inkscape:connector-curvature="0"
       id="path4225"
       d="M 30.9543,136.2301 144.43924,22.420968 164.13333,47.200001 160,85.866668 64.266667,158.66666 34.933333,167.73334 Z"
       style="opacity:0.23;fill:#ffc107;fill-opacity:1;fill-rule:evenodd;stroke:none;stroke-width:1px;stroke-linecap:butt;stroke-linejoin:miter;stroke-opacity:1"
       transform="matrix(0.90160603,0,0,0.90160603,9.6201895,9.4316366)" />
    <path
       clip-path="url(#clipPath4242)"
       style="opacity:0.831;fill:#ffc107;fill-opacity:1;fill-rule:evenodd;stroke:none;stroke-width:1px;stroke-linecap:butt;stroke-linejoin:miter;stroke-opacity:1"
       d="M 20,171.99999 173.86666,17.333335 164.13333,47.200001 163.97366,87.958067 67.194626,160.75806 34.933333,167.73334 Z"
       id="path4238"
       inkscape:connector-curvature="0"
       sodipodi:nodetypes="ccccccc"
       transform="matrix(0.90160603,0,0,0.90160603,9.6201895,9.4316366)" />
    <path
       id="rect4201"
       d="m 32,32 0,128 128,0 0,-128 -128,0 z"
       style="opacity:1;fill:none;fill-opacity:1;fill-rule:nonzero;stroke:#ffffff;stroke-width:12.15256604;stroke-linecap:butt;stroke-linejoin:miter;stroke-miterlimit:4;stroke-dasharray:none;stroke-dashoffset:0;stroke-opacity:1;filter:url(#filter5813)"
       inkscape:connector-curvature="0"
       transform="matrix(0.82287148,0,0,0.82287148,17.178707,16.990154)" />
    <path
       transform="matrix(0.82287148,0,0,0.82287148,17.178707,16.990154)"
       inkscape:connector-curvature="0"
       style="opacity:0.2;fill:none;fill-opacity:1;fill-rule:nonzero;stroke:#000000;stroke-width:12.15256604;stroke-linecap:butt;stroke-linejoin:miter;stroke-miterlimit:4;stroke-dasharray:none;stroke-dashoffset:0;stroke-opacity:1"
       d="m 32,32 0,128 128,0 0,-128 -128,0 z"
       id="path6544" />
    <path
       id="path6546"
       d="m 43.490317,43.301764 0,104.434766 105.368103,0 0,-104.434766 -105.368103,0 z"
       style="opacity:1;fill:none;fill-opacity:1;fill-rule:nonzero;stroke:#ffffff;stroke-width:9.959445;stroke-linecap:butt;stroke-linejoin:miter;stroke-miterlimit:4;stroke-dasharray:none;stroke-dashoffset:0;stroke-opacity:1"
       inkscape:connector-curvature="0" />
  </g>
  <g
     inkscape:groupmode="layer"
     id="layer5"
     inkscape:label="Square 1"
     style="display:inline"
     sodipodi:insensitive="true">
    <rect
       ry="10.897427"
       y="20.500031"
       x="20.500031"
       height="150.99994"
       width="150.99994"
       id="rect5844"
       style="display:inline;opacity:0.1;fill:url(#radialGradient7770);fill-opacity:1;stroke:url(#radialGradient7778);stroke-width:1.00005436;stroke-linejoin:round;stroke-miterlimit:4;stroke-dasharray:none;stroke-opacity:1" />
  </g>
</svg>
