<?xml version="1.0" encoding="utf-8"?>
<!-- Generator: Adobe Illustrator 19.0.1, SVG Export Plug-In . SVG Version: 6.00 Build 0)  -->
<!DOCTYPE svg PUBLIC "-//W3C//DTD SVG 1.1//EN" "http://www.w3.org/Graphics/SVG/1.1/DTD/svg11.dtd">
<svg version="1.1"
	 id="svg2" xmlns:svg="http://www.w3.org/2000/svg" xmlns:dc="http://purl.org/dc/elements/1.1/" xmlns:rdf="http://www.w3.org/1999/02/22-rdf-syntax-ns#" xmlns:cc="http://creativecommons.org/ns#" xmlns:sodipodi="http://sodipodi.sourceforge.net/DTD/sodipodi-0.dtd" xmlns:inkscape="http://www.inkscape.org/namespaces/inkscape" inkscape:export-ydpi="90" inkscape:export-xdpi="90" inkscape:export-filename="C:\Users\Simon\Documents\Material Design Icon Pack\PNG\google_opinionrewards.png" sodipodi:docname="google_opinionrewards.svg" inkscape:version="0.91 r13725"
	 xmlns="http://www.w3.org/2000/svg" xmlns:xlink="http://www.w3.org/1999/xlink" x="0px" y="0px" viewBox="-443 865 192 192"
	 style="enable-background:new -443 865 192 192;" xml:space="preserve">
<style type="text/css">
	.st0{filter:url(#filter6008);}
	.st1{fill:#27A766;}
	.st2{fill:none;stroke:#24A664;stroke-width:1.0001;stroke-linejoin:round;}
	.st3{fill:#53BA86;stroke:#54BA86;stroke-width:1.0001;stroke-linejoin:round;}
	.st4{fill:#2C9260;stroke:#228754;stroke-width:0.9968;stroke-linejoin:round;}
	.st5{fill:#27A766;stroke:#24A664;stroke-width:0.9934;stroke-linejoin:round;}
	.st6{opacity:0.2;clip-path:url(#SVGID_2_);fill:url(#path6162_1_);enable-background:new    ;}
	.st7{fill:#FFFFFF;}
	.st8{opacity:0.2;enable-background:new    ;}
	.st9{fill:#F2F2F2;}
	.st10{fill:none;}
	
		.st11{opacity:0.1;fill:url(#path4255_1_);stroke:url(#path4255_2_);stroke-width:0.9024;stroke-linejoin:round;enable-background:new    ;}
</style>
<filter  inkscape:label="Drop Shadow" style="color-interpolation-filters:sRGB;" id="filter6008">
	<feFlood  result="flood" flood-color="rgb(0,0,0)" flood-opacity="0.29999999999999999" id="feFlood6010"></feFlood>
	<feComposite  operator="in" in2="SourceGraphic" in="flood" result="composite1" id="feComposite6012"></feComposite>
	<feGaussianBlur  in="composite1" stdDeviation="3" result="blur" id="feGaussianBlur6014"></feGaussianBlur>
	<feOffset  dy="3" dx="4.57967e-015" result="offset" id="feOffset6016"></feOffset>
	<feComposite  operator="over" in2="offset" in="SourceGraphic" result="composite2" id="feComposite6018"></feComposite>
</filter>
<sodipodi:namedview  showgrid="true" showguides="false" inkscape:cy="100.64238" inkscape:cx="105.66256" borderopacity="1.0" bordercolor="#666666" pagecolor="#ffffff" id="base" inkscape:zoom="6.2608412" inkscape:snap-global="false" inkscape:window-maximized="1" inkscape:window-y="-8" inkscape:window-x="-8" inkscape:window-height="1017" inkscape:window-width="1920" inkscape:guide-bbox="true" inkscape:pageshadow="2" inkscape:current-layer="layer1" inkscape:pageopacity="0.0" inkscape:document-units="px">
	<inkscape:grid  type="xygrid" empspacing="5" enabled="true" visible="true" id="grid2985" snapvisiblegridlinesonly="true">
		</inkscape:grid>
	<sodipodi:guide  id="guide3002" orientation="1,0" position="8,58.524064"></sodipodi:guide>
	<sodipodi:guide  id="guide3004" orientation="1,0" position="20,69.304813"></sodipodi:guide>
	<sodipodi:guide  id="guide3006" orientation="1,0" position="32,62.631016"></sodipodi:guide>
	<sodipodi:guide  id="guide3008" orientation="1,0" position="68,53.390374"></sodipodi:guide>
	<sodipodi:guide  id="guide3010" orientation="0,1" position="119.61497,8"></sodipodi:guide>
	<sodipodi:guide  id="guide3012" orientation="0,1" position="155.5508,20"></sodipodi:guide>
	<sodipodi:guide  id="guide3014" orientation="0,1" position="132.96257,32"></sodipodi:guide>
	<sodipodi:guide  id="guide3016" orientation="0,1" position="130.90909,68"></sodipodi:guide>
	<sodipodi:guide  id="guide3018" orientation="0,1" position="137.06952,184"></sodipodi:guide>
	<sodipodi:guide  id="guide3020" orientation="1,0" position="184,145.79679"></sodipodi:guide>
	<sodipodi:guide  id="guide3022" orientation="0,1" position="91.379679,172"></sodipodi:guide>
	<sodipodi:guide  id="guide3024" orientation="1,0" position="172,101.64706"></sodipodi:guide>
	<sodipodi:guide  id="guide3026" orientation="0,1" position="149.39037,160"></sodipodi:guide>
	<sodipodi:guide  id="guide3028" orientation="1,0" position="160,88.299465"></sodipodi:guide>
	<sodipodi:guide  id="guide3030" orientation="0,1" position="128.34225,124"></sodipodi:guide>
	<sodipodi:guide  id="guide3032" orientation="1,0" position="124,92.919786"></sodipodi:guide>
</sodipodi:namedview>
<g id="layer2" inkscape:label="Square 2" inkscape:groupmode="layer">
	
		<g id="path5489" inkscape:connector-curvature="0" inkscape:export-ydpi="90" inkscape:export-xdpi="90" inkscape:export-filename="C:\Users\Simon\Documents\Material Design Icon Pack\PNG\path5489.png" sodipodi:nodetypes="ssscccsssss" class="st0">
		<path class="st1" d="M-411.6,885.5c-6,0-10.9,4.9-10.9,10.9v100.9c0,0.4,0,0.8,0.1,1.2l0,37.9l27.7-28.2l112.3,0
			c6,0,10.9-4.9,10.9-10.9V896.4c0-6-4.9-10.9-10.9-10.9H-411.6z"/>
		<path class="st2" d="M-411.6,885.5c-6,0-10.9,4.9-10.9,10.9v100.9c0,0.4,0,0.8,0.1,1.2l0,37.9l27.7-28.2l112.3,0
			c6,0,10.9-4.9,10.9-10.9V896.4c0-6-4.9-10.9-10.9-10.9H-411.6z"/>
	</g>
</g>
<g id="layer1" inkscape:label="Square 1" inkscape:groupmode="layer">
	
		<path id="path5508" inkscape:connector-curvature="0" inkscape:export-ydpi="90" inkscape:export-xdpi="90" inkscape:export-filename="C:\Users\Simon\Documents\Material Design Icon Pack\PNG\path5489.png" sodipodi:nodetypes="ssscccsssss" class="st3" d="
		M-411.6,885.5c-6,0-10.9,4.9-10.9,10.9v100.9c0,0.4,0,0.8,0.1,1.2l0,37.9l27.7-28.2l112.3,0c6,0,10.9-4.9,10.9-10.9V896.4
		c0-6-4.9-10.9-10.9-10.9H-411.6z"/>
	
		<path id="path5504" inkscape:connector-curvature="0" inkscape:export-ydpi="90" inkscape:export-xdpi="90" inkscape:export-filename="C:\Users\Simon\Documents\Material Design Icon Pack\PNG\path5489.png" sodipodi:nodetypes="ssscccsssss" class="st4" d="
		M-411.6,886.5c-6,0-10.9,4.8-10.9,10.8v100.2c0,0.4,0,0.8,0.1,1.2l0,37.7l27.7-28l112.3,0c6,0,10.9-4.8,10.9-10.8V897.4
		c0-6-4.9-10.8-10.9-10.8L-411.6,886.5z"/>
	
		<path id="rect3811" inkscape:connector-curvature="0" inkscape:export-ydpi="90" inkscape:export-xdpi="90" inkscape:export-filename="C:\Users\Simon\Documents\Material Design Icon Pack\PNG\path5489.png" sodipodi:nodetypes="ssscccsssss" class="st5" d="
		M-411.6,886.5c-6,0-10.9,4.8-10.9,10.8v99.6c0,0.4,0,0.8,0.1,1.2l0,37.4l27.7-27.8l112.3,0c6,0,10.9-4.8,10.9-10.8v-99.6
		c0-6-4.9-10.8-10.9-10.8L-411.6,886.5z"/>
	<g>
		<defs>
			<path id="SVGID_1_" d="M-413.7,885.5c-4.9,0-8.9,4-8.9,8.9v105.1c0,0.3,0,0.6,0,0.8l0,36.7l28.2-28.6h114c4.9,0,8.9-4,8.9-8.9
				V894.3c0-4.9-4-8.9-8.9-8.9C-280.3,885.5-413.7,885.5-413.7,885.5z"/>
		</defs>
		<clipPath id="SVGID_2_">
			<use xlink:href="#SVGID_1_"  style="overflow:visible;"/>
		</clipPath>
		
			<linearGradient id="path6162_1_" gradientUnits="userSpaceOnUse" x1="-394.87" y1="1008.0674" x2="-300.8936" y2="913.7373" gradientTransform="matrix(1 0 0 -1 0 1924)">
			<stop  offset="0" style="stop-color:#263238"/>
			<stop  offset="1" style="stop-color:#263238;stop-opacity:0"/>
		</linearGradient>
		
			<path id="path6162" inkscape:connector-curvature="0" inkscape:export-ydpi="90" inkscape:export-xdpi="90" inkscape:export-filename="C:\Users\Simon\Documents\Material Design Icon Pack\PNG\path5489.png" class="st6" d="
			M-357.9,908.8l0,35.4h-0.3v-0.5h-0.5v-0.5h-0.5v-0.5h-0.5v-0.5h-0.5v-0.5h-0.5V941h-0.5v-0.5h-0.5v-0.5h-0.5v-0.5h-0.5v-0.5h-0.5
			v-0.5h-0.5v-0.5h-0.5v-0.6h-0.6v-0.6h-0.6v-0.6h-0.6v-0.6h-0.6v-0.6h-0.6v-0.6h-0.6v-0.6h-0.6v-0.6h-0.6v-0.6h-0.6v-0.6h-0.6v-0.6
			h-0.6V931h-0.6v-0.6h-0.6v-0.6h-21.4l0.1,53.5h0.6v0.6h0.6v0.6h0.6v0.6h0.6v0.6h0.6v0.6h0.6v0.6h0.6v0.6h0.6v0.6h0.6v0.6h0.6v0.6
			h0.6v0.6h0.6v0.6h0.6v0.6h0.6v0.6h0.5v0.5h0.5v0.5h0.5v0.5h0.5v0.5h0.5v0.5h0.5v0.5h0.5v0.5h0.5v0.5h0.5v0.5h0.5v0.5h0.5v0.5h0.5
			v0.5h0.5v0.5h0.5v0.5h0.5v0.5h0.5v0.5h0.5v0.5h0.5v0.5h0.5v0.5h0.5v0.5h0.5v0.5h0.5v0.5h0.5v0.5h0.5v0.5h0.5v0.5h0.5v0.5h0.5v0.5
			h0.5v0.5h0.5v0.5h0.5v0.5h0.5v0.5h0.5v0.5h0.5v0.5h0.5v0.5h0.5v0.5h0.5v0.5h0.5v0.5h0.5v0.5h0.5v0.5h0.5v0.5h0.5v0.5h0.5v0.5h0.5
			v0.5h0.5v0.5h0.5v0.5h0.5v0.5h0.5v0.5h0.5v0.5h0.5v0.5h0.5v0.5h0.5v0.5h0.5v0.5h0.5v0.5h0.5v0.5h0.5v0.5h0.5v0.5h0.5v0.5h0.5v0.5
			h0.5v0.5h0.5v0.5h0.5v0.5h0.4v0.4h0.4v0.4h0.4v0.4h0.4v0.4h0.4v0.4h0.4v0.4h0.4v0.4h0.4v0.4h0.4v0.4h0.4v0.4h0.4v0.4h0.4v0.4h0.4
			v0.4h0.4v0.4h0.4v0.4h0.4v0.4h0.4v0.4h0.4v0.4h0.4v0.4h0.4v0.4h0.4v0.4h0.4v0.4h0.4v0.4h0.4v0.4h0.4v0.4h0.4v0.4h0.4v0.4h0.4v0.4
			h0.4v0.4h0.4v0.4h0.4v0.4h0.4v0.4h0.4v0.4h0.4v0.4h0.4v0.4h0.4v0.4h0.4v0.4h0.4v0.4h0.4v0.4h0.4v0.4h0.4v0.4h0.4v0.4h0.4v0.4h0.4
			v0.4h0.4v0.4h0.4v0.4h0.4v0.4h0.4v0.4h0.4v0.4h0.4v0.4h0.4v0.4h0.4v0.4h0.4v0.4h0.4v0.4h0.4v0.4h0.4v0.4h0.4v0.4h0.4v0.4h0.4v0.4
			h0.4v0.4h0.4v0.4h0.4v0.4h0.3v0.3h0.3v0.3h0.3v0.3h0.3v0.3h0.3v0.3h0.3v0.3h0.3v0.3h0.3v0.3h0.3v0.3h0.3v0.3h0.3v0.3h0.3v0.3h0.3
			v0.3h0.3v0.3h0.3v0.3h0.3v0.3h0.3v0.3h0.3v0.3h0.3v0.3h0.3v0.3h0.3v0.3h0.3v0.3h0.3v0.3h0.3v0.3h0.3v0.3h0.3v0.3h0.3v0.3h0.3v0.3
			h0.3v0.3h0.3v0.3h0.3v0.3h0.3v0.3h0.3v0.3h0.3v0.3h0.3v0.3h0.3v0.3h0.3v0.3h0.3v0.3h0.3v0.3h0.3v0.3h0.3v0.3h0.3v0.3h0.3v0.3h0.3
			v0.3h0.3v0.3h0.3v0.3h0.3v0.3h0.3v0.3h0.3v0.3h0.3v0.3h0.3v0.3h0.3v0.3h0.3v0.3h0.3v0.3h0.3v0.3h0.3v0.3h0.3v0.3h0.3v0.3h0.3v0.3
			h0.3v0.3h0.3v0.2h0.2v0.2h0.2v0.2h0.2v0.2h0.2v0.2h0.2v0.2h0.2v0.2h0.2v0.2h0.2v0.2h0.2v0.2h0.2v0.2h0.2v0.2h0.2v0.2h0.2v0.2h0.2
			v0.2h0.2v0.2h0.2v0.2h0.2v0.2h0.2v0.2h0.2v0.2h0.2v0.2h0.2v0.2h0.2v0.2h0.2v0.2h0.2v0.2h0.2v0.2h0.2v0.2h0.2v0.2h0.2v0.2h0.2v0.2
			h0.2v0.2h0.2v0.2h0.2v0.2h0.2v0.2h0.2v0.2h0.2v0.2h0.2v0.2h0.2v0.2h0.2v0.2h0.2v0.2h0.2v0.2h0.2v0.2h0.2v0.2h0.2v0.2h0.2v0.2h0.2
			v0.2h0.2v0.2h0.2v0.2h0.2v0.2h0.2v0.2h0.2v0.2h0.2v0.2h0.2v0.2h0.2v0.2h0.2v0.2h0.2v0.2h0.2v0.2h0.2v0.2h0.2v0.2h0.2v0.2h0.2v0.2
			h0.1v0.1h0.1v0.1h0.1v0.1h0.1v0.1h0.1v0.1h0.1v0.1h0.1v0.1h0.1v0.1h0.1v0.1h0.1v0.1h0.1v0.1h0.1v0.1h0.1v0.1h0.1v0.1h0.1v0.1h0.1
			v0.1h0.1v0.1h0.1v0.1h0.1v0.1h0.1v0.1h0.1v0.1h0.1v0.1h0.1v0.1h0.1v0.1h0.1v0.1h0.1v0.1h0.1v0.1h0.1v0.1h0.1v0.1h0.1v0.1h0.1v0.1
			h0.1v0.1h0.1v0.1h0.1v0.1h0.1v0.1h0.1v0.1h0.1v0.1h0.1v0.1h0.1v0.1h0.1v0.1h0.1v0.1h0.1v0.1h0.1v0.1h0.1v0.1h0.1v0.1h0.1v0.1h0.1
			v0.1h0.1v0.1h0.1v0.1h0.1v0.1h0.1v0.1h0.1v0.1h0.1v0.1h0.1v0.1h0.1v0.1h0.1v0.1h0.1v0.1h0.1v0.1h0.1v0.1h0.1v0.1h0.1v0.1h0v0h0v0
			h0v0h0v0h0v0h0v0h0v0h0v0h0v0h0v0h0v0h0v0h0v0h0v0h0v0h0v0h0v0h0v0h0v0h0v0h0v0h0v0h0v0h0v0h0v0h0v0h0v0h0v0h0v0h0v0h21.2l0-14.3
			h0v0.2h0.2v0.2h0.2v0.2h0.2v0.2h0.2v0.2h0.2v0.2h0.2v0.2h0.2v0.2h0.2v0.2h0.2v0.2h0.2v0.2h0.2v0.2h0.2v0.2h0.2v0.2h0.2v0.2h0.2
			v0.2h0.2v0.2h0.2v0.2h0.2v0.2h0.2v0.2h0.2v0.2h0.2v0.2h0.2v0.2h0.2v0.2h0.2v0.2h0.2v0.2h0.2v0.2h0.2v0.2h0.2v0.2h0.2v0.2h0.2v0.2
			h0.2v0.2h0.2v0.2h0.2v0.2h0.2v0.2h0.2v0.2h0.2v0.2h0.2v0.2h0.2v0.2h0.2v0.2h0.1v0.1h0.1v0.1h0.1v0.1h0.1v0.1h0.1v0.1h0.1v0.1h0.1
			v0.1h0.1v0.1h0.1v0.1h0.1v0.1h0.1v0.1h0.1v0.1h0.1v0.1h0.1v0.1h0.1v0.1h0.1v0.1h0.1v0.1h0.1v0.1h0.1v0.1h0.1v0.1h0.1v0.1h0.1v0.1
			h0.1v0.1h0.1v0.1h0.1v0.1h0.1v0.1h0.1v0.1h0.1v0.1h0.1v0.1h0.1v0.1h0.1v0.1h0.1v0.1h0.1v0.1h0.1v0.1h0.1v0.1h0.1v0.1h0.1v0.1h0.1
			v0.1h0.1v0.1h0.1v0.1h0.1v0.1h0.1v0.1h0.1v0.1h0.1v0.1h0.1v0.1h0.1v0.1h0.1v0.1h0.1v0.1h0.1v0.1h0.1v0.1h0.1v0.1h0.1v0.1h0.1v0.1
			h0.1v0.1h0.1v0.1h0.1v0.1h0.1v0.1h0.1v0.1h0.1v0.1h0.1v0.1h0.1v0.1h0.1v0.1h0v0h0v0h0v0h0v0h0v0h0v0h0v0h0v0h0v0h0v0h0v0h0v0h0v0
			h0v0h0v0h0v0h0v0h0v0h0v0h0v0h0v0h0v0h0v0h0v0h0v0h0v0h0v0h0v0h0v0h21.3l0-14.3h0.1v0.2h0.2v0.2h0.2v0.2h0.2v0.2h0.2v0.2h0.2v0.2
			h0.2v0.2h0.2v0.2h0.2v0.2h0.2v0.2h0.2v0.2h0.2v0.2h0.2v0.2h0.2v0.2h0.2v0.2h0.2v0.2h0.2v0.2h0.2v0.2h0.2v0.2h0.2v0.2h0.2v0.2h0.2
			v0.2h0.2v0.2h0.2v0.2h0.2v0.2h0.2v0.2h0.2v0.2h0.2v0.2h0.2v0.2h0.2v0.2h0.2v0.2h0.2v0.2h0.2v0.2h0.2v0.2h0.2v0.2h0.2v0.2h0.2v0.2
			h0.2v0.2h0.2v0.2h0.1v0.2h0.1v0.1h0.1v0.1h0.1v0.1h0.1v0.1h0.1v0.1h0.1v0.1h0.1v0.1h0.1v0.1h0.1v0.1h0.1v0.1h0.1v0.1h0.1v0.1h0.1
			v0.1h0.1v0.1h0.1v0.1h0.1v0.1h0.1v0.1h0.1v0.1h0.1v0.1h0.1v0.1h0.1v0.1h0.1v0.1h0.1v0.1h0.1v0.1h0.1v0.1h0.1v0.1h0.1v0.1h0.1v0.1
			h0.1v0.1h0.1v0.1h0.1v0.1h0.1v0.1h0.1v0.1h0.1v0.1h0.1v0.1h0.1v0.1h0.1v0.1h0.1v0.1h0.1v0.1h0.1v0.1h0.1v0.1h0.1v0.1h0.1v0.1h0.1
			v0.1h0.1v0.1h0.1v0.1h0.1v0.1h0.1v0.1h0.1v0.1h0.1v0.1h0.1v0.1h0.1v0.1h0.1v0.1h0.1v0.1h0.1v0.1h0.1v0.1h0.1v0.1h0.1v0.1h0.1v0.1
			h0.1v0.1h0.1v0.1h0v0.1h0v0h0v0h0v0h0v0h0v0h0v0h0v0h0v0h0v0h0v0h0v0h0v0h0v0h0v0h0v0h0v0h0v0h0v0h0v0h0v0h0v0h0v0h0v0h0v0h0v0h0
			v0h0v0h0v0h0v0h21.2V1055h0v0h0v0h0v0h0v0h0v0h0v0h0v0h0v0h0v0h0v0h0v0h0v0h0v0h0v0h0v0h0v0h0v0h0v0h0v0h0v0h0v0h0v0h0v0h0v0h0v0
			h0v0h0v0h0v0h0v0h0v0h-0.1v-0.1h-0.1v-0.1h-0.1v-0.1h-0.1v-0.1h-0.1v-0.1h-0.1v-0.1h-0.1v-0.1h-0.1v-0.1h-0.1v-0.1h-0.1v-0.1h-0.1
			v-0.1h-0.1v-0.1h-0.1v-0.1h-0.1v-0.1h-0.1v-0.1h-0.1v-0.1h-0.1v-0.1h-0.1v-0.1h-0.1v-0.1h-0.1v-0.1h-0.1v-0.1h-0.1v-0.1h-0.1v-0.1
			h-0.1v-0.1h-0.1v-0.1h-0.1v-0.1h-0.1v-0.1h-0.1v-0.1h-0.1v-0.1h-0.1v-0.1h-0.1v-0.1h-0.1v-0.1h-0.1v-0.1h-0.1v-0.1h-0.1v-0.1h-0.1
			v-0.1h-0.1v-0.1h-0.1v-0.1h-0.1v-0.1h-0.1v-0.1h-0.1v-0.1h-0.1v-0.1h-0.1v-0.1h-0.1v-0.1h-0.1v-0.1h-0.1v-0.1h-0.1v-0.1h-0.1v-0.1
			h-0.1v-0.1h-0.1v-0.1h-0.1v-0.1h-0.1v-0.1h-0.1v-0.1h-0.1v-0.1h-0.1v-0.1h-0.1v-0.1h-0.1v-0.1h-0.1v-0.1h-0.1v-0.1h-0.1v-0.1h-0.1
			v-0.1h-0.2v-0.2h-0.2v-0.2h-0.2v-0.2h-0.2v-0.2h-0.2v-0.2h-0.2v-0.2h-0.2v-0.2h-0.2v-0.2h-0.2v-0.2h-0.2v-0.2h-0.2v-0.2h-0.2v-0.2
			h-0.2v-0.2h-0.2v-0.2h-0.2v-0.2h-0.2v-0.2h-0.2v-0.2h-0.2v-0.2h-0.2v-0.2h-0.2v-0.2h-0.2v-0.2h-0.2v-0.2h-0.2v-0.2h-0.2v-0.2h-0.2
			v-0.2h-0.2v-0.2h-0.2v-0.2h-0.2v-0.2h-0.2v-0.2h-0.2v-0.2h-0.2v-0.2h-0.2v-0.2h-0.2v-0.2h-0.2v-0.2h-0.2v-0.2h-0.2v-0.2h-0.2v-0.2
			h-0.2v-0.2h-0.2v-0.2h-0.2v-0.2h-0.2v-0.2h-0.2v-0.2h-0.2v-0.2h-0.2v-0.2h-0.2v-0.2h-0.2v-0.2h-0.2v-0.2h-0.2v-0.2h-0.2v-0.2h-0.2
			v-0.2h-0.2v-0.2h-0.2v-0.2h-0.2v-0.2h-0.2v-0.2h-0.2v-0.2h-0.2v-0.2h-0.2v-0.2h-0.2v-0.2h-0.2v-0.2h-0.2v-0.2h-0.3v-0.2h-0.3v-0.3
			h-0.3v-0.3h-0.3v-0.3h-0.3v-0.3h-0.3v-0.3h-0.3v-0.3h-0.3v-0.3h-0.3v-0.3h-0.3v-0.3h-0.3v-0.3h-0.3v-0.3h-0.3v-0.3h-0.3v-0.3h-0.3
			v-0.3h-0.3v-0.3h-0.3v-0.3h-0.3v-0.3h-0.3v-0.3h-0.3v-0.3h-0.3v-0.3h-0.3v-0.3h-0.3v-0.3h-0.3v-0.3h-0.3v-0.3h-0.3v-0.3h-0.3v-0.3
			h-0.3v-0.3h-0.3v-0.3h-0.3v-0.3h-0.3v-0.3h-0.3v-0.3h-0.3v-0.3h-0.3v-0.3h-0.3v-0.3h-0.3v-0.3h-0.3v-0.3h-0.3v-0.3h-0.3v-0.3h-0.3
			v-0.3h-0.3v-0.3h-0.3v-0.3h-0.3v-0.3h-0.3v-0.3h-0.3v-0.3h-0.3v-0.3h-0.3v-0.3h-0.3v-0.3h-0.3v-0.3h-0.3v-0.3h-0.3v-0.3h-0.3v-0.3
			h-0.3v-0.3h-0.3v-0.3h-0.3v-0.3h-0.3l0-10.8h0v0h0v0h0v0h0v0h0v0h0v0h0v0h0v0h0v0h0v0h0v0h0v0h0v0h0v0h0v0h0v0h0v0h0v0h0v0h0v0h0
			v0h0v0h0v0h0v0h0v0h0v0h0v0h0v0h0v0h0v0h-0.1v-0.1h-0.1v-0.1h-0.1v-0.1h-0.1v-0.1h-0.1v-0.1h-0.1v-0.1h-0.1v-0.1h-0.1v-0.1h-0.1
			v-0.1h-0.1v-0.1h-0.1v-0.1h-0.1v-0.1h-0.1v-0.1h-0.1v-0.1h-0.1v-0.1h-0.1v-0.1h-0.1v-0.1h-0.1v-0.1h-0.1v-0.1h-0.1v-0.1h-0.1v-0.1
			h-0.1v-0.1h-0.1v-0.1h-0.1v-0.1h-0.1v-0.1h-0.1v-0.1h-0.1v-0.1h-0.1v-0.1h-0.1v-0.1h-0.1v-0.1h-0.1v-0.1h-0.1v-0.1h-0.1v-0.1h-0.1
			v-0.1h-0.1v-0.1h-0.1v-0.1h-0.1v-0.1h-0.1v-0.1h-0.1v-0.1h-0.1v-0.1h-0.1v-0.1h-0.1v-0.1h-0.1v-0.1h-0.1v-0.1h-0.1v-0.1h-0.1v-0.1
			h-0.1v-0.1h-0.1v-0.1h-0.1v-0.1h-0.1v-0.1h-0.1v-0.1h-0.1v-0.1h-0.1v-0.1h-0.1v-0.1h-0.1v-0.1h-0.1v-0.1h-0.1v-0.1h-0.1v-0.1h-0.1
			v-0.1h-0.1v-0.1h-0.1v-0.1h-0.2v-0.2h-0.2v-0.2h-0.2v-0.2h-0.2v-0.2h-0.2v-0.2h-0.2v-0.2h-0.2v-0.2h-0.2v-0.2h-0.2v-0.2h-0.2v-0.2
			h-0.2v-0.2h-0.2v-0.2h-0.2v-0.2h-0.2v-0.2h-0.2v-0.2h-0.2v-0.2h-0.2v-0.2h-0.2v-0.2h-0.2v-0.2h-0.2v-0.2h-0.2v-0.2h-0.2v-0.2h-0.2
			v-0.2h-0.2v-0.2h-0.2v-0.2h-0.2v-0.2h-0.2v-0.2h-0.2v-0.2h-0.2v-0.2h-0.2V997h-0.2v-0.2h-0.2v-0.2h-0.2v-0.2h-0.2v-0.2h-0.2v-0.2
			h-0.2v-0.2h-0.2v-0.2h-0.2v-0.2h-0.2v-0.2h-0.2v-0.2h-0.2v-0.2h-0.2v-0.2h-0.2v-0.2h-0.2V994h-0.2v-0.2h-0.2v-0.2h-0.2v-0.2h-0.2
			v-0.2h-0.2v-0.2h-0.2v-0.2h-0.2v-0.2h-0.2v-0.2h-0.2v-0.2h-0.2v-0.2h-0.2v-0.2h-0.2v-0.2h-0.2V991h-0.2v-0.2h-0.2v-0.2h-0.2v-0.2
			h-0.3V990h-0.3v-0.3h-0.3v-0.3h-0.3v-0.3h-0.3V989h-0.3v-0.3h-0.3v-0.3h-0.3v-0.3h-0.3v-0.3h-0.3v-0.3h-0.3v-0.3h-0.3v-0.3h-0.3
			v-0.3h-0.3v-0.3h-0.3v-0.3h-0.3V986h-0.3v-0.3h-0.3v-0.3h-0.3v-0.3h-0.3v-0.3h-0.3v-0.3h-0.3v-0.3h-0.3v-0.3h-0.3v-0.3h-0.3v-0.3
			h-0.3v-0.3h-0.3v-0.3h-0.3v-0.3h-0.3v-0.3h-0.3V982h-0.3v-0.3h-0.3v-0.3h-0.3v-0.3h-0.3v-0.3h-0.3v-0.3h-0.3v-0.3h-0.3v-0.3h-0.3
			v-0.3h-0.3v-0.3h-0.3V979h-0.3v-0.3h-0.3v-0.3h-0.3V978h-0.3v-0.3h-0.3v-0.3h-0.3V977h-0.3v-0.3h-0.3v-0.3h-0.3v-0.3h-0.3v-0.3
			h-0.3v-0.3h-0.3v-0.3h-0.3v-0.3h-0.3v-0.3h-0.3v-0.3h-0.3v-0.3h-0.3v-0.3h-0.3V973h-0.3v-0.3h-0.3v-0.3h-0.3V972h-0.4v-0.4h-0.4
			v-0.4h-0.4v-0.4h-0.4v-0.4h-0.4v-0.4h-0.4v-0.4h-0.4v-0.4h-0.4v-0.4h-0.4v-0.4h-0.4v-0.4h-0.4v-0.4h-0.4v-0.4h-0.4v-0.4h-0.4v-0.4
			h-0.4v-0.4h-0.4v-0.4h-0.4v-0.4h-0.4v-0.4h-0.4v-0.4h-0.4v-0.4h-0.4v-0.4h-0.4v-0.4h-0.4v-0.4h-0.4v-0.4h-0.4v-0.4h-0.4v-0.4h-0.4
			V962h-0.4v-0.4h-0.4v-0.4h-0.4v-0.4h-0.4v-0.4h-0.4V960h-0.4v-0.4h-0.4v-0.4h-0.4v-0.4h-0.4v-0.4h-0.4V958h-0.4v-0.4h-0.4v-0.4
			h-0.4v-0.4h-0.4v-0.4h-0.4v-0.4h-0.4v-0.4h-0.4v-0.4h-0.4v-0.4h-0.4v-0.4h-0.4v-0.4h-0.4v-0.4h-0.4v-0.4h-0.4v-0.4h-0.4v-0.4h-0.4
			v-0.4h-0.4v-0.4h-0.4v-0.4h-0.4v-0.4h-0.4v-0.4h-0.4v-0.4h-0.4V949h-0.4v-0.4h-0.4v-0.4h-0.4v-0.4h-0.4v-0.4h-0.5v-0.5h-0.5v-0.5
			h-0.5v-0.5h-0.5v-0.5h-0.5v-0.5h-0.5v-0.5h-0.5V944h-0.5v-0.5h-0.5v-0.5h-0.5v-0.5h-0.5v-0.5h-0.5v-0.5h-0.5v-0.5h-0.5v-0.5h-0.5
			v-0.5h-0.5v-0.5h-0.5v-0.5h-0.5v-0.5h-0.5v-0.5h-0.5v-0.5h-0.5v-0.5h-0.5v-0.5h-0.5v-0.5h-0.5v-0.5h-0.5v-0.5h-0.5v-0.5h-0.5v-0.5
			h-0.5V934h-0.5v-0.5h-0.5V933h-0.5v-0.5h-0.5V932h-0.5v-0.5h-0.5v-0.5h-0.5v-0.5h-0.5v-0.5h-0.5v-0.5h-0.5v-0.5h-0.5v-0.5h-0.5
			v-0.5h-0.5v-0.5h-0.5v-0.5h-0.5v-0.5h-0.5v-0.5h-0.5v-0.5h-0.5v-0.5h-0.5v-0.5h-0.5v-0.5h-0.5v-0.5h-0.5v-0.5h-0.5v-0.5h-0.5v-0.5
			h-0.5V921h-0.5v-0.5h-0.5V920h-0.5v-0.5h-0.5v-0.5h-0.5v-0.5h-0.5v-0.5h-0.5v-0.5h-0.5v-0.5h-0.6v-0.6h-0.6v-0.6h-0.6V915h-0.6
			v-0.6h-0.6v-0.6h-0.6v-0.6h-0.6v-0.6h-0.6v-0.6h-0.6v-0.6h-0.6v-0.6h-0.6v-0.6h-0.6V910h-0.6v-0.6h-0.6v-0.6L-357.9,908.8
			L-357.9,908.8z"/>
	</g>
	
		<path id="rect4297" inkscape:connector-curvature="0" inkscape:export-ydpi="90" inkscape:export-xdpi="90" inkscape:export-filename="C:\Users\Simon\Documents\Material Design Icon Pack\PNG\path5489.png" sodipodi:nodetypes="ccccccccccccccc" class="st7" d="
		M-358.5,908.2l-0.1,74.5h21.3l-0.1-74.5H-358.5z M-393.9,929.3l0.1,53.5h21.2l0.1-53.5H-393.9z M-323.1,954.1v28.6h21.2v-28.6
		H-323.1z"/>
	
		<path id="path4283" inkscape:connector-curvature="0" inkscape:export-ydpi="90" inkscape:export-xdpi="90" inkscape:export-filename="C:\Users\Simon\Documents\Material Design Icon Pack\PNG\path5489.png" sodipodi:nodetypes="ccccccccccccccc" class="st8" d="
		M-358.5,908.2l-0.1,74.5h21.3l-0.1-74.5H-358.5z M-393.9,929.3l0.1,53.5h21.2l0.1-53.5H-393.9z M-323.1,954.1v28.6h21.2v-28.6
		H-323.1z"/>
	
		<path id="path4285" inkscape:connector-curvature="0" inkscape:export-ydpi="90" inkscape:export-xdpi="90" inkscape:export-filename="C:\Users\Simon\Documents\Material Design Icon Pack\PNG\path5489.png" sodipodi:nodetypes="ccccccccccccccc" class="st7" d="
		M-358.5,908.2l-0.1,73.4h21.3l-0.1-73.4H-358.5z M-393.9,929l0.1,52.7h21.2l0.1-52.7H-393.9z M-323.1,953.5v28.2h21.2v-28.2H-323.1
		z"/>
	
		<path id="path4286" inkscape:connector-curvature="0" inkscape:export-ydpi="90" inkscape:export-xdpi="90" inkscape:export-filename="C:\Users\Simon\Documents\Material Design Icon Pack\PNG\path5489.png" sodipodi:nodetypes="ccccccccccccccc" class="st9" d="
		M-358.5,909.1l-0.1,72.5h21.3l-0.1-72.5H-358.5z M-393.9,929.6l0.1,52.1h21.2l0.1-52.1H-393.9z M-323.1,953.8v27.9h21.2v-27.9
		H-323.1z"/>
</g>
<g id="layer4" inkscape:label="Square" inkscape:groupmode="layer">
	
		<path id="path4736" inkscape:connector-curvature="0" inkscape:export-ydpi="90" inkscape:export-xdpi="90" inkscape:export-filename="C:\Users\Simon\Documents\Material Design Icon Pack\PNG\path5489.png" class="st10" d="
		M-453.4,873.6h166.1v166.1h-166.1V873.6z"/>
	
		<radialGradient id="path4255_1_" cx="-434.3741" cy="2123.5828" r="76" gradientTransform="matrix(6.846276e-004 2.0002 1.9954 -6.829508e-004 -4659.9224 1755.387)" gradientUnits="userSpaceOnUse">
		<stop  offset="0" style="stop-color:#FFFFFF"/>
		<stop  offset="1" style="stop-color:#FFFFFF;stop-opacity:0"/>
	</radialGradient>
	
		<radialGradient id="path4255_2_" cx="-434.3741" cy="2123.5828" r="76" gradientTransform="matrix(6.846189e-004 2.0002 1.9954 -6.829478e-004 -4659.9224 1755.387)" gradientUnits="userSpaceOnUse">
		<stop  offset="0" style="stop-color:#FFFFFF"/>
		<stop  offset="1" style="stop-color:#FFFFFF;stop-opacity:0"/>
	</radialGradient>
	
		<path id="path4255" inkscape:connector-curvature="0" inkscape:export-ydpi="90" inkscape:export-xdpi="90" inkscape:export-filename="C:\Users\Simon\Documents\Material Design Icon Pack\PNG\path5489.png" class="st11" d="
		M-413.7,885.5c-4.9,0-8.9,4-8.9,8.9v105.1c0,0.3,0,0.6,0,0.8l0,36.7l28.2-28.6h114c4.9,0,8.9-4,8.9-8.9V894.3c0-4.9-4-8.9-8.9-8.9
		C-280.3,885.5-413.7,885.5-413.7,885.5z"/>
</g>
</svg>
