<?xml version="1.0" encoding="UTF-8" standalone="no"?>
<!-- Created with Inkscape (http://www.inkscape.org/) -->

<svg
   xmlns:dc="http://purl.org/dc/elements/1.1/"
   xmlns:cc="http://creativecommons.org/ns#"
   xmlns:rdf="http://www.w3.org/1999/02/22-rdf-syntax-ns#"
   xmlns:svg="http://www.w3.org/2000/svg"
   xmlns="http://www.w3.org/2000/svg"
   xmlns:xlink="http://www.w3.org/1999/xlink"
   xmlns:sodipodi="http://sodipodi.sourceforge.net/DTD/sodipodi-0.dtd"
   xmlns:inkscape="http://www.inkscape.org/namespaces/inkscape"
   width="192"
   height="192"
   id="svg2"
   version="1.1"
   inkscape:version="0.91 r13725"
   sodipodi:docname="napster.svg"
   inkscape:export-filename="C:\Users\Simon\Documents\Material Design Icon Pack\PNG\napster.png"
   inkscape:export-xdpi="90"
   inkscape:export-ydpi="90">
  <sodipodi:namedview
     id="base"
     pagecolor="#ffffff"
     bordercolor="#666666"
     borderopacity="1.0"
     inkscape:pageopacity="0.0"
     inkscape:pageshadow="2"
     inkscape:zoom="2.6516505"
     inkscape:cx="83.860646"
     inkscape:cy="145.47245"
     inkscape:document-units="px"
     inkscape:current-layer="layer6"
     showgrid="true"
     showguides="false"
     inkscape:guide-bbox="true"
     inkscape:window-width="1920"
     inkscape:window-height="1017"
     inkscape:window-x="-8"
     inkscape:window-y="-8"
     inkscape:window-maximized="1"
     inkscape:snap-global="false">
    <inkscape:grid
       type="xygrid"
       id="grid2985"
       empspacing="5"
       visible="true"
       enabled="true"
       snapvisiblegridlinesonly="true" />
    <sodipodi:guide
       orientation="1,0"
       position="8,58.524064"
       id="guide3002" />
    <sodipodi:guide
       orientation="1,0"
       position="20,69.304813"
       id="guide3004" />
    <sodipodi:guide
       orientation="1,0"
       position="32,62.631016"
       id="guide3006" />
    <sodipodi:guide
       orientation="1,0"
       position="68,53.390374"
       id="guide3008" />
    <sodipodi:guide
       orientation="0,1"
       position="119.61497,8"
       id="guide3010" />
    <sodipodi:guide
       orientation="0,1"
       position="155.5508,20"
       id="guide3012" />
    <sodipodi:guide
       orientation="0,1"
       position="132.96257,32"
       id="guide3014" />
    <sodipodi:guide
       orientation="0,1"
       position="130.90909,68"
       id="guide3016" />
    <sodipodi:guide
       orientation="0,1"
       position="137.06952,184"
       id="guide3018" />
    <sodipodi:guide
       orientation="1,0"
       position="184,145.79679"
       id="guide3020" />
    <sodipodi:guide
       orientation="0,1"
       position="91.379679,172"
       id="guide3022" />
    <sodipodi:guide
       orientation="1,0"
       position="172.15693,140.10142"
       id="guide3024" />
    <sodipodi:guide
       orientation="0,1"
       position="149.39037,160"
       id="guide3026" />
    <sodipodi:guide
       orientation="1,0"
       position="160,88.299465"
       id="guide3028" />
    <sodipodi:guide
       orientation="0,1"
       position="128.34225,124"
       id="guide3030" />
    <sodipodi:guide
       orientation="1,0"
       position="124,92.919786"
       id="guide3032" />
  </sodipodi:namedview>
  <defs
     id="defs4">
    <linearGradient
       inkscape:collect="always"
       id="linearGradient4829">
      <stop
         style="stop-color:#1a237e;stop-opacity:1;"
         offset="0"
         id="stop4831" />
      <stop
         style="stop-color:#1a237e;stop-opacity:0;"
         offset="1"
         id="stop4833" />
    </linearGradient>
    <linearGradient
       inkscape:collect="always"
       id="linearGradient7772">
      <stop
         style="stop-color:#ffffff;stop-opacity:1;"
         offset="0"
         id="stop7774" />
      <stop
         style="stop-color:#ffffff;stop-opacity:0;"
         offset="1"
         id="stop7776" />
    </linearGradient>
    <linearGradient
       inkscape:collect="always"
       id="linearGradient7764">
      <stop
         style="stop-color:#ffffff;stop-opacity:1;"
         offset="0"
         id="stop7766" />
      <stop
         style="stop-color:#ffffff;stop-opacity:0;"
         offset="1"
         id="stop7768" />
    </linearGradient>
    <filter
       style="color-interpolation-filters:sRGB;"
       inkscape:label="Drop Shadow"
       id="filter7743">
      <feFlood
         flood-opacity="0.301961"
         flood-color="rgb(0,0,0)"
         result="flood"
         id="feFlood7745" />
      <feComposite
         in="flood"
         in2="SourceGraphic"
         operator="in"
         result="composite1"
         id="feComposite7747" />
      <feGaussianBlur
         in="composite1"
         stdDeviation="3"
         result="blur"
         id="feGaussianBlur7749" />
      <feOffset
         dx="4.57967e-015"
         dy="3"
         result="offset"
         id="feOffset7751" />
      <feComposite
         in="SourceGraphic"
         in2="offset"
         operator="over"
         result="composite2"
         id="feComposite7753" />
    </filter>
    <radialGradient
       inkscape:collect="always"
       xlink:href="#linearGradient7764"
       id="radialGradient7770"
       cx="20.009592"
       cy="20.198151"
       fx="20.009592"
       fy="20.198149"
       r="75.999997"
       gradientUnits="userSpaceOnUse"
       gradientTransform="matrix(0.00253475,1.9947837,-2.002355,0.00254437,60.402743,-19.768048)" />
    <radialGradient
       inkscape:collect="always"
       xlink:href="#linearGradient7772"
       id="radialGradient7778"
       cx="20.009592"
       cy="20.198151"
       fx="20.009592"
       fy="20.198151"
       r="75.999997"
       gradientUnits="userSpaceOnUse"
       gradientTransform="matrix(0.00253472,1.9947836,-2.0023549,0.00254435,60.40274,-19.768047)" />
    <filter
       id="filter9347"
       inkscape:label="Drop Shadow"
       style="color-interpolation-filters:sRGB;">
      <feFlood
         id="feFlood9349"
         result="flood"
         flood-color="rgb(0,0,0)"
         flood-opacity="0.101961" />
      <feComposite
         id="feComposite9351"
         result="composite1"
         operator="in"
         in2="SourceGraphic"
         in="flood" />
      <feGaussianBlur
         id="feGaussianBlur9353"
         result="blur"
         stdDeviation="3"
         in="composite1" />
      <feOffset
         id="feOffset9355"
         result="offset"
         dy="3"
         dx="4.57967e-015" />
      <feComposite
         id="feComposite9357"
         result="composite2"
         operator="over"
         in2="offset"
         in="SourceGraphic" />
    </filter>
    <clipPath
       id="clipPath5822"
       clipPathUnits="userSpaceOnUse">
      <rect
         style="display:inline;fill:#2196f3;fill-opacity:1;stroke:#2196f3;stroke-width:1;stroke-linecap:round;stroke-linejoin:miter;stroke-miterlimit:4;stroke-dasharray:none;stroke-opacity:1;filter:url(#filter4346)"
         id="rect5824"
         width="150.92705"
         height="150.92705"
         x="20.564697"
         y="20.50824"
         ry="11.106765" />
    </clipPath>
    <filter
       style="color-interpolation-filters:sRGB;"
       inkscape:label="Drop Shadow"
       id="filter7281"
       width="1.3100000000000001"
       x="-0.15000000000000002"
       height="1.3300000000000001">
      <feFlood
         flood-opacity="0.20000000000000001"
         flood-color="rgb(26,35,126)"
         result="flood"
         id="feFlood7283" />
      <feComposite
         in="flood"
         in2="SourceGraphic"
         operator="in"
         result="composite1"
         id="feComposite7285" />
      <feGaussianBlur
         in="composite1"
         stdDeviation="6"
         result="blur"
         id="feGaussianBlur7287" />
      <feOffset
         dx="4.57967e-015"
         dy="6"
         result="offset"
         id="feOffset7289" />
      <feComposite
         in="SourceGraphic"
         in2="offset"
         operator="over"
         result="composite2"
         id="feComposite7291" />
    </filter>
    <clipPath
       clipPathUnits="userSpaceOnUse"
       id="clipPath7295">
      <rect
         ry="10.897427"
         y="20.500031"
         x="20.500031"
         height="150.99994"
         width="150.99994"
         id="rect7297"
         style="display:inline;opacity:0.1;fill:url(#radialGradient7299);fill-opacity:1;stroke:url(#radialGradient7301);stroke-width:1.00005436;stroke-linejoin:round;stroke-miterlimit:4;stroke-dasharray:none;stroke-opacity:1" />
    </clipPath>
    <radialGradient
       inkscape:collect="always"
       xlink:href="#linearGradient7764"
       id="radialGradient7299"
       gradientUnits="userSpaceOnUse"
       gradientTransform="matrix(0.00253475,1.9947837,-2.002355,0.00254437,60.402743,-19.768048)"
       cx="20.009592"
       cy="20.198151"
       fx="20.009592"
       fy="20.198149"
       r="75.999997" />
    <radialGradient
       inkscape:collect="always"
       xlink:href="#linearGradient7772"
       id="radialGradient7301"
       gradientUnits="userSpaceOnUse"
       gradientTransform="matrix(0.00253472,1.9947836,-2.0023549,0.00254435,60.40274,-19.768047)"
       cx="20.009592"
       cy="20.198151"
       fx="20.009592"
       fy="20.198151"
       r="75.999997" />
    <linearGradient
       inkscape:collect="always"
       xlink:href="#linearGradient4829"
       id="linearGradient4835"
       x1="53.822571"
       y1="53.505821"
       x2="165.38875"
       y2="164.9886"
       gradientUnits="userSpaceOnUse" />
    <filter
       style="color-interpolation-filters:sRGB;"
       inkscape:label="Drop Shadow"
       id="filter4860"
       width="1.25"
       height="1.25">
      <feFlood
         flood-opacity="0.2"
         flood-color="rgb(26,35,126)"
         result="flood"
         id="feFlood4862" />
      <feComposite
         in="flood"
         in2="SourceGraphic"
         operator="in"
         result="composite1"
         id="feComposite4864" />
      <feGaussianBlur
         in="composite1"
         stdDeviation="6"
         result="blur"
         id="feGaussianBlur4866" />
      <feOffset
         dx="4.57967e-015"
         dy="6"
         result="offset"
         id="feOffset4868" />
      <feComposite
         in="SourceGraphic"
         in2="offset"
         operator="over"
         result="composite2"
         id="feComposite4870" />
    </filter>
    <clipPath
       clipPathUnits="userSpaceOnUse"
       id="clipPath4875">
      <rect
         ry="9.9127131"
         y="27.07115"
         x="27.242447"
         height="137.35527"
         width="137.35527"
         id="rect4877"
         style="display:inline;opacity:0.1;fill:url(#radialGradient4879);fill-opacity:1;stroke:url(#radialGradient4881);stroke-width:0.9096874;stroke-linejoin:round;stroke-miterlimit:4;stroke-dasharray:none;stroke-opacity:1" />
    </clipPath>
    <radialGradient
       inkscape:collect="always"
       xlink:href="#linearGradient7764"
       id="radialGradient4879"
       gradientUnits="userSpaceOnUse"
       gradientTransform="matrix(0.0023057,1.8145309,-1.8214181,0.00231446,63.539468,-9.5582216)"
       cx="20.009592"
       cy="20.198151"
       fx="20.009592"
       fy="20.198149"
       r="75.999997" />
    <radialGradient
       inkscape:collect="always"
       xlink:href="#linearGradient7772"
       id="radialGradient4881"
       gradientUnits="userSpaceOnUse"
       gradientTransform="matrix(0.00230568,1.8145308,-1.821418,0.00231444,63.539466,-9.5582207)"
       cx="20.009592"
       cy="20.198151"
       fx="20.009592"
       fy="20.198151"
       r="75.999997" />
  </defs>
  <metadata
     id="metadata7">
    <rdf:RDF>
      <cc:Work
         rdf:about="">
        <dc:format>image/svg+xml</dc:format>
        <dc:type
           rdf:resource="http://purl.org/dc/dcmitype/StillImage" />
        <dc:title />
      </cc:Work>
    </rdf:RDF>
  </metadata>
  <g
     inkscape:groupmode="layer"
     id="layer6"
     inkscape:label="Square 2"
     style="display:inline">
    <rect
       ry="10.897427"
       y="20.500031"
       x="20.500031"
       height="150.99994"
       width="150.99994"
       id="rect7720"
       style="display:inline;fill:#000000;fill-opacity:1;stroke:#03a9f4;stroke-width:1.00005436;stroke-linejoin:round;stroke-miterlimit:4;stroke-dasharray:none;stroke-opacity:1;filter:url(#filter7743)" />
  </g>
  <g
     inkscape:groupmode="layer"
     id="layer4"
     inkscape:label="Square"
     style="display:inline">
    <rect
       ry="10.827893"
       y="20.498438"
       x="20.498438"
       height="150.03645"
       width="151.00313"
       id="rect7755"
       style="opacity:0.2;fill:#ffffff;fill-opacity:1;stroke:#ffffff;stroke-width:0.99686927;stroke-linejoin:round;stroke-miterlimit:4;stroke-dasharray:none;stroke-opacity:1" />
    <rect
       ry="10.827893"
       y="21.465105"
       x="20.498438"
       height="150.03645"
       width="151.00313"
       id="rect7757"
       style="opacity:0.2;fill:#1a237e;fill-opacity:1;stroke:#1a237e;stroke-width:0.99699998;stroke-linejoin:round;stroke-miterlimit:4;stroke-dasharray:none;stroke-opacity:1" />
    <rect
       style="fill:#03a9f4;fill-opacity:1;stroke:#03a9f4;stroke-width:0.99361873;stroke-linejoin:round;stroke-miterlimit:4;stroke-dasharray:none;stroke-opacity:1"
       id="rect3811"
       width="151.00638"
       height="149.05637"
       x="20.496813"
       y="21.46348"
       ry="10.757162" />
    <flowRoot
       style="font-style:normal;font-variant:normal;font-weight:normal;font-stretch:normal;font-size:40px;line-height:125%;font-family:roboto;-inkscape-font-specification:roboto;letter-spacing:0px;word-spacing:0px;fill:#000000;fill-opacity:1;stroke:none;stroke-width:1px;stroke-linecap:butt;stroke-linejoin:miter;stroke-opacity:1"
       id="flowRoot9367"
       xml:space="preserve"><flowRegion
         id="flowRegion9369"><rect
           style="font-style:normal;font-variant:normal;font-weight:normal;font-stretch:normal;font-family:roboto;-inkscape-font-specification:roboto"
           y="31.533901"
           x="31.866945"
           height="128.4106"
           width="128.97627"
           id="rect9371" /></flowRegion><flowPara
         id="flowPara9373" /></flowRoot>    <path
       style="opacity:0.2;fill:url(#linearGradient4835);fill-opacity:1"
       d="m 96.597656,51.410156 c -11.857187,0 -22.319231,5.072047 -29.642578,13.22461 -3.139088,-0.814899 -6.278146,-1.35854 -9.765625,-1.449219 l 0,13.404297 c -4.883424,3.080625 -8.371094,8.785902 -8.371094,15.216797 0,5.164364 2.316513,9.907439 5.8125,13.203129 0.1827,0.1877 0.36286,0.37732 0.552735,0.55664 0.190082,0.19561 0.382217,0.38964 0.580078,0.57617 0.187177,0.1922 0.373662,0.3869 0.568359,0.57031 0.175531,0.18005 0.35106,0.36088 0.533203,0.5332 0.134426,0.13848 0.269851,0.2762 0.408204,0.41016 1.112534,9.03999 5.321138,17.12712 11.574218,23.17773 0.18455,0.186 0.368365,0.37236 0.556641,0.55469 0.18117,0.18273 0.360156,0.36768 0.544922,0.54688 0.192393,0.19429 0.383625,0.38977 0.580078,0.58007 0.193811,0.19548 0.386061,0.39255 0.583984,0.58399 0.178397,0.17964 0.355235,0.36089 0.53711,0.53711 0.179936,0.18147 0.357533,0.36498 0.541015,0.54297 0.195636,0.19752 0.390012,0.39644 0.589844,0.58984 0.178111,0.1794 0.355529,0.35917 0.537109,0.53516 0.184155,0.18573 0.366819,0.3726 0.554688,0.55469 0.183519,0.18506 0.365527,0.37129 0.552734,0.55273 0.177705,0.17917 0.353994,0.35938 0.535157,0.53516 0.193407,0.1952 0.384524,0.3928 0.582031,0.58398 0.175554,0.17675 0.350374,0.35391 0.529297,0.52734 0.184879,0.18639 0.36802,0.37394 0.55664,0.55664 0.180316,0.18163 0.359098,0.36484 0.542969,0.54297 0.178371,0.17967 0.355259,0.36087 0.537109,0.53711 0.17941,0.18077 0.356132,0.36371 0.539063,0.54102 0.178088,0.17942 0.355552,0.35914 0.537109,0.53515 0.179732,0.18112 0.35775,0.36338 0.541016,0.54102 0.177138,0.17843 0.352634,0.35815 0.533203,0.5332 0.177439,0.17876 0.35232,0.35979 0.533203,0.53516 0.171936,0.1732 0.342409,0.34756 0.517578,0.51758 0.187673,0.18924 0.374878,0.37899 0.566406,0.56445 0.165251,0.16622 0.327862,0.33476 0.496094,0.49805 0.186069,0.18757 0.37069,0.37669 0.560547,0.56054 0.168828,0.16979 0.335874,0.34109 0.507813,0.50782 0.174247,0.17545 0.347824,0.35124 0.52539,0.52343 0.173933,0.17513 0.346198,0.35157 0.523438,0.52344 0.17524,0.17642 0.348748,0.35423 0.527344,0.52735 0.171638,0.17271 0.340768,0.34802 0.515624,0.51757 0.171053,0.17214 0.341377,0.34468 0.515626,0.51368 0.172011,0.17314 0.342333,0.34761 0.517578,0.51757 0.171374,0.17248 0.341042,0.34631 0.515625,0.51563 0.170403,0.17147 0.338144,0.34531 0.511718,0.51367 0.164896,0.16592 0.328228,0.33309 0.496094,0.49609 0.180962,0.18228 0.36038,0.36617 0.544922,0.54493 0.162753,0.16351 0.324593,0.3276 0.490234,0.48828 0.168481,0.16949 0.33428,0.34136 0.50586,0.50781 0.168842,0.16985 0.335857,0.34103 0.507812,0.50781 0.16657,0.16751 0.332355,0.33547 0.501953,0.5 0.16202,0.16295 0.321443,0.32815 0.486328,0.48828 0.177458,0.17865 0.354259,0.35795 0.535157,0.53321 0.159539,0.1602 0.316203,0.32299 0.478515,0.48047 0.165598,0.16651 0.329457,0.33447 0.498047,0.49804 0.165644,0.16654 0.32941,0.33446 0.498047,0.49805 0.16337,0.1642 0.325906,0.32889 0.492188,0.49023 0.15817,0.15899 0.313709,0.32026 0.474609,0.47657 0.174566,0.17566 0.347497,0.353 0.525391,0.52539 0.156651,0.15723 0.31138,0.3161 0.470703,0.4707 0.162084,0.16289 0.323332,0.32626 0.488281,0.48633 0.162452,0.16324 0.322952,0.32787 0.488281,0.48828 0.160157,0.16089 0.317516,0.32428 0.480469,0.48242 0.162418,0.16318 0.322987,0.32793 0.488281,0.48828 0.15915,0.15983 0.316606,0.32141 0.478516,0.47852 0.158243,0.15891 0.31559,0.31838 0.476562,0.47461 0.15887,0.15958 0.314942,0.32164 0.476563,0.47851 0.158547,0.15925 0.315276,0.32002 0.476562,0.47657 0.157909,0.15858 0.313984,0.3187 0.47461,0.4746 0.157269,0.15792 0.312691,0.3174 0.472656,0.47266 0.152109,0.15273 0.302401,0.30678 0.457031,0.45703 0.166889,0.16773 0.332029,0.33722 0.501949,0.50196 0.14959,0.14997 0.2972,0.30164 0.44922,0.44921 0.15535,0.15594 0.30883,0.31345 0.4668,0.4668 0.15634,0.15691 0.3117,0.31446 0.4707,0.46875 0.15306,0.15356 0.30338,0.30988 0.45899,0.46094 0.15277,0.1533 0.30366,0.30819 0.45898,0.45898 0.14857,0.1491 0.29434,0.30054 0.44531,0.44727 0.15818,0.15886 0.31567,0.31843 0.47657,0.47461 0.15925,0.15974 0.3165,0.32149 0.47851,0.47851 0.14377,0.14398 0.28563,0.28988 0.43164,0.43164 0.14502,0.14545 0.28825,0.29235 0.43555,0.43555 0.16177,0.16244 0.32171,0.3267 0.48633,0.48633 0.14381,0.14404 0.28558,0.28982 0.43164,0.43164 0.14892,0.14934 0.29593,0.3003 0.44726,0.44727 0.14892,0.14934 0.29594,0.30029 0.44727,0.44726 0.14828,0.14868 0.29464,0.29899 0.44531,0.44531 0.14764,0.14802 0.29335,0.29768 0.44336,0.44336 0.14211,0.14248 0.28148,0.28742 0.42578,0.42774 0.15791,0.15846 0.31399,0.31882 0.47461,0.47461 0.13962,0.13975 0.27819,0.2803 0.41992,0.41797 0.14019,0.1405 0.27761,0.28347 0.41993,0.42187 0.15695,0.15748 0.31302,0.31586 0.47265,0.4707 0.1387,0.1388 0.27524,0.27928 0.41602,0.41602 0.14314,0.14341 0.28432,0.28847 0.42969,0.42969 0.14378,0.14407 0.28561,0.28978 0.43164,0.43164 0.14314,0.1434 0.28432,0.28847 0.42968,0.42968 0.14217,0.14241 0.28142,0.28749 0.42578,0.42774 0.14153,0.14176 0.28208,0.28421 0.42579,0.42383 0.14121,0.14143 0.28045,0.28453 0.42382,0.42383 0.14121,0.14143 0.28046,0.28452 0.42383,0.42382 0.13524,0.13543 0.26903,0.27278 0.40625,0.40625 0.14533,0.14567 0.28792,0.29409 0.43555,0.4375 0.14608,0.14623 0.29105,0.29355 0.43945,0.4375 0.13155,0.13148 0.26111,0.26491 0.39453,0.39453 0.13182,0.13194 0.26083,0.26641 0.39454,0.39649 0.14925,0.14957 0.29754,0.30008 0.44921,0.44727 0.13029,0.13021 0.2585,0.26221 0.39063,0.39062 0.1367,0.13683 0.27142,0.27533 0.41016,0.41016 0.13606,0.13616 0.27012,0.27401 0.4082,0.4082 0.13542,0.1355 0.26884,0.27271 0.40625,0.40625 0.13545,0.13553 0.26881,0.27268 0.40625,0.40625 0.13349,0.13353 0.26497,0.26876 0.40039,0.40039 0.13413,0.13419 0.26626,0.27007 0.40234,0.40234 0.13316,0.1332 0.26336,0.26909 0.39844,0.40039 0.13283,0.13287 0.26369,0.26746 0.39844,0.39844 0.12633,0.12635 0.25084,0.25426 0.3789,0.37891 0.14378,0.14396 0.28562,0.28989 0.43164,0.43164 0.12481,0.12463 0.24851,0.25008 0.375,0.37305 0.13126,0.13124 0.25946,0.26512 0.39258,0.39453 0.13029,0.13025 0.2585,0.26219 0.39063,0.39062 0.12933,0.12928 0.25752,0.25923 0.38867,0.38672 0.1228,0.12273 0.24275,0.24802 0.36719,0.36914 0.14056,0.14067 0.27916,0.28332 0.42187,0.42188 0.12125,0.121 0.24045,0.24384 0.36328,0.36328 0.12966,0.12958 0.2572,0.26089 0.38867,0.38867 0.1254,0.12525 0.24986,0.25143 0.37696,0.375 0.1261,0.12598 0.24913,0.25462 0.37695,0.37891 0.1251,0.12497 0.24821,0.25169 0.375,0.375 0.1251,0.12497 0.24821,0.25169 0.375,0.375 0.1251,0.12497 0.24821,0.25169 0.375,0.375 0.12644,0.12628 0.25074,0.25432 0.37891,0.3789 0.12184,0.12163 0.24178,0.24519 0.36523,0.36524 0.1232,0.12302 0.2443,0.24774 0.36914,0.36914 0.12188,0.12168 0.24175,0.24513 0.36524,0.36523 0.12187,0.12168 0.24175,0.24514 0.36523,0.36524 0.12156,0.12137 0.24207,0.24348 0.36524,0.36328 0.12322,0.12302 0.24427,0.24774 0.36914,0.36914 0.11894,0.11868 0.23499,0.24025 0.35546,0.35742 0.11966,0.11942 0.23817,0.23953 0.35938,0.35742 0.11312,0.11289 0.22339,0.22832 0.33789,0.33984 0.13091,0.13081 0.25981,0.26361 0.39258,0.39258 0.11156,0.11117 0.22108,0.22415 0.33398,0.33399 0.118,0.11775 0.23401,0.23725 0.35352,0.35351 0.11736,0.11709 0.23271,0.23594 0.35156,0.35157 0.11606,0.11578 0.23014,0.23331 0.34766,0.34765 0.1177,0.11742 0.23431,0.23562 0.35351,0.35156 0.11507,0.11475 0.22726,0.23237 0.34375,0.34571 0.11413,0.1138 0.22626,0.22938 0.3418,0.34179 0.11477,0.11447 0.22755,0.23069 0.34375,0.34375 0.11348,0.11316 0.22497,0.22806 0.33984,0.33985 0.10794,0.10763 0.21308,0.21783 0.32227,0.32422 0.12509,0.12487 0.24821,0.25179 0.375,0.375 0.0999,0.0994 0.19789,0.20047 0.29883,0.29882 0.12476,0.12453 0.24855,0.25018 0.375,0.37305 0.1038,0.1033 0.20558,0.20839 0.31054,0.31055 0.10535,0.105 0.20791,0.21258 0.31446,0.3164 0.12251,0.12226 0.24305,0.24654 0.36718,0.36719 0.1035,0.103 0.2059,0.20674 0.31055,0.3086 0.10863,0.10822 0.21432,0.2192 0.32422,0.32617 0.10863,0.10823 0.21627,0.21724 0.32617,0.32422 0.10899,0.10858 0.21591,0.21885 0.32617,0.32617 0.10736,0.10693 0.21171,0.21656 0.32032,0.32226 0.10635,0.10593 0.21078,0.21364 0.31836,0.31836 0.10635,0.10593 0.21078,0.21364 0.31836,0.31836 0.10671,0.10629 0.21236,0.21329 0.32031,0.31836 0.10443,0.10398 0.20689,0.20969 0.3125,0.3125 0.10508,0.10464 0.20818,0.211 0.31445,0.31446 0.10378,0.10332 0.2056,0.20836 0.31055,0.31054 0.10378,0.10333 0.2056,0.20837 0.31054,0.31055 0.10412,0.10366 0.20526,0.20999 0.31055,0.3125 0.10217,0.10168 0.20335,0.20412 0.30664,0.30469 0.10216,0.10168 0.20141,0.20607 0.30469,0.30664 0.10219,0.1017 0.20333,0.20409 0.30664,0.30469 0.10122,0.10072 0.20041,0.2031 0.30274,0.30273 0.0999,0.0994 0.19785,0.20049 0.29882,0.29883 0.0999,0.0994 0.19785,0.20049 0.29883,0.29883 0.0937,0.0932 0.18464,0.18894 0.2793,0.28125 0.11123,0.11078 0.22142,0.22256 0.33398,0.33203 0.0915,0.0909 0.18105,0.18345 0.27344,0.27343 0.0917,0.0913 0.18078,0.18503 0.27344,0.2754 0.11024,0.10979 0.21852,0.22157 0.33008,0.33007 0.0843,0.0837 0.16688,0.16899 0.25195,0.25196 0.10864,0.10816 0.21625,0.2173 0.32617,0.32421 0.0889,0.0883 0.17588,0.17821 0.26563,0.26563 0.095,0.0945 0.1872,0.19163 0.2832,0.28516 0.0947,0.0942 0.18753,0.19 0.2832,0.2832 0.0951,0.0945 0.18914,0.18969 0.28516,0.2832 0.093,0.0925 0.18335,0.18774 0.27734,0.2793 0.0925,0.0919 0.18398,0.18443 0.27735,0.27539 0.0924,0.0919 0.18203,0.18639 0.27539,0.27734 0.0925,0.0919 0.18395,0.18441 0.27734,0.27539 0.0912,0.0906 0.17943,0.18375 0.27148,0.27344 0.0843,0.0837 0.1669,0.16897 0.25196,0.25195 0.10313,0.1026 0.20431,0.20714 0.30859,0.3086 0.083,0.0824 0.16427,0.16641 0.24805,0.24805 0.0908,0.0902 0.17975,0.18212 0.27148,0.27148 0.0889,0.0882 0.17593,0.17824 0.26563,0.26563 0.0869,0.0863 0.17205,0.17429 0.25976,0.25976 0.0869,0.0863 0.17203,0.17426 0.25977,0.25977 0.0869,0.0863 0.17203,0.17426 0.25976,0.25976 0.0879,0.0873 0.17493,0.17525 0.26368,0.26172 0.0791,0.0785 0.15464,0.16047 0.23437,0.23828 0.0989,0.0983 0.19689,0.19764 0.29688,0.29492 0.0775,0.0768 0.15427,0.1543 0.23242,0.23047 0.084,0.0834 0.16523,0.16933 0.25,0.25196 0.0837,0.083 0.16557,0.1677 0.25,0.25 0.0843,0.0837 0.16685,0.16902 0.25195,0.25195 0.0758,0.0752 0.15013,0.15195 0.22656,0.22656 0.0954,0.0947 0.18881,0.19138 0.28516,0.28516 0.0746,0.0739 0.14749,0.14938 0.22266,0.22265 0.0804,0.0798 0.15911,0.16114 0.24023,0.24024 0.0804,0.0798 0.15911,0.16114 0.24023,0.24023 0.0817,0.0811 0.16169,0.16378 0.24415,0.24414 0.0785,0.0778 0.15525,0.15724 0.23437,0.23438 0.0791,0.0784 0.1566,0.15859 0.23633,0.23633 0.0785,0.0778 0.15521,0.15719 0.23437,0.23437 0.0772,0.0765 0.15265,0.15458 0.23047,0.23047 0.0772,0.0765 0.15265,0.15458 0.23047,0.23047 0.0772,0.0765 0.15265,0.15458 0.23047,0.23047 0.0765,0.0759 0.15134,0.15325 0.22852,0.22851 0.0759,0.0752 0.15004,0.15195 0.22656,0.22657 0.0746,0.0739 0.14747,0.14933 0.22265,0.22265 0.0746,0.0739 0.14748,0.14934 0.22266,0.22266 0.0745,0.0738 0.14755,0.1494 0.22266,0.22265 0.0729,0.0723 0.14328,0.14705 0.21679,0.21875 0.073,0.0723 0.14523,0.14509 0.21875,0.2168 0.0726,0.072 0.1436,0.1454 0.2168,0.2168 0.072,0.0713 0.14231,0.14409 0.21484,0.21484 0.0713,0.0707 0.14102,0.14278 0.2129,0.21289 0.0645,0.0639 0.12649,0.12996 0.1914,0.19336 0.0834,0.0827 0.16589,0.16612 0.25,0.24805 0.0629,0.0622 0.1242,0.12575 0.1875,0.1875 0.0628,0.0622 0.12423,0.12569 0.1875,0.1875 0.0821,0.0814 0.16136,0.16545 0.24414,0.24609 0.0616,0.0609 0.12161,0.12313 0.1836,0.1836 0.0671,0.0664 0.13359,0.13328 0.20117,0.19922 0.0681,0.0674 0.13455,0.13622 0.20312,0.20312 0.0668,0.0661 0.13199,0.13363 0.19922,0.19922 0.0654,0.0648 0.1294,0.131 0.19531,0.19531 0.0652,0.0645 0.12775,0.1313 0.19336,0.19531 0.0652,0.0645 0.12971,0.12936 0.19532,0.19336 0.0641,0.0635 0.12681,0.12838 0.1914,0.19141 0.0632,0.0625 0.12389,0.12737 0.1875,0.18945 0.0632,0.0625 0.12584,0.12542 0.18946,0.1875 0.0629,0.0622 0.1242,0.12573 0.1875,0.1875 0.0629,0.0622 0.1242,0.12574 0.1875,0.1875 0.0615,0.0609 0.12164,0.12314 0.18359,0.1836 0.0606,0.0599 0.11871,0.12213 0.17969,0.18164 0.0619,0.0612 0.12323,0.12278 0.18554,0.18359 0.0599,0.0592 0.11744,0.12085 0.17774,0.17969 0.0586,0.0579 0.1168,0.11626 0.17578,0.17383 0.0586,0.0579 0.11484,0.11819 0.17383,0.17578 0.0583,0.0576 0.11517,0.11657 0.17383,0.17383 0.0583,0.0576 0.11515,0.11655 0.17382,0.17382 0.0567,0.056 0.11291,0.11231 0.16992,0.16797 0.0567,0.056 0.11096,0.11427 0.16797,0.16992 0.0498,0.0492 0.0984,0.0995 0.14844,0.14844 0.0694,0.0687 0.13714,0.1389 0.20703,0.20703 0.0482,0.0476 0.0961,0.0953 0.14453,0.14258 0.0544,0.0537 0.1074,0.10869 0.16211,0.16211 0.0541,0.0534 0.10579,0.10902 0.16016,0.16211 0.0537,0.0531 0.10612,0.10739 0.16016,0.16016 0.0528,0.0521 0.10514,0.10443 0.1582,0.15625 0.0459,0.0453 0.0887,0.0936 0.13476,0.13867 0.0652,0.0644 0.12972,0.12939 0.19532,0.19336 0.0446,0.044 0.088,0.0891 0.13281,0.13281 0.0511,0.0505 0.10093,0.10214 0.15234,0.15234 0.0505,0.0498 0.0996,0.10083 0.15039,0.15039 0.0495,0.0489 0.0987,0.0979 0.14844,0.14649 0.0488,0.0482 0.0954,0.0985 0.14453,0.14648 0.0485,0.0479 0.0958,0.0969 0.14453,0.14453 0.0488,0.0482 0.0974,0.0966 0.14649,0.14454 0.0406,0.0401 0.0783,0.0831 0.11914,0.12304 0.0606,0.0599 0.12066,0.12022 0.18164,0.17969 0.0394,0.0388 0.0777,0.0786 0.11719,0.11719 0.0459,0.0453 0.0906,0.0917 0.13672,0.13672 0.0452,0.0446 0.0893,0.0904 0.13476,0.13476 0.038,0.0375 0.0751,0.0759 0.11328,0.11328 0.0514,0.0508 0.10064,0.10379 0.15235,0.1543 0.0433,0.0427 0.0854,0.0864 0.1289,0.12891 0.0502,0.0495 0.1,0.0992 0.15039,0.14843 0.0361,0.0356 0.0712,0.072 0.10742,0.10743 0.0413,0.0407 0.0815,0.0825 0.12305,0.12304 0.0354,0.0349 0.0699,0.0707 0.10547,0.10547 0.0475,0.0469 0.0929,0.0959 0.14063,0.14258 0.0406,0.0401 0.0803,0.0812 0.12109,0.12109 0.0469,0.0462 0.0935,0.0927 0.14062,0.13867 0.0322,0.0317 0.0634,0.0641 0.0957,0.0957 0.0387,0.0381 0.0764,0.0772 0.11523,0.11523 0.0391,0.0385 0.078,0.0769 0.11719,0.11524 0.0305,0.03 0.0592,0.0618 0.0898,0.0918 0.0511,0.0504 0.10093,0.10218 0.15235,0.15235 0.0295,0.0291 0.0582,0.0589 0.0879,0.0879 0.0361,0.0356 0.0712,0.072 0.10742,0.10742 0.0354,0.0349 0.0699,0.0707 0.10547,0.10547 0.0348,0.0343 0.0686,0.0694 0.10351,0.10351 0.0348,0.0343 0.0686,0.0694 0.10352,0.10352 0.0341,0.0336 0.0673,0.0681 0.10156,0.10156 0.0335,0.033 0.066,0.0668 0.0996,0.0996 0.0259,0.0255 0.0502,0.0527 0.0762,0.0781 0.0459,0.0452 0.0906,0.0917 0.13672,0.13672 0.0246,0.0242 0.0495,0.0481 0.0742,0.0723 0.0315,0.031 0.0621,0.0628 0.0937,0.0937 0.0309,0.0304 0.0608,0.0615 0.0918,0.0918 0.0296,0.0291 0.0583,0.0589 0.0879,0.0879 0.0289,0.0284 0.0589,0.0596 0.0879,0.0879 0.01,0.01 0.0195,0.0196 0.0293,0.0293 0.0122,0.0119 0.0249,0.0271 0.0371,0.0391 0.0423,0.0417 0.0844,0.0835 0.12696,0.125 0.0207,0.0203 0.0398,0.0422 0.0605,0.0625 0.0273,0.0268 0.0547,0.0533 0.082,0.0801 0.0276,0.0271 0.0544,0.055 0.082,0.082 0.0263,0.0258 0.0518,0.0524 0.0781,0.0781 0.0256,0.0252 0.0505,0.0511 0.0762,0.0762 0.0256,0.0252 0.0505,0.051 0.0762,0.0762 0.025,0.0245 0.0492,0.0497 0.0742,0.0742 0.0236,0.0232 0.0466,0.0471 0.0703,0.0703 0.0237,0.0232 0.0466,0.0471 0.0703,0.0703 0.023,0.0226 0.0453,0.0458 0.0684,0.0684 0.0226,0.0223 0.0437,0.0462 0.0664,0.0684 0.0213,0.021 0.043,0.0416 0.0644,0.0625 0.0217,0.0213 0.0427,0.0432 0.0644,0.0644 0.0207,0.0203 0.0398,0.0422 0.0606,0.0625 0.0204,0.02 0.0401,0.0406 0.0606,0.0606 0.0203,0.02 0.0402,0.0406 0.0605,0.0605 0.0187,0.0184 0.0379,0.0363 0.0566,0.0547 0.0194,0.019 0.0372,0.0396 0.0566,0.0586 0.0181,0.0177 0.0366,0.035 0.0547,0.0527 0.0174,0.0171 0.0333,0.0357 0.0508,0.0527 0.0168,0.0165 0.034,0.0324 0.0508,0.0488 0.0168,0.0165 0.032,0.0344 0.0488,0.0508 0.0158,0.0155 0.0311,0.0314 0.0469,0.0469 0.0151,0.0148 0.0298,0.0301 0.0449,0.0449 0.0151,0.0148 0.0298,0.0301 0.0449,0.0449 0.0105,0.0103 0.0207,0.0209 0.0312,0.0312 0.025,0.0245 0.0492,0.0498 0.0742,0.0742 0.006,0.006 0.0117,0.0118 0.0176,0.0176 0.0125,0.0122 0.0246,0.0249 0.0371,0.0371 0.0125,0.0123 0.0246,0.0249 0.0371,0.0371 0.0109,0.0107 0.0243,0.0226 0.0352,0.0332 0.008,0.008 0.0152,0.0173 0.0234,0.0254 0.003,0.003 0.005,0.005 0.008,0.008 0.008,0.008 0.0155,0.0157 0.0234,0.0234 0.022,0.0216 0.0443,0.0429 0.0664,0.0645 0.004,0.004 0.008,0.008 0.0117,0.0117 9.9e-4,9.7e-4 9.7e-4,0.003 0.002,0.004 0.002,0.002 0.004,0.004 0.006,0.006 0,0 0.002,0 0.002,0 9.9e-4,9.7e-4 9.7e-4,0.003 0.002,0.004 0.004,0.004 0.008,0.008 0.0117,0.0117 0.005,0.005 0.0104,0.0105 0.0156,0.0156 0.008,0.008 0.0155,0.0157 0.0234,0.0234 0.005,0.005 0.0104,0.0105 0.0156,0.0156 0.002,0.002 0.004,0.004 0.006,0.006 0.007,0.006 0.0129,0.0131 0.0195,0.0195 0.005,0.005 0.009,0.009 0.0137,0.0137 0.006,0.006 0.0117,0.0118 0.0176,0.0176 0,0 0.002,0.002 0.002,0.002 0.003,0.003 0.005,0.007 0.008,0.01 0.003,0.003 0.005,0.005 0.008,0.008 0.006,0.006 0.0137,0.0118 0.0195,0.0176 0.001,0.001 0.005,0.005 0.006,0.006 0.003,0.003 0.005,0.005 0.008,0.008 0,0 0.002,0.002 0.002,0.002 0.003,0.003 0.005,0.005 0.008,0.008 0.002,0.002 0.004,0.004 0.006,0.006 0,0 0,0.002 0,0.002 0,0 0.002,0.002 0.002,0.002 0.001,0.001 0.003,0.003 0.004,0.004 0,0 0.002,0.002 0.002,0.002 0,0 0.002,0.002 0.002,0.002 10e-4,9.8e-4 0.003,9.8e-4 0.004,0.002 0.12017,0.11758 0.2455,0.22965 0.36719,0.34571 0.2973,0.2838 0.59416,0.56723 0.90039,0.84179 0.44113,0.39553 0.89247,0.7805 1.35156,1.15625 0.002,0.002 0.004,0.004 0.006,0.006 0.001,10e-4 0.002,0.003 0.004,0.004 7.1e-4,5.8e-4 0.001,0.001 0.002,0.002 0.4557,0.37261 0.91987,0.73542 1.39258,1.08789 7.3e-4,5.5e-4 0.001,0.001 0.002,0.002 0.47271,0.35247 0.9543,0.69371 1.44336,1.02539 7.5e-4,5.1e-4 0.001,0.001 0.002,0.002 0.48768,0.33054 0.98306,0.64978 1.48633,0.95898 7.7e-4,4.7e-4 10e-4,0.001 0.002,0.002 7.7e-4,4.7e-4 0.001,10e-4 0.002,0.002 0.001,7.6e-4 0.003,0.001 0.004,0.002 0.50438,0.30981 1.01773,0.60878 1.53711,0.89649 7.8e-4,4.3e-4 0.001,0.002 0.002,0.002 1.04056,0.57641 2.11019,1.10613 3.20703,1.58984 7.9e-4,3.5e-4 0.001,0.002 0.002,0.002 1.09692,0.48366 2.22121,0.91907 3.36914,1.30468 4.02131,1.35085 8.34007,2.08594 12.8418,2.08594 20.22808,0 36.96706,-15.03685 39.05859,-34.60156 l 0.34961,-0.35938 c 4.88104,-3.17131 8.36914,-8.78666 8.36914,-15.21875 0,-1.20748 -0.12543,-2.38895 -0.35742,-3.5332 -0.15419,-0.76051 -0.35508,-1.50473 -0.60156,-2.22851 -4.7e-4,-0.001 -0.001,-0.003 -0.002,-0.004 -0.24663,-0.72366 -0.53643,-1.42752 -0.86718,-2.10742 -6.4e-4,-10e-4 -0.001,-0.003 -0.002,-0.004 -0.1653,-0.3398 -0.34059,-0.67244 -0.52539,-1 -4.4e-4,-7.8e-4 -0.002,-0.001 -0.002,-0.002 -0.001,-0.002 -0.003,-0.004 -0.004,-0.006 -0.1353,-0.23976 -0.2805,-0.47228 -0.42578,-0.70508 -0.0527,-0.0844 -0.10028,-0.17239 -0.1543,-0.25586 -9.8e-4,-0.002 -0.003,-0.002 -0.004,-0.004 -0.40619,-0.62725 -0.84665,-1.2291 -1.32031,-1.79882 -5.9e-4,-7.1e-4 -0.001,-0.001 -0.002,-0.002 -0.033,-0.0397 -0.0702,-0.0758 -0.10351,-0.11523 -0.11059,-0.1309 -0.22594,-0.2572 -0.33985,-0.38477 -0.0992,-0.11102 -0.19323,-0.2275 -0.29492,-0.33593 -10e-4,-0.001 -0.003,-0.003 -0.004,-0.004 -0.007,-0.007 -0.0145,-0.0141 -0.0215,-0.0215 -0.012,-0.0128 -0.0251,-0.0244 -0.0371,-0.0371 -0.0101,-0.0108 -0.0211,-0.0205 -0.0312,-0.0312 -0.006,-0.007 -0.0132,-0.0128 -0.0195,-0.0195 -0.006,-0.007 -0.0132,-0.0128 -0.0195,-0.0195 -0.0316,-0.0337 -0.0659,-0.0643 -0.0977,-0.0977 -0.0189,-0.0202 -0.0396,-0.0385 -0.0586,-0.0586 -0.0101,-0.0108 -0.0211,-0.0205 -0.0312,-0.0312 -0.0107,-0.0114 -0.0224,-0.0218 -0.0332,-0.0332 -0.0113,-0.0121 -0.0238,-0.0231 -0.0352,-0.0352 -0.13062,-0.13141 -0.25644,-0.26737 -0.39063,-0.39453 -6.6e-4,-6.3e-4 -0.001,-0.001 -0.002,-0.002 -0.001,-0.001 -0.003,-0.003 -0.004,-0.004 -0.002,-0.002 -0.004,-0.004 -0.006,-0.006 -0.003,-0.003 -0.005,-0.005 -0.008,-0.008 -0.003,-0.003 -0.007,-0.005 -0.01,-0.008 -0.006,-0.006 -0.0115,-0.0119 -0.0176,-0.0176 0,0 -0.002,-0.002 -0.002,-0.002 -9.9e-4,-9.3e-4 -9.7e-4,-0.003 -0.002,-0.004 -0.005,-0.004 -0.009,-0.009 -0.0137,-0.0137 -0.002,-0.002 -0.005,-0.004 -0.008,-0.006 -0.001,-10e-4 -0.003,-0.003 -0.004,-0.004 -0.002,-0.002 -0.002,-0.004 -0.004,-0.006 -0.002,-0.002 -0.005,-0.004 -0.008,-0.006 -0.004,-0.004 -0.006,-0.008 -0.01,-0.0117 -0.002,-0.002 -0.004,-0.002 -0.006,-0.004 -0.004,-0.004 -0.007,-0.01 -0.0117,-0.0137 -0.007,-0.007 -0.0144,-0.0129 -0.0215,-0.0195 -0.008,-0.007 -0.0138,-0.0161 -0.0215,-0.0234 -0.001,-0.001 -0.003,-0.003 -0.004,-0.004 -0.007,-0.006 -0.0129,-0.0132 -0.0195,-0.0195 -0.001,-9.7e-4 -0.003,-9.8e-4 -0.004,-0.002 -0.008,-0.007 -0.0138,-0.0162 -0.0215,-0.0234 -0.009,-0.009 -0.0183,-0.0168 -0.0273,-0.0254 -0.02,-0.019 -0.0385,-0.0396 -0.0586,-0.0586 0,0 -0.002,-0.002 -0.002,-0.002 -0.01,-0.009 -0.0193,-0.0198 -0.0293,-0.0293 -0.018,-0.0171 -0.0347,-0.0357 -0.0527,-0.0527 -0.005,-0.005 -0.0103,-0.0106 -0.0156,-0.0156 -0.0122,-0.0119 -0.0229,-0.0253 -0.0352,-0.0371 0,0 -0.002,-0.002 -0.002,-0.002 -0.0126,-0.0121 -0.0245,-0.025 -0.0371,-0.0371 0,0 -0.002,-0.002 -0.002,-0.002 -0.0126,-0.0121 -0.0245,-0.025 -0.0371,-0.0371 0,0 -0.002,-0.002 -0.002,-0.002 -0.0197,-0.0187 -0.0388,-0.038 -0.0586,-0.0566 -0.009,-0.008 -0.0167,-0.0171 -0.0254,-0.0254 0,0 -0.002,-0.002 -0.002,-0.002 -0.0127,-0.0121 -0.0244,-0.0251 -0.0371,-0.0371 -0.002,-0.002 -0.002,-0.004 -0.004,-0.006 -0.004,-0.004 -0.008,-0.008 -0.0117,-0.0117 -0.0119,-0.0114 -0.0232,-0.0238 -0.0352,-0.0352 -0.006,-0.005 -0.0119,-0.0102 -0.0176,-0.0156 -0.0106,-0.0101 -0.0206,-0.0212 -0.0312,-0.0312 -0.0187,-0.0178 -0.036,-0.037 -0.0547,-0.0547 -0.0156,-0.015 -0.0293,-0.032 -0.0449,-0.0469 -0.001,-0.001 -0.003,-0.003 -0.004,-0.004 -0.0186,-0.0178 -0.036,-0.037 -0.0547,-0.0547 -0.023,-0.0219 -0.0453,-0.0446 -0.0684,-0.0664 -0.0126,-0.0122 -0.0245,-0.025 -0.0371,-0.0371 -0.003,-0.003 -0.005,-0.005 -0.008,-0.008 -0.0167,-0.0164 -0.032,-0.0344 -0.0488,-0.0508 -0.003,-0.003 -0.005,-0.005 -0.008,-0.008 -0.0171,-0.0167 -0.0336,-0.0342 -0.0508,-0.0508 -0.006,-0.005 -0.0119,-0.0102 -0.0176,-0.0156 -0.0364,-0.035 -0.0707,-0.0727 -0.10742,-0.10742 -0.0236,-0.0226 -0.0446,-0.0479 -0.0684,-0.0703 -0.0289,-0.0277 -0.0568,-0.0565 -0.0859,-0.084 -0.0146,-0.0139 -0.0283,-0.0291 -0.043,-0.043 -0.0259,-0.0248 -0.0501,-0.0515 -0.0762,-0.0762 -0.0242,-0.0232 -0.0459,-0.0492 -0.0703,-0.0723 -0.0246,-0.0235 -0.0476,-0.0489 -0.0723,-0.0723 -0.0293,-0.028 -0.0584,-0.0562 -0.0879,-0.084 -0.0188,-0.0183 -0.0358,-0.0384 -0.0547,-0.0566 0,0 -0.002,-0.002 -0.002,-0.002 -0.0139,-0.0135 -0.0271,-0.0276 -0.041,-0.041 -0.0115,-0.0112 -0.0217,-0.0239 -0.0332,-0.0352 -0.004,-0.004 -0.008,-0.006 -0.0117,-0.01 -0.0228,-0.0221 -0.0435,-0.0464 -0.0664,-0.0684 -0.006,-0.005 -0.0119,-0.0102 -0.0176,-0.0156 -0.0219,-0.0209 -0.0424,-0.0436 -0.0644,-0.0644 -0.0296,-0.0283 -0.0562,-0.0598 -0.0859,-0.0879 -0.0292,-0.028 -0.0565,-0.0581 -0.0859,-0.0859 -0.0264,-0.0257 -0.0516,-0.0526 -0.0781,-0.0781 -0.002,-0.002 -0.004,-0.004 -0.006,-0.006 -0.0356,-0.0341 -0.0696,-0.0697 -0.10547,-0.10352 -0.0219,-0.0209 -0.0424,-0.0436 -0.0645,-0.0644 -0.0401,-0.0385 -0.0787,-0.0791 -0.11914,-0.11719 -0.004,-0.004 -0.006,-0.008 -0.01,-0.0117 l 0,-12.77148 c -0.001,3e-5 -0.003,-4e-5 -0.004,0 l 0,-0.004 c -0.001,4e-5 -0.003,-3e-5 -0.004,0 l 0,-0.004 c -0.002,5e-5 -0.004,-6e-5 -0.006,0 l 0,-0.006 c -0.002,5e-5 -0.004,-6e-5 -0.006,0 l 0,-0.006 c -0.003,8e-5 -0.006,-9e-5 -0.01,0 l 0,-0.01 c -0.003,9e-5 -0.006,-9e-5 -0.01,0 l 0,-0.01 c -0.005,1.2e-4 -0.009,-1.2e-4 -0.0137,0 l 0,-0.0137 c -0.005,1.2e-4 -0.009,-1.2e-4 -0.0137,0 l 0,-0.0137 c -0.005,1.4e-4 -0.0103,-1.4e-4 -0.0156,0 l 0,-0.0156 c -0.005,1.3e-4 -0.0103,-1.4e-4 -0.0156,0 l 0,-0.0156 c -0.007,1.7e-4 -0.0129,0.002 -0.0195,0.002 l 0,-0.0215 c -0.007,1.7e-4 -0.0129,0.002 -0.0195,0.002 l 0,-0.0215 c -0.007,1.9e-4 -0.0142,0.002 -0.0215,0.002 l 0,-0.0234 c -0.009,2.3e-4 -0.0167,0.002 -0.0254,0.002 l 0,-0.0273 c -0.008,2.1e-4 -0.0154,0.002 -0.0234,0.002 l 0,-0.0254 c -0.009,2.4e-4 -0.018,0.002 -0.0273,0.002 l 0,-0.0293 c -0.01,2.6e-4 -0.0193,0.002 -0.0293,0.002 l 0,-0.0312 c -0.01,2.5e-4 -0.0193,0.002 -0.0293,0.002 l 0,-0.0312 c -0.0107,2.7e-4 -0.0206,0.002 -0.0312,0.002 l 0,-0.0332 c -0.0113,2.9e-4 -0.0219,0.002 -0.0332,0.002 l 0,-0.0351 c -0.012,3e-4 -0.0232,0.002 -0.0352,0.002 l 0,-0.0371 c -0.0126,3.2e-4 -0.0245,0.002 -0.0371,0.002 l 0,-0.0391 c -0.0127,3.2e-4 -0.0245,0.002 -0.0371,0.002 l 0,-0.0391 c -0.014,3.6e-4 -0.0271,0.002 -0.041,0.002 l 0,-0.043 c -0.014,3.5e-4 -0.0271,0.002 -0.041,0.002 l 0,-0.043 c -0.0146,3.8e-4 -0.0283,0.002 -0.043,0.002 l 0,-0.0449 c -0.0153,3.9e-4 -0.0296,0.002 -0.0449,0.002 l 0,-0.0469 c -0.016,4.1e-4 -0.0309,0.002 -0.0469,0.002 l 0,-0.0488 c -0.016,4.1e-4 -0.0309,0.002 -0.0469,0.002 l 0,-0.0488 c -0.0166,4.3e-4 -0.0322,0.001 -0.0488,0.002 l 0,-0.0508 c -0.018,4.6e-4 -0.0348,0.003 -0.0527,0.004 l 0,-0.0566 c -0.018,4.6e-4 -0.0348,0.003 -0.0527,0.004 l 0,-0.0566 c -0.018,4.6e-4 -0.0347,0.003 -0.0527,0.004 l 0,-0.0566 c -0.0193,4.9e-4 -0.0373,0.003 -0.0566,0.004 l 0,-0.0605 c -0.02,5.1e-4 -0.0386,0.003 -0.0586,0.004 l 0,-0.0625 c -0.02,5.2e-4 -0.0386,0.003 -0.0586,0.004 l 0,-0.0625 c -0.0207,5.3e-4 -0.0399,0.003 -0.0605,0.004 l 0,-0.0645 c -0.0213,5.5e-4 -0.0412,0.003 -0.0625,0.004 l 0,-0.0664 c -0.022,5.7e-4 -0.0425,0.003 -0.0645,0.004 l 0,-0.0684 c -0.0226,5.8e-4 -0.0438,0.003 -0.0664,0.004 l 0,-0.0703 c -0.0227,5.8e-4 -0.0438,0.003 -0.0664,0.004 l 0,-0.0703 c -0.0233,6e-4 -0.0451,0.003 -0.0684,0.004 l 0,-0.0723 c -0.0246,6.3e-4 -0.0477,0.003 -0.0723,0.004 l 0,-0.0762 c -0.0246,6.3e-4 -0.0477,0.003 -0.0723,0.004 l 0,-0.0762 c -0.0247,6.3e-4 -0.0477,0.003 -0.0723,0.004 l 0,-0.0762 c -0.0259,6.7e-4 -0.0503,0.003 -0.0762,0.004 l 0,-0.0801 c -0.026,6.7e-4 -0.0502,0.003 -0.0762,0.004 l 0,-0.0801 c -0.0273,7e-4 -0.0528,0.003 -0.0801,0.004 l 0,-0.084 c -0.0273,7e-4 -0.0528,0.003 -0.0801,0.004 l 0,-0.084 c -0.028,7.2e-4 -0.0541,0.003 -0.082,0.004 l 0,-0.0859 c -0.0287,7.4e-4 -0.0554,0.005 -0.084,0.006 l 0,-0.0898 c -0.0287,7.3e-4 -0.0554,0.005 -0.084,0.006 l 0,-0.0898 c -0.03,7.7e-4 -0.058,0.005 -0.0879,0.006 l 0,-0.0937 c -0.03,7.7e-4 -0.0579,0.005 -0.0879,0.006 l 0,-0.0937 c -0.0307,7.9e-4 -0.0592,0.005 -0.0898,0.006 l 0,-0.0957 c -0.0313,8e-4 -0.0606,0.005 -0.0918,0.006 l 0,-0.0977 c -0.032,8.2e-4 -0.0618,0.005 -0.0937,0.006 l 0,-0.0996 c -0.0326,8.4e-4 -0.0631,0.005 -0.0957,0.006 l 0,-0.10156 c -0.0327,8.3e-4 -0.0631,0.005 -0.0957,0.006 l 0,-0.10157 c -0.0333,8.6e-4 -0.0644,0.005 -0.0977,0.006 l 0,-0.10351 c -0.034,8.7e-4 -0.0657,0.005 -0.0996,0.006 l 0,-0.10547 c -0.0346,8.9e-4 -0.067,0.005 -0.10156,0.006 l 0,-0.10743 c -0.0353,9.1e-4 -0.0683,0.005 -0.10352,0.006 l 0,-0.10937 c -0.036,9.2e-4 -0.0696,0.005 -0.10547,0.006 l 0,-0.11133 c -0.036,9.2e-4 -0.0696,0.005 -0.10547,0.006 l 0,-0.11133 c -0.0373,9.6e-4 -0.0722,0.005 -0.10937,0.006 l 0,-0.11523 c -0.0373,9.5e-4 -0.0721,0.005 -0.10938,0.006 l 0,-0.11524 c -0.038,9.8e-4 -0.0734,0.005 -0.11132,0.006 l 0,-0.11719 c -0.038,9.8e-4 -0.0735,0.005 -0.11133,0.006 l 0,-0.11719 c -0.0393,10e-4 -0.0761,0.005 -0.11524,0.006 l 0,-0.12109 c -0.0393,0.001 -0.076,0.005 -0.11523,0.006 l 0,-0.12109 c -0.0406,0.001 -0.0786,0.007 -0.11914,0.008 l 0,-0.12695 c -0.0407,10e-4 -0.0786,0.007 -0.11914,0.008 l 0,-0.12695 c -0.0413,0.001 -0.0799,0.007 -0.1211,0.008 l 0,-0.12891 c -0.0413,0.001 -0.0799,0.007 -0.12109,0.008 l 0,-0.1289 c -0.0426,10e-4 -0.0825,0.007 -0.125,0.008 l 0,-0.13281 c -0.0427,0.001 -0.0824,0.007 -0.125,0.008 l 0,-0.13281 c -0.0439,0.001 -0.0851,0.007 -0.12891,0.008 l 0,-0.13672 c -0.044,0.001 -0.085,0.007 -0.1289,0.008 l 0,-0.13671 c -0.0446,0.001 -0.0863,0.007 -0.13086,0.008 l 0,-0.13867 c -0.0447,10e-4 -0.0863,0.007 -0.13086,0.008 l 0,-0.13867 c -0.0459,0.001 -0.0889,0.006 -0.13477,0.008 l 0,-0.14258 c -0.046,0.001 -0.0889,0.006 -0.13476,0.008 l 0,-0.14258 c -0.0473,0.001 -0.0915,0.006 -0.13867,0.008 l 0,-0.14649 c -0.0473,10e-4 -0.0915,0.006 -0.13868,0.008 l 0,-0.14649 c -0.048,0.001 -0.0928,0.006 -0.14062,0.008 l 0,-0.14843 c -0.048,10e-4 -0.0928,0.006 -0.14063,0.008 l 0,-0.14844 c -0.0493,0.001 -0.0954,0.006 -0.14453,0.008 l 0,-0.15234 c -0.0493,0.001 -0.0954,0.006 -0.14453,0.008 l 0,-0.15234 c -0.05,0.001 -0.0967,0.006 -0.14648,0.008 l 0,-0.1543 c -0.0506,0.001 -0.098,0.006 -0.14844,0.008 l 0,-0.15625 c -0.0513,10e-4 -0.0993,0.006 -0.15039,0.008 l 0,-0.1582 c -0.052,0.001 -0.10054,0.008 -0.15235,0.01 l 0,-0.16211 c -0.0526,0.001 -0.10179,0.008 -0.15429,0.01 l 0,-0.16406 c -0.0527,0.001 -0.1018,0.008 -0.1543,0.01 l 0,-0.16406 c -0.0533,0.001 -0.10309,0.008 -0.15625,0.01 l 0,-0.16601 c -0.054,0.001 -0.10438,0.008 -0.1582,0.01 l 0,-0.16796 c -0.0546,0.001 -0.10572,0.008 -0.16016,0.01 l 0,-0.16992 c -0.0553,0.001 -0.10697,0.008 -0.16211,0.01 l 0,-0.17188 c -0.0553,0.001 -0.10697,0.008 -0.16211,0.01 l 0,-0.17188 c -0.0566,0.001 -0.1096,0.008 -0.16601,0.01 l 0,-0.17578 c -0.0566,0.001 -0.10956,0.008 -0.16602,0.01 l 0,-0.17578 c -0.0573,0.001 -0.11085,0.008 -0.16797,0.01 l 0,-0.17773 c -0.058,0.001 -0.11214,0.008 -0.16992,0.01 l 0,-0.17969 c -0.058,0.001 -0.11214,0.008 -0.16992,0.01 l 0,-0.17968 c -0.0593,0.002 -0.11477,0.008 -0.17383,0.01 l 0,-0.18359 c -0.0593,0.002 -0.11473,0.008 -0.17383,0.01 l 0,-0.18359 c -0.0606,0.002 -0.11736,0.008 -0.17773,0.01 l 0,-0.1875 c -0.0606,0.002 -0.11732,0.008 -0.17774,0.01 l 0,-0.1875 c -0.0606,0.002 -0.11731,0.008 -0.17773,0.01 l 0,-0.1875 c -0.0619,0.002 -0.11995,0.008 -0.18164,0.01 l 0,-0.1914 c -0.0627,0.002 -0.12116,0.01 -0.18359,0.0117 l 0,-0.19532 c -0.0627,0.002 -0.12117,0.01 -0.1836,0.0117 l 0,-0.19531 c -0.0633,0.002 -0.12245,0.01 -0.18555,0.0117 l 0,-0.19727 c -0.064,0.002 -0.12374,0.01 -0.1875,0.0117 l 0,-0.19922 c -0.0646,0.002 -0.12504,0.01 -0.18945,0.0117 l 0,-0.20117 c -0.0653,0.002 -0.12633,0.01 -0.1914,0.0117 l 0,-0.20313 c -0.0653,0.002 -0.12634,0.01 -0.19141,0.0117 l 0,-0.20312 c -0.066,0.002 -0.12763,0.01 -0.19336,0.0117 l 0,-0.20508 c -0.0673,0.002 -0.13027,0.01 -0.19727,0.0117 l 0,-0.20899 c -0.0673,0.002 -0.13021,0.01 -0.19726,0.0117 l 0,-0.20898 c -0.0673,0.002 -0.13022,0.01 -0.19727,0.0117 l 0,-0.20899 c -0.0686,0.002 -0.13285,0.01 -0.20117,0.0117 l 0,-0.21289 c -0.0686,0.002 -0.13281,0.01 -0.20117,0.0117 l 0,-0.21289 c -0.0699,0.002 -0.13545,0.01 -0.20508,0.0117 l 0,-0.2168 c -0.07,0.002 -0.13539,0.01 -0.20508,0.0117 l 0,-0.2168 c -0.0706,0.002 -0.13669,0.01 -0.20703,0.0117 l 0,-0.21875 c -0.0713,0.002 -0.13798,0.01 -0.20898,0.0117 l 0,-0.2207 c -0.0713,0.002 -0.13799,0.01 -0.20899,0.0117 l 0,-0.2207 c -0.0726,0.002 -0.14062,0.009 -0.21289,0.0117 l 0,-0.22461 c -0.0726,0.002 -0.14057,0.009 -0.21289,0.0117 l 0,-0.22461 c -0.0733,0.002 -0.14187,0.009 -0.21484,0.0117 l 0,-0.22656 c -0.0739,0.002 -0.14316,0.009 -0.2168,0.0117 l 0,-0.22851 c -0.0746,0.002 -0.14441,0.0113 -0.21875,0.0137 l 0,-0.23242 c -0.0753,0.002 -0.14571,0.0113 -0.2207,0.0137 l 0,-0.23437 c -0.0753,0.002 -0.14571,0.0113 -0.22071,0.0137 l 0,-0.23438 c -0.076,0.002 -0.147,0.0113 -0.22265,0.0137 l 0,-0.23632 c -0.0766,0.002 -0.14836,0.0113 -0.22461,0.0137 l 0,-0.23828 c -0.0773,0.002 -0.14965,0.0112 -0.22656,0.0137 l 0,-0.24024 c -0.0779,0.002 -0.15095,0.0112 -0.22852,0.0137 l 0,-0.24219 c -0.0786,0.002 -0.15218,0.0112 -0.23047,0.0137 l 0,-0.24414 c -0.0786,0.002 -0.15218,0.0112 -0.23047,0.0137 l 0,-0.24414 c -0.0793,0.002 -0.15347,0.0112 -0.23242,0.0137 l 0,-0.24609 c -0.0806,0.002 -0.15613,0.0111 -0.23633,0.0137 l 0,-0.25 c -0.0806,0.002 -0.15607,0.0111 -0.23632,0.0137 l 0,-0.25 c -0.0806,0.002 -0.15608,0.0111 -0.23633,0.0137 l 0,-0.25 c -0.0819,0.002 -0.15872,0.0111 -0.24024,0.0137 l 0,-0.25391 c -0.082,0.002 -0.15866,0.0111 -0.24023,0.0137 l 0,-0.2539 c -0.0832,0.002 -0.16131,0.011 -0.24414,0.0137 l 0,-0.25781 c -0.0833,0.002 -0.16125,0.011 -0.24414,0.0137 l 0,-0.25781 c -0.0839,0.002 -0.16255,0.011 -0.2461,0.0137 l 0,-0.25977 c -0.0839,0.002 -0.16254,0.011 -0.24609,0.0137 l 0,-0.25976 c -0.0852,0.002 -0.1652,0.0109 -0.25,0.0137 l 0,-0.26367 c -0.0853,0.002 -0.1651,0.0129 -0.25,0.0156 l 0,-0.26562 c -0.0866,0.002 -0.16775,0.0128 -0.25391,0.0156 l 0,-0.26953 c -0.0866,0.002 -0.16769,0.0128 -0.2539,0.0156 l 0,-0.26953 c -0.0873,0.002 -0.16899,0.0128 -0.25586,0.0156 l 0,-0.27148 c -0.0873,0.002 -0.16899,0.0128 -0.25586,0.0156 l 0,-0.27148 c -0.0886,0.002 -0.17164,0.0128 -0.25977,0.0156 l 0,-0.27539 c -0.0886,0.002 -0.17157,0.0128 -0.25976,0.0156 l 0,-0.2754 c -0.0899,0.002 -0.17424,0.0127 -0.26367,0.0156 l 0,-0.2793 c -0.09,0.002 -0.17417,0.0127 -0.26368,0.0156 l 0,-0.2793 c -0.09,0.002 -0.17417,0.0127 -0.26367,0.0156 l 0,-0.2793 c -0.0912,0.002 -0.17682,0.0127 -0.26758,0.0156 l 0,-0.2832 c -0.0919,0.002 -0.17805,0.0126 -0.26953,0.0156 l 0,-0.28516 c -0.0919,0.002 -0.17805,0.0126 -0.26953,0.0156 l 0,-0.28515 c -0.0926,0.002 -0.17935,0.0126 -0.27148,0.0156 l 0,-0.28711 c -0.0932,0.002 -0.18072,0.0126 -0.27344,0.0156 l 0,-0.28906 c -0.0939,0.002 -0.18201,0.0126 -0.27539,0.0156 l 0,-0.29101 c -0.0945,0.002 -0.18331,0.0125 -0.27735,0.0156 l 0,-0.29297 c -0.0953,0.002 -0.18453,0.0125 -0.27929,0.0156 l 0,-0.29492 c -0.0953,0.002 -0.18454,0.0125 -0.2793,0.0156 l 0,-0.29492 c -0.0959,0.002 -0.18583,0.0125 -0.28125,0.0156 l 0,-0.29687 c -0.0966,0.002 -0.18712,0.0125 -0.2832,0.0156 l 0,-0.29882 c -0.0973,0.002 -0.18842,0.0124 -0.28516,0.0156 l 0,-0.30078 c -0.098,0.003 -0.18968,0.0143 -0.28711,0.0176 l 0,-0.30469 c -0.098,0.003 -0.18968,0.0144 -0.28711,0.0176 l 0,-0.30469 c -0.0992,0.003 -0.19234,0.0143 -0.29101,0.0176 l 0,-0.30859 c -0.0993,0.003 -0.19228,0.0143 -0.29102,0.0176 l 0,-0.30859 c -0.1,0.003 -0.19357,0.0143 -0.29297,0.0176 l 0,-0.31055 c -0.10062,0.003 -0.19487,0.0142 -0.29492,0.0176 l 0,-0.3125 c -0.10062,0.003 -0.19487,0.0142 -0.29492,0.0176 l 0,-0.3125 c -0.10188,0.003 -0.19753,0.0142 -0.29883,0.0176 l 0,-0.3164 c -0.10195,0.003 -0.19746,0.0142 -0.29883,0.0176 l 0,-0.31641 c -0.10254,0.003 -0.19883,0.0142 -0.30078,0.0176 l 0,-0.31836 c -0.1032,0.003 -0.20013,0.0141 -0.30273,0.0176 l 0,-0.32031 c -0.10387,0.003 -0.20143,0.0141 -0.30469,0.0176 l 0,-0.32226 c -0.10453,0.003 -0.20272,0.0141 -0.30664,0.0176 l 0,-0.32422 c -0.10461,0.003 -0.20265,0.0141 -0.30664,0.0176 l 0,-0.32421 c -0.10586,0.003 -0.20532,0.014 -0.31055,0.0176 l 0,-0.32812 c -0.10593,0.003 -0.20524,0.014 -0.31055,0.0176 l 0,-0.32813 c -0.10659,0.003 -0.20653,0.014 -0.3125,0.0176 l 0,-0.33008 c -0.10726,0.003 -0.20783,0.014 -0.31445,0.0176 l 0,-0.33203 c -0.10726,0.003 -0.20783,0.014 -0.31445,0.0176 l 0,-0.33203 c -0.10851,0.003 -0.21051,0.0139 -0.31836,0.0176 l 0,-0.33593 c -0.10863,0.003 -0.21039,0.0159 -0.31836,0.0195 l 0,-0.33789 c -0.10921,0.003 -0.21177,0.0158 -0.32031,0.0195 l 0,-0.33984 c -0.10988,0.003 -0.21307,0.0158 -0.32227,0.0195 l 0,-0.3418 c -0.11054,0.003 -0.21436,0.0158 -0.32422,0.0195 l 0,-0.34375 c -0.1112,0.003 -0.21566,0.0158 -0.32617,0.0195 l 0,-0.3457 c -0.11128,0.003 -0.21558,0.0157 -0.32617,0.0195 l 0,-0.3457 c -0.11253,0.003 -0.21826,0.0157 -0.33008,0.0195 l 0,-0.34961 c -0.11261,0.003 -0.21817,0.0157 -0.33008,0.0195 l 0,-0.34961 c -0.11327,0.003 -0.21947,0.0157 -0.33203,0.0195 l 0,-0.35156 c -0.11394,0.003 -0.22077,0.0156 -0.33398,0.0195 l 0,-0.35351 c -0.11394,0.003 -0.22077,0.0156 -0.33399,0.0195 l 0,-0.35352 c -0.11518,0.003 -0.22344,0.0156 -0.33789,0.0195 l 0,-0.35742 c -0.11527,0.003 -0.22336,0.0156 -0.33789,0.0195 l 0,-0.35742 c -0.11593,0.003 -0.22466,0.0156 -0.33984,0.0195 l 0,-0.35937 c -0.1166,0.003 -0.22596,0.0155 -0.3418,0.0195 l 0,-0.36133 c -0.11726,0.003 -0.22726,0.0155 -0.34375,0.0195 l 0,-0.36328 c -0.11726,0.003 -0.22726,0.0155 -0.34375,0.0195 l 0,-0.36328 c -0.1185,0.003 -0.22994,0.0154 -0.34766,0.0195 l 0,-0.36719 c -0.11858,0.003 -0.22985,0.0154 -0.34765,0.0195 l 0,-0.36718 c -0.11917,0.003 -0.23124,0.0154 -0.34961,0.0195 l 0,-0.36914 c -0.11983,0.003 -0.23253,0.0154 -0.35156,0.0195 l 0,-0.3711 c -0.12054,0.003 -0.2338,0.0173 -0.35352,0.0215 l 0,-0.375 c -0.12128,0.003 -0.23501,0.0173 -0.35547,0.0215 l 0,-0.37695 c -0.12128,0.003 -0.235,0.0173 -0.35547,0.0215 l 0,-0.37695 c -0.12195,0.003 -0.2363,0.0172 -0.35742,0.0215 l 0,-0.37891 c -0.12252,0.003 -0.23769,0.0172 -0.35937,0.0215 l 0,-0.38086 c -0.12319,0.003 -0.23899,0.0172 -0.36133,0.0215 l 0,-0.38281 c -0.12385,0.003 -0.24029,0.0172 -0.36328,0.0215 l 0,-0.38477 c -0.12461,0.003 -0.24149,0.0171 -0.36524,0.0215 l 0,-0.38672 c -0.1246,0.003 -0.24149,0.0171 -0.36523,0.0215 l 0,-0.38672 c -0.12528,0.003 -0.24279,0.0171 -0.36719,0.0215 l 0,-0.38867 c -0.12651,0.003 -0.24548,0.017 -0.37109,0.0215 l 0,-0.39257 c -0.12594,0.003 -0.2441,0.0171 -0.36914,0.0215 l 0,-0.39063 c -0.12717,0.003 -0.24678,0.017 -0.37305,0.0215 l 0,-0.39453 c -0.12783,0.003 -0.24808,0.017 -0.375,0.0215 l 0,-0.39648 c -0.12793,0.003 -0.24799,0.017 -0.375,0.0215 l 0,-0.39648 c -0.1285,0.003 -0.24938,0.017 -0.37695,0.0215 l 0,-0.39844 c -0.12983,0.003 -0.25198,0.0169 -0.38086,0.0215 l 0,-0.40234 c -0.12926,0.003 -0.25059,0.0169 -0.37891,0.0215 l 0,-0.40039 c -0.13049,0.003 -0.25327,0.0169 -0.38281,0.0215 l 0,-0.40429 c -0.13125,0.003 -0.25448,0.0168 -0.38477,0.0215 l 0,-0.40625 c -0.13128,0.003 -0.25444,0.0188 -0.38476,0.0234 l 0,-0.40821 c -0.13196,0.003 -0.25574,0.0188 -0.38672,0.0234 l 0,-0.41015 c -0.13252,0.003 -0.25714,0.0187 -0.38867,0.0234 l 0,-0.41211 c -0.13318,0.003 -0.25844,0.0187 -0.39063,0.0234 l 0,-0.41406 c -0.13384,0.003 -0.25973,0.0187 -0.39258,0.0234 l 0,-0.41602 c -0.1346,0.003 -0.26093,0.0186 -0.39453,0.0234 l 0,-0.41797 c -0.1346,0.003 -0.26094,0.0186 -0.39453,0.0234 l 0,-0.41797 c -0.13527,0.003 -0.26224,0.0186 -0.39648,0.0234 l 0,-0.41993 c -0.13584,0.003 -0.26364,0.0186 -0.39844,0.0234 l 0,-0.42187 c -0.1365,0.003 -0.26493,0.0185 -0.40039,0.0234 l 0,-0.42382 c -0.13727,0.004 -0.26613,0.0185 -0.40235,0.0234 l 0,-0.42578 c -0.13726,0.004 -0.26613,0.0185 -0.40234,0.0234 l 0,-0.42578 c -0.13849,0.004 -0.26883,0.0185 -0.40625,0.0234 l 0,-0.42969 c -0.13859,0.004 -0.26873,0.0185 -0.40625,0.0234 l 0,-0.42969 c -0.13925,0.004 -0.27003,0.0184 -0.4082,0.0234 l 0,-0.43164 c -0.13992,0.004 -0.27133,0.0184 -0.41016,0.0234 l 0,-0.43359 c -0.14058,0.004 -0.27263,0.0184 -0.41211,0.0234 l 0,-0.43555 c -0.14058,0.004 -0.27263,0.0184 -0.41211,0.0234 l 0,-0.43555 c -0.14191,0.004 -0.27522,0.0183 -0.41601,0.0234 l 0,-0.43945 c -0.14195,0.004 -0.27519,0.0202 -0.41602,0.0254 l 0,-0.44141 c -0.14261,0.004 -0.27649,0.0202 -0.41797,0.0254 l 0,-0.44336 c -0.14327,0.004 -0.27779,0.0202 -0.41992,0.0254 l 0,-0.44531 c -0.14328,0.004 -0.27779,0.0202 -0.41992,0.0254 l 0,-0.44531 c -0.1445,0.004 -0.28049,0.0201 -0.42383,0.0254 l 0,-0.44922 c -0.1446,0.004 -0.28039,0.0201 -0.42383,0.0254 l 0,-0.44922 c -0.14527,0.004 -0.28168,0.0201 -0.42578,0.0254 l 0,-0.45117 c -0.14583,0.004 -0.28309,0.0201 -0.42773,0.0254 l 0,-0.45312 c -0.14649,0.004 -0.28439,0.02 -0.42969,0.0254 l 0,-0.45508 c -0.14727,0.004 -0.28558,0.02 -0.43164,0.0254 l 0,-0.45703 c -0.14726,0.004 -0.28559,0.02 -0.43164,0.0254 l 0,-0.45703 c -0.14848,0.004 -0.28829,0.0199 -0.43555,0.0254 l 0,-0.46094 c -0.14859,0.004 -0.28819,0.0199 -0.43555,0.0254 l 0,-0.46094 c -0.14925,0.004 -0.28948,0.0199 -0.4375,0.0254 l 0,-0.46289 c -0.14991,0.004 -0.29078,0.0199 -0.43945,0.0254 l 0,-0.46484 c -0.14991,0.004 -0.29079,0.0199 -0.43945,0.0254 l 0,-0.46484 c -0.15114,0.004 -0.2935,0.0198 -0.44336,0.0254 l 0,-0.46875 c -0.15125,0.004 -0.29339,0.0198 -0.44336,0.0254 l 0,-0.46875 c -0.15192,0.004 -0.29468,0.0198 -0.44531,0.0254 l 0,-0.4707 c -0.15247,0.004 -0.2961,0.0198 -0.44727,0.0254 l 0,-0.47266 c -0.15313,0.004 -0.2974,0.0197 -0.44922,0.0254 l 0,-0.47461 c -0.15391,0.004 -0.29858,0.0197 -0.45117,0.0254 l 0,-0.476561 c -0.15394,0.004 -0.29855,0.02163 -0.45117,0.02734 l 0,-0.478515 c -0.15516,0.004 -0.30126,0.02157 -0.45508,0.02734 l 0,-0.482422 c -0.15527,0.004 -0.30115,0.02157 -0.45508,0.02734 l 0,-0.482421 c -0.15593,0.004 -0.30245,0.02154 -0.45703,0.02734 l 0,-0.484375 c -0.15593,0.004 -0.30245,0.02154 -0.45703,0.02734 l 0,-0.484375 c -0.15715,0.004 -0.30516,0.02148 -0.46094,0.02734 l 0,-0.488281 c -0.15793,0.0041 -0.30634,0.02144 -0.46289,0.02734 l 0,-0.490234 c -0.15792,0.0041 -0.30635,0.02144 -0.46289,0.02734 l 0,-0.490235 c -0.15859,0.0041 -0.30765,0.02141 -0.46484,0.02734 l 0,-0.492187 c -0.15925,0.0041 -0.30896,0.02137 -0.4668,0.02734 l 0,-0.49414 c -0.15992,0.0041 -0.31026,0.02134 -0.46875,0.02734 l 0,-0.496093 c -0.15992,0.0041 -0.31026,0.02134 -0.46875,0.02734 l 0,-0.496093 c -0.16113,0.0041 -0.31297,0.02128 -0.47266,0.02734 l 0,-0.5 c -0.16124,0.0041 -0.31285,0.02128 -0.47265,0.02734 l 0,-0.5 c -0.16192,0.0042 -0.31415,0.02124 -0.47461,0.02734 l 0,-0.501953 c -0.16258,0.0042 -0.31545,0.02121 -0.47656,0.02734 l 0,-0.503907 c -0.16325,0.0042 -0.31676,0.02118 -0.47852,0.02734 l 0,-0.505859 c -0.1639,0.0042 -0.31806,0.02114 -0.48047,0.02734 l 0,-0.507812 c -0.1639,0.0042 -0.31806,0.02114 -0.48047,0.02734 l 0,-0.507813 c -0.1646,0.0042 -0.31932,0.02306 -0.48242,0.0293 l 0,-0.511719 c -0.16511,0.0042 -0.32078,0.02108 -0.48437,0.02734 l 0,-0.511719 c -0.16578,0.0043 -0.32208,0.02105 -0.48633,0.02734 l 0,-0.513672 c -0.16648,0.0043 -0.32335,0.02297 -0.48828,0.0293 l 0,-0.517578 c -0.16726,0.0043 -0.32453,0.02293 -0.49024,0.0293 l 0,-0.519531 c -0.16726,0.0043 -0.32453,0.02293 -0.49023,0.0293 l 0,-0.519532 c -0.16793,0.0043 -0.32583,0.0229 -0.49219,0.0293 l 0,-0.521484 c -0.16847,0.0043 -0.32725,0.02287 -0.49414,0.0293 l 0,-0.523438 c -0.16913,0.0043 -0.32855,0.02283 -0.49609,0.0293 l 0,-0.525391 c -0.1698,0.0044 -0.32986,0.0228 -0.49805,0.0293 l 0,-0.527343 c -0.17059,0.0044 -0.33103,0.02276 -0.5,0.0293 l 0,-0.529296 c -0.17058,0.0044 -0.33104,0.02276 -0.5,0.0293 l 0,-0.529296 c -0.17124,0.0044 -0.33234,0.02273 -0.50195,0.0293 l 0,-0.53125 c -0.17179,0.0044 -0.33376,0.0227 -0.50391,0.0293 l 0,-0.533203 c -0.17245,0.0044 -0.33506,0.02267 -0.50586,0.0293 l 0,-0.535156 c -0.17311,0.0044 -0.33636,0.02263 -0.50781,0.0293 l 0,-0.53711 c -0.1739,0.0045 -0.33755,0.02259 -0.50977,0.0293 l 0,-0.539062 c -0.1739,0.0045 -0.33754,0.02259 -0.50976,0.0293 l 0,-0.539063 c -0.17457,0.0045 -0.33885,0.02256 -0.51172,0.0293 l 0,-0.541016 c -0.1751,0.0045 -0.34027,0.02253 -0.51367,0.0293 l 0,-0.542969 c -0.17577,0.0045 -0.34158,0.02249 -0.51563,0.0293 l 0,-0.544922 c -0.17656,0.0045 -0.34274,0.02245 -0.51758,0.0293 l 0,-0.546875 c -0.17659,0.0045 -0.34271,0.02441 -0.51757,0.03125 l 0,-0.548828 c -0.1778,0.0046 -0.34545,0.02434 -0.52149,0.03125 l 0,-0.552734 c -0.17792,0.0046 -0.34532,0.02434 -0.52148,0.03125 l 0,-0.552735 c -0.1786,0.0046 -0.34661,0.0243 -0.52344,0.03125 l 0,-0.554687 c -0.17926,0.0046 -0.34791,0.02427 -0.52539,0.03125 l 0,-0.556641 c -0.17992,0.0046 -0.34922,0.02423 -0.52735,0.03125 l 0,-0.558594 c -0.17991,0.0046 -0.34922,0.02423 -0.52734,0.03125 l 0,-0.558593 c -0.18111,0.0046 -0.35195,0.02417 -0.53125,0.03125 l 0,-0.5625 c -0.18124,0.0047 -0.35183,0.02416 -0.53125,0.03125 l 0,-0.5625 c -0.18191,0.0047 -0.35313,0.02413 -0.5332,0.03125 l 0,-0.564453 c -0.18257,0.0047 -0.35443,0.02409 -0.53516,0.03125 l 0,-0.566407 c -0.18257,0.0047 -0.35443,0.02409 -0.53515,0.03125 l 0,-0.566406 c -0.18377,0.0047 -0.35717,0.02403 -0.53907,0.03125 l 0,-0.570312 c -0.1839,0.0047 -0.35703,0.02402 -0.53906,0.03125 l 0,-0.570313 c -0.18509,0.0048 -0.35977,0.02396 -0.54297,0.03125 l 0,-0.574219 c -0.18523,0.0048 -0.35964,0.02395 -0.54297,0.03125 l 0,-0.574218 c -0.18523,0.0048 -0.35964,0.02395 -0.54297,0.03125 l 0,-0.574219 c -0.18642,0.0048 -0.36237,0.02389 -0.54687,0.03125 l 0,-0.578125 c -0.18723,0.0048 -0.36354,0.02385 -0.54883,0.03125 l 0,-0.580078 c -0.18726,0.0048 -0.36351,0.0258 -0.54883,0.0332 l 0,-0.582031 c -0.18792,0.0048 -0.36481,0.02576 -0.55078,0.0332 l 0,-0.583985 c -0.18856,0.0048 -0.36615,0.02378 -0.55273,0.03125 l 0,-0.583984 c -0.18926,0.0049 -0.36741,0.02569 -0.55469,0.0332 l 0,-0.58789 c -0.18992,0.0049 -0.36872,0.02566 -0.55664,0.0332 l 0,-0.589844 c -0.18992,0.0049 -0.36872,0.02566 -0.55664,0.0332 l 0,-0.589844 c -0.19125,0.0049 -0.37132,0.02558 -0.56055,0.0332 l 0,-0.59375 c -0.19124,0.0049 -0.37133,0.02558 -0.56055,0.0332 l 0,-0.59375 c -0.1919,0.0049 -0.37263,0.02555 -0.5625,0.0332 l 0,-0.595704 c -0.19257,0.0049 -0.37393,0.02551 -0.56445,0.0332 l 0,-0.597657 c -0.19257,0.0049 -0.37393,0.02551 -0.56445,0.0332 l 0,-0.597656 c -0.19391,0.005 -0.37653,0.02544 -0.56836,0.0332 l 0,-0.601562 c -3.46399,0.08891 -6.58604,0.6293 -9.70508,1.435547 -0.0383,-0.03795 -0.0787,-0.07353 -0.11719,-0.111328 -0.18074,-0.184797 -0.3647,-0.36566 -0.54882,-0.546875 -0.18511,-0.189487 -0.3719,-0.376773 -0.56055,-0.5625 -7.24786,-7.422222 -17.23199,-11.990235 -28.476564,-11.990235 z"
       id="path5814"
       clip-path="url(#clipPath4875)"
       inkscape:connector-curvature="0"
       transform="matrix(1.0993385,0,0,1.0993385,-9.4486408,-9.260327)" />
    <path
       id="path5566"
       d="m 96.029297,50.841797 c -11.857187,0 -22.319231,5.072046 -29.642578,13.224609 -3.139088,-0.814899 -6.278146,-1.358539 -9.765625,-1.449218 l 0,13.404296 C 51.73767,79.102109 48.25,84.807386 48.25,91.238281 c 0,6.341412 3.488863,12.047439 8.371094,15.218749 2.092726,19.65419 18.832916,34.96289 39.408203,34.96289 20.228083,0 36.967063,-15.03685 39.058593,-34.60156 l 0.34961,-0.35938 c 4.88104,-3.17131 8.36914,-8.786657 8.36914,-15.218746 0,-6.432088 -3.4881,-12.136531 -8.36914,-15.30664 l 0,-13.316406 c -3.48629,0.08948 -6.62653,0.634319 -9.76562,1.449218 -7.32335,-8.151369 -17.78421,-13.224609 -29.642583,-13.224609 z m 0,7.427734 c 8.369703,0 16.389743,3.261502 21.968753,8.605469 -1.39475,0.723028 -2.78763,1.447581 -3.83399,2.263672 -5.5814,-2.808595 -11.50701,-4.439453 -18.134763,-4.439453 -6.626566,0 -12.554562,1.630858 -18.134766,4.439453 -1.047556,-0.816091 -2.790335,-1.631394 -3.83789,-2.171875 5.581397,-5.435837 13.602947,-8.697266 21.972656,-8.697266 z M 64.291016,71.220703 c 5.231814,1.269475 9.766454,3.713824 13.603515,6.974609 5.231814,-3.623492 11.507007,-5.705078 18.134766,-5.705078 6.626563,0 12.904913,2.081586 18.136723,5.705078 3.83348,-3.260785 8.36972,-5.614457 13.25195,-6.974609 l 0,31.068357 c 0,17.48273 -13.95129,31.43164 -31.388673,31.43164 -17.436198,0 -31.738281,-13.94899 -31.738281,-31.33984 l 0,-31.160157 z m 9.171875,30.611327 c -0.93201,-0.002 -1.498047,0.004 -1.498047,0.004 0.349583,1.6298 -1.52e-4,6.24916 5.230468,9.14844 0.699166,0.45218 2.790087,1.17687 4.882813,1.26757 4.882231,0.18133 11.857422,0.27149 11.857422,0.27149 -1.39356,-5.52532 -3.485231,-9.6892 -7.671875,-10.14258 -3.921176,-0.47518 -10.004751,-0.54416 -12.800781,-0.54883 z m 45.132809,0.002 c -2.79558,0.004 -8.87797,0.0717 -12.80273,0.54688 -4.53384,0.45338 -6.277557,4.61801 -7.669923,10.14453 0,0 6.975193,-0.0913 11.857423,-0.27148 2.09154,-0.0919 4.18484,-0.81734 4.88281,-1.26953 5.23062,-2.89928 4.88208,-7.5167 5.23047,-9.14649 0,0 -0.56619,-0.005 -1.49805,-0.004 z m -32.332028,14.85743 c 2.790699,2.62843 5.929757,4.62039 9.765625,5.88867 3.487478,-1.26828 6.975363,-3.26143 9.763673,-5.88867 l -19.529298,0 z m 2.441406,7.51757 c 0,0 -0.698511,0.27132 -1.396484,1.26758 -0.34839,0.81609 -0.695313,1.8125 -0.695313,1.8125 2.789506,1.63099 5.929731,2.53711 9.416016,2.53711 3.487478,0 6.627243,-0.90612 9.068363,-2.53711 0,0 -7.9e-4,-0.7229 -0.35157,-1.63086 -0.69797,-1.08693 -1.39453,-1.44922 -1.39453,-1.44922 -2.44112,0.63235 -4.884294,0.9961 -7.324216,0.9961 -2.442309,0 -5.229541,-0.36375 -7.322266,-0.9961 z"
       style="fill:#fffdff;fill-opacity:1;filter:url(#filter4860)"
       inkscape:connector-curvature="0"
       transform="matrix(1.0993385,0,0,1.0993385,-9.4486408,-9.260327)" />
    <path
       inkscape:connector-curvature="0"
       style="fill:#000000;fill-opacity:1;opacity:0.2"
       d="m 96.029297,50.841797 c -11.857187,0 -22.319231,5.072046 -29.642578,13.224609 -3.139088,-0.814899 -6.278146,-1.358539 -9.765625,-1.449218 l 0,13.404296 C 51.73767,79.102109 48.25,84.807386 48.25,91.238281 c 0,6.341412 3.488863,12.047439 8.371094,15.218749 2.092726,19.65419 18.832916,34.96289 39.408203,34.96289 20.228083,0 36.967063,-15.03685 39.058593,-34.60156 l 0.34961,-0.35938 c 4.88104,-3.17131 8.36914,-8.786657 8.36914,-15.218746 0,-6.432088 -3.4881,-12.136531 -8.36914,-15.30664 l 0,-13.316406 c -3.48629,0.08948 -6.62653,0.634319 -9.76562,1.449218 -7.32335,-8.151369 -17.78421,-13.224609 -29.642583,-13.224609 z m 0,7.427734 c 8.369703,0 16.389743,3.261502 21.968753,8.605469 -1.39475,0.723028 -2.78763,1.447581 -3.83399,2.263672 -5.5814,-2.808595 -11.50701,-4.439453 -18.134763,-4.439453 -6.626566,0 -12.554562,1.630858 -18.134766,4.439453 -1.047556,-0.816091 -2.790335,-1.631394 -3.83789,-2.171875 5.581397,-5.435837 13.602947,-8.697266 21.972656,-8.697266 z M 64.291016,71.220703 c 5.231814,1.269475 9.766454,3.713824 13.603515,6.974609 5.231814,-3.623492 11.507007,-5.705078 18.134766,-5.705078 6.626563,0 12.904913,2.081586 18.136723,5.705078 3.83348,-3.260785 8.36972,-5.614457 13.25195,-6.974609 l 0,31.068357 c 0,17.48273 -13.95129,31.43164 -31.388673,31.43164 -17.436198,0 -31.738281,-13.94899 -31.738281,-31.33984 l 0,-31.160157 z m 9.171875,30.611327 c -0.93201,-0.002 -1.498047,0.004 -1.498047,0.004 0.349583,1.6298 -1.52e-4,6.24916 5.230468,9.14844 0.699166,0.45218 2.790087,1.17687 4.882813,1.26757 4.882231,0.18133 11.857422,0.27149 11.857422,0.27149 -1.39356,-5.52532 -3.485231,-9.6892 -7.671875,-10.14258 -3.921176,-0.47518 -10.004751,-0.54416 -12.800781,-0.54883 z m 45.132809,0.002 c -2.79558,0.004 -8.87797,0.0717 -12.80273,0.54688 -4.53384,0.45338 -6.277557,4.61801 -7.669923,10.14453 0,0 6.975193,-0.0913 11.857423,-0.27148 2.09154,-0.0919 4.18484,-0.81734 4.88281,-1.26953 5.23062,-2.89928 4.88208,-7.5167 5.23047,-9.14649 0,0 -0.56619,-0.005 -1.49805,-0.004 z m -32.332028,14.85743 c 2.790699,2.62843 5.929757,4.62039 9.765625,5.88867 3.487478,-1.26828 6.975363,-3.26143 9.763673,-5.88867 l -19.529298,0 z m 2.441406,7.51757 c 0,0 -0.698511,0.27132 -1.396484,1.26758 -0.34839,0.81609 -0.695313,1.8125 -0.695313,1.8125 2.789506,1.63099 5.929731,2.53711 9.416016,2.53711 3.487478,0 6.627243,-0.90612 9.068363,-2.53711 0,0 -7.9e-4,-0.7229 -0.35157,-1.63086 -0.69797,-1.08693 -1.39453,-1.44922 -1.39453,-1.44922 -2.44112,0.63235 -4.884294,0.9961 -7.324216,0.9961 -2.442309,0 -5.229541,-0.36375 -7.322266,-0.9961 z"
       id="path4883"
       transform="matrix(1.0993385,0,0,1.0993385,-9.4486408,-9.260327)" />
    <path
       id="path4885"
       d="m 96.120063,46.632018 c -13.035063,0 -24.53639,5.520462 -32.587228,14.393787 -3.45092,-0.886944 -6.901807,-1.478647 -10.735727,-1.577342 l 0,14.58936 c -5.368536,3.35298 -9.202666,9.562657 -9.202666,16.562102 0,6.902052 3.835441,13.112545 9.202666,16.564225 2.300614,21.39181 20.703749,38.05394 43.322955,38.05394 22.237507,0 40.639317,-16.36625 42.938617,-37.66066 l 0.38434,-0.39115 c 5.36591,-3.45169 9.20052,-9.563484 9.20052,-16.564229 0,-7.000744 -3.83461,-13.209513 -9.20052,-16.659889 l 0,-14.493699 c -3.83262,0.09739 -7.2848,0.690398 -10.73572,1.577342 -8.05085,-8.872026 -19.55087,-14.393787 -32.587237,-14.393787 z m 0,8.084414 c 9.201137,0 18.017877,3.549849 24.151097,9.366273 -1.5333,0.78695 -3.06455,1.57556 -4.21485,2.463801 -6.13585,-3.056901 -12.6501,-4.831942 -19.936247,-4.831942 -7.28484,0 -13.801714,1.775041 -19.936247,4.831942 -1.151619,-0.888241 -3.067523,-1.775624 -4.21914,-2.363889 6.135844,-5.916415 14.954243,-9.466185 24.155387,-9.466185 z M 61.228948,68.812608 c 5.751535,1.381708 10.736639,4.04216 14.954868,7.591229 5.751535,-3.943842 12.650096,-6.20946 19.936247,-6.20946 7.284837,0 14.186867,2.265618 19.938397,6.20946 4.21429,-3.549069 9.20116,-6.110827 14.56838,-7.591229 l 0,33.815092 c 0,19.02836 -15.33719,34.21048 -34.506777,34.21048 -19.168284,0 -34.891115,-15.18221 -34.891115,-34.11057 l 0,-33.915002 z m 10.082996,33.317652 c -1.024595,-0.002 -1.646861,0.004 -1.646861,0.004 0.38431,1.77389 -1.67e-4,6.80165 5.750055,9.95725 0.76862,0.49216 3.06725,1.28092 5.367864,1.37964 5.367225,0.19736 13.035321,0.29549 13.035321,0.29549 -1.531995,-6.01381 -3.831449,-10.54582 -8.433988,-11.03928 -4.3107,-0.51719 -10.998608,-0.59227 -14.072391,-0.59735 z m 49.616236,0.002 c -3.07329,0.004 -9.7599,0.078 -14.07454,0.59523 -4.98422,0.49346 -6.901156,5.02628 -8.431837,11.0414 0,0 7.668097,-0.0994 13.035317,-0.29548 2.29931,-0.10003 4.60056,-0.88961 5.36787,-1.38177 5.75022,-3.15561 5.36705,-8.18125 5.75005,-9.95513 0,0 -0.62243,-0.005 -1.64686,-0.004 z M 85.384335,118.3034 c 3.067923,2.86081 6.51881,5.02888 10.735728,6.40928 3.833918,-1.3804 7.668287,-3.54977 10.733577,-6.40928 l -21.469305,0 z m 2.683932,8.18219 c 0,0 -0.7679,0.29531 -1.535209,1.37965 -0.382999,0.88824 -0.764384,1.97274 -0.764384,1.97274 3.066611,1.77519 6.518781,2.76142 10.351389,2.76142 3.833918,0 7.285587,-0.98623 9.969197,-2.76142 0,0 -8.7e-4,-0.78681 -0.38649,-1.77504 -0.76731,-1.18303 -1.53306,-1.57735 -1.53306,-1.57735 -2.68362,0.68826 -5.369494,1.08417 -8.051794,1.08417 -2.684925,0 -5.749036,-0.39591 -8.049649,-1.08417 z"
       style="opacity:1;fill:#ffffff;fill-opacity:1"
       inkscape:connector-curvature="0" />
    <path
       inkscape:connector-curvature="0"
       style="opacity:1;fill:#f2f2f2;fill-opacity:1"
       d="m 96.120063,47.632018 c -13.035063,0 -24.53639,5.464466 -32.587228,14.247785 -3.45092,-0.877948 -6.901807,-1.463649 -10.735727,-1.561343 l 0,14.441374 c -5.368536,3.31897 -9.202666,9.465659 -9.202666,16.394106 0,6.832042 3.835441,12.97954 9.202666,16.39621 2.300614,21.17482 20.703749,37.66794 43.322955,37.66794 22.237507,0 40.639317,-16.20024 42.938617,-37.27865 l 0.38434,-0.38718 c 5.36591,-3.41668 9.20052,-9.466482 9.20052,-16.396216 0,-6.929732 -3.83461,-13.075523 -9.20052,-16.4909 l 0,-14.346684 c -3.83262,0.0964 -7.2848,0.683395 -10.73572,1.561343 -8.05085,-8.782034 -19.55087,-14.247785 -32.587237,-14.247785 z m 0,8.00241 c 9.201137,0 18.017877,3.513842 24.151097,9.271267 -1.5333,0.778968 -3.06455,1.559579 -4.21485,2.43881 -6.13585,-3.025894 -12.6501,-4.78293 -19.936247,-4.78293 -7.28484,0 -13.801714,1.757036 -19.936247,4.78293 -1.151619,-0.879231 -3.067523,-1.757613 -4.21914,-2.339911 6.135844,-5.856402 14.954243,-9.370166 24.155387,-9.370166 z M 61.228948,69.587621 c 5.751535,1.367693 10.736639,4.001159 14.954868,7.514228 5.751535,-3.903838 12.650096,-6.146475 19.936247,-6.146475 7.284837,0 14.186867,2.242637 19.938397,6.146475 4.21429,-3.513069 9.20116,-6.048842 14.56838,-7.514228 l 0,33.472089 c 0,18.83535 -15.33719,33.86347 -34.506777,33.86347 -19.168284,0 -34.891115,-15.02821 -34.891115,-33.76457 l 0,-33.570989 z m 10.082996,32.979699 c -1.024595,-0.002 -1.646861,0.004 -1.646861,0.004 0.38431,1.75589 -1.67e-4,6.73266 5.750055,9.85625 0.76862,0.48716 3.06725,1.26792 5.367864,1.36564 5.367225,0.19536 13.035321,0.2925 13.035321,0.2925 -1.531995,-5.95281 -3.831449,-10.43885 -8.433988,-10.92731 -4.3107,-0.51194 -10.998608,-0.58626 -14.072391,-0.59129 z m 49.616236,0.002 c -3.07329,0.004 -9.7599,0.0772 -14.07454,0.58919 -4.98422,0.48845 -6.901156,4.9753 -8.431837,10.9294 0,0 7.668097,-0.0984 13.035317,-0.29248 2.29931,-0.099 4.60056,-0.88059 5.36787,-1.36775 5.75022,-3.12361 5.36705,-8.09827 5.75005,-9.85416 0,0 -0.62243,-0.005 -1.64686,-0.004 z m -35.543845,16.00711 c 3.067923,2.83179 6.51881,4.97787 10.735728,6.34426 3.833918,-1.36639 7.668287,-3.51376 10.733577,-6.34426 l -21.469305,0 z m 2.683932,8.09919 c 0,0 -0.7679,0.29232 -1.535209,1.36566 -0.382999,0.87923 -0.764384,1.95273 -0.764384,1.95273 3.066611,1.75718 6.518781,2.73341 10.351389,2.73341 3.833918,0 7.285587,-0.97623 9.969197,-2.73341 0,0 -8.7e-4,-0.77883 -0.38649,-1.75704 -0.76731,-1.17103 -1.53306,-1.56135 -1.53306,-1.56135 -2.68362,0.68128 -5.369494,1.07317 -8.051794,1.07317 -2.684925,0 -5.749036,-0.39189 -8.049649,-1.07317 z"
       id="path4211" />
  </g>
  <g
     inkscape:groupmode="layer"
     id="layer5"
     inkscape:label="Square 1"
     style="display:inline"
     sodipodi:insensitive="true">
    <rect
       style="display:inline;opacity:0.1;fill:url(#radialGradient7770);fill-opacity:1;stroke:url(#radialGradient7778);stroke-width:1.00005436;stroke-linejoin:round;stroke-miterlimit:4;stroke-dasharray:none;stroke-opacity:1"
       id="rect7724"
       width="150.99994"
       height="150.99994"
       x="20.500031"
       y="20.500031"
       ry="10.897427" />
  </g>
</svg>
