<?xml version="1.0" encoding="utf-8"?>
<!-- Generator: Adobe Illustrator 19.0.1, SVG Export Plug-In . SVG Version: 6.00 Build 0)  -->
<!DOCTYPE svg PUBLIC "-//W3C//DTD SVG 1.1//EN" "http://www.w3.org/Graphics/SVG/1.1/DTD/svg11.dtd">
<svg version="1.1"
	 id="svg2" xmlns:svg="http://www.w3.org/2000/svg" xmlns:dc="http://purl.org/dc/elements/1.1/" xmlns:rdf="http://www.w3.org/1999/02/22-rdf-syntax-ns#" xmlns:cc="http://creativecommons.org/ns#" xmlns:sodipodi="http://sodipodi.sourceforge.net/DTD/sodipodi-0.dtd" xmlns:inkscape="http://www.inkscape.org/namespaces/inkscape" inkscape:export-ydpi="90" inkscape:export-xdpi="90" inkscape:export-filename="C:\Users\Simon\Documents\Material Design Icon Pack\PNG\napster.png" sodipodi:docname="napster.svg" inkscape:version="0.91 r13725"
	 xmlns="http://www.w3.org/2000/svg" xmlns:xlink="http://www.w3.org/1999/xlink" x="0px" y="0px" viewBox="-443 865 192 192"
	 style="enable-background:new -443 865 192 192;" xml:space="preserve">
<style type="text/css">
	.st0{filter:url(#filter7743);}
	.st1{fill:none;stroke:#03A9F4;stroke-width:1.0001;stroke-linejoin:round;}
	.st2{opacity:0.2;fill:#FFFFFF;stroke:#FFFFFF;stroke-width:0.9969;stroke-linejoin:round;enable-background:new    ;}
	.st3{opacity:0.2;fill:#1A237E;stroke:#1A237E;stroke-width:0.997;stroke-linejoin:round;enable-background:new    ;}
	.st4{fill:#03A9F4;stroke:#03A9F4;stroke-width:0.9936;stroke-linejoin:round;}
	.st5{opacity:0.2;clip-path:url(#SVGID_2_);fill:url(#path5814_1_);enable-background:new    ;}
	.st6{fill:#FFFDFF;}
	.st7{opacity:0.2;enable-background:new    ;}
	.st8{fill:#FFFFFF;}
	.st9{fill:#F2F2F2;}
	
		.st10{opacity:0.1;fill:url(#rect7724_1_);stroke:url(#rect7724_2_);stroke-width:1.0001;stroke-linejoin:round;enable-background:new    ;}
</style>
<filter  inkscape:label="Drop Shadow" style="color-interpolation-filters:sRGB;" id="filter7743">
	<feFlood  result="flood" flood-color="rgb(0,0,0)" flood-opacity="0.301961" id="feFlood7745"></feFlood>
	<feComposite  operator="in" in2="SourceGraphic" in="flood" result="composite1" id="feComposite7747"></feComposite>
	<feGaussianBlur  in="composite1" stdDeviation="3" result="blur" id="feGaussianBlur7749"></feGaussianBlur>
	<feOffset  dy="3" dx="4.57967e-015" result="offset" id="feOffset7751"></feOffset>
	<feComposite  operator="over" in2="offset" in="SourceGraphic" result="composite2" id="feComposite7753"></feComposite>
</filter>
<sodipodi:namedview  showgrid="true" showguides="false" inkscape:cy="145.47245" inkscape:cx="83.860646" borderopacity="1.0" bordercolor="#666666" pagecolor="#ffffff" id="base" inkscape:zoom="2.6516505" inkscape:snap-global="false" inkscape:window-maximized="1" inkscape:window-y="-8" inkscape:window-x="-8" inkscape:window-height="1017" inkscape:window-width="1920" inkscape:guide-bbox="true" inkscape:pageshadow="2" inkscape:current-layer="layer6" inkscape:pageopacity="0.0" inkscape:document-units="px">
	<inkscape:grid  type="xygrid" empspacing="5" enabled="true" visible="true" id="grid2985" snapvisiblegridlinesonly="true">
		</inkscape:grid>
	<sodipodi:guide  id="guide3002" orientation="1,0" position="8,58.524064"></sodipodi:guide>
	<sodipodi:guide  id="guide3004" orientation="1,0" position="20,69.304813"></sodipodi:guide>
	<sodipodi:guide  id="guide3006" orientation="1,0" position="32,62.631016"></sodipodi:guide>
	<sodipodi:guide  id="guide3008" orientation="1,0" position="68,53.390374"></sodipodi:guide>
	<sodipodi:guide  id="guide3010" orientation="0,1" position="119.61497,8"></sodipodi:guide>
	<sodipodi:guide  id="guide3012" orientation="0,1" position="155.5508,20"></sodipodi:guide>
	<sodipodi:guide  id="guide3014" orientation="0,1" position="132.96257,32"></sodipodi:guide>
	<sodipodi:guide  id="guide3016" orientation="0,1" position="130.90909,68"></sodipodi:guide>
	<sodipodi:guide  id="guide3018" orientation="0,1" position="137.06952,184"></sodipodi:guide>
	<sodipodi:guide  id="guide3020" orientation="1,0" position="184,145.79679"></sodipodi:guide>
	<sodipodi:guide  id="guide3022" orientation="0,1" position="91.379679,172"></sodipodi:guide>
	<sodipodi:guide  id="guide3024" orientation="1,0" position="172.15693,140.10142"></sodipodi:guide>
	<sodipodi:guide  id="guide3026" orientation="0,1" position="149.39037,160"></sodipodi:guide>
	<sodipodi:guide  id="guide3028" orientation="1,0" position="160,88.299465"></sodipodi:guide>
	<sodipodi:guide  id="guide3030" orientation="0,1" position="128.34225,124"></sodipodi:guide>
	<sodipodi:guide  id="guide3032" orientation="1,0" position="124,92.919786"></sodipodi:guide>
</sodipodi:namedview>
<g id="layer6" inkscape:label="Square 2" inkscape:groupmode="layer">
	<g id="rect7720" class="st0">
		<path d="M-411.6,885.5h129.2c6,0,10.9,4.9,10.9,10.9v129.2c0,6-4.9,10.9-10.9,10.9h-129.2c-6,0-10.9-4.9-10.9-10.9V896.4
			C-422.5,890.4-417.6,885.5-411.6,885.5z"/>
		<path class="st1" d="M-411.6,885.5h129.2c6,0,10.9,4.9,10.9,10.9v129.2c0,6-4.9,10.9-10.9,10.9h-129.2c-6,0-10.9-4.9-10.9-10.9
			V896.4C-422.5,890.4-417.6,885.5-411.6,885.5z"/>
	</g>
</g>
<g id="layer4" inkscape:label="Square" inkscape:groupmode="layer">
	<path id="rect7755" class="st2" d="M-411.7,885.5h129.3c6,0,10.8,4.8,10.8,10.8v128.4c0,6-4.8,10.8-10.8,10.8h-129.3
		c-6,0-10.8-4.8-10.8-10.8V896.3C-422.5,890.3-417.7,885.5-411.7,885.5z"/>
	<path id="rect7757" class="st3" d="M-411.7,886.5h129.3c6,0,10.8,4.8,10.8,10.8v128.4c0,6-4.8,10.8-10.8,10.8h-129.3
		c-6,0-10.8-4.8-10.8-10.8V897.3C-422.5,891.3-417.7,886.5-411.7,886.5z"/>
	<path id="rect3811" class="st4" d="M-411.7,886.5h129.5c5.9,0,10.8,4.8,10.8,10.8v127.5c0,5.9-4.8,10.8-10.8,10.8h-129.5
		c-5.9,0-10.8-4.8-10.8-10.8V897.2C-422.5,891.3-417.7,886.5-411.7,886.5z"/>
	<g id="flowRoot9367">
	</g>
	<g>
		<defs>
			<path id="SVGID_1_" d="M-411.6,885.5h129.2c6,0,10.9,4.9,10.9,10.9v129.2c0,6-4.9,10.9-10.9,10.9h-129.2c-6,0-10.9-4.9-10.9-10.9
				V896.4C-422.5,890.4-417.6,885.5-411.6,885.5z"/>
		</defs>
		<clipPath id="SVGID_2_">
			<use xlink:href="#SVGID_1_"  style="overflow:visible;"/>
		</clipPath>
		
			<linearGradient id="path5814_1_" gradientUnits="userSpaceOnUse" x1="-426.7009" y1="1085.9855" x2="-315.1347" y2="974.5027" gradientTransform="matrix(1.0993 0 0 -1.0993 78.5653 2105.6682)">
			<stop  offset="0" style="stop-color:#1A237E"/>
			<stop  offset="1" style="stop-color:#1A237E;stop-opacity:0"/>
		</linearGradient>
		<path id="path5814" inkscape:connector-curvature="0" class="st5" d="M-346.3,912.3c-13,0-24.5,5.6-32.6,14.5
			c-3.5-0.9-6.9-1.5-10.7-1.6v14.7c-5.4,3.4-9.2,9.7-9.2,16.7c0,5.7,2.5,10.9,6.4,14.5c0.2,0.2,0.4,0.4,0.6,0.6
			c0.2,0.2,0.4,0.4,0.6,0.6c0.2,0.2,0.4,0.4,0.6,0.6c0.2,0.2,0.4,0.4,0.6,0.6c0.1,0.2,0.3,0.3,0.4,0.5c1.2,9.9,5.8,18.8,12.7,25.5
			c0.2,0.2,0.4,0.4,0.6,0.6c0.2,0.2,0.4,0.4,0.6,0.6c0.2,0.2,0.4,0.4,0.6,0.6c0.2,0.2,0.4,0.4,0.6,0.6c0.2,0.2,0.4,0.4,0.6,0.6
			c0.2,0.2,0.4,0.4,0.6,0.6c0.2,0.2,0.4,0.4,0.6,0.6c0.2,0.2,0.4,0.4,0.6,0.6c0.2,0.2,0.4,0.4,0.6,0.6c0.2,0.2,0.4,0.4,0.6,0.6
			c0.2,0.2,0.4,0.4,0.6,0.6c0.2,0.2,0.4,0.4,0.6,0.6c0.2,0.2,0.4,0.4,0.6,0.6c0.2,0.2,0.4,0.4,0.6,0.6c0.2,0.2,0.4,0.4,0.6,0.6
			c0.2,0.2,0.4,0.4,0.6,0.6c0.2,0.2,0.4,0.4,0.6,0.6c0.2,0.2,0.4,0.4,0.6,0.6c0.2,0.2,0.4,0.4,0.6,0.6c0.2,0.2,0.4,0.4,0.6,0.6
			c0.2,0.2,0.4,0.4,0.6,0.6c0.2,0.2,0.4,0.4,0.6,0.6c0.2,0.2,0.4,0.4,0.6,0.6c0.2,0.2,0.4,0.4,0.5,0.5c0.2,0.2,0.4,0.4,0.6,0.6
			c0.2,0.2,0.4,0.4,0.6,0.6c0.2,0.2,0.4,0.4,0.6,0.6c0.2,0.2,0.4,0.4,0.6,0.6c0.2,0.2,0.4,0.4,0.6,0.6c0.2,0.2,0.4,0.4,0.6,0.6
			c0.2,0.2,0.4,0.4,0.6,0.6c0.2,0.2,0.4,0.4,0.6,0.6c0.2,0.2,0.4,0.4,0.6,0.6c0.2,0.2,0.4,0.4,0.6,0.6c0.2,0.2,0.4,0.4,0.5,0.5
			c0.2,0.2,0.4,0.4,0.6,0.6c0.2,0.2,0.4,0.4,0.5,0.5c0.2,0.2,0.4,0.4,0.6,0.6c0.2,0.2,0.4,0.4,0.6,0.6c0.2,0.2,0.4,0.4,0.6,0.5
			c0.2,0.2,0.4,0.4,0.5,0.5c0.2,0.2,0.4,0.4,0.6,0.6c0.2,0.2,0.3,0.4,0.5,0.5c0.2,0.2,0.4,0.4,0.5,0.5c0.2,0.2,0.4,0.4,0.5,0.5
			c0.2,0.2,0.4,0.4,0.5,0.5c0.2,0.2,0.3,0.4,0.5,0.5c0.2,0.2,0.4,0.4,0.6,0.6c0.2,0.2,0.3,0.3,0.5,0.5c0.2,0.2,0.4,0.4,0.5,0.5
			c0.2,0.2,0.4,0.4,0.5,0.5c0.2,0.2,0.3,0.4,0.5,0.5c0.2,0.2,0.4,0.4,0.5,0.5c0.2,0.2,0.3,0.4,0.5,0.5c0.2,0.2,0.3,0.3,0.5,0.5
			c0.2,0.2,0.3,0.4,0.5,0.5c0.2,0.2,0.3,0.4,0.5,0.5c0.2,0.2,0.3,0.4,0.5,0.5c0.2,0.2,0.3,0.3,0.5,0.5c0.2,0.2,0.3,0.3,0.5,0.5
			c0.2,0.2,0.4,0.4,0.6,0.6c0.2,0.2,0.3,0.3,0.5,0.5c0.2,0.2,0.3,0.3,0.5,0.5c0.2,0.2,0.3,0.3,0.5,0.5c0.2,0.2,0.3,0.3,0.5,0.5
			c0.2,0.2,0.3,0.3,0.5,0.5c0.2,0.2,0.3,0.3,0.5,0.5c0.2,0.2,0.3,0.4,0.5,0.5c0.2,0.2,0.3,0.4,0.5,0.5c0.2,0.2,0.3,0.3,0.5,0.5
			c0.2,0.2,0.3,0.3,0.5,0.5c0.2,0.2,0.4,0.4,0.5,0.5c0.2,0.2,0.3,0.3,0.5,0.5c0.2,0.2,0.3,0.3,0.5,0.5c0.2,0.2,0.3,0.3,0.5,0.5
			c0.2,0.2,0.3,0.3,0.5,0.5c0.2,0.2,0.3,0.3,0.5,0.5c0.2,0.2,0.3,0.3,0.5,0.5c0.2,0.2,0.3,0.4,0.5,0.5c0.2,0.2,0.3,0.3,0.5,0.5
			c0.2,0.2,0.3,0.3,0.5,0.5c0.2,0.2,0.3,0.3,0.5,0.5c0.2,0.2,0.3,0.3,0.5,0.5c0.2,0.2,0.3,0.3,0.5,0.5c0.2,0.2,0.3,0.3,0.5,0.5
			c0.2,0.2,0.3,0.3,0.5,0.5c0.2,0.2,0.3,0.3,0.5,0.5c0.2,0.2,0.3,0.3,0.5,0.5c0.2,0.2,0.3,0.3,0.5,0.5c0.2,0.2,0.3,0.3,0.5,0.5
			c0.1,0.1,0.3,0.3,0.4,0.4c0.2,0.2,0.3,0.3,0.5,0.5c0.2,0.2,0.3,0.3,0.5,0.5c0.1,0.1,0.3,0.3,0.4,0.4c0.1,0.1,0.3,0.3,0.4,0.4
			c0.2,0.2,0.3,0.3,0.5,0.5c0.1,0.1,0.3,0.3,0.4,0.4c0.2,0.2,0.3,0.3,0.5,0.5c0.1,0.1,0.3,0.3,0.4,0.4c0.1,0.1,0.3,0.3,0.4,0.4
			c0.1,0.1,0.3,0.3,0.4,0.4c0.1,0.1,0.3,0.3,0.4,0.4c0.1,0.1,0.3,0.3,0.4,0.4c0.1,0.1,0.3,0.3,0.4,0.4c0.1,0.1,0.3,0.3,0.4,0.4
			c0.1,0.1,0.3,0.3,0.4,0.4c0.2,0.2,0.3,0.3,0.5,0.5c0.1,0.1,0.3,0.3,0.4,0.4c0.1,0.1,0.3,0.3,0.4,0.4c0.1,0.1,0.3,0.3,0.4,0.4
			c0.1,0.1,0.3,0.3,0.4,0.4c0.1,0.1,0.3,0.3,0.4,0.4c0.2,0.2,0.3,0.3,0.5,0.5c0.1,0.1,0.3,0.3,0.4,0.4c0.1,0.1,0.3,0.3,0.4,0.4
			c0.1,0.1,0.3,0.3,0.4,0.4c0.1,0.1,0.3,0.3,0.4,0.4c0.1,0.1,0.3,0.3,0.4,0.4c0.1,0.1,0.3,0.3,0.4,0.4c0.1,0.1,0.3,0.3,0.4,0.4
			c0.1,0.1,0.3,0.3,0.4,0.4c0.1,0.1,0.3,0.3,0.4,0.4c0.1,0.1,0.3,0.3,0.4,0.4c0.1,0.1,0.3,0.3,0.4,0.4c0.1,0.1,0.3,0.3,0.4,0.4
			c0.1,0.1,0.3,0.3,0.4,0.4c0.1,0.1,0.3,0.3,0.4,0.4c0.1,0.1,0.3,0.3,0.4,0.4c0.1,0.1,0.3,0.3,0.4,0.4c0.1,0.1,0.2,0.3,0.4,0.4
			c0.1,0.1,0.3,0.3,0.4,0.4c0.1,0.1,0.2,0.2,0.4,0.4c0.1,0.1,0.3,0.3,0.4,0.4c0.1,0.1,0.3,0.3,0.4,0.4c0.1,0.1,0.3,0.3,0.4,0.4
			c0.1,0.1,0.3,0.3,0.4,0.4c0.1,0.1,0.2,0.3,0.4,0.4c0.1,0.1,0.2,0.3,0.4,0.4c0.1,0.1,0.3,0.3,0.4,0.4c0.1,0.1,0.2,0.3,0.4,0.4
			c0.1,0.1,0.2,0.2,0.4,0.4c0.1,0.1,0.3,0.3,0.4,0.4c0.1,0.1,0.2,0.2,0.3,0.3c0.1,0.1,0.3,0.3,0.4,0.4c0.1,0.1,0.2,0.2,0.3,0.3
			c0.1,0.1,0.2,0.2,0.3,0.3c0.1,0.1,0.3,0.3,0.4,0.4c0.1,0.1,0.2,0.2,0.3,0.3c0.1,0.1,0.2,0.2,0.4,0.4c0.1,0.1,0.2,0.2,0.4,0.4
			c0.1,0.1,0.2,0.2,0.4,0.4c0.1,0.1,0.2,0.2,0.4,0.4c0.1,0.1,0.2,0.2,0.3,0.3c0.1,0.1,0.2,0.2,0.3,0.3c0.1,0.1,0.2,0.2,0.4,0.3
			c0.1,0.1,0.2,0.2,0.3,0.3c0.1,0.1,0.2,0.2,0.3,0.3c0.1,0.1,0.2,0.2,0.3,0.3c0.1,0.1,0.2,0.2,0.3,0.3c0.1,0.1,0.2,0.2,0.3,0.3
			c0.1,0.1,0.2,0.2,0.3,0.3c0.1,0.1,0.2,0.2,0.3,0.3c0.1,0.1,0.2,0.2,0.3,0.3c0.1,0.1,0.2,0.2,0.3,0.3c0.1,0.1,0.2,0.2,0.3,0.3
			c0.1,0.1,0.2,0.2,0.3,0.3c0.1,0.1,0.2,0.2,0.3,0.3c0.1,0.1,0.2,0.2,0.4,0.4c0.1,0.1,0.2,0.2,0.3,0.3c0.1,0.1,0.2,0.2,0.3,0.3
			c0.1,0.1,0.2,0.2,0.4,0.4c0.1,0.1,0.2,0.2,0.3,0.3c0.1,0.1,0.2,0.2,0.4,0.4c0.1,0.1,0.2,0.2,0.3,0.3c0.1,0.1,0.2,0.2,0.3,0.3
			c0.1,0.1,0.2,0.2,0.3,0.3c0.1,0.1,0.2,0.2,0.3,0.3c0.1,0.1,0.2,0.2,0.3,0.3c0.1,0.1,0.2,0.2,0.3,0.3c0.1,0.1,0.2,0.2,0.3,0.3
			c0.1,0.1,0.2,0.2,0.3,0.3c0.1,0.1,0.2,0.2,0.3,0.3c0.1,0.1,0.2,0.2,0.3,0.3c0.1,0.1,0.2,0.2,0.3,0.3c0.1,0.1,0.2,0.2,0.3,0.3
			c0.1,0.1,0.2,0.2,0.3,0.3c0.1,0.1,0.2,0.2,0.3,0.3c0.1,0.1,0.2,0.2,0.3,0.3c0.1,0.1,0.2,0.2,0.3,0.3c0.1,0.1,0.2,0.2,0.3,0.3
			c0.1,0.1,0.2,0.2,0.3,0.3c0.1,0.1,0.2,0.2,0.3,0.3c0.1,0.1,0.2,0.2,0.3,0.3c0.1,0.1,0.2,0.2,0.3,0.3c0.1,0.1,0.2,0.2,0.3,0.3
			c0.1,0.1,0.2,0.2,0.3,0.3c0.1,0.1,0.2,0.2,0.3,0.3c0.1,0.1,0.2,0.2,0.2,0.2c0.1,0.1,0.2,0.2,0.3,0.3c0.1,0.1,0.2,0.2,0.2,0.2
			c0.1,0.1,0.2,0.2,0.3,0.3c0.1,0.1,0.2,0.2,0.3,0.3c0.1,0.1,0.2,0.2,0.3,0.3c0.1,0.1,0.2,0.2,0.3,0.3c0.1,0.1,0.2,0.2,0.3,0.3
			c0.1,0.1,0.2,0.2,0.3,0.3c0.1,0.1,0.2,0.2,0.3,0.3c0.1,0.1,0.2,0.2,0.3,0.3c0.1,0.1,0.2,0.2,0.3,0.3c0.1,0.1,0.2,0.2,0.3,0.3
			c0.1,0.1,0.2,0.2,0.2,0.2c0.1,0.1,0.2,0.2,0.2,0.2c0.1,0.1,0.2,0.2,0.2,0.2c0.1,0.1,0.2,0.2,0.2,0.2c0.1,0.1,0.2,0.2,0.2,0.2
			c0.1,0.1,0.2,0.2,0.2,0.2c0.1,0.1,0.2,0.2,0.2,0.2c0.1,0.1,0.2,0.2,0.2,0.2c0.1,0.1,0.2,0.2,0.2,0.2c0.1,0.1,0.1,0.1,0.2,0.2
			c0.1,0.1,0.2,0.2,0.3,0.3c0.1,0.1,0.1,0.1,0.2,0.2c0.1,0.1,0.1,0.1,0.2,0.2c0.1,0.1,0.2,0.2,0.3,0.3c0.1,0.1,0.1,0.1,0.2,0.2
			c0.1,0.1,0.1,0.1,0.2,0.2c0.1,0.1,0.1,0.1,0.2,0.2c0.1,0.1,0.1,0.1,0.2,0.2c0.1,0.1,0.1,0.1,0.2,0.2c0.1,0.1,0.1,0.1,0.2,0.2
			c0.1,0.1,0.1,0.1,0.2,0.2c0.1,0.1,0.1,0.1,0.2,0.2c0.1,0.1,0.1,0.1,0.2,0.2c0.1,0.1,0.1,0.1,0.2,0.2c0.1,0.1,0.1,0.1,0.2,0.2
			c0.1,0.1,0.1,0.1,0.2,0.2c0.1,0.1,0.1,0.1,0.2,0.2c0.1,0.1,0.1,0.1,0.2,0.2c0.1,0.1,0.1,0.1,0.2,0.2c0.1,0.1,0.1,0.1,0.2,0.2
			c0.1,0.1,0.1,0.1,0.2,0.2c0.1,0.1,0.1,0.1,0.2,0.2c0.1,0.1,0.1,0.1,0.2,0.2c0.1,0.1,0.1,0.1,0.2,0.2c0.1,0.1,0.1,0.1,0.2,0.2
			c0.1,0.1,0.1,0.1,0.2,0.2c0.1,0.1,0.1,0.1,0.2,0.2c0.1,0.1,0.2,0.2,0.2,0.2c0.1,0.1,0.1,0.1,0.2,0.2c0.1,0.1,0.1,0.1,0.2,0.2
			c0.1,0.1,0.1,0.1,0.2,0.2c0.1,0.1,0.1,0.1,0.2,0.2c0.1,0.1,0.1,0.1,0.2,0.2c0.1,0,0.1,0.1,0.1,0.2c0.1,0.1,0.1,0.1,0.2,0.2
			c0,0,0.1,0.1,0.1,0.1c0.1,0.1,0.1,0.1,0.2,0.2c0.1,0.1,0.1,0.1,0.2,0.2c0.1,0.1,0.1,0.1,0.2,0.2c0.1,0.1,0.1,0.1,0.2,0.2
			c0.1,0.1,0.1,0.1,0.2,0.2c0.1,0.1,0.1,0.1,0.2,0.2c0,0,0.1,0.1,0.1,0.1c0.1,0.1,0.1,0.1,0.2,0.2c0,0,0.1,0.1,0.1,0.1
			c0.1,0,0.1,0.1,0.2,0.2c0,0,0.1,0.1,0.1,0.1c0,0,0.1,0.1,0.1,0.1c0.1,0.1,0.1,0.1,0.2,0.2c0,0,0.1,0.1,0.1,0.1
			c0.1,0.1,0.1,0.1,0.2,0.2c0,0,0.1,0.1,0.1,0.1c0,0,0.1,0.1,0.1,0.1c0,0,0.1,0.1,0.1,0.1c0.1,0.1,0.1,0.1,0.2,0.2
			c0,0,0.1,0.1,0.1,0.1c0.1,0.1,0.1,0.1,0.2,0.2c0,0,0.1,0.1,0.1,0.1c0,0,0.1,0.1,0.1,0.1c0,0,0.1,0.1,0.1,0.1c0,0,0.1,0.1,0.1,0.1
			c0.1,0.1,0.1,0.1,0.2,0.2c0,0,0.1,0.1,0.1,0.1c0,0,0.1,0.1,0.1,0.1c0,0,0.1,0.1,0.1,0.1c0,0,0.1,0.1,0.1,0.1c0,0,0.1,0.1,0.1,0.1
			c0,0,0.1,0.1,0.1,0.1c0,0,0.1,0.1,0.1,0.1c0,0,0.1,0.1,0.1,0.1c0.1,0,0.1,0.1,0.2,0.2c0,0,0.1,0.1,0.1,0.1c0,0,0.1,0.1,0.1,0.1
			c0,0,0.1,0.1,0.1,0.1c0,0,0.1,0.1,0.1,0.1c0,0,0.1,0.1,0.1,0.1c0,0,0,0,0,0c0,0,0,0,0,0c0,0,0.1,0.1,0.1,0.1c0,0,0,0,0.1,0.1
			c0,0,0.1,0.1,0.1,0.1c0,0,0.1,0.1,0.1,0.1c0,0,0.1,0.1,0.1,0.1c0,0,0.1,0.1,0.1,0.1c0,0,0.1,0.1,0.1,0.1c0,0,0.1,0.1,0.1,0.1
			c0,0,0.1,0.1,0.1,0.1c0,0,0.1,0.1,0.1,0.1c0,0,0,0.1,0.1,0.1c0,0,0,0.1,0.1,0.1c0,0,0,0,0.1,0.1c0,0,0,0,0.1,0.1c0,0,0,0,0.1,0.1
			c0,0,0,0,0.1,0.1c0,0,0,0,0.1,0.1c0,0,0,0,0.1,0.1c0,0,0,0,0.1,0.1c0,0,0,0,0.1,0.1c0,0,0,0,0.1,0.1c0,0,0,0,0.1,0.1
			c0,0,0,0,0.1,0.1c0,0,0,0,0.1,0.1c0,0,0,0,0,0c0,0,0,0,0,0c0,0,0,0,0,0c0,0,0.1,0.1,0.1,0.1c0,0,0,0,0,0c0,0,0,0,0,0c0,0,0,0,0,0
			c0,0,0,0,0,0c0,0,0,0,0,0c0,0,0,0,0,0c0,0,0,0,0,0c0,0,0,0,0.1,0.1c0,0,0,0,0,0c0,0,0,0,0,0c0,0,0,0,0,0h0c0,0,0,0,0,0
			c0,0,0,0,0,0c0,0,0,0,0,0c0,0,0,0,0,0c0,0,0,0,0,0c0,0,0,0,0,0c0,0,0,0,0,0c0,0,0,0,0,0c0,0,0,0,0,0l0,0c0,0,0,0,0,0s0,0,0,0
			c0,0,0,0,0,0c0,0,0,0,0,0c0,0,0,0,0,0l0,0c0,0,0,0,0,0c0,0,0,0,0,0v0l0,0c0,0,0,0,0,0l0,0l0,0c0,0,0,0,0,0
			c0.1,0.1,0.3,0.3,0.4,0.4c0.3,0.3,0.7,0.6,1,0.9c0.5,0.4,1,0.9,1.5,1.3c0,0,0,0,0,0c0,0,0,0,0,0c0,0,0,0,0,0
			c0.5,0.4,1,0.8,1.5,1.2c0,0,0,0,0,0c0.5,0.4,1,0.8,1.6,1.1c0,0,0,0,0,0c0.5,0.4,1.1,0.7,1.6,1.1c0,0,0,0,0,0c0,0,0,0,0,0
			c0,0,0,0,0,0c0.6,0.3,1.1,0.7,1.7,1c0,0,0,0,0,0c1.1,0.6,2.3,1.2,3.5,1.7c0,0,0,0,0,0c1.2,0.5,2.4,1,3.7,1.4
			c4.4,1.5,9.2,2.3,14.1,2.3c22.2,0,40.6-16.5,42.9-38l0.4-0.4c5.4-3.5,9.2-9.7,9.2-16.7c0-1.3-0.1-2.6-0.4-3.9
			c-0.2-0.8-0.4-1.7-0.7-2.4c0,0,0,0,0,0c-0.3-0.8-0.6-1.6-1-2.3c0,0,0,0,0,0c-0.2-0.4-0.4-0.7-0.6-1.1c0,0,0,0,0,0c0,0,0,0,0,0
			c-0.1-0.3-0.3-0.5-0.5-0.8c-0.1-0.1-0.1-0.2-0.2-0.3c0,0,0,0,0,0c-0.4-0.7-0.9-1.4-1.5-2c0,0,0,0,0,0c0,0-0.1-0.1-0.1-0.1
			c-0.1-0.1-0.2-0.3-0.4-0.4c-0.1-0.1-0.2-0.3-0.3-0.4c0,0,0,0,0,0c0,0,0,0,0,0c0,0,0,0,0,0c0,0,0,0,0,0c0,0,0,0,0,0c0,0,0,0,0,0
			c0,0-0.1-0.1-0.1-0.1c0,0,0,0-0.1-0.1c0,0,0,0,0,0c0,0,0,0,0,0c0,0,0,0,0,0c-0.1-0.1-0.3-0.3-0.4-0.4c0,0,0,0,0,0c0,0,0,0,0,0
			c0,0,0,0,0,0c0,0,0,0,0,0c0,0,0,0,0,0c0,0,0,0,0,0l0,0c0,0,0,0,0,0c0,0,0,0,0,0c0,0,0,0,0,0c0,0,0,0,0,0c0,0,0,0,0,0s0,0,0,0
			c0,0,0,0,0,0c0,0,0,0,0,0c0,0,0,0,0,0c0,0,0,0,0,0c0,0,0,0,0,0c0,0,0,0,0,0c0,0,0,0,0,0c0,0,0,0,0,0c0,0,0,0,0,0c0,0,0,0,0,0
			c0,0,0,0-0.1-0.1l0,0c0,0,0,0,0,0c0,0,0,0-0.1-0.1c0,0,0,0,0,0c0,0,0,0,0,0l0,0c0,0,0,0,0,0l0,0c0,0,0,0,0,0l0,0c0,0,0,0-0.1-0.1
			c0,0,0,0,0,0l0,0c0,0,0,0,0,0c0,0,0,0,0,0c0,0,0,0,0,0c0,0,0,0,0,0c0,0,0,0,0,0c0,0,0,0,0,0c0,0,0,0-0.1-0.1c0,0,0,0,0-0.1
			c0,0,0,0,0,0c0,0,0,0-0.1-0.1c0,0,0,0-0.1-0.1c0,0,0,0,0,0c0,0,0,0,0,0c0,0,0,0-0.1-0.1c0,0,0,0,0,0c0,0,0,0-0.1-0.1c0,0,0,0,0,0
			c0,0-0.1-0.1-0.1-0.1c0,0,0-0.1-0.1-0.1c0,0-0.1-0.1-0.1-0.1c0,0,0,0,0,0c0,0-0.1-0.1-0.1-0.1c0,0-0.1-0.1-0.1-0.1
			c0,0-0.1-0.1-0.1-0.1c0,0-0.1-0.1-0.1-0.1c0,0,0,0-0.1-0.1l0,0c0,0,0,0,0,0c0,0,0,0,0,0c0,0,0,0,0,0c0,0,0-0.1-0.1-0.1
			c0,0,0,0,0,0c0,0,0,0-0.1-0.1c0,0-0.1-0.1-0.1-0.1c0,0-0.1-0.1-0.1-0.1c0,0-0.1-0.1-0.1-0.1c0,0,0,0,0,0c0,0-0.1-0.1-0.1-0.1
			c0,0,0,0-0.1-0.1c0,0-0.1-0.1-0.1-0.1c0,0,0,0,0,0v-14c0,0,0,0,0,0v0c0,0,0,0,0,0v0c0,0,0,0,0,0v0c0,0,0,0,0,0v0c0,0,0,0,0,0v0
			c0,0,0,0,0,0v0c0,0,0,0,0,0v0c0,0,0,0,0,0v0c0,0,0,0,0,0v0c0,0,0,0,0,0v0c0,0,0,0,0,0v0c0,0,0,0,0,0v0c0,0,0,0,0,0v0c0,0,0,0,0,0
			v0c0,0,0,0,0,0v0c0,0,0,0,0,0v0c0,0,0,0,0,0v0c0,0,0,0,0,0v0c0,0,0,0,0,0v0c0,0,0,0,0,0v0c0,0,0,0,0,0v0c0,0,0,0,0,0v0
			c0,0,0,0,0,0v0c0,0,0,0,0,0v0c0,0,0,0,0,0v0c0,0,0,0,0,0v0c0,0,0,0,0,0v-0.1c0,0,0,0-0.1,0v-0.1c0,0,0,0-0.1,0v-0.1c0,0,0,0-0.1,0
			v-0.1c0,0,0,0-0.1,0v-0.1c0,0,0,0-0.1,0v-0.1c0,0,0,0-0.1,0v-0.1c0,0,0,0-0.1,0v-0.1c0,0,0,0-0.1,0v-0.1c0,0,0,0-0.1,0v-0.1
			c0,0,0,0-0.1,0v-0.1c0,0,0,0-0.1,0v-0.1c0,0,0,0-0.1,0v-0.1c0,0,0,0-0.1,0v-0.1c0,0,0,0-0.1,0v-0.1c0,0,0,0-0.1,0v-0.1
			c0,0-0.1,0-0.1,0v-0.1c0,0-0.1,0-0.1,0v-0.1c0,0-0.1,0-0.1,0v-0.1c0,0-0.1,0-0.1,0v-0.1c0,0-0.1,0-0.1,0v-0.1c0,0-0.1,0-0.1,0
			v-0.1c0,0-0.1,0-0.1,0v-0.1c0,0-0.1,0-0.1,0v-0.1c0,0-0.1,0-0.1,0v-0.1c0,0-0.1,0-0.1,0v-0.1c0,0-0.1,0-0.1,0v-0.1
			c0,0-0.1,0-0.1,0v-0.1c0,0-0.1,0-0.1,0v-0.1c0,0-0.1,0-0.1,0v-0.1c0,0-0.1,0-0.1,0v-0.1c0,0-0.1,0-0.1,0v-0.1c0,0-0.1,0-0.1,0
			v-0.1c0,0-0.1,0-0.1,0v-0.1c0,0-0.1,0-0.1,0v-0.1c0,0-0.1,0-0.1,0v-0.1c0,0-0.1,0-0.1,0v-0.1c0,0-0.1,0-0.1,0v-0.1
			c0,0-0.1,0-0.1,0v-0.1c0,0-0.1,0-0.1,0v-0.1c0,0-0.1,0-0.1,0v-0.1c0,0-0.1,0-0.1,0v-0.1c0,0-0.1,0-0.1,0v-0.1c0,0-0.1,0-0.1,0
			v-0.1c0,0-0.1,0-0.1,0v-0.1c0,0-0.1,0-0.1,0v-0.1c0,0-0.1,0-0.1,0v-0.1c0,0-0.1,0-0.1,0v-0.1c0,0-0.1,0-0.1,0v-0.1
			c0,0-0.1,0-0.1,0v-0.1c0,0-0.1,0-0.1,0v-0.1c0,0-0.1,0-0.1,0v-0.2c0,0-0.1,0-0.1,0v-0.2c0,0-0.1,0-0.1,0v-0.2c0,0-0.1,0-0.1,0
			v-0.2c-0.1,0-0.1,0-0.1,0v-0.2c-0.1,0-0.1,0-0.1,0v-0.2c-0.1,0-0.1,0-0.2,0v-0.2c-0.1,0-0.1,0-0.2,0v-0.2c-0.1,0-0.1,0-0.2,0v-0.2
			c-0.1,0-0.1,0-0.2,0v-0.2c-0.1,0-0.1,0-0.2,0v-0.2c-0.1,0-0.1,0-0.2,0v-0.2c-0.1,0-0.1,0-0.2,0v-0.2c-0.1,0-0.1,0-0.2,0v-0.2
			c-0.1,0-0.1,0-0.2,0v-0.2c-0.1,0-0.1,0-0.2,0v-0.2c-0.1,0-0.1,0-0.2,0v-0.2c-0.1,0-0.1,0-0.2,0v-0.2c-0.1,0-0.1,0-0.2,0v-0.2
			c-0.1,0-0.1,0-0.2,0v-0.2c-0.1,0-0.1,0-0.2,0v-0.2c-0.1,0-0.1,0-0.2,0v-0.2c-0.1,0-0.1,0-0.2,0v-0.2c-0.1,0-0.1,0-0.2,0v-0.2
			c-0.1,0-0.1,0-0.2,0v-0.2c-0.1,0-0.1,0-0.2,0v-0.2c-0.1,0-0.1,0-0.2,0v-0.2c-0.1,0-0.1,0-0.2,0v-0.2c-0.1,0-0.1,0-0.2,0v-0.2
			c-0.1,0-0.1,0-0.2,0v-0.2c-0.1,0-0.1,0-0.2,0v-0.2c-0.1,0-0.1,0-0.2,0v-0.2c-0.1,0-0.1,0-0.2,0v-0.2c-0.1,0-0.1,0-0.2,0v-0.2
			c-0.1,0-0.1,0-0.2,0v-0.2c-0.1,0-0.1,0-0.2,0v-0.2c-0.1,0-0.1,0-0.2,0v-0.2c-0.1,0-0.1,0-0.2,0v-0.2c-0.1,0-0.1,0-0.2,0v-0.2
			c-0.1,0-0.1,0-0.2,0v-0.2c-0.1,0-0.1,0-0.2,0v-0.2c-0.1,0-0.1,0-0.2,0v-0.2c-0.1,0-0.1,0-0.2,0v-0.2c-0.1,0-0.1,0-0.2,0v-0.2
			c-0.1,0-0.1,0-0.2,0v-0.2c-0.1,0-0.1,0-0.2,0v-0.2c-0.1,0-0.1,0-0.2,0v-0.2c-0.1,0-0.1,0-0.2,0v-0.2c-0.1,0-0.1,0-0.2,0v-0.2
			c-0.1,0-0.2,0-0.2,0v-0.2c-0.1,0-0.2,0-0.2,0v-0.2c-0.1,0-0.2,0-0.2,0v-0.2c-0.1,0-0.2,0-0.2,0v-0.2c-0.1,0-0.2,0-0.2,0v-0.2
			c-0.1,0-0.2,0-0.2,0v-0.2c-0.1,0-0.2,0-0.2,0v-0.3c-0.1,0-0.2,0-0.2,0v-0.3c-0.1,0-0.2,0-0.2,0v-0.3c-0.1,0-0.2,0-0.2,0v-0.3
			c-0.1,0-0.2,0-0.2,0v-0.3c-0.1,0-0.2,0-0.2,0v-0.3c-0.1,0-0.2,0-0.2,0v-0.3c-0.1,0-0.2,0-0.3,0v-0.3c-0.1,0-0.2,0-0.3,0v-0.3
			c-0.1,0-0.2,0-0.3,0v-0.3c-0.1,0-0.2,0-0.3,0v-0.3c-0.1,0-0.2,0-0.3,0v-0.3c-0.1,0-0.2,0-0.3,0v-0.3c-0.1,0-0.2,0-0.3,0v-0.3
			c-0.1,0-0.2,0-0.3,0v-0.3c-0.1,0-0.2,0-0.3,0v-0.3c-0.1,0-0.2,0-0.3,0v-0.3c-0.1,0-0.2,0-0.3,0v-0.3c-0.1,0-0.2,0-0.3,0v-0.3
			c-0.1,0-0.2,0-0.3,0v-0.3c-0.1,0-0.2,0-0.3,0v-0.3c-0.1,0-0.2,0-0.3,0v-0.3c-0.1,0-0.2,0-0.3,0v-0.3c-0.1,0-0.2,0-0.3,0v-0.3
			c-0.1,0-0.2,0-0.3,0v-0.3c-0.1,0-0.2,0-0.3,0v-0.3c-0.1,0-0.2,0-0.3,0v-0.3c-0.1,0-0.2,0-0.3,0v-0.3c-0.1,0-0.2,0-0.3,0v-0.3
			c-0.1,0-0.2,0-0.3,0v-0.3c-0.1,0-0.2,0-0.3,0v-0.3c-0.1,0-0.2,0-0.3,0v-0.3c-0.1,0-0.2,0-0.3,0v-0.3c-0.1,0-0.2,0-0.3,0v-0.3
			c-0.1,0-0.2,0-0.3,0v-0.3c-0.1,0-0.2,0-0.3,0v-0.3c-0.1,0-0.2,0-0.3,0v-0.3c-0.1,0-0.2,0-0.3,0v-0.3c-0.1,0-0.2,0-0.3,0v-0.3
			c-0.1,0-0.2,0-0.3,0v-0.3c-0.1,0-0.2,0-0.3,0v-0.3c-0.1,0-0.2,0-0.3,0v-0.3c-0.1,0-0.2,0-0.3,0v-0.3c-0.1,0-0.2,0-0.3,0v-0.3
			c-0.1,0-0.2,0-0.3,0v-0.3c-0.1,0-0.2,0-0.3,0v-0.3c-0.1,0-0.2,0-0.3,0v-0.3c-0.1,0-0.2,0-0.3,0v-0.3c-0.1,0-0.2,0-0.3,0v-0.3
			c-0.1,0-0.2,0-0.3,0v-0.3c-0.1,0-0.2,0-0.3,0v-0.3c-0.1,0-0.2,0-0.3,0v-0.3c-0.1,0-0.2,0-0.3,0v-0.4c-0.1,0-0.2,0-0.3,0v-0.4
			c-0.1,0-0.2,0-0.3,0v-0.4c-0.1,0-0.2,0-0.3,0v-0.4c-0.1,0-0.2,0-0.3,0v-0.4c-0.1,0-0.2,0-0.3,0v-0.4c-0.1,0-0.2,0-0.3,0v-0.4
			c-0.1,0-0.2,0-0.3,0v-0.4c-0.1,0-0.2,0-0.3,0v-0.4c-0.1,0-0.2,0-0.3,0v-0.4c-0.1,0-0.2,0-0.3,0v-0.4c-0.1,0-0.2,0-0.3,0v-0.4
			c-0.1,0-0.2,0-0.4,0v-0.4c-0.1,0-0.2,0-0.4,0v-0.4c-0.1,0-0.2,0-0.4,0v-0.4c-0.1,0-0.2,0-0.4,0v-0.4c-0.1,0-0.2,0-0.4,0v-0.4
			c-0.1,0-0.2,0-0.4,0v-0.4c-0.1,0-0.2,0-0.4,0v-0.4c-0.1,0-0.2,0-0.4,0V997c-0.1,0-0.2,0-0.4,0v-0.4c-0.1,0-0.2,0-0.4,0v-0.4
			c-0.1,0-0.2,0-0.4,0v-0.4c-0.1,0-0.2,0-0.4,0v-0.4c-0.1,0-0.2,0-0.4,0v-0.4c-0.1,0-0.2,0-0.4,0v-0.4c-0.1,0-0.2,0-0.4,0v-0.4
			c-0.1,0-0.2,0-0.4,0V994c-0.1,0-0.3,0-0.4,0v-0.4c-0.1,0-0.3,0-0.4,0v-0.4c-0.1,0-0.3,0-0.4,0v-0.4c-0.1,0-0.3,0-0.4,0v-0.4
			c-0.1,0-0.3,0-0.4,0v-0.4c-0.1,0-0.3,0-0.4,0v-0.4c-0.1,0-0.3,0-0.4,0v-0.4c-0.1,0-0.3,0-0.4,0v-0.4c-0.1,0-0.3,0-0.4,0v-0.4
			c-0.1,0-0.3,0-0.4,0v-0.4c-0.1,0-0.3,0-0.4,0v-0.4c-0.1,0-0.3,0-0.4,0v-0.4c-0.1,0-0.3,0-0.4,0v-0.4c-0.1,0-0.3,0-0.4,0v-0.4
			c-0.1,0-0.3,0-0.4,0v-0.4c-0.1,0-0.3,0-0.4,0v-0.4c-0.1,0-0.3,0-0.4,0v-0.4c-0.1,0-0.3,0-0.4,0v-0.4c-0.1,0-0.3,0-0.4,0v-0.4
			c-0.1,0-0.3,0-0.4,0v-0.4c-0.1,0-0.3,0-0.4,0v-0.4c-0.1,0-0.3,0-0.4,0v-0.4c-0.1,0-0.3,0-0.4,0v-0.4c-0.1,0-0.3,0-0.4,0v-0.4
			c-0.1,0-0.3,0-0.4,0V984c-0.1,0-0.3,0-0.4,0v-0.5c-0.1,0-0.3,0-0.4,0v-0.5c-0.1,0-0.3,0-0.4,0v-0.5c-0.1,0-0.3,0-0.4,0v-0.5
			c-0.1,0-0.3,0-0.4,0v-0.5c-0.1,0-0.3,0-0.4,0v-0.5c-0.1,0-0.3,0-0.4,0V981c-0.1,0-0.3,0-0.4,0v-0.5c-0.2,0-0.3,0-0.4,0v-0.5
			c-0.2,0-0.3,0-0.4,0v-0.5c-0.2,0-0.3,0-0.4,0v-0.5c-0.2,0-0.3,0-0.4,0v-0.5c-0.2,0-0.3,0-0.4,0v-0.5c-0.2,0-0.3,0-0.4,0v-0.5
			c-0.2,0-0.3,0-0.5,0v-0.5c-0.2,0-0.3,0-0.5,0V977c-0.2,0-0.3,0-0.5,0v-0.5c-0.2,0-0.3,0-0.5,0V976c-0.2,0-0.3,0-0.5,0v-0.5
			c-0.2,0-0.3,0-0.5,0v-0.5c-0.2,0-0.3,0-0.5,0v-0.5c-0.2,0-0.3,0-0.5,0v-0.5c-0.2,0-0.3,0-0.5,0v-0.5c-0.2,0-0.3,0-0.5,0v-0.5
			c-0.2,0-0.3,0-0.5,0v-0.5c-0.2,0-0.3,0-0.5,0v-0.5c-0.2,0-0.3,0-0.5,0v-0.5c-0.2,0-0.3,0-0.5,0v-0.5c-0.2,0-0.3,0-0.5,0v-0.5
			c-0.2,0-0.3,0-0.5,0v-0.5c-0.2,0-0.3,0-0.5,0V970c-0.2,0-0.3,0-0.5,0v-0.5c-0.2,0-0.3,0-0.5,0V969c-0.2,0-0.3,0-0.5,0v-0.5
			c-0.2,0-0.3,0-0.5,0V968c-0.2,0-0.3,0-0.5,0v-0.5c-0.2,0-0.3,0-0.5,0V967c-0.2,0-0.3,0-0.5,0v-0.5c-0.2,0-0.3,0-0.5,0v-0.5
			c-0.2,0-0.3,0-0.5,0v-0.5c-0.2,0-0.3,0-0.5,0v-0.5c-0.2,0-0.3,0-0.5,0v-0.5c-0.2,0-0.3,0-0.5,0v-0.5c-0.2,0-0.3,0-0.5,0v-0.5
			c-0.2,0-0.3,0-0.5,0v-0.5c-0.2,0-0.3,0-0.5,0v-0.5c-0.2,0-0.3,0-0.5,0V962c-0.2,0-0.3,0-0.5,0v-0.5c-0.2,0-0.3,0-0.5,0V961
			c-0.2,0-0.3,0-0.5,0v-0.5c-0.2,0-0.3,0-0.5,0V960c-0.2,0-0.3,0-0.5,0v-0.5c-0.2,0-0.3,0-0.5,0V959c-0.2,0-0.3,0-0.5,0v-0.5
			c-0.2,0-0.3,0-0.5,0v-0.6c-0.2,0-0.3,0-0.5,0v-0.6c-0.2,0-0.3,0-0.5,0v-0.6c-0.2,0-0.3,0-0.5,0v-0.6c-0.2,0-0.3,0-0.5,0v-0.6
			c-0.2,0-0.4,0-0.5,0v-0.6c-0.2,0-0.4,0-0.5,0v-0.6c-0.2,0-0.4,0-0.5,0v-0.6c-0.2,0-0.4,0-0.5,0v-0.6c-0.2,0-0.4,0-0.5,0v-0.6
			c-0.2,0-0.4,0-0.5,0v-0.6c-0.2,0-0.4,0-0.5,0v-0.6c-0.2,0-0.4,0-0.5,0v-0.6c-0.2,0-0.4,0-0.5,0V951c-0.2,0-0.4,0-0.5,0v-0.6
			c-0.2,0-0.4,0-0.5,0v-0.6c-0.2,0-0.4,0-0.5,0v-0.6c-0.2,0-0.4,0-0.6,0v-0.6c-0.2,0-0.4,0-0.6,0v-0.6c-0.2,0-0.4,0-0.6,0v-0.6
			c-0.2,0-0.4,0-0.6,0v-0.6c-0.2,0-0.4,0-0.6,0v-0.6c-0.2,0-0.4,0-0.6,0V946c-0.2,0-0.4,0-0.6,0v-0.6c-0.2,0-0.4,0-0.6,0v-0.6
			c-0.2,0-0.4,0-0.6,0v-0.6c-0.2,0-0.4,0-0.6,0v-0.6c-0.2,0-0.4,0-0.6,0v-0.6c-0.2,0-0.4,0-0.6,0v-0.6c-0.2,0-0.4,0-0.6,0V942
			c-0.2,0-0.4,0-0.6,0v-0.6c-0.2,0-0.4,0-0.6,0v-0.6c-0.2,0-0.4,0-0.6,0v-0.6c-0.2,0-0.4,0-0.6,0v-0.6c-0.2,0-0.4,0-0.6,0v-0.6
			c-0.2,0-0.4,0-0.6,0v-0.6c-0.2,0-0.4,0-0.6,0v-0.6c-0.2,0-0.4,0-0.6,0v-0.6c-0.2,0-0.4,0-0.6,0v-0.6c-0.2,0-0.4,0-0.6,0v-0.6
			c-0.2,0-0.4,0-0.6,0v-0.6c-0.2,0-0.4,0-0.6,0V935c-0.2,0-0.4,0-0.6,0v-0.6c-0.2,0-0.4,0-0.6,0v-0.6c-0.2,0-0.4,0-0.6,0v-0.6
			c-0.2,0-0.4,0-0.6,0v-0.6c-0.2,0-0.4,0-0.6,0V932c-0.2,0-0.4,0-0.6,0v-0.6c-0.2,0-0.4,0-0.6,0v-0.6c-0.2,0-0.4,0-0.6,0v-0.6
			c-0.2,0-0.4,0-0.6,0v-0.6c-0.2,0-0.4,0-0.6,0v-0.6c-0.2,0-0.4,0-0.6,0v-0.7c-0.2,0-0.4,0-0.6,0v-0.7c-0.2,0-0.4,0-0.6,0v-0.7
			c-0.2,0-0.4,0-0.6,0v-0.7c-0.2,0-0.4,0-0.6,0v-0.7c-0.2,0-0.4,0-0.6,0v-0.7c-3.8,0.1-7.2,0.7-10.7,1.6c0,0-0.1-0.1-0.1-0.1
			c-0.2-0.2-0.4-0.4-0.6-0.6c-0.2-0.2-0.4-0.4-0.6-0.6C-322.9,917.3-333.9,912.3-346.3,912.3L-346.3,912.3z"/>
	</g>
	<path id="path5566" inkscape:connector-curvature="0" class="st6" d="M-346.9,911.6c-13,0-24.5,5.6-32.6,14.5
		c-3.5-0.9-6.9-1.5-10.7-1.6v14.7c-5.4,3.4-9.2,9.7-9.2,16.7c0,7,3.8,13.2,9.2,16.7c2.3,21.6,20.7,38.4,43.3,38.4
		c22.2,0,40.6-16.5,42.9-38l0.4-0.4c5.4-3.5,9.2-9.7,9.2-16.7s-3.8-13.3-9.2-16.8v-14.6c-3.8,0.1-7.3,0.7-10.7,1.6
		C-322.3,917.2-333.8,911.6-346.9,911.6z M-346.9,919.8c9.2,0,18,3.6,24.2,9.5c-1.5,0.8-3.1,1.6-4.2,2.5c-6.1-3.1-12.7-4.9-19.9-4.9
		c-7.3,0-13.8,1.8-19.9,4.9c-1.2-0.9-3.1-1.8-4.2-2.4C-364.9,923.4-356.1,919.8-346.9,919.8z M-381.8,934c5.8,1.4,10.7,4.1,15,7.7
		c5.8-4,12.7-6.3,19.9-6.3c7.3,0,14.2,2.3,19.9,6.3c4.2-3.6,9.2-6.2,14.6-7.7v34.2c0,19.2-15.3,34.6-34.5,34.6
		c-19.2,0-34.9-15.3-34.9-34.5V934z M-371.7,967.7c-1,0-1.6,0-1.6,0c0.4,1.8,0,6.9,5.8,10.1c0.8,0.5,3.1,1.3,5.4,1.4
		c5.4,0.2,13,0.3,13,0.3c-1.5-6.1-3.8-10.7-8.4-11.2C-361.9,967.8-368.6,967.7-371.7,967.7L-371.7,967.7z M-322.1,967.7
		c-3.1,0-9.8,0.1-14.1,0.6c-5,0.5-6.9,5.1-8.4,11.2c0,0,7.7-0.1,13-0.3c2.3-0.1,4.6-0.9,5.4-1.4c5.8-3.2,5.4-8.3,5.8-10.1
		C-320.4,967.7-321,967.7-322.1,967.7L-322.1,967.7z M-357.6,984c3.1,2.9,6.5,5.1,10.7,6.5c3.8-1.4,7.7-3.6,10.7-6.5H-357.6z
		 M-354.9,992.3c0,0-0.8,0.3-1.5,1.4c-0.4,0.9-0.8,2-0.8,2c3.1,1.8,6.5,2.8,10.4,2.8c3.8,0,7.3-1,10-2.8c0,0,0-0.8-0.4-1.8
		c-0.8-1.2-1.5-1.6-1.5-1.6c-2.7,0.7-5.4,1.1-8.1,1.1C-349.6,993.4-352.6,993-354.9,992.3z"/>
	<path id="path4883" inkscape:connector-curvature="0" class="st7" d="M-346.9,911.6c-13,0-24.5,5.6-32.6,14.5
		c-3.5-0.9-6.9-1.5-10.7-1.6v14.7c-5.4,3.4-9.2,9.7-9.2,16.7c0,7,3.8,13.2,9.2,16.7c2.3,21.6,20.7,38.4,43.3,38.4
		c22.2,0,40.6-16.5,42.9-38l0.4-0.4c5.4-3.5,9.2-9.7,9.2-16.7s-3.8-13.3-9.2-16.8v-14.6c-3.8,0.1-7.3,0.7-10.7,1.6
		C-322.3,917.2-333.8,911.6-346.9,911.6z M-346.9,919.8c9.2,0,18,3.6,24.2,9.5c-1.5,0.8-3.1,1.6-4.2,2.5c-6.1-3.1-12.7-4.9-19.9-4.9
		c-7.3,0-13.8,1.8-19.9,4.9c-1.2-0.9-3.1-1.8-4.2-2.4C-364.9,923.4-356.1,919.8-346.9,919.8z M-381.8,934c5.8,1.4,10.7,4.1,15,7.7
		c5.8-4,12.7-6.3,19.9-6.3c7.3,0,14.2,2.3,19.9,6.3c4.2-3.6,9.2-6.2,14.6-7.7v34.2c0,19.2-15.3,34.6-34.5,34.6
		c-19.2,0-34.9-15.3-34.9-34.5V934z M-371.7,967.7c-1,0-1.6,0-1.6,0c0.4,1.8,0,6.9,5.8,10.1c0.8,0.5,3.1,1.3,5.4,1.4
		c5.4,0.2,13,0.3,13,0.3c-1.5-6.1-3.8-10.7-8.4-11.2C-361.9,967.8-368.6,967.7-371.7,967.7L-371.7,967.7z M-322.1,967.7
		c-3.1,0-9.8,0.1-14.1,0.6c-5,0.5-6.9,5.1-8.4,11.2c0,0,7.7-0.1,13-0.3c2.3-0.1,4.6-0.9,5.4-1.4c5.8-3.2,5.4-8.3,5.8-10.1
		C-320.4,967.7-321,967.7-322.1,967.7L-322.1,967.7z M-357.6,984c3.1,2.9,6.5,5.1,10.7,6.5c3.8-1.4,7.7-3.6,10.7-6.5H-357.6z
		 M-354.9,992.3c0,0-0.8,0.3-1.5,1.4c-0.4,0.9-0.8,2-0.8,2c3.1,1.8,6.5,2.8,10.4,2.8c3.8,0,7.3-1,10-2.8c0,0,0-0.8-0.4-1.8
		c-0.8-1.2-1.5-1.6-1.5-1.6c-2.7,0.7-5.4,1.1-8.1,1.1C-349.6,993.4-352.6,993-354.9,992.3z"/>
	<path id="path4885" inkscape:connector-curvature="0" class="st8" d="M-346.9,911.6c-13,0-24.5,5.5-32.6,14.4
		c-3.5-0.9-6.9-1.5-10.7-1.6V939c-5.4,3.4-9.2,9.6-9.2,16.6c0,6.9,3.8,13.1,9.2,16.6c2.3,21.4,20.7,38.1,43.3,38.1
		c22.2,0,40.6-16.4,42.9-37.7l0.4-0.4c5.4-3.5,9.2-9.6,9.2-16.6s-3.8-13.2-9.2-16.7v-14.5c-3.8,0.1-7.3,0.7-10.7,1.6
		C-322.3,917.2-333.8,911.6-346.9,911.6z M-346.9,919.7c9.2,0,18,3.5,24.2,9.4c-1.5,0.8-3.1,1.6-4.2,2.5c-6.1-3.1-12.7-4.8-19.9-4.8
		c-7.3,0-13.8,1.8-19.9,4.8c-1.2-0.9-3.1-1.8-4.2-2.4C-364.9,923.3-356.1,919.7-346.9,919.7z M-381.8,933.8c5.8,1.4,10.7,4,15,7.6
		c5.8-3.9,12.7-6.2,19.9-6.2c7.3,0,14.2,2.3,19.9,6.2c4.2-3.5,9.2-6.1,14.6-7.6v33.8c0,19-15.3,34.2-34.5,34.2
		c-19.2,0-34.9-15.2-34.9-34.1C-381.8,967.7-381.8,933.8-381.8,933.8z M-371.7,967.1c-1,0-1.6,0-1.6,0c0.4,1.8,0,6.8,5.8,10
		c0.8,0.5,3.1,1.3,5.4,1.4c5.4,0.2,13,0.3,13,0.3c-1.5-6-3.8-10.5-8.4-11C-361.9,967.2-368.6,967.1-371.7,967.1L-371.7,967.1z
		 M-322.1,967.1c-3.1,0-9.8,0.1-14.1,0.6c-5,0.5-6.9,5-8.4,11c0,0,7.7-0.1,13-0.3c2.3-0.1,4.6-0.9,5.4-1.4c5.8-3.2,5.4-8.2,5.8-10
		C-320.4,967.1-321,967.1-322.1,967.1L-322.1,967.1z M-357.6,983.3c3.1,2.9,6.5,5,10.7,6.4c3.8-1.4,7.7-3.5,10.7-6.4
		C-336.1,983.3-357.6,983.3-357.6,983.3z M-354.9,991.5c0,0-0.8,0.3-1.5,1.4c-0.4,0.9-0.8,2-0.8,2c3.1,1.8,6.5,2.8,10.4,2.8
		c3.8,0,7.3-1,10-2.8c0,0,0-0.8-0.4-1.8c-0.8-1.2-1.5-1.6-1.5-1.6c-2.7,0.7-5.4,1.1-8.1,1.1C-349.6,992.6-352.6,992.2-354.9,991.5z"
		/>
	<path id="path4211" inkscape:connector-curvature="0" class="st9" d="M-346.9,912.6c-13,0-24.5,5.5-32.6,14.2
		c-3.5-0.9-6.9-1.5-10.7-1.6v14.4c-5.4,3.3-9.2,9.5-9.2,16.4c0,6.8,3.8,13,9.2,16.4c2.3,21.2,20.7,37.7,43.3,37.7
		c22.2,0,40.6-16.2,42.9-37.3l0.4-0.4c5.4-3.4,9.2-9.5,9.2-16.4c0-6.9-3.8-13.1-9.2-16.5v-14.3c-3.8,0.1-7.3,0.7-10.7,1.6
		C-322.3,918.1-333.8,912.6-346.9,912.6z M-346.9,920.6c9.2,0,18,3.5,24.2,9.3c-1.5,0.8-3.1,1.6-4.2,2.4c-6.1-3-12.7-4.8-19.9-4.8
		c-7.3,0-13.8,1.8-19.9,4.8c-1.2-0.9-3.1-1.8-4.2-2.3C-364.9,924.1-356.1,920.6-346.9,920.6z M-381.8,934.6c5.8,1.4,10.7,4,15,7.5
		c5.8-3.9,12.7-6.1,19.9-6.1c7.3,0,14.2,2.2,19.9,6.1c4.2-3.5,9.2-6,14.6-7.5v33.5c0,18.8-15.3,33.9-34.5,33.9
		c-19.2,0-34.9-15-34.9-33.8C-381.8,968.2-381.8,934.6-381.8,934.6z M-371.7,967.6c-1,0-1.6,0-1.6,0c0.4,1.8,0,6.7,5.8,9.9
		c0.8,0.5,3.1,1.3,5.4,1.4c5.4,0.2,13,0.3,13,0.3c-1.5-6-3.8-10.4-8.4-10.9C-361.9,967.6-368.6,967.6-371.7,967.6L-371.7,967.6z
		 M-322.1,967.6c-3.1,0-9.8,0.1-14.1,0.6c-5,0.5-6.9,5-8.4,10.9c0,0,7.7-0.1,13-0.3c2.3-0.1,4.6-0.9,5.4-1.4
		c5.8-3.1,5.4-8.1,5.8-9.9C-320.4,967.6-321,967.6-322.1,967.6L-322.1,967.6z M-357.6,983.6c3.1,2.8,6.5,5,10.7,6.3
		c3.8-1.4,7.7-3.5,10.7-6.3C-336.1,983.6-357.6,983.6-357.6,983.6z M-354.9,991.7c0,0-0.8,0.3-1.5,1.4c-0.4,0.9-0.8,2-0.8,2
		c3.1,1.8,6.5,2.7,10.4,2.7c3.8,0,7.3-1,10-2.7c0,0,0-0.8-0.4-1.8c-0.8-1.2-1.5-1.6-1.5-1.6c-2.7,0.7-5.4,1.1-8.1,1.1
		C-349.6,992.7-352.6,992.4-354.9,991.7z"/>
</g>
<g id="layer5" inkscape:label="Square 1" inkscape:groupmode="layer" sodipodi:insensitive="true">
	
		<radialGradient id="rect7724_1_" cx="-433.0806" cy="2122.4934" r="76" gradientTransform="matrix(2.534750e-003 1.9948 2.0024 -2.544370e-003 -4671.8779 1754.5006)" gradientUnits="userSpaceOnUse">
		<stop  offset="0" style="stop-color:#FFFFFF"/>
		<stop  offset="1" style="stop-color:#FFFFFF;stop-opacity:0"/>
	</radialGradient>
	
		<radialGradient id="rect7724_2_" cx="-433.0805" cy="2122.4934" r="76" gradientTransform="matrix(2.534720e-003 1.9948 2.0024 -2.544350e-003 -4671.8774 1754.5005)" gradientUnits="userSpaceOnUse">
		<stop  offset="0" style="stop-color:#FFFFFF"/>
		<stop  offset="1" style="stop-color:#FFFFFF;stop-opacity:0"/>
	</radialGradient>
	<path id="rect7724" class="st10" d="M-411.6,885.5h129.2c6,0,10.9,4.9,10.9,10.9v129.2c0,6-4.9,10.9-10.9,10.9h-129.2
		c-6,0-10.9-4.9-10.9-10.9V896.4C-422.5,890.4-417.6,885.5-411.6,885.5z"/>
</g>
</svg>
