<?xml version="1.0" encoding="utf-8"?>
<!-- Generator: Adobe Illustrator 19.0.1, SVG Export Plug-In . SVG Version: 6.00 Build 0)  -->
<!DOCTYPE svg PUBLIC "-//W3C//DTD SVG 1.1//EN" "http://www.w3.org/Graphics/SVG/1.1/DTD/svg11.dtd">
<svg version="1.1"
	 id="svg2" xmlns:svg="http://www.w3.org/2000/svg" xmlns:dc="http://purl.org/dc/elements/1.1/" xmlns:rdf="http://www.w3.org/1999/02/22-rdf-syntax-ns#" xmlns:cc="http://creativecommons.org/ns#" xmlns:sodipodi="http://sodipodi.sourceforge.net/DTD/sodipodi-0.dtd" xmlns:inkscape="http://www.inkscape.org/namespaces/inkscape" inkscape:export-ydpi="90" inkscape:export-xdpi="90" inkscape:export-filename="C:\Users\Simon\Documents\Material Design Icon Pack\PNG\netflix.png" sodipodi:docname="netflix.svg" inkscape:version="0.91 r13725"
	 xmlns="http://www.w3.org/2000/svg" xmlns:xlink="http://www.w3.org/1999/xlink" x="0px" y="0px" viewBox="-443 865 192 192"
	 style="enable-background:new -443 865 192 192;" xml:space="preserve">
<style type="text/css">
	.st0{fill:#FFFFFF;stroke:#FFFFFF;stroke-width:1.0001;stroke-linejoin:round;}
	.st1{filter:url(#filter4827);}
	.st2{fill:#CCCCCC;}
	.st3{fill:none;stroke:#CCCCCC;stroke-width:0.9614;stroke-linejoin:round;}
	.st4{fill:#FFFFFF;stroke:#FFFFFF;stroke-width:0.9936;stroke-linejoin:round;}
	.st5{clip-path:url(#SVGID_2_);fill:#F44336;}
	
		.st6{opacity:0.1;fill:url(#rect7724_1_);stroke:url(#rect7724_2_);stroke-width:1.0001;stroke-linejoin:round;enable-background:new    ;}
</style>
<filter  inkscape:label="Drop Shadow" style="color-interpolation-filters:sRGB;" id="filter4827">
	<feFlood  result="flood" flood-color="rgb(0,0,0)" flood-opacity="0.29999999999999999" id="feFlood4829"></feFlood>
	<feComposite  operator="in" in2="SourceGraphic" in="flood" result="composite1" id="feComposite4831"></feComposite>
	<feGaussianBlur  in="composite1" stdDeviation="3" result="blur" id="feGaussianBlur4833"></feGaussianBlur>
	<feOffset  dy="3" dx="4.57967e-015" result="offset" id="feOffset4835"></feOffset>
	<feComposite  operator="over" in2="offset" in="SourceGraphic" result="composite2" id="feComposite4837"></feComposite>
</filter>
<sodipodi:namedview  showgrid="false" showguides="true" inkscape:cy="84.922918" inkscape:cx="101.34301" borderopacity="1.0" bordercolor="#666666" pagecolor="#e4e4e4" id="base" inkscape:zoom="3.75" inkscape:snap-global="false" inkscape:window-maximized="1" inkscape:window-y="-8" inkscape:window-x="-8" inkscape:window-height="1017" inkscape:window-width="1920" inkscape:guide-bbox="true" inkscape:pageshadow="2" inkscape:current-layer="layer4" inkscape:pageopacity="0" inkscape:document-units="px">
	<inkscape:grid  type="xygrid" empspacing="5" enabled="true" visible="true" id="grid2985" snapvisiblegridlinesonly="true">
		</inkscape:grid>
	<sodipodi:guide  id="guide3002" orientation="1,0" position="8,58.524064"></sodipodi:guide>
	<sodipodi:guide  id="guide3004" orientation="1,0" position="20,69.304813"></sodipodi:guide>
	<sodipodi:guide  id="guide3006" orientation="1,0" position="32,62.631016"></sodipodi:guide>
	<sodipodi:guide  id="guide3008" orientation="1,0" position="68,53.390374"></sodipodi:guide>
	<sodipodi:guide  id="guide3010" orientation="0,1" position="119.61497,8"></sodipodi:guide>
	<sodipodi:guide  id="guide3012" orientation="0,1" position="155.5508,20"></sodipodi:guide>
	<sodipodi:guide  id="guide3014" orientation="0,1" position="132.96257,32"></sodipodi:guide>
	<sodipodi:guide  id="guide3016" orientation="0,1" position="130.90909,68"></sodipodi:guide>
	<sodipodi:guide  id="guide3018" orientation="0,1" position="137.06952,184"></sodipodi:guide>
	<sodipodi:guide  id="guide3020" orientation="1,0" position="184,145.79679"></sodipodi:guide>
	<sodipodi:guide  id="guide3022" orientation="0,1" position="91.379679,172"></sodipodi:guide>
	<sodipodi:guide  id="guide3024" orientation="1,0" position="172.15693,140.10142"></sodipodi:guide>
	<sodipodi:guide  id="guide3026" orientation="0,1" position="149.39037,160"></sodipodi:guide>
	<sodipodi:guide  id="guide3028" orientation="1,0" position="160,88.299465"></sodipodi:guide>
	<sodipodi:guide  id="guide3030" orientation="0,1" position="128.34225,124"></sodipodi:guide>
	<sodipodi:guide  id="guide3032" orientation="1,0" position="124,92.919786"></sodipodi:guide>
</sodipodi:namedview>
<g id="layer4" inkscape:label="Square" inkscape:groupmode="layer">
	<path id="rect7755" class="st0" d="M-411.6,885.5h129.2c6,0,10.9,4.9,10.9,10.9v129.2c0,6-4.9,10.9-10.9,10.9h-129.2
		c-6,0-10.9-4.9-10.9-10.9V896.4C-422.5,890.4-417.6,885.5-411.6,885.5z"/>
	<g id="rect7757" class="st1">
		<path class="st2" d="M-412.5,897h130.9c5.6,0,10.1,4.5,10.1,10.1v119.3c0,5.6-4.5,10.1-10.1,10.1h-130.9
			c-5.6,0-10.1-4.5-10.1-10.1V907.1C-422.5,901.6-418,897-412.5,897z"/>
		<path class="st3" d="M-412.5,897h130.9c5.6,0,10.1,4.5,10.1,10.1v119.3c0,5.6-4.5,10.1-10.1,10.1h-130.9
			c-5.6,0-10.1-4.5-10.1-10.1V907.1C-422.5,901.6-418,897-412.5,897z"/>
	</g>
	<path id="rect3811" class="st4" d="M-411.7,886.5h129.5c5.9,0,10.8,4.8,10.8,10.8v127.5c0,5.9-4.8,10.8-10.8,10.8h-129.5
		c-5.9,0-10.8-4.8-10.8-10.8V897.2C-422.5,891.3-417.7,886.5-411.7,886.5z"/>
	<g id="flowRoot9367">
	</g>
	<g>
		<defs>
			<path id="SVGID_1_" d="M-413.1,908.3h132.4c1.8,0,3.3,1.6,3.3,3.5v99.1c0,1.9-1.5,3.5-3.3,3.5h-132.4c-1.8,0-3.3-1.6-3.3-3.5
				v-99.1C-416.5,909.9-415,908.3-413.1,908.3z"/>
		</defs>
		<clipPath id="SVGID_2_">
			<use xlink:href="#SVGID_1_"  style="overflow:visible;"/>
		</clipPath>
		
			<path id="path3015" inkscape:connector-curvature="0" inkscape:export-ydpi="90" inkscape:export-xdpi="90" inkscape:export-filename="C:\Users\Simon\Documents\Material Design Icon Pack\PNG\netflix.png" class="st5" d="
			M-383.5,944.9v25.7v4.8v0c3.9-0.4,7.8-0.7,11.8-0.9v0V973v-3.4c-2.3,0.1-4.6,0.3-6.8,0.5v-7.6h5.9v-4.8h-5.9v-8.1h6.8v-4.8H-383.5
			z M-366.9,944.9v4.8h4.6V974c1.6-0.1,3.3-0.1,4.9-0.2v-24.2h4.6v-4.8C-352.7,944.9-366.9,944.9-366.9,944.9z M-347.9,944.9v28.8
			c0.3,0,0.6,0,1,0c1.3,0,2.7,0,4,0v-11.2h5.9v-4.8h-5.9v-8.1h6.8v-4.8L-347.9,944.9L-347.9,944.9z M-331.3,944.9v24.3v4.8v0
			c3.9,0.2,7.9,0.4,11.8,0.6v0v-1.5v-3.2c-2.3-0.2-4.6-0.3-6.8-0.4v-24.6L-331.3,944.9L-331.3,944.9z M-305.2,944.9l5.1,15.2
			l-6,15.7c1.6,0.2,3.2,0.3,4.8,0.5l3.5-9.2l3.4,10.1c1.7,0.2,3.5,0.5,5.2,0.7l-5.9-17.6l5.9-15.3h-5l-0.1,0.1l-3.2,8.3l-2.8-8.4
			H-305.2L-305.2,944.9z M-404.8,944.9v33h0c1.6-0.2,3.1-0.4,4.7-0.7V959l5.8,17.4c1.8-0.2,3.6-0.4,5.4-0.6v-31h-4.7v18.8l-6.3-18.8
			h-0.2L-404.8,944.9L-404.8,944.9z M-314.8,944.9v30.1c1.6,0.1,3.3,0.3,4.9,0.4v-30.5H-314.8z"/>
	</g>
</g>
<g id="layer5" inkscape:label="Square 1" inkscape:groupmode="layer">
	
		<radialGradient id="rect7724_1_" cx="-433.0806" cy="2122.4934" r="76" gradientTransform="matrix(2.534750e-003 1.9948 2.0024 -2.544370e-003 -4671.8779 1754.5006)" gradientUnits="userSpaceOnUse">
		<stop  offset="0" style="stop-color:#FFFFFF"/>
		<stop  offset="1" style="stop-color:#FFFFFF;stop-opacity:0"/>
	</radialGradient>
	
		<radialGradient id="rect7724_2_" cx="-433.0805" cy="2122.4934" r="76" gradientTransform="matrix(2.534720e-003 1.9948 2.0024 -2.544350e-003 -4671.8774 1754.5005)" gradientUnits="userSpaceOnUse">
		<stop  offset="0" style="stop-color:#FFFFFF"/>
		<stop  offset="1" style="stop-color:#FFFFFF;stop-opacity:0"/>
	</radialGradient>
	<path id="rect7724" class="st6" d="M-411.6,885.5h129.2c6,0,10.9,4.9,10.9,10.9v129.2c0,6-4.9,10.9-10.9,10.9h-129.2
		c-6,0-10.9-4.9-10.9-10.9V896.4C-422.5,890.4-417.6,885.5-411.6,885.5z"/>
</g>
</svg>
