<?xml version="1.0" encoding="UTF-8" standalone="no"?>
<!-- Created with Inkscape (http://www.inkscape.org/) -->

<svg
   xmlns:dc="http://purl.org/dc/elements/1.1/"
   xmlns:cc="http://creativecommons.org/ns#"
   xmlns:rdf="http://www.w3.org/1999/02/22-rdf-syntax-ns#"
   xmlns:svg="http://www.w3.org/2000/svg"
   xmlns="http://www.w3.org/2000/svg"
   xmlns:xlink="http://www.w3.org/1999/xlink"
   xmlns:sodipodi="http://sodipodi.sourceforge.net/DTD/sodipodi-0.dtd"
   xmlns:inkscape="http://www.inkscape.org/namespaces/inkscape"
   width="192"
   height="192"
   id="svg2"
   version="1.1"
   inkscape:version="0.91 r13725"
   sodipodi:docname="quickpic.svg"
   inkscape:export-filename="C:\Users\Simon\Documents\Material Design Icon Pack\PNG\quickpic.png"
   inkscape:export-xdpi="90"
   inkscape:export-ydpi="90">
  <sodipodi:namedview
     id="base"
     pagecolor="#ffffff"
     bordercolor="#666666"
     borderopacity="1.0"
     inkscape:pageopacity="0.0"
     inkscape:pageshadow="2"
     inkscape:zoom="4.7708333"
     inkscape:cx="95.468622"
     inkscape:cy="120.10121"
     inkscape:document-units="px"
     inkscape:current-layer="layer3"
     showgrid="true"
     showguides="false"
     inkscape:guide-bbox="true"
     inkscape:window-width="1920"
     inkscape:window-height="1017"
     inkscape:window-x="-8"
     inkscape:window-y="-8"
     inkscape:window-maximized="1"
     inkscape:snap-global="false">
    <inkscape:grid
       snapvisiblegridlinesonly="true"
       enabled="true"
       visible="true"
       empspacing="5"
       id="grid2985"
       type="xygrid" />
    <sodipodi:guide
       id="guide3002"
       position="8,58.524064"
       orientation="1,0" />
    <sodipodi:guide
       id="guide3004"
       position="20,69.304813"
       orientation="1,0" />
    <sodipodi:guide
       id="guide3006"
       position="32,62.631016"
       orientation="1,0" />
    <sodipodi:guide
       id="guide3008"
       position="68,53.390374"
       orientation="1,0" />
    <sodipodi:guide
       id="guide3010"
       position="119.61497,8"
       orientation="0,1" />
    <sodipodi:guide
       id="guide3012"
       position="155.5508,20"
       orientation="0,1" />
    <sodipodi:guide
       id="guide3014"
       position="132.96257,32"
       orientation="0,1" />
    <sodipodi:guide
       id="guide3016"
       position="130.90909,68"
       orientation="0,1" />
    <sodipodi:guide
       id="guide3018"
       position="137.06952,184"
       orientation="0,1" />
    <sodipodi:guide
       id="guide3020"
       position="184,145.79679"
       orientation="1,0" />
    <sodipodi:guide
       id="guide3022"
       position="91.379679,172"
       orientation="0,1" />
    <sodipodi:guide
       id="guide3024"
       position="172,101.64706"
       orientation="1,0" />
    <sodipodi:guide
       id="guide3026"
       position="149.39037,160"
       orientation="0,1" />
    <sodipodi:guide
       id="guide3028"
       position="160,88.299465"
       orientation="1,0" />
    <sodipodi:guide
       id="guide3030"
       position="128.34225,124"
       orientation="0,1" />
    <sodipodi:guide
       id="guide3032"
       position="124,92.919786"
       orientation="1,0" />
  </sodipodi:namedview>
  <defs
     id="defs4">
    <linearGradient
       inkscape:collect="always"
       id="linearGradient7847">
      <stop
         style="stop-color:#ffffff;stop-opacity:1;"
         offset="0"
         id="stop7849" />
      <stop
         style="stop-color:#ffffff;stop-opacity:0;"
         offset="1"
         id="stop7851" />
    </linearGradient>
    <linearGradient
       inkscape:collect="always"
       id="linearGradient7839">
      <stop
         style="stop-color:#ffffff;stop-opacity:1;"
         offset="0"
         id="stop7841" />
      <stop
         style="stop-color:#ffffff;stop-opacity:0;"
         offset="1"
         id="stop7843" />
    </linearGradient>
    <linearGradient
       inkscape:collect="always"
       id="linearGradient11270">
      <stop
         style="stop-color:#000000;stop-opacity:1;"
         offset="0"
         id="stop11272" />
      <stop
         style="stop-color:#000000;stop-opacity:0;"
         offset="1"
         id="stop11274" />
    </linearGradient>
    <filter
       style="color-interpolation-filters:sRGB;"
       inkscape:label="z-depth1"
       id="filter4284">
      <feFlood
         flood-opacity="0.12"
         flood-color="rgb(0,0,0)"
         result="flood"
         id="feFlood4286" />
      <feComposite
         in="flood"
         in2="SourceGraphic"
         operator="in"
         result="composite1"
         id="feComposite4288" />
      <feGaussianBlur
         in="composite"
         stdDeviation="1.5"
         result="blur"
         id="feGaussianBlur4290" />
      <feOffset
         dx="0"
         dy="1"
         result="offset"
         id="feOffset4292" />
      <feComposite
         in="SourceGraphic"
         in2="offset"
         operator="over"
         result="fbSourceGraphic"
         id="feComposite4294" />
      <feColorMatrix
         result="fbSourceGraphicAlpha"
         in="fbSourceGraphic"
         values="0 0 0 -1 0 0 0 0 -1 0 0 0 0 -1 0 0 0 0 1 0"
         id="feColorMatrix4332" />
      <feFlood
         id="feFlood4334"
         flood-opacity="0.24"
         flood-color="rgb(0,0,0)"
         result="flood"
         in="fbSourceGraphic" />
      <feComposite
         id="feComposite4336"
         in2="fbSourceGraphic"
         in="flood"
         operator="in"
         result="composite1" />
      <feGaussianBlur
         id="feGaussianBlur4338"
         in="composite"
         stdDeviation="1"
         result="blur" />
      <feOffset
         id="feOffset4340"
         dx="0"
         dy="1"
         result="offset" />
      <feComposite
         id="feComposite4342"
         in2="offset"
         in="fbSourceGraphic"
         operator="over"
         result="composite2" />
    </filter>
    <filter
       style="color-interpolation-filters:sRGB;"
       inkscape:label="z-depth2"
       id="filter4346">
      <feFlood
         flood-opacity="0.29999999999999999"
         flood-color="rgb(0,0,0)"
         result="flood"
         id="feFlood4348" />
      <feComposite
         in="flood"
         in2="SourceGraphic"
         operator="in"
         result="composite1"
         id="feComposite4350" />
      <feGaussianBlur
         in="composite"
         stdDeviation="3"
         result="blur"
         id="feGaussianBlur4352" />
      <feOffset
         dx="0"
         dy="3"
         result="offset"
         id="feOffset4354" />
      <feComposite
         in="SourceGraphic"
         in2="offset"
         operator="over"
         result="fbSourceGraphic"
         id="feComposite4356" />
      <feColorMatrix
         result="fbSourceGraphicAlpha"
         in="fbSourceGraphic"
         values="0 0 0 -1 0 0 0 0 -1 0 0 0 0 -1 0 0 0 0 1 0"
         id="feColorMatrix4358" />
      <feFlood
         id="feFlood4360"
         flood-opacity="0.23"
         flood-color="rgb(0,0,0)"
         result="flood"
         in="fbSourceGraphic" />
      <feComposite
         id="feComposite4362"
         in2="fbSourceGraphic"
         in="flood"
         operator="in"
         result="composite1" />
      <feGaussianBlur
         id="feGaussianBlur4364"
         in="composite"
         stdDeviation="3"
         result="blur" />
      <feOffset
         id="feOffset4366"
         dx="0"
         dy="3"
         result="offset" />
      <feComposite
         id="feComposite4368"
         in2="offset"
         in="fbSourceGraphic"
         operator="over"
         result="composite2" />
    </filter>
    <filter
       style="color-interpolation-filters:sRGB;"
       inkscape:label="z-depth3"
       id="filter4375">
      <feFlood
         flood-opacity="0.19"
         flood-color="rgb(0,0,0)"
         result="flood"
         id="feFlood4377" />
      <feComposite
         in="flood"
         in2="SourceGraphic"
         operator="in"
         result="composite1"
         id="feComposite4379" />
      <feGaussianBlur
         in="composite"
         stdDeviation="10"
         result="blur"
         id="feGaussianBlur4381" />
      <feOffset
         dx="0"
         dy="10"
         result="offset"
         id="feOffset4383" />
      <feComposite
         in="SourceGraphic"
         in2="offset"
         operator="over"
         result="fbSourceGraphic"
         id="feComposite4385" />
      <feColorMatrix
         result="fbSourceGraphicAlpha"
         in="fbSourceGraphic"
         values="0 0 0 -1 0 0 0 0 -1 0 0 0 0 -1 0 0 0 0 1 0"
         id="feColorMatrix4387" />
      <feFlood
         id="feFlood4389"
         flood-opacity="0.23"
         flood-color="rgb(0,0,0)"
         result="flood"
         in="fbSourceGraphic" />
      <feComposite
         id="feComposite4391"
         in2="fbSourceGraphic"
         in="flood"
         operator="in"
         result="composite1" />
      <feGaussianBlur
         id="feGaussianBlur4393"
         in="composite"
         stdDeviation="3"
         result="blur" />
      <feOffset
         id="feOffset4395"
         dx="0"
         dy="6"
         result="offset" />
      <feComposite
         id="feComposite4397"
         in2="offset"
         in="fbSourceGraphic"
         operator="over"
         result="composite2" />
    </filter>
    <filter
       style="color-interpolation-filters:sRGB;"
       inkscape:label="z-depth4"
       id="filter4419">
      <feFlood
         flood-opacity="0.25"
         flood-color="rgb(0,0,0)"
         result="flood"
         id="feFlood4421" />
      <feComposite
         in="flood"
         in2="SourceGraphic"
         operator="in"
         result="composite1"
         id="feComposite4423" />
      <feGaussianBlur
         in="composite"
         stdDeviation="14"
         result="blur"
         id="feGaussianBlur4425" />
      <feOffset
         dx="0"
         dy="14"
         result="offset"
         id="feOffset4427" />
      <feComposite
         in="SourceGraphic"
         in2="offset"
         operator="over"
         result="fbSourceGraphic"
         id="feComposite4429" />
      <feColorMatrix
         result="fbSourceGraphicAlpha"
         in="fbSourceGraphic"
         values="0 0 0 -1 0 0 0 0 -1 0 0 0 0 -1 0 0 0 0 1 0"
         id="feColorMatrix4431" />
      <feFlood
         id="feFlood4433"
         flood-opacity="0.22"
         flood-color="rgb(0,0,0)"
         result="flood"
         in="fbSourceGraphic" />
      <feComposite
         id="feComposite4435"
         in2="fbSourceGraphic"
         in="flood"
         operator="in"
         result="composite1" />
      <feGaussianBlur
         id="feGaussianBlur4437"
         in="composite"
         stdDeviation="5"
         result="blur" />
      <feOffset
         id="feOffset4439"
         dx="0"
         dy="10"
         result="offset" />
      <feComposite
         id="feComposite4441"
         in2="offset"
         in="fbSourceGraphic"
         operator="over"
         result="composite2" />
    </filter>
    <filter
       style="color-interpolation-filters:sRGB;"
       inkscape:label="z-depth5"
       id="filter4449">
      <feFlood
         flood-opacity="0.3"
         flood-color="rgb(0,0,0)"
         result="flood"
         id="feFlood4451" />
      <feComposite
         in="flood"
         in2="SourceGraphic"
         operator="in"
         result="composite1"
         id="feComposite4453" />
      <feGaussianBlur
         in="composite"
         stdDeviation="19"
         result="blur"
         id="feGaussianBlur4455" />
      <feOffset
         dx="0"
         dy="19"
         result="offset"
         id="feOffset4457" />
      <feComposite
         in="SourceGraphic"
         in2="offset"
         operator="over"
         result="fbSourceGraphic"
         id="feComposite4459" />
      <feColorMatrix
         result="fbSourceGraphicAlpha"
         in="fbSourceGraphic"
         values="0 0 0 -1 0 0 0 0 -1 0 0 0 0 -1 0 0 0 0 1 0"
         id="feColorMatrix4461" />
      <feFlood
         id="feFlood4463"
         flood-opacity="0.22"
         flood-color="rgb(0,0,0)"
         result="flood"
         in="fbSourceGraphic" />
      <feComposite
         id="feComposite4465"
         in2="fbSourceGraphic"
         in="flood"
         operator="in"
         result="composite1" />
      <feGaussianBlur
         id="feGaussianBlur4467"
         in="composite"
         stdDeviation="6"
         result="blur" />
      <feOffset
         id="feOffset4469"
         dx="0"
         dy="15"
         result="offset" />
      <feComposite
         id="feComposite4471"
         in2="offset"
         in="fbSourceGraphic"
         operator="over"
         result="composite2" />
    </filter>
    <clipPath
       clipPathUnits="userSpaceOnUse"
       id="clipPath11254">
      <g
         id="g11256"
         style="display:inline;filter:url(#filter4346)">
        <circle
           r="24"
           cy="70.459892"
           cx="148"
           transform="matrix(3.6455219,0,0,3.6455219,-443.53724,-160.86308)"
           id="circle11258"
           style="fill:#2196f3;fill-opacity:1;stroke:#2196f3;stroke-width:0.27840909;stroke-linejoin:round;stroke-miterlimit:4;stroke-dasharray:none;stroke-opacity:1" />
        <path
           inkscape:connector-curvature="0"
           id="path11260"
           d="m 96.003472,184.00387 87.997358,0.01 -27.00316,-27.01314 -60.771788,20.99458 z"
           style="fill:#2196f3;fill-opacity:1;fill-rule:evenodd;stroke:none;stroke-width:1px;stroke-linecap:butt;stroke-linejoin:miter;stroke-opacity:1" />
      </g>
    </clipPath>
    <clipPath
       clipPathUnits="userSpaceOnUse"
       id="clipPath11262">
      <g
         id="g11264"
         style="display:inline;filter:url(#filter4346)">
        <circle
           r="24"
           cy="70.459892"
           cx="148"
           transform="matrix(3.6455219,0,0,3.6455219,-443.53724,-160.86308)"
           id="circle11266"
           style="fill:#2196f3;fill-opacity:1;stroke:#2196f3;stroke-width:0.27840909;stroke-linejoin:round;stroke-miterlimit:4;stroke-dasharray:none;stroke-opacity:1" />
        <path
           inkscape:connector-curvature="0"
           id="path11268"
           d="m 96.003472,184.00387 87.997358,0.01 -27.00316,-27.01314 -60.771788,20.99458 z"
           style="fill:#2196f3;fill-opacity:1;fill-rule:evenodd;stroke:none;stroke-width:1px;stroke-linecap:butt;stroke-linejoin:miter;stroke-opacity:1" />
      </g>
    </clipPath>
    <linearGradient
       inkscape:collect="always"
       xlink:href="#linearGradient11270"
       id="linearGradient11276"
       x1="49.814659"
       y1="49.204395"
       x2="159.68073"
       y2="159.75694"
       gradientUnits="userSpaceOnUse" />
    <radialGradient
       inkscape:collect="always"
       xlink:href="#linearGradient7839"
       id="radialGradient7845"
       cx="8.1497307"
       cy="7.0343404"
       fx="8.1497307"
       fy="7.0343404"
       r="88.603878"
       gradientTransform="matrix(-0.00152634,1.9729653,-1.9849315,-0.00153561,22.124853,-8.684695)"
       gradientUnits="userSpaceOnUse" />
    <radialGradient
       inkscape:collect="always"
       xlink:href="#linearGradient7847"
       id="radialGradient7853"
       cx="8.1497297"
       cy="7.0343418"
       fx="8.1497297"
       fy="7.0343418"
       r="88.603878"
       gradientTransform="matrix(-0.00152634,1.9729653,-1.9849315,-0.00153559,22.124856,-8.684693)"
       gradientUnits="userSpaceOnUse" />
    <clipPath
       clipPathUnits="userSpaceOnUse"
       id="clipPath7888">
      <g
         id="g7890"
         style="display:inline"
         transform="matrix(0.99991971,0,0,1.0219248,0.00775613,-0.18258991)">
        <circle
           r="24"
           cy="70.459892"
           cx="148"
           transform="matrix(3.6455219,0,0,3.6455219,-443.53724,-160.86308)"
           id="circle7892"
           style="fill:#2196f3;fill-opacity:1;stroke:#2196f3;stroke-width:0.27840909;stroke-linejoin:round;stroke-miterlimit:4;stroke-dasharray:none;stroke-opacity:1" />
        <path
           inkscape:connector-curvature="0"
           id="path7894"
           d="m 96.003472,184.00387 87.997358,0.01 -27.00316,-27.01314 -60.771788,20.99458 z"
           style="fill:#2196f3;fill-opacity:1;fill-rule:evenodd;stroke:none;stroke-width:1px;stroke-linecap:butt;stroke-linejoin:miter;stroke-opacity:1" />
      </g>
    </clipPath>
    <clipPath
       clipPathUnits="userSpaceOnUse"
       id="clipPath7896">
      <g
         id="g7898"
         style="display:inline"
         transform="matrix(0.99989271,0,0,1.029448,0.01036016,-5.4239342)">
        <circle
           r="24"
           cy="70.459892"
           cx="148"
           transform="matrix(3.6455219,0,0,3.6455219,-443.53724,-160.86308)"
           id="circle7900"
           style="fill:#2196f3;fill-opacity:1;stroke:#2196f3;stroke-width:0.27840909;stroke-linejoin:round;stroke-miterlimit:4;stroke-dasharray:none;stroke-opacity:1" />
        <path
           inkscape:connector-curvature="0"
           id="path7902"
           d="m 96.003472,184.00387 87.997358,0.01 -27.00316,-27.01314 -60.771788,20.99458 z"
           style="fill:#2196f3;fill-opacity:1;fill-rule:evenodd;stroke:none;stroke-width:1px;stroke-linecap:butt;stroke-linejoin:miter;stroke-opacity:1" />
      </g>
    </clipPath>
    <filter
       style="color-interpolation-filters:sRGB;"
       inkscape:label="Drop Shadow"
       id="filter7925"
       height="1.3500000000000001">
      <feFlood
         flood-opacity="0.2"
         flood-color="rgb(26,35,126)"
         result="flood"
         id="feFlood7927" />
      <feComposite
         in="flood"
         in2="SourceGraphic"
         operator="in"
         result="composite1"
         id="feComposite7929" />
      <feGaussianBlur
         in="composite1"
         stdDeviation="6"
         result="blur"
         id="feGaussianBlur7931" />
      <feOffset
         dx="4.57967e-015"
         dy="6"
         result="offset"
         id="feOffset7933" />
      <feComposite
         in="SourceGraphic"
         in2="offset"
         operator="over"
         result="composite2"
         id="feComposite7935" />
    </filter>
    <filter
       style="color-interpolation-filters:sRGB;"
       inkscape:label="Drop Shadow"
       id="filter7953">
      <feFlood
         flood-opacity="0.301961"
         flood-color="rgb(0,0,0)"
         result="flood"
         id="feFlood7955" />
      <feComposite
         in="flood"
         in2="SourceGraphic"
         operator="in"
         result="composite1"
         id="feComposite7957" />
      <feGaussianBlur
         in="composite1"
         stdDeviation="3"
         result="blur"
         id="feGaussianBlur7959" />
      <feOffset
         dx="4.57967e-015"
         dy="3"
         result="offset"
         id="feOffset7961" />
      <feComposite
         in="SourceGraphic"
         in2="offset"
         operator="over"
         result="composite2"
         id="feComposite7963" />
    </filter>
  </defs>
  <metadata
     id="metadata7">
    <rdf:RDF>
      <cc:Work
         rdf:about="">
        <dc:format>image/svg+xml</dc:format>
        <dc:type
           rdf:resource="http://purl.org/dc/dcmitype/StillImage" />
        <dc:title />
      </cc:Work>
    </rdf:RDF>
  </metadata>
  <g
     inkscape:label="circle 1"
     id="layer2"
     inkscape:groupmode="layer"
     sodipodi:insensitive="true">
    <g
       style="display:inline;filter:url(#filter7953)"
       id="g9472">
      <circle
         style="fill:#2196f3;fill-opacity:1;stroke:#2196f3;stroke-width:0.27840909;stroke-linejoin:round;stroke-miterlimit:4;stroke-dasharray:none;stroke-opacity:1"
         id="path3040"
         transform="matrix(3.6455219,0,0,3.6455219,-443.53724,-160.86308)"
         cx="148"
         cy="70.459892"
         r="24" />
      <path
         style="fill:#2196f3;fill-opacity:1;fill-rule:evenodd;stroke:none;stroke-width:1px;stroke-linecap:butt;stroke-linejoin:miter;stroke-opacity:1"
         d="m 96.003472,184.00387 87.997358,0.01 -27.00316,-27.01314 -60.771788,20.99458 z"
         id="path9284"
         inkscape:connector-curvature="0" />
    </g>
  </g>
  <g
     style="display:inline"
     inkscape:label="circle"
     id="layer3"
     inkscape:groupmode="layer">
    <g
       id="g7855"
       style="display:inline;opacity:0.2;fill:#1a237e;fill-opacity:1;stroke:#1a237e;stroke-opacity:1"
       transform="matrix(1.0001073,0,0,0.97437156,-0.01036127,5.2449612)"
       clip-path="url(#clipPath7896)">
      <circle
         r="24"
         cy="70.459892"
         cx="148"
         transform="matrix(3.6455219,0,0,3.6455219,-443.53724,-160.86308)"
         id="circle7857"
         style="fill:#1a237e;fill-opacity:1;stroke:#1a237e;stroke-width:0.27840909;stroke-linejoin:round;stroke-miterlimit:4;stroke-dasharray:none;stroke-opacity:1" />
      <path
         inkscape:connector-curvature="0"
         id="path7859"
         d="m 101.24308,182.92827 82.23379,0.01 -29.2038,-26.5829 -58.047188,21.63994 z"
         style="fill:#1a237e;fill-opacity:1;fill-rule:evenodd;stroke:#1a237e;stroke-width:1px;stroke-linecap:butt;stroke-linejoin:miter;stroke-opacity:1"
         sodipodi:nodetypes="ccccc" />
    </g>
    <g
       id="g7870"
       style="display:inline;opacity:0.2;fill:#ffffff;fill-opacity:1;stroke:#ffffff;stroke-opacity:1"
       transform="matrix(1.0000803,0,0,0.98182067,-0.00775675,-0.42562207)"
       clip-path="url(#clipPath7888)">
      <circle
         r="24"
         cy="70.459892"
         cx="148"
         transform="matrix(3.6455219,0,0,3.6455219,-443.53724,-160.86308)"
         id="circle7872"
         style="fill:#ffffff;fill-opacity:1;stroke:#ffffff;stroke-width:0.27840909;stroke-linejoin:round;stroke-miterlimit:4;stroke-dasharray:none;stroke-opacity:1" />
      <path
         inkscape:connector-curvature="0"
         id="path7874"
         d="m 96.003472,184.00387 87.997358,0.01 -27.00316,-27.01314 -60.771788,20.99458 z"
         style="fill:#ffffff;fill-opacity:1;fill-rule:evenodd;stroke:#ffffff;stroke-width:1px;stroke-linecap:butt;stroke-linejoin:miter;stroke-opacity:1" />
    </g>
    <g
       id="g7904"
       style="display:inline"
       transform="matrix(1.0000176,0,0,0.98783602,-0.00169111,1.136359)">
      <circle
         r="24"
         cy="70.459892"
         cx="148"
         transform="matrix(3.6455219,0,0,3.6455219,-443.53724,-160.86308)"
         id="circle7906"
         style="fill:#2196f3;fill-opacity:1;stroke:#2196f3;stroke-width:0.27840909;stroke-linejoin:round;stroke-miterlimit:4;stroke-dasharray:none;stroke-opacity:1" />
      <path
         inkscape:connector-curvature="0"
         id="path7908"
         d="m 96.003472,184.00387 87.997358,0.01 -27.00316,-27.01314 -60.771788,20.99458 z"
         style="fill:#2196f3;fill-opacity:1;fill-rule:evenodd;stroke:none;stroke-width:1px;stroke-linecap:butt;stroke-linejoin:miter;stroke-opacity:1" />
    </g>
    <path
       style="opacity:0.17000002;fill:url(#linearGradient11276);fill-opacity:1;fill-rule:nonzero;stroke:none;stroke-width:2.0999999;stroke-linecap:round;stroke-linejoin:miter;stroke-miterlimit:4;stroke-dasharray:none;stroke-dashoffset:0;stroke-opacity:1"
       d="m 73.626953,58.578125 c -5.741767,1.27e-4 -10.396356,4.654717 -10.396484,10.396484 -4.57e-4,2.757639 1.09516,5.403388 3.044922,7.353516 0.09717,0.09718 0.204143,0.182481 0.304687,0.275391 0.08912,0.09615 0.170635,0.197961 0.263672,0.291015 0.09434,0.09436 0.19739,0.177245 0.294922,0.267578 0.09121,0.0986 0.174203,0.203482 0.269531,0.298829 0.09455,0.09457 0.199119,0.177052 0.296875,0.267578 0.09051,0.09777 0.173024,0.202303 0.267578,0.296875 0.09421,0.09423 0.197531,0.177366 0.294922,0.267578 0.09019,0.09741 0.173366,0.200692 0.267578,0.294922 0.09521,0.09522 0.200375,0.178409 0.298828,0.269531 0.08882,0.09581 0.169005,0.198284 0.261719,0.291016 0.09586,0.09588 0.201632,0.179766 0.300781,0.271484 0.08792,0.09476 0.168036,0.195362 0.259766,0.287109 0.09139,0.0914 0.190776,0.172141 0.285156,0.259766 0.09139,0.0988 0.175968,0.203293 0.271485,0.298828 0.09325,0.09327 0.196604,0.174341 0.292968,0.263672 0.08931,0.09638 0.170423,0.199702 0.263672,0.292969 0.09512,0.09514 0.198516,0.178489 0.296875,0.269531 0.08701,0.0937 0.167079,0.192452 0.257813,0.283203 0.09269,0.09271 0.193289,0.174849 0.289062,0.263672 0.08881,0.09579 0.170978,0.19635 0.263672,0.289062 0.09042,0.09044 0.18985,0.16912 0.283203,0.25586 0.09051,0.09777 0.173024,0.202303 0.267578,0.296875 0.09316,0.09317 0.194751,0.174426 0.291016,0.263672 0.08731,0.09405 0.166748,0.194075 0.257812,0.285156 0.0939,0.09392 0.197862,0.175696 0.294922,0.265625 0.08612,0.09267 0.164138,0.191464 0.253907,0.28125 0.08943,0.08944 0.187003,0.168081 0.279297,0.253906 0.08983,0.09698 0.171814,0.199141 0.265624,0.292969 0.09225,0.09227 0.19376,0.173299 0.289063,0.261719 0.08671,0.09336 0.165449,0.192775 0.255859,0.283203 0.09225,0.09227 0.193759,0.173299 0.289063,0.261719 0.08611,0.09266 0.164149,0.191475 0.253906,0.28125 0.09095,0.09096 0.191243,0.170589 0.285156,0.257812 0.08683,0.09349 0.165322,0.192648 0.25586,0.283203 0.09061,0.09062 0.189654,0.170904 0.283203,0.257813 0.08689,0.09356 0.167207,0.19258 0.257812,0.283203 0.09019,0.09021 0.188139,0.169328 0.28125,0.255859 0.08651,0.09313 0.165665,0.191038 0.25586,0.28125 0.08995,0.08997 0.188396,0.169551 0.28125,0.25586 0.08629,0.09287 0.165906,0.191279 0.255859,0.28125 0.08988,0.0899 0.18847,0.167661 0.28125,0.253906 0.08601,0.09254 0.164263,0.19159 0.253906,0.28125 0.08954,0.08956 0.186882,0.167976 0.279297,0.253906 0.08569,0.09218 0.164606,0.18998 0.253906,0.279297 0.08923,0.08925 0.187213,0.166309 0.279297,0.251953 0.08541,0.09185 0.162963,0.19029 0.251953,0.279297 0.08865,0.08866 0.185878,0.166844 0.277344,0.251953 0.08531,0.09173 0.163068,0.188441 0.251953,0.277344 0.08865,0.08866 0.185878,0.166844 0.277344,0.251953 0.08509,0.09148 0.163305,0.188679 0.251953,0.277344 0.08858,0.08859 0.185955,0.164958 0.277344,0.25 0.08481,0.09115 0.161662,0.188989 0.25,0.277343 0.09019,0.09021 0.188139,0.169329 0.28125,0.25586 0.08248,0.08847 0.158325,0.181746 0.244141,0.267578 0.08778,0.08779 0.182897,0.165693 0.273437,0.25 0.08429,0.09056 0.162224,0.185644 0.25,0.273437 0.0855,0.08552 0.17945,0.159974 0.267578,0.242188 0.08601,0.09254 0.164263,0.19159 0.253906,0.28125 0.08727,0.08728 0.18344,0.162256 0.273438,0.246094 0.08382,0.09001 0.158828,0.186155 0.246094,0.273437 0.08703,0.08705 0.183688,0.162472 0.273437,0.246094 0.08361,0.08976 0.159062,0.186389 0.246094,0.273437 0.08889,0.0889 0.185625,0.166626 0.277344,0.251953 0.08128,0.08709 0.155726,0.179148 0.240234,0.263672 0.0842,0.08421 0.17693,0.157275 0.263672,0.238282 0.08503,0.0914 0.161425,0.188752 0.25,0.277343 0.08604,0.08605 0.180838,0.161436 0.269531,0.244141 0.0829,0.08895 0.157873,0.183247 0.244141,0.269531 0.08604,0.08605 0.180838,0.161436 0.269531,0.244141 0.08269,0.08871 0.158104,0.183478 0.244141,0.269531 0.08692,0.08694 0.181851,0.162573 0.271484,0.246094 0.08098,0.08674 0.154095,0.17947 0.238281,0.263672 0.08734,0.08736 0.183359,0.164139 0.273438,0.248047 0.08007,0.0857 0.153127,0.176549 0.236328,0.259765 0.08289,0.08291 0.174409,0.154577 0.259766,0.234375 0.08382,0.09001 0.158827,0.186155 0.246093,0.273438 0.08473,0.08475 0.178317,0.158734 0.265625,0.240234 0.08169,0.08756 0.155275,0.18065 0.240235,0.265625 0.08473,0.08475 0.178316,0.158734 0.265625,0.240235 0.08109,0.08687 0.153976,0.179351 0.238281,0.263671 0.08669,0.08671 0.182098,0.162788 0.271484,0.246094 0.07886,0.08432 0.150529,0.17395 0.232422,0.255859 0.08189,0.08191 0.171557,0.153546 0.25586,0.232422 0.08269,0.08871 0.158103,0.183478 0.24414,0.269532 0.08604,0.08605 0.180838,0.161436 0.269531,0.24414 0.07826,0.08363 0.149229,0.172651 0.230469,0.253906 0.08059,0.0806 0.169034,0.150851 0.251953,0.228516 l -5.507812,8.277342 -0.240234,-0.40234 -0.105469,0.17383 -0.416016,-0.69532 -0.105469,0.17578 -0.417968,-0.69921 -0.105469,0.17578 -0.419922,-0.70117 -0.105469,0.17578 -0.421875,-0.70313 -0.105469,0.17578 -0.421874,-0.70312 -0.107422,0.17773 -0.423828,-0.70898 -0.107422,0.17773 -0.423828,-0.70898 -0.107422,0.17773 -0.425782,-0.71094 -0.107422,0.17969 -0.427734,-0.71484 -0.107422,0.17969 -0.427734,-0.71485 -0.109375,0.17969 -0.429688,-0.71875 -0.109375,0.17969 -0.429687,-0.71875 -0.109375,0.18164 -0.433594,-0.72461 -0.109375,0.18164 -0.433594,-0.72461 -0.109375,0.18164 -0.433593,-0.724609 -0.109375,0.183594 -0.4375,-0.730469 L 75.054688,99 l -0.4375,-0.732422 -0.111329,0.183594 -0.4375,-0.732422 -0.111328,0.183594 -0.439453,-0.734375 -0.111328,0.185547 -0.441406,-0.738282 -0.111328,0.185547 -0.44336,-0.740234 -0.111328,0.185547 -0.445312,-0.742188 -0.111328,0.185547 -0.445313,-0.742187 -0.113281,0.1875 -0.447266,-0.748047 -0.113281,0.1875 -0.447266,-0.748047 -0.113281,0.1875 -0.449219,-0.75 -0.113281,0.189453 -0.451172,-0.753906 -0.113281,0.189453 -0.451172,-0.753906 -0.115234,0.189453 -0.453125,-0.757813 -22.34375,37.005864 0.912109,0 -0.34375,0.56835 0.904297,0 -0.339844,0.56446 0.904297,0 -0.339844,0.56445 0.902344,0 -0.339844,0.5625 0.898438,0 -0.337891,0.56055 0.898438,0 -0.337891,0.56054 0.892578,0 -0.335937,0.55665 0.892578,0 -0.335938,0.55664 0.888672,0 -0.333984,0.55468 0.886718,0 -0.333984,0.55274 0.882813,0 -0.332032,0.55078 0.88086,0 -0.332031,0.54883 0.880859,0 -0.332031,0.54883 0.876953,0 -0.330078,0.54687 0.871093,0 -0.328125,0.54297 0.871094,0 -0.328125,0.54297 0.871094,0 -0.328125,0.54297 0.865234,0 -0.326172,0.53906 0.865235,0 -0.326172,0.53906 0.857422,0 -0.322266,0.53516 0.857422,0 -0.322266,0.53515 0.855469,0 -0.322265,0.53321 0.851562,0 -0.320312,0.53125 0.851562,0 -0.320312,0.53125 0.845703,0 -0.31836,0.52734 0.845703,0 -0.318359,0.52735 0.841797,0 -0.316406,0.52539 0.839843,0 -0.316406,0.52343 0.835938,0 -0.314453,0.52149 0.835937,0 -0.314453,0.52148 0.830078,0 -0.3125,0.51758 0.830078,0 -0.3125,0.51758 0.826172,0 -0.310547,0.51562 0.824219,0 -0.310547,0.51367 0.820313,0 -0.308594,0.51172 0.818359,0 -0.308594,0.50977 0.81836,0 -0.308594,0.50977 0.814453,0 -0.30664,0.50781 0.810546,0 -0.304687,0.50586 0.808594,0 -0.304688,0.5039 0.804688,0 -0.302735,0.50196 0.802735,0 -0.302735,0.5 0.802735,0 -0.302735,0.5 0.798828,0 -0.300781,0.49804 0.794922,0 -0.298828,0.4961 0.792969,0 -0.298828,0.49414 0.789062,0 -0.296875,0.49219 0.787109,0 -0.296875,0.49023 0.78711,0 -0.296875,0.49023 0.783203,0 -0.294922,0.48828 0.779297,0 -0.292969,0.48633 0.777344,0 -0.292969,0.48438 0.773438,0 -0.291016,0.48242 0.771484,0 -0.291015,0.48047 0.771484,0 -0.291015,0.48047 0.767578,0 -0.289063,0.47851 0.763672,0 -0.287109,0.47657 0.761718,0 -0.287109,0.47461 0.757813,0 -0.285157,0.47265 0.757813,0 -0.285156,0.47266 0.751953,0 -0.283203,0.46875 0.751953,0 -0.283203,0.46875 0.748046,0 -0.28125,0.46679 0.746094,0 -0.28125,0.46485 0.742188,0 -0.279297,0.46289 0.742187,0 -0.279297,0.46289 0.738282,0 -0.277344,0.46094 0.732422,0 -0.275391,0.45703 0.732422,0 -0.275391,0.45703 0.730469,0 -0.27539,0.45508 0.730468,0 -0.27539,0.45508 0.722656,0 -0.271484,0.45117 0.722656,0 -0.271485,0.45117 0.720703,0 -0.271484,0.44922 0.716797,0 -0.269531,0.44726 0.714844,0 -0.269532,0.44532 0.710938,0 -0.267578,0.44336 0.710937,0 -0.267578,0.44335 0.705078,0 -0.265625,0.43946 0.705078,0 -0.265625,0.43945 0.701172,0 -0.263672,0.4375 0.699219,0 -0.263672,0.43555 0.699219,0 -0.263672,0.43554 0.691406,0 -0.259765,0.43165 0.691406,0 -0.259766,0.43164 0.689453,0 -0.259765,0.42968 0.685547,0 -0.257813,0.42774 0.683594,0 -0.257813,0.42578 0.679688,0 -0.255859,0.42383 0.679687,0 -0.255859,0.42383 0.673828,0 -0.253906,0.41992 0.673828,0 -0.253907,0.41992 0.669922,0 -0.251953,0.41797 0.667969,0 -0.251953,0.41601 0.667968,0 -0.251953,0.41602 0.660157,0 -0.248047,0.41211 0.660156,0 -0.248047,0.41211 0.658203,0 -0.248047,0.41015 0.654297,0 -0.246093,0.40821 0.652343,0 -0.246093,0.40625 0.652343,0 -0.246093,0.40625 0.644531,0 -0.242188,0.40234 0.644531,0 -0.242187,0.40235 0.642578,0 -0.242187,0.40039 0.638672,0 -0.240235,0.39843 0.636719,0 -0.240234,0.39649 0.632812,0 -0.238281,0.39453 0.632812,0 -0.238281,0.39453 0.628906,0 -0.236328,0.39258 0.626953,0 -0.236328,0.39062 0.623047,0 -0.234375,0.38867 0.621094,0 -0.234375,0.38672 0.617187,0 -0.232422,0.38477 0.617191,0 -0.232425,0.38477 0.613285,0 -0.23047,0.38281 0.60742,0 -0.22852,0.3789 0.61133,0 -0.23047,0.38086 0.60547,0 -0.22851,0.37696 0.60156,0 -0.22656,0.375 0.60156,0 -0.22656,0.375 0.59765,0 -0.22461,0.37304 0.5918,0 -0.22266,0.36914 0.59571,0 -0.22461,0.3711 0.58984,0 -0.22265,0.36719 0.58593,0 -0.2207,0.36523 0.58594,0 -0.22071,0.36523 0.58204,0 -0.21876,0.36328 0.58008,0 -0.21875,0.36133 0.57617,0 -0.21679,0.35938 0.57226,0 -0.21484,0.35742 0.57031,0 -0.21484,0.35547 0.57031,0 -0.21484,0.35547 0.5664,0 -0.21289,0.35351 0.56446,0 -0.21289,0.35157 0.56054,0 -0.21093,0.34961 0.55664,0 -0.20899,0.34765 0.55664,0 -0.20898,0.34766 0.55078,0 -0.20703,0.34375 0.55078,0 -0.20703,0.34375 0.54883,0 -0.20704,0.34179 0.54493,0 -0.20508,0.33985 0.54101,0 -0.20312,0.33789 0.54101,0 -0.20312,0.33789 0.53516,0 -0.20118,0.33398 0.53516,0 -0.20117,0.33399 0.5332,0 -0.20117,0.33203 0.5293,0 -0.19922,0.33008 0.52929,0 -0.19921,0.33008 0.52343,0 -0.19726,0.32617 0.52344,0 -0.19727,0.32617 0.51953,0 -0.19531,0.32422 0.51758,0 -0.19532,0.32226 0.51368,0 -0.19336,0.32032 0.50976,0 -0.1914,0.31836 0.50976,0 -0.19141,0.31835 0.50391,0 -0.18945,0.31446 0.5039,0 -0.18945,0.31445 0.50195,0 -0.18945,0.3125 0.49805,0 -0.1875,0.31055 0.49804,0 -0.1875,0.31054 0.49219,0 -0.18554,0.30665 0.49218,0 -0.18554,0.30664 0.48828,0 -0.1836,0.30468 0.48633,0 -0.18359,0.30274 0.48242,0 -0.18164,0.30078 0.47851,0 -0.17968,0.29883 0.47851,0 -0.17968,0.29883 0.47265,0 -0.17773,0.29492 0.47265,0 -0.17773,0.29492 0.4707,0 -0.17773,0.29297 0.4668,0 -0.17579,0.29101 0.4668,0 -0.17578,0.29102 0.46094,0 -0.17383,0.28711 0.46094,0 -0.17383,0.28711 0.45703,0 -0.17188,0.28515 0.45508,0 -0.17187,0.28321 0.45117,0 -0.16992,0.28125 0.44726,0 -0.16797,0.27929 0.44727,0 -0.16797,0.2793 0.44531,0 -0.16796,0.27735 0.4414,0 -0.16601,0.27539 0.43945,0 -0.16602,0.27343 0.43555,0 -0.16406,0.27149 0.43164,0 -0.16211,0.26953 0.43164,0 -0.16211,0.26953 0.42969,0 -0.16211,0.26758 0.42383,0 -0.16016,0.26367 0.42383,0 -0.16016,0.26367 0.42383,0 -0.16016,0.26367 0.41602,0 -0.15625,0.25977 0.41601,0 -0.15624,0.25977 0.41015,0 -0.1543,0.25585 0.41016,0 -0.1543,0.25586 0.40625,0 -0.15234,0.25391 0.40625,0 -0.15234,0.25391 0.40039,0 -0.15039,0.25 0.40039,0 -0.15039,0.25 0.39453,0 -0.14844,0.24609 0.39453,0 -0.14844,0.24609 0.39063,0 -0.14649,0.24414 0.39063,0 -0.14648,0.24415 0.38476,0 -0.14453,0.24023 0.38477,0 -0.14454,0.24023 0.37891,0 -0.14258,0.23633 0.37891,0 -0.14258,0.23633 0.37891,0 -0.14258,0.23633 0.37305,0 -0.14063,0.23242 0.36914,0 -0.13867,0.23047 0.36914,0 -0.13867,0.23047 0.36719,0 -0.13868,0.22851 0.36328,0 -0.13671,0.22657 0.35937,0 -0.13476,0.22461 0.35742,0 -0.13477,0.22265 0.35352,0 -0.13282,0.2207 0.35352,0 -0.13281,0.22071 0.35156,0 -0.13281,0.21875 0.34765,0 -0.13086,0.21679 0.34375,0 -0.1289,0.21485 0.34179,0 -0.1289,0.21289 0.3418,0 -0.12891,0.21289 0.33594,0 -0.12696,0.20898 0.33594,0 -0.12695,0.20899 0.33203,0 -0.125,0.20703 0.32812,0 -0.12304,0.20508 0.32812,0 -0.12304,0.20508 0.32226,0 -0.12109,0.20117 0.32226,0 -0.12109,0.20117 0.31641,0 -0.11914,0.19727 0.3164,0 -0.11914,0.19726 0.31641,0 -0.11914,0.19727 0.31054,0 -0.11718,0.19336 0.30664,0 -0.11524,0.1914 0.30664,0 -0.11523,0.19141 0.30469,0 -0.11524,0.18945 0.30078,0 -0.11328,0.1875 0.29688,0 -0.11133,0.18555 0.29492,0 -0.11133,0.18359 0.29492,0 -0.11132,0.1836 0.29101,0 -0.10937,0.18164 0.28515,0 -0.10742,0.17773 0.28516,0 -0.10742,0.17774 0.28515,0 -0.10742,0.17773 0.2793,0 -0.10547,0.17383 0.27929,0 -0.10546,0.17383 0.27343,0 -0.10351,0.16992 0.27343,0 -0.10351,0.16992 0.26953,0 -0.10156,0.16797 0.26562,0 -0.0996,0.16601 0.26563,0 -0.0996,0.16602 0.25977,0 -0.0977,0.16211 0.25976,0 -0.0976,0.16211 0.25781,0 -0.0977,0.16015 0.25391,0 -0.0957,0.15821 0.25,0 -0.0937,0.15625 0.24804,0 -0.0937,0.15429 0.24805,0 -0.0937,0.1543 0.24414,0 -0.0918,0.15235 0.24023,0 -0.0898,0.15039 0.23828,0 -0.0899,0.14843 0.23438,0 -0.0879,0.14649 0.23242,0 -0.0879,0.14453 0.23242,0 -0.0879,0.14453 0.22461,0 -0.084,0.14063 0.2246,0 L 139,222 l 0.22266,0 -0.084,0.13867 0.22266,0 -0.084,0.13867 0.2168,0 -0.082,0.13477 0.2168,0 -0.082,0.13477 0.20898,0 -0.0781,0.13085 0.20899,0 -0.0781,0.13086 0.20703,0 -0.0781,0.12891 0.20703,0 -0.0781,0.12891 0.20117,0 -0.0762,0.125 0.20117,0 -0.0762,0.125 0.19336,0 -0.0723,0.12109 0.19336,0 -0.0723,0.12109 0.19141,0 -0.0723,0.11914 0.19141,0 -0.0723,0.11915 0.18554,0 -0.0703,0.11523 0.18555,0 -0.0703,0.11523 0.17774,0 -0.0664,0.11133 0.17774,0 -0.0664,0.11133 0.17578,0 -0.0664,0.10938 0.17578,0 -0.0664,0.10937 0.16992,0 -0.0644,0.10547 0.16992,0 -0.0644,0.10547 0.16601,0 -0.0625,0.10351 0.16211,0 -0.0605,0.10157 0.16015,0 -0.0605,0.0996 0.15624,0 -0.0586,0.0977 0.1543,0 -0.0586,0.0957 0.1543,0 -0.0586,0.0957 0.15039,0 -0.0566,0.0937 0.14648,0 -0.0547,0.0918 0.14454,0 -0.0547,0.0899 0.14062,0 -0.0527,0.0879 0.14062,0 -0.0527,0.0879 0.13477,0 -0.0508,0.084 0.13477,0 -0.0508,0.084 0.13086,0 -0.0488,0.082 0.12891,0 -0.0488,0.0801 0.1289,0 -0.0488,0.0801 0.12304,0 -0.0469,0.0762 0.12304,0 -0.0469,0.0762 0.11523,0 -0.043,0.0723 0.11523,0 -0.043,0.0723 0.11524,0 -0.043,0.0723 0.10937,0 -0.041,0.0684 0.10742,0 -0.041,0.0664 0.10742,0 -0.041,0.0664 0.10351,0 -0.0391,0.0644 0.0996,0 -0.0371,0.0625 0.0977,0 -0.0371,0.0606 0.0937,0 -0.0352,0.0586 0.0937,0 -0.0351,0.0586 0.0918,0 -0.0352,0.0566 0.084,0 -0.0312,0.0527 0.084,0 -0.0312,0.0527 0.084,0 -0.0312,0.0527 0.0781,0 -0.0293,0.0488 0.0781,0 -0.0293,0.0488 0.0723,0 -0.0273,0.0449 0.0723,0 -0.0273,0.0449 0.0684,0 -0.0254,0.043 0.0664,0 -0.0254,0.041 0.0664,0 -0.0254,0.041 0.0586,0 -0.0215,0.0371 0.0586,0 -0.0215,0.0371 0.0566,0 -0.0215,0.0351 0.0527,0 -0.0195,0.0332 0.0508,0 -0.0195,0.0312 0.0469,0 -0.0176,0.0293 0.0469,0 -0.0176,0.0293 0.043,0 -0.0156,0.0273 0.0371,0 -0.0137,0.0234 0.041,0 -0.0156,0.0254 0.0352,0 -0.0137,0.0215 0.0312,0 -0.0117,0.0195 0.0312,0 -0.0117,0.0195 0.0254,0 -0.01,0.0156 0.0254,0 -0.01,0.0156 0.0215,0 -0.008,0.0137 0.0215,0 -0.008,0.0137 0.0156,0 -0.006,0.01 0.0156,0 -0.006,0.01 0.01,0 -0.004,0.006 0.01,0 -0.004,0.006 0.006,0 L 145,228 l 0.006,0 -0.002,0.004 44.48828,0 -8.85157,-14.79297 0.0762,0 0.13086,0.21875 0.0879,0 0.1289,0.21679 0.0859,0 0.12891,0.21485 0.0859,0 0.12696,0.21289 0.0859,0 0.12696,0.21289 0.084,0 0.125,0.20898 0.084,0 0.125,0.20899 0.084,0 0.12305,0.20703 0.082,0 0.12305,0.20508 0.082,0 0.12304,0.20508 0.082,0 0.11914,0.20117 0.082,0 0.11914,0.20117 0.0801,0 0.11718,0.19727 0.0801,0 0.11719,0.19726 0.0801,0 0.11719,0.19727 0.0781,0 0.11523,0.19336 0.0781,0 0.11328,0.1914 0.0781,0 0.11328,0.19141 0.0762,0 0.11328,0.18945 0.0762,0 0.11133,0.1875 0.0742,0 0.11133,0.18555 0.0742,0 0.10937,0.18359 0.0742,0 0.10937,0.1836 0.0742,0 0.10743,0.18164 0.0723,0 0.10547,0.17773 0.0723,0 0.10546,0.17774 0.0723,0 0.10547,0.17773 0.0703,0 0.10352,0.17383 0.0703,0 0.10351,0.17383 0.0684,0 0.10157,0.16992 0.0684,0 0.10156,0.16992 0.0684,0 0.0996,0.16797 0.0664,0 0.0996,0.16601 0.0664,0 0.0996,0.16602 0.0644,0 0.0977,0.16211 0.0644,0 0.0977,0.16211 0.0644,0 0.0957,0.16015 0.0645,0 0.0937,0.15821 0.0625,0 0.0937,0.15625 0.0625,0 0.0918,0.15429 0.0625,0 0.0918,0.1543 0.0606,0 0.0918,0.15235 0.0605,0 0.0898,0.15039 0.0606,0 0.0879,0.14843 0.0586,0 0.0879,0.14649 0.0586,0 0.0859,0.14453 0.0586,0 0.0859,0.14453 0.0566,0 0.084,0.14063 0.0566,0 0.084,0.14062 0.0566,0 0.082,0.13867 0.0566,0 0.082,0.13867 0.0547,0 0.0801,0.13477 0.0547,0 0.0801,0.13477 0.0527,0 0.0781,0.13085 0.0527,0 0.0781,0.13086 0.0527,0 0.0762,0.12891 0.0527,0 0.0762,0.12891 0.0508,0 0.0742,0.125 0.0508,0 0.0742,0.125 0.0488,0 0.0723,0.12109 0.0488,0 0.0723,0.12109 0.0488,0 0.0703,0.11914 0.0488,0 0.0703,0.11915 0.0469,0 0.0684,0.11523 0.0469,0 0.0684,0.11523 0.0449,0 0.0664,0.11133 0.0449,0 0.0664,0.11133 0.0449,0 0.0645,0.10938 0.0449,0 0.0644,0.10937 0.043,0 0.0625,0.10547 0.043,0 0.0625,0.10547 0.041,0 0.0625,0.10351 0.041,0 0.0605,0.10157 0.041,0 0.0586,0.0996 0.0391,0 0.0586,0.0977 0.0391,0 0.0566,0.0957 0.0391,0 0.0566,0.0957 0.0371,0 0.0566,0.0937 0.0371,0 0.0547,0.0918 0.0371,0 0.0527,0.0899 0.0351,0 0.0527,0.0879 0.0352,0 0.0527,0.0879 0.0332,0 0.0508,0.084 0.0332,0 0.0508,0.084 0.0332,0 0.0488,0.082 0.0332,0 0.0469,0.0801 0.0332,0 0.0469,0.0801 0.0312,0 0.0449,0.0762 0.0312,0 0.0449,0.0762 0.0293,0 0.043,0.0723 0.0293,0 0.043,0.0723 0.0293,0 0.043,0.0723 0.0273,0 0.041,0.0684 0.0274,0 0.0391,0.0664 0.0273,0 0.0391,0.0664 0.0254,0 0.0391,0.0644 0.0254,0 0.0371,0.0625 0.0254,0 0.0352,0.0606 0.0234,0 0.0352,0.0586 0.0234,0 0.0351,0.0586 0.0234,0 0.0332,0.0566 0.0215,0 0.0312,0.0527 0.0215,0 0.0312,0.0527 0.0215,0 0.0312,0.0527 0.0195,0 0.0293,0.0488 0.0176,0 0.0293,0.0488 0.0195,0 0.0273,0.0449 0.0176,0 0.0274,0.0449 0.0176,0 0.0254,0.043 0.0156,0 0.0254,0.041 0.0156,0 0.0254,0.041 0.0156,0 0.0215,0.0371 0.0156,0 0.0215,0.0371 0.0137,0 0.0215,0.0351 0.0137,0 0.0195,0.0332 0.0117,0 0.0195,0.0312 0.0117,0 0.0176,0.0293 0.0117,0 0.0176,0.0293 0.0117,0 0.0156,0.0273 0.01,0 0.0137,0.0234 0.01,0 0.0156,0.0254 0.008,0 0.0137,0.0215 0.008,0 0.0117,0.0195 0.008,0 0.0117,0.0195 0.006,0 0.01,0.0156 0.006,0 0.01,0.0156 0.006,0 0.008,0.0137 0.006,0 0.008,0.0137 0.004,0 0.006,0.01 0.004,0 0.006,0.01 0.002,0 0.004,0.006 0.002,0 0.004,0.006 0.002,0 0.002,0.004 0.002,0 0.002,0.004 51.58007,0 -0.004,-0.004 -38.50586,-58.5293 -0.002,0.002 -0.002,-0.004 -0.004,-0.006 -0.002,0.002 -0.004,-0.008 -0.002,0.002 -0.004,-0.008 -0.002,0.002 -0.008,-0.0117 -0.002,0.002 -0.008,-0.0117 -0.002,0.004 -0.0117,-0.0176 -0.002,0.004 -0.0117,-0.0176 -0.002,0.004 -0.0137,-0.0195 -0.002,0.004 -0.0137,-0.0195 -0.004,0.006 -0.0156,-0.0254 -0.004,0.006 -0.0156,-0.0254 -0.004,0.006 -0.0176,-0.0273 -0.004,0.006 -0.0215,-0.0312 -0.004,0.006 -0.0195,-0.0293 -0.004,0.008 -0.0234,-0.0351 -0.006,0.008 -0.0234,-0.0371 -0.006,0.008 -0.0234,-0.0371 -0.006,0.008 -0.0254,-0.0391 -0.006,0.008 -0.0273,-0.041 -0.006,0.01 -0.0293,-0.0449 -0.006,0.01 -0.0312,-0.0469 -0.006,0.01 -0.0312,-0.0469 -0.008,0.01 -0.0332,-0.0508 -0.008,0.01 -0.0332,-0.0508 -0.008,0.0117 -0.0352,-0.0547 -0.008,0.0117 -0.0371,-0.0566 -0.008,0.0117 -0.0391,-0.0586 -0.008,0.0117 -0.0391,-0.0586 -0.008,0.0117 -0.041,-0.0605 -0.01,0.0137 -0.043,-0.0664 -0.01,0.0137 -0.043,-0.0664 -0.01,0.0137 -0.043,-0.0664 -0.01,0.0137 -0.0469,-0.0703 -0.01,0.0156 -0.0488,-0.0742 -0.01,0.0156 -0.0488,-0.0742 -0.01,0.0156 -0.0508,-0.0762 -0.0117,0.0156 -0.0508,-0.0781 -0.0117,0.0176 -0.0527,-0.082 -0.0117,0.0176 -0.0547,-0.084 -0.0117,0.0176 -0.0547,-0.084 -0.0117,0.0176 -0.0566,-0.0859 -0.0117,0.0195 -0.0606,-0.0918 -0.0117,0.0195 -0.0605,-0.0918 -0.0117,0.0195 -0.0606,-0.0918 -0.0137,0.0195 -0.0625,-0.0957 -0.0137,0.0195 -0.0625,-0.0957 -0.0137,0.0215 -0.0664,-0.10157 -0.0137,0.0215 -0.0664,-0.10156 -0.0137,0.0215 -0.0684,-0.10351 -0.0137,0.0215 -0.0703,-0.10547 -0.0137,0.0215 -0.0703,-0.10547 -0.0156,0.0234 -0.0723,-0.11132 -0.0156,0.0234 -0.0723,-0.11133 -0.0156,0.0234 -0.0742,-0.11328 -0.0156,0.0234 -0.0762,-0.11524 -0.0156,0.0234 -0.0781,-0.11719 -0.0156,0.0254 -0.0801,-0.12109 -0.0156,0.0254 -0.0801,-0.12109 -0.0176,0.0254 -0.0801,-0.12305 -0.0176,0.0254 -0.082,-0.125 -0.0176,0.0254 -0.084,-0.12695 -0.0176,0.0273 -0.0859,-0.13086 -0.0176,0.0274 -0.0879,-0.13281 -0.0176,0.0273 -0.0879,-0.13281 -0.0195,0.0273 -0.0898,-0.13672 -0.0195,0.0274 -0.0898,-0.13672 -0.0195,0.0293 -0.0918,-0.14062 -0.0195,0.0293 -0.0918,-0.14063 -0.0195,0.0293 -0.0957,-0.14453 -0.0195,0.0293 -0.0957,-0.14453 -0.0195,0.0312 -0.0996,-0.15039 -0.0195,0.0312 -0.0996,-0.15039 -0.0215,0.0312 -0.0996,-0.15234 -0.0215,0.0312 -0.0996,-0.15235 -0.0215,0.0332 -0.10351,-0.15821 -0.0215,0.0332 -0.10351,-0.15821 -0.0215,0.0332 -0.10742,-0.16211 -0.0215,0.0332 -0.10742,-0.16211 -0.0234,0.0332 -0.10742,-0.16406 -0.0234,0.0332 -0.10742,-0.16406 -0.0234,0.0352 -0.11133,-0.16992 -0.0234,0.0352 -0.11133,-0.16992 -0.0234,0.0352 -0.11524,-0.17383 -0.0234,0.0352 -0.11524,-0.17382 -0.0234,0.0371 -0.11718,-0.17774 -0.0234,0.0371 -0.11719,-0.17773 -0.0254,0.0371 -0.11914,-0.18164 -0.0254,0.0371 -0.11914,-0.18164 -0.0254,0.0371 -0.1211,-0.18359 -0.0254,0.0391 -0.12304,-0.1875 -0.0254,0.0391 -0.125,-0.18945 -0.0254,0.0391 -0.12696,-0.1914 -0.0273,0.0391 -0.12695,-0.19336 -0.0274,0.0391 -0.12695,-0.19336 -0.0273,0.041 -0.12891,-0.19727 -0.0273,0.041 -0.13085,-0.19922 -0.0274,0.041 -0.13281,-0.20118 -0.0273,0.041 -0.13477,-0.20312 -0.0273,0.041 -0.13477,-0.20312 -0.0293,0.043 -0.13671,-0.20899 -0.0293,0.043 -0.13672,-0.20898 -0.0293,0.043 -0.13867,-0.21093 -0.0293,0.043 -0.14062,-0.2129 -0.0293,0.043 -0.14062,-0.21289 -0.0293,0.0449 -0.14453,-0.21875 -0.0293,0.0449 -0.14453,-0.21875 -0.0312,0.0469 -0.14648,-0.22461 -0.0312,0.0469 -0.14649,-0.22461 -0.0312,0.0469 -0.14648,-0.22461 -0.0312,0.0469 -0.15039,-0.22852 -0.0312,0.0469 -0.15235,-0.23047 -0.0312,0.0469 -0.15234,-0.23046 -0.0312,0.0488 -0.1543,-0.23437 -0.0332,0.0488 -0.1543,-0.23633 -0.0332,0.0488 -0.15625,-0.23828 -0.0332,0.0488 -0.15821,-0.24023 -0.0332,0.0488 -0.1582,-0.24024 -0.0332,0.0508 -0.16015,-0.24414 -0.0332,0.0508 -0.16406,-0.24804 -0.0332,0.0508 -0.16406,-0.24805 -0.0332,0.0508 -0.16406,-0.24804 -0.0352,0.0527 -0.16601,-0.25391 -0.0352,0.0527 -0.16601,-0.25391 -0.0352,0.0527 -0.16992,-0.25782 -0.0352,0.0527 -0.16992,-0.25781 -0.0352,0.0527 -0.17187,-0.25976 -0.0352,0.0547 -0.17382,-0.26367 -0.0352,0.0547 -0.17383,-0.26367 -0.0371,0.0547 -0.17578,-0.26757 -0.0371,0.0547 -0.17578,-0.26758 -0.0371,0.0547 -0.17773,-0.26953 -0.0371,0.0566 -0.17969,-0.27344 -0.0371,0.0566 -0.18164,-0.27539 -0.0371,0.0566 -0.18359,-0.27735 -0.0371,0.0566 -0.1836,-0.27734 -0.0391,0.0566 -0.18359,-0.2793 -0.0391,0.0586 -0.18554,-0.28321 -0.0391,0.0586 -0.1875,-0.28516 -0.0391,0.0586 -0.18945,-0.28711 -0.0391,0.0586 -0.19141,-0.28906 -0.0391,0.0586 -0.19141,-0.28906 -0.0391,0.0605 -0.19336,-0.29297 -0.041,0.0605 -0.19531,-0.29687 -0.041,0.0605 -0.19532,-0.29687 -0.041,0.0606 -0.19532,-0.29688 -0.041,0.0625 -0.19922,-0.30273 -0.041,0.0625 -0.19922,-0.30274 -0.043,0.0625 -0.20117,-0.30664 -0.043,0.0625 -0.20117,-0.30664 -0.043,0.0645 -0.20313,-0.31054 -0.043,0.0644 -0.20312,-0.31055 -0.043,0.0645 -0.20703,-0.31446 -0.043,0.0645 -0.20703,-0.31446 -0.043,0.0664 -0.21094,-0.32031 -0.043,0.0664 -0.21093,-0.32031 -0.0449,0.0664 -0.21093,-0.32227 -0.0449,0.0664 -0.21093,-0.32227 -0.0449,0.0664 -0.21484,-0.32617 -0.0449,0.0664 -0.21485,-0.32617 -0.0449,0.0684 -0.21875,-0.33203 -0.0449,0.0684 -0.21875,-0.33203 -0.0449,0.0684 -0.21875,-0.33204 -0.0469,0.0684 -0.2207,-0.33593 -0.0469,0.0703 -0.22266,-0.33984 -0.0469,0.0703 -0.22265,-0.33985 -0.0469,0.0703 -0.22461,-0.3418 -0.0469,0.0703 -0.22656,-0.34375 -0.0469,0.0703 -0.22851,-0.34571 -0.0469,0.0723 -0.23047,-0.34961 -0.0488,0.0723 -0.23046,-0.35156 -0.0488,0.0723 -0.23047,-0.35157 -0.0488,0.0723 -0.23242,-0.35352 -0.0488,0.0723 -0.23437,-0.35547 -0.0488,0.0742 -0.23633,-0.35938 -0.0488,0.0742 -0.23828,-0.36132 -0.0488,0.0742 -0.23828,-0.36132 -0.0508,0.0762 -0.24023,-0.36719 -0.0508,0.0762 -0.24023,-0.36718 -0.0508,0.0762 -0.24219,-0.36914 -0.0508,0.0762 -0.24414,-0.3711 -0.0508,0.0762 -0.24414,-0.3711 -0.0508,0.0781 -0.24805,-0.37696 -0.0508,0.0781 -0.24805,-0.37695 -0.0508,0.0781 -0.25,-0.37891 -0.0527,0.0781 -0.25,-0.38086 -0.0527,0.0781 -0.25195,-0.38282 -0.0527,0.0801 -0.2539,-0.38672 -0.0527,0.0801 -0.2539,-0.38672 -0.0527,0.0801 -0.25781,-0.39062 -0.0527,0.0801 -0.25781,-0.39062 -0.0547,0.0801 -0.25781,-0.39258 -0.0547,0.082 -0.25976,-0.39648 -0.0547,0.082 -0.25976,-0.39649 -0.0547,0.082 -0.26367,-0.40039 -0.0547,0.082 -0.26367,-0.40039 -0.0547,0.082 -0.26562,-0.40234 -0.0547,0.084 -0.26758,-0.40626 -0.0566,0.084 -0.26758,-0.4082 -0.0566,0.084 -0.26953,-0.41016 -0.0566,0.084 -0.26953,-0.41016 -0.0566,0.0859 -0.27344,-0.41602 -0.0566,0.0859 -0.27344,-0.41601 -0.0566,0.0859 -0.27539,-0.41796 -0.0566,0.0859 -0.27734,-0.41992 -0.0566,0.0859 -0.27734,-0.41992 -0.0586,0.0879 -0.2793,-0.42578 -0.0586,0.0879 -0.2793,-0.42579 -0.0586,0.0879 -0.28125,-0.42774 -0.0586,0.0879 -0.2832,-0.42969 -0.0586,0.0879 -0.28516,-0.43165 -0.0586,0.0879 -0.28515,-0.43164 -0.0606,0.0899 -0.28711,-0.4375 -0.0605,0.0898 -0.28711,-0.4375 -0.0605,0.0899 -0.28906,-0.43946 -0.0606,0.0918 -0.29102,-0.44336 -0.0605,0.0918 -0.29297,-0.44532 -0.0606,0.0918 -0.29492,-0.44726 -0.0606,0.0918 -0.29492,-0.44726 -0.0606,0.0918 -0.29687,-0.44922 -0.0625,0.0938 -0.29688,-0.45313 -0.0625,0.0937 -0.29882,-0.45508 -0.0625,0.0937 -0.30079,-0.45703 -0.0625,0.0937 -0.30273,-0.45898 -0.0625,0.0937 -0.30273,-0.45899 -0.0625,0.0957 -0.30469,-0.4629 -0.0644,0.0957 -0.30664,-0.4668 -0.0645,0.0957 -0.30469,-0.46484 -0.0644,0.0957 -0.30859,-0.46875 -0.0645,0.0977 -0.31054,-0.47266 -0.0645,0.0977 -0.31054,-0.47266 -0.0645,0.0977 -0.3125,-0.47461 -0.0664,0.0977 -0.31445,-0.47852 -0.0645,0.0977 -0.31445,-0.47657 -0.0664,0.0996 -0.3164,-0.48242 -0.0664,0.0996 -0.31836,-0.48437 -0.0664,0.0996 -0.31836,-0.48438 -0.0664,0.0996 -0.32031,-0.48633 -0.0664,0.0996 -0.32227,-0.48828 -0.0664,0.10156 -0.32422,-0.49219 -0.0684,0.10157 -0.32422,-0.49414 -0.0684,0.10156 -0.32617,-0.49609 -0.0684,0.10156 -0.32617,-0.4961 -0.0684,0.10157 -0.32813,-0.49805 -0.0684,0.10352 -0.33007,-0.50196 -0.0684,0.10352 -0.33203,-0.50391 -0.0684,0.10352 -0.33399,-0.50586 -0.0684,0.10351 -0.33398,-0.50586 -0.0703,0.10547 -0.33594,-0.51172 -0.0703,0.10547 -0.33594,-0.51172 -0.0703,0.10547 -0.33789,-0.51367 -0.0703,0.10547 -0.33984,-0.51563 -0.0703,0.10743 -0.3418,-0.51953 -0.0703,0.10742 -0.3418,-0.51953 -0.0723,0.10742 -0.34374,-0.52344 -0.0723,0.10742 -0.34375,-0.52343 -0.0723,0.10742 -0.3457,-0.52539 -0.0723,0.10937 -0.34765,-0.5293 -0.0723,0.10938 -0.34765,-0.5293 -0.0723,0.10938 -0.35156,-0.53321 -0.0723,0.10938 -0.35156,-0.5332 -0.0742,0.10937 -0.35156,-0.53516 -0.0742,0.11133 -0.35351,-0.53906 -0.0742,0.11133 -0.35547,-0.54102 -0.0742,0.11133 -0.35742,-0.54297 -0.0742,0.11133 -0.35742,-0.54297 -0.0742,0.11328 -0.36133,-0.54882 -0.0742,0.11328 -0.36133,-0.54883 -0.0762,0.11328 -0.36133,-0.55078 -0.0762,0.11328 -0.36328,-0.55273 -0.0762,0.11328 -0.36328,-0.55274 -0.0762,0.11524 -0.36718,-0.5586 -0.0762,0.11524 -0.36719,-0.5586 -0.0762,0.11524 -0.36914,-0.56055 -0.0762,0.11523 -0.37109,-0.5625 -0.0781,0.11524 -0.37109,-0.56445 -0.0781,0.11718 -0.37305,-0.56836 -0.0781,0.11719 -0.37304,-0.56836 -0.0781,0.11719 -0.37695,-0.57227 -0.0781,0.11719 -0.37695,-0.57226 -0.0781,0.11718 -0.37891,-0.57421 -0.0781,0.11718 -0.3789,-0.57422 -0.0801,0.11914 -0.38086,-0.58007 -0.0801,0.11914 -0.38281,-0.58203 -0.0801,0.11914 -0.38281,-0.58204 -0.0801,0.1211 -0.38476,-0.58594 -0.0801,0.1211 -0.38672,-0.5879 -0.0801,0.1211 -0.38867,-0.58985 -0.0801,0.1211 -0.38867,-0.58985 -0.082,0.12305 -0.39063,-0.5957 -0.082,0.12305 -0.39062,-0.59571 -0.082,0.12305 -0.39257,-0.597658 -0.082,0.123047 -0.39454,-0.599609 -0.082,0.123047 -0.39648,-0.601563 -0.082,0.125 -0.39844,-0.605468 -0.082,0.125 -0.39844,-0.605469 -0.082,0.125 -0.40039,-0.607422 -0.084,0.125 -0.40039,-0.609375 -0.084,0.125 -0.40234,-0.611328 -0.084,0.126953 -0.4043,-0.615234 -0.084,0.126953 -0.40625,-0.617188 -0.084,0.126953 -0.40625,-0.617187 -0.084,0.126953 -0.4082,-0.619141 -0.0859,0.126954 -0.4082,-0.621094 -0.0859,0.128906 -0.41016,-0.625 -0.0859,0.128906 -0.41211,-0.626953 -0.0859,0.128906 -0.41406,-0.628906 -0.0859,0.128906 -0.41406,-0.628906 -0.0859,0.128906 -0.41602,-0.630859 -0.0859,0.130859 -0.41797,-0.634765 -0.0879,0.130859 -0.41797,-0.636719 -0.0879,0.13086 -0.41992,-0.638672 -0.0879,0.130859 -0.42188,-0.640625 -0.0879,0.13086 -0.42188,-0.640625 -0.0879,0.132812 -0.42382,-0.644531 -0.0879,0.132812 -0.42579,-0.646484 -0.0879,0.132812 -0.42773,-0.648437 -0.0898,0.132813 -0.42774,-0.650391 -0.0898,0.134765 -0.42774,-0.652343 -0.0898,0.134765 -0.43164,-0.65625 -0.0898,0.134766 -0.43164,-0.65625 -0.0898,0.134766 -0.43359,-0.658204 -0.0899,0.136719 -0.43554,-0.662109 -0.0898,0.136719 -0.4375,-0.664063 -0.0898,0.136719 -0.4375,-0.664063 -0.0918,0.136719 -0.43945,-0.667969 -0.0918,0.136719 -0.43945,-0.667969 -0.0918,0.138672 -0.4414,-0.671875 -0.0918,0.138672 -0.44336,-0.673828 -0.0918,0.138672 -0.44336,-0.673828 -0.0918,0.138672 -0.44727,-0.677735 -0.0918,0.138672 -0.44726,-0.677734 -0.0937,0.140625 -0.44922,-0.683594 -0.0937,0.140625 -0.44922,-0.683594 -0.0937,0.140625 -0.44922,-0.683593 -0.0937,0.140624 -0.45312,-0.6875 -0.0937,0.142579 -0.45508,-0.691407 -0.0937,0.142578 -0.45508,-0.691406 -0.0957,0.142578 -0.45508,-0.693359 -0.0957,0.142578 -0.45703,-0.695312 -0.0957,0.142578 -0.45898,-0.697266 -0.0957,0.144531 -0.46093,-0.701172 -0.0957,0.144532 -0.46093,-0.701172 -0.0957,0.144531 -0.46484,-0.705078 -0.0957,0.144531 -0.46485,-0.705078 -0.0977,0.144531 -0.46485,-0.707031 -0.0977,0.146484 -0.4668,-0.710937 -0.0977,0.146484 -0.46679,-0.710937 -0.0977,0.146484 -0.4707,-0.714844 -7.86524,11.81836 c -0.0227,-0.02157 -0.0474,-0.04113 -0.0703,-0.0625 -0.16187,-0.173091 -0.3287,-0.340253 -0.50195,-0.501953 -0.16422,-0.175947 -0.33381,-0.345561 -0.50977,-0.509766 C 99.94867,80.606812 99.779927,80.436074 99.603516,80.271484 99.437153,80.093172 99.264353,79.922112 99.085938,79.755859 98.920134,79.578285 98.750029,79.405838 98.572266,79.240234 98.407111,79.063311 98.23562,78.893561 98.058594,78.728516 97.889752,78.547417 97.714467,78.373744 97.533203,78.205078 97.371264,78.031658 97.204604,77.863181 97.03125,77.701172 96.86052,77.517466 96.683487,77.340884 96.5,77.169922 96.330619,76.988132 96.156502,76.811849 95.974609,76.642578 95.805785,76.461532 95.63046,76.287759 95.449219,76.119141 95.282487,75.94029 95.110492,75.768294 94.931641,75.601562 94.760533,75.417548 94.582348,75.241531 94.398438,75.070312 94.228173,74.887427 94.054014,74.70929 93.871094,74.539062 93.701823,74.35717 93.525539,74.183053 93.34375,74.013672 93.172393,73.829292 92.994753,73.65201 92.810547,73.480469 92.63919,73.296089 92.46155,73.118807 92.277344,72.947266 92.101651,72.75812 91.91967,72.576025 91.730469,72.400391 91.56184,72.219379 91.386113,72.045557 91.205078,71.876953 91.02995,71.688246 90.848724,71.507307 90.660156,71.332031 90.483119,71.141569 90.300111,70.957997 90.109375,70.78125 89.938187,70.597538 89.760135,70.420922 89.576172,70.25 89.401495,70.061996 89.22123,69.879732 89.033203,69.705078 88.860129,69.518752 88.680329,69.339237 88.494141,69.166016 88.316427,68.974318 88.132975,68.789178 87.941406,68.611328 87.765137,68.421462 87.582453,68.23876 87.392578,68.0625 87.215874,67.872147 87.032175,67.69035 86.841797,67.513672 86.663359,67.321397 86.479493,67.135354 86.287109,66.957031 86.109222,66.765504 85.924154,66.581967 85.732422,66.404297 85.55632,66.21464 85.375226,66.031547 85.185547,65.855469 85.005726,65.661367 84.819015,65.474834 84.625,65.294922 84.44226,65.097857 84.252059,64.908976 84.054688,64.726562 83.881515,64.540328 83.701906,64.360623 83.515625,64.1875 83.333509,63.99045 83.143986,63.801608 82.947266,63.619141 82.763742,63.420882 82.573317,63.230337 82.375,63.046875 82.197646,62.855739 82.013402,62.671495 81.822266,62.494141 81.638558,62.295452 81.448555,62.103771 81.25,61.919922 79.350981,59.869 76.642457,58.578192 73.626953,58.578125 Z"
       id="path9757"
       clip-path="url(#clipPath11262)"
       inkscape:connector-curvature="0" />
    <path
       id="path9278"
       d="M 73.058594,58.009766 A 10.396716,10.396716 0 0 0 62.662109,68.40625 10.396716,10.396716 0 0 0 73.058594,78.804688 10.396716,10.396716 0 0 0 83.455078,68.40625 10.396716,10.396716 0 0 0 73.058594,58.009766 Z m 35.433596,11.460937 -25.306643,38.021487 12.236328,20.51172 51.580075,0 -38.50976,-58.533207 z m -41.144534,21.527344 -22.34375,37.005863 44.488282,0 -22.144532,-37.005863 z"
       style="opacity:1;fill:#ffffff;fill-opacity:1;fill-rule:nonzero;stroke:none;stroke-width:2.0999999;stroke-linecap:round;stroke-linejoin:miter;stroke-miterlimit:4;stroke-dasharray:none;stroke-dashoffset:0;stroke-opacity:1;filter:url(#filter7925)"
       clip-path="url(#clipPath11254)"
       inkscape:export-filename="C:\Users\Simon\Documents\Material Design Icon Pack\PNG\path9278.png"
       inkscape:export-xdpi="90"
       inkscape:export-ydpi="90"
       inkscape:connector-curvature="0" />
    <path
       inkscape:connector-curvature="0"
       inkscape:export-ydpi="90"
       inkscape:export-xdpi="90"
       inkscape:export-filename="C:\Users\Simon\Documents\Material Design Icon Pack\PNG\path9278.png"
       clip-path="url(#clipPath11254)"
       style="opacity:0.2;fill:#000000;fill-opacity:1;fill-rule:nonzero;stroke:none;stroke-width:2.0999999;stroke-linecap:round;stroke-linejoin:miter;stroke-miterlimit:4;stroke-dasharray:none;stroke-dashoffset:0;stroke-opacity:1"
       d="M 73.058594,58.009766 A 10.396716,10.396716 0 0 0 62.662109,68.40625 10.396716,10.396716 0 0 0 73.058594,78.804688 10.396716,10.396716 0 0 0 83.455078,68.40625 10.396716,10.396716 0 0 0 73.058594,58.009766 Z m 35.433596,11.460937 -25.306643,38.021487 12.236328,20.51172 51.580075,0 -38.50976,-58.533207 z m -41.144534,21.527344 -22.34375,37.005863 44.488282,0 -22.144532,-37.005863 z"
       id="path7937" />
    <path
       id="path7939"
       d="M 73.058594,58.009766 A 10.396716,10.396716 0 0 0 62.662109,68.40625 10.396716,10.396716 0 0 0 73.058594,78.804688 10.396716,10.396716 0 0 0 83.455078,68.40625 10.396716,10.396716 0 0 0 73.058594,58.009766 Z m 35.433596,11.460937 -25.306643,38.021487 12.236328,20.51172 51.580075,0 -38.50976,-58.533207 z m -41.144534,21.527344 -22.34375,37.005863 44.488282,0 -22.144532,-37.005863 z"
       style="opacity:1;fill:#ffffff;fill-opacity:1;fill-rule:nonzero;stroke:none;stroke-width:2.0999999;stroke-linecap:round;stroke-linejoin:miter;stroke-miterlimit:4;stroke-dasharray:none;stroke-dashoffset:0;stroke-opacity:1"
       clip-path="url(#clipPath11254)"
       inkscape:export-filename="C:\Users\Simon\Documents\Material Design Icon Pack\PNG\path9278.png"
       inkscape:export-xdpi="90"
       inkscape:export-ydpi="90"
       inkscape:connector-curvature="0"
       transform="matrix(1,0,0,0.98652414,0,0.78173164)" />
    <path
       transform="matrix(1,0,0,0.97170145,0,2.6790942)"
       inkscape:connector-curvature="0"
       inkscape:export-ydpi="90"
       inkscape:export-xdpi="90"
       inkscape:export-filename="C:\Users\Simon\Documents\Material Design Icon Pack\PNG\path9278.png"
       clip-path="url(#clipPath11254)"
       style="opacity:1;fill:#f2f2f2;fill-opacity:1;fill-rule:nonzero;stroke:none;stroke-width:2.0999999;stroke-linecap:round;stroke-linejoin:miter;stroke-miterlimit:4;stroke-dasharray:none;stroke-dashoffset:0;stroke-opacity:1"
       d="M 73.058594,58.009766 A 10.396716,10.396716 0 0 0 62.662109,68.40625 10.396716,10.396716 0 0 0 73.058594,78.804688 10.396716,10.396716 0 0 0 83.455078,68.40625 10.396716,10.396716 0 0 0 73.058594,58.009766 Z m 35.433596,11.460937 -25.306643,38.021487 12.236328,20.51172 51.580075,0 -38.50976,-58.533207 z m -41.144534,21.527344 -22.34375,37.005863 44.488282,0 -22.144532,-37.005863 z"
       id="path4271" />
  </g>
  <g
     inkscape:groupmode="layer"
     id="layer1"
     inkscape:label="circle 2"
     sodipodi:insensitive="true">
    <g
       id="g7189"
       style="display:inline;opacity:0.1;fill:url(#radialGradient7845);fill-opacity:1;stroke:url(#radialGradient7853);stroke-opacity:1">
      <circle
         r="24"
         cy="70.459892"
         cx="148"
         transform="matrix(3.6455219,0,0,3.6455219,-443.53724,-160.86308)"
         id="circle7191"
         style="fill:url(#radialGradient7845);fill-opacity:1;stroke:url(#radialGradient7853);stroke-width:0.27840909;stroke-linejoin:round;stroke-miterlimit:4;stroke-dasharray:none;stroke-opacity:1" />
      <path
         inkscape:connector-curvature="0"
         id="path7193"
         d="m 96.003472,184.00387 87.997358,0.01 -27.00316,-27.01314 -60.771788,20.99458 z"
         style="fill:url(#radialGradient7845);fill-opacity:1;fill-rule:evenodd;stroke:url(#radialGradient7853);stroke-width:1px;stroke-linecap:butt;stroke-linejoin:miter;stroke-opacity:1" />
    </g>
  </g>
</svg>
