<?xml version="1.0" encoding="utf-8"?>
<!-- Generator: Adobe Illustrator 19.0.1, SVG Export Plug-In . SVG Version: 6.00 Build 0)  -->
<!DOCTYPE svg PUBLIC "-//W3C//DTD SVG 1.1//EN" "http://www.w3.org/Graphics/SVG/1.1/DTD/svg11.dtd">
<svg version="1.1"
	 id="svg2" xmlns:svg="http://www.w3.org/2000/svg" xmlns:dc="http://purl.org/dc/elements/1.1/" xmlns:rdf="http://www.w3.org/1999/02/22-rdf-syntax-ns#" xmlns:cc="http://creativecommons.org/ns#" xmlns:sodipodi="http://sodipodi.sourceforge.net/DTD/sodipodi-0.dtd" xmlns:inkscape="http://www.inkscape.org/namespaces/inkscape" inkscape:export-ydpi="90" inkscape:export-xdpi="90" inkscape:export-filename="C:\Users\Simon\Documents\Material Design Icon Pack\PNG\quickpic.png" sodipodi:docname="quickpic.svg" inkscape:version="0.91 r13725"
	 xmlns="http://www.w3.org/2000/svg" xmlns:xlink="http://www.w3.org/1999/xlink" x="0px" y="0px" viewBox="-443 865 192 192"
	 style="enable-background:new -443 865 192 192;" xml:space="preserve">
<style type="text/css">
	.st0{filter:url(#filter7953);}
	.st1{fill:#2196F3;stroke:#2196F3;stroke-width:0.2784;stroke-linejoin:round;}
	.st2{fill:#2196F3;}
	.st3{opacity:0.2;}
	.st4{fill:#1A237E;stroke:#1A237E;stroke-width:0.2784;stroke-linejoin:round;}
	.st5{fill:#1A237E;stroke:#1A237E;}
	.st6{fill:#FFFFFF;stroke:#FFFFFF;stroke-width:0.2784;stroke-linejoin:round;}
	.st7{fill:#FFFFFF;stroke:#FFFFFF;}
	.st8{opacity:0.17;fill:url(#path9757_1_);enable-background:new    ;}
	.st9{fill:#FFFFFF;}
	.st10{opacity:0.2;enable-background:new    ;}
	.st11{fill:#F2F2F2;}
	.st12{opacity:0.1;}
	.st13{fill:url(#circle7191_1_);stroke:url(#circle7191_2_);stroke-width:0.2784;stroke-linejoin:round;}
	.st14{fill:url(#path7193_1_);stroke:url(#path7193_2_);}
</style>
<filter  inkscape:label="Drop Shadow" style="color-interpolation-filters:sRGB;" id="filter7953">
	<feFlood  result="flood" flood-color="rgb(0,0,0)" flood-opacity="0.301961" id="feFlood7955"></feFlood>
	<feComposite  operator="in" in2="SourceGraphic" in="flood" result="composite1" id="feComposite7957"></feComposite>
	<feGaussianBlur  in="composite1" stdDeviation="3" result="blur" id="feGaussianBlur7959"></feGaussianBlur>
	<feOffset  dy="3" dx="4.57967e-015" result="offset" id="feOffset7961"></feOffset>
	<feComposite  operator="over" in2="offset" in="SourceGraphic" result="composite2" id="feComposite7963"></feComposite>
</filter>
<sodipodi:namedview  showgrid="true" showguides="false" inkscape:cy="120.10121" inkscape:cx="95.468622" borderopacity="1.0" bordercolor="#666666" pagecolor="#ffffff" id="base" inkscape:zoom="4.7708333" inkscape:snap-global="false" inkscape:window-maximized="1" inkscape:window-y="-8" inkscape:window-x="-8" inkscape:window-height="1017" inkscape:window-width="1920" inkscape:guide-bbox="true" inkscape:pageshadow="2" inkscape:current-layer="layer3" inkscape:pageopacity="0.0" inkscape:document-units="px">
	<inkscape:grid  type="xygrid" empspacing="5" enabled="true" visible="true" id="grid2985" snapvisiblegridlinesonly="true">
		</inkscape:grid>
	<sodipodi:guide  id="guide3002" orientation="1,0" position="8,58.524064"></sodipodi:guide>
	<sodipodi:guide  id="guide3004" orientation="1,0" position="20,69.304813"></sodipodi:guide>
	<sodipodi:guide  id="guide3006" orientation="1,0" position="32,62.631016"></sodipodi:guide>
	<sodipodi:guide  id="guide3008" orientation="1,0" position="68,53.390374"></sodipodi:guide>
	<sodipodi:guide  id="guide3010" orientation="0,1" position="119.61497,8"></sodipodi:guide>
	<sodipodi:guide  id="guide3012" orientation="0,1" position="155.5508,20"></sodipodi:guide>
	<sodipodi:guide  id="guide3014" orientation="0,1" position="132.96257,32"></sodipodi:guide>
	<sodipodi:guide  id="guide3016" orientation="0,1" position="130.90909,68"></sodipodi:guide>
	<sodipodi:guide  id="guide3018" orientation="0,1" position="137.06952,184"></sodipodi:guide>
	<sodipodi:guide  id="guide3020" orientation="1,0" position="184,145.79679"></sodipodi:guide>
	<sodipodi:guide  id="guide3022" orientation="0,1" position="91.379679,172"></sodipodi:guide>
	<sodipodi:guide  id="guide3024" orientation="1,0" position="172,101.64706"></sodipodi:guide>
	<sodipodi:guide  id="guide3026" orientation="0,1" position="149.39037,160"></sodipodi:guide>
	<sodipodi:guide  id="guide3028" orientation="1,0" position="160,88.299465"></sodipodi:guide>
	<sodipodi:guide  id="guide3030" orientation="0,1" position="128.34225,124"></sodipodi:guide>
	<sodipodi:guide  id="guide3032" orientation="1,0" position="124,92.919786"></sodipodi:guide>
</sodipodi:namedview>
<g id="layer2" inkscape:label="circle 1" inkscape:groupmode="layer" sodipodi:insensitive="true">
	<g id="g9472" class="st0">
		<circle id="path3040_1_" class="st1" cx="-347" cy="961" r="87.5"/>
		<path id="path9284_1_" inkscape:connector-curvature="0" class="st2" d="M-347,1049l88,0l-27-27l-60.8,21L-347,1049z"/>
	</g>
</g>
<g id="layer3" inkscape:label="circle" inkscape:groupmode="layer">
	<g id="g7855" transform="matrix(1.0001073,0,0,0.97437156,-0.01036127,5.2449612)" class="st3">
		<ellipse id="circle7857" class="st4" cx="-347" cy="983.8" rx="87.5" ry="85.3"/>
		<path id="path7859" inkscape:connector-curvature="0" sodipodi:nodetypes="ccccc" class="st5" d="M-341.7,1070.7l82.2,0
			l-29.2-26.6l-58,21.6L-341.7,1070.7z"/>
	</g>
	<g id="g7870" transform="matrix(1.0000803,0,0,0.98182067,-0.00775675,-0.42562207)" class="st3">
		<ellipse id="circle7872" class="st6" cx="-347" cy="977" rx="87.5" ry="85.9"/>
		<path id="path7874" inkscape:connector-curvature="0" class="st7" d="M-347,1065l88,0l-27-27l-60.8,21L-347,1065z"/>
	</g>
	<g id="g7904" transform="matrix(1.0000176,0,0,0.98783602,-0.00169111,1.136359)">
		<ellipse id="circle7906" class="st1" cx="-347" cy="971.7" rx="87.5" ry="86.4"/>
		<path id="path7908" inkscape:connector-curvature="0" class="st2" d="M-347,1059.7l88,0l-27-27l-60.8,21L-347,1059.7z"/>
	</g>
	
		<linearGradient id="path9757_1_" gradientUnits="userSpaceOnUse" x1="-404.2432" y1="998.8064" x2="-294.3771" y2="888.2538" gradientTransform="matrix(1 0 0 -1 0 1924)">
		<stop  offset="0" style="stop-color:#000000"/>
		<stop  offset="1" style="stop-color:#000000;stop-opacity:0"/>
	</linearGradient>
	<path id="path9757" inkscape:connector-curvature="0" class="st8" d="M-369.4,923.6c-5.7,0-10.4,4.7-10.4,10.4c0,2.8,1.1,5.4,3,7.4
		c0.1,0.1,0.2,0.2,0.3,0.3c0.1,0.1,0.2,0.2,0.3,0.3c0.1,0.1,0.2,0.2,0.3,0.3c0.1,0.1,0.2,0.2,0.3,0.3c0.1,0.1,0.2,0.2,0.3,0.3
		c0.1,0.1,0.2,0.2,0.3,0.3c0.1,0.1,0.2,0.2,0.3,0.3c0.1,0.1,0.2,0.2,0.3,0.3c0.1,0.1,0.2,0.2,0.3,0.3c0.1,0.1,0.2,0.2,0.3,0.3
		c0.1,0.1,0.2,0.2,0.3,0.3c0.1,0.1,0.2,0.2,0.3,0.3c0.1,0.1,0.2,0.2,0.3,0.3c0.1,0.1,0.2,0.2,0.3,0.3c0.1,0.1,0.2,0.2,0.3,0.3
		c0.1,0.1,0.2,0.2,0.3,0.3c0.1,0.1,0.2,0.2,0.3,0.3c0.1,0.1,0.2,0.2,0.3,0.3c0.1,0.1,0.2,0.2,0.3,0.3c0.1,0.1,0.2,0.2,0.3,0.3
		c0.1,0.1,0.2,0.2,0.3,0.3c0.1,0.1,0.2,0.2,0.3,0.3c0.1,0.1,0.2,0.2,0.3,0.3c0.1,0.1,0.2,0.2,0.3,0.3c0.1,0.1,0.2,0.2,0.3,0.3
		c0.1,0.1,0.2,0.2,0.3,0.3c0.1,0.1,0.2,0.2,0.3,0.3c0.1,0.1,0.2,0.2,0.3,0.3c0.1,0.1,0.2,0.2,0.3,0.3c0.1,0.1,0.2,0.2,0.3,0.3
		c0.1,0.1,0.2,0.2,0.3,0.3c0.1,0.1,0.2,0.2,0.3,0.3c0.1,0.1,0.2,0.2,0.3,0.3c0.1,0.1,0.2,0.2,0.3,0.3c0.1,0.1,0.2,0.2,0.3,0.3
		c0.1,0.1,0.2,0.2,0.3,0.3c0.1,0.1,0.2,0.2,0.3,0.3c0.1,0.1,0.2,0.2,0.3,0.3c0.1,0.1,0.2,0.2,0.3,0.3c0.1,0.1,0.2,0.2,0.3,0.3
		c0.1,0.1,0.2,0.2,0.3,0.3c0.1,0.1,0.2,0.2,0.3,0.3c0.1,0.1,0.2,0.2,0.3,0.3c0.1,0.1,0.2,0.2,0.3,0.3c0.1,0.1,0.2,0.2,0.3,0.3
		c0.1,0.1,0.2,0.2,0.3,0.3c0.1,0.1,0.2,0.2,0.3,0.3c0.1,0.1,0.2,0.2,0.3,0.3c0.1,0.1,0.2,0.2,0.3,0.3c0.1,0.1,0.2,0.2,0.3,0.3
		c0.1,0.1,0.2,0.2,0.3,0.3c0.1,0.1,0.2,0.2,0.3,0.3c0.1,0.1,0.2,0.2,0.3,0.3c0.1,0.1,0.2,0.2,0.2,0.3c0.1,0.1,0.2,0.2,0.3,0.3
		c0.1,0.1,0.2,0.2,0.3,0.3c0.1,0.1,0.2,0.2,0.3,0.2c0.1,0.1,0.2,0.2,0.3,0.3c0.1,0.1,0.2,0.2,0.3,0.2c0.1,0.1,0.2,0.2,0.2,0.3
		c0.1,0.1,0.2,0.2,0.3,0.2c0.1,0.1,0.2,0.2,0.2,0.3c0.1,0.1,0.2,0.2,0.3,0.3c0.1,0.1,0.2,0.2,0.2,0.3c0.1,0.1,0.2,0.2,0.3,0.2
		c0.1,0.1,0.2,0.2,0.3,0.3c0.1,0.1,0.2,0.2,0.3,0.2c0.1,0.1,0.2,0.2,0.2,0.3c0.1,0.1,0.2,0.2,0.3,0.2c0.1,0.1,0.2,0.2,0.2,0.3
		c0.1,0.1,0.2,0.2,0.3,0.2c0.1,0.1,0.2,0.2,0.2,0.3c0.1,0.1,0.2,0.2,0.3,0.2c0.1,0.1,0.2,0.2,0.2,0.3c0.1,0.1,0.2,0.2,0.3,0.2
		c0.1,0.1,0.2,0.2,0.2,0.3c0.1,0.1,0.2,0.2,0.3,0.2c0.1,0.1,0.2,0.2,0.2,0.3c0.1,0.1,0.2,0.2,0.3,0.2c0.1,0.1,0.2,0.2,0.2,0.3
		c0.1,0.1,0.2,0.2,0.3,0.2c0.1,0.1,0.2,0.2,0.2,0.3c0.1,0.1,0.2,0.2,0.3,0.2c0.1,0.1,0.2,0.2,0.2,0.3s0.2,0.2,0.3,0.2
		c0.1,0.1,0.1,0.2,0.2,0.3c0.1,0.1,0.2,0.2,0.3,0.2l-5.5,8.3l-0.2-0.4l-0.1,0.2l-0.4-0.7l-0.1,0.2l-0.4-0.7l-0.1,0.2l-0.4-0.7
		l-0.1,0.2l-0.4-0.7l-0.1,0.2l-0.4-0.7l-0.1,0.2l-0.4-0.7l-0.1,0.2l-0.4-0.7l-0.1,0.2l-0.4-0.7l-0.1,0.2l-0.4-0.7l-0.1,0.2l-0.4-0.7
		l-0.1,0.2l-0.4-0.7l-0.1,0.2l-0.4-0.7l-0.1,0.2l-0.4-0.7l-0.1,0.2l-0.4-0.7l-0.1,0.2l-0.4-0.7l-0.1,0.2l-0.4-0.7l-0.1,0.2l-0.4-0.7
		l-0.1,0.2l-0.4-0.7l-0.1,0.2l-0.4-0.7l-0.1,0.2l-0.4-0.7l-0.1,0.2l-0.4-0.7l-0.1,0.2l-0.4-0.7l-0.1,0.2l-0.4-0.7l-0.1,0.2l-0.4-0.7
		l-0.1,0.2l-0.4-0.7l-0.1,0.2l-0.4-0.8l-0.1,0.2l-0.5-0.8l-0.1,0.2l-0.5-0.8l-0.1,0.2l-0.5-0.8l-22.3,37h0.9l-0.3,0.6h0.9l-0.3,0.6
		h0.9l-0.3,0.6h0.9l-0.3,0.6h0.9l-0.3,0.6h0.9l-0.3,0.6h0.9l-0.3,0.6h0.9l-0.3,0.6h0.9l-0.3,0.6h0.9l-0.3,0.6h0.9l-0.3,0.6h0.9
		l-0.3,0.5h0.9l-0.3,0.5h0.9l-0.3,0.5h0.9l-0.3,0.5h0.9l-0.3,0.5h0.9l-0.3,0.5h0.9l-0.3,0.5h0.9l-0.3,0.5h0.9l-0.3,0.5h0.9l-0.3,0.5
		h0.9l-0.3,0.5h0.9l-0.3,0.5h0.9l-0.3,0.5h0.8l-0.3,0.5h0.8l-0.3,0.5h0.8l-0.3,0.5h0.8l-0.3,0.5h0.8l-0.3,0.5h0.8l-0.3,0.5h0.8
		l-0.3,0.5h0.8l-0.3,0.5h0.8l-0.3,0.5h0.8l-0.3,0.5h0.8l-0.3,0.5h0.8l-0.3,0.5h0.8l-0.3,0.5h0.8l-0.3,0.5h0.8l-0.3,0.5h0.8l-0.3,0.5
		h0.8l-0.3,0.5h0.8l-0.3,0.5h0.8l-0.3,0.5h0.8l-0.3,0.5h0.8l-0.3,0.5h0.8l-0.3,0.5h0.8l-0.3,0.5h0.8l-0.3,0.5h0.8l-0.3,0.5h0.8
		l-0.3,0.5h0.8l-0.3,0.5h0.8l-0.3,0.5h0.8l-0.3,0.5h0.8l-0.3,0.5h0.8l-0.3,0.5h0.8l-0.3,0.5h0.8l-0.3,0.5h0.8l-0.3,0.5h0.8l-0.3,0.5
		h0.8l-0.3,0.5h0.8l-0.3,0.5h0.8l-0.3,0.5h0.7l-0.3,0.5h0.7l-0.3,0.5h0.7l-0.3,0.5h0.7l-0.3,0.5h0.7l-0.3,0.5h0.7l-0.3,0.5h0.7
		l-0.3,0.5h0.7l-0.3,0.5h0.7l-0.3,0.5h0.7l-0.3,0.5h0.7l-0.3,0.5h0.7l-0.3,0.4h0.7l-0.3,0.4h0.7l-0.3,0.4h0.7l-0.3,0.4h0.7l-0.3,0.4
		h0.7l-0.3,0.4h0.7l-0.3,0.4h0.7l-0.3,0.4h0.7l-0.3,0.4h0.7l-0.3,0.4h0.7l-0.3,0.4h0.7l-0.3,0.4h0.7l-0.3,0.4h0.7l-0.3,0.4h0.7
		l-0.3,0.4h0.7l-0.3,0.4h0.7l-0.3,0.4h0.7l-0.3,0.4h0.7l-0.3,0.4h0.7l-0.3,0.4h0.7l-0.3,0.4h0.7l-0.3,0.4h0.7l-0.2,0.4h0.7l-0.2,0.4
		h0.7l-0.2,0.4h0.7l-0.2,0.4h0.7l-0.2,0.4h0.7l-0.2,0.4h0.6l-0.2,0.4h0.6l-0.2,0.4h0.6l-0.2,0.4h0.6l-0.2,0.4h0.6l-0.2,0.4h0.6
		l-0.2,0.4h0.6l-0.2,0.4h0.6l-0.2,0.4h0.6l-0.2,0.4h0.6l-0.2,0.4h0.6l-0.2,0.4h0.6l-0.2,0.4h0.6l-0.2,0.4h0.6l-0.2,0.4h0.6l-0.2,0.4
		h0.6l-0.2,0.4h0.6l-0.2,0.4h0.6l-0.2,0.4h0.6l-0.2,0.4h0.6l-0.2,0.4h0.6l-0.2,0.4h0.6l-0.2,0.4h0.6l-0.2,0.4h0.6l-0.2,0.4h0.6
		l-0.2,0.4h0.6l-0.2,0.4h0.6l-0.2,0.4h0.6l-0.2,0.4h0.6l-0.2,0.4h0.6l-0.2,0.4h0.6l-0.2,0.4h0.6l-0.2,0.4h0.6l-0.2,0.4h0.6l-0.2,0.3
		h0.6l-0.2,0.3h0.6l-0.2,0.3h0.6l-0.2,0.3h0.6l-0.2,0.3h0.5l-0.2,0.3h0.5l-0.2,0.3h0.5l-0.2,0.3h0.5l-0.2,0.3h0.5l-0.2,0.3h0.5
		l-0.2,0.3h0.5l-0.2,0.3h0.5l-0.2,0.3h0.5l-0.2,0.3h0.5l-0.2,0.3h0.5l-0.2,0.3h0.5l-0.2,0.3h0.5l-0.2,0.3h0.5l-0.2,0.3h0.5l-0.2,0.3
		h0.5l-0.2,0.3h0.5l-0.2,0.3h0.5l-0.2,0.3h0.5l-0.2,0.3h0.5l-0.2,0.3h0.5l-0.2,0.3h0.5l-0.2,0.3h0.5l-0.2,0.3h0.5l-0.2,0.3h0.5
		l-0.2,0.3h0.5l-0.2,0.3h0.5l-0.2,0.3h0.5l-0.2,0.3h0.5l-0.2,0.3h0.5l-0.2,0.3h0.5l-0.2,0.3h0.5l-0.2,0.3h0.5l-0.2,0.3h0.5l-0.2,0.3
		h0.5l-0.2,0.3h0.5l-0.2,0.3h0.5l-0.2,0.3h0.5l-0.2,0.3h0.4l-0.2,0.3h0.4l-0.2,0.3h0.4l-0.2,0.3h0.4l-0.2,0.3h0.4l-0.2,0.3h0.4
		l-0.2,0.3h0.4l-0.2,0.3h0.4l-0.2,0.3h0.4l-0.2,0.3h0.4l-0.2,0.3h0.4l-0.2,0.3h0.4l-0.2,0.3h0.4l-0.2,0.3h0.4l-0.2,0.3h0.4l-0.2,0.3
		h0.4l-0.2,0.3h0.4l-0.2,0.3h0.4l-0.2,0.3h0.4l-0.2,0.3h0.4l-0.2,0.3h0.4l-0.1,0.2h0.4l-0.1,0.2h0.4l-0.1,0.2h0.4l-0.1,0.2h0.4
		l-0.1,0.2h0.4l-0.1,0.2h0.4l-0.1,0.2h0.4l-0.1,0.2h0.4l-0.1,0.2h0.4l-0.1,0.2h0.4l-0.1,0.2h0.4l-0.1,0.2h0.4l-0.1,0.2h0.4l-0.1,0.2
		h0.4l-0.1,0.2h0.4l-0.1,0.2h0.4l-0.1,0.2h0.4l-0.1,0.2h0.4l-0.1,0.2h0.3l-0.1,0.2h0.3l-0.1,0.2h0.3l-0.1,0.2h0.3l-0.1,0.2h0.3
		l-0.1,0.2h0.3l-0.1,0.2h0.3l-0.1,0.2h0.3l-0.1,0.2h0.3l-0.1,0.2h0.3l-0.1,0.2h0.3l-0.1,0.2h0.3l-0.1,0.2h0.3l-0.1,0.2h0.3l-0.1,0.2
		h0.3l-0.1,0.2h0.3l-0.1,0.2h0.3l-0.1,0.2h0.3l-0.1,0.2h0.3l-0.1,0.2h0.3l-0.1,0.2h0.3l-0.1,0.2h0.3l-0.1,0.2h0.3l-0.1,0.2h0.3
		l-0.1,0.2h0.3l-0.1,0.2h0.3l-0.1,0.2h0.3l-0.1,0.2h0.3l-0.1,0.2h0.3l-0.1,0.2h0.3l-0.1,0.2h0.3l-0.1,0.2h0.3l-0.1,0.2h0.3l-0.1,0.2
		h0.3l-0.1,0.2h0.3l-0.1,0.2h0.3l-0.1,0.2h0.3l-0.1,0.2h0.3l-0.1,0.2h0.2l-0.1,0.2h0.2l-0.1,0.2h0.2l-0.1,0.2h0.2l-0.1,0.2h0.2
		l-0.1,0.1h0.2l-0.1,0.1h0.2l-0.1,0.1h0.2l-0.1,0.1h0.2l-0.1,0.1h0.2l-0.1,0.1h0.2l-0.1,0.1h0.2l-0.1,0.1h0.2l-0.1,0.1h0.2l-0.1,0.1
		h0.2l-0.1,0.1h0.2l-0.1,0.1h0.2l-0.1,0.1h0.2l-0.1,0.1h0.2l-0.1,0.1h0.2l-0.1,0.1h0.2l-0.1,0.1h0.2l-0.1,0.1h0.2l-0.1,0.1h0.2
		l-0.1,0.1h0.2l-0.1,0.1h0.2l-0.1,0.1h0.2l-0.1,0.1h0.2l-0.1,0.1h0.2l-0.1,0.1h0.2l-0.1,0.1h0.2l-0.1,0.1h0.2l-0.1,0.1h0.2l-0.1,0.1
		h0.2l-0.1,0.1h0.2l-0.1,0.1h0.2l-0.1,0.1h0.2l-0.1,0.1h0.2l-0.1,0.1h0.2l-0.1,0.1h0.1l-0.1,0.1h0.1l-0.1,0.1h0.1l-0.1,0.1h0.1
		l-0.1,0.1h0.1l-0.1,0.1h0.1l-0.1,0.1h0.1l0,0.1h0.1l0,0.1h0.1l0,0.1h0.1l0,0.1h0.1l0,0.1h0.1l0,0.1h0.1l0,0.1h0.1l0,0.1h0.1l0,0.1
		h0.1l0,0.1h0.1l0,0.1h0.1l0,0.1h0.1l0,0.1h0.1l0,0.1h0.1l0,0.1h0.1l0,0.1h0.1l0,0.1h0.1l0,0.1h0.1l0,0.1h0.1l0,0.1h0.1l0,0h0.1l0,0
		h0.1l0,0h0.1l0,0h0.1l0,0h0.1l0,0h0.1l0,0h0.1l0,0h0.1l0,0h0.1l0,0h0.1l0,0h0.1l0,0h0l0,0h0l0,0h0l0,0h0l0,0h0l0,0h0l0,0h0l0,0h0
		l0,0h0l0,0h0l0,0h0l0,0h0l0,0h0l0,0h0l0,0h0l0,0h0l0,0h0l0,0h0l0,0h44.5l-8.9-14.8h0.1l0.1,0.2h0.1l0.1,0.2h0.1l0.1,0.2h0.1
		l0.1,0.2h0.1l0.1,0.2h0.1l0.1,0.2h0.1l0.1,0.2h0.1l0.1,0.2h0.1l0.1,0.2h0.1l0.1,0.2h0.1l0.1,0.2h0.1l0.1,0.2h0.1l0.1,0.2h0.1
		l0.1,0.2h0.1l0.1,0.2h0.1l0.1,0.2h0.1l0.1,0.2h0.1l0.1,0.2h0.1l0.1,0.2h0.1l0.1,0.2h0.1l0.1,0.2h0.1l0.1,0.2h0.1l0.1,0.2h0.1
		l0.1,0.2h0.1l0.1,0.2h0.1l0.1,0.2h0.1l0.1,0.2h0.1l0.1,0.2h0.1l0.1,0.2h0.1l0.1,0.2h0.1l0.1,0.2h0.1l0.1,0.2h0.1l0.1,0.2h0.1
		l0.1,0.2h0.1l0.1,0.2h0.1l0.1,0.2h0.1l0.1,0.2h0.1l0.1,0.2h0.1l0.1,0.2h0.1l0.1,0.2h0.1l0.1,0.2h0.1l0.1,0.2h0.1l0.1,0.2h0.1
		l0.1,0.1h0.1l0.1,0.1h0.1l0.1,0.1h0.1l0.1,0.1h0.1l0.1,0.1h0.1l0.1,0.1h0.1l0.1,0.1h0.1l0.1,0.1h0.1l0.1,0.1h0.1l0.1,0.1h0.1
		l0.1,0.1h0.1l0.1,0.1h0.1l0.1,0.1h0.1l0.1,0.1h0.1l0.1,0.1h0.1l0.1,0.1h0l0.1,0.1h0l0.1,0.1h0l0.1,0.1h0l0.1,0.1h0l0.1,0.1h0
		l0.1,0.1h0l0.1,0.1h0l0.1,0.1h0l0.1,0.1h0l0.1,0.1h0l0.1,0.1h0l0.1,0.1h0l0.1,0.1h0l0.1,0.1h0l0.1,0.1h0l0.1,0.1h0l0.1,0.1h0
		l0.1,0.1h0l0.1,0.1h0l0.1,0.1h0l0.1,0.1h0l0.1,0.1h0l0.1,0.1h0l0.1,0.1h0l0.1,0.1h0l0,0.1h0l0,0.1h0l0,0.1h0l0,0.1h0l0,0.1h0l0,0.1
		h0l0,0.1h0l0,0.1h0l0,0.1h0l0,0.1h0l0,0.1h0l0,0.1h0l0,0.1h0l0,0.1h0l0,0.1h0l0,0.1h0l0,0.1h0l0,0.1h0l0,0.1h0l0,0.1h0l0,0h0l0,0h0
		l0,0h0l0,0h0l0,0h0l0,0h0l0,0h0l0,0h0l0,0h0l0,0h0l0,0h0l0,0h0l0,0h0l0,0h0l0,0h0l0,0h0l0,0h0l0,0h0l0,0h0l0,0h0l0,0h0l0,0h0l0,0h0
		l0,0h0l0,0h0l0,0h0l0,0h0l0,0h0l0,0h0l0,0h51.6l0,0l-38.5-58.5l0,0l0,0l0,0l0,0l0,0l0,0l0,0l0,0l0,0l0,0l0,0l0,0l0,0l0,0l0,0l0,0
		l0,0l0,0l0,0l0,0l0,0l0,0l0,0l0,0l0,0l0,0l0,0l0,0l0,0l0,0l0,0l0,0l0,0l0,0l0,0l0,0l0,0l0,0l0,0l0,0l0,0l0,0l0,0l0,0l0,0l0,0l0-0.1
		l0,0l0-0.1l0,0l0-0.1l0,0l0-0.1l0,0l0-0.1l0,0l0-0.1l0,0l0-0.1l0,0l0-0.1l0,0l0-0.1l0,0l0-0.1l0,0l0-0.1l0,0l0-0.1l0,0l0-0.1l0,0
		l-0.1-0.1l0,0l-0.1-0.1l0,0l-0.1-0.1l0,0l-0.1-0.1l0,0l-0.1-0.1l0,0l-0.1-0.1l0,0l-0.1-0.1l0,0l-0.1-0.1l0,0l-0.1-0.1l0,0l-0.1-0.1
		l0,0l-0.1-0.1l0,0l-0.1-0.1l0,0l-0.1-0.1l0,0l-0.1-0.1l0,0l-0.1-0.1l0,0l-0.1-0.1l0,0l-0.1-0.1l0,0l-0.1-0.1l0,0l-0.1-0.1l0,0
		l-0.1-0.1l0,0l-0.1-0.1l0,0l-0.1-0.1l0,0l-0.1-0.1l0,0l-0.1-0.1l0,0l-0.1-0.1l0,0l-0.1-0.1l0,0l-0.1-0.1l0,0l-0.1-0.1l0,0l-0.1-0.1
		l0,0l-0.1-0.1l0,0l-0.1-0.1l0,0l-0.1-0.1l0,0l-0.1-0.1l0,0l-0.1-0.1l0,0l-0.1-0.1l0,0l-0.1-0.2l0,0l-0.1-0.2l0,0l-0.1-0.2l0,0
		l-0.1-0.2l0,0l-0.1-0.2l0,0l-0.1-0.2l0,0l-0.1-0.2l0,0l-0.1-0.2l0,0l-0.1-0.2l0,0l-0.1-0.2l0,0l-0.1-0.2l0,0l-0.1-0.2l0,0l-0.1-0.2
		l0,0l-0.1-0.2l0,0l-0.1-0.2l0,0l-0.1-0.2l0,0l-0.1-0.2l0,0l-0.1-0.2l0,0l-0.1-0.2l0,0l-0.1-0.2l0,0l-0.1-0.2l0,0l-0.1-0.2l0,0
		l-0.1-0.2l0,0l-0.1-0.2l0,0l-0.1-0.2l0,0l-0.1-0.2l0,0l-0.1-0.2l0,0l-0.1-0.2l0,0l-0.1-0.2l0,0l-0.1-0.2l0,0l-0.1-0.2l0,0l-0.1-0.2
		l0,0l-0.1-0.2l0,0l-0.1-0.2l0,0l-0.1-0.2l0,0l-0.1-0.2l0,0l-0.1-0.2l0,0l-0.1-0.2l0,0l-0.1-0.2l0,0l-0.2-0.2l0,0l-0.2-0.2l0,0
		l-0.2-0.2l0,0l-0.2-0.2l0,0l-0.2-0.2l0,0l-0.2-0.2l0,0l-0.2-0.2l0,0l-0.2-0.2l0,0.1l-0.2-0.2l0,0.1l-0.2-0.2l0,0.1l-0.2-0.2l0,0.1
		l-0.2-0.2l0,0.1l-0.2-0.3l0,0.1l-0.2-0.3l0,0.1l-0.2-0.3l0,0.1l-0.2-0.3l0,0.1l-0.2-0.3l0,0.1l-0.2-0.3l0,0.1l-0.2-0.3l0,0.1
		l-0.2-0.3l0,0.1l-0.2-0.3l0,0.1l-0.2-0.3l0,0.1l-0.2-0.3l0,0.1l-0.2-0.3l0,0.1l-0.2-0.3l0,0.1l-0.2-0.3l0,0.1l-0.2-0.3l0,0.1
		l-0.2-0.3l0,0.1l-0.2-0.3l0,0.1l-0.2-0.3l0,0.1l-0.2-0.3l0,0.1l-0.2-0.3l0,0.1l-0.2-0.3l0,0.1l-0.2-0.3l0,0.1l-0.2-0.3l0,0.1
		l-0.2-0.3l0,0.1l-0.2-0.3l0,0.1l-0.2-0.3l0,0.1l-0.2-0.3l0,0.1l-0.2-0.3l0,0.1l-0.2-0.3l0,0.1l-0.2-0.3l0,0.1l-0.2-0.3l0,0.1
		l-0.2-0.3l0,0.1l-0.2-0.3l0,0.1l-0.2-0.3l0,0.1l-0.2-0.3l0,0.1l-0.2-0.3l0,0.1l-0.2-0.3l0,0.1l-0.2-0.3l0,0.1l-0.2-0.3l0,0.1
		l-0.2-0.3l0,0.1l-0.2-0.3l0,0.1l-0.2-0.3l0,0.1l-0.2-0.3l0,0.1l-0.2-0.3l0,0.1l-0.2-0.3l0,0.1l-0.2-0.3l0,0.1l-0.2-0.3l0,0.1
		l-0.2-0.3l0,0.1l-0.2-0.4l0,0.1l-0.2-0.4l0,0.1l-0.2-0.4l0,0.1l-0.2-0.4l0,0.1l-0.2-0.4l0,0.1l-0.2-0.4l0,0.1l-0.2-0.4l-0.1,0.1
		l-0.2-0.4l-0.1,0.1l-0.2-0.4l-0.1,0.1l-0.2-0.4l-0.1,0.1l-0.2-0.4l-0.1,0.1l-0.2-0.4l-0.1,0.1l-0.2-0.4l-0.1,0.1l-0.2-0.4l-0.1,0.1
		l-0.3-0.4l-0.1,0.1l-0.3-0.4l-0.1,0.1l-0.3-0.4l-0.1,0.1l-0.3-0.4l-0.1,0.1l-0.3-0.4l-0.1,0.1l-0.3-0.4l-0.1,0.1l-0.3-0.4l-0.1,0.1
		l-0.3-0.4l-0.1,0.1l-0.3-0.4l-0.1,0.1l-0.3-0.4l-0.1,0.1l-0.3-0.4l-0.1,0.1l-0.3-0.4l-0.1,0.1l-0.3-0.4l-0.1,0.1l-0.3-0.4l-0.1,0.1
		l-0.3-0.4l-0.1,0.1l-0.3-0.4l-0.1,0.1l-0.3-0.4l-0.1,0.1l-0.3-0.4l-0.1,0.1l-0.3-0.4l-0.1,0.1l-0.3-0.4l-0.1,0.1l-0.3-0.4l-0.1,0.1
		l-0.3-0.4l-0.1,0.1l-0.3-0.4l-0.1,0.1l-0.3-0.4l-0.1,0.1l-0.3-0.4l-0.1,0.1l-0.3-0.4l-0.1,0.1l-0.3-0.4l-0.1,0.1l-0.3-0.4l-0.1,0.1
		l-0.3-0.4l-0.1,0.1l-0.3-0.4l-0.1,0.1l-0.3-0.4l-0.1,0.1l-0.3-0.4l-0.1,0.1l-0.3-0.4l-0.1,0.1l-0.3-0.4l-0.1,0.1l-0.3-0.4l-0.1,0.1
		l-0.3-0.4l-0.1,0.1l-0.3-0.5l-0.1,0.1l-0.3-0.5l-0.1,0.1l-0.3-0.5l-0.1,0.1l-0.3-0.5l-0.1,0.1l-0.3-0.5l-0.1,0.1l-0.3-0.5l-0.1,0.1
		l-0.3-0.5l-0.1,0.1l-0.3-0.5l-0.1,0.1l-0.3-0.5l-0.1,0.1l-0.3-0.5l-0.1,0.1l-0.3-0.5l-0.1,0.1l-0.3-0.5l-0.1,0.1l-0.3-0.5l-0.1,0.1
		l-0.3-0.5l-0.1,0.1l-0.3-0.5l-0.1,0.1l-0.3-0.5l-0.1,0.1l-0.3-0.5l-0.1,0.1l-0.3-0.5l-0.1,0.1l-0.3-0.5l-0.1,0.1l-0.3-0.5l-0.1,0.1
		l-0.3-0.5l-0.1,0.1l-0.3-0.5l-0.1,0.1l-0.3-0.5l-0.1,0.1l-0.3-0.5l-0.1,0.1l-0.3-0.5l-0.1,0.1l-0.3-0.5l-0.1,0.1l-0.3-0.5l-0.1,0.1
		l-0.3-0.5l-0.1,0.1l-0.3-0.5l-0.1,0.1l-0.3-0.5l-0.1,0.1l-0.3-0.5l-0.1,0.1l-0.3-0.5l-0.1,0.1l-0.3-0.5l-0.1,0.1l-0.3-0.5l-0.1,0.1
		l-0.3-0.5l-0.1,0.1l-0.3-0.5l-0.1,0.1l-0.3-0.5l-0.1,0.1l-0.3-0.5l-0.1,0.1l-0.3-0.5l-0.1,0.1l-0.4-0.5l-0.1,0.1l-0.4-0.5l-0.1,0.1
		l-0.4-0.5l-0.1,0.1l-0.4-0.5l-0.1,0.1l-0.4-0.5l-0.1,0.1l-0.4-0.5l-0.1,0.1l-0.4-0.5l-0.1,0.1l-0.4-0.5l-0.1,0.1l-0.4-0.5l-0.1,0.1
		l-0.4-0.6l-0.1,0.1l-0.4-0.6l-0.1,0.1l-0.4-0.6l-0.1,0.1l-0.4-0.6l-0.1,0.1l-0.4-0.6l-0.1,0.1l-0.4-0.6l-0.1,0.1l-0.4-0.6l-0.1,0.1
		l-0.4-0.6l-0.1,0.1l-0.4-0.6l-0.1,0.1l-0.4-0.6l-0.1,0.1l-0.4-0.6l-0.1,0.1l-0.4-0.6l-0.1,0.1l-0.4-0.6l-0.1,0.1l-0.4-0.6l-0.1,0.1
		l-0.4-0.6l-0.1,0.1l-0.4-0.6l-0.1,0.1l-0.4-0.6l-0.1,0.1l-0.4-0.6l-0.1,0.1l-0.4-0.6l-0.1,0.1l-0.4-0.6l-0.1,0.1l-0.4-0.6l-0.1,0.1
		l-0.4-0.6l-0.1,0.1l-0.4-0.6l-0.1,0.1l-0.4-0.6l-0.1,0.1l-0.4-0.6l-0.1,0.1l-0.4-0.6l-0.1,0.1l-0.4-0.6l-0.1,0.1l-0.4-0.6l-0.1,0.1
		l-0.4-0.6l-0.1,0.1l-0.4-0.6l-0.1,0.1l-0.4-0.6l-0.1,0.1l-0.4-0.6l-0.1,0.1l-0.4-0.6l-0.1,0.1l-0.4-0.6l-0.1,0.1l-0.4-0.6l-0.1,0.1
		l-0.4-0.6l-0.1,0.1l-0.4-0.6l-0.1,0.1l-0.4-0.6l-0.1,0.1l-0.4-0.6l-0.1,0.1l-0.4-0.6l-0.1,0.1l-0.4-0.6l-0.1,0.1l-0.4-0.6l-0.1,0.1
		l-0.4-0.6l-0.1,0.1l-0.4-0.6l-0.1,0.1l-0.4-0.6l-0.1,0.1l-0.4-0.6l-0.1,0.1l-0.4-0.6l-0.1,0.1l-0.4-0.6l-0.1,0.1l-0.4-0.6l-0.1,0.1
		l-0.4-0.7l-0.1,0.1l-0.4-0.7l-0.1,0.1l-0.4-0.7l-0.1,0.1l-0.4-0.7l-0.1,0.1l-0.4-0.7l-0.1,0.1l-0.4-0.7l-0.1,0.1l-0.4-0.7l-0.1,0.1
		l-0.4-0.7l-0.1,0.1l-0.4-0.7l-0.1,0.1l-0.4-0.7l-0.1,0.1l-0.4-0.7l-0.1,0.1l-0.4-0.7l-0.1,0.1l-0.4-0.7l-0.1,0.1l-0.4-0.7l-0.1,0.1
		l-0.4-0.7l-0.1,0.1l-0.4-0.7l-0.1,0.1l-0.4-0.7l-0.1,0.1l-0.4-0.7l-0.1,0.1l-0.5-0.7l-0.1,0.1l-0.5-0.7l-0.1,0.1l-0.5-0.7l-0.1,0.1
		l-0.5-0.7l-0.1,0.1l-0.5-0.7l-0.1,0.1l-0.5-0.7l-0.1,0.1l-0.5-0.7l-0.1,0.1l-0.5-0.7l-0.1,0.1l-0.5-0.7l-0.1,0.1l-0.5-0.7l-0.1,0.1
		l-0.5-0.7l-0.1,0.1l-0.5-0.7l-0.1,0.1l-0.5-0.7l-0.1,0.1l-0.5-0.7l-7.9,11.8c0,0,0,0-0.1-0.1c-0.2-0.2-0.3-0.3-0.5-0.5
		c-0.2-0.2-0.3-0.3-0.5-0.5c-0.2-0.2-0.3-0.4-0.5-0.5c-0.2-0.2-0.3-0.3-0.5-0.5c-0.2-0.2-0.3-0.4-0.5-0.5c-0.2-0.2-0.3-0.3-0.5-0.5
		c-0.2-0.2-0.3-0.4-0.5-0.5c-0.2-0.2-0.3-0.3-0.5-0.5c-0.2-0.2-0.3-0.4-0.5-0.5c-0.2-0.2-0.3-0.4-0.5-0.5c-0.2-0.2-0.3-0.4-0.5-0.5
		c-0.2-0.2-0.3-0.4-0.5-0.5c-0.2-0.2-0.3-0.4-0.5-0.5c-0.2-0.2-0.3-0.4-0.5-0.5c-0.2-0.2-0.3-0.4-0.5-0.5c-0.2-0.2-0.3-0.4-0.5-0.5
		c-0.2-0.2-0.3-0.4-0.5-0.5c-0.2-0.2-0.4-0.4-0.5-0.5c-0.2-0.2-0.3-0.4-0.5-0.5c-0.2-0.2-0.4-0.4-0.5-0.5c-0.2-0.2-0.4-0.4-0.6-0.6
		c-0.2-0.2-0.3-0.4-0.5-0.5c-0.2-0.2-0.4-0.4-0.5-0.5c-0.2-0.2-0.4-0.4-0.5-0.5c-0.2-0.2-0.4-0.4-0.6-0.6c-0.2-0.2-0.4-0.4-0.5-0.5
		c-0.2-0.2-0.4-0.4-0.6-0.5c-0.2-0.2-0.4-0.4-0.6-0.6c-0.2-0.2-0.4-0.4-0.6-0.6c-0.2-0.2-0.4-0.4-0.5-0.5c-0.2-0.2-0.4-0.4-0.6-0.6
		c-0.2-0.2-0.4-0.4-0.6-0.6c-0.2-0.2-0.4-0.4-0.5-0.5c-0.2-0.2-0.4-0.4-0.6-0.6c-0.2-0.2-0.4-0.4-0.6-0.6c-0.2-0.2-0.4-0.4-0.6-0.6
		c-0.2-0.2-0.4-0.4-0.6-0.6C-363.6,924.9-366.4,923.6-369.4,923.6z"/>
	
		<path id="path9278" inkscape:connector-curvature="0" inkscape:export-ydpi="90" inkscape:export-xdpi="90" inkscape:export-filename="C:\Users\Simon\Documents\Material Design Icon Pack\PNG\path9278.png" class="st9" d="
		M-369.9,923c-5.7,0-10.4,4.7-10.4,10.4c0,5.7,4.7,10.4,10.4,10.4c0,0,0,0,0,0c5.7,0,10.4-4.7,10.4-10.4c0,0,0,0,0,0
		C-359.5,927.7-364.2,923-369.9,923z M-334.5,934.5l-25.3,38l12.2,20.5h51.6L-334.5,934.5z M-375.7,956l-22.3,37h44.5L-375.7,956z"
		/>
	
		<path id="path7937" inkscape:connector-curvature="0" inkscape:export-ydpi="90" inkscape:export-xdpi="90" inkscape:export-filename="C:\Users\Simon\Documents\Material Design Icon Pack\PNG\path9278.png" class="st10" d="
		M-369.9,923c-5.7,0-10.4,4.7-10.4,10.4c0,5.7,4.7,10.4,10.4,10.4c0,0,0,0,0,0c5.7,0,10.4-4.7,10.4-10.4c0,0,0,0,0,0
		C-359.5,927.7-364.2,923-369.9,923z M-334.5,934.5l-25.3,38l12.2,20.5h51.6L-334.5,934.5z M-375.7,956l-22.3,37h44.5L-375.7,956z"
		/>
	
		<path id="path7939" inkscape:connector-curvature="0" inkscape:export-ydpi="90" inkscape:export-xdpi="90" inkscape:export-filename="C:\Users\Simon\Documents\Material Design Icon Pack\PNG\path9278.png" class="st9" d="
		M-369.9,923c-5.7,0-10.4,4.6-10.4,10.3c0,5.7,4.7,10.3,10.4,10.3c0,0,0,0,0,0c5.7,0,10.4-4.6,10.4-10.3c0,0,0,0,0,0
		C-359.5,927.6-364.2,923-369.9,923z M-334.5,934.3l-25.3,37.5l12.2,20.2h51.6L-334.5,934.3z M-375.7,955.6l-22.3,36.5h44.5
		L-375.7,955.6z"/>
	
		<path id="path4271" inkscape:connector-curvature="0" inkscape:export-ydpi="90" inkscape:export-xdpi="90" inkscape:export-filename="C:\Users\Simon\Documents\Material Design Icon Pack\PNG\path9278.png" class="st11" d="
		M-369.9,924c-5.7,0-10.4,4.5-10.4,10.1c0,5.6,4.7,10.1,10.4,10.1c0,0,0,0,0,0c5.7,0,10.4-4.5,10.4-10.1c0,0,0,0,0,0
		C-359.5,928.6-364.2,924-369.9,924z M-334.5,935.2l-25.3,36.9l12.2,19.9h51.6L-334.5,935.2z M-375.7,956.1l-22.3,36h44.5
		L-375.7,956.1z"/>
</g>
<g id="layer1" inkscape:label="circle 2" inkscape:groupmode="layer" sodipodi:insensitive="true">
	<g id="g7189" class="st12">
		
			<radialGradient id="circle7191_1_" cx="-757.9117" cy="1976.2786" r="88.6039" gradientTransform="matrix(-5.564306e-003 7.1925 7.2361 5.598099e-003 -15161.6162 6171.2612)" gradientUnits="userSpaceOnUse">
			<stop  offset="0" style="stop-color:#FFFFFF"/>
			<stop  offset="1" style="stop-color:#FFFFFF;stop-opacity:0"/>
		</radialGradient>
		
			<radialGradient id="circle7191_2_" cx="-757.9117" cy="1976.2786" r="88.6039" gradientTransform="matrix(-5.564306e-003 7.1925 7.2361 5.598027e-003 -15161.6162 6171.2617)" gradientUnits="userSpaceOnUse">
			<stop  offset="0" style="stop-color:#FFFFFF"/>
			<stop  offset="1" style="stop-color:#FFFFFF;stop-opacity:0"/>
		</radialGradient>
		<circle id="circle7191" class="st13" cx="-347" cy="961" r="87.5"/>
		
			<radialGradient id="path7193_1_" cx="-440.6116" cy="2138.4834" r="88.6039" gradientTransform="matrix(-1.526340e-003 1.973 1.9849 1.535610e-003 -4680.2656 1738.411)" gradientUnits="userSpaceOnUse">
			<stop  offset="0" style="stop-color:#FFFFFF"/>
			<stop  offset="1" style="stop-color:#FFFFFF;stop-opacity:0"/>
		</radialGradient>
		
			<radialGradient id="path7193_2_" cx="-440.6116" cy="2138.4834" r="88.6039" gradientTransform="matrix(-1.526340e-003 1.973 1.9849 1.535590e-003 -4680.2656 1738.4111)" gradientUnits="userSpaceOnUse">
			<stop  offset="0" style="stop-color:#FFFFFF"/>
			<stop  offset="1" style="stop-color:#FFFFFF;stop-opacity:0"/>
		</radialGradient>
		<path id="path7193" inkscape:connector-curvature="0" class="st14" d="M-347,1049l88,0l-27-27l-60.8,21L-347,1049z"/>
	</g>
</g>
</svg>
