<?xml version="1.0" encoding="utf-8"?>
<!-- Generator: Adobe Illustrator 19.0.1, SVG Export Plug-In . SVG Version: 6.00 Build 0)  -->
<!DOCTYPE svg PUBLIC "-//W3C//DTD SVG 1.1//EN" "http://www.w3.org/Graphics/SVG/1.1/DTD/svg11.dtd">
<svg version="1.1"
	 id="svg2" xmlns:svg="http://www.w3.org/2000/svg" xmlns:dc="http://purl.org/dc/elements/1.1/" xmlns:rdf="http://www.w3.org/1999/02/22-rdf-syntax-ns#" xmlns:cc="http://creativecommons.org/ns#" xmlns:sodipodi="http://sodipodi.sourceforge.net/DTD/sodipodi-0.dtd" xmlns:inkscape="http://www.inkscape.org/namespaces/inkscape" inkscape:export-ydpi="90" inkscape:export-xdpi="90" inkscape:export-filename="C:\Users\Simon\Documents\Material Design Icon Pack\PNG\simtoolkit.png" sodipodi:docname="simtoolkit.svg" inkscape:version="0.91 r13725"
	 xmlns="http://www.w3.org/2000/svg" xmlns:xlink="http://www.w3.org/1999/xlink" x="0px" y="0px" viewBox="-443 865 192 192"
	 style="enable-background:new -443 865 192 192;" xml:space="preserve">
<style type="text/css">
	.st0{filter:url(#filter5495);}
	.st1{fill:#FFC107;}
	.st2{opacity:0;fill:none;stroke:#FFFFFF;stroke-width:13.188;}
	.st3{fill:#CECECE;}
	.st4{fill:#FFFFFF;}
	.st5{opacity:0.1;fill:url(#rect5509_1_);stroke:#FFFFFF;stroke-width:13.188;stroke-opacity:0;enable-background:new    ;}
</style>
<filter  inkscape:label="Drop Shadow" style="color-interpolation-filters:sRGB;" id="filter5495">
	<feFlood  result="flood" flood-color="rgb(0,0,0)" flood-opacity="0.29999999999999999" id="feFlood5497"></feFlood>
	<feComposite  operator="in" in2="SourceGraphic" in="flood" result="composite1" id="feComposite5499"></feComposite>
	<feGaussianBlur  in="composite1" stdDeviation="3" result="blur" id="feGaussianBlur5501"></feGaussianBlur>
	<feOffset  dy="3" dx="4.57967e-015" result="offset" id="feOffset5503"></feOffset>
	<feComposite  operator="over" in2="offset" in="SourceGraphic" result="composite2" id="feComposite5505"></feComposite>
</filter>
<sodipodi:namedview  showgrid="true" showguides="true" inkscape:cy="87.229142" inkscape:cx="188.32134" borderopacity="1.0" bordercolor="#666666" pagecolor="#f2f2f2" id="base" inkscape:zoom="4" inkscape:snap-global="false" inkscape:window-maximized="1" inkscape:window-y="-8" inkscape:window-x="-8" inkscape:window-height="1017" inkscape:window-width="1920" inkscape:guide-bbox="true" inkscape:pageshadow="2" inkscape:current-layer="layer2" inkscape:pageopacity="0" inkscape:document-units="px">
	<inkscape:grid  type="xygrid" empspacing="5" enabled="true" visible="true" id="grid2985" snapvisiblegridlinesonly="true">
		</inkscape:grid>
	<sodipodi:guide  id="guide3002" orientation="1,0" position="8,58.524064"></sodipodi:guide>
	<sodipodi:guide  id="guide3004" orientation="1,0" position="20,69.304813"></sodipodi:guide>
	<sodipodi:guide  id="guide3006" orientation="1,0" position="32,62.631016"></sodipodi:guide>
	<sodipodi:guide  id="guide3008" orientation="1,0" position="68,53.390374"></sodipodi:guide>
	<sodipodi:guide  id="guide3010" orientation="0,1" position="119.61497,8"></sodipodi:guide>
	<sodipodi:guide  id="guide3012" orientation="0,1" position="155.5508,20"></sodipodi:guide>
	<sodipodi:guide  id="guide3014" orientation="0,1" position="132.96257,32"></sodipodi:guide>
	<sodipodi:guide  id="guide3016" orientation="0,1" position="130.90909,68"></sodipodi:guide>
	<sodipodi:guide  id="guide3018" orientation="0,1" position="137.06952,184"></sodipodi:guide>
	<sodipodi:guide  id="guide3020" orientation="1,0" position="184,145.79679"></sodipodi:guide>
	<sodipodi:guide  id="guide3022" orientation="0,1" position="91.379679,172"></sodipodi:guide>
	<sodipodi:guide  id="guide3024" orientation="1,0" position="172,101.64706"></sodipodi:guide>
	<sodipodi:guide  id="guide3026" orientation="0,1" position="149.39037,160"></sodipodi:guide>
	<sodipodi:guide  id="guide3028" orientation="1,0" position="160,88.299465"></sodipodi:guide>
	<sodipodi:guide  id="guide3030" orientation="0,1" position="128.34225,124"></sodipodi:guide>
	<sodipodi:guide  id="guide3032" orientation="1,0" position="124,92.919786"></sodipodi:guide>
</sodipodi:namedview>
<g id="layer2" inkscape:label="Vertical rectangle" inkscape:groupmode="layer">
	<g id="g5490" class="st0">
		<g id="rect5446_1_">
			<path class="st1" d="M-385.4,955.4h79.2c2.7,0,4.8,2.2,4.8,4.8v63.4c0,2.7-2.2,4.8-4.8,4.8h-79.2c-2.7,0-4.8-2.2-4.8-4.8v-63.4
				C-390.2,957.6-388,955.4-385.4,955.4z"/>
			<path class="st2" d="M-385.4,955.4h79.2c2.7,0,4.8,2.2,4.8,4.8v63.4c0,2.7-2.2,4.8-4.8,4.8h-79.2c-2.7,0-4.8-2.2-4.8-4.8v-63.4
				C-390.2,957.6-388,955.4-385.4,955.4z"/>
		</g>
		
			<path id="path5470_1_" inkscape:connector-curvature="0" sodipodi:nodetypes="csccssscccccccccccccccccccccccccccccccc" class="st3" d="
			M-283,885c0-8-6-12-12-12l-68,0l-48,48l0,116c0,6,6,12,12,12l104,0c6,0,12-6,12-12L-283,885z M-370.9,1025h-16v-16h16V1025z
			 M-306.9,1025h-16v-16h16V1025z M-370.9,993.1l-15.9-0.4v-32h16L-370.9,993.1z M-338.9,1025h-16v-32h16V1025z M-338.9,977.1h-16
			l0-16.4l15.9,0.4V977.1z M-306.9,993.1h-16v-32h16V993.1z"/>
		
			<path id="path5488_1_" inkscape:connector-curvature="0" sodipodi:nodetypes="csccssscccccccccccccccccccccccccccccccc" class="st4" d="
			M-283,884.9c0-7.9-6-11.9-12-11.9l-68,0l-48,47.7l0,115.3c0,6,6,11.9,12,11.9l104,0c6,0,12-6,12-12L-283,884.9z M-370.9,1025.1
			h-16v-15.9h16V1025.1z M-306.9,1025.1h-16v-15.9h16V1025.1z M-370.9,993.3l-15.9-0.4v-31.8h16L-370.9,993.3z M-338.9,1025.1h-16
			v-31.8h16V1025.1z M-338.9,977.4h-16l0-16.3l15.9,0.4V977.4z M-306.9,993.3h-16v-31.8h16V993.3z"/>
	</g>
</g>
<g id="layer1" inkscape:label="Vertical rectangle 1" inkscape:groupmode="layer">
	
		<radialGradient id="rect5509_1_" cx="-507.6048" cy="2137.2839" r="70.6248" gradientTransform="matrix(-4.180560e-003 2.4929 1.8109 3.036930e-003 -4283.0806 2131.6577)" gradientUnits="userSpaceOnUse">
		<stop  offset="0" style="stop-color:#FFFFFF"/>
		<stop  offset="1" style="stop-color:#FFFFFF;stop-opacity:0"/>
	</radialGradient>
	<path id="rect5509" inkscape:connector-curvature="0" class="st5" d="M-363,873l-48,47.7l0,115.3v0.9c0,6,6,12,12,12l104,0
		c6,0,12-6,12-12v-0.9l0-151.1c0-7.9-6-11.9-12-11.9H-363L-363,873z"/>
</g>
</svg>
