<?xml version="1.0" encoding="utf-8"?>
<!-- Generator: Adobe Illustrator 19.0.1, SVG Export Plug-In . SVG Version: 6.00 Build 0)  -->
<!DOCTYPE svg PUBLIC "-//W3C//DTD SVG 1.1//EN" "http://www.w3.org/Graphics/SVG/1.1/DTD/svg11.dtd">
<svg version="1.1"
	 id="svg2" xmlns:svg="http://www.w3.org/2000/svg" xmlns:dc="http://purl.org/dc/elements/1.1/" xmlns:rdf="http://www.w3.org/1999/02/22-rdf-syntax-ns#" xmlns:cc="http://creativecommons.org/ns#" xmlns:sodipodi="http://sodipodi.sourceforge.net/DTD/sodipodi-0.dtd" xmlns:inkscape="http://www.inkscape.org/namespaces/inkscape" inkscape:export-ydpi="90" inkscape:export-xdpi="90" inkscape:export-filename="C:\Users\Simon\Documents\Material Design Icon Pack\PNG\steam.png" sodipodi:docname="steam.svg" inkscape:version="0.91 r13725"
	 xmlns="http://www.w3.org/2000/svg" xmlns:xlink="http://www.w3.org/1999/xlink" x="0px" y="0px" viewBox="-443 865 192 192"
	 style="enable-background:new -443 865 192 192;" xml:space="preserve">
<style type="text/css">
	.st0{filter:url(#filter7076);}
	.st1{fill:#8097A2;}
	.st2{clip-path:url(#SVGID_2_);fill:#8097A2;stroke:#8097A2;stroke-width:1.0001;stroke-linejoin:round;}
	.st3{clip-path:url(#SVGID_4_);fill:#566F7B;stroke:#566F7B;stroke-width:0.9968;stroke-linejoin:round;}
	.st4{clip-path:url(#SVGID_6_);fill:#607D8B;stroke:#607D8B;stroke-width:0.9935;stroke-linejoin:round;}
	.st5{opacity:0.2;clip-path:url(#SVGID_8_);fill:url(#path4846_1_);enable-background:new    ;}
	.st6{clip-path:url(#SVGID_11_);}
	.st7{clip-path:url(#SVGID_12_);fill:#CFCECF;}
	.st8{clip-path:url(#SVGID_14_);filter:url(#filter4217);}
	.st9{fill:#CFCECF;}
	.st10{clip-path:url(#SVGID_17_);}
	.st11{opacity:0.2;clip-path:url(#SVGID_18_);fill:#FFFEFF;enable-background:new    ;}
	.st12{clip-path:url(#SVGID_21_);}
	.st13{opacity:0.2;clip-path:url(#SVGID_22_);fill:#263238;enable-background:new    ;}
	.st14{clip-path:url(#SVGID_24_);fill:#CFCECF;}
	
		.st15{opacity:0.1;fill:url(#path7088_1_);stroke:url(#path7088_2_);stroke-width:1.0001;stroke-linejoin:round;enable-background:new    ;}
</style>
<filter  inkscape:label="Drop Shadow" style="color-interpolation-filters:sRGB;" id="filter7076">
	<feFlood  result="flood" flood-color="rgb(0,0,0)" flood-opacity="0.29999999999999999" id="feFlood7078"></feFlood>
	<feComposite  operator="in" in2="SourceGraphic" in="flood" result="composite1" id="feComposite7080"></feComposite>
	<feGaussianBlur  in="composite1" stdDeviation="3" result="blur" id="feGaussianBlur7082"></feGaussianBlur>
	<feOffset  dy="3" dx="4.57967e-015" result="offset" id="feOffset7084"></feOffset>
	<feComposite  operator="over" in2="offset" in="SourceGraphic" result="composite2" id="feComposite7086"></feComposite>
</filter>
<filter  height="1.4200000000000002" inkscape:label="Drop Shadow" style="color-interpolation-filters:sRGB;" id="filter4217">
	<feFlood  result="flood" flood-color="rgb(38,50,56)" flood-opacity="0.20000000000000001" id="feFlood4219"></feFlood>
	<feComposite  operator="in" in2="SourceGraphic" in="flood" result="composite1" id="feComposite4221"></feComposite>
	<feGaussianBlur  in="composite1" stdDeviation="6" result="blur" id="feGaussianBlur4223"></feGaussianBlur>
	<feOffset  dy="6" dx="4.57967e-015" result="offset" id="feOffset4225"></feOffset>
	<feComposite  operator="over" in2="offset" in="SourceGraphic" result="composite2" id="feComposite4227"></feComposite>
</filter>
<sodipodi:namedview  showgrid="true" showguides="true" inkscape:cy="142.11848" inkscape:cx="78.431057" borderopacity="1.0" bordercolor="#666666" pagecolor="#ffffff" id="base" inkscape:zoom="2" inkscape:snap-global="false" inkscape:window-maximized="1" inkscape:window-y="-8" inkscape:window-x="-8" inkscape:window-height="1017" inkscape:window-width="1920" inkscape:guide-bbox="true" inkscape:pageshadow="2" inkscape:current-layer="layer4" inkscape:pageopacity="0.0" inkscape:document-units="px">
	<inkscape:grid  type="xygrid" empspacing="5" enabled="true" visible="true" id="grid2985" snapvisiblegridlinesonly="true">
		</inkscape:grid>
	<sodipodi:guide  id="guide3002" orientation="1,0" position="8,58.524064"></sodipodi:guide>
	<sodipodi:guide  id="guide3004" orientation="1,0" position="20,69.304813"></sodipodi:guide>
	<sodipodi:guide  id="guide3006" orientation="1,0" position="32,62.631016"></sodipodi:guide>
	<sodipodi:guide  id="guide3008" orientation="1,0" position="68,53.390374"></sodipodi:guide>
	<sodipodi:guide  id="guide3010" orientation="0,1" position="119.61497,8"></sodipodi:guide>
	<sodipodi:guide  id="guide3012" orientation="0,1" position="155.5508,20"></sodipodi:guide>
	<sodipodi:guide  id="guide3014" orientation="0,1" position="132.96257,32"></sodipodi:guide>
	<sodipodi:guide  id="guide3016" orientation="0,1" position="130.90909,68"></sodipodi:guide>
	<sodipodi:guide  id="guide3018" orientation="0,1" position="137.06952,184"></sodipodi:guide>
	<sodipodi:guide  id="guide3020" orientation="1,0" position="184,145.79679"></sodipodi:guide>
	<sodipodi:guide  id="guide3022" orientation="0,1" position="91.379679,172"></sodipodi:guide>
	<sodipodi:guide  id="guide3024" orientation="1,0" position="172,101.64706"></sodipodi:guide>
	<sodipodi:guide  id="guide3026" orientation="0,1" position="149.39037,160"></sodipodi:guide>
	<sodipodi:guide  id="guide3028" orientation="1,0" position="160,88.299465"></sodipodi:guide>
	<sodipodi:guide  id="guide3030" orientation="0,1" position="128.34225,124"></sodipodi:guide>
	<sodipodi:guide  id="guide3032" orientation="1,0" position="124,92.919786"></sodipodi:guide>
</sodipodi:namedview>
<g id="layer2" inkscape:label="Square 1" inkscape:groupmode="layer">
	<g id="path7059" inkscape:connector-curvature="0" class="st0">
		<path class="st1" d="M-411.6,885.5c-6,0-10.9,4.9-10.9,10.9v0.8c0,0,0,0.1,0,0.1v30.1c-2.7,0.8-5.1,2.3-7.2,4.5
			c-3.4,3.5-5.2,7.7-5.2,12.6s1.7,9.1,5.2,12.6c2.1,2.2,4.5,3.6,7.2,4.5v63.3c0,0,0,0,0,0v0.9c0,6,4.8,10.8,10.8,10.8h129.4
			c6,0,10.8-4.8,10.8-10.8v-0.9c0,0,0,0,0,0v-59.6c1.9-1.1,3.7-2.4,5.4-4.1c4.6-4.6,7-10.3,7-16.9s-2.3-12.2-7-16.9
			c-1.7-1.7-3.5-3-5.4-4.1v-25.9c0,0,0-0.1,0-0.1v-0.8c0-6-4.9-10.9-10.9-10.9H-411.6z"/>
	</g>
</g>
<g id="layer4" inkscape:label="Square" inkscape:groupmode="layer">
	<g>
		<defs>
			<path id="SVGID_1_" d="M-411.6,885c-6,0-10.9,4.9-10.9,10.9v0.8c0,0,0,0.1,0,0.1V927c-2.7,0.8-5.1,2.3-7.2,4.5
				c-3.4,3.5-5.2,7.7-5.2,12.6s1.7,9.1,5.2,12.6c2.1,2.2,4.5,3.6,7.2,4.5v63.5c0,0,0,0,0,0v0.9c0,6,4.8,10.9,10.8,10.9h129.4
				c6,0,10.8-4.8,10.8-10.9v-0.9c0,0,0,0,0,0v-59.8c1.9-1.1,3.7-2.4,5.4-4.1c4.6-4.7,7-10.3,7-16.9c0-6.6-2.3-12.3-7-16.9
				c-1.7-1.7-3.5-3.1-5.4-4.1v-26c0,0,0-0.1,0-0.1v-0.8c0-6.1-4.9-10.9-10.9-10.9H-411.6z"/>
		</defs>
		<clipPath id="SVGID_2_">
			<use xlink:href="#SVGID_1_"  style="overflow:visible;"/>
		</clipPath>
		<path id="rect4802" class="st2" d="M-411.6,885h129.2c6,0,10.9,4.9,10.9,10.9v129.6c0,6-4.9,10.9-10.9,10.9h-129.2
			c-6,0-10.9-4.9-10.9-10.9V895.9C-422.5,889.9-417.6,885-411.6,885z"/>
	</g>
	<g>
		<defs>
			<path id="SVGID_3_" d="M-411.6,885.5c-6,0-10.9,4.9-10.9,10.9v0.8c0,0,0,0.1,0,0.1v30.2c-2.7,0.8-5.1,2.3-7.2,4.5
				c-3.4,3.5-5.2,7.7-5.2,12.6c0,4.9,1.7,9.1,5.2,12.6c2.1,2.2,4.5,3.6,7.2,4.5v63.5c0,0,0,0,0,0v0.9c0,6,4.8,10.9,10.8,10.9h129.4
				c6,0,10.8-4.8,10.8-10.9v-0.9c0,0,0,0,0,0v-59.8c1.9-1.1,3.7-2.4,5.4-4.1c4.6-4.7,7-10.3,7-16.9c0-6.6-2.3-12.3-7-16.9
				c-1.7-1.7-3.5-3.1-5.4-4.1v-26c0,0,0-0.1,0-0.1v-0.8c0-6.1-4.9-10.9-10.9-10.9H-411.6z"/>
		</defs>
		<clipPath id="SVGID_4_">
			<use xlink:href="#SVGID_3_"  style="overflow:visible;"/>
		</clipPath>
		<path id="rect4806" class="st3" d="M-411.7,886.5h129.3c6,0,10.8,4.9,10.8,10.9v128.8c0,6-4.8,10.9-10.8,10.9h-129.3
			c-6,0-10.8-4.9-10.8-10.9V897.4C-422.5,891.4-417.7,886.5-411.7,886.5z"/>
	</g>
	<g>
		<defs>
			<path id="SVGID_5_" d="M-411.6,885.5c-6,0-10.9,4.9-10.9,10.9v0.8c0,0,0,0.1,0,0.1v30.1c-2.7,0.8-5.1,2.3-7.2,4.5
				c-3.4,3.5-5.2,7.7-5.2,12.6s1.7,9.1,5.2,12.6c2.1,2.2,4.5,3.6,7.2,4.5v63.3c0,0,0,0,0,0v0.9c0,6,4.8,10.8,10.8,10.8h129.4
				c6,0,10.8-4.8,10.8-10.8v-0.9c0,0,0,0,0,0v-59.6c1.9-1.1,3.7-2.4,5.4-4.1c4.6-4.6,7-10.3,7-16.9s-2.3-12.2-7-16.9
				c-1.7-1.7-3.5-3-5.4-4.1v-25.9c0,0,0-0.1,0-0.1v-0.8c0-6-4.9-10.9-10.9-10.9H-411.6z"/>
		</defs>
		<clipPath id="SVGID_6_">
			<use xlink:href="#SVGID_5_"  style="overflow:visible;"/>
		</clipPath>
		<path id="rect3811" class="st4" d="M-411.7,886.5h129.5c5.9,0,10.8,4.8,10.8,10.8v127.5c0,5.9-4.8,10.8-10.8,10.8h-129.5
			c-5.9,0-10.8-4.8-10.8-10.8V897.2C-422.5,891.3-417.7,886.5-411.7,886.5z"/>
	</g>
	<g>
		<defs>
			<path id="SVGID_7_" d="M-411.6,885.5c-6,0-10.9,4.9-10.9,10.9v0.8c0,0,0,0.1,0,0.1v30.1c-2.7,0.8-5.1,2.3-7.2,4.5
				c-3.4,3.5-5.2,7.7-5.2,12.6s1.7,9.1,5.2,12.6c2.1,2.2,4.5,3.6,7.2,4.5v63.3c0,0,0,0,0,0v0.9c0,6,4.8,10.8,10.8,10.8h129.4
				c6,0,10.8-4.8,10.8-10.8v-0.9c0,0,0,0,0,0v-59.6c1.9-1.1,3.7-2.4,5.4-4.1c4.6-4.6,7-10.3,7-16.9s-2.3-12.2-7-16.9
				c-1.7-1.7-3.5-3-5.4-4.1v-25.9c0,0,0-0.1,0-0.1v-0.8c0-6-4.9-10.9-10.9-10.9H-411.6z"/>
		</defs>
		<clipPath id="SVGID_8_">
			<use xlink:href="#SVGID_7_"  style="overflow:visible;"/>
		</clipPath>
		
			<linearGradient id="path4846_1_" gradientUnits="userSpaceOnUse" x1="-384.6865" y1="1018.7036" x2="-262.4852" y2="896.4536" gradientTransform="matrix(1 0 0 -1 0 1924)">
			<stop  offset="0" style="stop-color:#263238"/>
			<stop  offset="1" style="stop-color:#263238;stop-opacity:0"/>
		</linearGradient>
		<path id="path4846" inkscape:connector-curvature="0" class="st5" d="M-282.4,920.8c-6.5,0-12.1,2.3-16.7,6.9
			c-4.6,4.6-7,10.2-7.1,16.7l-14.7,21.3c-0.3,0-0.6,0-1-0.1c-0.4,0-0.7-0.1-0.9-0.1c-3.2,0-6.3,0.8-9.1,2.5l-60.7-24.4
			c0,0-0.1-0.1-0.1-0.1c-0.2-0.2-0.3-0.4-0.5-0.5c-0.2-0.2-0.4-0.4-0.5-0.5c-0.2-0.2-0.4-0.4-0.5-0.5c-0.2-0.2-0.4-0.4-0.5-0.5
			c-0.2-0.2-0.4-0.4-0.5-0.5c-0.2-0.2-0.4-0.4-0.5-0.5c-0.2-0.2-0.4-0.4-0.5-0.5c-0.2-0.2-0.4-0.4-0.6-0.6c-0.2-0.2-0.4-0.4-0.6-0.5
			c-0.2-0.2-0.3-0.4-0.5-0.5c-0.2-0.2-0.4-0.4-0.6-0.6c-0.2-0.2-0.4-0.4-0.6-0.6c-0.2-0.2-0.4-0.4-0.6-0.6c-0.2-0.2-0.4-0.4-0.6-0.6
			c-0.2-0.2-0.4-0.4-0.6-0.6c-0.2-0.2-0.4-0.4-0.6-0.6c-0.2-0.2-0.4-0.4-0.6-0.6c-0.2-0.2-0.4-0.4-0.6-0.6c-0.2-0.2-0.4-0.4-0.6-0.6
			c-0.2-0.2-0.4-0.4-0.6-0.6c-0.5-0.5-1-1-1.6-1.5c-3.3-2.6-7-4-11.2-4c-4.9,0-9.1,1.7-12.5,5.2s-5.2,7.7-5.2,12.6s1.7,9.1,5.2,12.6
			c0.1,0.1,0.2,0.2,0.3,0.3c0.1,0.1,0.1,0.2,0.2,0.3c0.1,0.1,0.2,0.2,0.3,0.3c0.1,0.1,0.1,0.2,0.2,0.3c0.1,0.1,0.2,0.2,0.3,0.3
			c0.1,0.1,0.1,0.2,0.2,0.3c0.1,0.1,0.2,0.2,0.3,0.3c0.1,0.1,0.1,0.2,0.2,0.3c0.1,0.1,0.2,0.2,0.3,0.3c0.1,0.1,0.1,0.2,0.2,0.3
			c0.1,0.1,0.2,0.2,0.3,0.3c0.1,0.1,0.1,0.2,0.2,0.3c0.1,0.1,0.2,0.2,0.3,0.3c0.1,0.1,0.1,0.2,0.2,0.3c0.1,0.1,0.2,0.2,0.3,0.3
			c0.1,0.1,0.1,0.2,0.2,0.3c0.1,0.1,0.2,0.2,0.3,0.3c0.1,0.1,0.1,0.2,0.2,0.3c0.1,0.1,0.2,0.2,0.3,0.3c0.1,0.1,0.1,0.2,0.2,0.3
			c0.1,0.1,0.2,0.2,0.3,0.3c0.1,0.1,0.1,0.2,0.2,0.3c0.1,0.1,0.2,0.2,0.3,0.3c0.1,0.1,0.1,0.2,0.2,0.3c0.1,0.1,0.2,0.2,0.3,0.3
			c0.1,0.1,0.1,0.2,0.2,0.3c0.1,0.1,0.2,0.2,0.3,0.3c0.1,0.1,0.1,0.2,0.2,0.2c0.1,0.1,0.2,0.2,0.3,0.3c0.1,0.1,0.1,0.2,0.2,0.2
			c0.1,0.1,0.2,0.2,0.3,0.3c0.1,0.1,0.1,0.2,0.2,0.2c0.1,0.1,0.2,0.2,0.3,0.3c0.1,0.1,0.1,0.2,0.2,0.2c0.1,0.1,0.2,0.2,0.3,0.3
			c0.1,0.1,0.1,0.2,0.2,0.2c0.1,0.1,0.2,0.2,0.3,0.3c0.1,0.1,0.1,0.2,0.2,0.2c0.1,0.1,0.2,0.2,0.3,0.3c0.1,0.1,0.1,0.2,0.2,0.2
			c0.1,0.1,0.2,0.2,0.3,0.3c0.1,0.1,0.1,0.2,0.2,0.2c0.1,0.1,0.2,0.2,0.3,0.3c0.1,0.1,0.1,0.2,0.2,0.2c0.1,0.1,0.2,0.2,0.3,0.3
			c0.1,0.1,0.1,0.2,0.2,0.2c0.1,0.1,0.2,0.2,0.3,0.3c0.1,0.1,0.1,0.2,0.2,0.2c0.1,0.1,0.2,0.2,0.3,0.3c0.1,0.1,0.1,0.2,0.2,0.2
			c0.1,0.1,0.2,0.2,0.3,0.3c0.1,0.1,0.1,0.2,0.2,0.2c0.1,0.1,0.2,0.2,0.3,0.3c0.1,0.1,0.1,0.2,0.2,0.2c0.1,0.1,0.2,0.2,0.3,0.3
			c0.1,0.1,0.1,0.2,0.2,0.2c0.1,0.1,0.2,0.2,0.3,0.3c0.1,0.1,0.1,0.2,0.2,0.2c0.1,0.1,0.2,0.2,0.3,0.3c0.1,0.1,0.1,0.2,0.2,0.2
			c0.1,0.1,0.2,0.2,0.3,0.3c0.1,0.1,0.1,0.2,0.2,0.2c0.1,0.1,0.2,0.2,0.3,0.3c0.1,0.1,0.1,0.2,0.2,0.2c0.1,0.1,0.2,0.2,0.3,0.3
			c0.1,0.1,0.1,0.2,0.2,0.2c0.1,0.1,0.2,0.2,0.3,0.3c0.1,0.1,0.1,0.2,0.2,0.2c0.1,0.1,0.2,0.2,0.3,0.3c0.1,0.1,0.1,0.2,0.2,0.2
			c0.1,0.1,0.2,0.2,0.3,0.3c0.1,0.1,0.1,0.2,0.2,0.2c0.1,0.1,0.2,0.2,0.3,0.3c0.1,0.1,0.1,0.2,0.2,0.2c0.1,0.1,0.2,0.2,0.3,0.3
			c0.1,0.1,0.1,0.2,0.2,0.2c0.1,0.1,0.2,0.2,0.3,0.3c0.1,0.1,0.1,0.2,0.2,0.2c0.1,0.1,0.2,0.2,0.3,0.3c0.1,0.1,0.1,0.2,0.2,0.2
			c0.1,0.1,0.2,0.2,0.3,0.3c0.1,0.1,0.1,0.2,0.2,0.2c0.1,0.1,0.2,0.2,0.3,0.3c0.1,0.1,0.1,0.2,0.2,0.2c0.1,0.1,0.2,0.2,0.3,0.3
			c0.1,0.1,0.1,0.2,0.2,0.2c0.1,0.1,0.2,0.2,0.3,0.3c0.1,0.1,0.1,0.2,0.2,0.2c0.1,0.1,0.2,0.2,0.3,0.3c0.1,0.1,0.1,0.2,0.2,0.2
			c0.1,0.1,0.2,0.2,0.3,0.3c0.1,0.1,0.1,0.2,0.2,0.2c0.1,0.1,0.2,0.2,0.3,0.3c0.1,0.1,0.1,0.2,0.2,0.2c0.1,0.1,0.2,0.2,0.3,0.3
			c0.1,0.1,0.1,0.2,0.2,0.2c0.1,0.1,0.2,0.2,0.3,0.3c0.1,0.1,0.1,0.2,0.2,0.2c0.1,0.1,0.2,0.2,0.3,0.3c0.1,0.1,0.1,0.2,0.2,0.2
			c0.1,0.1,0.2,0.2,0.3,0.3c0.1,0.1,0.1,0.1,0.2,0.2c0.1,0.1,0.2,0.2,0.3,0.3c0.1,0.1,0.1,0.1,0.2,0.2c0.1,0.1,0.2,0.2,0.3,0.3
			c0.1,0.1,0.1,0.1,0.2,0.2c0.1,0.1,0.2,0.2,0.3,0.3c0.1,0.1,0.1,0.1,0.2,0.2c0.1,0.1,0.2,0.2,0.3,0.3c0.1,0.1,0.1,0.1,0.2,0.2
			c0.1,0.1,0.2,0.2,0.3,0.3c0.1,0.1,0.1,0.1,0.2,0.2c0.1,0.1,0.2,0.2,0.3,0.3c0.1,0.1,0.1,0.1,0.2,0.2c0.1,0.1,0.2,0.2,0.3,0.3
			c0.1,0.1,0.1,0.1,0.2,0.2c0.1,0.1,0.2,0.2,0.3,0.3c0.1,0.1,0.1,0.1,0.2,0.2c0.1,0.1,0.2,0.2,0.3,0.3c0.1,0.1,0.1,0.1,0.2,0.2
			c0.1,0.1,0.2,0.2,0.3,0.3c0.1,0.1,0.1,0.1,0.2,0.2c0.1,0.1,0.2,0.2,0.3,0.3c0.1,0.1,0.1,0.1,0.2,0.2c0.1,0.1,0.2,0.2,0.3,0.3
			c0.1,0.1,0.1,0.1,0.2,0.2c0.1,0.1,0.2,0.2,0.3,0.3c0.1,0.1,0.1,0.1,0.2,0.2c0.1,0.1,0.2,0.2,0.3,0.3c0.1,0.1,0.1,0.1,0.2,0.2
			c0.1,0.1,0.2,0.2,0.3,0.3c0.1,0.1,0.1,0.1,0.2,0.2c0.1,0.1,0.2,0.2,0.3,0.3c0.1,0.1,0.1,0.1,0.2,0.2c0.1,0.1,0.2,0.2,0.3,0.3
			c0.1,0.1,0.1,0.1,0.2,0.2c0.1,0.1,0.2,0.2,0.3,0.3c0.1,0.1,0.1,0.1,0.2,0.2c0.1,0.1,0.2,0.2,0.3,0.2c0.1,0.1,0.1,0.1,0.2,0.2
			c0.1,0.1,0.2,0.2,0.3,0.2c0.1,0.1,0.1,0.1,0.2,0.2c0.1,0.1,0.2,0.2,0.3,0.2c0.1,0.1,0.1,0.1,0.2,0.2c0.1,0.1,0.2,0.2,0.3,0.2
			c0.1,0.1,0.1,0.1,0.2,0.2c0.1,0.1,0.2,0.2,0.3,0.2c0.1,0.1,0.1,0.1,0.2,0.2c0.1,0.1,0.2,0.2,0.3,0.2c0.1,0.1,0.1,0.1,0.2,0.2
			c0.1,0.1,0.2,0.2,0.3,0.2c0.1,0.1,0.1,0.1,0.2,0.2c0.1,0.1,0.2,0.2,0.3,0.2c0.1,0.1,0.1,0.1,0.2,0.2c0.1,0.1,0.2,0.2,0.3,0.2
			c0.1,0.1,0.1,0.1,0.2,0.2c0.1,0.1,0.2,0.2,0.3,0.2c0.1,0.1,0.1,0.1,0.2,0.2c0.1,0.1,0.2,0.2,0.3,0.2c0.1,0.1,0.1,0.1,0.2,0.2
			c0.1,0.1,0.2,0.2,0.3,0.2c0.1,0.1,0.1,0.1,0.2,0.2c0.1,0.1,0.2,0.2,0.3,0.2c0.1,0.1,0.1,0.1,0.2,0.2c0.1,0.1,0.2,0.2,0.3,0.2
			c0.1,0.1,0.1,0.1,0.2,0.2c0.1,0.1,0.2,0.2,0.3,0.2c0.1,0.1,0.1,0.1,0.2,0.2c0.1,0.1,0.2,0.2,0.3,0.2c0.1,0.1,0.1,0.1,0.2,0.2
			c0.1,0.1,0.2,0.2,0.3,0.2c0.1,0.1,0.1,0.1,0.2,0.2c0.1,0.1,0.2,0.2,0.3,0.2c0.1,0.1,0.1,0.1,0.2,0.2c0.1,0.1,0.2,0.2,0.3,0.2
			c0.1,0.1,0.1,0.1,0.2,0.2c0.1,0.1,0.2,0.2,0.3,0.2c0.1,0.1,0.1,0.1,0.2,0.2c0.1,0.1,0.2,0.2,0.3,0.2c0.1,0.1,0.1,0.1,0.2,0.2
			c0.1,0.1,0.2,0.1,0.2,0.2c0.1,0.1,0.1,0.1,0.2,0.2c0.1,0.1,0.2,0.1,0.2,0.2c0.1,0.1,0.1,0.1,0.2,0.2c0.1,0.1,0.2,0.1,0.2,0.2
			c0.1,0.1,0.1,0.1,0.2,0.2c0.1,0.1,0.2,0.1,0.2,0.2c0.1,0.1,0.1,0.1,0.2,0.2c0.1,0.1,0.2,0.1,0.2,0.2c0.1,0.1,0.1,0.1,0.2,0.2
			c0.1,0.1,0.2,0.1,0.2,0.2c0.1,0.1,0.1,0.1,0.2,0.2c0.1,0.1,0.2,0.1,0.2,0.2c0.1,0.1,0.1,0.1,0.2,0.2c0.1,0.1,0.2,0.1,0.2,0.2
			c0.1,0.1,0.1,0.1,0.2,0.2c0.1,0.1,0.2,0.1,0.2,0.2c0.1,0.1,0.1,0.1,0.2,0.2c0.1,0.1,0.2,0.1,0.2,0.2c0.1,0.1,0.1,0.1,0.2,0.2
			c0.1,0.1,0.2,0.1,0.2,0.2c0.1,0.1,0.1,0.1,0.2,0.2c0.1,0.1,0.2,0.1,0.2,0.2c0.1,0.1,0.1,0.1,0.2,0.2c0.1,0.1,0.2,0.1,0.2,0.2
			c0.1,0.1,0.1,0.1,0.2,0.2c0.1,0.1,0.2,0.1,0.2,0.2c0.1,0.1,0.1,0.1,0.2,0.2c0.1,0.1,0.2,0.1,0.2,0.2c0.1,0.1,0.1,0.1,0.2,0.2
			c0.1,0.1,0.2,0.1,0.2,0.2c0.1,0.1,0.1,0.1,0.2,0.2c0.1,0.1,0.2,0.1,0.2,0.2c0.1,0.1,0.1,0.1,0.2,0.2c0.1,0.1,0.2,0.1,0.2,0.2
			c0.1,0.1,0.1,0.1,0.2,0.2c0.1,0.1,0.2,0.1,0.2,0.2c0.1,0.1,0.1,0.1,0.2,0.2c0.1,0.1,0.2,0.1,0.2,0.2c0.1,0.1,0.1,0.1,0.2,0.2
			c0.1,0.1,0.2,0.1,0.2,0.2c0.1,0.1,0.1,0.1,0.2,0.2c0.1,0.1,0.2,0.1,0.2,0.2c0.1,0.1,0.1,0.1,0.2,0.2c0.1,0.1,0.2,0.1,0.2,0.2
			c0.1,0.1,0.1,0.1,0.2,0.2c0.1,0.1,0.2,0.1,0.2,0.2c0.1,0.1,0.1,0.1,0.2,0.2c0.1,0.1,0.2,0.1,0.2,0.2c0.1,0.1,0.1,0.1,0.2,0.2
			c0.1,0.1,0.2,0.1,0.2,0.2c0.1,0.1,0.1,0.1,0.2,0.2c0.1,0.1,0.2,0.1,0.2,0.2c0.1,0.1,0.1,0.1,0.2,0.2c0.1,0.1,0.1,0.1,0.2,0.2
			c0.1,0.1,0.1,0.1,0.2,0.2c0.1,0.1,0.1,0.1,0.2,0.2c0.1,0.1,0.1,0.1,0.2,0.2c0.1,0.1,0.1,0.1,0.2,0.2c0.1,0.1,0.1,0.1,0.2,0.2
			c0.1,0.1,0.1,0.1,0.2,0.2c0.1,0.1,0.1,0.1,0.2,0.2c0.1,0.1,0.1,0.1,0.2,0.2c0.1,0.1,0.1,0.1,0.2,0.2c0.1,0.1,0.1,0.1,0.2,0.2
			c0.1,0.1,0.1,0.1,0.2,0.2c0.1,0.1,0.1,0.1,0.2,0.2c0.1,0.1,0.1,0.1,0.2,0.2c0.1,0.1,0.1,0.1,0.2,0.2c0.1,0.1,0.1,0.1,0.2,0.2
			c0.1,0.1,0.1,0.1,0.2,0.2c0.1,0.1,0.1,0.1,0.2,0.2c0.1,0.1,0.1,0.1,0.2,0.2c0.1,0.1,0.1,0.1,0.1,0.2c0.1,0.1,0.2,0.1,0.2,0.2
			c0,0,0.1,0.1,0.1,0.2c0.1,0.1,0.1,0.1,0.2,0.2c0.1,0.1,0.1,0.1,0.2,0.2c0.1,0.1,0.1,0.1,0.2,0.2c0.1,0.1,0.1,0.1,0.1,0.2
			c0.1,0.1,0.1,0.1,0.2,0.2c0.1,0.1,0.1,0.1,0.1,0.2c0.1,0.1,0.1,0.1,0.2,0.2c0.1,0.1,0.1,0.1,0.1,0.2c0.1,0.1,0.1,0.1,0.2,0.2
			c0.1,0.1,0.1,0.1,0.1,0.2c0.1,0.1,0.1,0.1,0.2,0.2c0.1,0.1,0.1,0.1,0.1,0.2c0.1,0.1,0.1,0.1,0.2,0.2c0,0.1,0.1,0.1,0.1,0.2
			c0.1,0.1,0.1,0.1,0.2,0.2c0,0.1,0.1,0.1,0.1,0.2c0.1,0.1,0.1,0.1,0.2,0.2c0,0,0.1,0.1,0.1,0.1c0.1,0.1,0.1,0.1,0.2,0.2
			c0.1,0.1,0.1,0.1,0.2,0.2c0.1,0.1,0.1,0.1,0.2,0.2c0,0.1,0.1,0.1,0.1,0.2c0.1,0.1,0.1,0.1,0.2,0.2c0,0.1,0.1,0.1,0.1,0.2
			c0.1,0.1,0.1,0.1,0.2,0.2c0,0.1,0.1,0.1,0.1,0.2c0.1,0.1,0.1,0.1,0.2,0.2c0,0.1,0.1,0.1,0.1,0.2c0.1,0.1,0.1,0.1,0.2,0.2
			c0,0.1,0.1,0.1,0.1,0.2c0.1,0.1,0.1,0.1,0.2,0.2c0,0,0.1,0.1,0.1,0.2c0.1,0.1,0.1,0.1,0.2,0.2c0,0,0.1,0.1,0.1,0.2
			c0.1,0.1,0.1,0.1,0.2,0.2c0,0,0.1,0.1,0.1,0.2c0.1,0.1,0.1,0.1,0.2,0.2c0,0,0.1,0.1,0.1,0.2c0.1,0.1,0.1,0.1,0.2,0.2
			c0,0,0.1,0.1,0.1,0.2c0.1,0.1,0.1,0.1,0.2,0.2c0,0,0.1,0.1,0.1,0.1c0.1,0.1,0.1,0.1,0.2,0.2c0,0,0.1,0.1,0.1,0.1
			c0.1,0.1,0.1,0.1,0.2,0.2c0,0,0.1,0.1,0.1,0.1c0.1,0.1,0.1,0.1,0.2,0.2c0,0,0.1,0.1,0.1,0.1c0.1,0.1,0.1,0.1,0.2,0.2
			c0,0,0.1,0.1,0.1,0.1c0.1,0.1,0.1,0.1,0.2,0.2c0,0,0.1,0.1,0.1,0.1c0.1,0.1,0.1,0.1,0.2,0.2c0,0,0.1,0.1,0.1,0.1
			c0.1,0.1,0.1,0.1,0.2,0.2c0,0,0.1,0.1,0.1,0.1c0.1,0.1,0.1,0.1,0.2,0.2c0,0,0.1,0.1,0.1,0.1c0.1,0.1,0.1,0.1,0.2,0.2
			c0,0,0.1,0.1,0.1,0.1c0.1,0.1,0.1,0.1,0.2,0.2c0,0,0.1,0.1,0.1,0.1c0.1,0.1,0.1,0.1,0.2,0.2c0,0,0.1,0.1,0.1,0.1
			c0.1,0.1,0.1,0.1,0.2,0.2c0,0,0.1,0.1,0.1,0.1c0.1,0.1,0.1,0.1,0.2,0.2c0,0,0.1,0.1,0.1,0.1c0.1,0.1,0.1,0.1,0.2,0.2
			c0,0,0.1,0.1,0.1,0.1c0.1,0.1,0.1,0.1,0.2,0.2c0,0,0.1,0.1,0.1,0.1c0.1,0.1,0.1,0.1,0.2,0.2c0,0,0.1,0.1,0.1,0.1
			c0.1,0.1,0.1,0.1,0.2,0.2c0,0,0.1,0.1,0.1,0.1c0.1,0.1,0.1,0.1,0.2,0.2c0,0,0.1,0.1,0.1,0.1c0.1,0.1,0.1,0.1,0.2,0.2
			c0,0,0.1,0.1,0.1,0.1c0.1,0.1,0.1,0.1,0.2,0.2c0,0,0.1,0.1,0.1,0.1c0.1,0.1,0.1,0.1,0.2,0.2c0,0,0.1,0.1,0.1,0.1
			c0.1,0.1,0.1,0.1,0.2,0.2c0,0,0.1,0.1,0.1,0.1c0.1,0.1,0.1,0.1,0.2,0.2c0,0,0.1,0.1,0.1,0.1c0.1,0.1,0.1,0.1,0.2,0.2
			c0,0,0.1,0.1,0.1,0.1c0.1,0.1,0.1,0.1,0.2,0.2c0,0,0.1,0.1,0.1,0.1c0.1,0.1,0.1,0.1,0.2,0.2c0,0,0.1,0.1,0.1,0.1
			c0.1,0.1,0.1,0.1,0.2,0.2c0,0,0.1,0.1,0.1,0.1c0.1,0.1,0.1,0.1,0.2,0.2c0,0,0.1,0.1,0.1,0.1c0.1,0.1,0.1,0.1,0.2,0.2
			c0,0,0.1,0.1,0.1,0.1c0.1,0.1,0.1,0.1,0.2,0.2c0,0,0.1,0.1,0.1,0.1c0.1,0.1,0.1,0.1,0.2,0.2c0,0,0.1,0.1,0.1,0.1
			c0.1,0.1,0.1,0.1,0.2,0.2c0,0,0.1,0.1,0.1,0.1c0.1,0.1,0.1,0.1,0.2,0.2c0,0,0.1,0.1,0.1,0.1c0.1,0.1,0.1,0.1,0.2,0.1
			c0,0,0.1,0.1,0.1,0.1c0.1,0.1,0.1,0.1,0.2,0.1c0,0,0.1,0.1,0.1,0.1c0.1,0.1,0.1,0.1,0.2,0.1c0,0,0.1,0.1,0.1,0.1
			c0.1,0.1,0.1,0.1,0.2,0.1c0,0,0.1,0.1,0.1,0.1c0.1,0.1,0.1,0.1,0.2,0.1c0,0,0.1,0.1,0.1,0.1c0.1,0.1,0.1,0.1,0.2,0.1
			c0,0,0.1,0.1,0.1,0.1c0.1,0.1,0.1,0.1,0.2,0.1c0,0,0.1,0.1,0.1,0.1c0,0.1,0.1,0.1,0.2,0.1c0,0,0.1,0.1,0.1,0.1
			c0,0.1,0.1,0.1,0.2,0.1c0,0,0.1,0.1,0.1,0.1c0,0,0.1,0.1,0.2,0.1c0,0,0.1,0.1,0.1,0.1c0,0,0.1,0.1,0.2,0.1c0,0,0.1,0.1,0.1,0.1
			c0,0,0.1,0.1,0.2,0.1c0,0,0.1,0.1,0.1,0.1c0,0,0.1,0.1,0.2,0.1c0,0,0.1,0.1,0.1,0.1c0,0,0.1,0.1,0.1,0.1c0,0,0.1,0.1,0.1,0.1
			c0,0,0.1,0.1,0.1,0.1c0,0,0.1,0.1,0.1,0.1c0,0,0.1,0.1,0.1,0.1c0,0,0.1,0.1,0.1,0.1c0,0,0.1,0.1,0.1,0.1c0,0,0.1,0.1,0.1,0.1
			c0,0,0.1,0.1,0.1,0.1c0,0,0.1,0.1,0.1,0.1c0,0,0.1,0.1,0.1,0.1c0,0,0.1,0.1,0.1,0.1c0,0,0.1,0.1,0.1,0.1c0,0,0.1,0.1,0.1,0.1
			c0,0,0.1,0.1,0.1,0.1c0,0,0.1,0.1,0.1,0.1c0,0,0.1,0.1,0.1,0.1c0,0,0.1,0.1,0.1,0.1c0,0,0.1,0.1,0.1,0.1c0,0,0.1,0.1,0.1,0.1
			c0,0,0.1,0.1,0.1,0.1c0,0,0.1,0.1,0.1,0.1c0,0,0.1,0.1,0.1,0.1c0,0,0.1,0.1,0.1,0.1c0,0,0.1,0.1,0.1,0.1c0,0,0.1,0.1,0.1,0.1
			c0,0,0.1,0.1,0.1,0.1c0,0,0.1,0.1,0.1,0.1c0,0,0.1,0.1,0.1,0.1c0,0,0.1,0.1,0.1,0.1c0,0,0.1,0.1,0.1,0.1c0,0,0.1,0.1,0.1,0.1
			c0,0,0.1,0.1,0.1,0.1c0,0,0.1,0.1,0.1,0.1c0,0,0.1,0.1,0.1,0.1c0,0,0.1,0.1,0.1,0.1c0,0,0.1,0.1,0.1,0.1c0,0,0.1,0.1,0.1,0.1
			c0,0,0.1,0.1,0.1,0.1c0,0,0.1,0.1,0.1,0.1c0,0,0.1,0.1,0.1,0.1c0,0,0.1,0.1,0.1,0.1c0,0,0.1,0.1,0.1,0.1c0,0,0.1,0.1,0.1,0.1
			c0,0,0.1,0.1,0.1,0.1c0,0,0.1,0.1,0.1,0.1c0,0,0.1,0.1,0.1,0.1c0,0,0.1,0.1,0.1,0.1c0,0,0.1,0.1,0.1,0.1c0,0,0.1,0.1,0.1,0.1
			c0,0,0.1,0.1,0.1,0.1c0,0,0.1,0.1,0.1,0.1c0,0,0.1,0.1,0.1,0.1c0,0,0.1,0.1,0.1,0.1c0,0,0.1,0.1,0.1,0.1c0,0,0.1,0.1,0.1,0.1
			c0,0,0.1,0.1,0.1,0.1c0,0,0.1,0.1,0.1,0.1c0,0,0.1,0.1,0.1,0.1c0,0,0.1,0.1,0.1,0.1c0,0,0.1,0.1,0.1,0.1c0,0,0.1,0.1,0.1,0.1
			c0,0,0.1,0.1,0.1,0.1c0,0,0.1,0.1,0.1,0.1c0,0,0.1,0.1,0.1,0.1c0,0,0.1,0.1,0.1,0.1c0,0,0.1,0.1,0.1,0.1c0,0,0.1,0.1,0.1,0.1
			c0,0,0.1,0.1,0.1,0.1c0,0,0.1,0.1,0.1,0.1c0,0,0.1,0.1,0.1,0.1c0,0,0.1,0.1,0.1,0.1c0,0,0.1,0.1,0.1,0.1c0,0,0.1,0.1,0.1,0.1
			c0,0,0.1,0.1,0.1,0.1c0,0,0.1,0.1,0.1,0.1c0,0,0.1,0.1,0.1,0.1c0,0,0.1,0.1,0.1,0.1c0,0,0.1,0.1,0.1,0.1c0,0,0,0.1,0.1,0.1
			c0,0,0.1,0.1,0.1,0.1c0,0,0,0.1,0.1,0.1c0,0,0.1,0.1,0.1,0.1c0,0,0,0.1,0.1,0.1c0,0,0.1,0.1,0.1,0.1c0,0,0,0.1,0.1,0.1
			c0,0,0.1,0.1,0.1,0.1c0,0,0,0.1,0.1,0.1c0,0,0.1,0.1,0.1,0.1c0,0,0,0.1,0.1,0.1c0,0,0.1,0.1,0.1,0.1c0,0,0,0.1,0.1,0.1
			c0,0,0.1,0.1,0.1,0.1c0,0,0,0.1,0.1,0.1c0,0,0.1,0.1,0.1,0.1c0,0,0,0.1,0.1,0.1c0,0,0.1,0.1,0.1,0.1c0,0,0,0.1,0.1,0.1
			c0,0,0.1,0.1,0.1,0.1c0,0,0,0.1,0.1,0.1c0,0,0.1,0.1,0.1,0.1c0,0,0,0.1,0.1,0.1c0,0,0.1,0.1,0.1,0.1c0,0,0,0.1,0.1,0.1
			c0,0,0.1,0.1,0.1,0.1c0,0,0,0.1,0.1,0.1c0,0,0.1,0.1,0.1,0.1c0,0,0,0.1,0.1,0.1c0,0,0.1,0.1,0.1,0.1c0,0,0,0.1,0.1,0.1
			c0,0,0.1,0.1,0.1,0.1c0,0,0,0.1,0.1,0.1c0,0,0.1,0.1,0.1,0.1c0,0,0,0,0.1,0.1c0,0,0.1,0.1,0.1,0.1c0,0,0,0,0.1,0.1
			c0,0,0.1,0.1,0.1,0.1c0,0,0,0,0.1,0.1c0,0,0.1,0.1,0.1,0.1c0,0,0,0,0.1,0.1c0,0,0.1,0.1,0.1,0.1c0,0,0,0,0.1,0.1
			c0,0,0.1,0.1,0.1,0.1c0,0,0,0,0.1,0.1c0,0,0.1,0.1,0.1,0.1c0,0,0,0,0.1,0.1c0,0,0.1,0.1,0.1,0.1c0,0,0,0,0.1,0.1
			c0,0,0.1,0.1,0.1,0.1c0,0,0,0,0.1,0.1c0,0,0.1,0.1,0.1,0.1c0,0,0,0,0.1,0.1c0,0,0.1,0.1,0.1,0.1c0,0,0,0,0.1,0.1
			c0,0,0.1,0,0.1,0.1c0,0,0,0,0.1,0.1c0,0,0.1,0,0.1,0.1c0,0,0,0,0.1,0.1c0,0,0.1,0,0.1,0.1c0,0,0,0,0.1,0.1c0,0,0.1,0,0.1,0.1
			c0,0,0,0,0.1,0.1c0,0,0.1,0,0.1,0.1c0,0,0,0,0.1,0.1c0,0,0.1,0,0.1,0.1c0,0,0,0,0.1,0.1c0,0,0.1,0,0.1,0.1c0,0,0,0,0.1,0.1
			c0,0,0.1,0,0.1,0.1c0,0,0,0,0.1,0.1c0,0,0.1,0,0.1,0.1c0,0,0,0,0.1,0.1c0,0,0.1,0,0.1,0.1c0,0,0,0,0.1,0.1c0,0,0.1,0,0.1,0.1
			c0,0,0,0,0.1,0.1c0,0,0.1,0,0.1,0.1c0,0,0,0,0.1,0.1c0,0,0,0,0.1,0.1c0,0,0,0,0,0.1c0,0,0,0,0.1,0.1c0,0,0,0,0,0.1
			c0,0,0,0,0.1,0.1c0,0,0,0,0,0.1c0,0,0,0,0.1,0.1c0,0,0,0,0,0.1c0,0,0,0,0.1,0.1c0,0,0,0,0,0.1c0,0,0,0,0.1,0.1c0,0,0,0,0,0.1
			c0,0,0,0,0.1,0.1c0,0,0,0,0,0.1c0,0,0,0,0.1,0.1c0,0,0,0,0,0.1c0,0,0,0,0.1,0.1c0,0,0,0,0,0c0,0,0,0,0.1,0.1c0,0,0,0,0,0
			c0,0,0,0,0.1,0.1c0,0,0,0,0,0c0,0,0,0,0.1,0.1c0,0,0,0,0,0c0,0,0,0,0.1,0.1c0,0,0,0,0,0c0,0,0,0,0.1,0.1c0,0,0,0,0,0
			c0,0,0,0,0.1,0.1c0,0,0,0,0,0c0,0,0,0,0.1,0.1c0,0,0,0,0,0c0,0,0,0,0.1,0.1c0,0,0,0,0,0c0,0,0,0,0.1,0.1c0,0,0,0,0,0
			c0,0,0,0,0.1,0.1c0,0,0,0,0,0c0,0,0,0,0.1,0.1c0,0,0,0,0,0c0,0,0,0,0.1,0c0,0,0,0,0,0c0,0,0,0,0.1,0c0,0,0,0,0,0c0,0,0,0,0.1,0
			c0,0,0,0,0,0c0,0,0,0,0,0c0,0,0,0,0,0c0,0,0,0,0,0c0,0,0,0,0,0c0,0,0,0,0,0c0,0,0,0,0,0c0,0,0,0,0,0c0,0,0,0,0,0c0,0,0,0,0,0
			c0,0,0,0,0,0c0,0,0,0,0,0c0,0,0,0,0,0c0,0,0,0,0,0c0,0,0,0,0,0c0,0,0,0,0,0c0,0,0,0,0,0c0,0,0,0,0,0c0,0,0,0,0,0c0,0,0,0,0,0
			c0,0,0,0,0,0c0,0,0,0,0,0c0,0,0,0,0,0c0,0,0,0,0,0c0,0,0,0,0,0c0,0,0,0,0,0c0,0,0,0,0,0c0,0,0,0,0,0c0,0,0,0,0,0c0,0,0,0,0,0
			c0,0,0,0,0,0c0,0,0,0,0,0c0,0,0,0,0,0c0,0,0,0,0,0c0,0,0,0,0,0c0,0,0,0,0,0c0,0,0,0,0,0c0,0,0,0,0,0c0,0,0,0,0,0c0,0,0,0,0,0
			c0,0,0,0,0,0c0,0,0,0,0,0c0,0,0,0,0,0c0,0,0,0,0,0c0,0,0,0,0,0c0,0,0,0,0,0c0,0,0,0,0,0c0,0,0,0,0,0c0,0,0,0,0,0c0,0,0,0,0,0
			c0,0,0,0,0,0c0,0,0,0,0,0c0,0,0,0,0,0c0,0,0,0,0,0c0,0,0,0,0,0c0,0,0,0,0,0c0,0,0,0,0,0c0,0,0,0,0,0c0,0,0,0,0,0c0,0,0,0,0,0
			c0,0,0,0,0,0c0,0,0,0,0,0c0,0,0,0,0,0c0,0,0,0,0,0c0,0,0,0,0,0c0,0,0,0,0,0c0,0,0,0,0,0c0,0,0,0,0,0c0,0,0,0,0,0c0,0,0,0,0,0
			c0,0,0,0,0,0c0,0,0,0,0,0c0,0,0,0,0,0c0,0,0,0,0,0c0,0,0,0,0,0c0,0,0,0,0,0c0,0,0,0,0,0c0,0,0,0,0,0c0,0,0,0,0,0c0,0,0,0,0,0
			c0,0,0,0,0,0c0,0,0,0,0,0c0,0,0,0,0,0c0,0,0,0,0,0c0,0,0,0,0,0c0,0,0,0,0,0c0,0,0,0,0,0c0,0,0,0,0,0c0,0,0,0,0,0c0,0,0,0,0,0
			c0,0,0,0,0,0c0,0,0,0,0,0c0,0,0,0,0,0c0,0,0,0,0,0c0,0,0,0,0,0c0,0,0,0,0,0c0,0,0,0,0,0c0,0,0,0,0,0l0,0c0,0,0,0,0,0l0,0l0,0l0,0
			c0,0,0,0,0,0c0,0,0,0,0,0c0.1,0.1,0.2,0.2,0.3,0.3c0,0,0.1,0,0.1,0.1c0.3,0.3,0.6,0.6,0.9,0.9l0,0c0.4,0.4,0.9,0.7,1.4,1
			c0,0,0,0,0,0c0,0,0,0,0,0c0,0,0.1,0.1,0.1,0.1c0.9,0.6,1.9,1.1,2.9,1.5c0,0,0,0,0,0c0.5,0.2,1.1,0.4,1.6,0.6
			c1.6,0.5,3.4,0.7,5.2,0.7c3.2,0,6.3-0.8,9.1-2.5l60.6,24.3c0,0,0,0,0.1,0.1c0.1,0.1,0.1,0.1,0.2,0.2c0.1,0.1,0.1,0.1,0.2,0.2
			c0.1,0.1,0.1,0.1,0.2,0.2c0.1,0.1,0.1,0.1,0.2,0.2c0.1,0.1,0.1,0.1,0.2,0.2c0.1,0.1,0.1,0.1,0.2,0.2c0.1,0.1,0.1,0.1,0.2,0.2
			c0.1,0.1,0.1,0.1,0.2,0.2c0.1,0.1,0.1,0.1,0.2,0.2c0.1,0.1,0.1,0.1,0.2,0.2c0.1,0.1,0.1,0.1,0.2,0.2c0.1,0.1,0.1,0.1,0.2,0.2
			c0.1,0.1,0.1,0.1,0.2,0.2c0.1,0.1,0.1,0.1,0.2,0.2c0.1,0.1,0.1,0.1,0.2,0.2c0.1,0.1,0.1,0.1,0.2,0.2c0.1,0.1,0.1,0.1,0.2,0.2
			c0.1,0.1,0.1,0.1,0.2,0.2c0.1,0.1,0.1,0.1,0.2,0.2c0.1,0.1,0.1,0.1,0.2,0.2c0.1,0.1,0.1,0.1,0.2,0.2c0.1,0.1,0.1,0.1,0.2,0.2
			c0.1,0.1,0.1,0.1,0.2,0.2c0.1,0.1,0.1,0.1,0.2,0.2c0.1,0.1,0.1,0.1,0.2,0.2c0.1,0.1,0.1,0.1,0.2,0.2c0.1,0.1,0.1,0.1,0.2,0.2
			c0.1,0,0.1,0.1,0.2,0.2c0,0,0.1,0.1,0.1,0.1c0,0,0.1,0.1,0.1,0.1c0,0,0.1,0.1,0.1,0.1c0,0,0.1,0.1,0.1,0.1c0,0,0.1,0.1,0.1,0.1
			c0,0,0.1,0.1,0.1,0.1c0,0,0.1,0.1,0.1,0.1c0,0,0.1,0.1,0.1,0.1c0,0,0.1,0.1,0.1,0.1c0,0,0.1,0.1,0.1,0.1c0,0,0.1,0.1,0.1,0.1
			c0,0,0.1,0.1,0.1,0.1c0,0,0.1,0.1,0.1,0.1c0,0,0.1,0.1,0.1,0.1c0,0,0.1,0.1,0.1,0.1c0,0,0.1,0.1,0.1,0.1c0,0,0.1,0.1,0.1,0.1
			c0,0,0.1,0.1,0.1,0.1c0,0,0.1,0.1,0.1,0.1c0,0,0.1,0.1,0.1,0.1c0,0,0.1,0.1,0.1,0.1c0,0,0.1,0.1,0.1,0.1c0,0,0.1,0.1,0.1,0.1
			c0,0,0.1,0.1,0.1,0.1c0,0,0.1,0.1,0.1,0.1c0,0,0.1,0.1,0.1,0.1c0,0,0.1,0.1,0.1,0.1c0,0,0.1,0.1,0.1,0.1c0,0,0.1,0.1,0.1,0.1
			c0,0,0.1,0.1,0.1,0.1c0,0,0.1,0.1,0.1,0.1c0,0,0.1,0.1,0.1,0.1c0,0,0.1,0.1,0.1,0.1c0,0,0.1,0.1,0.1,0.1c0,0,0.1,0.1,0.1,0.1
			c0,0,0.1,0.1,0.1,0.1c0,0,0.1,0.1,0.1,0.1c0,0,0.1,0.1,0.1,0.1c0,0,0.1,0.1,0.1,0.1c0,0,0.1,0.1,0.1,0.1c0,0,0.1,0.1,0.1,0.1
			c0,0,0.1,0.1,0.1,0.1c0,0,0.1,0.1,0.1,0.1c0,0,0.1,0.1,0.1,0.1c0,0,0,0.1,0.1,0.1c0,0,0.1,0.1,0.1,0.1c0,0,0,0,0.1,0.1
			c0,0,0,0,0.1,0.1c0,0,0,0,0.1,0.1c0,0,0,0,0.1,0.1c0,0,0,0,0.1,0.1c0,0,0,0,0.1,0.1c0,0,0,0,0.1,0.1c0,0,0,0,0.1,0.1
			c0,0,0,0,0.1,0.1c0,0,0,0,0.1,0.1c0,0,0,0,0.1,0.1c0,0,0,0,0.1,0.1c0,0,0,0,0.1,0.1c0,0,0,0,0.1,0.1c0,0,0,0,0.1,0.1c0,0,0,0,0,0
			c0,0,0,0,0,0c0,0,0,0,0,0c0,0,0,0,0,0c0,0,0,0,0,0c0,0,0,0,0,0c0,0,0,0,0,0c0,0,0,0,0,0c0,0,0,0,0,0c0,0,0,0,0,0c0,0,0,0,0,0
			c0,0,0,0,0,0c0,0,0,0,0,0c0,0,0,0,0,0c0,0,0,0,0,0c0,0,0,0,0,0c0,0,0,0,0,0c0,0,0,0,0,0c0,0,0,0,0,0c0,0,0,0,0,0c0,0,0,0,0,0
			c0,0,0,0,0,0c0,0,0,0,0,0c0,0,0,0,0,0c0,0,0,0,0,0c0,0,0,0,0,0c0,0,0,0,0,0c0,0,0,0,0,0c0,0,0,0,0,0l0,0c0,0,0,0,0,0l0,0
			c0,0,0,0,0,0c0.4,0.4,0.7,0.7,1.1,1c0,0,0,0,0,0c0,0,0,0,0,0c0,0,0,0,0,0c0.4,0.3,0.7,0.6,1.1,0.8c0,0,0.1,0.1,0.1,0.1
			c0,0,0,0,0,0c0,0,0,0,0,0c0.4,0.3,0.8,0.6,1.3,0.8c0,0,0,0,0,0c0,0,0,0,0,0c0,0,0,0,0,0c0,0,0,0,0,0c0.9,0.5,1.8,0.9,2.7,1.2
			c1.9,0.7,3.9,1,6,1c4.6,0,8.5-1.5,11.9-4.6c3.4-3.1,5.3-6.9,5.8-11.5l22.8-16.6c6.6,0,12.2-2.3,16.9-7c4.6-4.6,7-10.3,7-16.9
			c0-2.9-0.4-5.6-1.3-8.1c-0.1-0.4-0.3-0.7-0.4-1.1c0,0,0,0,0,0c-0.1-0.4-0.3-0.7-0.5-1c0,0,0,0,0,0c-0.2-0.3-0.3-0.7-0.5-1
			c0,0,0,0,0,0c-0.4-0.7-0.8-1.3-1.2-2c0,0,0,0,0,0c-0.2-0.3-0.4-0.6-0.7-0.9c0,0,0,0,0,0c-0.5-0.6-1-1.2-1.5-1.8c0,0,0,0,0,0
			c0,0,0,0,0,0c-0.1-0.2-0.3-0.3-0.5-0.5c-0.1-0.1-0.1-0.1-0.2-0.2c0,0,0,0,0,0c0,0,0,0,0,0c0,0,0,0,0,0c0,0,0,0,0,0
			c0,0,0-0.1-0.1-0.1c0,0,0,0,0,0c0,0,0,0,0,0c0,0,0,0,0,0l0,0l0,0l0,0c0,0,0,0,0,0c0,0,0,0,0,0v0c0,0,0,0,0,0c0,0,0,0,0,0
			c0,0,0,0,0,0c0,0,0,0,0,0c0,0,0,0,0,0c0,0,0,0,0,0c0,0,0,0,0,0c0,0,0,0,0,0c0,0,0,0,0,0c0,0,0,0,0,0c0,0,0,0,0,0c0,0,0,0,0,0
			c0,0,0,0,0,0c0,0,0,0,0,0c0,0,0,0,0,0c0,0,0,0,0,0c0,0,0,0,0,0c0,0,0,0,0,0c0,0,0,0,0,0s0,0,0,0c0,0,0,0,0,0c0,0,0,0,0,0
			c0,0,0,0,0,0c0,0,0,0,0,0c0,0,0,0,0,0c0,0,0,0,0,0c0,0,0,0,0,0c0,0,0,0,0,0c0,0,0,0,0,0c0,0,0,0,0,0c0,0,0,0,0,0c0,0,0,0,0,0
			c0,0,0,0,0,0c0,0,0,0,0,0c0,0,0,0,0,0c0,0,0,0,0,0c0,0,0,0,0,0c0,0,0,0,0,0c0,0,0,0,0,0c0,0,0,0,0,0c0,0,0,0,0,0c0,0,0,0,0,0
			c0,0,0,0,0,0c0,0,0,0,0,0c0,0,0,0,0,0c0,0,0,0,0,0c0,0,0,0,0,0c0,0,0,0,0,0c0,0,0,0,0,0c0,0,0,0,0,0c0,0,0,0,0,0c0,0,0,0,0,0
			c0,0,0,0,0,0c0,0,0,0,0,0c0,0,0,0,0,0c0,0,0,0,0,0c0,0,0,0,0,0c0,0,0,0,0,0c0,0,0,0,0,0c0,0,0,0,0,0c0,0,0,0,0,0c0,0,0,0,0,0
			c0,0,0,0,0,0c0,0,0,0,0,0c0,0,0,0,0,0c0,0,0,0,0,0c0,0,0,0,0,0s0,0,0,0c0,0,0,0,0,0c0,0,0,0,0,0c0,0,0,0,0,0c0,0,0,0,0,0
			c0,0,0,0,0,0c0,0,0,0,0,0c0,0,0,0,0,0c0,0,0,0,0,0c0,0,0,0,0,0s0,0,0,0c0,0,0,0,0,0c0,0,0,0,0,0c0,0,0,0,0,0c0,0,0,0,0,0
			c0,0,0,0,0,0c0,0,0,0,0,0c0,0,0,0,0,0c0,0,0,0,0,0c0,0,0,0,0,0c0,0,0,0-0.1,0c0,0,0,0,0,0c0,0,0,0,0,0c0,0,0,0,0-0.1
			c0,0,0,0-0.1,0c0,0,0,0,0-0.1c0,0,0,0-0.1,0c0,0,0,0,0-0.1c0,0,0,0-0.1-0.1c0,0,0,0-0.1-0.1c0,0,0,0-0.1-0.1c0,0,0,0-0.1-0.1
			c0,0,0,0-0.1-0.1c0,0,0,0-0.1-0.1c0,0,0,0-0.1-0.1c0,0,0,0-0.1-0.1c0,0,0,0-0.1-0.1c0,0,0,0-0.1-0.1c0,0,0,0-0.1-0.1
			c0,0,0,0-0.1-0.1c0,0,0,0-0.1-0.1c0,0,0,0-0.1-0.1c0,0,0,0-0.1-0.1c0,0,0,0-0.1-0.1c0,0,0,0-0.1-0.1c0,0,0,0-0.1-0.1
			c0,0,0,0-0.1-0.1c0,0,0,0-0.1-0.1c0,0,0,0-0.1-0.1c0,0,0,0-0.1-0.1c0,0,0,0-0.1-0.1c0,0,0,0-0.1-0.1c0,0,0,0-0.1-0.1
			c0,0,0,0-0.1-0.1c0,0,0,0-0.1-0.1c0,0,0,0-0.1-0.1c0,0,0,0-0.1-0.1c0,0,0,0-0.1-0.1c0,0,0,0-0.1-0.1c0,0,0,0-0.1-0.1
			c0,0,0,0-0.1-0.1c0,0,0,0-0.1-0.1c0,0,0,0-0.1-0.1c0,0,0,0-0.1-0.1c0,0,0,0-0.1-0.1c0,0,0,0-0.1-0.1c0,0,0,0-0.1-0.1
			c0,0,0,0-0.1-0.1c0,0,0,0-0.1-0.1c0,0,0,0-0.1-0.1c0,0,0,0-0.1-0.1c0,0,0,0-0.1-0.1c0,0,0,0-0.1-0.1c0,0,0,0-0.1-0.1
			c0,0,0,0-0.1-0.1c0,0,0,0-0.1-0.1s0,0-0.1-0.1c0,0,0,0-0.1-0.1c0,0,0,0-0.1-0.1c0,0,0,0-0.1-0.1c0,0,0,0-0.1-0.1c0,0,0,0-0.1-0.1
			c0,0,0,0-0.1-0.1c0,0,0,0-0.1-0.1c0,0-0.1,0-0.1-0.1c0,0,0-0.1-0.1-0.1c0,0,0,0-0.1-0.1c0,0-0.1-0.1-0.1-0.1c0,0-0.1,0-0.1-0.1
			c0,0,0-0.1-0.1-0.1c0,0-0.1-0.1-0.1-0.1c0,0-0.1-0.1-0.1-0.1c0,0-0.1-0.1-0.1-0.1c0,0,0-0.1-0.1-0.1c0,0-0.1-0.1-0.1-0.1
			c0,0,0-0.1-0.1-0.1c0,0-0.1-0.1-0.1-0.1c0,0-0.1-0.1-0.1-0.1c0,0-0.1-0.1-0.1-0.1c0,0-0.1-0.1-0.1-0.1c0,0-0.1-0.1-0.1-0.1
			c0,0-0.1-0.1-0.1-0.1c0,0-0.1-0.1-0.1-0.1c0,0-0.1-0.1-0.1-0.1c0,0-0.1-0.1-0.1-0.1c0,0-0.1-0.1-0.1-0.1c0,0-0.1-0.1-0.1-0.1
			c0,0-0.1-0.1-0.1-0.1c0,0-0.1-0.1-0.1-0.1c0,0-0.1-0.1-0.1-0.1c0,0-0.1-0.1-0.1-0.1c0,0-0.1-0.1-0.1-0.1c0,0-0.1-0.1-0.1-0.1
			c0,0-0.1-0.1-0.1-0.1c0,0-0.1-0.1-0.1-0.1c0,0-0.1-0.1-0.1-0.1c0,0-0.1-0.1-0.1-0.1c0,0-0.1-0.1-0.1-0.1c0,0-0.1-0.1-0.1-0.1
			c0,0-0.1-0.1-0.1-0.1c0,0-0.1-0.1-0.1-0.1c0,0-0.1-0.1-0.1-0.1c0,0-0.1-0.1-0.1-0.1c0,0-0.1-0.1-0.1-0.1c0,0-0.1-0.1-0.1-0.1
			c0,0-0.1-0.1-0.1-0.1c0,0-0.1-0.1-0.1-0.1c0,0-0.1-0.1-0.1-0.1c0,0-0.1-0.1-0.1-0.1c0,0-0.1-0.1-0.1-0.1c0,0-0.1-0.1-0.1-0.1
			c0,0-0.1-0.1-0.1-0.1c0,0-0.1-0.1-0.1-0.1c0,0-0.1-0.1-0.1-0.1c0,0-0.1-0.1-0.1-0.1c0,0-0.1-0.1-0.1-0.1c0,0-0.1-0.1-0.1-0.1
			c0,0-0.1-0.1-0.1-0.1c0,0-0.1-0.1-0.1-0.1c0,0-0.1-0.1-0.1-0.1c0,0-0.1-0.1-0.1-0.1c0,0-0.1-0.1-0.1-0.1c0,0-0.1-0.1-0.1-0.1
			c0,0-0.1-0.1-0.1-0.1c0,0-0.1-0.1-0.1-0.1c0,0-0.1-0.1-0.1-0.1c0,0-0.1-0.1-0.1-0.1c0,0-0.1-0.1-0.1-0.1c0,0-0.1-0.1-0.1-0.1
			c0,0-0.1-0.1-0.1-0.1c0,0-0.1-0.1-0.1-0.1c0,0-0.1-0.1-0.1-0.1c0,0-0.1-0.1-0.1-0.1c0,0-0.1-0.1-0.1-0.1c0,0-0.1-0.1-0.1-0.1
			c0,0-0.1-0.1-0.1-0.1c0,0-0.1-0.1-0.1-0.1c0,0-0.1-0.1-0.1-0.1c0,0-0.1-0.1-0.1-0.1c0,0-0.1-0.1-0.1-0.1c0,0-0.1-0.1-0.1-0.1
			c0,0-0.1-0.1-0.1-0.1c0,0-0.1-0.1-0.1-0.1c0,0-0.1-0.1-0.1-0.1c0,0-0.1-0.1-0.1-0.1c0,0-0.1-0.1-0.1-0.1c0,0-0.1-0.1-0.1-0.1
			c0,0-0.1-0.1-0.1-0.1c0,0-0.1-0.1-0.1-0.1c0,0-0.1-0.1-0.1-0.1c0,0-0.1-0.1-0.1-0.1c0,0-0.1-0.1-0.1-0.1c0,0-0.1-0.1-0.1-0.1
			c0,0-0.1-0.1-0.1-0.1c0,0-0.1-0.1-0.1-0.1c0,0-0.1-0.1-0.1-0.1c0,0-0.1-0.1-0.1-0.1c0,0-0.1-0.1-0.1-0.1c0,0-0.1-0.1-0.1-0.1
			c0,0-0.1-0.1-0.1-0.1c0,0-0.1-0.1-0.1-0.1c0,0-0.1-0.1-0.1-0.1c0,0-0.1-0.1-0.1-0.1c0,0-0.1-0.1-0.1-0.1c0,0-0.1-0.1-0.1-0.1
			c0,0-0.1-0.1-0.1-0.1c0,0-0.1-0.1-0.1-0.1c0,0-0.1-0.1-0.1-0.1c0,0-0.1-0.1-0.1-0.1c0,0-0.1-0.1-0.1-0.1c0,0-0.1-0.1-0.1-0.1
			c0,0-0.1-0.1-0.1-0.1c0,0-0.1-0.1-0.1-0.1c0,0-0.1-0.1-0.1-0.1c0,0-0.1-0.1-0.1-0.1c0,0-0.1-0.1-0.1-0.1c0,0-0.1-0.1-0.1-0.1
			c0,0-0.1-0.1-0.1-0.1c0,0-0.1-0.1-0.1-0.1c0,0-0.1-0.1-0.1-0.1c0,0-0.1-0.1-0.1-0.1c0,0-0.1-0.1-0.1-0.1c0,0-0.1-0.1-0.1-0.1
			c0,0-0.1-0.1-0.1-0.1c0,0-0.1-0.1-0.1-0.1c0,0-0.1-0.1-0.1-0.1c0,0-0.1-0.1-0.1-0.1c0,0-0.1-0.1-0.1-0.1c0,0-0.1-0.1-0.1-0.1
			c0,0-0.1-0.1-0.1-0.1c0,0-0.1-0.1-0.1-0.1c0,0-0.1-0.1-0.1-0.1c0,0-0.1-0.1-0.1-0.1c0,0-0.1-0.1-0.1-0.1c0,0-0.1-0.1-0.1-0.1
			c0,0-0.1-0.1-0.1-0.1c0,0-0.1-0.1-0.1-0.1c0,0-0.1-0.1-0.1-0.1c0,0-0.1-0.1-0.1-0.1c0,0-0.1-0.1-0.1-0.1c0,0-0.1-0.1-0.1-0.1
			c0,0-0.1-0.1-0.1-0.1c0,0-0.1-0.1-0.1-0.1c0,0-0.1-0.1-0.1-0.1c0,0-0.1-0.1-0.1-0.1c0,0-0.1-0.1-0.1-0.1c0,0-0.1-0.1-0.1-0.1
			c0,0-0.1-0.1-0.1-0.1c0,0-0.1-0.1-0.1-0.1c0,0-0.1-0.1-0.1-0.1c0,0-0.1-0.1-0.1-0.1c0,0-0.1-0.1-0.1-0.1c0,0-0.1-0.1-0.1-0.1
			c0,0-0.1-0.1-0.1-0.1c0,0-0.1-0.1-0.1-0.1c0,0-0.1-0.1-0.1-0.1c0,0-0.1-0.1-0.1-0.1c0,0-0.1-0.1-0.1-0.1c0,0-0.1-0.1-0.1-0.1
			c0,0-0.1-0.1-0.1-0.1c0,0-0.1-0.1-0.1-0.1c0,0-0.1-0.1-0.1-0.1c0,0-0.1-0.1-0.1-0.1c0,0-0.1-0.1-0.1-0.1c0,0-0.1-0.1-0.1-0.1
			c0,0-0.1-0.1-0.1-0.1c0,0-0.1-0.1-0.1-0.1c0,0-0.1-0.1-0.1-0.1c0,0-0.1-0.1-0.1-0.1c0,0-0.1-0.1-0.1-0.1c0,0-0.1-0.1-0.1-0.1
			c0,0-0.1-0.1-0.1-0.1c0,0-0.1-0.1-0.1-0.1c0,0-0.1-0.1-0.1-0.1c0,0-0.1-0.1-0.1-0.1c0,0-0.1-0.1-0.1-0.1c0,0-0.1-0.1-0.1-0.1
			c0,0-0.1-0.1-0.1-0.1c0,0-0.1-0.1-0.1-0.1c0,0-0.1-0.1-0.1-0.1c-0.1-0.1-0.1-0.1-0.2-0.1c0,0-0.1-0.1-0.1-0.1c0,0-0.1-0.1-0.2-0.1
			c0,0-0.1-0.1-0.1-0.2c0,0-0.1-0.1-0.2-0.1c0,0-0.1-0.1-0.1-0.2c0,0-0.1-0.1-0.2-0.1c0,0-0.1-0.1-0.1-0.2c-0.1-0.1-0.1-0.1-0.2-0.1
			c0-0.1-0.1-0.1-0.1-0.2c0,0-0.1-0.1-0.1-0.1c-0.1-0.1-0.1-0.1-0.2-0.2c-0.1-0.1-0.1-0.1-0.2-0.1c-0.1-0.1-0.1-0.1-0.1-0.2
			c-0.1-0.1-0.1-0.1-0.2-0.1c-0.1-0.1-0.1-0.1-0.1-0.2c0,0-0.1-0.1-0.2-0.1c-0.1-0.1-0.1-0.1-0.2-0.2c-0.1-0.1-0.1-0.1-0.2-0.2
			c-0.1-0.1-0.1-0.1-0.2-0.2c-0.1-0.1-0.1-0.1-0.2-0.2c-0.1-0.1-0.1-0.1-0.2-0.2c-0.1-0.1-0.1-0.1-0.2-0.2c-0.1-0.1-0.1-0.1-0.2-0.2
			c-0.1-0.1-0.1-0.1-0.2-0.2c-0.1-0.1-0.1-0.1-0.2-0.2c-0.1-0.1-0.1-0.1-0.2-0.2c-0.1-0.1-0.1-0.1-0.2-0.2c-0.1-0.1-0.1-0.1-0.2-0.2
			c-0.1-0.1-0.1-0.1-0.2-0.2c-0.1-0.1-0.1-0.1-0.2-0.2c-0.1-0.1-0.1-0.1-0.2-0.2c-0.1-0.1-0.1-0.1-0.2-0.2c-0.1-0.1-0.1-0.1-0.2-0.2
			c-0.1-0.1-0.1-0.1-0.2-0.2c-0.1-0.1-0.1-0.1-0.2-0.2c-0.1-0.1-0.1-0.1-0.2-0.2c-0.1-0.1-0.1-0.1-0.2-0.2c-0.1-0.1-0.1-0.1-0.2-0.2
			c-0.1-0.1-0.1-0.1-0.2-0.2c-0.1-0.1-0.1-0.1-0.2-0.2c-0.1-0.1-0.1-0.1-0.2-0.2c-0.1-0.1-0.1-0.1-0.2-0.2c-0.1-0.1-0.1-0.1-0.2-0.2
			c-0.1-0.1-0.1-0.1-0.2-0.2c-0.1-0.1-0.1-0.1-0.2-0.2c-0.1-0.1-0.1-0.1-0.2-0.2c-0.1-0.1-0.1-0.1-0.2-0.2c-0.1-0.1-0.1-0.1-0.2-0.2
			c-0.1-0.1-0.1-0.1-0.2-0.2c-0.1-0.1-0.1-0.1-0.2-0.2c-0.1-0.1-0.1-0.1-0.2-0.2c-0.1-0.1-0.1-0.1-0.2-0.2c-0.1-0.1-0.1-0.1-0.2-0.2
			c-0.1-0.1-0.1-0.1-0.2-0.2c-0.1-0.1-0.1-0.1-0.2-0.2c-0.1-0.1-0.1-0.1-0.2-0.2c-0.1-0.1-0.1-0.1-0.2-0.2c-0.1-0.1-0.1-0.1-0.2-0.2
			c-0.1-0.1-0.1-0.1-0.2-0.2c-0.1-0.1-0.1-0.1-0.2-0.2c-0.1-0.1-0.1-0.1-0.2-0.2c-0.1-0.1-0.1-0.1-0.2-0.2c-0.1-0.1-0.1-0.1-0.2-0.2
			c-0.1-0.1-0.1-0.1-0.2-0.2c-0.1-0.1-0.1-0.1-0.2-0.2c-0.1-0.1-0.1-0.1-0.2-0.2c-0.1-0.1-0.1-0.1-0.2-0.2c-0.1-0.1-0.1-0.1-0.2-0.2
			c-0.1-0.1-0.1-0.1-0.2-0.2c-0.1-0.1-0.1-0.1-0.2-0.2c-0.1-0.1-0.1-0.1-0.2-0.2c-0.1-0.1-0.1-0.1-0.2-0.2c-0.1-0.1-0.1-0.1-0.2-0.2
			c-0.1-0.1-0.1-0.1-0.2-0.2c-0.1-0.1-0.1-0.1-0.2-0.2c-0.1-0.1-0.1-0.1-0.2-0.2c-0.1-0.1-0.1-0.1-0.2-0.2c-0.1-0.1-0.1-0.1-0.2-0.2
			c-0.1-0.1-0.1-0.1-0.2-0.2c-0.1-0.1-0.1-0.1-0.2-0.2c-0.1-0.1-0.1-0.1-0.2-0.2c-0.1-0.1-0.1-0.1-0.2-0.2c-0.1-0.1-0.1-0.1-0.2-0.2
			c-0.1-0.1-0.1-0.1-0.2-0.2c-0.1-0.1-0.1-0.1-0.2-0.2c-0.1-0.1-0.1-0.1-0.2-0.2c-0.1-0.1-0.1-0.1-0.2-0.2c-0.1-0.1-0.1-0.1-0.2-0.2
			c-0.1-0.1-0.1-0.1-0.2-0.2c-0.1-0.1-0.1-0.1-0.2-0.2c-0.1-0.1-0.1-0.1-0.2-0.2s-0.1-0.1-0.2-0.2c-0.1-0.1-0.1-0.1-0.2-0.2
			c-0.1-0.1-0.1-0.1-0.2-0.2c-0.1-0.1-0.1-0.1-0.2-0.2c-0.1-0.1-0.1-0.1-0.2-0.2c-0.1-0.1-0.1-0.1-0.2-0.2c-0.1-0.1-0.1-0.1-0.2-0.2
			c-0.1-0.1-0.1-0.1-0.2-0.2c-0.1-0.1-0.1-0.1-0.2-0.2c-0.1-0.1-0.1-0.1-0.2-0.2c-0.1-0.1-0.1-0.1-0.2-0.2c-0.1-0.1-0.1-0.1-0.2-0.2
			c-0.1-0.1-0.1-0.1-0.2-0.2c-0.1-0.1-0.1-0.1-0.2-0.2c-0.1-0.1-0.1-0.1-0.2-0.2c-0.1-0.1-0.1-0.1-0.2-0.2c-0.1-0.1-0.1-0.1-0.2-0.2
			c-0.1-0.1-0.1-0.1-0.2-0.2c-0.1-0.1-0.1-0.1-0.2-0.2c-0.1-0.1-0.1-0.1-0.2-0.2c-0.1-0.1-0.1-0.1-0.2-0.2c-0.1-0.1-0.1-0.1-0.2-0.2
			c-0.1-0.1-0.1-0.1-0.2-0.2c-0.1-0.1-0.1-0.1-0.2-0.2s-0.1-0.1-0.2-0.2c-0.1-0.1-0.1-0.1-0.2-0.2c-0.1-0.1-0.1-0.1-0.2-0.2
			c-0.1-0.1-0.1-0.1-0.2-0.2c-0.1-0.1-0.1-0.1-0.2-0.2c-0.1-0.1-0.1-0.1-0.2-0.2c-0.1-0.1-0.1-0.1-0.2-0.2c-0.1-0.1-0.1-0.1-0.2-0.2
			c-0.1-0.1-0.1-0.1-0.2-0.2c-0.1-0.1-0.1-0.1-0.2-0.2c-0.1-0.1-0.1-0.1-0.2-0.2c-0.1-0.1-0.1-0.1-0.2-0.2c-0.1-0.1-0.1-0.1-0.2-0.2
			c-0.1-0.1-0.1-0.1-0.2-0.2c-0.1-0.1-0.1-0.1-0.2-0.2c-0.1-0.1-0.1-0.1-0.2-0.2c-0.1-0.1-0.1-0.1-0.2-0.2c-0.1-0.1-0.1-0.1-0.2-0.2
			c-0.1-0.1-0.1-0.1-0.2-0.2c-0.1-0.1-0.1-0.1-0.2-0.2c-0.1-0.1-0.1-0.1-0.2-0.2c-0.1-0.1-0.1-0.1-0.2-0.2c-0.1-0.1-0.1-0.1-0.2-0.2
			c-0.1-0.1-0.1-0.1-0.2-0.2c-0.1-0.1-0.1-0.1-0.2-0.2c-0.1-0.1-0.1-0.1-0.2-0.2c-0.1-0.1-0.1-0.1-0.2-0.2c-0.1-0.1-0.1-0.1-0.2-0.2
			c-0.1-0.1-0.1-0.1-0.2-0.2c-0.1-0.1-0.1-0.1-0.2-0.2c-0.1-0.1-0.1-0.1-0.2-0.2c-0.1-0.1-0.1-0.1-0.2-0.2c-0.1-0.1-0.1-0.1-0.2-0.2
			c-0.1-0.1-0.1-0.1-0.2-0.2c-0.1-0.1-0.1-0.1-0.2-0.2c-0.1-0.1-0.1-0.1-0.2-0.2c-0.1-0.1-0.1-0.1-0.2-0.2c-0.1-0.1-0.1-0.1-0.2-0.2
			c-0.1-0.1-0.1-0.1-0.2-0.2c-0.1-0.1-0.1-0.1-0.2-0.2c-0.1-0.1-0.1-0.1-0.2-0.2c-0.1-0.1-0.1-0.1-0.2-0.2c-0.1-0.1-0.1-0.1-0.2-0.2
			c-0.1-0.1-0.1-0.1-0.2-0.2c-0.1-0.1-0.1-0.1-0.2-0.2c-0.1-0.1-0.1-0.1-0.2-0.2c-0.1-0.1-0.1-0.1-0.2-0.2c-0.1-0.1-0.1-0.1-0.2-0.2
			c-0.1-0.1-0.1-0.1-0.2-0.2c-0.1-0.1-0.1-0.1-0.2-0.2c-0.1-0.1-0.1-0.1-0.2-0.2c-0.1-0.1-0.1-0.1-0.2-0.2c-0.1-0.1-0.1-0.1-0.2-0.2
			c-0.1-0.1-0.1-0.2-0.2-0.2c-0.1-0.1-0.1-0.1-0.2-0.2c-0.1-0.1-0.1-0.1-0.2-0.2c-0.1-0.1-0.1-0.1-0.2-0.2c-0.1-0.1-0.1-0.1-0.2-0.2
			c-0.1-0.1-0.1-0.1-0.2-0.2c-0.1-0.1-0.1-0.2-0.2-0.2c-0.1-0.1-0.1-0.1-0.2-0.2c-0.1-0.1-0.1-0.1-0.2-0.2c-0.1-0.1-0.2-0.1-0.2-0.2
			c-0.1-0.1-0.1-0.1-0.2-0.2c-0.1-0.1-0.2-0.1-0.2-0.2c-0.1-0.1-0.1-0.2-0.2-0.2c-0.1-0.1-0.2-0.1-0.2-0.2c-0.1-0.1-0.1-0.2-0.2-0.2
			c-0.1-0.1-0.2-0.1-0.2-0.2c-0.1-0.1-0.1-0.2-0.2-0.2c-0.1-0.1-0.2-0.1-0.2-0.2c-0.1-0.1-0.1-0.2-0.2-0.2c-0.1-0.1-0.2-0.1-0.2-0.2
			c-0.1-0.1-0.1-0.2-0.2-0.2c-0.1-0.1-0.1-0.1-0.2-0.2c-0.1-0.1-0.1-0.2-0.2-0.2c-0.1-0.1-0.1-0.1-0.2-0.2c-0.1-0.1-0.1-0.2-0.2-0.2
			c-0.1-0.1-0.2-0.1-0.2-0.2c-0.1-0.1-0.1-0.2-0.2-0.2c-0.1-0.1-0.2-0.1-0.2-0.2c-0.1-0.1-0.1-0.2-0.2-0.2c-0.1-0.1-0.2-0.1-0.2-0.2
			c-0.1-0.1-0.1-0.2-0.2-0.2c-0.1-0.1-0.2-0.1-0.2-0.2c-0.1-0.1-0.1-0.2-0.2-0.2c-0.1-0.1-0.2-0.1-0.2-0.2c-0.1-0.1-0.1-0.2-0.2-0.2
			c-0.1-0.1-0.2-0.2-0.2-0.2c-0.1-0.1-0.1-0.2-0.2-0.2c-0.1-0.1-0.2-0.2-0.2-0.2c-0.1-0.1-0.1-0.2-0.2-0.2c-0.1-0.1-0.2-0.1-0.2-0.2
			c-0.1-0.1-0.1-0.2-0.2-0.2c-0.1-0.1-0.2-0.2-0.2-0.2c-0.1-0.1-0.1-0.2-0.2-0.2c-0.1-0.1-0.2-0.2-0.2-0.2c-0.1-0.1-0.1-0.2-0.2-0.2
			c-0.1-0.1-0.2-0.1-0.2-0.2c-0.1-0.1-0.1-0.2-0.2-0.2c-0.1-0.1-0.2-0.2-0.2-0.2c-0.1-0.1-0.2-0.2-0.2-0.2c-0.1-0.1-0.2-0.2-0.2-0.2
			c-0.1-0.1-0.1-0.2-0.2-0.2c-0.1-0.1-0.2-0.2-0.2-0.2c-0.1-0.1-0.1-0.2-0.2-0.2c-0.1-0.1-0.2-0.2-0.2-0.2c-0.1-0.1-0.2-0.2-0.2-0.2
			c-0.1-0.1-0.2-0.2-0.2-0.2c-0.1-0.1-0.2-0.2-0.2-0.2c-0.1-0.1-0.2-0.2-0.2-0.2c-0.1-0.1-0.2-0.2-0.2-0.2c-0.1-0.1-0.2-0.2-0.2-0.2
			c-0.1-0.1-0.2-0.2-0.2-0.2c-0.1-0.1-0.2-0.2-0.2-0.2c-0.1-0.1-0.2-0.2-0.2-0.2c-0.1-0.1-0.2-0.2-0.2-0.2c-0.1-0.1-0.2-0.2-0.2-0.2
			c-0.1-0.1-0.2-0.2-0.2-0.2c-0.1-0.1-0.2-0.2-0.2-0.2c-0.1-0.1-0.2-0.2-0.2-0.2c-0.1-0.1-0.2-0.2-0.2-0.3c-0.1-0.1-0.2-0.2-0.2-0.2
			c-0.1-0.1-0.2-0.2-0.2-0.3c-0.1-0.1-0.2-0.2-0.2-0.2c-0.1-0.1-0.2-0.2-0.2-0.3c-0.1-0.1-0.2-0.2-0.3-0.2c-0.1-0.1-0.2-0.2-0.2-0.3
			c-0.1-0.1-0.2-0.2-0.3-0.2c-0.1-0.1-0.2-0.2-0.2-0.3c-0.1-0.1-0.2-0.2-0.3-0.2c-0.1-0.1-0.2-0.2-0.2-0.2c-0.1-0.1-0.2-0.2-0.2-0.2
			c-0.1-0.1-0.2-0.2-0.2-0.3c-0.1-0.1-0.2-0.2-0.3-0.2c-0.1-0.1-0.2-0.2-0.2-0.3c-0.1-0.1-0.2-0.2-0.2-0.2c-0.1-0.1-0.2-0.2-0.2-0.3
			c-0.1-0.1-0.2-0.2-0.3-0.2c-0.1-0.1-0.2-0.2-0.2-0.3c-0.1-0.1-0.2-0.2-0.3-0.2c-0.1-0.1-0.2-0.2-0.2-0.3c-0.1-0.1-0.2-0.2-0.3-0.3
			c-0.1-0.1-0.2-0.2-0.2-0.3c-0.1-0.1-0.2-0.2-0.3-0.2c-0.1-0.1-0.2-0.2-0.3-0.3c-0.1-0.1-0.2-0.2-0.3-0.2c-0.1-0.1-0.2-0.2-0.3-0.3
			c-0.1-0.1-0.2-0.2-0.3-0.2c-0.1-0.1-0.2-0.2-0.3-0.3c-0.1-0.1-0.2-0.2-0.3-0.2c-0.1-0.1-0.2-0.2-0.2-0.3c-0.1-0.1-0.2-0.2-0.3-0.3
			c-0.1-0.1-0.2-0.2-0.3-0.3c-0.1-0.1-0.2-0.2-0.3-0.3c-0.1-0.1-0.2-0.2-0.2-0.3c-0.1-0.1-0.2-0.2-0.3-0.2c-0.1-0.1-0.2-0.2-0.3-0.3
			c-0.1-0.1-0.2-0.2-0.3-0.2c-0.1-0.1-0.2-0.2-0.3-0.3c-0.1-0.1-0.2-0.2-0.3-0.3c-0.1-0.1-0.2-0.2-0.3-0.3c-0.1-0.1-0.2-0.2-0.3-0.3
			c-0.1-0.1-0.2-0.2-0.3-0.3c-0.1-0.1-0.2-0.2-0.3-0.2c-0.1-0.1-0.2-0.2-0.3-0.3c-0.1-0.1-0.2-0.2-0.3-0.3c-0.1-0.1-0.2-0.2-0.2-0.3
			c-0.1-0.1-0.2-0.2-0.3-0.3c-0.1-0.1-0.2-0.2-0.3-0.3c-0.1-0.1-0.2-0.2-0.3-0.3c-0.1-0.1-0.2-0.2-0.3-0.3c-0.1-0.1-0.2-0.2-0.3-0.3
			c-0.1-0.1-0.2-0.2-0.3-0.3c-0.1-0.1-0.2-0.2-0.3-0.3c-0.1-0.1-0.2-0.2-0.3-0.3c-0.1-0.1-0.2-0.2-0.3-0.3c-0.1-0.1-0.2-0.2-0.3-0.3
			c-0.1-0.1-0.2-0.2-0.3-0.3c-0.1-0.1-0.2-0.2-0.3-0.3c-0.1-0.1-0.2-0.2-0.3-0.3c-0.1-0.1-0.2-0.2-0.3-0.3c-0.1-0.1-0.2-0.2-0.3-0.3
			c-0.1-0.1-0.2-0.2-0.3-0.3c-0.1-0.1-0.2-0.2-0.3-0.3c-0.1-0.1-0.2-0.2-0.3-0.3c-0.1-0.1-0.2-0.2-0.3-0.3c-0.1-0.1-0.2-0.2-0.3-0.3
			c-0.1-0.1-0.2-0.2-0.3-0.3c-0.1-0.1-0.2-0.2-0.3-0.3c-0.1-0.1-0.2-0.2-0.3-0.3c-0.1-0.1-0.2-0.2-0.3-0.3c-0.1-0.1-0.2-0.2-0.3-0.3
			c-0.1-0.1-0.2-0.2-0.3-0.3c-0.1-0.1-0.2-0.2-0.3-0.3c-0.1-0.1-0.2-0.2-0.3-0.3c-0.1-0.1-0.2-0.2-0.3-0.3c-0.1-0.1-0.2-0.2-0.3-0.3
			c-0.1-0.1-0.2-0.2-0.3-0.3c-0.1-0.1-0.2-0.2-0.3-0.3c-0.1-0.1-0.2-0.2-0.3-0.3c-0.1-0.1-0.2-0.2-0.3-0.3c-0.1-0.1-0.2-0.2-0.3-0.3
			c-0.1-0.1-0.2-0.2-0.3-0.3c-0.1-0.1-0.2-0.2-0.3-0.3c-0.1-0.1-0.2-0.2-0.3-0.3c-0.1-0.1-0.2-0.2-0.3-0.3c-0.1-0.1-0.2-0.2-0.3-0.3
			c-0.1-0.1-0.2-0.2-0.3-0.3c-0.1-0.1-0.2-0.2-0.3-0.3c-0.1-0.1-0.2-0.2-0.3-0.3c-0.1-0.1-0.2-0.2-0.3-0.3c-0.1-0.1-0.2-0.2-0.3-0.3
			c-0.1-0.1-0.2-0.2-0.3-0.3c-0.1-0.1-0.2-0.2-0.3-0.3c-0.1-0.1-0.2-0.2-0.3-0.3c-0.1-0.1-0.2-0.2-0.3-0.3c-0.1-0.1-0.2-0.2-0.3-0.3
			c-0.1-0.1-0.2-0.2-0.3-0.3c-0.1-0.1-0.2-0.2-0.3-0.3c-0.1-0.1-0.2-0.2-0.3-0.3c-0.1-0.1-0.2-0.2-0.3-0.3c-0.1-0.1-0.2-0.2-0.3-0.3
			c-0.1-0.1-0.2-0.2-0.3-0.3c-0.1-0.1-0.2-0.2-0.3-0.3c-0.1-0.1-0.2-0.2-0.3-0.3C-270.2,923.2-275.8,920.8-282.4,920.8L-282.4,920.8
			z"/>
	</g>
	<g>
		<defs>
			<path id="SVGID_9_" d="M-411.6,885.5c-6,0-10.9,4.9-10.9,10.9v0.8c0,0,0,0.1,0,0.1v30.1c-2.7,0.8-5.1,2.3-7.2,4.5
				c-3.4,3.5-5.2,7.7-5.2,12.6s1.7,9.1,5.2,12.6c2.1,2.2,4.5,3.6,7.2,4.5v63.3c0,0,0,0,0,0v0.9c0,6,4.8,10.8,10.8,10.8h129.4
				c6,0,10.8-4.8,10.8-10.8v-0.9c0,0,0,0,0,0v-59.6c1.9-1.1,3.7-2.4,5.4-4.1c4.6-4.6,7-10.3,7-16.9s-2.3-12.2-7-16.9
				c-1.7-1.7-3.5-3-5.4-4.1v-25.9c0,0,0-0.1,0-0.1v-0.8c0-6-4.9-10.9-10.9-10.9H-411.6z"/>
		</defs>
		<defs>
			<path id="SVGID_10_" d="M-283,920.3c-6.5,0-12.1,2.3-16.7,6.9c-4.6,4.6-7,10.2-7.1,16.7l-14.7,21.3c-0.3,0-0.6,0-1-0.1
				c-0.4,0-0.7-0.1-0.9-0.1c-3.2,0-6.3,0.8-9.1,2.5l-67.3-27.1c-0.9-4-3-7.3-6.2-10s-7-4-11.2-4c-4.9,0-9.1,1.7-12.5,5.2
				s-5.2,7.7-5.2,12.6s1.7,9.1,5.2,12.6s7.6,5.2,12.5,5.2c3.2,0,6.3-0.8,9.1-2.5l67.3,26.9c0.9,4,2.9,7.4,6.2,10c3.2,2.7,7,4,11.3,4
				c4.6,0,8.5-1.5,11.9-4.6s5.3-6.9,5.8-11.5L-283,968c6.6,0,12.2-2.3,16.9-7c4.6-4.6,7-10.3,7-16.9s-2.3-12.2-7-16.9
				S-276.4,920.3-283,920.3z"/>
		</defs>
		<clipPath id="SVGID_11_">
			<use xlink:href="#SVGID_9_"  style="overflow:visible;"/>
		</clipPath>
		<clipPath id="SVGID_12_" class="st6">
			<use xlink:href="#SVGID_10_"  style="overflow:visible;"/>
		</clipPath>
		<path id="path4307" inkscape:connector-curvature="0" class="st7" d="M-283,920.4c-6.5,0-12.1,2.3-16.7,6.9
			c-4.6,4.6-7,10.2-7.1,16.7l-14.7,21.3c-0.3,0-0.6,0-1-0.1c-0.4,0-0.7-0.1-0.9-0.1c-3.2,0-6.3,0.8-9.1,2.5l-67.3-27.1
			c-0.9-4-3-7.3-6.2-10c-3.3-2.6-7-4-11.2-4c-4.9,0-9.1,1.7-12.5,5.2c-3.4,3.5-5.2,7.7-5.2,12.6c0,4.9,1.7,9.1,5.2,12.6
			c3.4,3.5,7.6,5.2,12.5,5.2c3.2,0,6.3-0.8,9.1-2.5l67.3,26.9c0.9,4,2.9,7.4,6.2,10c3.2,2.7,7,4,11.3,4c4.6,0,8.5-1.5,11.9-4.6
			c3.4-3.1,5.3-6.9,5.8-11.5l22.8-16.6c6.6,0,12.2-2.3,16.9-7c4.6-4.6,7-10.3,7-16.9s-2.3-12.2-7-16.9
			C-270.7,922.7-276.4,920.4-283,920.4z"/>
	</g>
	<g>
		<defs>
			<path id="SVGID_13_" d="M-411.6,885.5c-6,0-10.9,4.9-10.9,10.9v0.8c0,0,0,0.1,0,0.1v30.1c-2.7,0.8-5.1,2.3-7.2,4.5
				c-3.4,3.5-5.2,7.7-5.2,12.6s1.7,9.1,5.2,12.6c2.1,2.2,4.5,3.6,7.2,4.5v63.3c0,0,0,0,0,0v0.9c0,6,4.8,10.8,10.8,10.8h129.4
				c6,0,10.8-4.8,10.8-10.8v-0.9c0,0,0,0,0,0v-59.6c1.9-1.1,3.7-2.4,5.4-4.1c4.6-4.6,7-10.3,7-16.9s-2.3-12.2-7-16.9
				c-1.7-1.7-3.5-3-5.4-4.1v-25.9c0,0,0-0.1,0-0.1v-0.8c0-6-4.9-10.9-10.9-10.9H-411.6z"/>
		</defs>
		<clipPath id="SVGID_14_">
			<use xlink:href="#SVGID_13_"  style="overflow:visible;"/>
		</clipPath>
		<g id="path6987" inkscape:connector-curvature="0" class="st8">
			<path class="st9" d="M-283,920.3c-6.5,0-12.1,2.3-16.7,6.9c-4.6,4.6-7,10.2-7.1,16.7l-14.7,21.3c-0.3,0-0.6,0-1-0.1
				c-0.4,0-0.7-0.1-0.9-0.1c-3.2,0-6.3,0.8-9.1,2.5l-67.3-27.1c-0.9-4-3-7.3-6.2-10s-7-4-11.2-4c-4.9,0-9.1,1.7-12.5,5.2
				s-5.2,7.7-5.2,12.6s1.7,9.1,5.2,12.6s7.6,5.2,12.5,5.2c3.2,0,6.3-0.8,9.1-2.5l67.3,26.9c0.9,4,2.9,7.4,6.2,10c3.2,2.7,7,4,11.3,4
				c4.6,0,8.5-1.5,11.9-4.6s5.3-6.9,5.8-11.5L-283,968c6.6,0,12.2-2.3,16.9-7c4.6-4.6,7-10.3,7-16.9s-2.3-12.2-7-16.9
				S-276.4,920.3-283,920.3z"/>
		</g>
	</g>
	<g>
		<defs>
			<path id="SVGID_15_" d="M-411.6,885.5c-6,0-10.9,4.9-10.9,10.9v0.8c0,0,0,0.1,0,0.1v30.1c-2.7,0.8-5.1,2.3-7.2,4.5
				c-3.4,3.5-5.2,7.7-5.2,12.6s1.7,9.1,5.2,12.6c2.1,2.2,4.5,3.6,7.2,4.5v63.3c0,0,0,0,0,0v0.9c0,6,4.8,10.8,10.8,10.8h129.4
				c6,0,10.8-4.8,10.8-10.8v-0.9c0,0,0,0,0,0v-59.6c1.9-1.1,3.7-2.4,5.4-4.1c4.6-4.6,7-10.3,7-16.9s-2.3-12.2-7-16.9
				c-1.7-1.7-3.5-3-5.4-4.1v-25.9c0,0,0-0.1,0-0.1v-0.8c0-6-4.9-10.9-10.9-10.9H-411.6z"/>
		</defs>
		<defs>
			<path id="SVGID_16_" d="M-283,920.3c-6.5,0-12.1,2.3-16.7,6.9s-7,10.2-7.1,16.7l-14.7,21.3c-0.3,0-0.6,0-1-0.1
				c-0.4,0-0.7-0.1-0.9-0.1c-3.2,0-6.3,0.8-9.1,2.5l-67.3-27.1c-0.9-4-3-7.3-6.2-10s-7-4-11.2-4c-4.9,0-9.1,1.7-12.5,5.2
				s-5.2,7.7-5.2,12.6s1.7,9.1,5.2,12.6s7.6,5.2,12.5,5.2c3.2,0,6.3-0.8,9.1-2.5l67.3,26.9c0.9,4,2.9,7.4,6.2,10c3.2,2.7,7,4,11.3,4
				c4.6,0,8.5-1.5,11.9-4.6s5.3-6.9,5.8-11.5L-283,968c6.6,0,12.2-2.3,16.9-7c4.6-4.6,7-10.3,7-16.9s-2.3-12.2-7-16.9
				S-276.4,920.3-283,920.3z"/>
		</defs>
		<clipPath id="SVGID_17_">
			<use xlink:href="#SVGID_15_"  style="overflow:visible;"/>
		</clipPath>
		<clipPath id="SVGID_18_" class="st10">
			<use xlink:href="#SVGID_16_"  style="overflow:visible;"/>
		</clipPath>
		<path id="path4202" inkscape:connector-curvature="0" class="st11" d="M-283,920.4c-6.5,0-12.1,2.2-16.7,6.7s-7,9.9-7.1,16.3
			l-14.7,20.8c-0.3,0-0.6,0-1-0.1c-0.4,0-0.7-0.1-0.9-0.1c-3.2,0-6.3,0.8-9.1,2.5l-67.3-26.5c-0.9-3.9-3-7.2-6.2-9.8
			c-3.3-2.6-7-3.9-11.2-3.9c-4.9,0-9.1,1.7-12.5,5.1s-5.2,7.5-5.2,12.3c0,4.8,1.7,8.9,5.2,12.3s7.6,5.1,12.5,5.1
			c3.2,0,6.3-0.8,9.1-2.5l67.3,26.3c0.9,3.9,2.9,7.2,6.2,9.8c3.2,2.6,7,3.9,11.3,3.9c4.6,0,8.5-1.5,11.9-4.5s5.3-6.7,5.8-11.2
			L-283,967c6.6,0,12.2-2.3,16.9-6.8c4.6-4.5,7-10,7-16.5c0-6.5-2.3-12-7-16.5C-270.7,922.6-276.4,920.4-283,920.4z"/>
	</g>
	<g>
		<defs>
			<path id="SVGID_19_" d="M-411.6,885.5c-6,0-10.9,4.9-10.9,10.9v0.8c0,0,0,0.1,0,0.1v30.1c-2.7,0.8-5.1,2.3-7.2,4.5
				c-3.4,3.5-5.2,7.7-5.2,12.6s1.7,9.1,5.2,12.6c2.1,2.2,4.5,3.6,7.2,4.5v63.3c0,0,0,0,0,0v0.9c0,6,4.8,10.8,10.8,10.8h129.4
				c6,0,10.8-4.8,10.8-10.8v-0.9c0,0,0,0,0,0v-59.6c1.9-1.1,3.7-2.4,5.4-4.1c4.6-4.6,7-10.3,7-16.9s-2.3-12.2-7-16.9
				c-1.7-1.7-3.5-3-5.4-4.1v-25.9c0,0,0-0.1,0-0.1v-0.8c0-6-4.9-10.9-10.9-10.9H-411.6z"/>
		</defs>
		<defs>
			<path id="SVGID_20_" d="M-283,920.3c-6.5,0-12.1,2.3-16.7,6.9c-4.6,4.6-7,10.2-7.1,16.7l-14.7,21.3c-0.3,0-0.6,0-1-0.1
				c-0.4,0-0.7-0.1-0.9-0.1c-3.2,0-6.3,0.8-9.1,2.5l-67.3-27.1c-0.9-4-3-7.3-6.2-10s-7-4-11.2-4c-4.9,0-9.1,1.7-12.5,5.2
				s-5.2,7.7-5.2,12.6s1.7,9.1,5.2,12.6s7.6,5.2,12.5,5.2c3.2,0,6.3-0.8,9.1-2.5l67.3,26.9c0.9,4,2.9,7.4,6.2,10c3.2,2.7,7,4,11.3,4
				c4.6,0,8.5-1.5,11.9-4.6s5.3-6.9,5.8-11.5L-283,968c6.6,0,12.2-2.3,16.9-7c4.6-4.6,7-10.3,7-16.9s-2.3-12.2-7-16.9
				S-276.4,920.3-283,920.3z"/>
		</defs>
		<clipPath id="SVGID_21_">
			<use xlink:href="#SVGID_19_"  style="overflow:visible;"/>
		</clipPath>
		<clipPath id="SVGID_22_" class="st12">
			<use xlink:href="#SVGID_20_"  style="overflow:visible;"/>
		</clipPath>
		<path id="path4206" inkscape:connector-curvature="0" class="st13" d="M-283,923.8c-6.5,0-12.1,2.2-16.7,6.6
			c-4.6,4.4-7,9.7-7.1,16l-14.7,20.4c-0.3,0-0.6,0-1-0.1c-0.4,0-0.7-0.1-0.9-0.1c-3.2,0-6.3,0.8-9.1,2.4l-67.3-25.9
			c-0.9-3.9-3-7-6.2-9.6c-3.3-2.5-7-3.8-11.2-3.8c-4.9,0-9.1,1.7-12.5,5s-5.2,7.4-5.2,12.1s1.7,8.7,5.2,12.1s7.6,5,12.5,5
			c3.2,0,6.3-0.8,9.1-2.4l67.3,25.8c0.9,3.9,2.9,7.1,6.2,9.6c3.2,2.6,7,3.9,11.3,3.9c4.6,0,8.5-1.5,11.9-4.4c3.4-3,5.3-6.6,5.8-11
			l22.8-15.9c6.6,0,12.2-2.2,16.9-6.7c4.6-4.4,7-9.8,7-16.2c0-6.3-2.3-11.7-7-16.2C-270.7,926-276.4,923.8-283,923.8z"/>
	</g>
	<g>
		<defs>
			<path id="SVGID_23_" d="M-411.6,887.5c-6,0-10.9,4.7-10.9,10.6v0.7c0,0,0,0,0,0.1v29.3c-2.7,0.8-5.1,2.2-7.2,4.3
				c-3.4,3.4-5.2,7.5-5.2,12.3c0,4.8,1.7,8.9,5.2,12.3c2.1,2.1,4.5,3.5,7.2,4.3v61.6c0,0,0,0,0,0v0.9c0,5.8,4.8,10.5,10.8,10.5
				h129.4c6,0,10.8-4.7,10.8-10.5v-0.9c0,0,0,0,0,0v-58c1.9-1,3.7-2.4,5.4-4c4.6-4.5,7-10,7-16.4s-2.3-11.9-7-16.4
				c-1.7-1.6-3.5-3-5.4-4v-25.2c0,0,0,0,0-0.1v-0.7c0-5.9-4.9-10.6-10.9-10.6H-411.6z"/>
		</defs>
		<clipPath id="SVGID_24_">
			<use xlink:href="#SVGID_23_"  style="overflow:visible;"/>
		</clipPath>
		<path id="path4210" inkscape:connector-curvature="0" class="st14" d="M-283,921.3c-6.5,0-12.1,2.2-16.7,6.7
			c-4.6,4.5-7,9.9-7.1,16.2l-14.7,20.7c-0.3,0-0.6,0-1-0.1s-0.7-0.1-0.9-0.1c-3.2,0-6.3,0.8-9.1,2.5l-67.3-26.3
			c-0.9-3.9-3-7.2-6.2-9.7c-3.3-2.6-7-3.8-11.2-3.8c-4.9,0-9.1,1.7-12.5,5.1c-3.4,3.4-5.2,7.5-5.2,12.3c0,4.8,1.7,8.9,5.2,12.3
			s7.6,5.1,12.5,5.1c3.2,0,6.3-0.8,9.1-2.5l67.3,26.2c0.9,3.9,2.9,7.2,6.2,9.8c3.2,2.6,7,3.9,11.3,3.9c4.6,0,8.5-1.5,11.9-4.5
			c3.4-3,5.3-6.7,5.8-11.1l22.8-16.2c6.6,0,12.2-2.3,16.9-6.8c4.6-4.5,7-10,7-16.4c0-6.4-2.3-11.9-7-16.4S-276.4,921.3-283,921.3z"
			/>
	</g>
</g>
<g id="layer3" inkscape:label="Square 2" inkscape:groupmode="layer">
	
		<radialGradient id="path7088_1_" cx="-360.1221" cy="2172.168" r="88.3848" gradientTransform="matrix(-6.517196e-004 1.7056 1.7198 6.571320e-004 -4158.8506 1497.8016)" gradientUnits="userSpaceOnUse">
		<stop  offset="0" style="stop-color:#FFFFFF"/>
		<stop  offset="1" style="stop-color:#FFFFFF;stop-opacity:0"/>
	</radialGradient>
	
		<radialGradient id="path7088_2_" cx="-360.1221" cy="2172.168" r="88.3848" gradientTransform="matrix(-6.517263e-004 1.7056 1.7198 6.571345e-004 -4158.8506 1497.8016)" gradientUnits="userSpaceOnUse">
		<stop  offset="0" style="stop-color:#FFFFFF"/>
		<stop  offset="1" style="stop-color:#FFFFFF;stop-opacity:0"/>
	</radialGradient>
	<path id="path7088" inkscape:connector-curvature="0" class="st15" d="M-411.6,885.5c-6,0-10.9,4.9-10.9,10.9v0.8c0,0,0,0.1,0,0.1
		v30.1c-2.7,0.8-5.1,2.3-7.2,4.5c-3.4,3.5-5.2,7.7-5.2,12.6s1.7,9.1,5.2,12.6c2.1,2.2,4.5,3.6,7.2,4.5v63.3c0,0,0,0,0,0v0.9
		c0,6,4.8,10.8,10.8,10.8h129.4c6,0,10.8-4.8,10.8-10.8v-0.9c0,0,0,0,0,0v-59.6c1.9-1.1,3.7-2.4,5.4-4.1c4.6-4.6,7-10.3,7-16.9
		s-2.3-12.2-7-16.9c-1.7-1.7-3.5-3-5.4-4.1v-25.9c0,0,0-0.1,0-0.1v-0.8c0-6-4.9-10.9-10.9-10.9H-411.6z"/>
</g>
</svg>
