<?xml version="1.0" encoding="UTF-8" standalone="no"?>
<!-- Created with Inkscape (http://www.inkscape.org/) -->

<svg
   xmlns:dc="http://purl.org/dc/elements/1.1/"
   xmlns:cc="http://creativecommons.org/ns#"
   xmlns:rdf="http://www.w3.org/1999/02/22-rdf-syntax-ns#"
   xmlns:svg="http://www.w3.org/2000/svg"
   xmlns="http://www.w3.org/2000/svg"
   xmlns:xlink="http://www.w3.org/1999/xlink"
   xmlns:sodipodi="http://sodipodi.sourceforge.net/DTD/sodipodi-0.dtd"
   xmlns:inkscape="http://www.inkscape.org/namespaces/inkscape"
   width="192"
   height="192"
   viewBox="0 0 192 192"
   id="svg2"
   version="1.1"
   inkscape:version="0.91 r13725"
   sodipodi:docname="supersu.svg"
   inkscape:export-filename="C:\createme\Material Design Icons\PNG\supersu.png"
   inkscape:export-xdpi="90"
   inkscape:export-ydpi="90">
  <sodipodi:namedview
     id="base"
     pagecolor="#ffffff"
     bordercolor="#666666"
     borderopacity="1.0"
     inkscape:pageopacity="0.0"
     inkscape:pageshadow="2"
     inkscape:zoom="2.8284272"
     inkscape:cx="83.902165"
     inkscape:cy="90.84121"
     inkscape:document-units="px"
     inkscape:current-layer="layer1"
     showgrid="false"
     units="px"
     showguides="false"
     inkscape:window-width="1920"
     inkscape:window-height="1017"
     inkscape:window-x="-8"
     inkscape:window-y="-8"
     inkscape:window-maximized="1">
    <sodipodi:guide
       inkscape:color="rgb(0,0,255)"
       inkscape:label=""
       id="guide3354"
       orientation="0,1"
       position="0,184" />
    <sodipodi:guide
       inkscape:color="rgb(0,0,255)"
       inkscape:label=""
       id="guide3356"
       orientation="1,0"
       position="8,0" />
    <sodipodi:guide
       inkscape:color="rgb(0,0,255)"
       inkscape:label=""
       id="guide3358"
       orientation="0,1"
       position="0,8" />
    <sodipodi:guide
       inkscape:color="rgb(0,0,255)"
       inkscape:label=""
       id="guide3360"
       orientation="1,0"
       position="184,0" />
    <sodipodi:guide
       inkscape:color="rgb(0,0,255)"
       inkscape:label=""
       id="guide3362"
       orientation="0,1"
       position="0,20" />
    <sodipodi:guide
       inkscape:color="rgb(0,0,255)"
       inkscape:label=""
       id="guide3364"
       orientation="1,0"
       position="172,0" />
    <sodipodi:guide
       inkscape:color="rgb(0,0,255)"
       inkscape:label=""
       id="guide3366"
       orientation="0,1"
       position="96,172" />
    <sodipodi:guide
       inkscape:color="rgb(0,0,255)"
       inkscape:label=""
       id="guide3368"
       orientation="1,0"
       position="20,0" />
    <sodipodi:guide
       inkscape:color="rgb(0,0,255)"
       inkscape:label=""
       id="guide3370"
       orientation="0,1"
       position="0,32" />
    <sodipodi:guide
       inkscape:color="rgb(0,0,255)"
       inkscape:label=""
       id="guide3372"
       orientation="1,0"
       position="160,0" />
    <sodipodi:guide
       inkscape:color="rgb(0,0,255)"
       inkscape:label=""
       id="guide3374"
       orientation="0,1"
       position="0,160" />
    <sodipodi:guide
       inkscape:color="rgb(0,0,255)"
       inkscape:label=""
       id="guide3376"
       orientation="1,0"
       position="32,0" />
    <inkscape:grid
       id="grid3378"
       type="xygrid" />
    <sodipodi:guide
       inkscape:color="rgb(255,0,0)"
       inkscape:label=""
       id="guide5849"
       orientation="-0.70710678,0.70710678"
       position="0,0" />
    <sodipodi:guide
       inkscape:color="rgb(255,0,0)"
       inkscape:label=""
       id="guide5851"
       orientation="1,0"
       position="124,0" />
    <sodipodi:guide
       inkscape:color="rgb(255,0,0)"
       inkscape:label=""
       id="guide5853"
       orientation="0.70710678,0.70710678"
       position="0,192" />
    <sodipodi:guide
       inkscape:color="rgb(255,0,0)"
       inkscape:label=""
       id="guide5855"
       orientation="1,0"
       position="96,0" />
    <sodipodi:guide
       inkscape:color="rgb(255,0,0)"
       inkscape:label=""
       id="guide5859"
       orientation="0,1"
       position="0,96" />
    <sodipodi:guide
       inkscape:color="rgb(255,0,0)"
       inkscape:label=""
       id="guide5861"
       orientation="0,1"
       position="0,124" />
    <sodipodi:guide
       inkscape:color="rgb(255,0,0)"
       inkscape:label=""
       id="guide5863"
       orientation="0,1"
       position="0,68" />
    <sodipodi:guide
       inkscape:color="rgb(255,0,0)"
       inkscape:label=""
       id="guide5865"
       orientation="1,0"
       position="68,0" />
    <sodipodi:guide
       id="guide5869"
       orientation="-192,0"
       position="192,0" />
    <sodipodi:guide
       id="guide5871"
       orientation="0,-192"
       position="192,192" />
  </sodipodi:namedview>
  <defs
     id="defs4">
    <linearGradient
       inkscape:collect="always"
       id="linearGradient16716">
      <stop
         style="stop-color:#263238;stop-opacity:1;"
         offset="0"
         id="stop16718" />
      <stop
         style="stop-color:#263238;stop-opacity:0;"
         offset="1"
         id="stop16720" />
    </linearGradient>
    <linearGradient
       id="linearGradient4194"
       inkscape:collect="always">
      <stop
         id="stop4196"
         offset="0"
         style="stop-color:#ffffff;stop-opacity:1;" />
      <stop
         id="stop4198"
         offset="1"
         style="stop-color:#ffffff;stop-opacity:0;" />
    </linearGradient>
    <clipPath
       id="clipPath10430"
       clipPathUnits="userSpaceOnUse">
      <path
         id="path10432"
         d="m 1241.028,39.3409 224.537,0 0,178.031 -224.537,0 0,-178.031 z"
         inkscape:connector-curvature="0" />
    </clipPath>
    <clipPath
       id="clipPath10438"
       clipPathUnits="userSpaceOnUse">
      <path
         id="path10440"
         d="m 1260.156,213.3477 0,-170.2268 191.3337,0 0,170.2268"
         inkscape:connector-curvature="0" />
    </clipPath>
    <radialGradient
       gradientUnits="userSpaceOnUse"
       gradientTransform="matrix(2.6607556e-7,1.9999998,-2.0000002,2.6629458e-7,1780.725,840.36195)"
       r="76"
       fy="880.36243"
       fx="20"
       cy="880.36243"
       cx="20"
       id="radialGradient4200"
       xlink:href="#linearGradient4194"
       inkscape:collect="always" />
    <filter
       id="filter5248"
       inkscape:label="Drop Shadow"
       style="color-interpolation-filters:sRGB;">
      <feFlood
         id="feFlood5250"
         result="flood"
         flood-color="rgb(0,0,0)"
         flood-opacity="0.2" />
      <feComposite
         id="feComposite5252"
         result="composite1"
         operator="in"
         in2="SourceGraphic"
         in="flood" />
      <feGaussianBlur
         id="feGaussianBlur5254"
         result="blur"
         stdDeviation="4"
         in="composite1" />
      <feOffset
         id="feOffset5256"
         result="offset"
         dy="4"
         dx="4.57967e-015" />
      <feComposite
         id="feComposite5258"
         result="composite2"
         operator="over"
         in2="offset"
         in="SourceGraphic" />
    </filter>
    <linearGradient
       inkscape:collect="always"
       xlink:href="#linearGradient16716"
       id="linearGradient16722"
       x1="48.087402"
       y1="48.087402"
       x2="172"
       y2="172"
       gradientUnits="userSpaceOnUse" />
    <filter
       style="color-interpolation-filters:sRGB;"
       inkscape:label="Drop Shadow"
       id="filter16724"
       height="1.3">
      <feFlood
         flood-opacity="0.20000000000000001"
         flood-color="rgb(38,50,56)"
         result="flood"
         id="feFlood16726" />
      <feComposite
         in="flood"
         in2="SourceGraphic"
         operator="in"
         result="composite1"
         id="feComposite16728" />
      <feGaussianBlur
         in="composite1"
         stdDeviation="4"
         result="blur"
         id="feGaussianBlur16730" />
      <feOffset
         dx="0"
         dy="4"
         result="offset"
         id="feOffset16732" />
      <feComposite
         in="SourceGraphic"
         in2="offset"
         operator="over"
         result="composite2"
         id="feComposite16734" />
    </filter>
  </defs>
  <metadata
     id="metadata7">
    <rdf:RDF>
      <cc:Work
         rdf:about="">
        <dc:format>image/svg+xml</dc:format>
        <dc:type
           rdf:resource="http://purl.org/dc/dcmitype/StillImage" />
        <dc:title></dc:title>
      </cc:Work>
    </rdf:RDF>
  </metadata>
  <g
     inkscape:label="background"
     id="layer2"
     inkscape:groupmode="layer">
    <path
       transform="translate(0,-860.36216)"
       sodipodi:nodetypes="ccccccccc"
       inkscape:connector-curvature="0"
       id="path5588"
       d="m 32,880.36216 128,0 c 6,0 12,6 12,12 l 0,128.00004 c 0,6 -6,12 -12,12 l -128,0 c -6,0 -12,-6 -12,-12 l 0,-128.00004 c 0,-6 6,-12 12,-12 z"
       style="fill:#009688;fill-opacity:1;fill-rule:evenodd;stroke:none;stroke-width:1px;stroke-linecap:butt;stroke-linejoin:miter;stroke-opacity:1;filter:url(#filter5248)" />
  </g>
  <g
     transform="translate(0,-860.36216)"
     id="layer1"
     inkscape:groupmode="layer"
     inkscape:label="objects">
    <path
       style="display:inline;opacity:0.2;fill:url(#linearGradient16722);fill-opacity:1;fill-rule:nonzero;stroke:none;stroke-width:15;stroke-linecap:butt;stroke-linejoin:miter;stroke-miterlimit:4;stroke-dasharray:none;stroke-dashoffset:0;stroke-opacity:1"
       d="M 86.746094 47.462891 L 81.683594 75.771484 L 63.794922 75.771484 L 63.794922 87.546875 L 64.363281 87.546875 L 64.363281 88.113281 L 64.927734 88.113281 L 64.927734 88.679688 L 65.492188 88.679688 L 65.492188 89.244141 L 66.054688 89.244141 L 66.054688 89.806641 L 66.615234 89.806641 L 66.615234 90.367188 L 67.175781 90.367188 L 67.175781 90.925781 L 67.732422 90.925781 L 67.732422 91.484375 L 68.289062 91.484375 L 68.289062 92.039062 L 68.84375 92.039062 L 68.84375 92.59375 L 69.396484 92.59375 L 69.396484 93.146484 L 69.947266 93.146484 L 69.947266 93.697266 L 70.496094 93.697266 L 70.496094 94.248047 L 71.044922 94.248047 L 71.044922 94.794922 L 71.589844 94.794922 L 71.589844 95.341797 L 72.134766 95.341797 L 72.134766 95.886719 L 72.677734 95.886719 L 72.677734 96.429688 L 73.21875 96.429688 L 73.21875 96.970703 L 73.759766 96.970703 L 73.759766 97.509766 L 74.296875 97.509766 L 74.296875 98.048828 L 74.833984 98.048828 L 74.833984 98.583984 L 75.369141 98.583984 L 75.369141 99.119141 L 75.902344 99.119141 L 75.902344 99.652344 L 76.433594 99.652344 L 76.433594 100.18555 L 76.964844 100.18555 L 76.964844 100.71484 L 77.222656 100.71484 L 76.169922 106.59375 L 58.568359 106.59375 L 58.568359 118.43359 L 59.136719 118.43359 L 59.136719 119.00195 L 59.701172 119.00195 L 59.701172 119.56641 L 60.265625 119.56641 L 60.265625 120.13086 L 60.828125 120.13086 L 60.828125 120.69336 L 61.388672 120.69336 L 61.388672 121.25391 L 61.949219 121.25391 L 61.949219 121.81445 L 62.505859 121.81445 L 62.505859 122.37109 L 63.0625 122.37109 L 63.0625 122.92773 L 63.617188 122.92773 L 63.617188 123.48242 L 64.169922 123.48242 L 64.169922 124.03516 L 64.720703 124.03516 L 64.720703 124.58594 L 65.269531 124.58594 L 65.269531 125.13477 L 65.818359 125.13477 L 65.818359 125.68359 L 66.365234 125.68359 L 66.365234 126.23047 L 66.908203 126.23047 L 66.908203 126.77344 L 67.451172 126.77344 L 67.451172 127.31641 L 67.994141 127.31641 L 67.994141 127.85938 L 68.533203 127.85938 L 68.533203 128.39844 L 69.072266 128.39844 L 69.072266 128.9375 L 69.607422 128.9375 L 69.607422 129.47266 L 70.142578 129.47266 L 70.142578 130.00781 L 70.675781 130.00781 L 70.675781 130.54102 L 71.207031 130.54102 L 71.207031 131.07227 L 71.738281 131.07227 L 71.738281 131.36719 L 69.152344 145.81836 L 69.822266 145.81445 L 69.720703 146.38672 L 70.388672 146.38281 L 70.287109 146.95117 L 70.951172 146.94727 L 70.849609 147.51562 L 71.513672 147.51172 L 71.412109 148.07812 L 72.076172 148.07422 L 71.974609 148.63867 L 72.634766 148.63477 L 72.533203 149.19922 L 73.189453 149.19531 L 73.089844 149.75586 L 73.746094 149.75195 L 73.646484 150.3125 L 74.300781 150.30859 L 74.201172 150.86719 L 74.853516 150.86328 L 74.753906 151.41992 L 75.404297 151.41602 L 75.304688 151.9707 L 75.953125 151.9668 L 75.853516 152.51953 L 76.501953 152.51562 L 76.402344 153.06836 L 77.046875 153.06445 L 76.949219 153.61523 L 77.591797 153.61133 L 77.494141 154.1582 L 78.134766 154.1543 L 78.037109 154.70117 L 78.675781 154.69727 L 78.578125 155.24414 L 79.214844 155.24023 L 79.117188 155.7832 L 79.753906 155.7793 L 79.65625 156.32227 L 80.287109 156.31836 L 80.191406 156.85742 L 80.822266 156.85352 L 80.726562 157.39258 L 81.355469 157.38867 L 81.259766 157.92578 L 81.886719 157.92188 L 81.791016 158.45703 L 82.417969 158.45312 L 82.322266 158.98828 L 82.945312 158.98438 L 82.849609 159.51562 L 83.472656 159.51172 L 83.376953 160.04297 L 83.996094 160.03906 L 83.902344 160.56836 L 84.519531 160.56445 L 84.425781 161.0918 L 85.041016 161.08789 L 84.947266 161.61328 L 85.5625 161.60938 L 85.46875 162.13477 L 86.080078 162.13086 L 85.986328 162.65234 L 86.597656 162.64844 L 86.503906 163.16992 L 87.113281 163.16602 L 87.019531 163.68555 L 87.625 163.68164 L 87.533203 164.19922 L 88.136719 164.19531 L 88.044922 164.71094 L 88.646484 164.70703 L 88.554688 165.2207 L 89.15625 165.2168 L 89.064453 165.73047 L 89.664062 165.72656 L 89.572266 166.23828 L 90.169922 166.23438 L 90.078125 166.74414 L 90.671875 166.74023 L 90.582031 167.24805 L 91.173828 167.24414 L 91.083984 167.75 L 91.673828 167.74609 L 91.583984 168.25 L 92.173828 168.24609 L 92.083984 168.75 L 92.671875 168.74609 L 92.582031 169.24805 L 93.167969 169.24414 L 93.078125 169.74414 L 93.662109 169.74023 L 93.572266 170.23828 L 94.152344 170.23438 L 94.064453 170.73047 L 94.642578 170.72656 L 94.554688 171.2207 L 95.132812 171.2168 L 95.044922 171.71094 L 95.621094 171.70703 L 95.568359 172 L 160 172 C 166 172 172 166 172 160 L 172 95.417969 L 171.78516 95.421875 L 171.85742 95.003906 L 171.375 95.011719 L 171.44727 94.59375 L 170.96094 94.601562 L 171.0332 94.179688 L 170.54688 94.1875 L 170.61914 93.765625 L 170.12695 93.773438 L 170.20117 93.349609 L 169.70898 93.357422 L 169.7832 92.931641 L 169.29102 92.939453 L 169.36523 92.511719 L 168.86914 92.519531 L 168.94336 92.089844 L 168.44531 92.097656 L 168.51953 91.667969 L 168.02148 91.675781 L 168.0957 91.242188 L 167.5957 91.25 L 167.66992 90.816406 L 167.16602 90.824219 L 167.24219 90.388672 L 166.73633 90.396484 L 166.8125 89.958984 L 166.30469 89.966797 L 166.38086 89.529297 L 165.87305 89.537109 L 165.94922 89.095703 L 165.43945 89.103516 L 165.51562 88.662109 L 165.00195 88.669922 L 165.07812 88.226562 L 164.5625 88.234375 L 164.64062 87.789062 L 164.125 87.796875 L 164.20312 87.349609 L 163.68359 87.357422 L 163.76172 86.908203 L 163.24023 86.916016 L 163.31836 86.466797 L 162.79688 86.474609 L 162.875 86.021484 L 162.35156 86.029297 L 162.42969 85.576172 L 161.9043 85.583984 L 161.98242 85.128906 L 161.45312 85.136719 L 161.5332 84.679688 L 161.00195 84.6875 L 161.08203 84.230469 L 160.55078 84.238281 L 160.63086 83.777344 L 160.09766 83.785156 L 160.17773 83.324219 L 159.64258 83.332031 L 159.72266 82.869141 L 159.18555 82.876953 L 159.26562 82.412109 L 158.72461 82.419922 L 158.80664 81.953125 L 158.26367 81.960938 L 158.3457 81.492188 L 157.80273 81.5 L 157.88477 81.03125 L 157.33789 81.039062 L 157.41992 80.568359 L 156.87305 80.576172 L 156.95508 80.101562 L 156.40625 80.111328 L 156.48828 79.634766 L 155.9375 79.644531 L 156.01953 79.167969 L 155.4668 79.177734 L 155.55078 78.697266 L 154.99414 78.707031 L 155.07812 78.226562 L 154.52148 78.236328 L 154.60547 77.751953 L 154.04688 77.761719 L 154.13086 77.277344 L 153.57031 77.287109 L 153.6543 76.800781 L 153.0918 76.810547 L 153.17578 76.322266 L 152.61328 76.332031 L 152.69727 75.84375 L 152.12891 75.853516 L 152.21484 75.361328 L 151.64648 75.371094 L 151.73242 74.878906 L 151.16211 74.888672 L 151.24805 74.394531 L 150.67578 74.404297 L 150.76172 73.908203 L 150.1875 73.917969 L 150.27344 73.419922 L 149.69922 73.429688 L 149.78516 72.931641 L 149.20703 72.941406 L 149.29297 72.439453 L 148.71484 72.449219 L 148.80078 71.947266 L 148.21875 71.957031 L 148.30664 71.453125 L 147.72266 71.462891 L 147.81055 70.957031 L 147.22461 70.966797 L 147.3125 70.458984 L 146.72656 70.46875 L 146.81445 69.960938 L 146.22461 69.970703 L 146.3125 69.458984 L 145.72266 69.46875 L 145.81055 68.957031 L 145.2168 68.966797 L 145.30664 68.453125 L 144.71094 68.462891 L 144.80078 67.947266 L 144.20312 67.957031 L 144.29297 67.439453 L 143.69531 67.449219 L 143.78516 66.931641 L 143.18359 66.941406 L 143.27344 66.419922 L 142.67188 66.429688 L 142.76172 65.908203 L 142.1582 65.917969 L 142.24805 65.394531 L 141.64062 65.404297 L 141.73242 64.878906 L 141.12305 64.888672 L 141.21484 64.361328 L 140.60547 64.371094 L 140.69727 63.84375 L 140.08398 63.853516 L 140.17578 63.322266 L 139.5625 63.332031 L 139.6543 62.800781 L 139.03906 62.810547 L 139.13086 62.277344 L 138.51367 62.287109 L 138.60547 61.751953 L 137.98438 61.761719 L 138.07812 61.226562 L 137.45703 61.236328 L 137.55078 60.697266 L 136.92773 60.707031 L 137.02148 60.167969 L 136.39453 60.177734 L 136.48828 59.636719 L 135.86133 59.646484 L 135.95508 59.101562 L 135.32617 59.111328 L 135.41992 58.568359 L 134.78906 58.578125 L 134.88477 58.03125 L 134.25 58.041016 L 134.3457 57.492188 L 133.71094 57.501953 L 133.80664 56.953125 L 133.16992 56.962891 L 133.26562 56.412109 L 132.62695 56.421875 L 132.72266 55.869141 L 132.08203 55.878906 L 132.17773 55.324219 L 131.53516 55.333984 L 131.63086 54.777344 L 130.98828 54.787109 L 131.08398 54.230469 L 130.43555 54.240234 L 130.5332 53.679688 L 129.88477 53.689453 L 129.98242 53.128906 L 129.33203 53.138672 L 129.42969 52.576172 L 128.77734 52.585938 L 128.875 52.021484 L 128.22266 52.03125 L 128.32031 51.466797 L 127.66406 51.476562 L 127.76172 50.908203 L 127.10352 50.917969 L 127.20312 50.349609 L 126.54102 50.359375 L 126.64062 49.789062 L 125.98047 49.798828 L 126.08008 49.226562 L 125.41602 49.236328 L 125.51562 48.662109 L 124.84961 48.671875 L 124.94922 48.095703 L 124.2832 48.105469 L 124.38281 47.529297 L 111.88086 47.728516 L 110.00586 58.501953 L 109.39258 58.501953 L 109.48633 57.964844 L 108.85352 57.964844 L 108.94727 57.427734 L 108.31445 57.427734 L 108.4082 56.886719 L 107.77344 56.886719 L 107.86719 56.345703 L 107.23047 56.345703 L 107.32422 55.802734 L 106.68555 55.802734 L 106.7793 55.257812 L 106.13867 55.257812 L 106.23242 54.712891 L 105.58984 54.712891 L 105.68555 54.164062 L 105.03906 54.164062 L 105.13477 53.615234 L 104.48828 53.615234 L 104.58398 53.064453 L 103.93555 53.064453 L 104.03125 52.509766 L 103.38086 52.509766 L 103.47656 51.957031 L 102.82422 51.957031 L 102.91992 51.400391 L 102.26758 51.400391 L 102.36328 50.841797 L 101.70898 50.841797 L 101.80469 50.283203 L 101.14453 50.283203 L 101.24219 49.722656 L 100.58203 49.722656 L 100.67969 49.160156 L 100.01953 49.160156 L 100.11719 48.595703 L 99.453125 48.595703 L 99.550781 48.029297 L 98.884766 48.029297 L 98.982422 47.462891 L 86.746094 47.462891 z "
       transform="translate(0,860.36216)"
       id="path15259" />
    <path
       transform="translate(0,860.36216)"
       inkscape:connector-curvature="0"
       style="display:inline;opacity:1;fill:#f5f5f5;fill-opacity:1;fill-rule:nonzero;stroke:none;stroke-width:15;stroke-linecap:butt;stroke-linejoin:miter;stroke-miterlimit:4;stroke-dasharray:none;stroke-dashoffset:0;stroke-opacity:1;filter:url(#filter16724)"
       d="m 86.177285,46.893999 -5.063416,28.309054 -17.887669,0 0,11.773966 15.781296,0 -3.406617,19.048391 -17.600879,0 0,11.83986 15.482879,0 -4.898713,27.38473 12.831999,-0.0679 4.724301,-27.31691 12.861069,0 -4.755319,27.31691 12.568454,-0.13177 4.71074,-27.18514 17.05055,0 0,-11.83986 -14.99844,0 3.30005,-19.04839 17.12224,0 0,-11.773967 -15.08175,0 4.89483,-28.243136 -12.50063,0.199599 -4.88321,28.043577 -12.911445,0 4.896779,-28.309055 -12.237099,0 z m 5.30565,40.08302 12.897875,0 -3.31748,19.048391 -12.874622,0 3.294227,-19.048391 z"
       id="rect8027" />
    <g
       id="g15202">
      <path
         style="display:inline;opacity:0.2;fill:#263238;fill-opacity:1;fill-rule:nonzero;stroke:none;stroke-width:15;stroke-linecap:butt;stroke-linejoin:miter;stroke-miterlimit:4;stroke-dasharray:none;stroke-dashoffset:0;stroke-opacity:1"
         d="M 98.240234 47.894531 L 93.517578 75.203125 L 93.691406 75.203125 L 98.414062 47.894531 L 98.240234 47.894531 z M 123.8125 47.958984 L 123.63867 47.960938 L 118.91797 75.203125 L 119.0918 75.203125 L 123.8125 47.958984 z M 63.226562 86.976562 L 63.226562 87.976562 L 78.828125 87.976562 L 79.007812 86.976562 L 63.226562 86.976562 z M 91.482422 86.976562 L 88.189453 106.02539 L 88.363281 106.02539 L 91.482422 87.976562 L 104.20703 87.976562 L 104.38086 86.976562 L 91.482422 86.976562 z M 116.87695 86.976562 L 113.57812 106.02539 L 113.75195 106.02539 L 116.87695 87.976562 L 134 87.976562 L 134 86.976562 L 116.87695 86.976562 z M 58 117.86523 L 58 118.86523 L 73.302734 118.86523 L 73.482422 117.86523 L 58 117.86523 z M 86.140625 117.86523 L 81.416016 145.18164 L 68.763672 145.25 L 68.583984 146.25 L 81.416016 146.18164 L 86.140625 118.86523 L 98.828125 118.86523 L 99.001953 117.86523 L 86.140625 117.86523 z M 111.52539 117.86523 L 106.81445 145.05078 L 94.419922 145.17969 L 94.246094 146.18164 L 106.81445 146.05078 L 111.52539 118.86523 L 128.57617 118.86523 L 128.57617 117.86523 L 111.52539 117.86523 z "
         transform="translate(0,860.36216)"
         id="path15194" />
      <path
         style="display:inline;opacity:0.2;fill:#ffffff;fill-opacity:1;fill-rule:nonzero;stroke:none;stroke-width:15;stroke-linecap:butt;stroke-linejoin:miter;stroke-miterlimit:4;stroke-dasharray:none;stroke-dashoffset:0;stroke-opacity:1"
         d="M 86.177734 46.894531 L 81.113281 75.203125 L 63.226562 75.203125 L 63.226562 76.203125 L 81.113281 76.203125 L 86.177734 47.894531 L 98.240234 47.894531 L 98.414062 46.894531 L 86.177734 46.894531 z M 123.8125 46.958984 L 111.3125 47.160156 L 106.42969 75.203125 L 93.691406 75.203125 L 93.517578 76.203125 L 106.42969 76.203125 L 111.3125 48.160156 L 123.63867 47.960938 L 123.8125 46.958984 z M 119.0918 75.203125 L 118.91797 76.203125 L 134 76.203125 L 134 75.203125 L 119.0918 75.203125 z M 78.828125 87.976562 L 75.601562 106.02539 L 58 106.02539 L 58 107.02539 L 75.601562 107.02539 L 79.007812 87.976562 L 78.828125 87.976562 z M 104.20703 87.976562 L 101.0625 106.02539 L 88.363281 106.02539 L 88.189453 107.02539 L 101.0625 107.02539 L 104.38086 87.976562 L 104.20703 87.976562 z M 113.75195 106.02539 L 113.57812 107.02539 L 128.57617 107.02539 L 128.57617 106.02539 L 113.75195 106.02539 z M 73.302734 118.86523 L 68.583984 145.25 L 68.763672 145.25 L 73.482422 118.86523 L 73.302734 118.86523 z M 98.828125 118.86523 L 94.246094 145.18164 L 94.419922 145.17969 L 99.001953 118.86523 L 98.828125 118.86523 z "
         transform="translate(0,860.36216)"
         id="path15197" />
    </g>
  </g>
  <g
     sodipodi:insensitive="true"
     inkscape:label="finish"
     id="layer3"
     inkscape:groupmode="layer">
    <path
       inkscape:connector-curvature="0"
       id="path4180"
       d="m 32,20 c -6,0 -12,6 -12,12 l 0,1 c 0,-6 6,-12 12,-12 l 128,0 c 6,0 12,6 12,12 l 0,-1 c 0,-6 -6,-12 -12,-12 L 32,20 Z"
       style="opacity:0.1;fill:#ffffff;fill-opacity:1;fill-rule:evenodd;stroke:none;stroke-width:1px;stroke-linecap:butt;stroke-linejoin:miter;stroke-opacity:1" />
    <path
       inkscape:connector-curvature="0"
       id="path4186"
       d="m 20,159 0,1 c 0,6 6,12 12,12 l 128,0 c 6,0 12,-6 12,-12 l 0,-1 c 0,6 -6,12 -12,12 l -128,0 c -6,0 -12,-6 -12,-12 z"
       style="opacity:0.2;fill:#263238;fill-opacity:1;fill-rule:evenodd;stroke:none;stroke-width:1px;stroke-linecap:butt;stroke-linejoin:miter;stroke-opacity:1" />
    <path
       style="opacity:0.1;fill:url(#radialGradient4200);fill-opacity:1;fill-rule:evenodd;stroke:none;stroke-width:0.1;stroke-linecap:butt;stroke-linejoin:miter;stroke-miterlimit:4;stroke-dasharray:none;stroke-opacity:1"
       d="m 32,880.36216 128,0 c 6,0 12,6 12,12 l 0,128.00004 c 0,6 -6,12 -12,12 l -128,0 c -6,0 -12,-6 -12,-12 l 0,-128.00004 c 0,-6 6,-12 12,-12 z"
       id="path4192"
       inkscape:connector-curvature="0"
       sodipodi:nodetypes="ccccccccc"
       transform="translate(0,-860.36216)" />
  </g>
</svg>
