<?xml version="1.0" encoding="UTF-8" standalone="no"?>
<!-- Created with Inkscape (http://www.inkscape.org/) -->

<svg
   xmlns:dc="http://purl.org/dc/elements/1.1/"
   xmlns:cc="http://creativecommons.org/ns#"
   xmlns:rdf="http://www.w3.org/1999/02/22-rdf-syntax-ns#"
   xmlns:svg="http://www.w3.org/2000/svg"
   xmlns="http://www.w3.org/2000/svg"
   xmlns:xlink="http://www.w3.org/1999/xlink"
   xmlns:sodipodi="http://sodipodi.sourceforge.net/DTD/sodipodi-0.dtd"
   xmlns:inkscape="http://www.inkscape.org/namespaces/inkscape"
   width="192"
   height="192"
   id="svg2"
   version="1.1"
   inkscape:version="0.91 r13725"
   sodipodi:docname="supersu.svg"
   inkscape:export-filename="C:\Users\Simon\Documents\Material Design Icons\PNG\supersu.png"
   inkscape:export-xdpi="90"
   inkscape:export-ydpi="90">
  <sodipodi:namedview
     id="base"
     pagecolor="#ffffff"
     bordercolor="#666666"
     borderopacity="1.0"
     inkscape:pageopacity="0.0"
     inkscape:pageshadow="2"
     inkscape:zoom="0.70710678"
     inkscape:cx="670.67027"
     inkscape:cy="67.948982"
     inkscape:document-units="px"
     inkscape:current-layer="layer4"
     showgrid="false"
     showguides="false"
     inkscape:guide-bbox="true"
     inkscape:window-width="1920"
     inkscape:window-height="1017"
     inkscape:window-x="-8"
     inkscape:window-y="-8"
     inkscape:window-maximized="1"
     inkscape:snap-global="false">
    <inkscape:grid
       type="xygrid"
       id="grid2985"
       empspacing="5"
       visible="true"
       enabled="true"
       snapvisiblegridlinesonly="true" />
    <sodipodi:guide
       orientation="1,0"
       position="8,58.524064"
       id="guide3002" />
    <sodipodi:guide
       orientation="1,0"
       position="20,69.304813"
       id="guide3004" />
    <sodipodi:guide
       orientation="1,0"
       position="32,62.631016"
       id="guide3006" />
    <sodipodi:guide
       orientation="1,0"
       position="68,53.390374"
       id="guide3008" />
    <sodipodi:guide
       orientation="0,1"
       position="119.61497,8"
       id="guide3010" />
    <sodipodi:guide
       orientation="0,1"
       position="155.5508,20"
       id="guide3012" />
    <sodipodi:guide
       orientation="0,1"
       position="132.96257,32"
       id="guide3014" />
    <sodipodi:guide
       orientation="0,1"
       position="130.90909,68"
       id="guide3016" />
    <sodipodi:guide
       orientation="0,1"
       position="137.06952,184"
       id="guide3018" />
    <sodipodi:guide
       orientation="1,0"
       position="184,145.79679"
       id="guide3020" />
    <sodipodi:guide
       orientation="0,1"
       position="91.379679,172"
       id="guide3022" />
    <sodipodi:guide
       orientation="1,0"
       position="172.15693,140.10142"
       id="guide3024" />
    <sodipodi:guide
       orientation="0,1"
       position="149.39037,160"
       id="guide3026" />
    <sodipodi:guide
       orientation="1,0"
       position="160,88.299465"
       id="guide3028" />
    <sodipodi:guide
       orientation="0,1"
       position="128.34225,124"
       id="guide3030" />
    <sodipodi:guide
       orientation="1,0"
       position="124,92.919786"
       id="guide3032" />
  </sodipodi:namedview>
  <defs
     id="defs4">
    <linearGradient
       inkscape:collect="always"
       id="linearGradient4237">
      <stop
         style="stop-color:#263238;stop-opacity:1;"
         offset="0"
         id="stop4239" />
      <stop
         style="stop-color:#263238;stop-opacity:0;"
         offset="1"
         id="stop4241" />
    </linearGradient>
    <linearGradient
       inkscape:collect="always"
       id="linearGradient7772">
      <stop
         style="stop-color:#ffffff;stop-opacity:1;"
         offset="0"
         id="stop7774" />
      <stop
         style="stop-color:#ffffff;stop-opacity:0;"
         offset="1"
         id="stop7776" />
    </linearGradient>
    <linearGradient
       inkscape:collect="always"
       id="linearGradient7764">
      <stop
         style="stop-color:#ffffff;stop-opacity:1;"
         offset="0"
         id="stop7766" />
      <stop
         style="stop-color:#ffffff;stop-opacity:0;"
         offset="1"
         id="stop7768" />
    </linearGradient>
    <filter
       style="color-interpolation-filters:sRGB;"
       inkscape:label="Drop Shadow"
       id="filter7743">
      <feFlood
         flood-opacity="0.29999999999999999"
         flood-color="rgb(0,0,0)"
         result="flood"
         id="feFlood7745" />
      <feComposite
         in="flood"
         in2="SourceGraphic"
         operator="in"
         result="composite1"
         id="feComposite7747" />
      <feGaussianBlur
         in="composite1"
         stdDeviation="3"
         result="blur"
         id="feGaussianBlur7749" />
      <feOffset
         dx="4.57967e-015"
         dy="3"
         result="offset"
         id="feOffset7751" />
      <feComposite
         in="SourceGraphic"
         in2="offset"
         operator="over"
         result="composite2"
         id="feComposite7753" />
    </filter>
    <radialGradient
       inkscape:collect="always"
       xlink:href="#linearGradient7764"
       id="radialGradient7770"
       cx="20.009592"
       cy="20.198151"
       fx="20.009592"
       fy="20.198149"
       r="75.999997"
       gradientUnits="userSpaceOnUse"
       gradientTransform="matrix(0.00253475,1.9947837,-2.002355,0.00254437,60.402743,-19.768048)" />
    <radialGradient
       inkscape:collect="always"
       xlink:href="#linearGradient7772"
       id="radialGradient7778"
       cx="20.009592"
       cy="20.198151"
       fx="20.009592"
       fy="20.198151"
       r="75.999997"
       gradientUnits="userSpaceOnUse"
       gradientTransform="matrix(0.00253472,1.9947836,-2.0023549,0.00254435,60.40274,-19.768047)" />
    <filter
       id="filter9347"
       inkscape:label="Drop Shadow"
       style="color-interpolation-filters:sRGB;">
      <feFlood
         id="feFlood9349"
         result="flood"
         flood-color="rgb(0,0,0)"
         flood-opacity="0.101961" />
      <feComposite
         id="feComposite9351"
         result="composite1"
         operator="in"
         in2="SourceGraphic"
         in="flood" />
      <feGaussianBlur
         id="feGaussianBlur9353"
         result="blur"
         stdDeviation="3"
         in="composite1" />
      <feOffset
         id="feOffset9355"
         result="offset"
         dy="3"
         dx="4.57967e-015" />
      <feComposite
         id="feComposite9357"
         result="composite2"
         operator="over"
         in2="offset"
         in="SourceGraphic" />
    </filter>
    <filter
       style="color-interpolation-filters:sRGB;"
       inkscape:label="Drop Shadow"
       id="filter5742">
      <feFlood
         flood-opacity="0.101961"
         flood-color="rgb(0,0,0)"
         result="flood"
         id="feFlood5744" />
      <feComposite
         in="flood"
         in2="SourceGraphic"
         operator="in"
         result="composite1"
         id="feComposite5746" />
      <feGaussianBlur
         in="composite1"
         stdDeviation="3"
         result="blur"
         id="feGaussianBlur5748" />
      <feOffset
         dx="4.57967e-015"
         dy="3"
         result="offset"
         id="feOffset5750" />
      <feComposite
         in="SourceGraphic"
         in2="offset"
         operator="over"
         result="composite2"
         id="feComposite5752" />
    </filter>
    <clipPath
       clipPathUnits="userSpaceOnUse"
       id="clipPath5762">
      <g
         id="g5764">
        <rect
           ry="10.827893"
           y="20.498438"
           x="20.498438"
           height="150.03645"
           width="151.00313"
           id="rect5766"
           style="opacity:1;fill:#339489;fill-opacity:1;stroke:#339489;stroke-width:0.99686927;stroke-linejoin:round;stroke-miterlimit:4;stroke-dasharray:none;stroke-opacity:1" />
        <rect
           ry="10.827893"
           y="21.465105"
           x="20.498438"
           height="150.03645"
           width="151.00313"
           id="rect5768"
           style="opacity:1;fill:#006d60;fill-opacity:1;stroke:#006d60;stroke-width:0.99699998;stroke-linejoin:round;stroke-miterlimit:4;stroke-dasharray:none;stroke-opacity:1" />
        <rect
           style="fill:#00796b;fill-opacity:1;stroke:#00796b;stroke-width:0.99361873;stroke-linejoin:round;stroke-miterlimit:4;stroke-dasharray:none;stroke-opacity:1"
           id="rect5770"
           width="151.00638"
           height="149.05637"
           x="20.496813"
           y="21.46348"
           ry="10.757162" />
      </g>
    </clipPath>
    <filter
       id="filter7454"
       inkscape:label="Drop Shadow"
       style="color-interpolation-filters:sRGB;">
      <feFlood
         id="feFlood7456"
         result="flood"
         flood-color="rgb(0,0,0)"
         flood-opacity="0.101961" />
      <feComposite
         id="feComposite7458"
         result="composite1"
         operator="in"
         in2="SourceGraphic"
         in="flood" />
      <feGaussianBlur
         id="feGaussianBlur7460"
         result="blur"
         stdDeviation="3"
         in="composite1" />
      <feOffset
         id="feOffset7462"
         result="offset"
         dy="3"
         dx="4.57967e-015" />
      <feComposite
         id="feComposite7464"
         result="composite2"
         operator="over"
         in2="offset"
         in="SourceGraphic" />
    </filter>
    <filter
       style="color-interpolation-filters:sRGB;"
       inkscape:label="Drop Shadow"
       id="filter9646">
      <feFlood
         flood-opacity="0.101961"
         flood-color="rgb(0,0,0)"
         result="flood"
         id="feFlood9648" />
      <feComposite
         in="flood"
         in2="SourceGraphic"
         operator="in"
         result="composite1"
         id="feComposite9650" />
      <feGaussianBlur
         in="composite1"
         stdDeviation="3"
         result="blur"
         id="feGaussianBlur9652" />
      <feOffset
         dx="4.57967e-015"
         dy="3"
         result="offset"
         id="feOffset9654" />
      <feComposite
         in="SourceGraphic"
         in2="offset"
         operator="over"
         result="composite2"
         id="feComposite9656" />
    </filter>
    <linearGradient
       inkscape:collect="always"
       xlink:href="#linearGradient4237"
       id="linearGradient4243"
       x1="50.314777"
       y1="49.440731"
       x2="172.41931"
       y2="172.00591"
       gradientUnits="userSpaceOnUse" />
    <filter
       style="color-interpolation-filters:sRGB;"
       inkscape:label="Drop Shadow"
       id="filter4257"
       width="1.4300000000000002"
       height="1.4100000000000001"
       y="-0.20000000000000007">
      <feFlood
         flood-opacity="0.20000000000000001"
         flood-color="rgb(38,50,56)"
         result="flood"
         id="feFlood4259" />
      <feComposite
         in="flood"
         in2="SourceGraphic"
         operator="in"
         result="composite1"
         id="feComposite4261" />
      <feGaussianBlur
         in="composite1"
         stdDeviation="6"
         result="blur"
         id="feGaussianBlur4263" />
      <feOffset
         dx="4.57967e-015"
         dy="6"
         result="offset"
         id="feOffset4265" />
      <feComposite
         in="SourceGraphic"
         in2="offset"
         operator="over"
         result="composite2"
         id="feComposite4267" />
    </filter>
    <clipPath
       clipPathUnits="userSpaceOnUse"
       id="clipPath4277">
      <g
         id="g4279">
        <rect
           ry="10.827893"
           y="20.498438"
           x="20.498438"
           height="150.03645"
           width="151.00313"
           id="rect4281"
           style="opacity:1;fill:#339489;fill-opacity:1;stroke:#339489;stroke-width:0.99686927;stroke-linejoin:round;stroke-miterlimit:4;stroke-dasharray:none;stroke-opacity:1" />
        <rect
           ry="10.827893"
           y="21.465105"
           x="20.498438"
           height="150.03645"
           width="151.00313"
           id="rect4283"
           style="opacity:1;fill:#006d60;fill-opacity:1;stroke:#006d60;stroke-width:0.99699998;stroke-linejoin:round;stroke-miterlimit:4;stroke-dasharray:none;stroke-opacity:1" />
        <rect
           style="fill:#00796b;fill-opacity:1;stroke:#00796b;stroke-width:0.99361873;stroke-linejoin:round;stroke-miterlimit:4;stroke-dasharray:none;stroke-opacity:1"
           id="rect4285"
           width="151.00638"
           height="149.05637"
           x="20.496813"
           y="21.46348"
           ry="10.757162" />
      </g>
    </clipPath>
  </defs>
  <metadata
     id="metadata7">
    <rdf:RDF>
      <cc:Work
         rdf:about="">
        <dc:format>image/svg+xml</dc:format>
        <dc:type
           rdf:resource="http://purl.org/dc/dcmitype/StillImage" />
        <dc:title />
      </cc:Work>
    </rdf:RDF>
  </metadata>
  <g
     inkscape:groupmode="layer"
     id="layer6"
     inkscape:label="Square 2"
     style="display:inline"
     sodipodi:insensitive="true">
    <rect
       ry="10.897427"
       y="20.500031"
       x="20.500031"
       height="150.99994"
       width="150.99994"
       id="rect7720"
       style="display:inline;fill:#009688;fill-opacity:1;stroke:#009688;stroke-width:1.00005436;stroke-linejoin:round;stroke-miterlimit:4;stroke-dasharray:none;stroke-opacity:1;filter:url(#filter7743)" />
  </g>
  <g
     inkscape:groupmode="layer"
     id="layer4"
     inkscape:label="Square"
     style="display:inline">
    <rect
       ry="10.827893"
       y="20.498438"
       x="20.498438"
       height="150.03645"
       width="151.00313"
       id="rect7755"
       style="opacity:0.2;fill:#339489;fill-opacity:1;stroke:#ffffff;stroke-width:0.99686927;stroke-linejoin:round;stroke-miterlimit:4;stroke-dasharray:none;stroke-opacity:1" />
    <rect
       ry="10.827893"
       y="21.465105"
       x="20.498438"
       height="150.03645"
       width="151.00313"
       id="rect7757"
       style="opacity:0.2;fill:#0a6c62;fill-opacity:1;stroke:#263238;stroke-width:0.99699998;stroke-linejoin:round;stroke-miterlimit:4;stroke-dasharray:none;stroke-opacity:1" />
    <rect
       style="fill:#009688;fill-opacity:1;stroke:#009688;stroke-width:0.99361873;stroke-linejoin:round;stroke-miterlimit:4;stroke-dasharray:none;stroke-opacity:1"
       id="rect3811"
       width="151.00638"
       height="149.05637"
       x="20.496813"
       y="21.46348"
       ry="10.757162" />
    <flowRoot
       style="font-style:normal;font-variant:normal;font-weight:normal;font-stretch:normal;font-size:40px;line-height:125%;font-family:roboto;-inkscape-font-specification:roboto;letter-spacing:0px;word-spacing:0px;fill:#000000;fill-opacity:1;stroke:none;stroke-width:1px;stroke-linecap:butt;stroke-linejoin:miter;stroke-opacity:1"
       id="flowRoot9367"
       xml:space="preserve"><flowRegion
         id="flowRegion9369"><rect
           style="font-style:normal;font-variant:normal;font-weight:normal;font-stretch:normal;font-family:roboto;-inkscape-font-specification:roboto"
           y="31.533901"
           x="31.866945"
           height="128.4106"
           width="128.97627"
           id="rect9371" /></flowRegion><flowPara
         id="flowPara9373" /></flowRoot>    <flowRoot
       style="font-style:normal;font-variant:normal;font-weight:normal;font-stretch:normal;font-size:40px;line-height:125%;font-family:Roboto;-inkscape-font-specification:Roboto;letter-spacing:0px;word-spacing:0px;fill:#000000;fill-opacity:1;stroke:none;stroke-width:1px;stroke-linecap:butt;stroke-linejoin:miter;stroke-opacity:1"
       id="flowRoot4182"
       xml:space="preserve"><flowRegion
         id="flowRegion4184"><rect
           style="font-style:normal;font-variant:normal;font-weight:normal;font-stretch:normal;font-family:Roboto;-inkscape-font-specification:Roboto"
           y="31.911026"
           x="31.866945"
           height="128.41058"
           width="128.78772"
           id="rect4186" /></flowRegion><flowPara
         id="flowPara4188" /></flowRoot>    <flowRoot
       xml:space="preserve"
       id="flowRoot5772"
       style="font-style:normal;font-variant:normal;font-weight:normal;font-stretch:normal;font-size:40px;line-height:125%;font-family:'Roboto Condensed';-inkscape-font-specification:'Roboto Condensed, ';letter-spacing:0px;word-spacing:0px;fill:#000000;fill-opacity:1;stroke:none;stroke-width:1px;stroke-linecap:butt;stroke-linejoin:miter;stroke-opacity:1"><flowRegion
         id="flowRegion5774"><rect
           id="rect5776"
           width="48"
           height="43.733334"
           x="44"
           y="39.466667"
           style="font-style:normal;font-variant:normal;font-weight:normal;font-stretch:normal;font-family:'Roboto Condensed';-inkscape-font-specification:'Roboto Condensed, '" /></flowRegion><flowPara
         id="flowPara5778" /></flowRoot>    <text
       xml:space="preserve"
       style="font-style:normal;font-weight:normal;font-size:40px;line-height:125%;font-family:sans-serif;letter-spacing:0px;word-spacing:0px;fill:#000000;fill-opacity:1;stroke:none;stroke-width:1px;stroke-linecap:butt;stroke-linejoin:miter;stroke-opacity:1"
       x="53.333332"
       y="57.333336"
       id="text5780"
       sodipodi:linespacing="125%"><tspan
         sodipodi:role="line"
         id="tspan5782"
         x="53.333332"
         y="57.333336" /></text>
    <path
       style="opacity:0.2;fill:url(#linearGradient4243);fill-opacity:1;fill-rule:nonzero;stroke:none;stroke-width:15;stroke-linecap:butt;stroke-linejoin:miter;stroke-miterlimit:4;stroke-dasharray:none;stroke-dashoffset:0;stroke-opacity:1"
       d="m 86.634766,46.701172 -5.103516,28.533203 -18.029297,0 0,11.867187 0.568359,0 0,0.56836 0.564454,0 0,0.564453 0.564453,0 0,0.564453 0.5625,0 0,0.5625 0.560547,0 0,0.560547 0.560546,0 0,0.560547 0.556641,0 0,0.55664 0.556641,0 0,0.556641 0.554687,0 0,0.554688 0.552735,0 0,0.552734 0.550781,0 0,0.550781 0.548828,0 0,0.548828 0.548828,0 0,0.548828 0.546875,0 0,0.546876 0.542969,0 0,0.542968 0.542969,0 0,0.542969 0.542968,0 0,0.542969 0.539063,0 0,0.539062 0.539062,0 0,0.539063 0.535157,0 0,0.535156 0.535156,0 0,0.535156 0.533203,0 0,0.533203 0.53125,0 0,0.53125 0.53125,0 0,0.531246 0.380859,0 -1.078125,6.0293 -17.740234,0 0,11.9336 0.568359,0 0,0.56835 0.564454,0 0,0.56446 0.564453,0 0,0.56445 0.5625,0 0,0.5625 0.560547,0 0,0.56055 0.560546,0 0,0.56054 0.556641,0 0,0.55665 0.556641,0 0,0.55664 0.554687,0 0,0.55468 0.552735,0 0,0.55274 0.550781,0 0,0.55078 0.548828,0 0,0.54883 0.548828,0 0,0.54883 0.546875,0 0,0.54687 0.542969,0 0,0.54297 0.542969,0 0,0.54297 0.542968,0 0,0.54297 0.539063,0 0,0.53906 0.539062,0 0,0.53906 0.535157,0 0,0.53516 0.535156,0 0,0.53515 0.533203,0 0,0.53321 0.53125,0 0,0.53125 0.53125,0 0,0.53125 0.07813,0 -2.580078,14.43164 0.669922,-0.004 -0.101563,0.57227 0.666016,-0.004 -0.101563,0.56836 0.666016,-0.004 -0.101563,0.56836 0.664063,-0.004 -0.101563,0.5664 0.66211,-0.004 -0.101563,0.56445 0.66211,-0.004 -0.101563,0.56446 0.65625,-0.004 -0.09961,0.56055 0.65625,-0.004 -0.09961,0.56055 0.654297,-0.004 -0.09961,0.5586 0.652344,-0.004 -0.09961,0.55664 0.650391,-0.004 -0.09961,0.55469 0.648437,-0.004 -0.09961,0.55273 0.648437,-0.004 -0.09961,0.55274 0.644531,-0.004 -0.09766,0.55078 0.640625,-0.004 -0.09766,0.54687 0.640624,-0.004 -0.09766,0.54687 0.640625,-0.004 -0.09766,0.54688 0.636719,-0.004 -0.09766,0.54297 0.636718,-0.004 -0.09766,0.54296 0.630859,-0.004 -0.0957,0.53906 0.63086,-0.004 -0.0957,0.53907 0.628907,-0.004 -0.0957,0.53711 0.626953,-0.004 -0.0957,0.53516 0.626953,-0.004 -0.0957,0.53516 0.623046,-0.004 -0.0957,0.53125 0.623047,-0.004 -0.0957,0.53125 0.619141,-0.004 -0.09375,0.5293 0.617187,-0.004 -0.09375,0.52735 0.615235,-0.004 -0.09375,0.52539 0.615234,-0.004 -0.09375,0.52539 0.611328,-0.004 -0.09375,0.52148 0.611328,-0.004 -0.09375,0.52148 0.609375,-0.004 -0.09375,0.51953 0.605469,-0.004 -0.0918,0.51758 0.603516,-0.004 -0.0918,0.51563 0.601562,-0.004 -0.0918,0.51367 0.601562,-0.004 -0.0918,0.51367 0.599609,-0.004 -0.0918,0.51172 0.597656,-0.004 -0.0918,0.50977 0.59375,-0.004 -0.08984,0.50781 0.591797,-0.004 -0.08984,0.50586 0.589844,-0.004 -0.08984,0.50391 0.589844,-0.004 -0.08984,0.50391 0.587891,-0.004 -0.08984,0.50195 0.585938,-0.004 -0.08984,0.5 0.583984,-0.004 -0.08984,0.49805 0.580078,-0.004 -0.08789,0.4961 0.578125,-0.004 -0.08789,0.49414 0.578124,-0.004 -0.08789,0.49414 0.576172,-0.004 -0.08789,0.49219 0.574219,-0.004 -0.08789,0.49023 0.572266,-0.004 -0.08789,0.48828 0.56836,-0.004 -0.08594,0.48633 0.566406,-0.004 -0.08594,0.48437 0.566406,-0.004 -0.08594,0.48438 0.564453,-0.004 -0.08594,0.48243 0.5625,-0.004 -0.08594,0.48047 0.560547,-0.004 -0.08594,0.47852 0.558594,-0.004 -0.08594,0.47656 0.558589,-0.004 -0.0859,0.47656 0.55273,-0.002 -0.084,0.4707 0.55273,-0.002 -0.084,0.4707 0.55078,-0.002 -0.084,0.46875 0.54883,-0.002 -0.084,0.4668 0.54687,-0.002 -0.084,0.46484 0.54687,-0.002 -0.084,0.46484 0.54297,-0.002 -0.082,0.46289 0.53907,-0.002 -0.082,0.45898 0.53906,-0.002 -0.082,0.45898 0.53711,-0.002 -0.082,0.45703 0.53711,-0.002 -0.082,0.45703 0.53321,-0.002 -0.082,0.45313 0.5332,-0.002 -0.082,0.45312 0.52929,-0.002 -0.0801,0.45117 0.52734,-0.002 -0.0801,0.44922 0.52539,-0.002 -0.0801,0.44727 0.52344,-0.002 -0.0801,0.44532 0.52344,-0.002 -0.0801,0.44532 0.51953,-0.002 -0.0801,0.44141 0.51953,-0.002 -0.0801,0.4414 0.51562,-0.002 -0.0781,0.43945 0.51367,-0.002 -0.0781,0.4375 0.51367,-0.002 -0.0781,0.4375 0.50977,-0.002 -0.0781,0.4336 0.50977,-0.002 -0.0781,0.4336 0.50782,-0.002 -0.0781,0.43165 0.50391,-0.002 -0.0762,0.42969 0.50195,-0.002 -0.0762,0.42773 0.5,-0.002 -0.0762,0.42578 0.5,-0.002 -0.0762,0.42578 0.4961,-0.002 -0.0762,0.42188 0.49609,-0.002 -0.0762,0.42187 0.49414,-0.002 -0.0762,0.41992 0.49023,-0.002 -0.0742,0.41797 0.49024,-0.002 -0.0742,0.41797 0.48633,-0.002 -0.0742,0.41406 0.48632,-0.002 -0.0742,0.41406 0.48437,-0.002 -0.0742,0.41211 0.48242,-0.002 -0.0742,0.41016 0.47851,-0.002 -0.0723,0.4082 0.47851,-0.002 -0.0723,0.4082 0.47461,-0.002 -0.0723,0.40429 0.47461,-0.002 -0.0723,0.4043 0.47266,-0.002 -0.0723,0.40235 0.47071,-0.002 -0.0723,0.4004 0.46875,-0.002 -0.0723,0.39844 0.46484,-0.002 -0.0703,0.39648 0.46484,-0.002 -0.0703,0.39648 0.46289,-0.002 -0.0703,0.39453 0.46093,-0.002 -0.0703,0.39257 0.45899,-0.002 -0.0703,0.39063 0.45703,-0.002 -0.0703,0.38868 0.45313,-0.002 -0.0684,0.38672 0.45312,-0.002 -0.0684,0.38672 0.45117,-0.002 -0.0683,0.38477 0.44726,-0.002 -0.0684,0.38086 0.44922,-0.002 -0.0684,0.38281 0.44531,-0.002 -0.0684,0.37891 0.44336,-0.002 -0.0684,0.37696 0.44336,-0.002 -0.0684,0.37696 0.43946,-0.002 -0.0664,0.375 0.43555,-0.002 -0.0664,0.3711 0.4375,-0.002 -0.0664,0.37305 0.43359,-0.002 -0.0664,0.36914 0.43164,-0.002 -0.0664,0.36719 0.43164,-0.002 -0.0664,0.36719 0.42774,-0.002 -0.0645,0.36524 0.42578,-0.002 -0.0644,0.36328 0.42383,-0.002 -0.0645,0.36133 0.42187,-0.002 -0.0644,0.35937 0.41992,-0.002 -0.0644,0.35742 0.41992,-0.002 -0.0644,0.35742 0.41796,-0.002 -0.0644,0.35547 0.41406,-0.002 -0.0625,0.35352 0.41211,-0.002 -0.0625,0.35157 0.41016,-0.002 -0.0625,0.34961 0.41016,-0.002 -0.0625,0.34961 0.40625,-0.002 -0.0625,0.3457 0.40625,-0.002 -0.0625,0.3457 0.40429,-0.002 -0.0625,0.34375 0.40039,-0.002 -0.0605,0.3418 0.39843,-0.002 -0.0605,0.33984 0.39843,-0.002 -0.0605,0.33984 0.39453,-0.002 -0.0606,0.33594 0.39453,-0.002 -0.0605,0.33594 0.39257,-0.002 -0.0605,0.33398 0.38867,-0.002 -0.0586,0.33203 0.38867,-0.002 -0.0586,0.33203 0.38477,-0.002 -0.0586,0.32813 0.38476,-0.002 -0.0586,0.32812 0.38281,-0.002 -0.0586,0.32617 0.38086,-0.002 -0.0586,0.32422 0.37891,-0.002 -0.0586,0.32227 0.375,-0.002 -0.0566,0.32032 0.375,-0.002 -0.0566,0.32032 0.3711,-0.002 -0.0566,0.31641 0.37109,-0.002 -0.0566,0.3164 0.36914,-0.002 -0.0566,0.31445 0.36719,-0.002 -0.0566,0.3125 0.36718,-0.002 -0.0566,0.3125 0.36133,-0.002 -0.0547,0.3086 0.36133,-0.002 -0.0547,0.3086 0.35938,-0.002 -0.0547,0.30665 0.35742,-0.002 -0.0547,0.30469 0.35547,-0.002 -0.0547,0.30273 0.35351,-0.002 -0.0547,0.30078 0.35351,-0.002 -0.0547,0.30078 0.34766,-0.002 -0.0527,0.29688 0.34765,-0.002 -0.0527,0.29687 0.3457,-0.002 -0.0527,0.29492 0.34375,-0.002 -0.0527,0.29297 0.34375,-0.002 -0.0527,0.29297 0.33789,-0.002 -0.0508,0.28906 0.33789,-0.002 -0.0508,0.28906 0.33593,-0.002 -0.0508,0.28711 0.33399,-0.002 -0.0508,0.28516 0.33203,-0.002 -0.0508,0.2832 0.33007,-0.002 -0.0508,0.28125 0.33008,-0.002 -0.0508,0.28125 0.32812,-0.002 -0.0508,0.2793 0.32422,-0.002 -0.0488,0.27735 0.32227,-0.002 -0.0488,0.2754 0.32031,-0.002 -0.0488,0.27344 0.31835,-0.002 -0.0488,0.27148 0.31836,-0.002 -0.0488,0.27148 0.3164,-0.002 -0.0488,0.26953 0.31054,-0.002 -0.0469,0.26562 0.31054,-0.002 -0.0469,0.26562 0.31055,-0.002 -0.0469,0.26563 0.30664,-0.002 -0.0469,0.26172 0.30664,-0.002 -0.0469,0.26172 0.30274,-0.002 -0.0469,0.25782 0.30274,-0.002 -0.0469,0.25782 0.29883,-0.002 -0.0449,0.25586 0.29883,-0.002 -0.0449,0.25586 0.29493,-0.002 -0.0449,0.25196 0.29493,-0.002 -0.0449,0.25196 0.29102,-0.002 -0.0449,0.24805 0.29101,-0.002 -0.0449,0.24805 0.28906,-0.002 -0.0449,0.2461 0.28907,-0.002 -0.0449,0.2461 0.28321,-0.002 -0.043,0.24219 0.2832,-0.002 -0.043,0.24219 0.2793,-0.002 -0.043,0.23828 0.2793,-0.002 -0.043,0.23828 0.2793,-0.002 -0.043,0.23828 0.27343,-0.002 -0.041,0.23437 0.27148,-0.002 -0.041,0.23242 0.27148,-0.002 -0.041,0.23242 0.26953,-0.002 -0.041,0.23047 0.26758,-0.002 -0.041,0.22852 0.26563,-0.002 -0.041,0.22657 0.26367,-0.002 -0.041,0.22461 0.25977,-0.002 -0.0391,0.22266 0.25977,-0.002 -0.0391,0.22266 0.25781,-0.002 -0.0391,0.2207 0.25585,-0.002 -0.0391,0.21875 0.25391,-0.002 -0.0391,0.2168 0.25195,-0.002 -0.0391,0.21484 0.25195,-0.002 -0.0391,0.21484 0.24609,-0.002 -0.0371,0.21094 0.2461,-0.002 -0.0371,0.21094 0.24414,-0.002 -0.0371,0.20898 0.24219,-0.002 -0.0371,0.20703 0.24218,-0.002 -0.0371,0.20703 0.23828,-0.002 -0.0371,0.20313 0.23828,-0.002 -0.0371,0.20312 0.23242,-0.002 -0.0352,0.19922 0.23243,-0.002 -0.0352,0.19922 0.23242,-0.002 -0.0352,0.19922 0.22852,-0.002 -0.0352,0.19532 0.22657,-0.002 -0.0352,0.19336 0.22656,-0.002 -0.0352,0.19336 0.22265,-0.002 -0.0332,0.1914 0.2207,-0.002 -0.0332,0.18945 0.21875,-0.002 -0.0332,0.1875 0.21679,-0.002 -0.0332,0.18554 0.2168,-0.002 -0.0332,0.18555 0.21485,-0.002 -0.0332,0.1836 0.20899,-0.002 -0.0312,0.17969 0.20898,-0.002 -0.0312,0.17969 0.20899,-0.002 -0.0312,0.17969 0.20508,-0.002 -0.0312,0.17578 0.20507,-0.002 -0.0312,0.17578 0.20118,-0.002 -0.0312,0.17188 0.20117,-0.002 -0.0312,0.17187 0.19726,-0.002 -0.0293,0.16992 0.19531,-0.002 -0.0293,0.16797 0.19531,-0.002 -0.0293,0.16797 0.1914,-0.002 -0.0293,0.16406 0.1914,-0.002 -0.0293,0.16406 0.18945,-0.002 -0.0293,0.16211 0.1875,-0.002 -0.0293,0.16016 0.18359,0 -0.0273,0.15625 0.18164,0 -0.0273,0.1543 0.18164,0 -0.0273,0.15429 0.17969,0 -0.0274,0.15235 0.17774,0 -0.0273,0.15039 0.17578,0 -0.0273,0.14844 0.17383,0 -0.0273,0.14648 0.16992,0 -0.0254,0.14453 0.16992,0 -0.0254,0.14453 0.16601,0 -0.0254,0.14063 0.16602,0 -0.0254,0.14062 0.16406,0 -0.0254,0.13867 0.16406,0 -0.0254,0.13868 0.1582,0 -0.0234,0.13476 0.1582,0 -0.0234,0.13477 0.1543,0 -0.0234,0.13086 0.1543,0 -0.0234,0.13086 0.15235,0 -0.0234,0.1289 0.15234,0 -0.0234,0.12891 0.14844,0 -0.0234,0.125 0.14844,0 -0.0234,0.125 0.14258,0 -0.0215,0.12109 0.14258,0 -0.0215,0.1211 0.14063,0 -0.0215,0.11914 0.14063,0 -0.0215,0.11914 0.13672,0 -0.0215,0.11523 0.13672,0 -0.0215,0.11524 0.13086,0 -0.0195,0.11132 0.13086,0 -0.0195,0.11133 0.1289,0 -0.0195,0.10938 0.12891,0 -0.0195,0.10937 0.125,0 -0.0195,0.10547 0.125,0 -0.0195,0.10547 0.12304,0 -0.0195,0.10352 0.11914,0 -0.0176,0.10156 0.11719,0 -0.0176,0.0996 0.11524,0 -0.0176,0.0976 0.11328,0 -0.0176,0.0957 0.11328,0 -0.0176,0.0957 0.11132,0 -0.0176,0.0937 0.10742,0 -0.0156,0.0918 0.10547,0 -0.0156,0.0898 0.10351,0 -0.0156,0.0879 0.10351,0 -0.0156,0.0879 0.0996,0 -0.0156,0.084 0.0996,0 -0.0156,0.084 0.0977,0 -0.0156,0.082 0.0937,0 -0.0137,0.0801 0.0937,0 -0.0137,0.0801 0.0898,0 -0.0137,0.0762 0.0898,0 -0.0137,0.0762 0.0859,0 -0.0137,0.0723 0.0859,0 -0.0137,0.0723 0.0859,0 -0.0137,0.0723 0.0801,0 -0.0117,0.0684 0.0781,0 -0.0117,0.0664 0.0781,0 -0.0117,0.0664 0.0762,0 -0.0117,0.0644 0.0742,0 -0.0117,0.0625 0.0723,0 -0.0117,0.0606 0.0684,0 -0.01,0.0586 0.0684,0 -0.01,0.0586 0.0664,0 -0.01,0.0566 0.0625,0 -0.01,0.0527 0.0625,0 -0.01,0.0527 0.0625,0 -0.01,0.0527 0.0586,0 -0.01,0.0488 0.0547,0 -0.008,0.0469 0.0547,0 -0.008,0.0469 0.0527,0 -0.008,0.0449 0.0508,0 -0.008,0.043 0.0488,0 -0.008,0.041 0.0488,0 -0.008,0.041 0.043,0 -0.006,0.0371 0.043,0 -0.006,0.0371 0.041,0 -0.006,0.0352 0.0391,0 -0.006,0.0332 0.0371,0 -0.006,0.0312 0.0351,0 -0.006,0.0293 0.0352,0 -0.006,0.0293 0.0332,0 -0.006,0.0274 0.0274,0 -0.004,0.0234 0.0293,0 -0.004,0.0254 0.0254,0 -0.004,0.0215 0.0234,0 -0.004,0.0195 0.0234,0 -0.004,0.0195 0.0176,0 -0.002,0.0156 0.0176,0 -0.002,0.0156 0.0156,0 -0.002,0.0137 0.0156,0 -0.002,0.0137 0.0117,0 -0.002,0.01 0.0117,0 -0.002,0.01 0.008,0 -0.002,0.006 0.008,0 -0.002,0.006 0.004,0 0,0.004 0.004,0 0,0.004 12.9336,-0.0684 1.92187,-11.11133 0.1211,-0.002 -0.0332,0.1914 0.22071,-0.002 -0.0332,0.18945 0.21875,-0.002 -0.0332,0.1875 0.2168,-0.002 -0.0332,0.18554 0.2168,-0.002 -0.0332,0.18555 0.21289,-0.002 -0.0312,0.1836 0.20898,-0.002 -0.0312,0.17968 0.20899,-0.002 -0.0312,0.17969 0.20898,-0.002 -0.0312,0.17969 0.20508,-0.002 -0.0312,0.17578 0.20508,-0.002 -0.0312,0.17578 0.19922,-0.002 -0.0293,0.17188 0.19922,-0.002 -0.0293,0.17187 0.19727,-0.002 -0.0293,0.16992 0.19531,-0.002 -0.0293,0.16797 0.19531,-0.002 -0.0293,0.16797 0.19141,-0.002 -0.0293,0.16406 0.19141,-0.002 -0.0293,0.16406 0.1875,-0.002 -0.0273,0.16211 0.18554,-0.002 -0.0273,0.16016 0.18359,-0.002 -0.0273,0.1582 0.18164,-0.002 -0.0273,0.15625 0.18164,-0.002 -0.0273,0.15625 0.17969,-0.002 -0.0273,0.1543 0.17773,-0.002 -0.0273,0.15235 0.17383,-0.002 -0.0254,0.1504 0.17187,-0.002 -0.0254,0.14844 0.16992,-0.002 -0.0254,0.14648 0.16992,-0.002 -0.0254,0.14648 0.16602,-0.002 -0.0254,0.14258 0.16601,-0.002 -0.0254,0.14258 0.16407,-0.002 -0.0254,0.14062 0.16407,-0.002 -0.0254,0.14063 0.1582,-0.002 -0.0234,0.13672 0.1582,-0.002 -0.0234,0.13672 0.15429,-0.002 -0.0234,0.13282 0.15429,-0.002 -0.0234,0.13282 0.15234,-0.002 -0.0234,0.13086 0.15235,-0.002 -0.0234,0.13086 0.14648,-0.002 -0.0215,0.12695 0.14648,-0.002 -0.0215,0.12695 0.14258,-0.002 -0.0215,0.12304 0.14258,-0.002 -0.0215,0.12305 0.14062,-0.002 -0.0215,0.1211 0.14062,-0.002 -0.0215,0.1211 0.13476,-0.002 -0.0195,0.11719 0.13477,-0.002 -0.0195,0.11719 0.13086,-0.002 -0.0195,0.11328 0.13086,-0.002 -0.0195,0.11328 0.12891,-0.002 -0.0195,0.11133 0.1289,-0.002 -0.0195,0.11133 0.125,-0.002 -0.0195,0.10742 0.125,-0.002 -0.0195,0.10742 0.12109,-0.002 -0.0176,0.10547 0.11914,-0.002 -0.0176,0.10156 0.11719,-0.002 -0.0176,0.10352 0.11523,-0.002 -0.0176,0.0996 0.11328,-0.002 -0.0176,0.0977 0.11328,-0.002 -0.0176,0.0977 0.10937,-0.002 -0.0156,0.0957 0.10742,-0.002 -0.0156,0.0937 0.10547,-0.002 -0.0156,0.0918 0.10352,-0.002 -0.0156,0.0898 0.10352,-0.002 -0.0156,0.0898 0.0996,-0.002 -0.0156,0.0859 0.0996,-0.002 -0.0156,0.0859 0.0957,-0.002 -0.0137,0.084 0.0937,-0.002 -0.0137,0.082 0.0937,-0.002 -0.0137,0.0801 0.0898,0 -0.0137,0.0781 0.0898,0 -0.0137,0.0762 0.0859,0 -0.0137,0.0723 0.0859,0 -0.0137,0.0723 0.0859,0 -0.0137,0.0723 0.0801,0 -0.0117,0.0684 0.0781,0 -0.0117,0.0664 0.0781,0 -0.0117,0.0664 0.0762,0 -0.0117,0.0645 0.0742,0 -0.0117,0.0625 0.0703,0 -0.01,0.0605 0.0684,0 -0.01,0.0586 0.0684,0 -0.01,0.0586 0.0664,0 -0.01,0.0566 0.0625,0 -0.01,0.0527 0.0625,0 -0.01,0.0527 0.0625,0 -0.01,0.0527 0.0566,0 -0.008,0.0488 0.0547,0 -0.008,0.0469 0.0547,0 -0.008,0.0469 0.0527,0 -0.008,0.0449 0.0508,0 -0.008,0.043 0.0488,0 -0.008,0.041 0.0488,0 -0.008,0.041 0.043,0 -0.006,0.0371 0.043,0 -0.006,0.0371 0.041,0 -0.006,0.0352 0.0391,0 -0.006,0.0332 0.0371,0 -0.006,0.0312 0.0352,0 -0.006,0.0293 0.0351,0 -0.006,0.0293 0.0312,0 -0.004,0.0273 0.0273,0 -0.004,0.0234 0.0293,0 -0.004,0.0254 0.0254,0 -0.004,0.0215 0.0234,0 -0.004,0.0195 0.0234,0 -0.004,0.0195 0.0176,0 -0.002,0.0156 0.0176,0 -0.002,0.0156 0.0156,0 -0.002,0.0137 0.0156,0 -0.002,0.0137 0.0117,0 -0.002,0.01 0.0117,0 -0.002,0.01 0.008,0 -0.002,0.006 0.008,0 -0.002,0.006 0.004,0 0,0.004 0.004,0 0,0.004 12.66797,-0.13281 4.74804,-27.40039 17.18555,0 0,-11.9336 -0.004,0 0,-0.004 -0.004,0 0,-0.004 -0.006,0 0,-0.006 -0.006,0 0,-0.006 -0.01,0 0,-0.01 -0.01,0 0,-0.01 -0.0137,0 0,-0.0137 -0.0137,0 0,-0.0137 -0.0156,0 0,-0.0156 -0.0156,0 0,-0.0156 -0.0195,0 0,-0.0195 -0.0195,0 0,-0.0195 -0.0215,0 0,-0.0215 -0.0254,0 0,-0.0254 -0.0234,0 0,-0.0234 -0.0273,0 0,-0.0273 -0.0293,0 0,-0.0293 -0.0293,0 0,-0.0293 -0.0312,0 0,-0.0312 -0.0332,0 0,-0.0332 -0.0352,0 0,-0.0352 -0.0371,0 0,-0.0371 -0.0371,0 0,-0.0371 -0.041,0 0,-0.041 -0.041,0 0,-0.041 -0.043,0 0,-0.043 -0.0449,0 0,-0.0449 -0.0469,0 0,-0.0469 -0.0469,0 0,-0.0469 -0.0488,0 0,-0.0488 -0.0527,0 0,-0.0527 -0.0527,0 0,-0.0527 -0.0527,0 0,-0.0527 -0.0566,0 0,-0.0566 -0.0586,0 0,-0.0586 -0.0586,0 0,-0.0586 -0.0605,0 0,-0.0605 -0.0625,0 0,-0.0625 -0.0645,0 0,-0.0645 -0.0664,0 0,-0.0664 -0.0664,0 0,-0.0664 -0.0684,0 0,-0.0684 -0.0723,0 0,-0.0723 -0.0723,0 0,-0.0723 -0.0723,0 0,-0.0723 -0.0762,0 0,-0.0762 -0.0762,0 0,-0.0781 -0.0801,0 0,-0.0781 -0.0801,0 0,-0.0801 -0.082,0 0,-0.082 -0.084,0 0,-0.084 -0.084,0 0,-0.084 -0.0879,0 0,-0.0879 -0.0879,0 0,-0.0879 -0.0898,0 0,-0.0898 -0.0918,0 0,-0.0918 -0.0937,0 0,-0.0937 -0.0957,0 0,-0.0957 -0.0957,0 0,-0.0957 -0.0977,0 0,-0.0977 -0.0996,0 0,-0.10156 -0.10156,0 0,-0.0996 -0.10352,0 0,-0.10352 -0.10547,0 0,-0.10547 -0.10547,0 0,-0.10546 -0.10937,0 0,-0.10938 -0.10937,0 0,-0.10937 -0.11133,0 0,-0.11133 -0.11133,0 0,-0.11133 -0.11524,0 0,-0.11524 -0.11523,0 0,-0.11523 -0.11914,0 0,-0.11914 -0.11914,0 0,-0.11914 -0.12109,0 0,-0.12109 -0.1211,0 0,-0.1211 -0.125,0 0,-0.125 -0.125,0 0,-0.125 -0.1289,0 0,-0.1289 -0.12891,0 0,-0.12891 -0.13086,0 0,-0.13086 -0.13086,0 0,-0.13086 -0.13477,0 0,-0.13477 -0.13476,0 0,-0.13476 -0.13867,0 0,-0.13867 -0.13867,0 0,-0.13867 -0.14063,0 0,-0.14063 -0.14063,0 0,-0.14062 -0.14453,0 0,-0.14454 -0.14453,0 0,-0.14453 -0.14648,0 0,-0.14648 -0.14844,0 0,-0.14844 -0.15039,0 0,-0.15039 -0.15234,0 0,-0.15234 -0.1543,0 0,-0.1543 -0.1543,0 0,-0.1543 -0.15625,0 0,-0.15625 -0.1582,0 0,-0.1582 -0.16016,0 0,-0.16016 -0.16211,0 0,-0.16211 -0.16211,0 0,-0.16211 -0.16601,0 0,-0.16601 -0.16602,0 0,-0.16602 -0.16797,0 0,-0.16797 -0.16992,0 0,-0.16992 -0.16992,0 0,-0.16992 -0.17383,0 0,-0.17383 -0.17383,0 0,-0.17383 -0.17773,0 0,-0.17773 -0.17773,0 0,-0.17773 -0.17774,0 0,-0.17774 -0.18164,0 0,-0.18164 -0.18359,0 0,-0.18359 -0.1836,0 0,-0.1836 -0.18554,0 0,-0.18554 -0.1875,0 0,-0.1875 -0.18946,0 0,-0.18946 -0.1914,0 0,-0.1914 -0.19141,0 0,-0.19141 -0.19336,0 0,-0.19336 -0.19726,0 0,-0.19726 -0.19727,0 0,-0.19727 -0.19727,0 0,-0.19727 -0.20117,0 0,-0.20117 -0.20117,0 0,-0.20117 -0.20508,0 0,-0.19336 1.09571,-6.32422 17.25781,0 0,-11.86718 -0.004,0 0,-0.004 -0.004,0 0,-0.004 -0.006,0 0,-0.006 -0.006,0 0,-0.006 -0.01,0 0,-0.01 -0.01,0 0,-0.01 -0.0137,0 0,-0.0137 -0.0137,0 0,-0.0137 -0.0156,0 0,-0.0156 -0.0156,0 0,-0.0156 -0.0195,0 0,-0.0195 -0.0195,0 0,-0.0195 -0.0215,0 0,-0.0215 -0.0254,0 0,-0.0254 -0.0234,0 0,-0.0234 -0.0274,0 0,-0.0273 -0.0293,0 0,-0.0293 -0.0293,0 0,-0.0293 -0.0312,0 0,-0.0312 -0.0332,0 0,-0.0332 -0.0352,0 0,-0.0352 -0.0371,0 0,-0.0371 -0.0371,0 0,-0.0371 -0.041,0 0,-0.041 -0.041,0 0,-0.041 -0.043,0 0,-0.043 -0.0449,0 0,-0.0449 -0.0469,0 0,-0.0469 -0.0469,0 0,-0.0469 -0.0488,0 0,-0.0488 -0.0527,0 0,-0.0527 -0.0527,0 0,-0.0527 -0.0527,0 0,-0.0527 -0.0566,0 0,-0.0566 -0.0586,0 0,-0.0586 -0.0586,0 0,-0.0586 -0.0606,0 0,-0.0606 -0.0625,0 0,-0.0625 -0.0644,0 0,-0.0644 -0.0664,0 0,-0.0664 -0.0664,0 0,-0.0664 -0.0684,0 0,-0.0684 -0.0723,0 0,-0.0723 -0.0723,0 0,-0.0723 -0.0723,0 0,-0.0723 -0.0762,0 0,-0.0762 -0.0762,0 0,-0.0781 -0.0801,0 0,-0.0781 -0.0801,0 0,-0.0801 -0.082,0 0,-0.082 -0.084,0 0,-0.084 -0.084,0 0,-0.084 -0.0879,0 0,-0.0879 -0.0879,0 0,-0.0879 -0.0898,0 0,-0.0898 -0.0918,0 0,-0.0918 -0.0937,0 0,-0.0937 -0.0957,0 0,-0.0957 -0.0957,0 0,-0.0957 -0.0976,0 0,-0.0977 -0.0996,0 0,-0.10156 -0.10156,0 0,-0.0996 -0.10352,0 0,-0.10351 -0.10547,0 0,-0.10547 -0.10547,0 0,-0.10547 -0.10937,0 0,-0.10938 -0.10938,0 0,-0.10937 -0.11133,0 0,-0.11133 -0.11132,0 0,-0.11133 -0.11524,0 0,-0.11523 -0.11523,0 0,-0.11524 -0.11914,0 0,-0.11914 -0.11914,0 0,-0.11914 -0.1211,0 0,-0.12109 -0.12109,0 0,-0.12109 -0.125,0 0,-0.125 -0.125,0 0,-0.125 -0.12891,0 0,-0.12891 -0.1289,0 0,-0.12891 -0.13086,0 0,-0.13086 -0.13086,0 0,-0.13086 -0.13477,0 0,-0.13476 -0.13476,0 0,-0.13477 -0.13868,0 0,-0.13867 -0.13867,0 0,-0.13867 -0.14062,0 0,-0.14063 -0.14063,0 0,-0.14062 -0.14453,0 0,-0.14453 -0.14453,0 0,-0.14453 -0.14648,0 0,-0.14649 -0.14844,0 0,-0.14843 -0.15039,0 0,-0.1504 -0.15235,0 0,-0.15234 -0.15429,0 0,-0.1543 -0.1543,0 0,-0.15429 -0.15625,0 0,-0.15625 -0.1582,0 0,-0.15821 -0.16016,0 0,-0.16015 -0.16211,0 0,-0.16211 -0.16211,0 0,-0.16211 -0.16601,0 0,-0.16602 -0.16602,0 0,-0.16601 -0.16797,0 0,-0.16797 -0.16992,0 0,-0.16992 -0.16992,0 0,-0.16992 -0.17383,0 0,-0.17383 -0.17383,0 0,-0.17383 -0.17773,0 0,-0.17774 -0.17774,0 0,-0.17773 -0.17773,0 0,-0.17773 -0.18164,0 0,-0.18164 -0.1836,0 0,-0.1836 -0.18359,0 0,-0.18359 -0.18555,0 0,-0.18555 -0.1875,0 0,-0.1875 -0.18945,0 0,-0.18945 -0.19141,0 0,-0.19141 -0.1914,0 0,-0.1914 -0.19336,0 0,-0.19336 -0.19727,0 0,-0.19727 -0.19726,0 0,-0.19727 -0.19727,0 0,-0.19726 -0.20117,0 0,-0.20117 -0.20117,0 0,-0.20117 -0.20508,0 0,-0.20508 -0.0801,0 2.69922,-15.58008 -0.004,0 0,-0.004 -0.004,0 0,-0.004 -0.008,0 0.002,-0.006 -0.008,0 0.002,-0.006 -0.0117,0 0.002,-0.01 -0.0117,0 0.002,-0.01 -0.0156,0 0.002,-0.0137 -0.0156,0 0.002,-0.0137 -0.0176,0 0.002,-0.0156 -0.0176,0 0.002,-0.0156 -0.0234,0 0.004,-0.0195 -0.0234,0 0.004,-0.0195 -0.0254,0 0.004,-0.0215 -0.0293,0 0.004,-0.0254 -0.0273,0 0.004,-0.0234 -0.0312,0 0.004,-0.0273 -0.0352,0 0.006,-0.0293 -0.0352,0 0.006,-0.0293 -0.0371,0 0.006,-0.0312 -0.0391,0 0.006,-0.0332 -0.041,0 0.006,-0.0352 -0.043,0 0.006,-0.0371 -0.043,0 0.006,-0.0371 -0.0488,0 0.008,-0.041 -0.0488,0 0.008,-0.041 -0.0508,0 0.008,-0.043 -0.0527,0 0.008,-0.0449 -0.0547,0 0.008,-0.0469 -0.0547,0 0.008,-0.0469 -0.0566,0 0.008,-0.0488 -0.0625,0.002 0.01,-0.0547 -0.0625,0.002 0.01,-0.0547 -0.0625,0.002 0.01,-0.0547 -0.0664,0.002 0.01,-0.0586 -0.0684,0.002 0.01,-0.0606 -0.0684,0.002 0.01,-0.0606 -0.0703,0.002 0.01,-0.0625 -0.0742,0.002 0.0117,-0.0645 -0.0762,0.002 0.0117,-0.0664 -0.0781,0.002 0.0117,-0.0684 -0.0781,0.002 0.0117,-0.0684 -0.0801,0.002 0.0117,-0.0703 -0.0859,0.002 0.0137,-0.0742 -0.0859,0.002 0.0137,-0.0742 -0.0859,0.002 0.0137,-0.0742 -0.0898,0.002 0.0137,-0.0781 -0.0898,0.002 0.0137,-0.0781 -0.0937,0.002 0.0137,-0.082 -0.0937,0.002 0.0137,-0.082 -0.0957,0.002 0.0137,-0.084 -0.0996,0.002 0.0156,-0.0859 -0.0996,0.002 0.0156,-0.0859 -0.10351,0.002 0.0156,-0.0898 -0.10351,0.002 0.0156,-0.0898 -0.10547,0.002 0.0156,-0.0918 -0.10742,0.002 0.0156,-0.0937 -0.10937,0.002 0.0156,-0.0957 -0.11328,0.002 0.0176,-0.0976 -0.11328,0.002 0.0176,-0.0977 -0.11523,0.002 0.0176,-0.0996 -0.11719,0.002 0.0176,-0.10156 -0.11914,0.002 0.0176,-0.10351 -0.1211,0.002 0.0176,-0.10547 -0.125,0.002 0.0195,-0.10742 -0.125,0.002 0.0195,-0.10742 -0.1289,0.002 0.0195,-0.11133 -0.12891,0.002 0.0195,-0.11133 -0.13086,0.002 0.0195,-0.11329 -0.13086,0.002 0.0195,-0.11328 -0.13477,0.002 0.0195,-0.11719 -0.13476,0.002 0.0195,-0.11719 -0.14063,0.002 0.0215,-0.12109 -0.14063,0.002 0.0215,-0.12109 -0.14258,0.002 0.0215,-0.12305 -0.14257,0.002 0.0215,-0.12305 -0.14648,0.002 0.0215,-0.12695 -0.14648,0.002 0.0215,-0.12695 -0.15234,0.002 0.0234,-0.13086 -0.15234,0.002 0.0234,-0.13086 -0.1543,0.002 0.0234,-0.13281 -0.1543,0.002 0.0234,-0.13281 -0.1582,0.002 0.0234,-0.13672 -0.1582,0.002 0.0234,-0.13672 -0.16406,0.002 0.0254,-0.14063 -0.16407,0.002 0.0254,-0.14063 -0.16601,0.002 0.0254,-0.14258 -0.16602,0.002 0.0254,-0.14258 -0.16992,0.002 0.0254,-0.14649 -0.16992,0.002 0.0254,-0.14648 -0.17187,0.002 0.0254,-0.14843 -0.17383,0.002 0.0254,-0.15039 -0.17774,0.002 0.0273,-0.15234 -0.17969,0.002 0.0273,-0.1543 -0.18164,0.002 0.0274,-0.15625 -0.18164,0.002 0.0273,-0.15625 -0.18359,0.004 0.0273,-0.16016 -0.18555,0.004 0.0274,-0.16211 -0.1875,0.004 0.0273,-0.16406 -0.1914,0.004 0.0293,-0.16602 -0.1914,0.004 0.0293,-0.16602 -0.19531,0.004 0.0293,-0.16992 -0.19531,0.004 0.0293,-0.16992 -0.19726,0.004 0.0293,-0.17188 -0.19922,0.004 0.0293,-0.17383 -0.19922,0.004 0.0293,-0.17383 -0.20508,0.004 0.0312,-0.17773 -0.20508,0.004 0.0312,-0.17774 -0.20898,0.004 0.0312,-0.18164 -0.20899,0.004 0.0312,-0.18164 -0.20898,0.004 0.0312,-0.18164 -0.21289,0.004 0.0312,-0.18554 -0.2168,0.004 0.0332,-0.1875 -0.2168,0.004 0.0332,-0.1875 -0.21875,0.004 0.0332,-0.18946 -0.2207,0.004 0.0332,-0.19141 -0.22265,0.004 0.0332,-0.19336 -0.22461,0.004 0.0332,-0.19532 -0.22461,0.004 0.0332,-0.19531 -0.22656,0.004 0.0332,-0.19726 -0.23242,0.004 0.0351,-0.20117 -0.23242,0.004 0.0352,-0.20117 -0.23242,0.004 0.0351,-0.20117 -0.23632,0.004 0.0352,-0.20508 -0.23633,0.004 0.0352,-0.20508 -0.24219,0.004 0.0371,-0.20898 -0.24219,0.004 0.0371,-0.20899 -0.24414,0.004 0.0371,-0.21094 -0.24609,0.004 0.0371,-0.21289 -0.2461,0.004 0.0371,-0.21289 -0.25,0.004 0.0371,-0.2168 -0.25,0.004 0.0371,-0.2168 -0.25195,0.004 0.0371,-0.21875 -0.25586,0.004 0.0391,-0.2207 -0.25781,0.004 0.0391,-0.22266 -0.25976,0.004 0.0391,-0.22461 -0.25977,0.004 0.0391,-0.22461 -0.26171,0.004 0.0391,-0.22656 -0.26367,0.004 0.0391,-0.22851 -0.26563,0.004 0.0391,-0.23046 -0.26953,0.004 0.041,-0.23242 -0.27148,0.004 0.041,-0.23438 -0.27148,0.004 0.041,-0.23438 -0.27343,0.004 0.041,-0.23633 -0.27734,0.004 0.041,-0.24024 -0.27734,0.004 0.041,-0.24024 -0.27735,0.004 0.041,-0.24023 -0.28321,0.004 0.043,-0.24414 -0.2832,0.004 0.043,-0.24414 -0.28711,0.004 0.043,-0.24804 -0.28711,0.004 0.043,-0.24804 -0.28907,0.004 0.043,-0.25 -0.28906,0.004 0.043,-0.25 -0.29492,0.004 0.0449,-0.2539 -0.29492,0.004 0.0449,-0.2539 -0.29883,0.004 0.0449,-0.25781 -0.29882,0.004 0.0449,-0.25781 -0.30078,0.004 0.0449,-0.25976 -0.30078,0.004 0.0449,-0.25976 -0.30469,0.004 0.0449,-0.26367 -0.30468,0.004 0.0449,-0.26367 -0.31055,0.006 0.0469,-0.26954 -0.31055,0.006 0.0469,-0.26953 -0.31054,0.006 0.0469,-0.26953 -0.31445,0.006 0.0469,-0.27344 -0.3164,0.006 0.0469,-0.27539 -0.3164,0.006 0.0469,-0.27539 -0.32031,0.006 0.0488,-0.27734 -0.32227,0.006 0.0488,-0.2793 -0.32422,0.006 0.0488,-0.28125 -0.32617,0.006 0.0488,-0.28321 -0.32812,0.006 0.0488,-0.28515 -0.32813,0.006 0.0488,-0.28516 -0.33008,0.006 0.0488,-0.28711 -0.33398,0.006 0.0508,-0.28906 -0.33594,0.006 0.0508,-0.29102 -0.33789,0.006 0.0508,-0.29297 -0.33789,0.006 0.0508,-0.29297 -0.34179,0.006 0.0508,-0.29687 -0.3418,0.006 0.0508,-0.29688 -0.34375,0.006 0.0508,-0.29883 -0.34765,0.006 0.0527,-0.30078 -0.34766,0.006 0.0527,-0.30078 -0.35156,0.006 0.0527,-0.30469 -0.35156,0.006 0.0527,-0.30469 -0.35351,0.006 0.0527,-0.30664 -0.35547,0.006 0.0527,-0.30859 -0.35938,0.006 0.0547,-0.31055 -0.36133,0.006 0.0547,-0.3125 -0.36133,0.006 0.0547,-0.3125 -0.36524,0.006 0.0547,-0.31641 -0.36523,0.006 0.0547,-0.31641 -0.36718,0.006 0.0547,-0.31836 -0.36914,0.006 0.0547,-0.32031 -0.36914,0.006 0.0547,-0.32031 -0.375,0.006 0.0566,-0.32422 -0.375,0.006 0.0566,-0.32422 -0.37695,0.006 0.0566,-0.32617 -0.37891,0.006 0.0566,-0.32813 -0.38086,0.006 0.0566,-0.33008 -0.38281,0.006 0.0566,-0.33203 -0.38281,0.006 0.0566,-0.33203 -0.38867,0.006 0.0586,-0.33594 -0.38867,0.006 0.0586,-0.33594 -0.39062,0.006 0.0586,-0.33789 -0.39258,0.006 0.0586,-0.33984 -0.39258,0.006 0.0586,-0.33985 -0.39843,0.006 0.0605,-0.34375 -0.39843,0.006 0.0605,-0.34375 -0.40039,0.006 0.0606,-0.3457 -0.40235,0.006 0.0606,-0.34766 -0.4043,0.006 0.0606,-0.34961 -0.4043,0.006 0.0606,-0.35156 -0.4082,0.006 0.0605,-0.35157 -0.4082,0.006 0.0606,-0.35351 -0.41211,0.006 0.0625,-0.35547 -0.41406,0.006 0.0625,-0.35742 -0.41602,0.006 0.0625,-0.35938 -0.41797,0.006 0.0625,-0.36133 -0.41797,0.006 0.0625,-0.36133 -0.41992,0.006 0.0625,-0.36328 -0.42187,0.006 0.0625,-0.36523 -0.42578,0.006 0.0644,-0.36718 -0.42774,0.006 0.0645,-0.36914 -0.42969,0.008 0.0644,-0.37305 -0.42968,0.008 0.0644,-0.37304 -0.43164,0.008 0.0644,-0.375 -0.4375,0.008 0.0664,-0.3789 -0.4336,0.008 0.0645,-0.37695 -0.43946,0.008 0.0664,-0.38086 -0.44141,0.008 0.0664,-0.38281 -0.44141,0.008 0.0664,-0.38281 -0.44336,0.008 0.0664,-0.38476 -0.44727,0.008 0.0664,-0.38867 -0.44531,0.008 0.0664,-0.38672 -0.45117,0.008 0.0684,-0.39062 -0.45313,0.008 0.0684,-0.39258 -0.45312,0.008 0.0684,-0.39257 -0.45508,0.008 0.0684,-0.394532 -0.45703,0.0078 0.0684,-0.396484 -0.45899,0.0078 0.0684,-0.398437 -0.46094,0.0078 0.0684,-0.400391 -0.46484,0.0078 0.0703,-0.402344 -0.46484,0.0078 0.0703,-0.402344 -0.4668,0.0078 0.0703,-0.404296 -0.46875,0.0078 0.0703,-0.40625 -0.4707,0.0078 0.0703,-0.408203 -0.47266,0.0078 0.0703,-0.410156 -0.47265,0.0078 0.0703,-0.410156 -0.47851,0.0078 0.0723,-0.414062 -0.47851,0.0078 0.0723,-0.414062 -0.48047,0.0078 0.0723,-0.416015 -0.48242,0.0078 0.0723,-0.417968 -0.48437,0.0078 0.0723,-0.419922 -0.48437,0.0078 0.0723,-0.419922 -0.49023,0.0078 0.0742,-0.423828 -0.49024,0.0078 0.0742,-0.423828 -0.49219,0.0078 0.0742,-0.425781 -0.49414,0.0078 0.0742,-0.427734 -0.49414,0.0078 0.0742,-0.427734 -0.49805,0.0078 0.0742,-0.431641 -0.49805,0.0078 0.0742,-0.43164 -0.50195,0.0078 0.0762,-0.433593 -0.5039,0.0078 0.0762,-0.435547 -0.50586,0.0078 0.0762,-0.4375 -0.50781,0.0078 0.0762,-0.439453 -0.50781,0.0078 0.0762,-0.439453 -0.51172,0.0078 0.0762,-0.443359 -0.51172,0.0078 0.0762,-0.443359 -0.51562,0.0078 0.0781,-0.445312 -0.51757,0.0078 0.0781,-0.447265 -0.51758,0.0078 0.0781,-0.447265 -0.52149,0.0078 0.0781,-0.451172 -0.52148,0.0078 0.0781,-0.451172 -0.52344,0.0078 0.0781,-0.453125 -0.52539,0.0078 0.0781,-0.455078 -0.5293,0.0078 0.0801,-0.457031 -0.53125,0.0078 0.0801,-0.458984 -0.53125,0.0078 0.0801,-0.458984 -0.53516,0.0078 0.0801,-0.462891 -0.53516,0.0078 0.0801,-0.46289 -0.53711,0.0078 0.0801,-0.464843 -0.53711,0.0078 0.0801,-0.464844 -0.54297,0.0078 0.082,-0.46875 -0.54492,0.0078 0.082,-0.470703 -0.54492,0.0078 0.082,-0.470703 -0.54687,0.0078 0.082,-0.472656 -0.54883,0.0078 0.082,-0.474609 -0.55078,0.0098 0.082,-0.478516 -0.55078,0.0098 0.082,-0.478516 -0.55664,0.0098 0.084,-0.482422 -0.55664,0.0098 0.084,-0.482421 -0.55859,0.0098 0.084,-0.484375 -0.56055,0.0098 0.084,-0.486328 -0.5625,0.0098 0.084,-0.488281 -0.56445,0.0098 0.084,-0.490235 -0.56445,0.0098 0.084,-0.490235 -0.56836,0.0098 0.0859,-0.492187 -0.57031,0.0098 0.0859,-0.49414 -0.57227,0.0098 0.0859,-0.496093 -0.57422,0.0098 0.0859,-0.498047 -0.57617,0.0098 0.0859,-0.5 -0.57617,0.0098 0.0859,-0.5 -0.57813,0.0098 0.0859,-0.501953 -0.58203,0.0098 0.0879,-0.503907 -0.58398,0.0098 0.0879,-0.505859 -0.58594,0.0098 0.0879,-0.507812 -0.58789,0.0098 0.0879,-0.509765 -0.58789,0.0098 0.0879,-0.509765 -0.58984,0.0098 0.0879,-0.511718 -0.59375,0.0098 0.0898,-0.513672 -0.5957,0.0098 0.0898,-0.515625 -0.59766,0.0098 0.0898,-0.517578 -0.59961,0.0098 0.0898,-0.519531 -0.59961,0.0098 0.0898,-0.519532 -0.60156,0.0098 0.0898,-0.521484 -0.60352,0.0098 0.0899,-0.523437 -0.60743,0.0098 0.0918,-0.52539 -0.60937,0.0098 0.0918,-0.527344 -0.60937,0.0098 0.0918,-0.529297 -0.61329,0.0098 0.0918,-0.529297 -0.61328,0.0098 0.0918,-0.53125 -0.61524,0.0098 0.0918,-0.533203 -0.61719,0.0098 0.0918,-0.535156 -0.62109,0.0098 0.0937,-0.537109 -0.62109,0.0098 0.0937,-0.537109 -0.625,0.0098 0.0937,-0.541016 -0.625,0.0098 0.0937,-0.541016 -0.62695,0.0098 0.0937,-0.542969 -0.62891,0.0098 0.0937,-0.544921 -0.6289,0.0098 0.0937,-0.544922 -0.63477,0.0098 0.0957,-0.548828 -0.63476,0.0098 0.0957,-0.548829 -0.63867,0.0098 0.0957,-0.552734 -0.63867,0.0098 0.0957,-0.552734 -0.63867,0.0098 0.0957,-0.552735 -0.64257,0.0098 0.0957,-0.556641 -0.64648,0.0098 0.0977,-0.558594 -0.64648,0.0098 0.0976,-0.558594 -0.64843,0.0098 0.0976,-0.560547 -0.65039,0.0098 0.0977,-0.5625 -0.65235,0.0098 0.0977,-0.564453 -0.6543,0.0098 0.0977,-0.566406 -0.6543,0.0098 0.0977,-0.566406 -0.66016,0.0098 0.0996,-0.570312 -0.66015,0.0098 0.0996,-0.570312 -0.6621,0.0098 0.0996,-0.572265 -0.66406,0.0098 0.0996,-0.574218 -0.66406,0.0098 0.0996,-0.574218 -0.66797,0.0098 0.0996,-0.578125 L 111.96875,46.96875 110,58.275391 l -0.084,0 0.0918,-0.535157 -0.62695,0 0.0918,-0.535156 -0.63282,0 0.0937,-0.539062 -0.63281,0 0.0937,-0.539063 -0.63672,0 0.0937,-0.542969 -0.63672,0 0.0937,-0.542968 -0.63671,0 0.0937,-0.542969 -0.64062,0 0.0937,-0.546875 -0.64453,0 0.0957,-0.548828 -0.64453,0 0.0957,-0.548828 -0.64648,0 0.0957,-0.550782 -0.64843,0 0.0957,-0.552734 -0.65039,0 0.0957,-0.554688 -0.65234,0 0.0957,-0.55664 -0.65234,0 0.0957,-0.556641 -0.6582,0 0.0977,-0.560547 -0.6582,0 0.0977,-0.560546 -0.66016,0 0.0977,-0.5625 -0.66211,0 0.0977,-0.564454 -0.662107,0 0.09766,-0.564453 -0.666015,0 0.09766,-0.568359 -12.333984,0 z"
       id="path8121"
       clip-path="url(#clipPath4277)"
       inkscape:connector-curvature="0" />
    <path
       id="rect8027"
       d="m 86.066406,46.132812 -5.103515,28.533204 -18.029297,0 0,11.867187 15.90625,0 -3.433594,19.199217 -17.740234,0 0,11.9336 15.605468,0 -4.9375,27.60156 12.933594,-0.0684 4.761719,-27.5332 12.962891,0 -4.792969,27.5332 12.667971,-0.13281 4.74804,-27.40039 17.18555,0 0,-11.9336 -15.11719,0 3.32618,-19.199217 17.25781,0 0,-11.867187 -15.20117,0 L 124,46.199219 l -12.59961,0.201172 -4.92187,28.265625 -13.013676,0 4.935547,-28.533204 -12.333985,0 z m 5.347656,40.400391 12.999998,0 -3.34375,19.199217 -12.97656,0 3.320312,-19.199217 z"
       style="opacity:1;fill:#ffffff;fill-opacity:1;fill-rule:nonzero;stroke:none;stroke-width:15;stroke-linecap:butt;stroke-linejoin:miter;stroke-miterlimit:4;stroke-dasharray:none;stroke-dashoffset:0;stroke-opacity:1;filter:url(#filter4257)"
       inkscape:connector-curvature="0" />
    <path
       inkscape:connector-curvature="0"
       style="opacity:0.2;fill:#000000;fill-opacity:1;fill-rule:nonzero;stroke:none;stroke-width:15;stroke-linecap:butt;stroke-linejoin:miter;stroke-miterlimit:4;stroke-dasharray:none;stroke-dashoffset:0;stroke-opacity:1"
       d="m 86.066406,46.132812 -5.103515,28.533204 -18.029297,0 0,11.867187 15.90625,0 -3.433594,19.199217 -17.740234,0 0,11.9336 15.605468,0 -4.9375,27.60156 12.933594,-0.0684 4.761719,-27.5332 12.962891,0 -4.792969,27.5332 12.667971,-0.13281 4.74804,-27.40039 17.18555,0 0,-11.9336 -15.11719,0 3.32618,-19.199217 17.25781,0 0,-11.867187 -15.20117,0 L 124,46.199219 l -12.59961,0.201172 -4.92187,28.265625 -13.013676,0 4.935547,-28.533204 -12.333985,0 z m 5.347656,40.400391 12.999998,0 -3.34375,19.199217 -12.97656,0 3.320312,-19.199217 z"
       id="path4247" />
    <path
       id="path4249"
       d="m 86.066406,46.132812 -5.103515,28.258873 -18.029297,0 0,11.753091 15.90625,0 -3.433594,19.014624 -17.740234,0 0,11.81887 15.605468,0 -4.9375,27.33618 12.933594,-0.0677 4.761719,-27.26848 12.962891,0 -4.792969,27.26848 12.667971,-0.13153 4.74804,-27.13695 17.18555,0 0,-11.81887 -15.11719,0 3.32618,-19.014624 17.25781,0 0,-11.75309 -15.20117,0 L 124,46.198581 l -12.59961,0.199237 -4.92187,27.993867 -13.013676,0 4.935547,-28.258873 -12.333985,0 z m 5.347656,40.011964 12.999998,0 -3.34375,19.014624 -12.97656,0 3.320312,-19.014624 z"
       style="opacity:1;fill:#ffffff;fill-opacity:1;fill-rule:nonzero;stroke:none;stroke-width:15;stroke-linecap:butt;stroke-linejoin:miter;stroke-miterlimit:4;stroke-dasharray:none;stroke-dashoffset:0;stroke-opacity:1"
       inkscape:connector-curvature="0" />
    <path
       inkscape:connector-curvature="0"
       style="opacity:1;fill:#f2f2f2;fill-opacity:1;fill-rule:nonzero;stroke:none;stroke-width:15;stroke-linecap:butt;stroke-linejoin:miter;stroke-miterlimit:4;stroke-dasharray:none;stroke-dashoffset:0;stroke-opacity:1"
       d="m 86.066406,47.070312 -5.103515,27.98904 -18.029297,0 0,11.640865 15.90625,0 -3.433594,18.833063 -17.740234,0 0,11.70601 15.605468,0 -4.9375,27.07516 12.933594,-0.067 4.761719,-27.00811 12.962891,0 -4.792969,27.00811 12.667971,-0.13028 4.74804,-26.87783 17.18555,0 0,-11.70601 -15.11719,0 3.32618,-18.833063 17.25781,0 0,-11.640864 -15.20117,0 4.93359,-27.9239 -12.59961,0.197335 -4.92187,27.726564 -13.013676,0 4.935547,-27.98904 -12.333985,0 z m 5.347656,39.629905 12.999998,0 -3.34375,18.833063 -12.97656,0 3.320312,-18.833063 z"
       id="path4250" />
  </g>
  <g
     inkscape:groupmode="layer"
     id="layer5"
     inkscape:label="Square 1"
     style="display:inline"
     sodipodi:insensitive="true">
    <rect
       style="display:inline;opacity:0.1;fill:url(#radialGradient7770);fill-opacity:1;stroke:url(#radialGradient7778);stroke-width:1.00005436;stroke-linejoin:round;stroke-miterlimit:4;stroke-dasharray:none;stroke-opacity:1"
       id="rect7724"
       width="150.99994"
       height="150.99994"
       x="20.500031"
       y="20.500031"
       ry="10.897427" />
    <flowRoot
       xml:space="preserve"
       id="flowRoot5784"
       style="font-style:normal;font-variant:normal;font-weight:bold;font-stretch:normal;font-size:40px;line-height:125%;font-family:Roboto;-inkscape-font-specification:'Roboto Bold';letter-spacing:0px;word-spacing:0px;fill:#000000;fill-opacity:1;stroke:none;stroke-width:1px;stroke-linecap:butt;stroke-linejoin:miter;stroke-opacity:1"><flowRegion
         id="flowRegion5786"><rect
           id="rect5788"
           width="62.666668"
           height="65.066666"
           x="45.599998"
           y="41.600002"
           style="font-style:normal;font-variant:normal;font-weight:bold;font-stretch:normal;font-family:Roboto;-inkscape-font-specification:'Roboto Bold'" /></flowRegion><flowPara
         id="flowPara5790" /></flowRoot>    <text
       xml:space="preserve"
       style="font-style:normal;font-variant:normal;font-weight:bold;font-stretch:normal;font-size:40px;line-height:125%;font-family:sans-serif;-inkscape-font-specification:'sans-serif Bold';letter-spacing:0px;word-spacing:0px;fill:#000000;fill-opacity:1;stroke:none;stroke-width:1px;stroke-linecap:butt;stroke-linejoin:miter;stroke-opacity:1"
       x="45.599998"
       y="52.533333"
       id="text5792"
       sodipodi:linespacing="125%"><tspan
         sodipodi:role="line"
         id="tspan5794"
         x="45.599998"
         y="52.533333" /></text>
    <text
       xml:space="preserve"
       style="font-style:normal;font-variant:normal;font-weight:bold;font-stretch:normal;font-size:40px;line-height:125%;font-family:sans-serif;-inkscape-font-specification:'sans-serif Bold';letter-spacing:0px;word-spacing:0px;fill:#000000;fill-opacity:1;stroke:none;stroke-width:1px;stroke-linecap:butt;stroke-linejoin:miter;stroke-opacity:1"
       x="49.333332"
       y="35.733334"
       id="text5796"
       sodipodi:linespacing="125%"><tspan
         sodipodi:role="line"
         id="tspan5798"
         x="49.333332"
         y="35.733334" /></text>
    <flowRoot
       xml:space="preserve"
       id="flowRoot5800"
       style="font-style:normal;font-weight:normal;font-size:40px;line-height:125%;font-family:sans-serif;letter-spacing:0px;word-spacing:0px;fill:#000000;fill-opacity:1;stroke:none;stroke-width:1px;stroke-linecap:butt;stroke-linejoin:miter;stroke-opacity:1"><flowRegion
         id="flowRegion5802"><rect
           id="rect5804"
           width="52.266666"
           height="42.133331"
           x="34.933334"
           y="29.6" /></flowRegion><flowPara
         id="flowPara5806" /></flowRoot>    <flowRoot
       xml:space="preserve"
       id="flowRoot5808"
       style="font-style:normal;font-weight:normal;font-size:40px;line-height:125%;font-family:sans-serif;letter-spacing:0px;word-spacing:0px;fill:#000000;fill-opacity:1;stroke:none;stroke-width:1px;stroke-linecap:butt;stroke-linejoin:miter;stroke-opacity:1"><flowRegion
         id="flowRegion5810"><rect
           id="rect5812"
           width="102.4"
           height="109.33334"
           x="37.066666"
           y="36.266666" /></flowRegion><flowPara
         id="flowPara5814" /></flowRoot>  </g>
</svg>
