<?xml version="1.0" encoding="utf-8"?>
<!-- Generator: Adobe Illustrator 19.0.1, SVG Export Plug-In . SVG Version: 6.00 Build 0)  -->
<!DOCTYPE svg PUBLIC "-//W3C//DTD SVG 1.1//EN" "http://www.w3.org/Graphics/SVG/1.1/DTD/svg11.dtd">
<svg version="1.1"
	 id="svg2" xmlns:svg="http://www.w3.org/2000/svg" xmlns:dc="http://purl.org/dc/elements/1.1/" xmlns:rdf="http://www.w3.org/1999/02/22-rdf-syntax-ns#" xmlns:cc="http://creativecommons.org/ns#" xmlns:sodipodi="http://sodipodi.sourceforge.net/DTD/sodipodi-0.dtd" xmlns:inkscape="http://www.inkscape.org/namespaces/inkscape" inkscape:export-ydpi="90" inkscape:export-xdpi="90" inkscape:export-filename="C:\Users\Simon\Documents\Material Design Icons\PNG\supersu.png" sodipodi:docname="supersu.svg" inkscape:version="0.91 r13725"
	 xmlns="http://www.w3.org/2000/svg" xmlns:xlink="http://www.w3.org/1999/xlink" x="0px" y="0px" viewBox="-443 865 192 192"
	 style="enable-background:new -443 865 192 192;" xml:space="preserve">
<style type="text/css">
	.st0{filter:url(#filter7743);}
	.st1{fill:#009688;}
	.st2{fill:none;stroke:#009688;stroke-width:1.0001;stroke-linejoin:round;}
	.st3{opacity:0.2;fill:#339489;stroke:#FFFFFF;stroke-width:0.9969;stroke-linejoin:round;enable-background:new    ;}
	.st4{opacity:0.2;fill:#0A6C62;stroke:#263238;stroke-width:0.997;stroke-linejoin:round;enable-background:new    ;}
	.st5{fill:#009688;stroke:#009688;stroke-width:0.9936;stroke-linejoin:round;}
	.st6{opacity:0.2;fill:url(#path8121_1_);enable-background:new    ;}
	.st7{fill:#FFFFFF;}
	.st8{opacity:0.2;enable-background:new    ;}
	.st9{fill:#F2F2F2;}
	
		.st10{opacity:0.1;fill:url(#rect7724_1_);stroke:url(#rect7724_2_);stroke-width:1.0001;stroke-linejoin:round;enable-background:new    ;}
</style>
<filter  inkscape:label="Drop Shadow" style="color-interpolation-filters:sRGB;" id="filter7743">
	<feFlood  result="flood" flood-color="rgb(0,0,0)" flood-opacity="0.29999999999999999" id="feFlood7745"></feFlood>
	<feComposite  operator="in" in2="SourceGraphic" in="flood" result="composite1" id="feComposite7747"></feComposite>
	<feGaussianBlur  in="composite1" stdDeviation="3" result="blur" id="feGaussianBlur7749"></feGaussianBlur>
	<feOffset  dy="3" dx="4.57967e-015" result="offset" id="feOffset7751"></feOffset>
	<feComposite  operator="over" in2="offset" in="SourceGraphic" result="composite2" id="feComposite7753"></feComposite>
</filter>
<sodipodi:namedview  showgrid="false" showguides="false" inkscape:cy="67.948982" inkscape:cx="670.67027" borderopacity="1.0" bordercolor="#666666" pagecolor="#ffffff" id="base" inkscape:zoom="0.70710678" inkscape:snap-global="false" inkscape:window-maximized="1" inkscape:window-y="-8" inkscape:window-x="-8" inkscape:window-height="1017" inkscape:window-width="1920" inkscape:guide-bbox="true" inkscape:pageshadow="2" inkscape:current-layer="layer4" inkscape:pageopacity="0.0" inkscape:document-units="px">
	<inkscape:grid  type="xygrid" empspacing="5" enabled="true" visible="true" id="grid2985" snapvisiblegridlinesonly="true">
		</inkscape:grid>
	<sodipodi:guide  id="guide3002" orientation="1,0" position="8,58.524064"></sodipodi:guide>
	<sodipodi:guide  id="guide3004" orientation="1,0" position="20,69.304813"></sodipodi:guide>
	<sodipodi:guide  id="guide3006" orientation="1,0" position="32,62.631016"></sodipodi:guide>
	<sodipodi:guide  id="guide3008" orientation="1,0" position="68,53.390374"></sodipodi:guide>
	<sodipodi:guide  id="guide3010" orientation="0,1" position="119.61497,8"></sodipodi:guide>
	<sodipodi:guide  id="guide3012" orientation="0,1" position="155.5508,20"></sodipodi:guide>
	<sodipodi:guide  id="guide3014" orientation="0,1" position="132.96257,32"></sodipodi:guide>
	<sodipodi:guide  id="guide3016" orientation="0,1" position="130.90909,68"></sodipodi:guide>
	<sodipodi:guide  id="guide3018" orientation="0,1" position="137.06952,184"></sodipodi:guide>
	<sodipodi:guide  id="guide3020" orientation="1,0" position="184,145.79679"></sodipodi:guide>
	<sodipodi:guide  id="guide3022" orientation="0,1" position="91.379679,172"></sodipodi:guide>
	<sodipodi:guide  id="guide3024" orientation="1,0" position="172.15693,140.10142"></sodipodi:guide>
	<sodipodi:guide  id="guide3026" orientation="0,1" position="149.39037,160"></sodipodi:guide>
	<sodipodi:guide  id="guide3028" orientation="1,0" position="160,88.299465"></sodipodi:guide>
	<sodipodi:guide  id="guide3030" orientation="0,1" position="128.34225,124"></sodipodi:guide>
	<sodipodi:guide  id="guide3032" orientation="1,0" position="124,92.919786"></sodipodi:guide>
</sodipodi:namedview>
<g id="layer6" inkscape:label="Square 2" inkscape:groupmode="layer" sodipodi:insensitive="true">
	<g id="rect7720" class="st0">
		<path class="st1" d="M-411.6,885.5h129.2c6,0,10.9,4.9,10.9,10.9v129.2c0,6-4.9,10.9-10.9,10.9h-129.2c-6,0-10.9-4.9-10.9-10.9
			V896.4C-422.5,890.4-417.6,885.5-411.6,885.5z"/>
		<path class="st2" d="M-411.6,885.5h129.2c6,0,10.9,4.9,10.9,10.9v129.2c0,6-4.9,10.9-10.9,10.9h-129.2c-6,0-10.9-4.9-10.9-10.9
			V896.4C-422.5,890.4-417.6,885.5-411.6,885.5z"/>
	</g>
</g>
<g id="layer4" inkscape:label="Square" inkscape:groupmode="layer">
	<path id="rect7755" class="st3" d="M-411.7,885.5h129.3c6,0,10.8,4.8,10.8,10.8v128.4c0,6-4.8,10.8-10.8,10.8h-129.3
		c-6,0-10.8-4.8-10.8-10.8V896.3C-422.5,890.3-417.7,885.5-411.7,885.5z"/>
	<path id="rect7757" class="st4" d="M-411.7,886.5h129.3c6,0,10.8,4.8,10.8,10.8v128.4c0,6-4.8,10.8-10.8,10.8h-129.3
		c-6,0-10.8-4.8-10.8-10.8V897.3C-422.5,891.3-417.7,886.5-411.7,886.5z"/>
	<path id="rect3811" class="st5" d="M-411.7,886.5h129.5c5.9,0,10.8,4.8,10.8,10.8v127.5c0,5.9-4.8,10.8-10.8,10.8h-129.5
		c-5.9,0-10.8-4.8-10.8-10.8V897.2C-422.5,891.3-417.7,886.5-411.7,886.5z"/>
	<g id="flowRoot9367">
	</g>
	<g id="flowRoot4182">
	</g>
	<g id="flowRoot5772">
	</g>
	
		<linearGradient id="path8121_1_" gradientUnits="userSpaceOnUse" x1="-392.7219" y1="1009.5227" x2="-270.6174" y2="886.9575" gradientTransform="matrix(1 0 0 -1 0 1924)">
		<stop  offset="0" style="stop-color:#263238"/>
		<stop  offset="1" style="stop-color:#263238;stop-opacity:0"/>
	</linearGradient>
	<path id="path8121" inkscape:connector-curvature="0" class="st6" d="M-356.4,911.7l-5.1,28.5h-18v11.9h0.6v0.6h0.6v0.6h0.6v0.6
		h0.6v0.6h0.6v0.6h0.6v0.6h0.6v0.6h0.6v0.6h0.6v0.6h0.6v0.6h0.6v0.6h0.5v0.5h0.5v0.5h0.5v0.5h0.5v0.5h0.5v0.5h0.5v0.5h0.5v0.5h0.5
		v0.5h0.5v0.5h0.5v0.5h0.5v0.5h0.5v0.5h0.5v0.5h0.4l-1.1,6h-17.7v11.9h0.6v0.6h0.6v0.6h0.6v0.6h0.6v0.6h0.6v0.6h0.6v0.6h0.6v0.6h0.6
		v0.6h0.6v0.6h0.6v0.6h0.6v0.6h0.5v0.5h0.5v0.5h0.5v0.5h0.5v0.5h0.5v0.5h0.5v0.5h0.5v0.5h0.5v0.5h0.5v0.5h0.5v0.5h0.5v0.5h0.5v0.5
		h0.5v0.5h0.1l-2.6,14.4l0.7,0l-0.1,0.6l0.7,0l-0.1,0.6l0.7,0l-0.1,0.6l0.7,0l-0.1,0.6l0.7,0l-0.1,0.6l0.7,0l-0.1,0.6l0.7,0
		l-0.1,0.6l0.7,0l-0.1,0.6l0.7,0l-0.1,0.6l0.7,0l-0.1,0.6l0.7,0l-0.1,0.6l0.6,0l-0.1,0.6l0.6,0l-0.1,0.6l0.6,0l-0.1,0.6l0.6,0
		l-0.1,0.5l0.6,0l-0.1,0.5l0.6,0l-0.1,0.5l0.6,0l-0.1,0.5l0.6,0l-0.1,0.5l0.6,0l-0.1,0.5l0.6,0l-0.1,0.5l0.6,0l-0.1,0.5l0.6,0
		l-0.1,0.5l0.6,0l-0.1,0.5l0.6,0l-0.1,0.5l0.6,0l-0.1,0.5l0.6,0l-0.1,0.5l0.6,0l-0.1,0.5l0.6,0l-0.1,0.5l0.6,0l-0.1,0.5l0.6,0
		l-0.1,0.5l0.6,0l-0.1,0.5l0.6,0l-0.1,0.5l0.6,0l-0.1,0.5l0.6,0l-0.1,0.5l0.6,0l-0.1,0.5l0.6,0l-0.1,0.5l0.6,0l-0.1,0.5l0.6,0
		l-0.1,0.5l0.6,0l-0.1,0.5l0.6,0l-0.1,0.5l0.6,0l-0.1,0.5l0.6,0l-0.1,0.5l0.6,0l-0.1,0.5l0.6,0l-0.1,0.5l0.6,0l-0.1,0.5l0.6,0
		l-0.1,0.5l0.6,0l-0.1,0.5l0.6,0l-0.1,0.5l0.6,0l-0.1,0.5l0.6,0l-0.1,0.5l0.6,0l-0.1,0.5l0.6,0l-0.1,0.5l0.6,0l-0.1,0.5l0.6,0
		l-0.1,0.5l0.6,0l-0.1,0.5l0.6,0l-0.1,0.5l0.6,0l-0.1,0.5l0.6,0l-0.1,0.5l0.6,0l-0.1,0.5l0.6,0l-0.1,0.5l0.6,0l-0.1,0.5l0.6,0
		l-0.1,0.5l0.5,0l-0.1,0.5l0.5,0l-0.1,0.5l0.5,0l-0.1,0.5l0.5,0l-0.1,0.5l0.5,0l-0.1,0.5l0.5,0l-0.1,0.5l0.5,0l-0.1,0.5l0.5,0
		l-0.1,0.5l0.5,0l-0.1,0.5l0.5,0l-0.1,0.5l0.5,0l-0.1,0.5l0.5,0l-0.1,0.4l0.5,0l-0.1,0.4l0.5,0l-0.1,0.4l0.5,0l-0.1,0.4l0.5,0
		l-0.1,0.4l0.5,0l-0.1,0.4l0.5,0l-0.1,0.4l0.5,0l-0.1,0.4l0.5,0l-0.1,0.4l0.5,0l-0.1,0.4l0.5,0l-0.1,0.4l0.5,0l-0.1,0.4l0.5,0
		l-0.1,0.4l0.5,0l-0.1,0.4l0.5,0l-0.1,0.4l0.5,0l-0.1,0.4l0.5,0l-0.1,0.4l0.5,0l-0.1,0.4l0.5,0l-0.1,0.4l0.5,0l-0.1,0.4l0.5,0
		l-0.1,0.4l0.5,0l-0.1,0.4l0.5,0l-0.1,0.4l0.5,0l-0.1,0.4l0.5,0l-0.1,0.4l0.5,0l-0.1,0.4l0.5,0l-0.1,0.4l0.5,0l-0.1,0.4l0.5,0
		l-0.1,0.4l0.5,0l-0.1,0.4l0.5,0l-0.1,0.4l0.5,0l-0.1,0.4l0.5,0l-0.1,0.4l0.5,0l-0.1,0.4l0.5,0l-0.1,0.4l0.5,0l-0.1,0.4l0.5,0
		l-0.1,0.4l0.5,0l-0.1,0.4l0.5,0l-0.1,0.4l0.5,0l-0.1,0.4l0.5,0l-0.1,0.4l0.4,0l-0.1,0.4l0.4,0l-0.1,0.4l0.4,0l-0.1,0.4l0.4,0
		l-0.1,0.4l0.4,0l-0.1,0.4l0.4,0l-0.1,0.4l0.4,0l-0.1,0.4l0.4,0l-0.1,0.4l0.4,0l-0.1,0.4l0.4,0l-0.1,0.4l0.4,0l-0.1,0.4l0.4,0
		l-0.1,0.4l0.4,0l-0.1,0.4l0.4,0l-0.1,0.4l0.4,0l-0.1,0.4l0.4,0l-0.1,0.4l0.4,0l-0.1,0.4l0.4,0l-0.1,0.4l0.4,0l-0.1,0.4l0.4,0
		l-0.1,0.4l0.4,0l-0.1,0.3l0.4,0l-0.1,0.3l0.4,0l-0.1,0.3l0.4,0l-0.1,0.3l0.4,0l-0.1,0.3l0.4,0l-0.1,0.3l0.4,0l-0.1,0.3l0.4,0
		l-0.1,0.3l0.4,0l-0.1,0.3l0.4,0l-0.1,0.3l0.4,0l-0.1,0.3l0.4,0l-0.1,0.3l0.4,0l-0.1,0.3l0.4,0l-0.1,0.3l0.4,0l-0.1,0.3l0.4,0
		l-0.1,0.3l0.4,0l-0.1,0.3l0.4,0l-0.1,0.3l0.4,0l-0.1,0.3l0.4,0l-0.1,0.3l0.4,0l-0.1,0.3l0.4,0l-0.1,0.3l0.4,0l-0.1,0.3l0.4,0
		l-0.1,0.3l0.4,0l-0.1,0.3l0.4,0l-0.1,0.3l0.4,0l-0.1,0.3l0.4,0l-0.1,0.3l0.4,0l-0.1,0.3l0.4,0l-0.1,0.3l0.4,0l-0.1,0.3l0.4,0
		l-0.1,0.3l0.3,0l-0.1,0.3l0.3,0l-0.1,0.3l0.3,0l-0.1,0.3l0.3,0l-0.1,0.3l0.3,0l-0.1,0.3l0.3,0l-0.1,0.3l0.3,0l-0.1,0.3l0.3,0
		l-0.1,0.3l0.3,0l-0.1,0.3l0.3,0l-0.1,0.3l0.3,0l-0.1,0.3l0.3,0l-0.1,0.3l0.3,0l-0.1,0.3l0.3,0l0,0.3l0.3,0l0,0.3l0.3,0l0,0.3l0.3,0
		l0,0.3l0.3,0l0,0.3l0.3,0l0,0.3l0.3,0l0,0.3l0.3,0l0,0.3l0.3,0l0,0.3l0.3,0l0,0.3l0.3,0l0,0.3l0.3,0l0,0.3l0.3,0l0,0.3l0.3,0l0,0.3
		l0.3,0l0,0.3l0.3,0l0,0.3l0.3,0l0,0.3l0.3,0l0,0.2l0.3,0l0,0.2l0.3,0l0,0.2l0.3,0l0,0.2l0.3,0l0,0.2l0.3,0l0,0.2l0.3,0l0,0.2l0.3,0
		l0,0.2l0.3,0l0,0.2l0.3,0l0,0.2l0.3,0l0,0.2l0.3,0l0,0.2l0.3,0l0,0.2l0.3,0l0,0.2l0.3,0l0,0.2l0.3,0l0,0.2l0.3,0l0,0.2l0.3,0l0,0.2
		l0.3,0l0,0.2l0.3,0l0,0.2l0.3,0l0,0.2l0.3,0l0,0.2l0.3,0l0,0.2l0.2,0l0,0.2l0.2,0l0,0.2l0.2,0l0,0.2l0.2,0l0,0.2l0.2,0l0,0.2l0.2,0
		l0,0.2l0.2,0l0,0.2l0.2,0l0,0.2l0.2,0l0,0.2l0.2,0l0,0.2l0.2,0l0,0.2l0.2,0l0,0.2l0.2,0l0,0.2l0.2,0l0,0.2l0.2,0l0,0.2l0.2,0l0,0.2
		l0.2,0l0,0.2l0.2,0l0,0.2l0.2,0l0,0.2l0.2,0l0,0.2l0.2,0l0,0.2l0.2,0l0,0.2l0.2,0l0,0.2l0.2,0l0,0.2l0.2,0l0,0.2l0.2,0l0,0.2l0.2,0
		l0,0.2l0.2,0l0,0.2l0.2,0l0,0.2l0.2,0l0,0.2l0.2,0l0,0.2l0.2,0l0,0.2l0.2,0l0,0.2h0.2l0,0.2h0.2l0,0.2h0.2l0,0.2h0.2l0,0.2h0.2
		l0,0.2h0.2l0,0.1h0.2l0,0.1h0.2l0,0.1h0.2l0,0.1h0.2l0,0.1h0.2l0,0.1h0.2l0,0.1h0.2l0,0.1h0.2l0,0.1h0.2l0,0.1h0.2l0,0.1h0.2l0,0.1
		h0.2l0,0.1h0.2l0,0.1h0.1l0,0.1h0.1l0,0.1h0.1l0,0.1h0.1l0,0.1h0.1l0,0.1h0.1l0,0.1h0.1l0,0.1h0.1l0,0.1h0.1l0,0.1h0.1l0,0.1h0.1
		l0,0.1h0.1l0,0.1h0.1l0,0.1h0.1l0,0.1h0.1l0,0.1h0.1l0,0.1h0.1l0,0.1h0.1l0,0.1h0.1l0,0.1h0.1l0,0.1h0.1l0,0.1h0.1l0,0.1h0.1l0,0.1
		h0.1l0,0.1h0.1l0,0.1h0.1l0,0.1h0.1l0,0.1h0.1l0,0.1h0.1l0,0.1h0.1l0,0.1h0.1l0,0.1h0.1l0,0.1h0.1l0,0.1h0.1l0,0.1h0.1l0,0.1h0.1
		l0,0.1h0.1l0,0.1h0.1l0,0.1h0.1l0,0.1h0.1l0,0.1h0.1l0,0.1h0.1l0,0.1h0.1l0,0.1h0.1l0,0.1h0.1l0,0.1h0.1l0,0.1h0.1l0,0.1h0.1l0,0
		h0.1l0,0h0.1l0,0h0.1l0,0h0.1l0,0h0l0,0h0l0,0h0l0,0h0l0,0h0l0,0h0l0,0h0l0,0h0l0,0h0l0,0h0l0,0h0l0,0h0l0,0h0l0,0h0l0,0h0l0,0h0
		l0,0h0l0,0h0l0,0h0l0,0h0l0,0h0l0,0h0l0,0h0l0,0h0v0h0v0l12.9-0.1l1.9-11.1l0.1,0l0,0.2l0.2,0l0,0.2l0.2,0l0,0.2l0.2,0l0,0.2l0.2,0
		l0,0.2l0.2,0l0,0.2l0.2,0l0,0.2l0.2,0l0,0.2l0.2,0l0,0.2l0.2,0l0,0.2l0.2,0l0,0.2l0.2,0l0,0.2l0.2,0l0,0.2l0.2,0l0,0.2l0.2,0l0,0.2
		l0.2,0l0,0.2l0.2,0l0,0.2l0.2,0l0,0.2l0.2,0l0,0.2l0.2,0l0,0.2l0.2,0l0,0.2l0.2,0l0,0.2l0.2,0l0,0.2l0.2,0l0,0.2l0.2,0l0,0.2l0.2,0
		l0,0.2l0.2,0l0,0.1l0.2,0l0,0.1l0.2,0l0,0.1l0.2,0l0,0.1l0.2,0l0,0.1l0.2,0l0,0.1l0.2,0l0,0.1l0.2,0l0,0.1l0.2,0l0,0.1l0.2,0l0,0.1
		l0.2,0l0,0.1l0.2,0l0,0.1l0.2,0l0,0.1l0.1,0l0,0.1l0.1,0l0,0.1l0.1,0l0,0.1l0.1,0l0,0.1l0.1,0l0,0.1l0.1,0l0,0.1l0.1,0l0,0.1l0.1,0
		l0,0.1l0.1,0l0,0.1l0.1,0l0,0.1l0.1,0l0,0.1l0.1,0l0,0.1l0.1,0l0,0.1l0.1,0l0,0.1l0.1,0l0,0.1l0.1,0l0,0.1l0.1,0l0,0.1l0.1,0l0,0.1
		l0.1,0l0,0.1l0.1,0l0,0.1l0.1,0l0,0.1l0.1,0l0,0.1l0.1,0l0,0.1l0.1,0l0,0.1l0.1,0l0,0.1l0.1,0l0,0.1l0.1,0l0,0.1l0.1,0l0,0.1l0.1,0
		l0,0.1l0.1,0l0,0.1h0.1l0,0.1h0.1l0,0.1h0.1l0,0.1h0.1l0,0.1h0.1l0,0.1h0.1l0,0.1h0.1l0,0.1h0.1l0,0.1h0.1l0,0.1h0.1l0,0.1h0.1
		l0,0.1h0.1l0,0.1h0.1l0,0.1h0.1l0,0.1h0.1l0,0.1h0.1l0,0.1h0.1l0,0.1h0.1l0,0h0.1l0,0h0.1l0,0h0.1l0,0h0.1l0,0h0l0,0h0l0,0h0l0,0h0
		l0,0h0l0,0h0l0,0h0l0,0h0l0,0h0l0,0h0l0,0h0l0,0h0l0,0h0l0,0h0l0,0h0l0,0h0l0,0h0l0,0h0l0,0h0l0,0h0l0,0h0l0,0h0l0,0h0l0,0h0v0h0v0
		l12.7-0.1l4.7-27.4h17.2v-11.9h0v0h0v0h0v0h0v0h0v0h0v0h0v0h0v0h0v0h0v0h0v0h0v0h0v0h0v0h0v0h0v0h0v0h0v0h0v0h0v0h0v0h0v0h0v0h0v0
		h0v0h0v0h0v0h0v0h0v0h0v0h-0.1v-0.1h-0.1v-0.1h-0.1v-0.1h-0.1v-0.1h-0.1v-0.1h-0.1v-0.1h-0.1v-0.1h-0.1v-0.1h-0.1v-0.1h-0.1v-0.1
		h-0.1v-0.1h-0.1v-0.1h-0.1v-0.1h-0.1v-0.1h-0.1v-0.1h-0.1v-0.1h-0.1v-0.1h-0.1v-0.1h-0.1v-0.1h-0.1v-0.1h-0.1v-0.1h-0.1v-0.1h-0.1
		v-0.1h-0.1v-0.1h-0.1v-0.1h-0.1v-0.1h-0.1v-0.1h-0.1v-0.1h-0.1v-0.1h-0.1v-0.1h-0.1v-0.1h-0.1v-0.1h-0.1v-0.1h-0.1v-0.1h-0.1v-0.1
		h-0.1v-0.1h-0.1v-0.1h-0.1v-0.1h-0.1v-0.1h-0.1v-0.1h-0.1v-0.1h-0.1v-0.1h-0.1v-0.1h-0.1v-0.1h-0.1v-0.1h-0.1v-0.1h-0.1v-0.1h-0.1
		v-0.1h-0.1v-0.1h-0.1v-0.1h-0.1v-0.1h-0.1v-0.1h-0.1v-0.1h-0.1v-0.1h-0.1v-0.1h-0.1v-0.1h-0.1v-0.1h-0.1v-0.1h-0.1v-0.1h-0.1v-0.1
		h-0.1v-0.1h-0.2v-0.2h-0.2v-0.2h-0.2v-0.2h-0.2v-0.2h-0.2v-0.2h-0.2v-0.2h-0.2v-0.2h-0.2v-0.2h-0.2v-0.2h-0.2v-0.2h-0.2v-0.2h-0.2
		v-0.2h-0.2v-0.2h-0.2v-0.2h-0.2v-0.2h-0.2v-0.2h-0.2v-0.2h-0.2v-0.2h-0.2v-0.2h-0.2v-0.2h-0.2v-0.2h-0.2v-0.2h-0.2v-0.2h-0.2v-0.2
		h-0.2v-0.2h-0.2v-0.2h-0.2v-0.2h-0.2v-0.2h-0.2v-0.2h-0.2v-0.2h-0.2v-0.2h-0.2v-0.2h-0.2v-0.2h-0.2v-0.2l1.1-6.3h17.3v-11.9h0v0h0
		v0h0v0h0v0h0v0h0v0h0v0h0v0h0v0h0v0h0v0h0v0h0v0h0v0h0v0h0v0h0v0h0v0h0v0h0v0h0v0h0v0h0v0h0v0h0v0h0v0h0v0h0v0h0v0h0v0h-0.1v-0.1
		h-0.1v-0.1h-0.1v-0.1h-0.1v-0.1h-0.1v-0.1h-0.1v-0.1h-0.1v-0.1h-0.1v-0.1h-0.1v-0.1h-0.1v-0.1h-0.1v-0.1h-0.1v-0.1h-0.1v-0.1h-0.1
		v-0.1h-0.1v-0.1h-0.1v-0.1h-0.1v-0.1h-0.1v-0.1h-0.1v-0.1h-0.1v-0.1h-0.1v-0.1h-0.1v-0.1h-0.1v-0.1h-0.1v-0.1h-0.1v-0.1h-0.1v-0.1
		h-0.1v-0.1h-0.1v-0.1h-0.1v-0.1h-0.1v-0.1h-0.1v-0.1h-0.1v-0.1h-0.1v-0.1h-0.1v-0.1h-0.1v-0.1h-0.1v-0.1h-0.1v-0.1h-0.1v-0.1h-0.1
		v-0.1h-0.1v-0.1h-0.1v-0.1h-0.1v-0.1h-0.1v-0.1h-0.1v-0.1h-0.1v-0.1h-0.1v-0.1h-0.1v-0.1h-0.1v-0.1h-0.1v-0.1h-0.1v-0.1h-0.1v-0.1
		h-0.1v-0.1h-0.1v-0.1h-0.1v-0.1h-0.1v-0.1h-0.1v-0.1h-0.1v-0.1h-0.1v-0.1h-0.1v-0.1h-0.1v-0.1h-0.1v-0.1h-0.2v-0.2h-0.2v-0.2h-0.2
		v-0.2h-0.2v-0.2h-0.2v-0.2h-0.2v-0.2h-0.2v-0.2h-0.2v-0.2h-0.2v-0.2h-0.2v-0.2h-0.2v-0.2h-0.2v-0.2h-0.2v-0.2h-0.2v-0.2h-0.2v-0.2
		h-0.2v-0.2h-0.2v-0.2h-0.2v-0.2h-0.2v-0.2h-0.2v-0.2h-0.2v-0.2h-0.2v-0.2h-0.2v-0.2h-0.2v-0.2h-0.2v-0.2h-0.2v-0.2h-0.2v-0.2h-0.2
		v-0.2h-0.2v-0.2h-0.2v-0.2h-0.2v-0.2h-0.2v-0.2h-0.2v-0.2h-0.2v-0.2h-0.1l2.7-15.6h0v0h0v0h0l0,0h0l0,0h0l0,0h0l0,0h0l0,0h0l0,0h0
		l0,0h0l0,0h0l0,0h0l0,0h0l0,0h0l0,0h0l0,0h0l0,0h0l0,0h0l0,0h0l0,0h0l0,0h0l0,0h0l0,0h0l0,0h0l0,0h0l0,0h-0.1l0,0h-0.1l0,0h-0.1
		l0,0h-0.1l0,0h-0.1l0,0l-0.1,0l0-0.1l-0.1,0l0-0.1l-0.1,0l0-0.1l-0.1,0l0-0.1l-0.1,0l0-0.1l-0.1,0l0-0.1l-0.1,0l0-0.1l-0.1,0l0-0.1
		l-0.1,0l0-0.1l-0.1,0l0-0.1l-0.1,0l0-0.1l-0.1,0l0-0.1l-0.1,0l0-0.1l-0.1,0l0-0.1l-0.1,0l0-0.1l-0.1,0l0-0.1l-0.1,0l0-0.1l-0.1,0
		l0-0.1l-0.1,0l0-0.1l-0.1,0l0-0.1l-0.1,0l0-0.1l-0.1,0l0-0.1l-0.1,0l0-0.1l-0.1,0l0-0.1l-0.1,0l0-0.1l-0.1,0l0-0.1l-0.1,0l0-0.1
		l-0.1,0l0-0.1l-0.1,0l0-0.1l-0.1,0l0-0.1l-0.1,0l0-0.1l-0.1,0l0-0.1l-0.1,0l0-0.1l-0.1,0l0-0.1l-0.1,0l0-0.1l-0.1,0l0-0.1l-0.1,0
		l0-0.1l-0.1,0l0-0.1l-0.1,0l0-0.1l-0.1,0l0-0.1l-0.1,0l0-0.1l-0.1,0l0-0.1l-0.1,0l0-0.1l-0.1,0l0-0.1l-0.1,0l0-0.1l-0.1,0l0-0.1
		l-0.1,0l0-0.1l-0.2,0l0-0.1l-0.2,0l0-0.1l-0.2,0l0-0.1l-0.2,0l0-0.1l-0.2,0l0-0.1l-0.2,0l0-0.1l-0.2,0l0-0.1l-0.2,0l0-0.1l-0.2,0
		l0-0.1l-0.2,0l0-0.1l-0.2,0l0-0.1l-0.2,0l0-0.1l-0.2,0l0-0.1l-0.2,0l0-0.2l-0.2,0l0-0.2l-0.2,0l0-0.2l-0.2,0l0-0.2l-0.2,0l0-0.2
		l-0.2,0l0-0.2l-0.2,0l0-0.2l-0.2,0l0-0.2l-0.2,0l0-0.2l-0.2,0l0-0.2l-0.2,0l0-0.2l-0.2,0l0-0.2l-0.2,0l0-0.2l-0.2,0l0-0.2l-0.2,0
		l0-0.2l-0.2,0l0-0.2l-0.2,0l0-0.2l-0.2,0l0-0.2l-0.2,0l0-0.2l-0.2,0l0-0.2l-0.2,0l0-0.2l-0.2,0l0-0.2l-0.2,0l0-0.2l-0.2,0l0-0.2
		l-0.2,0l0-0.2l-0.2,0l0-0.2l-0.2,0l0-0.2l-0.2,0l0-0.2l-0.2,0l0-0.2l-0.2,0l0-0.2l-0.2,0l0-0.2l-0.2,0l0-0.2l-0.2,0l0-0.2l-0.2,0
		l0-0.2l-0.2,0l0-0.2l-0.2,0l0-0.2l-0.2,0l0-0.2l-0.2,0l0-0.2l-0.2,0l0-0.2l-0.3,0l0-0.2l-0.3,0l0-0.2l-0.3,0l0-0.2l-0.3,0l0-0.2
		l-0.3,0l0-0.2l-0.3,0l0-0.2l-0.3,0l0-0.2l-0.3,0l0-0.2l-0.3,0l0-0.2l-0.3,0l0-0.2l-0.3,0l0-0.2l-0.3,0l0-0.2l-0.3,0l0-0.2l-0.3,0
		l0-0.2l-0.3,0l0-0.2l-0.3,0l0-0.2l-0.3,0l0-0.2l-0.3,0l0-0.2l-0.3,0l0-0.2l-0.3,0l0-0.2l-0.3,0l0-0.2l-0.3,0l0-0.3l-0.3,0l0-0.3
		l-0.3,0l0-0.3l-0.3,0l0-0.3l-0.3,0l0-0.3l-0.3,0l0-0.3l-0.3,0l0-0.3l-0.3,0l0-0.3l-0.3,0l0-0.3l-0.3,0l0-0.3l-0.3,0l0-0.3l-0.3,0
		l0-0.3l-0.3,0l0-0.3l-0.3,0l0-0.3l-0.3,0l0-0.3l-0.3,0l0-0.3l-0.3,0l0-0.3l-0.3,0l0-0.3l-0.3,0l0-0.3l-0.3,0l0-0.3l-0.3,0l0-0.3
		l-0.3,0l0-0.3l-0.3,0l0-0.3l-0.3,0l0.1-0.3l-0.3,0l0.1-0.3l-0.3,0l0.1-0.3l-0.3,0l0.1-0.3l-0.3,0l0.1-0.3l-0.3,0l0.1-0.3l-0.3,0
		l0.1-0.3l-0.3,0l0.1-0.3l-0.3,0l0.1-0.3l-0.4,0l0.1-0.3l-0.4,0l0.1-0.3l-0.4,0l0.1-0.3l-0.4,0l0.1-0.3l-0.4,0l0.1-0.3l-0.4,0
		l0.1-0.3l-0.4,0l0.1-0.3l-0.4,0l0.1-0.3l-0.4,0l0.1-0.3l-0.4,0l0.1-0.3l-0.4,0l0.1-0.3l-0.4,0l0.1-0.3l-0.4,0l0.1-0.3l-0.4,0
		l0.1-0.3l-0.4,0l0.1-0.3l-0.4,0l0.1-0.3l-0.4,0l0.1-0.3l-0.4,0l0.1-0.3l-0.4,0l0.1-0.3l-0.4,0l0.1-0.3l-0.4,0l0.1-0.3l-0.4,0
		l0.1-0.3l-0.4,0l0.1-0.3l-0.4,0l0.1-0.3l-0.4,0l0.1-0.3l-0.4,0l0.1-0.3l-0.4,0l0.1-0.3l-0.4,0l0.1-0.3l-0.4,0l0.1-0.3l-0.4,0
		l0.1-0.4l-0.4,0l0.1-0.4l-0.4,0l0.1-0.4l-0.4,0l0.1-0.4l-0.4,0l0.1-0.4l-0.4,0l0.1-0.4l-0.4,0l0.1-0.4l-0.4,0l0.1-0.4l-0.4,0
		l0.1-0.4l-0.4,0l0.1-0.4l-0.4,0l0.1-0.4l-0.4,0l0.1-0.4l-0.4,0l0.1-0.4l-0.4,0l0.1-0.4l-0.4,0l0.1-0.4l-0.4,0l0.1-0.4l-0.4,0
		l0.1-0.4l-0.4,0l0.1-0.4l-0.4,0l0.1-0.4l-0.4,0l0.1-0.4l-0.4,0l0.1-0.4l-0.4,0l0.1-0.4l-0.4,0l0.1-0.4l-0.5,0l0.1-0.4l-0.5,0
		l0.1-0.4l-0.5,0l0.1-0.4l-0.5,0l0.1-0.4l-0.5,0l0.1-0.4l-0.5,0l0.1-0.4l-0.5,0l0.1-0.4l-0.5,0l0.1-0.4l-0.5,0l0.1-0.4l-0.5,0
		l0.1-0.4l-0.5,0l0.1-0.4l-0.5,0l0.1-0.4l-0.5,0l0.1-0.4l-0.5,0l0.1-0.4l-0.5,0l0.1-0.4l-0.5,0l0.1-0.4l-0.5,0l0.1-0.4l-0.5,0
		l0.1-0.4l-0.5,0l0.1-0.4l-0.5,0l0.1-0.4l-0.5,0l0.1-0.4l-0.5,0l0.1-0.4l-0.5,0l0.1-0.4l-0.5,0l0.1-0.4l-0.5,0l0.1-0.4l-0.5,0
		l0.1-0.4l-0.5,0l0.1-0.4l-0.5,0l0.1-0.4l-0.5,0l0.1-0.4l-0.5,0l0.1-0.4l-0.5,0l0.1-0.4l-0.5,0l0.1-0.4l-0.5,0l0.1-0.4l-0.5,0
		l0.1-0.4l-0.5,0l0.1-0.4l-0.5,0l0.1-0.4l-0.5,0l0.1-0.4l-0.5,0l0.1-0.5l-0.5,0l0.1-0.5l-0.5,0l0.1-0.5l-0.5,0l0.1-0.5l-0.5,0
		l0.1-0.5l-0.5,0l0.1-0.5l-0.5,0l0.1-0.5l-0.5,0l0.1-0.5l-0.5,0l0.1-0.5l-0.5,0l0.1-0.5l-0.5,0l0.1-0.5l-0.5,0l0.1-0.5l-0.5,0
		l0.1-0.5l-0.5,0l0.1-0.5l-0.5,0l0.1-0.5l-0.5,0l0.1-0.5l-0.6,0l0.1-0.5l-0.6,0l0.1-0.5l-0.6,0l0.1-0.5l-0.6,0l0.1-0.5l-0.6,0
		l0.1-0.5l-0.6,0l0.1-0.5l-0.6,0l0.1-0.5l-0.6,0l0.1-0.5l-0.6,0l0.1-0.5l-0.6,0l0.1-0.5l-0.6,0l0.1-0.5l-0.6,0l0.1-0.5l-0.6,0
		l0.1-0.5l-0.6,0l0.1-0.5l-0.6,0l0.1-0.5l-0.6,0l0.1-0.5l-0.6,0l0.1-0.5l-0.6,0l0.1-0.5l-0.6,0l0.1-0.5l-0.6,0l0.1-0.5l-0.6,0
		l0.1-0.5l-0.6,0l0.1-0.5l-0.6,0l0.1-0.5l-0.6,0l0.1-0.5l-0.6,0l0.1-0.5l-0.6,0l0.1-0.5l-0.6,0l0.1-0.5l-0.6,0l0.1-0.5l-0.6,0
		l0.1-0.5l-0.6,0l0.1-0.5l-0.6,0l0.1-0.5l-0.6,0l0.1-0.5l-0.6,0l0.1-0.5l-0.6,0l0.1-0.5l-0.6,0l0.1-0.5l-0.6,0l0.1-0.5l-0.6,0
		l0.1-0.5l-0.6,0l0.1-0.5l-0.6,0l0.1-0.5l-0.6,0l0.1-0.5l-0.6,0l0.1-0.5l-0.6,0l0.1-0.5l-0.6,0l0.1-0.5l-0.6,0l0.1-0.5l-0.6,0
		l0.1-0.5l-0.6,0l0.1-0.6l-0.6,0l0.1-0.6l-0.6,0l0.1-0.6l-0.6,0l0.1-0.6l-0.6,0l0.1-0.6l-0.6,0l0.1-0.6l-0.6,0l0.1-0.6l-0.7,0
		l0.1-0.6l-0.7,0l0.1-0.6l-0.7,0l0.1-0.6l-0.7,0l0.1-0.6l-0.7,0l0.1-0.6l-0.7,0l0.1-0.6l-0.7,0l0.1-0.6l-0.7,0l0.1-0.6l-0.7,0
		l0.1-0.6l-0.7,0l0.1-0.6L-331,912l-2,11.3h-0.1l0.1-0.5h-0.6l0.1-0.5h-0.6l0.1-0.5h-0.6l0.1-0.5h-0.6l0.1-0.5h-0.6l0.1-0.5h-0.6
		l0.1-0.5h-0.6l0.1-0.5h-0.6l0.1-0.5h-0.6l0.1-0.5h-0.6l0.1-0.6h-0.6l0.1-0.6h-0.7l0.1-0.6h-0.7l0.1-0.6h-0.7l0.1-0.6h-0.7l0.1-0.6
		h-0.7l0.1-0.6h-0.7l0.1-0.6h-0.7l0.1-0.6h-0.7l0.1-0.6h-0.7l0.1-0.6H-356.4L-356.4,911.7z"/>
	<path id="rect8027" inkscape:connector-curvature="0" class="st7" d="M-356.9,911.1l-5.1,28.5h-18v11.9h15.9l-3.4,19.2h-17.7v11.9
		h15.6l-4.9,27.6l12.9-0.1l4.8-27.5h13l-4.8,27.5l12.7-0.1l4.7-27.4h17.2v-11.9h-15.1l3.3-19.2h17.3v-11.9h-15.2l4.9-28.5l-12.6,0.2
		l-4.9,28.3h-13l4.9-28.5H-356.9z M-351.6,951.5h13l-3.3,19.2h-13L-351.6,951.5z"/>
	<path id="path4247" inkscape:connector-curvature="0" class="st8" d="M-356.9,911.1l-5.1,28.5h-18v11.9h15.9l-3.4,19.2h-17.7v11.9
		h15.6l-4.9,27.6l12.9-0.1l4.8-27.5h13l-4.8,27.5l12.7-0.1l4.7-27.4h17.2v-11.9h-15.1l3.3-19.2h17.3v-11.9h-15.2l4.9-28.5l-12.6,0.2
		l-4.9,28.3h-13l4.9-28.5H-356.9z M-351.6,951.5h13l-3.3,19.2h-13L-351.6,951.5z"/>
	<path id="path4249" inkscape:connector-curvature="0" class="st7" d="M-356.9,911.1l-5.1,28.3h-18v11.8h15.9l-3.4,19h-17.7V982
		h15.6l-4.9,27.3l12.9-0.1l4.8-27.3h13l-4.8,27.3l12.7-0.1l4.7-27.1h17.2v-11.8h-15.1l3.3-19h17.3v-11.8h-15.2l4.9-28.2l-12.6,0.2
		l-4.9,28h-13l4.9-28.3H-356.9z M-351.6,951.1h13l-3.3,19h-13L-351.6,951.1z"/>
	<path id="path4250" inkscape:connector-curvature="0" class="st9" d="M-356.9,912.1l-5.1,28h-18v11.6h15.9l-3.4,18.8h-17.7v11.7
		h15.6l-4.9,27.1l12.9-0.1l4.8-27h13l-4.8,27l12.7-0.1l4.7-26.9h17.2v-11.7h-15.1l3.3-18.8h17.3v-11.6h-15.2l4.9-27.9l-12.6,0.2
		l-4.9,27.7h-13l4.9-28L-356.9,912.1L-356.9,912.1z M-351.6,951.7h13l-3.3,18.8h-13L-351.6,951.7z"/>
</g>
<g id="layer5" inkscape:label="Square 1" inkscape:groupmode="layer" sodipodi:insensitive="true">
	
		<radialGradient id="rect7724_1_" cx="-433.0806" cy="2122.4934" r="76" gradientTransform="matrix(2.534750e-003 1.9948 2.0024 -2.544370e-003 -4671.8779 1754.5006)" gradientUnits="userSpaceOnUse">
		<stop  offset="0" style="stop-color:#FFFFFF"/>
		<stop  offset="1" style="stop-color:#FFFFFF;stop-opacity:0"/>
	</radialGradient>
	
		<radialGradient id="rect7724_2_" cx="-433.0805" cy="2122.4934" r="76" gradientTransform="matrix(2.534720e-003 1.9948 2.0024 -2.544350e-003 -4671.8774 1754.5005)" gradientUnits="userSpaceOnUse">
		<stop  offset="0" style="stop-color:#FFFFFF"/>
		<stop  offset="1" style="stop-color:#FFFFFF;stop-opacity:0"/>
	</radialGradient>
	<path id="rect7724" class="st10" d="M-411.6,885.5h129.2c6,0,10.9,4.9,10.9,10.9v129.2c0,6-4.9,10.9-10.9,10.9h-129.2
		c-6,0-10.9-4.9-10.9-10.9V896.4C-422.5,890.4-417.6,885.5-411.6,885.5z"/>
	<g id="flowRoot5784">
	</g>
	<g id="flowRoot5800">
	</g>
	<g id="flowRoot5808">
	</g>
</g>
</svg>
