<?xml version="1.0" encoding="UTF-8" standalone="no"?>
<!-- Created with Inkscape (http://www.inkscape.org/) -->

<svg
   xmlns:dc="http://purl.org/dc/elements/1.1/"
   xmlns:cc="http://creativecommons.org/ns#"
   xmlns:rdf="http://www.w3.org/1999/02/22-rdf-syntax-ns#"
   xmlns:svg="http://www.w3.org/2000/svg"
   xmlns="http://www.w3.org/2000/svg"
   xmlns:xlink="http://www.w3.org/1999/xlink"
   xmlns:sodipodi="http://sodipodi.sourceforge.net/DTD/sodipodi-0.dtd"
   xmlns:inkscape="http://www.inkscape.org/namespaces/inkscape"
   width="192"
   height="192"
   viewBox="0 0 192 192"
   id="svg2"
   version="1.1"
   inkscape:version="0.91 r13725"
   sodipodi:docname="timberman.svg"
   inkscape:export-filename="C:\createme\Material Design Icons\PNG\timberman.png"
   inkscape:export-xdpi="90"
   inkscape:export-ydpi="90">
  <defs
     id="defs4">
    <linearGradient
       inkscape:collect="always"
       id="linearGradient4194">
      <stop
         style="stop-color:#ffffff;stop-opacity:1;"
         offset="0"
         id="stop4196" />
      <stop
         style="stop-color:#ffffff;stop-opacity:0;"
         offset="1"
         id="stop4198" />
    </linearGradient>
    <clipPath
       clipPathUnits="userSpaceOnUse"
       id="clipPath10430">
      <path
         inkscape:connector-curvature="0"
         d="m 1241.028,39.3409 224.537,0 0,178.031 -224.537,0 0,-178.031 z"
         id="path10432" />
    </clipPath>
    <clipPath
       clipPathUnits="userSpaceOnUse"
       id="clipPath10438">
      <path
         inkscape:connector-curvature="0"
         d="m 1260.156,213.3477 0,-170.2268 191.3337,0 0,170.2268"
         id="path10440" />
    </clipPath>
    <radialGradient
       inkscape:collect="always"
       xlink:href="#linearGradient4194"
       id="radialGradient4200"
       cx="20"
       cy="880.36243"
       fx="20"
       fy="880.36243"
       r="76"
       gradientTransform="matrix(2.6607556e-7,1.9999998,-2.0000002,2.6629458e-7,1780.725,840.36195)"
       gradientUnits="userSpaceOnUse" />
    <filter
       style="color-interpolation-filters:sRGB;"
       inkscape:label="Drop Shadow"
       id="filter5248">
      <feFlood
         flood-opacity="0.2"
         flood-color="rgb(0,0,0)"
         result="flood"
         id="feFlood5250" />
      <feComposite
         in="flood"
         in2="SourceGraphic"
         operator="in"
         result="composite1"
         id="feComposite5252" />
      <feGaussianBlur
         in="composite1"
         stdDeviation="4"
         result="blur"
         id="feGaussianBlur5254" />
      <feOffset
         dx="4.57967e-015"
         dy="4"
         result="offset"
         id="feOffset5256" />
      <feComposite
         in="SourceGraphic"
         in2="offset"
         operator="over"
         result="composite2"
         id="feComposite5258" />
    </filter>
  </defs>
  <sodipodi:namedview
     id="base"
     pagecolor="#ffffff"
     bordercolor="#666666"
     borderopacity="1.0"
     inkscape:pageopacity="0.0"
     inkscape:pageshadow="2"
     inkscape:zoom="2"
     inkscape:cx="203.1664"
     inkscape:cy="132.92464"
     inkscape:document-units="px"
     inkscape:current-layer="layer2"
     showgrid="false"
     units="px"
     showguides="false"
     inkscape:window-width="1920"
     inkscape:window-height="1017"
     inkscape:window-x="-8"
     inkscape:window-y="-8"
     inkscape:window-maximized="1">
    <sodipodi:guide
       position="0,184"
       orientation="0,1"
       id="guide3354"
       inkscape:label=""
       inkscape:color="rgb(0,0,255)" />
    <sodipodi:guide
       position="8,0"
       orientation="1,0"
       id="guide3356"
       inkscape:label=""
       inkscape:color="rgb(0,0,255)" />
    <sodipodi:guide
       position="0,8"
       orientation="0,1"
       id="guide3358"
       inkscape:label=""
       inkscape:color="rgb(0,0,255)" />
    <sodipodi:guide
       position="184,0"
       orientation="1,0"
       id="guide3360"
       inkscape:label=""
       inkscape:color="rgb(0,0,255)" />
    <sodipodi:guide
       position="0,20"
       orientation="0,1"
       id="guide3362"
       inkscape:label=""
       inkscape:color="rgb(0,0,255)" />
    <sodipodi:guide
       position="172,0"
       orientation="1,0"
       id="guide3364"
       inkscape:label=""
       inkscape:color="rgb(0,0,255)" />
    <sodipodi:guide
       position="96,172"
       orientation="0,1"
       id="guide3366"
       inkscape:label=""
       inkscape:color="rgb(0,0,255)" />
    <sodipodi:guide
       position="20,0"
       orientation="1,0"
       id="guide3368"
       inkscape:label=""
       inkscape:color="rgb(0,0,255)" />
    <sodipodi:guide
       position="0,32"
       orientation="0,1"
       id="guide3370"
       inkscape:label=""
       inkscape:color="rgb(0,0,255)" />
    <sodipodi:guide
       position="160,0"
       orientation="1,0"
       id="guide3372"
       inkscape:label=""
       inkscape:color="rgb(0,0,255)" />
    <sodipodi:guide
       position="0,160"
       orientation="0,1"
       id="guide3374"
       inkscape:label=""
       inkscape:color="rgb(0,0,255)" />
    <sodipodi:guide
       position="32,0"
       orientation="1,0"
       id="guide3376"
       inkscape:label=""
       inkscape:color="rgb(0,0,255)" />
    <inkscape:grid
       type="xygrid"
       id="grid3378" />
    <sodipodi:guide
       position="0,0"
       orientation="-0.70710678,0.70710678"
       id="guide5849"
       inkscape:label=""
       inkscape:color="rgb(255,0,0)" />
    <sodipodi:guide
       position="124,0"
       orientation="1,0"
       id="guide5851"
       inkscape:label=""
       inkscape:color="rgb(255,0,0)" />
    <sodipodi:guide
       position="0,192"
       orientation="0.70710678,0.70710678"
       id="guide5853"
       inkscape:label=""
       inkscape:color="rgb(255,0,0)" />
    <sodipodi:guide
       position="96,0"
       orientation="1,0"
       id="guide5855"
       inkscape:label=""
       inkscape:color="rgb(255,0,0)" />
    <sodipodi:guide
       position="0,96"
       orientation="0,1"
       id="guide5859"
       inkscape:label=""
       inkscape:color="rgb(255,0,0)" />
    <sodipodi:guide
       position="0,124"
       orientation="0,1"
       id="guide5861"
       inkscape:label=""
       inkscape:color="rgb(255,0,0)" />
    <sodipodi:guide
       position="0,68"
       orientation="0,1"
       id="guide5863"
       inkscape:label=""
       inkscape:color="rgb(255,0,0)" />
    <sodipodi:guide
       position="68,0"
       orientation="1,0"
       id="guide5865"
       inkscape:label=""
       inkscape:color="rgb(255,0,0)" />
    <sodipodi:guide
       position="192,0"
       orientation="-192,0"
       id="guide5869" />
    <sodipodi:guide
       position="192,192"
       orientation="0,-192"
       id="guide5871" />
  </sodipodi:namedview>
  <metadata
     id="metadata7">
    <rdf:RDF>
      <cc:Work
         rdf:about="">
        <dc:format>image/svg+xml</dc:format>
        <dc:type
           rdf:resource="http://purl.org/dc/dcmitype/StillImage" />
        <dc:title />
      </cc:Work>
    </rdf:RDF>
  </metadata>
  <g
     inkscape:groupmode="layer"
     id="layer2"
     inkscape:label="background">
    <g
       id="g7391"
       style="filter:url(#filter5248)">
      <path
         id="path4809"
         d="M 82 75 L 82 82 L 89 82 L 89 75 L 82 75 z M 103 75 L 103 82 L 110 82 L 110 75 L 103 75 z "
         style="fill:#3e2723;fill-opacity:1;fill-rule:evenodd;stroke:none;stroke-width:1px;stroke-linecap:butt;stroke-linejoin:miter;stroke-opacity:1" />
      <path
         inkscape:connector-curvature="0"
         id="path4813"
         d="m 89,82 14,0 0,-7 -14,0 z"
         style="fill:#a1887f;fill-opacity:1;fill-rule:evenodd;stroke:none;stroke-width:1px;stroke-linecap:butt;stroke-linejoin:miter;stroke-opacity:1" />
      <path
         sodipodi:nodetypes="ccccccc"
         inkscape:connector-curvature="0"
         id="path7382"
         d="m 20,82 152,0 0,78 c 0,6 -6,12 -12,12 l -128,0 c -6,0 -12,-6 -12,-12 z"
         style="fill:#f44336;fill-opacity:1;fill-rule:evenodd;stroke:none;stroke-width:1px;stroke-linecap:butt;stroke-linejoin:miter;stroke-opacity:1" />
      <path
         id="path4817"
         d="M 89 61 L 89 68 L 75 68 L 75 75 L 117 75 L 117 68 L 103 68 L 103 61 L 89 61 z M 117 75 L 117 82 L 124 82 L 124 75 L 117 75 z M 75 75 L 68 75 L 68 82 L 75 82 L 75 75 z M 89 82 L 89 89 L 103 89 L 103 82 L 89 82 z "
         style="fill:#d7ccc8;fill-opacity:1;fill-rule:evenodd;stroke:none;stroke-width:1px;stroke-linecap:butt;stroke-linejoin:miter;stroke-opacity:1" />
      <path
         id="path4825"
         d="M 75 75 L 75 82 L 82 82 L 82 75 L 75 75 z M 110 75 L 110 82 L 117 82 L 117 75 L 110 75 z "
         style="fill:#ffffff;fill-opacity:1;fill-rule:evenodd;stroke:none;stroke-width:1px;stroke-linecap:butt;stroke-linejoin:miter;stroke-opacity:1" />
      <path
         sodipodi:nodetypes="cccccccccccccccccccccccccccccccccccccccccccccccccccccccccccccccccccccccccccccccccccc"
         inkscape:connector-curvature="0"
         id="path4865"
         d="m 33,82 0,7 -13,0 0,14 13,0 0,14 -13,0 0,14 13,0 0,14 -13,0 0,14 13,0 0,13 14,0 0,-13 14,0 0,13 14,0 0,-13 14,0 0,13 14,0 0,-13 14,0 0,13 14,0 0,-13 14,0 0,13 14,0 0,-13 13,0 0,-14 -13,0 0,-14 13,0 0,-14 -13,0 0,-14 12.82227,0 L 172,89 l -13,0 0,-7 -14,0 0,7 -98,0 0,-7 z m 14,21 14,0 0,14 -14,0 z m 28,0 42,0 0,14 -42,0 z m 56,0 14,0 0,14 -14,0 z m -84,28 14,0 0,14 -14,0 z m 28,0 14,0 0,14 -14,0 z m 28,0 14,0 0,14.06738 L 103,145 Z m 28,0 14,0 0,14 -14,0 z"
         style="fill:#d32f2f;fill-opacity:1;fill-rule:evenodd;stroke:none;stroke-width:1px;stroke-linecap:butt;stroke-linejoin:miter;stroke-opacity:1" />
      <path
         inkscape:connector-curvature="0"
         id="path4829"
         d="m 82,89 0,7 28,0 0,-7 z"
         style="fill:#bcaaa4;fill-opacity:1;fill-rule:evenodd;stroke:none;stroke-width:1px;stroke-linecap:butt;stroke-linejoin:miter;stroke-opacity:1" />
      <path
         id="path4831"
         d="M 75 61 L 75 68 L 89 68 L 89 61 L 75 61 z M 103 61 L 103 68 L 117 68 L 117 61 L 103 61 z M 68 82 L 68 110 L 75 110 L 75 117 L 117 117 L 117 110 L 124 110 L 124 82 L 103 82 L 103 89 L 110 89 L 110 96 L 82 96 L 82 89 L 89 89 L 89 82 L 68 82 z "
         style="fill:#5d4037;fill-opacity:1;fill-rule:evenodd;stroke:none;stroke-width:1px;stroke-linecap:butt;stroke-linejoin:miter;stroke-opacity:1" />
      <path
         inkscape:connector-curvature="0"
         id="path4837"
         d="m 75,61 0,-7 7,0 0,-7 28,0 0,7 7,0 0,7 z"
         style="fill:#0d47a1;fill-opacity:1;fill-rule:evenodd;stroke:none;stroke-width:1px;stroke-linecap:butt;stroke-linejoin:miter;stroke-opacity:1" />
      <path
         id="path4839"
         d="M 82 40 L 82 47 L 110 47 L 110 40 L 82 40 z M 110 47 L 110 54 L 117 54 L 117 47 L 110 47 z M 117 54 L 117 75 L 124 75 L 124 110 L 131 110 L 131 82 L 172 82 L 172 75 L 131 75 L 131 68 L 124 68 L 124 54 L 117 54 z M 124 110 L 117 110 L 117 117 L 124 117 L 124 110 z M 117 117 L 75 117 L 75 124 L 117 124 L 117 117 z M 75 117 L 75 110 L 68 110 L 68 117 L 75 117 z M 68 110 L 68 75 L 75 75 L 75 54 L 68 54 L 68 68 L 61 68 L 61 75 L 20 75 L 20 82 L 61 82 L 61 110 L 68 110 z M 75 54 L 82 54 L 82 47 L 75 47 L 75 54 z "
         style="fill:#000000;fill-opacity:1;fill-rule:evenodd;stroke:none;stroke-width:1px;stroke-linecap:butt;stroke-linejoin:miter;stroke-opacity:1" />
      <path
         style="fill:#b71c1c;fill-opacity:1;fill-rule:evenodd;stroke:none;stroke-width:1px;stroke-linecap:butt;stroke-linejoin:miter;stroke-opacity:1"
         d="m 47,89 0,14 -14,0 0,-14 z"
         id="path4881"
         inkscape:connector-curvature="0" />
      <path
         inkscape:connector-curvature="0"
         id="path4883"
         d="m 47,117 0,14 -14,0 0,-14 z"
         style="fill:#b71c1c;fill-opacity:1;fill-rule:evenodd;stroke:none;stroke-width:1px;stroke-linecap:butt;stroke-linejoin:miter;stroke-opacity:1" />
      <path
         style="fill:#b71c1c;fill-opacity:1;fill-rule:evenodd;stroke:none;stroke-width:1px;stroke-linecap:butt;stroke-linejoin:miter;stroke-opacity:1"
         d="m 47,145.00004 0,14 -14,0 0,-14 z"
         id="path4885"
         inkscape:connector-curvature="0" />
      <path
         inkscape:connector-curvature="0"
         id="path4887"
         d="m 75,145.00004 0,14 -14,0 0,-14 z"
         style="fill:#b71c1c;fill-opacity:1;fill-rule:evenodd;stroke:none;stroke-width:1px;stroke-linecap:butt;stroke-linejoin:miter;stroke-opacity:1" />
      <path
         style="fill:#b71c1c;fill-opacity:1;fill-rule:evenodd;stroke:none;stroke-width:1px;stroke-linecap:butt;stroke-linejoin:miter;stroke-opacity:1"
         d="m 131,145.00004 0,14 -14,0 0,-14 z"
         id="path4889"
         inkscape:connector-curvature="0" />
      <path
         style="fill:#b71c1c;fill-opacity:1;fill-rule:evenodd;stroke:none;stroke-width:1px;stroke-linecap:butt;stroke-linejoin:miter;stroke-opacity:1"
         d="m 75,117 0,14 -14,0 0,-14 z"
         id="path4891"
         inkscape:connector-curvature="0" />
      <path
         style="fill:#b71c1c;fill-opacity:1;fill-rule:evenodd;stroke:none;stroke-width:1px;stroke-linecap:butt;stroke-linejoin:miter;stroke-opacity:1"
         d="m 103,131 -14,0 0,-7 14,0 z"
         id="path4909"
         inkscape:connector-curvature="0" />
      <path
         inkscape:connector-curvature="0"
         id="path4927"
         d="m 131,117.00004 0,14 -14,0 0,-14 z"
         style="fill:#b71c1c;fill-opacity:1;fill-rule:evenodd;stroke:none;stroke-width:1px;stroke-linecap:butt;stroke-linejoin:miter;stroke-opacity:1" />
      <path
         inkscape:connector-curvature="0"
         id="path4937"
         d="m 159,145.00004 0,14 -14,0 0,-14 z"
         style="fill:#b71c1c;fill-opacity:1;fill-rule:evenodd;stroke:none;stroke-width:1px;stroke-linecap:butt;stroke-linejoin:miter;stroke-opacity:1" />
      <path
         style="fill:#b71c1c;fill-opacity:1;fill-rule:evenodd;stroke:none;stroke-width:1px;stroke-linecap:butt;stroke-linejoin:miter;stroke-opacity:1"
         d="m 159,117.00004 0,14 -14,0 0,-14 z"
         id="path4943"
         inkscape:connector-curvature="0" />
      <path
         inkscape:connector-curvature="0"
         id="path4945"
         d="m 159,89.00004 0,14 -14,0 0,-14 z"
         style="fill:#b71c1c;fill-opacity:1;fill-rule:evenodd;stroke:none;stroke-width:1px;stroke-linecap:butt;stroke-linejoin:miter;stroke-opacity:1" />
      <path
         inkscape:connector-curvature="0"
         id="path4985"
         d="m 89,145.00004 0,7 7,0 0,7 7,0 0,-14 z"
         style="fill:#b71c1c;fill-opacity:1;fill-rule:evenodd;stroke:none;stroke-width:1px;stroke-linecap:butt;stroke-linejoin:miter;stroke-opacity:1" />
      <path
         sodipodi:nodetypes="ccccccccccccccccccccccc"
         inkscape:connector-curvature="0"
         id="path4987"
         d="m 20,75 41,0 0,-7 7,0 0,-14 7,0 0,-7 7,0 0,-7 28,0 0,7 7,0 0,7 7,0 0,14 7,0 0,7 41,0 0,-43 c 0,-6 -6,-12 -12,-12 L 32,20 c -6,0 -12,6 -12,12 z"
         style="fill:#90a4ae;fill-opacity:1;fill-rule:evenodd;stroke:none;stroke-width:1px;stroke-linecap:butt;stroke-linejoin:miter;stroke-opacity:1" />
      <path
         id="path4989"
         d="M 89 131 L 89 138 L 96 138 L 96 131 L 89 131 z M 89 152 L 89 159 L 96 159 L 96 152 L 89 152 z "
         style="fill:#ff8f00;fill-opacity:1;fill-rule:evenodd;stroke:none;stroke-width:1px;stroke-linecap:butt;stroke-linejoin:miter;stroke-opacity:1" />
    </g>
  </g>
  <g
     inkscape:groupmode="layer"
     id="layer3"
     inkscape:label="finish"
     sodipodi:insensitive="true">
    <path
       style="opacity:0.1;fill:#ffffff;fill-opacity:1;fill-rule:evenodd;stroke:none;stroke-width:1px;stroke-linecap:butt;stroke-linejoin:miter;stroke-opacity:1"
       d="m 32,20 c -6,0 -12,6 -12,12 l 0,1 c 0,-6 6,-12 12,-12 l 128,0 c 6,0 12,6 12,12 l 0,-1 c 0,-6 -6,-12 -12,-12 L 32,20 Z"
       id="path4180"
       inkscape:connector-curvature="0" />
    <path
       style="opacity:0.2;fill:#3e2723;fill-opacity:1;fill-rule:evenodd;stroke:none;stroke-width:1px;stroke-linecap:butt;stroke-linejoin:miter;stroke-opacity:1"
       d="m 20,159 0,1 c 0,6 6,12 12,12 l 128,0 c 6,0 12,-6 12,-12 l 0,-1 c 0,6 -6,12 -12,12 l -128,0 c -6,0 -12,-6 -12,-12 z"
       id="path4186"
       inkscape:connector-curvature="0" />
    <path
       sodipodi:nodetypes="ccccccccc"
       inkscape:connector-curvature="0"
       id="path4192"
       d="m 32,880.36216 128,0 c 6,0 12,6 12,12 l 0,128.00004 c 0,6 -6,12 -12,12 l -128,0 c -6,0 -12,-6 -12,-12 l 0,-128.00004 c 0,-6 6,-12 12,-12 z"
       style="opacity:0.1;fill:url(#radialGradient4200);fill-opacity:1;fill-rule:evenodd;stroke:none;stroke-width:0.1;stroke-linecap:butt;stroke-linejoin:miter;stroke-miterlimit:4;stroke-dasharray:none;stroke-opacity:1"
       transform="translate(0,-860.36216)" />
  </g>
</svg>
