<?xml version="1.0" encoding="utf-8"?>
<!-- Generator: Adobe Illustrator 19.0.1, SVG Export Plug-In . SVG Version: 6.00 Build 0)  -->
<!DOCTYPE svg PUBLIC "-//W3C//DTD SVG 1.1//EN" "http://www.w3.org/Graphics/SVG/1.1/DTD/svg11.dtd">
<svg version="1.1"
	 id="svg2" xmlns:svg="http://www.w3.org/2000/svg" xmlns:dc="http://purl.org/dc/elements/1.1/" xmlns:rdf="http://www.w3.org/1999/02/22-rdf-syntax-ns#" xmlns:cc="http://creativecommons.org/ns#" xmlns:sodipodi="http://sodipodi.sourceforge.net/DTD/sodipodi-0.dtd" xmlns:inkscape="http://www.inkscape.org/namespaces/inkscape" inkscape:export-ydpi="90" inkscape:export-xdpi="90" inkscape:export-filename="C:\Users\Simon\Documents\Material Design Icon Pack\PNG\titaniumbackup.png" sodipodi:docname="titaniumbackup.svg" inkscape:version="0.91 r13725"
	 xmlns="http://www.w3.org/2000/svg" xmlns:xlink="http://www.w3.org/1999/xlink" x="0px" y="0px" viewBox="-443 865 192 192"
	 style="enable-background:new -443 865 192 192;" xml:space="preserve">
<style type="text/css">
	.st0{filter:url(#filter5207);}
	.st1{fill:#4E4E4E;}
	.st2{fill:#818181;}
	.st3{fill:#616161;}
	.st4{opacity:0.2;clip-path:url(#SVGID_2_);fill:url(#path4431_1_);enable-background:new    ;}
	.st5{fill:#FDD95F;}
	.st6{opacity:0.2;clip-path:url(#SVGID_4_);fill:#BF360C;enable-background:new    ;}
	.st7{opacity:0.2;clip-path:url(#SVGID_6_);fill:#FDFDFD;enable-background:new    ;}
	.st8{opacity:0.1;fill:url(#path5219_1_);enable-background:new    ;}
</style>
<filter  inkscape:label="Drop Shadow" style="color-interpolation-filters:sRGB;" id="filter5207">
	<feFlood  result="flood" flood-color="rgb(0,0,0)" flood-opacity="0.29999999999999999" id="feFlood5209"></feFlood>
	<feComposite  operator="in" in2="SourceGraphic" in="flood" result="composite1" id="feComposite5211"></feComposite>
	<feGaussianBlur  in="composite1" stdDeviation="3" result="blur" id="feGaussianBlur5213"></feGaussianBlur>
	<feOffset  dy="3" dx="4.57967e-015" result="offset" id="feOffset5215"></feOffset>
	<feComposite  operator="over" in2="offset" in="SourceGraphic" result="composite2" id="feComposite5217"></feComposite>
</filter>
<sodipodi:namedview  showgrid="true" showguides="true" inkscape:cy="93.123141" inkscape:cx="155.79305" borderopacity="1.0" bordercolor="#666666" pagecolor="#ffffff" id="base" inkscape:zoom="2.6516504" inkscape:snap-global="false" inkscape:window-maximized="1" inkscape:window-y="-8" inkscape:window-x="-8" inkscape:window-height="1017" inkscape:window-width="1920" inkscape:guide-bbox="true" inkscape:pageshadow="2" inkscape:current-layer="layer3" inkscape:pageopacity="0.0" inkscape:document-units="px">
	<inkscape:grid  type="xygrid" empspacing="5" enabled="true" visible="true" id="grid2985" snapvisiblegridlinesonly="true">
		</inkscape:grid>
	<sodipodi:guide  id="guide3002" orientation="1,0" position="8,58.524064"></sodipodi:guide>
	<sodipodi:guide  id="guide3004" orientation="1,0" position="20,69.304813"></sodipodi:guide>
	<sodipodi:guide  id="guide3006" orientation="1,0" position="32,62.631016"></sodipodi:guide>
	<sodipodi:guide  id="guide3008" orientation="1,0" position="68,53.390374"></sodipodi:guide>
	<sodipodi:guide  id="guide3010" orientation="0,1" position="119.61497,8"></sodipodi:guide>
	<sodipodi:guide  id="guide3012" orientation="0,1" position="155.5508,20"></sodipodi:guide>
	<sodipodi:guide  id="guide3014" orientation="0,1" position="132.96257,32"></sodipodi:guide>
	<sodipodi:guide  id="guide3016" orientation="0,1" position="130.90909,68"></sodipodi:guide>
	<sodipodi:guide  id="guide3018" orientation="0,1" position="137.06952,184"></sodipodi:guide>
	<sodipodi:guide  id="guide3020" orientation="1,0" position="184,145.79679"></sodipodi:guide>
	<sodipodi:guide  id="guide3022" orientation="0,1" position="91.379679,172"></sodipodi:guide>
	<sodipodi:guide  id="guide3024" orientation="1,0" position="172,101.64706"></sodipodi:guide>
	<sodipodi:guide  id="guide3026" orientation="0,1" position="149.39037,160"></sodipodi:guide>
	<sodipodi:guide  id="guide3028" orientation="1,0" position="160,88.299465"></sodipodi:guide>
	<sodipodi:guide  id="guide3030" orientation="0,1" position="128.34225,124"></sodipodi:guide>
	<sodipodi:guide  id="guide3032" orientation="1,0" position="124,92.919786"></sodipodi:guide>
</sodipodi:namedview>
<g id="layer3" inkscape:label="circle" inkscape:groupmode="layer">
	
		<g id="path4791" inkscape:connector-curvature="0" sodipodi:nodetypes="ccsccsccsccssccsccsccsccsccsccsccsccassccsccsccsccsaccsccsccscccccsccsccsccssc" class="st0">
		<path class="st1" d="M-361.5,873.3h28.9c0,0,1.9,0.1,2.7,0.7c0.8,0.6,1.6,2.7,1.6,2.7l3.8,18.5c0,0,0.7,1.9,1.7,3
			c0.6,0.7,2.1,1.7,2.1,1.7l12.3,7.2c0,0,1.2,0.7,3.5,1.2c2.6,0.6,4.3,0,4.3,0l16.2-5.4c0,0,2.2-0.6,3.3-0.3
			c0.5,0.1,0.9,0.2,1.4,0.5s1.1,0.9,1.1,0.9l14.7,25.5c0,0,0.9,1.9,0.7,2.9c-0.3,1.7-1.6,2.7-1.6,2.7l-13.9,12.8
			c0,0-1.4,1.7-1.8,2.6c-0.5,1.3-0.8,4.2-0.8,4.2v14.4c0,0,0.4,1.8,0.8,2.6c0.6,1.1,2.3,2.9,2.3,2.9l12.8,11.8c0,0,1.4,1.6,1.7,2.6
			c0.8,2.1-0.1,3.3-0.1,3.3l-15.7,26.3c0,0-0.4,0.9-2.4,0.9c-1.1,0-3.2-0.5-3.2-0.5l-16.9-5.6c0,0-1.4-0.1-3,0.1
			c-1.5,0.2-3,0.9-3,0.9l-12.8,7.5c0,0-1.7,1.6-2.4,2.5c-1.2,1.7-2,3.8-2,3.8l-3.3,16.5c0,0-0.3,0.6-0.5,0.9
			c-0.3,0.5-0.6,1.1-0.9,1.4c-0.6,0.7-1.3,1.3-2.1,1.6c-0.2,0.1-0.6,0.1-0.6,0.1l-30.6,0.1c0,0-1-0.1-2-1.2c-1.1-1.2-1.1-2-1.1-2
			l-3.9-18.7c0,0-1.1-2.5-2-3.6c-0.8-0.9-2.9-2.2-2.9-2.2l-11.9-6.9c0,0-2-0.8-3.1-0.9c-1.9-0.1-5.7,1.1-5.7,1.1l-14.8,4.7
			c0,0-1.1,0.4-1.8,0.3c-0.5-0.1-1.3-0.1-1.8-0.3c-0.4-0.1-1.1-0.6-1.1-0.6l-15.7-26.3c0,0-0.5-1.7-0.3-2.5c0.2-1.1,1.5-2.8,1.5-2.8
			l13.6-12.3c0,0,1.3-1.4,1.7-2.3c0.5-1,1.2-3.1,1.2-3.1v-15.8c0,0-0.2-1.7-0.6-2.5c-0.6-1.3-2.4-3.4-2.4-3.4l-13.4-12.7
			c-0.7-0.7-0.9-0.9-1.5-2.5c-0.3-1.5,0-1.8,0.3-2.8l14.8-26c0,0,0.7-1.1,2.3-1.3c1.4-0.2,4.1,0.5,4.1,0.5l13.6,4.4
			c0,0,3.4,1,5.4,1.1c1.1,0,2.3-0.3,2.3-0.3l15.7-9.4c0,0,1.8-0.8,2.4-2.9c0.3-1.2,0.8-3.6,0.8-3.6l3-15.2c0,0,0.4-1.3,0.8-1.9
			c0.4-0.5,0.7-0.8,1.2-1.1C-363.4,873.5-361.5,873.3-361.5,873.3z"/>
	</g>
	
		<path id="path4789" inkscape:connector-curvature="0" sodipodi:nodetypes="ccsccsccsccssccsccsccsccsccsccsccsccassccsccsccsccsaccsccsccscccccsccsccsccssc" class="st2" d="
		M-361.5,873.3h28.9c0,0,1.9,0.1,2.7,0.7c0.8,0.6,1.6,2.7,1.6,2.7l3.8,18.4c0,0,0.7,1.9,1.7,3c0.6,0.6,2.1,1.7,2.1,1.7l12.3,7.1
		c0,0,1.2,0.7,3.5,1.2c2.6,0.6,4.3,0,4.3,0l16.2-5.4c0,0,2.2-0.6,3.3-0.3c0.5,0.1,0.9,0.2,1.4,0.5c0.5,0.3,1.1,0.9,1.1,0.9
		l14.7,25.3c0,0,0.9,1.9,0.7,2.9c-0.3,1.7-1.6,2.7-1.6,2.7l-13.9,12.7c0,0-1.4,1.6-1.8,2.6c-0.5,1.3-0.8,4.2-0.8,4.2v14.3
		c0,0,0.4,1.8,0.8,2.6c0.6,1.1,2.3,2.9,2.3,2.9l12.8,11.8c0,0,1.4,1.6,1.7,2.6c0.8,2.1-0.1,3.2-0.1,3.2l-15.7,26.1
		c0,0-0.4,0.8-2.4,0.9c-1.1,0-3.2-0.5-3.2-0.5l-16.9-5.6c0,0-1.4-0.1-3,0.1c-1.5,0.2-3,0.9-3,0.9l-12.8,7.5c0,0-1.7,1.6-2.4,2.5
		c-1.2,1.7-2,3.7-2,3.7l-3.3,16.5c0,0-0.3,0.6-0.5,0.9c-0.3,0.5-0.6,1.1-0.9,1.4c-0.6,0.7-1.3,1.3-2.1,1.6c-0.2,0.1-0.6,0.1-0.6,0.1
		l-30.6,0.1c0,0-1-0.1-2-1.2c-1.1-1.2-1.1-2-1.1-2l-3.9-18.6c0,0-1.1-2.5-2-3.6c-0.8-0.9-2.9-2.2-2.9-2.2l-11.9-6.8
		c0,0-2-0.8-3.1-0.9c-1.9-0.1-5.7,1.1-5.7,1.1l-14.8,4.6c0,0-1.1,0.4-1.8,0.3c-0.5-0.1-1.3-0.1-1.8-0.3c-0.4-0.1-1.1-0.6-1.1-0.6
		l-15.7-26.2c0,0-0.5-1.7-0.3-2.5c0.2-1,1.5-2.8,1.5-2.8l13.6-12.2c0,0,1.3-1.4,1.7-2.2c0.5-1,1.2-3.1,1.2-3.1V953
		c0,0-0.2-1.7-0.6-2.4c-0.6-1.3-2.4-3.4-2.4-3.4l-13.4-12.7c-0.7-0.7-0.9-0.9-1.5-2.5c-0.3-1.5,0-1.8,0.3-2.8l14.8-25.8
		c0,0,0.7-1.1,2.3-1.3c1.4-0.2,4.1,0.5,4.1,0.5l13.6,4.4c0,0,3.4,1,5.4,1.1c1.1,0,2.3-0.3,2.3-0.3l15.7-9.3c0,0,1.8-0.8,2.4-2.9
		c0.3-1.2,0.8-3.6,0.8-3.6l3-15.1c0,0,0.4-1.3,0.8-1.9c0.4-0.5,0.7-0.8,1.2-1.1C-363.4,873.5-361.5,873.3-361.5,873.3z"/>
	
		<path id="path4787" inkscape:connector-curvature="0" sodipodi:nodetypes="ccsccsccsccssccsccsccsccsccsccsccsccassccsccsccsccsaccsccsccscccccsccsccsccssc" class="st3" d="
		M-361.5,874.3h28.9c0,0,1.9,0.1,2.7,0.7c0.8,0.6,1.6,2.7,1.6,2.7l3.8,18.3c0,0,0.7,1.9,1.7,2.9c0.6,0.6,2.1,1.7,2.1,1.7l12.3,7.1
		c0,0,1.2,0.7,3.5,1.2c2.6,0.6,4.3,0,4.3,0l16.2-5.4c0,0,2.2-0.6,3.3-0.3c0.5,0.1,0.9,0.2,1.4,0.5c0.5,0.3,1.1,0.9,1.1,0.9
		l14.7,25.2c0,0,0.9,1.9,0.7,2.8c-0.3,1.7-1.6,2.7-1.6,2.7l-13.9,12.7c0,0-1.4,1.6-1.8,2.6c-0.5,1.3-0.8,4.1-0.8,4.1V969
		c0,0,0.4,1.8,0.8,2.6c0.6,1.1,2.3,2.9,2.3,2.9l12.8,11.7c0,0,1.4,1.6,1.7,2.6c0.8,2.1-0.1,3.2-0.1,3.2l-15.7,26
		c0,0-0.4,0.8-2.4,0.9c-1.1,0-3.2-0.5-3.2-0.5l-16.9-5.5c0,0-1.4-0.1-3,0.1c-1.5,0.2-3,0.9-3,0.9l-12.8,7.4c0,0-1.7,1.5-2.4,2.5
		c-1.2,1.7-2,3.7-2,3.7l-3.3,16.4c0,0-0.3,0.6-0.5,0.9c-0.3,0.5-0.6,1.1-0.9,1.4c-0.6,0.7-1.3,1.2-2.1,1.6c-0.2,0.1-0.6,0.1-0.6,0.1
		l-30.6,0.1c0,0-1-0.1-2-1.2c-1.1-1.2-1.1-2-1.1-2l-3.9-18.5c0,0-1.1-2.5-2-3.5c-0.8-0.9-2.9-2.2-2.9-2.2l-11.9-6.8
		c0,0-2-0.8-3.1-0.9c-1.9-0.1-5.7,1.1-5.7,1.1l-14.8,4.6c0,0-1.1,0.4-1.8,0.3c-0.5-0.1-1.3-0.1-1.8-0.3c-0.4-0.1-1.1-0.6-1.1-0.6
		l-15.7-26c0,0-0.5-1.7-0.3-2.5c0.2-1,1.5-2.8,1.5-2.8l13.6-12.1c0,0,1.3-1.4,1.7-2.2c0.5-1,1.2-3.1,1.2-3.1v-15.7
		c0,0-0.2-1.7-0.6-2.4c-0.6-1.2-2.4-3.4-2.4-3.4l-13.4-12.6c-0.7-0.7-0.9-0.9-1.5-2.5c-0.3-1.5,0-1.8,0.3-2.8l14.8-25.7
		c0,0,0.7-1.1,2.3-1.3c1.4-0.2,4.1,0.5,4.1,0.5l13.6,4.4c0,0,3.4,1,5.4,1.1c1.1,0,2.3-0.3,2.3-0.3l15.7-9.3c0,0,1.8-0.8,2.4-2.9
		c0.3-1.2,0.8-3.6,0.8-3.6l3-15.1c0,0,0.4-1.3,0.8-1.9c0.4-0.5,0.7-0.8,1.2-1.1C-363.4,874.5-361.5,874.3-361.5,874.3z"/>
	<g>
		<defs>
			<path id="SVGID_1_" d="M-361.5,873.3h28.9c0,0,1.9,0.1,2.7,0.7c0.8,0.6,1.6,2.7,1.6,2.7l3.8,18.5c0,0,0.7,1.9,1.7,3
				c0.6,0.7,2.1,1.7,2.1,1.7l12.3,7.2c0,0,1.2,0.7,3.5,1.2c2.6,0.6,4.3,0,4.3,0l16.2-5.4c0,0,2.2-0.6,3.3-0.3
				c0.5,0.1,0.9,0.2,1.4,0.5s1.1,0.9,1.1,0.9l14.7,25.5c0,0,0.9,1.9,0.7,2.9c-0.3,1.7-1.6,2.7-1.6,2.7l-13.9,12.8
				c0,0-1.4,1.7-1.8,2.6c-0.5,1.3-0.8,4.2-0.8,4.2v14.4c0,0,0.4,1.8,0.8,2.6c0.6,1.1,2.3,2.9,2.3,2.9l12.8,11.8c0,0,1.4,1.6,1.7,2.6
				c0.8,2.1-0.1,3.3-0.1,3.3l-15.7,26.3c0,0-0.4,0.9-2.4,0.9c-1.1,0-3.2-0.5-3.2-0.5l-16.9-5.6c0,0-1.4-0.1-3,0.1
				c-1.5,0.2-3,0.9-3,0.9l-12.8,7.5c0,0-1.7,1.6-2.4,2.5c-1.2,1.7-2,3.8-2,3.8l-3.3,16.5c0,0-0.3,0.6-0.5,0.9
				c-0.3,0.5-0.6,1.1-0.9,1.4c-0.6,0.7-1.3,1.3-2.1,1.6c-0.2,0.1-0.6,0.1-0.6,0.1l-30.6,0.1c0,0-1-0.1-2-1.2c-1.1-1.2-1.1-2-1.1-2
				l-3.9-18.7c0,0-1.1-2.5-2-3.6c-0.8-0.9-2.9-2.2-2.9-2.2l-11.9-6.9c0,0-2-0.8-3.1-0.9c-1.9-0.1-5.7,1.1-5.7,1.1l-14.8,4.7
				c0,0-1.1,0.4-1.8,0.3c-0.5-0.1-1.3-0.1-1.8-0.3c-0.4-0.1-1.1-0.6-1.1-0.6l-15.7-26.3c0,0-0.5-1.7-0.3-2.5
				c0.2-1.1,1.5-2.8,1.5-2.8l13.6-12.3c0,0,1.3-1.4,1.7-2.3c0.5-1,1.2-3.1,1.2-3.1v-15.8c0,0-0.2-1.7-0.6-2.5
				c-0.6-1.3-2.4-3.4-2.4-3.4l-13.4-12.7c-0.7-0.7-0.9-0.9-1.5-2.5c-0.3-1.5,0-1.8,0.3-2.8l14.8-26c0,0,0.7-1.1,2.3-1.3
				c1.4-0.2,4.1,0.5,4.1,0.5l13.6,4.4c0,0,3.4,1,5.4,1.1c1.1,0,2.3-0.3,2.3-0.3l15.7-9.4c0,0,1.8-0.8,2.4-2.9
				c0.3-1.2,0.8-3.6,0.8-3.6l3-15.2c0,0,0.4-1.3,0.8-1.9c0.4-0.5,0.7-0.8,1.2-1.1C-363.4,873.5-361.5,873.3-361.5,873.3z"/>
		</defs>
		<clipPath id="SVGID_2_">
			<use xlink:href="#SVGID_1_"  style="overflow:visible;"/>
		</clipPath>
		
			<linearGradient id="path4431_1_" gradientUnits="userSpaceOnUse" x1="-336.9398" y1="885.3494" x2="-221.2118" y2="767.5233" gradientTransform="matrix(0.8712 0 0 -0.8712 -97.7519 1683.5221)">
			<stop  offset="0" style="stop-color:#000000"/>
			<stop  offset="1" style="stop-color:#000000;stop-opacity:0"/>
		</linearGradient>
		<path id="path4431" inkscape:connector-curvature="0" class="st4" d="M-390.1,925.2l0.1,29.8h0v0h0v0h0v0h0v0h0v0h0v0h0v0h0v0h0v0
			h0v0h0v0h0v0h0v0h0v0h0v0h0v0h0v0h0v0h0v0h0v0h0v0h0v0h0v0h0v0h0v0h0v0h0v0h0v0h0v0h0v0h0v0h0v0h0v0h0v0h0v0h0v0h0v0h0v0h0v0h0v0
			h0v0h0v0h0v0h0v0h0.1v0.1h0.1v0.1h0.1v0.1h0.1v0.1h0.1v0.1h0.1v0.1h0.1v0.1h0.1v0.1h0.1v0.1h0.1v0.1h0.1v0.1h0.1v0.1h0.1v0.1h0.1
			v0.1h0.1v0.1h0.1v0.1h0.1v0.1h0.1v0.1h0.1v0.1h0.1v0.1h0.1v0.1h0.1v0.1h0.1v0.1h0.1v0.1h0.1v0.1h0.1v0.1h0.1v0.1h0.1v0.1h0.1v0.1
			h0.1v0.1h0.1v0.1h0.1v0.1h0.1v0.1h0.1v0.1h0.1v0.1h0.1v0.1h0.1v0.1h0.1v0.1h0.1v0.1h0.1v0.1h0.1v0.1h0.1v0.1h0.1v0.1h0.1v0.1h0.1
			v0.1h0.1v0.1h0.1v0.1h0.1v0.1h0.1v0.1h0.1v0.1h0.1v0.1h0.1v0.1h0.1v0.1h0.1v0.1h0.1v0.1h0.1v0.1h0.1v0.1h0.1v0.1h0.1v0.1h0.1v0.1
			h0.1v0.1h0.1v0.1h0.1v0.1h0.1v0.1h0.1v0.1h0.1v0.1h0.1v0.1h0.1v0.1h0.1v0.1h0.1v0.1h0.1v0.1h0.1v0.1h0.1v0.1h0.1v0.1h0.1v0.1h0.1
			v0.1h0.1v0.1h0.1v0.1h0.1v0.1h0.1v0.1h0.1v0.1h0.1v0.1h0.1v0.1h0.1v0.1h0.1v0.1h0.1v0.1h0.1v0.1h0.1v0.1h0.2v0.2h0.2v0.2h0.2v0.2
			h0.2v0.2h0.2v0.2h0.2v0.2h0.2v0.2h0.2v0.2h0.2v0.2h0.2v0.2h0.2v0.2h0.2v0.2h0.2v0.2h0.2v0.2h0.2v0.2h0.2v0.2h0.2v0.2h0.2v0.2h0.2
			v0.2h0.2v0.2h0.2v0.2h0.2v0.2h0.2v0.2h0.2v0.2h0.2v0.2h0.2v0.2h0.2v0.2h0.2v0.2h0.2v0.2h0.2v0.2h0.2v0.2h0.2v0.2h0.2v0.2h0.2v0.2
			h0.2v0.2h0.2v0.2h0.2v0.2h0.2v0.2h0.2v0.2h0.2v0.2h0.2v0.2h0.2v0.2h0.2v0.2h0.2v0.2h0.2v0.2h0.2v0.2h0.2v0.2h0.2v0.2h0.2v0.2h0.2
			v0.2h0.2v0.2h0.2v0.2h0.2v0.2h0.2v0.2h0.2v0.2h0.2v0.2h0.2v0.2h0.2v0.2h0.2v0.2h0.2v0.2h0.2v0.2h0.2v0.2h0.2v0.2h0.2v0.2h0.2v0.2
			h0.2v0.2h0.2l0,2.2l-6.1,0.1l0.1,16.7h0v0h0v0h0v0h0v0h0v0h0v0h0v0h0v0h0v0h0v0h0v0h0v0h0v0h0v0h0v0h0v0h0v0h0v0h0v0h0v0h0v0h0v0
			h0v0h0v0h0v0h0v0h0v0h0v0h0v0h0v0h0v0h0v0h0v0h0v0h0v0h0v0h0v0h0v0h0v0h0v0h0v0h0v0h0v0h0v0h0.1v0.1h0.1v0.1h0.1v0.1h0.1v0.1h0.1
			v0.1h0.1v0.1h0.1v0.1h0.1v0.1h0.1v0.1h0.1v0.1h0.1v0.1h0.1v0.1h0.1v0.1h0.1v0.1h0.1v0.1h0.1v0.1h0.1v0.1h0.1v0.1h0.1v0.1h0.1v0.1
			h0.1v0.1h0.1v0.1h0.1v0.1h0.1v0.1h0.1v0.1h0.1v0.1h0.1v0.1h0.1v0.1h0.1v0.1h0.1v0.1h0.1v0.1h0.1v0.1h0.1v0.1h0.1v0.1h0.1v0.1h0.1
			v0.1h0.1v0.1h0.1v0.1h0.1v0.1h0.1v0.1h0.1v0.1h0.1v0.1h0.1v0.1h0.1v0.1h0.1v0.1h0.1v0.1h0.1v0.1h0.1v0.1h0.1v0.1h0.1v0.1h0.1v0.1
			h0.1v0.1h0.1v0.1h0.1v0.1h0.1v0.1h0.1v0.1h0.1v0.1h0.1v0.1h0.1v0.1h0.1v0.1h0.1v0.1h0.1v0.1h0.1v0.1h0.1v0.1h0.1v0.1h0.1v0.1h0.1
			v0.1h0.1v0.1h0.1v0.1h0.1v0.1h0.1v0.1h0.1v0.1h0.1v0.1h0.1v0.1h0.1v0.1h0.1v0.1h0.1v0.1h0.1l0,0.1h0.1l0,0.1h0.1l0,0.1h0.1l0,0.1
			h0.1l0,0.1h0.1l0,0.1h0.1l0,0.1h0.1l0,0.1h0.1l0,0.1h0.1l0,0.1h0.1l0,0.1h0.1l0,0.2h0.1l0,0.2h0.2l0,0.2h0.2l0,0.2h0.2l0,0.2h0.2
			l0,0.2h0.2l0,0.2h0.2l0,0.2h0.2l0,0.2h0.2l0,0.2h0.2l0,0.2h0.2l0,0.2h0.2l0,0.2h0.2l0,0.2h0.2l0,0.2h0.2l0,0.2h0.2l0,0.2h0.2
			l0,0.2h0.2l0,0.2h0.2l0,0.2h0.2l0,0.2h0.2l0,0.2h0.2l0,0.2h0.2l0,0.2h0.2l0,0.2h0.2l0,0.2h0.2l0,0.2h0.2l0,0.2h0.2l0,0.2h0.2
			l0,0.2h0.2l0,0.2h0.2l0,0.2h0.2l0,0.2h0.2l0,0.2h0.2l0,0.2h0.2l0,0.2h0.2l0,0.2h0.2l0,0.2h0.2l0,0.2h0.2l0,0.2h0.2l0,0.2h0.2
			l0,0.2h0.2l0,0.2h0.2l0,0.2h0.2l0,0.2h0.2l0,0.2h0.2l0,0.2h0.2l0,0.2h0.2l0,0.2h0.2l0,0.2h0.2l0,0.2h0.2l0,0.2h0.2l0,0.2h0.2
			l0,0.2h0.2l0,0.2h0.2l0,0.2h0.2l0,0.2h0.2l0,0.2h0.2l0,0.2h0.2l0,0.2h0.2l0,0.2h0.2l0,0.2h0.2l0,0.2h0.2l0,0.2h0.2l0,0.2h0.2
			l0,0.2h0.2l0,0.2h0.2l0,0.2h0.2l0,0.2h0.2l0,0.2h0.2l0,0.2h0.2l0,0.2h0.2l0,0.2h0.2l0,0.2h0.2l0,0.2h0.2l0,0.2h0.2l0,0.2h0.2
			l0,0.2h0.2l0,0.2h0.2l0,0.2h0.2l0,0.2h0.2l0,0.2h0.2l0,0.2h0.2l0,0.2h0.2l0,0.2h0.2l0,0.2h0.2l0,0.2h0.2l0,0.3h0.2l0,0.3h0.3
			l0,0.3h0.3l0,0.3h0.3l0,0.3h0.3l0,0.3h0.3l0,0.3h0.3l0,0.3h0.3l0,0.3h0.3l0,0.3h0.3l0,0.3h0.3l0,0.3h0.3l0,0.3h0.3l0,0.3h0.3
			l0,0.3h0.3l0,0.3h0.3l0,0.3h0.3l0,0.3h0.3l0,0.3h0.3l0,0.3h0.3l0,0.3h0.3l0,0.3h0.3l0,0.3h0.3l0,0.3h0.3l0,0.3h0.3l0,0.3h0.3
			l0,0.3h0.3l0,0.3h0.3l0,0.3h0.3l0,0.3h0.3l0,0.3h0.3l0,0.3h0.3l0,0.3h0.3l0,0.3h0.3l0,0.3h0.3l0,0.3h0.3l0,0.3h0.3l0,0.3h0.3
			l0,0.3h0.3l0,0.3h0.3l0,0.3h0.3l0,0.3h0.3l0,0.3h0.3l0,0.3h0.3l0,0.3h0.3l0,0.3h0.3l0,0.3h0.3l0,0.3h0.3l0,0.3h0.3l0,0.3h0.3
			l0,0.3h0.3l0,0.3h0.3l0,0.3h0.3l0,0.3h0.3l0,0.3h0.3l0,0.3h0.3l0,0.3h0.3l0,0.3h0.3l0,0.3h0.3l0,0.3h0.3l0,0.3h0.3l0,0.3h0.3
			l0,0.3h0.3l0,0.3h0.3l0,0.3h0.3l0,0.3h0.3l0,0.3h0.3l0,0.3h0.3l0,0.3h0.3l0,0.3h0.3l0,0.3h0.3l0,0.3h0.3l0,0.3h0.3l0,0.3h0.3
			l0,0.3h0.3l0,0.3h0.3l0,0.3h0.3l0,0.3h0.3l0,0.3h0.3l0,0.3h0.3l0,0.3h0.3l0,0.3h0.3l0,0.3h0.3l0,0.3h0.3l0,0.3h0.3l0,0.3h0.3
			l0,0.3h0.3l0,0.3h0.3l0,0.3h0.3l0,0.4h0.3l0,0.4h0.4l0,0.4h0.4l0,0.4h0.4l0,0.4h0.4l0,0.4h0.4l0,0.4h0.4l0,0.4h0.4l0,0.4h0.4
			l0,0.4h0.4l0,0.4h0.4l0,0.4h0.4l0,0.4h0.4l0,0.4h0.4l0,0.4h0.4l0,0.4h0.4l0,0.4h0.4l0,0.4h0.4l0,0.4h0.4l0,0.4h0.4l0,0.4h0.4
			l0,0.4h0.4l0,0.4h0.4l0,0.4h0.4l0,0.4h0.4l0,0.4h0.4l0,0.4h0.4l0,0.4h0.4l0,0.4h0.4l0,0.4h0.4l0,0.4h0.4l0,0.4h0.4l0,0.4h0.4
			l0,0.4h0.4l0,0.4h0.4l0,0.4h0.4l0,0.4h0.4l0,0.4h0.4l0,0.4h0.4l0,0.4h0.4l0,0.4h42.4v-7h0.2l0,0.4h0.4l0,0.4h0.4l0,0.4h0.4l0,0.4
			h0.4l0,0.4h0.4l0,0.4h0.4l0,0.4h0.4l0,0.4h0.4l0,0.4h0.4l0,0.4h0.4l0,0.4h0.4l0,0.4h0.4l0,0.4h0.4l0,0.4h0.4l0,0.4h0.4l0,0.4h0.4
			l0,0.4h0.4l0,0.4h0.4l0,0.4h0.4l0,0.4l18.4,0v-7.3l-0.4,0v-0.4l-0.4,0v-0.4l-0.4,0v-0.4l-0.4,0v-0.4l-0.4,0v-0.4l-0.4,0v-0.4
			l-0.4,0l-0.1-13.9l-0.4,0l0-0.4l-0.4,0l0-0.4l-0.4,0l0-0.4l-0.4,0l0-0.4l-0.4,0l0-0.4l-0.4,0l0-0.4l-0.4,0l0-0.4l-0.4,0l0-0.4
			l-0.4,0l0-0.4l-0.4,0l0-0.4l-0.4,0l0-0.4l-0.4,0l0-0.4l-0.4,0l0-0.4l-0.4,0l0-0.4l-0.4,0v0c1.1-0.2,2.2-0.5,3-1.1
			c1.2-0.8,1.8-1.8,1.8-2.9c0-0.9-0.5-1.7-1.2-2.4c-0.1-0.1-0.2-0.3-0.4-0.4c-0.1-0.1-0.3-0.3-0.4-0.4c-0.1-0.1-0.3-0.3-0.4-0.4
			c-0.1-0.1-0.2-0.3-0.4-0.4c-0.1-0.1-0.3-0.3-0.4-0.4c-0.1-0.1-0.2-0.3-0.4-0.4c-0.1-0.1-0.2-0.3-0.4-0.4c-0.1-0.1-0.2-0.3-0.4-0.4
			c-0.1-0.1-0.2-0.3-0.4-0.4c-0.1-0.1-0.3-0.3-0.4-0.4c-0.1-0.1-0.2-0.3-0.4-0.4c-0.1-0.1-0.2-0.3-0.4-0.4c-0.1-0.1-0.2-0.3-0.4-0.4
			c-0.1-0.1-0.2-0.3-0.4-0.4c-0.1-0.1-0.2-0.3-0.4-0.4c-0.1-0.1-0.2-0.3-0.4-0.4c-0.1-0.1-0.2-0.3-0.4-0.4c-0.1-0.1-0.2-0.2-0.4-0.4
			l2.3,0l-0.1-29.3l-0.4,0l0-0.4l-0.4,0l0-0.4l-0.4,0l0-0.4l-0.4,0l0-0.4l-0.4,0l0-0.4l-0.4,0l0-0.4l-0.4,0l0-0.4l-0.4,0l0-0.4
			l-0.4,0l0-0.4l-0.4,0l0-0.4l-0.4,0l0-0.4l-0.4,0l0-0.4l-0.4,0l0-0.4l-0.4,0l0-0.4l-0.4,0l0-0.4l-0.4,0l0-0.4l-0.4,0l0-0.4l-0.4,0
			l0-0.4l-0.4,0l0-0.4l-0.4,0l0-0.4l-0.4,0l0-0.4l-0.4,0l0-0.4l-0.4,0l0-0.4l-0.4,0l0-0.4l-0.4,0l0-0.4l-0.4,0l0-0.4l-0.4,0l0-0.4
			l-0.4,0l0-0.4l-0.4,0l0-0.4l-0.4,0l0-0.4l-0.4,0l0-0.4l-0.4,0l0-0.4l-0.4,0l0-0.4l-0.4,0l0-0.4l-0.4,0l0-0.4l-0.4,0l0-0.4l-0.4,0
			l0-0.4l-0.4,0l0-0.4l-0.4,0l0-0.4l-0.3,0l0-0.3l-0.3,0l0-0.3l-0.3,0l0-0.3l-0.3,0l0-0.3l-0.3,0l0-0.3l-0.3,0l0-0.3l-0.3,0l0-0.3
			l-0.3,0l0-0.3l-0.3,0l0-0.3l-0.3,0l0-0.3l-0.3,0l0-0.3l-0.3,0l0-0.3l-0.3,0l0-0.3l-0.3,0l0-0.3l-0.3,0l0-0.3l-0.3,0l0-0.3l-0.3,0
			l0-0.3l-0.3,0l0-0.3l-0.3,0l0-0.3l-0.3,0l0-0.3l-0.3,0l0-0.3l-0.3,0l0-0.3l-0.3,0l0-0.3l-0.3,0l0-0.3l-0.3,0l0-0.3l-0.3,0l0-0.3
			l-0.3,0l0-0.3l-0.3,0l0-0.3l-0.3,0l0-0.3l-0.3,0l0-0.3l-0.3,0l0-0.3l-0.3,0l0-0.3l-0.3,0l0-0.3l-0.3,0l0-0.3l-0.3,0l0-0.3l-0.3,0
			l0-0.3l-0.3,0l0-0.3l-0.3,0l0-0.3l-0.3,0l0-0.3l-0.3,0l0-0.3l-0.3,0l0-0.3l-0.3,0l0-0.3l-0.3,0l0-0.3l-0.3,0l0-0.3l-0.3,0l0-0.3
			l-0.3,0l0-0.3l-0.3,0l0-0.3l-0.3,0l0-0.3l-0.3,0l0-0.3l-0.3,0l0-0.3l-0.3,0l0-0.3l-0.3,0l0-0.3l-0.3,0l0-0.3l-0.3,0l0-0.3l-0.3,0
			l0-0.3l-0.3,0l0-0.3l-0.3,0l0-0.3l-0.3,0l0-0.3l-0.3,0l0-0.3l-0.3,0l0-0.3l-0.3,0l0-0.3l-0.3,0l0-0.3l-0.3,0l0-0.3l-0.3,0l0-0.3
			l-0.3,0l0-0.3l-0.3,0l0-0.3l-0.3,0l0-0.3l-0.3,0l0-0.3l-0.3,0l0-0.3l-0.3,0l0-0.3l-0.3,0l0-0.3l-0.3,0l0-0.3l-0.3,0l0-0.3l-0.3,0
			l0-0.3l-0.3,0l0-0.3l-0.3,0l0-0.3l-0.3,0l0-0.3l-0.3,0l0-0.3l-0.3,0l0-0.3l-0.3,0l0-0.3l-0.3,0l0-0.3l-0.3,0l0-0.3l-0.3,0l0-0.3
			l-0.3,0l0-0.3l-0.3,0l0-0.3l-0.3,0l0-0.3l-0.3,0l0-0.3l-0.3,0l0-0.3l-0.3,0l0-0.3l-0.2,0l0-0.2l-0.2,0l0-0.2l-0.2,0l0-0.2l-0.2,0
			l0-0.2l-0.2,0l0-0.2l-0.2,0v-0.2l-0.2,0v-0.2l-0.2,0v-0.2l-0.2,0v-0.2l-0.2,0v-0.2l-0.2,0v-0.2l-0.2,0v-0.2l-0.2,0v-0.2l-0.2,0
			v-0.2l-0.2,0v-0.2l-0.2,0v-0.2l-0.2,0v-0.2l-0.2,0V949l-0.2,0v-0.2l-0.2,0v-0.2l-0.2,0v-0.2l-0.2,0v-0.2l-0.2,0v-0.2l-0.2,0v-0.2
			l-0.2,0v-0.2l-0.2,0v-0.2l-0.2,0V947l-0.2,0v-0.2l-0.2,0v-0.2l-0.2,0v-0.2l-0.2,0v-0.2l-0.2,0v-0.2l-0.2,0v-0.2l-0.2,0v-0.2
			l-0.2,0v-0.2l-0.2,0V945l-0.2,0v-0.2l-0.2,0v-0.2l-0.2,0v-0.2h-0.2v-0.2h-0.2V944h-0.2v-0.2h-0.2v-0.2h-0.2v-0.2h-0.2v-0.2h-0.2
			V943h-0.2v-0.2h-0.2v-0.2h-0.2v-0.2h-0.2v-0.2h-0.2V942h-0.2v-0.2h-0.2v-0.2h-0.2v-0.2h-0.2v-0.2h-0.2v-0.2h-0.2v-0.2h-0.2v-0.2
			h-0.2v-0.2h-0.2v-0.2h-0.2v-0.2h-0.2v-0.2h-0.2v-0.2h-0.2v-0.2h-0.2v-0.2h-0.2v-0.2h-0.2v-0.2h-0.2v-0.2h-0.2v-0.2h-0.2v-0.2h-0.2
			v-0.2h-0.2v-0.2h-0.2V938h-0.2v-0.2h-0.2v-0.2h-0.2v-0.2h-0.2v-0.2h-0.2v-0.2h-0.2V937h-0.2v-0.2h-0.2v-0.2h-0.2v-0.2h-0.2v-0.2
			h-0.2v-0.2h-0.2v-0.2h-0.2v-0.2h-0.2v-0.2h-0.2v-0.2h-0.2v-0.2h-0.1v-0.1h-0.1v-0.1h-0.1V935h-0.1v-0.1h-0.1v-0.1h-0.1v-0.1h-0.1
			v-0.1h-0.1v-0.1h-0.1v-0.1h-0.1V934h-0.1v-0.1h-0.1v-0.1h-0.1v-0.1h-0.1v-0.1h-0.1v-0.1h-0.1v-0.1h-0.1v-0.1h-0.1v-0.1h-0.1v-0.1
			h-0.1v-0.1h-0.1v-0.1h-0.1v-0.1h-0.1v-0.1h-0.1v-0.1h-0.1v-0.1h-0.1v-0.1h-0.1v-0.1h-0.1v-0.1h-0.1v-0.1h-0.1v-0.1h-0.1v-0.1h-0.1
			v-0.1h-0.1v-0.1h-0.1V931h-0.1v-0.1h-0.1v-0.1h-0.1v-0.1h-0.1v-0.1h-0.1v-0.1h-0.1v-0.1h-0.1v-0.1h-0.1v-0.1h-0.1V930h-0.1v-0.1
			h-0.1v-0.1h-0.1v-0.1h-0.1v-0.1h-0.1v-0.1h-0.1v-0.1h-0.1v-0.1h-0.1v-0.1h-0.1v-0.1h-0.1v-0.1h-0.1V929h-0.1v-0.1h-0.1v-0.1h-0.1
			v-0.1h-0.1v-0.1h-0.1v-0.1h-0.1v-0.1h-0.1v-0.1h-0.1v-0.1h-0.1v-0.1h-0.1v-0.1h-0.1v-0.1h-0.1V928h-0.1v-0.1h-0.1v-0.1h-0.1v-0.1
			h-0.1v-0.1h-0.1v-0.1h-0.1v-0.1h-0.1v-0.1h-0.1v-0.1h-0.1v-0.1h-0.1v-0.1h-0.1v-0.1h-0.1v-0.1h-0.1v-0.1h-0.1v-0.1h-0.1V927h-0.1
			v-0.1h-0.1v-0.1h-0.1v-0.1h-0.1v-0.1h-0.1v-0.1h-0.1v-0.1h-0.1v-0.1h0v0h0v0h0v0h0v0h0v0h0v0h0v0h0v0h0v0h0v0h0v0h0v0h0v0h0v0h0v0
			h0v0h0v0h0v0h0v0h0v0h0v0h0v0h0v0h0v0h0v0h0v0h0v0h0v0h0v0h0v0h0v0h0v0h0v0h0v0h0v0h0v0h0v0h0v0h0v0h0v0h0v0h0v0h0v0h0v0
			L-390.1,925.2L-390.1,925.2z"/>
	</g>
	<path id="path4801" inkscape:connector-curvature="0" inkscape:export-ydpi="90" inkscape:export-xdpi="90" class="st5" d="
		M-390.1,925.2l0.1,29.8l14.2,0v-13l8.4,0l0,37.7l-6.1,0.1l0.1,16.7h42.4V980l-6.7-0.1l0.2-38l8.5,0l0.1,13.1l14.3-0.1l-0.1-29.3
		L-390.1,925.2z M-315.1,960.1c-3.4,0-6.2,1.8-6.2,4c0,2.2,2.8,4,6.2,4c0,0,0,0,0,0c3.4,0,6.2-1.8,6.2-4c0,0,0,0,0,0
		C-308.8,961.9-311.6,960.1-315.1,960.1z M-323.5,973.5l0,6.9l2.4,0l0,9.5l-2.4,0l0,7.1l18.4,0v-7.3l-2.7,0l-0.1-16.2L-323.5,973.5
		L-323.5,973.5z"/>
	<g>
		<defs>
			<path id="SVGID_3_" d="M-390.1,925.2l0.1,29.8l14.2,0v-13l8.4,0l0,37.7l-6.1,0.1l0.1,16.7h42.4V980l-6.7-0.1l0.2-38l8.5,0
				l0.1,13.1l14.3-0.1l-0.1-29.3L-390.1,925.2L-390.1,925.2z M-315.1,960.1c-3.4,0-6.2,1.8-6.2,4c0,2.2,2.8,4,6.2,4c0,0,0,0,0,0
				c3.4,0,6.2-1.8,6.2-4c0,0,0,0,0,0C-308.8,961.9-311.6,960.1-315.1,960.1z M-323.5,973.5l0,6.9l2.4,0l0,9.5l-2.4,0l0,7.1l18.4,0
				v-7.3l-2.7,0l-0.1-16.2L-323.5,973.5L-323.5,973.5z"/>
		</defs>
		<clipPath id="SVGID_4_">
			<use xlink:href="#SVGID_3_"  style="overflow:visible;"/>
		</clipPath>
		<path id="path4192" inkscape:connector-curvature="0" inkscape:export-ydpi="90" inkscape:export-xdpi="90" class="st6" d="
			M-390.1,928.8l0.1,28.3l14.2,0v-12.4l8.4,0l0,35.8l-6.1,0.1l0.1,15.8h42.4v-15.6l-6.7-0.1l0.2-36.1l8.5,0l0.1,12.4l14.3-0.1
			l-0.1-27.9L-390.1,928.8L-390.1,928.8z M-315.1,961.9c-3.4,0-6.2,1.7-6.2,3.8c0,2.1,2.8,3.8,6.2,3.8c0,0,0,0,0,0
			c3.4,0,6.2-1.7,6.2-3.8c0,0,0,0,0,0C-308.8,963.7-311.6,961.9-315.1,961.9z M-323.5,974.6l0,6.6l2.4,0l0,9.1l-2.4,0l0,6.8l18.4,0
			v-6.9l-2.7,0l-0.1-15.4L-323.5,974.6L-323.5,974.6z"/>
	</g>
	<g>
		<defs>
			<path id="SVGID_5_" d="M-390.1,925.2l0.1,29.8l14.2,0v-13l8.4,0l0,37.7l-6.1,0.1l0.1,16.7h42.4V980l-6.7-0.1l0.2-38l8.5,0
				l0.1,13.1l14.3-0.1l-0.1-29.3C-314.7,925.5-390.1,925.2-390.1,925.2z M-315.1,960.1c-3.4,0-6.2,1.8-6.2,4c0,2.2,2.8,4,6.2,4
				c0,0,0,0,0,0c3.4,0,6.2-1.8,6.2-4c0,0,0,0,0,0C-308.8,961.9-311.6,960.1-315.1,960.1z M-323.5,973.5l0,6.9l2.4,0l0,9.5l-2.4,0
				l0,7.1l18.4,0v-7.3l-2.7,0l-0.1-16.2L-323.5,973.5L-323.5,973.5z"/>
		</defs>
		<clipPath id="SVGID_6_">
			<use xlink:href="#SVGID_5_"  style="overflow:visible;"/>
		</clipPath>
		<path id="path4194" inkscape:connector-curvature="0" inkscape:export-ydpi="90" inkscape:export-xdpi="90" class="st7" d="
			M-390.3,925.3l0.1,29l14.3,0v-12.7l8.4,0l0,36.7l-6.2,0.1l0.1,16.2h42.6v-15.9l-6.8-0.1l0.2-37l8.6,0l0.1,12.7l14.3-0.1l-0.1-28.5
			L-390.3,925.3z M-314.9,959.3c-3.4,0-6.2,1.8-6.2,3.9c0,2.2,2.8,3.9,6.2,3.9c0,0,0,0,0,0c3.4,0,6.2-1.8,6.2-3.9c0,0,0,0,0,0
			C-308.7,961-311.4,959.3-314.9,959.3z M-323.4,972.3l0,6.8l2.4,0l0,9.3l-2.4,0l0,6.9l18.5,0v-7.1l-2.7,0l-0.1-15.8L-323.4,972.3
			L-323.4,972.3z"/>
	</g>
	<path id="path4198" inkscape:connector-curvature="0" inkscape:export-ydpi="90" inkscape:export-xdpi="90" class="st5" d="
		M-390.1,926.3l0.1,28.9l14.2,0v-12.6l8.4,0l0,36.6l-6.1,0.1l0.1,16.2h42.4v-15.9l-6.7-0.1l0.2-36.9l8.5,0l0.1,12.7l14.3-0.1
		l-0.1-28.4L-390.1,926.3L-390.1,926.3z M-315.1,960.2c-3.4,0-6.2,1.8-6.2,3.9c0,2.2,2.8,3.9,6.2,3.9c0,0,0,0,0,0
		c3.4,0,6.2-1.8,6.2-3.9c0,0,0,0,0,0C-308.8,962-311.6,960.2-315.1,960.2z M-323.5,973.2l0,6.7l2.4,0l0,9.3l-2.4,0l0,6.9l18.4,0V989
		l-2.7,0l-0.1-15.7L-323.5,973.2L-323.5,973.2z"/>
</g>
<g id="layer1" inkscape:label="circle 1" inkscape:groupmode="layer">
	
		<radialGradient id="path5219_1_" cx="-466.3199" cy="2122.9692" r="83.9853" gradientTransform="matrix(-3.271850e-003 2.0956 2.0898 3.262720e-003 -4872.8213 1843.1444)" gradientUnits="userSpaceOnUse">
		<stop  offset="0" style="stop-color:#FFFFFF"/>
		<stop  offset="1" style="stop-color:#FFFFFF;stop-opacity:0"/>
	</radialGradient>
	
		<path id="path5219" inkscape:connector-curvature="0" sodipodi:nodetypes="ccsccsccsccssccsccsccsccsccsccsccsccassccsccsccsccsaccsccsccscccccsccsccsccssc" class="st8" d="
		M-361.5,873.3h28.9c0,0,1.9,0.1,2.7,0.7c0.8,0.6,1.6,2.7,1.6,2.7l3.8,18.5c0,0,0.7,1.9,1.7,3c0.6,0.7,2.1,1.7,2.1,1.7l12.3,7.2
		c0,0,1.2,0.7,3.5,1.2c2.6,0.6,4.3,0,4.3,0l16.2-5.4c0,0,2.2-0.6,3.3-0.3c0.5,0.1,0.9,0.2,1.4,0.5s1.1,0.9,1.1,0.9l14.7,25.5
		c0,0,0.9,1.9,0.7,2.9c-0.3,1.7-1.6,2.7-1.6,2.7l-13.9,12.8c0,0-1.4,1.7-1.8,2.6c-0.5,1.3-0.8,4.2-0.8,4.2v14.4c0,0,0.4,1.8,0.8,2.6
		c0.6,1.1,2.3,2.9,2.3,2.9l12.8,11.8c0,0,1.4,1.6,1.7,2.6c0.8,2.1-0.1,3.3-0.1,3.3l-15.7,26.3c0,0-0.4,0.9-2.4,0.9
		c-1.1,0-3.2-0.5-3.2-0.5l-16.9-5.6c0,0-1.4-0.1-3,0.1c-1.5,0.2-3,0.9-3,0.9l-12.8,7.5c0,0-1.7,1.6-2.4,2.5c-1.2,1.7-2,3.8-2,3.8
		l-3.3,16.5c0,0-0.3,0.6-0.5,0.9c-0.3,0.5-0.6,1.1-0.9,1.4c-0.6,0.7-1.3,1.3-2.1,1.6c-0.2,0.1-0.6,0.1-0.6,0.1l-30.6,0.1
		c0,0-1-0.1-2-1.2c-1.1-1.2-1.1-2-1.1-2l-3.9-18.7c0,0-1.1-2.5-2-3.6c-0.8-0.9-2.9-2.2-2.9-2.2l-11.9-6.9c0,0-2-0.8-3.1-0.9
		c-1.9-0.1-5.7,1.1-5.7,1.1l-14.8,4.7c0,0-1.1,0.4-1.8,0.3c-0.5-0.1-1.3-0.1-1.8-0.3c-0.4-0.1-1.1-0.6-1.1-0.6l-15.7-26.3
		c0,0-0.5-1.7-0.3-2.5c0.2-1.1,1.5-2.8,1.5-2.8l13.6-12.3c0,0,1.3-1.4,1.7-2.3c0.5-1,1.2-3.1,1.2-3.1v-15.8c0,0-0.2-1.7-0.6-2.5
		c-0.6-1.3-2.4-3.4-2.4-3.4l-13.4-12.7c-0.7-0.7-0.9-0.9-1.5-2.5c-0.3-1.5,0-1.8,0.3-2.8l14.8-26c0,0,0.7-1.1,2.3-1.3
		c1.4-0.2,4.1,0.5,4.1,0.5l13.6,4.4c0,0,3.4,1,5.4,1.1c1.1,0,2.3-0.3,2.3-0.3l15.7-9.4c0,0,1.8-0.8,2.4-2.9c0.3-1.2,0.8-3.6,0.8-3.6
		l3-15.2c0,0,0.4-1.3,0.8-1.9c0.4-0.5,0.7-0.8,1.2-1.1C-363.4,873.5-361.5,873.3-361.5,873.3z"/>
</g>
</svg>
