<?xml version="1.0" encoding="UTF-8" standalone="no"?>
<!-- Created with Inkscape (http://www.inkscape.org/) -->

<svg
   xmlns:dc="http://purl.org/dc/elements/1.1/"
   xmlns:cc="http://creativecommons.org/ns#"
   xmlns:rdf="http://www.w3.org/1999/02/22-rdf-syntax-ns#"
   xmlns:svg="http://www.w3.org/2000/svg"
   xmlns="http://www.w3.org/2000/svg"
   xmlns:xlink="http://www.w3.org/1999/xlink"
   xmlns:sodipodi="http://sodipodi.sourceforge.net/DTD/sodipodi-0.dtd"
   xmlns:inkscape="http://www.inkscape.org/namespaces/inkscape"
   width="192"
   height="192"
   id="svg2"
   version="1.1"
   inkscape:version="0.91 r13725"
   sodipodi:docname="titaniumbackup.svg"
   inkscape:export-filename="C:\Users\Simon\Documents\Material Design Icon Pack\PNG\titaniumbackup.png"
   inkscape:export-xdpi="90"
   inkscape:export-ydpi="90">
  <defs
     id="defs4">
    <linearGradient
       inkscape:collect="always"
       id="linearGradient5221">
      <stop
         style="stop-color:#ffffff;stop-opacity:1;"
         offset="0"
         id="stop5223" />
      <stop
         style="stop-color:#ffffff;stop-opacity:0;"
         offset="1"
         id="stop5225" />
    </linearGradient>
    <linearGradient
       inkscape:collect="always"
       xlink:href="#linearGradient5910"
       id="linearGradient5916"
       x1="38.620964"
       y1="48.035252"
       x2="154.34897"
       y2="165.86147"
       gradientUnits="userSpaceOnUse"
       gradientTransform="matrix(0.87123614,0,0,0.87123614,16.332868,7.0062156)" />
    <linearGradient
       inkscape:collect="always"
       id="linearGradient5910">
      <stop
         style="stop-color:#000000;stop-opacity:1;"
         offset="0"
         id="stop5912" />
      <stop
         style="stop-color:#000000;stop-opacity:0;"
         offset="1"
         id="stop5914" />
    </linearGradient>
    <filter
       style="color-interpolation-filters:sRGB"
       inkscape:label="z-depth1"
       id="filter4284">
      <feFlood
         flood-opacity="0.01"
         flood-color="rgb(96,125,139)"
         result="flood"
         id="feFlood4286" />
      <feComposite
         in="flood"
         in2="SourceGraphic"
         operator="in"
         result="composite1"
         id="feComposite4288" />
      <feGaussianBlur
         stdDeviation="10"
         result="blur"
         id="feGaussianBlur4290" />
      <feOffset
         dx="0"
         dy="1"
         result="offset"
         id="feOffset4292" />
      <feComposite
         in="SourceGraphic"
         in2="offset"
         operator="over"
         result="fbSourceGraphic"
         id="feComposite4294" />
      <feColorMatrix
         result="fbSourceGraphicAlpha"
         in="fbSourceGraphic"
         values="0 0 0 -1 0 0 0 0 -1 0 0 0 0 -1 0 0 0 0 1 0"
         id="feColorMatrix4332" />
      <feFlood
         id="feFlood4334"
         flood-opacity="0.089999999999999997"
         flood-color="rgb(0,0,0)"
         result="flood"
         in="fbSourceGraphic" />
      <feComposite
         id="feComposite4336"
         in2="fbSourceGraphic"
         in="flood"
         operator="in"
         result="composite1" />
      <feGaussianBlur
         id="feGaussianBlur4338"
         stdDeviation="5"
         result="blur" />
      <feOffset
         id="feOffset4340"
         dx="0"
         dy="1"
         result="offset" />
      <feComposite
         id="feComposite4342"
         in2="offset"
         in="fbSourceGraphic"
         operator="over"
         result="composite2" />
    </filter>
    <filter
       style="color-interpolation-filters:sRGB;"
       inkscape:label="Drop Shadow"
       id="filter5207">
      <feFlood
         flood-opacity="0.29999999999999999"
         flood-color="rgb(0,0,0)"
         result="flood"
         id="feFlood5209" />
      <feComposite
         in="flood"
         in2="SourceGraphic"
         operator="in"
         result="composite1"
         id="feComposite5211" />
      <feGaussianBlur
         in="composite1"
         stdDeviation="3"
         result="blur"
         id="feGaussianBlur5213" />
      <feOffset
         dx="4.57967e-015"
         dy="3"
         result="offset"
         id="feOffset5215" />
      <feComposite
         in="SourceGraphic"
         in2="offset"
         operator="over"
         result="composite2"
         id="feComposite5217" />
    </filter>
    <radialGradient
       inkscape:collect="always"
       xlink:href="#linearGradient5221"
       id="radialGradient5229"
       cx="8.1965981"
       cy="11.661161"
       fx="8.1965981"
       fy="11.661161"
       r="83.98526"
       gradientTransform="matrix(-0.00327185,2.0956032,-2.089758,-0.00326272,32.592422,-9.2890947)"
       gradientUnits="userSpaceOnUse" />
    <filter
       style="color-interpolation-filters:sRGB;"
       inkscape:label="Drop Shadow"
       id="filter4182"
       x="-0.25000000000000011"
       width="1.5200000000000002"
       height="1.4800000000000002">
      <feFlood
         flood-opacity="0.20000000000000001"
         flood-color="rgb(0,0,0)"
         result="flood"
         id="feFlood4184" />
      <feComposite
         in="flood"
         in2="SourceGraphic"
         operator="in"
         result="composite1"
         id="feComposite4186" />
      <feGaussianBlur
         in="composite1"
         stdDeviation="6"
         result="blur"
         id="feGaussianBlur4188" />
      <feOffset
         dx="4.57967e-015"
         dy="6"
         result="offset"
         id="feOffset4190" />
      <feComposite
         in="SourceGraphic"
         in2="offset"
         operator="over"
         result="composite2"
         id="feComposite4192" />
    </filter>
    <clipPath
       clipPathUnits="userSpaceOnUse"
       id="clipPath4193">
      <path
         sodipodi:nodetypes="ccsccsccsccssccsccsccsccsccsccsccsccassccsccsccsccsaccsccsccscccccsccsccsccssc"
         inkscape:connector-curvature="0"
         id="path4195"
         d="m 81.505842,8.3407984 28.897098,0 c 0,0 1.94913,0.1066516 2.687,0.6599663 0.82801,0.6209027 1.55564,2.6870053 1.55564,2.6870053 l 3.77124,18.526198 c 0,0 0.7206,1.904183 1.74419,2.969849 0.62578,0.651501 2.07418,1.744196 2.07418,1.744196 l 12.30366,7.165349 c 0,0 1.17936,0.711296 3.53553,1.225652 2.64114,0.576565 4.33693,0 4.33693,0 l 16.16917,-5.421152 c 0,0 2.24924,-0.557551 3.34697,-0.329983 0.47523,0.09852 0.92307,0.169231 1.44066,0.498154 0.51759,0.328923 1.10493,0.916059 1.10493,0.916059 l 14.70782,25.455844 c 0,0 0.90051,1.907623 0.70711,2.875568 -0.34074,1.705382 -1.60278,2.734146 -1.60278,2.734146 L 164.4259,82.869853 c 0,0 -1.38461,1.657299 -1.79134,2.639866 -0.54456,1.31553 -0.80139,4.1955 -0.80139,4.1955 l 0,14.424981 c 0,0 0.41361,1.82428 0.84853,2.63986 0.5843,1.0957 2.30988,2.92271 2.30988,2.92271 l 12.82221,11.83225 c 0,0 1.38126,1.6164 1.74419,2.59273 0.77283,2.07905 -0.0943,3.25269 -0.0943,3.25269 l -15.65063,26.25723 c 0,0 -0.41688,0.85116 -2.40416,0.94281 -1.08125,0.0499 -3.20555,-0.51854 -3.20555,-0.51854 l -16.92342,-5.60972 c 0,0 -1.40598,-0.12299 -2.96985,0.11785 -1.47774,0.22757 -2.96985,0.8721 -2.96985,0.8721 l -12.8222,7.49533 c 0,0 -1.70156,1.55971 -2.35703,2.49845 -1.20191,1.72134 -1.9799,3.77123 -1.9799,3.77123 l -3.25269,16.5463 c 0,0 -0.28922,0.62411 -0.45776,0.9235 -0.27759,0.4931 -0.60827,1.09351 -0.90931,1.43353 -0.58747,0.66355 -1.30403,1.26004 -2.12132,1.60277 -0.19776,0.0829 -0.6364,0.0943 -0.6364,0.0943 l -30.617721,0.0943 c 0,0 -1.013771,-0.11799 -1.979899,-1.17851 -1.10084,-1.20839 -1.08423,-2.02704 -1.08423,-2.02704 l -3.865517,-18.71476 c 0,0 -1.123813,-2.54976 -2.02704,-3.58267 -0.804753,-0.92029 -2.922708,-2.2156 -2.922708,-2.2156 l -11.926534,-6.88251 c 0,0 -2.001019,-0.8494 -3.06413,-0.89567 -1.921142,-0.0836 -5.656854,1.13137 -5.656854,1.13137 l -14.849242,4.66691 c 0,0 -1.134516,0.35448 -1.791337,0.28286 -0.47746,-0.0521 -1.254723,-0.11493 -1.84302,-0.32189 -0.404556,-0.14232 -1.126829,-0.62092 -1.126829,-0.62092 L 12.303638,127.22904 c 0,0 -0.479816,-1.67187 -0.329983,-2.49845 0.190583,-1.05138 1.508494,-2.82842 1.508494,-2.82842 L 27.0586,109.64565 c 0,0 1.274328,-1.43441 1.744196,-2.26274 0.549966,-0.96954 1.225652,-3.11127 1.225652,-3.11127 l 0,-15.839193 c 0,0 -0.226127,-1.684551 -0.565685,-2.451304 C 28.905016,84.721698 27.10574,82.587031 27.10574,82.587031 L 13.670711,69.859108 C 12.940136,69.129255 12.727605,68.96207 12.162216,67.313524 11.89979,65.830914 12.19246,65.513494 12.4922,64.532237 L 27.341442,38.557848 c 0,0 0.747061,-1.146088 2.262742,-1.319932 1.353495,-0.155242 4.054079,0.518545 4.054079,0.518545 l 13.623591,4.431202 c 0,0 3.358833,1.013879 5.374011,1.084231 1.149893,0.04014 2.309882,-0.329984 2.309882,-0.329984 l 15.744911,-9.38095 c 0,0 1.788037,-0.818709 2.404164,-2.922707 0.349564,-1.19372 0.801387,-3.629816 0.801387,-3.629816 l 3.016989,-15.226366 c 0,0 0.360577,-1.293549 0.848528,-1.8856177 0.402856,-0.4888166 0.655309,-0.808652 1.225652,-1.0842304 0.582848,-0.2816206 2.498464,-0.4714245 2.498464,-0.4714245 z"
         style="display:inline;opacity:0.1;fill:url(#radialGradient4197);fill-opacity:1;fill-rule:evenodd;stroke:none;stroke-width:1px;stroke-linecap:butt;stroke-linejoin:miter;stroke-opacity:1" />
    </clipPath>
    <radialGradient
       inkscape:collect="always"
       xlink:href="#linearGradient5221"
       id="radialGradient4197"
       gradientUnits="userSpaceOnUse"
       gradientTransform="matrix(-0.00327185,2.0956032,-2.089758,-0.00326272,32.592422,-9.2890947)"
       cx="8.1965981"
       cy="11.661161"
       fx="8.1965981"
       fy="11.661161"
       r="83.98526" />
    <clipPath
       clipPathUnits="userSpaceOnUse"
       id="clipPath4200">
      <path
         id="path4202"
         d="m 42.262488,60.911575 0.118564,35.122997 16.212088,-0.04617 0,-15.375345 9.584198,-0.02409 0.02333,44.463835 -7.004959,0.14655 0.118564,19.67538 48.397191,0 0,-19.31002 -7.69108,-0.12245 0.21381,-44.807123 9.72608,-0.04617 0.16328,15.399435 16.284,-0.122456 -0.11662,-34.586999 -86.02844,-0.36737 z m 85.672752,41.187615 a 7.0999317,4.7664992 0 0 0 -7.10021,4.76578 7.0999317,4.7664992 0 0 0 7.10021,4.76778 7.0999317,4.7664992 0 0 0 7.10019,-4.76778 7.0999317,4.7664992 0 0 0 -7.10019,-4.76578 z m -9.70276,15.7668 0.0194,8.18855 2.77555,-0.012 0.0447,11.25598 -2.76582,0.0341 0.0447,8.39933 20.976,-0.0321 0,-8.58804 -3.10791,-0.0341 -0.0875,-19.14742 -17.89918,-0.0642 z"
         style="opacity:1;fill:#fdd95f;fill-opacity:1;fill-rule:nonzero;stroke:none;stroke-width:1px;stroke-linecap:butt;stroke-linejoin:miter;stroke-opacity:1"
         inkscape:connector-curvature="0"
         inkscape:export-xdpi="90"
         inkscape:export-ydpi="90" />
    </clipPath>
    <clipPath
       clipPathUnits="userSpaceOnUse"
       id="clipPath4204">
      <path
         id="path4206"
         d="m 52.943503,60.192459 0.103799,29.771773 14.193322,-0.03914 0,-13.032808 8.390753,-0.02042 0.02042,37.689473 -6.132687,0.12422 0.1038,16.6777 42.370668,0 0,-16.368 -6.73337,-0.1038 0.18718,-37.980456 8.51497,-0.03914 0.14294,13.053228 14.25629,-0.103799 -0.10211,-29.317437 -75.315976,-0.311399 z m 75.004587,34.912406 a 6.2158321,4.0402909 0 0 0 -6.21607,4.039678 6.2158321,4.0402909 0 0 0 6.21607,4.041377 6.2158321,4.0402909 0 0 0 6.21606,-4.041377 6.2158321,4.0402909 0 0 0 -6.21606,-4.039678 z m -8.49455,13.364625 0.017,6.94096 2.42993,-0.0102 0.0391,9.54105 -2.42142,0.0289 0.0391,7.11963 18.36402,-0.0272 0,-7.27958 -2.7209,-0.0289 -0.0766,-16.23018 -15.67034,-0.0545 z"
         style="opacity:1;fill:#fdd95f;fill-opacity:1;fill-rule:nonzero;stroke:none;stroke-width:1px;stroke-linecap:butt;stroke-linejoin:miter;stroke-opacity:1"
         inkscape:connector-curvature="0"
         inkscape:export-xdpi="90"
         inkscape:export-ydpi="90" />
    </clipPath>
  </defs>
  <sodipodi:namedview
     id="base"
     pagecolor="#ffffff"
     bordercolor="#666666"
     borderopacity="1.0"
     inkscape:pageopacity="0.0"
     inkscape:pageshadow="2"
     inkscape:zoom="2.6516504"
     inkscape:cx="155.79305"
     inkscape:cy="93.123141"
     inkscape:document-units="px"
     inkscape:current-layer="layer3"
     showgrid="true"
     showguides="true"
     inkscape:guide-bbox="true"
     inkscape:window-width="1920"
     inkscape:window-height="1017"
     inkscape:window-x="-8"
     inkscape:window-y="-8"
     inkscape:window-maximized="1"
     inkscape:snap-global="false">
    <inkscape:grid
       type="xygrid"
       id="grid2985"
       empspacing="5"
       visible="true"
       enabled="true"
       snapvisiblegridlinesonly="true" />
    <sodipodi:guide
       orientation="1,0"
       position="8,58.524064"
       id="guide3002" />
    <sodipodi:guide
       orientation="1,0"
       position="20,69.304813"
       id="guide3004" />
    <sodipodi:guide
       orientation="1,0"
       position="32,62.631016"
       id="guide3006" />
    <sodipodi:guide
       orientation="1,0"
       position="68,53.390374"
       id="guide3008" />
    <sodipodi:guide
       orientation="0,1"
       position="119.61497,8"
       id="guide3010" />
    <sodipodi:guide
       orientation="0,1"
       position="155.5508,20"
       id="guide3012" />
    <sodipodi:guide
       orientation="0,1"
       position="132.96257,32"
       id="guide3014" />
    <sodipodi:guide
       orientation="0,1"
       position="130.90909,68"
       id="guide3016" />
    <sodipodi:guide
       orientation="0,1"
       position="137.06952,184"
       id="guide3018" />
    <sodipodi:guide
       orientation="1,0"
       position="184,145.79679"
       id="guide3020" />
    <sodipodi:guide
       orientation="0,1"
       position="91.379679,172"
       id="guide3022" />
    <sodipodi:guide
       orientation="1,0"
       position="172,101.64706"
       id="guide3024" />
    <sodipodi:guide
       orientation="0,1"
       position="149.39037,160"
       id="guide3026" />
    <sodipodi:guide
       orientation="1,0"
       position="160,88.299465"
       id="guide3028" />
    <sodipodi:guide
       orientation="0,1"
       position="128.34225,124"
       id="guide3030" />
    <sodipodi:guide
       orientation="1,0"
       position="124,92.919786"
       id="guide3032" />
  </sodipodi:namedview>
  <metadata
     id="metadata7">
    <rdf:RDF>
      <cc:Work
         rdf:about="">
        <dc:format>image/svg+xml</dc:format>
        <dc:type
           rdf:resource="http://purl.org/dc/dcmitype/StillImage" />
        <dc:title />
      </cc:Work>
    </rdf:RDF>
  </metadata>
  <g
     inkscape:groupmode="layer"
     id="layer3"
     inkscape:label="circle"
     style="display:inline">
    <path
       sodipodi:nodetypes="ccsccsccsccssccsccsccsccsccsccsccsccassccsccsccsccsaccsccsccscccccsccsccsccssc"
       inkscape:connector-curvature="0"
       id="path4791"
       d="m 81.505842,8.3407984 28.897098,0 c 0,0 1.94913,0.1066516 2.687,0.6599663 0.82801,0.6209027 1.55564,2.6870053 1.55564,2.6870053 l 3.77124,18.526198 c 0,0 0.7206,1.904183 1.74419,2.969849 0.62578,0.651501 2.07418,1.744196 2.07418,1.744196 l 12.30366,7.165349 c 0,0 1.17936,0.711296 3.53553,1.225652 2.64114,0.576565 4.33693,0 4.33693,0 l 16.16917,-5.421152 c 0,0 2.24924,-0.557551 3.34697,-0.329983 0.47523,0.09852 0.92307,0.169231 1.44066,0.498154 0.51759,0.328923 1.10493,0.916059 1.10493,0.916059 l 14.70782,25.455844 c 0,0 0.90051,1.907623 0.70711,2.875568 -0.34074,1.705382 -1.60278,2.734146 -1.60278,2.734146 L 164.4259,82.869853 c 0,0 -1.38461,1.657299 -1.79134,2.639866 -0.54456,1.31553 -0.80139,4.1955 -0.80139,4.1955 l 0,14.424981 c 0,0 0.41361,1.82428 0.84853,2.63986 0.5843,1.0957 2.30988,2.92271 2.30988,2.92271 l 12.82221,11.83225 c 0,0 1.38126,1.6164 1.74419,2.59273 0.77283,2.07905 -0.0943,3.25269 -0.0943,3.25269 l -15.65063,26.25723 c 0,0 -0.41688,0.85116 -2.40416,0.94281 -1.08125,0.0499 -3.20555,-0.51854 -3.20555,-0.51854 l -16.92342,-5.60972 c 0,0 -1.40598,-0.12299 -2.96985,0.11785 -1.47774,0.22757 -2.96985,0.8721 -2.96985,0.8721 l -12.8222,7.49533 c 0,0 -1.70156,1.55971 -2.35703,2.49845 -1.20191,1.72134 -1.9799,3.77123 -1.9799,3.77123 l -3.25269,16.5463 c 0,0 -0.28922,0.62411 -0.45776,0.9235 -0.27759,0.4931 -0.60827,1.09351 -0.90931,1.43353 -0.58747,0.66355 -1.30403,1.26004 -2.12132,1.60277 -0.19776,0.0829 -0.6364,0.0943 -0.6364,0.0943 l -30.617721,0.0943 c 0,0 -1.013771,-0.11799 -1.979899,-1.17851 -1.10084,-1.20839 -1.08423,-2.02704 -1.08423,-2.02704 l -3.865517,-18.71476 c 0,0 -1.123813,-2.54976 -2.02704,-3.58267 -0.804753,-0.92029 -2.922708,-2.2156 -2.922708,-2.2156 l -11.926534,-6.88251 c 0,0 -2.001019,-0.8494 -3.06413,-0.89567 -1.921142,-0.0836 -5.656854,1.13137 -5.656854,1.13137 l -14.849242,4.66691 c 0,0 -1.134516,0.35448 -1.791337,0.28286 -0.47746,-0.0521 -1.254723,-0.11493 -1.84302,-0.32189 -0.404556,-0.14232 -1.126829,-0.62092 -1.126829,-0.62092 L 12.303638,127.22904 c 0,0 -0.479816,-1.67187 -0.329983,-2.49845 0.190583,-1.05138 1.508494,-2.82842 1.508494,-2.82842 L 27.0586,109.64565 c 0,0 1.274328,-1.43441 1.744196,-2.26274 0.549966,-0.96954 1.225652,-3.11127 1.225652,-3.11127 l 0,-15.839193 c 0,0 -0.226127,-1.684551 -0.565685,-2.451304 C 28.905016,84.721698 27.10574,82.587031 27.10574,82.587031 L 13.670711,69.859108 C 12.940136,69.129255 12.727605,68.96207 12.162216,67.313524 11.89979,65.830914 12.19246,65.513494 12.4922,64.532237 L 27.341442,38.557848 c 0,0 0.747061,-1.146088 2.262742,-1.319932 1.353495,-0.155242 4.054079,0.518545 4.054079,0.518545 l 13.623591,4.431202 c 0,0 3.358833,1.013879 5.374011,1.084231 1.149893,0.04014 2.309882,-0.329984 2.309882,-0.329984 l 15.744911,-9.38095 c 0,0 1.788037,-0.818709 2.404164,-2.922707 0.349564,-1.19372 0.801387,-3.629816 0.801387,-3.629816 l 3.016989,-15.226366 c 0,0 0.360577,-1.293549 0.848528,-1.8856177 0.402856,-0.4888166 0.655309,-0.808652 1.225652,-1.0842304 0.582848,-0.2816206 2.498464,-0.4714245 2.498464,-0.4714245 z"
       style="fill:#4e4e4e;fill-rule:evenodd;stroke:none;stroke-width:1px;stroke-linecap:butt;stroke-linejoin:miter;stroke-opacity:1;fill-opacity:1;opacity:1;filter:url(#filter5207)" />
    <path
       sodipodi:nodetypes="ccsccsccsccssccsccsccsccsccsccsccsccassccsccsccsccsaccsccsccscccccsccsccsccssc"
       inkscape:connector-curvature="0"
       id="path4789"
       d="m 81.505842,8.3407984 28.897098,0 c 0,0 1.94913,0.1060441 2.687,0.6562069 0.82801,0.6173658 1.55564,2.6716987 1.55564,2.6716987 l 3.77124,18.420667 c 0,0 0.7206,1.893336 1.74419,2.952932 0.62578,0.647789 2.07418,1.73426 2.07418,1.73426 l 12.30366,7.124533 c 0,0 1.17936,0.707244 3.53553,1.21867 2.64114,0.573281 4.33693,0 4.33693,0 l 16.16917,-5.390271 c 0,0 2.24924,-0.554375 3.34697,-0.328104 0.47523,0.09796 0.92307,0.168267 1.44066,0.495317 0.51759,0.327049 1.10493,0.910841 1.10493,0.910841 l 14.70782,25.310838 c 0,0 0.90051,1.896757 0.70711,2.859188 -0.34074,1.695668 -1.60278,2.718571 -1.60278,2.718571 L 164.4259,82.44531 c 0,0 -1.38461,1.647858 -1.79134,2.624828 -0.54456,1.308036 -0.80139,4.171601 -0.80139,4.171601 l 0,14.342811 c 0,0 0.41361,1.81389 0.84853,2.62482 0.5843,1.08946 2.30988,2.90606 2.30988,2.90606 l 12.82221,11.76485 c 0,0 1.38126,1.6072 1.74419,2.57796 0.77283,2.06721 -0.0943,3.23417 -0.0943,3.23417 l -15.65063,26.10766 c 0,0 -0.41688,0.84631 -2.40416,0.93743 -1.08125,0.0496 -3.20555,-0.51558 -3.20555,-0.51558 l -16.92342,-5.57777 c 0,0 -1.40598,-0.12229 -2.96985,0.11718 -1.47774,0.22628 -2.96985,0.86713 -2.96985,0.86713 l -12.8222,7.45264 c 0,0 -1.70156,1.55082 -2.35703,2.48422 -1.20191,1.71153 -1.9799,3.74974 -1.9799,3.74974 l -3.25269,16.45205 c 0,0 -0.28922,0.62056 -0.45776,0.91824 -0.27759,0.49029 -0.60827,1.08728 -0.90931,1.42536 -0.58747,0.65977 -1.30403,1.25287 -2.12132,1.59364 -0.19776,0.0824 -0.6364,0.0938 -0.6364,0.0938 l -30.617721,0.0938 c 0,0 -1.013771,-0.11732 -1.979899,-1.1718 -1.10084,-1.2015 -1.08423,-2.01549 -1.08423,-2.01549 l -3.865517,-18.60815 c 0,0 -1.123813,-2.53524 -2.02704,-3.56227 -0.804753,-0.91504 -2.922708,-2.20298 -2.922708,-2.20298 l -11.926534,-6.8433 c 0,0 -2.001019,-0.84456 -3.06413,-0.89057 -1.921142,-0.0831 -5.656854,1.12493 -5.656854,1.12493 l -14.849242,4.64032 c 0,0 -1.134516,0.35246 -1.791337,0.28125 -0.47746,-0.0518 -1.254723,-0.11427 -1.84302,-0.32005 -0.404556,-0.14151 -1.126829,-0.61739 -1.126829,-0.61739 L 12.303638,126.55181 c 0,0 -0.479816,-1.66235 -0.329983,-2.48422 0.190583,-1.04539 1.508494,-2.81231 1.508494,-2.81231 L 27.0586,109.06858 c 0,0 1.274328,-1.42624 1.744196,-2.24985 0.549966,-0.96402 1.225652,-3.09355 1.225652,-3.09355 l 0,-15.748963 c 0,0 -0.226127,-1.674955 -0.565685,-2.43734 C 28.905016,84.286606 27.10574,82.164099 27.10574,82.164099 L 13.670711,69.508678 C 12.940136,68.782983 12.727605,68.61675 12.162216,66.977595 11.89979,65.50343 12.19246,65.187818 12.4922,64.212151 l 14.849242,-25.82643 c 0,0 0.747061,-1.139559 2.262742,-1.312413 1.353495,-0.154358 4.054079,0.515591 4.054079,0.515591 l 13.623591,4.40596 c 0,0 3.358833,1.008104 5.374011,1.078055 1.149893,0.03991 2.309882,-0.328104 2.309882,-0.328104 l 15.744911,-9.327513 c 0,0 1.788037,-0.814045 2.404164,-2.906058 0.349564,-1.18692 0.801387,-3.609139 0.801387,-3.609139 l 3.016989,-15.139632 c 0,0 0.360577,-1.28618 0.848528,-1.8748763 0.402856,-0.4860321 0.655309,-0.8040456 1.225652,-1.0780542 0.582848,-0.2800164 2.498464,-0.4687391 2.498464,-0.4687391 z"
       style="opacity:1;fill:#818181;fill-opacity:1;fill-rule:evenodd;stroke:none;stroke-width:1px;stroke-linecap:butt;stroke-linejoin:miter;stroke-opacity:1" />
    <path
       style="fill:#616161;fill-opacity:1;fill-rule:evenodd;stroke:none;stroke-width:1px;stroke-linecap:butt;stroke-linejoin:miter;stroke-opacity:1"
       d="m 81.505842,9.3189628 28.897098,0 c 0,0 1.94913,0.1054599 2.687,0.6525923 0.82801,0.6139649 1.55564,2.6569819 1.55564,2.6569819 l 3.77124,18.319198 c 0,0 0.7206,1.882907 1.74419,2.936666 0.62578,0.644222 2.07418,1.724707 2.07418,1.724707 l 12.30366,7.085288 c 0,0 1.17936,0.703349 3.53553,1.211958 2.64114,0.570122 4.33693,0 4.33693,0 l 16.16917,-5.360579 c 0,0 2.24924,-0.551322 3.34697,-0.326297 0.47523,0.09742 0.92307,0.16734 1.44066,0.492588 0.51759,0.325248 1.10493,0.905824 1.10493,0.905824 l 14.70782,25.171416 c 0,0 0.90051,1.886309 0.70711,2.843439 -0.34074,1.686326 -1.60278,2.703596 -1.60278,2.703596 L 164.4259,83.015276 c 0,0 -1.38461,1.638782 -1.79134,2.61037 -0.54456,1.300832 -0.80139,4.148623 -0.80139,4.148623 l 0,14.263801 c 0,0 0.41361,1.8039 0.84853,2.61037 0.5843,1.08346 2.30988,2.89005 2.30988,2.89005 l 12.82221,11.70005 c 0,0 1.38126,1.59833 1.74419,2.56376 0.77283,2.05582 -0.0943,3.21635 -0.0943,3.21635 l -15.65063,25.96384 c 0,0 -0.41688,0.84165 -2.40416,0.93228 -1.08125,0.0493 -3.20555,-0.51275 -3.20555,-0.51275 l -16.92342,-5.54705 c 0,0 -1.40598,-0.12161 -2.96985,0.11654 -1.47774,0.22503 -2.96985,0.86236 -2.96985,0.86236 l -12.8222,7.41158 c 0,0 -1.70156,1.54228 -2.35703,2.47053 -1.20191,1.70211 -1.9799,3.7291 -1.9799,3.7291 l -3.25269,16.36142 c 0,0 -0.28922,0.61714 -0.45776,0.91318 -0.27759,0.48759 -0.60827,1.0813 -0.90931,1.41751 -0.58747,0.65613 -1.30403,1.24596 -2.12132,1.58486 -0.19776,0.0819 -0.6364,0.0933 -0.6364,0.0933 l -30.617721,0.0933 c 0,0 -1.013771,-0.11667 -1.979899,-1.16534 -1.10084,-1.19489 -1.08423,-2.0044 -1.08423,-2.0044 l -3.865517,-18.50565 c 0,0 -1.123813,-2.52127 -2.02704,-3.54264 -0.804753,-0.91001 -2.922708,-2.19084 -2.922708,-2.19084 l -11.926534,-6.80561 c 0,0 -2.001019,-0.83991 -3.06413,-0.88566 -1.921142,-0.0826 -5.656854,1.11872 -5.656854,1.11872 l -14.849242,4.61477 c 0,0 -1.134516,0.35051 -1.791337,0.2797 -0.47746,-0.0515 -1.254723,-0.11365 -1.84302,-0.31829 -0.404556,-0.14073 -1.126829,-0.61398 -1.126829,-0.61398 L 12.303638,126.87882 c 0,0 -0.479816,-1.65319 -0.329983,-2.47054 0.190583,-1.03963 1.508494,-2.79681 1.508494,-2.79681 L 27.0586,109.4919 c 0,0 1.274328,-1.41839 1.744196,-2.23746 0.549966,-0.9587 1.225652,-3.07651 1.225652,-3.07651 l 0,-15.662212 c 0,0 -0.226127,-1.665729 -0.565685,-2.423915 C 28.905016,84.84643 27.10574,82.735615 27.10574,82.735615 L 13.670711,70.149906 C 12.940136,69.428207 12.727605,69.26289 12.162216,67.632765 11.89979,66.16672 12.19246,65.852846 12.4922,64.882554 L 27.341442,39.198386 c 0,0 0.747061,-1.133282 2.262742,-1.305184 1.353495,-0.153507 4.054079,0.512751 4.054079,0.512751 l 13.623591,4.381691 c 0,0 3.358833,1.002551 5.374011,1.072117 1.149893,0.0397 2.309882,-0.326298 2.309882,-0.326298 l 15.744911,-9.276132 c 0,0 1.788037,-0.809563 2.404164,-2.890051 0.349564,-1.180383 0.801387,-3.589259 0.801387,-3.589259 l 3.016989,-15.056236 c 0,0 0.360577,-1.279096 0.848528,-1.864549 0.402856,-0.483355 0.655309,-0.799617 1.225652,-1.0721161 0.582848,-0.278474 2.498464,-0.4661571 2.498464,-0.4661571 z"
       id="path4787"
       inkscape:connector-curvature="0"
       sodipodi:nodetypes="ccsccsccsccssccsccsccsccsccsccsccsccassccsccsccsccsaccsccsccscccccsccsccsccssc" />
    <path
       style="opacity:0.2;fill:url(#linearGradient5916);fill-opacity:1;fill-rule:evenodd;stroke:none;stroke-width:1;stroke-linecap:butt;stroke-linejoin:miter;stroke-opacity:1"
       d="m 52.943503,60.192456 0.103793,29.771772 0.0018,0 0,0.0018 0.0039,0 0,0.0039 0.0039,0 0,0.0039 0.0049,0 0,0.0049 0.0068,0 0,0.0068 0.0068,0 0,0.0068 0.0087,0 0,0.0087 0.01026,0 0,0.01026 0.01026,0 0,0.01026 0.01186,0 0,0.01186 0.01361,0 0,0.01361 0.01361,0 0,0.01361 0.01525,0 0,0.01526 0.01702,0 0,0.01702 0.01702,0 0,0.01701 0.01876,0 0,0.01876 0.0204,0 0,0.0204 0.0204,0 0,0.0204 0.02216,0 0,0.02216 0.02382,0 0,0.02382 0.02382,0 0,0.02381 0.02556,0 0,0.02556 0.02547,0 0,0.02556 0.02897,0 0,0.02897 0.02897,0 0,0.02887 0.02897,0 0,0.02897 0.03238,0 0,0.03237 0.03237,0 0,0.03237 0.03238,0 0,0.03236 0.03402,0 0,0.03402 0.03577,0 0,0.03577 0.03742,0 0,0.03742 0.03742,0 0,0.03742 0.03917,0 0,0.03917 0.04084,0 0,0.04084 0.04083,0 0,0.04084 0.04248,0 0,0.04258 0.04422,0 0,0.04422 0.04423,0 0,0.04422 0.04598,0 0,0.04598 0.04598,0 0,0.04598 0.04938,0 0,0.04938 0.04938,0 0,0.04938 0.04938,0 0,0.04938 0.05103,0 0,0.05103 0.05278,0 0,0.05278 0.05444,0 0,0.05444 0.05444,0 0,0.05444 0.05618,0 0,0.05618 0.05784,0 0,0.05783 0.05783,0 0,0.05794 0.05959,0 0,0.0595 0.05959,0 0,0.0595 0.063,0 0,0.06299 0.06299,0 0,0.06298 0.063,0 0,0.063 0.06465,0 0,0.06474 0.06639,0 0,0.06639 0.06803,0 0,0.06803 0.06803,0 0,0.06804 0.06978,0 0,0.06979 0.07145,0 0,0.07145 0.07145,0 0,0.07145 0.0732,0 0,0.07319 0.0732,0 0,0.0732 0.07485,0 0,0.07485 0.0766,0 0,0.0766 0.07825,0 0,0.07826 0.07826,0 0,0.07825 0.08,0 0,0.08 0.08,0 0,0.08 0.0834,0 0,0.0834 0.0834,0 0,0.08332 0.0834,0 0,0.0834 0.08505,0 0,0.08505 0.0868,0 0,0.0868 0.08847,0 0,0.08847 0.08846,0 0,0.08846 0.09021,0 0,0.09021 0.09021,0 0,0.09021 0.09186,0 0,0.09186 0.09361,0 0,0.0936 0.09526,0 0,0.09526 0.09526,0 0,0.09526 0.09701,0 0,0.09701 0.09701,0 0,0.09701 0.100386,0 0,0.100406 0.0987,0 0,0.09869 0.102098,0 0,0.102098 0.102099,0 0,0.102099 0.103803,0 0,0.103803 0.103793,0 0,0.103793 0.107208,0 0,0.107208 0.105498,0 0,0.105497 0.108907,0 0,0.108898 0.108909,0 0,0.108919 0.110599,0 0,0.11061 0.110611,0 0,0.1106 0.114002,0 0,0.114012 0.11231,0 0,0.1123 0.115714,0 0,0.115713 0.115712,0 0,0.115713 0.117415,0 0,0.117405 0.117414,0 0,0.117413 0.120806,0 0,0.120816 0.119115,0 0,0.119116 0.122517,0 0,0.122527 0.122518,0 0,0.122512 0.124219,0 0,0.124227 0.124228,0 0,0.124219 0.125919,0 0,0.12591 0.127619,0 0,0.127628 0.129323,0 0,0.129331 0.129321,0 0,0.12932 0.131033,0 0,0.13103 0.131023,0 0,0.13102 0.132732,0 0,0.132729 0.134425,0 0,0.13442 0.134426,0 0,0.13444 0.137837,0 0,0.13782 0.136125,0 0,0.13614 0.139538,0 0,0.13953 0.139529,0 0,0.139539 0.141239,0 0,0.141231 0.141239,0 0,0.141239 0.14293,0 0,0.14294 0.144641,0 0,0.144644 0.146343,0 0,0.146325 0.146342,0 0,0.146355 0.146341,0 0,0.146333 0.149745,0 0,0.149737 0.149745,0 0,0.149747 0.151435,0 0,0.15144 0.151446,0 0,0.15146 0.153155,0 0,0.15314 0.154849,0 0,0.15484 0.154847,0 0,0.15485 0.158251,0 0,0.15825 0.156549,0 0,0.15657 0.15995,0 0,0.15996 0.159961,0 0,0.15993 0.161653,0 0,0.16166 0.161652,0 0,0.16163 0.163363,0 0,0.16337 0.165054,0 0,0.16508 0.165054,0 0,0.16506 0.166766,0 0,0.16675 0.168455,0 0,0.16847 0.168465,0 0,0.16845 0.17187,0 0,0.17186 0.170157,0 0,0.17018 0.173569,0 0,0.17356 0.17357,0 0,0.17357 0.17356,0 0,0.17355 0.176972,0 0,0.17697 0.176972,0 0,0.17699 0.178672,0 0,0.17867 0.178672,0 0,0.17867 0.180375,0 0,0.18038 0.182074,0 0,0.18206 0.182075,0 0,0.18208 0.183775,0 0,0.18377 0.185478,0 0,0.18549 0.185476,0 0,0.18547 0.187178,0 0,0.18719 0.18888,0 0,0.18886 0.188879,0 0,0.1889 0.192292,0 0,0.19227 0.19058,0 0,0.19059 0.193981,0 0,0.19398 0.193994,0 0,0.19399 0.193981,0 0,0.19399 0.197395,0 0,0.19738 0.197385,0 0,0.1974 0.197395,0 0,0.19739 0.200786,0 0,0.20079 0.200797,0 0,0.2008 0.202497,0 0,0.20247 0.202488,0 0,0.20251 0.204198,0 0,0.2042 0.2059,0 0,0.20591 0.205891,0 0,0.20589 0.2076,0 0,0.20758 0.209302,0 0,0.2093 0.209303,0 0,0.20931 0.211003,0 0,0.21101 0.212703,0 0,0.21269 0.212705,0 0,0.21272 0.214406,0 0,0.2144 0.216105,0 0,0.21611 0.216106,0 0,0.2161 0.217807,0 0,0.21781 0.219519,0 0,0.2195 0.219508,0 0,0.21953 0.22121,0 0,0.22121 0.222921,0 0,0.22291 0.222911,0 0,0.22291 0.224611,0 0,0.22461 0.199096,0 0.0018,2.19341 -6.132689,0.12423 0.103793,16.67769 0.0018,0 0,0.002 0.0039,0 0,0.004 0.0039,0 0,0.004 0.0049,0 0,0.006 0.0068,0 0,0.007 0.0068,0 0,0.007 0.0087,0 0,0.009 0.01026,0 0,0.0105 0.01026,0 0,0.0105 0.01187,0 0,0.012 0.01361,0 0,0.0136 0.01361,0 0,0.0136 0.01525,0 0,0.0154 0.01702,0 0,0.0169 0.01702,0 0,0.0169 0.01876,0 0,0.0189 0.0204,0 0,0.0204 0.0204,0 0,0.0204 0.02217,0 0,0.0222 0.02381,0 0,0.0239 0.02381,0 0,0.0238 0.02547,0 0,0.0257 0.02723,0 0,0.0256 0.02723,0 0,0.029 0.02897,0 0,0.029 0.02897,0 0,0.029 0.03236,0 0,0.0324 0.03238,0 0,0.0323 0.03237,0 0,0.0323 0.03402,0 0,0.0342 0.03577,0 0,0.0358 0.03742,0 0,0.0373 0.03742,0 0,0.0373 0.03917,0 0,0.0392 0.04084,0 0,0.0408 0.04083,0 0,0.0409 0.04258,0 0,0.0426 0.04422,0 0,0.0442 0.04422,0 0,0.0443 0.04598,0 0,0.0459 0.04598,0 0,0.0459 0.04938,0 0,0.0495 0.04938,0 0,0.0494 0.04938,0 0,0.0493 0.05103,0 0,0.0511 0.05278,0 0,0.0527 0.05444,0 0,0.0546 0.05444,0 0,0.0545 0.05618,0 0,0.0562 0.05784,0 0,0.058 0.05783,0 0,0.0579 0.05959,0 0,0.0596 0.05959,0 0,0.0596 0.06298,0 0,0.063 0.06298,0 0,0.0631 0.06299,0 0,0.063 0.06465,0 0,0.0647 0.06639,0 0,0.0664 0.06803,0 0,0.0682 0.06804,0 0,0.0679 0.06979,0 0,0.0699 0.07145,0 0,0.0714 0.07145,0 0,0.0714 0.07319,0 0,0.0732 0.0732,0 0,0.073 0.07485,0 0,0.0748 0.0766,0 0,0.0765 0.07825,0 0,0.0782 0.07826,0 0,0.0782 0.08,0 0,0.0799 0.08,0 0,0.0815 0.0834,0 0,0.0815 0.0834,0 0,0.0835 0.0834,0 0,0.0834 0.08505,0 0,0.0851 0.0868,0 0,0.0868 0.08847,0 0,0.0885 0.08847,0 0,0.0885 0.09021,0 0,0.0902 0.09021,0 0,0.0903 0.09186,0 0,0.0919 0.0936,0 0,0.0937 0.09526,0 0,0.0953 0.09526,0 0,0.0953 0.09701,0 0,0.0969 0.09701,0 0,0.0969 0.100406,0 0,0.10043 0.09869,0 0,0.0987 0.102099,0 0,0.10207 0.102109,0 0,0.10207 0.103793,0 0,0.10376 0.103792,0 0,0.1055 0.107207,0 0,0.1055 0.105497,0 0,0.10722 0.108909,0 0,0.10719 0.108907,0 0,0.1089 0.110601,0 0,0.11062 0.11061,0 0,0.11061 0.114012,0 0,0.11401 0.1123,0 0,0.1123 0.115714,0 0,0.11571 0.115713,0 0,0.11571 0.117414,0 0,0.1174 0.117414,0 0,0.11742 0.120816,0 0,0.12083 0.119115,0 0,0.11909 0.122517,0 0,0.12254 0.122518,0 0,0.1225 0.124217,0 0,0.12423 0.124219,0 0,0.12422 0.12592,0 0,0.12592 0.127621,0 0,0.12762 0.12933,0 0,0.12932 0.129323,0 0,0.12933 0.131022,0 0,0.13101 0.131022,0 0,0.13105 0.132735,0 0,0.13272 0.134425,0 0,0.13442 0.134435,0 0,0.13613 0.137826,0 0,0.13615 0.136136,0 0,0.13612 0.137827,0 0.0018,0.13952 0.137836,0 0.0018,0.13954 0.139528,0 0.0018,0.14125 0.139538,0 0.0018,0.14123 0.141231,0 0.0018,0.14294 0.142941,0 0.0018,0.14462 0.144641,0 0.0018,0.14635 0.144643,0 0.0018,0.14634 0.144641,0 0.0018,0.14634 0.148044,0 0.0018,0.14975 0.148043,0 0.0018,0.14974 0.149735,0 0.0018,0.15144 0.149744,0 0.0018,0.15145 0.151445,0 0.0018,0.15314 0.153147,0 0.0018,0.15485 0.153146,0 0.0018,0.15485 0.15655,0 0.0018,0.15825 0.154848,0 0.0018,0.15657 0.158249,0 0.0018,0.15994 0.15826,0 0.0018,0.15997 0.15995,0 0.0018,0.16164 0.15995,0 0.0018,0.16165 0.16165,0 0.0018,0.16337 0.163363,0 0.0018,0.16504 0.163354,0 0.0018,0.16507 0.165064,0 0.0018,0.16675 0.166754,0 0.0018,0.16847 0.166766,0 0.0018,0.16847 0.170156,0 0.0018,0.17187 0.168467,0 0.0018,0.17014 0.171867,0 0.0018,0.17358 0.171859,0 0.0018,0.17356 0.171868,0 0.0018,0.17357 0.175271,0 0.0018,0.17697 0.17526,0 0.0018,0.17697 0.176971,0 0.0018,0.17867 0.176973,0 0.0018,0.17867 0.178673,0 0.0018,0.18039 0.180374,0 0.0018,0.18207 0.180372,0 0.0018,0.18205 0.182073,0 0.0018,0.1838 0.183776,0 0.0018,0.18546 0.183775,0 0.0018,0.18548 0.185486,0 0.0018,0.18718 0.187179,0 0.0018,0.1889 0.187177,0 0.0018,0.18887 0.190581,0 0.0018,0.19228 0.188889,0 0.0018,0.19058 0.192282,0 0.0018,0.19398 0.192281,0 0.0018,0.194 0.192283,0 0.0018,0.19399 0.195692,0 0.0018,0.19739 0.195684,0 0.0018,0.19741 0.195695,0 0.0018,0.19736 0.199086,0 0.0018,0.2008 0.199095,0 0.0018,0.2008 0.200797,0 0.0018,0.20248 0.200788,0 0.0018,0.2025 0.202498,0 0.0018,0.20419 0.204199,0 0.0018,0.2059 0.204189,0 0.0018,0.20589 0.2059,0 0.0018,0.2076 0.207602,0 0.0018,0.20931 0.207601,0 0.0018,0.20927 0.209301,0 0.0018,0.21101 0.211003,0 0.0018,0.21271 0.211002,0 0.0018,0.21272 0.212705,0 0.0018,0.21439 0.214405,0 0.0018,0.21612 0.214405,0 0.0018,0.21609 0.216106,0 0.0018,0.21782 0.217808,0 0.0018,0.21951 0.217808,0 0.0018,0.21951 0.219509,0 0.0018,0.22121 0.221219,0 0.0018,0.22292 0.221209,0 0.0018,0.22292 0.222919,0 0.0018,0.2246 0.224611,0 0.0018,0.22633 0.224611,0 0.0018,0.22632 0.226322,0 0.0018,0.22801 0.228014,0 0.0018,0.22973 0.228024,0 0.0018,0.22972 0.229715,0 0.0018,0.23141 0.229725,0 0.0018,0.23313 0.233117,0 0.0018,0.23312 0.233126,0 0.0018,0.23482 0.233127,0 0.0018,0.23484 0.236521,0 0.0018,0.23821 0.236529,0 0.0018,0.23823 0.236531,0 0.0018,0.23824 0.239931,0 0.0018,0.24163 0.239932,0 0.0018,0.24164 0.239931,0 0.0018,0.24161 0.241632,0 0.0018,0.24504 0.243333,0 0.0018,0.24334 0.245034,0 0.0018,0.24674 0.245035,0 0.0018,0.24675 0.246736,0 0.0018,0.24843 0.248436,0 0.0018,0.25013 0.248436,0 0.0018,0.25015 0.250138,0 0.0018,0.25183 0.25185,0 0.0018,0.25356 0.251839,0 0.0018,0.25353 0.253541,0 0.0018,0.25525 0.25525,0 0.0021,0.25695 0.255236,0 0.0021,0.25694 0.256953,0 0.0021,0.25864 0.256939,0 0.0021,0.25867 0.26035,0 0.0021,0.26205 0.260364,0 0.002,0.26204 0.26036,0 0.002,0.26207 0.26205,0 0.002,0.26373 0.26375,0 0.002,0.26546 0.26546,0 0.002,0.26716 0.26547,0 0.002,0.26715 0.26715,0 0.002,0.26887 0.26888,0 0.002,0.27055 0.26885,0 0.002,0.27056 0.27055,0 0.002,0.27226 0.27055,0 0.002,0.27225 0.27396,0 0.002,0.27568 0.27397,0 0.002,0.27566 0.27395,0 0.002,0.27566 0.27566,0 0.002,0.27737 0.27739,0 0.002,0.27907 0.27908,0 0.002,0.28078 0.27907,0 0.002,0.28076 0.28076,0 0.002,0.28247 0.28247,0 0.002,0.28417 0.28246,0 0.002,0.28419 0.28418,0 0.002,0.28587 0.28417,0 0.002,0.28588 0.28758,0 0.002,0.28928 0.28588,0 0.002,0.28756 0.28928,0 0.002,0.29098 0.28928,0 0.002,0.29097 0.29097,0 0.002,0.29269 0.29269,0 0.002,0.29438 0.29269,0 0.002,0.2944 0.29437,0 0.002,0.29609 0.29439,0 0.002,0.29605 0.29609,0 0.002,0.2995 0.29778,0 0.002,0.29779 0.29948,0 0.002,0.30118 0.2995,0 0.002,0.30119 0.30117,0 0.002,0.30288 0.30118,0 0.002,0.30461 0.30459,0 0.002,0.30459 0.30457,0 0.002,0.3063 0.30462,0 0.002,0.30628 0.30629,0 0.002,0.30801 0.30798,0 0.002,0.30969 0.30969,0 0.002,0.31142 0.3097,0 0.002,0.31137 0.31138,0 0.002,0.3131 0.3114,0 0.002,0.3131 0.31311,0 0.002,0.31481 0.31481,0 0.002,0.31651 0.31649,0 0.002,0.31821 0.3165,0 0.002,0.3182 0.31823,0 0.002,0.31989 0.31818,0 0.002,0.31993 0.31993,0 0.002,0.3216 0.32164,0 0.002,0.32331 0.3233,0 0.002,0.32501 0.32332,0 0.002,0.32501 0.325,0 0.002,0.32672 0.32501,0 0.002,0.32672 0.32671,0 0.002,0.3284 0.32842,0 0.002,0.33012 0.33011,0 0.002,0.33182 0.33013,0 0.002,0.33182 0.33181,0 0.002,0.33352 0.33183,0 0.002,0.33352 0.33352,0 0.002,0.33521 0.33523,0 0.002,0.33695 0.33692,0 0.002,0.3386 0.33693,0 0.002,0.33862 0.3386,0 0.002,0.34033 0.33862,0 0.002,0.34032 0.34032,0 0.002,0.34206 0.34203,0 0.002,0.34372 0.34372,0 0.002,0.34543 0.34374,0 0.002,0.34543 0.34374,0 0.002,0.34713 0.34715,0 0.002,0.34714 0.34712,0 0.002,0.34884 0.34883,0 0.002,0.35052 0.34883,0 0.002,0.35054 0.35054,0 0.002,0.35225 0.35225,0 0.002,0.35393 0.35393,0 0.002,0.35564 0.35393,0 0.002,0.35564 0.35565,0 0.002,0.35734 0.35566,0 0.002,0.35735 0.35734,0 0.002,0.35905 0.35905,0 0.002,0.36073 0.35905,0 0.002,0.36075 0.36076,0 0.002,0.36415 0.36244,0 0.002,0.36245 0.36414,0 0.002,0.36584 0.36415,0 0.002,0.36586 0.36587,0 0.002,0.36755 0.36585,0 0.002,0.36755 0.36756,0 0.002,0.36926 0.36926,0 0.002,0.37096 0.36924,0 0.002,0.37096 0.37094,0 0.002,0.37265 0.37267,0 0.002,0.37436 0.37437,0 0.002,0.37608 0.37438,0 0.002,0.37605 0.37434,0 0.002,0.37606 0.37776,0 0.002,0.37947 0.37778,0 0.002,0.37945 0.37947,0 0.002,0.38116 0.37945,0 0.002,0.38117 0.38118,0 0.002,0.38287 0.38288,0 0.002,0.38458 0.38286,0 0.002,0.38456 0.38458,0 0.002,0.38626 0.38628,0 0.002,0.38798 0.38797,0 0.002,0.38967 0.38797,0 0.002,0.38968 0.38797,0 0.002,0.38968 0.39138,0 0.002,0.39307 0.39136,0 0.002,0.39309 0.39308,0 0.002,0.39477 0.39307,0 0.002,0.39476 42.37065,0 0,-6.96817 0.24163,0 0.002,0.37436 0.37436,0 0.002,0.37607 0.37437,0 0.002,0.37603 0.37437,0 0.002,0.37608 0.37776,0 0.002,0.37946 0.37777,0 0.002,0.37946 0.37945,0 0.002,0.38118 0.37947,0 0.002,0.38117 0.38116,0 0.002,0.38287 0.38287,0 0.002,0.38457 0.38287,0 0.002,0.38455 0.38456,0 0.002,0.38628 0.38628,0 0.002,0.38797 0.38797,0 0.002,0.38968 0.38798,0 0.002,0.38968 0.38797,0 0.002,0.38966 0.39137,0 0.002,0.39306 0.39138,0 0.002,0.39308 0.39137,0 0.002,0.39479 0.3948,0 0.002,0.39478 18.36403,-0.0272 0,-7.27956 -0.39648,-0.004 0,-0.39138 -0.39307,-0.006 0,-0.38966 -0.39308,-0.004 0,-0.38966 -0.39309,-0.006 0,-0.38799 -0.38966,-0.004 0,-0.38629 -0.39138,-0.006 0,-0.38459 -0.37437,-0.004 -0.0664,-13.90063 -0.39478,-0.002 -0.002,-0.39307 -0.39139,-0.002 -0.002,-0.39308 -0.39138,-0.002 -0.002,-0.39137 -0.39137,-0.002 -0.002,-0.39139 -0.38796,-0.002 -0.002,-0.38798 -0.38967,-0.002 -0.002,-0.38797 -0.38626,-0.002 -0.002,-0.38796 -0.38626,-0.002 -0.002,-0.38626 -0.3846,-0.002 -0.002,-0.38456 -0.38287,-0.002 -0.002,-0.38287 -0.38286,-0.002 -0.002,-0.38288 -0.38116,-0.002 -0.002,-0.38117 -0.37947,-0.002 -0.002,-0.37945 -0.37946,-0.002 -0.002,-0.37945 -0.37778,-0.002 0,-0.0105 c 1.13754,-0.16692 2.19301,-0.53259 3.0306,-1.07712 1.16581,-0.75795 1.82122,-1.78529 1.82076,-2.85705 -2e-4,-0.89173 -0.45016,-1.71237 -1.20305,-2.38059 -0.1171,-0.13447 -0.24701,-0.26368 -0.38627,-0.38798 -0.11953,-0.13788 -0.25371,-0.26923 -0.39647,-0.39649 -0.12097,-0.13919 -0.25695,-0.27157 -0.4016,-0.39988 -0.11559,-0.13223 -0.24243,-0.26048 -0.37946,-0.38285 -0.12087,-0.13922 -0.25701,-0.27157 -0.40159,-0.39989 -0.11764,-0.13451 -0.24814,-0.26369 -0.38798,-0.38798 -0.11762,-0.1345 -0.24812,-0.26368 -0.38797,-0.38796 -0.11739,-0.13425 -0.24847,-0.2622 -0.38796,-0.38629 -0.11517,-0.13157 -0.24135,-0.25931 -0.37776,-0.38116 -0.11836,-0.13578 -0.25042,-0.26427 -0.39139,-0.38965 -0.1167,-0.13331 -0.24604,-0.26132 -0.38455,-0.3846 -0.11379,-0.12978 -0.23989,-0.25407 -0.37436,-0.37435 -0.11669,-0.13381 -0.24595,-0.26252 -0.38458,-0.38627 -0.11481,-0.13126 -0.24177,-0.25622 -0.37777,-0.37775 -0.11617,-0.13299 -0.24669,-0.25816 -0.38455,-0.38118 -0.11351,-0.12954 -0.23855,-0.25427 -0.37267,-0.37435 -0.11483,-0.13139 -0.24174,-0.25782 -0.37777,-0.37946 -0.11117,-0.12698 -0.23485,-0.24796 -0.36585,-0.36586 l 2.32103,-0.0188 -0.10206,-29.31741 -0.39308,-0.002 -0.002,-0.39308 -0.39308,-0.002 -0.002,-0.39308 -0.39139,-0.002 -0.002,-0.39137 -0.39138,-0.002 -0.002,-0.39138 -0.38797,-0.002 -0.002,-0.38797 -0.38797,-0.002 -0.002,-0.38798 -0.38799,-0.002 -0.002,-0.38797 -0.38627,-0.002 -0.002,-0.38627 -0.38456,-0.002 -0.002,-0.38456 -0.38285,-0.002 -0.002,-0.38286 -0.38286,-0.002 -0.002,-0.38287 -0.38118,-0.002 -0.002,-0.38119 -0.37946,-0.002 -0.002,-0.37947 -0.37947,-0.002 -0.002,-0.37945 -0.37776,-0.002 -0.002,-0.37777 -0.37778,-0.002 -0.002,-0.37776 -0.37437,-0.002 -0.002,-0.37436 -0.37435,-0.002 -0.002,-0.37435 -0.37434,-0.002 -0.002,-0.37437 -0.37265,-0.002 -0.002,-0.37265 -0.37094,-0.002 -0.002,-0.37095 -0.36928,-0.002 -0.002,-0.36926 -0.36925,-0.002 -0.002,-0.36926 -0.36754,-0.002 -0.002,-0.36757 -0.36588,-0.002 -0.002,-0.36584 -0.36584,-0.002 -0.002,-0.36586 -0.36415,-0.002 -0.002,-0.36414 -0.36415,-0.002 -0.002,-0.36414 -0.36244,-0.002 -0.002,-0.36074 -0.36074,-0.002 -0.002,-0.36245 -0.35903,-0.002 -0.002,-0.35904 -0.35905,-0.002 -0.002,-0.35904 -0.35734,-0.002 -0.002,-0.35734 -0.35563,-0.002 -0.002,-0.35564 -0.35565,-0.002 -0.002,-0.35565 -0.35393,-0.002 -0.002,-0.35397 -0.35394,-0.002 -0.002,-0.35393 -0.35225,-0.002 -0.002,-0.35224 -0.35055,-0.002 -0.002,-0.35053 -0.34884,-0.002 -0.002,-0.34882 -0.34883,-0.002 -0.002,-0.34882 -0.34716,-0.002 -0.002,-0.34713 -0.34712,-0.002 -0.002,-0.34543 -0.34373,-0.002 -0.002,-0.34544 -0.34375,-0.002 -0.002,-0.34373 -0.34374,-0.002 -0.002,-0.3437 -0.34203,-0.002 -0.002,-0.34205 -0.34034,-0.002 -0.002,-0.34032 -0.33864,-0.002 -0.002,-0.33863 -0.33865,-0.002 -0.002,-0.33863 -0.33691,-0.002 -0.002,-0.33692 -0.33692,-0.002 -0.002,-0.33691 -0.33523,-0.002 -0.002,-0.33521 -0.3335,-0.002 -0.002,-0.33353 -0.33184,-0.002 -0.002,-0.33183 -0.33181,-0.002 -0.002,-0.33182 -0.33013,-0.002 -0.002,-0.33011 -0.3301,-0.002 -0.002,-0.33009 -0.32841,-0.002 -0.002,-0.32672 -0.32673,-0.002 -0.002,-0.3284 -0.32499,-0.002 -0.002,-0.32502 -0.325,-0.002 -0.002,-0.32502 -0.32333,-0.002 -0.002,-0.32333 -0.32332,-0.002 -0.002,-0.32332 -0.32161,-0.002 -0.002,-0.32161 -0.31992,-0.002 -0.002,-0.31992 -0.31819,-0.002 -0.002,-0.31821 -0.31822,-0.002 -0.002,-0.31819 -0.3165,-0.002 -0.002,-0.31652 -0.31649,-0.002 -0.002,-0.3165 -0.3148,-0.002 -0.002,-0.31483 -0.3131,-0.002 -0.002,-0.3131 -0.31136,-0.002 -0.002,-0.3114 -0.31139,-0.002 -0.002,-0.31139 -0.30969,-0.002 -0.002,-0.30972 -0.3097,-0.002 -0.002,-0.3097 -0.30798,-0.002 -0.002,-0.30801 -0.30628,-0.002 -0.002,-0.30631 -0.30461,-0.002 -0.002,-0.30461 -0.30457,-0.002 -0.002,-0.30461 -0.30459,-0.002 -0.002,-0.30288 -0.30119,-0.002 -0.002,-0.30288 -0.30119,-0.002 -0.002,-0.30121 -0.29949,-0.002 -0.002,-0.29947 -0.29948,-0.002 -0.002,-0.29951 -0.29778,-0.002 -0.002,-0.296091 -0.29608,-0.0021 -0.002,-0.297788 -0.2944,-0.0021 -0.002,-0.294385 -0.29439,-0.0021 -0.002,-0.294383 -0.29268,-0.0019 -0.002,-0.29269 -0.29268,-0.0019 -0.002,-0.29269 -0.29098,-0.0019 -0.002,-0.290979 -0.28928,-0.0019 -0.002,-0.289259 -0.28928,-0.0019 -0.002,-0.28929 -0.28588,-0.0019 -0.002,-0.285891 -0.28759,-0.0019 -0.002,-0.287567 -0.28416,-0.0018 -0.002,-0.284179 -0.28417,-0.0018 -0.002,-0.284175 -0.28245,-0.0018 -0.002,-0.282489 -0.28248,-0.0018 -0.002,-0.282468 -0.28077,-0.0018 -0.002,-0.280767 -0.27908,-0.0018 -0.002,-0.279066 -0.27907,-0.0018 -0.002,-0.279075 -0.27738,-0.0018 -0.002,-0.277357 -0.27566,-0.0018 -0.002,-0.275675 -0.27394,-0.0018 -0.002,-0.273983 -0.27399,-0.0018 -0.002,-0.273965 -0.27396,-0.0018 -0.002,-0.272263 -0.27056,-0.0018 -0.002,-0.272251 -0.27055,-0.0018 -0.002,-0.27057 -0.26885,-0.0018 -0.002,-0.26885 -0.26888,-0.0018 -0.002,-0.26885 -0.26715,-0.0018 -0.002,-0.26716 -0.26547,-0.0018 -0.002,-0.265459 -0.26545,-0.0018 -0.002,-0.265457 -0.26375,-0.0018 -0.002,-0.263757 -0.26205,-0.0018 -0.002,-0.262044 -0.26034,-0.0018 -0.002,-0.260354 -0.26037,-0.0018 -0.002,-0.260354 -0.26035,-0.0018 -0.002,-0.260345 -0.25695,-0.0018 -0.002,-0.256953 -0.25695,-0.0018 -0.002,-0.256942 -0.25524,-0.0018 -0.002,-0.255251 -0.25525,-0.0018 -0.002,-0.255241 -0.25353,-0.0018 -0.002,-0.253541 -0.25186,-0.0018 -0.002,-0.251839 -0.25184,-0.0018 -0.002,-0.251849 -0.25015,-0.0018 -0.002,-0.250137 -0.24843,-0.0018 -0.002,-0.248437 -0.24841,-0.0018 -0.002,-0.248437 -0.24673,-0.0018 -0.002,-0.246737 -0.24501,-0.0018 -0.002,-0.245036 -0.24503,-0.0018 -0.002,-0.245036 -0.24503,-0.0018 0,-0.241632 -0.24333,-0.0018 0,-0.243333 -0.24164,-0.0018 0,-0.239933 -0.24164,-0.0018 0,-0.239931 -0.24162,-0.0018 0,-0.239932 -0.23822,-0.0018 0,-0.23653 -0.23824,-0.0018 0,-0.23653 -0.23822,-0.0018 0,-0.23652 -0.23484,-0.0018 0,-0.233127 -0.2348,-0.0018 0,-0.233126 -0.23484,-0.0018 0,-0.231415 -0.23144,-0.0018 0,-0.231426 -0.23142,-0.0018 0,-0.229715 -0.22971,-0.0018 0,-0.228024 -0.22973,-0.0018 0,-0.228017 -0.22801,-0.0018 0,-0.226322 -0.22633,-0.0018 0,-0.224613 -0.22631,-0.0018 0,-0.224622 -0.22461,-0.0018 0,-0.222911 -0.22292,-0.0018 0,-0.221211 -0.22291,-0.0018 0,-0.221219 -0.22119,-0.0018 0,-0.219507 -0.21952,-0.0018 0,-0.217807 -0.21952,-0.0018 0,-0.217808 -0.21782,-0.0018 0,-0.216106 -0.2161,-0.0018 0,-0.214406 -0.2161,-0.0018 0,-0.214405 -0.21441,-0.0018 0,-0.212704 -0.21269,-0.0018 0,-0.211004 -0.21273,-0.0018 0,-0.211003 -0.21099,-0.0018 0,-0.209301 -0.2093,-0.0018 0,-0.2076 -0.20929,-0.0018 0,-0.2076 -0.20762,-0.0018 0,-0.2059 -0.20589,0 0,-0.205899 -0.20589,0 0,-0.2059 -0.2042,0 0,-0.204189 -0.2025,0 0,-0.202498 -0.20249,0 0,-0.202489 -0.2008,0 0,-0.200796 -0.2008,0 0,-0.200797 -0.19739,0 0,-0.197384 -0.19738,0 0,-0.197395 -0.19738,0 0,-0.197384 -0.194,0 0,-0.193992 -0.19398,0 0,-0.193982 -0.19398,0 0,-0.193983 -0.19059,0 0,-0.190591 -0.19228,0 0,-0.19228 -0.18888,0 0,-0.18888 -0.18889,0 0,-0.188879 -0.18718,0 0,-0.187187 -0.18548,0 0,-0.185478 -0.18547,0 0,-0.185476 -0.18379,0 0,-0.183778 -0.18207,0 0,-0.182073 -0.18206,0 0,-0.182076 -0.18037,0 0,-0.180373 -0.17868,0 0,-0.178673 -0.17867,0 0,-0.178674 -0.17698,0 0,-0.176961 -0.17696,0 0,-0.176971 -0.17355,0 0,-0.173568 -0.17358,0 0,-0.173561 -0.17358,0 0,-0.173569 -0.17014,0 0,-0.170168 -0.17188,0 0,-0.171858 -0.16846,0 0,-0.168466 -0.16846,0 0,-0.168468 -0.16676,0 0,-0.166754 -0.16507,0 0,-0.165064 -0.16505,0 0,-0.165054 -0.16335,0 0,-0.163353 -0.16166,0 0,-0.161662 -0.16165,0 0,-0.161652 -0.15995,0 0,-0.159951 -0.15997,0 0,-0.159961 -0.15654,0 0,-0.156548 -0.15826,0 0,-0.15825 -0.15486,0 0,-0.154848 -0.15483,0 0,-0.154848 -0.15316,0 0,-0.153147 -0.15143,0 0,-0.151445 -0.15143,0 0,-0.151445 -0.14976,0 0,-0.149744 -0.14975,0 0,-0.149746 -0.14634,0 0,-0.146341 -0.14633,0 0,-0.146333 -0.14635,0 0,-0.146342 -0.14463,0 0,-0.144641 -0.14295,0 0,-0.142941 -0.14123,0 0,-0.141229 -0.14124,0 0,-0.141238 -0.13952,0 0,-0.139539 -0.13956,0 0,-0.139527 -0.13612,0 0,-0.136137 -0.13782,0 0,-0.136126 -0.13444,0 0,-0.136135 -0.13442,0 0,-0.134425 -0.13273,0 0,-0.132725 -0.13104,0 0,-0.131032 -0.13101,0 0,-0.131022 -0.12934,0 0,-0.129322 -0.1293,0 0,-0.129331 -0.12765,0 0,-0.127621 -0.1259,0 0,-0.12592 -0.12422,0 0,-0.124218 -0.12424,0 0,-0.124218 -0.1225,0 0,-0.122517 -0.12252,0 0,-0.122517 -0.11911,0 0,-0.119116 -0.12082,0 0,-0.120816 -0.1174,0 0,-0.117415 -0.11744,0 0,-0.117414 -0.11571,0 0,-0.115712 -0.1157,0 0,-0.115703 -0.11231,0 0,-0.112311 -0.114,0 0,-0.114013 -0.11061,0 0,-0.110599 -0.1106,0 0,-0.11061 -0.10892,0 0,-0.108908 -0.10891,0 0,-0.107198 -0.10548,0 0,-0.107208 -0.10723,0 0,-0.107197 -0.10376,0 0,-0.103803 -0.10387,0 0,-0.103792 -0.10207,0 0,-0.102099 -0.10207,0 0,-0.102109 -0.0988,0 0,-0.09869 -0.10043,0 0,-0.100386 -0.0969,0 0,-0.09701 -0.0969,0 0,-0.09701 -0.0953,0 0,-0.09526 -0.0953,0 0,-0.09526 -0.0937,0 0,-0.0936 -0.0919,0 0,-0.09186 -0.0903,0 0,-0.09021 -0.0903,0 0,-0.09021 -0.0883,0 0,-0.08846 -0.0885,0 0,-0.08847 -0.0868,0 0,-0.08679 -0.0851,0 0,-0.08506 -0.0834,0 0,-0.0834 -0.0835,0 0,-0.0834 -0.0834,0 0,-0.0834 -0.0799,0 0,-0.08 -0.0799,0 0,-0.08 -0.0784,0 0,-0.07825 -0.0782,0 0,-0.07826 -0.0766,0 0,-0.0766 -0.0748,0 0,-0.07485 -0.0731,0 0,-0.0732 -0.0733,0 0,-0.07319 -0.0714,0 0,-0.07145 -0.0714,0 0,-0.07145 -0.0699,0 0,-0.06979 -0.068,0 0,-0.06803 -0.068,0 0,-0.06804 -0.0664,0 0,-0.06639 -0.0647,0 0,-0.06465 -0.063,0 0,-0.063 -0.063,0 0,-0.063 -0.0631,0 0,-0.06299 -0.0596,0 0,-0.05959 -0.0596,0 0,-0.05959 -0.0579,0 0,-0.05784 -0.0579,0 0,-0.05783 -0.0562,0 0,-0.05618 -0.0545,0 0,-0.05444 -0.0546,0 0,-0.05444 -0.0527,0 0,-0.05278 -0.0511,0 0,-0.05103 -0.0494,0 0,-0.04938 -0.0494,0 0,-0.04938 -0.0494,0 0,-0.04938 -0.0459,0 0,-0.04598 -0.0459,0 0,-0.04598 -0.0443,0 0,-0.04422 -0.0442,0 0,-0.04422 -0.0426,0 0,-0.04248 -0.0409,0 0,-0.04084 -0.0408,0 0,-0.04084 -0.0392,0 0,-0.03916 -0.0373,0 0,-0.03742 -0.0373,0 0,-0.03742 -0.0358,0 0,-0.03577 -0.0342,0 0,-0.03402 -0.0323,0 0,-0.03237 -0.0323,0 0,-0.03237 -0.0323,0 0,-0.03237 -0.029,0 0,-0.02897 -0.029,0 0,-0.02897 -0.029,0 0,-0.02722 -0.0256,0 0,-0.02723 -0.0257,0 0,-0.02557 -0.0239,0 0,-0.02382 -0.0238,0 0,-0.02382 -0.0222,0 0,-0.02216 -0.0204,0 0,-0.0204 -0.0204,0 0,-0.0204 -0.0189,0 0,-0.01876 -0.0169,0 0,-0.01702 -0.0169,0 0,-0.01702 -0.0154,0 0,-0.01536 -0.0136,0 0,-0.01361 -0.0136,0 0,-0.01361 -0.012,0 0,-0.01186 -0.0105,0 0,-0.01026 -0.0105,0 0,-0.01026 -0.009,0 0,-0.0087 -0.007,0 0,-0.0068 -0.007,0 0,-0.0068 -0.006,0 0,-0.0049 -0.004,0 0,-0.003 -0.004,0 0,-0.0039 -0.002,0 0,-0.0018 -75.315976,-0.311406 z"
       id="path4431"
       inkscape:connector-curvature="0"
       clip-path="url(#clipPath4193)" />
    <path
       inkscape:export-ydpi="90"
       inkscape:export-xdpi="90"
       transform="matrix(0.87123614,0,0,0.87123614,16.332867,7.0062156)"
       inkscape:connector-curvature="0"
       style="opacity:1;fill:#fdd95f;fill-opacity:1;fill-rule:nonzero;stroke:none;stroke-width:1px;stroke-linecap:butt;stroke-linejoin:miter;stroke-opacity:1;filter:url(#filter4182)"
       d="m 42.021484,61.046875 0.119141,34.171875 16.291016,-0.04492 0,-14.958984 9.630859,-0.02344 0.02344,43.259764 -7.039063,0.14258 0.119141,19.14258 48.632812,0 0,-18.78711 -7.72852,-0.11914 0.21485,-43.593752 9.77343,-0.04492 0.16407,14.982422 16.36328,-0.11914 -0.11719,-33.650391 -86.447264,-0.357422 z m 86.089846,40.072265 a 7.1344976,4.6374235 0 0 0 -7.13477,4.63672 7.1344976,4.6374235 0 0 0 7.13477,4.63867 7.1344976,4.6374235 0 0 0 7.13476,-4.63867 7.1344976,4.6374235 0 0 0 -7.13476,-4.63672 z m -9.75,15.33984 0.0195,7.9668 2.78906,-0.0117 0.0449,10.95117 -2.77929,0.0332 0.0449,8.17187 21.07812,-0.0312 0,-8.35547 -3.12304,-0.0332 -0.0879,-18.62891 -17.98633,-0.0625 z"
       id="path4801" />
    <path
       id="path4192"
       d="m 52.943503,63.775134 0.103799,28.288234 14.193322,-0.03719 0,-12.383378 8.390753,-0.0194 0.02042,35.81139 -6.132687,0.11803 0.1038,15.84665 42.370668,0 0,-15.55238 -6.73337,-0.0986 0.18718,-36.087873 8.51497,-0.03719 0.14294,12.40278 14.25629,-0.09863 -0.10211,-27.856538 -75.315976,-0.295882 z m 75.004587,33.172707 a 6.2158321,3.8389618 0 0 0 -6.21607,3.838379 6.2158321,3.8389618 0 0 0 6.21607,3.83999 6.2158321,3.8389618 0 0 0 6.21606,-3.83999 6.2158321,3.8389618 0 0 0 -6.21606,-3.838379 z m -8.49455,12.698659 0.017,6.59509 2.42993,-0.01 0.0391,9.06562 -2.42142,0.0275 0.0391,6.76486 18.36402,-0.0258 0,-6.91684 -2.7209,-0.0275 -0.0766,-15.42142 -15.67034,-0.0517 z"
       style="opacity:0.2;fill:#bf360c;fill-opacity:1;fill-rule:nonzero;stroke:none;stroke-width:1px;stroke-linecap:butt;stroke-linejoin:miter;stroke-opacity:1"
       inkscape:connector-curvature="0"
       inkscape:export-xdpi="90"
       inkscape:export-ydpi="90"
       clip-path="url(#clipPath4204)" />
    <path
       id="path4194"
       d="m 42.021484,61.046875 0.119141,34.171875 16.291016,-0.04492 0,-14.958984 9.630859,-0.02344 0.02344,43.259764 -7.039063,0.14258 0.119141,19.14258 48.632812,0 0,-18.78711 -7.72852,-0.11914 0.21485,-43.593752 9.77343,-0.04492 0.16407,14.982422 16.36328,-0.11914 -0.11719,-33.650391 -86.447264,-0.357422 z m 86.089846,40.072265 a 7.1344976,4.6374235 0 0 0 -7.13477,4.63672 7.1344976,4.6374235 0 0 0 7.13477,4.63867 7.1344976,4.6374235 0 0 0 7.13476,-4.63867 7.1344976,4.6374235 0 0 0 -7.13476,-4.63672 z m -9.75,15.33984 0.0195,7.9668 2.78906,-0.0117 0.0449,10.95117 -2.77929,0.0332 0.0449,8.17187 21.07812,-0.0312 0,-8.35547 -3.12304,-0.0332 -0.0879,-18.62891 -17.98633,-0.0625 z"
       style="opacity:0.2;fill:#fdfdfd;fill-opacity:1;fill-rule:nonzero;stroke:none;stroke-width:1px;stroke-linecap:butt;stroke-linejoin:miter;stroke-opacity:1;"
       inkscape:connector-curvature="0"
       transform="matrix(0.87547774,0,0,0.84764327,15.943635,8.5611729)"
       inkscape:export-xdpi="90"
       inkscape:export-ydpi="90"
       clip-path="url(#clipPath4200)" />
    <path
       inkscape:export-ydpi="90"
       inkscape:export-xdpi="90"
       inkscape:connector-curvature="0"
       style="opacity:1;fill:#fdd95f;fill-opacity:1;fill-rule:nonzero;stroke:none;stroke-width:1px;stroke-linecap:butt;stroke-linejoin:miter;stroke-opacity:1"
       d="m 52.943503,61.32383 0.103799,28.8892 14.193322,-0.03797 0,-12.646455 8.390753,-0.01982 0.02042,36.572188 -6.132687,0.12053 0.1038,16.1833 42.37067,0 0,-15.88278 -6.73337,-0.10073 0.18718,-36.85453 8.51497,-0.03798 0.14294,12.66627 14.25629,-0.100722 -0.10211,-28.448332 -75.315978,-0.302168 z m 75.004587,33.877441 a 6.2158321,3.9205181 0 0 0 -6.21607,3.919924 6.2158321,3.9205181 0 0 0 6.21607,3.921575 6.2158321,3.9205181 0 0 0 6.21606,-3.921575 6.2158321,3.9205181 0 0 0 -6.21606,-3.919924 z m -8.49455,12.968439 0.017,6.7352 2.42993,-0.01 0.0391,9.25821 -2.42142,0.028 0.0391,6.90858 18.36402,-0.0264 0,-7.06379 -2.7209,-0.0281 -0.0766,-15.74904 -15.67034,-0.0528 z"
       id="path4198" />
  </g>
  <g
     inkscape:groupmode="layer"
     id="layer1"
     inkscape:label="circle 1">
    <path
       style="display:inline;opacity:0.1;fill:url(#radialGradient5229);fill-opacity:1;fill-rule:evenodd;stroke:none;stroke-width:1px;stroke-linecap:butt;stroke-linejoin:miter;stroke-opacity:1"
       d="m 81.505842,8.3407984 28.897098,0 c 0,0 1.94913,0.1066516 2.687,0.6599663 0.82801,0.6209027 1.55564,2.6870053 1.55564,2.6870053 l 3.77124,18.526198 c 0,0 0.7206,1.904183 1.74419,2.969849 0.62578,0.651501 2.07418,1.744196 2.07418,1.744196 l 12.30366,7.165349 c 0,0 1.17936,0.711296 3.53553,1.225652 2.64114,0.576565 4.33693,0 4.33693,0 l 16.16917,-5.421152 c 0,0 2.24924,-0.557551 3.34697,-0.329983 0.47523,0.09852 0.92307,0.169231 1.44066,0.498154 0.51759,0.328923 1.10493,0.916059 1.10493,0.916059 l 14.70782,25.455844 c 0,0 0.90051,1.907623 0.70711,2.875568 -0.34074,1.705382 -1.60278,2.734146 -1.60278,2.734146 L 164.4259,82.869853 c 0,0 -1.38461,1.657299 -1.79134,2.639866 -0.54456,1.31553 -0.80139,4.1955 -0.80139,4.1955 l 0,14.424981 c 0,0 0.41361,1.82428 0.84853,2.63986 0.5843,1.0957 2.30988,2.92271 2.30988,2.92271 l 12.82221,11.83225 c 0,0 1.38126,1.6164 1.74419,2.59273 0.77283,2.07905 -0.0943,3.25269 -0.0943,3.25269 l -15.65063,26.25723 c 0,0 -0.41688,0.85116 -2.40416,0.94281 -1.08125,0.0499 -3.20555,-0.51854 -3.20555,-0.51854 l -16.92342,-5.60972 c 0,0 -1.40598,-0.12299 -2.96985,0.11785 -1.47774,0.22757 -2.96985,0.8721 -2.96985,0.8721 l -12.8222,7.49533 c 0,0 -1.70156,1.55971 -2.35703,2.49845 -1.20191,1.72134 -1.9799,3.77123 -1.9799,3.77123 l -3.25269,16.5463 c 0,0 -0.28922,0.62411 -0.45776,0.9235 -0.27759,0.4931 -0.60827,1.09351 -0.90931,1.43353 -0.58747,0.66355 -1.30403,1.26004 -2.12132,1.60277 -0.19776,0.0829 -0.6364,0.0943 -0.6364,0.0943 l -30.617721,0.0943 c 0,0 -1.013771,-0.11799 -1.979899,-1.17851 -1.10084,-1.20839 -1.08423,-2.02704 -1.08423,-2.02704 l -3.865517,-18.71476 c 0,0 -1.123813,-2.54976 -2.02704,-3.58267 -0.804753,-0.92029 -2.922708,-2.2156 -2.922708,-2.2156 l -11.926534,-6.88251 c 0,0 -2.001019,-0.8494 -3.06413,-0.89567 -1.921142,-0.0836 -5.656854,1.13137 -5.656854,1.13137 l -14.849242,4.66691 c 0,0 -1.134516,0.35448 -1.791337,0.28286 -0.47746,-0.0521 -1.254723,-0.11493 -1.84302,-0.32189 -0.404556,-0.14232 -1.126829,-0.62092 -1.126829,-0.62092 L 12.303638,127.22904 c 0,0 -0.479816,-1.67187 -0.329983,-2.49845 0.190583,-1.05138 1.508494,-2.82842 1.508494,-2.82842 L 27.0586,109.64565 c 0,0 1.274328,-1.43441 1.744196,-2.26274 0.549966,-0.96954 1.225652,-3.11127 1.225652,-3.11127 l 0,-15.839193 c 0,0 -0.226127,-1.684551 -0.565685,-2.451304 C 28.905016,84.721698 27.10574,82.587031 27.10574,82.587031 L 13.670711,69.859108 C 12.940136,69.129255 12.727605,68.96207 12.162216,67.313524 11.89979,65.830914 12.19246,65.513494 12.4922,64.532237 L 27.341442,38.557848 c 0,0 0.747061,-1.146088 2.262742,-1.319932 1.353495,-0.155242 4.054079,0.518545 4.054079,0.518545 l 13.623591,4.431202 c 0,0 3.358833,1.013879 5.374011,1.084231 1.149893,0.04014 2.309882,-0.329984 2.309882,-0.329984 l 15.744911,-9.38095 c 0,0 1.788037,-0.818709 2.404164,-2.922707 0.349564,-1.19372 0.801387,-3.629816 0.801387,-3.629816 l 3.016989,-15.226366 c 0,0 0.360577,-1.293549 0.848528,-1.8856177 0.402856,-0.4888166 0.655309,-0.808652 1.225652,-1.0842304 0.582848,-0.2816206 2.498464,-0.4714245 2.498464,-0.4714245 z"
       id="path5219"
       inkscape:connector-curvature="0"
       sodipodi:nodetypes="ccsccsccsccssccsccsccsccsccsccsccsccassccsccsccsccsaccsccsccscccccsccsccsccssc" />
  </g>
</svg>
