<?xml version="1.0" encoding="UTF-8" standalone="no"?>
<!-- Created with Inkscape (http://www.inkscape.org/) -->

<svg
   xmlns:dc="http://purl.org/dc/elements/1.1/"
   xmlns:cc="http://creativecommons.org/ns#"
   xmlns:rdf="http://www.w3.org/1999/02/22-rdf-syntax-ns#"
   xmlns:svg="http://www.w3.org/2000/svg"
   xmlns="http://www.w3.org/2000/svg"
   xmlns:xlink="http://www.w3.org/1999/xlink"
   xmlns:sodipodi="http://sodipodi.sourceforge.net/DTD/sodipodi-0.dtd"
   xmlns:inkscape="http://www.inkscape.org/namespaces/inkscape"
   width="192"
   height="192"
   id="svg2"
   version="1.1"
   inkscape:version="0.91 r13725"
   sodipodi:docname="tunein.svg"
   inkscape:export-filename="C:\Users\Simon\Documents\Material Design Icons\PNG\tunein.png"
   inkscape:export-xdpi="90"
   inkscape:export-ydpi="90">
  <sodipodi:namedview
     id="base"
     pagecolor="#ffffff"
     bordercolor="#666666"
     borderopacity="1.0"
     inkscape:pageopacity="0.0"
     inkscape:pageshadow="2"
     inkscape:zoom="1.4142136"
     inkscape:cx="239.33514"
     inkscape:cy="207.38986"
     inkscape:document-units="px"
     inkscape:current-layer="layer3"
     showgrid="true"
     showguides="false"
     inkscape:guide-bbox="true"
     inkscape:window-width="1920"
     inkscape:window-height="1017"
     inkscape:window-x="-8"
     inkscape:window-y="-8"
     inkscape:window-maximized="1"
     inkscape:snap-global="false">
    <inkscape:grid
       snapvisiblegridlinesonly="true"
       enabled="true"
       visible="true"
       empspacing="5"
       id="grid2985"
       type="xygrid" />
    <sodipodi:guide
       id="guide3002"
       position="8,58.524064"
       orientation="1,0" />
    <sodipodi:guide
       id="guide3004"
       position="20,69.304813"
       orientation="1,0" />
    <sodipodi:guide
       id="guide3006"
       position="32,62.631016"
       orientation="1,0" />
    <sodipodi:guide
       id="guide3008"
       position="68,53.390374"
       orientation="1,0" />
    <sodipodi:guide
       id="guide3010"
       position="119.61497,8"
       orientation="0,1" />
    <sodipodi:guide
       id="guide3012"
       position="155.5508,20"
       orientation="0,1" />
    <sodipodi:guide
       id="guide3014"
       position="132.96257,32"
       orientation="0,1" />
    <sodipodi:guide
       id="guide3016"
       position="130.90909,68"
       orientation="0,1" />
    <sodipodi:guide
       id="guide3018"
       position="137.06952,184"
       orientation="0,1" />
    <sodipodi:guide
       id="guide3020"
       position="184,145.79679"
       orientation="1,0" />
    <sodipodi:guide
       id="guide3022"
       position="91.379679,172"
       orientation="0,1" />
    <sodipodi:guide
       id="guide3024"
       position="172,101.64706"
       orientation="1,0" />
    <sodipodi:guide
       id="guide3026"
       position="149.39037,160"
       orientation="0,1" />
    <sodipodi:guide
       id="guide3028"
       position="160,88.299465"
       orientation="1,0" />
    <sodipodi:guide
       id="guide3030"
       position="128.34225,124"
       orientation="0,1" />
    <sodipodi:guide
       id="guide3032"
       position="124,92.919786"
       orientation="1,0" />
  </sodipodi:namedview>
  <defs
     id="defs4">
    <linearGradient
       inkscape:collect="always"
       id="linearGradient11981">
      <stop
         style="stop-color:#263238;stop-opacity:1;"
         offset="0"
         id="stop11983" />
      <stop
         style="stop-color:#263238;stop-opacity:0;"
         offset="1"
         id="stop11985" />
    </linearGradient>
    <linearGradient
       id="linearGradient10379"
       inkscape:collect="always">
      <stop
         id="stop10381"
         offset="0"
         style="stop-color:#ffffff;stop-opacity:1;" />
      <stop
         id="stop10383"
         offset="1"
         style="stop-color:#ffffff;stop-opacity:0;" />
    </linearGradient>
    <linearGradient
       id="linearGradient10371"
       inkscape:collect="always">
      <stop
         id="stop10373"
         offset="0"
         style="stop-color:#ffffff;stop-opacity:1;" />
      <stop
         id="stop10375"
         offset="1"
         style="stop-color:#ffffff;stop-opacity:0;" />
    </linearGradient>
    <radialGradient
       gradientTransform="matrix(0.00303984,2.0030302,-1.9969697,0.00303064,215.98528,-201.91659)"
       gradientUnits="userSpaceOnUse"
       r="24.139205"
       fy="46.32069"
       fx="123.86079"
       cy="46.32069"
       cx="123.86079"
       id="radialGradient10377"
       xlink:href="#linearGradient10371"
       inkscape:collect="always" />
    <radialGradient
       gradientTransform="matrix(0.00303979,2.0030297,-1.9969697,0.00303061,215.98528,-201.91653)"
       gradientUnits="userSpaceOnUse"
       r="24.139205"
       fy="46.320686"
       fx="123.86079"
       cy="46.320686"
       cx="123.86079"
       id="radialGradient10385"
       xlink:href="#linearGradient10379"
       inkscape:collect="always" />
    <linearGradient
       inkscape:collect="always"
       xlink:href="#linearGradient11981"
       id="linearGradient11987"
       x1="54.349251"
       y1="54.069809"
       x2="153.32971"
       y2="154.37883"
       gradientUnits="userSpaceOnUse"
       gradientTransform="matrix(1.1224413,0,0,1.1224413,-12.052778,-11.813446)" />
    <filter
       style="color-interpolation-filters:sRGB;"
       inkscape:label="Drop Shadow"
       id="filter12037"
       x="-0.26000000000000012"
       width="1.4700000000000002"
       height="1.3300000000000001">
      <feFlood
         flood-opacity="0.20000000000000001"
         flood-color="rgb(38,50,56)"
         result="flood"
         id="feFlood12039" />
      <feComposite
         in="flood"
         in2="SourceGraphic"
         operator="in"
         result="composite1"
         id="feComposite12041" />
      <feGaussianBlur
         in="composite1"
         stdDeviation="6"
         result="blur"
         id="feGaussianBlur12043" />
      <feOffset
         dx="4.57967e-015"
         dy="6"
         result="offset"
         id="feOffset12045" />
      <feComposite
         in="SourceGraphic"
         in2="offset"
         operator="over"
         result="composite2"
         id="feComposite12047" />
    </filter>
    <filter
       style="color-interpolation-filters:sRGB;"
       inkscape:label="Drop Shadow"
       id="filter12054">
      <feFlood
         flood-opacity="0.29999999999999999"
         flood-color="rgb(0,0,0)"
         result="flood"
         id="feFlood12056" />
      <feComposite
         in="flood"
         in2="SourceGraphic"
         operator="in"
         result="composite1"
         id="feComposite12058" />
      <feGaussianBlur
         in="composite1"
         stdDeviation="3"
         result="blur"
         id="feGaussianBlur12060" />
      <feOffset
         dx="4.57967e-015"
         dy="3"
         result="offset"
         id="feOffset12062" />
      <feComposite
         in2="offset"
         operator="over"
         result="composite2"
         id="feComposite12064"
         in="SourceGraphic" />
    </filter>
    <clipPath
       clipPathUnits="userSpaceOnUse"
       id="clipPath12076">
      <g
         style="filter:url(#filter12054)"
         id="g12078">
        <circle
           style="opacity:1;fill:#0ba490;fill-opacity:1;stroke:#049b86;stroke-width:1.01494646;stroke-linejoin:round;stroke-miterlimit:4;stroke-dasharray:none;stroke-opacity:1"
           id="circle12080"
           cx="96"
           cy="96"
           r="87.492523" />
        <ellipse
           ry="86.98423"
           rx="87.493996"
           style="opacity:1;fill:#38cdb9;fill-opacity:1;stroke:#37cdb8;stroke-width:1.01200247;stroke-linejoin:round;stroke-miterlimit:4;stroke-dasharray:none;stroke-opacity:1"
           id="ellipse12082"
           cx="96"
           cy="95.490234" />
        <ellipse
           ry="86.491524"
           rx="87.49543"
           cy="96"
           cx="96"
           id="ellipse12084"
           style="fill:#00bfa5;fill-opacity:1;stroke:#00bfa5;stroke-width:1.00914049;stroke-linejoin:round;stroke-miterlimit:4;stroke-dasharray:none;stroke-opacity:1" />
      </g>
    </clipPath>
  </defs>
  <metadata
     id="metadata7">
    <rdf:RDF>
      <cc:Work
         rdf:about="">
        <dc:format>image/svg+xml</dc:format>
        <dc:type
           rdf:resource="http://purl.org/dc/dcmitype/StillImage" />
        <dc:title />
      </cc:Work>
    </rdf:RDF>
  </metadata>
  <g
     inkscape:groupmode="layer"
     id="layer1"
     inkscape:label="circle 2">
    <circle
       r="87.492523"
       cy="96"
       cx="96"
       id="circle4873"
       style="display:inline;opacity:1;fill:#36b4a7;fill-opacity:1;stroke:#36b4a7;stroke-width:1.01494646;stroke-linejoin:round;stroke-miterlimit:4;stroke-dasharray:none;stroke-opacity:1;filter:url(#filter12054)" />
  </g>
  <g
     style="display:inline"
     inkscape:label="circle"
     id="layer3"
     inkscape:groupmode="layer">
    <ellipse
       style="opacity:0.2;fill:#263238;fill-opacity:1;stroke:#263238;stroke-width:1.01201129;stroke-linejoin:round;stroke-miterlimit:4;stroke-dasharray:none;stroke-opacity:1"
       id="circle10389"
       cx="96"
       cy="96.508232"
       rx="87.493988"
       ry="86.985756" />
    <ellipse
       ry="86.98423"
       rx="87.493996"
       style="opacity:0.2;fill:#38cdb9;fill-opacity:1;stroke:#ffffff;stroke-width:1.01200247;stroke-linejoin:round;stroke-miterlimit:4;stroke-dasharray:none;stroke-opacity:1"
       id="circle10391"
       cx="96"
       cy="95.490234" />
    <ellipse
       ry="86.491524"
       rx="87.49543"
       cy="96"
       cx="96"
       id="path3040"
       style="fill:#36b4a7;fill-opacity:1;stroke:#36b4a7;stroke-width:1.00914049;stroke-linejoin:round;stroke-miterlimit:4;stroke-dasharray:none;stroke-opacity:1" />
    <path
       style="opacity:0.2;fill:url(#linearGradient11987);fill-opacity:1"
       d="m 95.822154,37.747157 c -5.138273,-1e-6 -9.969543,1.999058 -13.607408,5.634129 -3.629483,3.632277 -5.635967,8.466941 -5.627552,13.605215 0,5.459323 2.299214,10.386321 5.967353,13.892402 0.212688,0.223084 0.430227,0.440584 0.653298,0.653296 0.204946,0.214389 0.414622,0.422206 0.62918,0.626989 0.205862,0.215512 0.415803,0.425559 0.631374,0.631373 0.204775,0.214374 0.412607,0.424401 0.626987,0.629181 0.202333,0.211855 0.408699,0.417923 0.620413,0.620412 0.210621,0.220776 0.425923,0.436109 0.646719,0.646719 0.197452,0.206343 0.3987,0.407628 0.605065,0.605066 0.20567,0.215516 0.416003,0.425543 0.631374,0.631374 0.202581,0.212007 0.408433,0.419981 0.620411,0.622603 0.201887,0.211246 0.409195,0.416295 0.620412,0.618219 0.204415,0.21386 0.413011,0.422688 0.626988,0.626989 0.195427,0.204167 0.394335,0.403044 0.59849,0.598489 0.205738,0.21545 0.415936,0.425612 0.631374,0.631374 0.196886,0.205628 0.397131,0.406097 0.602873,0.602874 0.19927,0.208384 0.403286,0.410141 0.611643,0.609449 0.198572,0.207623 0.399665,0.41084 0.607258,0.609452 0.194189,0.203004 0.391289,0.401904 0.594104,0.596297 0.203958,0.213548 0.413501,0.420766 0.626989,0.624796 0.01004,0.01046 0.01844,0.02243 0.0285,0.03289 l -49.889444,0 c -1.011449,0 -1.830543,0.819093 -1.830543,1.830542 l 0,15.045536 c 0,4.818367 2.037581,9.160657 5.283366,12.239427 0.206452,0.21773 0.418101,0.42924 0.635757,0.63577 0.206858,0.21809 0.419849,0.4289 0.637951,0.63574 0.205494,0.21655 0.414788,0.42814 0.631373,0.63357 0.204804,0.21578 0.415557,0.42444 0.631373,0.62918 0.203401,0.21427 0.410534,0.42362 0.624796,0.627 0.203688,0.21466 0.412402,0.42323 0.626989,0.62698 0.204093,0.21503 0.414151,0.42291 0.62918,0.62699 0.200689,0.21132 0.40477,0.41748 0.616028,0.61821 0.201927,0.21282 0.409964,0.41833 0.622604,0.62042 0.202319,0.21319 0.409534,0.42018 0.622604,0.62261 0.200688,0.21132 0.404769,0.41747 0.616028,0.61821 0.201327,0.21196 0.408451,0.41692 0.620411,0.61822 0.199003,0.20939 0.402255,0.41265 0.611643,0.61164 0.198785,0.20923 0.402493,0.41281 0.611643,0.61165 0.199251,0.20965 0.401983,0.41461 0.611643,0.61384 0.198223,0.20846 0.400931,0.4113 0.60945,0.60945 0.196375,0.2065 0.398586,0.40649 0.605066,0.60286 0.193686,0.20374 0.390581,0.40242 0.594104,0.59632 0.201538,0.21226 0.408211,0.41879 0.620413,0.6204 0.194102,0.20382 0.392339,0.40234 0.596297,0.5963 0.194117,0.20399 0.392311,0.40217 0.596297,0.59629 0.195414,0.20543 0.395262,0.40526 0.600681,0.60069 0.194066,0.20385 0.392374,0.40229 0.596297,0.5963 0.192183,0.20185 0.387869,0.39971 0.58972,0.5919 0.193675,0.2035 0.392801,0.40045 0.596297,0.59411 0.190257,0.19978 0.383413,0.39502 0.583143,0.58533 0.19256,0.20238 0.38964,0.39926 0.591912,0.59191 0.190953,0.20056 0.387032,0.39434 0.587528,0.58534 0.190258,0.19979 0.383414,0.39503 0.583144,0.58533 0.189721,0.19919 0.384004,0.39338 0.583143,0.58314 0.188479,0.19789 0.380985,0.39019 0.578759,0.57877 0.189784,0.19933 0.383931,0.39325 0.583143,0.58314 0.186918,0.19616 0.378318,0.38737 0.574375,0.57438 0.188396,0.19779 0.381076,0.39025 0.578757,0.57875 0.186786,0.19596 0.378468,0.38536 0.574375,0.57219 0.187429,0.1966 0.377765,0.38915 0.574374,0.57656 0.185057,0.19402 0.373796,0.38274 0.567797,0.5678 0.185228,0.19423 0.375798,0.38253 0.569991,0.56779 0.18453,0.19349 0.372177,0.38323 0.565605,0.56781 0.183837,0.19271 0.37294,0.37952 0.565604,0.56341 0.183308,0.19215 0.369136,0.38006 0.561221,0.56341 0.183582,0.19239 0.37103,0.37983 0.563414,0.56341 0.18156,0.19022 0.36667,0.37525 0.556836,0.55683 0.182073,0.19081 0.368298,0.37691 0.559028,0.55904 0.180682,0.18927 0.365439,0.3739 0.554644,0.55464 0.180683,0.18927 0.365439,0.37391 0.554643,0.55464 0.179829,0.18832 0.364183,0.37039 0.552452,0.55027 0.180476,0.18897 0.363477,0.37418 0.552451,0.55464 0.177383,0.18562 0.358096,0.36627 0.543683,0.54368 0.178664,0.1871 0.361073,0.3693 0.548067,0.54807 0.177186,0.18547 0.358306,0.36641 0.543683,0.54368 0.177611,0.18593 0.357842,0.36818 0.543682,0.54588 0.176312,0.18447 0.357073,0.36293 0.54149,0.53929 0.172683,0.18065 0.347878,0.35767 0.528337,0.53053 l 0,9.70737 c 0,0.6682 0.356531,1.23479 0.892254,1.55212 0.154905,0.26293 0.372283,0.48088 0.637949,0.63795 0.154555,0.2607 0.369816,0.47956 0.633565,0.63576 0.154138,0.25935 0.36901,0.47559 0.631374,0.63138 0.15364,0.2585 0.367948,0.4735 0.62918,0.62917 0.153676,0.25858 0.36787,0.47569 0.629181,0.63138 0.153489,0.25729 0.366753,0.47184 0.626989,0.62699 0.153164,0.25609 0.365727,0.47004 0.624796,0.62479 0.15308,0.25575 0.363862,0.47017 0.622604,0.6248 0.152838,0.25461 0.364899,0.46621 0.622604,0.6204 0.152475,0.25368 0.361558,0.46648 0.61822,0.62043 0.152423,0.25306 0.362012,0.46455 0.61822,0.61822 0.151568,0.25089 0.360036,0.46077 0.613835,0.61382 0.151582,0.25158 0.359574,0.46263 0.613835,0.61603 0.151471,0.25013 0.360653,0.46112 0.613836,0.61384 0.150911,0.24826 0.358123,0.45737 0.609449,0.60945 0.15058,0.24772 0.356671,0.45746 0.607259,0.60945 0.150785,0.24745 0.358799,0.45553 0.60945,0.60725 0.150362,0.24626 0.35348,0.45373 0.602873,0.60507 0.149881,0.24504 0.354819,0.45187 0.602873,0.60288 0.149978,0.2452 0.352415,0.45184 0.600683,0.60287 0.149704,0.244 0.3535,0.44794 0.600681,0.59848 0.149328,0.24307 0.350147,0.44823 0.596297,0.5985 0.148473,0.24124 0.350092,0.4443 0.594105,0.5941 0.148877,0.24257 0.350978,0.44603 0.596297,0.59629 0.148342,0.24015 0.348757,0.44266 0.591913,0.59193 0.148275,0.23986 0.346801,0.44273 0.589719,0.59191 0.147669,0.23823 0.346336,0.43888 0.587528,0.58753 0.14767,0.23824 0.346338,0.43888 0.587527,0.58753 0.14721,0.23668 0.343451,0.43726 0.583144,0.58533 0.147201,0.23625 0.345929,0.43752 0.585335,0.58533 0.14664,0.23435 0.341186,0.43387 0.57876,0.58095 0.146503,0.23437 0.34352,0.43158 0.58095,0.57876 0.146133,0.23346 0.340121,0.43186 0.576567,0.57876 0.146024,0.23273 0.340704,0.43002 0.576564,0.57657 0.14536,0.2309 0.33819,0.42629 0.57218,0.57218 0.14508,0.23057 0.33872,0.42631 0.57218,0.57219 0.14502,0.23028 0.33679,0.42643 0.57,0.57217 0.14441,0.22879 0.33618,0.42256 0.5678,0.5678 0.14394,0.22739 0.33538,0.42309 0.5656,0.5678 0.14385,0.22667 0.33593,0.42123 0.56561,0.5656 0.14379,0.22644 0.33394,0.41917 0.5634,0.56342 0.14284,0.22424 0.33199,0.41549 0.55903,0.55903 0.14328,0.22562 0.33283,0.41715 0.56122,0.56122 0.14266,0.22312 0.33068,0.41604 0.55683,0.55902 0.14203,0.22161 0.33012,0.41219 0.55465,0.55464 0.14202,0.22162 0.33011,0.41219 0.55464,0.55466 0.14198,0.2214 0.3281,0.41008 0.55246,0.55244 0.14097,0.21919 0.32616,0.40646 0.54806,0.54806 0.14164,0.22088 0.3266,0.41022 0.55027,0.55246 0.14081,0.21829 0.32466,0.40471 0.54588,0.54588 0.14066,0.21739 0.32536,0.40515 0.54586,0.54588 0.1403,0.21667 0.32184,0.40318 0.5415,0.54367 0.14,0.21576 0.3227,0.39918 0.54149,0.5393 0.13961,0.21498 0.32139,0.40164 0.5393,0.54148 0.13946,0.21417 0.31985,0.39767 0.5371,0.53712 0.1391,0.21357 0.31841,0.39781 0.53491,0.5371 0.1388,0.21261 0.31932,0.39385 0.53492,0.53272 0.13838,0.2117 0.31592,0.39419 0.53052,0.53273 0.13741,0.2098 0.31593,0.39261 0.52835,0.53053 0.13726,0.2091 0.31647,0.39077 0.52833,0.52833 0,0 0.002,0 0.002,0 0.13689,0.20826 0.31522,0.3889 0.52615,0.52614 0.13719,0.20865 0.31246,0.38883 0.52395,0.52615 0.13706,0.20796 0.313,0.38698 0.52396,0.52395 0.13628,0.20604 0.31275,0.38556 0.52176,0.52176 0.13551,0.2042 0.31027,0.38192 0.51738,0.51738 0.13538,0.20468 0.30796,0.38156 0.51517,0.51737 0.13471,0.20325 0.30953,0.3799 0.51519,0.51518 0.13415,0.2024 0.30846,0.37577 0.51299,0.51081 0.13372,0.20222 0.30684,0.37565 0.5108,0.51079 0.13429,0.20309 0.3079,0.37979 0.51299,0.51518 0.13332,0.20038 0.30391,0.37223 0.50641,0.50642 0.13248,0.19915 0.30338,0.37038 0.50423,0.50421 0.13298,0.20059 0.30419,0.37193 0.50641,0.50643 0.13244,0.19904 0.30126,0.37043 0.50203,0.50421 0.13176,0.19756 0.30067,0.36666 0.49984,0.49984 0.13147,0.19714 0.3012,0.36459 0.49983,0.49766 0.13107,0.19634 0.29771,0.36488 0.49546,0.49764 0.1304,0.19488 0.29923,0.36329 0.49544,0.49545 0.12951,0.19352 0.29663,0.35933 0.49107,0.49107 0.13026,0.19533 0.29699,0.36293 0.49327,0.49545 0.12961,0.19323 0.29664,0.3574 0.49107,0.48888 0.12811,0.19077 0.29306,0.35386 0.48448,0.48449 0.12896,0.19271 0.29548,0.35958 0.48887,0.49106 0.12851,0.19085 0.29262,0.354 0.4845,0.4845 0.12737,0.18916 0.29039,0.35017 0.48011,0.48009 0.12742,0.18931 0.29244,0.35231 0.4823,0.48231 0.12685,0.18778 0.28949,0.35083 0.47791,0.4801 0.12664,0.18766 0.28982,0.34643 0.47792,0.47573 0.12652,0.18728 0.28792,0.34661 0.47572,0.47572 0.12566,0.18596 0.28523,0.34488 0.47134,0.47353 0.12498,0.18458 0.2867,0.34329 0.47133,0.47134 0.12437,0.18366 0.28568,0.33923 0.46915,0.46695 0.12421,0.18386 0.28355,0.34122 0.46694,0.46914 0.12442,0.18374 0.2856,0.34141 0.46915,0.46915 0.12351,0.18172 0.28106,0.33575 0.46257,0.46257 0.12264,0.18047 0.28049,0.33399 0.46038,0.46037 0.12346,0.18231 0.28082,0.33753 0.46257,0.46477 0.12244,0.17974 0.27887,0.33219 0.45818,0.45818 0.12188,0.1789 0.27775,0.33031 0.456,0.45599 0.12183,0.17886 0.27782,0.33033 0.45599,0.456 0.12109,0.17715 0.2773,0.32895 0.4538,0.45379 0.12096,0.17696 0.27534,0.32684 0.4516,0.45161 0.12045,0.17618 0.27414,0.32494 0.44941,0.44942 0.12013,0.1757 0.27254,0.32511 0.44723,0.44941 0.11937,0.1742 0.27193,0.32143 0.44502,0.44504 0.11912,0.17383 0.27242,0.31936 0.44505,0.44283 0.11838,0.17256 0.26944,0.31993 0.44064,0.44284 0.11821,0.1725 0.26968,0.31769 0.44065,0.44064 0.11768,0.17117 0.26872,0.31841 0.43844,0.44066 0,0 0.002,0.002 0.002,0.002 0.11697,0.16911 0.26833,0.31294 0.43625,0.43407 0,0 0,0.002 0,0.002 0.11697,0.16911 0.26834,0.31294 0.43627,0.43407 0,0 0,0.002 0,0.002 0.1163,0.16814 0.26517,0.30894 0.43187,0.42968 0,0 0,0.002 0,0.002 0.1165,0.16841 0.26482,0.31102 0.43189,0.43187 0.11538,0.16684 0.26242,0.30728 0.42749,0.42749 0.1149,0.16614 0.2655,0.30975 0.42968,0.42969 0.11486,0.16544 0.26149,0.30802 0.4253,0.42749 0.11501,0.16534 0.26355,0.30597 0.42749,0.42529 0.11386,0.16341 0.25698,0.30247 0.41872,0.42092 0.11452,0.16465 0.26006,0.30407 0.42311,0.42311 0.11311,0.162 0.25629,0.29877 0.41653,0.41653 0.11354,0.16262 0.2599,0.3007 0.42092,0.41872 0.11274,0.16063 0.25513,0.2996 0.41434,0.41654 0.11257,0.16005 0.25557,0.29774 0.41433,0.41434 0.11188,0.15906 0.25243,0.29377 0.40997,0.40995 0.11238,0.15981 0.25369,0.29565 0.41213,0.41214 0.11097,0.15718 0.24993,0.29038 0.40557,0.40557 0.11108,0.15735 0.25191,0.29249 0.40776,0.40777 0.11075,0.15631 0.25057,0.29091 0.40557,0.40557 0.11042,0.15527 0.2492,0.28934 0.40339,0.40337 0.1097,0.15426 0.24605,0.28541 0.39898,0.399 0.10883,0.15301 0.24542,0.28376 0.3968,0.3968 0.10971,0.15483 0.24581,0.28719 0.399,0.40119 0.1086,0.15239 0.24374,0.28193 0.39461,0.3946 0.10897,0.15238 0.24551,0.28429 0.3968,0.3968 0.10765,0.14995 0.24147,0.27677 0.39021,0.38803 0.10751,0.15005 0.23942,0.27885 0.38805,0.39023 0.10744,0.14969 0.2418,0.27907 0.39022,0.39022 0.1075,0.14922 0.23977,0.27727 0.38802,0.38804 0.10636,0.14704 0.2376,0.27182 0.38366,0.38145 0.10619,0.14715 0.23551,0.27389 0.38145,0.38364 0.1054,0.14577 0.2348,0.27024 0.37926,0.37927 0.10508,0.14539 0.23528,0.27041 0.37927,0.37926 0.10508,0.1453 0.23317,0.27045 0.37706,0.37926 0.10497,0.14441 0.23582,0.2689 0.37927,0.37707 0.10423,0.14264 0.23082,0.26557 0.37269,0.37269 0.10391,0.14216 0.22919,0.26578 0.37048,0.37269 0.10265,0.14013 0.22927,0.26026 0.36831,0.3661 0.10349,0.14165 0.22983,0.26603 0.37049,0.37269 0.10339,0.14061 0.22829,0.26236 0.3683,0.3683 0.10127,0.13717 0.22327,0.25541 0.35953,0.35953 0.10233,0.13926 0.22774,0.26082 0.36611,0.36611 0.10159,0.13725 0.225,0.25769 0.36172,0.36173 0.10085,0.13614 0.22191,0.25384 0.35735,0.35733 0.10021,0.13533 0.22071,0.25207 0.35514,0.35515 0.10064,0.13596 0.22218,0.25613 0.35735,0.35953 0.10021,0.13455 0.22108,0.25045 0.35513,0.35296 0.0995,0.13332 0.218,0.24895 0.35077,0.35076 0.0988,0.1325 0.21679,0.24717 0.34857,0.34857 0.0991,0.13282 0.21646,0.2492 0.34857,0.35077 0.0987,0.1316 0.21731,0.2478 0.34858,0.34856 0.0975,0.1295 0.21287,0.24245 0.34199,0.342 0.097,0.12931 0.21348,0.24022 0.342,0.33979 0.0973,0.12953 0.21309,0.24455 0.34199,0.34419 0.0973,0.12882 0.21337,0.24292 0.34199,0.34199 0.0954,0.12587 0.20773,0.23581 0.33323,0.33323 0.0961,0.12719 0.20876,0.23937 0.33542,0.33761 0.0955,0.12565 0.21003,0.23596 0.33541,0.33322 0.0942,0.12378 0.20554,0.23263 0.32883,0.32885 0.095,0.12537 0.20619,0.23604 0.33105,0.33322 0.0944,0.12385 0.20525,0.23264 0.32883,0.32885 0.0931,0.12181 0.20298,0.22945 0.32446,0.32446 0.0929,0.12189 0.20319,0.22712 0.32445,0.32225 0.0931,0.12198 0.20296,0.22932 0.32446,0.32445 0.0926,0.12084 0.19956,0.22787 0.32007,0.32227 0.0921,0.11993 0.20044,0.22402 0.32008,0.31787 0.0909,0.11822 0.19576,0.22283 0.31349,0.31569 0.0917,0.11945 0.19888,0.22429 0.31788,0.31789 0.0911,0.11787 0.19786,0.22315 0.31567,0.31569 0.0899,0.11573 0.19345,0.21788 0.30912,0.30911 0.0893,0.11544 0.19195,0.21794 0.30691,0.30911 0.09,0.11608 0.19543,0.21981 0.31131,0.31129 0.0894,0.1146 0.19432,0.21647 0.30911,0.30692 0.0877,0.11218 0.18825,0.21131 0.30035,0.30035 0.0885,0.11369 0.19119,0.21472 0.30472,0.30472 0.0871,0.11137 0.18702,0.20958 0.29815,0.29815 0.0876,0.11209 0.18838,0.21353 0.30033,0.30253 0.0869,0.11062 0.18745,0.21014 0.29816,0.29815 0.0865,0.10965 0.18605,0.20859 0.29595,0.29595 0.085,0.10767 0.18182,0.20319 0.28938,0.28939 0.0866,0.1102 0.18573,0.20818 0.29595,0.29595 0.0838,0.1059 0.1792,0.19993 0.285,0.28498 0.0852,0.10807 0.18359,0.20515 0.29157,0.29159 0.0832,0.10476 0.17814,0.1985 0.2828,0.28279 0.0841,0.10631 0.18097,0.20188 0.2872,0.28719 0.0832,0.10444 0.17818,0.19879 0.28279,0.28281 0.0829,0.10402 0.17651,0.19683 0.28061,0.28062 0.0823,0.10296 0.17515,0.19749 0.27843,0.28061 0.0815,0.10169 0.17432,0.19393 0.27622,0.27622 0.0807,0.10074 0.1733,0.19015 0.27403,0.27183 0.0817,0.10223 0.1739,0.19578 0.27623,0.27841 0.0805,0.10001 0.16937,0.19074 0.26964,0.27185 0.0811,0.10064 0.17294,0.19033 0.27404,0.27185 0.0778,0.0961 0.16467,0.18229 0.26088,0.26087 0.0797,0.0992 0.17044,0.18899 0.26965,0.26965 0.0788,0.0974 0.16766,0.18591 0.26527,0.26527 0.079,0.0971 0.16752,0.18606 0.26526,0.26526 0.0762,0.0934 0.16064,0.17754 0.25431,0.25431 0.0786,0.0972 0.16555,0.18596 0.26306,0.26526 0.0753,0.0921 0.15981,0.17401 0.25212,0.24992 0.0773,0.0951 0.16333,0.18294 0.25868,0.26088 0.0754,0.092 0.15972,0.17634 0.25211,0.25211 0.076,0.0928 0.16098,0.17802 0.2543,0.2543 0.0737,0.0894 0.15577,0.16926 0.24553,0.24335 0.0757,0.0925 0.15929,0.17816 0.25211,0.25429 0.0735,0.0889 0.15397,0.16971 0.24335,0.24335 0.0737,0.0894 0.15577,0.16926 0.24554,0.24335 0.073,0.0886 0.15226,0.16984 0.24114,0.24333 0.0721,0.0873 0.15143,0.16634 0.23896,0.23896 0.0727,0.0881 0.15275,0.168 0.24116,0.24115 0.072,0.0868 0.14948,0.16673 0.23675,0.23896 0.0703,0.0844 0.14765,0.16182 0.2324,0.23238 0.0716,0.0863 0.15009,0.16491 0.23675,0.23676 0.0699,0.0836 0.14605,0.16018 0.23019,0.23019 0.0691,0.0827 0.14496,0.15862 0.228,0.228 0.0703,0.0841 0.14767,0.16206 0.23238,0.23238 0.0672,0.0799 0.14104,0.15185 0.22141,0.21922 0.069,0.0827 0.14287,0.15865 0.2258,0.228 0.068,0.0808 0.14232,0.15565 0.22362,0.22361 0.067,0.0794 0.13922,0.15442 0.21924,0.22142 0.0674,0.0797 0.14093,0.15424 0.22141,0.22142 0.0645,0.0759 0.13401,0.14592 0.21046,0.21046 0.0666,0.0791 0.13976,0.15245 0.21922,0.21923 0.0662,0.0779 0.13831,0.1489 0.21704,0.21484 0.0642,0.0751 0.13247,0.1444 0.20827,0.20825 0.0633,0.0744 0.13128,0.14264 0.20606,0.20609 0.0648,0.0764 0.13364,0.14771 0.21046,0.21264 0.0643,0.0751 0.13456,0.14438 0.21046,0.20828 0.0607,0.0705 0.12409,0.13672 0.19511,0.19729 0.0633,0.0743 0.13127,0.14486 0.20608,0.20828 0.0616,0.0718 0.12929,0.13801 0.20168,0.19948 0.0611,0.0709 0.12576,0.13864 0.19731,0.1995 0.0618,0.0717 0.12919,0.13814 0.20168,0.1995 0.0586,0.0674 0.12041,0.13021 0.18854,0.18853 0.0604,0.0702 0.12445,0.13699 0.19512,0.19731 0.0595,0.0687 0.12356,0.13152 0.19291,0.19073 0.0589,0.0679 0.12005,0.13212 0.18854,0.19072 0.0586,0.0673 0.12046,0.13031 0.18853,0.18853 0.0572,0.0655 0.1179,0.12726 0.18415,0.18415 0.0577,0.0663 0.11934,0.12897 0.18635,0.18635 0.0574,0.0657 0.11765,0.12727 0.18414,0.18415 0.0555,0.0632 0.11361,0.12253 0.17758,0.17757 0.0558,0.0637 0.11539,0.12211 0.17977,0.17758 0.0552,0.0629 0.11186,0.12272 0.17537,0.17757 0.0535,0.0609 0.10965,0.11766 0.17101,0.171 0.0559,0.064 0.11517,0.1241 0.17976,0.17977 0.0517,0.0584 0.1055,0.11301 0.16443,0.16442 0.0542,0.0618 0.11084,0.12135 0.17318,0.17537 0.0528,0.0596 0.10846,0.1165 0.1688,0.16881 0.0529,0.0595 0.10838,0.11659 0.16881,0.16881 0.0495,0.0554 0.1018,0.10656 0.15785,0.15565 0.0533,0.0603 0.10777,0.11814 0.1688,0.17099 0.0485,0.0541 0.0986,0.10539 0.15346,0.15346 0.0508,0.0572 0.10433,0.11174 0.16222,0.16222 0.049,0.0549 0.10011,0.10705 0.15565,0.15566 0.0489,0.0548 0.10021,0.1071 0.15565,0.15566 0.0498,0.0554 0.10148,0.10881 0.15786,0.15784 0.0454,0.0501 0.0917,0.0977 0.14248,0.14249 0.0486,0.0543 0.0985,0.10743 0.15346,0.15566 0.0462,0.0512 0.095,0.0989 0.14689,0.14468 0.0465,0.0516 0.0946,0.10085 0.14688,0.14689 0.0456,0.0503 0.0914,0.0996 0.14249,0.14468 0.0465,0.0514 0.0947,0.10106 0.14689,0.14689 0.0424,0.0464 0.0866,0.0896 0.13372,0.13152 0.0455,0.0503 0.0916,0.0997 0.1425,0.1447 0.0432,0.0475 0.0877,0.0932 0.13592,0.13592 0.0426,0.0467 0.0864,0.0917 0.13374,0.13373 0.0426,0.0467 0.0864,0.0916 0.13372,0.13373 0.0433,0.0474 0.0877,0.0933 0.13591,0.13593 0.0388,0.042 0.0779,0.0823 0.12059,0.12057 0.0422,0.0462 0.0847,0.092 0.13153,0.13372 0.0403,0.0438 0.0827,0.0852 0.12715,0.12496 0.0393,0.0427 0.0794,0.0839 0.12278,0.12277 0.041,0.0445 0.0818,0.0891 0.12714,0.12934 0.036,0.0388 0.0724,0.0763 0.1118,0.11181 0.0407,0.0443 0.0821,0.087 0.12716,0.12715 0.0348,0.0372 0.0696,0.0733 0.10742,0.10742 0.0386,0.0418 0.0781,0.0824 0.12058,0.12058 0.0359,0.0386 0.0725,0.0764 0.11181,0.1118 0.0374,0.0401 0.0753,0.0796 0.11618,0.1162 0.0328,0.0348 0.0653,0.0687 0.10085,0.10085 0.0371,0.0399 0.0756,0.0775 0.11618,0.11401 0.0332,0.0352 0.0649,0.0705 0.10085,0.10306 0.034,0.0364 0.0682,0.0717 0.10518,0.10519 0.0328,0.0348 0.0654,0.0687 0.10085,0.10084 0.0313,0.0333 0.0626,0.0655 0.0965,0.0964 0.0334,0.0356 0.0668,0.0701 0.10306,0.10307 0.0316,0.0335 0.0623,0.0676 0.0965,0.0986 0.0307,0.0324 0.0613,0.0642 0.0943,0.0943 0.0318,0.0336 0.0643,0.0653 0.0986,0.0964 0.027,0.0281 0.0523,0.0569 0.0811,0.0833 0.0307,0.0325 0.0612,0.0641 0.0943,0.0943 0.03,0.0314 0.0598,0.0628 0.0921,0.0921 0.0248,0.0259 0.0503,0.0501 0.0767,0.0745 0.0289,0.0305 0.0567,0.0614 0.0876,0.0899 0.0268,0.028 0.0525,0.057 0.0811,0.0833 0.0264,0.0276 0.0529,0.0552 0.0811,0.0811 0.0268,0.0279 0.0546,0.0549 0.0833,0.0811 0.0224,0.0231 0.0443,0.046 0.068,0.068 0.0272,0.0284 0.0542,0.0567 0.0833,0.0833 0.0225,0.0232 0.0443,0.0461 0.068,0.068 0.0238,0.0247 0.0471,0.0491 0.0724,0.0724 0.0227,0.0235 0.044,0.0479 0.068,0.0702 0.0206,0.0212 0.0419,0.0411 0.0635,0.0614 0.0247,0.0257 0.0482,0.0524 0.0745,0.0767 0.0182,0.0185 0.0358,0.037 0.0549,0.0548 0.0219,0.0226 0.0426,0.0465 0.0657,0.068 0.0199,0.0203 0.0405,0.0398 0.0614,0.0592 0.0192,0.0196 0.0369,0.0405 0.057,0.0592 0.0206,0.021 0.0419,0.0413 0.0635,0.0614 0.0147,0.0148 0.0286,0.0296 0.0439,0.0439 0.0191,0.0197 0.037,0.0404 0.057,0.0592 0.0186,0.0189 0.0375,0.0367 0.057,0.0548 0.0147,0.0148 0.0286,0.0296 0.0439,0.0439 0.0143,0.0144 0.0269,0.0299 0.0417,0.0439 0.0167,0.017 0.0331,0.034 0.0504,0.0504 0.0149,0.015 0.0284,0.0315 0.0439,0.046 0.0156,0.0159 0.0319,0.0308 0.0482,0.0461 0.0117,0.0117 0.0231,0.0237 0.0351,0.0351 0.0128,0.0129 0.0262,0.0247 0.0394,0.0373 0.0122,0.0122 0.0226,0.0255 0.0351,0.0373 0.0106,0.0106 0.0202,0.0206 0.0307,0.0306 0.014,0.014 0.0273,0.0281 0.0417,0.0417 0.007,0.007 0.0144,0.0147 0.0219,0.0219 0.0113,0.0114 0.0213,0.024 0.0329,0.0351 0.01,0.01 0.0187,0.0192 0.0285,0.0285 0.01,0.01 0.0205,0.0189 0.0307,0.0284 0.005,0.004 0.008,0.0107 0.0131,0.0153 0.011,0.011 0.0216,0.0222 0.0329,0.0329 0.002,0.002 0.006,0.006 0.008,0.008 0.008,0.008 0.0159,0.0163 0.0241,0.0241 0.005,0.005 0.0106,0.0106 0.0153,0.0153 0.005,0.005 0.0106,0.0106 0.0153,0.0153 0.006,0.006 0.0115,0.0118 0.0175,0.0175 0,0 0.002,0.002 0.002,0.002 0.005,0.004 0.008,0.0107 0.0132,0.0153 0.001,0.001 0.005,0.005 0.006,0.006 0.001,10e-4 0.003,0.003 0.004,0.004 0,0 0.002,0.002 0.002,0.002 0,0 0.002,0.002 0.002,0.002 7.4e-4,7.2e-4 0.001,10e-4 0.002,0.002 0.16643,0.16123 0.36658,0.29074 0.58753,0.38145 0.002,8.8e-4 0.004,0.001 0.006,0.002 0.001,6.3e-4 0.003,0.001 0.004,0.002 0.22539,0.0909 0.47395,0.1425 0.73659,0.1425 l 14.79783,0.002 c 9.3098,0 16.88703,-7.57225 16.88703,-16.88485 l 0,-15.04553 c -5.6e-4,-0.25147 -0.0536,-0.49153 -0.14688,-0.7103 -0.003,-0.007 -0.007,-0.0144 -0.011,-0.0219 -0.0464,-0.10487 -0.10212,-0.2045 -0.16661,-0.29814 -0.0645,-0.0935 -0.13676,-0.183 -0.21704,-0.26308 -7.3e-4,-7.3e-4 -10e-4,-0.001 -0.002,-0.002 0,0 -0.002,-0.002 -0.002,-0.002 0,0 -0.002,-0.002 -0.002,-0.002 0,0 -0.002,-0.002 -0.002,-0.002 -4.2e-4,-3.9e-4 -0.002,3.9e-4 -0.002,0 -0.001,-0.001 -0.001,-0.003 -0.002,-0.004 -10e-4,-0.001 -0.003,-0.003 -0.004,-0.004 -0.001,-0.001 -0.003,-0.003 -0.004,-0.004 -0.001,-0.001 -0.003,-0.003 -0.004,-0.004 -10e-4,-0.001 -0.003,-0.003 -0.004,-0.004 -0.002,-0.002 -0.004,-0.004 -0.006,-0.006 -0.004,-0.004 -0.008,-0.008 -0.0132,-0.0131 -0.004,-0.005 -0.0106,-0.008 -0.0153,-0.0132 -0.005,-0.005 -0.01,-0.012 -0.0153,-0.0175 -0.006,-0.006 -0.0134,-0.0114 -0.0198,-0.0175 -0.006,-0.006 -0.013,-0.0132 -0.0198,-0.0198 -0.007,-0.007 -0.0145,-0.0146 -0.022,-0.0219 -0.008,-0.008 -0.016,-0.0162 -0.0241,-0.0241 -0.008,-0.008 -0.016,-0.0162 -0.0241,-0.0241 -0.01,-0.01 -0.0189,-0.0191 -0.0285,-0.0286 -0.008,-0.008 -0.016,-0.0162 -0.0241,-0.0241 -0.0137,-0.0142 -0.0275,-0.028 -0.0417,-0.0417 -0.007,-0.007 -0.0145,-0.0147 -0.0219,-0.0219 -0.0152,-0.0156 -0.0303,-0.0309 -0.0461,-0.046 -0.01,-0.01 -0.0206,-0.0187 -0.0307,-0.0286 -0.013,-0.0134 -0.026,-0.0264 -0.0394,-0.0394 -0.013,-0.0134 -0.026,-0.0264 -0.0394,-0.0394 -0.0137,-0.0142 -0.0274,-0.0279 -0.0417,-0.0417 -0.0145,-0.0149 -0.029,-0.0294 -0.0439,-0.0439 -0.0145,-0.015 -0.0289,-0.0294 -0.0439,-0.0439 -0.0159,-0.0164 -0.0317,-0.0323 -0.0482,-0.0482 -0.0163,-0.0169 -0.0335,-0.032 -0.0504,-0.0482 -0.017,-0.0177 -0.0328,-0.0357 -0.0504,-0.0526 -0.0159,-0.0164 -0.0318,-0.0324 -0.0482,-0.0482 -0.0216,-0.0226 -0.0431,-0.0443 -0.0658,-0.0658 -0.0163,-0.0168 -0.0335,-0.032 -0.0504,-0.0482 -0.019,-0.0199 -0.0371,-0.0402 -0.057,-0.0592 -0.0198,-0.0206 -0.0407,-0.0395 -0.0614,-0.0592 -0.019,-0.0199 -0.0372,-0.0402 -0.057,-0.0592 -0.0236,-0.0248 -0.0475,-0.0488 -0.0723,-0.0723 -0.0198,-0.0206 -0.0407,-0.0395 -0.0614,-0.0592 -0.0208,-0.0219 -0.0418,-0.0427 -0.0635,-0.0635 -0.0239,-0.0253 -0.047,-0.0506 -0.0723,-0.0745 -0.0246,-0.026 -0.0506,-0.05 -0.0768,-0.0745 -0.0226,-0.0237 -0.0463,-0.0455 -0.0702,-0.068 -0.0225,-0.0238 -0.0442,-0.0476 -0.068,-0.0702 -0.0283,-0.0302 -0.0573,-0.0594 -0.0877,-0.0876 -0.0236,-0.0248 -0.0474,-0.0489 -0.0723,-0.0724 -0.026,-0.0276 -0.0535,-0.053 -0.0811,-0.0789 -0.0266,-0.0283 -0.0528,-0.0567 -0.0811,-0.0833 -0.0256,-0.0272 -0.0518,-0.0533 -0.079,-0.0789 -0.0312,-0.0335 -0.0629,-0.0654 -0.0964,-0.0965 -0.0263,-0.0279 -0.0531,-0.055 -0.0811,-0.0811 -0.0291,-0.0311 -0.0588,-0.0609 -0.0899,-0.0898 -0.0295,-0.0315 -0.0605,-0.0605 -0.0921,-0.0899 -0.0306,-0.0327 -0.0614,-0.0638 -0.0943,-0.0943 -0.0302,-0.0323 -0.0617,-0.0619 -0.0943,-0.0921 -0.0311,-0.0335 -0.0629,-0.0653 -0.0964,-0.0964 -0.0322,-0.0347 -0.0638,-0.0687 -0.0986,-0.10085 -0.0321,-0.0346 -0.0662,-0.0666 -0.10085,-0.0986 -0.0328,-0.0354 -0.0654,-0.0703 -0.10085,-0.10307 -0.0317,-0.0342 -0.0645,-0.0669 -0.0986,-0.0986 -0.0372,-0.0406 -0.0755,-0.0791 -0.11618,-0.11619 -0.0312,-0.0334 -0.0629,-0.0653 -0.0965,-0.0965 -0.0377,-0.0413 -0.0771,-0.0806 -0.11837,-0.11838 -0.0341,-0.0369 -0.0704,-0.0711 -0.10744,-0.10518 -0.0365,-0.0397 -0.0742,-0.0776 -0.11399,-0.114 -0.0365,-0.0397 -0.0742,-0.0776 -0.11399,-0.114 -0.0371,-0.0406 -0.0756,-0.0791 -0.1162,-0.11619 -0.0386,-0.0422 -0.0782,-0.0821 -0.12058,-0.12057 -0.0377,-0.0413 -0.077,-0.0807 -0.11838,-0.11839 -0.0395,-0.0433 -0.0815,-0.0833 -0.12496,-0.12276 -0.0389,-0.0426 -0.0778,-0.0839 -0.12058,-0.12277 -0.0404,-0.0445 -0.0826,-0.0868 -0.12714,-0.12715 -0.0404,-0.0445 -0.0826,-0.0868 -0.12715,-0.12715 -0.0416,-0.0458 -0.0856,-0.0878 -0.13154,-0.12935 -0.0419,-0.0461 -0.0853,-0.0898 -0.13154,-0.13153 -0.0419,-0.0462 -0.0852,-0.0898 -0.13153,-0.13154 -0.0433,-0.048 -0.0879,-0.0927 -0.13592,-0.13591 -0.0432,-0.0479 -0.088,-0.0928 -0.13592,-0.13593 -0.0438,-0.0485 -0.0894,-0.0944 -0.13812,-0.13811 -0.0179,-0.0198 -0.0318,-0.0424 -0.0504,-0.0614 l 3.98114,0 c 0.0364,-0.005 0.0744,-0.004 0.10529,-0.004 1.01423,0 1.8393,-0.8201 1.8393,-1.83713 l 0,-4.32534 c 0.0162,0.0154 0.0359,0.0268 0.0526,0.0417 0.0438,0.0484 0.0892,0.0946 0.13812,0.13811 0.0438,0.0483 0.0892,0.0946 0.13811,0.13812 0.0425,0.0468 0.0865,0.0915 0.13373,0.13373 0.0425,0.0467 0.0865,0.0916 0.13373,0.13372 0.0414,0.0456 0.0833,0.0904 0.12934,0.13154 0.0413,0.0454 0.0835,0.0884 0.12935,0.12934 0.0408,0.0447 0.084,0.0867 0.12933,0.12716 0.0402,0.044 0.0806,0.0873 0.12496,0.12716 0.0399,0.0434 0.081,0.0855 0.12496,0.12495 0.0392,0.0427 0.0795,0.0839 0.12277,0.12277 0.0366,0.0396 0.0739,0.0777 0.11399,0.11399 0.0413,0.0452 0.0835,0.0885 0.12935,0.12936 0.0354,0.0379 0.0709,0.0747 0.10961,0.1096 0.0372,0.0404 0.0754,0.0793 0.1162,0.11619 0.0363,0.0391 0.0722,0.0781 0.1118,0.114 0.0363,0.0391 0.0743,0.076 0.114,0.1118 0.0347,0.0372 0.0697,0.0731 0.10742,0.10743 0.0349,0.0375 0.0694,0.0751 0.10743,0.10961 0.0345,0.0369 0.0699,0.0712 0.10741,0.10518 0.0337,0.0361 0.0665,0.072 0.10307,0.10518 0.033,0.0352 0.0672,0.0683 0.10306,0.10085 0.031,0.033 0.0609,0.0659 0.0943,0.0965 0.0347,0.0372 0.0697,0.0732 0.10741,0.10742 0.0299,0.0316 0.0599,0.0627 0.0921,0.0921 0.0306,0.0325 0.0614,0.0642 0.0943,0.0943 0.0307,0.0325 0.0612,0.0641 0.0943,0.0943 0.0294,0.031 0.0584,0.061 0.0899,0.0899 0.0292,0.0309 0.0586,0.0611 0.0899,0.0899 0.0285,0.0301 0.0571,0.0596 0.0876,0.0877 0.028,0.0295 0.0556,0.0579 0.0855,0.0855 0.0275,0.0289 0.0539,0.0585 0.0833,0.0855 0.0267,0.0281 0.0548,0.0548 0.0833,0.0811 0.0261,0.0274 0.0512,0.0554 0.079,0.0811 0.0257,0.0269 0.0515,0.0536 0.079,0.079 0.0248,0.0259 0.0504,0.0501 0.0768,0.0745 0.0247,0.0259 0.0483,0.0523 0.0745,0.0768 0.0238,0.0247 0.0472,0.0489 0.0724,0.0723 0.0237,0.0247 0.0471,0.0491 0.0723,0.0723 0.0223,0.0231 0.0444,0.046 0.068,0.068 0.0224,0.0233 0.0443,0.046 0.068,0.068 0.0216,0.0224 0.043,0.0445 0.0658,0.0657 0.0209,0.0217 0.0415,0.0429 0.0635,0.0635 0.0205,0.0212 0.0399,0.0433 0.0614,0.0635 0.0199,0.0205 0.0406,0.0396 0.0614,0.0592 0.0191,0.0197 0.037,0.0404 0.057,0.0592 0.0188,0.0192 0.0374,0.0386 0.057,0.057 0.0182,0.0186 0.0358,0.037 0.0548,0.0549 0.016,0.0163 0.0317,0.0326 0.0482,0.0482 0.0199,0.0204 0.0384,0.0419 0.0592,0.0614 0.0146,0.0148 0.0309,0.0274 0.046,0.0417 0.0161,0.0164 0.0315,0.0324 0.0482,0.0482 0.0156,0.016 0.0298,0.0329 0.0461,0.0482 0.0124,0.0126 0.0245,0.025 0.0372,0.0373 0.0178,0.0182 0.034,0.0373 0.0526,0.0548 0.0114,0.0114 0.0234,0.0218 0.0351,0.0329 0.0128,0.0129 0.0241,0.027 0.0372,0.0394 0.012,0.0121 0.0248,0.0232 0.0373,0.0351 0.0117,0.0118 0.0229,0.0236 0.0351,0.0351 0.0113,0.0114 0.0213,0.024 0.0329,0.0351 0.01,0.01 0.0205,0.0188 0.0307,0.0284 0.01,0.01 0.0184,0.021 0.0285,0.0307 0.01,0.01 0.0188,0.0192 0.0285,0.0285 0.008,0.008 0.0159,0.0162 0.0241,0.0241 0.006,0.006 0.0112,0.0136 0.0175,0.0198 0.011,0.011 0.0217,0.0221 0.0329,0.0329 0.005,0.004 0.0106,0.008 0.0153,0.0131 0.006,0.006 0.013,0.0132 0.0198,0.0198 0.005,0.005 0.01,0.0122 0.0153,0.0175 0.005,0.004 0.0106,0.008 0.0153,0.0132 0.004,0.004 0.007,0.01 0.011,0.0131 0.003,0.003 0.007,0.007 0.011,0.011 0.003,0.003 0.007,0.007 0.011,0.011 0.001,0.001 0.003,0.003 0.004,0.004 0,0 0.002,0.002 0.002,0.002 0.001,0.001 0.005,0.005 0.006,0.006 0,0 0.002,0.002 0.002,0.002 7.4e-4,7.2e-4 0.001,0.001 0.002,0.002 0.0836,0.0813 0.17534,0.15473 0.27403,0.21923 8.6e-4,5.7e-4 0.001,0.002 0.002,0.002 0.0988,0.0644 0.20405,0.11915 0.31568,0.16442 0.22583,0.0921 0.47656,0.14469 0.74099,0.14469 l 14.8,0.002 c 9.30981,0 16.87827,-7.56846 16.87827,-16.87827 l 0,-15.05211 c 0,-0.25147 -0.0521,-0.49154 -0.14469,-0.7103 -6.4e-4,-0.001 -0.001,-0.003 -0.002,-0.004 -0.0459,-0.10845 -0.10159,-0.2102 -0.16661,-0.30691 -5.8e-4,-8.7e-4 -0.002,-10e-4 -0.002,-0.002 0,0 -0.002,-0.002 -0.002,-0.002 -5.4e-4,-8.1e-4 -0.002,-0.001 -0.002,-0.002 -3.2e-4,-4.7e-4 3.1e-4,-0.002 0,-0.002 -0.0641,-0.0948 -0.13692,-0.18188 -0.21704,-0.26306 -7.3e-4,-7.3e-4 -10e-4,-0.001 -0.002,-0.002 0,0 -0.002,-0.002 -0.002,-0.002 0,0 -0.002,-0.002 -0.002,-0.002 0,0 -0.002,-0.002 -0.002,-0.002 -7.3e-4,-7.3e-4 -10e-4,-0.001 -0.002,-0.002 0,0 -0.002,-0.002 -0.002,-0.002 -0.003,-0.003 -0.006,-0.006 -0.008,-0.008 -0.003,-0.003 -0.006,-0.006 -0.008,-0.008 -0.002,-0.002 -0.004,-0.004 -0.006,-0.006 -0.004,-0.004 -0.008,-0.008 -0.0131,-0.0131 -0.004,-0.005 -0.0106,-0.008 -0.0153,-0.0131 -0.005,-0.005 -0.01,-0.0121 -0.0153,-0.0175 -0.006,-0.006 -0.0134,-0.0113 -0.0198,-0.0175 -0.006,-0.006 -0.0131,-0.0132 -0.0198,-0.0198 -0.007,-0.007 -0.0146,-0.0147 -0.0219,-0.0219 -0.008,-0.008 -0.016,-0.0161 -0.0241,-0.0241 -0.008,-0.008 -0.0174,-0.0175 -0.0263,-0.0263 -0.008,-0.008 -0.0174,-0.0175 -0.0263,-0.0263 -0.01,-0.0106 -0.0206,-0.0187 -0.0306,-0.0285 -0.0106,-0.0106 -0.0203,-0.0205 -0.0307,-0.0307 -0.01,-0.01 -0.017,-0.0194 -0.0263,-0.0285 -0.0151,-0.0157 -0.0303,-0.0309 -0.046,-0.046 -0.0106,-0.0106 -0.0203,-0.0206 -0.0306,-0.0306 -0.0127,-0.013 -0.0264,-0.0246 -0.0394,-0.0373 -0.013,-0.0134 -0.026,-0.0264 -0.0394,-0.0394 -0.0137,-0.0142 -0.0275,-0.0279 -0.0417,-0.0417 -0.0145,-0.015 -0.029,-0.0294 -0.0439,-0.0439 -0.0151,-0.0156 -0.0303,-0.0309 -0.0461,-0.046 -0.0151,-0.0157 -0.0303,-0.0309 -0.046,-0.0461 -0.0162,-0.0169 -0.0336,-0.0319 -0.0504,-0.0482 -0.0169,-0.0177 -0.0329,-0.0357 -0.0504,-0.0526 -0.0158,-0.0165 -0.0318,-0.0323 -0.0482,-0.0482 -0.0215,-0.0226 -0.0432,-0.0443 -0.0658,-0.0658 -0.017,-0.0175 -0.035,-0.0335 -0.0526,-0.0504 -0.0187,-0.0196 -0.0374,-0.0383 -0.057,-0.057 -0.0201,-0.021 -0.0403,-0.0412 -0.0614,-0.0614 -0.0201,-0.021 -0.0403,-0.0412 -0.0614,-0.0614 -0.0207,-0.0219 -0.0417,-0.0427 -0.0636,-0.0635 -0.0215,-0.0226 -0.0431,-0.0443 -0.0658,-0.0658 -0.0222,-0.0234 -0.0446,-0.0458 -0.068,-0.068 -0.0228,-0.0242 -0.0461,-0.0473 -0.0702,-0.0702 -0.0228,-0.0242 -0.046,-0.0473 -0.0702,-0.0702 -0.0236,-0.0249 -0.0475,-0.0488 -0.0723,-0.0723 -0.0246,-0.0261 -0.0506,-0.0499 -0.0768,-0.0745 -0.0249,-0.0265 -0.0502,-0.0517 -0.0767,-0.0767 -0.0253,-0.0269 -0.0499,-0.0536 -0.0768,-0.079 -0.026,-0.0276 -0.0535,-0.053 -0.0811,-0.0789 -0.0266,-0.0284 -0.0528,-0.0567 -0.0811,-0.0833 -0.0256,-0.0273 -0.0518,-0.0533 -0.0789,-0.079 -0.0304,-0.0327 -0.0616,-0.0639 -0.0943,-0.0943 -0.0266,-0.0284 -0.0549,-0.0544 -0.0833,-0.0811 -0.029,-0.0311 -0.0588,-0.0609 -0.0899,-0.0899 -0.0297,-0.0319 -0.0602,-0.0623 -0.0921,-0.0921 -0.0297,-0.0319 -0.0601,-0.0624 -0.0921,-0.0921 -0.0304,-0.0328 -0.0616,-0.0639 -0.0943,-0.0943 -0.0311,-0.0335 -0.063,-0.0653 -0.0965,-0.0965 -0.032,-0.0347 -0.0663,-0.0666 -0.10085,-0.0986 -0.0325,-0.0352 -0.0658,-0.0683 -0.10085,-0.10085 -0.0328,-0.0355 -0.0653,-0.0702 -0.10085,-0.10307 -0.0317,-0.0343 -0.0645,-0.0668 -0.0986,-0.0986 -0.0365,-0.0399 -0.0742,-0.0775 -0.114,-0.11401 -0.0335,-0.0363 -0.0689,-0.0696 -0.10518,-0.10307 -0.0352,-0.0383 -0.0713,-0.0744 -0.10962,-0.10962 -0.0355,-0.0387 -0.071,-0.0763 -0.1096,-0.1118 -0.0362,-0.0394 -0.0746,-0.0757 -0.11401,-0.11181 -0.0372,-0.0406 -0.0756,-0.079 -0.11619,-0.11619 -0.0365,-0.0399 -0.0742,-0.0775 -0.11399,-0.11401 -0.0384,-0.0422 -0.0784,-0.0821 -0.12058,-0.12056 -0.0382,-0.0419 -0.0787,-0.0802 -0.12057,-0.11839 -0.0388,-0.0427 -0.0779,-0.0839 -0.12058,-0.12276 -0.0395,-0.0435 -0.0815,-0.0833 -0.12496,-0.12277 -0.0402,-0.0443 -0.0808,-0.087 -0.12496,-0.12715 -0.0408,-0.045 -0.0844,-0.0864 -0.12934,-0.12715 -0.0412,-0.0455 -0.0838,-0.0882 -0.12934,-0.12935 -0.0414,-0.0459 -0.0835,-0.0901 -0.12935,-0.13154 -0.0418,-0.0463 -0.0853,-0.0897 -0.13154,-0.13153 -0.0427,-0.0475 -0.0886,-0.0909 -0.13592,-0.13374 -0.0438,-0.0487 -0.0894,-0.0943 -0.13811,-0.13811 -0.0427,-0.0476 -0.0864,-0.093 -0.13373,-0.13591 -0.0467,-0.0523 -0.0968,-0.10021 -0.14907,-0.14688 -0.0439,-0.0486 -0.0894,-0.0944 -0.13812,-0.13813 -0.045,-0.0503 -0.0922,-0.0974 -0.14249,-0.14248 -0.046,-0.0516 -0.0955,-0.0985 -0.14688,-0.14469 -0.047,-0.0529 -0.0963,-0.10201 -0.14908,-0.14908 -0.0474,-0.0532 -0.096,-0.10392 -0.14907,-0.15127 -0.0477,-0.0535 -0.0978,-0.1037 -0.15127,-0.15127 -0.048,-0.054 -0.0995,-0.10328 -0.15346,-0.15125 -0.049,-0.0552 -0.10043,-0.10668 -0.15565,-0.15566 -0.0489,-0.0552 -0.10043,-0.10668 -0.15565,-0.15566 -0.0503,-0.0569 -0.10317,-0.10978 -0.16004,-0.16003 -0.0496,-0.056 -0.1019,-0.10818 -0.15784,-0.15784 -0.0514,-0.0583 -0.10608,-0.11298 -0.16442,-0.16442 -0.0516,-0.0585 -0.10594,-0.11291 -0.16442,-0.16441 -0.0516,-0.0585 -0.10593,-0.11291 -0.16442,-0.16443 -0.0529,-0.0601 -0.10868,-0.11604 -0.1688,-0.1688 -0.0532,-0.0606 -0.1104,-0.11571 -0.171,-0.16882 -0.0535,-0.061 -0.10997,-0.11753 -0.171,-0.17098 -0.0529,-0.0603 -0.10866,-0.11592 -0.1688,-0.16881 -0.057,-0.0655 -0.11641,-0.12725 -0.18196,-0.18415 -0.0538,-0.0613 -0.11173,-0.11733 -0.17318,-0.171 -0.056,-0.0643 -0.11547,-0.1238 -0.17977,-0.17976 -0.0553,-0.0635 -0.11415,-0.12218 -0.17758,-0.17758 -0.0571,-0.0659 -0.11837,-0.12702 -0.18415,-0.18415 -0.0566,-0.0652 -0.11687,-0.12532 -0.18195,-0.18196 -0.0571,-0.0661 -0.11832,-0.12681 -0.18416,-0.18415 -0.0589,-0.0684 -0.12251,-0.13168 -0.19073,-0.19072 -0.0584,-0.0677 -0.12097,-0.13006 -0.18853,-0.18854 -0.0595,-0.0691 -0.12383,-0.13332 -0.19291,-0.19292 -0.0591,-0.0685 -0.12235,-0.13161 -0.19074,-0.19073 -0.0623,-0.0726 -0.12902,-0.13957 -0.20168,-0.20168 -0.0598,-0.0691 -0.12355,-0.13336 -0.19292,-0.19292 -0.0613,-0.0714 -0.12807,-0.1361 -0.1995,-0.1973 -0.0619,-0.0722 -0.12724,-0.13988 -0.1995,-0.2017 -0.0615,-0.0718 -0.12778,-0.13791 -0.1995,-0.19949 -0.0647,-0.076 -0.13443,-0.14592 -0.21045,-0.21045 -0.0616,-0.0717 -0.12767,-0.13804 -0.1995,-0.19951 -0.0648,-0.0762 -0.13641,-0.14568 -0.21265,-0.21046 -0.0644,-0.0756 -0.13477,-0.14395 -0.21046,-0.20825 -0.064,-0.0753 -0.13094,-0.14639 -0.20606,-0.21046 -0.066,-0.0779 -0.13913,-0.14889 -0.21704,-0.21485 -0.0646,-0.0761 -0.13448,-0.14579 -0.21046,-0.21046 -0.0683,-0.0812 -0.14251,-0.15534 -0.22361,-0.22361 -0.0663,-0.0781 -0.13877,-0.14879 -0.21703,-0.21485 -0.0675,-0.0798 -0.13934,-0.1541 -0.21923,-0.22141 -0.0681,-0.0806 -0.14287,-0.15352 -0.22362,-0.22142 -0.0676,-0.0803 -0.14114,-0.15368 -0.22142,-0.22142 -0.0707,-0.0846 -0.14773,-0.16175 -0.23237,-0.23237 -0.0678,-0.0802 -0.14103,-0.15382 -0.22142,-0.22143 -0.0699,-0.0836 -0.14676,-0.16015 -0.23019,-0.23019 -0.0699,-0.0836 -0.14676,-0.16015 -0.23019,-0.23019 -0.0717,-0.0861 -0.15073,-0.16502 -0.23677,-0.23676 -0.0713,-0.0853 -0.14908,-0.16342 -0.23457,-0.23457 -0.0713,-0.0854 -0.14921,-0.16327 -0.23457,-0.23457 -0.0733,-0.0883 -0.1551,-0.16797 -0.24334,-0.24116 -0.0728,-0.0875 -0.15134,-0.16844 -0.23896,-0.24115 -0.0735,-0.0884 -0.15486,-0.16787 -0.24334,-0.24114 -0.0734,-0.0885 -0.15273,-0.16999 -0.24115,-0.24334 -0.0758,-0.0919 -0.16013,-0.17434 -0.25211,-0.24992 -0.0731,-0.088 -0.15302,-0.16817 -0.24116,-0.24115 -0.0773,-0.0941 -0.16235,-0.1794 -0.25648,-0.25651 -0.0751,-0.0905 -0.15696,-0.17307 -0.24774,-0.24772 -0.0766,-0.0931 -0.16102,-0.17784 -0.2543,-0.2543 -0.0766,-0.0931 -0.16101,-0.17785 -0.25429,-0.2543 -0.0765,-0.0932 -0.16117,-0.17771 -0.25431,-0.25431 -0.0784,-0.0961 -0.16704,-0.18243 -0.26307,-0.26088 -0.0781,-0.0953 -0.16324,-0.18291 -0.2587,-0.26087 -0.079,-0.0966 -0.16632,-0.18433 -0.26306,-0.26307 -0.0794,-0.097 -0.16802,-0.18406 -0.26527,-0.26308 -0.0796,-0.0976 -0.16757,-0.18589 -0.26526,-0.26527 -0.0795,-0.0977 -0.16772,-0.18572 -0.26527,-0.26526 -0.0813,-0.10042 -0.17148,-0.19274 -0.27184,-0.27403 -0.081,-0.0997 -0.17205,-0.18885 -0.27183,-0.26965 -0.0819,-0.10106 -0.17287,-0.19239 -0.27404,-0.27403 -0.0819,-0.10106 -0.17287,-0.1924 -0.27403,-0.27404 -0.083,-0.10275 -0.17551,-0.19566 -0.27842,-0.27842 -0.083,-0.10275 -0.17551,-0.19565 -0.27842,-0.27842 -0.0835,-0.1036 -0.17686,-0.19729 -0.28061,-0.28061 -0.0841,-0.10444 -0.17814,-0.19891 -0.2828,-0.2828 -0.0845,-0.10497 -0.17983,-0.19866 -0.28501,-0.28279 -0.0851,-0.10583 -0.17893,-0.20249 -0.28498,-0.28719 -0.0856,-0.10669 -0.18244,-0.20194 -0.28938,-0.28719 -0.0849,-0.10596 -0.17909,-0.20231 -0.285,-0.28719 -0.087,-0.10921 -0.18677,-0.20684 -0.29595,-0.29377 -0.087,-0.10897 -0.18464,-0.20705 -0.29377,-0.29376 -0.087,-0.10897 -0.18463,-0.20705 -0.29376,-0.29377 -0.0881,-0.11072 -0.18725,-0.21034 -0.29816,-0.29813 -0.0881,-0.11074 -0.18723,-0.21035 -0.29814,-0.29816 -0.0878,-0.11087 -0.1874,-0.21017 -0.29814,-0.29815 -0.0901,-0.11407 -0.19282,-0.21699 -0.30692,-0.30692 -0.0895,-0.11293 -0.19153,-0.21338 -0.30474,-0.30252 -0.0901,-0.11383 -0.19063,-0.21723 -0.30472,-0.30692 -0.0906,-0.11471 -0.19414,-0.21669 -0.30911,-0.30692 -0.0905,-0.1148 -0.19202,-0.21878 -0.30692,-0.30911 -0.0925,-0.11781 -0.19763,-0.22357 -0.31568,-0.31569 -0.0912,-0.11551 -0.19537,-0.21843 -0.3113,-0.30911 -0.0925,-0.1179 -0.19765,-0.22348 -0.31568,-0.31569 -0.093,-0.11879 -0.1989,-0.22514 -0.3179,-0.31787 -0.0927,-0.11836 -0.19723,-0.22539 -0.31568,-0.31788 -0.0938,-0.1202 -0.20205,-0.22645 -0.32226,-0.32008 -0.0934,-0.1198 -0.20033,-0.22664 -0.32007,-0.32007 -0.0957,-0.12333 -0.20546,-0.23335 -0.32884,-0.32883 -0.0938,-0.12013 -0.19984,-0.22871 -0.32008,-0.32226 -0.0949,-0.12279 -0.20642,-0.23137 -0.32883,-0.32666 -0.0958,-0.12413 -0.20721,-0.23496 -0.33104,-0.33102 -0.096,-0.12438 -0.2069,-0.23485 -0.33103,-0.33104 -0.0977,-0.12695 -0.21063,-0.24002 -0.33761,-0.33761 -0.0974,-0.12588 -0.20923,-0.23853 -0.33541,-0.33542 -0.0977,-0.12641 -0.21091,-0.23823 -0.33761,-0.33542 -0.0985,-0.12776 -0.21167,-0.24183 -0.33979,-0.3398 -0.0985,-0.12776 -0.21168,-0.24184 -0.33981,-0.3398 -0.099,-0.12875 -0.21304,-0.24341 -0.34201,-0.342 -0.1,-0.13054 -0.21557,-0.24678 -0.34637,-0.34637 -0.0986,-0.12829 -0.21139,-0.24364 -0.3398,-0.34199 -0.10084,-0.13261 -0.2204,-0.24988 -0.35295,-0.35076 -0.10106,-0.13235 -0.21815,-0.25015 -0.35077,-0.35077 -0.10043,-0.13153 -0.21694,-0.24835 -0.34856,-0.34856 -0.10212,-0.13443 -0.22282,-0.25332 -0.35734,-0.35516 -0.10222,-0.13418 -0.22059,-0.25354 -0.35516,-0.35515 -0.10264,-0.13509 -0.22192,-0.25518 -0.35733,-0.35734 -0.10328,-0.136 -0.22313,-0.2569 -0.35953,-0.35952 -0.10328,-0.13601 -0.22315,-0.25691 -0.35954,-0.35954 -0.10423,-0.13782 -0.22569,-0.26028 -0.36391,-0.36392 -0.10306,-0.13617 -0.22332,-0.25667 -0.35954,-0.35952 -0.10529,-0.14045 -0.23005,-0.26528 -0.37048,-0.37049 -0.10529,-0.13966 -0.22825,-0.26367 -0.36831,-0.36831 -0.10434,-0.13838 -0.22542,-0.26206 -0.36392,-0.36611 -0.10529,-0.14108 -0.23203,-0.26476 -0.37268,-0.3705 -0.10734,-0.1441 -0.23516,-0.27204 -0.37926,-0.37925 -0.10691,-0.14231 -0.23198,-0.26886 -0.37488,-0.37489 -0.10604,-0.14166 -0.23098,-0.2668 -0.37269,-0.37268 -0.10704,-0.14421 -0.23544,-0.26965 -0.37927,-0.37707 -0.10959,-0.14819 -0.23975,-0.27865 -0.38802,-0.38802 -0.10845,-0.14517 -0.23569,-0.27391 -0.38146,-0.38147 -0.10759,-0.1445 -0.23471,-0.27185 -0.37926,-0.37926 -0.10985,-0.14879 -0.24142,-0.2805 -0.39023,-0.39022 -0.1098,-0.14802 -0.23959,-0.27889 -0.38802,-0.38803 -0.11023,-0.14895 -0.24096,-0.28054 -0.39023,-0.39022 -0.1108,-0.14986 -0.24212,-0.28229 -0.39241,-0.39242 -0.1108,-0.14986 -0.24213,-0.28229 -0.39242,-0.39241 -0.11178,-0.15172 -0.24465,-0.28573 -0.3968,-0.39681 -0.11178,-0.15172 -0.24465,-0.2857 -0.3968,-0.3968 -0.1124,-0.15255 -0.24581,-0.28754 -0.399,-0.39899 -0.11275,-0.15358 -0.24717,-0.28914 -0.40118,-0.40118 -0.11308,-0.15404 -0.2488,-0.28895 -0.40337,-0.4012 -0.11356,-0.15496 -0.24788,-0.29283 -0.40339,-0.40556 -0.11405,-0.15588 -0.25131,-0.29237 -0.40775,-0.40557 -0.11302,-0.15478 -0.24856,-0.29055 -0.40339,-0.40338 -0.11518,-0.1591 -0.25523,-0.29928 -0.41434,-0.41434 -0.11519,-0.15831 -0.25337,-0.29767 -0.41213,-0.41214 -0.11521,-0.15832 -0.25338,-0.29767 -0.41215,-0.41214 -0.11615,-0.1602 -0.25588,-0.30112 -0.41654,-0.41655 -0.11648,-0.16064 -0.2575,-0.30092 -0.41871,-0.41652 -0.11542,-0.15945 -0.25265,-0.30131 -0.41216,-0.41653 -0.11781,-0.16417 -0.26322,-0.30776 -0.42748,-0.42531 -0.11744,-0.16251 -0.26002,-0.30438 -0.42311,-0.42091 -0.11789,-0.16347 -0.25909,-0.30829 -0.42312,-0.4253 -0.11836,-0.16439 -0.2625,-0.30783 -0.42748,-0.4253 -0.11883,-0.16535 -0.26158,-0.31174 -0.4275,-0.42968 -0.11777,-0.16414 -0.26109,-0.30775 -0.42529,-0.4253 -0.12017,-0.16897 -0.26941,-0.31637 -0.43846,-0.43627 -0.12009,-0.1677 -0.26568,-0.31503 -0.43407,-0.43407 -0.12009,-0.1677 -0.26569,-0.31502 -0.43407,-0.43407 -0.12101,-0.16958 -0.26817,-0.3185 -0.43846,-0.43845 -0.121,-0.16958 -0.26816,-0.31851 -0.43844,-0.43845 -0.12134,-0.17064 -0.26953,-0.32011 -0.44065,-0.44064 -0.12193,-0.17149 -0.27067,-0.322 -0.44284,-0.44285 -0.12226,-0.17251 -0.27201,-0.32361 -0.44503,-0.44502 -0.12257,-0.173 -0.27363,-0.32343 -0.44722,-0.44504 -0.12302,-0.17395 -0.27268,-0.32735 -0.44722,-0.44941 -0.12197,-0.17274 -0.27223,-0.32331 -0.44504,-0.44502 -0.12428,-0.17761 -0.28049,-0.33202 -0.45818,-0.456 -0.12273,-0.17416 -0.2729,-0.32706 -0.44723,-0.44941 -0.12516,-0.17951 -0.28297,-0.33551 -0.46257,-0.46039 -0.12514,-0.17819 -0.27923,-0.33419 -0.45818,-0.45818 -0.12514,-0.17823 -0.27923,-0.33418 -0.45817,-0.45818 -0.12545,-0.17923 -0.28061,-0.33583 -0.46038,-0.46037 -0.12603,-0.18014 -0.2817,-0.33769 -0.46257,-0.46257 -0.12633,-0.18121 -0.28305,-0.33931 -0.46476,-0.46477 -0.12542,-0.17989 -0.28032,-0.33754 -0.46038,-0.46256 -0.12512,-0.18139 -0.2843,-0.33638 -0.46476,-0.46257 -0.12733,-0.18629 -0.29037,-0.3451 -0.47573,-0.47354 -0.13001,-0.18887 -0.29266,-0.3535 -0.48228,-0.48229 -0.1262,-0.18072 -0.28125,-0.33956 -0.46257,-0.46476 -0.13029,-0.18993 -0.29623,-0.35514 -0.4867,-0.4845 -0.12857,-0.1848 -0.28972,-0.34893 -0.47572,-0.47572 -0.12887,-0.18587 -0.29106,-0.35055 -0.47792,-0.47791 -0.12972,-0.1878 -0.29132,-0.35188 -0.48009,-0.4801 -0.12709,-0.18461 -0.28711,-0.34393 -0.47134,-0.47134 -0.001,-0.002 -0.003,-0.004 -0.004,-0.006 -0.002,-10e-4 -0.004,-0.003 -0.006,-0.004 -0.13016,-0.18944 -0.29441,-0.3554 -0.48449,-0.4845 -0.12853,-0.18739 -0.29067,-0.34935 -0.47791,-0.47791 -9e-4,-0.001 -0.001,-0.003 -0.002,-0.004 -10e-4,-8.9e-4 -0.003,-0.001 -0.004,-0.002 -0.12954,-0.1899 -0.29268,-0.35259 -0.48231,-0.48231 0,0 -0.002,-0.002 -0.002,-0.002 0,0 -0.002,-0.002 -0.002,-0.002 -0.12983,-0.19099 -0.29621,-0.35637 -0.4867,-0.48669 0,0 -0.002,-0.002 -0.002,-0.002 0,0 -0.002,-0.002 -0.002,-0.002 -0.13096,-0.19269 -0.30062,-0.36242 -0.49326,-0.49326 -0.13082,-0.19211 -0.29889,-0.35834 -0.49107,-0.48888 0,0 -0.002,-0.002 -0.002,-0.002 -0.13124,-0.19379 -0.29976,-0.36182 -0.49325,-0.49325 0,0 0,-0.002 0,-0.002 -0.13241,-0.19623 -0.30377,-0.36524 -0.49985,-0.49764 -0.13276,-0.19676 -0.30307,-0.36727 -0.49983,-0.49985 -0.13296,-0.19703 -0.30272,-0.36718 -0.49984,-0.49983 0,0 -0.002,-0.002 -0.002,-0.002 -0.13331,-0.19756 -0.30424,-0.36704 -0.50203,-0.49985 -0.13335,-0.19875 -0.30355,-0.37065 -0.50203,-0.5042 -0.1345,-0.20118 -0.30977,-0.37411 -0.51079,-0.50862 -0.13426,-0.2001 -0.30624,-0.37245 -0.50641,-0.50641 -0.1345,-0.20117 -0.30762,-0.37411 -0.50862,-0.50861 -0.13575,-0.20422 -0.31112,-0.37721 -0.51517,-0.51299 -0.13555,-0.20319 -0.30974,-0.37776 -0.513,-0.51299 -0.13611,-0.20475 -0.31263,-0.37926 -0.51737,-0.51517 -0.13629,-0.20549 -0.31205,-0.3811 -0.51737,-0.51738 -0.13628,-0.20546 -0.31209,-0.38109 -0.51738,-0.51738 -0.13722,-0.20806 -0.31619,-0.38654 -0.52396,-0.52395 -0.13741,-0.20789 -0.31604,-0.38458 -0.52395,-0.52177 -0.13721,-0.20804 -0.31401,-0.38654 -0.52176,-0.52395 -0.13832,-0.21047 -0.3202,-0.39003 -0.53052,-0.52833 -0.13773,-0.20884 -0.3152,-0.38853 -0.52396,-0.52615 -0.13888,-0.21205 -0.32307,-0.39155 -0.53491,-0.53052 -0.139,-0.21199 -0.31861,-0.39387 -0.53054,-0.53272 -0.13941,-0.2129 -0.322,-0.39354 -0.53491,-0.53272 -0.14008,-0.21442 -0.32258,-0.39738 -0.5371,-0.53711 -0.13991,-0.21413 -0.32298,-0.39525 -0.53711,-0.53491 -0.14053,-0.21562 -0.32362,-0.39908 -0.53929,-0.53931 -0.14078,-0.21671 -0.32493,-0.40073 -0.5415,-0.54148 -0.14128,-0.21749 -0.32611,-0.40276 -0.54368,-0.54369 -0.14128,-0.21748 -0.32611,-0.40274 -0.54368,-0.54367 -0.14182,-0.2191 -0.32898,-0.40428 -0.54807,-0.54588 -0.14199,-0.21986 -0.32837,-0.40611 -0.54805,-0.54807 -0.14249,-0.22065 -0.32957,-0.4081 -0.55027,-0.55027 -0.14272,-0.22175 -0.33084,-0.40976 -0.55246,-0.55244 -0.14301,-0.22223 -0.33243,-0.40967 -0.55464,-0.55245 -0.14367,-0.22376 -0.33301,-0.41353 -0.55683,-0.55683 -0.14367,-0.22376 -0.33301,-0.41353 -0.55683,-0.55685 -0.14392,-0.2249 -0.33428,-0.41517 -0.55903,-0.55903 -0.14472,-0.22624 -0.33698,-0.41704 -0.56342,-0.56122 -0.1449,-0.22698 -0.33632,-0.41892 -0.56342,-0.56341 -0.14483,-0.2269 -0.33642,-0.41894 -0.56341,-0.56341 -0.14536,-0.22852 -0.33928,-0.42049 -0.56779,-0.56561 -0.14566,-0.22951 -0.33836,-0.42447 -0.5678,-0.56998 -0.14577,-0.22999 -0.34015,-0.42427 -0.56999,-0.56999 -0.14658,-0.23133 -0.34285,-0.42617 -0.57438,-0.57218 -0.14676,-0.23208 -0.34219,-0.42804 -0.57437,-0.57438 -0.14669,-0.23198 -0.34232,-0.42806 -0.57438,-0.57438 -0.1472,-0.2336 -0.34516,-0.42961 -0.57875,-0.57656 -0.1479,-0.23525 -0.34559,-0.43349 -0.58096,-0.58095 -0.14789,-0.23525 -0.34558,-0.43349 -0.58094,-0.58095 -0.14782,-0.23521 -0.34571,-0.43346 -0.58096,-0.58095 -0.1485,-0.23766 -0.35003,-0.43688 -0.58752,-0.585336 -0.14903,-0.238435 -0.34898,-0.438956 -0.58753,-0.587528 -0.14902,-0.238436 -0.34898,-0.438957 -0.58753,-0.587527 -0.14916,-0.23953 -0.35033,-0.440627 -0.58971,-0.589721 -0.14961,-0.240786 -0.35347,-0.442387 -0.59412,-0.591913 -0.14971,-0.240966 -0.35103,-0.444547 -0.59191,-0.594103 -0.15008,-0.241977 -0.35438,-0.444218 -0.59629,-0.594104 -0.15036,-0.243523 -0.3553,-0.447929 -0.59848,-0.59849 -0.15038,-0.243523 -0.35531,-0.447928 -0.59851,-0.59849 -0.15134,-0.245935 -0.35926,-0.451611 -0.60505,-0.602873 -0.15161,-0.245477 -0.35709,-0.452029 -0.60288,-0.602874 -0.15187,-0.246782 -0.35816,-0.453674 -0.60507,-0.605067 -0.15178,-0.246647 -0.35834,-0.453694 -0.60506,-0.605064 -0.15223,-0.248391 -0.36114,-0.455224 -0.60945,-0.607259 -0.15283,-0.249952 -0.36167,-0.45915 -0.61166,-0.611643 -0.15283,-0.249859 -0.36168,-0.459216 -0.61164,-0.611643 -0.15305,-0.251106 -0.36286,-0.460875 -0.61382,-0.613835 -0.1538,-0.252452 -0.36558,-0.462825 -0.61822,-0.616027 -0.15399,-0.253224 -0.36487,-0.464736 -0.61821,-0.61822 -0.15399,-0.253225 -0.36488,-0.464735 -0.61824,-0.618219 -0.15443,-0.254886 -0.36768,-0.466345 -0.6226,-0.620413 -0.15418,-0.255056 -0.36566,-0.468276 -0.62042,-0.622603 -0.15531,-0.257879 -0.37133,-0.469744 -0.62916,-0.624797 -0.1551,-0.25718 -0.36768,-0.472152 -0.6248,-0.626989 -0.15501,-0.257528 -0.36972,-0.471912 -0.627,-0.626988 -0.15524,-0.259327 -0.37265,-0.473335 -0.63137,-0.62918 -0.15605,-0.261293 -0.37266,-0.477246 -0.63357,-0.633566 -0.1565,-0.261621 -0.37413,-0.479579 -0.63575,-0.635759 -0.15648,-0.26137 -0.37435,-0.477483 -0.63576,-0.633565 -0.31934,-0.535065 -0.898,-0.901021 -1.56308,-0.901021 l -1.31317,0 c -0.0215,-0.02093 -0.0442,-0.04055 -0.0657,-0.06139 -0.176,-0.183041 -0.35626,-0.361111 -0.53931,-0.537105 -0.16377,-0.169846 -0.32996,-0.336074 -0.49983,-0.499838 -0.17356,-0.180538 -0.3501,-0.35684 -0.53053,-0.530529 -0.1718,-0.17848 -0.34543,-0.354368 -0.52395,-0.526144 -0.17468,-0.181441 -0.35329,-0.358214 -0.53492,-0.532721 -0.16875,-0.175074 -0.33995,-0.346572 -0.51518,-0.515184 -0.17081,-0.177547 -0.34431,-0.350843 -0.52175,-0.52176 -0.17568,-0.182799 -0.3544,-0.361326 -0.53711,-0.537104 -0.17461,-0.181512 -0.35118,-0.360333 -0.53272,-0.534915 -0.17463,-0.181495 -0.35336,-0.358154 -0.53492,-0.53272 -0.17532,-0.182254 -0.3526,-0.36184 -0.5349,-0.537106 -0.17826,-0.185318 -0.36043,-0.365589 -0.54588,-0.543683 -0.17046,-0.177059 -0.34471,-0.349106 -0.52176,-0.519566 -0.18447,-0.192153 -0.37119,-0.381206 -0.56342,-0.565606 -0.17406,-0.18075 -0.35177,-0.356662 -0.53272,-0.530529 -0.179,-0.186197 -0.35958,-0.369159 -0.54588,-0.548067 -0.17497,-0.181984 -0.35296,-0.35989 -0.53491,-0.534913 -0.18516,-0.19291 -0.37482,-0.380507 -0.56779,-0.565605 -0.17329,-0.180078 -0.34823,-0.357275 -0.52834,-0.530529 -0.18797,-0.195948 -0.38055,-0.386481 -0.57656,-0.574375 -0.17758,-0.184539 -0.35675,-0.366311 -0.54149,-0.543682 -0.18251,-0.189992 -0.36894,-0.374427 -0.55903,-0.556835 -0.17853,-0.185815 -0.36011,-0.367315 -0.54588,-0.545876 -0.18866,-0.196708 -0.37979,-0.390166 -0.57656,-0.578759 -0.1768,-0.183867 -0.3576,-0.362538 -0.54149,-0.539297 -0.19146,-0.19975 -0.38553,-0.396142 -0.58535,-0.587528 -0.18108,-0.188331 -0.36609,-0.371581 -0.55464,-0.552451 -0.18603,-0.193828 -0.37606,-0.381857 -0.56998,-0.567798 -0.18203,-0.18961 -0.36507,-0.376965 -0.55465,-0.559029 -0.19215,-0.200509 -0.38915,-0.395445 -0.58971,-0.587528 -0.18067,-0.188051 -0.36436,-0.371829 -0.55246,-0.552451 -0.19462,-0.203183 -0.39303,-0.401763 -0.59629,-0.596298 -0.18535,-0.192906 -0.37465,-0.380519 -0.56781,-0.565605 -0.18518,-0.193038 -0.37258,-0.382574 -0.5656,-0.567797 -0.19176,-0.200201 -0.38737,-0.395721 -0.58752,-0.587528 -0.19194,-0.20019 -0.3872,-0.395742 -0.58753,-0.587527 -0.18563,-0.193468 -0.37431,-0.382184 -0.56781,-0.567798 -0.19319,-0.201832 -0.39018,-0.398605 -0.5919,-0.591912 -0.19214,-0.200525 -0.38697,-0.397621 -0.58753,-0.589721 -0.19215,-0.200509 -0.38915,-0.395444 -0.58972,-0.587527 -0.19575,-0.204287 -0.3962,-0.40295 -0.60068,-0.59849 -0.19058,-0.198645 -0.38429,-0.392777 -0.58315,-0.583142 -0.19399,-0.202526 -0.39152,-0.40017 -0.5941,-0.594105 -0.19076,-0.199159 -0.38408,-0.394484 -0.58315,-0.585335 -0.19807,-0.207181 -0.40021,-0.40905 -0.60725,-0.607259 -0.1982,-0.207055 -0.40008,-0.409179 -0.60727,-0.607258 -0.19365,-0.202091 -0.39188,-0.398382 -0.59409,-0.591912 -0.1947,-0.203458 -0.39295,-0.4015 -0.59631,-0.596297 -0.20333,-0.212729 -0.40981,-0.42153 -0.62259,-0.624797 -0.19519,-0.203671 -0.39463,-0.401321 -0.5985,-0.596297 -0.19745,-0.206353 -0.39869,-0.407623 -0.60506,-0.605066 -0.19954,-0.208655 -0.403,-0.412091 -0.61164,-0.611642 -0.19748,-0.206506 -0.39867,-0.407476 -0.60507,-0.605067 -0.20579,-0.215423 -0.4159,-0.425646 -0.63137,-0.631373 -0.19467,-0.203307 -0.39298,-0.401645 -0.59629,-0.596296 -0.20501,-0.214742 -0.41456,-0.424065 -0.62919,-0.629182 -0.20195,-0.211204 -0.40696,-0.418535 -0.61822,-0.620411 -0.20265,-0.211965 -0.41056,-0.417841 -0.62261,-0.620412 -0.20584,-0.215358 -0.41583,-0.425714 -0.63137,-0.631373 -0.19746,-0.206352 -0.3987,-0.407625 -0.60506,-0.605066 -0.21064,-0.220782 -0.42592,-0.436108 -0.64672,-0.64672 -0.20137,-0.210504 -0.40759,-0.414794 -0.61822,-0.616027 -0.20584,-0.215556 -0.41584,-0.425521 -0.63137,-0.631373 -0.20585,-0.215555 -0.41584,-0.42552 -0.63138,-0.631373 -0.20481,-0.214544 -0.41258,-0.424244 -0.62699,-0.629181 -0.21274,-0.223057 -0.43019,-0.440619 -0.65329,-0.653295 -3.50645,-3.667913 -8.43459,-5.967354 -13.896792,-5.967354 z"
       id="path10542"
       inkscape:connector-curvature="0"
       clip-path="url(#clipPath12076)"
       inkscape:export-filename="C:\Users\Simon\Documents\Material Design Icon Pack\PNG\g12049.png"
       inkscape:export-xdpi="90"
       inkscape:export-ydpi="90" />
    <path
       id="path10440"
       d="m 95.539062,43.585938 c -4.577766,-10e-7 -8.882017,1.780991 -12.123046,5.019531 -3.233562,3.236051 -5.021172,7.543326 -5.013672,12.121093 0,9.446779 7.687795,17.140626 17.144531,17.140626 9.454245,0 17.138715,-7.686914 17.136715,-17.138672 0,-9.454247 -7.69277,-17.142578 -17.144528,-17.142578 z m 34.320318,39.296874 c -8.29425,10e-7 -15.04493,6.746232 -15.04493,15.042969 l 0,13.406249 c 0,0.91107 0.73147,1.62695 1.66993,1.62695 l 13.18554,0.002 c 8.29424,0 15.03711,-6.74286 15.03711,-15.037112 l 0,-13.410156 c 0,-0.896137 -0.73081,-1.63086 -1.62695,-1.63086 l -13.2207,0 z m -80.597661,0.214844 c -0.901116,0 -1.63086,0.729744 -1.63086,1.63086 l 0,13.404296 c 0,8.296738 6.747842,15.042968 15.03711,15.042968 l 46.097651,0.004 c 0.0324,-0.005 0.0663,-0.004 0.0938,-0.004 0.90359,0 1.63867,-0.73063 1.63867,-1.63672 l 0,-13.402341 c 0,-8.294248 -6.77159,-15.039063 -15.095706,-15.039063 l -46.140625,0 z m 32.966797,34.400394 c -0.898626,0 -1.63086,0.73472 -1.63086,1.63086 l 0,26.82031 c 0,0.91356 0.737862,1.625 1.673828,1.625 l 13.183594,0.002 c 8.294252,0 15.044922,-6.74623 15.044922,-15.04297 l 0,-13.40429 c -0.002,-0.89614 -0.73507,-1.63086 -1.63867,-1.63086 l -26.632814,0 z"
       style="fill:#ffffff;fill-opacity:1;filter:url(#filter12037)"
       inkscape:connector-curvature="0"
       transform="matrix(1.1224413,0,0,1.1224413,-12.052778,-11.813446)"
       inkscape:export-filename="C:\Users\Simon\Documents\Material Design Icon Pack\PNG\g12049.png"
       inkscape:export-xdpi="90"
       inkscape:export-ydpi="90" />
    <path
       inkscape:export-ydpi="90"
       inkscape:export-xdpi="90"
       inkscape:export-filename="C:\Users\Simon\Documents\Material Design Icon Pack\PNG\g12049.png"
       transform="matrix(1.1224413,0,0,1.1224413,-12.052778,-11.813446)"
       inkscape:connector-curvature="0"
       style="fill:#000000;fill-opacity:1;opacity:0.2"
       d="m 95.539062,43.585938 c -4.577766,-10e-7 -8.882017,1.780991 -12.123046,5.019531 -3.233562,3.236051 -5.021172,7.543326 -5.013672,12.121093 0,9.446779 7.687795,17.140626 17.144531,17.140626 9.454245,0 17.138715,-7.686914 17.136715,-17.138672 0,-9.454247 -7.69277,-17.142578 -17.144528,-17.142578 z m 34.320318,39.296874 c -8.29425,10e-7 -15.04493,6.746232 -15.04493,15.042969 l 0,13.406249 c 0,0.91107 0.73147,1.62695 1.66993,1.62695 l 13.18554,0.002 c 8.29424,0 15.03711,-6.74286 15.03711,-15.037112 l 0,-13.410156 c 0,-0.896137 -0.73081,-1.63086 -1.62695,-1.63086 l -13.2207,0 z m -80.597661,0.214844 c -0.901116,0 -1.63086,0.729744 -1.63086,1.63086 l 0,13.404296 c 0,8.296738 6.747842,15.042968 15.03711,15.042968 l 46.097651,0.004 c 0.0324,-0.005 0.0663,-0.004 0.0938,-0.004 0.90359,0 1.63867,-0.73063 1.63867,-1.63672 l 0,-13.402341 c 0,-8.294248 -6.77159,-15.039063 -15.095706,-15.039063 l -46.140625,0 z m 32.966797,34.400394 c -0.898626,0 -1.63086,0.73472 -1.63086,1.63086 l 0,26.82031 c 0,0.91356 0.737862,1.625 1.673828,1.625 l 13.183594,0.002 c 8.294252,0 15.044922,-6.74623 15.044922,-15.04297 l 0,-13.40429 c -0.002,-0.89614 -0.73507,-1.63086 -1.63867,-1.63086 l -26.632814,0 z"
       id="path4187" />
    <path
       id="path4189"
       d="m 95.184211,37.109211 c -5.138274,-1e-6 -9.969543,1.981271 -13.607408,5.583998 -3.629483,3.599959 -5.63597,8.391605 -5.627552,13.484161 0,10.509109 8.629099,19.068161 19.24373,19.068161 10.611839,0 19.237199,-8.55134 19.234959,-19.065987 0,-10.517417 -8.63469,-19.070333 -19.243729,-19.070333 z m 38.522539,43.715972 c -9.30981,10e-7 -16.88705,7.504874 -16.88705,16.734614 l 0,14.913833 c 0,1.01353 0.82103,1.80991 1.8744,1.80991 l 14.8,0.002 c 9.30979,0 16.87827,-7.50113 16.87827,-16.728102 l 0,-14.918184 c 0,-0.996911 -0.82029,-1.814257 -1.82616,-1.814257 l -14.83946,0 z m -90.46614,0.239004 c -1.01145,0 -1.830545,0.811807 -1.830545,1.814257 l 0,14.911665 c 0,9.229741 7.574057,16.734611 16.878274,16.734611 l 51.741911,0.004 c 0.0364,-0.006 0.0744,-0.004 0.10528,-0.004 1.01423,0 1.83931,-0.81279 1.83931,-1.82077 l 0,-14.909495 c 0,-9.22697 -7.60071,-16.730268 -16.944042,-16.730268 l -51.790143,0 z m 37.003294,38.268863 c -1.008655,0 -1.830544,0.81734 -1.830544,1.81426 l 0,29.83636 c 0,1.0163 0.828207,1.80774 1.878773,1.80774 l 14.797811,0.002 c 9.309806,0 16.887046,-7.50488 16.887046,-16.73462 l 0,-14.91166 c -0.002,-0.99691 -0.82508,-1.81426 -1.83932,-1.81426 l -29.893766,0 z"
       style="opacity:1;fill:#ffffff;fill-opacity:1"
       inkscape:connector-curvature="0"
       inkscape:export-filename="C:\Users\Simon\Documents\Material Design Icon Pack\PNG\g12049.png"
       inkscape:export-xdpi="90"
       inkscape:export-ydpi="90" />
    <path
       inkscape:export-ydpi="90"
       inkscape:export-xdpi="90"
       inkscape:export-filename="C:\Users\Simon\Documents\Material Design Icon Pack\PNG\g12049.png"
       inkscape:connector-curvature="0"
       style="opacity:1;fill:#f2f2f2;fill-opacity:1"
       d="m 95.184211,38.109211 c -5.138274,-1e-6 -9.969543,1.964144 -13.607408,5.535729 -3.629483,3.56884 -5.63597,8.319066 -5.627552,13.367601 0,10.418266 8.629099,18.903331 19.24373,18.903331 10.611839,0 19.237199,-8.47742 19.234959,-18.901176 0,-10.426502 -8.63469,-18.905485 -19.243729,-18.905485 z m 38.522539,43.338081 c -9.30981,10e-7 -16.88705,7.440001 -16.88705,16.589957 l 0,14.784911 c 0,1.00477 0.82103,1.79427 1.8744,1.79427 l 14.8,0.002 c 9.30979,0 16.87827,-7.43629 16.87827,-16.5835 l 0,-14.789228 c 0,-0.988293 -0.82029,-1.798574 -1.82616,-1.798574 l -14.83946,0 z M 43.24061,81.68423 c -1.01145,0 -1.830545,0.80479 -1.830545,1.798575 l 0,14.782765 c 0,9.14996 7.574057,16.58995 16.878274,16.58995 l 51.741911,0.004 c 0.0364,-0.006 0.0744,-0.004 0.10528,-0.004 1.01423,0 1.83931,-0.80576 1.83931,-1.80503 l 0,-14.780612 c 0,-9.14721 -7.60071,-16.585648 -16.944042,-16.585648 l -51.790143,0 z m 37.003294,37.93806 c -1.008655,0 -1.830544,0.81027 -1.830544,1.79858 l 0,29.57844 c 0,1.00752 0.828207,1.79212 1.878773,1.79212 l 14.797811,0.002 c 9.309806,0 16.887046,-7.44001 16.887046,-16.58996 l 0,-14.78276 c -0.002,-0.98829 -0.82508,-1.79858 -1.83932,-1.79858 l -29.893766,0 z"
       id="path4839" />
  </g>
  <g
     inkscape:label="circle 1"
     id="layer4"
     inkscape:groupmode="layer"
     style="display:inline"
     sodipodi:insensitive="true">
    <circle
       style="display:inline;opacity:0.1;fill:url(#radialGradient10385);fill-opacity:1;stroke:url(#radialGradient10377);stroke-width:0.27840909;stroke-linejoin:round;stroke-miterlimit:4;stroke-dasharray:none;stroke-opacity:1"
       id="circle10368"
       cx="148"
       cy="70.459892"
       r="24"
       inkscape:export-filename="C:\Users\Simon\Documents\Material Design Icon Pack\PNG\g12049.png"
       inkscape:export-xdpi="90"
       inkscape:export-ydpi="90"
       transform="matrix(3.6455219,0,0,3.6455219,-443.53724,-160.86308)" />
  </g>
</svg>
