<?xml version="1.0" encoding="UTF-8" standalone="no"?>
<!-- Created with Inkscape (http://www.inkscape.org/) -->

<svg
   xmlns:dc="http://purl.org/dc/elements/1.1/"
   xmlns:cc="http://creativecommons.org/ns#"
   xmlns:rdf="http://www.w3.org/1999/02/22-rdf-syntax-ns#"
   xmlns:svg="http://www.w3.org/2000/svg"
   xmlns="http://www.w3.org/2000/svg"
   xmlns:xlink="http://www.w3.org/1999/xlink"
   xmlns:sodipodi="http://sodipodi.sourceforge.net/DTD/sodipodi-0.dtd"
   xmlns:inkscape="http://www.inkscape.org/namespaces/inkscape"
   width="192"
   height="192"
   viewBox="0 0 192 192"
   id="svg2"
   version="1.1"
   inkscape:version="0.91 r13725"
   sodipodi:docname="tunein.svg"
   inkscape:export-filename="C:\createme\Material Design Icons\PNG\tunein.png"
   inkscape:export-xdpi="90"
   inkscape:export-ydpi="90">
  <sodipodi:namedview
     id="base"
     pagecolor="#ffffff"
     bordercolor="#666666"
     borderopacity="1.0"
     inkscape:pageopacity="0.0"
     inkscape:pageshadow="2"
     inkscape:zoom="0.7071068"
     inkscape:cx="124.78373"
     inkscape:cy="-29.451778"
     inkscape:document-units="px"
     inkscape:current-layer="layer2"
     showgrid="false"
     units="px"
     showguides="false"
     inkscape:window-width="1920"
     inkscape:window-height="1017"
     inkscape:window-x="-8"
     inkscape:window-y="-8"
     inkscape:window-maximized="1">
    <sodipodi:guide
       position="0,184"
       orientation="0,1"
       id="guide3354"
       inkscape:label=""
       inkscape:color="rgb(0,0,255)" />
    <sodipodi:guide
       position="8,0"
       orientation="1,0"
       id="guide3356"
       inkscape:label=""
       inkscape:color="rgb(0,0,255)" />
    <sodipodi:guide
       position="0,8"
       orientation="0,1"
       id="guide3358"
       inkscape:label=""
       inkscape:color="rgb(0,0,255)" />
    <sodipodi:guide
       position="184,0"
       orientation="1,0"
       id="guide3360"
       inkscape:label=""
       inkscape:color="rgb(0,0,255)" />
    <sodipodi:guide
       position="0,20"
       orientation="0,1"
       id="guide3362"
       inkscape:label=""
       inkscape:color="rgb(0,0,255)" />
    <sodipodi:guide
       position="172,0"
       orientation="1,0"
       id="guide3364"
       inkscape:label=""
       inkscape:color="rgb(0,0,255)" />
    <sodipodi:guide
       position="96,172"
       orientation="0,1"
       id="guide3366"
       inkscape:label=""
       inkscape:color="rgb(0,0,255)" />
    <sodipodi:guide
       position="20,0"
       orientation="1,0"
       id="guide3368"
       inkscape:label=""
       inkscape:color="rgb(0,0,255)" />
    <sodipodi:guide
       position="0,32"
       orientation="0,1"
       id="guide3370"
       inkscape:label=""
       inkscape:color="rgb(0,0,255)" />
    <sodipodi:guide
       position="160,0"
       orientation="1,0"
       id="guide3372"
       inkscape:label=""
       inkscape:color="rgb(0,0,255)" />
    <sodipodi:guide
       position="0,160"
       orientation="0,1"
       id="guide3374"
       inkscape:label=""
       inkscape:color="rgb(0,0,255)" />
    <sodipodi:guide
       position="32,0"
       orientation="1,0"
       id="guide3376"
       inkscape:label=""
       inkscape:color="rgb(0,0,255)" />
    <inkscape:grid
       type="xygrid"
       id="grid3378" />
    <sodipodi:guide
       position="0,0"
       orientation="-0.70710678,0.70710678"
       id="guide5849"
       inkscape:label=""
       inkscape:color="rgb(255,0,0)" />
    <sodipodi:guide
       position="124,0"
       orientation="1,0"
       id="guide5851"
       inkscape:label=""
       inkscape:color="rgb(255,0,0)" />
    <sodipodi:guide
       position="0,192"
       orientation="0.70710678,0.70710678"
       id="guide5853"
       inkscape:label=""
       inkscape:color="rgb(255,0,0)" />
    <sodipodi:guide
       position="96,0"
       orientation="1,0"
       id="guide5855"
       inkscape:label=""
       inkscape:color="rgb(255,0,0)" />
    <sodipodi:guide
       position="0,96"
       orientation="0,1"
       id="guide5859"
       inkscape:label=""
       inkscape:color="rgb(255,0,0)" />
    <sodipodi:guide
       position="0,124"
       orientation="0,1"
       id="guide5861"
       inkscape:label=""
       inkscape:color="rgb(255,0,0)" />
    <sodipodi:guide
       position="0,68"
       orientation="0,1"
       id="guide5863"
       inkscape:label=""
       inkscape:color="rgb(255,0,0)" />
    <sodipodi:guide
       position="68,0"
       orientation="1,0"
       id="guide5865"
       inkscape:label=""
       inkscape:color="rgb(255,0,0)" />
    <sodipodi:guide
       position="192,0"
       orientation="-192,0"
       id="guide5869" />
    <sodipodi:guide
       position="192,192"
       orientation="0,-192"
       id="guide5871" />
  </sodipodi:namedview>
  <defs
     id="defs4">
    <linearGradient
       inkscape:collect="always"
       id="linearGradient26910">
      <stop
         style="stop-color:#263238;stop-opacity:1;"
         offset="0"
         id="stop26912" />
      <stop
         style="stop-color:#263238;stop-opacity:0;"
         offset="1"
         id="stop26914" />
    </linearGradient>
    <linearGradient
       inkscape:collect="always"
       id="linearGradient4198">
      <stop
         style="stop-color:#ffffff;stop-opacity:1;"
         offset="0"
         id="stop4200" />
      <stop
         style="stop-color:#ffffff;stop-opacity:0;"
         offset="1"
         id="stop4202" />
    </linearGradient>
    <clipPath
       clipPathUnits="userSpaceOnUse"
       id="clipPath10430">
      <path
         inkscape:connector-curvature="0"
         d="m 1241.028,39.3409 224.537,0 0,178.031 -224.537,0 0,-178.031 z"
         id="path10432" />
    </clipPath>
    <clipPath
       clipPathUnits="userSpaceOnUse"
       id="clipPath10438">
      <path
         inkscape:connector-curvature="0"
         d="m 1260.156,213.3477 0,-170.2268 191.3337,0 0,170.2268"
         id="path10440" />
    </clipPath>
    <filter
       style="color-interpolation-filters:sRGB;"
       inkscape:label="Drop Shadow"
       id="filter5248">
      <feFlood
         flood-opacity="0.2"
         flood-color="rgb(0,0,0)"
         result="flood"
         id="feFlood5250" />
      <feComposite
         in="flood"
         in2="SourceGraphic"
         operator="in"
         result="composite1"
         id="feComposite5252" />
      <feGaussianBlur
         in="composite1"
         stdDeviation="2"
         result="blur"
         id="feGaussianBlur5254" />
      <feOffset
         dx="4.57967e-015"
         dy="4"
         result="offset"
         id="feOffset5256" />
      <feComposite
         in="SourceGraphic"
         in2="offset"
         operator="over"
         result="fbSourceGraphic"
         id="feComposite5258" />
      <feColorMatrix
         result="fbSourceGraphicAlpha"
         in="fbSourceGraphic"
         values="0 0 0 -1 0 0 0 0 -1 0 0 0 0 -1 0 0 0 0 1 0"
         id="feColorMatrix4192" />
      <feFlood
         id="feFlood4194"
         flood-opacity="0.2"
         flood-color="rgb(0,0,0)"
         result="flood"
         in="fbSourceGraphic" />
      <feComposite
         id="feComposite4196"
         in2="fbSourceGraphic"
         in="flood"
         operator="in"
         result="composite1" />
      <feGaussianBlur
         id="feGaussianBlur4198"
         in="composite1"
         stdDeviation="2"
         result="blur" />
      <feOffset
         id="feOffset4200"
         dx="0"
         dy="0"
         result="offset" />
      <feComposite
         id="feComposite4202"
         in2="offset"
         in="fbSourceGraphic"
         operator="over"
         result="composite2" />
    </filter>
    <radialGradient
       inkscape:collect="always"
       xlink:href="#linearGradient4198"
       id="radialGradient4204"
       cx="8"
       cy="8"
       fx="8"
       fy="8"
       r="88"
       gradientUnits="userSpaceOnUse"
       gradientTransform="matrix(0,2,-2,0,24,-8)" />
    <filter
       height="1.3"
       id="filter25358"
       inkscape:label="Drop Shadow"
       style="color-interpolation-filters:sRGB;">
      <feFlood
         id="feFlood25360"
         result="flood"
         flood-color="rgb(38,50,56)"
         flood-opacity="0.20000000000000001" />
      <feComposite
         id="feComposite25362"
         result="composite1"
         operator="in"
         in2="SourceGraphic"
         in="flood" />
      <feGaussianBlur
         id="feGaussianBlur25364"
         result="blur"
         stdDeviation="4"
         in="composite1" />
      <feOffset
         id="feOffset25366"
         result="offset"
         dy="4"
         dx="0" />
      <feComposite
         id="feComposite25368"
         result="composite2"
         operator="over"
         in2="offset"
         in="SourceGraphic" />
    </filter>
    <linearGradient
       inkscape:collect="always"
       xlink:href="#linearGradient26910"
       id="linearGradient26916"
       x1="40.049316"
       y1="40.049316"
       x2="160"
       y2="160"
       gradientUnits="userSpaceOnUse" />
  </defs>
  <metadata
     id="metadata7">
    <rdf:RDF>
      <cc:Work
         rdf:about="">
        <dc:format>image/svg+xml</dc:format>
        <dc:type
           rdf:resource="http://purl.org/dc/dcmitype/StillImage" />
        <dc:title></dc:title>
      </cc:Work>
    </rdf:RDF>
  </metadata>
  <g
     inkscape:groupmode="layer"
     id="layer2"
     inkscape:label="background">
    <circle
       style="display:inline;opacity:1;fill:#4db6ac;fill-opacity:0.99350649;fill-rule:nonzero;stroke:none;stroke-width:2.94899988;stroke-linecap:butt;stroke-linejoin:miter;stroke-miterlimit:4;stroke-dasharray:none;stroke-dashoffset:0;stroke-opacity:1;filter:url(#filter5248)"
       id="path4184"
       cx="96"
       cy="96"
       r="88" />
  </g>
  <g
     inkscape:label="objects"
     inkscape:groupmode="layer"
     id="layer1"
     transform="translate(0,-860.36216)">
    <path
       inkscape:connector-curvature="0"
       style="fill:#f5f5f5"
       d="m 95.312054,899.58612 c -4.998589,0 -9.698094,1.94579 -13.237062,5.48202 -3.530813,3.53353 -5.48156,8.23633 -5.473388,13.23491 0,10.3152 8.393008,18.71693 18.719075,18.71693 10.323351,0 18.712671,-8.39198 18.710451,-18.71262 0,-10.32333 -8.39845,-18.72124 -18.719076,-18.72124 z m 37.474826,42.91154 c -9.05672,0 -16.42881,7.36721 -16.42881,16.42665 l 0,14.63666 c 0,0.99484 0.79973,1.77703 1.82447,1.77703 l 14.3973,0.002 c 9.05671,0 16.42016,-7.36345 16.42016,-16.42017 l 0,-14.64315 c 0,-0.97851 -0.7985,-1.77917 -1.77703,-1.77917 l -14.43609,0 z m -88.007707,0.23292 C 43.795222,942.73058 43,943.52795 43,944.51191 l 0,14.63668 c 0,9.05942 7.368888,16.42448 16.420167,16.42448 l 50.334463,0.006 c 0.0353,-0.005 0.0715,-0.006 0.10145,-0.006 0.98667,0 1.78995,-0.79625 1.78995,-1.78565 l 0,-14.63452 c 0,-9.05672 -7.39338,-16.42232 -16.482704,-16.42232 l -50.384075,0 z m 65.081137,37.56109 0,0.004 -29.08142,0 c -0.981234,0 -1.78133,0.80067 -1.781331,1.77917 l 0,29.28632 c 0,0.9974 0.804612,1.7748 1.826618,1.7748 l 14.395144,0 c 9.056729,0 16.428789,-7.3672 16.428789,-16.4266 l 0,-14.63667 c -0.002,-0.97851 -0.80112,-1.78133 -1.7878,-1.78133 z"
       id="path23752" />
    <path
       style="fill:url(#linearGradient26916);opacity:0.2;fill-opacity:1"
       d="M 95.880859 39.792969 C 90.88227 39.792969 86.183499 41.739161 82.644531 45.275391 C 79.113718 48.808921 77.16175 53.511186 77.169922 58.509766 C 77.169922 63.806239 79.394269 68.586897 82.945312 71.996094 C 83.136807 72.196267 83.331135 72.392424 83.53125 72.583984 C 83.712512 72.77285 83.896979 72.957499 84.085938 73.138672 C 84.26994 73.330675 84.458442 73.517106 84.650391 73.701172 C 84.83377 73.892498 85.019666 74.080228 85.210938 74.263672 C 85.390512 74.451 85.574575 74.632727 85.761719 74.8125 C 85.950727 75.009959 86.142442 75.203504 86.339844 75.392578 C 86.516064 75.576084 86.695414 75.7554 86.878906 75.931641 C 87.062629 76.123442 87.249757 76.310254 87.441406 76.494141 C 87.622295 76.682758 87.805578 76.867876 87.994141 77.048828 C 88.177894 77.240402 88.364973 77.427665 88.556641 77.611328 C 88.733915 77.795849 88.914981 77.975173 89.099609 78.152344 C 89.274806 78.33489 89.452375 78.51409 89.634766 78.689453 C 89.820013 78.882811 90.009821 79.070548 90.203125 79.255859 C 90.378151 79.437962 90.55609 79.616075 90.738281 79.791016 C 90.916055 79.976248 91.098023 80.15615 91.283203 80.333984 C 91.460353 80.518541 91.639716 80.699741 91.824219 80.876953 C 91.999075 81.059092 92.177355 81.237124 92.359375 81.412109 C 92.540688 81.601119 92.725044 81.785487 92.914062 81.966797 C 93.086591 82.146196 93.26192 82.321696 93.441406 82.494141 C 93.584743 82.643403 93.726838 82.793029 93.875 82.9375 L 45.347656 82.9375 C 44.363705 82.9375 43.568359 83.73479 43.568359 84.71875 L 43.568359 99.355469 C 43.568359 104.02922 45.539945 108.24117 48.681641 111.23438 C 48.866255 111.4282 49.054265 111.61808 49.248047 111.80273 C 49.430877 111.99461 49.618729 112.1804 49.810547 112.36328 C 49.995013 112.55697 50.183333 112.74516 50.376953 112.92969 C 50.559882 113.12163 50.745577 113.30924 50.9375 113.49219 C 51.119093 113.6827 51.305638 113.86718 51.496094 114.04883 C 51.678837 114.24063 51.864917 114.42851 52.056641 114.61133 C 52.238983 114.80256 52.425913 114.98763 52.617188 115.16992 C 52.797289 115.35871 52.981111 115.54259 53.169922 115.72266 C 53.350224 115.91171 53.533623 116.09703 53.722656 116.27734 C 53.902975 116.46638 54.088294 116.64978 54.277344 116.83008 C 54.455875 117.01715 54.637133 117.20039 54.824219 117.37891 C 55.00375 117.56707 55.186816 117.75019 55.375 117.92969 C 55.552579 118.11573 55.73388 118.29703 55.919922 118.47461 C 56.096862 118.65999 56.277547 118.8406 56.462891 119.01758 C 56.639801 119.20299 56.820545 119.38354 57.005859 119.56055 C 57.18277 119.74596 57.363514 119.92651 57.548828 120.10352 C 57.72633 120.28949 57.907793 120.47093 58.09375 120.64844 C 58.26885 120.83176 58.447538 121.01045 58.630859 121.18555 C 58.80532 121.36821 58.983391 121.54621 59.166016 121.7207 C 59.341464 121.90446 59.519417 122.08427 59.703125 122.25977 C 59.877349 122.44215 60.055918 122.61873 60.238281 122.79297 C 60.411884 122.97467 60.587849 123.15255 60.769531 123.32617 C 60.939971 123.50454 61.11474 123.67708 61.292969 123.84766 C 61.470783 124.03398 61.65159 124.2167 61.837891 124.39453 C 62.008478 124.57275 62.182957 124.74559 62.361328 124.91602 C 62.5321 125.09457 62.706185 125.26871 62.884766 125.43945 C 63.056711 125.61929 63.232245 125.79489 63.412109 125.9668 C 63.581639 126.144 63.754418 126.31683 63.931641 126.48633 C 64.101517 126.66396 64.273566 126.83792 64.451172 127.00781 C 64.619715 127.18402 64.7926 127.35485 64.96875 127.52344 C 65.136054 127.69843 65.305663 127.86962 65.480469 128.03711 C 65.651375 128.21599 65.825167 128.39146 66.003906 128.5625 C 66.171769 128.73793 66.344126 128.9083 66.519531 129.07617 C 66.690283 129.25459 66.864417 129.429 67.042969 129.59961 C 67.206628 129.7703 67.374111 129.93608 67.544922 130.09961 C 67.712038 130.27418 67.882053 130.44424 68.056641 130.61133 C 68.219562 130.78145 68.384665 130.94831 68.554688 131.11133 C 68.722202 131.28648 68.893327 131.45737 69.068359 131.625 C 69.233115 131.79704 69.400251 131.96609 69.572266 132.13086 C 69.739579 132.30554 69.911141 132.4754 70.085938 132.64258 C 70.246773 132.81021 70.410387 132.97404 70.578125 133.13477 C 70.742101 133.30591 70.908915 133.47277 71.080078 133.63672 C 71.239555 133.8031 71.402086 133.96542 71.568359 134.125 C 71.733058 134.29709 71.900306 134.46603 72.072266 134.63086 C 72.237093 134.80283 72.406041 134.97007 72.578125 135.13477 C 72.739302 135.30259 72.904167 135.46607 73.072266 135.62695 C 73.229665 135.79084 73.388731 135.9521 73.552734 136.10938 C 73.713901 136.27744 73.878772 136.44044 74.046875 136.60156 C 74.202917 136.7642 74.360895 136.92394 74.523438 137.08008 C 74.685028 137.24878 74.850957 137.4125 75.019531 137.57422 C 75.177428 137.73882 75.337399 137.90065 75.501953 138.05859 C 75.66396 138.22751 75.829034 138.39279 75.998047 138.55469 C 76.152394 138.71527 76.310011 138.87116 76.470703 139.02539 C 76.627675 139.18895 76.787625 139.34888 76.951172 139.50586 C 77.107947 139.66921 77.266353 139.82954 77.429688 139.98633 C 77.585708 140.14886 77.745688 140.30686 77.908203 140.46289 C 78.064238 140.62541 78.222237 140.78539 78.384766 140.94141 C 78.539296 141.10228 78.696526 141.25956 78.857422 141.41406 C 79.00947 141.57236 79.164053 141.72678 79.322266 141.87891 C 79.405525 141.96569 79.481281 142.05959 79.566406 142.14453 L 79.566406 151.56836 C 79.566406 152.20732 79.898261 152.75262 80.404297 153.06445 C 80.546875 153.29274 80.737544 153.48564 80.96875 153.62891 C 81.111102 153.85728 81.302202 154.05187 81.533203 154.19531 C 81.675791 154.42356 81.866462 154.61653 82.097656 154.75977 C 82.239812 154.98655 82.428411 155.17959 82.658203 155.32227 C 82.799496 155.54718 82.989145 155.73874 83.216797 155.88086 C 83.358109 156.10592 83.54763 156.29726 83.775391 156.43945 C 83.917001 156.66488 84.105658 156.85582 84.333984 156.99805 C 84.47506 157.22142 84.662216 157.41136 84.888672 157.55273 C 85.029444 157.77563 85.21559 157.96614 85.441406 158.10742 C 85.58193 158.32944 85.769144 158.51728 85.994141 158.6582 C 86.13431 158.87939 86.318881 159.06834 86.542969 159.20898 C 86.683447 159.43062 86.869038 159.61904 87.09375 159.75977 C 87.232911 159.97815 87.415478 160.16508 87.636719 160.30469 C 87.776038 160.52411 87.961545 160.71145 88.183594 160.85156 C 88.322293 161.06918 88.506308 161.25511 88.726562 161.39453 C 88.865252 161.61213 89.049297 161.79808 89.269531 161.9375 C 89.408086 162.15425 89.590977 162.33952 89.810547 162.47852 C 89.948687 162.6941 90.129254 162.87903 90.347656 163.01758 C 90.485341 163.2325 90.667279 163.41628 90.884766 163.55469 C 91.022906 163.77024 91.203493 163.95522 91.421875 164.09375 C 91.559748 164.30766 91.739929 164.49119 91.957031 164.62891 C 92.094177 164.84059 92.273317 165.0214 92.488281 165.1582 C 92.625073 165.36984 92.803047 165.55053 93.017578 165.6875 C 93.154158 165.89919 93.332552 166.08163 93.546875 166.21875 C 93.683252 166.42929 93.860803 166.60955 94.074219 166.74609 C 94.210587 166.95658 94.388188 167.13692 94.601562 167.27344 C 94.737443 167.4824 94.913064 167.66295 95.125 167.79883 C 95.260295 168.00645 95.435993 168.18493 95.646484 168.32031 C 95.781486 168.52755 95.956085 168.70649 96.166016 168.8418 C 96.300539 169.04827 96.476599 169.22426 96.685547 169.35938 C 96.820077 169.56589 96.994146 169.74378 97.203125 169.87891 C 97.336691 170.08323 97.512123 170.26217 97.71875 170.39648 C 97.8522 170.60019 98.026277 170.77616 98.232422 170.91016 L 98.234375 170.91016 C 98.367761 171.11353 98.542166 171.29195 98.748047 171.42578 C 98.88199 171.62915 99.055202 171.80397 99.261719 171.9375 C 99.394497 172.13775 99.56415 172.31113 99.767578 172.44336 L 99.769531 172.44336 C 99.902107 172.64437 100.07177 172.81641 100.27539 172.94922 C 100.40748 173.14957 100.57855 173.32243 100.78125 173.45508 C 100.91306 173.655 101.08301 173.8284 101.28516 173.96094 C 101.41713 174.16067 101.58879 174.33251 101.79102 174.46484 C 101.922 174.66241 102.08917 174.83335 102.28906 174.96484 C 102.42074 175.16409 102.5894 175.33656 102.79102 175.46875 C 102.92136 175.66489 103.08873 175.83195 103.28711 175.96289 C 103.4171 176.15897 103.58527 176.3279 103.7832 176.45898 C 103.91319 176.65506 104.08136 176.824 104.2793 176.95508 C 104.40845 177.14884 104.57577 177.31527 104.77148 177.44531 C 104.90067 177.64012 105.0654 177.80681 105.26172 177.9375 C 105.39106 178.13215 105.55749 178.29918 105.75391 178.42969 C 105.88203 178.62185 106.04656 178.78451 106.24023 178.91406 C 106.36823 179.10649 106.53289 179.27256 106.72656 179.40234 C 106.85341 179.59265 107.01776 179.75577 107.20898 179.88477 C 107.33718 180.07814 107.50286 180.24472 107.69727 180.375 C 107.82398 180.56403 107.9854 180.72722 108.17578 180.85547 C 108.30271 181.04546 108.46706 181.20914 108.6582 181.33789 C 108.78478 181.52632 108.9468 181.68848 109.13672 181.81641 C 109.26228 182.00332 109.42338 182.16161 109.61133 182.28906 C 109.73704 182.47664 109.89941 182.63782 110.08789 182.76562 C 110.10086 182.78497 110.11911 182.79963 110.13281 182.81836 A 88 88 0 0 0 181.64648 115.83203 C 181.55832 115.73836 181.46331 115.6521 181.35742 115.58008 C 181.23178 115.39873 181.07305 115.23737 180.89062 115.11328 C 180.76711 114.93442 180.61242 114.77974 180.43359 114.65625 C 180.30562 114.46686 180.14227 114.30401 179.95312 114.17578 C 179.82831 113.99383 179.6701 113.83781 179.48828 113.71289 C 179.48725 113.71137 179.4854 113.71051 179.48438 113.70898 C 179.48286 113.70795 179.48199 113.70611 179.48047 113.70508 C 179.35343 113.51956 179.19195 113.35663 179.00586 113.23047 C 178.87883 113.04495 178.71734 112.88202 178.53125 112.75586 C 178.40398 112.56938 178.24154 112.40402 178.05469 112.27734 C 177.92782 112.09118 177.76631 111.92941 177.58008 111.80273 L 177.58008 111.80078 L 177.57812 111.80078 C 177.45038 111.61236 177.28603 111.44998 177.09766 111.32227 L 177.0957 111.32031 C 176.96796 111.1319 176.80361 110.96756 176.61523 110.83984 L 176.61328 110.83789 C 176.48554 110.64947 176.32118 110.48318 176.13281 110.35547 L 176.13086 110.35352 C 176.00175 110.16246 175.83579 109.99787 175.64453 109.86914 C 175.51525 109.67783 175.34979 109.51162 175.1582 109.38281 L 175.15625 109.38086 C 175.02714 109.18979 174.86119 109.02522 174.66992 108.89648 C 174.53935 108.70184 174.37252 108.53457 174.17773 108.4043 C 174.04777 108.21096 173.88091 108.04382 173.6875 107.91406 C 173.55671 107.71848 173.38889 107.55069 173.19336 107.41992 C 173.06239 107.22447 172.89293 107.05832 172.69727 106.92773 C 172.56567 106.73093 172.3963 106.5608 172.19922 106.42969 C 172.0681 106.2336 171.8993 106.06451 171.70312 105.93359 C 171.57089 105.7348 171.40004 105.56562 171.20117 105.43359 C 171.06891 105.23474 170.89815 105.06369 170.69922 104.93164 C 170.56697 104.73281 170.39617 104.56173 170.19727 104.42969 C 170.06421 104.2286 169.89243 104.05686 169.69141 103.92383 C 169.55816 103.72285 169.38478 103.55083 169.18359 103.41797 C 169.05051 103.21682 168.87882 103.04321 168.67773 102.91016 C 168.54368 102.70692 168.36933 102.53423 168.16602 102.40039 C 168.03194 102.19712 167.85765 102.02252 167.6543 101.88867 C 167.51993 101.68493 167.34458 101.51093 167.14062 101.37695 C 167.00596 101.17233 166.83171 100.99568 166.62695 100.86133 C 166.49191 100.6559 166.31501 100.48035 166.10938 100.3457 C 165.97451 100.14014 165.79927 99.962952 165.59375 99.828125 C 165.45793 99.620441 165.28003 99.444196 165.07227 99.308594 C 164.93643 99.100889 164.75857 98.924671 164.55078 98.789062 C 164.41449 98.58019 164.2363 98.401693 164.02734 98.265625 C 163.89057 98.056012 163.71186 97.87648 163.50195 97.740234 C 163.36519 97.530671 163.18643 97.351064 162.97656 97.214844 C 162.83964 97.004387 162.65977 96.826131 162.44922 96.689453 C 162.31218 96.478316 162.13294 96.297182 161.92188 96.160156 C 161.78389 95.94691 161.602 95.766664 161.38867 95.628906 C 161.25067 95.415634 161.06883 95.23542 160.85547 95.097656 C 160.71735 94.883764 160.5361 94.702527 160.32227 94.564453 C 160.18399 94.349646 160.00166 94.167827 159.78711 94.029297 C 159.64795 93.812637 159.46465 93.62936 159.24805 93.490234 C 159.10896 93.274131 158.92519 93.090004 158.70898 92.951172 C 158.56983 92.73451 158.38652 92.551236 158.16992 92.412109 C 158.03029 92.194009 157.84491 92.0108 157.62695 91.871094 C 157.48705 91.652112 157.30276 91.466241 157.08398 91.326172 C 156.94342 91.105891 156.75544 90.92169 156.53516 90.78125 C 156.39489 90.561636 156.20979 90.374602 155.99023 90.234375 C 155.84909 90.012728 155.66118 89.826445 155.43945 89.685547 C 155.29826 89.463826 155.1105 89.275679 154.88867 89.134766 C 154.74716 88.912472 154.55846 88.72504 154.33594 88.583984 C 154.19416 88.360799 154.00655 88.170713 153.7832 88.029297 C 153.64156 87.806129 153.45171 87.618046 153.22852 87.476562 C 153.08581 87.250777 152.89586 87.060329 152.66992 86.917969 C 152.52774 86.693411 152.3379 86.503296 152.11328 86.361328 C 151.97057 86.134789 151.77913 85.945524 151.55273 85.802734 C 151.40979 85.575352 151.21935 85.383369 150.99219 85.240234 C 150.8489 85.01203 150.65578 84.821123 150.42773 84.677734 C 150.28386 84.448107 150.09089 84.255167 149.86133 84.111328 C 149.71769 83.882481 149.52375 83.690416 149.29492 83.546875 C 148.98035 83.043752 148.42525 82.705078 147.79102 82.705078 L 146.51562 82.705078 C 146.50175 82.691581 146.48658 82.67947 146.47266 82.666016 C 146.32907 82.517569 146.18353 82.372173 146.03516 82.228516 C 145.88052 82.068335 145.72466 81.910473 145.56445 81.755859 C 145.41951 81.606166 145.27091 81.461223 145.12109 81.316406 C 144.97211 81.162269 144.82211 81.010305 144.66797 80.861328 C 144.51778 80.705915 144.36442 80.554464 144.20898 80.404297 C 144.05878 80.248894 143.9074 80.09547 143.75195 79.945312 C 143.60171 79.789842 143.44846 79.638502 143.29297 79.488281 C 143.14178 79.331769 142.98853 79.178538 142.83203 79.027344 C 142.68374 78.873825 142.53427 78.722623 142.38086 78.574219 C 142.22184 78.409313 142.06139 78.246903 141.89648 78.087891 C 141.74749 77.93383 141.59556 77.783667 141.44141 77.634766 C 141.29036 77.478291 141.13683 77.324993 140.98047 77.173828 C 140.82088 77.008329 140.65967 76.84511 140.49414 76.685547 C 140.34645 76.532787 140.19573 76.384018 140.04297 76.236328 C 139.88142 76.068695 139.71646 75.905688 139.54883 75.744141 C 139.39665 75.586697 139.24349 75.431355 139.08594 75.279297 C 138.93006 75.117759 138.7709 74.960566 138.60938 74.804688 C 138.45351 74.643137 138.29629 74.484016 138.13477 74.328125 C 137.9767 74.164236 137.81623 74.00377 137.65234 73.845703 C 137.49552 73.683188 137.33638 73.523973 137.17383 73.367188 C 137.01577 73.203303 136.85528 73.042829 136.69141 72.884766 C 136.53302 72.720534 136.37126 72.560729 136.20703 72.402344 C 136.04802 72.237438 135.88756 72.075028 135.72266 71.916016 C 135.56301 71.750436 135.39996 71.589325 135.23438 71.429688 C 135.07441 71.263749 134.91202 71.101379 134.74609 70.941406 C 134.58491 70.774205 134.42114 70.610363 134.25391 70.449219 C 134.0933 70.282618 133.93029 70.119571 133.76367 69.958984 C 133.60212 69.791351 133.43717 69.628344 133.26953 69.466797 C 133.10736 69.298489 132.9437 69.132877 132.77539 68.970703 C 132.61259 68.801721 132.44633 68.637408 132.27734 68.474609 C 132.11422 68.305268 131.94863 68.139696 131.7793 67.976562 C 131.61465 67.805644 131.44831 67.63725 131.27734 67.472656 C 131.1139 67.303012 130.94701 67.138022 130.77734 66.974609 C 130.61266 66.803603 130.4464 66.63538 130.27539 66.470703 C 130.11009 66.299023 129.94121 66.132099 129.76953 65.966797 C 129.6036 65.794441 129.43603 65.624912 129.26367 65.458984 C 129.09745 65.286302 128.92853 65.117403 128.75586 64.951172 C 128.589 64.777827 128.41945 64.60825 128.24609 64.441406 C 128.07862 64.267374 127.90839 64.09717 127.73438 63.929688 C 127.56656 63.755308 127.39508 63.585772 127.2207 63.417969 C 127.05227 63.242913 126.88209 63.070772 126.70703 62.902344 C 126.53861 62.727277 126.36645 62.557112 126.19141 62.388672 C 126.02077 62.211227 125.84736 62.037827 125.66992 61.867188 C 125.50404 61.694783 125.33637 61.525353 125.16406 61.359375 C 124.98686 61.174826 124.80564 60.995558 124.62109 60.818359 C 124.45322 60.64404 124.28382 60.472427 124.10938 60.304688 C 123.93782 60.126255 123.76242 59.952802 123.58398 59.78125 C 123.4153 59.605773 123.2437 59.434451 123.06836 59.265625 C 122.88929 59.079046 122.70806 58.895866 122.52148 58.716797 C 122.35174 58.540454 122.17842 58.368832 122.00195 58.199219 C 121.83114 58.021476 121.65811 57.846702 121.48047 57.675781 C 121.30365 57.491528 121.12359 57.311698 120.93945 57.134766 C 120.76475 56.952922 120.58614 56.776265 120.4043 56.601562 C 120.22578 56.415726 120.04533 56.233066 119.85938 56.054688 C 119.6868 55.875296 119.50961 55.701728 119.33008 55.529297 C 119.1538 55.34574 118.97456 55.166519 118.79102 54.990234 C 118.61444 54.806361 118.43583 54.625794 118.25195 54.449219 C 118.07475 54.26467 117.89354 54.085401 117.70898 53.908203 C 117.53116 53.722977 117.35124 53.541104 117.16602 53.363281 C 116.98757 53.177379 116.80504 52.996805 116.61914 52.818359 C 116.44037 52.632096 116.25852 52.450263 116.07227 52.271484 C 115.89286 52.084557 115.71038 51.902045 115.52344 51.722656 C 115.34342 51.535039 115.16026 51.351901 114.97266 51.171875 C 114.79234 50.983942 114.6098 50.799456 114.42188 50.619141 C 114.24093 50.430531 114.0558 50.247344 113.86719 50.066406 C 113.68593 49.877435 113.50146 49.692991 113.3125 49.511719 C 113.13003 49.32149 112.94417 49.135551 112.75391 48.953125 C 112.57201 48.76349 112.38692 48.578365 112.19727 48.396484 C 112.01445 48.205843 111.82931 48.018745 111.63867 47.835938 C 111.45467 47.644025 111.26616 47.457411 111.07422 47.273438 C 110.88987 47.08119 110.70208 46.893263 110.50977 46.708984 C 110.32598 46.517331 110.13896 46.33022 109.94727 46.146484 C 109.76227 45.953449 109.57388 45.765086 109.38086 45.580078 C 105.97125 42.022328 101.18507 39.792969 95.880859 39.792969 z "
       transform="translate(0,860.36216)"
       id="path25446" />
    <path
       id="path25370"
       d="m 95.312054,899.58612 c -4.998589,0 -9.698094,1.94579 -13.237062,5.48202 -3.530813,3.53353 -5.48156,8.23633 -5.473388,13.23491 0,10.3152 8.393008,18.71693 18.719075,18.71693 10.323351,0 18.712671,-8.39198 18.710451,-18.71262 0,-10.32333 -8.39845,-18.72124 -18.719076,-18.72124 z m 37.474826,42.91154 c -9.05672,0 -16.42881,7.36721 -16.42881,16.42665 l 0,14.63666 c 0,0.99484 0.79973,1.77703 1.82447,1.77703 l 14.3973,0.002 c 9.05671,0 16.42016,-7.36345 16.42016,-16.42017 l 0,-14.64315 c 0,-0.97851 -0.7985,-1.77917 -1.77703,-1.77917 l -14.43609,0 z m -88.007707,0.23292 C 43.795222,942.73058 43,943.52795 43,944.51191 l 0,14.63668 c 0,9.05942 7.368888,16.42448 16.420167,16.42448 l 50.334463,0.006 c 0.0353,-0.005 0.0715,-0.006 0.10145,-0.006 0.98667,0 1.78995,-0.79625 1.78995,-1.78565 l 0,-14.63452 c 0,-9.05672 -7.39338,-16.42232 -16.482704,-16.42232 l -50.384075,0 z m 65.081137,37.56109 0,0.004 -29.08142,0 c -0.981234,0 -1.78133,0.80067 -1.781331,1.77917 l 0,29.28632 c 0,0.9974 0.804612,1.7748 1.826618,1.7748 l 14.395144,0 c 9.056729,0 16.428789,-7.3672 16.428789,-16.4266 l 0,-14.63667 c -0.002,-0.97851 -0.80112,-1.78133 -1.7878,-1.78133 z"
       style="fill:#f5f5f5;filter:url(#filter25358)"
       inkscape:connector-curvature="0" />
    <g
       id="g25384">
      <path
         style="fill:#263238;opacity:0.2"
         d="M 76.626953 58.421875 C 76.622475 58.595712 76.601277 58.76681 76.601562 58.941406 C 76.601562 69.256606 84.994246 77.658203 95.320312 77.658203 C 105.64366 77.658203 114.03347 69.265953 114.03125 58.945312 C 114.03125 58.777913 114.01025 58.615578 114.00586 58.449219 C 113.73761 68.535414 105.47345 76.658203 95.320312 76.658203 C 85.156594 76.658203 76.885146 68.514096 76.626953 58.421875 z M 149 98.558594 C 149 107.61531 141.63679 114.97852 132.58008 114.97852 L 118.18164 114.97656 C 117.1569 114.97656 116.35742 114.19406 116.35742 113.19922 L 116.35742 114.19922 C 116.35742 115.19406 117.1569 115.97656 118.18164 115.97656 L 132.58008 115.97852 C 141.63679 115.97852 149 108.61531 149 99.558594 L 149 98.558594 z M 43 98.787109 L 43 99.787109 C 43 108.84653 50.368643 116.21094 59.419922 116.21094 L 109.75391 116.2168 C 109.78921 116.2118 109.82552 116.21094 109.85547 116.21094 C 110.84214 116.21094 111.64648 115.41518 111.64648 114.42578 L 111.64648 113.42578 C 111.64648 114.41518 110.84214 115.21094 109.85547 115.21094 C 109.82552 115.21094 109.78921 115.2118 109.75391 115.2168 L 59.419922 115.21094 C 50.368643 115.21094 43 107.84653 43 98.787109 z M 111.64844 136.34766 C 111.64844 145.40706 104.27548 152.77344 95.21875 152.77344 L 80.824219 152.77344 C 79.802213 152.77344 78.998047 151.99545 78.998047 150.99805 L 78.998047 152 C 78.998047 152.9974 79.802213 153.77344 80.824219 153.77344 L 95.21875 153.77344 C 104.27548 153.77344 111.64844 146.4071 111.64844 137.34766 L 111.64844 136.34766 z "
         transform="translate(0,860.36216)"
         id="path25376" />
      <path
         style="fill:#ffffff;opacity:0.2"
         d="M 95.3125 39.224609 C 90.313911 39.224609 85.613187 41.168848 82.074219 44.705078 C 78.543406 48.238608 76.59339 52.942826 76.601562 57.941406 C 76.601562 58.103584 76.622829 58.260668 76.626953 58.421875 C 76.750687 53.61886 78.666734 49.115185 82.074219 45.705078 C 85.613187 42.168848 90.313911 40.224609 95.3125 40.224609 C 105.46577 40.224609 113.73958 48.356393 114.00586 58.449219 C 114.01036 58.28013 114.03129 58.115479 114.03125 57.945312 C 114.03125 47.621982 105.63313 39.224609 95.3125 39.224609 z M 132.78711 82.134766 C 123.73039 82.134766 116.35742 89.50306 116.35742 98.5625 L 116.35742 99.5625 C 116.35742 90.50306 123.73039 83.134766 132.78711 83.134766 L 147.22266 83.134766 C 148.20119 83.134766 149 83.935552 149 84.914062 L 149 83.914062 C 149 82.935552 148.20119 82.134766 147.22266 82.134766 L 132.78711 82.134766 z M 44.779297 82.369141 C 43.795346 82.369141 43 83.166431 43 84.150391 L 43 85.150391 C 43 84.166431 43.795346 83.369141 44.779297 83.369141 L 95.164062 83.369141 C 104.25339 83.369141 111.64648 90.734296 111.64648 99.791016 L 111.64648 98.791016 C 111.64648 89.734296 104.25339 82.369141 95.164062 82.369141 L 44.779297 82.369141 z M 109.85938 119.92969 L 109.85938 119.93359 L 80.779297 119.93359 C 79.798063 119.93359 78.998048 120.73439 78.998047 121.71289 L 78.998047 122.71289 C 78.998048 121.73439 79.798063 120.93359 80.779297 120.93359 L 109.85938 120.93359 L 109.85938 120.92969 C 110.84606 120.92969 111.64644 121.73243 111.64844 122.71094 L 111.64844 121.71094 C 111.64644 120.73243 110.84606 119.92969 109.85938 119.92969 z "
         transform="translate(0,860.36216)"
         id="path25379" />
    </g>
  </g>
  <g
     inkscape:groupmode="layer"
     id="layer3"
     inkscape:label="finish"
     style="display:inline"
     sodipodi:insensitive="true">
    <path
       style="opacity:0.2;fill:#263238;fill-opacity:1;fill-rule:nonzero;stroke:none;stroke-width:2.94899988;stroke-linecap:butt;stroke-linejoin:miter;stroke-miterlimit:4;stroke-dasharray:none;stroke-dashoffset:0;stroke-opacity:1"
       d="M 183.97852,95.414062 A 88,88 0 0 1 96,183 88,88 0 0 1 8.0214844,95.585938 88,88 0 0 0 8,96 a 88,88 0 0 0 88,88 88,88 0 0 0 88,-88 88,88 0 0 0 -0.0215,-0.585938 z"
       id="circle4186"
       inkscape:connector-curvature="0" />
    <path
       style="opacity:0.2;fill:#ffffff;fill-opacity:1;fill-rule:nonzero;stroke:none;stroke-width:2.94899988;stroke-linecap:butt;stroke-linejoin:miter;stroke-miterlimit:4;stroke-dasharray:none;stroke-dashoffset:0;stroke-opacity:1"
       d="M 96,8 A 88,88 0 0 0 8,96 88,88 0 0 0 8.0214844,96.585938 88,88 0 0 1 96,9 88,88 0 0 1 183.97852,96.414062 88,88 0 0 0 184,96 88,88 0 0 0 96,8 Z"
       id="circle4191"
       inkscape:connector-curvature="0" />
    <circle
       r="88"
       cy="96"
       cx="96"
       id="circle4196"
       style="opacity:0.1;fill:url(#radialGradient4204);fill-opacity:1;fill-rule:nonzero;stroke:none;stroke-width:2.94899988;stroke-linecap:butt;stroke-linejoin:miter;stroke-miterlimit:4;stroke-dasharray:none;stroke-dashoffset:0;stroke-opacity:1" />
  </g>
</svg>
