<?xml version="1.0" encoding="utf-8"?>
<!-- Generator: Adobe Illustrator 19.0.1, SVG Export Plug-In . SVG Version: 6.00 Build 0)  -->
<!DOCTYPE svg PUBLIC "-//W3C//DTD SVG 1.1//EN" "http://www.w3.org/Graphics/SVG/1.1/DTD/svg11.dtd">
<svg version="1.1"
	 id="svg2" xmlns:svg="http://www.w3.org/2000/svg" xmlns:dc="http://purl.org/dc/elements/1.1/" xmlns:rdf="http://www.w3.org/1999/02/22-rdf-syntax-ns#" xmlns:cc="http://creativecommons.org/ns#" xmlns:sodipodi="http://sodipodi.sourceforge.net/DTD/sodipodi-0.dtd" xmlns:inkscape="http://www.inkscape.org/namespaces/inkscape" inkscape:export-ydpi="90" inkscape:export-xdpi="90" inkscape:export-filename="C:\Users\Simon\Documents\Material Design Icons\PNG\tunein.png" sodipodi:docname="tunein.svg" inkscape:version="0.91 r13725"
	 xmlns="http://www.w3.org/2000/svg" xmlns:xlink="http://www.w3.org/1999/xlink" x="0px" y="0px" viewBox="-443 865 192 192"
	 style="enable-background:new -443 865 192 192;" xml:space="preserve">
<style type="text/css">
	.st0{filter:url(#filter12054);}
	.st1{fill:#36B4A7;}
	.st2{fill:none;stroke:#36B4A7;stroke-width:1.0149;stroke-linejoin:round;}
	.st3{opacity:0.2;fill:#263238;stroke:#263238;stroke-width:1.012;stroke-linejoin:round;enable-background:new    ;}
	.st4{opacity:0.2;fill:#38CDB9;stroke:#FFFFFF;stroke-width:1.012;stroke-linejoin:round;enable-background:new    ;}
	.st5{fill:#36B4A7;stroke:#36B4A7;stroke-width:1.0091;stroke-linejoin:round;}
	.st6{opacity:0.2;fill:url(#path10542_1_);enable-background:new    ;}
	.st7{fill:#FFFFFF;}
	.st8{opacity:0.2;enable-background:new    ;}
	.st9{fill:#F2F2F2;}
	
		.st10{opacity:0.1;fill:url(#circle10368_1_);stroke:url(#circle10368_2_);stroke-width:0.2784;stroke-linejoin:round;enable-background:new    ;}
</style>
<filter  inkscape:label="Drop Shadow" style="color-interpolation-filters:sRGB;" id="filter12054">
	<feFlood  result="flood" flood-color="rgb(0,0,0)" flood-opacity="0.29999999999999999" id="feFlood12056"></feFlood>
	<feComposite  operator="in" in2="SourceGraphic" in="flood" result="composite1" id="feComposite12058"></feComposite>
	<feGaussianBlur  in="composite1" stdDeviation="3" result="blur" id="feGaussianBlur12060"></feGaussianBlur>
	<feOffset  dy="3" dx="4.57967e-015" result="offset" id="feOffset12062"></feOffset>
	<feComposite  operator="over" in2="offset" in="SourceGraphic" result="composite2" id="feComposite12064"></feComposite>
</filter>
<sodipodi:namedview  showgrid="true" showguides="false" inkscape:cy="207.38986" inkscape:cx="239.33514" borderopacity="1.0" bordercolor="#666666" pagecolor="#ffffff" id="base" inkscape:zoom="1.4142136" inkscape:snap-global="false" inkscape:window-maximized="1" inkscape:window-y="-8" inkscape:window-x="-8" inkscape:window-height="1017" inkscape:window-width="1920" inkscape:guide-bbox="true" inkscape:pageshadow="2" inkscape:current-layer="layer3" inkscape:pageopacity="0.0" inkscape:document-units="px">
	<inkscape:grid  type="xygrid" empspacing="5" enabled="true" visible="true" id="grid2985" snapvisiblegridlinesonly="true">
		</inkscape:grid>
	<sodipodi:guide  id="guide3002" orientation="1,0" position="8,58.524064"></sodipodi:guide>
	<sodipodi:guide  id="guide3004" orientation="1,0" position="20,69.304813"></sodipodi:guide>
	<sodipodi:guide  id="guide3006" orientation="1,0" position="32,62.631016"></sodipodi:guide>
	<sodipodi:guide  id="guide3008" orientation="1,0" position="68,53.390374"></sodipodi:guide>
	<sodipodi:guide  id="guide3010" orientation="0,1" position="119.61497,8"></sodipodi:guide>
	<sodipodi:guide  id="guide3012" orientation="0,1" position="155.5508,20"></sodipodi:guide>
	<sodipodi:guide  id="guide3014" orientation="0,1" position="132.96257,32"></sodipodi:guide>
	<sodipodi:guide  id="guide3016" orientation="0,1" position="130.90909,68"></sodipodi:guide>
	<sodipodi:guide  id="guide3018" orientation="0,1" position="137.06952,184"></sodipodi:guide>
	<sodipodi:guide  id="guide3020" orientation="1,0" position="184,145.79679"></sodipodi:guide>
	<sodipodi:guide  id="guide3022" orientation="0,1" position="91.379679,172"></sodipodi:guide>
	<sodipodi:guide  id="guide3024" orientation="1,0" position="172,101.64706"></sodipodi:guide>
	<sodipodi:guide  id="guide3026" orientation="0,1" position="149.39037,160"></sodipodi:guide>
	<sodipodi:guide  id="guide3028" orientation="1,0" position="160,88.299465"></sodipodi:guide>
	<sodipodi:guide  id="guide3030" orientation="0,1" position="128.34225,124"></sodipodi:guide>
	<sodipodi:guide  id="guide3032" orientation="1,0" position="124,92.919786"></sodipodi:guide>
</sodipodi:namedview>
<g id="layer1" inkscape:label="circle 2" inkscape:groupmode="layer">
	<g id="circle4873" class="st0">
		<circle class="st1" cx="-347" cy="961" r="87.5"/>
		<circle class="st2" cx="-347" cy="961" r="87.5"/>
	</g>
</g>
<g id="layer3" inkscape:label="circle" inkscape:groupmode="layer">
	<ellipse id="circle10389" class="st3" cx="-347" cy="961.5" rx="87.5" ry="87"/>
	<ellipse id="circle10391" class="st4" cx="-347" cy="960.5" rx="87.5" ry="87"/>
	<ellipse id="path3040" class="st5" cx="-347" cy="961" rx="87.5" ry="86.5"/>
	
		<linearGradient id="path10542_1_" gradientUnits="userSpaceOnUse" x1="-437.6731" y1="1098.3818" x2="-338.6926" y2="998.0728" gradientTransform="matrix(1.1224 0 0 -1.1224 96.4302 2147.5188)">
		<stop  offset="0" style="stop-color:#263238"/>
		<stop  offset="1" style="stop-color:#263238;stop-opacity:0"/>
	</linearGradient>
	
		<path id="path10542" inkscape:connector-curvature="0" inkscape:export-ydpi="90" inkscape:export-xdpi="90" inkscape:export-filename="C:\Users\Simon\Documents\Material Design Icon Pack\PNG\g12049.png" class="st6" d="
		M-347.2,902.7c-5.1,0-10,2-13.6,5.6c-3.6,3.6-5.6,8.5-5.6,13.6c0,5.5,2.3,10.4,6,13.9c0.2,0.2,0.4,0.4,0.7,0.7
		c0.2,0.2,0.4,0.4,0.6,0.6c0.2,0.2,0.4,0.4,0.6,0.6c0.2,0.2,0.4,0.4,0.6,0.6c0.2,0.2,0.4,0.4,0.6,0.6c0.2,0.2,0.4,0.4,0.6,0.6
		c0.2,0.2,0.4,0.4,0.6,0.6c0.2,0.2,0.4,0.4,0.6,0.6c0.2,0.2,0.4,0.4,0.6,0.6c0.2,0.2,0.4,0.4,0.6,0.6c0.2,0.2,0.4,0.4,0.6,0.6
		c0.2,0.2,0.4,0.4,0.6,0.6c0.2,0.2,0.4,0.4,0.6,0.6c0.2,0.2,0.4,0.4,0.6,0.6c0.2,0.2,0.4,0.4,0.6,0.6c0.2,0.2,0.4,0.4,0.6,0.6
		c0.2,0.2,0.4,0.4,0.6,0.6c0.2,0.2,0.4,0.4,0.6,0.6c0,0,0,0,0,0h-49.9c-1,0-1.8,0.8-1.8,1.8v15c0,4.8,2,9.2,5.3,12.2
		c0.2,0.2,0.4,0.4,0.6,0.6c0.2,0.2,0.4,0.4,0.6,0.6c0.2,0.2,0.4,0.4,0.6,0.6c0.2,0.2,0.4,0.4,0.6,0.6c0.2,0.2,0.4,0.4,0.6,0.6
		c0.2,0.2,0.4,0.4,0.6,0.6c0.2,0.2,0.4,0.4,0.6,0.6c0.2,0.2,0.4,0.4,0.6,0.6c0.2,0.2,0.4,0.4,0.6,0.6c0.2,0.2,0.4,0.4,0.6,0.6
		c0.2,0.2,0.4,0.4,0.6,0.6c0.2,0.2,0.4,0.4,0.6,0.6c0.2,0.2,0.4,0.4,0.6,0.6c0.2,0.2,0.4,0.4,0.6,0.6c0.2,0.2,0.4,0.4,0.6,0.6
		c0.2,0.2,0.4,0.4,0.6,0.6c0.2,0.2,0.4,0.4,0.6,0.6c0.2,0.2,0.4,0.4,0.6,0.6c0.2,0.2,0.4,0.4,0.6,0.6c0.2,0.2,0.4,0.4,0.6,0.6
		c0.2,0.2,0.4,0.4,0.6,0.6c0.2,0.2,0.4,0.4,0.6,0.6c0.2,0.2,0.4,0.4,0.6,0.6c0.2,0.2,0.4,0.4,0.6,0.6c0.2,0.2,0.4,0.4,0.6,0.6
		c0.2,0.2,0.4,0.4,0.6,0.6c0.2,0.2,0.4,0.4,0.6,0.6c0.2,0.2,0.4,0.4,0.6,0.6c0.2,0.2,0.4,0.4,0.6,0.6c0.2,0.2,0.4,0.4,0.6,0.6
		c0.2,0.2,0.4,0.4,0.6,0.6c0.2,0.2,0.4,0.4,0.6,0.6c0.2,0.2,0.4,0.4,0.6,0.6c0.2,0.2,0.4,0.4,0.6,0.6c0.2,0.2,0.4,0.4,0.6,0.6
		c0.2,0.2,0.4,0.4,0.6,0.6c0.2,0.2,0.4,0.4,0.6,0.6c0.2,0.2,0.4,0.4,0.6,0.6c0.2,0.2,0.4,0.4,0.6,0.6c0.2,0.2,0.4,0.4,0.6,0.6
		c0.2,0.2,0.4,0.4,0.6,0.6c0.2,0.2,0.4,0.4,0.6,0.6c0.2,0.2,0.4,0.4,0.6,0.6c0.2,0.2,0.4,0.4,0.6,0.6c0.2,0.2,0.4,0.4,0.6,0.6
		c0.2,0.2,0.4,0.4,0.6,0.6c0.2,0.2,0.4,0.4,0.6,0.6c0.2,0.2,0.4,0.4,0.6,0.6c0.2,0.2,0.4,0.4,0.5,0.5c0.2,0.2,0.4,0.4,0.5,0.5
		c0.2,0.2,0.4,0.4,0.5,0.5c0.2,0.2,0.4,0.4,0.5,0.5c0.2,0.2,0.4,0.4,0.5,0.5c0.2,0.2,0.3,0.4,0.5,0.5v9.7c0,0.7,0.4,1.2,0.9,1.6
		c0.2,0.3,0.4,0.5,0.6,0.6c0.2,0.3,0.4,0.5,0.6,0.6c0.2,0.3,0.4,0.5,0.6,0.6c0.2,0.3,0.4,0.5,0.6,0.6c0.2,0.3,0.4,0.5,0.6,0.6
		c0.2,0.3,0.4,0.5,0.6,0.6c0.2,0.3,0.4,0.5,0.6,0.6c0.2,0.3,0.4,0.5,0.6,0.6c0.2,0.3,0.4,0.5,0.6,0.6c0.2,0.3,0.4,0.5,0.6,0.6
		c0.2,0.3,0.4,0.5,0.6,0.6c0.2,0.3,0.4,0.5,0.6,0.6c0.2,0.3,0.4,0.5,0.6,0.6c0.2,0.3,0.4,0.5,0.6,0.6c0.2,0.2,0.4,0.5,0.6,0.6
		c0.2,0.2,0.4,0.5,0.6,0.6c0.2,0.2,0.4,0.5,0.6,0.6c0.2,0.2,0.4,0.5,0.6,0.6c0.1,0.2,0.4,0.5,0.6,0.6c0.1,0.2,0.4,0.5,0.6,0.6
		c0.1,0.2,0.4,0.4,0.6,0.6c0.1,0.2,0.4,0.4,0.6,0.6c0.1,0.2,0.4,0.4,0.6,0.6c0.1,0.2,0.4,0.4,0.6,0.6c0.1,0.2,0.3,0.4,0.6,0.6
		c0.1,0.2,0.3,0.4,0.6,0.6c0.1,0.2,0.3,0.4,0.6,0.6c0.1,0.2,0.3,0.4,0.6,0.6c0.1,0.2,0.3,0.4,0.6,0.6c0.1,0.2,0.3,0.4,0.6,0.6
		c0.1,0.2,0.3,0.4,0.6,0.6c0.1,0.2,0.3,0.4,0.6,0.6c0.1,0.2,0.3,0.4,0.6,0.6c0.1,0.2,0.3,0.4,0.6,0.6c0.1,0.2,0.3,0.4,0.6,0.6
		c0.1,0.2,0.3,0.4,0.6,0.6c0.1,0.2,0.3,0.4,0.6,0.6c0.1,0.2,0.3,0.4,0.6,0.6c0.1,0.2,0.3,0.4,0.6,0.6c0.1,0.2,0.3,0.4,0.6,0.6
		c0.1,0.2,0.3,0.4,0.6,0.6c0.1,0.2,0.3,0.4,0.6,0.6c0.1,0.2,0.3,0.4,0.6,0.6c0.1,0.2,0.3,0.4,0.6,0.6c0.1,0.2,0.3,0.4,0.6,0.6
		c0.1,0.2,0.3,0.4,0.6,0.6c0.1,0.2,0.3,0.4,0.6,0.6c0.1,0.2,0.3,0.4,0.5,0.5c0.1,0.2,0.3,0.4,0.6,0.6c0.1,0.2,0.3,0.4,0.5,0.5
		c0.1,0.2,0.3,0.4,0.5,0.5c0.1,0.2,0.3,0.4,0.5,0.5c0.1,0.2,0.3,0.4,0.5,0.5c0.1,0.2,0.3,0.4,0.5,0.5c0.1,0.2,0.3,0.4,0.5,0.5
		c0.1,0.2,0.3,0.4,0.5,0.5c0.1,0.2,0.3,0.4,0.5,0.5c0.1,0.2,0.3,0.4,0.5,0.5c0.1,0.2,0.3,0.4,0.5,0.5c0.1,0.2,0.3,0.4,0.5,0.5h0
		c0.1,0.2,0.3,0.4,0.5,0.5c0.1,0.2,0.3,0.4,0.5,0.5c0.1,0.2,0.3,0.4,0.5,0.5c0.1,0.2,0.3,0.4,0.5,0.5c0.1,0.2,0.3,0.4,0.5,0.5
		c0.1,0.2,0.3,0.4,0.5,0.5c0.1,0.2,0.3,0.4,0.5,0.5c0.1,0.2,0.3,0.4,0.5,0.5c0.1,0.2,0.3,0.4,0.5,0.5c0.1,0.2,0.3,0.4,0.5,0.5
		c0.1,0.2,0.3,0.4,0.5,0.5c0.1,0.2,0.3,0.4,0.5,0.5c0.1,0.2,0.3,0.4,0.5,0.5c0.1,0.2,0.3,0.4,0.5,0.5c0.1,0.2,0.3,0.4,0.5,0.5
		c0.1,0.2,0.3,0.4,0.5,0.5c0.1,0.2,0.3,0.4,0.5,0.5c0.1,0.2,0.3,0.4,0.5,0.5c0.1,0.2,0.3,0.4,0.5,0.5c0.1,0.2,0.3,0.4,0.5,0.5
		c0.1,0.2,0.3,0.4,0.5,0.5c0.1,0.2,0.3,0.4,0.5,0.5c0.1,0.2,0.3,0.4,0.5,0.5c0.1,0.2,0.3,0.4,0.5,0.5c0.1,0.2,0.3,0.4,0.5,0.5
		c0.1,0.2,0.3,0.4,0.5,0.5c0.1,0.2,0.3,0.4,0.5,0.5c0.1,0.2,0.3,0.3,0.5,0.5c0.1,0.2,0.3,0.3,0.5,0.5c0.1,0.2,0.3,0.3,0.5,0.5
		c0.1,0.2,0.3,0.3,0.5,0.5c0.1,0.2,0.3,0.3,0.5,0.5c0.1,0.2,0.3,0.3,0.5,0.5c0.1,0.2,0.3,0.3,0.5,0.5c0.1,0.2,0.3,0.3,0.5,0.5
		c0.1,0.2,0.3,0.3,0.5,0.5c0.1,0.2,0.3,0.3,0.5,0.5c0.1,0.2,0.3,0.3,0.5,0.5c0.1,0.2,0.3,0.3,0.5,0.5c0.1,0.2,0.3,0.3,0.5,0.5
		c0.1,0.2,0.3,0.3,0.5,0.5c0.1,0.2,0.3,0.3,0.5,0.5c0.1,0.2,0.3,0.3,0.4,0.4c0.1,0.2,0.3,0.3,0.4,0.4c0.1,0.2,0.3,0.3,0.4,0.4
		c0.1,0.2,0.3,0.3,0.4,0.4c0.1,0.2,0.3,0.3,0.4,0.4c0.1,0.2,0.3,0.3,0.4,0.4c0.1,0.2,0.3,0.3,0.4,0.4l0,0c0.1,0.2,0.3,0.3,0.4,0.4v0
		c0.1,0.2,0.3,0.3,0.4,0.4v0c0.1,0.2,0.3,0.3,0.4,0.4v0c0.1,0.2,0.3,0.3,0.4,0.4c0.1,0.2,0.3,0.3,0.4,0.4c0.1,0.2,0.3,0.3,0.4,0.4
		c0.1,0.2,0.3,0.3,0.4,0.4c0.1,0.2,0.3,0.3,0.4,0.4c0.1,0.2,0.3,0.3,0.4,0.4c0.1,0.2,0.3,0.3,0.4,0.4c0.1,0.2,0.3,0.3,0.4,0.4
		c0.1,0.2,0.3,0.3,0.4,0.4c0.1,0.2,0.3,0.3,0.4,0.4c0.1,0.2,0.3,0.3,0.4,0.4c0.1,0.2,0.3,0.3,0.4,0.4c0.1,0.2,0.3,0.3,0.4,0.4
		c0.1,0.2,0.2,0.3,0.4,0.4c0.1,0.2,0.3,0.3,0.4,0.4c0.1,0.2,0.3,0.3,0.4,0.4c0.1,0.2,0.2,0.3,0.4,0.4c0.1,0.2,0.2,0.3,0.4,0.4
		c0.1,0.2,0.2,0.3,0.4,0.4c0.1,0.2,0.2,0.3,0.4,0.4c0.1,0.2,0.2,0.3,0.4,0.4c0.1,0.2,0.2,0.3,0.4,0.4c0.1,0.1,0.2,0.3,0.4,0.4
		c0.1,0.2,0.2,0.3,0.4,0.4c0.1,0.1,0.2,0.3,0.4,0.4c0.1,0.1,0.2,0.3,0.4,0.4c0.1,0.1,0.2,0.3,0.4,0.4c0.1,0.1,0.2,0.3,0.4,0.4
		c0.1,0.1,0.2,0.3,0.4,0.4c0.1,0.1,0.2,0.3,0.4,0.4c0.1,0.1,0.2,0.3,0.4,0.4c0.1,0.1,0.2,0.3,0.4,0.4c0.1,0.1,0.2,0.3,0.4,0.4
		c0.1,0.1,0.2,0.3,0.4,0.4c0.1,0.1,0.2,0.3,0.4,0.4c0.1,0.1,0.2,0.3,0.4,0.4c0.1,0.1,0.2,0.3,0.4,0.4c0.1,0.1,0.2,0.3,0.4,0.4
		c0.1,0.1,0.2,0.3,0.4,0.4c0.1,0.1,0.2,0.3,0.4,0.4c0.1,0.1,0.2,0.3,0.4,0.4c0.1,0.1,0.2,0.3,0.4,0.4c0.1,0.1,0.2,0.3,0.4,0.4
		c0.1,0.1,0.2,0.3,0.4,0.4c0.1,0.1,0.2,0.2,0.4,0.4c0.1,0.1,0.2,0.2,0.3,0.3c0.1,0.1,0.2,0.2,0.3,0.4c0.1,0.1,0.2,0.2,0.3,0.3
		c0.1,0.1,0.2,0.2,0.3,0.3c0.1,0.1,0.2,0.2,0.3,0.3c0.1,0.1,0.2,0.2,0.3,0.3c0.1,0.1,0.2,0.2,0.3,0.3c0.1,0.1,0.2,0.2,0.3,0.3
		c0.1,0.1,0.2,0.2,0.3,0.3c0.1,0.1,0.2,0.2,0.3,0.3c0.1,0.1,0.2,0.2,0.3,0.3c0.1,0.1,0.2,0.2,0.3,0.3c0.1,0.1,0.2,0.2,0.3,0.3
		c0.1,0.1,0.2,0.2,0.3,0.3c0.1,0.1,0.2,0.2,0.3,0.3c0.1,0.1,0.2,0.2,0.3,0.3c0.1,0.1,0.2,0.2,0.3,0.3c0.1,0.1,0.2,0.2,0.3,0.3
		c0.1,0.1,0.2,0.2,0.3,0.3c0.1,0.1,0.2,0.2,0.3,0.3c0.1,0.1,0.2,0.2,0.3,0.3c0.1,0.1,0.2,0.2,0.3,0.3c0.1,0.1,0.2,0.2,0.3,0.3
		c0.1,0.1,0.2,0.2,0.3,0.3c0.1,0.1,0.2,0.2,0.3,0.3c0.1,0.1,0.2,0.2,0.3,0.3c0.1,0.1,0.2,0.2,0.3,0.3c0.1,0.1,0.2,0.2,0.3,0.3
		c0.1,0.1,0.2,0.2,0.3,0.3c0.1,0.1,0.2,0.2,0.3,0.3c0.1,0.1,0.2,0.2,0.3,0.3c0.1,0.1,0.2,0.2,0.3,0.3c0.1,0.1,0.2,0.2,0.3,0.3
		c0.1,0.1,0.2,0.2,0.3,0.3c0.1,0.1,0.2,0.2,0.3,0.3c0.1,0.1,0.2,0.2,0.3,0.3c0.1,0.1,0.2,0.2,0.3,0.3c0.1,0.1,0.2,0.2,0.3,0.3
		c0.1,0.1,0.2,0.2,0.3,0.3c0.1,0.1,0.2,0.2,0.3,0.3c0.1,0.1,0.2,0.2,0.3,0.3c0.1,0.1,0.2,0.2,0.3,0.3c0.1,0.1,0.2,0.2,0.3,0.3
		c0.1,0.1,0.2,0.2,0.3,0.3c0.1,0.1,0.2,0.2,0.3,0.3c0.1,0.1,0.2,0.2,0.3,0.3c0.1,0.1,0.2,0.2,0.3,0.3c0.1,0.1,0.2,0.2,0.3,0.3
		c0.1,0.1,0.2,0.2,0.3,0.3c0.1,0.1,0.2,0.2,0.3,0.3c0.1,0.1,0.2,0.2,0.3,0.3c0.1,0.1,0.2,0.2,0.3,0.2c0.1,0.1,0.2,0.2,0.3,0.3
		c0.1,0.1,0.2,0.2,0.3,0.3c0.1,0.1,0.2,0.2,0.3,0.3c0.1,0.1,0.2,0.2,0.2,0.2c0.1,0.1,0.2,0.2,0.3,0.3c0.1,0.1,0.2,0.2,0.2,0.2
		c0.1,0.1,0.2,0.2,0.2,0.2c0.1,0.1,0.2,0.2,0.2,0.2c0.1,0.1,0.2,0.2,0.2,0.2c0.1,0.1,0.2,0.2,0.2,0.2c0.1,0.1,0.1,0.2,0.2,0.2
		c0.1,0.1,0.1,0.2,0.2,0.2c0.1,0.1,0.2,0.2,0.2,0.2c0.1,0.1,0.1,0.2,0.2,0.2c0.1,0.1,0.1,0.2,0.2,0.2c0.1,0.1,0.1,0.2,0.2,0.2
		c0.1,0.1,0.1,0.2,0.2,0.2c0.1,0.1,0.1,0.2,0.2,0.2c0.1,0.1,0.1,0.2,0.2,0.2c0.1,0.1,0.1,0.2,0.2,0.2c0.1,0.1,0.1,0.2,0.2,0.2
		c0.1,0.1,0.1,0.1,0.2,0.2c0.1,0.1,0.1,0.2,0.2,0.2c0.1,0.1,0.1,0.1,0.2,0.2c0.1,0.1,0.1,0.1,0.2,0.2c0.1,0.1,0.1,0.1,0.2,0.2
		c0.1,0.1,0.1,0.1,0.2,0.2c0.1,0.1,0.1,0.1,0.2,0.2c0.1,0.1,0.1,0.1,0.2,0.2c0.1,0.1,0.1,0.1,0.2,0.2c0.1,0.1,0.1,0.1,0.2,0.2
		c0.1,0.1,0.1,0.1,0.2,0.2c0.1,0.1,0.1,0.1,0.2,0.2c0.1,0.1,0.1,0.1,0.2,0.2c0.1,0.1,0.1,0.1,0.2,0.2c0.1,0.1,0.1,0.1,0.2,0.2
		c0.1,0.1,0.1,0.1,0.2,0.2c0.1,0.1,0.1,0.1,0.2,0.2c0.1,0.1,0.1,0.1,0.2,0.2c0.1,0.1,0.1,0.1,0.2,0.2c0.1,0.1,0.1,0.1,0.2,0.2
		c0.1,0.1,0.1,0.1,0.2,0.2c0.1,0.1,0.1,0.1,0.2,0.2c0.1,0.1,0.1,0.1,0.2,0.2c0.1,0.1,0.1,0.1,0.2,0.2c0.1,0.1,0.1,0.1,0.2,0.2
		c0.1,0.1,0.1,0.1,0.2,0.2c0.1,0.1,0.1,0.1,0.2,0.2c0.1,0.1,0.1,0.1,0.2,0.2c0.1,0.1,0.1,0.1,0.2,0.2c0,0.1,0.1,0.1,0.2,0.2
		c0.1,0.1,0.1,0.1,0.2,0.2c0,0.1,0.1,0.1,0.2,0.2c0.1,0.1,0.1,0.1,0.2,0.2c0,0.1,0.1,0.1,0.2,0.2c0,0.1,0.1,0.1,0.2,0.2
		c0,0.1,0.1,0.1,0.2,0.2c0,0.1,0.1,0.1,0.1,0.1c0,0.1,0.1,0.1,0.2,0.2c0,0.1,0.1,0.1,0.1,0.1c0,0.1,0.1,0.1,0.1,0.1
		c0,0.1,0.1,0.1,0.1,0.1c0,0.1,0.1,0.1,0.1,0.1c0,0,0.1,0.1,0.1,0.1c0,0.1,0.1,0.1,0.1,0.1c0,0,0.1,0.1,0.1,0.1c0,0,0.1,0.1,0.1,0.1
		c0,0,0.1,0.1,0.1,0.1c0,0,0.1,0.1,0.1,0.1c0,0,0.1,0.1,0.1,0.1c0,0,0.1,0.1,0.1,0.1c0,0,0.1,0.1,0.1,0.1c0,0,0.1,0.1,0.1,0.1
		c0,0,0.1,0.1,0.1,0.1c0,0,0.1,0.1,0.1,0.1c0,0,0.1,0.1,0.1,0.1c0,0,0.1,0.1,0.1,0.1c0,0,0.1,0.1,0.1,0.1c0,0,0.1,0.1,0.1,0.1
		c0,0,0.1,0.1,0.1,0.1c0,0,0.1,0.1,0.1,0.1c0,0,0.1,0.1,0.1,0.1c0,0,0.1,0.1,0.1,0.1c0,0,0.1,0.1,0.1,0.1c0,0,0.1,0.1,0.1,0.1
		c0,0,0.1,0.1,0.1,0.1c0,0,0.1,0.1,0.1,0.1c0,0,0.1,0.1,0.1,0.1c0,0,0.1,0.1,0.1,0.1c0,0,0.1,0.1,0.1,0.1c0,0,0.1,0.1,0.1,0.1
		c0,0,0.1,0.1,0.1,0.1c0,0,0.1,0.1,0.1,0.1c0,0,0.1,0.1,0.1,0.1c0,0,0.1,0.1,0.1,0.1c0,0,0.1,0.1,0.1,0.1c0,0,0.1,0.1,0.1,0.1
		c0,0,0.1,0.1,0.1,0.1c0,0,0,0,0.1,0.1c0,0,0.1,0.1,0.1,0.1c0,0,0,0,0.1,0.1c0,0,0,0,0.1,0.1c0,0,0,0,0.1,0.1c0,0,0,0,0.1,0.1
		c0,0,0,0.1,0.1,0.1c0,0,0,0,0.1,0.1c0,0,0,0,0.1,0.1c0,0,0,0,0.1,0.1c0,0,0,0,0.1,0.1c0,0,0,0,0.1,0.1c0,0,0,0,0,0c0,0,0,0,0.1,0.1
		c0,0,0,0,0.1,0.1c0,0,0,0,0,0c0,0,0,0,0,0c0,0,0,0,0.1,0.1c0,0,0,0,0,0c0,0,0,0,0,0c0,0,0,0,0,0c0,0,0,0,0,0c0,0,0,0,0,0
		c0,0,0,0,0,0c0,0,0,0,0,0c0,0,0,0,0,0c0,0,0,0,0,0c0,0,0,0,0,0c0,0,0,0,0,0c0,0,0,0,0,0c0,0,0,0,0,0c0,0,0,0,0,0c0,0,0,0,0,0
		c0,0,0,0,0,0c0,0,0,0,0,0c0,0,0,0,0,0l0,0c0,0,0,0,0,0c0,0,0,0,0,0c0,0,0,0,0,0l0,0l0,0c0,0,0,0,0,0c0.2,0.2,0.4,0.3,0.6,0.4
		c0,0,0,0,0,0c0,0,0,0,0,0c0.2,0.1,0.5,0.1,0.7,0.1l14.8,0c9.3,0,16.9-7.6,16.9-16.9v-15c0-0.3-0.1-0.5-0.1-0.7c0,0,0,0,0,0
		c0-0.1-0.1-0.2-0.2-0.3c-0.1-0.1-0.1-0.2-0.2-0.3c0,0,0,0,0,0l0,0l0,0l0,0c0,0,0,0,0,0c0,0,0,0,0,0c0,0,0,0,0,0c0,0,0,0,0,0
		c0,0,0,0,0,0c0,0,0,0,0,0c0,0,0,0,0,0c0,0,0,0,0,0c0,0,0,0,0,0c0,0,0,0,0,0c0,0,0,0,0,0c0,0,0,0,0,0c0,0,0,0,0,0c0,0,0,0,0,0
		c0,0,0,0,0,0c0,0,0,0,0,0c0,0,0,0,0,0c0,0,0,0,0,0c0,0,0,0,0,0c0,0,0,0,0,0c0,0,0,0,0,0c0,0,0,0,0,0c0,0,0,0,0,0c0,0,0,0,0,0
		c0,0,0,0,0,0c0,0,0,0,0,0c0,0,0,0,0,0c0,0,0,0-0.1,0c0,0,0,0-0.1-0.1c0,0,0,0,0,0c0,0,0,0-0.1-0.1c0,0,0,0-0.1,0c0,0,0,0-0.1-0.1
		c0,0,0,0-0.1-0.1c0,0,0,0-0.1-0.1c0,0,0,0-0.1-0.1c0,0,0,0-0.1-0.1c0,0,0,0-0.1-0.1c0,0,0-0.1-0.1-0.1c0,0-0.1-0.1-0.1-0.1
		c0,0,0,0-0.1-0.1c0,0,0,0-0.1-0.1c0,0-0.1-0.1-0.1-0.1c0,0,0,0-0.1-0.1c0,0-0.1-0.1-0.1-0.1c0,0-0.1-0.1-0.1-0.1
		c0,0-0.1-0.1-0.1-0.1c0,0-0.1-0.1-0.1-0.1c0,0-0.1-0.1-0.1-0.1c0,0-0.1-0.1-0.1-0.1c0,0-0.1-0.1-0.1-0.1c0,0-0.1-0.1-0.1-0.1
		c0,0-0.1-0.1-0.1-0.1c0,0-0.1-0.1-0.1-0.1c0,0-0.1-0.1-0.1-0.1c0,0-0.1-0.1-0.1-0.1c0,0-0.1-0.1-0.1-0.1c0,0-0.1-0.1-0.1-0.1
		c0,0-0.1-0.1-0.1-0.1c0,0-0.1-0.1-0.1-0.1c0,0-0.1-0.1-0.1-0.1c0,0-0.1-0.1-0.1-0.1c0,0-0.1-0.1-0.1-0.1c0,0-0.1-0.1-0.1-0.1
		c0,0-0.1-0.1-0.1-0.1c0,0-0.1-0.1-0.1-0.1c0,0-0.1-0.1-0.1-0.1c0,0-0.1-0.1-0.1-0.1c0,0-0.1-0.1-0.1-0.1c0,0-0.1-0.1-0.1-0.1
		c0,0-0.1-0.1-0.1-0.1c0,0-0.1-0.1-0.1-0.1c0,0-0.1-0.1-0.1-0.1c0,0-0.1-0.1-0.1-0.1c0,0-0.1-0.1-0.1-0.1c0,0-0.1-0.1-0.1-0.1
		c0,0-0.1-0.1-0.1-0.1c0,0,0,0-0.1-0.1h4c0,0,0.1,0,0.1,0c1,0,1.8-0.8,1.8-1.8v-4.3c0,0,0,0,0.1,0c0,0,0.1,0.1,0.1,0.1
		c0,0,0.1,0.1,0.1,0.1c0,0,0.1,0.1,0.1,0.1c0,0,0.1,0.1,0.1,0.1c0,0,0.1,0.1,0.1,0.1c0,0,0.1,0.1,0.1,0.1c0,0,0.1,0.1,0.1,0.1
		c0,0,0.1,0.1,0.1,0.1c0,0,0.1,0.1,0.1,0.1c0,0,0.1,0.1,0.1,0.1c0,0,0.1,0.1,0.1,0.1c0,0,0.1,0.1,0.1,0.1c0,0,0.1,0.1,0.1,0.1
		c0,0,0.1,0.1,0.1,0.1c0,0,0.1,0.1,0.1,0.1c0,0,0.1,0.1,0.1,0.1c0,0,0.1,0.1,0.1,0.1c0,0,0.1,0.1,0.1,0.1c0,0,0.1,0.1,0.1,0.1
		c0,0,0.1,0.1,0.1,0.1c0,0,0.1,0.1,0.1,0.1c0,0,0.1,0.1,0.1,0.1c0,0,0.1,0.1,0.1,0.1c0,0,0.1,0.1,0.1,0.1c0,0,0.1,0.1,0.1,0.1
		c0,0,0.1,0.1,0.1,0.1c0,0,0.1,0.1,0.1,0.1c0,0,0.1,0.1,0.1,0.1c0,0,0.1,0.1,0.1,0.1c0,0,0.1,0.1,0.1,0.1c0,0,0.1,0.1,0.1,0.1
		c0,0,0.1,0.1,0.1,0.1c0,0,0.1,0.1,0.1,0.1c0,0,0.1,0.1,0.1,0.1c0,0,0.1,0.1,0.1,0.1c0,0,0,0.1,0.1,0.1c0,0,0,0,0.1,0.1
		c0,0,0,0,0.1,0.1c0,0,0,0,0.1,0.1c0,0,0,0,0.1,0.1c0,0,0,0,0.1,0.1c0,0,0,0,0.1,0.1c0,0,0,0,0.1,0.1c0,0,0,0,0.1,0.1
		c0,0,0,0,0.1,0.1c0,0,0,0,0.1,0.1c0,0,0,0,0.1,0.1c0,0,0,0,0,0c0,0,0,0,0.1,0.1c0,0,0,0,0,0c0,0,0,0,0,0c0,0,0,0,0,0c0,0,0,0,0,0
		c0,0,0,0,0.1,0.1c0,0,0,0,0,0c0,0,0,0,0,0c0,0,0,0,0,0c0,0,0,0,0,0c0,0,0,0,0,0c0,0,0,0,0,0c0,0,0,0,0,0c0,0,0,0,0,0c0,0,0,0,0,0
		c0,0,0,0,0,0c0,0,0,0,0,0c0,0,0,0,0,0c0,0,0,0,0,0c0,0,0,0,0,0c0,0,0,0,0,0c0,0,0,0,0,0c0,0,0,0,0,0c0,0,0,0,0,0c0,0,0,0,0,0l0,0
		c0,0,0,0,0,0l0,0c0,0,0,0,0,0c0.1,0.1,0.2,0.2,0.3,0.2c0,0,0,0,0,0c0.1,0.1,0.2,0.1,0.3,0.2c0.2,0.1,0.5,0.1,0.7,0.1l14.8,0
		c9.3,0,16.9-7.6,16.9-16.9v-15.1c0-0.3-0.1-0.5-0.1-0.7c0,0,0,0,0,0c0-0.1-0.1-0.2-0.2-0.3c0,0,0,0,0,0l0,0c0,0,0,0,0,0
		c0,0,0,0,0,0c-0.1-0.1-0.1-0.2-0.2-0.3c0,0,0,0,0,0l0,0l0,0l0,0c0,0,0,0,0,0l0,0c0,0,0,0,0,0c0,0,0,0,0,0c0,0,0,0,0,0c0,0,0,0,0,0
		c0,0,0,0,0,0c0,0,0,0,0,0c0,0,0,0,0,0c0,0,0,0,0,0c0,0,0,0,0,0c0,0,0,0,0,0c0,0,0,0,0,0c0,0,0,0,0,0c0,0,0,0,0,0c0,0,0,0,0,0
		c0,0,0,0,0,0c0,0,0,0,0,0c0,0,0,0,0,0c0,0,0,0,0,0c0,0,0,0,0,0c0,0,0,0,0,0c0,0,0,0,0,0c0,0,0,0,0,0c0,0,0,0,0,0c0,0,0,0-0.1,0
		c0,0,0,0-0.1-0.1c0,0,0,0,0,0c0,0,0,0-0.1-0.1c0,0,0,0-0.1-0.1c0,0,0,0-0.1-0.1c0,0,0,0-0.1-0.1c0,0,0,0-0.1-0.1c0,0,0,0-0.1-0.1
		c0,0,0,0-0.1-0.1c0,0,0,0-0.1-0.1c0,0,0,0-0.1-0.1c0,0,0,0-0.1-0.1c0,0,0,0-0.1-0.1c0,0-0.1,0-0.1-0.1c0,0-0.1-0.1-0.1-0.1
		c0,0,0-0.1-0.1-0.1c0,0-0.1-0.1-0.1-0.1c0,0-0.1-0.1-0.1-0.1c0,0-0.1-0.1-0.1-0.1c0,0-0.1-0.1-0.1-0.1c0,0-0.1-0.1-0.1-0.1
		c0,0-0.1-0.1-0.1-0.1c0,0-0.1-0.1-0.1-0.1c0,0-0.1-0.1-0.1-0.1c0,0-0.1-0.1-0.1-0.1c0,0-0.1-0.1-0.1-0.1c0,0-0.1-0.1-0.1-0.1
		c0,0-0.1-0.1-0.1-0.1c0,0-0.1-0.1-0.1-0.1c0,0-0.1-0.1-0.1-0.1c0,0-0.1-0.1-0.1-0.1c0,0-0.1-0.1-0.1-0.1c0,0-0.1-0.1-0.1-0.1
		c0,0-0.1-0.1-0.1-0.1c0,0-0.1-0.1-0.1-0.1c0,0-0.1-0.1-0.1-0.1c0,0-0.1-0.1-0.1-0.1c0,0-0.1-0.1-0.1-0.1c0,0-0.1-0.1-0.1-0.1
		c0,0-0.1-0.1-0.1-0.1c0,0-0.1-0.1-0.1-0.1c0,0-0.1-0.1-0.1-0.1c0,0-0.1-0.1-0.1-0.1c0,0-0.1-0.1-0.1-0.1c0,0-0.1-0.1-0.1-0.1
		c0,0-0.1-0.1-0.1-0.1c0,0-0.1-0.1-0.1-0.1c0,0-0.1-0.1-0.1-0.1c0,0-0.1-0.1-0.1-0.1c0-0.1-0.1-0.1-0.1-0.1c0,0-0.1-0.1-0.1-0.1
		c0-0.1-0.1-0.1-0.1-0.1c0-0.1-0.1-0.1-0.1-0.1c0-0.1-0.1-0.1-0.1-0.1c0-0.1-0.1-0.1-0.1-0.2c0-0.1-0.1-0.1-0.2-0.2
		c0-0.1-0.1-0.1-0.2-0.2c0-0.1-0.1-0.1-0.2-0.2c0-0.1-0.1-0.1-0.2-0.2c-0.1-0.1-0.1-0.1-0.2-0.2c0-0.1-0.1-0.1-0.2-0.2
		c-0.1-0.1-0.1-0.1-0.2-0.2c-0.1-0.1-0.1-0.1-0.2-0.2c-0.1-0.1-0.1-0.1-0.2-0.2c-0.1-0.1-0.1-0.1-0.2-0.2c-0.1-0.1-0.1-0.1-0.2-0.2
		c-0.1-0.1-0.1-0.1-0.2-0.2c-0.1-0.1-0.1-0.1-0.2-0.2c-0.1-0.1-0.1-0.1-0.2-0.2c-0.1-0.1-0.1-0.1-0.2-0.2c-0.1-0.1-0.1-0.1-0.2-0.2
		c-0.1-0.1-0.1-0.1-0.2-0.2c-0.1-0.1-0.1-0.1-0.2-0.2c-0.1-0.1-0.1-0.1-0.2-0.2c-0.1-0.1-0.1-0.1-0.2-0.2c-0.1-0.1-0.1-0.1-0.2-0.2
		c-0.1-0.1-0.1-0.1-0.2-0.2c-0.1-0.1-0.1-0.1-0.2-0.2c-0.1-0.1-0.1-0.1-0.2-0.2c-0.1-0.1-0.1-0.1-0.2-0.2c-0.1-0.1-0.1-0.1-0.2-0.2
		c-0.1-0.1-0.1-0.1-0.2-0.2c-0.1-0.1-0.1-0.1-0.2-0.2c-0.1-0.1-0.1-0.1-0.2-0.2c-0.1-0.1-0.1-0.1-0.2-0.2c-0.1-0.1-0.1-0.1-0.2-0.2
		c-0.1-0.1-0.1-0.1-0.2-0.2c-0.1-0.1-0.1-0.1-0.2-0.2c-0.1-0.1-0.1-0.1-0.2-0.2c-0.1-0.1-0.1-0.1-0.2-0.2c-0.1-0.1-0.1-0.1-0.2-0.2
		c-0.1-0.1-0.1-0.2-0.2-0.2c-0.1-0.1-0.1-0.1-0.2-0.2c-0.1-0.1-0.1-0.2-0.2-0.2c-0.1-0.1-0.1-0.2-0.2-0.2c-0.1-0.1-0.1-0.2-0.2-0.2
		c-0.1-0.1-0.1-0.2-0.2-0.2c-0.1-0.1-0.1-0.2-0.2-0.2c-0.1-0.1-0.1-0.2-0.2-0.2c-0.1-0.1-0.1-0.2-0.2-0.2c-0.1-0.1-0.2-0.2-0.2-0.2
		c-0.1-0.1-0.1-0.2-0.2-0.2c-0.1-0.1-0.1-0.2-0.2-0.2c-0.1-0.1-0.2-0.2-0.2-0.2c-0.1-0.1-0.2-0.2-0.2-0.2c-0.1-0.1-0.2-0.2-0.2-0.2
		c-0.1-0.1-0.2-0.2-0.2-0.2c-0.1-0.1-0.2-0.2-0.3-0.2c-0.1-0.1-0.2-0.2-0.2-0.2c-0.1-0.1-0.2-0.2-0.3-0.3c-0.1-0.1-0.2-0.2-0.2-0.2
		c-0.1-0.1-0.2-0.2-0.3-0.3c-0.1-0.1-0.2-0.2-0.3-0.3c-0.1-0.1-0.2-0.2-0.3-0.3c-0.1-0.1-0.2-0.2-0.3-0.3c-0.1-0.1-0.2-0.2-0.3-0.3
		c-0.1-0.1-0.2-0.2-0.3-0.3c-0.1-0.1-0.2-0.2-0.3-0.3c-0.1-0.1-0.2-0.2-0.3-0.3c-0.1-0.1-0.2-0.2-0.3-0.3c-0.1-0.1-0.2-0.2-0.3-0.3
		c-0.1-0.1-0.2-0.2-0.3-0.3c-0.1-0.1-0.2-0.2-0.3-0.3c-0.1-0.1-0.2-0.2-0.3-0.3c-0.1-0.1-0.2-0.2-0.3-0.3c-0.1-0.1-0.2-0.2-0.3-0.3
		c-0.1-0.1-0.2-0.2-0.3-0.3c-0.1-0.1-0.2-0.2-0.3-0.3c-0.1-0.1-0.2-0.2-0.3-0.3c-0.1-0.1-0.2-0.2-0.3-0.3c-0.1-0.1-0.2-0.2-0.3-0.3
		c-0.1-0.1-0.2-0.2-0.3-0.3c-0.1-0.1-0.2-0.2-0.3-0.3c-0.1-0.1-0.2-0.2-0.3-0.3c-0.1-0.1-0.2-0.2-0.3-0.3c-0.1-0.1-0.2-0.2-0.3-0.3
		c-0.1-0.1-0.2-0.2-0.3-0.3c-0.1-0.1-0.2-0.2-0.3-0.3c-0.1-0.1-0.2-0.2-0.3-0.3c-0.1-0.1-0.2-0.2-0.3-0.3c-0.1-0.1-0.2-0.2-0.3-0.3
		c-0.1-0.1-0.2-0.2-0.3-0.3c-0.1-0.1-0.2-0.2-0.3-0.3c-0.1-0.1-0.2-0.2-0.3-0.3c-0.1-0.1-0.2-0.2-0.3-0.3c-0.1-0.1-0.2-0.2-0.3-0.3
		c-0.1-0.1-0.2-0.2-0.3-0.3c-0.1-0.1-0.2-0.2-0.3-0.3c-0.1-0.1-0.2-0.2-0.3-0.3c-0.1-0.1-0.2-0.2-0.3-0.3c-0.1-0.1-0.2-0.2-0.3-0.3
		c-0.1-0.1-0.2-0.2-0.3-0.3c-0.1-0.1-0.2-0.2-0.3-0.3c-0.1-0.1-0.2-0.2-0.3-0.3c-0.1-0.1-0.2-0.2-0.3-0.3c-0.1-0.1-0.2-0.2-0.3-0.3
		c-0.1-0.1-0.2-0.2-0.3-0.3c-0.1-0.1-0.2-0.2-0.3-0.3c-0.1-0.1-0.2-0.2-0.3-0.3c-0.1-0.1-0.2-0.2-0.3-0.3c-0.1-0.1-0.2-0.2-0.3-0.3
		c-0.1-0.1-0.2-0.2-0.3-0.3c-0.1-0.1-0.2-0.2-0.3-0.3c-0.1-0.1-0.2-0.2-0.4-0.4c-0.1-0.1-0.2-0.3-0.4-0.4c-0.1-0.1-0.2-0.2-0.3-0.3
		c-0.1-0.1-0.2-0.3-0.4-0.4c-0.1-0.1-0.2-0.3-0.4-0.4c-0.1-0.1-0.2-0.3-0.4-0.4c-0.1-0.1-0.2-0.3-0.4-0.4c-0.1-0.1-0.2-0.3-0.4-0.4
		c-0.1-0.1-0.2-0.3-0.4-0.4c-0.1-0.1-0.2-0.3-0.4-0.4c-0.1-0.1-0.2-0.3-0.4-0.4c-0.1-0.1-0.2-0.3-0.4-0.4c-0.1-0.1-0.2-0.3-0.4-0.4
		c-0.1-0.1-0.2-0.3-0.4-0.4c-0.1-0.1-0.2-0.3-0.4-0.4c-0.1-0.1-0.2-0.3-0.4-0.4c-0.1-0.1-0.2-0.3-0.4-0.4c-0.1-0.1-0.2-0.3-0.4-0.4
		c-0.1-0.1-0.2-0.3-0.4-0.4c-0.1-0.1-0.2-0.3-0.4-0.4c-0.1-0.1-0.2-0.3-0.4-0.4c-0.1-0.1-0.2-0.3-0.4-0.4c-0.1-0.1-0.2-0.3-0.4-0.4
		c-0.1-0.1-0.2-0.3-0.4-0.4c-0.1-0.1-0.2-0.3-0.4-0.4c-0.1-0.1-0.2-0.3-0.4-0.4c-0.1-0.2-0.2-0.3-0.4-0.4c-0.1-0.2-0.2-0.3-0.4-0.4
		c-0.1-0.2-0.2-0.3-0.4-0.4c-0.1-0.2-0.2-0.3-0.4-0.4c-0.1-0.2-0.2-0.3-0.4-0.4c-0.1-0.2-0.2-0.3-0.4-0.4c-0.1-0.2-0.3-0.3-0.4-0.4
		c-0.1-0.2-0.2-0.3-0.4-0.4c-0.1-0.2-0.3-0.3-0.4-0.4c-0.1-0.2-0.3-0.3-0.4-0.4c-0.1-0.2-0.3-0.3-0.4-0.4c-0.1-0.2-0.3-0.3-0.4-0.4
		c-0.1-0.2-0.3-0.3-0.4-0.4c-0.1-0.2-0.3-0.3-0.4-0.4c-0.1-0.2-0.3-0.3-0.4-0.4c-0.1-0.2-0.3-0.3-0.4-0.4c-0.1-0.2-0.3-0.3-0.4-0.4
		c-0.1-0.2-0.3-0.3-0.4-0.4c-0.1-0.2-0.3-0.3-0.4-0.4c-0.1-0.2-0.3-0.3-0.4-0.4c-0.1-0.2-0.3-0.3-0.4-0.4c-0.1-0.2-0.3-0.3-0.4-0.4
		c-0.1-0.2-0.3-0.3-0.4-0.4c-0.1-0.2-0.3-0.3-0.4-0.4c-0.1-0.2-0.3-0.3-0.4-0.4c-0.1-0.2-0.3-0.3-0.4-0.4c-0.1-0.2-0.3-0.3-0.4-0.4
		c-0.1-0.2-0.3-0.3-0.4-0.4c-0.1-0.2-0.3-0.3-0.4-0.4c-0.1-0.2-0.3-0.3-0.4-0.4c-0.1-0.2-0.3-0.3-0.4-0.4c-0.1-0.2-0.3-0.3-0.5-0.5
		c-0.1-0.2-0.3-0.3-0.4-0.4c-0.1-0.2-0.3-0.3-0.5-0.5c-0.1-0.2-0.3-0.3-0.5-0.5c-0.1-0.2-0.3-0.3-0.5-0.5c-0.1-0.2-0.3-0.3-0.5-0.5
		c-0.1-0.2-0.3-0.3-0.5-0.5c-0.1-0.2-0.3-0.3-0.5-0.5c-0.1-0.2-0.3-0.3-0.5-0.5c-0.1-0.2-0.3-0.3-0.5-0.5c-0.1-0.2-0.3-0.3-0.5-0.5
		c-0.1-0.2-0.3-0.4-0.5-0.5c-0.1-0.2-0.3-0.3-0.5-0.5c-0.1-0.2-0.3-0.4-0.5-0.5c-0.1-0.2-0.3-0.3-0.5-0.5c-0.1-0.2-0.3-0.4-0.5-0.5
		c-0.1-0.2-0.3-0.4-0.5-0.5c-0.1-0.2-0.3-0.3-0.5-0.5c0,0,0,0,0,0c0,0,0,0,0,0c-0.1-0.2-0.3-0.4-0.5-0.5c-0.1-0.2-0.3-0.3-0.5-0.5
		c0,0,0,0,0,0c0,0,0,0,0,0c-0.1-0.2-0.3-0.4-0.5-0.5l0,0l0,0c-0.1-0.2-0.3-0.4-0.5-0.5l0,0l0,0c-0.1-0.2-0.3-0.4-0.5-0.5
		c-0.1-0.2-0.3-0.4-0.5-0.5l0,0c-0.1-0.2-0.3-0.4-0.5-0.5v0c-0.1-0.2-0.3-0.4-0.5-0.5c-0.1-0.2-0.3-0.4-0.5-0.5
		c-0.1-0.2-0.3-0.4-0.5-0.5l0,0c-0.1-0.2-0.3-0.4-0.5-0.5c-0.1-0.2-0.3-0.4-0.5-0.5c-0.1-0.2-0.3-0.4-0.5-0.5
		c-0.1-0.2-0.3-0.4-0.5-0.5c-0.1-0.2-0.3-0.4-0.5-0.5c-0.1-0.2-0.3-0.4-0.5-0.5c-0.1-0.2-0.3-0.4-0.5-0.5c-0.1-0.2-0.3-0.4-0.5-0.5
		c-0.1-0.2-0.3-0.4-0.5-0.5c-0.1-0.2-0.3-0.4-0.5-0.5c-0.1-0.2-0.3-0.4-0.5-0.5c-0.1-0.2-0.3-0.4-0.5-0.5c-0.1-0.2-0.3-0.4-0.5-0.5
		c-0.1-0.2-0.3-0.4-0.5-0.5c-0.1-0.2-0.3-0.4-0.5-0.5c-0.1-0.2-0.3-0.4-0.5-0.5c-0.1-0.2-0.3-0.4-0.5-0.5c-0.1-0.2-0.3-0.4-0.5-0.5
		c-0.1-0.2-0.3-0.4-0.5-0.5c-0.1-0.2-0.3-0.4-0.5-0.5c-0.1-0.2-0.3-0.4-0.5-0.5c-0.1-0.2-0.3-0.4-0.5-0.5c-0.1-0.2-0.3-0.4-0.5-0.5
		c-0.1-0.2-0.3-0.4-0.5-0.5c-0.1-0.2-0.3-0.4-0.5-0.5c-0.1-0.2-0.3-0.4-0.5-0.5c-0.1-0.2-0.3-0.4-0.6-0.6c-0.1-0.2-0.3-0.4-0.6-0.6
		c-0.1-0.2-0.3-0.4-0.6-0.6c-0.1-0.2-0.3-0.4-0.6-0.6c-0.1-0.2-0.3-0.4-0.6-0.6c-0.1-0.2-0.3-0.4-0.6-0.6c-0.1-0.2-0.3-0.4-0.6-0.6
		c-0.1-0.2-0.3-0.4-0.6-0.6c-0.1-0.2-0.3-0.4-0.6-0.6c-0.1-0.2-0.3-0.4-0.6-0.6c-0.1-0.2-0.3-0.4-0.6-0.6c-0.1-0.2-0.3-0.4-0.6-0.6
		c-0.1-0.2-0.3-0.4-0.6-0.6c-0.1-0.2-0.3-0.4-0.6-0.6c-0.1-0.2-0.3-0.4-0.6-0.6c-0.1-0.2-0.3-0.4-0.6-0.6c-0.1-0.2-0.3-0.4-0.6-0.6
		c-0.1-0.2-0.3-0.4-0.6-0.6c-0.1-0.2-0.3-0.4-0.6-0.6c-0.1-0.2-0.4-0.4-0.6-0.6c-0.1-0.2-0.3-0.4-0.6-0.6c-0.1-0.2-0.3-0.4-0.6-0.6
		c-0.1-0.2-0.4-0.4-0.6-0.6c-0.1-0.2-0.4-0.4-0.6-0.6c-0.1-0.2-0.4-0.4-0.6-0.6c-0.2-0.2-0.4-0.4-0.6-0.6c-0.2-0.2-0.4-0.4-0.6-0.6
		c-0.2-0.2-0.4-0.4-0.6-0.6c-0.2-0.2-0.4-0.5-0.6-0.6c-0.2-0.2-0.4-0.5-0.6-0.6c-0.2-0.2-0.4-0.5-0.6-0.6c-0.2-0.2-0.4-0.5-0.6-0.6
		c-0.2-0.2-0.4-0.5-0.6-0.6c-0.2-0.2-0.4-0.5-0.6-0.6c-0.2-0.2-0.4-0.5-0.6-0.6c-0.2-0.3-0.4-0.5-0.6-0.6c-0.2-0.3-0.4-0.5-0.6-0.6
		c-0.2-0.3-0.4-0.5-0.6-0.6c-0.2-0.3-0.4-0.5-0.6-0.6c-0.2-0.3-0.4-0.5-0.6-0.6c-0.2-0.3-0.4-0.5-0.6-0.6c-0.2-0.3-0.4-0.5-0.6-0.6
		c-0.2-0.3-0.4-0.5-0.6-0.6c-0.2-0.3-0.4-0.5-0.6-0.6c-0.2-0.3-0.4-0.5-0.6-0.6c-0.2-0.3-0.4-0.5-0.6-0.6c-0.2-0.3-0.4-0.5-0.6-0.6
		c-0.2-0.3-0.4-0.5-0.6-0.6c-0.3-0.5-0.9-0.9-1.6-0.9h-1.3c0,0,0,0-0.1-0.1c-0.2-0.2-0.4-0.4-0.5-0.5c-0.2-0.2-0.3-0.3-0.5-0.5
		c-0.2-0.2-0.4-0.4-0.5-0.5c-0.2-0.2-0.3-0.4-0.5-0.5c-0.2-0.2-0.4-0.4-0.5-0.5c-0.2-0.2-0.3-0.3-0.5-0.5c-0.2-0.2-0.3-0.4-0.5-0.5
		c-0.2-0.2-0.4-0.4-0.5-0.5c-0.2-0.2-0.4-0.4-0.5-0.5c-0.2-0.2-0.4-0.4-0.5-0.5c-0.2-0.2-0.4-0.4-0.5-0.5c-0.2-0.2-0.4-0.4-0.5-0.5
		c-0.2-0.2-0.3-0.3-0.5-0.5c-0.2-0.2-0.4-0.4-0.6-0.6c-0.2-0.2-0.4-0.4-0.5-0.5c-0.2-0.2-0.4-0.4-0.5-0.5c-0.2-0.2-0.4-0.4-0.5-0.5
		c-0.2-0.2-0.4-0.4-0.6-0.6c-0.2-0.2-0.3-0.4-0.5-0.5c-0.2-0.2-0.4-0.4-0.6-0.6c-0.2-0.2-0.4-0.4-0.5-0.5c-0.2-0.2-0.4-0.4-0.6-0.6
		c-0.2-0.2-0.4-0.4-0.5-0.5c-0.2-0.2-0.4-0.4-0.6-0.6c-0.2-0.2-0.4-0.4-0.5-0.5c-0.2-0.2-0.4-0.4-0.6-0.6c-0.2-0.2-0.4-0.4-0.6-0.6
		c-0.2-0.2-0.4-0.4-0.6-0.6c-0.2-0.2-0.4-0.4-0.6-0.6c-0.2-0.2-0.4-0.4-0.6-0.6c-0.2-0.2-0.4-0.4-0.6-0.6c-0.2-0.2-0.4-0.4-0.6-0.6
		c-0.2-0.2-0.4-0.4-0.6-0.6c-0.2-0.2-0.4-0.4-0.6-0.6c-0.2-0.2-0.4-0.4-0.6-0.6c-0.2-0.2-0.4-0.4-0.6-0.6c-0.2-0.2-0.4-0.4-0.6-0.6
		c-0.2-0.2-0.4-0.4-0.6-0.6c-0.2-0.2-0.4-0.4-0.6-0.6c-0.2-0.2-0.4-0.4-0.6-0.6c-0.2-0.2-0.4-0.4-0.6-0.6c-0.2-0.2-0.4-0.4-0.6-0.6
		c-0.2-0.2-0.4-0.4-0.6-0.6c-0.2-0.2-0.4-0.4-0.6-0.6c-0.2-0.2-0.4-0.4-0.6-0.6c-0.2-0.2-0.4-0.4-0.6-0.6c-0.2-0.2-0.4-0.4-0.6-0.6
		c-0.2-0.2-0.4-0.4-0.6-0.6c-0.2-0.2-0.4-0.4-0.6-0.6c-0.2-0.2-0.4-0.4-0.6-0.6c-0.2-0.2-0.4-0.4-0.6-0.6c-0.2-0.2-0.4-0.4-0.6-0.6
		c-0.2-0.2-0.4-0.4-0.6-0.6c-0.2-0.2-0.4-0.4-0.6-0.6c-0.2-0.2-0.4-0.4-0.6-0.6c-0.2-0.2-0.4-0.4-0.6-0.6c-0.2-0.2-0.4-0.4-0.6-0.6
		c-0.2-0.2-0.4-0.4-0.6-0.6c-0.2-0.2-0.4-0.4-0.6-0.6c-0.2-0.2-0.4-0.4-0.6-0.6c-0.2-0.2-0.4-0.4-0.6-0.6c-0.2-0.2-0.4-0.4-0.6-0.6
		c-0.2-0.2-0.4-0.4-0.6-0.6c-0.2-0.2-0.4-0.4-0.6-0.6c-0.2-0.2-0.4-0.4-0.6-0.6c-0.2-0.2-0.4-0.4-0.7-0.7
		C-336.8,905.1-341.7,902.8-347.2,902.7L-347.2,902.7z"/>
	
		<path id="path10440" inkscape:connector-curvature="0" inkscape:export-ydpi="90" inkscape:export-xdpi="90" inkscape:export-filename="C:\Users\Simon\Documents\Material Design Icon Pack\PNG\g12049.png" class="st7" d="
		M-347.8,902.1c-5.1,0-10,2-13.6,5.6c-3.6,3.6-5.6,8.5-5.6,13.6c0,10.6,8.6,19.2,19.2,19.2c10.6,0,19.2-8.6,19.2-19.2
		C-328.6,910.7-337.2,902.1-347.8,902.1z M-309.3,946.2c-9.3,0-16.9,7.6-16.9,16.9v15c0,1,0.8,1.8,1.9,1.8l14.8,0
		c9.3,0,16.9-7.6,16.9-16.9V948c0-1-0.8-1.8-1.8-1.8L-309.3,946.2L-309.3,946.2z M-399.8,946.5c-1,0-1.8,0.8-1.8,1.8v15
		c0,9.3,7.6,16.9,16.9,16.9l51.7,0c0,0,0.1,0,0.1,0c1,0,1.8-0.8,1.8-1.8v-15c0-9.3-7.6-16.9-16.9-16.9H-399.8L-399.8,946.5z
		 M-362.8,985.1c-1,0-1.8,0.8-1.8,1.8v30.1c0,1,0.8,1.8,1.9,1.8l14.8,0c9.3,0,16.9-7.6,16.9-16.9v-15c0-1-0.8-1.8-1.8-1.8
		L-362.8,985.1L-362.8,985.1z"/>
	
		<path id="path4187" inkscape:connector-curvature="0" inkscape:export-ydpi="90" inkscape:export-xdpi="90" inkscape:export-filename="C:\Users\Simon\Documents\Material Design Icon Pack\PNG\g12049.png" class="st8" d="
		M-347.8,902.1c-5.1,0-10,2-13.6,5.6c-3.6,3.6-5.6,8.5-5.6,13.6c0,10.6,8.6,19.2,19.2,19.2c10.6,0,19.2-8.6,19.2-19.2
		C-328.6,910.7-337.2,902.1-347.8,902.1z M-309.3,946.2c-9.3,0-16.9,7.6-16.9,16.9v15c0,1,0.8,1.8,1.9,1.8l14.8,0
		c9.3,0,16.9-7.6,16.9-16.9V948c0-1-0.8-1.8-1.8-1.8L-309.3,946.2L-309.3,946.2z M-399.8,946.5c-1,0-1.8,0.8-1.8,1.8v15
		c0,9.3,7.6,16.9,16.9,16.9l51.7,0c0,0,0.1,0,0.1,0c1,0,1.8-0.8,1.8-1.8v-15c0-9.3-7.6-16.9-16.9-16.9H-399.8L-399.8,946.5z
		 M-362.8,985.1c-1,0-1.8,0.8-1.8,1.8v30.1c0,1,0.8,1.8,1.9,1.8l14.8,0c9.3,0,16.9-7.6,16.9-16.9v-15c0-1-0.8-1.8-1.8-1.8
		L-362.8,985.1L-362.8,985.1z"/>
	
		<path id="path4189" inkscape:connector-curvature="0" inkscape:export-ydpi="90" inkscape:export-xdpi="90" inkscape:export-filename="C:\Users\Simon\Documents\Material Design Icon Pack\PNG\g12049.png" class="st7" d="
		M-347.8,902.1c-5.1,0-10,2-13.6,5.6c-3.6,3.6-5.6,8.4-5.6,13.5c0,10.5,8.6,19.1,19.2,19.1c10.6,0,19.2-8.6,19.2-19.1
		C-328.6,910.7-337.2,902.1-347.8,902.1z M-309.3,945.8c-9.3,0-16.9,7.5-16.9,16.7v14.9c0,1,0.8,1.8,1.9,1.8l14.8,0
		c9.3,0,16.9-7.5,16.9-16.7v-14.9c0-1-0.8-1.8-1.8-1.8L-309.3,945.8L-309.3,945.8z M-399.8,946.1c-1,0-1.8,0.8-1.8,1.8v14.9
		c0,9.2,7.6,16.7,16.9,16.7l51.7,0c0,0,0.1,0,0.1,0c1,0,1.8-0.8,1.8-1.8v-14.9c0-9.2-7.6-16.7-16.9-16.7H-399.8L-399.8,946.1z
		 M-362.8,984.3c-1,0-1.8,0.8-1.8,1.8v29.8c0,1,0.8,1.8,1.9,1.8l14.8,0c9.3,0,16.9-7.5,16.9-16.7v-14.9c0-1-0.8-1.8-1.8-1.8
		L-362.8,984.3L-362.8,984.3z"/>
	
		<path id="path4839" inkscape:connector-curvature="0" inkscape:export-ydpi="90" inkscape:export-xdpi="90" inkscape:export-filename="C:\Users\Simon\Documents\Material Design Icon Pack\PNG\g12049.png" class="st9" d="
		M-347.8,903.1c-5.1,0-10,2-13.6,5.5c-3.6,3.6-5.6,8.3-5.6,13.4c0,10.4,8.6,18.9,19.2,18.9c10.6,0,19.2-8.5,19.2-18.9
		C-328.6,911.6-337.2,903.1-347.8,903.1z M-309.3,946.4c-9.3,0-16.9,7.4-16.9,16.6v14.8c0,1,0.8,1.8,1.9,1.8l14.8,0
		c9.3,0,16.9-7.4,16.9-16.6v-14.8c0-1-0.8-1.8-1.8-1.8L-309.3,946.4L-309.3,946.4z M-399.8,946.7c-1,0-1.8,0.8-1.8,1.8v14.8
		c0,9.1,7.6,16.6,16.9,16.6l51.7,0c0,0,0.1,0,0.1,0c1,0,1.8-0.8,1.8-1.8v-14.8c0-9.1-7.6-16.6-16.9-16.6H-399.8L-399.8,946.7z
		 M-362.8,984.6c-1,0-1.8,0.8-1.8,1.8v29.6c0,1,0.8,1.8,1.9,1.8l14.8,0c9.3,0,16.9-7.4,16.9-16.6v-14.8c0-1-0.8-1.8-1.8-1.8
		L-362.8,984.6L-362.8,984.6z"/>
</g>
<g id="layer4" inkscape:label="circle 1" inkscape:groupmode="layer" sodipodi:insensitive="true">
	
		<radialGradient id="circle10368_1_" cx="-643.8621" cy="1936.351" r="24.1392" gradientTransform="matrix(1.108162e-002 7.3021 7.28 -1.104815e-002 -14524.4932 5595.9307)" gradientUnits="userSpaceOnUse">
		<stop  offset="0" style="stop-color:#FFFFFF"/>
		<stop  offset="1" style="stop-color:#FFFFFF;stop-opacity:0"/>
	</radialGradient>
	
		<radialGradient id="circle10368_2_" cx="-643.8621" cy="1936.351" r="24.1392" gradientTransform="matrix(1.108180e-002 7.3021 7.28 -1.104826e-002 -14524.4932 5595.9326)" gradientUnits="userSpaceOnUse">
		<stop  offset="0" style="stop-color:#FFFFFF"/>
		<stop  offset="1" style="stop-color:#FFFFFF;stop-opacity:0"/>
	</radialGradient>
	
		<circle id="circle10368" inkscape:export-ydpi="90" inkscape:export-xdpi="90" inkscape:export-filename="C:\Users\Simon\Documents\Material Design Icon Pack\PNG\g12049.png" class="st10" cx="-347" cy="961" r="87.5">
	</circle>
</g>
</svg>
