<?xml version="1.0" encoding="UTF-8" standalone="no"?>
<!-- Created with Inkscape (http://www.inkscape.org/) -->

<svg
   xmlns:dc="http://purl.org/dc/elements/1.1/"
   xmlns:cc="http://creativecommons.org/ns#"
   xmlns:rdf="http://www.w3.org/1999/02/22-rdf-syntax-ns#"
   xmlns:svg="http://www.w3.org/2000/svg"
   xmlns="http://www.w3.org/2000/svg"
   xmlns:xlink="http://www.w3.org/1999/xlink"
   xmlns:sodipodi="http://sodipodi.sourceforge.net/DTD/sodipodi-0.dtd"
   xmlns:inkscape="http://www.inkscape.org/namespaces/inkscape"
   width="192"
   height="192"
   id="svg2"
   version="1.1"
   inkscape:version="0.91 r13725"
   sodipodi:docname="unicon.svg"
   inkscape:export-filename="C:\Users\Simon\Documents\Material Design Icon Pack\PNG\unicon.png"
   inkscape:export-xdpi="90"
   inkscape:export-ydpi="90">
  <sodipodi:namedview
     id="base"
     pagecolor="#ffffff"
     bordercolor="#666666"
     borderopacity="1.0"
     inkscape:pageopacity="0.0"
     inkscape:pageshadow="2"
     inkscape:zoom="3.75"
     inkscape:cx="208.58317"
     inkscape:cy="60.561443"
     inkscape:document-units="px"
     inkscape:current-layer="layer4"
     showgrid="true"
     showguides="false"
     inkscape:guide-bbox="true"
     inkscape:window-width="1920"
     inkscape:window-height="1017"
     inkscape:window-x="-8"
     inkscape:window-y="-8"
     inkscape:window-maximized="1"
     inkscape:snap-global="false">
    <inkscape:grid
       type="xygrid"
       id="grid2985"
       empspacing="5"
       visible="true"
       enabled="true"
       snapvisiblegridlinesonly="true" />
    <sodipodi:guide
       orientation="1,0"
       position="8,58.524064"
       id="guide3002" />
    <sodipodi:guide
       orientation="1,0"
       position="20,69.304813"
       id="guide3004" />
    <sodipodi:guide
       orientation="1,0"
       position="32,62.631016"
       id="guide3006" />
    <sodipodi:guide
       orientation="1,0"
       position="68,53.390374"
       id="guide3008" />
    <sodipodi:guide
       orientation="0,1"
       position="119.61497,8"
       id="guide3010" />
    <sodipodi:guide
       orientation="0,1"
       position="155.5508,20"
       id="guide3012" />
    <sodipodi:guide
       orientation="0,1"
       position="132.96257,32"
       id="guide3014" />
    <sodipodi:guide
       orientation="0,1"
       position="130.90909,68"
       id="guide3016" />
    <sodipodi:guide
       orientation="0,1"
       position="137.06952,184"
       id="guide3018" />
    <sodipodi:guide
       orientation="1,0"
       position="184,145.79679"
       id="guide3020" />
    <sodipodi:guide
       orientation="0,1"
       position="91.379679,172"
       id="guide3022" />
    <sodipodi:guide
       orientation="1,0"
       position="172.15693,140.10142"
       id="guide3024" />
    <sodipodi:guide
       orientation="0,1"
       position="149.39037,160"
       id="guide3026" />
    <sodipodi:guide
       orientation="1,0"
       position="160,88.299465"
       id="guide3028" />
    <sodipodi:guide
       orientation="0,1"
       position="128.34225,124"
       id="guide3030" />
    <sodipodi:guide
       orientation="1,0"
       position="124,92.919786"
       id="guide3032" />
  </sodipodi:namedview>
  <defs
     id="defs4">
    <linearGradient
       inkscape:collect="always"
       id="linearGradient6383">
      <stop
         style="stop-color:#263238;stop-opacity:1;"
         offset="0"
         id="stop6385" />
      <stop
         style="stop-color:#263238;stop-opacity:0;"
         offset="1"
         id="stop6387" />
    </linearGradient>
    <linearGradient
       inkscape:collect="always"
       id="linearGradient7772">
      <stop
         style="stop-color:#ffffff;stop-opacity:1;"
         offset="0"
         id="stop7774" />
      <stop
         style="stop-color:#ffffff;stop-opacity:0;"
         offset="1"
         id="stop7776" />
    </linearGradient>
    <linearGradient
       inkscape:collect="always"
       id="linearGradient7764">
      <stop
         style="stop-color:#ffffff;stop-opacity:1;"
         offset="0"
         id="stop7766" />
      <stop
         style="stop-color:#ffffff;stop-opacity:0;"
         offset="1"
         id="stop7768" />
    </linearGradient>
    <filter
       style="color-interpolation-filters:sRGB;"
       inkscape:label="Drop Shadow"
       id="filter7743">
      <feFlood
         flood-opacity="0.301961"
         flood-color="rgb(0,0,0)"
         result="flood"
         id="feFlood7745" />
      <feComposite
         in="flood"
         in2="SourceGraphic"
         operator="in"
         result="composite1"
         id="feComposite7747" />
      <feGaussianBlur
         in="composite1"
         stdDeviation="1.7"
         result="blur"
         id="feGaussianBlur7749" />
      <feOffset
         dx="4.57967e-015"
         dy="3"
         result="offset"
         id="feOffset7751" />
      <feComposite
         in="SourceGraphic"
         in2="offset"
         operator="over"
         result="composite2"
         id="feComposite7753" />
    </filter>
    <radialGradient
       inkscape:collect="always"
       xlink:href="#linearGradient7764"
       id="radialGradient7770"
       cx="20.009592"
       cy="20.198151"
       fx="20.009592"
       fy="20.198149"
       r="75.999997"
       gradientUnits="userSpaceOnUse"
       gradientTransform="matrix(0.00253475,1.9947837,-2.002355,0.00254437,60.402743,-19.768048)" />
    <radialGradient
       inkscape:collect="always"
       xlink:href="#linearGradient7772"
       id="radialGradient7778"
       cx="20.009592"
       cy="20.198151"
       fx="20.009592"
       fy="20.198151"
       r="75.999997"
       gradientUnits="userSpaceOnUse"
       gradientTransform="matrix(0.00253472,1.9947836,-2.0023549,0.00254435,60.40274,-19.768047)" />
    <filter
       id="filter9347"
       inkscape:label="Drop Shadow"
       style="color-interpolation-filters:sRGB;">
      <feFlood
         id="feFlood9349"
         result="flood"
         flood-color="rgb(0,0,0)"
         flood-opacity="0.101961" />
      <feComposite
         id="feComposite9351"
         result="composite1"
         operator="in"
         in2="SourceGraphic"
         in="flood" />
      <feGaussianBlur
         id="feGaussianBlur9353"
         result="blur"
         stdDeviation="3"
         in="composite1" />
      <feOffset
         id="feOffset9355"
         result="offset"
         dy="3"
         dx="4.57967e-015" />
      <feComposite
         id="feComposite9357"
         result="composite2"
         operator="over"
         in2="offset"
         in="SourceGraphic" />
    </filter>
    <linearGradient
       inkscape:collect="always"
       xlink:href="#linearGradient6383"
       id="linearGradient6389"
       x1="50.435024"
       y1="50.017513"
       x2="172"
       y2="171.88419"
       gradientUnits="userSpaceOnUse" />
    <filter
       style="color-interpolation-filters:sRGB;"
       inkscape:label="Drop Shadow"
       id="filter6425"
       y="-0.10000000000000001"
       height="1.3500000000000001"
       width="1.3"
       x="-0.16000000000000003">
      <feFlood
         flood-opacity="0.2"
         flood-color="rgb(38,50,56)"
         result="flood"
         id="feFlood6427" />
      <feComposite
         in="flood"
         in2="SourceGraphic"
         operator="in"
         result="composite1"
         id="feComposite6429" />
      <feGaussianBlur
         in="composite1"
         stdDeviation="6"
         result="blur"
         id="feGaussianBlur6431" />
      <feOffset
         dx="4.57967e-015"
         dy="6"
         result="offset"
         id="feOffset6433" />
      <feComposite
         in="SourceGraphic"
         in2="offset"
         operator="over"
         result="composite2"
         id="feComposite6435" />
    </filter>
    <clipPath
       clipPathUnits="userSpaceOnUse"
       id="clipPath6440">
      <rect
         ry="10.897427"
         y="20.500031"
         x="20.500031"
         height="150.99994"
         width="150.99994"
         id="rect6442"
         style="display:inline;opacity:0.1;fill:url(#radialGradient6444);fill-opacity:1;stroke:url(#radialGradient6446);stroke-width:1.00005436;stroke-linejoin:round;stroke-miterlimit:4;stroke-dasharray:none;stroke-opacity:1" />
    </clipPath>
    <radialGradient
       inkscape:collect="always"
       xlink:href="#linearGradient7764"
       id="radialGradient6444"
       gradientUnits="userSpaceOnUse"
       gradientTransform="matrix(0.00253475,1.9947837,-2.002355,0.00254437,60.402743,-19.768048)"
       cx="20.009592"
       cy="20.198151"
       fx="20.009592"
       fy="20.198149"
       r="75.999997" />
    <radialGradient
       inkscape:collect="always"
       xlink:href="#linearGradient7772"
       id="radialGradient6446"
       gradientUnits="userSpaceOnUse"
       gradientTransform="matrix(0.00253472,1.9947836,-2.0023549,0.00254435,60.40274,-19.768047)"
       cx="20.009592"
       cy="20.198151"
       fx="20.009592"
       fy="20.198151"
       r="75.999997" />
  </defs>
  <metadata
     id="metadata7">
    <rdf:RDF>
      <cc:Work
         rdf:about="">
        <dc:format>image/svg+xml</dc:format>
        <dc:type
           rdf:resource="http://purl.org/dc/dcmitype/StillImage" />
        <dc:title />
      </cc:Work>
    </rdf:RDF>
  </metadata>
  <g
     inkscape:groupmode="layer"
     id="layer6"
     inkscape:label="Square 2"
     style="display:inline">
    <rect
       ry="10.897427"
       y="20.500031"
       x="20.500031"
       height="150.99994"
       width="150.99994"
       id="rect7720"
       style="display:inline;fill:#8bc34a;fill-opacity:1;stroke:#8bc34a;stroke-width:1.00005436;stroke-linejoin:round;stroke-miterlimit:4;stroke-dasharray:none;stroke-opacity:1;filter:url(#filter7743)" />
  </g>
  <g
     inkscape:groupmode="layer"
     id="layer4"
     inkscape:label="Square"
     style="display:inline">
    <rect
       ry="10.827893"
       y="20.498438"
       x="20.498438"
       height="150.03645"
       width="151.00313"
       id="rect7755"
       style="opacity:0.2;fill:#339489;fill-opacity:1;stroke:#ffffff;stroke-width:0.99686927;stroke-linejoin:round;stroke-miterlimit:4;stroke-dasharray:none;stroke-opacity:1" />
    <rect
       ry="10.827893"
       y="21.465105"
       x="20.498438"
       height="150.03645"
       width="151.00313"
       id="rect7757"
       style="opacity:0.2;fill:#006d60;fill-opacity:1;stroke:#263238;stroke-width:0.99699998;stroke-linejoin:round;stroke-miterlimit:4;stroke-dasharray:none;stroke-opacity:1" />
    <rect
       style="fill:#8bc34a;fill-opacity:1;stroke:#8bc34a;stroke-width:0.99361873;stroke-linejoin:round;stroke-miterlimit:4;stroke-dasharray:none;stroke-opacity:1"
       id="rect3811"
       width="151.00638"
       height="149.05637"
       x="20.496813"
       y="21.46348"
       ry="10.757162" />
    <flowRoot
       style="font-style:normal;font-variant:normal;font-weight:normal;font-stretch:normal;font-size:40px;line-height:125%;font-family:roboto;-inkscape-font-specification:roboto;letter-spacing:0px;word-spacing:0px;fill:#000000;fill-opacity:1;stroke:none;stroke-width:1px;stroke-linecap:butt;stroke-linejoin:miter;stroke-opacity:1"
       id="flowRoot9367"
       xml:space="preserve"><flowRegion
         id="flowRegion9369"><rect
           style="font-style:normal;font-variant:normal;font-weight:normal;font-stretch:normal;font-family:roboto;-inkscape-font-specification:roboto"
           y="31.533901"
           x="31.866945"
           height="128.4106"
           width="128.97627"
           id="rect9371" /></flowRegion><flowPara
         id="flowPara9373" /></flowRoot>    <path
       style="fill:url(#linearGradient6389);fill-opacity:1;opacity:0.2"
       d="M 96.568359 48.568359 C 70.061692 48.568359 48.568359 70.061692 48.568359 96.568359 C 48.568359 109.97276 54.071792 122.08981 62.933594 130.79883 C 63.110975 130.97904 63.288561 131.15853 63.46875 131.33594 C 63.661031 131.53162 63.855195 131.72559 64.050781 131.91797 C 64.236119 132.10639 64.422923 132.29316 64.611328 132.47852 C 64.796655 132.66695 64.983481 132.85369 65.171875 133.03906 C 65.363931 133.23434 65.558557 133.42716 65.753906 133.61914 C 65.927452 133.79538 66.101111 133.97098 66.277344 134.14453 C 66.471324 134.3419 66.667892 134.53646 66.865234 134.73047 C 67.044584 134.91262 67.224031 135.09416 67.40625 135.27344 C 67.589406 135.45959 67.774786 135.64301 67.960938 135.82617 C 68.143453 136.01167 68.326229 136.19638 68.511719 136.37891 C 68.688098 136.55815 68.865765 136.73564 69.044922 136.91211 C 69.236658 137.10715 69.429979 137.30043 69.625 137.49219 C 69.796939 137.66676 69.969956 137.83978 70.144531 138.01172 C 70.329203 138.19951 70.515407 138.38556 70.703125 138.57031 C 70.882061 138.75213 71.062347 138.93237 71.244141 139.11133 C 71.425596 139.29572 71.608575 139.4787 71.792969 139.66016 C 71.976453 139.84653 72.161169 140.03148 72.347656 140.21484 C 72.514465 140.38413 72.682273 140.55194 72.851562 140.71875 C 73.03489 140.90517 73.21992 141.09001 73.40625 141.27344 C 73.58914 141.45923 73.77311 141.64337 73.958984 141.82617 C 74.130011 141.99972 74.302929 142.17085 74.476562 142.3418 C 74.646859 142.51477 74.81735 142.68703 74.990234 142.85742 C 75.171688 143.04192 75.354668 143.22469 75.539062 143.40625 C 75.714165 143.58409 75.890522 143.76044 76.068359 143.93555 C 76.247338 144.11732 76.427539 144.29765 76.609375 144.47656 C 76.779109 144.6488 76.950745 144.81861 77.123047 144.98828 C 77.296593 145.16452 77.470252 145.34012 77.646484 145.51367 C 77.81939 145.68925 77.99435 145.86225 78.169922 146.03516 C 78.336372 146.20417 78.502954 146.37252 78.671875 146.53906 C 78.855245 146.72544 79.040191 146.91037 79.226562 147.09375 C 79.392458 147.26202 79.560169 147.42794 79.728516 147.59375 C 79.894975 147.76275 80.061538 147.93112 80.230469 148.09766 C 80.405857 148.27585 80.581632 148.45346 80.759766 148.62891 C 80.934591 148.80635 81.111513 148.98153 81.289062 149.15625 C 81.446889 149.31629 81.60558 149.47499 81.765625 149.63281 C 81.944561 149.81463 82.124847 149.99487 82.306641 150.17383 C 82.46542 150.33486 82.624131 150.49551 82.785156 150.6543 C 82.958292 150.83017 83.132783 151.00454 83.308594 151.17773 C 83.475689 151.34729 83.64487 151.51457 83.814453 151.68164 C 83.985759 151.85546 84.158111 152.02801 84.332031 152.19922 C 84.486643 152.35597 84.642088 152.51139 84.798828 152.66602 C 84.974871 152.84485 85.15127 153.02315 85.330078 153.19922 C 85.485648 153.35695 85.643056 153.51239 85.800781 153.66797 C 85.971044 153.84087 86.141604 154.01328 86.314453 154.18359 C 86.478016 154.34951 86.642648 154.5142 86.808594 154.67773 C 86.976678 154.84824 87.145805 155.01756 87.316406 155.18555 C 87.467792 155.33898 87.620011 155.49118 87.773438 155.64258 C 87.946278 155.81811 88.12137 155.9912 88.296875 156.16406 C 88.449234 156.31849 88.601434 156.47264 88.755859 156.625 C 88.922587 156.79426 89.090559 156.96212 89.259766 157.12891 C 89.420763 157.29218 89.582788 157.45426 89.746094 157.61523 C 89.910976 157.78243 90.076838 157.9485 90.244141 158.11328 C 90.392319 158.26341 90.541274 158.41237 90.691406 158.56055 C 90.861959 158.73369 91.033885 158.90562 91.207031 159.07617 C 91.359746 159.23088 91.513179 159.38447 91.667969 159.53711 C 91.826106 159.69748 91.98612 159.85553 92.146484 160.01367 C 92.30398 160.17338 92.461389 160.33273 92.621094 160.49023 C 92.777947 160.64928 92.936658 160.80603 93.095703 160.96289 C 93.247389 161.11669 93.398999 161.27012 93.552734 161.42188 C 93.713356 161.58487 93.874188 161.74751 94.037109 161.9082 C 94.197155 162.07047 94.359158 162.23064 94.521484 162.39062 C 94.671621 162.54271 94.822468 162.69367 94.974609 162.84375 C 95.128895 163.00016 95.285001 163.1543 95.441406 163.30859 C 95.589231 163.45844 95.736949 163.60795 95.886719 163.75586 C 96.0509 163.92246 96.216229 164.08775 96.382812 164.25195 C 96.524557 164.3955 96.667016 164.53793 96.810547 164.67969 C 96.968547 164.84 97.126885 165.00012 97.287109 165.1582 C 97.4378 165.31093 97.589475 165.46257 97.742188 165.61328 C 97.893201 165.76635 98.046175 165.91732 98.199219 166.06836 C 98.351485 166.22269 98.503873 166.37703 98.658203 166.5293 C 98.807311 166.68037 98.958289 166.82942 99.109375 166.97852 C 99.264671 167.13589 99.420683 167.29204 99.578125 167.44727 C 99.716667 167.58751 99.855846 167.7267 99.996094 167.86523 C 100.14999 168.0213 100.30493 168.17612 100.46094 168.33008 C 100.61362 168.48475 100.76712 168.63842 100.92188 168.79102 C 101.06366 168.93452 101.20604 169.07703 101.34961 169.21875 C 101.49133 169.36232 101.63384 169.5047 101.77734 169.64648 C 101.92867 169.79992 102.08101 169.95212 102.23438 170.10352 C 102.38512 170.25622 102.53668 170.40791 102.68945 170.55859 C 102.82964 170.70046 102.97135 170.84035 103.11328 170.98047 C 103.25211 171.12109 103.39071 171.26149 103.53125 171.40039 C 103.68128 171.55251 103.83234 171.7034 103.98438 171.85352 C 104.13384 172.00489 104.28409 172.1553 104.43555 172.30469 C 104.57283 172.44358 104.71065 172.58153 104.84961 172.71875 C 104.98714 172.85803 105.12446 172.99717 105.26367 173.13477 C 105.41146 173.28456 105.5612 173.43223 105.71094 173.58008 C 105.85751 173.72848 106.00386 173.87695 106.15234 174.02344 C 106.28737 174.16002 106.4239 174.29473 106.56055 174.42969 C 106.69584 174.56667 106.83183 174.70254 106.96875 174.83789 C 107.11365 174.98473 107.25948 175.13042 107.40625 175.27539 C 107.54507 175.41593 107.68369 175.55648 107.82422 175.69531 C 107.9627 175.83552 108.102 175.97478 108.24219 176.11328 C 108.38067 176.25349 108.51997 176.39275 108.66016 176.53125 C 108.80442 176.6773 108.94958 176.82259 109.0957 176.9668 C 109.22104 177.09353 109.34788 177.21841 109.47461 177.34375 C 109.62211 177.4932 109.77049 177.64155 109.91992 177.78906 C 110.05108 177.9217 110.18176 178.05444 110.31445 178.18555 C 110.45009 178.32282 110.58734 178.45811 110.72461 178.59375 C 110.8596 178.73036 110.99425 178.86696 111.13086 179.00195 C 111.25938 179.13202 111.38954 179.26008 111.51953 179.38867 C 111.66538 179.53641 111.81125 179.68423 111.95898 179.83008 C 112.0866 179.95908 112.21469 180.08729 112.34375 180.21484 C 112.47163 180.34424 112.60113 180.47166 112.73047 180.59961 C 112.86862 180.73951 113.00663 180.87937 113.14648 181.01758 C 113.28342 181.1561 113.42195 181.29284 113.56055 181.42969 C 113.68009 181.5505 113.79911 181.67147 113.91992 181.79102 C 114.06162 181.93452 114.20417 182.07704 114.34766 182.21875 C 114.46751 182.33989 114.58785 182.46022 114.70898 182.58008 C 114.8439 182.71668 114.9787 182.8533 115.11523 182.98828 C 115.245 183.11954 115.37655 183.24914 115.50781 183.37891 C 115.64184 183.51445 115.77648 183.64925 115.91211 183.7832 C 116.02843 183.90073 116.14615 184.01649 116.26367 184.13281 C 116.40318 184.27405 116.54236 184.41518 116.68359 184.55469 C 116.7983 184.67056 116.91343 184.78568 117.0293 184.90039 C 117.16193 185.03466 117.29549 185.16807 117.42969 185.30078 C 117.55559 185.4281 117.68128 185.55573 117.80859 185.68164 C 117.93386 185.8083 118.06084 185.93333 118.1875 186.05859 C 118.31835 186.19089 118.44966 186.32234 118.58203 186.45312 C 118.69416 186.56637 118.80668 186.67888 118.91992 186.79102 C 119.05006 186.92274 119.18085 187.05338 119.3125 187.18359 C 119.43583 187.30828 119.55891 187.43331 119.68359 187.55664 C 119.80567 187.68005 119.92933 187.80174 120.05273 187.92383 C 120.18157 188.05408 120.31109 188.18372 120.44141 188.3125 C 120.55711 188.42934 120.67412 188.54451 120.79102 188.66016 C 120.91218 188.78262 121.03378 188.90423 121.15625 189.02539 C 121.2719 189.14229 121.38707 189.25929 121.50391 189.375 C 121.62887 189.5014 121.75451 189.62694 121.88086 189.75195 C 122.00098 189.87335 122.12079 189.99512 122.24219 190.11523 C 122.36688 190.24123 122.49307 190.36562 122.61914 190.49023 C 122.72547 190.59756 122.83213 190.70422 122.93945 190.81055 C 123.06829 190.94088 123.19781 191.07036 123.32812 191.19922 C 123.43509 191.30721 123.54241 191.41451 123.65039 191.52148 C 123.77309 191.64558 123.89549 191.76982 124.01953 191.89258 C 124.13518 192.00941 124.25231 192.12459 124.36914 192.24023 C 124.49097 192.36332 124.61318 192.48565 124.73633 192.60742 C 124.83943 192.71147 124.94284 192.81487 125.04688 192.91797 C 125.17375 193.04628 125.30138 193.1739 125.42969 193.30078 C 125.53798 193.41005 125.64653 193.51872 125.75586 193.62695 C 125.8696 193.74185 125.98472 193.855 126.09961 193.96875 C 126.21271 194.08299 126.32522 194.19744 126.43945 194.31055 C 126.54575 194.4179 126.65247 194.5245 126.75977 194.63086 C 126.8773 194.7497 126.99452 194.86872 127.11328 194.98633 C 127.2254 195.09957 127.33793 195.21209 127.45117 195.32422 C 127.56749 195.44168 127.68522 195.55757 127.80273 195.67383 C 127.90779 195.77982 128.0131 195.88522 128.11914 195.99023 C 128.22286 196.09496 128.32697 196.19896 128.43164 196.30273 C 128.54725 196.4196 128.6625 196.53667 128.7793 196.65234 C 128.89432 196.76848 129.01075 196.88308 129.12695 196.99805 C 129.2236 197.09552 129.32049 197.19242 129.41797 197.28906 C 129.53166 197.40395 129.64493 197.51908 129.75977 197.63281 C 129.86637 197.74042 129.97246 197.84847 130.08008 197.95508 C 130.1873 198.06331 130.29606 198.17013 130.4043 198.27734 C 130.51577 198.38986 130.62766 198.50187 130.74023 198.61328 C 130.83364 198.70746 130.92731 198.80112 131.02148 198.89453 C 131.13869 199.01296 131.25657 199.13083 131.375 199.24805 C 131.47359 199.34745 131.57242 199.44638 131.67188 199.54492 C 131.77593 199.64994 131.88131 199.75336 131.98633 199.85742 C 132.08974 199.96179 132.19251 200.06651 132.29688 200.16992 C 132.39348 200.26741 132.49046 200.36428 132.58789 200.46094 C 132.70252 200.57674 132.8178 200.692 132.93359 200.80664 C 133.02377 200.89754 133.11418 200.98795 133.20508 201.07812 C 133.31199 201.1861 133.41942 201.29343 133.52734 201.40039 C 133.62812 201.50206 133.72841 201.6043 133.83008 201.70508 C 133.93085 201.80675 134.03309 201.90704 134.13477 202.00781 C 134.2398 202.11376 134.34516 202.21925 134.45117 202.32422 C 134.53876 202.41249 134.62657 202.5003 134.71484 202.58789 C 134.81918 202.69324 134.924 202.79796 135.0293 202.90234 C 135.13303 203.00699 135.23711 203.11115 135.3418 203.21484 C 135.43362 203.30737 135.52657 203.39846 135.61914 203.49023 C 135.71027 203.58215 135.80072 203.67445 135.89258 203.76562 C 135.99497 203.869 136.09785 203.97177 136.20117 204.07422 C 136.29714 204.17101 136.39345 204.26731 136.49023 204.36328 C 136.59139 204.4653 136.69286 204.56686 136.79492 204.66797 C 136.88416 204.75787 136.97451 204.84635 137.06445 204.93555 C 137.15883 205.03072 137.25249 205.12632 137.34766 205.2207 C 137.44139 205.31522 137.53635 205.40822 137.63086 205.50195 C 137.71811 205.58993 137.80465 205.67832 137.89258 205.76562 C 137.99755 205.87157 138.10304 205.97706 138.20898 206.08203 C 138.28947 206.16309 138.37011 206.24374 138.45117 206.32422 C 138.54873 206.42266 138.64574 206.52154 138.74414 206.61914 C 138.83527 206.71099 138.92767 206.80146 139.01953 206.89258 C 139.11584 206.98966 139.21146 207.08734 139.30859 207.18359 C 139.38616 207.26169 139.46487 207.33845 139.54297 207.41602 C 139.64441 207.51838 139.7453 207.62121 139.84766 207.72266 C 139.92457 207.8001 140.00264 207.8762 140.08008 207.95312 C 140.1747 208.0486 140.26981 208.1436 140.36523 208.23828 C 140.45248 208.32621 140.53903 208.4147 140.62695 208.50195 C 140.71514 208.59083 140.80371 208.67939 140.89258 208.76758 C 140.98533 208.86104 141.07836 208.95417 141.17188 209.04688 C 141.24621 209.1217 141.32166 209.1952 141.39648 209.26953 C 141.48792 209.36175 141.5797 209.45344 141.67188 209.54492 C 141.75654 209.63023 141.84049 209.71611 141.92578 209.80078 C 142.01076 209.88641 142.09603 209.97166 142.18164 210.05664 C 142.26597 210.14161 142.35059 210.22621 142.43555 210.31055 C 142.5254 210.40107 142.61646 210.49027 142.70703 210.58008 C 142.77813 210.65162 142.84837 210.72382 142.91992 210.79492 C 143.00811 210.88385 143.09667 210.97231 143.18555 211.06055 C 143.2673 211.14289 143.3493 211.22489 143.43164 211.30664 C 143.51274 211.38833 143.5941 211.46967 143.67578 211.55078 C 143.75721 211.63281 143.83986 211.71348 143.92188 211.79492 C 144.0085 211.88216 144.09435 211.97006 144.18164 212.05664 C 144.24951 212.12491 144.31845 212.1919 144.38672 212.25977 C 144.47168 212.34541 144.55503 212.43257 144.64062 212.51758 C 144.71944 212.59694 144.79955 212.67509 144.87891 212.75391 C 144.95678 212.83232 145.03487 212.91041 145.11328 212.98828 C 145.19761 213.0732 145.28223 213.1579 145.36719 213.24219 C 145.43182 213.30719 145.4975 213.37092 145.5625 213.43555 C 145.65171 213.52547 145.74016 213.61586 145.83008 213.70508 C 145.89373 213.76909 145.95748 213.83283 146.02148 213.89648 C 146.10288 213.97851 146.18364 214.06113 146.26562 214.14258 C 146.34121 214.21866 146.41805 214.29356 146.49414 214.36914 C 146.57431 214.44983 146.65559 214.52926 146.73633 214.60938 C 146.79772 214.6711 146.8582 214.73353 146.91992 214.79492 C 147.00555 214.8812 147.09146 214.96711 147.17773 215.05273 C 147.24464 215.12 147.31161 215.18704 147.37891 215.25391 C 147.4513 215.32676 147.5248 215.39831 147.59766 215.4707 C 147.6694 215.54291 147.7403 215.61575 147.8125 215.6875 C 147.8836 215.75905 147.9558 215.82929 148.02734 215.90039 C 148.09196 215.96541 148.15572 216.03106 148.2207 216.0957 C 148.29693 216.17249 148.37247 216.2499 148.44922 216.32617 C 148.52484 216.40226 148.60161 216.47715 148.67773 216.55273 C 148.74075 216.61607 148.80382 216.6792 148.86719 216.74219 C 148.92953 216.8049 148.99201 216.86731 149.05469 216.92969 C 149.12899 217.00453 149.20255 217.07995 149.27734 217.1543 C 149.35101 217.2284 149.42586 217.30138 149.5 217.375 C 149.55458 217.42985 149.60922 217.48448 149.66406 217.53906 C 149.73642 217.61192 149.80804 217.68542 149.88086 217.75781 C 149.94674 217.82408 150.01381 217.88919 150.08008 217.95508 C 150.14565 218.02103 150.2114 218.08678 150.27734 218.15234 C 150.34812 218.22353 150.41901 218.29449 150.49023 218.36523 C 150.54158 218.41681 150.59296 218.46819 150.64453 218.51953 C 150.72109 218.59661 150.79793 218.67344 150.875 218.75 C 150.93187 218.80713 150.98972 218.86308 151.04688 218.91992 C 151.10956 218.98296 151.17134 219.04669 151.23438 219.10938 C 151.29641 219.17176 151.3595 219.23288 151.42188 219.29492 C 151.47677 219.35012 151.53077 219.40601 151.58594 219.46094 C 151.65991 219.5354 151.73414 219.60962 151.80859 219.68359 C 151.8567 219.7319 151.90482 219.78002 151.95312 219.82812 C 152.01901 219.89443 152.08412 219.96142 152.15039 220.02734 C 152.2098 220.08707 152.27035 220.14566 152.33008 220.20508 C 152.38918 220.26448 152.44841 220.32371 152.50781 220.38281 C 152.57212 220.44745 152.6365 220.5119 152.70117 220.57617 C 152.74603 220.62121 152.7909 220.66607 152.83594 220.71094 C 152.89986 220.77526 152.96306 220.84033 153.02734 220.9043 C 153.0907 220.96797 153.15504 221.03043 153.21875 221.09375 C 153.26816 221.14335 153.31756 221.1928 153.36719 221.24219 C 153.41624 221.29148 153.46441 221.34154 153.51367 221.39062 C 153.57534 221.45267 153.63722 221.51447 153.69922 221.57617 C 153.76028 221.63752 153.82143 221.69874 153.88281 221.75977 C 153.93027 221.80739 153.97774 221.85492 154.02539 221.90234 C 154.07282 221.95 154.12034 221.99747 154.16797 222.04492 C 154.23354 222.11087 154.29928 222.17662 154.36523 222.24219 C 154.41107 222.28819 154.45788 222.33309 154.50391 222.37891 C 154.54907 222.42428 154.59333 222.47043 154.63867 222.51562 C 154.70263 222.57995 154.76771 222.64307 154.83203 222.70703 C 154.87072 222.74586 154.90844 222.78553 154.94727 222.82422 C 155.00343 222.88069 155.05879 222.93795 155.11523 222.99414 C 155.16524 223.04436 155.2154 223.09453 155.26562 223.14453 C 155.32117 223.20031 155.37778 223.25504 155.43359 223.31055 C 155.47554 223.35263 155.51844 223.39362 155.56055 223.43555 C 155.60247 223.47765 155.64347 223.52055 155.68555 223.5625 C 155.73912 223.61636 155.79188 223.67101 155.8457 223.72461 C 155.8928 223.7719 155.94099 223.81814 155.98828 223.86523 C 156.03442 223.91157 156.08062 223.95776 156.12695 224.00391 C 156.1731 224.05024 156.21929 224.09643 156.26562 224.14258 C 156.31761 224.19478 156.36965 224.24687 156.42188 224.29883 C 156.45375 224.33079 156.48562 224.36266 156.51758 224.39453 C 156.56825 224.44545 156.61903 224.49618 156.66992 224.54688 C 156.71347 224.59059 156.75706 224.63418 156.80078 224.67773 C 156.844 224.72112 156.88631 224.76537 156.92969 224.80859 C 156.97257 224.85164 157.01555 224.89461 157.05859 224.9375 C 157.10701 224.9861 157.15646 225.03364 157.20508 225.08203 C 157.23435 225.11138 157.26362 225.14065 157.29297 225.16992 C 157.34007 225.21724 157.3863 225.26538 157.43359 225.3125 C 157.47389 225.35294 157.51425 225.3933 157.55469 225.43359 C 157.59466 225.47371 157.63567 225.51276 157.67578 225.55273 C 157.71544 225.59253 157.75512 225.63221 157.79492 225.67188 C 157.84043 225.71754 157.88595 225.76311 157.93164 225.80859 C 157.95702 225.83403 157.98238 225.85939 158.00781 225.88477 C 158.052 225.92915 158.09626 225.97336 158.14062 226.01758 C 158.17769 226.05477 158.21477 226.09184 158.25195 226.12891 C 158.28869 226.16576 158.32448 226.2035 158.36133 226.24023 C 158.39805 226.27708 158.43581 226.31289 158.47266 226.34961 C 158.51459 226.39167 158.55557 226.43465 158.59766 226.47656 C 158.61945 226.4984 158.64223 226.51922 158.66406 226.54102 C 158.70534 226.58247 158.74568 226.62471 158.78711 226.66602 C 158.82124 226.70025 158.85639 226.73345 158.89062 226.76758 C 158.9241 226.80116 158.95666 226.83566 158.99023 226.86914 C 159.02989 226.90891 159.06958 226.94865 159.10938 226.98828 C 159.12857 227.00751 159.14874 227.02573 159.16797 227.04492 C 159.21281 227.08995 159.25771 227.13484 159.30273 227.17969 C 159.32096 227.19795 159.33916 227.21615 159.35742 227.23438 C 159.39481 227.27191 159.43124 227.31025 159.46875 227.34766 C 159.50581 227.38482 159.5429 227.42195 159.58008 227.45898 C 159.60318 227.48212 159.62724 227.50425 159.65039 227.52734 C 159.67316 227.55017 159.69593 227.57292 159.71875 227.5957 C 159.75386 227.63094 159.789 227.66604 159.82422 227.70117 C 159.8587 227.73574 159.89315 227.77022 159.92773 227.80469 C 159.94889 227.82587 159.96904 227.848 159.99023 227.86914 C 160.01723 227.8962 160.04521 227.92223 160.07227 227.94922 C 160.09211 227.96911 160.11098 227.98991 160.13086 228.00977 C 160.17018 228.04922 160.21055 228.08764 160.25 228.12695 C 160.26238 228.13934 160.27472 228.15168 160.28711 228.16406 C 160.31831 228.19537 160.34762 228.22854 160.37891 228.25977 C 160.40329 228.2842 160.42869 228.30765 160.45312 228.33203 C 160.47654 228.3555 160.49997 228.37892 160.52344 228.40234 C 160.55369 228.43266 160.5849 228.46195 160.61523 228.49219 C 160.62468 228.50164 160.63313 228.51204 160.64258 228.52148 C 160.67768 228.5567 160.71284 228.59185 160.74805 228.62695 C 160.76335 228.64227 160.7796 228.65658 160.79492 228.67188 C 160.81607 228.69306 160.83624 228.71518 160.85742 228.73633 C 160.87792 228.75686 160.89939 228.77638 160.91992 228.79688 C 160.93326 228.81024 160.94563 228.82454 160.95898 228.83789 C 160.99149 228.87049 161.02404 228.90304 161.05664 228.93555 C 161.0625 228.94141 161.06836 228.94727 161.07422 228.95312 C 161.09925 228.97823 161.12335 229.00425 161.14844 229.0293 C 161.16633 229.04722 161.18521 229.06414 161.20312 229.08203 C 161.22036 229.09929 161.23664 229.11753 161.25391 229.13477 C 161.27765 229.15854 161.30238 229.18135 161.32617 229.20508 C 161.32878 229.20768 161.33138 229.21029 161.33398 229.21289 C 161.36324 229.24222 161.39254 229.27153 161.42188 229.30078 C 161.43002 229.30893 161.43911 229.31608 161.44727 229.32422 C 161.46191 229.33888 161.47557 229.35449 161.49023 229.36914 C 161.49739 229.37631 161.50456 229.38346 161.51172 229.39062 C 161.5322 229.41116 161.55175 229.43263 161.57227 229.45312 C 161.59731 229.4782 161.62334 229.50233 161.64844 229.52734 C 161.65494 229.53386 161.66146 229.54036 161.66797 229.54688 C 161.68489 229.56383 161.7018 229.58073 161.71875 229.59766 C 161.73503 229.61395 161.75128 229.63021 161.76758 229.64648 C 161.7871 229.66604 161.80662 229.68555 161.82617 229.70508 C 161.83855 229.71747 161.85285 229.73176 161.86523 229.74414 C 161.86523 229.74414 161.86719 229.74609 161.86719 229.74609 C 161.87468 229.75359 161.88118 229.76204 161.88867 229.76953 C 161.89616 229.77702 161.90462 229.78353 161.91211 229.79102 C 161.92254 229.80145 161.93292 229.81184 161.94336 229.82227 C 161.94466 229.82357 161.94597 229.82487 161.94727 229.82617 C 161.95509 229.834 161.96287 229.84178 161.9707 229.84961 C 161.97234 229.85124 161.97298 229.85383 161.97461 229.85547 C 161.9785 229.85936 161.98244 229.8633 161.98633 229.86719 C 161.98893 229.86979 161.99154 229.8724 161.99414 229.875 C 161.99643 229.87728 161.99967 229.87858 162.00195 229.88086 C 162.00359 229.8825 162.00422 229.88508 162.00586 229.88672 C 162.00586 229.88672 162.00781 229.88867 162.00781 229.88867 C 162.00977 229.89062 162.01172 229.89258 162.01367 229.89453 C 162.01562 229.89648 162.01758 229.89844 162.01953 229.90039 C 162.02082 229.90168 162.0241 229.90496 162.02539 229.90625 C 162.02571 229.90657 162.02703 229.90593 162.02734 229.90625 C 162.02863 229.90753 162.02997 229.90887 162.03125 229.91016 C 162.03255 229.91146 162.03386 229.91276 162.03516 229.91406 C 162.03516 229.91406 162.03516 229.91602 162.03516 229.91602 C 162.03516 229.91602 162.03711 229.91797 162.03711 229.91797 C 162.03906 229.91991 162.04102 229.92188 162.04297 229.92383 C 162.04427 229.92513 162.04557 229.92643 162.04688 229.92773 C 162.04719 229.92805 162.04851 229.92742 162.04883 229.92773 C 162.04942 229.92832 162.05019 229.9291 162.05078 229.92969 C 162.05177 229.93067 162.05175 229.93261 162.05273 229.93359 C 162.05273 229.93359 162.05469 229.93555 162.05469 229.93555 C 162.05469 229.93555 162.05664 229.9375 162.05664 229.9375 C 162.05729 229.93815 162.05794 229.9388 162.05859 229.93945 C 162.26247 230.1431 162.47805 230.33518 162.68555 230.53516 C 162.94891 230.78926 163.21137 231.04489 163.48047 231.29297 C 163.51096 231.32106 163.53975 231.35089 163.57031 231.37891 C 163.61346 231.41841 163.65397 231.46065 163.69727 231.5 C 163.70067 231.5031 163.70363 231.50667 163.70703 231.50977 C 164.25421 232.00767 164.81494 232.49038 165.38477 232.96289 C 165.41104 232.98467 165.43461 233.00952 165.46094 233.03125 C 165.46235 233.03242 165.46343 233.03399 165.46484 233.03516 C 165.46593 233.03605 165.46766 233.03621 165.46875 233.03711 C 166.06037 233.52529 166.66439 234.00106 167.2793 234.46094 C 167.28003 234.46149 167.28052 234.46234 167.28125 234.46289 C 167.89514 234.92196 168.52015 235.36505 169.15625 235.79492 C 169.157 235.79543 169.15745 235.79637 169.1582 235.79688 C 169.15896 235.79738 169.1594 235.79832 169.16016 235.79883 C 169.16135 235.79963 169.16287 235.79998 169.16406 235.80078 C 169.79988 236.23017 170.44652 236.64374 171.10352 237.04297 C 171.10429 237.04344 171.1047 237.04445 171.10547 237.04492 C 171.10624 237.04539 171.10665 237.04641 171.10742 237.04688 C 171.10866 237.04763 171.11009 237.04808 171.11133 237.04883 C 171.7699 237.44893 172.44029 237.83432 173.11914 238.20312 C 173.76606 238.55463 174.42344 238.8907 175.08789 239.21289 C 175.12149 239.22918 175.15385 239.24746 175.1875 239.26367 C 175.18881 239.2643 175.19009 239.26499 175.19141 239.26562 C 175.8896 239.60201 176.59798 239.92153 177.31445 240.22461 C 177.31525 240.22495 177.31561 240.22623 177.31641 240.22656 C 178.03346 240.52984 178.75979 240.81506 179.49414 241.08398 C 179.49494 241.08428 179.4953 241.08565 179.49609 241.08594 C 184.64213 242.97041 190.20167 244 196 244 C 200.42667 244 204 240.42667 204 236 C 204 235.21912 203.88436 234.46727 203.67578 233.75781 C 203.60681 233.52295 203.52881 233.2918 203.43945 233.06641 C 203.43892 233.06505 203.43804 233.06385 203.4375 233.0625 C 203.07756 232.15743 202.55897 231.33221 201.91992 230.61328 C 201.91872 230.61192 201.91722 230.61074 201.91602 230.60938 C 201.91481 230.60801 201.91332 230.60684 201.91211 230.60547 C 201.60827 230.26106 201.33149 229.88679 201.08594 229.48828 C 200.96219 229.28745 200.84505 229.0799 200.73828 228.86719 C 200.7379 228.86642 200.73671 228.866 200.73633 228.86523 C 200.62994 228.65329 200.5334 228.43538 200.44531 228.21289 C 200.44501 228.21213 200.44366 228.2117 200.44336 228.21094 C 200.26713 227.76497 200.13111 227.2992 200.03711 226.81836 C 199.94294 226.33669 199.89258 225.8387 199.89258 225.33203 C 199.89258 220.90537 203.46592 217.33203 207.89258 217.33203 L 217.33203 217.33203 C 232.05203 217.33203 244 205.38602 244 190.66602 C 244 185.50935 242.97041 180.56714 241.08594 175.99219 C 241.08561 175.99139 241.08431 175.99103 241.08398 175.99023 C 240.81533 175.33801 240.52951 174.69153 240.22656 174.05469 C 240.22594 174.05337 240.22523 174.0521 240.22461 174.05078 C 239.92134 173.41345 239.60224 172.78511 239.26562 172.16406 C 239.2652 172.16328 239.2641 172.16289 239.26367 172.16211 C 238.92702 171.5411 238.57407 170.92805 238.20508 170.32422 C 238.20461 170.32345 238.20359 170.32303 238.20312 170.32227 C 237.83405 169.71848 237.44924 169.12282 237.04883 168.53711 C 237.04832 168.53636 237.04739 168.53591 237.04688 168.53516 C 236.64647 167.94945 236.23152 167.37339 235.80078 166.80664 C 235.80023 166.80591 235.79938 166.80541 235.79883 166.80469 C 235.79772 166.80323 235.79603 166.80224 235.79492 166.80078 C 235.36514 166.23559 234.92185 165.67826 234.46289 165.13281 C 234.4623 165.13211 234.46153 165.13156 234.46094 165.13086 C 234.45799 165.12735 234.45412 165.1246 234.45117 165.12109 C 233.99398 164.57775 233.52227 164.04435 233.03711 163.52148 C 233.03648 163.52081 233.03578 163.5202 233.03516 163.51953 C 233.03391 163.51819 233.0325 163.51697 233.03125 163.51562 C 233.02938 163.51361 233.02726 163.51178 233.02539 163.50977 C 233.02289 163.50707 233.02008 163.50464 233.01758 163.50195 C 233.01508 163.49926 233.01227 163.49683 233.00977 163.49414 C 233.00602 163.4901 233.0018 163.48646 232.99805 163.48242 C 232.99429 163.47838 232.99008 163.47474 232.98633 163.4707 C 232.98195 163.46599 232.97703 163.46174 232.97266 163.45703 C 232.50367 162.95397 232.02333 162.45781 231.5293 161.97461 C 231.52798 161.97333 231.5267 161.97199 231.52539 161.9707 C 231.52473 161.97006 231.52214 161.96744 231.52148 161.9668 C 231.52114 161.96647 231.51987 161.96713 231.51953 161.9668 C 231.51826 161.96555 231.5169 161.96413 231.51562 161.96289 C 231.51521 161.96249 231.51604 161.96134 231.51562 161.96094 C 231.51497 161.9603 231.51433 161.95963 231.51367 161.95898 C 231.51367 161.95898 231.51172 161.95703 231.51172 161.95703 C 231.51172 161.95703 231.50977 161.95508 231.50977 161.95508 C 231.50977 161.95508 231.50781 161.95312 231.50781 161.95312 C 231.50519 161.95056 231.50262 161.94788 231.5 161.94531 C 231.49672 161.9421 231.49352 161.93875 231.49023 161.93555 C 231.48727 161.93265 231.48344 161.93064 231.48047 161.92773 C 231.47916 161.92646 231.47787 161.92511 231.47656 161.92383 C 231.47459 161.9219 231.47268 161.9199 231.4707 161.91797 C 231.46776 161.9151 231.46583 161.91108 231.46289 161.9082 C 231.45829 161.90371 231.45382 161.89902 231.44922 161.89453 C 231.44332 161.88876 231.43755 161.88272 231.43164 161.87695 C 231.42508 161.87054 231.41867 161.86383 231.41211 161.85742 C 231.40555 161.851 231.39915 161.8443 231.39258 161.83789 C 231.38536 161.83084 231.37831 161.82346 231.37109 161.81641 C 231.36322 161.80871 231.35553 161.80066 231.34766 161.79297 C 231.33913 161.78463 231.3308 161.77591 231.32227 161.76758 C 231.31308 161.7586 231.30411 161.74921 231.29492 161.74023 C 231.2854 161.73092 231.27516 161.72219 231.26562 161.71289 C 231.25541 161.70286 231.24656 161.69166 231.23633 161.68164 C 231.2337 161.67907 231.23114 161.67639 231.22852 161.67383 C 231.21732 161.66286 231.20652 161.65158 231.19531 161.64062 C 231.18412 161.62966 231.17332 161.61837 231.16211 161.60742 C 231.15355 161.59902 231.14528 161.59042 231.13672 161.58203 C 231.13344 161.57882 231.13023 161.57547 231.12695 161.57227 C 231.11445 161.56002 231.10236 161.54739 231.08984 161.53516 C 231.07667 161.52226 231.06397 161.50898 231.05078 161.49609 C 231.03696 161.48255 231.02361 161.4686 231.00977 161.45508 C 230.99595 161.44154 230.98259 161.42758 230.96875 161.41406 C 230.95427 161.39988 230.94028 161.38526 230.92578 161.37109 C 230.91065 161.35627 230.89602 161.34098 230.88086 161.32617 C 230.86506 161.31069 230.84981 161.29476 230.83398 161.2793 C 230.81754 161.26318 230.80163 161.24656 230.78516 161.23047 C 230.7687 161.21434 230.75281 161.19775 230.73633 161.18164 C 230.70577 161.15169 230.67518 161.12167 230.64453 161.0918 C 230.62082 161.06854 230.59798 161.0447 230.57422 161.02148 C 230.54889 160.99665 230.52344 160.97204 230.49805 160.94727 C 230.49046 160.93984 230.48416 160.93125 230.47656 160.92383 C 230.4509 160.89864 230.42612 160.87279 230.40039 160.84766 C 230.37966 160.82733 230.36061 160.80544 230.33984 160.78516 C 230.32473 160.77028 230.31006 160.7551 230.29492 160.74023 C 230.28902 160.73446 230.28325 160.72843 230.27734 160.72266 C 230.24482 160.69076 230.21232 160.65876 230.17969 160.62695 C 230.17441 160.62179 230.16934 160.61649 230.16406 160.61133 C 230.14138 160.58896 230.12039 160.5653 230.09766 160.54297 C 230.09141 160.53686 230.08437 160.53149 230.07812 160.52539 C 230.04918 160.497 230.02121 160.46777 229.99219 160.43945 C 229.98032 160.42782 229.96891 160.41591 229.95703 160.4043 C 229.9261 160.37391 229.89626 160.3428 229.86523 160.3125 C 229.84717 160.29469 229.8306 160.27559 229.8125 160.25781 C 229.8056 160.25107 229.79792 160.24502 229.79102 160.23828 C 229.76536 160.21311 229.74057 160.18723 229.71484 160.16211 C 229.68885 160.1366 229.66473 160.10943 229.63867 160.08398 C 229.61203 160.05784 229.5853 160.03194 229.55859 160.00586 C 229.53131 159.97908 229.50588 159.95055 229.47852 159.92383 C 229.45057 159.8964 229.42256 159.86916 229.39453 159.8418 C 229.36625 159.81403 229.33891 159.78551 229.31055 159.75781 C 229.28193 159.72972 229.25526 159.6999 229.22656 159.67188 C 229.19665 159.6425 229.16673 159.61328 229.13672 159.58398 C 229.10712 159.55492 229.07852 159.52508 229.04883 159.49609 C 229.01856 159.46637 228.98935 159.4359 228.95898 159.40625 C 228.92806 159.37588 228.89821 159.34474 228.86719 159.31445 C 228.82874 159.27669 228.79055 159.23881 228.75195 159.20117 C 228.73253 159.18212 228.71478 159.1616 228.69531 159.14258 C 228.65653 159.10444 228.61901 159.06535 228.58008 159.02734 C 228.54718 158.99503 228.51543 158.96191 228.48242 158.92969 C 228.44887 158.89673 228.41648 158.86294 228.38281 158.83008 C 228.34795 158.79583 228.31428 158.76071 228.2793 158.72656 C 228.24443 158.69231 228.21077 158.6572 228.17578 158.62305 C 228.14029 158.58817 228.10593 158.55235 228.07031 158.51758 C 228.03479 158.48268 228.00049 158.4469 227.96484 158.41211 C 227.92179 158.3698 227.87918 158.32731 227.83594 158.28516 C 227.80568 158.25545 227.77645 158.22494 227.74609 158.19531 C 227.71485 158.1646 227.68564 158.1322 227.6543 158.10156 C 227.6096 158.05757 227.56638 158.01257 227.52148 157.96875 C 227.48272 157.93064 227.44517 157.8915 227.40625 157.85352 C 227.36057 157.80861 227.31542 157.76348 227.26953 157.71875 C 227.24288 157.69258 227.21813 157.66478 227.19141 157.63867 C 227.13758 157.58568 227.08537 157.53127 227.03125 157.47852 C 227.00394 157.45169 226.97661 157.4252 226.94922 157.39844 C 226.90092 157.35088 226.85518 157.30127 226.80664 157.25391 C 226.76491 157.21287 226.72354 157.17175 226.68164 157.13086 C 226.6327 157.08272 226.5863 157.03231 226.53711 156.98438 C 226.50717 156.95496 226.47729 156.92582 226.44727 156.89648 C 226.39016 156.84024 226.33479 156.78254 226.27734 156.72656 C 226.24707 156.69682 226.21786 156.66638 226.1875 156.63672 C 226.13593 156.58592 226.087 156.533 226.03516 156.48242 C 225.98984 156.43784 225.94591 156.39207 225.90039 156.34766 C 225.84817 156.29627 225.79664 156.24451 225.74414 156.19336 C 225.7047 156.1546 225.66655 156.1148 225.62695 156.07617 C 225.58685 156.0367 225.54808 155.99636 225.50781 155.95703 C 225.45362 155.90363 225.40214 155.84807 225.34766 155.79492 C 225.29969 155.74771 225.25328 155.69936 225.20508 155.65234 C 225.15584 155.60388 225.10808 155.55413 225.05859 155.50586 C 225.01031 155.45834 224.96258 155.41061 224.91406 155.36328 C 224.86446 155.31445 224.81744 155.26347 224.76758 155.21484 C 224.71765 155.16569 224.66932 155.11535 224.61914 155.06641 C 224.5679 155.01596 224.5183 154.96429 224.4668 154.91406 C 224.40967 154.85781 224.35238 154.80207 224.29492 154.74609 C 224.25614 154.70795 224.22058 154.66693 224.18164 154.62891 C 224.12227 154.57036 224.06364 154.51138 224.00391 154.45312 C 223.95171 154.40172 223.90209 154.34805 223.84961 154.29688 C 223.79542 154.2435 223.74199 154.18985 223.6875 154.13672 C 223.63431 154.08433 223.58278 154.03067 223.5293 153.97852 C 223.47481 153.92484 223.42197 153.86983 223.36719 153.81641 C 223.31201 153.76205 223.25861 153.70645 223.20312 153.65234 C 223.14733 153.59737 223.09323 153.54105 223.03711 153.48633 C 222.98132 153.43136 222.9272 153.37502 222.87109 153.32031 C 222.81465 153.26469 222.75989 153.2077 222.70312 153.15234 C 222.64602 153.09607 222.59064 153.03843 222.5332 152.98242 C 222.47541 152.92547 222.41946 152.86722 222.36133 152.81055 C 222.30326 152.75332 222.24786 152.69367 222.18945 152.63672 C 222.13068 152.57879 222.07279 152.52053 222.01367 152.46289 C 221.95426 152.40432 221.89767 152.34343 221.83789 152.28516 C 221.77815 152.22626 221.72026 152.16602 221.66016 152.10742 C 221.59877 152.0469 221.53833 151.98599 221.47656 151.92578 C 221.41651 151.86658 221.35925 151.805 221.29883 151.74609 C 221.23713 151.68526 221.17732 151.62302 221.11523 151.5625 C 221.05259 151.50072 220.99077 151.4384 220.92773 151.37695 C 220.86539 151.31547 220.80493 151.25256 220.74219 151.19141 C 220.67919 151.12927 220.61809 151.06571 220.55469 151.00391 C 220.49106 150.94115 220.42927 150.87687 220.36523 150.81445 C 220.30091 150.751 220.23857 150.68615 220.17383 150.62305 C 220.10952 150.55961 220.04715 150.49473 219.98242 150.43164 C 219.91679 150.36689 219.85318 150.30072 219.78711 150.23633 C 219.72148 150.17158 219.65787 150.10541 219.5918 150.04102 C 219.52551 149.97561 219.46126 149.90879 219.39453 149.84375 C 219.32694 149.77705 219.26141 149.7089 219.19336 149.64258 C 219.12647 149.57657 219.06148 149.50899 218.99414 149.44336 C 218.9259 149.37601 218.85973 149.3072 218.79102 149.24023 C 218.72216 149.17227 218.65527 149.10272 218.58594 149.03516 C 218.5171 148.9672 218.45018 148.89763 218.38086 148.83008 C 218.31137 148.76147 218.24381 148.69125 218.17383 148.62305 C 218.10302 148.55313 218.03421 148.4816 217.96289 148.41211 C 217.89269 148.34281 217.82461 148.27201 217.75391 148.20312 C 217.68181 148.13193 217.61169 148.05904 217.53906 147.98828 C 217.46758 147.9177 217.39818 147.84554 217.32617 147.77539 C 217.2534 147.70353 217.18269 147.63001 217.10938 147.55859 C 217.03725 147.48738 216.96718 147.41453 216.89453 147.34375 C 216.81525 147.26545 216.73812 147.1852 216.6582 147.10742 C 216.59684 147.04688 216.53636 146.98601 216.47461 146.92578 C 216.39372 146.84577 216.31593 146.76305 216.23438 146.68359 C 216.15896 146.60909 216.08576 146.53301 216.00977 146.45898 C 215.93435 146.38448 215.86115 146.30841 215.78516 146.23438 C 215.7081 146.15824 215.63235 146.0815 215.55469 146.00586 C 215.47864 145.93072 215.40476 145.85395 215.32812 145.7793 C 215.24982 145.70191 215.17464 145.6218 215.0957 145.54492 C 215.01902 145.46915 214.94447 145.39168 214.86719 145.31641 C 214.78296 145.23316 214.70019 145.14906 214.61523 145.06641 C 214.54897 145.00098 214.48468 144.93419 214.41797 144.86914 C 214.33181 144.78386 214.24903 144.69598 214.16211 144.61133 C 214.08213 144.53227 214.00446 144.45157 213.92383 144.37305 C 213.84358 144.2937 213.7645 144.21357 213.68359 144.13477 C 213.59643 144.04858 213.51177 143.96054 213.42383 143.875 C 213.35464 143.80667 213.28842 143.7359 213.21875 143.66797 C 213.12417 143.57432 213.03105 143.47962 212.93555 143.38672 C 212.86537 143.3174 212.79724 143.24664 212.72656 143.17773 C 212.63715 143.0892 212.55117 142.99802 212.46094 142.91016 C 212.37712 142.82725 212.29547 142.74248 212.21094 142.66016 C 212.12051 142.57071 212.03071 142.48134 211.93945 142.39258 C 211.86112 142.31518 211.78599 142.23509 211.70703 142.1582 C 211.62187 142.07395 211.53903 141.98795 211.45312 141.9043 C 211.37318 141.82519 211.29544 141.74458 211.21484 141.66602 C 211.12184 141.57388 211.03139 141.48008 210.9375 141.38867 C 210.85075 141.30283 210.76721 141.21412 210.67969 141.12891 C 210.5919 141.04203 210.50654 140.95342 210.41797 140.86719 C 210.32398 140.77417 210.23161 140.68017 210.13672 140.58789 C 210.06068 140.51271 209.98678 140.43602 209.91016 140.36133 C 209.81359 140.26563 209.72057 140.16718 209.62305 140.07227 C 209.534 139.98413 209.44728 139.89411 209.35742 139.80664 C 209.2661 139.71623 209.17616 139.62487 209.08398 139.53516 C 208.99427 139.44635 208.90694 139.3557 208.81641 139.26758 C 208.72535 139.17743 208.63683 139.08555 208.54492 138.99609 C 208.45322 138.90529 208.36405 138.81276 208.27148 138.72266 C 208.17881 138.63088 208.08964 138.53636 207.99609 138.44531 C 207.90349 138.3536 207.81223 138.26091 207.71875 138.16992 C 207.62509 138.07716 207.53401 137.98265 207.43945 137.89062 C 207.34457 137.79664 207.25206 137.70065 207.15625 137.60742 C 207.06133 137.51341 206.96888 137.41747 206.87305 137.32422 C 206.77912 137.23119 206.68858 137.13526 206.59375 137.04297 C 206.49855 136.94865 206.40472 136.85332 206.30859 136.75977 C 206.21175 136.6638 206.11734 136.56588 206.01953 136.4707 C 205.91708 136.36919 205.81642 136.26665 205.71289 136.16602 C 205.62806 136.08205 205.5465 135.99547 205.46094 135.91211 C 205.35698 135.80896 205.25546 135.7038 205.15039 135.60156 C 205.05226 135.5043 204.95654 135.40504 204.85742 135.30859 C 204.75798 135.21002 204.661 135.10946 204.56055 135.01172 C 204.46138 134.91343 204.3658 134.81231 204.26562 134.71484 C 204.16588 134.61596 204.06756 134.51601 203.9668 134.41797 C 203.86599 134.31803 203.76786 134.21627 203.66602 134.11719 C 203.56521 134.01725 203.46708 133.91549 203.36523 133.81641 C 203.26378 133.71581 203.16501 133.6134 203.0625 133.51367 C 202.96009 133.41211 202.8613 133.30771 202.75781 133.20703 C 202.65547 133.10554 202.55459 133.00296 202.45117 132.90234 C 202.34777 132.79979 202.24707 132.6954 202.14258 132.59375 C 202.03926 132.49127 201.9384 132.38674 201.83398 132.28516 C 201.72937 132.18138 201.62722 132.07551 201.52148 131.97266 C 201.41687 131.86888 201.31472 131.76301 201.20898 131.66016 C 201.10372 131.55572 201.00093 131.44921 200.89453 131.3457 C 200.78854 131.24054 200.68527 131.13351 200.57812 131.0293 C 200.47156 130.92356 200.36749 130.81572 200.25977 130.71094 C 200.15312 130.60512 200.04922 130.49744 199.94141 130.39258 C 199.83347 130.28546 199.72828 130.17645 199.61914 130.07031 C 199.5112 129.96319 199.40601 129.85419 199.29688 129.74805 C 199.18829 129.64027 199.08246 129.53061 198.97266 129.42383 C 198.8635 129.31548 198.75686 129.205 198.64648 129.09766 C 198.5366 128.98858 198.42949 128.87759 198.31836 128.76953 C 198.20789 128.65986 198.1 128.54809 197.98828 128.43945 C 197.87848 128.33045 197.77119 128.21932 197.66016 128.11133 C 197.54287 127.99486 197.42729 127.87702 197.30859 127.76172 C 197.20882 127.66275 197.11251 127.56102 197.01172 127.46289 C 196.89277 127.34463 196.77665 127.22449 196.65625 127.10742 C 196.54319 126.99514 196.43273 126.88074 196.31836 126.76953 C 196.20467 126.65662 196.09353 126.54151 195.97852 126.42969 C 195.86414 126.3161 195.75244 126.20038 195.63672 126.08789 C 195.52363 125.97558 195.41323 125.86124 195.29883 125.75 C 195.18385 125.63577 195.07142 125.51937 194.95508 125.40625 C 194.83936 125.29129 194.72647 125.17438 194.60938 125.06055 C 194.49341 124.94533 194.37906 124.82893 194.26172 124.71484 C 194.14469 124.59855 194.03055 124.48037 193.91211 124.36523 C 193.79477 124.24863 193.68126 124.12911 193.5625 124.01367 C 193.44385 123.89577 193.32713 123.77688 193.20703 123.66016 C 193.09004 123.5439 192.97582 123.42565 192.85742 123.31055 C 192.73691 123.19075 192.62005 123.06779 192.49805 122.94922 C 192.3801 122.83202 192.2639 122.71369 192.14453 122.59766 C 192.0246 122.47844 191.90852 122.35629 191.78711 122.23828 C 191.66686 122.11874 191.54947 121.99723 191.42773 121.87891 C 191.30554 121.75741 191.18623 121.63391 191.0625 121.51367 C 190.94197 121.39385 190.8232 121.27289 190.70117 121.1543 C 190.57841 121.03222 190.4583 120.90791 190.33398 120.78711 C 190.21217 120.66599 190.09405 120.54175 189.9707 120.42188 C 189.84199 120.29387 189.7144 120.16567 189.58398 120.03906 C 189.47253 119.92832 189.36469 119.81477 189.25195 119.70508 C 189.12135 119.57501 188.99369 119.44308 188.86133 119.31445 C 188.73622 119.19 188.615 119.06259 188.48828 118.93945 C 188.36326 118.81508 188.23991 118.68946 188.11328 118.56641 C 187.98753 118.44129 187.86566 118.31323 187.73828 118.18945 C 187.61187 118.06368 187.48743 117.93692 187.35938 117.8125 C 187.23264 117.68639 187.10886 117.55834 186.98047 117.43359 C 186.85179 117.30554 186.72609 117.17549 186.5957 117.04883 C 186.46838 116.92214 186.34384 116.79329 186.21484 116.66797 C 186.08528 116.53902 185.95942 116.40683 185.82812 116.2793 C 185.70048 116.15228 185.57464 116.02408 185.44531 115.89844 C 185.31599 115.76971 185.18964 115.63903 185.05859 115.51172 C 184.92831 115.38202 184.80195 115.24936 184.66992 115.12109 C 184.53769 114.98945 184.40747 114.85674 184.27344 114.72656 C 184.13799 114.59174 184.00452 114.45554 183.86719 114.32227 C 183.74731 114.20303 183.63112 114.08091 183.50977 113.96289 C 183.37152 113.82507 183.23592 113.68504 183.0957 113.54883 C 182.9625 113.41618 182.8323 113.28154 182.69727 113.15039 C 182.56276 113.01645 182.43129 112.88047 182.29492 112.74805 C 182.16243 112.61612 182.03274 112.48201 181.89844 112.35156 C 181.7647 112.21835 181.63363 112.08288 181.49805 111.95117 C 181.36226 111.8159 181.22948 111.67864 181.0918 111.54492 C 180.95676 111.4104 180.82441 111.27361 180.6875 111.14062 C 180.55052 111.00415 180.41625 110.86536 180.27734 110.73047 C 180.14225 110.59588 180.01002 110.45922 179.87305 110.32617 C 179.73024 110.18385 179.59023 110.03904 179.44531 109.89844 C 179.31766 109.77136 179.19183 109.64329 179.0625 109.51758 C 178.91937 109.3748 178.78001 109.22894 178.63477 109.08789 C 178.4964 108.94999 178.36105 108.81011 178.2207 108.67383 C 178.08113 108.5347 177.94432 108.39334 177.80273 108.25586 C 177.65731 108.1109 177.51479 107.96349 177.36719 107.82031 C 177.23923 107.6929 177.11402 107.56353 176.98438 107.4375 C 176.83699 107.29038 176.6926 107.14137 176.54297 106.99609 C 176.40083 106.85438 176.26141 106.71032 176.11719 106.57031 C 175.9763 106.42986 175.83824 106.28721 175.69531 106.14844 C 175.55243 106.00595 175.41257 105.86147 175.26758 105.7207 C 175.1234 105.57692 174.98227 105.43109 174.83594 105.28906 C 174.69376 105.1473 174.55442 105.00333 174.41016 104.86328 C 174.26674 104.72024 174.12601 104.5749 173.98047 104.43359 C 173.835 104.28848 173.69257 104.14137 173.54492 103.99805 C 173.39954 103.85302 173.25694 103.70574 173.10938 103.5625 C 172.96467 103.41815 172.82265 103.27149 172.67578 103.12891 C 172.52979 102.98324 172.38647 102.83527 172.23828 102.69141 C 172.09097 102.5444 171.94642 102.39517 171.79688 102.25 C 171.64948 102.10292 171.50511 101.95384 171.35547 101.80859 C 171.20689 101.66032 171.06102 101.50969 170.91016 101.36328 C 170.76283 101.21627 170.61832 101.06705 170.46875 100.92188 C 170.32006 100.77348 170.17441 100.62309 170.02344 100.47656 C 169.87216 100.32556 169.72395 100.1725 169.57031 100.02344 C 169.42169 99.875121 169.2759 99.724573 169.125 99.578125 C 168.97447 99.427849 168.8267 99.275312 168.67383 99.126953 C 168.52321 98.976586 168.37562 98.824229 168.22266 98.675781 C 168.07106 98.524419 167.92155 98.372074 167.76758 98.222656 C 167.6151 98.070392 167.46543 97.915921 167.31055 97.765625 C 167.15807 97.613361 167.0084 97.45889 166.85352 97.308594 C 166.699 97.154294 166.54761 96.997982 166.39062 96.845703 C 166.23294 96.688251 166.07823 96.528394 165.91797 96.373047 C 165.77515 96.230544 165.63516 96.086091 165.49023 95.945312 C 165.32978 95.784844 165.17289 95.621178 165.00977 95.462891 C 164.85476 95.308036 164.70241 95.150867 164.54492 94.998047 C 164.38894 94.842197 164.23467 94.68504 164.07617 94.53125 C 163.91953 94.374726 163.76661 94.214993 163.60742 94.060547 C 163.45067 93.903926 163.29601 93.746337 163.13672 93.591797 C 162.97783 93.433009 162.82166 93.271884 162.66016 93.115234 C 162.50185 92.957072 162.34644 92.796665 162.18555 92.640625 C 162.02724 92.482462 161.87183 92.322056 161.71094 92.166016 C 161.55329 92.008488 161.3985 91.848782 161.23828 91.693359 C 161.0794 91.534547 160.92321 91.373471 160.76172 91.216797 C 160.60112 91.056238 160.44452 90.892749 160.28125 90.734375 C 160.12077 90.573929 159.96198 90.41217 159.79883 90.253906 C 159.63725 90.092351 159.47874 89.928875 159.31445 89.769531 C 159.15287 89.607976 158.99436 89.4445 158.83008 89.285156 C 158.66591 89.120996 158.50485 88.954845 158.33789 88.792969 C 158.17213 88.627252 158.00845 88.460263 157.83984 88.296875 C 157.68574 88.142894 157.53546 87.985955 157.37891 87.833984 C 157.21097 87.665869 157.04586 87.495801 156.875 87.330078 C 156.71021 87.165229 156.54847 86.998484 156.38086 86.835938 C 156.21576 86.670776 156.05465 86.502694 155.88672 86.339844 C 155.71967 86.172724 155.55471 86.004597 155.38477 85.839844 C 155.22004 85.675087 155.05816 85.50816 154.89062 85.345703 C 154.7227 85.177687 154.55756 85.007422 154.38672 84.841797 C 154.22136 84.676379 154.05882 84.508802 153.89062 84.345703 C 153.72262 84.177573 153.55765 84.007533 153.38672 83.841797 C 153.21871 83.673667 153.05375 83.503627 152.88281 83.337891 C 152.71222 83.167154 152.5447 82.99444 152.37109 82.826172 C 152.19924 82.654217 152.03039 82.479997 151.85547 82.310547 C 151.69656 82.151616 151.54043 81.990775 151.37891 81.833984 C 151.20271 81.657388 151.02903 81.478647 150.84961 81.304688 C 150.67839 81.133261 150.5102 80.959954 150.33594 80.791016 C 150.16278 80.617645 149.99268 80.442311 149.81641 80.271484 C 149.64655 80.101464 149.47949 79.929292 149.30664 79.761719 C 149.13461 79.589441 148.96612 79.413907 148.79102 79.244141 C 148.61755 79.070415 148.44612 78.895781 148.26953 78.724609 C 148.09489 78.549701 147.92194 78.373492 147.74414 78.201172 C 147.56945 78.026238 147.39856 77.848125 147.2207 77.675781 C 147.04828 77.503128 146.87864 77.328334 146.70312 77.158203 C 146.52819 76.982956 146.35584 76.805462 146.17773 76.632812 C 146.00148 76.456224 145.82791 76.277467 145.64844 76.103516 C 145.47272 75.927481 145.30001 75.749585 145.12109 75.576172 C 144.9442 75.398921 144.76998 75.219515 144.58984 75.044922 C 144.4133 74.868015 144.23838 74.689885 144.05859 74.515625 C 143.88077 74.337408 143.7065 74.156 143.52539 73.980469 C 143.34658 73.801245 143.17042 73.619867 142.98828 73.443359 C 142.81 73.264688 142.63471 73.084175 142.45312 72.908203 C 142.27402 72.728662 142.09651 72.54791 141.91406 72.371094 C 141.73353 72.190113 141.55696 72.006337 141.37305 71.828125 C 141.18767 71.642291 141.00536 71.454399 140.81641 71.271484 C 140.64657 71.101376 140.47947 70.929379 140.30664 70.761719 C 140.11747 70.57183 139.93118 70.380205 139.73828 70.193359 C 139.55265 70.007276 139.3689 69.819874 139.17969 69.636719 C 139.00856 69.465278 138.84019 69.292001 138.66602 69.123047 C 138.4757 68.931959 138.28783 68.738787 138.09375 68.550781 C 137.90944 68.365967 137.72886 68.178021 137.54102 67.996094 C 137.35864 67.813226 137.17802 67.62926 136.99219 67.449219 C 136.80796 67.264419 136.62721 67.076446 136.43945 66.894531 C 136.25196 66.706425 136.06615 66.517149 135.875 66.332031 C 135.69135 66.147852 135.51138 65.96061 135.32422 65.779297 C 135.13791 65.592376 134.95359 65.404673 134.76367 65.220703 C 134.57651 65.032897 134.39197 64.84303 134.20117 64.658203 C 134.01401 64.470397 133.82947 64.28053 133.63867 64.095703 C 133.44915 63.905522 133.26357 63.712517 133.07031 63.525391 C 132.88345 63.337911 132.69831 63.149355 132.50781 62.964844 C 123.71331 54.137768 110.87536 48.568359 96.568359 48.568359 z "
       id="path4283"
       clip-path="url(#clipPath6440)" />
    <path
       inkscape:connector-curvature="0"
       d="m 96,48 c -26.506667,0 -48,21.493333 -48,48 0,26.50667 21.493333,48 48,48 4.42667,0 8,-3.57333 8,-8 0,-2.08 -0.8,-3.94667 -2.08,-5.38667 -1.22667,-1.38666 -2.026667,-3.25333 -2.026667,-5.28 0,-4.42666 3.573337,-8 7.999997,-8 l 9.44,0 C 132.05333,117.33333 144,105.38667 144,90.666666 144,67.093333 122.50667,48 96,48 Z M 66.666666,96 c -4.426666,0 -8,-3.573334 -8,-8 0,-4.426667 3.573334,-8 8,-8 4.426667,0 8,3.573333 8,8 0,4.426666 -3.573333,8 -8,8 z m 16,-21.333334 c -4.426666,0 -8,-3.573333 -8,-8 0,-4.426666 3.573334,-8 8,-8 4.426667,0 8,3.573334 8,8 0,4.426667 -3.573333,8 -8,8 z m 26.666664,0 c -4.42666,0 -8,-3.573333 -8,-8 0,-4.426666 3.57334,-8 8,-8 4.42667,0 8,3.573334 8,8 0,4.426667 -3.57333,8 -8,8 z m 16,21.333334 c -4.42666,0 -8,-3.573334 -8,-8 0,-4.426667 3.57334,-8 8,-8 4.42667,0 8,3.573333 8,8 0,4.426666 -3.57333,8 -8,8 z"
       id="path6399"
       style="fill:#ffffff;fill-opacity:1;filter:url(#filter6425)" />
    <g
       id="g4215">
      <rect
         style="opacity:1;fill:#673ab7;fill-opacity:1;fill-rule:nonzero;stroke:none;stroke-width:10;stroke-linecap:butt;stroke-linejoin:round;stroke-miterlimit:4;stroke-dasharray:none;stroke-dashoffset:0;stroke-opacity:1"
         id="rect4207"
         width="23.733334"
         height="20.533333"
         x="54.933334"
         y="77.599998"
         ry="10.266666" />
      <rect
         style="opacity:1;fill:#2196f3;fill-opacity:1;fill-rule:nonzero;stroke:none;stroke-width:10;stroke-linecap:butt;stroke-linejoin:round;stroke-miterlimit:4;stroke-dasharray:none;stroke-dashoffset:0;stroke-opacity:1"
         id="rect4209"
         width="25.066668"
         height="19.733334"
         x="70.666664"
         y="57.599998"
         ry="9.8666668" />
      <rect
         style="opacity:1;fill:#ffeb3b;fill-opacity:1;fill-rule:nonzero;stroke:none;stroke-width:10;stroke-linecap:butt;stroke-linejoin:round;stroke-miterlimit:4;stroke-dasharray:none;stroke-dashoffset:0;stroke-opacity:1"
         id="rect4211"
         width="22.4"
         height="19.200001"
         x="98.933334"
         y="57.333332"
         ry="9.6000004" />
      <rect
         style="opacity:1;fill:#f44336;fill-opacity:1;fill-rule:nonzero;stroke:none;stroke-width:10;stroke-linecap:butt;stroke-linejoin:round;stroke-miterlimit:4;stroke-dasharray:none;stroke-dashoffset:0;stroke-opacity:1"
         id="rect4213"
         width="20.266666"
         height="19.466667"
         x="114.93333"
         y="77.866669"
         ry="9.6000004" />
    </g>
    <path
       style="fill:#cccccc;fill-opacity:1"
       id="path4191"
       d="m 96,48 c -26.506667,0 -48,21.493333 -48,48 0,26.50667 21.493333,48 48,48 4.42667,0 8,-3.57333 8,-8 0,-2.08 -0.8,-3.94667 -2.08,-5.38667 -1.22667,-1.38666 -2.026667,-3.25333 -2.026667,-5.28 0,-4.42666 3.573337,-8 7.999997,-8 l 9.44,0 C 132.05333,117.33333 144,105.38667 144,90.666666 144,67.093333 122.50667,48 96,48 Z M 66.666666,96 c -4.426666,0 -8,-3.573334 -8,-8 0,-4.426667 3.573334,-8 8,-8 4.426667,0 8,3.573333 8,8 0,4.426666 -3.573333,8 -8,8 z m 16,-21.333334 c -4.426666,0 -8,-3.573333 -8,-8 0,-4.426666 3.573334,-8 8,-8 4.426667,0 8,3.573334 8,8 0,4.426667 -3.573333,8 -8,8 z m 26.666664,0 c -4.42666,0 -8,-3.573333 -8,-8 0,-4.426666 3.57334,-8 8,-8 4.42667,0 8,3.573334 8,8 0,4.426667 -3.57333,8 -8,8 z m 16,21.333334 c -4.42666,0 -8,-3.573334 -8,-8 0,-4.426667 3.57334,-8 8,-8 4.42667,0 8,3.573333 8,8 0,4.426666 -3.57333,8 -8,8 z"
       inkscape:connector-curvature="0" />
    <path
       inkscape:connector-curvature="0"
       d="m 96,48 c -26.506667,0 -48,21.282249 -48,47.528595 0,26.246355 21.493333,47.528595 48,47.528595 4.42667,0 8,-3.53824 8,-7.92143 0,-2.05957 -0.8,-3.90791 -2.08,-5.33377 -1.22667,-1.37304 -2.026667,-3.22138 -2.026667,-5.22815 0,-4.38318 3.573337,-7.92143 7.999997,-7.92143 l 9.44,0 C 132.05333,116.65241 144,104.82308 144,90.24764 144,66.905819 122.50667,48 96,48 Z M 66.666666,95.528595 c -4.426666,0 -8,-3.53824 -8,-7.921432 0,-4.383193 3.573334,-7.921433 8,-7.921433 4.426667,0 8,3.53824 8,7.921433 0,4.383192 -3.573333,7.921432 -8,7.921432 z m 16,-21.12382 c -4.426666,0 -8,-3.53824 -8,-7.921433 0,-4.383192 3.573334,-7.921433 8,-7.921433 4.426667,0 8,3.538241 8,7.921433 0,4.383193 -3.573333,7.921433 -8,7.921433 z m 26.666664,0 c -4.42666,0 -8,-3.53824 -8,-7.921433 0,-4.383192 3.57334,-7.921433 8,-7.921433 4.42667,0 8,3.538241 8,7.921433 0,4.383193 -3.57333,7.921433 -8,7.921433 z m 16,21.12382 c -4.42666,0 -8,-3.53824 -8,-7.921432 0,-4.383193 3.57334,-7.921433 8,-7.921433 4.42667,0 8,3.53824 8,7.921433 0,4.383192 -3.57333,7.921432 -8,7.921432 z"
       id="path4828"
       style="fill:#ffffff;fill-opacity:1" />
    <path
       style="fill:#f2f2f2;fill-opacity:1"
       id="path4830"
       d="M 96.04714,49.03709 C 69.540473,49.03709 48,69.282249 48,95.528595 c 0,26.246355 21.493333,47.528595 48,47.528595 4.42667,0 8,-3.53824 8,-7.92143 0,-2.05957 -0.8,-3.90791 -2.08,-5.33377 -1.22667,-1.37304 -2.026667,-3.22138 -2.026667,-5.22815 0,-4.38318 3.573337,-7.92143 7.999997,-7.92143 l 9.44,0 C 132.05333,116.65241 144,104.82308 144,90.24764 144,66.905819 122.55381,49.03709 96.04714,49.03709 Z M 66.666666,95.528595 c -4.426666,0 -8,-3.53824 -8,-7.921432 0,-4.383193 3.573334,-7.921433 8,-7.921433 4.426667,0 8,3.53824 8,7.921433 0,4.383192 -3.573333,7.921432 -8,7.921432 z m 16,-21.12382 c -4.426666,0 -8,-3.53824 -8,-7.921433 0,-4.383192 3.573334,-7.921433 8,-7.921433 4.426667,0 8,3.538241 8,7.921433 0,4.383193 -3.573333,7.921433 -8,7.921433 z m 26.666664,0 c -4.42666,0 -8,-3.53824 -8,-7.921433 0,-4.383192 3.57334,-7.921433 8,-7.921433 4.42667,0 8,3.538241 8,7.921433 0,4.383193 -3.57333,7.921433 -8,7.921433 z m 16,21.12382 c -4.42666,0 -8,-3.53824 -8,-7.921432 0,-4.383193 3.57334,-7.921433 8,-7.921433 4.42667,0 8,3.53824 8,7.921433 0,4.383192 -3.57333,7.921432 -8,7.921432 z"
       inkscape:connector-curvature="0"
       sodipodi:nodetypes="sssscsssssssssssssssssssssssss" />
  </g>
  <g
     inkscape:groupmode="layer"
     id="layer5"
     inkscape:label="Square 1"
     style="display:inline"
     sodipodi:insensitive="true">
    <rect
       style="display:inline;opacity:0.1;fill:url(#radialGradient7770);fill-opacity:1;stroke:url(#radialGradient7778);stroke-width:1.00005436;stroke-linejoin:round;stroke-miterlimit:4;stroke-dasharray:none;stroke-opacity:1"
       id="rect7724"
       width="150.99994"
       height="150.99994"
       x="20.500031"
       y="20.500031"
       ry="10.897427" />
  </g>
</svg>
