<?xml version="1.0" encoding="UTF-8" standalone="no"?>
<!-- Created with Inkscape (http://www.inkscape.org/) -->

<svg
   xmlns:dc="http://purl.org/dc/elements/1.1/"
   xmlns:cc="http://creativecommons.org/ns#"
   xmlns:rdf="http://www.w3.org/1999/02/22-rdf-syntax-ns#"
   xmlns:svg="http://www.w3.org/2000/svg"
   xmlns="http://www.w3.org/2000/svg"
   xmlns:xlink="http://www.w3.org/1999/xlink"
   xmlns:sodipodi="http://sodipodi.sourceforge.net/DTD/sodipodi-0.dtd"
   xmlns:inkscape="http://www.inkscape.org/namespaces/inkscape"
   width="192"
   height="192"
   viewBox="0 0 192 192"
   id="svg2"
   version="1.1"
   inkscape:version="0.91 r13725"
   sodipodi:docname="unicon.svg"
   inkscape:export-filename="C:\createme\Material Design Icons\PNG\unicon.png"
   inkscape:export-xdpi="90"
   inkscape:export-ydpi="90">
  <sodipodi:namedview
     id="base"
     pagecolor="#ffffff"
     bordercolor="#666666"
     borderopacity="1.0"
     inkscape:pageopacity="0.0"
     inkscape:pageshadow="2"
     inkscape:zoom="1.4142136"
     inkscape:cx="206.96845"
     inkscape:cy="131.16901"
     inkscape:document-units="px"
     inkscape:current-layer="layer1"
     showgrid="false"
     units="px"
     showguides="false"
     inkscape:window-width="1920"
     inkscape:window-height="1017"
     inkscape:window-x="-8"
     inkscape:window-y="-8"
     inkscape:window-maximized="1">
    <sodipodi:guide
       inkscape:color="rgb(0,0,255)"
       inkscape:label=""
       id="guide3354"
       orientation="0,1"
       position="0,184" />
    <sodipodi:guide
       inkscape:color="rgb(0,0,255)"
       inkscape:label=""
       id="guide3356"
       orientation="1,0"
       position="8,0" />
    <sodipodi:guide
       inkscape:color="rgb(0,0,255)"
       inkscape:label=""
       id="guide3358"
       orientation="0,1"
       position="0,8" />
    <sodipodi:guide
       inkscape:color="rgb(0,0,255)"
       inkscape:label=""
       id="guide3360"
       orientation="1,0"
       position="184,0" />
    <sodipodi:guide
       inkscape:color="rgb(0,0,255)"
       inkscape:label=""
       id="guide3362"
       orientation="0,1"
       position="0,20" />
    <sodipodi:guide
       inkscape:color="rgb(0,0,255)"
       inkscape:label=""
       id="guide3364"
       orientation="1,0"
       position="172,0" />
    <sodipodi:guide
       inkscape:color="rgb(0,0,255)"
       inkscape:label=""
       id="guide3366"
       orientation="0,1"
       position="96,172" />
    <sodipodi:guide
       inkscape:color="rgb(0,0,255)"
       inkscape:label=""
       id="guide3368"
       orientation="1,0"
       position="20,0" />
    <sodipodi:guide
       inkscape:color="rgb(0,0,255)"
       inkscape:label=""
       id="guide3370"
       orientation="0,1"
       position="0,32" />
    <sodipodi:guide
       inkscape:color="rgb(0,0,255)"
       inkscape:label=""
       id="guide3372"
       orientation="1,0"
       position="160,0" />
    <sodipodi:guide
       inkscape:color="rgb(0,0,255)"
       inkscape:label=""
       id="guide3374"
       orientation="0,1"
       position="0,160" />
    <sodipodi:guide
       inkscape:color="rgb(0,0,255)"
       inkscape:label=""
       id="guide3376"
       orientation="1,0"
       position="32,0" />
    <inkscape:grid
       id="grid3378"
       type="xygrid" />
    <sodipodi:guide
       inkscape:color="rgb(255,0,0)"
       inkscape:label=""
       id="guide5849"
       orientation="-0.70710678,0.70710678"
       position="0,0" />
    <sodipodi:guide
       inkscape:color="rgb(255,0,0)"
       inkscape:label=""
       id="guide5851"
       orientation="1,0"
       position="124,0" />
    <sodipodi:guide
       inkscape:color="rgb(255,0,0)"
       inkscape:label=""
       id="guide5853"
       orientation="0.70710678,0.70710678"
       position="0,192" />
    <sodipodi:guide
       inkscape:color="rgb(255,0,0)"
       inkscape:label=""
       id="guide5855"
       orientation="1,0"
       position="96,0" />
    <sodipodi:guide
       inkscape:color="rgb(255,0,0)"
       inkscape:label=""
       id="guide5859"
       orientation="0,1"
       position="0,96" />
    <sodipodi:guide
       inkscape:color="rgb(255,0,0)"
       inkscape:label=""
       id="guide5861"
       orientation="0,1"
       position="0,124" />
    <sodipodi:guide
       inkscape:color="rgb(255,0,0)"
       inkscape:label=""
       id="guide5863"
       orientation="0,1"
       position="0,68" />
    <sodipodi:guide
       inkscape:color="rgb(255,0,0)"
       inkscape:label=""
       id="guide5865"
       orientation="1,0"
       position="68,0" />
    <sodipodi:guide
       id="guide5869"
       orientation="-192,0"
       position="192,0" />
    <sodipodi:guide
       id="guide5871"
       orientation="0,-192"
       position="192,192" />
  </sodipodi:namedview>
  <defs
     id="defs4">
    <linearGradient
       inkscape:collect="always"
       id="linearGradient32585">
      <stop
         style="stop-color:#263238;stop-opacity:1;"
         offset="0"
         id="stop32587" />
      <stop
         style="stop-color:#263238;stop-opacity:0;"
         offset="1"
         id="stop32589" />
    </linearGradient>
    <linearGradient
       id="linearGradient4194"
       inkscape:collect="always">
      <stop
         id="stop4196"
         offset="0"
         style="stop-color:#ffffff;stop-opacity:1;" />
      <stop
         id="stop4198"
         offset="1"
         style="stop-color:#ffffff;stop-opacity:0;" />
    </linearGradient>
    <clipPath
       id="clipPath10430"
       clipPathUnits="userSpaceOnUse">
      <path
         id="path10432"
         d="m 1241.028,39.3409 224.537,0 0,178.031 -224.537,0 0,-178.031 z"
         inkscape:connector-curvature="0" />
    </clipPath>
    <clipPath
       id="clipPath10438"
       clipPathUnits="userSpaceOnUse">
      <path
         id="path10440"
         d="m 1260.156,213.3477 0,-170.2268 191.3337,0 0,170.2268"
         inkscape:connector-curvature="0" />
    </clipPath>
    <radialGradient
       gradientUnits="userSpaceOnUse"
       gradientTransform="matrix(2.6607556e-7,1.9999998,-2.0000002,2.6629458e-7,1780.725,840.36195)"
       r="76"
       fy="880.36243"
       fx="20"
       cy="880.36243"
       cx="20"
       id="radialGradient4200"
       xlink:href="#linearGradient4194"
       inkscape:collect="always" />
    <filter
       id="filter5248"
       inkscape:label="Drop Shadow"
       style="color-interpolation-filters:sRGB;">
      <feFlood
         id="feFlood5250"
         result="flood"
         flood-color="rgb(0,0,0)"
         flood-opacity="0.2" />
      <feComposite
         id="feComposite5252"
         result="composite1"
         operator="in"
         in2="SourceGraphic"
         in="flood" />
      <feGaussianBlur
         id="feGaussianBlur5254"
         result="blur"
         stdDeviation="4"
         in="composite1" />
      <feOffset
         id="feOffset5256"
         result="offset"
         dy="4"
         dx="4.57967e-015" />
      <feComposite
         id="feComposite5258"
         result="composite2"
         operator="over"
         in2="offset"
         in="SourceGraphic" />
    </filter>
    <filter
       height="1.3"
       id="filter27567"
       inkscape:label="Drop Shadow"
       style="color-interpolation-filters:sRGB;">
      <feFlood
         id="feFlood27569"
         result="flood"
         flood-color="rgb(38,50,56)"
         flood-opacity="0.20000000000000001" />
      <feComposite
         id="feComposite27571"
         result="composite1"
         operator="in"
         in2="SourceGraphic"
         in="flood" />
      <feGaussianBlur
         id="feGaussianBlur27573"
         result="blur"
         stdDeviation="4"
         in="composite1" />
      <feOffset
         id="feOffset27575"
         result="offset"
         dy="4"
         dx="0" />
      <feComposite
         id="feComposite27577"
         result="composite2"
         operator="over"
         in2="offset"
         in="SourceGraphic" />
    </filter>
    <linearGradient
       inkscape:collect="always"
       xlink:href="#linearGradient32585"
       id="linearGradient32591"
       x1="51.138008"
       y1="51.138008"
       x2="172"
       y2="172"
       gradientUnits="userSpaceOnUse" />
  </defs>
  <metadata
     id="metadata7">
    <rdf:RDF>
      <cc:Work
         rdf:about="">
        <dc:format>image/svg+xml</dc:format>
        <dc:type
           rdf:resource="http://purl.org/dc/dcmitype/StillImage" />
        <dc:title></dc:title>
      </cc:Work>
    </rdf:RDF>
  </metadata>
  <g
     inkscape:label="background"
     id="layer2"
     inkscape:groupmode="layer">
    <path
       transform="translate(0,-860.36216)"
       sodipodi:nodetypes="ccccccccc"
       inkscape:connector-curvature="0"
       id="path5588"
       d="m 32,880.36216 128,0 c 6,0 12,6 12,12 l 0,128.00004 c 0,6 -6,12 -12,12 l -128,0 c -6,0 -12,-6 -12,-12 l 0,-128.00004 c 0,-6 6,-12 12,-12 z"
       style="fill:#8bc34a;fill-opacity:1;fill-rule:evenodd;stroke:none;stroke-width:1px;stroke-linecap:butt;stroke-linejoin:miter;stroke-opacity:1;filter:url(#filter5248)" />
  </g>
  <g
     transform="translate(0,-860.36216)"
     id="layer1"
     inkscape:groupmode="layer"
     inkscape:label="objects">
    <path
       style="fill:url(#linearGradient32591);opacity:0.2;fill-opacity:1"
       d="M 96.568359 50.744141 C 71.262787 50.744141 50.744141 71.262769 50.744141 96.568359 C 50.744141 109.3657 55.996398 120.93361 64.457031 129.24805 C 64.65131 129.44574 64.84711 129.64178 65.044922 129.83594 C 65.220343 130.0142 65.397874 130.18985 65.576172 130.36523 C 65.76755 130.56011 65.959487 130.75387 66.154297 130.94531 C 66.346086 131.14041 66.539144 131.33374 66.734375 131.52539 C 66.907223 131.70102 67.082172 131.87403 67.257812 132.04688 C 67.449122 132.2417 67.641199 132.43556 67.835938 132.62695 C 68.018715 132.81284 68.202769 132.99693 68.388672 133.17969 C 68.572333 133.36651 68.756542 133.55266 68.943359 133.73633 C 69.126381 133.92249 69.311891 134.10604 69.498047 134.28906 C 69.680429 134.47456 69.863334 134.65941 70.048828 134.8418 C 70.237668 135.03385 70.428918 135.22339 70.621094 135.41211 C 70.790098 135.58377 70.96114 135.75289 71.132812 135.92188 C 71.324801 136.11732 71.51745 136.31191 71.712891 136.50391 C 71.887695 136.68148 72.064528 136.85654 72.242188 137.03125 C 72.423359 137.21548 72.604821 137.39892 72.789062 137.58008 C 72.961536 137.75541 73.13529 137.92902 73.310547 138.10156 C 73.493891 138.28818 73.678741 138.47278 73.865234 138.65625 C 74.049905 138.84403 74.235968 139.03025 74.423828 139.21484 C 74.589282 139.38288 74.755817 139.54937 74.923828 139.71484 C 75.107433 139.90172 75.291753 140.08776 75.478516 140.27148 C 75.655139 140.45103 75.834131 140.62806 76.013672 140.80469 C 76.190945 140.98488 76.368616 141.16454 76.548828 141.3418 C 76.723268 141.51906 76.898887 141.69472 77.076172 141.86914 C 77.251184 142.04703 77.427592 142.22341 77.605469 142.39844 C 77.779846 142.57566 77.955592 142.7514 78.132812 142.92578 C 78.306876 143.10268 78.483261 143.2771 78.660156 143.45117 C 78.833578 143.62741 79.00736 143.80313 79.183594 143.97656 C 79.356376 144.15214 79.531458 144.32526 79.707031 144.49805 C 79.885313 144.6792 80.064841 144.85892 80.246094 145.03711 C 80.405136 145.19853 80.565158 145.35852 80.726562 145.51758 C 80.904736 145.69884 81.084479 145.87835 81.265625 146.05664 C 81.436486 146.23024 81.607661 146.40335 81.78125 146.57422 C 81.950546 146.74621 82.120994 146.91662 82.292969 147.08594 C 82.463494 147.2592 82.63535 147.43102 82.808594 147.60156 C 82.984635 147.78039 83.16286 147.95688 83.341797 148.13281 C 83.497963 148.29124 83.654058 148.44932 83.8125 148.60547 C 83.98619 148.78208 84.161378 148.95707 84.337891 149.13086 C 84.510123 149.3058 84.684371 149.47823 84.859375 149.65039 C 85.015206 149.80852 85.17198 149.96523 85.330078 150.12109 C 85.502207 150.29612 85.674708 150.47032 85.849609 150.64258 C 86.017583 150.81319 86.186812 150.98242 86.357422 151.15039 C 86.52161 151.31708 86.68681 151.48232 86.853516 151.64648 C 87.018611 151.81413 87.185874 151.97943 87.353516 152.14453 C 87.522544 152.31616 87.691585 152.48729 87.863281 152.65625 C 88.015889 152.81106 88.169437 152.96455 88.324219 153.11719 C 88.492815 153.28857 88.662729 153.45822 88.833984 153.62695 C 88.998749 153.79426 89.16473 153.96023 89.332031 154.125 C 89.493324 154.28871 89.654637 154.452 89.818359 154.61328 C 89.980235 154.77761 90.144271 154.93968 90.308594 155.10156 C 90.468916 155.2643 90.630246 155.4256 90.792969 155.58594 C 90.953281 155.74869 91.114631 155.90996 91.277344 156.07031 C 91.438569 156.23399 91.600019 156.39734 91.763672 156.55859 C 91.930089 156.72749 92.098576 156.89424 92.267578 157.06055 C 92.413785 157.20874 92.560784 157.35576 92.708984 157.50195 C 92.873379 157.66897 93.038157 157.83551 93.205078 158 C 93.363108 158.16037 93.523233 158.31853 93.683594 158.47656 C 93.840982 158.63627 93.998503 158.79573 94.158203 158.95312 C 94.31495 159.11217 94.473772 159.26903 94.632812 159.42578 C 94.789249 159.5845 94.946748 159.742 95.105469 159.89844 C 95.260329 160.05556 95.415167 160.2123 95.572266 160.36719 C 95.728367 160.52558 95.886546 160.68178 96.044922 160.83789 C 96.199745 160.99496 96.354659 161.15181 96.511719 161.30664 C 96.6659 161.46305 96.822116 161.6173 96.978516 161.77148 C 97.138848 161.93412 97.30016 162.09562 97.462891 162.25586 C 97.603959 162.39877 97.745749 162.54058 97.888672 162.68164 C 98.052801 162.84829 98.21812 163.01361 98.384766 163.17773 C 98.525186 163.31999 98.666335 163.46114 98.808594 163.60156 C 98.966639 163.76201 99.124778 163.92196 99.285156 164.08008 C 99.442005 164.23911 99.600622 164.39599 99.759766 164.55273 C 99.898264 164.69301 100.03745 164.83221 100.17773 164.9707 C 100.33316 165.12847 100.48881 165.28589 100.64648 165.44141 C 100.79585 165.59285 100.94621 165.74321 101.09766 165.89258 C 101.24671 166.0437 101.39771 166.19274 101.54883 166.3418 C 101.69632 166.49133 101.84462 166.6396 101.99414 166.78711 C 102.14287 166.93792 102.29257 167.08758 102.44336 167.23633 C 102.59048 167.38547 102.73758 167.53451 102.88672 167.68164 C 103.03352 167.83045 103.18127 167.9782 103.33008 168.125 C 103.47627 168.2732 103.6233 168.4202 103.77148 168.56641 C 103.91704 168.71394 104.0634 168.8603 104.21094 169.00586 C 104.35614 169.15303 104.50323 169.29816 104.65039 169.44336 C 104.79592 169.59086 104.94234 169.73729 105.08984 169.88281 C 105.23317 170.02804 105.37625 170.1731 105.52148 170.31641 C 105.66415 170.46099 105.80856 170.60341 105.95312 170.74609 C 106.09704 170.89195 106.24088 171.03772 106.38672 171.18164 C 106.52935 171.32617 106.67383 171.46869 106.81836 171.61133 C 106.94713 171.74181 107.07674 171.8711 107.20703 172 L 160 172 C 166 172 172 166 172 160 L 172 105.60742 C 171.97766 105.58546 171.9561 105.56285 171.93359 105.54102 C 171.78928 105.39693 171.64852 105.24966 171.50195 105.10742 C 171.35592 104.96158 171.2128 104.81387 171.06445 104.66992 C 170.91808 104.52375 170.77369 104.3767 170.625 104.23242 C 170.47876 104.08637 170.33606 103.93712 170.1875 103.79297 C 170.03962 103.64526 169.89439 103.49538 169.74414 103.34961 C 169.60263 103.20827 169.46399 103.06535 169.32031 102.92578 C 169.16013 102.76557 169.00281 102.60324 168.83984 102.44531 C 168.69677 102.30254 168.55545 102.15854 168.41016 102.01758 C 168.26619 101.87375 168.12668 101.72598 167.98047 101.58398 C 167.81932 101.4228 167.66006 101.26044 167.49609 101.10156 C 167.35779 100.96353 167.2224 100.82383 167.08203 100.6875 C 166.91928 100.52466 166.75938 100.3597 166.59375 100.19922 C 166.44877 100.0545 166.30546 99.908485 166.1582 99.765625 C 166.00618 99.613658 165.85767 99.45851 165.70312 99.308594 C 165.55078 99.156301 165.40096 99.001797 165.24609 98.851562 C 165.09798 98.703482 164.95323 98.552384 164.80273 98.40625 C 164.6374 98.240777 164.47299 98.075153 164.30469 97.912109 C 164.15714 97.764773 164.01319 97.614156 163.86328 97.46875 C 163.70824 97.313712 163.55609 97.15681 163.39844 97.003906 C 163.24339 96.848869 163.09125 96.691966 162.93359 96.539062 C 162.7792 96.384659 162.62768 96.228459 162.4707 96.076172 C 162.31314 95.91854 162.1583 95.758943 161.99805 95.603516 C 161.84084 95.44626 161.68528 95.287874 161.52539 95.132812 C 161.3739 94.981278 161.22625 94.827232 161.07227 94.677734 C 160.90763 94.512844 160.74571 94.346074 160.57812 94.183594 C 160.41958 94.025006 160.26479 93.863387 160.10352 93.707031 C 159.93913 93.542595 159.77669 93.376879 159.60938 93.214844 C 159.45624 93.061817 159.30607 92.906806 159.15039 92.755859 C 158.99098 92.596337 158.83404 92.434609 158.67188 92.277344 C 158.51558 92.120916 158.36207 91.962852 158.20312 91.808594 C 158.03105 91.636205 157.86084 91.462723 157.68555 91.292969 C 157.52992 91.137383 157.377 90.979607 157.21875 90.826172 C 157.0616 90.668858 156.90789 90.508636 156.74805 90.353516 C 156.57438 90.179489 156.40351 90.003374 156.22656 89.832031 C 156.07488 89.680362 155.92566 89.52658 155.77148 89.376953 C 155.59589 89.200953 155.42309 89.022866 155.24414 88.849609 C 155.08595 88.691415 154.93043 88.530972 154.76953 88.375 C 154.60529 88.210539 154.44256 88.044876 154.27539 87.882812 C 154.11469 87.721869 153.95647 87.559039 153.79297 87.400391 C 153.61608 87.223056 153.44201 87.043691 153.26172 86.869141 C 153.10714 86.714508 152.956 86.556808 152.79883 86.404297 C 152.62003 86.224996 152.44399 86.043642 152.26172 85.867188 C 152.09999 85.705365 151.93996 85.542311 151.77539 85.382812 C 151.60826 85.215384 151.44361 85.045804 151.27344 84.880859 C 151.10922 84.716308 150.9484 84.548872 150.78125 84.386719 C 150.60117 84.206106 150.42384 84.023429 150.24023 83.845703 C 150.07726 83.68259 149.91586 83.518175 149.75 83.357422 C 149.58439 83.191444 149.4225 83.022913 149.25391 82.859375 C 149.07222 82.677099 148.89232 82.493789 148.70703 82.314453 C 148.54664 82.153882 148.38975 81.990317 148.22656 81.832031 C 148.04392 81.648779 147.86401 81.463484 147.67773 81.283203 C 147.51141 81.116676 147.34706 80.949224 147.17773 80.785156 C 147.00548 80.612458 146.83564 80.437636 146.66016 80.267578 C 146.49134 80.098301 146.32622 79.926507 146.1543 79.759766 C 145.97427 79.579068 145.79684 79.39656 145.61328 79.21875 C 145.43382 79.038828 145.25718 78.856741 145.07422 78.679688 C 144.90727 78.512469 144.74224 78.344426 144.57227 78.179688 C 144.39545 78.002275 144.22124 77.823065 144.04102 77.648438 C 143.86424 77.471097 143.68994 77.291746 143.50977 77.117188 C 143.33366 76.940541 143.15995 76.761775 142.98047 76.587891 C 142.80294 76.409787 142.62823 76.229984 142.44727 76.054688 C 142.26974 75.876583 142.09502 75.696782 141.91406 75.521484 C 141.73651 75.343335 141.56184 75.163623 141.38086 74.988281 C 141.2022 74.808985 141.02588 74.627625 140.84375 74.451172 C 140.66366 74.270428 140.48636 74.088011 140.30273 73.910156 C 140.12275 73.729528 139.94523 73.546883 139.76172 73.369141 C 139.58242 73.189195 139.40546 73.00716 139.22266 72.830078 C 139.04208 72.648806 138.86382 72.465476 138.67969 72.287109 C 138.503 72.10972 138.32853 71.930467 138.14844 71.755859 C 137.95491 71.561369 137.76402 71.364977 137.56641 71.173828 C 137.39092 70.997872 137.2179 70.8197 137.03906 70.646484 C 136.8603 70.466979 136.6842 70.286033 136.50195 70.109375 C 136.31231 69.918768 136.12521 69.726461 135.93164 69.539062 C 135.74287 69.34955 135.55594 69.158993 135.36328 68.972656 C 135.18477 68.793597 135.01011 68.611768 134.82812 68.435547 C 134.64823 68.25487 134.47053 68.072324 134.28711 67.894531 C 134.09039 67.696732 133.89626 67.497079 133.69531 67.302734 C 133.51566 67.12248 133.33747 66.941052 133.1543 66.763672 C 132.96764 66.576136 132.78421 66.385601 132.59375 66.201172 C 132.40678 66.013308 132.22204 65.823418 132.03125 65.638672 C 131.84816 65.454692 131.66721 65.268881 131.48047 65.087891 C 131.2812 64.887447 131.08447 64.685179 130.88086 64.488281 C 122.48485 56.061016 110.22724 50.744141 96.568359 50.744141 z "
       transform="translate(0,860.36216)"
       id="path31110" />
    <g
       id="g32578">
      <path
         style="fill:#f5f5f5;filter:url(#filter27567)"
         inkscape:connector-curvature="0"
         d="m 96.000015,910.5372 c -25.305572,0 -45.824982,20.51939 -45.824982,45.82498 0,25.30559 20.51941,45.82502 45.824982,45.82502 4.226075,0 7.637485,-3.41146 7.637485,-7.6375 0,-1.98579 -0.76373,-3.76787 -1.98574,-5.14262 -1.17108,-1.32381 -1.934831,-3.10589 -1.934831,-5.04075 0,-4.22609 3.411401,-7.63749 7.637501,-7.63749 l 9.01226,0 c 14.05298,0 25.45832,-11.40535 25.45832,-25.45833 0,-22.50517 -20.51941,-40.73331 -45.824995,-40.73331 z"
         id="path27516"
         sodipodi:nodetypes="sssscsssss" />
      <path
         style="opacity:1;fill:#673ab7;fill-opacity:1;fill-rule:nonzero;stroke:none;stroke-width:2.94899988;stroke-linecap:butt;stroke-linejoin:miter;stroke-miterlimit:4;stroke-dasharray:none;stroke-dashoffset:0;stroke-opacity:1"
         d="M 67.996094 80.724609 C 63.770014 80.724609 60.357422 84.137201 60.357422 88.363281 C 60.357422 92.589361 63.770014 96 67.996094 96 C 72.222176 96 75.632812 92.589361 75.632812 88.363281 C 75.632812 84.137201 72.222176 80.724609 67.996094 80.724609 z "
         transform="translate(0,860.36216)"
         id="rect27533" />
      <path
         style="opacity:1;fill:#2196f3;fill-opacity:1;fill-rule:nonzero;stroke:none;stroke-width:2.94899988;stroke-linecap:butt;stroke-linejoin:miter;stroke-miterlimit:4;stroke-dasharray:none;stroke-dashoffset:0;stroke-opacity:1"
         d="M 83.271484 60.357422 C 79.045401 60.357422 75.632812 63.770004 75.632812 67.996094 C 75.632812 72.222184 79.045401 75.632812 83.271484 75.632812 C 87.497567 75.632812 90.908203 72.222184 90.908203 67.996094 C 90.908203 63.770004 87.497567 60.357422 83.271484 60.357422 z "
         transform="translate(0,860.36216)"
         id="rect27535" />
      <path
         style="opacity:1;fill:#ffeb3b;fill-opacity:1;fill-rule:nonzero;stroke:none;stroke-width:2.94899988;stroke-linecap:butt;stroke-linejoin:miter;stroke-miterlimit:4;stroke-dasharray:none;stroke-dashoffset:0;stroke-opacity:1"
         d="M 108.72852 60.357422 C 104.50243 60.357422 101.0918 63.770004 101.0918 67.996094 C 101.0918 72.222184 104.50243 75.632812 108.72852 75.632812 C 112.95462 75.632812 116.36719 72.222184 116.36719 67.996094 C 116.36719 63.770004 112.95462 60.357422 108.72852 60.357422 z "
         transform="translate(0,860.36216)"
         id="rect27537" />
      <path
         style="opacity:1;fill:#f44336;fill-opacity:1;fill-rule:nonzero;stroke:none;stroke-width:2.94899988;stroke-linecap:butt;stroke-linejoin:miter;stroke-miterlimit:4;stroke-dasharray:none;stroke-dashoffset:0;stroke-opacity:1"
         d="M 124.00391 80.724609 C 119.77782 80.724609 116.36719 84.137201 116.36719 88.363281 C 116.36719 92.589361 119.77782 96 124.00391 96 C 128.23 96 131.64258 92.589361 131.64258 88.363281 C 131.64258 84.137201 128.23 80.724609 124.00391 80.724609 z "
         transform="translate(0,860.36216)"
         id="rect27539" />
    </g>
    <g
       id="g27563">
      <path
         style="fill:#263238;opacity:0.2"
         d="M 141.81055 91.431641 C 141.53073 105.2426 130.24476 116.36719 116.36719 116.36719 L 107.35352 116.36719 C 103.12742 116.36719 99.716797 119.77782 99.716797 124.00391 C 99.716797 124.17414 99.730606 124.34211 99.742188 124.50977 C 99.997358 120.51652 103.29449 117.36719 107.35352 117.36719 L 116.36719 117.36719 C 130.42017 117.36719 141.82422 105.96118 141.82422 91.908203 C 141.82422 91.748421 141.81261 91.590986 141.81055 91.431641 z M 50.1875 96.5 C 50.185702 96.667295 50.175781 96.83228 50.175781 97 C 50.175781 122.30559 70.694428 142.82422 96 142.82422 C 100.22607 142.82422 103.63672 139.41354 103.63672 135.1875 C 103.63672 135.01518 103.62263 134.84685 103.61133 134.67773 C 103.35865 138.67337 100.06073 141.82422 96 141.82422 C 70.862148 141.82422 50.457007 121.57416 50.1875 96.5 z "
         transform="translate(0,860.36216)"
         id="path27555" />
      <path
         style="fill:#ffffff;opacity:0.2"
         d="M 96 50.175781 C 70.694428 50.175781 50.175781 70.69441 50.175781 96 C 50.175781 96.16772 50.185702 96.332705 50.1875 96.5 C 50.457007 71.425839 70.862148 51.175781 96 51.175781 C 121.12592 51.175781 141.52204 69.147251 141.81055 91.431641 C 141.81408 91.257079 141.82422 91.083607 141.82422 90.908203 C 141.82422 68.403033 121.30558 50.175781 96 50.175781 z M 99.742188 124.50977 C 99.731684 124.67413 99.716797 124.83683 99.716797 125.00391 C 99.716797 126.93877 100.48126 128.72111 101.65234 130.04492 C 102.76831 131.30038 103.49238 132.89795 103.61133 134.67773 C 103.62162 134.51504 103.63672 134.35284 103.63672 134.1875 C 103.63672 132.20171 102.87435 130.41967 101.65234 129.04492 C 100.5843 127.83758 99.862239 126.24772 99.742188 124.50977 z "
         transform="translate(0,860.36216)"
         id="path27558" />
    </g>
  </g>
  <g
     sodipodi:insensitive="true"
     inkscape:label="finish"
     id="layer3"
     inkscape:groupmode="layer">
    <path
       inkscape:connector-curvature="0"
       id="path4180"
       d="m 32,20 c -6,0 -12,6 -12,12 l 0,1 c 0,-6 6,-12 12,-12 l 128,0 c 6,0 12,6 12,12 l 0,-1 c 0,-6 -6,-12 -12,-12 L 32,20 Z"
       style="opacity:0.1;fill:#ffffff;fill-opacity:1;fill-rule:evenodd;stroke:none;stroke-width:1px;stroke-linecap:butt;stroke-linejoin:miter;stroke-opacity:1" />
    <path
       inkscape:connector-curvature="0"
       id="path4186"
       d="m 20,159 0,1 c 0,6 6,12 12,12 l 128,0 c 6,0 12,-6 12,-12 l 0,-1 c 0,6 -6,12 -12,12 l -128,0 c -6,0 -12,-6 -12,-12 z"
       style="opacity:0.2;fill:#263238;fill-opacity:1;fill-rule:evenodd;stroke:none;stroke-width:1px;stroke-linecap:butt;stroke-linejoin:miter;stroke-opacity:1" />
    <path
       style="opacity:0.1;fill:url(#radialGradient4200);fill-opacity:1;fill-rule:evenodd;stroke:none;stroke-width:0.1;stroke-linecap:butt;stroke-linejoin:miter;stroke-miterlimit:4;stroke-dasharray:none;stroke-opacity:1"
       d="m 32,880.36216 128,0 c 6,0 12,6 12,12 l 0,128.00004 c 0,6 -6,12 -12,12 l -128,0 c -6,0 -12,-6 -12,-12 l 0,-128.00004 c 0,-6 6,-12 12,-12 z"
       id="path4192"
       inkscape:connector-curvature="0"
       sodipodi:nodetypes="ccccccccc"
       transform="translate(0,-860.36216)" />
  </g>
</svg>
