<?xml version="1.0" encoding="utf-8"?>
<!-- Generator: Adobe Illustrator 19.0.1, SVG Export Plug-In . SVG Version: 6.00 Build 0)  -->
<!DOCTYPE svg PUBLIC "-//W3C//DTD SVG 1.1//EN" "http://www.w3.org/Graphics/SVG/1.1/DTD/svg11.dtd">
<svg version="1.1"
	 id="svg2" xmlns:svg="http://www.w3.org/2000/svg" xmlns:dc="http://purl.org/dc/elements/1.1/" xmlns:rdf="http://www.w3.org/1999/02/22-rdf-syntax-ns#" xmlns:cc="http://creativecommons.org/ns#" xmlns:sodipodi="http://sodipodi.sourceforge.net/DTD/sodipodi-0.dtd" xmlns:inkscape="http://www.inkscape.org/namespaces/inkscape" inkscape:export-ydpi="90" inkscape:export-xdpi="90" inkscape:export-filename="C:\Users\Simon\Documents\Material Design Icon Pack\PNG\unicon.png" sodipodi:docname="unicon.svg" inkscape:version="0.91 r13725"
	 xmlns="http://www.w3.org/2000/svg" xmlns:xlink="http://www.w3.org/1999/xlink" x="0px" y="0px" viewBox="-443 865 192 192"
	 style="enable-background:new -443 865 192 192;" xml:space="preserve">
<style type="text/css">
	.st0{filter:url(#filter7743);}
	.st1{fill:#8BC34A;}
	.st2{fill:none;stroke:#8BC34A;stroke-width:1.0001;stroke-linejoin:round;}
	.st3{opacity:0.2;fill:#339489;stroke:#FFFFFF;stroke-width:0.9969;stroke-linejoin:round;enable-background:new    ;}
	.st4{opacity:0.2;fill:#006D60;stroke:#263238;stroke-width:0.997;stroke-linejoin:round;enable-background:new    ;}
	.st5{fill:#8BC34A;stroke:#8BC34A;stroke-width:0.9936;stroke-linejoin:round;}
	.st6{opacity:0.2;clip-path:url(#SVGID_2_);fill:url(#path4283_1_);enable-background:new    ;}
	.st7{fill:#FFFFFF;}
	.st8{fill:#673AB7;}
	.st9{fill:#2196F3;}
	.st10{fill:#FFEB3B;}
	.st11{fill:#F44336;}
	.st12{fill:#CCCCCC;}
	.st13{fill:#F2F2F2;}
	
		.st14{opacity:0.1;fill:url(#rect7724_1_);stroke:url(#rect7724_2_);stroke-width:1.0001;stroke-linejoin:round;enable-background:new    ;}
</style>
<filter  inkscape:label="Drop Shadow" style="color-interpolation-filters:sRGB;" id="filter7743">
	<feFlood  result="flood" flood-color="rgb(0,0,0)" flood-opacity="0.301961" id="feFlood7745"></feFlood>
	<feComposite  operator="in" in2="SourceGraphic" in="flood" result="composite1" id="feComposite7747"></feComposite>
	<feGaussianBlur  in="composite1" stdDeviation="1.7" result="blur" id="feGaussianBlur7749"></feGaussianBlur>
	<feOffset  dy="3" dx="4.57967e-015" result="offset" id="feOffset7751"></feOffset>
	<feComposite  operator="over" in2="offset" in="SourceGraphic" result="composite2" id="feComposite7753"></feComposite>
</filter>
<sodipodi:namedview  showgrid="true" showguides="false" inkscape:cy="60.561443" inkscape:cx="208.58317" borderopacity="1.0" bordercolor="#666666" pagecolor="#ffffff" id="base" inkscape:zoom="3.75" inkscape:snap-global="false" inkscape:window-maximized="1" inkscape:window-y="-8" inkscape:window-x="-8" inkscape:window-height="1017" inkscape:window-width="1920" inkscape:guide-bbox="true" inkscape:pageshadow="2" inkscape:current-layer="layer4" inkscape:pageopacity="0.0" inkscape:document-units="px">
	<inkscape:grid  type="xygrid" empspacing="5" enabled="true" visible="true" id="grid2985" snapvisiblegridlinesonly="true">
		</inkscape:grid>
	<sodipodi:guide  id="guide3002" orientation="1,0" position="8,58.524064"></sodipodi:guide>
	<sodipodi:guide  id="guide3004" orientation="1,0" position="20,69.304813"></sodipodi:guide>
	<sodipodi:guide  id="guide3006" orientation="1,0" position="32,62.631016"></sodipodi:guide>
	<sodipodi:guide  id="guide3008" orientation="1,0" position="68,53.390374"></sodipodi:guide>
	<sodipodi:guide  id="guide3010" orientation="0,1" position="119.61497,8"></sodipodi:guide>
	<sodipodi:guide  id="guide3012" orientation="0,1" position="155.5508,20"></sodipodi:guide>
	<sodipodi:guide  id="guide3014" orientation="0,1" position="132.96257,32"></sodipodi:guide>
	<sodipodi:guide  id="guide3016" orientation="0,1" position="130.90909,68"></sodipodi:guide>
	<sodipodi:guide  id="guide3018" orientation="0,1" position="137.06952,184"></sodipodi:guide>
	<sodipodi:guide  id="guide3020" orientation="1,0" position="184,145.79679"></sodipodi:guide>
	<sodipodi:guide  id="guide3022" orientation="0,1" position="91.379679,172"></sodipodi:guide>
	<sodipodi:guide  id="guide3024" orientation="1,0" position="172.15693,140.10142"></sodipodi:guide>
	<sodipodi:guide  id="guide3026" orientation="0,1" position="149.39037,160"></sodipodi:guide>
	<sodipodi:guide  id="guide3028" orientation="1,0" position="160,88.299465"></sodipodi:guide>
	<sodipodi:guide  id="guide3030" orientation="0,1" position="128.34225,124"></sodipodi:guide>
	<sodipodi:guide  id="guide3032" orientation="1,0" position="124,92.919786"></sodipodi:guide>
</sodipodi:namedview>
<g id="layer6" inkscape:label="Square 2" inkscape:groupmode="layer">
	<g id="rect7720" class="st0">
		<path class="st1" d="M-411.6,885.5h129.2c6,0,10.9,4.9,10.9,10.9v129.2c0,6-4.9,10.9-10.9,10.9h-129.2c-6,0-10.9-4.9-10.9-10.9
			V896.4C-422.5,890.4-417.6,885.5-411.6,885.5z"/>
		<path class="st2" d="M-411.6,885.5h129.2c6,0,10.9,4.9,10.9,10.9v129.2c0,6-4.9,10.9-10.9,10.9h-129.2c-6,0-10.9-4.9-10.9-10.9
			V896.4C-422.5,890.4-417.6,885.5-411.6,885.5z"/>
	</g>
</g>
<g id="layer4" inkscape:label="Square" inkscape:groupmode="layer">
	<path id="rect7755" class="st3" d="M-411.7,885.5h129.3c6,0,10.8,4.8,10.8,10.8v128.4c0,6-4.8,10.8-10.8,10.8h-129.3
		c-6,0-10.8-4.8-10.8-10.8V896.3C-422.5,890.3-417.7,885.5-411.7,885.5z"/>
	<path id="rect7757" class="st4" d="M-411.7,886.5h129.3c6,0,10.8,4.8,10.8,10.8v128.4c0,6-4.8,10.8-10.8,10.8h-129.3
		c-6,0-10.8-4.8-10.8-10.8V897.3C-422.5,891.3-417.7,886.5-411.7,886.5z"/>
	<path id="rect3811" class="st5" d="M-411.7,886.5h129.5c5.9,0,10.8,4.8,10.8,10.8v127.5c0,5.9-4.8,10.8-10.8,10.8h-129.5
		c-5.9,0-10.8-4.8-10.8-10.8V897.2C-422.5,891.3-417.7,886.5-411.7,886.5z"/>
	<g id="flowRoot9367">
	</g>
	<g>
		<defs>
			<path id="SVGID_1_" d="M-411.6,885.5h129.2c6,0,10.9,4.9,10.9,10.9v129.2c0,6-4.9,10.9-10.9,10.9h-129.2c-6,0-10.9-4.9-10.9-10.9
				V896.4C-422.5,890.4-417.6,885.5-411.6,885.5z"/>
		</defs>
		<clipPath id="SVGID_2_">
			<use xlink:href="#SVGID_1_"  style="overflow:visible;"/>
		</clipPath>
		
			<linearGradient id="path4283_1_" gradientUnits="userSpaceOnUse" x1="-392.231" y1="1009.3156" x2="-270.6661" y2="887.4489" gradientTransform="matrix(1 0 0 -1 0 1924)">
			<stop  offset="0" style="stop-color:#263238"/>
			<stop  offset="1" style="stop-color:#263238;stop-opacity:0"/>
		</linearGradient>
		<path id="path4283" class="st6" d="M-346.4,913.6c-26.5,0-48,21.5-48,48c0,13.4,5.5,25.5,14.4,34.2c0.2,0.2,0.4,0.4,0.5,0.5
			c0.2,0.2,0.4,0.4,0.6,0.6c0.2,0.2,0.4,0.4,0.6,0.6c0.2,0.2,0.4,0.4,0.6,0.6c0.2,0.2,0.4,0.4,0.6,0.6c0.2,0.2,0.3,0.4,0.5,0.5
			c0.2,0.2,0.4,0.4,0.6,0.6c0.2,0.2,0.4,0.4,0.5,0.5c0.2,0.2,0.4,0.4,0.6,0.6c0.2,0.2,0.4,0.4,0.6,0.6c0.2,0.2,0.4,0.4,0.5,0.5
			c0.2,0.2,0.4,0.4,0.6,0.6c0.2,0.2,0.3,0.3,0.5,0.5c0.2,0.2,0.4,0.4,0.6,0.6c0.2,0.2,0.4,0.4,0.5,0.5c0.2,0.2,0.4,0.4,0.5,0.5
			c0.2,0.2,0.4,0.4,0.6,0.6c0.2,0.2,0.3,0.3,0.5,0.5c0.2,0.2,0.4,0.4,0.6,0.6c0.2,0.2,0.4,0.4,0.6,0.6c0.2,0.2,0.3,0.3,0.5,0.5
			c0.2,0.2,0.3,0.3,0.5,0.5c0.2,0.2,0.4,0.4,0.5,0.5c0.2,0.2,0.4,0.4,0.5,0.5c0.2,0.2,0.4,0.4,0.5,0.5c0.2,0.2,0.3,0.3,0.5,0.5
			c0.2,0.2,0.3,0.4,0.5,0.5c0.2,0.2,0.3,0.3,0.5,0.5c0.2,0.2,0.3,0.3,0.5,0.5c0.2,0.2,0.4,0.4,0.6,0.6c0.2,0.2,0.3,0.3,0.5,0.5
			c0.2,0.2,0.3,0.3,0.5,0.5c0.2,0.2,0.4,0.4,0.5,0.5c0.2,0.2,0.4,0.4,0.5,0.5c0.2,0.2,0.3,0.3,0.5,0.5c0.2,0.2,0.4,0.4,0.5,0.5
			c0.2,0.2,0.3,0.3,0.5,0.5c0.2,0.2,0.3,0.4,0.5,0.5c0.2,0.2,0.3,0.3,0.5,0.5c0.2,0.2,0.3,0.3,0.5,0.5c0.2,0.2,0.3,0.3,0.5,0.5
			c0.2,0.2,0.4,0.4,0.5,0.5c0.2,0.2,0.3,0.3,0.5,0.5c0.2,0.2,0.3,0.3,0.5,0.5c0.2,0.2,0.3,0.3,0.5,0.5c0.2,0.2,0.3,0.3,0.5,0.5
			c0.2,0.2,0.3,0.3,0.5,0.5c0.2,0.2,0.3,0.3,0.5,0.5c0.2,0.2,0.3,0.3,0.5,0.5c0.2,0.2,0.3,0.3,0.5,0.5c0.2,0.2,0.3,0.3,0.5,0.5
			c0.2,0.2,0.3,0.3,0.5,0.5c0.1,0.2,0.3,0.3,0.4,0.4c0.2,0.2,0.3,0.3,0.5,0.5c0.2,0.2,0.3,0.3,0.5,0.5c0.2,0.2,0.3,0.3,0.5,0.5
			c0.2,0.2,0.3,0.3,0.5,0.5c0.2,0.2,0.3,0.3,0.5,0.5c0.2,0.2,0.3,0.3,0.5,0.5c0.2,0.2,0.3,0.3,0.5,0.5c0.2,0.2,0.3,0.3,0.5,0.5
			c0.2,0.2,0.3,0.3,0.5,0.5c0.2,0.2,0.3,0.3,0.5,0.5c0.1,0.1,0.3,0.3,0.4,0.4c0.2,0.2,0.3,0.3,0.5,0.5c0.1,0.1,0.3,0.3,0.4,0.4
			c0.2,0.2,0.3,0.3,0.5,0.5c0.2,0.2,0.3,0.3,0.5,0.5c0.2,0.2,0.3,0.3,0.5,0.5c0.2,0.2,0.3,0.3,0.5,0.5c0.1,0.2,0.3,0.3,0.5,0.4
			c0.2,0.2,0.3,0.3,0.5,0.5c0.1,0.1,0.3,0.3,0.4,0.4c0.2,0.2,0.3,0.3,0.5,0.5c0.2,0.2,0.3,0.3,0.5,0.5c0.1,0.1,0.3,0.3,0.4,0.4
			c0.1,0.1,0.3,0.3,0.4,0.4c0.2,0.2,0.3,0.3,0.5,0.5c0.2,0.2,0.3,0.3,0.5,0.5c0.1,0.1,0.3,0.3,0.4,0.4c0.1,0.1,0.3,0.3,0.4,0.4
			c0.2,0.2,0.3,0.3,0.5,0.5c0.1,0.2,0.3,0.3,0.5,0.5c0.1,0.1,0.3,0.3,0.4,0.4c0.1,0.1,0.3,0.3,0.4,0.4c0.1,0.1,0.3,0.3,0.4,0.4
			c0.1,0.1,0.3,0.3,0.4,0.4c0.1,0.1,0.3,0.3,0.4,0.4c0.1,0.1,0.3,0.3,0.4,0.4c0.1,0.1,0.3,0.3,0.4,0.4c0.1,0.1,0.3,0.3,0.4,0.4
			c0.1,0.1,0.3,0.3,0.4,0.4c0.1,0.1,0.3,0.3,0.4,0.4c0.1,0.1,0.3,0.3,0.4,0.4c0.1,0.1,0.3,0.3,0.4,0.4c0.1,0.1,0.3,0.3,0.4,0.4
			c0.1,0.1,0.3,0.3,0.4,0.4c0.1,0.1,0.3,0.3,0.4,0.4c0.1,0.1,0.3,0.3,0.4,0.4c0.1,0.1,0.3,0.3,0.4,0.4c0.1,0.1,0.3,0.3,0.4,0.4
			c0.1,0.1,0.3,0.3,0.4,0.4c0.1,0.1,0.3,0.3,0.4,0.4c0.1,0.1,0.3,0.3,0.4,0.4c0.1,0.1,0.3,0.3,0.4,0.4c0.1,0.1,0.2,0.2,0.4,0.4
			c0.1,0.1,0.3,0.3,0.4,0.4c0.1,0.1,0.2,0.2,0.4,0.4c0.1,0.1,0.3,0.3,0.4,0.4c0.1,0.1,0.3,0.3,0.4,0.4c0.1,0.1,0.3,0.3,0.4,0.4
			c0.1,0.1,0.2,0.2,0.4,0.3c0.1,0.1,0.3,0.3,0.4,0.4c0.1,0.1,0.2,0.2,0.3,0.3c0.1,0.1,0.3,0.3,0.4,0.4c0.1,0.1,0.3,0.3,0.4,0.4
			c0.1,0.1,0.3,0.3,0.4,0.4c0.1,0.1,0.3,0.3,0.4,0.4c0.1,0.1,0.2,0.2,0.3,0.3c0.1,0.1,0.3,0.3,0.4,0.4c0.1,0.1,0.2,0.2,0.4,0.4
			c0.1,0.1,0.2,0.2,0.4,0.4c0.1,0.1,0.3,0.3,0.4,0.4c0.1,0.1,0.2,0.2,0.3,0.3c0.1,0.1,0.2,0.2,0.4,0.4c0.1,0.1,0.2,0.2,0.3,0.3
			c0.1,0.1,0.3,0.3,0.4,0.4c0.1,0.1,0.2,0.2,0.4,0.4c0.1,0.1,0.3,0.3,0.4,0.4c0.1,0.1,0.2,0.2,0.3,0.3c0.1,0.1,0.3,0.3,0.4,0.4
			c0.1,0.1,0.2,0.2,0.3,0.3c0.1,0.1,0.2,0.2,0.4,0.4c0.1,0.1,0.2,0.2,0.3,0.3c0.1,0.1,0.2,0.2,0.4,0.4c0.1,0.1,0.2,0.2,0.3,0.3
			c0.1,0.1,0.3,0.3,0.4,0.4c0.1,0.1,0.2,0.2,0.3,0.3c0.1,0.1,0.2,0.2,0.3,0.3c0.1,0.1,0.2,0.2,0.3,0.3c0.1,0.1,0.2,0.2,0.3,0.3
			c0.1,0.1,0.2,0.2,0.4,0.4c0.1,0.1,0.2,0.2,0.3,0.3c0.1,0.1,0.2,0.2,0.4,0.3c0.1,0.1,0.2,0.2,0.3,0.3c0.1,0.1,0.2,0.2,0.3,0.3
			c0.1,0.1,0.2,0.2,0.3,0.3c0.1,0.1,0.2,0.2,0.3,0.3c0.1,0.1,0.2,0.2,0.3,0.3c0.1,0.1,0.2,0.2,0.3,0.3c0.1,0.1,0.2,0.2,0.3,0.3
			c0.1,0.1,0.2,0.2,0.3,0.3c0.1,0.1,0.2,0.2,0.3,0.3c0.1,0.1,0.2,0.2,0.3,0.3c0.1,0.1,0.2,0.2,0.4,0.4c0.1,0.1,0.2,0.2,0.3,0.3
			c0.1,0.1,0.2,0.2,0.3,0.3c0.1,0.1,0.2,0.2,0.3,0.3c0.1,0.1,0.2,0.2,0.3,0.3c0.1,0.1,0.2,0.2,0.3,0.3c0.1,0.1,0.2,0.2,0.3,0.3
			c0.1,0.1,0.2,0.2,0.3,0.3c0.1,0.1,0.2,0.2,0.3,0.3c0.1,0.1,0.2,0.2,0.3,0.3c0.1,0.1,0.2,0.2,0.3,0.3c0.1,0.1,0.2,0.2,0.3,0.3
			c0.1,0.1,0.2,0.2,0.3,0.3c0.1,0.1,0.2,0.2,0.3,0.3c0.1,0.1,0.2,0.2,0.3,0.3c0.1,0.1,0.2,0.2,0.3,0.3c0.1,0.1,0.2,0.2,0.3,0.3
			c0.1,0.1,0.2,0.2,0.3,0.3c0.1,0.1,0.2,0.2,0.3,0.3c0.1,0.1,0.2,0.2,0.3,0.3c0.1,0.1,0.2,0.2,0.3,0.3c0.1,0.1,0.2,0.2,0.3,0.3
			c0.1,0.1,0.2,0.2,0.3,0.3c0.1,0.1,0.2,0.2,0.3,0.3c0.1,0.1,0.2,0.2,0.2,0.2c0.1,0.1,0.2,0.2,0.3,0.3c0.1,0.1,0.2,0.2,0.3,0.3
			c0.1,0.1,0.2,0.2,0.3,0.3c0.1,0.1,0.2,0.2,0.2,0.2c0.1,0.1,0.2,0.2,0.3,0.3c0.1,0.1,0.2,0.2,0.2,0.2c0.1,0.1,0.2,0.2,0.3,0.3
			c0.1,0.1,0.2,0.2,0.3,0.3c0.1,0.1,0.2,0.2,0.3,0.3c0.1,0.1,0.2,0.2,0.3,0.3c0.1,0.1,0.1,0.1,0.2,0.2c0.1,0.1,0.2,0.2,0.3,0.3
			c0.1,0.1,0.2,0.2,0.3,0.3c0.1,0.1,0.2,0.2,0.3,0.3c0.1,0.1,0.2,0.2,0.3,0.3c0.1,0.1,0.2,0.2,0.3,0.3c0.1,0.1,0.1,0.1,0.2,0.2
			c0.1,0.1,0.2,0.2,0.3,0.3c0.1,0.1,0.2,0.2,0.2,0.2c0.1,0.1,0.2,0.2,0.2,0.2c0.1,0.1,0.2,0.2,0.2,0.2c0.1,0.1,0.2,0.2,0.3,0.3
			c0.1,0.1,0.1,0.1,0.2,0.2c0.1,0.1,0.2,0.2,0.3,0.3c0.1,0.1,0.2,0.2,0.2,0.2c0.1,0.1,0.2,0.2,0.2,0.2c0.1,0.1,0.2,0.2,0.3,0.3
			c0.1,0.1,0.1,0.1,0.2,0.2c0.1,0.1,0.2,0.2,0.3,0.3c0.1,0.1,0.1,0.1,0.2,0.2c0.1,0.1,0.2,0.2,0.2,0.2c0.1,0.1,0.2,0.2,0.2,0.2
			c0.1,0.1,0.2,0.2,0.2,0.2c0.1,0.1,0.1,0.1,0.2,0.2c0.1,0.1,0.2,0.2,0.3,0.3c0.1,0.1,0.1,0.1,0.2,0.2c0.1,0.1,0.1,0.1,0.2,0.2
			c0.1,0.1,0.1,0.1,0.2,0.2c0.1,0.1,0.1,0.1,0.2,0.2c0.1,0.1,0.1,0.1,0.2,0.2c0.1,0.1,0.2,0.2,0.2,0.2c0.1,0.1,0.2,0.2,0.2,0.2
			c0.1,0.1,0.1,0.1,0.2,0.2c0.1,0.1,0.1,0.1,0.2,0.2c0.1,0.1,0.1,0.2,0.2,0.2c0.1,0.1,0.1,0.1,0.2,0.2c0.1,0.1,0.1,0.1,0.2,0.2
			c0.1,0.1,0.1,0.1,0.2,0.2c0.1,0.1,0.1,0.1,0.2,0.2c0.1,0.1,0.1,0.1,0.2,0.2c0.1,0.1,0.1,0.1,0.2,0.2c0.1,0.1,0.1,0.1,0.2,0.2
			c0.1,0.1,0.2,0.2,0.2,0.2c0.1,0.1,0.1,0.1,0.2,0.2c0.1,0.1,0.1,0.1,0.2,0.2c0.1,0.1,0.1,0.1,0.2,0.2c0.1,0.1,0.1,0.1,0.2,0.2
			c0.1,0.1,0.1,0.1,0.2,0.2c0,0,0.1,0.1,0.1,0.1c0.1,0.1,0.1,0.1,0.2,0.2c0.1,0.1,0.1,0.1,0.2,0.2c0.1,0.1,0.1,0.1,0.2,0.2
			c0.1,0.1,0.1,0.1,0.2,0.2c0,0,0.1,0.1,0.1,0.1c0.1,0.1,0.1,0.1,0.2,0.2c0.1,0.1,0.1,0.1,0.2,0.2c0,0,0.1,0.1,0.1,0.1
			c0,0,0.1,0.1,0.1,0.1c0.1,0.1,0.1,0.1,0.2,0.2c0.1,0.1,0.1,0.1,0.2,0.2c0,0,0.1,0.1,0.1,0.1c0,0,0.1,0.1,0.1,0.1
			c0.1,0.1,0.1,0.1,0.2,0.2c0,0,0.1,0.1,0.1,0.1c0,0,0.1,0.1,0.1,0.1c0.1,0.1,0.1,0.1,0.2,0.2c0,0,0.1,0.1,0.1,0.1
			c0.1,0.1,0.1,0.1,0.2,0.2c0,0.1,0.1,0.1,0.2,0.2c0.1,0.1,0.1,0.1,0.2,0.2c0,0,0.1,0.1,0.1,0.1c0,0,0.1,0.1,0.1,0.1
			c0.1,0.1,0.1,0.1,0.2,0.2c0,0,0.1,0.1,0.1,0.1c0,0,0.1,0.1,0.1,0.1c0,0,0.1,0.1,0.1,0.1c0.1,0.1,0.1,0.1,0.2,0.2
			c0,0,0.1,0.1,0.1,0.1c0.1,0.1,0.1,0.1,0.2,0.2c0,0,0.1,0.1,0.1,0.1c0,0,0.1,0.1,0.1,0.1c0,0,0.1,0.1,0.1,0.1c0,0,0.1,0.1,0.1,0.1
			c0,0,0.1,0.1,0.1,0.1c0,0,0.1,0.1,0.1,0.1c0,0,0.1,0.1,0.1,0.1c0,0,0.1,0.1,0.1,0.1c0,0,0.1,0.1,0.1,0.1c0,0,0.1,0.1,0.1,0.1
			c0,0,0.1,0.1,0.1,0.1c0,0,0.1,0.1,0.1,0.1c0,0,0.1,0.1,0.1,0.1c0,0,0.1,0.1,0.1,0.1c0,0,0.1,0.1,0.1,0.1c0,0,0.1,0.1,0.1,0.1
			c0,0,0,0,0.1,0.1c0,0,0.1,0.1,0.1,0.1c0,0,0.1,0.1,0.1,0.1c0,0,0.1,0.1,0.1,0.1c0,0,0.1,0.1,0.1,0.1c0,0,0,0,0.1,0.1
			c0,0,0.1,0.1,0.1,0.1c0,0,0,0,0.1,0.1c0,0,0.1,0.1,0.1,0.1c0,0,0.1,0.1,0.1,0.1c0,0,0,0,0.1,0.1c0,0,0,0,0.1,0.1
			c0,0,0.1,0.1,0.1,0.1c0,0,0.1,0.1,0.1,0.1c0,0,0,0,0.1,0.1c0,0,0.1,0.1,0.1,0.1c0,0,0,0,0.1,0.1c0,0,0.1,0.1,0.1,0.1c0,0,0,0,0,0
			c0,0,0.1,0.1,0.1,0.1c0,0,0,0,0.1,0.1c0,0,0,0,0.1,0.1c0,0,0.1,0.1,0.1,0.1c0,0,0,0,0,0c0,0,0.1,0.1,0.1,0.1c0,0,0,0,0,0
			c0,0,0,0,0.1,0.1c0,0,0,0,0.1,0.1c0,0,0,0,0,0c0,0,0.1,0.1,0.1,0.1c0,0,0,0,0,0c0,0,0,0.1,0.1,0.1c0,0,0,0,0.1,0.1
			c0,0,0,0,0.1,0.1c0,0,0,0,0.1,0.1c0,0,0,0,0,0c0,0,0.1,0.1,0.1,0.1c0,0,0,0,0,0c0,0,0,0,0,0c0,0,0,0,0,0c0,0,0,0,0.1,0.1
			c0,0,0.1,0,0.1,0.1c0,0,0,0,0,0c0,0,0,0,0.1,0.1c0,0,0,0,0,0c0,0,0,0,0.1,0.1c0,0,0,0,0,0l0,0c0,0,0,0,0,0s0,0,0,0c0,0,0,0,0,0
			c0,0,0,0,0,0c0,0,0,0,0,0c0,0,0,0,0,0c0,0,0,0,0,0c0,0,0,0,0,0c0,0,0,0,0,0c0,0,0,0,0,0l0,0c0,0,0,0,0,0s0,0,0,0c0,0,0,0,0,0
			c0,0,0,0,0,0c0,0,0,0,0,0c0,0,0,0,0,0v0l0,0c0,0,0,0,0,0c0,0,0,0,0,0c0,0,0,0,0,0c0,0,0,0,0,0c0,0,0,0,0,0l0,0l0,0c0,0,0,0,0,0
			c0.2,0.2,0.4,0.4,0.6,0.6c0.3,0.3,0.5,0.5,0.8,0.8c0,0,0.1,0.1,0.1,0.1c0,0,0.1,0.1,0.1,0.1c0,0,0,0,0,0c0.5,0.5,1.1,1,1.7,1.5
			c0,0,0,0,0.1,0.1c0,0,0,0,0,0c0,0,0,0,0,0c0.6,0.5,1.2,1,1.8,1.4c0,0,0,0,0,0c0.6,0.5,1.2,0.9,1.9,1.3c0,0,0,0,0,0c0,0,0,0,0,0
			c0,0,0,0,0,0c0.6,0.4,1.3,0.8,1.9,1.2c0,0,0,0,0,0c0,0,0,0,0,0c0,0,0,0,0,0c0.7,0.4,1.3,0.8,2,1.2c0.6,0.4,1.3,0.7,2,1
			c0,0,0.1,0,0.1,0.1c0,0,0,0,0,0c0.7,0.3,1.4,0.7,2.1,1c0,0,0,0,0,0c0.7,0.3,1.4,0.6,2.2,0.9c0,0,0,0,0,0
			c5.1,1.9,10.7,2.9,16.5,2.9c4.4,0,8-3.6,8-8c0-0.8-0.1-1.5-0.3-2.2c-0.1-0.2-0.1-0.5-0.2-0.7c0,0,0,0,0,0
			c-0.4-0.9-0.9-1.7-1.5-2.4c0,0,0,0,0,0s0,0,0,0c-0.3-0.3-0.6-0.7-0.8-1.1c-0.1-0.2-0.2-0.4-0.3-0.6c0,0,0,0,0,0
			c-0.1-0.2-0.2-0.4-0.3-0.7c0,0,0,0,0,0c-0.2-0.4-0.3-0.9-0.4-1.4c-0.1-0.5-0.1-1-0.1-1.5c0-4.4,3.6-8,8-8h9.4
			c14.7,0,26.7-11.9,26.7-26.7c0-5.2-1-10.1-2.9-14.7c0,0,0,0,0,0c-0.3-0.7-0.6-1.3-0.9-1.9c0,0,0,0,0,0c-0.3-0.6-0.6-1.3-1-1.9
			c0,0,0,0,0,0c-0.3-0.6-0.7-1.2-1.1-1.8c0,0,0,0,0,0c-0.4-0.6-0.8-1.2-1.2-1.8c0,0,0,0,0,0c-0.4-0.6-0.8-1.2-1.2-1.7c0,0,0,0,0,0
			c0,0,0,0,0,0c-0.4-0.6-0.9-1.1-1.3-1.7c0,0,0,0,0,0c0,0,0,0,0,0c-0.5-0.5-0.9-1.1-1.4-1.6c0,0,0,0,0,0c0,0,0,0,0,0c0,0,0,0,0,0
			c0,0,0,0,0,0s0,0,0,0c0,0,0,0,0,0s0,0,0,0c0,0,0,0,0,0c-0.5-0.5-0.9-1-1.4-1.5c0,0,0,0,0,0c0,0,0,0,0,0c0,0,0,0,0,0c0,0,0,0,0,0
			c0,0,0,0,0,0c0,0,0,0,0,0l0,0l0,0l0,0c0,0,0,0,0,0c0,0,0,0,0,0c0,0,0,0,0,0c0,0,0,0,0,0c0,0,0,0,0,0c0,0,0,0,0,0c0,0,0,0,0,0
			c0,0,0,0,0,0c0,0,0,0,0,0c0,0,0,0,0,0c0,0,0,0,0,0c0,0,0,0,0,0c0,0,0,0,0,0c0,0,0,0,0,0c0,0,0,0,0,0c0,0,0,0,0,0c0,0,0,0,0,0
			c0,0,0,0,0,0s0,0,0,0c0,0,0,0,0,0c0,0,0,0,0,0c0,0,0,0,0,0c0,0,0,0,0,0c0,0,0,0,0,0c0,0,0,0,0,0c0,0,0,0,0,0c0,0,0,0,0,0
			c0,0,0,0,0,0c0,0,0,0,0,0c0,0,0,0,0,0c0,0-0.1-0.1-0.1-0.1c0,0,0,0-0.1-0.1c0,0-0.1,0-0.1-0.1c0,0,0,0,0,0c0,0-0.1-0.1-0.1-0.1
			c0,0,0,0-0.1-0.1c0,0,0,0,0,0c0,0,0,0,0,0c0,0-0.1-0.1-0.1-0.1c0,0,0,0,0,0c0,0,0,0-0.1-0.1c0,0,0,0,0,0c0,0-0.1-0.1-0.1-0.1
			c0,0,0,0,0,0c0,0-0.1-0.1-0.1-0.1c0,0,0,0-0.1-0.1c0,0,0,0,0,0c0,0-0.1-0.1-0.1-0.1c0,0-0.1-0.1-0.1-0.1c0,0-0.1-0.1-0.1-0.1
			c0,0-0.1-0.1-0.1-0.1c0,0-0.1-0.1-0.1-0.1c0,0-0.1-0.1-0.1-0.1c0,0-0.1-0.1-0.1-0.1c0,0-0.1-0.1-0.1-0.1c0,0-0.1-0.1-0.1-0.1
			c0,0-0.1-0.1-0.1-0.1c0,0-0.1-0.1-0.1-0.1c0,0-0.1-0.1-0.1-0.1c0,0,0,0-0.1-0.1c0,0-0.1-0.1-0.1-0.1c0,0-0.1-0.1-0.1-0.1
			c0,0-0.1-0.1-0.1-0.1c0,0-0.1-0.1-0.1-0.1c0,0-0.1-0.1-0.1-0.1c0,0-0.1-0.1-0.1-0.1c0,0-0.1-0.1-0.1-0.1c0,0-0.1-0.1-0.1-0.1
			c0,0-0.1-0.1-0.1-0.1c0,0-0.1-0.1-0.1-0.1c0,0-0.1-0.1-0.1-0.1c0,0-0.1-0.1-0.1-0.1c0,0-0.1-0.1-0.1-0.1c0,0-0.1-0.1-0.1-0.1
			c-0.1-0.1-0.1-0.1-0.2-0.2c0,0-0.1-0.1-0.1-0.1c0,0-0.1-0.1-0.1-0.1c0,0-0.1-0.1-0.1-0.1c0,0-0.1-0.1-0.1-0.1c0,0-0.1-0.1-0.1-0.1
			c-0.1-0.1-0.1-0.1-0.2-0.2c0,0-0.1-0.1-0.1-0.1c-0.1-0.1-0.1-0.1-0.2-0.2c0,0-0.1-0.1-0.1-0.1c-0.1-0.1-0.1-0.1-0.2-0.2
			c0,0-0.1-0.1-0.1-0.1c0,0-0.1-0.1-0.1-0.1c-0.1-0.1-0.1-0.1-0.2-0.2c0,0-0.1-0.1-0.1-0.1c0,0-0.1-0.1-0.1-0.1c0,0-0.1-0.1-0.1-0.1
			c0,0-0.1-0.1-0.1-0.1c0,0-0.1-0.1-0.1-0.1c-0.1-0.1-0.1-0.1-0.2-0.2c-0.1-0.1-0.1-0.1-0.2-0.2c0,0-0.1-0.1-0.1-0.1
			c-0.1-0.1-0.1-0.1-0.2-0.2c-0.1-0.1-0.1-0.1-0.2-0.2c-0.1-0.1-0.1-0.1-0.2-0.2c-0.1-0.1-0.1-0.1-0.2-0.2c-0.1-0.1-0.1-0.1-0.2-0.2
			c-0.1-0.1-0.1-0.1-0.2-0.2c-0.1-0.1-0.1-0.1-0.2-0.2c-0.1-0.1-0.1-0.1-0.2-0.2c-0.1-0.1-0.1-0.1-0.2-0.2c-0.1-0.1-0.1-0.1-0.2-0.2
			c-0.1-0.1-0.1-0.1-0.2-0.2c-0.1-0.1-0.1-0.1-0.2-0.2c-0.1-0.1-0.1-0.1-0.2-0.2c-0.1-0.1-0.1-0.1-0.2-0.2c-0.1-0.1-0.1-0.1-0.2-0.2
			c-0.1-0.1-0.1-0.1-0.2-0.2c-0.1-0.1-0.1-0.1-0.2-0.2c-0.1-0.1-0.1-0.1-0.2-0.2c-0.1-0.1-0.1-0.1-0.2-0.2c-0.1-0.1-0.1-0.1-0.2-0.2
			c-0.1-0.1-0.1-0.1-0.2-0.2c-0.1-0.1-0.1-0.1-0.2-0.2c-0.1-0.1-0.1-0.1-0.2-0.2c-0.1-0.1-0.1-0.1-0.2-0.2c-0.1-0.1-0.1-0.1-0.2-0.2
			c-0.1-0.1-0.1-0.1-0.2-0.2c-0.1-0.1-0.1-0.1-0.2-0.2c-0.1-0.1-0.1-0.1-0.2-0.2c-0.1-0.1-0.1-0.1-0.2-0.2c-0.1-0.1-0.1-0.1-0.2-0.2
			c-0.1-0.1-0.1-0.1-0.2-0.2c-0.1-0.1-0.1-0.1-0.2-0.2c-0.1-0.1-0.1-0.1-0.2-0.2c-0.1-0.1-0.1-0.1-0.2-0.2c-0.1-0.1-0.1-0.1-0.2-0.2
			c-0.1-0.1-0.1-0.1-0.2-0.2c-0.1-0.1-0.1-0.1-0.2-0.2c-0.1-0.1-0.1-0.1-0.2-0.2c-0.1-0.1-0.1-0.1-0.2-0.2c-0.1-0.1-0.2-0.2-0.2-0.2
			c-0.1-0.1-0.1-0.1-0.2-0.2c-0.1-0.1-0.2-0.2-0.2-0.2c-0.1-0.1-0.1-0.2-0.2-0.2c-0.1-0.1-0.1-0.2-0.2-0.2c-0.1-0.1-0.2-0.2-0.2-0.2
			c-0.1-0.1-0.1-0.2-0.2-0.2c-0.1-0.1-0.2-0.2-0.2-0.2c-0.1-0.1-0.2-0.2-0.2-0.2c-0.1-0.1-0.2-0.2-0.3-0.3c-0.1-0.1-0.1-0.1-0.2-0.2
			c-0.1-0.1-0.2-0.2-0.3-0.3c-0.1-0.1-0.2-0.2-0.2-0.2c-0.1-0.1-0.2-0.2-0.2-0.2c-0.1-0.1-0.2-0.2-0.3-0.3c-0.1-0.1-0.1-0.1-0.2-0.2
			c-0.1-0.1-0.2-0.2-0.3-0.3c-0.1-0.1-0.1-0.1-0.2-0.2c-0.1-0.1-0.2-0.2-0.3-0.3c-0.1-0.1-0.2-0.2-0.3-0.3c-0.1-0.1-0.2-0.2-0.3-0.3
			c-0.1-0.1-0.2-0.2-0.2-0.2c-0.1-0.1-0.2-0.2-0.3-0.3c-0.1-0.1-0.2-0.2-0.2-0.2c-0.1-0.1-0.2-0.2-0.3-0.3c-0.1-0.1-0.2-0.2-0.3-0.3
			c-0.1-0.1-0.2-0.2-0.3-0.3c-0.1-0.1-0.2-0.2-0.3-0.3c-0.1-0.1-0.1-0.2-0.2-0.2c-0.1-0.1-0.2-0.2-0.3-0.3c-0.1-0.1-0.2-0.2-0.3-0.3
			c-0.1-0.1-0.2-0.2-0.3-0.3c-0.1-0.1-0.2-0.2-0.3-0.3c-0.1-0.1-0.2-0.2-0.3-0.3c-0.1-0.1-0.2-0.2-0.3-0.3c-0.1-0.1-0.2-0.2-0.3-0.3
			c-0.1-0.1-0.2-0.2-0.3-0.3c-0.1-0.1-0.2-0.2-0.3-0.3c-0.1-0.1-0.2-0.2-0.3-0.3c-0.1-0.1-0.2-0.2-0.3-0.3c-0.1-0.1-0.2-0.2-0.3-0.3
			c-0.1-0.1-0.2-0.2-0.3-0.3c-0.1-0.1-0.2-0.2-0.3-0.3c-0.1-0.1-0.2-0.2-0.3-0.3c-0.1-0.1-0.2-0.2-0.3-0.3c-0.1-0.1-0.2-0.2-0.3-0.3
			c-0.1-0.1-0.2-0.2-0.3-0.3c-0.1-0.1-0.2-0.2-0.3-0.3c-0.1-0.1-0.2-0.2-0.3-0.3c-0.1-0.1-0.2-0.2-0.3-0.3c-0.1-0.1-0.2-0.2-0.3-0.3
			c-0.1-0.1-0.2-0.2-0.3-0.3c-0.1-0.1-0.2-0.2-0.3-0.3c-0.1-0.1-0.2-0.2-0.3-0.3c-0.1-0.1-0.2-0.2-0.3-0.3c-0.1-0.1-0.2-0.2-0.3-0.3
			c-0.1-0.1-0.2-0.2-0.3-0.3c-0.1-0.1-0.2-0.2-0.3-0.3c-0.1-0.1-0.2-0.2-0.3-0.3c-0.1-0.1-0.2-0.2-0.3-0.3c-0.1-0.1-0.2-0.2-0.3-0.3
			c-0.1-0.1-0.2-0.2-0.3-0.3c-0.1-0.1-0.2-0.2-0.3-0.3c-0.1-0.1-0.2-0.2-0.3-0.3c-0.1-0.1-0.2-0.2-0.3-0.3c-0.1-0.1-0.2-0.2-0.3-0.3
			c-0.1-0.1-0.2-0.2-0.3-0.3c-0.1-0.1-0.2-0.2-0.3-0.3c-0.1-0.1-0.2-0.2-0.3-0.3c-0.1-0.1-0.2-0.2-0.3-0.3c-0.1-0.1-0.2-0.2-0.4-0.3
			c-0.1-0.1-0.2-0.2-0.3-0.3c-0.1-0.1-0.2-0.2-0.4-0.4c-0.1-0.1-0.2-0.2-0.3-0.3c-0.1-0.1-0.2-0.2-0.3-0.3c-0.1-0.1-0.2-0.2-0.3-0.3
			c-0.1-0.1-0.2-0.2-0.3-0.3c-0.1-0.1-0.2-0.2-0.3-0.3c-0.1-0.1-0.2-0.2-0.3-0.3c-0.1-0.1-0.2-0.2-0.3-0.3c-0.1-0.1-0.2-0.2-0.3-0.3
			c-0.1-0.1-0.2-0.2-0.3-0.4c-0.1-0.1-0.2-0.2-0.4-0.4c-0.1-0.1-0.2-0.2-0.3-0.3c-0.1-0.1-0.2-0.2-0.4-0.4c-0.1-0.1-0.2-0.2-0.4-0.4
			c-0.1-0.1-0.2-0.2-0.4-0.4c-0.1-0.1-0.2-0.2-0.4-0.4c-0.1-0.1-0.2-0.2-0.4-0.4c-0.1-0.1-0.2-0.2-0.4-0.4c-0.1-0.1-0.2-0.2-0.4-0.4
			c-0.1-0.1-0.2-0.2-0.4-0.4c-0.1-0.1-0.3-0.3-0.4-0.4c-0.1-0.1-0.2-0.2-0.3-0.3c-0.1-0.1-0.3-0.3-0.4-0.4c-0.1-0.1-0.2-0.3-0.4-0.4
			c-0.1-0.1-0.2-0.3-0.4-0.4c-0.1-0.1-0.2-0.3-0.4-0.4c-0.1-0.1-0.3-0.3-0.4-0.4c-0.1-0.1-0.3-0.3-0.4-0.4c-0.1-0.1-0.3-0.3-0.4-0.4
			c-0.1-0.1-0.3-0.3-0.4-0.4c-0.1-0.1-0.3-0.3-0.4-0.4c-0.1-0.1-0.3-0.3-0.4-0.4c-0.1-0.1-0.3-0.3-0.4-0.4c-0.1-0.1-0.3-0.3-0.4-0.4
			c-0.1-0.1-0.3-0.3-0.4-0.4c-0.1-0.1-0.3-0.3-0.4-0.4c-0.1-0.1-0.2-0.2-0.4-0.4c-0.1-0.1-0.3-0.3-0.4-0.4c-0.1-0.1-0.3-0.3-0.4-0.4
			c-0.1-0.1-0.3-0.3-0.4-0.4c-0.1-0.1-0.3-0.3-0.4-0.4c-0.1-0.1-0.3-0.3-0.4-0.4c-0.1-0.1-0.3-0.3-0.4-0.4c-0.1-0.1-0.3-0.3-0.4-0.4
			c-0.1-0.1-0.3-0.3-0.4-0.4c-0.1-0.1-0.3-0.3-0.4-0.4c-0.1-0.1-0.3-0.3-0.4-0.4c-0.1-0.1-0.3-0.3-0.4-0.4c-0.1-0.1-0.3-0.3-0.4-0.4
			c-0.1-0.1-0.3-0.3-0.4-0.4c-0.1-0.1-0.3-0.3-0.4-0.4c-0.1-0.1-0.3-0.3-0.4-0.4c-0.1-0.1-0.3-0.3-0.4-0.4c-0.1-0.1-0.3-0.3-0.4-0.4
			c-0.1-0.1-0.3-0.3-0.4-0.4c-0.1-0.1-0.3-0.3-0.4-0.4c-0.1-0.1-0.3-0.3-0.4-0.4c-0.1-0.1-0.3-0.3-0.4-0.4c-0.1-0.1-0.3-0.3-0.4-0.4
			c-0.1-0.1-0.3-0.3-0.4-0.4c-0.1-0.1-0.3-0.3-0.4-0.4c-0.1-0.1-0.3-0.3-0.4-0.4c-0.1-0.1-0.3-0.3-0.4-0.4c-0.1-0.1-0.3-0.3-0.4-0.4
			c-0.1-0.1-0.3-0.3-0.4-0.4c-0.1-0.1-0.3-0.3-0.4-0.4c-0.1-0.1-0.3-0.3-0.4-0.4c-0.1-0.1-0.3-0.3-0.4-0.4c-0.1-0.1-0.3-0.3-0.4-0.4
			c-0.2-0.2-0.3-0.3-0.5-0.5c-0.1-0.1-0.3-0.3-0.4-0.4c-0.2-0.2-0.3-0.3-0.5-0.5c-0.2-0.2-0.3-0.3-0.5-0.5c-0.2-0.2-0.3-0.3-0.5-0.5
			c-0.2-0.2-0.3-0.3-0.5-0.5c-0.2-0.2-0.3-0.3-0.5-0.5c-0.2-0.2-0.3-0.3-0.5-0.5c-0.2-0.2-0.3-0.3-0.5-0.5c-0.1-0.1-0.3-0.3-0.4-0.4
			c-0.2-0.2-0.3-0.3-0.5-0.5c-0.2-0.2-0.3-0.3-0.5-0.5c-0.2-0.2-0.3-0.3-0.5-0.5c-0.2-0.2-0.3-0.3-0.5-0.5c-0.2-0.2-0.3-0.3-0.5-0.5
			c-0.2-0.2-0.3-0.3-0.5-0.5c-0.2-0.2-0.3-0.3-0.5-0.5c-0.2-0.2-0.3-0.3-0.5-0.5c-0.2-0.2-0.3-0.3-0.5-0.5c-0.2-0.2-0.3-0.3-0.5-0.5
			c-0.2-0.2-0.3-0.3-0.5-0.5c-0.2-0.2-0.3-0.3-0.5-0.5c-0.2-0.2-0.3-0.3-0.5-0.5c-0.2-0.2-0.3-0.3-0.5-0.5c-0.2-0.2-0.3-0.3-0.5-0.5
			c-0.2-0.2-0.3-0.3-0.5-0.5c-0.2-0.2-0.3-0.3-0.5-0.5c-0.2-0.2-0.3-0.3-0.5-0.5c-0.2-0.2-0.3-0.3-0.5-0.5c-0.2-0.2-0.3-0.3-0.5-0.5
			c-0.2-0.2-0.3-0.3-0.5-0.5c-0.2-0.2-0.3-0.3-0.5-0.5c-0.2-0.2-0.3-0.3-0.5-0.5c-0.2-0.2-0.3-0.3-0.5-0.5c-0.2-0.2-0.3-0.3-0.5-0.5
			c-0.2-0.2-0.3-0.3-0.5-0.5c-0.2-0.2-0.3-0.3-0.5-0.5c-0.2-0.2-0.3-0.3-0.5-0.5c-0.2-0.2-0.3-0.3-0.5-0.5c-0.2-0.2-0.3-0.4-0.5-0.5
			c-0.2-0.2-0.3-0.3-0.5-0.5c-0.2-0.2-0.3-0.3-0.5-0.5c-0.2-0.2-0.3-0.3-0.5-0.5c-0.2-0.2-0.3-0.3-0.5-0.5c-0.2-0.2-0.3-0.3-0.5-0.5
			c-0.2-0.2-0.3-0.4-0.5-0.5c-0.2-0.2-0.3-0.4-0.5-0.5c-0.2-0.2-0.3-0.3-0.5-0.5c-0.2-0.2-0.3-0.4-0.5-0.5c-0.2-0.2-0.3-0.4-0.5-0.5
			c-0.2-0.2-0.3-0.4-0.5-0.5c-0.2-0.2-0.4-0.4-0.5-0.5c-0.2-0.2-0.4-0.4-0.5-0.5c-0.2-0.2-0.4-0.4-0.5-0.5c-0.2-0.2-0.4-0.4-0.5-0.5
			c-0.2-0.2-0.4-0.4-0.5-0.5c-0.2-0.2-0.4-0.4-0.5-0.5c-0.2-0.2-0.4-0.4-0.5-0.5c-0.2-0.2-0.4-0.4-0.6-0.6c-0.2-0.2-0.3-0.3-0.5-0.5
			c-0.2-0.2-0.4-0.4-0.6-0.6c-0.2-0.2-0.4-0.4-0.6-0.6c-0.2-0.2-0.3-0.3-0.5-0.5c-0.2-0.2-0.4-0.4-0.6-0.6c-0.2-0.2-0.4-0.4-0.6-0.6
			c-0.2-0.2-0.4-0.4-0.5-0.5c-0.2-0.2-0.4-0.4-0.6-0.6c-0.2-0.2-0.4-0.4-0.6-0.6c-0.2-0.2-0.4-0.4-0.6-0.6c-0.2-0.2-0.4-0.4-0.6-0.6
			c-0.2-0.2-0.4-0.4-0.6-0.6c-0.2-0.2-0.4-0.4-0.6-0.6c-0.2-0.2-0.4-0.4-0.6-0.6c-0.2-0.2-0.4-0.4-0.6-0.6
			C-319.3,919.1-332.1,913.6-346.4,913.6z"/>
	</g>
	<path id="path6399" inkscape:connector-curvature="0" class="st7" d="M-347,913c-26.5,0-48,21.5-48,48s21.5,48,48,48
		c4.4,0,8-3.6,8-8c0-2.1-0.8-3.9-2.1-5.4c-1.2-1.4-2-3.3-2-5.3c0-4.4,3.6-8,8-8h9.4c14.7,0,26.7-11.9,26.7-26.7
		C-299,932.1-320.5,913-347,913z M-376.3,961c-4.4,0-8-3.6-8-8s3.6-8,8-8s8,3.6,8,8S-371.9,961-376.3,961z M-360.3,939.7
		c-4.4,0-8-3.6-8-8c0-4.4,3.6-8,8-8s8,3.6,8,8C-352.3,936.1-355.9,939.7-360.3,939.7z M-333.7,939.7c-4.4,0-8-3.6-8-8
		c0-4.4,3.6-8,8-8c4.4,0,8,3.6,8,8C-325.7,936.1-329.2,939.7-333.7,939.7z M-317.7,961c-4.4,0-8-3.6-8-8s3.6-8,8-8c4.4,0,8,3.6,8,8
		S-313.2,961-317.7,961z"/>
	<g id="g4215">
		<path id="rect4207" class="st8" d="M-377.8,942.6h3.2c5.7,0,10.3,4.6,10.3,10.3l0,0c0,5.7-4.6,10.3-10.3,10.3h-3.2
			c-5.7,0-10.3-4.6-10.3-10.3l0,0C-388.1,947.2-383.5,942.6-377.8,942.6z"/>
		<path id="rect4209" class="st9" d="M-362.5,922.6h5.3c5.4,0,9.9,4.4,9.9,9.9l0,0c0,5.4-4.4,9.9-9.9,9.9h-5.3
			c-5.4,0-9.9-4.4-9.9-9.9l0,0C-372.3,927-367.9,922.6-362.5,922.6z"/>
		<path id="rect4211" class="st10" d="M-334.5,922.3h3.2c5.3,0,9.6,4.3,9.6,9.6l0,0c0,5.3-4.3,9.6-9.6,9.6h-3.2
			c-5.3,0-9.6-4.3-9.6-9.6l0,0C-344.1,926.6-339.8,922.3-334.5,922.3z"/>
		<path id="rect4213" class="st11" d="M-318.5,942.9h1.1c5.3,0,9.6,4.3,9.6,9.6v0.3c0,5.3-4.3,9.6-9.6,9.6h-1.1
			c-5.3,0-9.6-4.3-9.6-9.6v-0.3C-328.1,947.2-323.8,942.9-318.5,942.9z"/>
	</g>
	<path id="path4191" inkscape:connector-curvature="0" class="st12" d="M-347,913c-26.5,0-48,21.5-48,48s21.5,48,48,48
		c4.4,0,8-3.6,8-8c0-2.1-0.8-3.9-2.1-5.4c-1.2-1.4-2-3.3-2-5.3c0-4.4,3.6-8,8-8h9.4c14.7,0,26.7-11.9,26.7-26.7
		C-299,932.1-320.5,913-347,913z M-376.3,961c-4.4,0-8-3.6-8-8s3.6-8,8-8s8,3.6,8,8S-371.9,961-376.3,961z M-360.3,939.7
		c-4.4,0-8-3.6-8-8c0-4.4,3.6-8,8-8s8,3.6,8,8C-352.3,936.1-355.9,939.7-360.3,939.7z M-333.7,939.7c-4.4,0-8-3.6-8-8
		c0-4.4,3.6-8,8-8c4.4,0,8,3.6,8,8C-325.7,936.1-329.2,939.7-333.7,939.7z M-317.7,961c-4.4,0-8-3.6-8-8s3.6-8,8-8c4.4,0,8,3.6,8,8
		S-313.2,961-317.7,961z"/>
	<path id="path4828" inkscape:connector-curvature="0" class="st7" d="M-347,913c-26.5,0-48,21.3-48,47.5c0,26.2,21.5,47.5,48,47.5
		c4.4,0,8-3.5,8-7.9c0-2.1-0.8-3.9-2.1-5.3c-1.2-1.4-2-3.2-2-5.2c0-4.4,3.6-7.9,8-7.9h9.4c14.7,0,26.7-11.8,26.7-26.4
		C-299,931.9-320.5,913-347,913z M-376.3,960.5c-4.4,0-8-3.5-8-7.9s3.6-7.9,8-7.9s8,3.5,8,7.9S-371.9,960.5-376.3,960.5z
		 M-360.3,939.4c-4.4,0-8-3.5-8-7.9s3.6-7.9,8-7.9s8,3.5,8,7.9S-355.9,939.4-360.3,939.4z M-333.7,939.4c-4.4,0-8-3.5-8-7.9
		s3.6-7.9,8-7.9c4.4,0,8,3.5,8,7.9S-329.2,939.4-333.7,939.4z M-317.7,960.5c-4.4,0-8-3.5-8-7.9s3.6-7.9,8-7.9c4.4,0,8,3.5,8,7.9
		S-313.2,960.5-317.7,960.5z"/>
	<path id="path4830" inkscape:connector-curvature="0" sodipodi:nodetypes="sssscsssssssssssssssssssssssss" class="st13" d="
		M-347,914c-26.5,0-48,20.2-48,46.5c0,26.2,21.5,47.5,48,47.5c4.4,0,8-3.5,8-7.9c0-2.1-0.8-3.9-2.1-5.3c-1.2-1.4-2-3.2-2-5.2
		c0-4.4,3.6-7.9,8-7.9h9.4c14.7,0,26.7-11.8,26.7-26.4C-299,931.9-320.4,914-347,914z M-376.3,960.5c-4.4,0-8-3.5-8-7.9
		s3.6-7.9,8-7.9s8,3.5,8,7.9S-371.9,960.5-376.3,960.5z M-360.3,939.4c-4.4,0-8-3.5-8-7.9s3.6-7.9,8-7.9s8,3.5,8,7.9
		S-355.9,939.4-360.3,939.4z M-333.7,939.4c-4.4,0-8-3.5-8-7.9s3.6-7.9,8-7.9c4.4,0,8,3.5,8,7.9S-329.2,939.4-333.7,939.4z
		 M-317.7,960.5c-4.4,0-8-3.5-8-7.9s3.6-7.9,8-7.9c4.4,0,8,3.5,8,7.9S-313.2,960.5-317.7,960.5z"/>
</g>
<g id="layer5" inkscape:label="Square 1" inkscape:groupmode="layer" sodipodi:insensitive="true">
	
		<radialGradient id="rect7724_1_" cx="-433.0806" cy="2122.4934" r="76" gradientTransform="matrix(2.534750e-003 1.9948 2.0024 -2.544370e-003 -4671.8779 1754.5006)" gradientUnits="userSpaceOnUse">
		<stop  offset="0" style="stop-color:#FFFFFF"/>
		<stop  offset="1" style="stop-color:#FFFFFF;stop-opacity:0"/>
	</radialGradient>
	
		<radialGradient id="rect7724_2_" cx="-433.0805" cy="2122.4934" r="76" gradientTransform="matrix(2.534720e-003 1.9948 2.0024 -2.544350e-003 -4671.8774 1754.5005)" gradientUnits="userSpaceOnUse">
		<stop  offset="0" style="stop-color:#FFFFFF"/>
		<stop  offset="1" style="stop-color:#FFFFFF;stop-opacity:0"/>
	</radialGradient>
	<path id="rect7724" class="st14" d="M-411.6,885.5h129.2c6,0,10.9,4.9,10.9,10.9v129.2c0,6-4.9,10.9-10.9,10.9h-129.2
		c-6,0-10.9-4.9-10.9-10.9V896.4C-422.5,890.4-417.6,885.5-411.6,885.5z"/>
</g>
</svg>
