<?xml version="1.0" encoding="UTF-8" standalone="no"?>
<!-- Created with Inkscape (http://www.inkscape.org/) -->

<svg
   xmlns:dc="http://purl.org/dc/elements/1.1/"
   xmlns:cc="http://creativecommons.org/ns#"
   xmlns:rdf="http://www.w3.org/1999/02/22-rdf-syntax-ns#"
   xmlns:svg="http://www.w3.org/2000/svg"
   xmlns="http://www.w3.org/2000/svg"
   xmlns:xlink="http://www.w3.org/1999/xlink"
   xmlns:sodipodi="http://sodipodi.sourceforge.net/DTD/sodipodi-0.dtd"
   xmlns:inkscape="http://www.inkscape.org/namespaces/inkscape"
   width="48"
   height="48"
   id="svg2"
   version="1.1"
   inkscape:version="0.48.5 r10040"
   sodipodi:docname="priloženie.svg">
  <defs
     id="defs4">
    <linearGradient
       id="linearGradient3862">
      <stop
         style="stop-color:#cbcbcb;stop-opacity:1;"
         offset="0"
         id="stop3864" />
      <stop
         style="stop-color:#f7f7f7;stop-opacity:1;"
         offset="1"
         id="stop3866" />
    </linearGradient>
    <linearGradient
       id="linearGradient4188">
      <stop
         style="stop-color:#f59f3a;stop-opacity:1;"
         offset="0"
         id="stop4190" />
      <stop
         style="stop-color:#ffab46;stop-opacity:1;"
         offset="1"
         id="stop4192" />
    </linearGradient>
    <linearGradient
       id="linearGradient4112">
      <stop
         style="stop-color:#f77c13;stop-opacity:1;"
         offset="0"
         id="stop4114" />
      <stop
         style="stop-color:#fb9b49;stop-opacity:1;"
         offset="1"
         id="stop4116" />
    </linearGradient>
    <linearGradient
       id="linearGradient3929">
      <stop
         style="stop-color:#313131;stop-opacity:1;"
         offset="0"
         id="stop3931" />
      <stop
         style="stop-color:#555555;stop-opacity:1;"
         offset="1"
         id="stop3933" />
    </linearGradient>
    <linearGradient
       id="linearGradient3757">
      <stop
         style="stop-color:#0f88de;stop-opacity:1;"
         offset="0"
         id="stop3759" />
      <stop
         style="stop-color:#81bffa;stop-opacity:1;"
         offset="1"
         id="stop3761" />
    </linearGradient>
    <linearGradient
       inkscape:collect="always"
       xlink:href="#linearGradient3929"
       id="linearGradient3935"
       x1="27"
       y1="47"
       x2="27"
       y2="2"
       gradientUnits="userSpaceOnUse" />
    <linearGradient
       inkscape:collect="always"
       xlink:href="#linearGradient4524"
       id="linearGradient4530"
       x1="24"
       y1="46"
       x2="24"
       y2="2"
       gradientUnits="userSpaceOnUse" />
    <linearGradient
       id="linearGradient4524">
      <stop
         style="stop-color:#ca7f4f;stop-opacity:1;"
         offset="0"
         id="stop4526" />
      <stop
         style="stop-color:#d99356;stop-opacity:1;"
         offset="1"
         id="stop4528" />
    </linearGradient>
    <linearGradient
       inkscape:collect="always"
       xlink:href="#linearGradient5847"
       id="linearGradient5893"
       x1="29.200001"
       y1="14.866665"
       x2="23.799999"
       y2="40.066666"
       gradientUnits="userSpaceOnUse" />
    <linearGradient
       id="linearGradient5847">
      <stop
         id="stop5849"
         offset="0"
         style="stop-color:#ffffff;stop-opacity:1;" />
      <stop
         style="stop-color:#d22d2d;stop-opacity:1;"
         offset="0.21739133"
         id="stop5859" />
      <stop
         id="stop6761"
         offset="0.39130437"
         style="stop-color:#e81670;stop-opacity:1;" />
      <stop
         style="stop-color:#cfcbce;stop-opacity:1;"
         offset="0.4782609"
         id="stop5857" />
      <stop
         id="stop6769"
         offset="0.5962733"
         style="stop-color:#4db7f4;stop-opacity:1;" />
      <stop
         style="stop-color:#14b560;stop-opacity:1;"
         offset="0.7391305"
         id="stop5855" />
      <stop
         id="stop5851"
         offset="1"
         style="stop-color:#ffffff;stop-opacity:1;" />
    </linearGradient>
    <linearGradient
       y2="40.066666"
       x2="23.799999"
       y1="14.866665"
       x1="29.200001"
       gradientUnits="userSpaceOnUse"
       id="linearGradient3152"
       xlink:href="#linearGradient5847"
       inkscape:collect="always" />
    <linearGradient
       inkscape:collect="always"
       xlink:href="#linearGradient5847-0"
       id="linearGradient5893-4"
       x1="29.200001"
       y1="14.866665"
       x2="23.799999"
       y2="40.066666"
       gradientUnits="userSpaceOnUse"
       gradientTransform="matrix(1.1111111,0,0,1.0714286,-5.4447011,-4.92857)" />
    <linearGradient
       id="linearGradient5847-0">
      <stop
         id="stop5849-8"
         offset="0"
         style="stop-color:#ffffff;stop-opacity:1;" />
      <stop
         style="stop-color:#d22d2d;stop-opacity:1;"
         offset="0.21739133"
         id="stop5859-9" />
      <stop
         id="stop6761-5"
         offset="0.39130437"
         style="stop-color:#e81670;stop-opacity:1;" />
      <stop
         style="stop-color:#cfcbce;stop-opacity:1;"
         offset="0.4782609"
         id="stop5857-2" />
      <stop
         id="stop6769-3"
         offset="0.5962733"
         style="stop-color:#4db7f4;stop-opacity:1;" />
      <stop
         style="stop-color:#14b560;stop-opacity:1;"
         offset="0.7391305"
         id="stop5855-0" />
      <stop
         id="stop5851-1"
         offset="1"
         style="stop-color:#ffffff;stop-opacity:1;" />
    </linearGradient>
    <linearGradient
       inkscape:collect="always"
       xlink:href="#linearGradient4561"
       id="linearGradient4559"
       x1="17.69619"
       y1="1018.5955"
       x2="12.945526"
       y2="1015.1042"
       gradientUnits="userSpaceOnUse"
       gradientTransform="matrix(0.9996487,0,0,1.0125088,0.00416191,-11.777303)" />
    <linearGradient
       id="linearGradient4561">
      <stop
         id="stop4563"
         offset="0"
         style="stop-color:#ffe900;stop-opacity:1;" />
      <stop
         id="stop4565"
         offset="1"
         style="stop-color:#fffd84;stop-opacity:0.25630252" />
    </linearGradient>
    <linearGradient
       id="linearGradient5847-7">
      <stop
         id="stop5849-9"
         offset="0"
         style="stop-color:#ffffff;stop-opacity:1;" />
      <stop
         style="stop-color:#d22d2d;stop-opacity:1;"
         offset="0.21739133"
         id="stop5859-6" />
      <stop
         id="stop6761-0"
         offset="0.39130437"
         style="stop-color:#e81670;stop-opacity:1;" />
      <stop
         style="stop-color:#cfcbce;stop-opacity:1;"
         offset="0.4782609"
         id="stop5857-5" />
      <stop
         id="stop6769-0"
         offset="0.5962733"
         style="stop-color:#4db7f4;stop-opacity:1;" />
      <stop
         style="stop-color:#14b560;stop-opacity:1;"
         offset="0.7391305"
         id="stop5855-6" />
      <stop
         id="stop5851-3"
         offset="1"
         style="stop-color:#ffffff;stop-opacity:1;" />
    </linearGradient>
    <linearGradient
       inkscape:collect="always"
       xlink:href="#linearGradient3862"
       id="linearGradient3868"
       x1="24"
       y1="1050.3622"
       x2="24"
       y2="1006.3622"
       gradientUnits="userSpaceOnUse" />
    <linearGradient
       inkscape:collect="always"
       xlink:href="#linearGradient3862"
       id="linearGradient3870"
       x1="24"
       y1="1037.3622"
       x2="24"
       y2="1020.3622"
       gradientUnits="userSpaceOnUse" />
  </defs>
  <sodipodi:namedview
     id="base"
     pagecolor="#ffffff"
     bordercolor="#666666"
     borderopacity="1.0"
     inkscape:pageopacity="0.0"
     inkscape:pageshadow="2"
     inkscape:zoom="15.860405"
     inkscape:cx="20.634247"
     inkscape:cy="18.400601"
     inkscape:document-units="px"
     inkscape:current-layer="layer1"
     showgrid="true"
     inkscape:window-width="1920"
     inkscape:window-height="1052"
     inkscape:window-x="0"
     inkscape:window-y="28"
     inkscape:window-maximized="1"
     showguides="true"
     inkscape:guide-bbox="true">
    <inkscape:grid
       type="xygrid"
       id="grid3765"
       empspacing="5"
       visible="true"
       enabled="true"
       snapvisiblegridlinesonly="true" />
  </sodipodi:namedview>
  <metadata
     id="metadata7">
    <rdf:RDF>
      <cc:Work
         rdf:about="">
        <dc:format>image/svg+xml</dc:format>
        <dc:type
           rdf:resource="http://purl.org/dc/dcmitype/StillImage" />
        <dc:title />
      </cc:Work>
    </rdf:RDF>
  </metadata>
  <g
     inkscape:label="Layer 1"
     inkscape:groupmode="layer"
     id="layer1"
     transform="translate(0,-1004.3622)">
    <path
       id="path3874"
       d="m 24,1022.3622 c -3.313708,0 -6,2.6863 -6,6 0,3.3137 2.686292,6 6,6 3.313708,0 6,-2.6863 6,-6 0,-3.3137 -2.686292,-6 -6,-6 z m 0,3 c 1.656854,0 3,1.3431 3,3 0,1.6569 -1.343146,3 -3,3 -1.656854,0 -3,-1.3431 -3,-3 0,-1.6569 1.343146,-3 3,-3 z"
       style="fill:none;fill-opacity:1;stroke:#757575;stroke-opacity:1;stroke-width:1;stroke-miterlimit:4;stroke-dasharray:none;opacity:0.75"
       inkscape:connector-curvature="0" />
    <path
       sodipodi:nodetypes="cccccccccssccccccccccssccccccccccssccccccccccssccsssss"
       style="fill:none;fill-opacity:1;fill-rule:evenodd;stroke:#757575;stroke-opacity:1;stroke-width:1;stroke-miterlimit:4;stroke-dasharray:none;opacity:0.75"
       inkscape:connector-curvature="0"
       clip-rule="evenodd"
       d="m 8.235,1032.8375 c 0.3557,1.2634 0.86122,2.462 1.4975,3.5752 l -2.80849,3.0711 c -0.80454,0.8055 -0.80454,2.1066 0,2.9118 l 3.0426,3.0426 c 0.80547,0.8047 2.10646,0.8047 2.91183,0 l 3.07092,-2.8083 c 1.11357,0.6362 2.31204,1.1417 3.57563,1.4971 l 0.26244,4.1757 c 0,1.1417 0.91768,2.0595 2.05969,2.0595 l 4.30618,0 c 1.14169,0 2.05947,-0.9178 2.05947,-2.0595 l 0.26132,-4.1757 c 1.26462,-0.3554 2.46309,-0.8609 3.57685,-1.4971 l 3.07062,2.8083 c 0.80547,0.8047 2.10678,0.8047 2.91194,0 l 3.04259,-3.0426 c 0.80475,-0.8051 0.80475,-2.1062 0,-2.9118 l -2.80838,-3.0711 c 0.63617,-1.1133 1.14169,-2.3119 1.49718,-3.5752 l 4.17563,-0.2626 c 1.14169,0 2.05948,-0.9177 2.05948,-2.0594 l 0,-4.3062 c 0,-1.1423 -0.91779,-2.0599 -2.05948,-2.0599 l -4.17563,-0.2618 c -0.35549,-1.2641 -0.86101,-2.4625 -1.49718,-3.5765 l 2.80838,-3.0705 c 0.80475,-0.8053 0.80475,-2.1063 0,-2.9119 l -3.04259,-3.0426 c -0.80506,-0.8049 -2.10636,-0.8049 -2.91194,0 l -3.07062,2.8085 c -1.11376,-0.6362 -2.31213,-1.1418 -3.57685,-1.4975 l -0.26132,-4.1753 c 0,-1.1423 -0.91778,-2.0599 -2.05947,-2.0599 l -4.30618,0 c -1.14201,0 -2.05969,0.9176 -2.05969,2.0599 l -0.26244,4.1753 c -1.26359,0.3557 -2.46206,0.8612 -3.57563,1.4975 l -3.07092,-2.8085 c -0.80537,-0.8049 -2.10636,-0.8049 -2.91183,0 l -3.0426,3.0426 c -0.80454,0.8056 -0.80454,2.1066 0,2.9119 l 2.80849,3.0705 c -0.63628,1.1141 -1.1418,2.3125 -1.4975,3.5765 l -4.17532,0.2618 C 2.91779,1024.1494 2,1025.067 2,1026.2093 l 0,4.3062 c 0,1.1417 0.91779,2.0594 2.05968,2.0594 z m 15.76515,-14.3051 c 5.42954,0 9.82969,4.4003 9.82969,9.8299 0,5.4296 -4.40005,9.8296 -9.82969,9.8296 -5.42963,0 -9.82989,-4.4 -9.82989,-9.8296 0,-5.4297 4.40026,-9.8299 9.82989,-9.8299 z"
       id="path3872" />
    <path
       id="path3037"
       d="m 8.235,1032.8375 c 0.3557,1.2634 0.86122,2.462 1.4975,3.5752 l -2.80849,3.0711 c -0.80454,0.8055 -0.80454,2.1066 0,2.9118 l 3.0426,3.0426 c 0.80547,0.8047 2.10646,0.8047 2.91183,0 l 3.07092,-2.8083 c 1.11357,0.6362 2.31204,1.1417 3.57563,1.4971 l 0.26244,4.1757 c 0,1.1417 0.91768,2.0595 2.05969,2.0595 l 4.30618,0 c 1.14169,0 2.05947,-0.9178 2.05947,-2.0595 l 0.26132,-4.1757 c 1.26462,-0.3554 2.46309,-0.8609 3.57685,-1.4971 l 3.07062,2.8083 c 0.80547,0.8047 2.10678,0.8047 2.91194,0 l 3.04259,-3.0426 c 0.80475,-0.8051 0.80475,-2.1062 0,-2.9118 l -2.80838,-3.0711 c 0.63617,-1.1133 1.14169,-2.3119 1.49718,-3.5752 l 4.17563,-0.2626 c 1.14169,0 2.05948,-0.9177 2.05948,-2.0594 l 0,-4.3062 c 0,-1.1423 -0.91779,-2.0599 -2.05948,-2.0599 l -4.17563,-0.2618 c -0.35549,-1.2641 -0.86101,-2.4625 -1.49718,-3.5765 l 2.80838,-3.0705 c 0.80475,-0.8053 0.80475,-2.1063 0,-2.9119 l -3.04259,-3.0426 c -0.80506,-0.8049 -2.10636,-0.8049 -2.91194,0 l -3.07062,2.8085 c -1.11376,-0.6362 -2.31213,-1.1418 -3.57685,-1.4975 l -0.26132,-4.1753 c 0,-1.1423 -0.91778,-2.0599 -2.05947,-2.0599 l -4.30618,0 c -1.14201,0 -2.05969,0.9176 -2.05969,2.0599 l -0.26244,4.1753 c -1.26359,0.3557 -2.46206,0.8612 -3.57563,1.4975 l -3.07092,-2.8085 c -0.80537,-0.8049 -2.10636,-0.8049 -2.91183,0 l -3.0426,3.0426 c -0.80454,0.8056 -0.80454,2.1066 0,2.9119 l 2.80849,3.0705 c -0.63628,1.1141 -1.1418,2.3125 -1.4975,3.5765 l -4.17532,0.2618 C 2.91779,1024.1494 2,1025.067 2,1026.2093 l 0,4.3062 c 0,1.1417 0.91779,2.0594 2.05968,2.0594 z m 15.76515,-14.3051 c 5.42954,0 9.82969,4.4003 9.82969,9.8299 0,5.4296 -4.40005,9.8296 -9.82969,9.8296 -5.42963,0 -9.82989,-4.4 -9.82989,-9.8296 0,-5.4297 4.40026,-9.8299 9.82989,-9.8299 z"
       clip-rule="evenodd"
       inkscape:connector-curvature="0"
       style="fill:url(#linearGradient3868);fill-opacity:1;fill-rule:evenodd"
       sodipodi:nodetypes="cccccccccssccccccccccssccccccccccssccccccccccssccsssss" />
    <path
       inkscape:connector-curvature="0"
       style="fill:url(#linearGradient3870);fill-opacity:1;stroke:none"
       d="m 24,1022.3622 c -3.313708,0 -6,2.6863 -6,6 0,3.3137 2.686292,6 6,6 3.313708,0 6,-2.6863 6,-6 0,-3.3137 -2.686292,-6 -6,-6 z m 0,3 c 1.656854,0 3,1.3431 3,3 0,1.6569 -1.343146,3 -3,3 -1.656854,0 -3,-1.3431 -3,-3 0,-1.6569 1.343146,-3 3,-3 z"
       id="path3065" />
  </g>
</svg>
