
<svg xmlns="http://www.w3.org/2000/svg" xmlns:xlink="http://www.w3.org/1999/xlink" width="48px" height="48px" viewBox="0 0 48 48" version="1.1">
<g id="surface1">
<path style=" stroke:none;fill-rule:nonzero;fill:rgb(17.647059%,17.647059%,17.647059%);fill-opacity:1;" d="M 10 2 C 9.054688 2 8 3.054688 8 4 L 8 44 C 8 44.890625 9.109375 46 10 46 L 38 46 C 38.890625 46 39.984375 44.890625 40 44 L 40 14 L 28 2 Z M 10 2 "/>
<path style=" stroke:none;fill-rule:nonzero;fill:rgb(0%,0%,0%);fill-opacity:0.196078;" d="M 30 14 L 40 24 L 40 14 Z M 30 14 "/>
<path style=" stroke:none;fill-rule:nonzero;fill:rgb(100%,100%,100%);fill-opacity:0.392157;" d="M 28 2 L 40 14 L 30 14 C 29.109375 14 28 12.890625 28 12 Z M 28 2 "/>
<path style=" stroke:none;fill-rule:nonzero;fill:rgb(86.27451%,86.27451%,86.27451%);fill-opacity:1;" d="M 10.667969 28.03125 C 10.667969 27.257812 10.804688 26.496094 11.085938 25.742188 C 11.351562 24.976562 11.75 24.296875 12.261719 23.703125 C 12.796875 23.109375 13.4375 22.628906 14.191406 22.253906 C 14.949219 21.882812 15.808594 21.707031 16.773438 21.707031 C 17.914062 21.707031 18.890625 21.960938 19.71875 22.46875 C 20.554688 22.988281 21.171875 23.648438 21.566406 24.476562 L 19.671875 25.777344 C 19.519531 25.421875 19.335938 25.117188 19.113281 24.882812 C 18.878906 24.636719 18.636719 24.441406 18.355469 24.296875 C 18.089844 24.148438 17.820312 24.054688 17.53125 23.988281 C 17.238281 23.921875 16.972656 23.882812 16.703125 23.882812 C 16.113281 23.882812 15.601562 24.003906 15.15625 24.261719 C 14.714844 24.503906 14.34375 24.835938 14.039062 25.242188 C 13.761719 25.636719 13.539062 26.089844 13.378906 26.597656 C 13.238281 27.097656 13.167969 27.597656 13.167969 28.105469 C 13.167969 28.664062 13.25 29.199219 13.414062 29.730469 C 13.597656 30.238281 13.84375 30.691406 14.15625 31.085938 C 14.472656 31.484375 14.855469 31.792969 15.296875 32.039062 C 15.75 32.273438 16.226562 32.398438 16.761719 32.398438 C 17.03125 32.398438 17.308594 32.359375 17.601562 32.285156 C 17.890625 32.21875 18.160156 32.105469 18.425781 31.945312 C 18.707031 31.792969 18.949219 31.597656 19.183594 31.359375 C 19.414062 31.105469 19.601562 30.8125 19.742188 30.464844 L 21.765625 31.625 C 21.578125 32.105469 21.300781 32.527344 20.929688 32.898438 C 20.566406 33.253906 20.148438 33.558594 19.683594 33.800781 C 19.21875 34.054688 18.730469 34.246094 18.21875 34.378906 C 17.695312 34.507812 17.195312 34.574219 16.683594 34.574219 C 15.796875 34.574219 14.984375 34.386719 14.238281 34 C 13.515625 33.621094 12.878906 33.125 12.34375 32.519531 C 11.808594 31.898438 11.398438 31.199219 11.097656 30.425781 C 10.804688 29.644531 10.667969 28.84375 10.667969 28.03125 "/>
<path style=" stroke:none;fill-rule:nonzero;fill:rgb(86.27451%,86.27451%,86.27451%);fill-opacity:1;" d="M 29.332031 29.5 L 26.667969 29.5 L 26.667969 32.25 L 24 32.25 L 24 29.5 L 21.332031 29.5 L 21.332031 26.75 L 24 26.75 L 24 24 L 26.667969 24 L 26.667969 26.75 L 29.332031 26.75 "/>
<path style=" stroke:none;fill-rule:nonzero;fill:rgb(86.27451%,86.27451%,86.27451%);fill-opacity:1;" d="M 37.332031 26.75 L 37.332031 29.5 L 34.667969 29.5 L 34.667969 32.25 L 32 32.25 L 32 29.5 L 29.332031 29.5 L 29.332031 26.75 L 32 26.75 L 32 24 L 34.667969 24 L 34.667969 26.75 "/>
</g>
</svg>
