
<svg xmlns="http://www.w3.org/2000/svg" xmlns:xlink="http://www.w3.org/1999/xlink" width="48px" height="48px" viewBox="0 0 48 48" version="1.1">
<g id="surface1">
<path style=" stroke:none;fill-rule:nonzero;fill:rgb(17.647059%,17.647059%,17.647059%);fill-opacity:1;" d="M 10 2 C 9.054688 2 8 3.054688 8 4 L 8 44 C 8 44.890625 9.109375 46 10 46 L 38 46 C 38.890625 46 39.984375 44.890625 40 44 L 40 14 L 28 2 Z M 10 2 "/>
<path style=" stroke:none;fill-rule:nonzero;fill:rgb(0%,0%,0%);fill-opacity:0.196078;" d="M 30 14 L 40 24 L 40 14 Z M 30 14 "/>
<path style=" stroke:none;fill-rule:nonzero;fill:rgb(100%,100%,100%);fill-opacity:0.392157;" d="M 28 2 L 40 14 L 30 14 C 29.109375 14 28 12.890625 28 12 Z M 28 2 "/>
<path style=" stroke:none;fill-rule:nonzero;fill:rgb(86.27451%,86.27451%,86.27451%);fill-opacity:1;" d="M 14.375 27.5 C 14.375 26.308594 14.613281 25.132812 15.09375 23.96875 C 15.574219 22.792969 16.261719 21.746094 17.152344 20.832031 C 18.066406 19.917969 19.179688 19.175781 20.476562 18.59375 C 21.789062 18.027344 23.28125 17.75 24.957031 17.75 C 26.929688 17.75 28.636719 18.144531 30.074219 18.929688 C 31.523438 19.726562 32.597656 20.746094 33.273438 22.023438 L 29.976562 24.027344 C 29.722656 23.476562 29.410156 23.011719 29.015625 22.648438 C 28.621094 22.269531 28.183594 21.964844 27.707031 21.746094 C 27.242188 21.515625 26.777344 21.371094 26.269531 21.269531 C 25.777344 21.164062 25.296875 21.109375 24.84375 21.109375 C 23.816406 21.109375 22.929688 21.296875 22.167969 21.6875 C 21.394531 22.066406 20.746094 22.574219 20.238281 23.199219 C 19.730469 23.8125 19.351562 24.507812 19.082031 25.292969 C 18.828125 26.0625 18.703125 26.832031 18.703125 27.617188 C 18.703125 28.476562 18.855469 29.304688 19.136719 30.117188 C 19.449219 30.902344 19.886719 31.613281 20.421875 32.210938 C 20.984375 32.820312 21.648438 33.300781 22.40625 33.679688 C 23.183594 34.042969 24.015625 34.230469 24.929688 34.230469 C 25.410156 34.230469 25.902344 34.171875 26.394531 34.054688 C 26.890625 33.953125 27.367188 33.78125 27.832031 33.53125 C 28.3125 33.300781 28.75 32.996094 29.144531 32.632812 C 29.539062 32.238281 29.847656 31.789062 30.101562 31.25 L 33.625 33.039062 C 33.285156 33.78125 32.792969 34.433594 32.160156 35 C 31.539062 35.550781 30.820312 36.015625 30.003906 36.394531 C 29.199219 36.789062 28.355469 37.078125 27.453125 37.28125 C 26.566406 37.484375 25.675781 37.585938 24.804688 37.585938 C 23.265625 37.585938 21.859375 37.296875 20.574219 36.699219 C 19.308594 36.121094 18.207031 35.347656 17.277344 34.417969 C 16.363281 33.460938 15.644531 32.382812 15.121094 31.191406 C 14.628906 29.988281 14.375 28.75 14.375 27.5 "/>
</g>
</svg>
