<?xml version="1.0" encoding="UTF-8" standalone="no"?>
<!-- Created with Inkscape (http://www.inkscape.org/) -->

<svg
   xmlns:dc="http://purl.org/dc/elements/1.1/"
   xmlns:cc="http://creativecommons.org/ns#"
   xmlns:rdf="http://www.w3.org/1999/02/22-rdf-syntax-ns#"
   xmlns:svg="http://www.w3.org/2000/svg"
   xmlns="http://www.w3.org/2000/svg"
   xmlns:xlink="http://www.w3.org/1999/xlink"
   xmlns:sodipodi="http://sodipodi.sourceforge.net/DTD/sodipodi-0.dtd"
   xmlns:inkscape="http://www.inkscape.org/namespaces/inkscape"
   width="48"
   height="48"
   id="svg2"
   version="1.1"
   inkscape:version="0.48.5 r10040"
   sodipodi:docname="text-x-changelog.svg">
  <defs
     id="defs4">
    <linearGradient
       inkscape:collect="always"
       id="linearGradient3810">
      <stop
         style="stop-color:#000000;stop-opacity:1;"
         offset="0"
         id="stop3812" />
      <stop
         style="stop-color:#000000;stop-opacity:0;"
         offset="1"
         id="stop3814" />
    </linearGradient>
    <linearGradient
       id="linearGradient3929">
      <stop
         style="stop-color:#313131;stop-opacity:1;"
         offset="0"
         id="stop3931" />
      <stop
         style="stop-color:#555555;stop-opacity:1;"
         offset="1"
         id="stop3933" />
    </linearGradient>
    <linearGradient
       id="linearGradient3757">
      <stop
         style="stop-color:#0f88de;stop-opacity:1;"
         offset="0"
         id="stop3759" />
      <stop
         style="stop-color:#81bffa;stop-opacity:1;"
         offset="1"
         id="stop3761" />
    </linearGradient>
    <linearGradient
       inkscape:collect="always"
       xlink:href="#linearGradient3929"
       id="linearGradient3935"
       x1="27"
       y1="47"
       x2="27"
       y2="2"
       gradientUnits="userSpaceOnUse" />
    <linearGradient
       inkscape:collect="always"
       xlink:href="#linearGradient3810"
       id="linearGradient3816"
       x1="39"
       y1="6"
       x2="30"
       y2="15"
       gradientUnits="userSpaceOnUse"
       gradientTransform="translate(0,1004.3622)" />
  </defs>
  <sodipodi:namedview
     id="base"
     pagecolor="#ffffff"
     bordercolor="#666666"
     borderopacity="1.0"
     inkscape:pageopacity="0.0"
     inkscape:pageshadow="2"
     inkscape:zoom="4.6339"
     inkscape:cx="26.219754"
     inkscape:cy="22.199455"
     inkscape:document-units="px"
     inkscape:current-layer="layer1"
     showgrid="true"
     inkscape:window-width="1280"
     inkscape:window-height="970"
     inkscape:window-x="0"
     inkscape:window-y="0"
     inkscape:window-maximized="1">
    <inkscape:grid
       type="xygrid"
       id="grid3765"
       empspacing="5"
       visible="true"
       enabled="true"
       snapvisiblegridlinesonly="true" />
  </sodipodi:namedview>
  <metadata
     id="metadata7">
    <rdf:RDF>
      <cc:Work
         rdf:about="">
        <dc:format>image/svg+xml</dc:format>
        <dc:type
           rdf:resource="http://purl.org/dc/dcmitype/StillImage" />
        <dc:title />
      </cc:Work>
    </rdf:RDF>
  </metadata>
  <g
     inkscape:label="Layer 1"
     inkscape:groupmode="layer"
     id="layer1"
     transform="translate(0,-1004.3622)">
    <path
       id="path3847"
       d="m 8,1007.3622 c -1.662,0 -3,1.338 -3,3 l 0,38 c 0,1.662 1.338,3 3,3 l 32,0 c 1.662,0 3,-1.338 3,-3 l 0,-32 -9,-9 -26,0 z m 3,4 c 1.104569,0 2,0.8954 2,2 0,1.1046 -0.895431,2 -2,2 -1.1045693,0 -2,-0.8954 -2,-2 0,-1.1046 0.8954307,-2 2,-2 z m 0,8 c 1.104569,0 2,0.8954 2,2 0,1.1046 -0.895431,2 -2,2 -1.1045693,0 -2,-0.8954 -2,-2 0,-1.1046 0.8954307,-2 2,-2 z m 0,8 c 1.104569,0 2,0.8954 2,2 0,1.1046 -0.895431,2 -2,2 -1.1045693,0 -2,-0.8954 -2,-2 0,-1.1046 0.8954307,-2 2,-2 z m 0,8 c 1.104569,0 2,0.8954 2,2 0,1.1046 -0.895431,2 -2,2 -1.1045693,0 -2,-0.8954 -2,-2 0,-1.1046 0.8954307,-2 2,-2 z m 0,8 c 1.104569,0 2,0.8954 2,2 0,1.1046 -0.895431,2 -2,2 -1.1045693,0 -2,-0.8954 -2,-2 0,-1.1046 0.8954307,-2 2,-2 z"
       style="fill:#000000;fill-opacity:1;stroke:none;opacity:0.15"
       inkscape:connector-curvature="0" />
    <path
       style="opacity:1;fill:#e0e2cc;fill-opacity:1;stroke:none"
       d="M 8 2 C 6.338 2 5 3.338 5 5 L 5 43 C 5 44.662 6.338 46 8 46 L 40 46 C 41.662 46 43 44.662 43 43 L 43 11 L 34 2 L 8 2 z M 11 6 C 12.104569 6 13 6.8954307 13 8 C 13 9.1045693 12.104569 10 11 10 C 9.8954307 10 9 9.1045693 9 8 C 9 6.8954307 9.8954307 6 11 6 z M 11 14 C 12.104569 14 13 14.895431 13 16 C 13 17.104569 12.104569 18 11 18 C 9.8954307 18 9 17.104569 9 16 C 9 14.895431 9.8954307 14 11 14 z M 11 22 C 12.104569 22 13 22.895431 13 24 C 13 25.104569 12.104569 26 11 26 C 9.8954307 26 9 25.104569 9 24 C 9 22.895431 9.8954307 22 11 22 z M 11 30 C 12.104569 30 13 30.895431 13 32 C 13 33.104569 12.104569 34 11 34 C 9.8954307 34 9 33.104569 9 32 C 9 30.895431 9.8954307 30 11 30 z M 11 38 C 12.104569 38 13 38.895431 13 40 C 13 41.104569 12.104569 42 11 42 C 9.8954307 42 9 41.104569 9 40 C 9 38.895431 9.8954307 38 11 38 z "
       id="rect3766"
       transform="translate(0,1004.3622)" />
    <rect
       style="fill:#808080;fill-opacity:1;stroke:none"
       id="rect3818"
       width="16"
       height="1.9999826"
       x="20"
       y="1018.3622" />
    <path
       style="opacity:0.125;fill:url(#linearGradient3816);fill-opacity:1;stroke:none"
       d="m 34,1006.3622 -9,9 9,9 9,-9 z"
       id="path3808"
       inkscape:connector-curvature="0"
       sodipodi:nodetypes="ccccc" />
    <path
       style="fill:#eeeeee;fill-opacity:1;stroke:none"
       d="m 34,2 0,6 c 0,2 1,3 3,3 l 6,0 z"
       id="path3805"
       inkscape:connector-curvature="0"
       transform="translate(0,1004.3622)"
       sodipodi:nodetypes="ccccc" />
    <path
       style="fill:#808080;fill-opacity:1;fill-rule:nonzero;stroke:none"
       inkscape:connector-curvature="0"
       id="path69"
       d="m 20,1036.3622 9,0 0,-2 -9,0"
       sodipodi:nodetypes="cccc" />
    <path
       style="fill:#808080;fill-opacity:1;fill-rule:nonzero;stroke:none"
       inkscape:connector-curvature="0"
       id="path71"
       d="m 20,1032.3622 13,0 0,-2 -13,0"
       sodipodi:nodetypes="cccc" />
    <path
       style="fill:#808080;fill-opacity:1;fill-rule:nonzero;stroke:none"
       inkscape:connector-curvature="0"
       id="path73"
       d="m 20,1028.3622 7,0 0,-2 -7,0"
       sodipodi:nodetypes="cccc" />
    <path
       style="fill:#808080;fill-opacity:1;fill-rule:nonzero;stroke:none"
       inkscape:connector-curvature="0"
       id="path75"
       d="m 20,1024.3622 11,0 0,-2 -11,0"
       sodipodi:nodetypes="cccc" />
    <path
       style="fill:#808080;fill-opacity:1;fill-rule:nonzero;stroke:none"
       inkscape:connector-curvature="0"
       id="path77"
       d="m 20,1040.3622 14,0 0,-2 -14,0"
       sodipodi:nodetypes="cccc" />
    <path
       style="fill:#808080;fill-opacity:1;fill-rule:nonzero;stroke:none"
       inkscape:connector-curvature="0"
       id="path77-7"
       d="m 20,1044.3622 11,0 0,-2 -11,0"
       sodipodi:nodetypes="cccc" />
    <rect
       style="fill:#808080;fill-opacity:1;fill-rule:evenodd;stroke:none"
       id="rect3005"
       width="2"
       height="2"
       x="16"
       y="14"
       transform="translate(0,1004.3622)" />
    <rect
       style="fill:#808080;fill-opacity:1;fill-rule:evenodd;stroke:none"
       id="rect3005-5"
       width="2"
       height="2"
       x="16"
       y="1022.3622" />
    <rect
       style="fill:#808080;fill-opacity:1;fill-rule:evenodd;stroke:none"
       id="rect3005-5-1"
       width="2"
       height="2"
       x="16"
       y="1026.3622" />
    <rect
       style="fill:#808080;fill-opacity:1;fill-rule:evenodd;stroke:none"
       id="rect3005-5-2"
       width="2"
       height="2"
       x="16"
       y="1030.3622" />
    <rect
       style="fill:#808080;fill-opacity:1;fill-rule:evenodd;stroke:none"
       id="rect3005-5-15"
       width="2"
       height="2"
       x="16"
       y="1034.3622" />
    <rect
       style="fill:#808080;fill-opacity:1;fill-rule:evenodd;stroke:none"
       id="rect3005-5-3"
       width="2"
       height="2"
       x="16"
       y="1038.3622" />
    <rect
       style="fill:#808080;fill-opacity:1;fill-rule:evenodd;stroke:none"
       id="rect3005-5-4"
       width="2"
       height="2"
       x="16"
       y="1042.3622" />
  </g>
</svg>
