<?xml version="1.0" encoding="UTF-8" standalone="no"?>
<!-- Created with Inkscape (http://www.inkscape.org/) -->

<svg
   xmlns:dc="http://purl.org/dc/elements/1.1/"
   xmlns:cc="http://creativecommons.org/ns#"
   xmlns:rdf="http://www.w3.org/1999/02/22-rdf-syntax-ns#"
   xmlns:svg="http://www.w3.org/2000/svg"
   xmlns="http://www.w3.org/2000/svg"
   xmlns:xlink="http://www.w3.org/1999/xlink"
   xmlns:sodipodi="http://sodipodi.sourceforge.net/DTD/sodipodi-0.dtd"
   xmlns:inkscape="http://www.inkscape.org/namespaces/inkscape"
   width="512"
   height="512"
   viewBox="0 0 512.00001 512.00001"
   id="svg6148"
   version="1.1"
   inkscape:version="0.91 r13725"
   sodipodi:docname="archmatIcon.svg">
  <defs
     id="defs6150">
    <filter
       inkscape:collect="always"
       style="color-interpolation-filters:sRGB"
       id="filter4530"
       x="-0.108"
       width="1.216"
       y="-0.108"
       height="1.216">
      <feGaussianBlur
         inkscape:collect="always"
         stdDeviation="13.68"
         id="feGaussianBlur4532" />
    </filter>
    <linearGradient
       inkscape:collect="always"
       xlink:href="#linearGradient4854"
       id="linearGradient4860"
       x1="410.50406"
       y1="-418.83844"
       x2="596.15399"
       y2="-233.18849"
       gradientUnits="userSpaceOnUse"
       gradientTransform="matrix(0.96598609,0,0,0.96598609,-169.37647,611.75684)" />
    <linearGradient
       inkscape:collect="always"
       id="linearGradient4854">
      <stop
         style="stop-color:#263238;stop-opacity:0.2"
         offset="0"
         id="stop4856" />
      <stop
         style="stop-color:#263238;stop-opacity:0.05"
         offset="1"
         id="stop4858" />
    </linearGradient>
    <filter
       height="1.1071963"
       y="-0.053598136"
       width="1.1088159"
       x="-0.054407936"
       id="filter5235"
       style="color-interpolation-filters:sRGB"
       inkscape:collect="always">
      <feGaussianBlur
         id="feGaussianBlur5237"
         stdDeviation="4.3159509"
         inkscape:collect="always" />
    </filter>
  </defs>
  <sodipodi:namedview
     id="base"
     pagecolor="#ffffff"
     bordercolor="#666666"
     borderopacity="1.0"
     inkscape:pageopacity="0.0"
     inkscape:pageshadow="2"
     inkscape:zoom="2"
     inkscape:cx="198.77766"
     inkscape:cy="252.69476"
     inkscape:document-units="px"
     inkscape:current-layer="layer1"
     showgrid="false"
     units="px"
     inkscape:window-width="2560"
     inkscape:window-height="1382"
     inkscape:window-x="0"
     inkscape:window-y="27"
     inkscape:window-maximized="1"
     inkscape:snap-object-midpoints="true"
     inkscape:snap-center="true" />
  <metadata
     id="metadata6153">
    <rdf:RDF>
      <cc:Work
         rdf:about="">
        <dc:format>image/svg+xml</dc:format>
        <dc:type
           rdf:resource="http://purl.org/dc/dcmitype/StillImage" />
        <dc:title />
      </cc:Work>
    </rdf:RDF>
  </metadata>
  <g
     inkscape:label="Livello 1"
     inkscape:groupmode="layer"
     id="layer1"
     transform="translate(0,-540.36216)">
    <circle
       r="152"
       cy="1170"
       cx="352"
       id="circle4512"
       style="fill:#263238;fill-opacity:0.2;filter:url(#filter4530)"
       transform="matrix(1.3850416,0,0,1.3850416,-231.53464,-824.13649)" />
    <circle
       style="fill:#1793d1;fill-opacity:1"
       id="circle7078"
       cx="256"
       cy="785.28186"
       r="210.52632" />
    <path
       id="path7088"
       d="M 466.46949,783.65874 A 210.52632,210.52632 0 0 1 255.99999,993.03809 210.52632,210.52632 0 0 1 45.530467,784.13492 210.52632,210.52632 0 0 0 45.473649,785.28187 210.52632,210.52632 0 0 0 255.99997,995.8082 210.52632,210.52632 0 0 0 466.5263,785.28187 a 210.52632,210.52632 0 0 0 -0.0568,-1.62313 z"
       style="fill:#1a237e;fill-opacity:0.2"
       inkscape:connector-curvature="0" />
    <path
       inkscape:connector-curvature="0"
       style="fill:#ffffff;fill-opacity:0.2"
       d="M 466.46954,786.90501 A 210.52632,210.52632 0 0 0 256.00002,577.52566 210.52632,210.52632 0 0 0 45.530508,786.42888 210.52632,210.52632 0 0 1 45.473691,785.28182 210.52632,210.52632 0 0 1 256,574.75555 a 210.52632,210.52632 0 0 1 210.52634,210.52627 210.52632,210.52632 0 0 1 -0.0568,1.62319 z"
       id="path5596" />
    <path
       style="opacity:1;fill:url(#linearGradient4860);fill-opacity:1;fill-rule:evenodd;stroke:none"
       d="M 255.98242 143.84961 C 247.79535 164.22155 242.85742 177.54617 233.74219 197.3125 C 234.47831 198.10443 235.2422 198.91809 236.0293 199.74414 C 236.32821 200.05788 236.64744 200.37866 236.95508 200.69727 C 237.49798 201.25957 238.04581 201.8269 238.61914 202.4043 C 238.75059 202.53674 238.86675 202.65972 239 202.79297 L 252.16406 215.95703 C 251.09662 215.46447 250.03582 214.97014 249.03516 214.47656 C 241.39831 210.70961 235.65923 206.9104 231.08008 203.00195 C 219.41436 227.70743 201.13459 262.89654 164.04492 330.5332 L 238.92383 405.41211 L 284.07227 450.56055 A 210.52632 210.52632 0 0 0 445.43164 333.29883 L 410.35156 298.21875 L 255.98242 143.84961 z M 438.11328 350.02148 A 210.52632 210.52632 0 0 1 437.99414 350.22656 A 210.52632 210.52632 0 0 0 438.11328 350.02148 z M 426.65234 367.75781 A 210.52632 210.52632 0 0 1 426.58203 367.85352 A 210.52632 210.52632 0 0 0 426.65234 367.75781 z M 413.50391 384.2168 A 210.52632 210.52632 0 0 1 413.45312 384.27344 A 210.52632 210.52632 0 0 0 413.50391 384.2168 z M 398.80859 399.24609 A 210.52632 210.52632 0 0 1 398.7207 399.32812 A 210.52632 210.52632 0 0 0 398.80859 399.24609 z M 382.73828 412.69336 A 210.52632 210.52632 0 0 1 382.50977 412.86719 A 210.52632 210.52632 0 0 0 382.73828 412.69336 z M 365.44727 424.45312 A 210.52632 210.52632 0 0 1 364.99219 424.73242 A 210.52632 210.52632 0 0 0 365.44727 424.45312 z M 347.15625 434.39648 A 210.52632 210.52632 0 0 1 346.30078 434.80859 A 210.52632 210.52632 0 0 0 347.15625 434.39648 z M 327.95898 442.48633 A 210.52632 210.52632 0 0 1 326.69922 442.94531 A 210.52632 210.52632 0 0 0 327.95898 442.48633 z M 308.15234 448.61328 A 210.52632 210.52632 0 0 1 306.29883 449.08594 A 210.52632 210.52632 0 0 0 308.15234 448.61328 z M 287.88867 452.75195 A 210.52632 210.52632 0 0 1 286.47656 452.96484 L 286.5332 453.02148 A 210.52632 210.52632 0 0 0 287.88867 452.75195 z "
       id="path4650"
       transform="translate(0,540.36216)" />
    <path
       d="m 409.59392,289.08609 c -8.47534,21.08925 -13.58724,34.88409 -23.02344,55.34643 5.78557,6.22418 12.88706,13.47254 24.41989,21.65888 -12.39891,-5.17818 -20.85647,-10.37696 -27.17698,-15.77173 -12.07649,25.5754 -30.99692,62.00642 -69.39258,132.02467 30.17769,-17.68199 53.5709,-28.58312 75.37224,-32.7427 -0.93615,-4.08646 -1.46839,-8.50677 -1.43225,-13.11888 l 0.0356,-0.98119 c 0.47885,-19.62244 10.53642,-34.71211 22.45054,-33.68754 11.91415,1.02453 21.17489,17.7718 20.69603,37.39425 -0.09,3.69233 -0.50041,7.24429 -1.21741,10.53872 21.56464,4.28135 44.70771,15.15457 74.47708,32.59734 -5.86994,-10.96817 -11.10937,-20.85519 -16.11284,-30.27155 -7.88125,-6.19962 -16.10181,-14.26846 -32.87017,-23.00348 11.52561,3.03951 19.77779,6.54631 26.2102,10.46605 -50.87154,-96.12688 -54.99105,-108.90014 -72.43605,-150.44927 z"
       id="path5049"
       style="opacity:0.2;fill:#263238;fill-opacity:1;fill-rule:evenodd;stroke:none;filter:url(#filter5235)"
       inkscape:connector-curvature="0"
       transform="matrix(0.96598609,0,0,0.96598609,-139.67923,412.68632)" />
    <path
       inkscape:connector-curvature="0"
       style="fill:#ffffff;fill-opacity:1;fill-rule:evenodd;stroke:none"
       id="path2518"
       d="m 255.98282,684.21181 c -8.18707,20.37192 -13.12509,33.69754 -22.24032,53.46388 5.58879,6.01246 12.44871,13.01428 23.58928,20.92217 -11.97719,-5.00204 -20.14707,-10.02399 -26.25259,-15.23526 -11.66572,24.70548 -29.9426,59.89733 -67.03227,127.53399 29.15122,-17.08055 51.74875,-27.61089 72.80853,-31.62899 -0.90431,-3.94747 -1.41845,-8.21742 -1.38354,-12.67266 l 0.0344,-0.94782 c 0.46256,-18.955 10.17803,-33.53142 21.68691,-32.5417 11.5089,0.98969 20.45465,17.16732 19.99208,36.12233 -0.0869,3.56674 -0.48339,6.99789 -1.176,10.18026 20.83114,4.13573 43.18702,14.63911 71.94382,31.48858 -5.67029,-10.59511 -10.73149,-20.14582 -15.56477,-29.24189 -7.61319,-5.98876 -15.55413,-13.78315 -31.75214,-22.22106 11.13359,2.93614 19.10507,6.32365 25.31869,10.11006 -49.14119,-92.85722 -53.12059,-105.19602 -69.97221,-145.33189 z" />
    <path
       inkscape:connector-curvature="0"
       id="path4225"
       d="m 234.33295,736.37121 c -0.20384,0.44469 -0.38245,0.85245 -0.59054,1.3037 4.43752,4.77395 9.71455,10.18168 17.26134,16.1614 1.99564,0.94372 4.07435,1.88697 6.32797,2.82814 -10.76001,-7.63776 -17.51363,-14.42096 -22.99877,-20.29324 z m 21.78562,54.75368 c -11.03358,-0.0269 -20.16588,14.22616 -20.61399,32.58882 l -0.034,0.949 c -0.004,0.53033 0.001,1.0562 0.0139,1.58106 l 0.0207,-0.59808 c 0.46256,-18.95501 10.17864,-33.53138 21.68752,-32.54166 11.02678,0.94822 19.69463,15.84143 19.99516,33.75857 0.31683,-18.76744 -8.57416,-34.70843 -19.99516,-35.69055 -0.35965,-0.0309 -0.71761,-0.0462 -1.07354,-0.0471 z m 44.5165,26.37594 c 2.63542,1.37287 5.03321,2.72639 7.26564,4.06017 7.46917,2.41141 13.28726,5.07801 18.05375,7.98259 -0.51863,-0.98001 -0.9611,-1.82256 -1.46973,-2.78476 -5.99561,-3.44211 -13.56279,-6.54516 -23.84966,-9.258 z m -64.1513,19.91027 c -20.57699,3.99699 -42.66173,14.21136 -70.89243,30.65684 -0.54074,0.98691 -0.99625,1.8271 -1.5452,2.82815 29.15122,-17.08056 51.74953,-27.61039 72.80931,-31.62849 -0.13912,-0.60695 -0.25165,-1.23481 -0.37168,-1.8565 z m 39.87901,0.14149 c -0.11044,0.62408 -0.22265,1.24786 -0.35469,1.85462 20.83114,4.13572 43.1865,14.63941 71.94331,31.48888 -0.54178,-1.01233 -0.95571,-1.80041 -1.48672,-2.79419 -27.87467,-16.24313 -49.73552,-26.43892 -70.1019,-30.54931 z"
       style="opacity:0.2;fill:#263238;fill-opacity:1;fill-rule:evenodd;stroke:none" />
  </g>
</svg>
