<?xml version="1.0" encoding="UTF-8" standalone="no"?>
<svg width="192px" height="192px" viewBox="0 0 192 192" version="1.1" xmlns="http://www.w3.org/2000/svg" xmlns:xlink="http://www.w3.org/1999/xlink" xmlns:sketch="http://www.bohemiancoding.com/sketch/ns">
    <!-- Generator: Sketch 3.3.2 (12043) - http://www.bohemiancoding.com/sketch -->
    <title>Lollypop</title>
    <desc>Created with Sketch.</desc>
    <defs>
        <filter x="-50%" y="-50%" width="200%" height="200%" filterUnits="objectBoundingBox" id="filter-1">
            <feOffset dx="0" dy="4" in="SourceAlpha" result="shadowOffsetOuter1"></feOffset>
            <feGaussianBlur stdDeviation="1" in="shadowOffsetOuter1" result="shadowBlurOuter1"></feGaussianBlur>
            <feColorMatrix values="0 0 0 0 0   0 0 0 0 0   0 0 0 0 0  0 0 0 0.168 0" in="shadowBlurOuter1" type="matrix" result="shadowMatrixOuter1"></feColorMatrix>
            <feOffset dx="0" dy="0" in="SourceAlpha" result="shadowOffsetOuter2"></feOffset>
            <feGaussianBlur stdDeviation="1" in="shadowOffsetOuter2" result="shadowBlurOuter2"></feGaussianBlur>
            <feColorMatrix values="0 0 0 0 0   0 0 0 0 0   0 0 0 0 0  0 0 0 0.084 0" in="shadowBlurOuter2" type="matrix" result="shadowMatrixOuter2"></feColorMatrix>
            <feMerge>
                <feMergeNode in="shadowMatrixOuter1"></feMergeNode>
                <feMergeNode in="shadowMatrixOuter2"></feMergeNode>
                <feMergeNode in="SourceGraphic"></feMergeNode>
            </feMerge>
        </filter>
        <circle id="path-2" cx="88" cy="88" r="88"></circle>
        <linearGradient x1="69.0669718%" y1="69.140625%" x2="8.49708018%" y2="6.56828704%" id="linearGradient-4">
            <stop stop-color="#191919" stop-opacity="0" offset="0%"></stop>
            <stop stop-color="#191919" stop-opacity="0.2" offset="100%"></stop>
        </linearGradient>
        <filter x="-50%" y="-50%" width="200%" height="200%" filterUnits="objectBoundingBox" id="filter-5">
            <feOffset dx="0" dy="-1" in="SourceAlpha" result="shadowOffsetInner1"></feOffset>
            <feGaussianBlur stdDeviation="0" in="shadowOffsetInner1" result="shadowBlurInner1"></feGaussianBlur>
            <feComposite in="shadowBlurInner1" in2="SourceAlpha" operator="arithmetic" k2="-1" k3="1" result="shadowInnerInner1"></feComposite>
            <feColorMatrix values="0 0 0 0 0.243137255   0 0 0 0 0.152941176   0 0 0 0 0.133333333  0 0 0 0.14 0" in="shadowInnerInner1" type="matrix" result="shadowMatrixInner1"></feColorMatrix>
            <feOffset dx="0" dy="1" in="SourceAlpha" result="shadowOffsetInner2"></feOffset>
            <feGaussianBlur stdDeviation="0" in="shadowOffsetInner2" result="shadowBlurInner2"></feGaussianBlur>
            <feComposite in="shadowBlurInner2" in2="SourceAlpha" operator="arithmetic" k2="-1" k3="1" result="shadowInnerInner2"></feComposite>
            <feColorMatrix values="0 0 0 0 1   0 0 0 0 1   0 0 0 0 1  0 0 0 0.14 0" in="shadowInnerInner2" type="matrix" result="shadowMatrixInner2"></feColorMatrix>
            <feMerge>
                <feMergeNode in="SourceGraphic"></feMergeNode>
                <feMergeNode in="shadowMatrixInner1"></feMergeNode>
                <feMergeNode in="shadowMatrixInner2"></feMergeNode>
            </feMerge>
        </filter>
        <circle id="path-6" cx="88" cy="88" r="88"></circle>
        <radialGradient cx="0%" cy="0%" fx="0%" fy="0%" r="141.421356%" id="radialGradient-8">
            <stop stop-color="#FFFFFF" stop-opacity="0.2" offset="0%"></stop>
            <stop stop-color="#FFFFFF" stop-opacity="0" offset="100%"></stop>
        </radialGradient>
        <filter x="-50%" y="-50%" width="200%" height="200%" filterUnits="objectBoundingBox" id="filter-9">
            <feOffset dx="0" dy="4" in="SourceAlpha" result="shadowOffsetOuter1"></feOffset>
            <feGaussianBlur stdDeviation="1" in="shadowOffsetOuter1" result="shadowBlurOuter1"></feGaussianBlur>
            <feColorMatrix values="0 0 0 0 0   0 0 0 0 0   0 0 0 0 0  0 0 0 0.168 0" in="shadowBlurOuter1" type="matrix" result="shadowMatrixOuter1"></feColorMatrix>
            <feOffset dx="0" dy="0" in="SourceAlpha" result="shadowOffsetOuter2"></feOffset>
            <feGaussianBlur stdDeviation="1" in="shadowOffsetOuter2" result="shadowBlurOuter2"></feGaussianBlur>
            <feColorMatrix values="0 0 0 0 0   0 0 0 0 0   0 0 0 0 0  0 0 0 0.084 0" in="shadowBlurOuter2" type="matrix" result="shadowMatrixOuter2"></feColorMatrix>
            <feOffset dx="0" dy="-1" in="SourceAlpha" result="shadowOffsetInner1"></feOffset>
            <feGaussianBlur stdDeviation="0" in="shadowOffsetInner1" result="shadowBlurInner1"></feGaussianBlur>
            <feComposite in="shadowBlurInner1" in2="SourceAlpha" operator="arithmetic" k2="-1" k3="1" result="shadowInnerInner1"></feComposite>
            <feColorMatrix values="0 0 0 0 0.129411765   0 0 0 0 0.129411765   0 0 0 0 0.129411765  0 0 0 0.14 0" in="shadowInnerInner1" type="matrix" result="shadowMatrixInner1"></feColorMatrix>
            <feMerge>
                <feMergeNode in="shadowMatrixOuter1"></feMergeNode>
                <feMergeNode in="shadowMatrixOuter2"></feMergeNode>
                <feMergeNode in="SourceGraphic"></feMergeNode>
                <feMergeNode in="shadowMatrixInner1"></feMergeNode>
            </feMerge>
        </filter>
        <circle id="path-10" cx="40" cy="40" r="40"></circle>
    </defs>
    <g id="Lollypop" stroke="none" stroke-width="1" fill="none" fill-rule="evenodd" sketch:type="MSPage">
        <g sketch:type="MSArtboardGroup">
            <g sketch:type="MSLayerGroup">
                <g id="Oval-3-+-Rectangle-15" transform="translate(8.000000, 8.000000)">
                    <use id="Mask" fill="#EAEAEA" filter="url(#filter-1)" sketch:type="MSShapeGroup" xlink:href="#path-2"></use>
                    <path d="M150.991378,150.991378 L176,176 L0,176 L25.2427329,150.757267 C13.6844801,143.506789 6,130.650798 6,116 C6,93.3563253 24.3563253,75 47,75 C61.650798,75 74.5067895,82.6844801 81.7572671,94.2427329 L88,88 L93.008622,93.008622 C85.5890813,100.428163 81,110.678163 81,122 C81,144.643675 99.3563253,163 122,163 C133.321837,163 143.571837,158.410919 150.991378,150.991378 L150.991378,150.991378 Z" id="Mask" fill="#E4004F" sketch:type="MSShapeGroup" mask="url(#mask-3)"></path>
                    <path d="M25.008622,25.008622 L0,4.26325641e-14 L176,1.42108547e-14 L150.757267,25.2427329 L150.757267,25.2427329 C162.31552,32.4932105 170,45.349202 170,60 C170,82.6436747 151.643675,101 129,101 C114.349202,101 101.493211,93.3155199 94.2427329,81.7572671 L88,88 L82.991378,82.991378 C90.4109187,75.5718374 95,65.3218374 95,54 C95,31.3563253 76.6436747,13 54,13 C42.6781626,13 32.4281626,17.5890813 25.008622,25.008622 L25.008622,25.008622 Z" id="Mask-Copy" fill="#E4004F" sketch:type="MSShapeGroup" mask="url(#mask-3)"></path>
                    <path d="M60.4668267,117.033173 C60.6320259,117.2013 60.7986996,117.367974 60.9668267,117.533173 C61.1320259,117.7013 61.2986996,117.867974 61.4668267,118.033173 L61.4668267,118.033173 C61.6320259,118.2013 61.7986996,118.367974 61.9668267,118.533173 C62.1320264,118.701301 62.2987005,118.867975 62.4668281,119.033175 L62.4668281,119.033175 C62.6320266,119.201301 62.7986998,119.367974 62.9668268,119.533173 C63.132026,119.7013 63.2986996,119.867974 63.4668267,120.033173 L63.4668267,120.033173 C63.6320259,120.2013 63.7986996,120.367974 63.9668267,120.533173 C64.1320259,120.7013 64.2986996,120.867974 64.4668267,121.033173 L64.4668267,121.033173 C64.6320259,121.2013 64.7986996,121.367974 64.9668267,121.533173 C65.1320259,121.7013 65.2986996,121.867974 65.4668267,122.033173 L65.4668267,122.033173 C65.6320259,122.2013 65.7986996,122.367974 65.9668267,122.533173 C66.1320259,122.7013 66.2986996,122.867974 66.4668267,123.033173 L66.4668267,123.033173 C66.6320259,123.2013 66.7986996,123.367974 66.9668267,123.533173 C67.1320259,123.7013 67.2986996,123.867974 67.4668267,124.033173 L67.4668267,124.033173 C67.6320259,124.2013 67.7986996,124.367974 67.9668267,124.533173 C68.1320259,124.7013 68.2986996,124.867974 68.4668267,125.033173 L68.4668267,125.033173 C68.6320259,125.2013 68.7986995,125.367974 68.9668267,125.533173 C69.1320259,125.7013 69.2986996,125.867974 69.4668267,126.033173 L69.4668267,126.033173 C69.6320259,126.2013 69.7986996,126.367974 69.9668267,126.533173 C70.1320259,126.7013 70.2986996,126.867974 70.4668267,127.033173 L70.4668267,127.033173 C70.6320259,127.2013 70.7986996,127.367974 70.9668267,127.533173 C71.1320259,127.7013 71.2986996,127.867974 71.4668267,128.033173 L71.4668267,128.033173 C71.6320259,128.2013 71.7986996,128.367974 71.9668267,128.533173 C72.1320259,128.7013 72.2986996,128.867974 72.4668267,129.033173 L72.4668267,129.033173 C72.6320259,129.2013 72.7986996,129.367974 72.9668267,129.533173 C73.1320259,129.7013 73.2986996,129.867974 73.4668267,130.033173 L73.4668267,130.033173 C73.6320259,130.2013 73.7986996,130.367974 73.9668267,130.533173 C74.1320259,130.7013 74.2986996,130.867974 74.4668267,131.033173 L74.4668267,131.033173 C74.6320259,131.2013 74.7986996,131.367974 74.9668267,131.533173 C75.1320259,131.7013 75.2986996,131.867974 75.4668267,132.033173 L75.4668267,132.033173 C75.6320259,132.2013 75.7986996,132.367974 75.9668267,132.533173 C76.1320259,132.7013 76.2986996,132.867974 76.4668267,133.033173 L76.4668267,133.033173 C76.6320259,133.2013 76.7986996,133.367974 76.9668267,133.533173 C77.1320259,133.7013 77.2986996,133.867974 77.4668267,134.033173 L77.4668267,134.033173 C77.6320259,134.2013 77.7986996,134.367974 77.9668267,134.533173 C78.1320259,134.7013 78.2986996,134.867974 78.4668267,135.033173 L78.4668267,135.033173 C78.6320259,135.2013 78.7986996,135.367974 78.9668267,135.533173 C79.1320259,135.7013 79.2986996,135.867974 79.4668267,136.033173 L79.4668267,136.033173 C79.6320259,136.2013 79.7986996,136.367974 79.9668267,136.533173 C80.1320259,136.7013 80.2986996,136.867974 80.4668267,137.033173 L80.4668267,137.033173 C80.6320259,137.2013 80.7986996,137.367974 80.9668267,137.533173 C81.1320271,137.701302 81.2987019,137.867976 81.4668302,138.033177 L81.4668302,138.033177 C81.6320283,138.201303 81.7987008,138.367975 81.9668268,138.533173 C82.132026,138.7013 82.2986996,138.867974 82.4668267,139.033173 L82.4668267,139.033173 C82.6320259,139.2013 82.7986996,139.367974 82.9668267,139.533173 C83.1320259,139.7013 83.2986996,139.867974 83.4668267,140.033173 L83.4668267,140.033173 C83.6320259,140.2013 83.7986996,140.367974 83.9668267,140.533173 C84.1320259,140.7013 84.2986996,140.867974 84.4668267,141.033173 L84.4668267,141.033173 C84.6320259,141.2013 84.7986996,141.367974 84.9668267,141.533173 C85.1320259,141.7013 85.2986996,141.867974 85.4668267,142.033173 L85.4668267,142.033173 C85.6320259,142.2013 85.7986996,142.367974 85.9668267,142.533173 C86.1320259,142.7013 86.2986996,142.867974 86.4668267,143.033173 L86.4668267,143.033173 C86.6320259,143.2013 86.7986996,143.367974 86.9668267,143.533173 C87.1320259,143.7013 87.2986996,143.867974 87.4668267,144.033173 L87.4668267,144.033173 C87.6320259,144.2013 87.7986996,144.367974 87.9668267,144.533173 C88.1320259,144.7013 88.2986996,144.867974 88.4668267,145.033173 L88.4668267,145.033173 C88.6320259,145.2013 88.7986996,145.367974 88.9668267,145.533173 C89.1320259,145.7013 89.2986996,145.867974 89.4668267,146.033173 L89.4668267,146.033173 C89.6320259,146.2013 89.7986996,146.367974 89.9668267,146.533173 C90.1320259,146.7013 90.2986996,146.867974 90.4668267,147.033173 L90.4668267,147.033173 C90.6320259,147.2013 90.7986996,147.367974 90.9668267,147.533173 C91.1320259,147.7013 91.2986996,147.867974 91.4668267,148.033173 L91.4668267,148.033173 C91.6320259,148.2013 91.7986996,148.367974 91.9668267,148.533173 C92.1320259,148.7013 92.2986996,148.867974 92.4668267,149.033173 L92.4668267,149.033173 C92.6320259,149.2013 92.7986996,149.367974 92.9668267,149.533173 C93.1320259,149.7013 93.2986996,149.867974 93.4668267,150.033173 L93.4668267,150.033173 C93.6320259,150.2013 93.7986996,150.367974 93.9668267,150.533173 C94.1320259,150.7013 94.2986996,150.867974 94.4668267,151.033173 L94.4668267,151.033173 C94.6320259,151.2013 94.7986996,151.367974 94.9668267,151.533173 C95.1320259,151.7013 95.2986996,151.867974 95.4668267,152.033173 L95.4668267,152.033173 C95.6320259,152.2013 95.7986996,152.367974 95.9668267,152.533173 C96.1320259,152.7013 96.2986996,152.867974 96.4668267,153.033173 L96.4668267,153.033173 C96.6320259,153.2013 96.7986996,153.367974 96.9668267,153.533173 C97.1320259,153.7013 97.2986996,153.867974 97.4668267,154.033173 L97.4668267,154.033173 C97.6320259,154.2013 97.7986996,154.367974 97.9668267,154.533173 C98.1320259,154.7013 98.2986996,154.867974 98.4668267,155.033173 L98.4668267,155.033173 C98.6320259,155.2013 98.7986996,155.367974 98.9668267,155.533173 C99.1320259,155.7013 99.2986996,155.867974 99.4668267,156.033173 L99.4668267,156.033173 C99.6320259,156.2013 99.7986996,156.367974 99.9668267,156.533173 C100.132026,156.7013 100.2987,156.867974 100.466827,157.033173 L100.466827,157.033173 C100.632026,157.2013 100.7987,157.367974 100.966827,157.533173 C101.132026,157.7013 101.2987,157.867974 101.466827,158.033173 L101.466827,158.033173 C101.632026,158.2013 101.7987,158.367974 101.966827,158.533173 C102.132026,158.7013 102.2987,158.867974 102.466827,159.033173 L102.466827,159.033173 C102.632026,159.2013 102.7987,159.367974 102.966827,159.533173 C103.132026,159.7013 103.2987,159.867974 103.466827,160.033173 L103.466827,160.033173 C103.632026,160.2013 103.7987,160.367974 103.966827,160.533173 C104.132026,160.7013 104.2987,160.867974 104.466827,161.033173 L104.466827,161.033173 C104.632026,161.2013 104.7987,161.367974 104.966827,161.533173 C105.132026,161.7013 105.2987,161.867974 105.466827,162.033173 L105.466827,162.033173 C105.632026,162.2013 105.7987,162.367974 105.966827,162.533173 C106.132026,162.7013 106.2987,162.867974 106.466827,163.033173 L106.466827,163.033173 C106.632026,163.2013 106.7987,163.367974 106.966827,163.533173 C107.132026,163.7013 107.2987,163.867974 107.466827,164.033173 L107.466827,164.033173 C107.632026,164.2013 107.7987,164.367974 107.966827,164.533173 C108.132026,164.7013 108.2987,164.867974 108.466827,165.033173 L108.466827,165.033173 C108.632026,165.2013 108.7987,165.367974 108.966827,165.533173 C109.132026,165.7013 109.2987,165.867974 109.466827,166.033173 L109.466827,166.033173 C109.632026,166.2013 109.7987,166.367974 109.966827,166.533173 C110.132026,166.7013 110.2987,166.867974 110.466827,167.033173 L110.466827,167.033173 C110.632026,167.2013 110.7987,167.367974 110.966827,167.533173 C111.132026,167.7013 111.2987,167.867974 111.466827,168.033173 L111.466827,168.033173 C111.632026,168.2013 111.7987,168.367974 111.966827,168.533173 C112.132026,168.7013 112.2987,168.867974 112.466827,169.033173 L112.466827,169.033173 C112.632026,169.2013 112.7987,169.367974 112.966827,169.533173 C113.132026,169.7013 113.2987,169.867974 113.466827,170.033173 L113.466827,170.033173 C113.632026,170.2013 113.7987,170.367974 113.966827,170.533173 C114.132026,170.7013 114.2987,170.867974 114.466827,171.033173 L114.466827,171.033173 C114.632026,171.2013 114.7987,171.367974 114.966827,171.533173 C115.132026,171.7013 115.2987,171.867974 115.466827,172.033173 L115.466827,172.033173 C115.632026,172.2013 115.7987,172.367974 115.966827,172.533173 C116.132026,172.7013 116.2987,172.867974 116.466827,173.033173 L116.466827,173.033173 C116.632026,173.2013 116.7987,173.367974 116.966827,173.533173 C117.132026,173.7013 117.2987,173.867974 117.466827,174.033173 L117.466827,174.033173 C117.632026,174.2013 117.7987,174.367974 117.966827,174.533173 C118.132026,174.7013 118.2987,174.867974 118.466827,175.033173 L118.466827,175.033173 C118.632026,175.2013 118.7987,175.367974 118.966827,175.533173 C119.132026,175.7013 119.2987,175.867974 119.466827,176.033173 L119.466827,176.033173 C119.632026,176.2013 119.7987,176.367974 119.966827,176.533173 C120.132026,176.7013 120.2987,176.867974 120.466827,177.033173 L120.466827,177.033173 C120.632026,177.2013 120.7987,177.367974 120.966827,177.533173 C121.132026,177.7013 121.2987,177.867974 121.466827,178.033173 L121.466827,178.033173 C121.632026,178.2013 121.7987,178.367974 121.966827,178.533173 C122.132026,178.7013 122.2987,178.867974 122.466827,179.033173 L122.466827,179.033173 C122.632026,179.2013 122.7987,179.367974 122.966827,179.533173 C123.132026,179.7013 123.2987,179.867974 123.466827,180.033173 L123.466827,180.033173 C123.632026,180.2013 123.7987,180.367974 123.966827,180.533173 C124.132026,180.7013 124.2987,180.867974 124.466827,181.033173 L124.466827,181.033173 C124.632026,181.2013 124.7987,181.367974 124.966827,181.533173 C125.132026,181.7013 125.2987,181.867974 125.466827,182.033173 L125.466827,182.033173 C125.632026,182.2013 125.7987,182.367974 125.966827,182.533173 C126.132026,182.7013 126.2987,182.867974 126.466827,183.033173 L126.466827,183.033173 C126.632026,183.2013 126.7987,183.367974 126.966827,183.533173 C127.214625,183.785364 127.465741,184.034283 127.720104,184.279862 L127.720121,184.279879 C127.801986,184.364672 127.884222,184.449104 127.966827,184.533173 C127.966828,184.533174 127.966829,184.533175 127.96683,184.533177 C135.224196,191.919169 145.327143,196.5 156.5,196.5 C178.59139,196.5 196.5,178.59139 196.5,156.5 C196.5,145.327143 191.919169,135.224196 184.533177,127.96683 L184.533177,127.96683 C184.533175,127.966829 184.533174,127.966828 184.533173,127.966827 C184.449104,127.884222 184.364672,127.801986 184.279879,127.720121 C184.034302,127.46576 183.785384,127.214646 183.533196,126.96685 L183.533196,126.96685 C183.367989,126.798715 183.201308,126.632034 183.033173,126.466827 C182.867974,126.2987 182.7013,126.132026 182.533173,125.966827 L182.533173,125.966827 C182.367974,125.7987 182.2013,125.632026 182.033173,125.466827 C181.867974,125.2987 181.7013,125.132026 181.533173,124.966827 L181.533173,124.966827 C181.367974,124.7987 181.2013,124.632026 181.033173,124.466827 C180.867974,124.2987 180.7013,124.132026 180.533173,123.966827 L180.533173,123.966827 C180.367974,123.7987 180.2013,123.632026 180.033173,123.466827 C179.867974,123.2987 179.7013,123.132026 179.533173,122.966827 L179.533173,122.966827 C179.367974,122.7987 179.2013,122.632026 179.033173,122.466827 C178.867974,122.2987 178.7013,122.132026 178.533173,121.966827 L178.533173,121.966827 C178.367974,121.7987 178.2013,121.632026 178.033173,121.466827 C177.867974,121.2987 177.7013,121.132026 177.533173,120.966827 L177.533173,120.966827 C177.367974,120.7987 177.2013,120.632026 177.033173,120.466827 C176.867974,120.2987 176.7013,120.132026 176.533173,119.966827 L176.533173,119.966827 C176.367974,119.7987 176.2013,119.632026 176.033173,119.466827 C175.867974,119.2987 175.7013,119.132026 175.533173,118.966827 L175.533173,118.966827 C175.367974,118.7987 175.2013,118.632026 175.033173,118.466827 C174.867974,118.2987 174.7013,118.132026 174.533173,117.966827 C174.367974,117.7987 174.2013,117.632026 174.033173,117.466827 C173.867974,117.2987 173.7013,117.132026 173.533173,116.966827 L173.533173,116.966827 C173.367974,116.7987 173.2013,116.632026 173.033173,116.466827 C172.867974,116.2987 172.7013,116.132026 172.533173,115.966827 L172.533173,115.966827 C172.367974,115.7987 172.2013,115.632026 172.033173,115.466827 C171.867974,115.2987 171.7013,115.132026 171.533173,114.966827 L171.533173,114.966827 C171.367974,114.7987 171.2013,114.632026 171.033173,114.466827 C170.867974,114.2987 170.7013,114.132026 170.533173,113.966827 L170.533173,113.966827 C170.367974,113.7987 170.2013,113.632026 170.033173,113.466827 C169.867974,113.2987 169.7013,113.132026 169.533173,112.966827 L169.533173,112.966827 C169.367974,112.7987 169.2013,112.632026 169.033173,112.466827 C168.867974,112.2987 168.7013,112.132026 168.533173,111.966827 L168.533173,111.966827 C168.367974,111.7987 168.2013,111.632026 168.033173,111.466827 C167.867974,111.2987 167.7013,111.132026 167.533173,110.966827 L167.533173,110.966827 C167.367974,110.7987 167.2013,110.632026 167.033173,110.466827 C166.867974,110.2987 166.7013,110.132026 166.533173,109.966827 L166.533173,109.966827 C166.367974,109.7987 166.2013,109.632026 166.033173,109.466827 C165.867974,109.2987 165.7013,109.132026 165.533173,108.966827 L165.533173,108.966827 C165.367974,108.7987 165.2013,108.632026 165.033173,108.466827 C164.867974,108.2987 164.7013,108.132026 164.533173,107.966827 L164.533173,107.966827 C164.367974,107.7987 164.2013,107.632026 164.033173,107.466827 C163.867974,107.2987 163.7013,107.132026 163.533173,106.966827 L163.533173,106.966827 C163.367974,106.7987 163.2013,106.632026 163.033173,106.466827 C162.867974,106.2987 162.7013,106.132026 162.533173,105.966827 L162.533173,105.966827 C162.367974,105.7987 162.2013,105.632026 162.033173,105.466827 C161.867974,105.2987 161.7013,105.132026 161.533173,104.966827 L161.533173,104.966827 C161.367974,104.7987 161.2013,104.632026 161.033173,104.466827 C160.867974,104.2987 160.7013,104.132026 160.533173,103.966827 L160.533173,103.966827 C160.367974,103.7987 160.2013,103.632026 160.033173,103.466827 C159.867974,103.2987 159.7013,103.132026 159.533173,102.966827 L159.533173,102.966827 C159.367974,102.7987 159.2013,102.632026 159.033173,102.466827 C158.867974,102.2987 158.7013,102.132026 158.533173,101.966827 L158.533173,101.966827 C158.367974,101.7987 158.2013,101.632026 158.033173,101.466827 C157.867974,101.2987 157.7013,101.132026 157.533173,100.966827 L157.533173,100.966827 C157.367974,100.7987 157.2013,100.632026 157.033173,100.466827 C156.867974,100.2987 156.7013,100.132026 156.533173,99.9668267 L156.533173,99.9668267 C156.367974,99.7986996 156.2013,99.6320259 156.033173,99.4668267 C155.867974,99.2986996 155.7013,99.1320259 155.533173,98.9668267 L155.533173,98.9668267 C155.367974,98.7986996 155.2013,98.6320259 155.033173,98.4668267 C154.867974,98.2986996 154.7013,98.1320259 154.533173,97.9668267 L154.533173,97.9668267 C154.367974,97.7986996 154.2013,97.6320259 154.033173,97.4668267 C153.867974,97.2986996 153.7013,97.1320259 153.533173,96.9668267 L153.533173,96.9668267 C153.367974,96.7986996 153.2013,96.6320259 153.033173,96.4668267 C152.867974,96.2986996 152.7013,96.1320259 152.533173,95.9668267 L152.533173,95.9668267 C152.367974,95.7986996 152.2013,95.6320259 152.033173,95.4668267 C151.867974,95.2986996 151.7013,95.1320259 151.533173,94.9668267 L151.533173,94.9668267 C151.367974,94.7986996 151.2013,94.6320259 151.033173,94.4668267 C150.867974,94.2986996 150.7013,94.1320259 150.533173,93.9668267 L150.533173,93.9668267 C150.367974,93.7986996 150.2013,93.6320259 150.033173,93.4668267 C149.867974,93.2986996 149.7013,93.1320259 149.533173,92.9668267 L149.533173,92.9668267 C149.367974,92.7986996 149.2013,92.6320259 149.033173,92.4668267 C148.867974,92.2986996 148.7013,92.1320259 148.533173,91.9668267 L148.533173,91.9668267 C148.367974,91.7986996 148.2013,91.6320259 148.033173,91.4668267 C147.867974,91.2986996 147.7013,91.1320259 147.533173,90.9668267 L147.533173,90.9668267 C147.367974,90.7986996 147.2013,90.6320259 147.033173,90.4668267 C146.867974,90.2986996 146.7013,90.1320259 146.533173,89.9668267 L146.533173,89.9668267 C146.367974,89.7986996 146.2013,89.6320259 146.033173,89.4668267 C145.867974,89.2986996 145.7013,89.1320259 145.533173,88.9668267 L145.533173,88.9668267 C145.367974,88.7986996 145.2013,88.6320259 145.033173,88.4668267 C144.867974,88.2986996 144.7013,88.1320259 144.533173,87.9668267 L144.533173,87.9668267 C144.367974,87.7986996 144.2013,87.6320259 144.033173,87.4668267 C143.867974,87.2986996 143.7013,87.1320259 143.533173,86.9668267 L143.533173,86.9668267 C143.367974,86.7986996 143.2013,86.6320259 143.033173,86.4668267 C142.867974,86.2986996 142.7013,86.1320259 142.533173,85.9668267 L142.533173,85.9668267 C142.367974,85.7986996 142.2013,85.6320259 142.033173,85.4668267 C141.867974,85.2986996 141.7013,85.1320259 141.533173,84.9668267 L141.533173,84.9668267 C141.367974,84.7986996 141.2013,84.6320259 141.033173,84.4668267 C140.867974,84.2986996 140.7013,84.1320259 140.533173,83.9668267 L140.533173,83.9668267 C140.367974,83.7986996 140.2013,83.6320259 140.033173,83.4668267 C139.867974,83.2986996 139.7013,83.1320259 139.533173,82.9668267 L139.533173,82.9668267 C139.367974,82.7986996 139.2013,82.6320259 139.033173,82.4668267 C138.867974,82.2986996 138.7013,82.132026 138.533173,81.9668268 L138.533169,81.9668228 C138.367971,81.798697 138.201299,81.6320246 138.033173,81.4668267 C137.867974,81.2986996 137.7013,81.1320259 137.533173,80.9668267 L137.533173,80.9668267 C137.367974,80.7986996 137.2013,80.6320259 137.033173,80.4668267 C136.867974,80.2986996 136.7013,80.1320259 136.533173,79.9668267 L136.533173,79.9668267 C136.367974,79.7986996 136.2013,79.6320259 136.033173,79.4668267 C135.867974,79.2986996 135.7013,79.1320259 135.533173,78.9668267 L135.533173,78.9668267 C135.367974,78.7986996 135.2013,78.6320259 135.033173,78.4668267 C134.867974,78.2986996 134.7013,78.132026 134.533173,77.9668268 L134.533169,77.9668226 C134.367971,77.7986968 134.201299,77.6320246 134.033173,77.4668267 C133.867974,77.2986996 133.7013,77.1320259 133.533173,76.9668267 L133.533173,76.9668267 C133.367974,76.7986996 133.2013,76.6320259 133.033173,76.4668267 C132.867974,76.2986996 132.7013,76.1320259 132.533173,75.9668267 L132.533173,75.9668267 C132.367974,75.7986996 132.2013,75.6320259 132.033173,75.4668267 C131.867974,75.2986996 131.7013,75.1320259 131.533173,74.9668267 L131.533173,74.9668267 C131.367974,74.7986996 131.2013,74.6320259 131.033173,74.4668267 C130.867974,74.2986996 130.7013,74.1320259 130.533173,73.9668267 L130.533173,73.9668267 C130.367974,73.7986996 130.2013,73.6320259 130.033173,73.4668267 C129.867974,73.2986996 129.7013,73.1320259 129.533173,72.9668267 L129.533173,72.9668267 C129.367974,72.7986996 129.2013,72.6320259 129.033173,72.4668267 C128.867974,72.2986996 128.7013,72.1320259 128.533173,71.9668267 L128.533173,71.9668267 C128.367974,71.7986996 128.2013,71.6320259 128.033173,71.4668267 C127.867974,71.2986996 127.7013,71.1320259 127.533173,70.9668267 L127.533173,70.9668267 C127.367974,70.7986996 127.2013,70.6320259 127.033173,70.4668267 C126.867974,70.2986996 126.7013,70.1320259 126.533173,69.9668267 L126.533173,69.9668267 C126.367974,69.7986996 126.2013,69.6320259 126.033173,69.4668267 C125.867974,69.2986996 125.7013,69.1320259 125.533173,68.9668267 L125.533173,68.9668267 C125.367974,68.7986996 125.2013,68.6320259 125.033173,68.4668267 C124.867974,68.2986996 124.7013,68.1320259 124.533173,67.9668267 L124.533173,67.9668267 C124.367974,67.7986996 124.2013,67.6320259 124.033173,67.4668267 C123.867974,67.2986996 123.7013,67.1320259 123.533173,66.9668267 L123.533173,66.9668267 C123.367974,66.7986996 123.2013,66.6320259 123.033173,66.4668267 C122.867974,66.2986996 122.7013,66.1320259 122.533173,65.9668267 L122.533173,65.9668267 C122.367974,65.7986996 122.2013,65.6320259 122.033173,65.4668267 C121.867974,65.2986996 121.7013,65.1320259 121.533173,64.9668267 L121.533173,64.9668267 C121.367974,64.7986996 121.2013,64.6320259 121.033173,64.4668267 C120.867974,64.2986996 120.7013,64.1320259 120.533173,63.9668267 L120.533173,63.9668267 C120.367974,63.7986996 120.2013,63.6320259 120.033173,63.4668267 C119.867974,63.2986996 119.7013,63.132026 119.533173,62.9668268 L119.53317,62.9668231 C119.367972,62.7986972 119.201299,62.6320247 119.033173,62.4668267 C118.867974,62.2986996 118.7013,62.1320259 118.533173,61.9668267 L118.533173,61.9668267 C118.367974,61.7986996 118.2013,61.6320259 118.033173,61.4668267 C117.867974,61.2986996 117.7013,61.1320259 117.533173,60.9668267 L117.533173,60.9668267 C117.367974,60.7986996 117.2013,60.6320259 117.033173,60.4668267 C116.867979,60.298705 116.701311,60.1320367 116.53319,59.9668427 C109.275814,52.5808358 99.1728628,48 88,48 C65.90861,48 48,65.90861 48,88 C48,99.1728609 52.5808343,109.275811 59.9668341,116.533181 C60.1320309,116.701305 60.2987021,116.867977 60.4668267,117.033173 L60.4668267,117.033173 Z" id="Oval-4-Copy" fill="url(#linearGradient-4)" sketch:type="MSShapeGroup" mask="url(#mask-3)"></path>
                    <use id="Mask-Copy-2" fill-opacity="0" fill="#D8D8D8" filter="url(#filter-5)" sketch:type="MSShapeGroup" xlink:href="#path-6"></use>
                    <rect id="Finish-Lighting-+-Tints" fill="url(#radialGradient-8)" sketch:type="MSShapeGroup" mask="url(#mask-7)" x="5" y="-8" width="192" height="192"></rect>
                </g>
                <g id="Mask-+-Finish-Lighting-+-Tints-Copy" transform="translate(56.000000, 56.000000)">
                    <use id="Mask" fill="#F2F2F2" filter="url(#filter-9)" sketch:type="MSShapeGroup" xlink:href="#path-10"></use>
                    <path d="M31,22 L31,58 L60,40 L31,22 Z" id="Shape" fill="#E4004F" sketch:type="MSShapeGroup" mask="url(#mask-11)"></path>
                    <rect id="Finish-Lighting-+-Tints-Copy" fill="url(#radialGradient-8)" sketch:type="MSShapeGroup" mask="url(#mask-11)" x="-56" y="-56" width="192" height="192"></rect>
                </g>
            </g>
        </g>
    </g>
</svg>