<?xml version="1.0" encoding="UTF-8" standalone="no"?>
<!-- Created with Inkscape (http://www.inkscape.org/) -->

<svg
   xmlns:osb="http://www.openswatchbook.org/uri/2009/osb"
   xmlns:dc="http://purl.org/dc/elements/1.1/"
   xmlns:cc="http://creativecommons.org/ns#"
   xmlns:rdf="http://www.w3.org/1999/02/22-rdf-syntax-ns#"
   xmlns:svg="http://www.w3.org/2000/svg"
   xmlns="http://www.w3.org/2000/svg"
   xmlns:xlink="http://www.w3.org/1999/xlink"
   xmlns:sodipodi="http://sodipodi.sourceforge.net/DTD/sodipodi-0.dtd"
   xmlns:inkscape="http://www.inkscape.org/namespaces/inkscape"
   width="48"
   height="48"
   viewBox="0 0 48 48"
   id="svg2"
   version="1.1"
   inkscape:version="0.91 r13725"
   sodipodi:docname="folder-video.svg"
   inkscape:export-filename="/mnt/Data/Documents/Work/Icons/Singles/flat/folder.png"
   inkscape:export-xdpi="180"
   inkscape:export-ydpi="180">
  <defs
     id="defs4">
    <linearGradient
       inkscape:collect="always"
       id="linearGradient4198">
      <stop
         style="stop-color:#ffffff;stop-opacity:1;"
         offset="0"
         id="stop4200" />
      <stop
         style="stop-color:#ffffff;stop-opacity:0;"
         offset="1"
         id="stop4202" />
    </linearGradient>
    <linearGradient
       inkscape:collect="always"
       id="linearGradient4184">
      <stop
         style="stop-color:#000000;stop-opacity:1;"
         offset="0"
         id="stop4186" />
      <stop
         style="stop-color:#000000;stop-opacity:0;"
         offset="1"
         id="stop4188" />
    </linearGradient>
    <linearGradient
       osb:paint="solid"
       id="linearGradient5606">
      <stop
         style="stop-color:#000000;stop-opacity:1;"
         offset="0"
         id="stop5608" />
    </linearGradient>
    <linearGradient
       inkscape:collect="always"
       xlink:href="#linearGradient4184"
       id="linearGradient4190"
       x1="12"
       y1="23"
       x2="12.668275"
       y2="22.042219"
       gradientUnits="userSpaceOnUse" />
    <linearGradient
       inkscape:collect="always"
       xlink:href="#linearGradient4184"
       id="linearGradient4194"
       gradientUnits="userSpaceOnUse"
       x1="12"
       y1="23"
       x2="12.668275"
       y2="22.042219"
       gradientTransform="matrix(-1,0,0,1,48,0)" />
    <linearGradient
       inkscape:collect="always"
       xlink:href="#linearGradient4198"
       id="linearGradient4204"
       x1="23"
       y1="16"
       x2="23"
       y2="28"
       gradientUnits="userSpaceOnUse"
       gradientTransform="translate(0,-1)" />
    <linearGradient
       inkscape:collect="always"
       xlink:href="#linearGradient4184"
       id="linearGradient4208"
       gradientUnits="userSpaceOnUse"
       x1="23"
       y1="16"
       x2="23"
       y2="28"
       gradientTransform="translate(0,-31)" />
  </defs>
  <sodipodi:namedview
     id="base"
     pagecolor="#ffffff"
     bordercolor="#666666"
     borderopacity="1.0"
     inkscape:pageopacity="0.0"
     inkscape:pageshadow="2"
     inkscape:zoom="48.849293"
     inkscape:cx="29.863797"
     inkscape:cy="5.0459167"
     inkscape:document-units="px"
     inkscape:current-layer="layer4"
     showgrid="true"
     units="px"
     showguides="false"
     inkscape:snap-bbox="true"
     inkscape:bbox-paths="true"
     inkscape:bbox-nodes="true"
     inkscape:snap-bbox-edge-midpoints="true"
     inkscape:snap-bbox-midpoints="true"
     inkscape:object-paths="true"
     inkscape:snap-intersection-paths="true"
     inkscape:object-nodes="true"
     inkscape:snap-smooth-nodes="true"
     inkscape:snap-midpoints="true"
     inkscape:window-width="1920"
     inkscape:window-height="1020"
     inkscape:window-x="0"
     inkscape:window-y="32"
     inkscape:window-maximized="1"
     inkscape:snap-others="true"
     inkscape:snap-nodes="true"
     inkscape:snap-global="true">
    <inkscape:grid
       type="xygrid"
       id="grid4136" />
  </sodipodi:namedview>
  <metadata
     id="metadata7">
    <rdf:RDF>
      <cc:Work
         rdf:about="">
        <dc:format>image/svg+xml</dc:format>
        <dc:type
           rdf:resource="http://purl.org/dc/dcmitype/StillImage" />
        <dc:title />
      </cc:Work>
    </rdf:RDF>
  </metadata>
  <g
     inkscape:groupmode="layer"
     id="layer4"
     inkscape:label="Shadow">
    <path
       style="opacity:0.05;fill:#000000;fill-opacity:1;fill-rule:evenodd;stroke:none;stroke-width:1px;stroke-linecap:butt;stroke-linejoin:miter;stroke-opacity:1"
       d="M 0 43 L 0 44 C 0 45.662 1.338 47 3 47 L 45 47 C 46.662 47 48 45.662 48 44 L 48 43 C 48 44.662 46.662 46 45 46 L 3 46 C 1.338 46 0 44.662 0 43 z "
       id="rect4258" />
    <path
       style="opacity:0.1;fill:#000000;fill-opacity:1;fill-rule:evenodd;stroke:none;stroke-width:1px;stroke-linecap:butt;stroke-linejoin:miter;stroke-opacity:1"
       d="M 0 42.5 L 0 43 C 0 44.662 1.338 46 3 46 L 45 46 C 46.662 46 48 44.662 48 43 L 48 42.5 C 48 44.162 46.662 45.5 45 45.5 L 3 45.5 C 1.338 45.5 0 44.162 0 42.5 z "
       id="rect4253" />
    <rect
       ry="3"
       rx="3"
       y="9.5"
       x="0"
       height="36"
       width="48"
       id="rect4235"
       style="fill:#000000;fill-opacity:1;fill-rule:evenodd;stroke:none;stroke-width:1px;stroke-linecap:butt;stroke-linejoin:miter;stroke-opacity:1;opacity:0.2" />
  </g>
  <g
     inkscape:label="Body"
     inkscape:groupmode="layer"
     id="layer1"
     transform="translate(0,-1004.3622)">
    <rect
       style="fill:#fb8c00;fill-opacity:1;fill-rule:evenodd;stroke:none;stroke-width:1px;stroke-linecap:butt;stroke-linejoin:miter;stroke-opacity:1"
       id="rect3354"
       width="48"
       height="37.999981"
       x="0"
       y="1011.3622"
       rx="3"
       ry="3" />
  </g>
  <g
     inkscape:groupmode="layer"
     id="layer2"
     inkscape:label="Symbol">
    <rect
       style="opacity:1;fill:#ffffff;fill-opacity:1;stroke:none;stroke-width:2;stroke-miterlimit:4;stroke-dasharray:none;stroke-opacity:1"
       id="rect4180"
       width="14"
       height="12"
       x="17"
       y="9"
       rx="2"
       ry="2" />
    <path
       inkscape:connector-curvature="0"
       style="fill:#c62828;fill-opacity:1;stroke:none"
       d="M 24.222708,3 C 20.251702,3 14.38429,3.2415006 12.628004,3.3004675 10.720442,3.4717198 10.014319,3.572049 8.9695633,4.469721 7.3776995,5.89113 7,8.684167 7,12.957295 l 0,4.066773 c 0,4.87742 0.6451743,7.35531 1.7074233,8.261646 1.2261534,1.056099 2.0346007,1.140506 2.8511107,1.26708 C 11.875527,26.600914 14.118977,27 24.074233,27 c 6.208101,0 11.544215,-0.294412 12.0958,-0.365685 0.886752,-0.11235 2.160554,-0.275425 3.122544,-1.348601 C 40.716659,23.660671 41,20.962844 41,17.054344 L 41,12.31677 C 41,9.786838 40.859637,6.211267 39.292577,4.714286 38.105475,3.7053526 37.67072,3.4198726 35.214244,3.2958103 34.519535,3.2613486 28.457343,3 24.222708,3 Z M 20,10 l 9,5 -9,5 z"
       id="path3042"
       sodipodi:nodetypes="sccssccsccssccscccc" />
    <rect
       style="opacity:0.1;fill:url(#linearGradient4204);fill-opacity:1;stroke:none;stroke-width:2;stroke-miterlimit:4;stroke-dasharray:none;stroke-opacity:1"
       id="rect4196"
       width="34"
       height="12"
       x="7"
       y="15" />
    <rect
       y="-15"
       x="7"
       height="12"
       width="34"
       id="rect4206"
       style="opacity:0.1;fill:url(#linearGradient4208);fill-opacity:1;stroke:none;stroke-width:2;stroke-miterlimit:4;stroke-dasharray:none;stroke-opacity:1"
       transform="scale(1,-1)" />
  </g>
  <g
     inkscape:groupmode="layer"
     id="layer3"
     inkscape:label="Plates">
    <path
       sodipodi:nodetypes="ccccc"
       inkscape:connector-curvature="0"
       id="path4192"
       d="M 48,15 22,33 21,32 48,13 Z"
       style="opacity:0.1;fill:url(#linearGradient4194);fill-opacity:1;fill-rule:evenodd;stroke:none;stroke-width:1px;stroke-linecap:butt;stroke-linejoin:miter;stroke-opacity:1" />
    <path
       style="fill:url(#linearGradient4190);fill-opacity:1;fill-rule:evenodd;stroke:none;stroke-width:1px;stroke-linecap:butt;stroke-linejoin:miter;stroke-opacity:1;opacity:0.1"
       d="M 0,15 26,33 27,32 0,13 Z"
       id="path4182"
       inkscape:connector-curvature="0"
       sodipodi:nodetypes="ccccc" />
    <path
       style="fill:#ffc107;fill-opacity:1;fill-rule:evenodd;stroke:none;stroke-width:1px;stroke-linecap:butt;stroke-linejoin:miter;stroke-opacity:1"
       d="M 0 15 L 0 42 C 0 43.662 1.338 45 3 45 L 44 45 L 0 15 z "
       id="path4151" />
    <path
       style="fill:#fdd835;fill-opacity:1;fill-rule:evenodd;stroke:none;stroke-width:1px;stroke-linecap:butt;stroke-linejoin:miter;stroke-opacity:1"
       d="M 48 15 L 4 45 L 45 45 C 46.662 45 48 43.662 48 42 L 48 15 z "
       id="path4149" />
  </g>
</svg>
