<?xml version="1.0" encoding="UTF-8" standalone="no"?>
<svg width="192px" height="192px" viewBox="0 0 192 192" version="1.1" xmlns="http://www.w3.org/2000/svg" xmlns:xlink="http://www.w3.org/1999/xlink" xmlns:sketch="http://www.bohemiancoding.com/sketch/ns">
    <!-- Generator: Sketch 3.3.2 (12043) - http://www.bohemiancoding.com/sketch -->
    <title>aa 2</title>
    <desc>Created with Sketch.</desc>
    <defs>
        <filter x="-50%" y="-50%" width="200%" height="200%" filterUnits="objectBoundingBox" id="filter-1">
            <feOffset dx="0" dy="4" in="SourceAlpha" result="shadowOffsetOuter1"></feOffset>
            <feGaussianBlur stdDeviation="2" in="shadowOffsetOuter1" result="shadowBlurOuter1"></feGaussianBlur>
            <feColorMatrix values="0 0 0 0 0.749019608   0 0 0 0 0.211764706   0 0 0 0 0.0470588235  0 0 0 0.07 0" in="shadowBlurOuter1" type="matrix" result="shadowMatrixOuter1"></feColorMatrix>
            <feOffset dx="0" dy="1" in="SourceAlpha" result="shadowOffsetInner1"></feOffset>
            <feGaussianBlur stdDeviation="0" in="shadowOffsetInner1" result="shadowBlurInner1"></feGaussianBlur>
            <feComposite in="shadowBlurInner1" in2="SourceAlpha" operator="arithmetic" k2="-1" k3="1" result="shadowInnerInner1"></feComposite>
            <feColorMatrix values="0 0 0 0 1   0 0 0 0 1   0 0 0 0 1  0 0 0 0.279421422 0" in="shadowInnerInner1" type="matrix" result="shadowMatrixInner1"></feColorMatrix>
            <feOffset dx="0" dy="-1" in="SourceAlpha" result="shadowOffsetInner2"></feOffset>
            <feGaussianBlur stdDeviation="0" in="shadowOffsetInner2" result="shadowBlurInner2"></feGaussianBlur>
            <feComposite in="shadowBlurInner2" in2="SourceAlpha" operator="arithmetic" k2="-1" k3="1" result="shadowInnerInner2"></feComposite>
            <feColorMatrix values="0 0 0 0 0.749019608   0 0 0 0 0.211764706   0 0 0 0 0.0470588235  0 0 0 0.0717476223 0" in="shadowInnerInner2" type="matrix" result="shadowMatrixInner2"></feColorMatrix>
            <feMerge>
                <feMergeNode in="shadowMatrixOuter1"></feMergeNode>
                <feMergeNode in="SourceGraphic"></feMergeNode>
                <feMergeNode in="shadowMatrixInner1"></feMergeNode>
                <feMergeNode in="shadowMatrixInner2"></feMergeNode>
            </feMerge>
        </filter>
        <path id="path-2" d="M152,29.9906395 C152,23.3683922 146.634886,18 140.009361,18 L11.9906395,18 C5.36839215,18 0,23.3651136 0,29.9906395 L0,158.009361 C0,164.631608 5.36511358,170 11.9906395,170 L140.009361,170 C146.631608,170 152,164.634886 152,158.009361 L152,29.9906395 Z"></path>
        <linearGradient x1="50%" y1="0%" x2="100%" y2="50%" id="linearGradient-4">
            <stop stop-color="#BF360C" stop-opacity="0.102439991" offset="0%"></stop>
            <stop stop-color="#BF360C" stop-opacity="0" offset="100%"></stop>
        </linearGradient>
        <filter x="-50%" y="-50%" width="200%" height="200%" filterUnits="objectBoundingBox" id="filter-5">
            <feOffset dx="0" dy="1" in="SourceAlpha" result="shadowOffsetOuter1"></feOffset>
            <feGaussianBlur stdDeviation="0" in="shadowOffsetOuter1" result="shadowBlurOuter1"></feGaussianBlur>
            <feColorMatrix values="0 0 0 0 0.749019608   0 0 0 0 0.211764706   0 0 0 0 0.0470588235  0 0 0 0.069310462 0" in="shadowBlurOuter1" type="matrix" result="shadowMatrixOuter1"></feColorMatrix>
            <feOffset dx="0" dy="4" in="SourceAlpha" result="shadowOffsetOuter2"></feOffset>
            <feGaussianBlur stdDeviation="2" in="shadowOffsetOuter2" result="shadowBlurOuter2"></feGaussianBlur>
            <feColorMatrix values="0 0 0 0 0.749019608   0 0 0 0 0.211764706   0 0 0 0 0.0470588235  0 0 0 0.0701624774 0" in="shadowBlurOuter2" type="matrix" result="shadowMatrixOuter2"></feColorMatrix>
            <feMerge>
                <feMergeNode in="shadowMatrixOuter1"></feMergeNode>
                <feMergeNode in="shadowMatrixOuter2"></feMergeNode>
                <feMergeNode in="SourceGraphic"></feMergeNode>
            </feMerge>
        </filter>
        <radialGradient cx="-5.51742725%" cy="4.80964791%" fx="-5.51742725%" fy="4.80964791%" r="132.529001%" id="radialGradient-6">
            <stop stop-color="#FFFFFF" stop-opacity="0.0976279438" offset="0%"></stop>
            <stop stop-color="#FFFFFF" stop-opacity="0.0659391806" offset="32.4587019%"></stop>
            <stop stop-color="#FFFFFF" stop-opacity="0" offset="100%"></stop>
        </radialGradient>
    </defs>
    <g id="Page-1" stroke="none" stroke-width="1" fill="none" fill-rule="evenodd" sketch:type="MSPage">
        <g id="aa-2" sketch:type="MSArtboardGroup">
            <g id="aa_2" sketch:type="MSLayerGroup" transform="translate(20.000000, 2.000000)">
                <mask id="mask-3" sketch:name="Base" fill="white">
                    <use xlink:href="#path-2"></use>
                </mask>
                <use id="Base" fill="#FFF8E1" filter="url(#filter-1)" sketch:type="MSShapeGroup" xlink:href="#path-2"></use>
                <path d="M62.4145508,130 C61.9311499,128.33007 61.5905772,126.319592 61.3928223,123.968506 C61.1950674,121.61742 61.0961914,119.277355 61.0961914,116.948242 C59.909662,118.881846 58.4375088,120.716544 56.6796875,122.452393 C54.9218662,124.188241 52.8784296,125.715325 50.5493164,127.033691 C48.2202032,128.352057 45.6054833,129.395748 42.7050781,130.164795 C39.804673,130.933842 36.5747248,131.318359 33.0151367,131.318359 C29.6752763,131.318359 26.6540662,130.845952 23.951416,129.901123 C21.2487658,128.956294 18.9416599,127.626962 17.0300293,125.913086 C15.1183986,124.19921 13.6462454,122.155774 12.6135254,119.782715 C11.5808054,117.409656 11.0644531,114.794936 11.0644531,111.938477 C11.0644531,108.774398 11.811516,105.852064 13.3056641,103.171387 C14.7998122,100.490709 16.9640972,98.1945896 19.798584,96.282959 C22.6330708,94.3713283 26.0937296,92.8772026 30.1806641,91.8005371 C34.2675986,90.7238716 38.8818102,90.1855469 44.0234375,90.1855469 L61.0961914,90.1855469 L61.0961914,79.7705078 C61.0961914,73.7939154 59.2175481,69.1577313 55.4602051,65.8618164 C51.7028621,62.5659015 46.3306013,60.9179688 39.3432617,60.9179688 C36.0912923,60.9179688 33.0810685,61.3574175 30.3125,62.2363281 C27.5439315,63.1152388 25.1379497,64.334709 23.0944824,65.8947754 C21.0510152,67.4548418 19.4470273,69.3005265 18.2824707,71.4318848 C17.1179141,73.5632431 16.5356445,75.8593627 16.5356445,78.3203125 L12.9760742,78.1884766 C12.9760742,75.419908 13.6242611,72.7722294 14.9206543,70.2453613 C16.2170475,67.7184932 18.0407597,65.4992771 20.3918457,63.5876465 C22.7429317,61.6760158 25.5334311,60.1599177 28.7634277,59.0393066 C31.9934244,57.9186956 35.5200004,57.3583984 39.3432617,57.3583984 C43.0346864,57.3583984 46.4294279,57.8308058 49.5275879,58.7756348 C52.6257479,59.7204637 55.295399,61.1266996 57.5366211,62.9943848 C59.7778432,64.8620699 61.5246519,67.2131206 62.7770996,70.0476074 C64.0295473,72.8820943 64.6557617,76.1669735 64.6557617,79.9023438 L64.6557617,115.629883 C64.6557617,116.904303 64.6997066,118.211663 64.7875977,119.552002 C64.8754887,120.892341 64.9963371,122.166742 65.1501465,123.375244 C65.3039558,124.583746 65.4907216,125.715327 65.7104492,126.77002 C65.9301769,127.824712 66.1938461,128.70361 66.5014648,129.406738 L66.5014648,130 L62.4145508,130 L62.4145508,130 Z M33.0151367,127.824707 C36.4428882,127.824707 39.6179053,127.429203 42.5402832,126.638184 C45.4626611,125.847164 48.0993535,124.704597 50.4504395,123.210449 C52.8015254,121.716301 54.8669345,119.925548 56.6467285,117.838135 C58.4265226,115.750722 59.909662,113.388685 61.0961914,110.751953 L61.0961914,93.8110352 L44.2211914,93.8110352 C39.6069105,93.8110352 35.4760925,94.2614701 31.8286133,95.1623535 C28.1811341,96.0632369 25.0830206,97.326652 22.5341797,98.9526367 C19.9853388,100.578621 18.029792,102.523182 16.6674805,104.786377 C15.305169,107.049572 14.6240234,109.521471 14.6240234,112.202148 C14.6240234,114.35548 15.0744584,116.376944 15.9753418,118.266602 C16.8762252,120.156259 18.1396403,121.815178 19.765625,123.243408 C21.3916097,124.671638 23.3251841,125.792232 25.5664062,126.605225 C27.8076284,127.418217 30.2905137,127.824707 33.0151367,127.824707 L33.0151367,127.824707 L33.0151367,127.824707 Z M133.671875,130 C133.188474,128.33007 132.847901,126.319592 132.650146,123.968506 C132.452392,121.61742 132.353516,119.277355 132.353516,116.948242 C131.166986,118.881846 129.694833,120.716544 127.937012,122.452393 C126.17919,124.188241 124.135754,125.715325 121.806641,127.033691 C119.477527,128.352057 116.862807,129.395748 113.962402,130.164795 C111.061997,130.933842 107.832049,131.318359 104.272461,131.318359 C100.9326,131.318359 97.9113905,130.845952 95.2087402,129.901123 C92.50609,128.956294 90.1989842,127.626962 88.2873535,125.913086 C86.3757229,124.19921 84.9035696,122.155774 83.8708496,119.782715 C82.8381296,117.409656 82.3217773,114.794936 82.3217773,111.938477 C82.3217773,108.774398 83.0688402,105.852064 84.5629883,103.171387 C86.0571364,100.490709 88.2214214,98.1945896 91.0559082,96.282959 C93.890395,94.3713283 97.3510538,92.8772026 101.437988,91.8005371 C105.524923,90.7238716 110.139134,90.1855469 115.280762,90.1855469 L132.353516,90.1855469 L132.353516,79.7705078 C132.353516,73.7939154 130.474872,69.1577313 126.717529,65.8618164 C122.960186,62.5659015 117.587926,60.9179688 110.600586,60.9179688 C107.348617,60.9179688 104.338393,61.3574175 101.569824,62.2363281 C98.8012557,63.1152388 96.3952739,64.334709 94.3518066,65.8947754 C92.3083394,67.4548418 90.7043515,69.3005265 89.5397949,71.4318848 C88.3752383,73.5632431 87.7929688,75.8593627 87.7929688,78.3203125 L84.2333984,78.1884766 C84.2333984,75.419908 84.8815853,72.7722294 86.1779785,70.2453613 C87.4743717,67.7184932 89.2980839,65.4992771 91.6491699,63.5876465 C94.0002559,61.6760158 96.7907553,60.1599177 100.020752,59.0393066 C103.250749,57.9186956 106.777325,57.3583984 110.600586,57.3583984 C114.292011,57.3583984 117.686752,57.8308058 120.784912,58.7756348 C123.883072,59.7204637 126.552723,61.1266996 128.793945,62.9943848 C131.035167,64.8620699 132.781976,67.2131206 134.034424,70.0476074 C135.286871,72.8820943 135.913086,76.1669735 135.913086,79.9023438 L135.913086,115.629883 C135.913086,116.904303 135.957031,118.211663 136.044922,119.552002 C136.132813,120.892341 136.253661,122.166742 136.407471,123.375244 C136.56128,124.583746 136.748046,125.715327 136.967773,126.77002 C137.187501,127.824712 137.45117,128.70361 137.758789,129.406738 L137.758789,130 L133.671875,130 L133.671875,130 Z M104.272461,127.824707 C107.700212,127.824707 110.87523,127.429203 113.797607,126.638184 C116.719985,125.847164 119.356678,124.704597 121.707764,123.210449 C124.05885,121.716301 126.124259,119.925548 127.904053,117.838135 C129.683847,115.750722 131.166986,113.388685 132.353516,110.751953 L132.353516,93.8110352 L115.478516,93.8110352 C110.864235,93.8110352 106.733417,94.2614701 103.085938,95.1623535 C99.4384583,96.0632369 96.3403448,97.326652 93.7915039,98.9526367 C91.242663,100.578621 89.2871162,102.523182 87.9248047,104.786377 C86.5624932,107.049572 85.8813477,109.521471 85.8813477,112.202148 C85.8813477,114.35548 86.3317826,116.376944 87.232666,118.266602 C88.1335494,120.156259 89.3969645,121.815178 91.0229492,123.243408 C92.6489339,124.671638 94.5825083,125.792232 96.8237305,126.605225 C99.0649526,127.418217 101.547838,127.824707 104.272461,127.824707 L104.272461,127.824707 L104.272461,127.824707 Z" id="aa" fill="#212121" sketch:type="MSShapeGroup"></path>
                <path d="M117.5,60 L151.40612,93.9061204 L151.40612,60.4975315 L117.5,60 Z" id="longshadow" fill="url(#linearGradient-4)" sketch:type="MSShapeGroup"></path>
                <circle id="circle" fill="#FFF8E1" filter="url(#filter-5)" sketch:type="MSShapeGroup" cx="134.5" cy="32.5" r="32.5"></circle>
                <path d="M11.9906395,18 C5.36839215,18 0,23.3651136 0,29.9906395 L0,158.009361 C0,164.631608 5.36511358,170 11.9906395,170 L140.009361,170 C146.631608,170 152,164.634886 152,158.009361 L152,59.8909104 C161.020782,54.1155645 167,44.0060429 167,32.5 C167,14.5507456 152.449254,0 134.5,0 C121.761435,0 110.734605,7.32880943 105.405942,17.9999972 L11.9906395,18 Z" id="finish" fill="url(#radialGradient-6)" sketch:type="MSShapeGroup"></path>
                <path d="M149.171387,52 L124.679199,52 L124.679199,49.5292969 L137.489258,35.0004883 C138.688808,33.6398044 139.70483,32.4134169 140.537354,31.3212891 C141.369877,30.2291612 142.041257,29.2131395 142.551514,28.2731934 C143.06177,27.3332473 143.428791,26.4470256 143.652588,25.614502 C143.876385,24.7819783 143.988281,23.9539429 143.988281,23.1303711 C143.988281,21.9487246 143.813722,20.8700407 143.4646,19.8942871 C143.115477,18.9185335 142.596276,18.0725947 141.906982,17.3564453 C141.217689,16.6402959 140.362798,16.0852884 139.342285,15.6914062 C138.321772,15.2975241 137.149095,15.1005859 135.824219,15.1005859 C134.463535,15.1005859 133.241623,15.3288551 132.158447,15.7854004 C131.075271,16.2419456 130.153243,16.8730428 129.392334,17.6787109 C128.631425,18.484379 128.045087,19.4422145 127.633301,20.5522461 C127.221515,21.6622777 127.015625,22.8707617 127.015625,24.1777344 L123.819824,24.1777344 C123.819824,22.5663982 124.092852,21.0446035 124.638916,19.6123047 C125.18498,18.1800059 125.977208,16.9267632 127.015625,15.8525391 C128.054042,14.7783149 129.31176,13.9279003 130.788818,13.3012695 C132.265877,12.6746388 133.944327,12.3613281 135.824219,12.3613281 C137.578785,12.3613281 139.163242,12.5985491 140.577637,13.072998 C141.992032,13.547447 143.191564,14.2367305 144.17627,15.1408691 C145.160975,16.0450078 145.917396,17.146071 146.445557,18.4440918 C146.973717,19.7421126 147.237793,21.2146728 147.237793,22.8618164 C147.237793,24.0434629 147.022951,25.2340435 146.593262,26.4335938 C146.163572,27.633144 145.590661,28.8237246 144.874512,30.0053711 C144.158362,31.1870176 143.334803,32.3596947 142.403809,33.5234375 C141.472814,34.6871803 140.514979,35.8330022 139.530273,36.9609375 L128.626953,49.2875977 L149.171387,49.2875977 L149.171387,52 Z" id="2" fill="#212121" sketch:type="MSShapeGroup"></path>
            </g>
        </g>
    </g>
</svg>