<?xml version="1.0" encoding="UTF-8" standalone="no"?>
<svg width="192px" height="192px" viewBox="0 0 192 192" version="1.1" xmlns="http://www.w3.org/2000/svg" xmlns:xlink="http://www.w3.org/1999/xlink" xmlns:sketch="http://www.bohemiancoding.com/sketch/ns">
    <!-- Generator: Sketch 3.3.2 (12043) - http://www.bohemiancoding.com/sketch -->
    <title>aa 2</title>
    <desc>Created with Sketch.</desc>
    <defs>
        <filter x="-50%" y="-50%" width="200%" height="200%" filterUnits="objectBoundingBox" id="filter-1">
            <feOffset dx="0" dy="4" in="SourceAlpha" result="shadowOffsetOuter1"></feOffset>
            <feGaussianBlur stdDeviation="2" in="shadowOffsetOuter1" result="shadowBlurOuter1"></feGaussianBlur>
            <feColorMatrix values="0 0 0 0 0.749019608   0 0 0 0 0.211764706   0 0 0 0 0.0470588235  0 0 0 0.07 0" in="shadowBlurOuter1" type="matrix" result="shadowMatrixOuter1"></feColorMatrix>
            <feOffset dx="0" dy="1" in="SourceAlpha" result="shadowOffsetInner1"></feOffset>
            <feGaussianBlur stdDeviation="0" in="shadowOffsetInner1" result="shadowBlurInner1"></feGaussianBlur>
            <feComposite in="shadowBlurInner1" in2="SourceAlpha" operator="arithmetic" k2="-1" k3="1" result="shadowInnerInner1"></feComposite>
            <feColorMatrix values="0 0 0 0 1   0 0 0 0 1   0 0 0 0 1  0 0 0 0.279421422 0" in="shadowInnerInner1" type="matrix" result="shadowMatrixInner1"></feColorMatrix>
            <feOffset dx="0" dy="-1" in="SourceAlpha" result="shadowOffsetInner2"></feOffset>
            <feGaussianBlur stdDeviation="0" in="shadowOffsetInner2" result="shadowBlurInner2"></feGaussianBlur>
            <feComposite in="shadowBlurInner2" in2="SourceAlpha" operator="arithmetic" k2="-1" k3="1" result="shadowInnerInner2"></feComposite>
            <feColorMatrix values="0 0 0 0 0.749019608   0 0 0 0 0.211764706   0 0 0 0 0.0470588235  0 0 0 0.0717476223 0" in="shadowInnerInner2" type="matrix" result="shadowMatrixInner2"></feColorMatrix>
            <feMerge>
                <feMergeNode in="shadowMatrixOuter1"></feMergeNode>
                <feMergeNode in="SourceGraphic"></feMergeNode>
                <feMergeNode in="shadowMatrixInner1"></feMergeNode>
                <feMergeNode in="shadowMatrixInner2"></feMergeNode>
            </feMerge>
        </filter>
        <path id="path-2" d="M152,35.9906395 C152,29.3683922 146.634886,24 140.009361,24 L11.9906395,24 C5.36839215,24 0,29.3651136 0,35.9906395 L0,164.009361 C0,170.631608 5.36511358,176 11.9906395,176 L140.009361,176 C146.631608,176 152,170.634886 152,164.009361 L152,35.9906395 Z"></path>
        <linearGradient x1="50%" y1="0%" x2="100%" y2="50%" id="linearGradient-4">
            <stop stop-color="#BF360C" stop-opacity="0.102439991" offset="0%"></stop>
            <stop stop-color="#BF360C" stop-opacity="0" offset="100%"></stop>
        </linearGradient>
        <filter x="-50%" y="-50%" width="200%" height="200%" filterUnits="objectBoundingBox" id="filter-5">
            <feOffset dx="0" dy="1" in="SourceAlpha" result="shadowOffsetOuter1"></feOffset>
            <feGaussianBlur stdDeviation="0" in="shadowOffsetOuter1" result="shadowBlurOuter1"></feGaussianBlur>
            <feColorMatrix values="0 0 0 0 0.749019608   0 0 0 0 0.211764706   0 0 0 0 0.0470588235  0 0 0 0.069310462 0" in="shadowBlurOuter1" type="matrix" result="shadowMatrixOuter1"></feColorMatrix>
            <feOffset dx="0" dy="4" in="SourceAlpha" result="shadowOffsetOuter2"></feOffset>
            <feGaussianBlur stdDeviation="2" in="shadowOffsetOuter2" result="shadowBlurOuter2"></feGaussianBlur>
            <feColorMatrix values="0 0 0 0 0.749019608   0 0 0 0 0.211764706   0 0 0 0 0.0470588235  0 0 0 0.0701624774 0" in="shadowBlurOuter2" type="matrix" result="shadowMatrixOuter2"></feColorMatrix>
            <feMerge>
                <feMergeNode in="shadowMatrixOuter1"></feMergeNode>
                <feMergeNode in="shadowMatrixOuter2"></feMergeNode>
                <feMergeNode in="SourceGraphic"></feMergeNode>
            </feMerge>
        </filter>
        <radialGradient cx="-5.51742725%" cy="4.80964791%" fx="-5.51742725%" fy="4.80964791%" r="132.529001%" id="radialGradient-6">
            <stop stop-color="#FFFFFF" stop-opacity="0.0976279438" offset="0%"></stop>
            <stop stop-color="#FFFFFF" stop-opacity="0.0659391806" offset="32.4587019%"></stop>
            <stop stop-color="#FFFFFF" stop-opacity="0" offset="100%"></stop>
        </radialGradient>
    </defs>
    <g id="Page-1" stroke="none" stroke-width="1" fill="none" fill-rule="evenodd" sketch:type="MSPage">
        <g id="aa-2" sketch:type="MSArtboardGroup">
            <g id="aa_2" sketch:type="MSLayerGroup" transform="translate(20.000000, -4.000000)">
                <mask id="mask-3" sketch:name="Base" fill="white">
                    <use xlink:href="#path-2"></use>
                </mask>
                <use id="Base" fill="#FFF8E1" filter="url(#filter-1)" sketch:type="MSShapeGroup" xlink:href="#path-2"></use>
                <path d="M62.4145508,136 C61.9311499,134.33007 61.5905772,132.319592 61.3928223,129.968506 C61.1950674,127.61742 61.0961914,125.277355 61.0961914,122.948242 C59.909662,124.881846 58.4375088,126.716544 56.6796875,128.452393 C54.9218662,130.188241 52.8784296,131.715325 50.5493164,133.033691 C48.2202032,134.352057 45.6054833,135.395748 42.7050781,136.164795 C39.804673,136.933842 36.5747248,137.318359 33.0151367,137.318359 C29.6752763,137.318359 26.6540662,136.845952 23.951416,135.901123 C21.2487658,134.956294 18.9416599,133.626962 17.0300293,131.913086 C15.1183986,130.19921 13.6462454,128.155774 12.6135254,125.782715 C11.5808054,123.409656 11.0644531,120.794936 11.0644531,117.938477 C11.0644531,114.774398 11.811516,111.852064 13.3056641,109.171387 C14.7998122,106.490709 16.9640972,104.19459 19.798584,102.282959 C22.6330708,100.371328 26.0937296,98.8772026 30.1806641,97.8005371 C34.2675986,96.7238716 38.8818102,96.1855469 44.0234375,96.1855469 L61.0961914,96.1855469 L61.0961914,85.7705078 C61.0961914,79.7939154 59.2175481,75.1577313 55.4602051,71.8618164 C51.7028621,68.5659015 46.3306013,66.9179688 39.3432617,66.9179688 C36.0912923,66.9179688 33.0810685,67.3574175 30.3125,68.2363281 C27.5439315,69.1152388 25.1379497,70.334709 23.0944824,71.8947754 C21.0510152,73.4548418 19.4470273,75.3005265 18.2824707,77.4318848 C17.1179141,79.5632431 16.5356445,81.8593627 16.5356445,84.3203125 L12.9760742,84.1884766 C12.9760742,81.419908 13.6242611,78.7722294 14.9206543,76.2453613 C16.2170475,73.7184932 18.0407597,71.4992771 20.3918457,69.5876465 C22.7429317,67.6760158 25.5334311,66.1599177 28.7634277,65.0393066 C31.9934244,63.9186956 35.5200004,63.3583984 39.3432617,63.3583984 C43.0346864,63.3583984 46.4294279,63.8308058 49.5275879,64.7756348 C52.6257479,65.7204637 55.295399,67.1266996 57.5366211,68.9943848 C59.7778432,70.8620699 61.5246519,73.2131206 62.7770996,76.0476074 C64.0295473,78.8820943 64.6557617,82.1669735 64.6557617,85.9023438 L64.6557617,121.629883 C64.6557617,122.904303 64.6997066,124.211663 64.7875977,125.552002 C64.8754887,126.892341 64.9963371,128.166742 65.1501465,129.375244 C65.3039558,130.583746 65.4907216,131.715327 65.7104492,132.77002 C65.9301769,133.824712 66.1938461,134.70361 66.5014648,135.406738 L66.5014648,136 L62.4145508,136 Z M33.0151367,133.824707 C36.4428882,133.824707 39.6179053,133.429203 42.5402832,132.638184 C45.4626611,131.847164 48.0993535,130.704597 50.4504395,129.210449 C52.8015254,127.716301 54.8669345,125.925548 56.6467285,123.838135 C58.4265226,121.750722 59.909662,119.388685 61.0961914,116.751953 L61.0961914,99.8110352 L44.2211914,99.8110352 C39.6069105,99.8110352 35.4760925,100.26147 31.8286133,101.162354 C28.1811341,102.063237 25.0830206,103.326652 22.5341797,104.952637 C19.9853388,106.578621 18.029792,108.523182 16.6674805,110.786377 C15.305169,113.049572 14.6240234,115.521471 14.6240234,118.202148 C14.6240234,120.35548 15.0744584,122.376944 15.9753418,124.266602 C16.8762252,126.156259 18.1396403,127.815178 19.765625,129.243408 C21.3916097,130.671638 23.3251841,131.792232 25.5664062,132.605225 C27.8076284,133.418217 30.2905137,133.824707 33.0151367,133.824707 L33.0151367,133.824707 Z M133.671875,136 C133.188474,134.33007 132.847901,132.319592 132.650146,129.968506 C132.452392,127.61742 132.353516,125.277355 132.353516,122.948242 C131.166986,124.881846 129.694833,126.716544 127.937012,128.452393 C126.17919,130.188241 124.135754,131.715325 121.806641,133.033691 C119.477527,134.352057 116.862807,135.395748 113.962402,136.164795 C111.061997,136.933842 107.832049,137.318359 104.272461,137.318359 C100.9326,137.318359 97.9113905,136.845952 95.2087402,135.901123 C92.50609,134.956294 90.1989842,133.626962 88.2873535,131.913086 C86.3757229,130.19921 84.9035696,128.155774 83.8708496,125.782715 C82.8381296,123.409656 82.3217773,120.794936 82.3217773,117.938477 C82.3217773,114.774398 83.0688402,111.852064 84.5629883,109.171387 C86.0571364,106.490709 88.2214214,104.19459 91.0559082,102.282959 C93.890395,100.371328 97.3510538,98.8772026 101.437988,97.8005371 C105.524923,96.7238716 110.139134,96.1855469 115.280762,96.1855469 L132.353516,96.1855469 L132.353516,85.7705078 C132.353516,79.7939154 130.474872,75.1577313 126.717529,71.8618164 C122.960186,68.5659015 117.587926,66.9179688 110.600586,66.9179688 C107.348617,66.9179688 104.338393,67.3574175 101.569824,68.2363281 C98.8012557,69.1152388 96.3952739,70.334709 94.3518066,71.8947754 C92.3083394,73.4548418 90.7043515,75.3005265 89.5397949,77.4318848 C88.3752383,79.5632431 87.7929688,81.8593627 87.7929688,84.3203125 L84.2333984,84.1884766 C84.2333984,81.419908 84.8815853,78.7722294 86.1779785,76.2453613 C87.4743717,73.7184932 89.2980839,71.4992771 91.6491699,69.5876465 C94.0002559,67.6760158 96.7907553,66.1599177 100.020752,65.0393066 C103.250749,63.9186956 106.777325,63.3583984 110.600586,63.3583984 C114.292011,63.3583984 117.686752,63.8308058 120.784912,64.7756348 C123.883072,65.7204637 126.552723,67.1266996 128.793945,68.9943848 C131.035167,70.8620699 132.781976,73.2131206 134.034424,76.0476074 C135.286871,78.8820943 135.913086,82.1669735 135.913086,85.9023438 L135.913086,121.629883 C135.913086,122.904303 135.957031,124.211663 136.044922,125.552002 C136.132813,126.892341 136.253661,128.166742 136.407471,129.375244 C136.56128,130.583746 136.748046,131.715327 136.967773,132.77002 C137.187501,133.824712 137.45117,134.70361 137.758789,135.406738 L137.758789,136 L133.671875,136 Z M104.272461,133.824707 C107.700212,133.824707 110.87523,133.429203 113.797607,132.638184 C116.719985,131.847164 119.356678,130.704597 121.707764,129.210449 C124.05885,127.716301 126.124259,125.925548 127.904053,123.838135 C129.683847,121.750722 131.166986,119.388685 132.353516,116.751953 L132.353516,99.8110352 L115.478516,99.8110352 C110.864235,99.8110352 106.733417,100.26147 103.085938,101.162354 C99.4384583,102.063237 96.3403448,103.326652 93.7915039,104.952637 C91.242663,106.578621 89.2871162,108.523182 87.9248047,110.786377 C86.5624932,113.049572 85.8813477,115.521471 85.8813477,118.202148 C85.8813477,120.35548 86.3317826,122.376944 87.232666,124.266602 C88.1335494,126.156259 89.3969645,127.815178 91.0229492,129.243408 C92.6489339,130.671638 94.5825083,131.792232 96.8237305,132.605225 C99.0649526,133.418217 101.547838,133.824707 104.272461,133.824707 L104.272461,133.824707 Z" id="aa" fill="#212121" sketch:type="MSShapeGroup"></path>
                <path d="M117.5,66 L151.40612,99.9061204 L151.40612,66.4975315 L117.5,66 Z" id="longshadow" fill="url(#linearGradient-4)" sketch:type="MSShapeGroup"></path>
                <circle id="circle" fill="#FFF8E1" filter="url(#filter-5)" sketch:type="MSShapeGroup" cx="134.5" cy="38.5" r="32.5"></circle>
                <text id="2" sketch:type="MSTextLayer" font-family="Roboto" font-size="55" font-weight="260" fill="#212121">
                    <tspan x="121" y="58">2</tspan>
                </text>
                <path d="M11.9906395,24 C5.36839215,24 0,29.3651136 0,35.9906395 L0,164.009361 C0,170.631608 5.36511358,176 11.9906395,176 L140.009361,176 C146.631608,176 152,170.634886 152,164.009361 L152,65.8909104 C161.020782,60.1155645 167,50.0060429 167,38.5 C167,20.5507456 152.449254,6 134.5,6 C121.761435,6 110.734605,13.3288094 105.405942,23.9999972 L11.9906395,24 Z" id="finish" fill="url(#radialGradient-6)" sketch:type="MSShapeGroup"></path>
            </g>
        </g>
    </g>
</svg>