<?xml version="1.0" encoding="UTF-8" standalone="no"?>
<!-- Created with Inkscape (http://www.inkscape.org/) -->

<svg
   xmlns:dc="http://purl.org/dc/elements/1.1/"
   xmlns:cc="http://creativecommons.org/ns#"
   xmlns:rdf="http://www.w3.org/1999/02/22-rdf-syntax-ns#"
   xmlns:svg="http://www.w3.org/2000/svg"
   xmlns="http://www.w3.org/2000/svg"
   xmlns:xlink="http://www.w3.org/1999/xlink"
   xmlns:sodipodi="http://sodipodi.sourceforge.net/DTD/sodipodi-0.dtd"
   xmlns:inkscape="http://www.inkscape.org/namespaces/inkscape"
   width="48"
   height="48"
   id="svg2"
   version="1.1"
   inkscape:version="0.91 r13725"
   sodipodi:docname="application-archive.svg">
  <defs
     id="defs4">
    <linearGradient
       id="linearGradient3929">
      <stop
         style="stop-color:#444444;stop-opacity:1;"
         offset="0"
         id="stop3931" />
      <stop
         style="stop-color:#666666;stop-opacity:1;"
         offset="1"
         id="stop3933" />
    </linearGradient>
    <linearGradient
       id="linearGradient3757">
      <stop
         style="stop-color:#3891d1;stop-opacity:1;"
         offset="0"
         id="stop3759" />
      <stop
         style="stop-color:#81bffa;stop-opacity:1;"
         offset="1"
         id="stop3761" />
    </linearGradient>
    <linearGradient
       inkscape:collect="always"
       xlink:href="#linearGradient3929"
       id="linearGradient3935"
       x1="27"
       y1="47"
       x2="27"
       y2="2"
       gradientUnits="userSpaceOnUse" />
  </defs>
  <sodipodi:namedview
     id="base"
     pagecolor="#ffffff"
     bordercolor="#666666"
     borderopacity="1.0"
     inkscape:pageopacity="0.0"
     inkscape:pageshadow="2"
     inkscape:zoom="17.270833"
     inkscape:cx="-3.8793726"
     inkscape:cy="23.768396"
     inkscape:document-units="px"
     inkscape:current-layer="layer1"
     showgrid="true"
     inkscape:window-width="1920"
     inkscape:window-height="1020"
     inkscape:window-x="0"
     inkscape:window-y="32"
     inkscape:window-maximized="1"
     inkscape:snap-bbox="true"
     inkscape:bbox-nodes="true"
     inkscape:bbox-paths="true"
     inkscape:snap-bbox-edge-midpoints="true"
     inkscape:snap-bbox-midpoints="true"
     inkscape:object-paths="true"
     inkscape:snap-intersection-paths="true"
     inkscape:snap-smooth-nodes="true"
     inkscape:snap-midpoints="true"
     inkscape:object-nodes="true">
    <inkscape:grid
       type="xygrid"
       id="grid3765"
       empspacing="5"
       visible="true"
       enabled="true"
       snapvisiblegridlinesonly="true" />
  </sodipodi:namedview>
  <metadata
     id="metadata7">
    <rdf:RDF>
      <cc:Work
         rdf:about="">
        <dc:format>image/svg+xml</dc:format>
        <dc:type
           rdf:resource="http://purl.org/dc/dcmitype/StillImage" />
        <dc:title />
      </cc:Work>
    </rdf:RDF>
  </metadata>
  <g
     inkscape:label="Layer 1"
     inkscape:groupmode="layer"
     id="layer1"
     transform="translate(0,-1004.3622)">
    <path
       style="opacity:1;fill:#ff9800;fill-opacity:1;stroke:none;stroke-opacity:1"
       d="M 16,2 6,12 6,44 c 0,1.108 0.892,2 2,2 l 32,0 c 1.108,0 2,-0.892 2,-2 L 42,4 C 42,2.892 41.108,2 40,2 Z"
       transform="translate(0,1004.3622)"
       id="rect4149"
       inkscape:connector-curvature="0"
       sodipodi:nodetypes="ccssssssc" />
    <path
       style="opacity:1;fill:#ffe0b2;fill-opacity:1;stroke:none;stroke-opacity:1"
       d="m 16,1014.3622 c 0,1.108 -0.892,2 -2,2 l -8,0 10,-10 z"
       id="rect4153"
       inkscape:connector-curvature="0"
       sodipodi:nodetypes="ssccs" />
    <path
       id="path3119"
       d="m 24,1006.3622 0,2 2,0 0,-2 z m 0,2 -2,0 0,2 2,0 z m 0,2 0,2 2,0 0,-2 z m 0,2 -2,0 0,2 2,0 z m 0,2 0,2 2,0 0,-2 z m 0,2 -2,0 0,2 2,0 z m 0,2 0,2 2,0 0,-2 z m 0,2 -2,0 0,2 2,0 z m 0,2 0,2 2,0 0,-2 z m 0,2 -2,0 0,2 2,0 z m 0,2 0,2 c 1.104,0 2,-1 2,-2 z"
       inkscape:connector-curvature="0"
       style="display:inline;fill:#ffcc80;fill-opacity:1"
       sodipodi:nodetypes="cccccccccccccccccccccccccccccccccccccccccccccccccccccc" />
    <path
       id="path3121"
       d="m 22,1006.3622 0,2 2,0 0,-2 z m 0,4 0,2 2,0 0,-2 z m 0,4 0,2 2,0 0,-2 z m 0,4 0,2 2,0 0,-2 z m 0,4 0,2 2,0 0,-2 z m 0,4 c 0,1 0.896,2 2,2 l 0,-2 z"
       inkscape:connector-curvature="0"
       style="display:inline;fill:#bf8b3c;fill-opacity:1"
       sodipodi:nodetypes="ccccccccccccccccccccccccccccc" />
    <path
       style="display:inline;fill:#fff3e0;fill-opacity:1"
       inkscape:connector-curvature="0"
       d="m 24,1028.3622 c -1.6575,0 -3,1.35 -3,3 l 0,7 c 0,1.65 1.3425,3 3,3 1.6575,0 3,-1.35 3,-3 l 0,-7 c 0,-1.65 -1.3425,-3 -3,-3 z m 0,2 c 0.828,0 1.5,0.6 1.5,1.5 0,0.75 -0.672,1.5 -1.5,1.5 -0.828,0 -1.5,-0.75 -1.5,-1.5 0,-0.9 0.672,-1.5 1.5,-1.5 z m 0,4 c 0.828,0 1.5,0.6 1.5,1.5 l 1e-6,1.9997 c 0,0.028 -9.08e-4,0.055 -0.0027,0.083 -0.04692,0.7214 -0.699738,1.4173 -1.497301,1.4173 -0.828,0 -1.5,-0.75 -1.5,-1.5 l -1e-6,-1.9997 c 0,-0.9 0.672,-1.5 1.5,-1.5 z"
       id="path3123"
       sodipodi:nodetypes="sssssssssssscsssssssc" />
    <path
       sodipodi:nodetypes="ccccccccccccccccccccccccc"
       style="display:inline;fill:#bf8b3c;fill-opacity:1"
       inkscape:connector-curvature="0"
       d="m 24,1008.3622 0,2 2,0 0,-2 z m 0,4 0,2 2,0 0,-2 z m 0,4 0,2 2,0 0,-2 z m 0,4 0,2 2,0 0,-2 z m 0,4 0,2 2,0 0,-2 z"
       id="path3946" />
  </g>
</svg>
