<?xml version="1.0" encoding="UTF-8" standalone="no"?>
<!-- Created with Inkscape (http://www.inkscape.org/) -->

<svg
   xmlns:dc="http://purl.org/dc/elements/1.1/"
   xmlns:cc="http://creativecommons.org/ns#"
   xmlns:rdf="http://www.w3.org/1999/02/22-rdf-syntax-ns#"
   xmlns:svg="http://www.w3.org/2000/svg"
   xmlns="http://www.w3.org/2000/svg"
   xmlns:xlink="http://www.w3.org/1999/xlink"
   xmlns:sodipodi="http://sodipodi.sourceforge.net/DTD/sodipodi-0.dtd"
   xmlns:inkscape="http://www.inkscape.org/namespaces/inkscape"
   width="48"
   height="48"
   id="svg2"
   version="1.1"
   inkscape:version="0.48.5 r10040"
   sodipodi:docname="disk.svg">
  <defs
     id="defs4">
    <linearGradient
       id="linearGradient4188">
      <stop
         style="stop-color:#f59f3a;stop-opacity:1;"
         offset="0"
         id="stop4190" />
      <stop
         style="stop-color:#ffab46;stop-opacity:1;"
         offset="1"
         id="stop4192" />
    </linearGradient>
    <linearGradient
       id="linearGradient4112">
      <stop
         style="stop-color:#f77c13;stop-opacity:1;"
         offset="0"
         id="stop4114" />
      <stop
         style="stop-color:#fb9b49;stop-opacity:1;"
         offset="1"
         id="stop4116" />
    </linearGradient>
    <linearGradient
       id="linearGradient3929">
      <stop
         style="stop-color:#313131;stop-opacity:1;"
         offset="0"
         id="stop3931" />
      <stop
         style="stop-color:#555555;stop-opacity:1;"
         offset="1"
         id="stop3933" />
    </linearGradient>
    <linearGradient
       id="linearGradient3757">
      <stop
         style="stop-color:#0f88de;stop-opacity:1;"
         offset="0"
         id="stop3759" />
      <stop
         style="stop-color:#81bffa;stop-opacity:1;"
         offset="1"
         id="stop3761" />
    </linearGradient>
    <linearGradient
       inkscape:collect="always"
       xlink:href="#linearGradient3929"
       id="linearGradient3935"
       x1="27"
       y1="47"
       x2="27"
       y2="2"
       gradientUnits="userSpaceOnUse" />
    <linearGradient
       inkscape:collect="always"
       xlink:href="#linearGradient4524"
       id="linearGradient4530"
       x1="24"
       y1="46"
       x2="24"
       y2="2"
       gradientUnits="userSpaceOnUse" />
    <linearGradient
       id="linearGradient4524">
      <stop
         style="stop-color:#ca7f4f;stop-opacity:1;"
         offset="0"
         id="stop4526" />
      <stop
         style="stop-color:#d99356;stop-opacity:1;"
         offset="1"
         id="stop4528" />
    </linearGradient>
    <linearGradient
       inkscape:collect="always"
       xlink:href="#linearGradient5847"
       id="linearGradient5893"
       x1="29.200001"
       y1="14.866665"
       x2="23.799999"
       y2="40.066666"
       gradientUnits="userSpaceOnUse" />
    <linearGradient
       id="linearGradient5847">
      <stop
         id="stop5849"
         offset="0"
         style="stop-color:#ffffff;stop-opacity:1;" />
      <stop
         style="stop-color:#d22d2d;stop-opacity:1;"
         offset="0.21739133"
         id="stop5859" />
      <stop
         id="stop6761"
         offset="0.39130437"
         style="stop-color:#e81670;stop-opacity:1;" />
      <stop
         style="stop-color:#cfcbce;stop-opacity:1;"
         offset="0.4782609"
         id="stop5857" />
      <stop
         id="stop6769"
         offset="0.5962733"
         style="stop-color:#4db7f4;stop-opacity:1;" />
      <stop
         style="stop-color:#14b560;stop-opacity:1;"
         offset="0.7391305"
         id="stop5855" />
      <stop
         id="stop5851"
         offset="1"
         style="stop-color:#ffffff;stop-opacity:1;" />
    </linearGradient>
    <linearGradient
       y2="40.066666"
       x2="23.799999"
       y1="14.866665"
       x1="29.200001"
       gradientUnits="userSpaceOnUse"
       id="linearGradient3152"
       xlink:href="#linearGradient5847"
       inkscape:collect="always" />
    <linearGradient
       inkscape:collect="always"
       xlink:href="#linearGradient5847-0"
       id="linearGradient5893-4"
       x1="29.200001"
       y1="14.866665"
       x2="23.799999"
       y2="40.066666"
       gradientUnits="userSpaceOnUse"
       gradientTransform="matrix(1.1111111,0,0,1.0714286,-5.4447011,-4.92857)" />
    <linearGradient
       id="linearGradient5847-0">
      <stop
         id="stop5849-8"
         offset="0"
         style="stop-color:#ffffff;stop-opacity:1;" />
      <stop
         style="stop-color:#d22d2d;stop-opacity:1;"
         offset="0.21739133"
         id="stop5859-9" />
      <stop
         id="stop6761-5"
         offset="0.39130437"
         style="stop-color:#e81670;stop-opacity:1;" />
      <stop
         style="stop-color:#cfcbce;stop-opacity:1;"
         offset="0.4782609"
         id="stop5857-2" />
      <stop
         id="stop6769-3"
         offset="0.5962733"
         style="stop-color:#4db7f4;stop-opacity:1;" />
      <stop
         style="stop-color:#14b560;stop-opacity:1;"
         offset="0.7391305"
         id="stop5855-0" />
      <stop
         id="stop5851-1"
         offset="1"
         style="stop-color:#ffffff;stop-opacity:1;" />
    </linearGradient>
    <linearGradient
       inkscape:collect="always"
       xlink:href="#linearGradient4561"
       id="linearGradient4559"
       x1="17.69619"
       y1="1018.5955"
       x2="12.945526"
       y2="1015.1042"
       gradientUnits="userSpaceOnUse"
       gradientTransform="matrix(0.9996487,0,0,1.0125088,0.00416191,-11.777303)" />
    <linearGradient
       id="linearGradient4561">
      <stop
         id="stop4563"
         offset="0"
         style="stop-color:#ffe900;stop-opacity:1;" />
      <stop
         id="stop4565"
         offset="1"
         style="stop-color:#fffd84;stop-opacity:0.25630252" />
    </linearGradient>
    <linearGradient
       id="linearGradient5847-7">
      <stop
         id="stop5849-9"
         offset="0"
         style="stop-color:#ffffff;stop-opacity:1;" />
      <stop
         style="stop-color:#d22d2d;stop-opacity:1;"
         offset="0.21739133"
         id="stop5859-6" />
      <stop
         id="stop6761-0"
         offset="0.39130437"
         style="stop-color:#e81670;stop-opacity:1;" />
      <stop
         style="stop-color:#cfcbce;stop-opacity:1;"
         offset="0.4782609"
         id="stop5857-5" />
      <stop
         id="stop6769-0"
         offset="0.5962733"
         style="stop-color:#4db7f4;stop-opacity:1;" />
      <stop
         style="stop-color:#14b560;stop-opacity:1;"
         offset="0.7391305"
         id="stop5855-6" />
      <stop
         id="stop5851-3"
         offset="1"
         style="stop-color:#ffffff;stop-opacity:1;" />
    </linearGradient>
    <linearGradient
       inkscape:collect="always"
       xlink:href="#linearGradient5847-7"
       id="linearGradient3859"
       gradientUnits="userSpaceOnUse"
       gradientTransform="matrix(1.6296296,0,0,1.5714286,-19.185185,985.93363)"
       x1="29.200001"
       y1="14.866665"
       x2="23.799999"
       y2="40.066666" />
  </defs>
  <sodipodi:namedview
     id="base"
     pagecolor="#ffffff"
     bordercolor="#666666"
     borderopacity="1.0"
     inkscape:pageopacity="0.0"
     inkscape:pageshadow="2"
     inkscape:zoom="15.85"
     inkscape:cx="15.794868"
     inkscape:cy="16.363827"
     inkscape:document-units="px"
     inkscape:current-layer="layer1"
     showgrid="true"
     inkscape:window-width="1920"
     inkscape:window-height="1052"
     inkscape:window-x="0"
     inkscape:window-y="28"
     inkscape:window-maximized="1"
     showguides="true"
     inkscape:guide-bbox="true">
    <inkscape:grid
       type="xygrid"
       id="grid3765"
       empspacing="5"
       visible="true"
       enabled="true"
       snapvisiblegridlinesonly="true" />
  </sodipodi:namedview>
  <metadata
     id="metadata7">
    <rdf:RDF>
      <cc:Work
         rdf:about="">
        <dc:format>image/svg+xml</dc:format>
        <dc:type
           rdf:resource="http://purl.org/dc/dcmitype/StillImage" />
        <dc:title></dc:title>
      </cc:Work>
    </rdf:RDF>
  </metadata>
  <g
     inkscape:label="Layer 1"
     inkscape:groupmode="layer"
     id="layer1"
     transform="translate(0,-1004.3622)">
    <path
       inkscape:connector-curvature="0"
       id="path3886"
       d="m 24,1007.3622 c -12.150264,0 -22,9.8497 -22,22 0,12.1503 9.849736,22 22,22 12.150264,0 22,-9.8497 22,-22 0,-12.1503 -9.849736,-22 -22,-22 z m 0,18 c 2.209139,0 4,1.7909 4,4 0,2.2091 -1.790861,4 -4,4 -2.209139,0 -4,-1.7909 -4,-4 0,-2.2091 1.790861,-4 4,-4 z"
       style="opacity:0.14999999999999999;fill:#000000;fill-opacity:1;fill-rule:nonzero;stroke:none;display:inline" />
    <path
       style="fill:#dedede;fill-opacity:1;fill-rule:nonzero;stroke:#000000;stroke-width:0;stroke-linecap:butt;stroke-linejoin:miter;stroke-miterlimit:4;stroke-opacity:1;stroke-dasharray:none;display:inline"
       d="M 24 2 C 11.849736 2 2 11.849735 2 24 C 2 36.150265 11.849736 46 24 46 C 36.150264 46 46 36.150265 46 24 C 46 11.849735 36.150264 2 24 2 z M 24 20 C 26.209139 20 28 21.790861 28 24 C 28 26.209139 26.209139 28 24 28 C 21.790861 28 20 26.209139 20 24 C 20 21.790861 21.790861 20 24 20 z "
       transform="translate(0,1004.3622)"
       id="path5766" />
    <path
       style="opacity:0.14999999999999999;fill:url(#linearGradient3859);fill-opacity:1;fill-rule:nonzero;stroke:none;stroke-width:0;stroke-linecap:butt;stroke-linejoin:miter;stroke-miterlimit:4;stroke-opacity:1;stroke-dasharray:none;display:inline"
       d="m 24,1006.3622 c -12.150264,0 -22,9.8497 -22,22 0,12.1503 9.849736,22 22,22 12.150264,0 22,-9.8497 22,-22 0,-12.1503 -9.849736,-22 -22,-22 z m 0,18 c 2.209139,0 4,1.7909 4,4 0,2.2091 -1.790861,4 -4,4 -2.209139,0 -4,-1.7909 -4,-4 0,-2.2091 1.790861,-4 4,-4 z"
       id="path5885"
       inkscape:connector-curvature="0" />
    <path
       style="fill:#e0e0e0;fill-opacity:1;stroke:none"
       d="M 24 16 C 19.581722 16 16 19.581722 16 24 C 16 28.418278 19.581722 32 24 32 C 28.418278 32 32 28.418278 32 24 C 32 19.581722 28.418278 16 24 16 z M 24 20 C 26.209139 20 28 21.790861 28 24 C 28 26.209139 26.209139 28 24 28 C 21.790861 28 20 26.209139 20 24 C 20 21.790861 21.790861 20 24 20 z "
       transform="translate(0,1004.3622)"
       id="path3849" />
    <path
       style="fill:#797979;fill-opacity:1;stroke:none;opacity:0.8"
       d="M 24 18 C 20.686292 18 18 20.686292 18 24 C 18 27.313708 20.686292 30 24 30 C 27.313708 30 30 27.313708 30 24 C 30 20.686292 27.313708 18 24 18 z M 24 19 C 26.761424 19 29 21.238576 29 24 C 29 26.761424 26.761424 29 24 29 C 21.238576 29 19 26.761424 19 24 C 19 21.238576 21.238576 19 24 19 z "
       transform="translate(0,1004.3622)"
       id="path3881" />
  </g>
</svg>
