<?xml version="1.0" encoding="UTF-8" standalone="no"?>
<svg
   xmlns:dc="http://purl.org/dc/elements/1.1/"
   xmlns:cc="http://creativecommons.org/ns#"
   xmlns:rdf="http://www.w3.org/1999/02/22-rdf-syntax-ns#"
   xmlns:svg="http://www.w3.org/2000/svg"
   xmlns="http://www.w3.org/2000/svg"
   xmlns:xlink="http://www.w3.org/1999/xlink"
   xmlns:sodipodi="http://sodipodi.sourceforge.net/DTD/sodipodi-0.dtd"
   xmlns:inkscape="http://www.inkscape.org/namespaces/inkscape"
   width="48"
   viewBox="0 0 13.546667 13.546667"
   height="48"
   id="svg2"
   version="1.1"
   inkscape:version="0.91 r13725"
   sodipodi:docname="firefox.svg"
   inkscape:export-filename="/home/me4oslav/Documents/Phyllo/chrome.png"
   inkscape:export-xdpi="900"
   inkscape:export-ydpi="900">
  <metadata
     id="metadata36">
    <rdf:RDF>
      <cc:Work
         rdf:about="">
        <dc:format>image/svg+xml</dc:format>
        <dc:type
           rdf:resource="http://purl.org/dc/dcmitype/StillImage" />
        <dc:title />
      </cc:Work>
    </rdf:RDF>
  </metadata>
  <sodipodi:namedview
     pagecolor="#ffffff"
     bordercolor="#666666"
     borderopacity="1"
     objecttolerance="10"
     gridtolerance="10"
     guidetolerance="10"
     inkscape:pageopacity="1"
     inkscape:pageshadow="2"
     inkscape:window-width="1920"
     inkscape:window-height="1020"
     id="namedview34"
     showgrid="true"
     inkscape:zoom="17.270833"
     inkscape:cx="15.112183"
     inkscape:cy="24"
     inkscape:window-x="0"
     inkscape:window-y="32"
     inkscape:window-maximized="1"
     inkscape:current-layer="layer1"
     showguides="true"
     inkscape:guide-bbox="true"
     inkscape:snap-bbox="true"
     inkscape:bbox-paths="true"
     inkscape:bbox-nodes="true"
     inkscape:snap-bbox-edge-midpoints="true"
     inkscape:snap-bbox-midpoints="true"
     inkscape:object-paths="true"
     inkscape:snap-intersection-paths="true"
     inkscape:object-nodes="true"
     inkscape:snap-smooth-nodes="true"
     inkscape:snap-midpoints="true">
    <inkscape:grid
       type="xygrid"
       id="grid3772"
       empspacing="5"
       visible="true"
       enabled="true"
       snapvisiblegridlinesonly="true" />
  </sodipodi:namedview>
  <defs
     id="defs4">
    <linearGradient
       id="linearGradient4329">
      <stop
         style="stop-color:#ea8923;stop-opacity:1"
         offset="0"
         id="stop4331" />
      <stop
         style="stop-color:#fd9514;stop-opacity:1"
         offset="1"
         id="stop4333" />
    </linearGradient>
    <linearGradient
       id="linearGradient3807">
      <stop
         id="stop4323"
         offset="0"
         style="stop-color:#ea9623;stop-opacity:1;" />
      <stop
         id="stop4325"
         offset="1"
         style="stop-color:#f3ba18;stop-opacity:1;" />
    </linearGradient>
    <linearGradient
       id="linearGradient3835">
      <stop
         style="stop-color:#ffe4e7;stop-opacity:1;"
         offset="0"
         id="stop3838" />
      <stop
         style="stop-color:#fef3f1;stop-opacity:1;"
         offset="1"
         id="stop3840" />
    </linearGradient>
    <linearGradient
       inkscape:collect="always"
       id="linearGradient3877">
      <stop
         style="stop-color:#000000;stop-opacity:1;"
         offset="0"
         id="stop3879" />
      <stop
         style="stop-color:#000000;stop-opacity:0;"
         offset="1"
         id="stop3881" />
    </linearGradient>
    <linearGradient
       id="linearGradient3845">
      <stop
         style="stop-color:#de321c;stop-opacity:1;"
         offset="0"
         id="stop3847" />
      <stop
         style="stop-color:#ff4035;stop-opacity:1;"
         offset="1"
         id="stop3849" />
    </linearGradient>
    <linearGradient
       id="linearGradient3833">
      <stop
         style="stop-color:#cccccc;stop-opacity:1;"
         offset="0"
         id="stop3835" />
      <stop
         style="stop-color:#ffffff;stop-opacity:1;"
         offset="1"
         id="stop3837" />
    </linearGradient>
    <linearGradient
       id="linearGradient3820">
      <stop
         style="stop-color:#dadada;stop-opacity:1;"
         offset="0"
         id="stop3822" />
      <stop
         style="stop-color:#fbfbfb;stop-opacity:1;"
         offset="1"
         id="stop3824" />
    </linearGradient>
    <linearGradient
       id="linearGradient3806">
      <stop
         style="stop-color:#e9425a;stop-opacity:1;"
         offset="0"
         id="stop3808" />
      <stop
         style="stop-color:#e95e42;stop-opacity:1;"
         offset="1"
         id="stop3810" />
    </linearGradient>
    <linearGradient
       id="linearGradient3771">
      <stop
         style="stop-color:#000000;stop-opacity:1;"
         offset="0"
         id="stop3773" />
      <stop
         style="stop-color:#000000;stop-opacity:0.29411766;"
         offset="1"
         id="stop3775" />
    </linearGradient>
    <linearGradient
       id="linearGradient3923">
      <stop
         offset="0"
         style="stop-color:#fff;stop-opacity:.059"
         id="stop7" />
      <stop
         offset="1"
         style="stop-opacity:.059"
         id="stop9" />
    </linearGradient>
    <linearGradient
       xlink:href="#linearGradient3923"
       id="linearGradient3929"
       x1="-40.5"
       x2="41.5"
       gradientUnits="userSpaceOnUse" />
    <linearGradient
       id="linearGradient4460">
      <stop
         offset="0"
         style="stop-color:#dedede"
         id="stop13" />
      <stop
         offset="1"
         style="stop-color:#efefef"
         id="stop15" />
    </linearGradient>
    <linearGradient
       gradientTransform="matrix(1.10525 0 0 1.10525 -134.27874 -295.76183)"
       xlink:href="#linearGradient4460"
       id="linearGradient3061"
       y1="279.096"
       y2="268.33"
       gradientUnits="userSpaceOnUse"
       x2="0" />
    <linearGradient
       inkscape:collect="always"
       xlink:href="#linearGradient4460"
       id="linearGradient2996"
       gradientUnits="userSpaceOnUse"
       gradientTransform="matrix(1.10525,0,0,1.10525,-134.27874,-295.76183)"
       y1="279.096"
       x2="0"
       y2="268.33" />
    <linearGradient
       gradientTransform="translate(2.0669291e-7,-1.2696874e-6)"
       inkscape:collect="always"
       xlink:href="#linearGradient4208"
       id="linearGradient4214"
       x1="10"
       y1="44.999981"
       x2="14"
       y2="2"
       gradientUnits="userSpaceOnUse" />
    <linearGradient
       id="linearGradient4208">
      <stop
         style="stop-color:#70a3d6;stop-opacity:1;"
         offset="0"
         id="stop4210" />
      <stop
         style="stop-color:#88b6e1;stop-opacity:1;"
         offset="1"
         id="stop4212" />
    </linearGradient>
    <linearGradient
       gradientTransform="translate(2.0669291e-7,-1.2696874e-6)"
       inkscape:collect="always"
       xlink:href="#linearGradient4216"
       id="linearGradient4222"
       x1="35"
       y1="45.999981"
       x2="39"
       y2="9"
       gradientUnits="userSpaceOnUse" />
    <linearGradient
       id="linearGradient4216">
      <stop
         style="stop-color:#a0c4e6;stop-opacity:1;"
         offset="0"
         id="stop4218" />
      <stop
         style="stop-color:#d0e2f1;stop-opacity:1;"
         offset="1"
         id="stop4220" />
    </linearGradient>
    <linearGradient
       inkscape:collect="always"
       xlink:href="#linearGradient4192"
       id="linearGradient4198"
       x1="23"
       y1="19"
       x2="27"
       y2="1.999983"
       gradientUnits="userSpaceOnUse" />
    <linearGradient
       id="linearGradient4192">
      <stop
         style="stop-color:#4970a4;stop-opacity:1;"
         offset="0"
         id="stop4194" />
      <stop
         style="stop-color:#6090c0;stop-opacity:1;"
         offset="1"
         id="stop4196" />
    </linearGradient>
    <linearGradient
       gradientTransform="translate(2.0669291e-7,-1.2696874e-6)"
       y2="1.999983"
       x2="27"
       y1="19"
       x1="23"
       gradientUnits="userSpaceOnUse"
       id="linearGradient3092"
       xlink:href="#linearGradient4192"
       inkscape:collect="always" />
    <linearGradient
       inkscape:collect="always"
       xlink:href="#linearGradient3833"
       id="linearGradient3864"
       gradientUnits="userSpaceOnUse"
       x1="12.73392"
       y1="28"
       x2="12.73392"
       y2="39"
       gradientTransform="matrix(3.228208,0,0,3.0909092,-17.107743,-79.54546)" />
    <linearGradient
       inkscape:collect="always"
       xlink:href="#linearGradient3833"
       id="linearGradient3868"
       gradientUnits="userSpaceOnUse"
       x1="12.73392"
       y1="28"
       x2="12.73392"
       y2="39" />
    <radialGradient
       inkscape:collect="always"
       xlink:href="#linearGradient3877"
       id="radialGradient3883"
       cx="12.73392"
       cy="33.5"
       fx="12.73392"
       fy="33.5"
       r="5.2660794"
       gradientTransform="matrix(1,0,0,1.0444203,0,-1.4880784)"
       gradientUnits="userSpaceOnUse" />
    <linearGradient
       id="linearGradient3996"
       gradientUnits="userSpaceOnUse"
       gradientTransform="matrix(0,-0.26998689,0.26995169,0,0.296922,13.253828)"
       x1="1"
       x2="47">
      <stop
         stop-color="#60c3e0"
         stop-opacity="1"
         id="stop19" />
      <stop
         offset="1"
         stop-color="#71cae3"
         stop-opacity="1"
         id="stop21" />
    </linearGradient>
    <linearGradient
       id="linearGradient4327">
      <stop
         style="stop-color:#ea9623;stop-opacity:1;"
         offset="0"
         id="stop3809" />
      <stop
         style="stop-color:#f3ba18;stop-opacity:1;"
         offset="1"
         id="stop3811" />
    </linearGradient>
    <linearGradient
       id="linearGradient4524">
      <stop
         style="stop-color:#3f83ac;stop-opacity:1;"
         offset="0"
         id="stop4526" />
      <stop
         style="stop-color:#66baf0;stop-opacity:1;"
         offset="1"
         id="stop4528" />
    </linearGradient>
    <linearGradient
       id="linearGradient6128">
      <stop
         id="stop6130"
         offset="0"
         style="stop-color:#f15e1c;stop-opacity:1;" />
      <stop
         id="stop6132"
         offset="1"
         style="stop-color:#f66734;stop-opacity:1;" />
    </linearGradient>
  </defs>
  <g
     inkscape:groupmode="layer"
     id="layer2"
     inkscape:label="Shadow">
    <path
       inkscape:connector-curvature="0"
       style="opacity:0.03999999;fill:#000000;fill-opacity:1;stroke:none;stroke-width:0.5;stroke-miterlimit:4;stroke-dasharray:none;stroke-opacity:1"
       d="m 0.56830445,7.1966667 c -0.00104,0.04711 -0.00386,0.09375 -0.00386,0.141111 0,3.4397253 2.76916435,6.2088893 6.20888875,6.2088893 3.4397248,0 6.2088898,-2.769164 6.2088898,-6.2088893 0,-0.04736 -0.0028,-0.09401 -0.0039,-0.141111 -0.07478,3.3737543 -2.812629,6.0677783 -6.2049898,6.0677783 -3.3923599,0 -6.13021055,-2.694024 -6.20503025,-6.0677783 z"
       id="rect4266" />
    <path
       inkscape:connector-curvature="0"
       style="opacity:0.16000001;fill:#000000;fill-opacity:1;stroke:none;stroke-width:0.5;stroke-miterlimit:4;stroke-dasharray:none;stroke-opacity:1"
       d="m 0.56609955,6.8438889 c -2.618e-4,0.023616 -0.00165,0.046876 -0.00165,0.070556 0,3.4397241 2.76916435,6.2088891 6.20888875,6.2088891 3.4397247,0 6.2088897,-2.769165 6.2088897,-6.2088891 0,-0.023681 -0.0014,-0.04694 -0.0017,-0.070556 -0.03776,3.4067771 -2.79118,6.1383341 -6.2072247,6.1383341 -3.4160445,0 -6.16946915,-2.731557 -6.20723515,-6.1383341 z"
       id="rect4261" />
    <path
       id="path4264"
       d="m 0.56609955,6.9849997 c -2.618e-4,0.02362 -0.00165,0.04688 -0.00165,0.07056 0,3.4397243 2.76916435,6.2088893 6.20888885,6.2088893 3.4397256,0 6.2088896,-2.769165 6.2088896,-6.2088893 0,-0.02368 -0.0014,-0.04694 -0.0017,-0.07056 -0.03778,3.4067773 -2.791198,6.1383333 -6.2072437,6.1383333 -3.4160446,0 -6.16946905,-2.731556 -6.20723505,-6.1383333 z"
       style="opacity:0.07999998;fill:#000000;fill-opacity:1;stroke:none;stroke-width:0.5;stroke-miterlimit:4;stroke-dasharray:none;stroke-opacity:1"
       inkscape:connector-curvature="0" />
  </g>
  <g
     inkscape:groupmode="layer"
     id="layer1"
     inkscape:label="Body">
    <path
       inkscape:connector-curvature="0"
       style="opacity:1;fill:#77ff66;fill-opacity:1;stroke:none;stroke-width:0.5;stroke-miterlimit:4;stroke-dasharray:none;stroke-opacity:1"
       d="m 0.56554686,6.8086083 c -6.692e-5,0.01181 -0.001102,0.02345 -0.001102,0.03528 0,3.4006367 2.76916454,6.1383337 6.20888904,6.1383337 -3.4278822,0 -6.18880955,-2.750356 -6.20778662,-6.1736117 z M 6.7733335,12.98222 c 3.4397245,0 6.2088885,-2.737697 6.2088885,-6.1383337 0,-0.01183 -10e-4,-0.02346 -0.0011,-0.03528 -0.01898,3.4232557 -2.779905,6.1736107 -6.2077875,6.1736107 z"
       id="rect4247" />
    <path
       inkscape:connector-curvature="0"
       style="fill:#3b87b5;fill-opacity:1"
       d="m 6.7757629,0.5644421 c -1.8240635,0 -3.4615906,0.7891717 -4.5972778,2.041911 0.02376,0.1563223 0.04103,0.2856461 0.05912,0.3966107 -0.8516975,1.0237905 -1.36676491,2.3353865 -1.36676491,3.7714475 0,3.2641407 2.64282691,5.9059637 5.90519331,5.9059637 3.2637155,0 5.9051935,-2.643173 5.9051935,-5.9059637 0,-1.04134 -0.269412,-2.018962 -0.742368,-2.868611 -0.01242,-0.21275 -0.03239,-0.450069 -0.08449,-0.7003463 C 10.730825,1.6084815 8.876797,0.5647122 6.7757629,0.5647122 Z M 1.8237687,3.0364422 C 1.7087697,3.1884448 1.6040287,3.3380173 1.5030666,3.5005493 1.6021367,3.3420673 1.7111987,3.184935 1.8237687,3.0364422 Z M 1.4693226,3.5510373 c -0.07451,0.122574 -0.144695,0.251628 -0.2108324,0.379601 0.06668,-0.128513 0.1357854,-0.256487 0.2108324,-0.379601 z m -0.52316639,1.088047 c -0.04886,0.133104 -0.09529,0.267827 -0.13497601,0.404981 0.03995,-0.137154 0.08611,-0.272687 0.13497601,-0.404981 z"
       id="path29" />
    <path
       inkscape:connector-curvature="0"
       style="opacity:0.1;fill:#000000;fill-opacity:1;fill-rule:nonzero;stroke:none"
       d="m 11.645691,4.7271003 c 0.01485,0.02646 0.02646,0.05265 0.03995,0.07803 -9.88e-4,0.0054 0.0011,0.01161 0,0.01485 -0.0032,-0.0043 -0.0083,-0.01053 -0.0083,-0.01485 -0.01161,-0.02646 -0.01889,-0.05157 -0.03158,-0.07803 m 0,0"
       id="path33" />
    <path
       style="opacity:1;fill:#4aaae3;fill-opacity:1;fill-rule:nonzero;stroke:none"
       d="m 6.7755377,0.5644418 c -0.9375502,0 -1.8248526,0.2098719 -2.621028,0.5826346 -0.018666,0.00973 -0.044335,0.025522 -0.061185,0.033624 l 0.092604,0.2441884 0.042444,0.1604037 -0.1686718,0.093155 -0.0678,0.1267795 0.050712,0.286632 0.2028472,0.034175 0.194028,-0.1857588 0.1686718,-0.1774913 0.261276,-0.067248 0.3290756,-0.1604037 0.1940278,-0.2364713 0.2783636,-0.3373438 0.3494705,0.4740452 0.4189236,0.015434 0.034727,0.076068 0.082131,-0.072209 0.1598527,0.00606 -0.05953,-0.093706 L 6.9276746,1.1299867 7.0709907,0.994939 7.1641407,1.05447 7.2991891,0.986671 c 0,0 0.8616214,-0.1089845 1.2644877,-0.1581988 C 7.9974515,0.6582019 7.3976161,0.5644418 6.7755337,0.5644418 Z m 2.1519447,0.4977474 -0.1019745,5.504e-4 -0.1262278,0.017088 -0.1096922,0.067248 -0.1267799,0.092604 -0.07552,0.1350478 0.117961,0.1185112 0.101423,0.00827 0.04189,-0.067248 -0.1008719,-0.084887 0.05898,-0.050712 0.0083,-0.041892 0.126779,-0.084336 c 0,0 0.1642537,0.00217 0.1769404,0 0.012689,-0.00217 0.05071,-0.051263 0.05071,-0.051263 z m 0.7424874,0.2188325 -5.644e-4,0.0011 -0.143317,0.084336 -0.1433152,0.1185113 0.017091,0.050712 -0.0678,0.00827 -0.0083,-0.041892 -0.08434,-0.1185113 -0.1774912,-0.017088 c 0,0 0.04244,0.1807082 0.04244,0.2028472 0,0.022138 -0.1185119,0.00827 -0.1185119,0.00827 l -0.2022955,0.00827 c 0,0 -0.2920918,0.067248 -0.3290759,0.067248 -0.03482,0 -0.2056155,0.070938 -0.2193835,0.076068 l -0.0083,0 -0.3290751,0.1769401 -0.08489,-0.05898 -0.04189,-0.067248 0.017091,-0.067799 0.185759,0.00827 0.08435,-0.033625 L 7.8895459,1.602381 7.6536256,1.517494 7.4171547,1.475602 7.1641473,1.526314 6.9023193,1.7374295 6.7843592,1.8553896 6.6068679,2.0494174 l -0.067248,0.00882 -0.025355,0.092604 0.033624,0.093155 c 0,0 0.035682,0.041892 0.041892,0.041892 0.00621,0 0.0678,-0.033624 0.0678,-0.033624 0,0 0.0071,-0.031915 0.04189,-0.042444 0.03482,-0.01053 0.0678,-0.017088 0.0678,-0.017088 l 0.05071,0.1014236 0.05898,0.084336 0.025361,0.0678 c 0,0 0.09818,-0.06051 0.101423,-0.0678 0.0032,-0.00729 0.0083,-0.1091407 0.0083,-0.1091407 l 0.07607,-0.050712 c 0,0 0.019239,-0.036234 0.016541,-0.042444 -0.0032,-0.00621 -0.05071,-0.05898 -0.05071,-0.05898 l -0.04189,-0.017088 0.017091,-0.084336 c 0,0 0.03362,-0.013746 0.03362,-0.025356 0,-0.01161 0.05071,-0.050712 0.05071,-0.050712 l 0.05898,-0.076068 0.04244,-0.050712 0.05898,-0.042444 0.06725,0.051263 0,0.033624 -0.05898,0.067248 -0.017091,0.0678 0,0.092604 0.05071,0.042444 0.09315,-0.00882 0.08434,-0.017088 0.07607,0.042444 -0.017089,0.05898 c 0,0 -0.05295,0.050611 -0.0678,0.05898 -0.01485,0.00837 -0.1112808,-0.016907 -0.134497,-0.00827 -0.023221,0.00837 -0.08489,0.084887 -0.08489,0.084887 0,0 -0.0062,0.067327 0,0.084336 0.00161,0.00459 8.185e-4,0.014826 0,0.025356 l -0.0083,0.00827 -0.1014228,0.076068 -0.0083,0 -0.06725,-0.025356 c 0,0 -0.04197,0.00224 -0.05898,0.017088 -0.01701,0.014849 -0.03279,0.027414 -0.08489,0.033624 -0.05156,0.00621 -0.1520351,0 -0.1604042,0 l -0.05898,0 0.0083,-0.05898 0.04244,-0.0678 -0.07607,-0.05898 c 0,0 -0.04855,0.060937 -0.05071,0.075516 -0.0022,0.014849 0.03362,0.076068 0.03362,0.076068 0,0 -0.01699,0.048451 -0.025349,0.05898 -0.0084,0.01053 -0.084336,0.034175 -0.084336,0.034175 L 6.4459117,2.5554314 c 0,0 -0.04837,-0.010721 -0.041893,0.017088 0.00621,0.027539 0.05898,0.052849 0.05898,0.076068 0,0.023219 -0.033624,0.075516 -0.033624,0.075516 l -0.041892,0.051263 -0.067799,0.067248 -0.092604,0.025355 c 0,0 -0.06707,0.018878 -0.084887,0.025355 -0.017007,0.00621 -0.067248,0.017088 -0.067248,0.017088 l -0.067248,0.00827 -0.042443,0.05898 0.076068,0.059531 0.050712,0.084336 c 0,0 0.034603,0.05898 0.041892,0.05898 0.00837,0 0.025355,0.05898 0.025355,0.05898 l -0.050712,0.067799 -0.025355,0 -0.1769403,0.03362 -0.033624,-0.075517 -0.1185113,0.1179599 -0.050712,0.194028 0,0.160404 0.202296,0.109691 0.1604041,-0.05898 0.1604033,-0.287183 0.1433158,-0.17694 0.2618277,-0.042444 0.05898,-0.050712 0.2954509,0.3461629 0.03362,0.11796 0.08434,-0.04189 -0.025349,-0.101423 0.05071,0 -0.03362,-0.06725 -0.286632,-0.2700954 0.025349,-0.050712 0.0926,-0.00827 0.202296,0.2022964 0.1014242,0.118511 0,0.185759 0.05071,0.03362 0.1014228,0.100873 0.07552,-0.02535 -0.04189,-0.151585 0.025349,-0.09315 0.05071,-0.05898 0.1185111,0.04189 0.04189,0.01709 -0.0083,-0.135048 0.06725,-0.1262281 0.04244,-0.1857595 0.1515838,0.025355 0.025361,0.084336 0.05953,0.041893 0.06725,-0.05898 -0.04189,-0.092604 0.1769409,0 -0.05898,0.1008724 0.117959,0.1014237 0.1014239,0.050712 0.05898,0.117959 -0.1350479,0.03417 -0.194028,-0.04244 -0.168671,0 -0.1604041,0.08489 -0.03362,0.05071 -0.118511,0.02535 0.05126,0.126229 0.0926,0.109692 0.1686718,-0.05898 0.04244,0.07607 0.07552,-0.05953 0.1014239,0.01709 0.0083,0.109692 -0.03362,0.211115 -0.09316,-0.0088 -0.1096919,-0.01653 -0.05071,0.126228 -0.3709684,-0.06725 -0.06725,-0.08434 -0.08489,0.07552 -0.0926,0.12678 -0.2364715,-0.135048 -0.23592,-0.143316 0,-0.253008 -0.152135,0.0083 -0.00827,0.08434 -0.3715179,-0.01709 -0.1179601,0.109691 -0.2276518,0.0083 -0.1521324,0.135046 -0.093155,0.261827 -0.23592,0.18576 -0.05898,0.07552 c 0.087195,0.05913 0.1619744,0.106193 0.2237935,0.123472 0.1762785,0.04428 0.4402791,0.100007 0.6702777,0.0452 0.077976,0.108805 0.077836,0.101254 0.05894,0.185759 -0.017817,-0.01485 -0.047391,-0.0041 -0.033624,0.02535 -0.062316,0.100164 -0.1004136,0.141515 -0.1857181,0.253559 -0.2289192,0.126354 -0.4775446,0.290442 -0.7761111,0.552869 l 0.017088,0.0463 0.2022961,0.24474 0.117959,0.100873 0.1185113,0.02535 0.025355,-0.100872 0.4216795,0 0.1096918,-0.05071 0.1350479,0.01653 0.042443,0.08489 0.1433164,0.0083 0.0926,0.06725 0,0.143316 -0.03362,0.118511 -0.03362,0.0926 0.08434,0.152135 0.1096922,0.12678 0.05071,0.320807 0.0083,0.210564 -0.07607,0.177492 -0.0083,0.135048 c 0.2200109,-0.02025 0.4379593,0.02839 0.6493313,0.134496 0.1814079,0.09908 0.2900434,0.23449 0.4134115,0.337895 0.0548,0.174951 0.0086,0.234817 -0.1857595,0.261276 -0.09367,-0.04428 -0.18648,-0.05473 -0.2866319,0.01709 l -0.3037194,0.194027 0.05898,0.07607 0.017091,0.160404 0.025349,0.18576 0.0926,-0.09316 0.2364712,-0.02535 0.1433158,0 0.2618269,-0.404592 0.01653,-0.160404 0.1774909,-0.177491 0.0083,-0.202296 0.0926,-0.202296 0.2193832,-0.211116 0,-0.23592 -0.05071,-0.219935 -0.03362,-0.30372 0.1604041,-0.253008 0.2871832,-0.354431 0.1096913,-0.109692 0.04189,-0.143316 0.06725,-0.126779 0.017091,-0.18576 -0.160403,0 -0.07552,0.07607 -0.1521422,-0.04244 -0.09316,-0.151584 -0.07552,-0.152136 -0.1769398,-0.135047 -0.04244,-0.219384 -0.07552,-0.126779 -0.08489,-0.160404 -0.1096911,-0.202296 -0.025349,-0.12678 0.1185111,-0.01709 0.06725,0.143316 0.1350484,0.253559 0.101423,0.18576 0.1096922,0.202296 0.1179598,0.202296 0.1604041,0.160403 0.1433159,-0.135047 0.1604041,-0.04189 0.118511,-0.143316 0.1604038,-0.09315 0.0926,-0.160404 0.0083,-0.134497 -0.07552,-0.08489 -0.1014242,-0.126228 -0.0678,0.04189 -0.04189,0.06725 -0.1096922,-0.05071 -0.03362,-0.08434 -0.07607,-0.109692 -0.1179598,-0.109691 0,-0.219384 0.07552,0.143316 0.09315,0.143316 0.1604041,0.09315 0.1096919,-0.02535 0.06725,0.07552 0.4806588,-0.0083 -0.0083,0.0083 0.1521358,0.135048 0.1096912,0.152135 0.03362,0.07607 0.07607,0 0.02535,-0.08489 0.02536,0.126779 0.04189,0.227652 0.09315,0.219935 0.05072,0.185759 0.07552,0.17694 0.05898,0.07607 0.08489,-0.05071 0.02535,-0.08489 0.03362,-0.210564 0,-0.18576 0.04189,-0.05071 c -0.02756,-0.132023 -0.05564,-0.26637 -0.09263,-0.405143 0.113381,0.03348 0.214636,0.08967 0.30372,0.160404 0.02969,-0.0324 0.06725,-0.0678 0.06725,-0.0678 l 0.07607,-0.0926 0.03362,-0.02535 C 11.006887,4.1504863 10.201364,3.5002003 8.7422741,2.9434871 8.9828013,2.8527716 9.2504733,2.8393178 9.5520097,2.8927752 9.4529378,2.6808354 9.2439664,2.4918975 8.9192144,2.3525842 8.708382,2.2599787 8.4500389,2.1925976 8.1431036,2.1332005 c 0.6975554,0.020519 1.3051793,0.097866 1.8134982,0.2447396 1.0312152,0.3015753 1.7436252,1.0231892 1.9998092,1.8901172 -0.0014,-0.08803 -0.0066,-0.221084 -0.01323,-0.35388 -0.0015,-0.0027 -0.0029,-0.0055 -0.0044,-0.0083 -0.01227,-0.210188 -0.03252,-0.444822 -0.08323,-0.6917755 -2.39e-4,-2.822e-4 -3.39e-4,-7.902e-4 -5.65e-4,-0.0011 C 11.291525,2.4084707 10.545152,1.7426994 9.6699693,1.2810219 Z M 3.4610809,1.5274149 c -0.011018,0.00699 -0.022104,0.013884 -0.033073,0.020946 -0.031966,0.0204 -0.062946,0.041119 -0.094258,0.061736 -0.1134031,0.07594 -0.2238601,0.1561851 -0.3318315,0.2392274 l 0.019843,0.00661 0.1433162,0.1262283 0.1433158,0.034175 0.050712,-0.1940278 0.00827,-0.1185112 0.1692231,0.025356 c 0,0 -0.050732,0.084336 -0.025355,0.084336 0.025375,0 0.1262284,-0.1096919 0.1262284,-0.1096919 z m 1.863659,0.2188325 -0.033624,0.1096918 c 0.122288,0.095035 0.1686718,0.092604 0.1686718,0.092604 l 0.1433161,-0.033624 0.092604,-0.093155 -0.05898,-0.075517 z M 2.929158,1.9656311 c 0,0 -0.087993,0.051257 -0.1835546,0.092053 -0.043151,0.036972 -0.086868,0.073225 -0.1289843,0.1113455 -4.996e-4,0.015444 0,0.033073 0,0.033073 L 2.6083508,2.4297543 2.4225913,2.5818897 2.30408,2.7588298 c 0,0 -0.075516,-0.050589 -0.075516,-0.084336 0,-0.026146 -0.010925,-0.078462 -0.015985,-0.1041797 -0.011183,0.012142 -0.023087,0.023598 -0.034175,0.035829 -9.66e-5,1.064e-4 9.69e-5,4.459e-4 0,5.503e-4 0.00416,0.027352 0.00667,0.043709 0.010473,0.069453 0.064302,0.4383862 0.085271,0.6810619 0.233164,0.8251689 l 0.025356,-0.01709 0.1692231,-0.185759 c 0,0 0.2516077,-0.041869 0.3031683,-0.067248 0.05156,-0.025381 0.017935,-0.1186126 -0.033624,-0.2028486 -0.05156,-0.084506 0.025355,-0.1686718 0.025355,-0.1686718 L 3.1055472,2.741738 3.274219,2.775362 3.291308,2.9776579 c 0,0 0.1595548,0.1521585 0.2111154,0.1267796 0.05156,-0.02538 0.075516,-0.1096919 0.075516,-0.1096919 l -0.084336,-0.2193836 0.050712,-0.2193837 -0.2276519,0.033624 0,-0.3709678 -0.067799,0.067248 -0.1769403,0.00827 -0.025355,-0.1857595 z m 3.1468882,0.2618272 -0.0678,0.05898 c -0.018898,0.082346 -0.041892,0.1686718 -0.041892,0.1686718 l 0.1262284,0.05898 0.017088,0.076068 -0.067248,0.067248 -0.05898,0.1014236 0.041892,0.042444 0.1521361,-0.025907 0.135047,-0.05898 L 6.2364503,2.615514 6.2110955,2.4380227 6.1179401,2.3371503 Z m -0.2111155,0.3208073 -0.076068,0.1262283 0.1014236,0.042444 0.041892,-0.076068 z m 2.9528601,0.4977475 c 0.03698,-0.011611 0.1008724,0.041892 0.1008724,0.041892 l -0.06725,0.05898 0.025349,0.084887 0.07607,0.2022962 0.07552,0.126779 0.101423,0.168672 -0.1096902,0.05071 -0.1433161,-0.0926 -0.05898,-0.177491 c 0,0 -0.08045,-0.108139 -0.118511,-0.126228 -0.03698,-0.01782 -0.06725,-0.07607 -0.06725,-0.07607 l 0.03362,-0.143316 c 0,0 0.1140731,-0.098082 0.1521361,-0.1096919 z m -2.1348562,0.3290752 -0.1008727,0.194028 0.075516,0.07607 0.0678,-0.05953 0.0083,-0.08434 z m -0.3373442,0.202296 0,0.05071 0.042444,-0.0083 z m 0.5820834,0.12678 -0.05071,0.01709 0.08434,0.143316 0.07607,-0.05898 z m 3.8888242,2.109501 -0.08434,0.109691 0.04189,0.160404 0.09316,-0.101423 -0.01709,-0.12678 z m -1.8978348,1.636007 0,0.11796 c -0.0054,0.01701 -0.1008724,0.101423 -0.1008724,0.101423 l -0.1350478,0.05898 -0.09315,0.07607 0.0678,0.09315 0.04189,0.04189 -0.1096919,0.0926 0,0.152136 0.04244,0.160403 0.0926,0.02536 0.1096919,-0.168671 0.0678,-0.109693 -0.017091,-0.135047 0.1008721,-0.160404 0.03418,-0.07552 0,-0.152136 -0.02536,-0.118511 z"
       id="path41"
       inkscape:connector-curvature="0"
       sodipodi:nodetypes="scccccccccccccccccccccccccscccccccccccccscccccccccccsccsccccccccccccccccccscccccccccccccscccccccccccccccccccccccscsccccccccccsccccccccccsccccccccccccccccccccccccccccccccccccccccccccccccccccccccccccccccccccccccccccccccccccccccccccccccccccccccccccccccccccccccccccccccccccccccccccccccccccccccccccccccccccccccccccccccccccccccccccccccccccccccccccccccccccccsccccccccccccccccscccccccscccccsccccccccccccccccccccccccccccccccccccccccccccccccccccccccccccccccccccccccccccccccccc" />
    <path
       inkscape:connector-curvature="0"
       style="fill:#ec7f43;fill-opacity:1;fill-rule:nonzero;stroke:none"
       d="m 11.37574,4.4571133 c 0.01484,0.02646 0.02646,0.05265 0.03995,0.07803 -0.0011,0.0054 0.0011,0.01161 0,0.01485 -0.0033,-0.0043 -0.0083,-0.01053 -0.0083,-0.01485 -0.01161,-0.02646 -0.0189,-0.05157 -0.03158,-0.07803 m 0,0"
       id="path45" />
    <path
       style="opacity:0.3;fill:#000000;fill-opacity:1;fill-rule:nonzero;stroke:none"
       d="m 8.1397959,2.4143203 0.00164,0.00165 c 0.3069353,0.059127 0.5652787,0.126778 0.7761111,0.2193836 0.324752,0.1393131 0.5337229,0.3282514 0.6327953,0.540191 -0.3015355,-0.053723 -0.569208,-0.040269 -0.809735,0.050717 1.7231017,0.6571478 2.5415737,1.4428658 2.4457417,2.3459718 -0.125529,-0.18872 -0.294913,-0.31742 -0.506015,-0.379787 0.263742,0.990312 0.286896,1.801823 0.07607,2.445742 -0.14659,-0.430359 -0.287177,-0.677127 -0.405145,-0.767843 0.16548,1.327796 -0.05677,2.305534 -0.6746883,2.944592 0.1190487,-0.390131 0.1615031,-0.709433 0.1350479,-0.96187 C 9.0851786,9.9035867 8.258434,10.44734 7.3311497,10.481357 6.9661751,10.477057 6.6179637,10.423007 6.2932114,10.320954 5.8153971,10.167061 5.386688,9.9024967 5.0028163,9.5277547 c 0.5990229,0.04752 1.1453354,-0.05175 1.627739,-0.287183 l 0.7931988,-0.497747 c 0.100152,-0.07182 0.1926887,-0.06137 0.286632,-0.01709 0.1940949,-0.02646 0.2402896,-0.08688 0.1857598,-0.261827 C 7.7727911,8.3605033 7.6647062,8.2256493 7.4832985,8.1265643 7.0878191,7.9283943 6.6794757,7.9170643 6.2513327,8.2197193 5.8410056,8.4432693 5.4454111,8.4311313 5.0618098,8.1938113 4.8096753,8.0272293 4.5707285,7.7996403 4.3364104,7.5191243 l -0.084887,-0.12678 0,-0.0083 c 0.011608,-0.277273 0.1183238,-0.422104 0.3461635,-0.455852 0.2583434,0.02214 0.5537621,0.0758 0.8858027,0.168672 0.05588,-0.308055 -0.017472,-0.630327 -0.2199349,-0.961871 l 0.8549349,-0.634449 c 0.00195,-0.0027 0.00155,-0.0051 0.00331,-0.0077 0.060182,-0.03834 0.1256769,-0.07899 0.1537891,-0.21332 0.00621,-0.01053 0.015189,-0.0174 0.029766,-0.01929 0.055877,-0.11069 -0.048929,-0.211719 -0.068905,-0.20119 -0.1958922,0.0032 -0.339199,-0.006 -0.5986199,-0.03638 -0.082277,-0.02225 -0.1872835,-0.08948 -0.3158459,-0.208359 l -0.3588413,-0.272852 -0.106936,-0.09701 -0.090399,-0.115204 0.00827,-0.04189 C 4.8132189,4.0206033 4.9449997,3.8074133 5.0524406,3.6038433 5.1695995,3.4172823 5.3953688,3.2113138 5.7276793,2.9964044 5.1119192,3.0701104 4.5525771,3.3391633 4.056946,3.7978713 3.6466178,3.6534273 3.1577574,3.6842163 2.5978776,3.8910263 2.2677267,3.7409143 2.2725593,3.5249613 2.1756467,2.8867119 1.2109926,3.9502363 0.60934825,5.3480613 0.56830295,6.8874323 A 6.2088889,6.2088889 0 0 0 6.7733332,12.98222 6.2088889,6.2088889 0 0 0 12.976158,6.8973543 c -0.03177,-1.270477 -0.43995,-2.449195 -1.124479,-3.41974 0.08665,0.41335 0.09791,0.839644 0.101424,1.071563 C 11.696918,3.6822493 10.985061,2.9606352 9.9538453,2.6590599 9.4455264,2.5119171 8.8376212,2.4345692 8.1397959,2.4143203 Z"
       id="path4294"
       inkscape:connector-curvature="0" />
    <path
       id="path43"
       style="fill:#ec8840;fill-opacity:1;fill-rule:nonzero;stroke:none"
       d="m 8.1417184,2.133876 c 0.3069353,0.059127 0.565279,0.1268938 0.7761114,0.2194994 0.3247517,0.1393131 0.5336944,0.3280341 0.6327665,0.5399737 -0.3015358,-0.053727 -0.569328,-0.040228 -0.809855,0.050758 1.7231017,0.6571486 2.5415957,1.4425396 2.4457627,2.3456466 -0.125528,-0.188721 -0.295058,-0.317235 -0.50616,-0.379602 0.263743,0.990312 0.286688,1.802162 0.07586,2.446081 -0.146587,-0.430359 -0.286962,-0.677127 -0.40493,-0.767842 0.16548,1.327795 -0.05696,2.305418 -0.6748799,2.944477 C 9.7954427,9.1427363 9.8378249,8.8233413 9.81137,8.5709033 9.0849299,9.6214223 8.2583377,10.164906 7.3310537,10.198924 6.9660789,10.194606 6.6181113,10.140607 6.2933593,10.038552 5.8155447,9.8846593 5.3865914,9.6200723 5.0027201,9.2453313 5.601743,9.2928483 6.1481252,9.1937653 6.6305288,8.9583343 l 0.7931181,-0.497855 c 0.1001522,-0.07182 0.1930157,-0.06129 0.2869587,-0.01701 0.1940953,-0.02646 0.2402572,-0.08667 0.1857268,-0.261617 C 7.7729646,8.0784473 7.664444,7.9434533 7.4830363,7.8443683 7.0875572,7.6461983 6.6793902,7.6345893 6.2512467,7.9372443 5.8409201,8.1607933 5.445441,8.1491843 5.0618397,7.9118663 4.8097047,7.7452843 4.5705275,7.5174153 4.3362094,7.2368993 l -0.084495,-0.126624 0,-0.0084 c 0.011608,-0.277275 0.1179695,-0.421989 0.3458086,-0.455737 0.258344,0.02214 0.5536709,0.07587 0.8857116,0.168742 0.05588,-0.308056 -0.017007,-0.63042 -0.2194707,-0.961964 l 0.8547154,-0.63438 C 6.4109353,4.8131583 4.7010502,4.7489743 4.8588359,4.1738973 l 0.084495,0.07587 -0.084495,-0.08451 -0.092863,-0.118254 0.00837,-0.04212 C 4.813485,3.7381383 4.9452207,3.5251183 5.0526616,3.3215483 5.1698205,3.1349873 5.3952303,2.9289872 5.727541,2.7140777 5.1117806,2.7877839 4.5527106,3.0569609 4.0570792,3.5156683 3.6467527,3.3712253 3.1576003,3.4017343 2.5977205,3.6085443 2.2675696,3.4584323 2.2726986,3.2427125 2.175786,2.6044634 1.1761547,3.7065503 0.56444425,5.1669093 0.56444425,6.7725213 c 0,3.4296437 2.77969265,6.2096987 6.20888895,6.2096987 3.4291968,0 6.2088888,-2.780055 6.2088888,-6.2096987 0,-1.331035 -0.417614,-2.566496 -1.130557,-3.5773266 0.08665,0.4133496 0.09772,0.8396586 0.101232,1.0715776 C 11.696712,3.3998443 10.98485,2.6784395 9.9536342,2.3768642 9.4453153,2.2297214 8.8376539,2.1525051 8.139829,2.1322562 Z M 4.8545167,4.1606673 c -0.1433443,0.448179 -0.016739,0.83534 0.1973346,1.206572 L 5.8554977,4.9684683 C 5.7488668,4.8534543 5.6381866,4.7405993 5.6381866,4.7405993 5.5558511,4.7184593 5.4505701,4.6509633 5.3218031,4.5319003 L 4.9633072,4.2592123 m 0.8919204,0.709256 0.2456561,0.259458 M 5.6346772,4.7397893 6.099804,5.2271163 c 0.065328,-0.0432 0.1444241,-0.07911 0.1760084,-0.230029 0.00621,-0.01053 0.014848,-0.01701 0.029425,-0.0189 0.05588,-0.110695 -0.048591,-0.21194 -0.068567,-0.20141 -0.1970648,0.0032 -0.3395995,-0.0062 -0.6019925,-0.03699"
       inkscape:connector-curvature="0" />
  </g>
</svg>
