<?xml version="1.0" encoding="UTF-8" standalone="no"?>
<!-- Created with Inkscape (http://www.inkscape.org/) -->

<svg
   xmlns:dc="http://purl.org/dc/elements/1.1/"
   xmlns:cc="http://creativecommons.org/ns#"
   xmlns:rdf="http://www.w3.org/1999/02/22-rdf-syntax-ns#"
   xmlns:svg="http://www.w3.org/2000/svg"
   xmlns="http://www.w3.org/2000/svg"
   xmlns:xlink="http://www.w3.org/1999/xlink"
   xmlns:sodipodi="http://sodipodi.sourceforge.net/DTD/sodipodi-0.dtd"
   xmlns:inkscape="http://www.inkscape.org/namespaces/inkscape"
   width="192"
   height="192"
   viewBox="0 0 192 192"
   id="svg2"
   version="1.1"
   inkscape:version="0.91 r13725"
   sodipodi:docname="google_opinionrewards.svg"
   inkscape:export-filename="C:\createme\Material Design Icons\PNG\google_opinionrewards.png"
   inkscape:export-xdpi="90"
   inkscape:export-ydpi="90">
  <sodipodi:namedview
     id="base"
     pagecolor="#ffffff"
     bordercolor="#666666"
     borderopacity="1.0"
     inkscape:pageopacity="0.0"
     inkscape:pageshadow="2"
     inkscape:zoom="1"
     inkscape:cx="587.48552"
     inkscape:cy="288.9967"
     inkscape:document-units="px"
     inkscape:current-layer="layer2"
     showgrid="false"
     units="px"
     showguides="false"
     inkscape:window-width="1920"
     inkscape:window-height="1017"
     inkscape:window-x="-8"
     inkscape:window-y="-8"
     inkscape:window-maximized="1">
    <sodipodi:guide
       inkscape:color="rgb(0,0,255)"
       inkscape:label=""
       id="guide3354"
       orientation="0,1"
       position="0,184" />
    <sodipodi:guide
       inkscape:color="rgb(0,0,255)"
       inkscape:label=""
       id="guide3356"
       orientation="1,0"
       position="8,0" />
    <sodipodi:guide
       inkscape:color="rgb(0,0,255)"
       inkscape:label=""
       id="guide3358"
       orientation="0,1"
       position="0,8" />
    <sodipodi:guide
       inkscape:color="rgb(0,0,255)"
       inkscape:label=""
       id="guide3360"
       orientation="1,0"
       position="184,0" />
    <sodipodi:guide
       inkscape:color="rgb(0,0,255)"
       inkscape:label=""
       id="guide3362"
       orientation="0,1"
       position="0,20" />
    <sodipodi:guide
       inkscape:color="rgb(0,0,255)"
       inkscape:label=""
       id="guide3364"
       orientation="1,0"
       position="172,0" />
    <sodipodi:guide
       inkscape:color="rgb(0,0,255)"
       inkscape:label=""
       id="guide3366"
       orientation="0,1"
       position="96,172" />
    <sodipodi:guide
       inkscape:color="rgb(0,0,255)"
       inkscape:label=""
       id="guide3368"
       orientation="1,0"
       position="20,0" />
    <sodipodi:guide
       inkscape:color="rgb(0,0,255)"
       inkscape:label=""
       id="guide3370"
       orientation="0,1"
       position="0,32" />
    <sodipodi:guide
       inkscape:color="rgb(0,0,255)"
       inkscape:label=""
       id="guide3372"
       orientation="1,0"
       position="160,0" />
    <sodipodi:guide
       inkscape:color="rgb(0,0,255)"
       inkscape:label=""
       id="guide3374"
       orientation="0,1"
       position="0,160" />
    <sodipodi:guide
       inkscape:color="rgb(0,0,255)"
       inkscape:label=""
       id="guide3376"
       orientation="1,0"
       position="32,0" />
    <inkscape:grid
       id="grid3378"
       type="xygrid" />
    <sodipodi:guide
       inkscape:color="rgb(255,0,0)"
       inkscape:label=""
       id="guide5849"
       orientation="-0.70710678,0.70710678"
       position="0,0" />
    <sodipodi:guide
       inkscape:color="rgb(255,0,0)"
       inkscape:label=""
       id="guide5851"
       orientation="1,0"
       position="124,0" />
    <sodipodi:guide
       inkscape:color="rgb(255,0,0)"
       inkscape:label=""
       id="guide5853"
       orientation="0.70710678,0.70710678"
       position="0,192" />
    <sodipodi:guide
       inkscape:color="rgb(255,0,0)"
       inkscape:label=""
       id="guide5855"
       orientation="1,0"
       position="96,0" />
    <sodipodi:guide
       inkscape:color="rgb(255,0,0)"
       inkscape:label=""
       id="guide5859"
       orientation="0,1"
       position="0,96" />
    <sodipodi:guide
       inkscape:color="rgb(255,0,0)"
       inkscape:label=""
       id="guide5861"
       orientation="0,1"
       position="0,124" />
    <sodipodi:guide
       inkscape:color="rgb(255,0,0)"
       inkscape:label=""
       id="guide5863"
       orientation="0,1"
       position="0,68" />
    <sodipodi:guide
       inkscape:color="rgb(255,0,0)"
       inkscape:label=""
       id="guide5865"
       orientation="1,0"
       position="68,0" />
    <sodipodi:guide
       id="guide5869"
       orientation="-192,0"
       position="192,0" />
    <sodipodi:guide
       id="guide5871"
       orientation="0,-192"
       position="192,192" />
  </sodipodi:namedview>
  <defs
     id="defs4">
    <linearGradient
       inkscape:collect="always"
       id="linearGradient7066">
      <stop
         style="stop-color:#ffffff;stop-opacity:1;"
         offset="0"
         id="stop7068" />
      <stop
         style="stop-color:#ffffff;stop-opacity:0;"
         offset="1"
         id="stop7070" />
    </linearGradient>
    <linearGradient
       inkscape:collect="always"
       id="linearGradient7043">
      <stop
         style="stop-color:#263238;stop-opacity:1;"
         offset="0"
         id="stop7045" />
      <stop
         style="stop-color:#263238;stop-opacity:0;"
         offset="1"
         id="stop7047" />
    </linearGradient>
    <clipPath
       id="clipPath10430"
       clipPathUnits="userSpaceOnUse">
      <path
         id="path10432"
         d="m 1241.028,39.3409 224.537,0 0,178.031 -224.537,0 0,-178.031 z"
         inkscape:connector-curvature="0" />
    </clipPath>
    <clipPath
       id="clipPath10438"
       clipPathUnits="userSpaceOnUse">
      <path
         id="path10440"
         d="m 1260.156,213.3477 0,-170.2268 191.3337,0 0,170.2268"
         inkscape:connector-curvature="0" />
    </clipPath>
    <filter
       id="filter5248"
       inkscape:label="Drop Shadow"
       style="color-interpolation-filters:sRGB;">
      <feFlood
         id="feFlood5250"
         result="flood"
         flood-color="rgb(0,0,0)"
         flood-opacity="0.2" />
      <feComposite
         id="feComposite5252"
         result="composite1"
         operator="in"
         in2="SourceGraphic"
         in="flood" />
      <feGaussianBlur
         id="feGaussianBlur5254"
         result="blur"
         stdDeviation="2"
         in="composite1" />
      <feOffset
         id="feOffset5256"
         result="offset"
         dy="4"
         dx="4.57967e-015" />
      <feComposite
         id="feComposite5258"
         result="fbSourceGraphic"
         operator="over"
         in2="offset"
         in="SourceGraphic" />
      <feColorMatrix
         result="fbSourceGraphicAlpha"
         in="fbSourceGraphic"
         values="0 0 0 -1 0 0 0 0 -1 0 0 0 0 -1 0 0 0 0 1 0"
         id="feColorMatrix4191" />
      <feFlood
         id="feFlood4193"
         flood-opacity="0.2"
         flood-color="rgb(0,0,0)"
         result="flood"
         in="fbSourceGraphic" />
      <feComposite
         id="feComposite4195"
         in2="fbSourceGraphic"
         in="flood"
         operator="in"
         result="composite1" />
      <feGaussianBlur
         id="feGaussianBlur4197"
         in="composite1"
         stdDeviation="2"
         result="blur" />
      <feOffset
         id="feOffset4199"
         dx="0"
         dy="0"
         result="offset" />
      <feComposite
         id="feComposite4201"
         in2="offset"
         in="fbSourceGraphic"
         operator="over"
         result="composite2" />
    </filter>
    <linearGradient
       inkscape:collect="always"
       xlink:href="#linearGradient7043"
       id="linearGradient7049"
       x1="43"
       y1="43"
       x2="142"
       y2="142"
       gradientUnits="userSpaceOnUse" />
    <filter
       style="color-interpolation-filters:sRGB;"
       inkscape:label="Drop Shadow"
       id="filter7051"
       height="1.3">
      <feFlood
         flood-opacity="0.20000000000000001"
         flood-color="rgb(38,50,56)"
         result="flood"
         id="feFlood7053" />
      <feComposite
         in="flood"
         in2="SourceGraphic"
         operator="in"
         result="composite1"
         id="feComposite7055" />
      <feGaussianBlur
         in="composite1"
         stdDeviation="4"
         result="blur"
         id="feGaussianBlur7057" />
      <feOffset
         dx="0"
         dy="4"
         result="offset"
         id="feOffset7059" />
      <feComposite
         in="SourceGraphic"
         in2="offset"
         operator="over"
         result="composite2"
         id="feComposite7061" />
    </filter>
    <radialGradient
       inkscape:collect="always"
       xlink:href="#linearGradient7066"
       id="radialGradient7072"
       cx="20"
       cy="20"
       fx="20"
       fy="20"
       r="76"
       gradientUnits="userSpaceOnUse"
       gradientTransform="matrix(0,2,-2,0,60,-20)" />
  </defs>
  <metadata
     id="metadata7">
    <rdf:RDF>
      <cc:Work
         rdf:about="">
        <dc:format>image/svg+xml</dc:format>
        <dc:type
           rdf:resource="http://purl.org/dc/dcmitype/StillImage" />
        <dc:title></dc:title>
      </cc:Work>
    </rdf:RDF>
  </metadata>
  <g
     inkscape:label="background"
     id="layer2"
     inkscape:groupmode="layer">
    <path
       sodipodi:nodetypes="sscccssss"
       id="path5478"
       d="M 160,20 32,20 c -6,0 -12,6 -12,12 l 0,140 30.4,-30.4 109.6,0 c 6,0 12,-6.00714 12,-12 L 172,32 c 0,-6 -6,-12 -12,-12 z"
       inkscape:connector-curvature="0"
       style="fill:#4caf50;fill-opacity:1;filter:url(#filter5248)" />
  </g>
  <g
     transform="translate(0,-860.36216)"
     id="layer1"
     inkscape:groupmode="layer"
     inkscape:label="objects">
    <path
       style="fill:url(#linearGradient7049);opacity:0.2;fill-opacity:1"
       d="M 88.96875 43.369141 L 88.96875 81.441406 L 88.517578 81.441406 L 88.517578 80.917969 L 87.992188 80.917969 L 87.992188 80.392578 L 87.466797 80.392578 L 87.466797 79.865234 L 86.9375 79.865234 L 86.9375 79.337891 L 86.408203 79.337891 L 86.408203 78.808594 L 85.876953 78.808594 L 85.876953 78.275391 L 85.341797 78.275391 L 85.341797 77.742188 L 84.808594 77.742188 L 84.808594 77.207031 L 84.271484 77.207031 L 84.271484 76.671875 L 83.732422 76.671875 L 83.732422 76.132812 L 83.193359 76.132812 L 83.193359 75.59375 L 82.652344 75.59375 L 82.652344 75.052734 L 82.109375 75.052734 L 82.109375 74.509766 L 81.564453 74.509766 L 81.564453 73.964844 L 81.017578 73.964844 L 81.017578 73.417969 L 80.470703 73.417969 L 80.470703 72.871094 L 79.919922 72.871094 L 79.919922 72.320312 L 79.369141 72.320312 L 79.369141 71.769531 L 78.816406 71.769531 L 78.816406 71.216797 L 78.261719 71.216797 L 78.261719 70.662109 L 77.707031 70.662109 L 77.707031 70.107422 L 77.148438 70.107422 L 77.148438 69.548828 L 76.589844 69.548828 L 76.589844 68.990234 L 76.029297 68.990234 L 76.029297 68.427734 L 75.466797 68.427734 L 75.466797 67.867188 L 74.902344 67.867188 L 74.902344 67.302734 L 74.335938 67.302734 L 74.335938 66.736328 L 73.769531 66.736328 L 73.769531 66.169922 L 58.568359 66.169922 L 58.568359 119.36914 L 59.136719 119.36914 L 59.136719 119.93555 L 59.701172 119.93555 L 59.701172 120.50195 L 60.265625 120.50195 L 60.265625 121.06641 L 60.828125 121.06641 L 60.828125 121.62891 L 61.388672 121.62891 L 61.388672 122.18945 L 61.949219 122.18945 L 61.949219 122.74805 L 62.505859 122.74805 L 62.505859 123.30664 L 63.0625 123.30664 L 63.0625 123.86328 L 63.617188 123.86328 L 63.617188 124.41602 L 64.169922 124.41602 L 64.169922 124.96875 L 64.720703 124.96875 L 64.720703 125.52148 L 65.269531 125.52148 L 65.269531 126.07031 L 65.818359 126.07031 L 65.818359 126.61719 L 66.365234 126.61719 L 66.365234 127.16406 L 66.908203 127.16406 L 66.908203 127.70898 L 67.451172 127.70898 L 67.451172 128.25195 L 67.994141 128.25195 L 67.994141 128.79297 L 68.533203 128.79297 L 68.533203 129.33398 L 69.072266 129.33398 L 69.072266 129.87109 L 69.607422 129.87109 L 69.607422 130.4082 L 70.142578 130.4082 L 70.142578 130.94336 L 70.675781 130.94336 L 70.675781 131.47656 L 71.207031 131.47656 L 71.207031 132.00781 L 71.738281 132.00781 L 71.738281 132.53711 L 72.265625 132.53711 L 72.265625 133.06641 L 72.792969 133.06641 L 72.792969 133.59375 L 73.318359 133.59375 L 73.318359 134.11719 L 73.841797 134.11719 L 73.841797 134.64062 L 74.363281 134.64062 L 74.363281 135.16406 L 74.884766 135.16406 L 74.884766 135.68359 L 75.402344 135.68359 L 75.402344 136.20312 L 75.919922 136.20312 L 75.919922 136.71875 L 76.435547 136.71875 L 76.435547 137.23438 L 76.949219 137.23438 L 76.949219 137.74805 L 77.460938 137.74805 L 77.460938 138.26172 L 77.970703 138.26172 L 77.970703 138.77148 L 78.480469 138.77148 L 78.480469 139.28125 L 78.988281 139.28125 L 78.988281 139.78711 L 79.494141 139.78711 L 79.494141 140.29297 L 79.998047 140.29297 L 79.998047 140.79688 L 80.5 140.79688 L 80.5 141.30078 L 81 141.30078 L 81 141.59961 L 160 141.59961 C 166 141.59961 172 135.59247 172 129.59961 L 172 111.29883 L 171.7793 111.29883 L 171.7793 110.97852 L 171.45703 110.97852 L 171.45703 110.65625 L 171.13281 110.65625 L 171.13281 110.33203 L 170.80664 110.33203 L 170.80664 110.00781 L 170.48047 110.00781 L 170.48047 109.67969 L 170.15234 109.67969 L 170.15234 109.35156 L 169.82031 109.35156 L 169.82031 109.02148 L 169.48828 109.02148 L 169.48828 108.68945 L 169.15625 108.68945 L 169.15625 108.35547 L 168.82031 108.35547 L 168.82031 108.01953 L 168.48438 108.01953 L 168.48438 107.68359 L 168.14453 107.68359 L 168.14453 107.3457 L 167.80469 107.3457 L 167.80469 107.00391 L 167.46289 107.00391 L 167.46289 106.66406 L 167.11914 106.66406 L 167.11914 106.32031 L 166.77539 106.32031 L 166.77539 105.97461 L 166.42773 105.97461 L 166.42773 105.62891 L 166.08008 105.62891 L 166.08008 105.2793 L 165.73047 105.2793 L 165.73047 104.92969 L 165.37891 104.92969 L 165.37891 104.57812 L 165.02539 104.57812 L 165.02539 104.22656 L 164.67188 104.22656 L 164.67188 103.87109 L 164.31445 103.87109 L 164.31445 103.51367 L 163.95703 103.51367 L 163.95703 103.15625 L 163.59766 103.15625 L 163.59766 102.79688 L 163.23633 102.79688 L 163.23633 102.43555 L 162.87305 102.43555 L 162.87305 102.07227 L 162.50781 102.07227 L 162.50781 101.70898 L 162.14258 101.70898 L 162.14258 101.3418 L 161.77539 101.3418 L 161.77539 100.97461 L 161.40625 100.97461 L 161.40625 100.60547 L 161.03516 100.60547 L 161.03516 100.23438 L 160.66211 100.23438 L 160.66211 99.861328 L 160.28711 99.861328 L 160.28711 99.488281 L 159.91211 99.488281 L 159.91211 99.111328 L 159.53516 99.111328 L 159.53516 98.734375 L 159.15625 98.734375 L 159.15625 98.355469 L 158.77539 98.355469 L 158.77539 97.974609 L 158.39258 97.974609 L 158.39258 97.591797 L 158.00781 97.591797 L 158.00781 97.208984 L 157.62305 97.208984 L 157.62305 96.822266 L 157.23633 96.822266 L 157.23633 96.435547 L 156.84766 96.435547 L 156.84766 96.046875 L 156.45703 96.046875 L 156.45703 95.65625 L 156.06445 95.65625 L 156.06445 95.265625 L 155.67188 95.265625 L 155.67188 94.871094 L 155.27539 94.871094 L 155.27539 94.476562 L 154.87891 94.476562 L 154.87891 94.078125 L 154.48047 94.078125 L 154.48047 93.679688 L 154.08008 93.679688 L 154.08008 93.279297 L 153.67773 93.279297 L 153.67773 92.878906 L 153.27539 92.878906 L 153.27539 92.474609 L 152.86914 92.474609 L 152.86914 92.070312 L 152.46289 92.070312 L 152.46289 91.664062 L 152.05469 91.664062 L 152.05469 91.255859 L 151.64453 91.255859 L 151.64453 90.845703 L 151.23438 90.845703 L 151.23438 90.433594 L 150.82031 90.433594 L 150.82031 90.019531 L 150.40625 90.019531 L 150.40625 89.605469 L 149.98828 89.605469 L 149.98828 89.189453 L 149.57031 89.189453 L 149.57031 88.771484 L 149.15234 88.771484 L 149.15234 88.351562 L 148.73047 88.351562 L 148.73047 87.929688 L 148.30664 87.929688 L 148.30664 87.507812 L 147.88281 87.507812 L 147.88281 87.082031 L 147.45703 87.082031 L 147.45703 86.65625 L 147.0293 86.65625 L 147.0293 86.228516 L 146.59961 86.228516 L 146.59961 85.798828 L 146.16797 85.798828 L 146.16797 85.369141 L 145.73633 85.369141 L 145.73633 84.935547 L 145.30273 84.935547 L 145.30273 84.501953 L 144.86523 84.501953 L 144.86523 84.066406 L 144.42773 84.066406 L 144.42773 83.628906 L 143.99023 83.628906 L 143.99023 83.189453 L 143.54883 83.189453 L 143.54883 82.748047 L 143.10547 82.748047 L 143.10547 82.306641 L 142.66211 82.306641 L 142.66211 81.861328 L 142.2168 81.861328 L 142.2168 81.416016 L 141.76953 81.416016 L 141.76953 80.96875 L 141.32031 80.96875 L 141.32031 80.519531 L 140.86914 80.519531 L 140.86914 80.070312 L 140.41797 80.070312 L 140.41797 79.617188 L 139.96484 79.617188 L 139.96484 79.164062 L 139.50977 79.164062 L 139.50977 78.708984 L 139.05273 78.708984 L 139.05273 78.251953 L 138.59375 78.251953 L 138.59375 77.792969 L 138.13281 77.792969 L 138.13281 77.332031 L 137.67188 77.332031 L 137.67188 76.871094 L 137.20703 76.871094 L 137.20703 76.408203 L 136.74219 76.408203 L 136.74219 75.943359 L 136.27539 75.943359 L 136.27539 75.476562 L 135.80664 75.476562 L 135.80664 75.007812 L 135.33789 75.007812 L 135.33789 74.537109 L 134.86523 74.537109 L 134.86523 74.066406 L 134.39258 74.066406 L 134.39258 73.591797 L 133.91797 73.591797 L 133.91797 73.117188 L 133.44141 73.117188 L 133.44141 72.640625 L 132.96289 72.640625 L 132.96289 72.164062 L 132.48438 72.164062 L 132.48438 71.683594 L 132.00195 71.683594 L 132.00195 71.203125 L 131.51953 71.203125 L 131.51953 70.71875 L 131.03516 70.71875 L 131.03516 70.234375 L 130.54883 70.234375 L 130.54883 69.748047 L 130.06055 69.748047 L 130.06055 69.261719 L 129.57227 69.261719 L 129.57227 68.771484 L 129.08008 68.771484 L 129.08008 68.28125 L 128.58789 68.28125 L 128.58789 67.787109 L 128.09375 67.787109 L 128.09375 67.292969 L 127.59766 67.292969 L 127.59766 66.796875 L 127.09961 66.796875 L 127.09961 66.300781 L 126.60156 66.300781 L 126.60156 65.800781 L 126.09961 65.800781 L 126.09961 65.300781 L 125.59766 65.300781 L 125.59766 64.796875 L 125.09375 64.796875 L 125.09375 64.292969 L 124.58789 64.292969 L 124.58789 63.787109 L 124.08008 63.787109 L 124.08008 63.28125 L 123.57227 63.28125 L 123.57227 62.771484 L 123.06055 62.771484 L 123.06055 62.261719 L 122.54883 62.261719 L 122.54883 61.748047 L 122.03516 61.748047 L 122.03516 61.234375 L 121.51953 61.234375 L 121.51953 60.71875 L 121.00195 60.71875 L 121.00195 60.203125 L 120.48438 60.203125 L 120.48438 59.683594 L 119.96289 59.683594 L 119.96289 59.164062 L 119.44141 59.164062 L 119.44141 58.640625 L 118.91797 58.640625 L 118.91797 58.117188 L 118.39258 58.117188 L 118.39258 57.59375 L 117.86523 57.59375 L 117.86523 57.066406 L 117.33789 57.066406 L 117.33789 56.537109 L 116.80859 56.537109 L 116.80859 56.007812 L 116.27539 56.007812 L 116.27539 55.476562 L 115.74219 55.476562 L 115.74219 54.943359 L 115.20703 54.943359 L 115.20703 54.408203 L 114.67188 54.408203 L 114.67188 53.871094 L 114.13281 53.871094 L 114.13281 53.333984 L 113.59375 53.333984 L 113.59375 52.792969 L 113.05273 52.792969 L 113.05273 52.251953 L 112.50977 52.251953 L 112.50977 51.708984 L 111.96484 51.708984 L 111.96484 51.164062 L 111.41797 51.164062 L 111.41797 50.617188 L 110.87109 50.617188 L 110.87109 50.070312 L 110.32031 50.070312 L 110.32031 49.521484 L 109.76953 49.521484 L 109.76953 48.96875 L 109.2168 48.96875 L 109.2168 48.416016 L 108.66211 48.416016 L 108.66211 47.863281 L 108.10742 47.863281 L 108.10742 47.306641 L 107.54883 47.306641 L 107.54883 46.748047 L 106.99023 46.748047 L 106.99023 46.189453 L 106.42773 46.189453 L 106.42773 45.628906 L 105.86719 45.628906 L 105.86719 45.066406 L 105.30273 45.066406 L 105.30273 44.501953 L 104.73633 44.501953 L 104.73633 43.935547 L 104.16992 43.935547 L 104.16992 43.369141 L 88.96875 43.369141 z "
       id="path5582"
       transform="translate(0,860.36216)" />
    <path
       sodipodi:nodetypes="ccccccccccccccc"
       id="path5492"
       d="M 73.200001,118.8 58,118.8 l 0,-53.200002 15.200001,0 z m 30.399999,0 -15.199996,0 0,-76 15.199996,0 z m 30.4,0 -15.20001,0 0,-30.400007 15.20001,0 z"
       inkscape:connector-curvature="0"
       style="fill:#f5f5f5;filter:url(#filter7051)"
       transform="translate(0,860.36216)" />
    <g
       style=""
       id="g5526"
       transform="translate(0,860.36216)">
      <path
         style="fill:#263238;opacity:0.2"
         d="M 58 118.80078 L 58 119.80078 L 73.199219 119.80078 L 73.199219 118.80078 L 58 118.80078 z M 88.400391 118.80078 L 88.400391 119.80078 L 103.59961 119.80078 L 103.59961 118.80078 L 88.400391 118.80078 z M 118.80078 118.80078 L 118.80078 119.80078 L 134 119.80078 L 134 118.80078 L 118.80078 118.80078 z "
         id="path5518" />
      <path
         style="fill:#ffffff;fill-opacity:1;opacity:0.2"
         d="M 88.400391 42.800781 L 88.400391 43.800781 L 103.59961 43.800781 L 103.59961 42.800781 L 88.400391 42.800781 z M 58 65.599609 L 58 66.599609 L 73.199219 66.599609 L 73.199219 65.599609 L 58 65.599609 z M 118.80078 88.400391 L 118.80078 89.400391 L 134 89.400391 L 134 88.400391 L 118.80078 88.400391 z "
         id="path5521" />
    </g>
  </g>
  <g
     inkscape:label="finish"
     id="layer3"
     inkscape:groupmode="layer"
     sodipodi:insensitive="true">
    <path
       inkscape:connector-curvature="0"
       id="path4180"
       d="m 32,20 c -6,0 -12,6 -12,12 l 0,1 c 0,-6 6,-12 12,-12 l 128,0 c 6,0 12,6 12,12 l 0,-1 c 0,-6 -6,-12 -12,-12 L 32,20 Z"
       style="opacity:0.1;fill:#ffffff;fill-opacity:1;fill-rule:evenodd;stroke:none;stroke-width:1px;stroke-linecap:butt;stroke-linejoin:miter;stroke-opacity:1" />
    <path
       sodipodi:nodetypes="csccccssc"
       inkscape:connector-curvature="0"
       id="path5508"
       d="m 172,128.59961 c 0,5.99286 -6,12 -12,12 l -109.599609,0 L 20,171 l 0,1 30.400391,-30.40039 109.599609,0 c 6,0 12,-6.00714 12,-12 z"
       style="opacity:0.2;fill:#263238" />
    <path
       style="opacity:0.1;fill:url(#radialGradient7072);fill-opacity:1"
       inkscape:connector-curvature="0"
       d="M 160,20 32,20 c -6,0 -12,6 -12,12 l 0,140 30.4,-30.4 109.6,0 c 6,0 12,-6.00714 12,-12 L 172,32 c 0,-6 -6,-12 -12,-12 z"
       id="path7063"
       sodipodi:nodetypes="sscccssss" />
  </g>
</svg>
