<?xml version="1.0" encoding="UTF-8" standalone="no"?>
<svg
   xmlns:dc="http://purl.org/dc/elements/1.1/"
   xmlns:cc="http://creativecommons.org/ns#"
   xmlns:rdf="http://www.w3.org/1999/02/22-rdf-syntax-ns#"
   xmlns:svg="http://www.w3.org/2000/svg"
   xmlns="http://www.w3.org/2000/svg"
   xmlns:xlink="http://www.w3.org/1999/xlink"
   xmlns:sodipodi="http://sodipodi.sourceforge.net/DTD/sodipodi-0.dtd"
   xmlns:inkscape="http://www.inkscape.org/namespaces/inkscape"
   width="48"
   viewBox="0 0 13.546667 13.546667"
   height="48"
   id="svg2"
   version="1.1"
   inkscape:version="0.91 r13725"
   sodipodi:docname="google-chrome.svg"
   inkscape:export-filename="/home/me4oslav/Documents/Phyllo/chrome.png"
   inkscape:export-xdpi="900"
   inkscape:export-ydpi="900">
  <metadata
     id="metadata36">
    <rdf:RDF>
      <cc:Work
         rdf:about="">
        <dc:format>image/svg+xml</dc:format>
        <dc:type
           rdf:resource="http://purl.org/dc/dcmitype/StillImage" />
        <dc:title />
      </cc:Work>
    </rdf:RDF>
  </metadata>
  <sodipodi:namedview
     pagecolor="#f7f7f7"
     bordercolor="#666666"
     borderopacity="1"
     objecttolerance="10"
     gridtolerance="10"
     guidetolerance="10"
     inkscape:pageopacity="1"
     inkscape:pageshadow="2"
     inkscape:window-width="1920"
     inkscape:window-height="1020"
     id="namedview34"
     showgrid="true"
     inkscape:zoom="17.270833"
     inkscape:cx="14.446321"
     inkscape:cy="23.884198"
     inkscape:window-x="0"
     inkscape:window-y="32"
     inkscape:window-maximized="1"
     inkscape:current-layer="layer1"
     showguides="true"
     inkscape:guide-bbox="true"
     inkscape:snap-bbox="true"
     inkscape:bbox-paths="true"
     inkscape:bbox-nodes="true"
     inkscape:snap-bbox-edge-midpoints="true"
     inkscape:snap-bbox-midpoints="true">
    <inkscape:grid
       type="xygrid"
       id="grid3772"
       empspacing="5"
       visible="true"
       enabled="true"
       snapvisiblegridlinesonly="true" />
  </sodipodi:namedview>
  <defs
     id="defs4">
    <linearGradient
       id="linearGradient3771">
      <stop
         style="stop-color:#000000;stop-opacity:1;"
         offset="0"
         id="stop3773" />
      <stop
         style="stop-color:#000000;stop-opacity:0.29411766;"
         offset="1"
         id="stop3775" />
    </linearGradient>
    <linearGradient
       id="linearGradient3923">
      <stop
         offset="0"
         style="stop-color:#fff;stop-opacity:.059"
         id="stop7" />
      <stop
         offset="1"
         style="stop-opacity:.059"
         id="stop9" />
    </linearGradient>
    <linearGradient
       xlink:href="#linearGradient3923"
       id="linearGradient3929"
       x1="-40.5"
       x2="41.5"
       gradientUnits="userSpaceOnUse" />
    <linearGradient
       id="linearGradient4460">
      <stop
         offset="0"
         style="stop-color:#dedede"
         id="stop13" />
      <stop
         offset="1"
         style="stop-color:#efefef"
         id="stop15" />
    </linearGradient>
    <linearGradient
       gradientTransform="matrix(1.10525 0 0 1.10525 -134.27874 -295.76183)"
       xlink:href="#linearGradient4460"
       id="linearGradient3061"
       y1="279.096"
       y2="268.33"
       gradientUnits="userSpaceOnUse"
       x2="0" />
    <linearGradient
       inkscape:collect="always"
       xlink:href="#linearGradient4460"
       id="linearGradient2996"
       gradientUnits="userSpaceOnUse"
       gradientTransform="matrix(1.10525,0,0,1.10525,-134.27874,-295.76183)"
       y1="279.096"
       x2="0"
       y2="268.33" />
    <linearGradient
       gradientTransform="translate(2.0669291e-7,-1.2696874e-6)"
       inkscape:collect="always"
       xlink:href="#linearGradient4208"
       id="linearGradient4214"
       x1="10"
       y1="44.999981"
       x2="14"
       y2="2"
       gradientUnits="userSpaceOnUse" />
    <linearGradient
       id="linearGradient4208">
      <stop
         style="stop-color:#70a3d6;stop-opacity:1;"
         offset="0"
         id="stop4210" />
      <stop
         style="stop-color:#88b6e1;stop-opacity:1;"
         offset="1"
         id="stop4212" />
    </linearGradient>
    <linearGradient
       gradientTransform="translate(2.0669291e-7,-1.2696874e-6)"
       inkscape:collect="always"
       xlink:href="#linearGradient4216"
       id="linearGradient4222"
       x1="35"
       y1="45.999981"
       x2="39"
       y2="9"
       gradientUnits="userSpaceOnUse" />
    <linearGradient
       id="linearGradient4216">
      <stop
         style="stop-color:#a0c4e6;stop-opacity:1;"
         offset="0"
         id="stop4218" />
      <stop
         style="stop-color:#d0e2f1;stop-opacity:1;"
         offset="1"
         id="stop4220" />
    </linearGradient>
    <linearGradient
       inkscape:collect="always"
       xlink:href="#linearGradient4192"
       id="linearGradient4198"
       x1="23"
       y1="19"
       x2="27"
       y2="1.999983"
       gradientUnits="userSpaceOnUse" />
    <linearGradient
       id="linearGradient4192">
      <stop
         style="stop-color:#4970a4;stop-opacity:1;"
         offset="0"
         id="stop4194" />
      <stop
         style="stop-color:#6090c0;stop-opacity:1;"
         offset="1"
         id="stop4196" />
    </linearGradient>
    <linearGradient
       gradientTransform="translate(2.0669291e-7,-1.2696874e-6)"
       y2="1.999983"
       x2="27"
       y1="19"
       x1="23"
       gradientUnits="userSpaceOnUse"
       id="linearGradient3092"
       xlink:href="#linearGradient4192"
       inkscape:collect="always" />
  </defs>
  <g
     inkscape:groupmode="layer"
     id="layer1"
     inkscape:label="Body">
    <circle
       r="3.3866668"
       cy="6.7733335"
       cx="6.773334"
       style="fill:#ffffff;fill-opacity:1;stroke:none"
       id="path3770" />
    <circle
       cx="6.7733335"
       cy="6.773334"
       style="fill:#2196f3;fill-opacity:1"
       r="2.2577777"
       id="circle24" />
    <path
       inkscape:connector-curvature="0"
       style="display:inline;fill:#f44336;fill-opacity:1;fill-rule:nonzero;stroke:none"
       d="m 6.7733333,0.56444445 c -1.8559015,0 -3.5189081,0.81706885 -4.6566667,2.10784715 l 1.9402778,3.3425695 c 0.3324454,-1.1885687 1.4217089,-2.06375 2.7163889,-2.06375 1.0485905,0 1.9563958,0.5710592 2.4429862,1.4199306 l 3.6071525,-0.00882 C 12.184737,2.6127057 9.717208,0.56444445 6.7733333,0.56444445 Z"
       id="path4003" />
    <path
       inkscape:connector-curvature="0"
       style="display:inline;fill:#ffc907;fill-opacity:1;fill-rule:nonzero;stroke:none"
       d="m 8.7841667,4.7977778 c 0.5002942,0.509246 0.8113889,1.2052774 0.8113889,1.9755555 0,1.5586705 -1.2635521,2.8222223 -2.8222223,2.8222223 -0.00294,0 -0.00588,9e-6 -0.00882,0 L 4.7448611,12.638264 c 0.6362917,0.220111 1.3173289,0.343958 2.0284722,0.343958 3.4290757,0 6.2088887,-2.779814 6.2088887,-6.2088887 0,-0.69166 -0.117611,-1.3542094 -0.32632,-1.9755555 l -3.8717353,0 z"
       id="path4005" />
    <path
       inkscape:connector-curvature="0"
       style="opacity:0.1;fill:#000000;fill-opacity:1;stroke:none"
       d="m 2.5664583,2.2136805 c -0.040255,0.037169 -0.07539,0.076447 -0.1146528,0.1146528 L 4.206875,5.6003472 C 4.4507435,5.067149 4.8588173,4.6322776 5.3622222,4.3391666 L 2.5664583,2.2136805 Z"
       id="path3857" />
    <path
       inkscape:connector-curvature="0"
       style="display:inline;fill:#40c75b;fill-opacity:1;fill-rule:nonzero;stroke:none"
       d="M 2.4870833,2.2842361 C 1.3036455,3.4147853 0.56444445,5.0074454 0.56444445,6.7733333 c 0,2.9751438 2.09236065,5.4616287 4.88597225,6.0677777 L 7.4700694,9.5073611 c -0.2239041,0.057161 -0.4550266,0.088195 -0.6967361,0.088195 -1.5586701,0 -2.8222222,-1.2635518 -2.8222222,-2.8222223 0,-0.51008 0.1425374,-0.9893638 0.3792361,-1.4022916 L 2.4870833,2.2842361 Z"
       id="path4007" />
    <path
       inkscape:connector-curvature="0"
       style="opacity:0.1;fill:#000000;fill-opacity:1;stroke:none"
       d="M 8.7841667,4.7977778 C 9.0987968,5.1180376 9.3374298,5.5131084 9.4720833,5.953125 L 12.655902,4.8154166 c -0.0017,-0.00529 0.0018,-0.01235 0,-0.017639 l -3.8717353,0 z"
       id="path3846" />
    <path
       inkscape:connector-curvature="0"
       style="opacity:0.1;fill:#000000;fill-opacity:1;stroke:none"
       d="m 7.4700694,9.5073611 c -0.2239041,0.057161 -0.4550266,0.088195 -0.6967361,0.088195 -0.210459,0 -0.4112277,-0.026868 -0.6085416,-0.070556 L 5.3975,12.823472 c 0.018327,0.0042 0.034527,0.01365 0.052917,0.01764 L 7.4700694,9.5073611 Z"
       id="path3851" />
  </g>
  <g
     inkscape:groupmode="layer"
     id="layer2"
     inkscape:label="Shadow">
    <path
       inkscape:connector-curvature="0"
       style="opacity:0.03999999;fill:#000000;fill-opacity:1;stroke:none;stroke-width:0.5;stroke-miterlimit:4;stroke-dasharray:none;stroke-opacity:1"
       d="M 12.976203,7.1724131 A 6.2088889,6.2088889 0 0 1 6.7733774,13.264445 6.2088889,6.2088889 0 0 1 0.57055245,7.2209203 6.2088889,6.2088889 0 0 0 0.56445245,7.3377778 6.2088889,6.2088889 0 0 0 6.7733414,13.546667 6.2088889,6.2088889 0 0 0 12.98223,7.3377778 6.2088889,6.2088889 0 0 0 12.97613,7.1724131 Z"
       id="circle4181" />
    <path
       inkscape:connector-curvature="0"
       style="opacity:0.07999998;fill:#000000;fill-opacity:1;stroke:none;stroke-width:0.5;stroke-miterlimit:4;stroke-dasharray:none;stroke-opacity:1"
       d="M 12.97951,6.9728732 A 6.2088889,6.2088889 0 0 1 6.7733774,13.123333 6.2088889,6.2088889 0 0 1 0.56724445,6.9971269 a 6.2088889,6.2088889 0 0 0 -0.0028,0.058429 6.2088889,6.2088889 0 0 0 6.20888895,6.2088891 6.2088889,6.2088889 0 0 0 6.2088886,-6.2088891 6.2088889,6.2088889 0 0 0 -0.0028,-0.082682 z"
       id="circle4178" />
    <path
       inkscape:connector-curvature="0"
       style="opacity:0.16000001;fill:#000000;fill-opacity:1;stroke:none;stroke-width:0.5;stroke-miterlimit:4;stroke-dasharray:none;stroke-opacity:1"
       d="M 12.97951,6.8317621 A 6.2088889,6.2088889 0 0 1 6.7733774,12.982222 6.2088889,6.2088889 0 0 1 0.56724445,6.8560157 a 6.2088889,6.2088889 0 0 0 -0.0028,0.058429 6.2088889,6.2088889 0 0 0 6.20888895,6.2088893 6.2088889,6.2088889 0 0 0 6.2088886,-6.2088893 6.2088889,6.2088889 0 0 0 -0.0028,-0.082682 z"
       id="circle4172" />
  </g>
</svg>
