<?xml version="1.0" encoding="UTF-8" standalone="no"?>
<!-- Created with Inkscape (http://www.inkscape.org/) -->

<svg
   xmlns:dc="http://purl.org/dc/elements/1.1/"
   xmlns:cc="http://creativecommons.org/ns#"
   xmlns:rdf="http://www.w3.org/1999/02/22-rdf-syntax-ns#"
   xmlns:svg="http://www.w3.org/2000/svg"
   xmlns="http://www.w3.org/2000/svg"
   xmlns:xlink="http://www.w3.org/1999/xlink"
   xmlns:sodipodi="http://sodipodi.sourceforge.net/DTD/sodipodi-0.dtd"
   xmlns:inkscape="http://www.inkscape.org/namespaces/inkscape"
   width="192"
   height="192"
   viewBox="0 0 192 192"
   id="svg2"
   version="1.1"
   inkscape:version="0.91 r13725"
   sodipodi:docname="ifunny.svg">
  <defs
     id="defs4">
    <linearGradient
       inkscape:collect="always"
       id="linearGradient4292">
      <stop
         style="stop-color:#ffffff;stop-opacity:0.1"
         offset="0"
         id="stop4294" />
      <stop
         style="stop-color:#ffffff;stop-opacity:0"
         offset="1"
         id="stop4296" />
    </linearGradient>
    <radialGradient
       inkscape:collect="always"
       xlink:href="#linearGradient4292"
       id="radialGradient4298"
       cx="7.9999995"
       cy="868.36218"
       fx="7.9999995"
       fy="868.36218"
       r="88"
       gradientUnits="userSpaceOnUse"
       gradientTransform="matrix(2.0000001,1.9999999,-2.0000015,2.0000015,1728.7256,-884.3635)" />
    <filter
       style="color-interpolation-filters:sRGB;"
       inkscape:label="Drop Shadow"
       id="filter4301">
      <feFlood
         flood-opacity="0.12"
         flood-color="rgb(0,0,0)"
         result="flood"
         id="feFlood4303" />
      <feComposite
         in="flood"
         in2="SourceGraphic"
         operator="in"
         result="composite1"
         id="feComposite4305" />
      <feGaussianBlur
         in="composite1"
         stdDeviation="2"
         result="blur"
         id="feGaussianBlur4307" />
      <feOffset
         dx="0"
         dy="0"
         result="offset"
         id="feOffset4309" />
      <feComposite
         in="SourceGraphic"
         in2="offset"
         operator="over"
         result="fbSourceGraphic"
         id="feComposite4311" />
      <feColorMatrix
         result="fbSourceGraphicAlpha"
         in="fbSourceGraphic"
         values="0 0 0 -1 0 0 0 0 -1 0 0 0 0 -1 0 0 0 0 1 0"
         id="feColorMatrix4313" />
      <feFlood
         id="feFlood4315"
         flood-opacity="0.23999999999999999"
         flood-color="rgb(0,0,0)"
         result="flood"
         in="fbSourceGraphic" />
      <feComposite
         id="feComposite4317"
         in2="fbSourceGraphic"
         in="flood"
         operator="in"
         result="composite1" />
      <feGaussianBlur
         id="feGaussianBlur4319"
         in="composite1"
         stdDeviation="2"
         result="blur" />
      <feOffset
         id="feOffset4321"
         dx="0"
         dy="4"
         result="offset" />
      <feComposite
         id="feComposite4323"
         in2="offset"
         in="fbSourceGraphic"
         operator="over"
         result="composite2" />
    </filter>
  </defs>
  <sodipodi:namedview
     id="base"
     pagecolor="#ffffff"
     bordercolor="#666666"
     borderopacity="1.0"
     inkscape:pageopacity="0.0"
     inkscape:pageshadow="2"
     inkscape:zoom="3.959798"
     inkscape:cx="145.10823"
     inkscape:cy="94.516194"
     inkscape:document-units="px"
     inkscape:current-layer="layer1"
     showgrid="true"
     units="px"
     inkscape:showpageshadow="false"
     borderlayer="true"
     inkscape:window-width="1920"
     inkscape:window-height="1023"
     inkscape:window-x="0"
     inkscape:window-y="27"
     inkscape:window-maximized="1"
     showguides="true"
     inkscape:guide-bbox="true"
     inkscape:snap-center="true">
    <inkscape:grid
       type="xygrid"
       id="grid3336"
       empspacing="4" />
    <sodipodi:guide
       position="96,96"
       orientation="1,0"
       id="guide4135" />
    <sodipodi:guide
       position="96,96"
       orientation="0,1"
       id="guide4137" />
  </sodipodi:namedview>
  <metadata
     id="metadata7">
    <rdf:RDF>
      <cc:Work
         rdf:about="">
        <dc:format>image/svg+xml</dc:format>
        <dc:type
           rdf:resource="http://purl.org/dc/dcmitype/StillImage" />
        <dc:title></dc:title>
      </cc:Work>
    </rdf:RDF>
  </metadata>
  <g
     inkscape:label="Main"
     inkscape:groupmode="layer"
     id="layer1"
     transform="translate(0,-860.36216)">
    <circle
       style="color:#000000;clip-rule:nonzero;display:inline;overflow:visible;visibility:visible;opacity:1;isolation:auto;mix-blend-mode:normal;color-interpolation:sRGB;color-interpolation-filters:linearRGB;solid-color:#000000;solid-opacity:1;fill:#ffcf33;fill-opacity:1;fill-rule:nonzero;stroke:none;stroke-width:0.5;stroke-linecap:round;stroke-linejoin:round;stroke-miterlimit:4;stroke-dasharray:none;stroke-dashoffset:0;stroke-opacity:1;color-rendering:auto;image-rendering:auto;shape-rendering:auto;text-rendering:auto;enable-background:accumulate;filter:url(#filter4301)"
       id="path3424"
       cx="96"
       cy="956.36218"
       r="88" />
    <path
       style="color:#000000;clip-rule:nonzero;display:inline;overflow:visible;visibility:visible;opacity:1;isolation:auto;mix-blend-mode:normal;color-interpolation:sRGB;color-interpolation-filters:linearRGB;solid-color:#000000;solid-opacity:1;fill:#424242;fill-opacity:1;fill-rule:nonzero;stroke:none;stroke-width:0.5;stroke-linecap:round;stroke-linejoin:round;stroke-miterlimit:4;stroke-dasharray:none;stroke-dashoffset:0;stroke-opacity:1;color-rendering:auto;image-rendering:auto;shape-rendering:auto;text-rendering:auto;enable-background:accumulate"
       d="M 69.419922 52.439453 C 68.514222 52.433453 67.594109 52.625625 66.761719 53.015625 C 62.832429 54.856315 60.085938 61.040828 60.085938 68.048828 C 60.085938 75.597128 63.079548 81.792888 67.486328 83.367188 C 71.686218 84.867488 76.058056 80.970409 77.884766 74.099609 C 78.374236 72.258609 78.412109 71.822728 78.412109 68.048828 C 78.412109 64.274928 78.374209 63.836994 77.884766 61.996094 C 76.759476 57.763494 74.520831 54.367181 71.988281 53.050781 C 71.216781 52.649781 70.325622 52.449453 69.419922 52.439453 z M 122.98633 52.474609 C 121.7268 52.470609 121.3216 52.561111 120.34375 53.056641 C 117.39542 54.550441 114.93815 58.768059 114.03906 63.880859 C 113.89513 64.699359 113.77734 66.575528 113.77734 68.048828 C 113.77734 70.987928 114.04236 72.871116 114.79492 75.291016 C 116.07991 79.422816 118.42977 82.39815 121.20312 83.40625 C 122.46173 83.86375 124.2815 83.716675 125.65039 83.046875 C 128.04576 81.874975 130.54109 78.124756 131.52148 74.222656 C 133.38501 66.805856 131.65013 58.3443 127.45312 54.375 C 125.94076 52.9446 124.84865 52.484609 122.98633 52.474609 z M 97.226562 111.55469 C 94.935678 111.49885 92.664105 111.56544 90.445312 111.75781 C 85.444222 112.19161 79.376082 113.51702 74.669922 115.20312 C 69.136402 117.18563 62.18215 121.04268 57.40625 124.7793 C 50.4334 130.2349 44.217514 137.77458 40.333984 145.48633 C 39.475724 147.19053 39.519618 147.58012 40.705078 148.76562 C 41.512668 149.57322 42.563334 150.02391 43.552734 150.00391 C 43.694074 150.00391 43.834726 149.98784 43.972656 149.96484 C 44.904886 149.81354 45.056141 149.65019 46.175781 147.55469 C 50.167471 140.08399 55.512001 133.85168 62.212891 128.85938 C 70.262581 122.86218 79.52711 119.24055 89.75 118.09375 C 92.056058 117.83505 99.945907 117.83505 102.25195 118.09375 C 121.02738 120.20005 136.97004 130.9799 145.82617 147.55469 C 146.94582 149.65019 147.09707 149.81354 148.0293 149.96484 C 149.13278 150.14394 150.37391 149.68853 151.29688 148.76562 C 152.48233 147.58012 152.52623 147.19053 151.66797 145.48633 C 147.78443 137.77458 141.56856 130.2349 134.5957 124.7793 C 129.83809 121.05698 122.86142 117.18281 117.39062 115.22461 C 111.13851 112.98676 104.09922 111.72219 97.226562 111.55469 z "
       transform="translate(0,860.36216)"
       id="path4230" />
    <path
       style="color:#000000;clip-rule:nonzero;display:inline;overflow:visible;visibility:visible;opacity:0.3;isolation:auto;mix-blend-mode:normal;color-interpolation:sRGB;color-interpolation-filters:linearRGB;solid-color:#000000;solid-opacity:1;fill:#ffffff;fill-opacity:1;fill-rule:nonzero;stroke:none;stroke-width:0.5;stroke-linecap:round;stroke-linejoin:round;stroke-miterlimit:4;stroke-dasharray:none;stroke-dashoffset:0;stroke-opacity:1;color-rendering:auto;image-rendering:auto;shape-rendering:auto;text-rendering:auto;enable-background:accumulate"
       d="m 96,868.36222 a 88,88 0 0 0 -88,88 88,88 0 0 0 0.021484,0.58594 A 88,88 0 0 1 96,869.36222 a 88,88 0 0 1 87.97852,87.41406 88,88 0 0 0 0.0215,-0.41406 88,88 0 0 0 -88,-88 z"
       id="path3424-6"
       inkscape:connector-curvature="0" />
    <path
       style="color:#000000;clip-rule:nonzero;display:inline;overflow:visible;visibility:visible;opacity:0.2;isolation:auto;mix-blend-mode:normal;color-interpolation:sRGB;color-interpolation-filters:linearRGB;solid-color:#000000;solid-opacity:1;fill:#bf360c;fill-opacity:1;fill-rule:nonzero;stroke:none;stroke-width:0.5;stroke-linecap:round;stroke-linejoin:round;stroke-miterlimit:4;stroke-dasharray:none;stroke-dashoffset:0;stroke-opacity:1;color-rendering:auto;image-rendering:auto;shape-rendering:auto;text-rendering:auto;enable-background:accumulate"
       d="M 183.97852,955.77622 A 88,88 0 0 1 96,1043.3622 88,88 0 0 1 8.0214844,955.9481 88,88 0 0 0 8,956.36216 a 88,88 0 0 0 88,88.00004 88,88 0 0 0 88,-88.00004 88,88 0 0 0 -0.0215,-0.58594 z"
       id="path3424-5"
       inkscape:connector-curvature="0" />
  </g>
  <g
     inkscape:groupmode="layer"
     id="layer2"
     inkscape:label="Finish"
     sodipodi:insensitive="true">
    <circle
       transform="translate(0,-860.36216)"
       style="color:#000000;clip-rule:nonzero;display:inline;overflow:visible;visibility:visible;opacity:1;isolation:auto;mix-blend-mode:normal;color-interpolation:sRGB;color-interpolation-filters:linearRGB;solid-color:#000000;solid-opacity:1;fill:url(#radialGradient4298);fill-opacity:1;fill-rule:nonzero;stroke:none;stroke-width:0.5;stroke-linecap:round;stroke-linejoin:round;stroke-miterlimit:4;stroke-dasharray:none;stroke-dashoffset:0;stroke-opacity:1;color-rendering:auto;image-rendering:auto;shape-rendering:auto;text-rendering:auto;enable-background:accumulate"
       id="path3424-3"
       cx="96"
       cy="956.36218"
       r="88" />
  </g>
</svg>
