<?xml version="1.0" encoding="UTF-8" standalone="no"?>
<!-- Created with Inkscape (http://www.inkscape.org/) -->

<svg
   xmlns:dc="http://purl.org/dc/elements/1.1/"
   xmlns:cc="http://creativecommons.org/ns#"
   xmlns:rdf="http://www.w3.org/1999/02/22-rdf-syntax-ns#"
   xmlns:svg="http://www.w3.org/2000/svg"
   xmlns="http://www.w3.org/2000/svg"
   xmlns:xlink="http://www.w3.org/1999/xlink"
   xmlns:sodipodi="http://sodipodi.sourceforge.net/DTD/sodipodi-0.dtd"
   xmlns:inkscape="http://www.inkscape.org/namespaces/inkscape"
   width="48"
   height="48"
   id="svg2"
   version="1.1"
   inkscape:version="0.48.5 r10040"
   sodipodi:docname="ofis-tablica.svg">
  <defs
     id="defs4">
    <linearGradient
       inkscape:collect="always"
       id="linearGradient3810">
      <stop
         style="stop-color:#000000;stop-opacity:1;"
         offset="0"
         id="stop3812" />
      <stop
         style="stop-color:#000000;stop-opacity:0;"
         offset="1"
         id="stop3814" />
    </linearGradient>
    <linearGradient
       id="linearGradient3929">
      <stop
         style="stop-color:#313131;stop-opacity:1;"
         offset="0"
         id="stop3931" />
      <stop
         style="stop-color:#555555;stop-opacity:1;"
         offset="1"
         id="stop3933" />
    </linearGradient>
    <linearGradient
       id="linearGradient3757">
      <stop
         style="stop-color:#0f88de;stop-opacity:1;"
         offset="0"
         id="stop3759" />
      <stop
         style="stop-color:#81bffa;stop-opacity:1;"
         offset="1"
         id="stop3761" />
    </linearGradient>
    <linearGradient
       inkscape:collect="always"
       xlink:href="#linearGradient3929"
       id="linearGradient3935"
       x1="27"
       y1="47"
       x2="27"
       y2="2"
       gradientUnits="userSpaceOnUse" />
    <linearGradient
       inkscape:collect="always"
       xlink:href="#linearGradient3810"
       id="linearGradient3816"
       x1="39"
       y1="6"
       x2="30"
       y2="15"
       gradientUnits="userSpaceOnUse"
       gradientTransform="translate(0,1004.3622)" />
    <linearGradient
       inkscape:collect="always"
       xlink:href="#linearGradient3810-0"
       id="linearGradient3816-6"
       x1="39"
       y1="6"
       x2="30"
       y2="15"
       gradientUnits="userSpaceOnUse"
       gradientTransform="translate(0,1004.3622)" />
    <linearGradient
       inkscape:collect="always"
       id="linearGradient3810-0">
      <stop
         style="stop-color:#000000;stop-opacity:1;"
         offset="0"
         id="stop3812-1" />
      <stop
         style="stop-color:#000000;stop-opacity:0;"
         offset="1"
         id="stop3814-6" />
    </linearGradient>
    <linearGradient
       y2="15"
       x2="30"
       y1="6"
       x1="39"
       gradientUnits="userSpaceOnUse"
       id="linearGradient3024"
       xlink:href="#linearGradient3810-0"
       inkscape:collect="always" />
  </defs>
  <sodipodi:namedview
     id="base"
     pagecolor="#ffffff"
     bordercolor="#666666"
     borderopacity="1.0"
     inkscape:pageopacity="0.0"
     inkscape:pageshadow="2"
     inkscape:zoom="16.983604"
     inkscape:cx="21.313146"
     inkscape:cy="32.230593"
     inkscape:document-units="px"
     inkscape:current-layer="layer2"
     showgrid="true"
     inkscape:window-width="1920"
     inkscape:window-height="1052"
     inkscape:window-x="0"
     inkscape:window-y="28"
     inkscape:window-maximized="1">
    <inkscape:grid
       type="xygrid"
       id="grid3765"
       empspacing="5"
       visible="true"
       enabled="true"
       snapvisiblegridlinesonly="true" />
  </sodipodi:namedview>
  <metadata
     id="metadata7">
    <rdf:RDF>
      <cc:Work
         rdf:about="">
        <dc:format>image/svg+xml</dc:format>
        <dc:type
           rdf:resource="http://purl.org/dc/dcmitype/StillImage" />
        <dc:title></dc:title>
      </cc:Work>
    </rdf:RDF>
  </metadata>
  <g
     inkscape:label="Layer 1"
     inkscape:groupmode="layer"
     id="layer1"
     transform="translate(0,-1004.3622)">
    <path
       id="path3847"
       d="m 8,1007.3622 c -1.662,0 -3,1.338 -3,3 l 0,38 c 0,1.662 1.338,3 3,3 l 32,0 c 1.662,0 3,-1.338 3,-3 l 0,-32 -9,-9 -26,0 z m 3,4 c 1.104569,0 2,0.8954 2,2 0,1.1046 -0.895431,2 -2,2 -1.1045693,0 -2,-0.8954 -2,-2 0,-1.1046 0.8954307,-2 2,-2 z m 0,8 c 1.104569,0 2,0.8954 2,2 0,1.1046 -0.895431,2 -2,2 -1.1045693,0 -2,-0.8954 -2,-2 0,-1.1046 0.8954307,-2 2,-2 z m 0,8 c 1.104569,0 2,0.8954 2,2 0,1.1046 -0.895431,2 -2,2 -1.1045693,0 -2,-0.8954 -2,-2 0,-1.1046 0.8954307,-2 2,-2 z m 0,8 c 1.104569,0 2,0.8954 2,2 0,1.1046 -0.895431,2 -2,2 -1.1045693,0 -2,-0.8954 -2,-2 0,-1.1046 0.8954307,-2 2,-2 z m 0,8 c 1.104569,0 2,0.8954 2,2 0,1.1046 -0.895431,2 -2,2 -1.1045693,0 -2,-0.8954 -2,-2 0,-1.1046 0.8954307,-2 2,-2 z"
       style="fill:#000000;fill-opacity:1;stroke:none;opacity:0.15"
       inkscape:connector-curvature="0" />
    <path
       style="opacity:1;fill:#43a047;fill-opacity:1;stroke:none"
       d="M 8 2 C 6.338 2 5 3.338 5 5 L 5 43 C 5 44.662 6.338 46 8 46 L 40 46 C 41.662 46 43 44.662 43 43 L 43 11 L 34 2 L 8 2 z M 11 6 C 12.104569 6 13 6.8954307 13 8 C 13 9.1045693 12.104569 10 11 10 C 9.8954307 10 9 9.1045693 9 8 C 9 6.8954307 9.8954307 6 11 6 z M 11 14 C 12.104569 14 13 14.895431 13 16 C 13 17.104569 12.104569 18 11 18 C 9.8954307 18 9 17.104569 9 16 C 9 14.895431 9.8954307 14 11 14 z M 11 22 C 12.104569 22 13 22.895431 13 24 C 13 25.104569 12.104569 26 11 26 C 9.8954307 26 9 25.104569 9 24 C 9 22.895431 9.8954307 22 11 22 z M 11 30 C 12.104569 30 13 30.895431 13 32 C 13 33.104569 12.104569 34 11 34 C 9.8954307 34 9 33.104569 9 32 C 9 30.895431 9.8954307 30 11 30 z M 11 38 C 12.104569 38 13 38.895431 13 40 C 13 41.104569 12.104569 42 11 42 C 9.8954307 42 9 41.104569 9 40 C 9 38.895431 9.8954307 38 11 38 z "
       id="rect3766"
       transform="translate(0,1004.3622)" />
    <path
       style="fill:#f2f2f2;fill-opacity:1;fill-rule:nonzero;stroke:none"
       inkscape:connector-curvature="0"
       id="path73"
       d="m 17,1026.3622 20,0 0,-2 -20,0 m 0,2" />
    <path
       style="fill:#f2f2f2;fill-opacity:1;fill-rule:nonzero;stroke:none"
       inkscape:connector-curvature="0"
       id="path77"
       d="m 17,1038.3622 20,0 0,-2 -20,0"
       sodipodi:nodetypes="cccc" />
    <path
       style="fill:#f2f2f2;fill-opacity:1;fill-rule:nonzero;stroke:none"
       inkscape:connector-curvature="0"
       id="path77-7"
       d="m 17,1044.3622 20,0 0,-2 -20,0 m 0,2" />
    <rect
       style="fill:#eeeeee;fill-opacity:1;stroke:none"
       id="rect3773"
       width="2"
       height="18.999983"
       x="17"
       y="1025.3622" />
    <rect
       style="fill:#eeeeee;fill-opacity:1;stroke:none"
       id="rect3775"
       width="2"
       height="18.999983"
       x="35"
       y="1025.3622" />
    <path
       d="m 17,1032.3622 20,0 -1,-2 -19,0"
       id="path3777"
       inkscape:connector-curvature="0"
       style="fill:#f2f2f2;fill-opacity:1;fill-rule:nonzero;stroke:none"
       sodipodi:nodetypes="cccc" />
    <path
       d="m 23,1025.3622 0,19 2,0 0,-19"
       id="path3781"
       inkscape:connector-curvature="0"
       style="fill:#f2f2f2;fill-opacity:1;fill-rule:nonzero;stroke:none"
       sodipodi:nodetypes="cccc" />
    <path
       style="fill:#f2f2f2;fill-opacity:1;fill-rule:nonzero;stroke:none"
       inkscape:connector-curvature="0"
       id="path3783"
       d="m 29,1025.3622 0,19 2,0 0,-19"
       sodipodi:nodetypes="cccc" />
  </g>
  <g
     inkscape:groupmode="layer"
     id="layer2"
     inkscape:label="Pesho">
    <g
       id="g4167"
       style="opacity:0.4;fill:#ffffff;fill-opacity:1">
      <path
         inkscape:connector-curvature="0"
         id="rect3017"
         d="M 7,2.1875 C 6.6285833,2.320224 6.2867041,2.5228323 6,2.78125 l 0,42.4375 c 0.2867041,0.258418 0.6285833,0.461026 1,0.59375 L 7,2.1875 z"
         style="fill:#ffffff;fill-opacity:1;stroke:none" />
      <rect
         y="2"
         x="8"
         height="44"
         width="1"
         id="rect3885"
         style="fill:#ffffff;fill-opacity:1;stroke:none" />
      <path
         inkscape:connector-curvature="0"
         id="rect3887"
         d="m 10,2 0,4.28125 C 10.294544,6.1104918 10.635035,6 11,6 l 0,-4 -1,0 z m 0,7.71875 0,4.5625 C 10.294544,14.110492 10.635035,14 11,14 l 0,-4 C 10.635035,10 10.294544,9.8895082 10,9.71875 z m 0,8 0,4.5625 C 10.294544,22.110492 10.635035,22 11,22 l 0,-4 c -0.364965,0 -0.705456,-0.110492 -1,-0.28125 z m 0,8 0,4.5625 C 10.294544,30.110492 10.635035,30 11,30 l 0,-4 c -0.364965,0 -0.705456,-0.110492 -1,-0.28125 z m 0,8 0,4.5625 C 10.294544,38.110492 10.635035,38 11,38 l 0,-4 c -0.364965,0 -0.705456,-0.110492 -1,-0.28125 z m 0,8 0,4.28125 1,0 0,-4 c -0.364965,0 -0.705456,-0.110492 -1,-0.28125 z"
         style="fill:#ffffff;fill-opacity:1;stroke:none" />
      <path
         inkscape:connector-curvature="0"
         id="rect3889"
         d="m 12,2 0,4.28125 C 12.596896,6.6272926 13,7.2603957 13,8 l 0,-6 -1,0 z m 1,6 c 0,0.7396043 -0.403104,1.3727074 -1,1.71875 l 0,4.5625 c 0.596896,0.346043 1,0.979146 1,1.71875 l 0,-8 z m 0,8 c 0,0.739604 -0.403104,1.372707 -1,1.71875 l 0,4.5625 c 0.596896,0.346043 1,0.979146 1,1.71875 l 0,-8 z m 0,8 c 0,0.739604 -0.403104,1.372707 -1,1.71875 l 0,4.5625 c 0.596896,0.346043 1,0.979146 1,1.71875 l 0,-8 z m 0,8 c 0,0.739604 -0.403104,1.372707 -1,1.71875 l 0,4.5625 c 0.596896,0.346043 1,0.979146 1,1.71875 l 0,-8 z m 0,8 c 0,0.739604 -0.403104,1.372707 -1,1.71875 L 12,46 l 1,0 0,-6 z"
         style="fill:#ffffff;fill-opacity:1;stroke:none" />
      <rect
         style="fill:#ffffff;fill-opacity:1;stroke:none"
         id="rect3891"
         width="1"
         height="44"
         x="14"
         y="2" />
      <rect
         y="2"
         x="16"
         height="44"
         width="1"
         id="rect3893"
         style="fill:#ffffff;fill-opacity:1;stroke:none" />
      <rect
         style="fill:#ffffff;fill-opacity:1;stroke:none"
         id="rect3895"
         width="1"
         height="44"
         x="18"
         y="2" />
      <rect
         y="2"
         x="20"
         height="44"
         width="1"
         id="rect3897"
         style="fill:#ffffff;fill-opacity:1;stroke:none" />
      <rect
         style="fill:#ffffff;fill-opacity:1;stroke:none"
         id="rect3899"
         width="1"
         height="44"
         x="22"
         y="2" />
      <rect
         y="2"
         x="24"
         height="44"
         width="1"
         id="rect3901"
         style="fill:#ffffff;fill-opacity:1;stroke:none" />
      <rect
         style="fill:#ffffff;fill-opacity:1;stroke:none"
         id="rect3903"
         width="1"
         height="44"
         x="26"
         y="2" />
      <rect
         y="2"
         x="28"
         height="44"
         width="1"
         id="rect3905"
         style="fill:#ffffff;fill-opacity:1;stroke:none" />
      <rect
         style="fill:#ffffff;fill-opacity:1;stroke:none"
         id="rect3907"
         width="1"
         height="44"
         x="30"
         y="2" />
      <rect
         y="2"
         x="32"
         height="44"
         width="1"
         id="rect3909"
         style="fill:#ffffff;fill-opacity:1;stroke:none" />
      <path
         inkscape:connector-curvature="0"
         id="rect3911"
         d="m 34,2 0,44 1,0 0,-43 -1,-1 z"
         style="fill:#ffffff;fill-opacity:1;stroke:none" />
      <path
         inkscape:connector-curvature="0"
         id="rect3913"
         d="m 36,4 0,42 1,0 0,-41 -1,-1 z"
         style="fill:#ffffff;fill-opacity:1;stroke:none" />
      <path
         inkscape:connector-curvature="0"
         id="rect3915"
         d="m 38,6 0,40 1,0 0,-39 -1,-1 z"
         style="fill:#ffffff;fill-opacity:1;stroke:none" />
      <path
         inkscape:connector-curvature="0"
         id="rect3917"
         d="m 40,8 0,38 c 0.356637,0 0.683219,-0.0743 1,-0.1875 L 41,9 40,8 z"
         style="fill:#ffffff;fill-opacity:1;stroke:none" />
      <path
         inkscape:connector-curvature="0"
         id="rect3919"
         d="m 42,10 0,35.21875 C 42.608321,44.670446 43,43.887215 43,43 l 0,-32 -1,-1 z"
         style="fill:#ffffff;fill-opacity:1;stroke:none" />
      <path
         inkscape:connector-curvature="0"
         id="rect3921"
         d="M 5.78125,3 C 5.5228323,3.2867041 5.320224,3.6285833 5.1875,4 L 36,4 35,3 5.78125,3 z"
         style="fill:#ffffff;fill-opacity:1;stroke:none" />
      <path
         inkscape:connector-curvature="0"
         id="rect3923"
         d="M 5,5 5,6 11,6 38,6 37,5 5,5 z"
         style="fill:#ffffff;fill-opacity:1;stroke:none" />
      <path
         inkscape:connector-curvature="0"
         id="rect3925"
         d="M 5,7 5,8 9,8 C 9,7.6350349 9.1104917,7.2945442 9.28125,7 L 5,7 z m 7.71875,0 C 12.889508,7.2945442 13,7.6350349 13,8 L 40,8 39,7 12.71875,7 z"
         style="fill:#ffffff;fill-opacity:1;stroke:none" />
      <path
         inkscape:connector-curvature="0"
         id="rect3927"
         d="m 5,9 0,1 6,0 C 10.260396,10 9.6272927,9.5968956 9.28125,9 L 5,9 z m 6,1 31,0 L 41,9 12.71875,9 C 12.372707,9.5968956 11.739604,10 11,10 z"
         style="fill:#ffffff;fill-opacity:1;stroke:none" />
      <rect
         transform="matrix(0,1,-1,0,0,0)"
         y="-43"
         x="11"
         height="38"
         width="1"
         id="rect3929"
         style="fill:#ffffff;fill-opacity:1;stroke:none" />
      <rect
         style="fill:#ffffff;fill-opacity:1;stroke:none"
         id="rect3931"
         width="1"
         height="38"
         x="13"
         y="-43"
         transform="matrix(0,1,-1,0,0,0)" />
      <path
         inkscape:connector-curvature="0"
         id="rect3933"
         d="m 5,15 0,1 4,0 C 9,15.635035 9.1104918,15.294544 9.28125,15 L 5,15 z m 7.71875,0 C 12.889508,15.294544 13,15.635035 13,16 l 30,0 0,-1 -30.28125,0 z"
         style="fill:#ffffff;fill-opacity:1;stroke:none" />
      <path
         inkscape:connector-curvature="0"
         id="rect3935"
         d="m 5,17 0,1 6,0 C 10.260396,18 9.6272926,17.596896 9.28125,17 L 5,17 z m 6,1 32,0 0,-1 -30.28125,0 C 12.372707,17.596896 11.739604,18 11,18 z"
         style="fill:#ffffff;fill-opacity:1;stroke:none" />
      <rect
         transform="matrix(0,1,-1,0,0,0)"
         y="-43"
         x="19"
         height="38"
         width="1"
         id="rect3937"
         style="fill:#ffffff;fill-opacity:1;stroke:none" />
      <rect
         style="fill:#ffffff;fill-opacity:1;stroke:none"
         id="rect3939"
         width="1"
         height="38"
         x="21"
         y="-43"
         transform="matrix(0,1,-1,0,0,0)" />
      <path
         inkscape:connector-curvature="0"
         id="rect3941"
         d="m 5,23 0,1 4,0 C 9,23.635035 9.1104918,23.294544 9.28125,23 L 5,23 z m 7.71875,0 C 12.889508,23.294544 13,23.635035 13,24 l 30,0 0,-1 -30.28125,0 z"
         style="fill:#ffffff;fill-opacity:1;stroke:none" />
      <path
         inkscape:connector-curvature="0"
         id="rect3943"
         d="m 5,25 0,1 6,0 C 10.260396,26 9.6272926,25.596896 9.28125,25 L 5,25 z m 6,1 32,0 0,-1 -30.28125,0 C 12.372707,25.596896 11.739604,26 11,26 z"
         style="fill:#ffffff;fill-opacity:1;stroke:none" />
      <rect
         transform="matrix(0,1,-1,0,0,0)"
         y="-43"
         x="27"
         height="38"
         width="1"
         id="rect3945"
         style="fill:#ffffff;fill-opacity:1;stroke:none" />
      <rect
         style="fill:#ffffff;fill-opacity:1;stroke:none"
         id="rect3947"
         width="1"
         height="38"
         x="29"
         y="-43"
         transform="matrix(0,1,-1,0,0,0)" />
      <path
         inkscape:connector-curvature="0"
         id="rect3949"
         d="m 5,31 0,1 4,0 C 9,31.635035 9.1104918,31.294544 9.28125,31 L 5,31 z m 7.71875,0 C 12.889508,31.294544 13,31.635035 13,32 l 30,0 0,-1 -30.28125,0 z"
         style="fill:#ffffff;fill-opacity:1;stroke:none" />
      <path
         inkscape:connector-curvature="0"
         id="rect3951"
         d="m 5,33 0,1 6,0 C 10.260396,34 9.6272926,33.596896 9.28125,33 L 5,33 z m 6,1 32,0 0,-1 -30.28125,0 C 12.372707,33.596896 11.739604,34 11,34 z"
         style="fill:#ffffff;fill-opacity:1;stroke:none" />
      <rect
         transform="matrix(0,1,-1,0,0,0)"
         y="-43"
         x="35"
         height="38"
         width="1"
         id="rect3953"
         style="fill:#ffffff;fill-opacity:1;stroke:none" />
      <rect
         style="fill:#ffffff;fill-opacity:1;stroke:none"
         id="rect3955"
         width="1"
         height="38"
         x="37"
         y="-43"
         transform="matrix(0,1,-1,0,0,0)" />
      <path
         inkscape:connector-curvature="0"
         id="rect3957"
         d="m 5,39 0,1 4,0 C 9,39.635035 9.1104918,39.294544 9.28125,39 L 5,39 z m 7.71875,0 C 12.889508,39.294544 13,39.635035 13,40 l 30,0 0,-1 -30.28125,0 z"
         style="fill:#ffffff;fill-opacity:1;stroke:none" />
      <path
         inkscape:connector-curvature="0"
         id="rect3959"
         d="m 5,41 0,1 6,0 C 10.260396,42 9.6272926,41.596896 9.28125,41 L 5,41 z m 6,1 32,0 0,-1 -30.28125,0 C 12.372707,41.596896 11.739604,42 11,42 z"
         style="fill:#ffffff;fill-opacity:1;stroke:none" />
      <path
         inkscape:connector-curvature="0"
         id="rect3961"
         d="m 5,43 c 0,0.356637 0.0743,0.683219 0.1875,1 l 37.625,0 C 42.9257,43.683219 43,43.356637 43,43 L 5,43 z"
         style="fill:#ffffff;fill-opacity:1;stroke:none" />
      <path
         inkscape:connector-curvature="0"
         id="rect3963"
         d="M 5.78125,45 C 6.3295536,45.608321 7.1127853,46 8,46 l 32,0 c 0.887215,0 1.670446,-0.391679 2.21875,-1 l -36.4375,0 z"
         style="fill:#ffffff;fill-opacity:1;stroke:none" />
    </g>
  </g>
  <g
     inkscape:groupmode="layer"
     id="layer3"
     inkscape:label="Kiro">
    <path
       style="opacity:0.125;fill:url(#linearGradient3024);fill-opacity:1;stroke:none"
       d="m 34,2 -9,9 9,9 9,-9 z"
       id="path3808"
       inkscape:connector-curvature="0"
       sodipodi:nodetypes="ccccc" />
    <path
       style="fill:#81c784;fill-opacity:1;stroke:none"
       d="m 34,2 0,6 c 0,2 1,3 3,3 l 6,0 z"
       id="path3805"
       inkscape:connector-curvature="0"
       sodipodi:nodetypes="ccccc" />
  </g>
</svg>
