<?xml version="1.0" encoding="UTF-8" standalone="no"?>
<!-- Created with Inkscape (http://www.inkscape.org/) -->

<svg
   xmlns:dc="http://purl.org/dc/elements/1.1/"
   xmlns:cc="http://creativecommons.org/ns#"
   xmlns:rdf="http://www.w3.org/1999/02/22-rdf-syntax-ns#"
   xmlns:svg="http://www.w3.org/2000/svg"
   xmlns="http://www.w3.org/2000/svg"
   xmlns:xlink="http://www.w3.org/1999/xlink"
   xmlns:sodipodi="http://sodipodi.sourceforge.net/DTD/sodipodi-0.dtd"
   xmlns:inkscape="http://www.inkscape.org/namespaces/inkscape"
   inkscape:export-ydpi="480"
   inkscape:export-xdpi="480"
   inkscape:export-filename="/home/alex/Pictures/exports/Filetypes/text-html.png"
   sodipodi:docname="text-html.svg"
   inkscape:version="0.91 r13725"
   version="1.1"
   id="svg2"
   viewBox="0 0 192 192"
   height="192"
   width="192">
  <sodipodi:namedview
     inkscape:snap-center="true"
     inkscape:snap-grids="true"
     inkscape:bbox-nodes="true"
     inkscape:snap-bbox="true"
     inkscape:window-maximized="1"
     inkscape:window-y="27"
     inkscape:window-x="0"
     inkscape:window-height="1023"
     inkscape:window-width="1920"
     inkscape:object-nodes="true"
     inkscape:snap-smooth-nodes="false"
     borderlayer="true"
     inkscape:showpageshadow="false"
     units="px"
     showgrid="true"
     inkscape:current-layer="layer1"
     inkscape:document-units="px"
     inkscape:cy="91.527453"
     inkscape:cx="117.65765"
     inkscape:zoom="3.959798"
     inkscape:pageshadow="2"
     inkscape:pageopacity="0.0"
     borderopacity="1.0"
     bordercolor="#666666"
     pagecolor="#ffffff"
     id="base"
     inkscape:snap-page="false">
    <inkscape:grid
       type="xygrid"
       id="grid4136"
       empspacing="4" />
  </sodipodi:namedview>
  <defs
     id="defs4">
    <linearGradient
       id="linearGradient4888"
       inkscape:collect="always">
      <stop
         id="stop4890"
         offset="0"
         style="stop-color:#ffffff;stop-opacity:0.1" />
      <stop
         id="stop4892"
         offset="1"
         style="stop-color:#ffffff;stop-opacity:0" />
    </linearGradient>
    <linearGradient
       id="linearGradient4800"
       inkscape:collect="always">
      <stop
         id="stop4802"
         offset="0"
         style="stop-color:#212121;stop-opacity:0.2" />
      <stop
         id="stop4804"
         offset="1"
         style="stop-color:#212121;stop-opacity:0" />
    </linearGradient>
    <filter
       style="color-interpolation-filters:sRGB;"
       inkscape:label="Drop Shadow"
       id="filter4137"
       x="-0.5"
       y="-0.5"
       width="2"
       height="2">
      <feFlood
         flood-opacity="0.10000000000000001"
         flood-color="rgb(33,33,33)"
         result="flood"
         id="feFlood4139" />
      <feComposite
         in="flood"
         in2="SourceGraphic"
         operator="in"
         result="composite1"
         id="feComposite4141" />
      <feGaussianBlur
         in="composite1"
         stdDeviation="4"
         result="blur"
         id="feGaussianBlur4143" />
      <feOffset
         dx="4"
         dy="4"
         result="offset"
         id="feOffset4145" />
      <feComposite
         in="SourceGraphic"
         in2="offset"
         operator="over"
         result="composite2"
         id="feComposite4147" />
    </filter>
    <clipPath
       clipPathUnits="userSpaceOnUse"
       id="clipPath4245">
      <path
         inkscape:connector-curvature="0"
         style="color:#000000;clip-rule:nonzero;display:inline;overflow:visible;visibility:visible;opacity:1;isolation:auto;mix-blend-mode:normal;color-interpolation:sRGB;color-interpolation-filters:linearRGB;solid-color:#000000;solid-opacity:1;fill:#ff9800;fill-opacity:1;fill-rule:evenodd;stroke:none;stroke-width:4;stroke-linecap:round;stroke-linejoin:miter;stroke-miterlimit:4;stroke-dasharray:none;stroke-dashoffset:0;stroke-opacity:1;color-rendering:auto;image-rendering:auto;shape-rendering:auto;text-rendering:auto;enable-background:accumulate"
         d="m 44,868.36216 c -6.648,0 -12,5.352 -12,12 l 0,152.00004 c 0,6.648 5.352,12 12,12 l 104,0 c 6.648,0 12,-5.352 12,-12 l 0,-116.00004 -48,-48 -68,0 z"
         id="path4247" />
    </clipPath>
    <linearGradient
       gradientUnits="userSpaceOnUse"
       y2="75.999954"
       x2="160"
       y1="28"
       x1="112"
       id="linearGradient4806"
       xlink:href="#linearGradient4800"
       inkscape:collect="always" />
    <radialGradient
       gradientUnits="userSpaceOnUse"
       gradientTransform="matrix(1.9999997,2.0000001,-2.0000001,1.9999997,1752.7245,-980.36195)"
       r="64"
       fy="892.36218"
       fx="32"
       cy="892.36218"
       cx="32"
       id="radialGradient4894"
       xlink:href="#linearGradient4888"
       inkscape:collect="always" />
    <filter
       style="color-interpolation-filters:sRGB;"
       inkscape:label="Drop Shadow"
       id="filter4263">
      <feFlood
         flood-opacity="0.12"
         flood-color="rgb(0,0,0)"
         result="flood"
         id="feFlood4265" />
      <feComposite
         in="flood"
         in2="SourceGraphic"
         operator="in"
         result="composite1"
         id="feComposite4267" />
      <feGaussianBlur
         in="composite1"
         stdDeviation="2"
         result="blur"
         id="feGaussianBlur4269" />
      <feOffset
         dx="0"
         dy="0"
         result="offset"
         id="feOffset4271" />
      <feComposite
         in="SourceGraphic"
         in2="offset"
         operator="over"
         result="fbSourceGraphic"
         id="feComposite4273" />
      <feColorMatrix
         result="fbSourceGraphicAlpha"
         in="fbSourceGraphic"
         values="0 0 0 -1 0 0 0 0 -1 0 0 0 0 -1 0 0 0 0 1 0"
         id="feColorMatrix4275" />
      <feFlood
         id="feFlood4277"
         flood-opacity="0.23999999999999999"
         flood-color="rgb(0,0,0)"
         result="flood"
         in="fbSourceGraphic" />
      <feComposite
         id="feComposite4279"
         in2="fbSourceGraphic"
         in="flood"
         operator="in"
         result="composite1" />
      <feGaussianBlur
         id="feGaussianBlur4281"
         in="composite1"
         stdDeviation="2"
         result="blur" />
      <feOffset
         id="feOffset4283"
         dx="0"
         dy="4"
         result="offset" />
      <feComposite
         id="feComposite4285"
         in2="offset"
         in="fbSourceGraphic"
         operator="over"
         result="composite2" />
    </filter>
  </defs>
  <metadata
     id="metadata7">
    <rdf:RDF>
      <cc:Work
         rdf:about="">
        <dc:format>image/svg+xml</dc:format>
        <dc:type
           rdf:resource="http://purl.org/dc/dcmitype/StillImage" />
        <dc:title />
      </cc:Work>
    </rdf:RDF>
  </metadata>
  <g
     inkscape:label="Main"
     inkscape:groupmode="layer"
     id="layer1"
     transform="translate(0,-860.36216)">
    <path
       style="color:#000000;clip-rule:nonzero;display:inline;overflow:visible;visibility:visible;opacity:1;isolation:auto;mix-blend-mode:normal;color-interpolation:sRGB;color-interpolation-filters:linearRGB;solid-color:#000000;solid-opacity:1;fill:#e0e0e0;fill-opacity:1;fill-rule:evenodd;stroke:none;stroke-width:4;stroke-linecap:round;stroke-linejoin:miter;stroke-miterlimit:4;stroke-dasharray:none;stroke-dashoffset:0;stroke-opacity:1;color-rendering:auto;image-rendering:auto;shape-rendering:auto;text-rendering:auto;enable-background:accumulate;filter:url(#filter4263)"
       d="M 44 8 C 37.352 8 32 13.352 32 20 L 32 172 C 32 178.648 37.352 184 44 184 L 148 184 C 154.648 184 160 178.648 160 172 L 160 56 L 112 8 L 44 8 z "
       transform="translate(0,860.36216)"
       id="rect4138" />
    <path
       id="path4343"
       transform="translate(0,860.36216)"
       d="M 112 8 L 112 44 C 112 47.580997 113.56134 50.775704 116.0332 52.970703 L 160 96.9375 L 160 56 L 112 8 z "
       style="color:#000000;clip-rule:nonzero;display:inline;overflow:visible;visibility:visible;opacity:1;isolation:auto;mix-blend-mode:normal;color-interpolation:sRGB;color-interpolation-filters:linearRGB;solid-color:#000000;solid-opacity:1;fill:url(#linearGradient4806);fill-opacity:1;fill-rule:evenodd;stroke:none;stroke-width:4;stroke-linecap:round;stroke-linejoin:miter;stroke-miterlimit:4;stroke-dasharray:none;stroke-dashoffset:0;stroke-opacity:1;color-rendering:auto;image-rendering:auto;shape-rendering:auto;text-rendering:auto;enable-background:accumulate" />
    <path
       style="color:#000000;clip-rule:nonzero;display:inline;overflow:visible;visibility:visible;opacity:1;isolation:auto;mix-blend-mode:normal;color-interpolation:sRGB;color-interpolation-filters:linearRGB;solid-color:#000000;solid-opacity:1;fill:#f5f5f5;fill-opacity:1;fill-rule:evenodd;stroke:none;stroke-width:4;stroke-linecap:round;stroke-linejoin:miter;stroke-miterlimit:4;stroke-dasharray:none;stroke-dashoffset:0;stroke-opacity:1;color-rendering:auto;image-rendering:auto;shape-rendering:auto;text-rendering:auto;enable-background:accumulate;filter:url(#filter4137)"
       d="m 160,916.36216 -36,2e-5 c -6.648,0 -12,-5.352 -12,-12 l 0,-36.00002 z"
       id="rect4140"
       inkscape:connector-curvature="0"
       sodipodi:nodetypes="ccccc"
       clip-path="url(#clipPath4245)" />
    <path
       style="color:#000000;clip-rule:nonzero;display:inline;overflow:visible;visibility:visible;opacity:0.1;isolation:auto;mix-blend-mode:normal;color-interpolation:sRGB;color-interpolation-filters:linearRGB;solid-color:#000000;solid-opacity:1;fill:#212121;fill-opacity:1;fill-rule:evenodd;stroke:none;stroke-width:4;stroke-linecap:round;stroke-linejoin:miter;stroke-miterlimit:4;stroke-dasharray:none;stroke-dashoffset:0;stroke-opacity:1;color-rendering:auto;image-rendering:auto;shape-rendering:auto;text-rendering:auto;enable-background:accumulate"
       d="m 32,1031.3622 0,1 c 0,6.648 5.352,12 12,12 l 104,0 c 6.648,0 12,-5.352 12,-12 l 0,-1 c 0,6.648 -5.352,12 -12,12 l -104,0 c -6.648,0 -12,-5.352 -12,-12 z"
       id="rect4138-6"
       inkscape:connector-curvature="0" />
    <path
       style="color:#000000;clip-rule:nonzero;display:inline;overflow:visible;visibility:visible;opacity:0.4;isolation:auto;mix-blend-mode:normal;color-interpolation:sRGB;color-interpolation-filters:linearRGB;solid-color:#000000;solid-opacity:1;fill:#ffffff;fill-opacity:1;fill-rule:evenodd;stroke:none;stroke-width:4;stroke-linecap:round;stroke-linejoin:miter;stroke-miterlimit:4;stroke-dasharray:none;stroke-dashoffset:0;stroke-opacity:1;color-rendering:auto;image-rendering:auto;shape-rendering:auto;text-rendering:auto;enable-background:accumulate"
       d="m 44,868.36216 c -6.648,0 -12,5.352 -12,12 l 0,1 c 0,-6.648 5.352,-12 12,-12 l 68,0 47,47 1,0 -48,-48 z"
       id="rect4138-9"
       inkscape:connector-curvature="0"
       sodipodi:nodetypes="sscsccccs" />
    <path
       style="color:#000000;clip-rule:nonzero;display:inline;overflow:visible;visibility:visible;opacity:0.1;isolation:auto;mix-blend-mode:normal;color-interpolation:sRGB;color-interpolation-filters:linearRGB;solid-color:#000000;solid-opacity:1;fill:#212121;fill-opacity:1;fill-rule:evenodd;stroke:none;stroke-width:4;stroke-linecap:round;stroke-linejoin:miter;stroke-miterlimit:4;stroke-dasharray:none;stroke-dashoffset:0;stroke-opacity:1;color-rendering:auto;image-rendering:auto;shape-rendering:auto;text-rendering:auto;enable-background:accumulate"
       d="m 112,44 0,1 c 0,6.648 5.352,12 12,12 l 36,0 0,-1 -36,0 c -6.648,0 -12,-5.352 -12,-12 z"
       transform="translate(0,860.36216)"
       id="rect4140-8"
       inkscape:connector-curvature="0"
       sodipodi:nodetypes="cssccsc" />
    <path
       id="H"
       style="fill:#f4511e"
       d="m 60,960.36216 0,16 -8,0 0,-16 -8,0 0,40.00004 8,0 0,-16.00004 8,0 0,16.00004 8,0 0,-40.00004 z m 76,0 c -3,0 -5.8,1.2 -8,3 -2.2,-2 -5,-3 -8,-3 -6.6,0 -12,5.4 -12,12 l 0,28.00004 8,0 0,-28.00004 c 0,-2.2 1.8,-4 4,-4 2.2,0 4,1.8 4,4 l 0,28.00004 0,0 8,0 0,0 0,-28.00004 c 0,-2.2 1.8,-4 4,-4 2.2,0 4,1.8 4,4 l 0,28.00004 8,0 0,-28.00004 c 0,-6.6 -5.4,-12 -12,-12 z m -52,40.00004 8,0 0,-32.00004 8,0 0,-8 -24,0 0,8 8,0 z"
       inkscape:connector-curvature="0" />
  </g>
  <g
     sodipodi:insensitive="true"
     inkscape:label="Finish"
     id="layer2"
     inkscape:groupmode="layer">
    <path
       style="color:#000000;clip-rule:nonzero;display:inline;overflow:visible;visibility:visible;opacity:1;isolation:auto;mix-blend-mode:normal;color-interpolation:sRGB;color-interpolation-filters:linearRGB;solid-color:#000000;solid-opacity:1;fill:url(#radialGradient4894);fill-opacity:1;fill-rule:evenodd;stroke:none;stroke-width:4;stroke-linecap:round;stroke-linejoin:miter;stroke-miterlimit:4;stroke-dasharray:none;stroke-dashoffset:0;stroke-opacity:1;color-rendering:auto;image-rendering:auto;shape-rendering:auto;text-rendering:auto;enable-background:accumulate"
       d="m 44,868.36216 c -6.648,0 -12,5.352 -12,12 l 0,152.00004 c 0,6.648 5.352,12 12,12 l 104,0 c 6.648,0 12,-5.352 12,-12 l 0,-116.00004 -48,-48 -68,0 z"
       id="rect4138-68"
       inkscape:connector-curvature="0"
       transform="translate(0,-860.36216)" />
  </g>
</svg>
