
<svg xmlns="http://www.w3.org/2000/svg" xmlns:xlink="http://www.w3.org/1999/xlink" width="48px" height="48px" viewBox="0 0 48 48" version="1.1">
<g id="surface1">
<path style=" stroke:none;fill-rule:nonzero;fill:rgb(17.647059%,17.647059%,17.647059%);fill-opacity:1;" d="M 10 2 C 9.054688 2 8 3.054688 8 4 L 8 44 C 8 44.890625 9.109375 46 10 46 L 38 46 C 38.890625 46 39.984375 44.890625 40 44 L 40 14 L 28 2 Z M 10 2 "/>
<path style=" stroke:none;fill-rule:nonzero;fill:rgb(0%,0%,0%);fill-opacity:0.196078;" d="M 30 14 L 40 24 L 40 14 Z M 30 14 "/>
<path style=" stroke:none;fill-rule:nonzero;fill:rgb(86.27451%,86.27451%,86.27451%);fill-opacity:1;" d="M 11.015625 27.546875 C 11.015625 26.683594 11.164062 25.828125 11.453125 24.984375 C 11.753906 24.132812 12.179688 23.371094 12.734375 22.707031 C 13.296875 22.042969 13.988281 21.507812 14.796875 21.085938 C 15.617188 20.671875 16.539062 20.472656 17.574219 20.472656 C 18.808594 20.472656 19.859375 20.757812 20.746094 21.328125 C 21.644531 21.90625 22.3125 22.644531 22.738281 23.574219 L 20.6875 25.027344 C 20.539062 24.628906 20.339844 24.289062 20.089844 24.027344 C 19.847656 23.753906 19.582031 23.53125 19.28125 23.371094 C 18.992188 23.203125 18.703125 23.097656 18.394531 23.023438 C 18.082031 22.949219 17.78125 22.910156 17.507812 22.910156 C 16.871094 22.910156 16.320312 23.046875 15.847656 23.332031 C 15.363281 23.605469 14.96875 23.972656 14.648438 24.425781 C 14.335938 24.871094 14.09375 25.375 13.933594 25.945312 C 13.769531 26.503906 13.703125 27.0625 13.703125 27.632812 C 13.703125 28.253906 13.78125 28.855469 13.96875 29.445312 C 14.164062 30.015625 14.429688 30.53125 14.761719 30.964844 C 15.109375 31.40625 15.523438 31.753906 15.996094 32.027344 C 16.46875 32.292969 17 32.429688 17.5625 32.429688 C 17.851562 32.429688 18.164062 32.386719 18.472656 32.300781 C 18.773438 32.230469 19.074219 32.101562 19.363281 31.921875 C 19.648438 31.753906 19.925781 31.53125 20.167969 31.269531 C 20.410156 30.984375 20.617188 30.65625 20.769531 30.269531 L 22.945312 31.566406 C 22.738281 32.101562 22.441406 32.578125 22.046875 32.988281 C 21.65625 33.386719 21.207031 33.726562 20.710938 34 C 20.203125 34.285156 19.683594 34.496094 19.132812 34.644531 C 18.566406 34.789062 18.023438 34.863281 17.484375 34.863281 C 16.527344 34.863281 15.648438 34.652344 14.855469 34.222656 C 14.070312 33.800781 13.390625 33.242188 12.8125 32.566406 C 12.238281 31.871094 11.800781 31.089844 11.476562 30.226562 C 11.164062 29.351562 11.015625 28.453125 11.015625 27.546875 "/>
<path style=" stroke:none;fill-rule:nonzero;fill:rgb(86.27451%,86.27451%,86.27451%);fill-opacity:1;" d="M 36.582031 26.273438 L 33.78125 26.273438 L 33.148438 29.003906 L 35.683594 29.003906 L 35.683594 31.003906 L 32.6875 31.003906 L 31.800781 34.75 L 29.714844 34.75 L 30.613281 31.003906 L 28.296875 31.003906 L 27.429688 34.75 L 25.34375 34.75 L 26.230469 31.003906 L 24.066406 31.003906 L 24.066406 29.003906 L 26.695312 29.003906 L 27.339844 26.273438 L 24.976562 26.273438 L 24.976562 24.386719 L 27.777344 24.386719 L 28.6875 20.546875 L 30.773438 20.546875 L 29.839844 24.386719 L 32.167969 24.386719 L 33.054688 20.546875 L 35.144531 20.546875 L 34.230469 24.386719 L 36.582031 24.386719 L 36.582031 26.273438 M 31.085938 29.003906 L 31.695312 26.273438 L 29.402344 26.273438 L 28.769531 29.003906 L 31.085938 29.003906 "/>
<path style=" stroke:none;fill-rule:nonzero;fill:rgb(100%,100%,100%);fill-opacity:0.392157;" d="M 28 2 L 40 14 L 30 14 C 29.109375 14 28 12.890625 28 12 Z M 28 2 "/>
</g>
</svg>
