<?xml version="1.0" encoding="UTF-8" standalone="no"?>
<svg
   xmlns:dc="http://purl.org/dc/elements/1.1/"
   xmlns:cc="http://creativecommons.org/ns#"
   xmlns:rdf="http://www.w3.org/1999/02/22-rdf-syntax-ns#"
   xmlns:svg="http://www.w3.org/2000/svg"
   xmlns="http://www.w3.org/2000/svg"
   xmlns:xlink="http://www.w3.org/1999/xlink"
   xmlns:sodipodi="http://sodipodi.sourceforge.net/DTD/sodipodi-0.dtd"
   xmlns:inkscape="http://www.inkscape.org/namespaces/inkscape"
   viewBox="1 1 192 192"
   id="svg3610"
   version="1.1"
   inkscape:version="0.91 r13725"
   sodipodi:docname="chrome-recovery-tool-alt.svg"
   width="192"
   height="192"
   inkscape:export-filename="/home/alex/Pictures/vector/Icon of the week/chrome-recovery-tool-alt.png"
   inkscape:export-xdpi="480"
   inkscape:export-ydpi="480">
  <sodipodi:namedview
     pagecolor="#ffffff"
     bordercolor="#666666"
     borderopacity="1"
     objecttolerance="10"
     gridtolerance="10"
     guidetolerance="10"
     inkscape:pageopacity="0"
     inkscape:pageshadow="2"
     inkscape:window-width="1920"
     inkscape:window-height="1023"
     id="namedview3747"
     showgrid="true"
     inkscape:showpageshadow="false"
     inkscape:snap-bbox="true"
     inkscape:bbox-nodes="true"
     inkscape:snap-center="true"
     inkscape:object-nodes="false"
     inkscape:snap-smooth-nodes="false"
     inkscape:zoom="0.70710678"
     inkscape:cx="-487.04275"
     inkscape:cy="-4.3760431"
     inkscape:window-x="0"
     inkscape:window-y="27"
     inkscape:window-maximized="1"
     inkscape:current-layer="layer2"
     inkscape:snap-intersection-paths="false"
     inkscape:object-paths="true">
    <inkscape:grid
       empspacing="4"
       id="grid3763"
       type="xygrid" />
  </sodipodi:namedview>
  <metadata
     id="metadata3749">
    <rdf:RDF>
      <cc:Work
         rdf:about="">
        <dc:format>image/svg+xml</dc:format>
        <dc:type
           rdf:resource="http://purl.org/dc/dcmitype/StillImage" />
        <dc:title />
      </cc:Work>
    </rdf:RDF>
  </metadata>
  <defs
     id="defs3612">
    <linearGradient
       inkscape:collect="always"
       id="linearGradient8142">
      <stop
         style="stop-color:#212121;stop-opacity:0.2"
         offset="0"
         id="stop8144" />
      <stop
         style="stop-color:#212121;stop-opacity:0;"
         offset="1"
         id="stop8146" />
    </linearGradient>
    <circle
       r="88"
       cx="96"
       cy="96"
       id="a" />
    <linearGradient
       y2="44.354"
       x2="81.836998"
       y1="75.021004"
       x1="29.337"
       gradientUnits="userSpaceOnUse"
       id="linearGradient3751"
       xlink:href="#c"
       inkscape:collect="always" />
    <linearGradient
       y2="130.33"
       x2="52.537998"
       y1="164.5"
       x1="110.87"
       gradientUnits="userSpaceOnUse"
       id="linearGradient3753"
       xlink:href="#d"
       inkscape:collect="always" />
    <linearGradient
       y2="114.13"
       x2="136.55"
       y1="49.804001"
       x1="121.86"
       gradientUnits="userSpaceOnUse"
       id="linearGradient3755"
       xlink:href="#g"
       inkscape:collect="always" />
    <linearGradient
       y2="114.13"
       x2="136.55"
       y1="49.804001"
       x1="121.86"
       gradientUnits="userSpaceOnUse"
       id="linearGradient3757"
       xlink:href="#g"
       inkscape:collect="always" />
    <linearGradient
       y2="44.354"
       x2="81.836998"
       y1="75.021004"
       x1="29.337"
       gradientUnits="userSpaceOnUse"
       id="linearGradient3759"
       xlink:href="#c"
       inkscape:collect="always" />
    <linearGradient
       y2="130.33"
       x2="52.537998"
       y1="164.5"
       x1="110.87"
       gradientUnits="userSpaceOnUse"
       id="linearGradient3761"
       xlink:href="#d"
       inkscape:collect="always" />
    <clipPath
       id="b-1">
      <use
         y="0"
         x="0"
         style="overflow:visible"
         id="use3616-5"
         height="100%"
         xlink:href="#a"
         overflow="visible"
         width="100%" />
    </clipPath>
    <clipPath
       id="b-2">
      <use
         y="0"
         x="0"
         style="overflow:visible"
         id="use3616-0"
         height="100%"
         xlink:href="#a"
         overflow="visible"
         width="100%" />
    </clipPath>
    <filter
       style="color-interpolation-filters:sRGB;"
       inkscape:label="Drop Shadow"
       id="filter6668">
      <feFlood
         flood-opacity="0.2"
         flood-color="rgb(33,33,33)"
         result="flood"
         id="feFlood6670" />
      <feComposite
         in="flood"
         in2="SourceGraphic"
         operator="in"
         result="composite1"
         id="feComposite6672" />
      <feGaussianBlur
         in="composite1"
         stdDeviation="4"
         result="blur"
         id="feGaussianBlur6674" />
      <feOffset
         dx="0"
         dy="4"
         result="offset"
         id="feOffset6676" />
      <feComposite
         in="SourceGraphic"
         in2="offset"
         operator="over"
         result="composite2"
         id="feComposite6678" />
    </filter>
    <filter
       style="color-interpolation-filters:sRGB;"
       inkscape:label="Drop Shadow"
       id="filter6680"
       x="-0.5"
       y="-0.5"
       width="2"
       height="2">
      <feFlood
         flood-opacity="0.2"
         flood-color="rgb(33,33,33)"
         result="flood"
         id="feFlood6682" />
      <feComposite
         in="flood"
         in2="SourceGraphic"
         operator="in"
         result="composite1"
         id="feComposite6684" />
      <feGaussianBlur
         in="composite1"
         stdDeviation="4"
         result="blur"
         id="feGaussianBlur6686" />
      <feOffset
         dx="0"
         dy="4"
         result="offset"
         id="feOffset6688" />
      <feComposite
         in="SourceGraphic"
         in2="offset"
         operator="over"
         result="composite2"
         id="feComposite6690" />
    </filter>
    <filter
       id="filter7343"
       inkscape:label="Drop Shadow"
       style="color-interpolation-filters:sRGB;">
      <feFlood
         id="feFlood7345"
         result="flood"
         flood-color="rgb(33,33,33)"
         flood-opacity="0.2" />
      <feComposite
         id="feComposite7347"
         result="composite1"
         operator="in"
         in2="SourceGraphic"
         in="flood" />
      <feGaussianBlur
         id="feGaussianBlur7349"
         result="blur"
         stdDeviation="4"
         in="composite1" />
      <feOffset
         id="feOffset7351"
         result="offset"
         dy="4"
         dx="0" />
      <feComposite
         id="feComposite7353"
         result="composite2"
         operator="over"
         in2="offset"
         in="SourceGraphic" />
    </filter>
    <filter
       id="filter7369"
       inkscape:label="Drop Shadow"
       style="color-interpolation-filters:sRGB;">
      <feFlood
         id="feFlood7371"
         result="flood"
         flood-color="rgb(0,0,0)"
         flood-opacity="0.2" />
      <feComposite
         id="feComposite7373"
         result="composite1"
         operator="in"
         in2="SourceGraphic"
         in="flood" />
      <feGaussianBlur
         id="feGaussianBlur7375"
         result="blur"
         stdDeviation="4"
         in="composite1" />
      <feOffset
         id="feOffset7377"
         result="offset"
         dy="4"
         dx="0" />
      <feComposite
         id="feComposite7379"
         result="composite2"
         operator="over"
         in2="offset"
         in="SourceGraphic" />
    </filter>
    <linearGradient
       inkscape:collect="always"
       xlink:href="#linearGradient8142"
       id="linearGradient8148"
       x1="28.536238"
       y1="28.590414"
       x2="140"
       y2="140"
       gradientUnits="userSpaceOnUse" />
    <filter
       style="color-interpolation-filters:sRGB;"
       inkscape:label="Drop Shadow"
       id="filter8150">
      <feFlood
         flood-opacity="0.2"
         flood-color="rgb(0,0,0)"
         result="flood"
         id="feFlood8152" />
      <feComposite
         in="flood"
         in2="SourceGraphic"
         operator="in"
         result="composite1"
         id="feComposite8154" />
      <feGaussianBlur
         in="composite1"
         stdDeviation="4"
         result="blur"
         id="feGaussianBlur8156" />
      <feOffset
         dx="0"
         dy="4"
         result="offset"
         id="feOffset8158" />
      <feComposite
         in="SourceGraphic"
         in2="offset"
         operator="over"
         result="composite2"
         id="feComposite8160" />
    </filter>
  </defs>
  <clipPath
     id="b">
    <use
       y="0"
       x="0"
       style="overflow:visible"
       id="use3616"
       height="100%"
       xlink:href="#a"
       overflow="visible"
       width="100%" />
  </clipPath>
  <radialGradient
     r="84.078003"
     gradientTransform="translate(-576,0)"
     cx="668.17999"
     cy="55.948002"
     gradientUnits="userSpaceOnUse"
     id="l">
    <stop
       id="stop3684"
       offset="0"
       stop-opacity=".2"
       stop-color="#3E2723" />
    <stop
       id="stop3686"
       offset="1"
       stop-opacity="0"
       stop-color="#3E2723" />
  </radialGradient>
  <radialGradient
     r="78.043999"
     gradientTransform="translate(-576,0)"
     cx="597.88"
     cy="48.52"
     gradientUnits="userSpaceOnUse"
     id="p">
    <stop
       id="stop3705"
       offset="0"
       stop-opacity=".2"
       stop-color="#3E2723" />
    <stop
       id="stop3707"
       offset="1"
       stop-opacity="0"
       stop-color="#3E2723" />
  </radialGradient>
  <radialGradient
     r="87.870003"
     gradientTransform="translate(-576,0)"
     cx="671.84003"
     cy="96.138"
     gradientUnits="userSpaceOnUse"
     id="q">
    <stop
       id="stop3712"
       offset="0"
       stop-opacity=".2"
       stop-color="#263238" />
    <stop
       id="stop3714"
       offset="1"
       stop-opacity="0"
       stop-color="#263238" />
  </radialGradient>
  <circle
     r="62"
     cy="79"
     cx="79"
     id="path7355"
     style="color:#000000;clip-rule:nonzero;display:inline;overflow:visible;visibility:visible;opacity:1;isolation:auto;mix-blend-mode:normal;color-interpolation:sRGB;color-interpolation-filters:linearRGB;solid-color:#000000;solid-opacity:1;fill:#212121;fill-opacity:0;fill-rule:evenodd;stroke:none;stroke-width:5.63500023;stroke-linecap:round;stroke-linejoin:round;stroke-miterlimit:4;stroke-dasharray:none;stroke-dashoffset:0;stroke-opacity:1;color-rendering:auto;image-rendering:auto;shape-rendering:auto;text-rendering:auto;enable-background:accumulate;filter:url(#filter7369)" />
  <g
     transform="matrix(0.81578948,0,0,0.81578948,-1.8037002,1.6898558)"
     id="g5862"
     style="filter:url(#filter8150)">
    <g
       transform="matrix(0.86363636,0,0,0.86363636,16.16591,11.858182)"
       clip-path="url(#b)"
       id="g3618">
      <path
         d="m 21.97,8 0,108 39.39,0 34.64,-60 88,0 0,-48 z"
         id="path3620"
         inkscape:connector-curvature="0"
         style="fill:#db4437" />
      <linearGradient
         id="c"
         y2="44.354"
         gradientUnits="userSpaceOnUse"
         y1="75.021004"
         x2="81.836998"
         x1="29.337">
        <stop
           stop-color="#A52714"
           stop-opacity=".6"
           offset="0"
           id="stop3623" />
        <stop
           stop-color="#A52714"
           stop-opacity="0"
           offset=".66"
           id="stop3625" />
      </linearGradient>
      <path
         d="m 21.97,8 0,108 39.39,0 34.64,-60 88,0 0,-48 z"
         id="path3627"
         inkscape:connector-curvature="0"
         style="fill:url(#linearGradient3751)" />
    </g>
    <path
       style="color:#000000;clip-rule:nonzero;display:inline;overflow:visible;visibility:visible;opacity:1;isolation:auto;mix-blend-mode:normal;color-interpolation:sRGB;color-interpolation-filters:linearRGB;solid-color:#000000;solid-opacity:1;fill:#3e2723;fill-opacity:0.2;fill-rule:evenodd;stroke:none;stroke-width:5.63500023;stroke-linecap:round;stroke-linejoin:round;stroke-miterlimit:4;stroke-dasharray:none;stroke-dashoffset:0;stroke-opacity:1;color-rendering:auto;image-rendering:auto;shape-rendering:auto;text-rendering:auto;enable-background:accumulate"
       d="m 79.130397,59.358186 -19.802072,34.113061 0.252897,0.43373 19.549175,-33.683155 19.944602,0 19.944601,0 47.76448,0 -0.44487,-0.863636 -47.31961,0 -19.944601,0 z"
       id="path5053-6-81"
       inkscape:connector-curvature="0"
       sodipodi:nodetypes="ccccccccccc" />
    <path
       clip-path="url(#b)"
       d="m 62.31,115.65 -39.83,-68.31 -0.58,1 39.54,67.8 z"
       transform="matrix(0.86363636,0,0,0.86363636,16.16591,11.858182)"
       id="path3629"
       inkscape:connector-curvature="0"
       style="fill:#3e2723;fill-opacity:0.15" />
    <g
       transform="matrix(0.86363636,0,0,0.86363636,16.16591,11.858182)"
       clip-path="url(#b)"
       id="g3631">
      <path
         d="m 8,184 83.77,0 38.88,-38.88 0,-29.12 -69.29,0 L 8,24.48 Z"
         id="path3633"
         inkscape:connector-curvature="0"
         style="fill:#0f9d58" />
      <linearGradient
         id="d"
         y2="130.33"
         gradientUnits="userSpaceOnUse"
         y1="164.5"
         x2="52.537998"
         x1="110.87">
        <stop
           stop-color="#055524"
           stop-opacity=".4"
           offset="0"
           id="stop3636" />
        <stop
           stop-color="#055524"
           stop-opacity="0"
           offset=".33"
           id="stop3638" />
      </linearGradient>
      <path
         d="m 8,184 83.77,0 38.88,-38.88 0,-29.12 -69.29,0 L 8,24.48 Z"
         id="path3640"
         inkscape:connector-curvature="0"
         style="fill:url(#linearGradient3753)" />
    </g>
    <path
       clip-path="url(#b)"
       d="m 129.84,117.33 -0.83,-0.48 -38.39,67.15 1.15,0 38.1,-66.64 z"
       transform="matrix(0.86363636,0,0,0.86363636,16.16591,11.858182)"
       id="path3642"
       inkscape:connector-curvature="0"
       style="fill:#263238;fill-opacity:0.15" />
    <g
       transform="matrix(0.86363636,0,0,0.86363636,16.16591,11.858182)"
       clip-path="url(#b)"
       id="g3644">
      <defs
         id="defs3646">
        <path
           id="e"
           d="m 8,184 83.77,0 38.88,-38.88 0,-29.12 -69.29,0 L 8,24.48 Z"
           inkscape:connector-curvature="0" />
      </defs>
      <clipPath
         id="f">
        <use
           width="100%"
           overflow="visible"
           xlink:href="#e"
           height="100%"
           id="use3650"
           style="overflow:visible"
           x="0"
           y="0" />
      </clipPath>
      <g
         clip-path="url(#f)"
         id="g3652">
        <path
           d="m 96,56 34.65,60 -38.88,68 92.23,0 0,-128 z"
           id="path3654"
           inkscape:connector-curvature="0"
           style="fill:#ffcd40" />
        <linearGradient
           id="g"
           y2="114.13"
           gradientUnits="userSpaceOnUse"
           y1="49.804001"
           x2="136.55"
           x1="121.86">
          <stop
             stop-color="#EA6100"
             stop-opacity=".3"
             offset="0"
             id="stop3657" />
          <stop
             stop-color="#EA6100"
             stop-opacity="0"
             offset=".66"
             id="stop3659" />
        </linearGradient>
        <path
           d="m 96,56 34.65,60 -38.88,68 92.23,0 0,-128 z"
           id="path3661"
           inkscape:connector-curvature="0"
           style="fill:url(#linearGradient3755)" />
      </g>
    </g>
    <g
       transform="matrix(0.86363636,0,0,0.86363636,16.16591,11.858182)"
       clip-path="url(#b)"
       id="g3663">
      <path
         d="m 96,56 34.65,60 -38.88,68 92.23,0 0,-128 z"
         id="path3665"
         inkscape:connector-curvature="0"
         style="fill:#ffcd40" />
      <path
         d="m 96,56 34.65,60 -38.88,68 92.23,0 0,-128 z"
         id="path3667"
         inkscape:connector-curvature="0"
         style="fill:url(#linearGradient3757)" />
    </g>
    <g
       transform="matrix(0.86363636,0,0,0.86363636,16.16591,11.858182)"
       clip-path="url(#b)"
       id="g3669">
      <defs
         id="defs3671">
        <path
           id="i"
           d="m 96,56 34.65,60 -38.88,68 92.23,0 0,-128 z"
           inkscape:connector-curvature="0" />
      </defs>
      <clipPath
         id="j">
        <use
           width="100%"
           overflow="visible"
           xlink:href="#i"
           height="100%"
           id="use3675"
           style="overflow:visible"
           x="0"
           y="0" />
      </clipPath>
      <g
         clip-path="url(#j)"
         id="g3677">
        <path
           d="m 21.97,8 0,108 39.39,0 34.64,-60 88,0 0,-48 z"
           id="path3679"
           inkscape:connector-curvature="0"
           style="fill:#db4437" />
        <path
           d="m 21.97,8 0,108 39.39,0 34.64,-60 88,0 0,-48 z"
           id="path3681"
           inkscape:connector-curvature="0"
           style="fill:url(#linearGradient3759)" />
      </g>
    </g>
    <path
       clip-path="url(#b)"
       d="M 96,56 96,76.95 174.4,56 Z"
       transform="matrix(0.86363636,0,0,0.86363636,16.16591,11.858182)"
       id="path3688"
       inkscape:connector-curvature="0"
       style="fill:url(#l)" />
    <g
       transform="matrix(0.86363636,0,0,0.86363636,16.16591,11.858182)"
       clip-path="url(#b)"
       id="g3690">
      <defs
         id="defs3692">
        <path
           id="m"
           d="m 21.97,8 0,40.34 L 61.36,116 96,56 l 88,0 0,-48 z"
           inkscape:connector-curvature="0" />
      </defs>
      <clipPath
         id="n">
        <use
           width="100%"
           overflow="visible"
           xlink:href="#m"
           height="100%"
           id="use3696"
           style="overflow:visible"
           x="0"
           y="0" />
      </clipPath>
      <g
         clip-path="url(#n)"
         id="g3698">
        <path
           d="m 8,184 83.77,0 38.88,-38.88 0,-29.12 -69.29,0 L 8,24.48 Z"
           id="path3700"
           inkscape:connector-curvature="0"
           style="fill:#0f9d58" />
        <path
           d="m 8,184 83.77,0 38.88,-38.88 0,-29.12 -69.29,0 L 8,24.48 Z"
           id="path3702"
           inkscape:connector-curvature="0"
           style="fill:url(#linearGradient3761)" />
      </g>
    </g>
    <path
       clip-path="url(#b)"
       d="M 21.97,48.45 79.22,105.69 61.36,116 Z"
       transform="matrix(0.86363636,0,0,0.86363636,16.16591,11.858182)"
       id="path3709"
       inkscape:connector-curvature="0"
       style="fill:url(#p)" />
    <path
       clip-path="url(#b)"
       d="m 91.83,183.89 20.96,-78.2 17.86,10.31 z"
       transform="matrix(0.86363636,0,0,0.86363636,16.16591,11.858182)"
       id="path3716"
       inkscape:connector-curvature="0"
       style="fill:url(#q)" />
    <path
       style="color:#000000;clip-rule:nonzero;display:inline;overflow:visible;visibility:visible;opacity:1;isolation:auto;mix-blend-mode:normal;color-interpolation:sRGB;color-interpolation-filters:linearRGB;solid-color:#000000;solid-opacity:1;fill:#f1f1f1;fill-opacity:1;fill-rule:evenodd;stroke:none;stroke-width:5.63500023;stroke-linecap:round;stroke-linejoin:round;stroke-miterlimit:4;stroke-dasharray:none;stroke-dashoffset:0;stroke-opacity:1;color-rendering:auto;image-rendering:auto;shape-rendering:auto;text-rendering:auto;enable-background:accumulate"
       d="m 119.01982,129.31274 -39.88965,0 -20.049408,-34.545463 20.049411,-34.54545 39.889647,2e-6 19.94483,34.545458 z"
       id="path5053-6"
       inkscape:connector-curvature="0"
       sodipodi:nodetypes="ccccccc" />
    <g
       transform="matrix(0.86363636,0,0,0.86363636,16.16591,11.858182)"
       clip-path="url(#b)"
       id="g3718">
      <path
         sodipodi:type="star"
         style="color:#000000;clip-rule:nonzero;display:inline;overflow:visible;visibility:visible;opacity:1;isolation:auto;mix-blend-mode:normal;color-interpolation:sRGB;color-interpolation-filters:linearRGB;solid-color:#000000;solid-opacity:1;fill:#4285f4;fill-opacity:1;fill-rule:evenodd;stroke:none;stroke-width:5.63500023;stroke-linecap:round;stroke-linejoin:round;stroke-miterlimit:4;stroke-dasharray:none;stroke-dashoffset:0;stroke-opacity:1;color-rendering:auto;image-rendering:auto;shape-rendering:auto;text-rendering:auto;enable-background:accumulate"
         id="path5053"
         sodipodi:sides="6"
         sodipodi:cx="96"
         sodipodi:cy="96.000008"
         sodipodi:r1="36.950417"
         sodipodi:r2="31.999998"
         sodipodi:arg1="1.0471976"
         sodipodi:arg2="1.5707963"
         inkscape:flatsided="true"
         inkscape:rounded="-3.46945e-18"
         inkscape:randomized="0"
         d="m 114.47521,128.00001 -36.95042,0 -18.475207,-32.000004 18.47521,-31.999999 36.950417,2e-6 18.47521,32 z" />
    </g>
    <g
       transform="matrix(0.86363636,0,0,0.86363636,16.14,11.858182)"
       clip-path="url(#b)"
       id="g3724">
      <path
         style="fill:#ffffff;fill-opacity:0.1"
         d="m 7.9707031,24.480469 0,1 L 54.498047,105.2832 72.90625,137 l 46.1875,0 23.09375,-40 -0.28906,-0.5 -22.80469,39.5 -46.1875,0 -11.523438,-19.85547 c -0.006,-0.0567 -0.01,-0.12099 -0.02344,-0.14453 l -0.03906,0 -4.755859,-8.16016 L 49.982422,96.5 c 0,0 -41.9824205,-72.020004 -42.0117189,-72.019531 z"
         transform="translate(0.0299985,3.66e-6)"
         id="path3728"
         inkscape:connector-curvature="0"
         sodipodi:nodetypes="ccccccccccccccc" />
      <path
         d="m 131,117.33 c 3.4,-5.88 5.37,-12.68 5.37,-19.96 0,-4.22 -0.66,-8.28 -1.87,-12.09 0.95,3.42 1.5,7.01 1.5,10.73 0,7.28 -1.97,14.08 -5.37,19.96 l 0.02,0.04 -38.88,68 1.16,0 38.09,-66.64 -0.02,-0.04 z"
         id="path3732"
         inkscape:connector-curvature="0"
         style="fill:#ffffff;fill-opacity:0.2" />
    </g>
    <g
       transform="matrix(0.86363636,0,0,0.86363636,16.16591,11.858182)"
       clip-path="url(#b)"
       id="g3734">
      <path
         d="m 96,9 c 48.43,0 87.72,39.13 87.99,87.5 0,-0.17 0.01,-0.33 0.01,-0.5 C 184,47.4 144.6,8 96,8 47.4,8 8,47.4 8,96 8,96.17 8.01,96.33 8.01,96.5 8.28,48.13 47.57,9 96,9 Z"
         id="path3736"
         inkscape:connector-curvature="0"
         style="fill:#ffffff;fill-opacity:0.2" />
      <path
         d="m 96,183 c 48.43,0 87.72,-39.13 87.99,-87.5 0,0.17 0.01,0.33 0.01,0.5 0,48.6 -39.4,88 -88,88 C 47.4,184 8,144.6 8,96 8,95.83 8.01,95.67 8.01,95.5 8.28,143.87 47.57,183 96,183 Z"
         id="path3738"
         inkscape:connector-curvature="0"
         style="fill:#3e2723;fill-opacity:0.15" />
    </g>
  </g>
  <g
     inkscape:label="Layer 1"
     id="layer2"
     inkscape:groupmode="layer">
    <path
       id="path6410-7"
       transform="translate(1,1)"
       d="M 76.097656 29.650391 A 49.454544 49.454544 0 0 0 75.521484 29.652344 L 77.765625 33.539062 L 82.175781 41.177734 L 86.585938 48.814453 L 90.996094 56.453125 L 103.72266 78.5 L 104.01172 78 L 90.996094 55.455078 L 86.585938 47.816406 L 82.175781 40.177734 L 77.765625 32.539062 L 76.097656 29.650391 z M 127.36914 77.417969 A 49.454544 49.454544 0 0 1 119.48438 104.79688 L 119.77344 105.29688 A 49.454544 49.454544 0 0 0 127.36914 77.417969 z M 28.560547 79.539062 A 49.454544 49.454544 0 0 0 35.150391 103.72852 A 49.454544 49.454544 0 0 0 80.457031 128.38477 L 104.52148 170.06445 C 107.84548 175.82179 115.15672 177.78103 120.91406 174.45703 L 139.17969 163.91016 C 143.20741 161.58474 145.3665 157.30947 145.16797 152.97852 C 145.01675 156.95703 142.89654 160.76423 139.17969 162.91016 L 120.91406 173.45703 C 115.15672 176.78103 107.84548 174.82179 104.52148 169.06445 L 80.457031 127.38477 A 49.454544 49.454544 0 0 1 35.150391 102.72852 A 49.454544 49.454544 0 0 1 28.560547 79.539062 z "
       style="color:#000000;clip-rule:nonzero;display:inline;overflow:visible;visibility:visible;opacity:0.2;isolation:auto;mix-blend-mode:normal;color-interpolation:sRGB;color-interpolation-filters:linearRGB;solid-color:#000000;solid-opacity:1;fill:#212121;fill-opacity:1;fill-rule:evenodd;stroke:none;stroke-width:5.63500023;stroke-linecap:round;stroke-linejoin:round;stroke-miterlimit:4;stroke-dasharray:none;stroke-dashoffset:0;stroke-opacity:1;color-rendering:auto;image-rendering:auto;shape-rendering:auto;text-rendering:auto;enable-background:accumulate" />
    <path
       style="color:#000000;clip-rule:nonzero;display:inline;overflow:visible;visibility:visible;opacity:1;isolation:auto;mix-blend-mode:normal;color-interpolation:sRGB;color-interpolation-filters:linearRGB;solid-color:#000000;solid-opacity:1;fill:url(#linearGradient8148);fill-opacity:1;fill-rule:evenodd;stroke:none;stroke-width:5.63500023;stroke-linecap:round;stroke-linejoin:round;stroke-miterlimit:4;stroke-dasharray:none;stroke-dashoffset:0;stroke-opacity:1;color-rendering:auto;image-rendering:auto;shape-rendering:auto;text-rendering:auto;enable-background:accumulate"
       d="M 77.253906 28.595703 C 76.677494 28.604503 76.100137 28.623264 75.521484 28.652344 L 77.765625 32.539062 L 82.175781 40.177734 L 82.175781 40.179688 L 86.585938 47.816406 L 90.996094 55.455078 L 104.01172 78 C 103.96102 78.08773 90.994141 100.54687 90.994141 100.54688 L 78.472656 100.54492 C 78.325537 100.29011 78.03125 99.78125 78.03125 99.78125 C 77.916748 99.958399 77.809294 100.13815 77.697266 100.31641 L 36.447266 51.158203 C 26.373743 66.743142 25.873251 86.65677 35.150391 102.72852 C 36.951232 105.84646 39.064678 108.71223 41.431641 111.30859 L 64.697266 138.51172 A 62 62 0 0 0 78 140 A 62 62 0 0 0 140 78 A 62 62 0 0 0 139.86914 74.335938 L 116.52539 47.041016 C 107.04493 35.258734 92.586585 28.361099 77.253906 28.595703 z "
       id="path7608"
       transform="translate(1,1)" />
    <path
       d="m 92.016622,101.54545 -26.033247,0 -13.016622,-22.545451 13.016625,-22.545453 26.033247,10e-7 13.016625,22.545454 z"
       inkscape:randomized="0"
       inkscape:rounded="-3.46945e-18"
       inkscape:flatsided="true"
       sodipodi:arg2="1.5707963"
       sodipodi:arg1="1.0471976"
       sodipodi:r2="22.545452"
       sodipodi:r1="26.033247"
       sodipodi:cy="79"
       sodipodi:cx="79"
       sodipodi:sides="6"
       id="path5053-9"
       style="color:#000000;clip-rule:nonzero;display:inline;overflow:visible;visibility:visible;opacity:1;isolation:auto;mix-blend-mode:normal;color-interpolation:sRGB;color-interpolation-filters:linearRGB;solid-color:#000000;solid-opacity:1;fill:#4285f4;fill-opacity:1;fill-rule:evenodd;stroke:none;stroke-width:5.63500023;stroke-linecap:round;stroke-linejoin:round;stroke-miterlimit:4;stroke-dasharray:none;stroke-dashoffset:0;stroke-opacity:1;color-rendering:auto;image-rendering:auto;shape-rendering:auto;text-rendering:auto;enable-background:accumulate;filter:url(#filter6680)"
       sodipodi:type="star" />
    <path
       style="color:#000000;clip-rule:nonzero;display:inline;overflow:visible;visibility:visible;opacity:1;isolation:auto;mix-blend-mode:normal;color-interpolation:sRGB;color-interpolation-filters:linearRGB;solid-color:#000000;solid-opacity:1;fill:#b0bec5;fill-opacity:1;fill-rule:evenodd;stroke:none;stroke-width:5.63500023;stroke-linecap:round;stroke-linejoin:round;stroke-miterlimit:4;stroke-dasharray:none;stroke-dashoffset:0;stroke-opacity:1;color-rendering:auto;image-rendering:auto;shape-rendering:auto;text-rendering:auto;enable-background:accumulate;filter:url(#filter6668)"
       d="m 37.447662,52.158294 a 49.454544,49.454544 0 0 0 -1.297325,51.569366 49.454544,49.454544 0 0 0 45.307093,24.65779 l 24.06347,41.67916 c 3.324,5.75734 10.63497,7.71631 16.39231,4.39231 l 18.26604,-10.54591 c 5.75733,-3.324 7.7163,-10.63496 4.3923,-16.3923 L 120.48366,105.79727 A 49.454544,49.454544 0 0 0 121.80735,54.273559 49.454544,49.454544 0 0 0 76.521747,29.652987 l 2.244141,3.886967 4.410156,7.638614 4.409177,7.636924 4.41016,7.638614 13.016599,22.545417 -13.017379,22.546997 -26.033266,-0.001 -4.410157,-7.638624 -4.40918,-7.636918 -4.197265,-7.269881 -0.212891,-0.368737 -4.197265,-7.269877 -0.212891,-0.368738 -4.196289,-7.268186 -0.212891,-0.368737 -4.197265,-7.269877 -0.212891,-0.368738 -2.054688,-3.558823 z"
       id="path6410"
       inkscape:connector-curvature="0"
       inkscape:transform-center-x="-8.8803064"
       inkscape:transform-center-y="23.832856" />
    <path
       sodipodi:nodetypes="cccccccccccccccccccccccccccccsccc"
       inkscape:connector-curvature="0"
       id="path6410-0"
       d="m 81.287109,29.643058 c -1.587776,-0.07332 -3.178164,-0.07005 -4.765625,0.0098 l 0.576172,0.998047 c 18.314331,-0.711132 35.520094,8.764778 44.708984,24.623047 4.05918,7.057082 6.31337,15.00713 6.5625,23.144531 -0.0818,-8.47764 -2.3416,-16.791906 -6.5625,-24.144531 C 113.37346,39.701565 98.1058,30.42072 81.287109,29.643092 Z M 37.447266,52.158683 c -5.450667,8.439577 -8.20163,18.339093 -7.886719,28.380859 -0.114292,-9.703042 2.62848,-19.225309 7.886719,-27.380859 l 2.054687,3.558594 0.212891,0.369141 4.197265,7.269531 0.212891,0.36914 4.197266,7.267579 0.21289,0.36914 4.197266,7.269531 0.21289,-0.630869 -0.21289,-0.369141 -4.197266,-7.269531 -0.21289,-0.36914 -4.197266,-7.267579 -0.212891,-0.36914 -4.197265,-7.269531 -0.212891,-0.369141 z m 83.326174,54.138677 c -0.0954,0.16723 -0.19173,0.3339 -0.28906,0.5 l 24.08789,41.72265 c 0.99858,1.72961 1.51044,3.59917 1.5957,5.45899 0.083,-2.18413 -0.41763,-4.41851 -1.5957,-6.45899 z"
       style="color:#000000;clip-rule:nonzero;display:inline;overflow:visible;visibility:visible;opacity:0.2;isolation:auto;mix-blend-mode:normal;color-interpolation:sRGB;color-interpolation-filters:linearRGB;solid-color:#000000;solid-opacity:1;fill:#ffffff;fill-opacity:1;fill-rule:evenodd;stroke:none;stroke-width:5.63500023;stroke-linecap:round;stroke-linejoin:round;stroke-miterlimit:4;stroke-dasharray:none;stroke-dashoffset:0;stroke-opacity:1;color-rendering:auto;image-rendering:auto;shape-rendering:auto;text-rendering:auto;enable-background:accumulate" />
    <path
       sodipodi:nodetypes="ccccccc"
       inkscape:connector-curvature="0"
       id="path5053-9-6"
       d="M 65.982422,56.453125 52.966797,79 l 0.289062,0.5 12.726563,-22.044922 26.6325,0 -0.597344,-1.001953 z"
       style="color:#000000;clip-rule:nonzero;display:inline;overflow:visible;visibility:visible;opacity:0.2;isolation:auto;mix-blend-mode:normal;color-interpolation:sRGB;color-interpolation-filters:linearRGB;solid-color:#000000;solid-opacity:1;fill:#ffffff;fill-opacity:1;fill-rule:evenodd;stroke:none;stroke-width:5.63500023;stroke-linecap:round;stroke-linejoin:round;stroke-miterlimit:4;stroke-dasharray:none;stroke-dashoffset:0;stroke-opacity:1;color-rendering:auto;image-rendering:auto;shape-rendering:auto;text-rendering:auto;enable-background:accumulate" />
  </g>
  <radialGradient
     r="176.75"
     gradientTransform="translate(1.0000015,0.99999634)"
     cx="34.285999"
     cy="32.014"
     gradientUnits="userSpaceOnUse"
     id="r">
    <stop
       id="stop3741"
       offset="0"
       stop-opacity=".1"
       stop-color="#fff" />
    <stop
       id="stop3743"
       offset="1"
       stop-opacity="0"
       stop-color="#fff" />
  </radialGradient>
</svg>
