<?xml version="1.0" encoding="UTF-8" standalone="no"?>
<!-- Created with Inkscape (http://www.inkscape.org/) -->

<svg
   xmlns:dc="http://purl.org/dc/elements/1.1/"
   xmlns:cc="http://creativecommons.org/ns#"
   xmlns:rdf="http://www.w3.org/1999/02/22-rdf-syntax-ns#"
   xmlns:svg="http://www.w3.org/2000/svg"
   xmlns="http://www.w3.org/2000/svg"
   xmlns:xlink="http://www.w3.org/1999/xlink"
   xmlns:sodipodi="http://sodipodi.sourceforge.net/DTD/sodipodi-0.dtd"
   xmlns:inkscape="http://www.inkscape.org/namespaces/inkscape"
   inkscape:version="0.91 r13725"
   version="1.1"
   id="svg4291"
   viewBox="0 0 192 192"
   height="192"
   width="192"
   sodipodi:docname="scribus.svg"
   inkscape:export-filename="/home/alex/Pictures/exports/scribus.png"
   inkscape:export-xdpi="480"
   inkscape:export-ydpi="480">
  <sodipodi:namedview
     inkscape:window-maximized="1"
     inkscape:window-y="27"
     inkscape:window-x="0"
     inkscape:window-height="1023"
     inkscape:window-width="1920"
     inkscape:bbox-nodes="true"
     inkscape:snap-bbox="true"
     inkscape:showpageshadow="false"
     units="px"
     showgrid="true"
     inkscape:current-layer="layer1"
     inkscape:document-units="px"
     inkscape:cy="46.335802"
     inkscape:cx="99.483742"
     inkscape:zoom="2"
     inkscape:pageshadow="2"
     inkscape:pageopacity="0.0"
     borderopacity="1.0"
     bordercolor="#666666"
     pagecolor="#ffffff"
     id="base"
     inkscape:object-nodes="true"
     inkscape:snap-grids="false"
     inkscape:bbox-paths="true">
    <inkscape:grid
       empspacing="4"
       id="grid4299"
       type="xygrid" />
  </sodipodi:namedview>
  <defs
     id="defs4293">
    <linearGradient
       inkscape:collect="always"
       id="linearGradient7545">
      <stop
         style="stop-color:#ffffff;stop-opacity:0.10196079"
         offset="0"
         id="stop7547" />
      <stop
         style="stop-color:#ffffff;stop-opacity:0"
         offset="1"
         id="stop7549" />
    </linearGradient>
    <linearGradient
       inkscape:collect="always"
       id="linearGradient7289">
      <stop
         style="stop-color:#1a237e;stop-opacity:0.2"
         offset="0"
         id="stop7291" />
      <stop
         style="stop-color:#1a237e;stop-opacity:0"
         offset="1"
         id="stop7293" />
    </linearGradient>
    <linearGradient
       id="linearGradient665">
      <stop
         style="stop-color:#ffffff;stop-opacity:0.285714;"
         offset="0.00000000"
         id="stop666" />
      <stop
         style="stop-color:#daecf8;stop-opacity:1;"
         offset="1.00000000"
         id="stop667" />
    </linearGradient>
    <linearGradient
       id="linearGradient624">
      <stop
         style="stop-color:#b9e5ff;stop-opacity:0.419643;"
         offset="0.00000000"
         id="stop625" />
      <stop
         style="stop-color:#ffffff;stop-opacity:1;"
         offset="1.00000000"
         id="stop626" />
    </linearGradient>
    <linearGradient
       id="linearGradient619">
      <stop
         style="stop-color:#66b8ff;stop-opacity:1;"
         offset="0.00000000"
         id="stop620" />
      <stop
         style="stop-color:#00507a;stop-opacity:1;"
         offset="1.00000000"
         id="stop621" />
    </linearGradient>
    <linearGradient
       id="linearGradient604">
      <stop
         style="stop-color:#838383;stop-opacity:1;"
         offset="0.00000000"
         id="stop605" />
      <stop
         style="stop-color:#2c2c2c;stop-opacity:1;"
         offset="1.00000000"
         id="stop606" />
    </linearGradient>
    <linearGradient
       id="linearGradient598">
      <stop
         style="stop-color:#e1dedd;stop-opacity:0.866071;"
         offset="0.00000000"
         id="stop599" />
      <stop
         style="stop-color:#2c2c2c;stop-opacity:1;"
         offset="1.00000000"
         id="stop600" />
    </linearGradient>
    <linearGradient
       id="linearGradient593">
      <stop
         style="stop-color:#fff9db;stop-opacity:0.732143;"
         offset="0.00000000"
         id="stop594" />
      <stop
         style="stop-color:#2c2c2c;stop-opacity:1;"
         offset="1.00000000"
         id="stop595" />
    </linearGradient>
    <linearGradient
       id="linearGradient586">
      <stop
         style="stop-color:#6e6969;stop-opacity:1;"
         offset="0.00000000"
         id="stop587" />
      <stop
         style="stop-color:#2c2c2c;stop-opacity:1;"
         offset="1.00000000"
         id="stop588" />
    </linearGradient>
    <linearGradient
       id="linearGradient578">
      <stop
         style="stop-color:#fff2bc;stop-opacity:1;"
         offset="0.00000000"
         id="stop579" />
      <stop
         style="stop-color:#83560b;stop-opacity:1;"
         offset="1.00000000"
         id="stop580" />
    </linearGradient>
    <linearGradient
       xlink:href="#linearGradient578"
       id="linearGradient581"
       x1="0.43076923"
       y1="0.35937500"
       x2="0.56626505"
       y2="0.46875000" />
    <radialGradient
       xlink:href="#linearGradient578"
       id="radialGradient582"
       cx="0.50000000"
       cy="0.50000000"
       r="0.50000000"
       fx="0.50000000"
       fy="0.50000000" />
    <linearGradient
       xlink:href="#linearGradient593"
       id="linearGradient590"
       x1="0.53061223"
       y1="0.25781250"
       x2="1.08163261"
       y2="0.70312500" />
    <linearGradient
       xlink:href="#linearGradient586"
       id="linearGradient592"
       x1="0.19587629"
       y1="0.49218750"
       x2="0.31958762"
       y2="0.53906250" />
    <linearGradient
       xlink:href="#linearGradient598"
       id="linearGradient597"
       x1="0.49333334"
       y1="0.25781250"
       x2="0.66666669"
       y2="0.38281250" />
    <linearGradient
       xlink:href="#linearGradient604"
       id="linearGradient603"
       x1="0.83076924"
       y1="0.37500000"
       x2="0.43835616"
       y2="0.10937500" />
    <linearGradient
       xlink:href="#linearGradient665"
       id="linearGradient618"
       x1="0.41085270"
       y1="0.37500000"
       x2="0.97674412"
       y2="0.92968750" />
    <linearGradient
       xlink:href="#linearGradient624"
       id="linearGradient623"
       x1="0.47761193"
       y1="0.05468750"
       x2="0.82089549"
       y2="0.92968750" />
    <linearGradient
       xlink:href="#linearGradient619"
       id="linearGradient664"
       x1="0.08527132"
       y1="0.05468749"
       x2="0.48837212"
       y2="0.96093744" />
    <linearGradient
       y2="425.86215"
       x2="411.61445"
       y1="74.221018"
       x1="273.65717"
       id="linearGradient623-6"
       xlink:href="#linearGradient624"
       gradientTransform="matrix(0.99253652,0,0,1.933324,-87.239085,-47.030481)"
       gradientUnits="userSpaceOnUse" />
    <linearGradient
       inkscape:collect="always"
       xlink:href="#linearGradient7289"
       id="linearGradient7295"
       x1="89"
       y1="53"
       x2="184"
       y2="148"
       gradientUnits="userSpaceOnUse" />
    <filter
       style="color-interpolation-filters:sRGB;"
       inkscape:label="Drop Shadow"
       id="filter7307">
      <feFlood
         flood-opacity="0.2"
         flood-color="rgb(0,0,0)"
         result="flood"
         id="feFlood7309" />
      <feComposite
         in="flood"
         in2="SourceGraphic"
         operator="in"
         result="composite1"
         id="feComposite7311" />
      <feGaussianBlur
         in="composite1"
         stdDeviation="4"
         result="blur"
         id="feGaussianBlur7313" />
      <feOffset
         dx="0"
         dy="4"
         result="offset"
         id="feOffset7315" />
      <feComposite
         in="SourceGraphic"
         in2="offset"
         operator="over"
         result="composite2"
         id="feComposite7317" />
    </filter>
    <filter
       style="color-interpolation-filters:sRGB;"
       inkscape:label="Drop Shadow"
       id="filter7331">
      <feFlood
         flood-opacity="0.2"
         flood-color="rgb(26,35,126)"
         result="flood"
         id="feFlood7333" />
      <feComposite
         in="flood"
         in2="SourceGraphic"
         operator="in"
         result="composite1"
         id="feComposite7335" />
      <feGaussianBlur
         in="composite1"
         stdDeviation="4"
         result="blur"
         id="feGaussianBlur7337" />
      <feOffset
         dx="0"
         dy="4"
         result="offset"
         id="feOffset7339" />
      <feComposite
         in="SourceGraphic"
         in2="offset"
         operator="over"
         result="composite2"
         id="feComposite7341" />
    </filter>
    <filter
       style="color-interpolation-filters:sRGB;"
       inkscape:label="Drop Shadow"
       id="filter7343">
      <feFlood
         flood-opacity="0.2"
         flood-color="rgb(33,33,33)"
         result="flood"
         id="feFlood7345" />
      <feComposite
         in="flood"
         in2="SourceGraphic"
         operator="in"
         result="composite1"
         id="feComposite7347" />
      <feGaussianBlur
         in="composite1"
         stdDeviation="4"
         result="blur"
         id="feGaussianBlur7349" />
      <feOffset
         dx="0"
         dy="4"
         result="offset"
         id="feOffset7351" />
      <feComposite
         in="SourceGraphic"
         in2="offset"
         operator="over"
         result="composite2"
         id="feComposite7353" />
    </filter>
    <filter
       style="color-interpolation-filters:sRGB"
       inkscape:label="Drop Shadow"
       id="filter7331-5">
      <feFlood
         flood-opacity="0.2"
         flood-color="rgb(26,35,126)"
         result="flood"
         id="feFlood7333-4" />
      <feComposite
         in="flood"
         in2="SourceGraphic"
         operator="in"
         result="composite1"
         id="feComposite7335-6" />
      <feGaussianBlur
         in="composite1"
         stdDeviation="4"
         result="blur"
         id="feGaussianBlur7337-1" />
      <feOffset
         dx="0"
         dy="4"
         result="offset"
         id="feOffset7339-9" />
      <feComposite
         in="SourceGraphic"
         in2="offset"
         operator="over"
         result="composite2"
         id="feComposite7341-9" />
    </filter>
    <filter
       style="color-interpolation-filters:sRGB"
       inkscape:label="Drop Shadow"
       id="filter7343-5">
      <feFlood
         flood-opacity="0.2"
         flood-color="rgb(33,33,33)"
         result="flood"
         id="feFlood7345-3" />
      <feComposite
         in="flood"
         in2="SourceGraphic"
         operator="in"
         result="composite1"
         id="feComposite7347-1" />
      <feGaussianBlur
         in="composite1"
         stdDeviation="4"
         result="blur"
         id="feGaussianBlur7349-3" />
      <feOffset
         dx="0"
         dy="4"
         result="offset"
         id="feOffset7351-1" />
      <feComposite
         in="SourceGraphic"
         in2="offset"
         operator="over"
         result="composite2"
         id="feComposite7353-2" />
    </filter>
    <filter
       style="color-interpolation-filters:sRGB"
       inkscape:label="Drop Shadow"
       id="filter7307-0">
      <feFlood
         flood-opacity="0.2"
         flood-color="rgb(0,0,0)"
         result="flood"
         id="feFlood7309-3" />
      <feComposite
         in="flood"
         in2="SourceGraphic"
         operator="in"
         result="composite1"
         id="feComposite7311-6" />
      <feGaussianBlur
         in="composite1"
         stdDeviation="4"
         result="blur"
         id="feGaussianBlur7313-1" />
      <feOffset
         dx="0"
         dy="4"
         result="offset"
         id="feOffset7315-3" />
      <feComposite
         in="SourceGraphic"
         in2="offset"
         operator="over"
         result="composite2"
         id="feComposite7317-2" />
    </filter>
    <radialGradient
       inkscape:collect="always"
       xlink:href="#linearGradient7545"
       id="radialGradient7551"
       cx="73.341728"
       cy="871.05743"
       fx="73.341728"
       fy="871.05743"
       r="88.000005"
       gradientTransform="matrix(1.9999998,1.9999998,-1.0103573,1.0103575,741.39579,-159.88661)"
       gradientUnits="userSpaceOnUse" />
  </defs>
  <metadata
     id="metadata4296">
    <rdf:RDF>
      <cc:Work
         rdf:about="">
        <dc:format>image/svg+xml</dc:format>
        <dc:type
           rdf:resource="http://purl.org/dc/dcmitype/StillImage" />
        <dc:title></dc:title>
      </cc:Work>
    </rdf:RDF>
  </metadata>
  <g
     transform="translate(0,-860.36216)"
     id="layer1"
     inkscape:groupmode="layer"
     inkscape:label="Layer 1">
    <path
       id="path4301-7-6"
       transform="translate(0,860.36216)"
       d="M 93.619141 9.0839844 A 88 88 0 0 0 93.300781 9.0957031 C 95.03488 14.1474 95.901654 19.61203 95.986328 25.412109 C 95.990615 19.618028 95.229262 14.150279 93.619141 9.0839844 z M 8.0234375 96.462891 A 88 88 0 0 0 8 97 A 88 88 0 0 0 96 185 A 88 88 0 0 0 184 97 A 88 88 0 0 0 183.97852 96.585938 A 88 88 0 0 1 96 184 A 88 88 0 0 1 8.0234375 96.462891 z M 76.050781 104.18945 C 75.947465 124.21894 84.130507 140.47301 86.820312 145.26758 C 87.375654 145.63658 87.722603 145.84311 87.701172 145.77734 C 87.701172 145.77734 76.252482 127.64091 76.050781 104.18945 z "
       style="color:#000000;clip-rule:nonzero;display:inline;overflow:visible;visibility:visible;opacity:0.2;isolation:auto;mix-blend-mode:normal;color-interpolation:sRGB;color-interpolation-filters:linearRGB;solid-color:#000000;solid-opacity:1;fill:#1a237e;fill-opacity:1;fill-rule:evenodd;stroke:none;stroke-width:5.63500023;stroke-linecap:round;stroke-linejoin:round;stroke-miterlimit:4;stroke-dasharray:none;stroke-dashoffset:0;stroke-opacity:1;color-rendering:auto;image-rendering:auto;shape-rendering:auto;text-rendering:auto;enable-background:accumulate" />
    <path
       id="path4301-7"
       transform="translate(0,860.36216)"
       d="M 96 8 A 88 88 0 0 0 93.300781 8.0957031 C 99.478302 26.091767 94.647494 49.331807 82.671875 74.287109 C 65.232788 110.21641 87.701172 145.77734 87.701172 145.77734 C 88.011132 146.72859 23.737001 100.55149 18.117188 55.171875 A 88 88 0 0 0 8 96 A 88 88 0 0 0 96 184 A 88 88 0 0 0 184 96 A 88 88 0 0 0 96 8 z "
       style="color:#000000;clip-rule:nonzero;display:inline;overflow:visible;visibility:visible;opacity:1;isolation:auto;mix-blend-mode:normal;color-interpolation:sRGB;color-interpolation-filters:linearRGB;solid-color:#000000;solid-opacity:1;fill:#3f51b5;fill-opacity:1;fill-rule:evenodd;stroke:none;stroke-width:5.63500023;stroke-linecap:round;stroke-linejoin:round;stroke-miterlimit:4;stroke-dasharray:none;stroke-dashoffset:0;stroke-opacity:1;color-rendering:auto;image-rendering:auto;shape-rendering:auto;text-rendering:auto;enable-background:accumulate;filter:url(#filter7307)" />
    <path
       style="font-size:12px;opacity:1;fill:url(#linearGradient7295);fill-opacity:1;fill-rule:evenodd;stroke:none;stroke-width:5.63500023;stroke-linejoin:round;stroke-miterlimit:4;stroke-dasharray:none"
       d="M 142.67773 21.453125 C 133.78853 39.834376 118.81839 62.779469 116.54688 67.173828 C 109.59878 76.832428 94.885293 124.50241 89 144.9082 C 89 144.9082 113.6433 169.32355 123.82227 179.4082 A 88 88 0 0 0 184 96 A 88 88 0 0 0 142.67773 21.453125 z "
       transform="translate(0,860.36216)"
       id="path6395" />
    <path
       inkscape:connector-curvature="0"
       id="path4301-7-5"
       d="m 96,868.36237 a 88,88 0 0 0 -2.699219,0.0957 c 0.112055,0.32644 0.213526,0.65842 0.31836,0.98829 A 88,88 0 0 1 96,869.36237 a 88,88 0 0 1 87.97852,87.58594 88,88 0 0 0 0.0215,-0.58594 88,88 0 0 0 -88,-88 z m -0.01367,17.41211 c -0.01082,14.62617 -4.89241,31.32479 -13.314453,48.875 -4.986225,10.27299 -6.701856,20.51219 -6.621094,29.90234 0.04702,-9.11514 1.811274,-18.99279 6.621094,-28.90234 8.613929,-17.95007 13.53142,-35.01299 13.314453,-49.875 z m -77.86914,29.75977 A 88,88 0 0 0 8,956.36237 a 88,88 0 0 0 0.023437,0.46289 88,88 0 0 1 10.0937505,-40.29101 c 5.619813,45.3796 69.893944,91.55665 69.583984,90.60545 0,0 -0.356529,-0.5751 -0.88086,-1.5097 -7.476524,-4.9678 -63.471878,-47.8538 -68.703124,-90.09575 z"
       style="color:#000000;clip-rule:nonzero;display:inline;overflow:visible;visibility:visible;opacity:0.2;isolation:auto;mix-blend-mode:normal;color-interpolation:sRGB;color-interpolation-filters:linearRGB;solid-color:#000000;solid-opacity:1;fill:#ffffff;fill-opacity:1;fill-rule:evenodd;stroke:none;stroke-width:5.63500023;stroke-linecap:round;stroke-linejoin:round;stroke-miterlimit:4;stroke-dasharray:none;stroke-dashoffset:0;stroke-opacity:1;color-rendering:auto;image-rendering:auto;shape-rendering:auto;text-rendering:auto;enable-background:accumulate" />
    <path
       id="path686-1"
       transform="translate(0,860.36216)"
       d="M 140.02734 13.292969 A 23.376952 13.417084 35.937799 0 0 150.4375 31.660156 A 23.376952 13.417084 35.937799 0 0 178.35938 37.412109 A 23.376952 13.417084 35.937799 0 0 180.97266 30.707031 A 23.376952 13.417084 35.937799 0 1 178.35938 36.412109 A 23.376952 13.417084 35.937799 0 1 150.4375 30.660156 A 23.376952 13.417084 35.937799 0 1 140.02734 13.292969 z "
       style="font-size:12px;fill:#212121;fill-opacity:1;fill-rule:evenodd;stroke:none;stroke-width:1pt;opacity:0.2" />
    <path
       id="hrot-1"
       transform="translate(0,860.36216)"
       d="M 175.94922 30.941406 C 173.25675 34.814166 152.64227 53.99332 152.54102 97.201172 C 118.33365 102.85321 90.348979 144.4777 90.90625 145 L 90.566406 144.98242 C 90.505434 145.16426 90.364509 145.54809 90.3125 145.70703 C 90.312013 145.70703 90.311047 145.7168 90.310547 145.7168 C 90.310323 145.7173 90.237993 145.9321 90.226562 145.9668 L 90.90625 146 C 90.348979 145.4777 118.33365 103.85321 152.54102 98.201172 C 152.64617 53.332562 174.93069 34.324835 176.23242 31.515625 C 176.1427 31.322946 176.04168 31.133462 175.94922 30.941406 z M 120.75586 69.671875 C 119.61964 69.788415 117.86222 71.490034 116.45898 73.833984 C 115.16787 75.991791 114.47936 78.194833 114.67969 79.419922 C 114.83513 78.170049 115.46889 76.48871 116.45898 74.833984 C 117.86222 72.490034 119.61964 70.788415 120.75586 70.671875 C 120.98453 70.648375 121.18094 70.690295 121.33984 70.796875 C 121.56216 70.946122 121.69199 71.223082 121.75391 71.578125 C 121.85628 70.716879 121.73825 70.064332 121.33984 69.796875 C 121.18094 69.690295 120.98453 69.648375 120.75586 69.671875 z M 114.64648 79.851562 C 114.62903 79.885775 114.61448 79.913314 114.5957 79.951172 C 114.40213 80.341932 114.14141 80.922235 113.81836 81.671875 C 113.17225 83.171155 112.28159 85.34576 111.2207 88 C 109.09893 93.30849 106.29557 100.53489 103.41016 108.08594 C 103.40096 108.10984 103.39377 108.1304 103.38477 108.1543 C 103.15035 108.75309 102.92416 109.30788 102.68945 109.91016 C 97.110347 124.22764 91.538638 139.2943 89.908203 144.58008 C 89.907703 144.58008 89.906737 144.58984 89.90625 144.58984 C 89.90602 144.59054 89.795009 144.92131 89.787109 144.94531 L 89.289062 144.92188 C 89.203237 145.21812 89.082409 145.62247 89 145.9082 L 89.787109 145.94531 C 89.795009 145.92131 89.90602 145.59054 89.90625 145.58984 C 89.906737 145.58984 89.907703 145.58008 89.908203 145.58008 C 91.538638 140.29428 97.110347 125.22764 102.68945 110.91016 C 102.92416 110.30788 103.15035 109.75309 103.38477 109.1543 C 103.39377 109.1304 103.40096 109.10984 103.41016 109.08594 C 106.29557 101.53489 109.09893 94.30849 111.2207 89 C 112.28159 86.34576 113.17225 84.171155 113.81836 82.671875 C 114.14141 81.922235 114.40213 81.341932 114.5957 80.951172 C 114.6444 80.852972 114.68825 80.767879 114.72852 80.693359 C 114.65553 80.462653 114.63657 80.171306 114.64648 79.851562 z "
       style="font-size:12px;fill:#1a237e;fill-opacity:1;fill-rule:evenodd;stroke:none;stroke-width:5.63500023;stroke-linejoin:round;stroke-miterlimit:4;stroke-dasharray:none;opacity:0.2" />
    <ellipse
       transform="matrix(0.76762443,0.64089994,-0.73953913,0.67311357,0,0)"
       id="path686"
       style="font-size:12px;fill:#424242;fill-opacity:1;fill-rule:evenodd;stroke:none;stroke-width:1pt;filter:url(#filter7343)"
       cx="767.36664"
       cy="579.48163"
       rx="23.26647"
       ry="13.60777" />
    <path
       sodipodi:nodetypes="cccccccsccsscccccccssccccccccc"
       inkscape:connector-curvature="0"
       id="hrot"
       d="m 152.36283,871.33678 c -6.18328,0.10911 -6.76958,3.65789 -7.49765,5.78144 -8.35366,18.92483 -25.84887,45.64076 -28.31823,50.41785 -6.94808,9.6586 -21.661657,57.32754 -27.54695,77.73333 l 0.787923,0.039 c 0.0079,-0.024 0.118102,-0.3554 0.118332,-0.3561 4.87e-4,0 0.0024,-0.01 0.0029,-0.01 1.630435,-5.28578 7.202079,-20.35314 12.781185,-34.67062 0.23471,-0.60228 0.45942,-1.15609 0.69384,-1.75488 0.009,-0.0239 0.017,-0.0457 0.0262,-0.0696 2.88541,-7.55105 5.68856,-14.77569 7.81033,-20.08418 1.06089,-2.65424 1.95148,-4.82947 2.59759,-6.32875 0.32305,-0.74964 0.58436,-1.32932 0.77793,-1.72008 0.0487,-0.0982 0.0928,-0.18387 0.13307,-0.25839 -0.36385,-1.1502 0.34108,-3.53771 1.72983,-5.85869 1.40324,-2.34395 3.16077,-4.04684 4.29699,-4.16338 0.22867,-0.0235 0.42515,0.0188 0.58405,0.12538 0.9706,0.65158 0.3589,3.51581 -1.36628,6.3974 -1.41971,2.37033 -3.19875,4.08044 -4.3312,4.16338 -0.3928,0.62789 -0.96922,1.751 -1.67089,3.2571 -0.83816,1.79909 -1.8625,4.14508 -3.01057,6.87033 -2.10397,4.99435 -4.63341,11.31026 -7.18683,17.83301 -5.757711,15.06941 -11.835958,31.42157 -13.461245,36.38837 -4.87e-4,0 -0.0029,0.01 -0.0034,0.01 -2.24e-4,5e-4 -0.07079,0.2148 -0.08222,0.2495 l 0.678622,0.034 c -0.557271,-0.5223 27.427053,-42.14668 61.634423,-47.79872 0.10515,-44.86861 22.39038,-63.87675 23.69211,-66.68596 -4.76892,-10.24122 -13.43193,-19.68469 -23.86984,-19.54282 z"
       style="font-size:12px;fill:#f9ce1d;fill-opacity:1;fill-rule:evenodd;stroke:none;stroke-width:5.63500023;stroke-linejoin:round;stroke-miterlimit:4;stroke-dasharray:none;filter:url(#filter7331)" />
    <path
       inkscape:connector-curvature="0"
       id="path686-8"
       d="m 151.44141,864.38361 a 23.376952,13.417084 35.937799 0 0 -8.80079,2.56641 23.376952,13.417084 35.937799 0 0 -2.61328,6.70508 23.376952,13.417084 35.937799 0 1 2.61328,-5.70508 23.376952,13.417084 35.937799 0 1 27.92383,5.75195 23.376952,13.417084 35.937799 0 1 10.40821,17.36719 23.376952,13.417084 35.937799 0 0 -10.40821,-18.36719 23.376952,13.417084 35.937799 0 0 -19.12304,-8.31836 z"
       style="font-size:12px;fill:#ffffff;fill-opacity:1;fill-rule:evenodd;stroke:none;stroke-width:1pt;opacity:0.2" />
    <path
       inkscape:connector-curvature="0"
       id="hrot-6"
       d="m 152.36328,871.3344 0,0.002 c -6.18328,0.10911 -6.76998,3.6577 -7.49805,5.78125 -8.35366,18.92483 -25.84899,45.64088 -28.31835,50.41797 -6.94809,9.6586 -21.661587,57.32854 -27.54688,77.73433 l 0.289062,0.014 c 6.043451,-20.86024 20.407028,-67.22468 27.257818,-76.74803 2.46936,-4.77709 19.96469,-31.49314 28.31835,-50.41797 0.72807,-2.12355 1.31477,-5.67214 7.49805,-5.78125 l 0,-0.002 c 10.24153,-0.1392 18.76371,8.95271 23.58594,18.96875 0.10349,-0.14886 0.23502,-0.3218 0.2832,-0.42578 -4.76892,-10.24122 -13.43123,-19.68484 -23.86914,-19.54297 z m -30.60937,60.60547 c -0.14703,1.23692 -0.76226,2.91646 -1.7793,4.61523 -1.41971,2.37033 -3.19958,4.08112 -4.33203,4.16406 -0.3928,0.62789 -0.96825,1.75171 -1.66992,3.25781 -0.83816,1.79909 -1.86365,4.1439 -3.01172,6.86915 -2.10397,4.99435 -4.63408,11.31123 -7.1875,17.83398 -5.757714,15.06941 -11.835653,31.4218 -13.46094,36.3887 -4.87e-4,0 -0.0015,0.01 -0.002,0.01 -2.24e-4,5e-4 -0.07255,0.2153 -0.08398,0.25 l 0.339844,0.016 c 1.844417,-5.50069 7.633568,-21.07691 13.207034,-35.6641 2.55342,-6.52275 5.08353,-12.83963 7.1875,-17.83398 1.14807,-2.72525 2.17356,-5.07006 3.01172,-6.86915 0.70167,-1.5061 1.27712,-2.62992 1.66992,-3.25781 1.13245,-0.0829 2.91232,-1.79178 4.33203,-4.16211 1.33002,-2.22155 1.98771,-4.42219 1.7793,-5.61718 z m -7.07422,7.84179 c -0.0189,0.15161 -0.0289,0.29379 -0.0332,0.43164 0.0278,-0.0545 0.0573,-0.11241 0.082,-0.1582 -0.0256,-0.0809 -0.0337,-0.1808 -0.0488,-0.27344 z"
       style="font-size:12px;fill:#ffffff;fill-opacity:1;fill-rule:evenodd;stroke:none;stroke-width:5.63500023;stroke-linejoin:round;stroke-miterlimit:4;stroke-dasharray:none;opacity:0.2" />
    <path
       style="color:#000000;clip-rule:nonzero;display:inline;overflow:visible;visibility:visible;opacity:0.2;isolation:auto;mix-blend-mode:normal;color-interpolation:sRGB;color-interpolation-filters:linearRGB;solid-color:#000000;solid-opacity:1;fill:url(#radialGradient7551);fill-opacity:1;fill-rule:evenodd;stroke:none;stroke-width:5.63500023;stroke-linecap:round;stroke-linejoin:round;stroke-miterlimit:4;stroke-dasharray:none;stroke-dashoffset:0;stroke-opacity:1;color-rendering:auto;image-rendering:auto;shape-rendering:auto;text-rendering:auto;enable-background:accumulate"
       d="m 151.44141,864.38306 a 23.376952,13.417084 35.937799 0 0 -6.06641,0.9063 23.376952,13.417084 35.937799 0 0 -0.38086,0.1387 23.376952,13.417084 35.937799 0 0 -2.35352,1.5215 23.376952,13.417084 35.937799 0 0 -0.80273,0.873 23.376952,13.417084 35.937799 0 0 -0.30078,0.418 23.376952,13.417084 35.937799 0 0 -0.46875,0.7324 23.376952,13.417084 35.937799 0 0 -0.16406,0.3418 23.376952,13.417084 35.937799 0 0 -0.39649,0.9394 23.376952,13.417084 35.937799 0 0 -0.0742,0.2559 23.376952,13.417084 35.937799 0 0 -0.27734,1.166 23.376952,13.417084 35.937799 0 0 -0.0137,0.096 23.376952,13.417084 35.937799 0 0 -0.11524,1.9356 23.376952,13.417084 35.937799 0 0 1.75782,7.5957 A 88,88 0 0 0 96,868.36166 a 88,88 0 0 0 -2.69922,0.096 c 0.11199,0.3262 0.21163,0.6586 0.31641,0.9882 a 88,88 0 0 0 -0.31641,0.012 c 1.72842,5.035 2.59604,10.4808 2.68555,16.2597 -1.3e-4,-0.7049 -0.0122,-1.4044 -0.03516,-2.0996 -0.14108,-4.2728 -0.71537,-8.3591 -1.75976,-12.2246 1.04453,3.866 1.6189,7.9513 1.75976,12.2246 0.02291,0.695 0.03507,1.3949 0.03516,2.0996 2.9e-4,0.019 -2.8e-4,0.038 0,0.057 -3e-4,0.3986 -3e-4,0.7975 -0.0078,1.1992 0.0015,-0.3992 0.01359,-0.8032 0.0078,-1.1992 -0.0032,4.4025 -0.45511,8.9955 -1.30469,13.7402 -0.20926,1.1676 -0.43362,2.3415 -0.69141,3.5274 -0.05396,0.2484 -0.11971,0.5007 -0.17578,0.75 -0.22913,1.0176 -0.47454,2.0421 -0.73828,3.0722 -0.11395,0.4454 -0.23318,0.8922 -0.35351,1.3399 -0.26568,0.9877 -0.54551,1.9802 -0.8418,2.9785 -0.08631,0.291 -0.16503,0.5792 -0.25391,0.8711 -0.38137,1.2515 -0.79085,2.5124 -1.21875,3.7793 -0.14133,0.4186 -0.29116,0.8395 -0.4375,1.2597 -0.35084,1.0071 -0.71462,2.0193 -1.09375,3.0352 -0.12926,0.3465 -0.25421,0.6916 -0.38672,1.0391 -0.50896,1.3341 -1.03775,2.6735 -1.59375,4.0214 -0.10068,0.2442 -0.20834,0.4898 -0.31054,0.7344 -0.48592,1.1626 -0.99005,2.3302 -1.50977,3.502 -0.15235,0.3435 -0.30571,0.6869 -0.46094,1.0312 -0.62779,1.3924 -1.26965,2.7895 -1.94335,4.1934 -0.29964,0.6173 -0.58494,1.2346 -0.86133,1.8515 -0.06533,0.1459 -0.12541,0.2917 -0.18946,0.4375 -0.19854,0.4519 -0.39364,0.904 -0.58007,1.3555 -0.08878,0.2151 -0.1737,0.4296 -0.25977,0.6445 -0.16257,0.4059 -0.32154,0.8115 -0.47461,1.2168 -0.07403,0.1962 -0.14691,0.3919 -0.21875,0.5879 -0.11614,0.3167 -0.2274,0.6329 -0.33789,0.9492 -0.32886,0.9422 -0.6359,1.8826 -0.91602,2.8204 -0.06123,0.2048 -0.1168,0.4087 -0.17578,0.6132 -0.24998,0.868 -0.48288,1.7348 -0.69336,2.5977 -0.05239,0.2145 -0.10427,0.4285 -0.15429,0.6426 -0.19241,0.8248 -0.36519,1.6458 -0.52344,2.4648 -0.05172,0.2671 -0.1061,0.5344 -0.1543,0.8008 -0.15084,0.8357 -0.28106,1.6677 -0.39843,2.4961 -0.04683,0.3296 -0.0911,0.6579 -0.13282,0.9863 -0.09785,0.7725 -0.18527,1.5418 -0.25586,2.3067 -0.2243,2.4217 -0.31495,4.8015 -0.29492,7.1308 -0.10332,20.0295 8.07973,36.28364 10.76953,41.07814 -0.93794,-0.6232 -2.643,-1.8453 -4.91211,-3.5859 -1.17298,-0.9005 -2.51082,-1.9535 -3.95703,-3.11914 -0.40489,-0.3262 -0.87703,-0.7243 -1.30078,-1.0703 -1.12953,-0.923 -2.28011,-1.8687 -3.52734,-2.9258 -1.23962,-1.0502 -2.53257,-2.1689 -3.86719,-3.3438 -0.56899,-0.5011 -1.13738,-1.0008 -1.7207,-1.5234 -0.14569,-0.1305 -0.29098,-0.2628 -0.4375,-0.3945 -0.82627,-0.7435 -1.66581,-1.5069 -2.51563,-2.2911 -0.12123,-0.1118 -0.24162,-0.2233 -0.36328,-0.3359 -1.86206,-1.7245 -3.77365,-3.544 -5.70898,-5.4473 -0.11932,-0.1173 -0.23793,-0.2316 -0.35743,-0.3496 -6.14192,-6.0641 -12.50995,-12.9725 -18.32812,-20.4199 -0.18539,-0.2373 -0.36654,-0.4784 -0.55078,-0.7168 -0.77229,-0.9993 -1.5373,-2.006 -2.28711,-3.0234 -0.2127,-0.2887 -0.42017,-0.5811 -0.63086,-0.8711 -0.68763,-0.9465 -1.36687,-1.8989 -2.03125,-2.8594 -0.27074,-0.3915 -0.53425,-0.786 -0.80078,-1.1797 -0.59822,-0.8834 -1.18829,-1.7702 -1.76367,-2.6641 -0.27876,-0.4331 -0.55122,-0.8692 -0.82422,-1.3046 -0.53857,-0.8589 -1.06539,-1.7227 -1.58008,-2.5899 -0.44202,-0.745 -0.88359,-1.4896 -1.30664,-2.2402 -0.1368,-0.2427 -0.27348,-0.4853 -0.40821,-0.7285 -0.57339,-1.0354 -1.12627,-2.0764 -1.66015,-3.1211 -0.10382,-0.2031 -0.21025,-0.406 -0.3125,-0.6094 -0.53899,-1.0726 -1.05159,-2.1497 -1.54492,-3.2305 -0.13911,-0.3046 -0.28267,-0.6088 -0.41797,-0.914 -0.08558,-0.1932 -0.16793,-0.3868 -0.25196,-0.5801 -0.19754,-0.4544 -0.39127,-0.9097 -0.58007,-1.3652 -0.10563,-0.255 -0.20968,-0.5104 -0.3125,-0.7657 -0.17867,-0.4434 -0.35342,-0.8876 -0.52344,-1.332 -0.08917,-0.2332 -0.17693,-0.4658 -0.26367,-0.6992 -0.16445,-0.4423 -0.32298,-0.8851 -0.47852,-1.3281 -0.09244,-0.2635 -0.18421,-0.5274 -0.27344,-0.7911 -0.14022,-0.4142 -0.27411,-0.8293 -0.40625,-1.2441 -0.08319,-0.2613 -0.16812,-0.5217 -0.24804,-0.7832 -0.1385,-0.4529 -0.26995,-0.906 -0.39844,-1.3594 -0.06671,-0.2355 -0.13525,-0.4714 -0.19922,-0.707 -0.11546,-0.4252 -0.22178,-0.8499 -0.32812,-1.2754 -0.06981,-0.2794 -0.14123,-0.5583 -0.20703,-0.8379 -0.09441,-0.4009 -0.1796,-0.802 -0.26563,-1.2031 -0.06097,-0.2843 -0.12495,-0.5691 -0.18164,-0.8535 -0.2732,-1.3702 -0.50026,-2.7413 -0.66992,-4.1114 A 88,88 0 0 0 8,956.36166 a 88,88 0 0 0 0.02344,0.4668 88,88 0 0 0 0,0.02 88,88 0 0 0 0.33594,6.7129 88,88 0 0 1 -0.08594,-0.7149 A 88,88 0 0 0 96,1045.3622 a 88,88 0 0 0 87.87891,-84.60944 88,88 0 0 0 0.0371,-1.0449 88,88 0 0 0 0.084,-2.3457 88,88 0 0 0 -0.0176,-0.3203 88,88 0 0 0 0.0176,-0.6797 88,88 0 0 0 -0.17773,-3.5664 88,88 0 0 0 -0.0957,-1.92 88,88 0 0 0 -0.16601,-3.2988 88,88 0 0 0 -6.50782,-25.4824 88,88 0 0 0 -8.42382,-15.4179 88,88 0 0 0 -1.72657,-2.2715 c 0.94318,-1.4934 1.85852,-2.8558 2.73243,-4.0722 a 23.376952,13.417084 35.937799 0 0 8.72461,-2.5547 23.376952,13.417084 35.937799 0 0 2.61328,-6.7051 23.376952,13.417084 35.937799 0 0 -0.21485,-3.1406 23.376952,13.417084 35.937799 0 0 -0.002,-0.01 23.376952,13.417084 35.937799 0 0 -0.41016,-1.6602 23.376952,13.417084 35.937799 0 0 -0.002,0 23.376952,13.417084 35.937799 0 0 -0.46484,-1.3085 23.376952,13.417084 35.937799 0 0 -0.15625,-0.4297 23.376952,13.417084 35.937799 0 0 -0.52735,-1.1446 23.376952,13.417084 35.937799 0 0 -0.27734,-0.5976 23.376952,13.417084 35.937799 0 0 -0.74414,-1.3145 23.376952,13.417084 35.937799 0 0 -0.24024,-0.4238 23.376952,13.417084 35.937799 0 0 -0.7207,-1.0801 23.376952,13.417084 35.937799 0 0 -0.45898,-0.6836 23.376952,13.417084 35.937799 0 0 -0.76368,-0.9883 23.376952,13.417084 35.937799 0 0 -0.55664,-0.7168 23.376952,13.417084 35.937799 0 0 -0.76953,-0.873 23.376952,13.417084 35.937799 0 0 -0.72265,-0.8164 23.376952,13.417084 35.937799 0 0 -0.62891,-0.6309 23.376952,13.417084 35.937799 0 0 -0.98633,-0.9843 23.376952,13.417084 35.937799 0 0 -0.78906,-0.7012 23.376952,13.417084 35.937799 0 0 -0.97266,-0.8633 23.376952,13.417084 35.937799 0 0 -1.54883,-1.2187 23.376952,13.417084 35.937799 0 0 -1.02539,-0.7422 23.376952,13.417084 35.937799 0 0 -0.86718,-0.6035 23.376952,13.417084 35.937799 0 0 -1.05274,-0.6739 23.376952,13.417084 35.937799 0 0 -0.92773,-0.5722 23.376952,13.417084 35.937799 0 0 -1.08594,-0.6055 23.376952,13.417084 35.937799 0 0 -0.91797,-0.4941 23.376952,13.417084 35.937799 0 0 -1.07422,-0.5196 23.376952,13.417084 35.937799 0 0 -0.99609,-0.459 23.376952,13.417084 35.937799 0 0 -1.03711,-0.4238 23.376952,13.417084 35.937799 0 0 -1.00391,-0.3887 23.376952,13.417084 35.937799 0 0 -1.03125,-0.3437 23.376952,13.417084 35.937799 0 0 -1.0039,-0.3125 23.376952,13.417084 35.937799 0 0 -1.02735,-0.2637 23.376952,13.417084 35.937799 0 0 -0.96484,-0.2265 23.376952,13.417084 35.937799 0 0 -0.95898,-0.1719 23.376952,13.417084 35.937799 0 0 -1.02149,-0.1543 23.376952,13.417084 35.937799 0 0 -1.57812,-0.1446 z M 8.27344,962.84596 a 88,88 0 0 1 -0.09571,-1.916 88,88 0 0 0 0.09571,1.916 z m -0.09571,-1.916 a 88,88 0 0 1 -0.15429,-4.082 88,88 0 0 0 -0.02344,0.5137 88,88 0 0 0 0.17773,3.5683 z m 85.45313,-91.4453 c 0.19064,0.6017 0.3683,1.2094 0.53516,1.8223 -0.16688,-0.613 -0.34448,-1.2205 -0.53516,-1.8223 z m 87.14648,23.0078 a 23.376952,13.417084 35.937799 0 1 -0.0879,0.3008 23.376952,13.417084 35.937799 0 0 0.0879,-0.3008 z m -0.40039,1.334 a 23.376952,13.417084 35.937799 0 1 -0.14062,0.291 23.376952,13.417084 35.937799 0 0 0.14062,-0.291 z m -0.5957,1.2149 a 23.376952,13.417084 35.937799 0 1 -0.24805,0.3457 23.376952,13.417084 35.937799 0 0 0.24805,-0.3457 z m -0.78516,1.0781 a 23.376952,13.417084 35.937799 0 1 -0.63671,0.6543 23.376952,13.417084 35.937799 0 0 0.63671,-0.6543 z m -10.69336,5.1054 c -0.0575,0.085 -0.11407,0.1678 -0.17187,0.254 0.0582,-0.087 0.1139,-0.1682 0.17187,-0.254 z m 15.25,63.2247 a 88,88 0 0 1 -0.33203,2.9257 88,88 0 0 0 0.10352,-1.041 88,88 0 0 0 0.22851,-1.8847 z m -107.36914,3.8496 c 0.01882,0.3179 0.03791,0.6356 0.06055,0.9511 -0.02261,-0.3155 -0.04175,-0.6333 -0.06055,-0.9511 z m -67.16992,0.6445 a 88,88 0 0 0 0.5,3.3144 88,88 0 0 1 -0.5,-3.3144 z m 67.35742,1.8887 c 0.02424,0.2621 0.05336,0.5209 0.08008,0.7812 -0.02671,-0.2605 -0.05585,-0.5189 -0.08008,-0.7812 z m 105.9375,2.3164 a 88,88 0 0 1 -0.65625,3.0019 88,88 0 0 0 0.16211,-0.8027 88,88 0 0 0 0.49414,-2.1992 z m -105.13867,3.7597 c 0.01817,0.1067 0.03812,0.2121 0.05664,0.3184 -0.0185,-0.1063 -0.03849,-0.2116 -0.05664,-0.3184 z m -66.46484,0.6602 a 88,88 0 0 0 0.82812,3.248 88,88 0 0 1 -0.82812,-3.248 z m 169.49804,4.1094 a 88,88 0 0 1 -1.00585,3.0664 88,88 0 0 0 0.17968,-0.5801 88,88 0 0 0 0.82617,-2.4863 z m -166.96679,4.2675 a 88,88 0 0 0 1.16992,3.2071 88,88 0 0 1 -1.16992,-3.2071 z m 164.02929,3.9883 a 88,88 0 0 1 -1.38671,3.1211 88,88 0 0 0 0.16797,-0.4004 88,88 0 0 0 1.21874,-2.7207 z m -95.50976,3.6719 c 0.34861,0.9162 0.6963,1.792 1.04102,2.6211 -0.34501,-0.8307 -0.69216,-1.703 -1.04102,-2.6211 z m -65.16797,0.4238 a 88,88 0 0 0 1.50391,3.1133 88,88 0 0 1 -1.50391,-3.1133 z m 66.71289,3.3926 c 0.33258,0.7686 0.66007,1.505 0.97461,2.1817 -0.31563,-0.6798 -0.64085,-1.4093 -0.97461,-2.1817 z m 90.21484,0.4434 a 88,88 0 0 1 -1.77539,3.10354 88,88 0 0 0 0.10938,-0.2012 88,88 0 0 0 1.66601,-2.90234 z m -88.77343,2.72464 c 0.26677,0.5549 0.5237,1.0778 0.76562,1.5547 -0.24389,-0.4813 -0.49653,-0.9942 -0.76562,-1.5547 z m -64.00586,1.164 a 88,88 0 0 0 1.82031,2.9668 88,88 0 0 1 -1.82031,-2.9668 z m 65.11719,1.0743 c 0.07538,0.145 0.13129,0.2448 0.20312,0.3808 -0.07544,-0.1429 -0.12376,-0.2279 -0.20312,-0.3808 z m 1.17968,2.164 c 0.31642,0.5466 0.66797,1.1465 0.66797,1.1465 0.02142,0.066 -0.32416,-0.1412 -0.8789,-0.5098 0.55431,0.3683 0.90031,0.5755 0.8789,0.5098 0,0 -0.27158,-0.4524 -0.66797,-1.1465 z m 81.95313,0.4024 a 88,88 0 0 1 -2.15039,3.0078 88,88 0 0 0 0.0273,-0.039 88,88 0 0 0 2.12305,-2.9687 z m -143.34571,3.6425 a 88,88 0 0 0 2.11524,2.7813 88,88 0 0 1 -2.11524,-2.7813 z m 138.09766,3.3868 a 88,88 0 0 1 -2.49414,2.8379 88,88 0 0 0 2.49414,-2.8379 z m -132.54297,3.3144 a 88,88 0 0 0 2.46875,2.6504 88,88 0 0 1 -2.46875,-2.6504 z m 126.60938,3.166 a 88,88 0 0 1 -2.77149,2.5821 88,88 0 0 0 2.77149,-2.5821 z m -120.38672,2.9825 a 88,88 0 0 0 2.75391,2.4179 88,88 0 0 1 -2.75391,-2.4179 z m 113.85156,2.8613 a 88,88 0 0 1 -3.08398,2.3437 88,88 0 0 0 3.08398,-2.3437 z m -107.08008,2.6152 a 88,88 0 0 0 3.08594,2.2051 88,88 0 0 1 -3.08594,-2.2051 z m 100.01563,2.5371 a 88,88 0 0 1 -3.39844,2.0821 88,88 0 0 0 3.39844,-2.0821 z m -92.74805,2.2324 a 88,88 0 0 0 3.39649,1.9493 88,88 0 0 1 -3.39649,-1.9493 z m 85.17188,2.209 a 88,88 0 0 1 -3.61329,1.7461 88,88 0 0 0 3.61329,-1.7461 z m -77.44141,1.834 a 88,88 0 0 0 3.64844,1.6328 88,88 0 0 1 -3.64844,-1.6328 z m 69.48438,1.8223 a 88,88 0 0 1 -3.84766,1.4043 88,88 0 0 0 3.84766,-1.4043 z m -61.36329,1.4453 a 88,88 0 0 0 3.84375,1.2773 88,88 0 0 1 -3.84375,-1.2773 z m 53.0586,1.4062 a 88,88 0 0 1 -4.00781,1.0235 88,88 0 0 0 4.00781,-1.0235 z m -44.72071,1.0196 a 88,88 0 0 0 4.10547,0.9219 88,88 0 0 1 -4.10547,-0.9219 z m 36.19532,0.9863 a 88,88 0 0 1 -4.17774,0.6309 88,88 0 0 0 4.17774,-0.6309 z m -27.64453,0.6074 a 88,88 0 0 0 4.28515,0.5215 88,88 0 0 1 -4.28515,-0.5215 z m 18.96289,0.541 A 88,88 0 0 1 96,1044.3617 a 88,88 0 0 0 7.16016,-0.3575 z"
       id="path4301-7-6-0"
       inkscape:connector-curvature="0" />
  </g>
</svg>
