<?xml version="1.0" encoding="UTF-8" standalone="no"?>
<!-- Created with Inkscape (http://www.inkscape.org/) -->

<svg
   xmlns:dc="http://purl.org/dc/elements/1.1/"
   xmlns:cc="http://creativecommons.org/ns#"
   xmlns:rdf="http://www.w3.org/1999/02/22-rdf-syntax-ns#"
   xmlns:svg="http://www.w3.org/2000/svg"
   xmlns="http://www.w3.org/2000/svg"
   xmlns:xlink="http://www.w3.org/1999/xlink"
   xmlns:sodipodi="http://sodipodi.sourceforge.net/DTD/sodipodi-0.dtd"
   xmlns:inkscape="http://www.inkscape.org/namespaces/inkscape"
   width="192"
   height="192"
   viewBox="0 0 192 192"
   id="svg2"
   version="1.1"
   inkscape:version="0.91 r13725"
   sodipodi:docname="distributor-logo-archlinux.svg"
   inkscape:export-filename="/home/alex/Pictures/exports/Oko icon pack/distributor-logo-archlinux.png"
   inkscape:export-xdpi="480"
   inkscape:export-ydpi="480">
  <sodipodi:namedview
     id="base"
     pagecolor="#ffffff"
     bordercolor="#666666"
     borderopacity="1.0"
     inkscape:pageopacity="0.0"
     inkscape:pageshadow="2"
     inkscape:zoom="3.959798"
     inkscape:cx="67.573481"
     inkscape:cy="80.501094"
     inkscape:document-units="px"
     inkscape:current-layer="layer1"
     showgrid="true"
     units="px"
     inkscape:showpageshadow="false"
     borderlayer="true"
     inkscape:window-width="1920"
     inkscape:window-height="1023"
     inkscape:window-x="0"
     inkscape:window-y="27"
     inkscape:window-maximized="1"
     inkscape:snap-grids="true"
     inkscape:snap-center="true"
     inkscape:object-nodes="true"
     inkscape:snap-bbox="true"
     inkscape:bbox-nodes="true"
     inkscape:bbox-paths="true">
    <inkscape:grid
       empspacing="4"
       id="grid3336"
       type="xygrid" />
  </sodipodi:namedview>
  <defs
     id="defs4">
    <linearGradient
       inkscape:collect="always"
       id="linearGradient9523">
      <stop
         style="stop-color:#ffffff;stop-opacity:0.1"
         offset="0"
         id="stop9525" />
      <stop
         style="stop-color:#ffffff;stop-opacity:0"
         offset="1"
         id="stop9527" />
    </linearGradient>
    <linearGradient
       inkscape:collect="always"
       id="linearGradient8885">
      <stop
         style="stop-color:#263238;stop-opacity:0.2"
         offset="0"
         id="stop8887" />
      <stop
         style="stop-color:#263238;stop-opacity:0"
         offset="1"
         id="stop8889" />
    </linearGradient>
    <linearGradient
       x1="112.49854"
       y1="6.1372099"
       x2="112.49853"
       y2="129.3468"
       id="path1082_2_"
       gradientUnits="userSpaceOnUse"
       gradientTransform="translate(287,-83)">
      <stop
         id="stop193"
         style="stop-color:#ffffff;stop-opacity:0"
         offset="0" />
      <stop
         id="stop195"
         style="stop-color:#ffffff;stop-opacity:0.27450982"
         offset="1" />
      <midPointStop
         offset="0"
         style="stop-color:#FFFFFF"
         id="midPointStop197" />
      <midPointStop
         offset="0.5"
         style="stop-color:#FFFFFF"
         id="midPointStop199" />
      <midPointStop
         offset="1"
         style="stop-color:#000000"
         id="midPointStop201" />
    </linearGradient>
    <linearGradient
       x1="541.33502"
       y1="104.50665"
       x2="606.91248"
       y2="303.14029"
       id="linearGradient2544"
       xlink:href="#path1082_2_"
       gradientUnits="userSpaceOnUse"
       gradientTransform="matrix(-0.3937741,0,0,0.393752,357.51969,122.00151)" />
    <linearGradient
       id="linearGradient3388">
      <stop
         id="stop3390"
         style="stop-color:#000000;stop-opacity:0"
         offset="0" />
      <stop
         id="stop3392"
         style="stop-color:#000000;stop-opacity:0.37113401"
         offset="1" />
    </linearGradient>
    <linearGradient
       x1="490.72305"
       y1="237.72447"
       x2="490.72305"
       y2="183.9644"
       id="linearGradient4416"
       xlink:href="#linearGradient3388"
       gradientUnits="userSpaceOnUse"
       gradientTransform="matrix(0.749107,0,0,0.749107,-35.459862,91.44108)" />
    <linearGradient
       inkscape:collect="always"
       xlink:href="#linearGradient8885"
       id="linearGradient8891"
       x1="44.0098"
       y1="44.000019"
       x2="172"
       y2="171.99022"
       gradientUnits="userSpaceOnUse" />
    <radialGradient
       inkscape:collect="always"
       xlink:href="#linearGradient9523"
       id="radialGradient9529"
       cx="20"
       cy="880.36218"
       fx="20"
       fy="880.36218"
       r="76"
       gradientUnits="userSpaceOnUse"
       gradientTransform="matrix(1.9999993,2.0000005,-2.0000008,1.9999996,1740.7252,-920.36187)" />
    <filter
       style="color-interpolation-filters:sRGB;"
       inkscape:label="Drop Shadow"
       id="filter9533">
      <feFlood
         flood-opacity="0.2"
         flood-color="rgb(38,50,56)"
         result="flood"
         id="feFlood9535" />
      <feComposite
         in="flood"
         in2="SourceGraphic"
         operator="in"
         result="composite1"
         id="feComposite9537" />
      <feGaussianBlur
         in="composite1"
         stdDeviation="4"
         result="blur"
         id="feGaussianBlur9539" />
      <feOffset
         dx="4"
         dy="4"
         result="offset"
         id="feOffset9541" />
      <feComposite
         in="SourceGraphic"
         in2="offset"
         operator="over"
         result="composite2"
         id="feComposite9543" />
    </filter>
    <filter
       style="color-interpolation-filters:sRGB;"
       inkscape:label="Drop Shadow"
       id="filter3413">
      <feFlood
         flood-opacity="0.12"
         flood-color="rgb(0,0,0)"
         result="flood"
         id="feFlood3415" />
      <feComposite
         in="flood"
         in2="SourceGraphic"
         operator="in"
         result="composite1"
         id="feComposite3417" />
      <feGaussianBlur
         in="composite1"
         stdDeviation="2"
         result="blur"
         id="feGaussianBlur3419" />
      <feOffset
         dx="0"
         dy="0"
         result="offset"
         id="feOffset3421" />
      <feComposite
         in="SourceGraphic"
         in2="offset"
         operator="over"
         result="fbSourceGraphic"
         id="feComposite3423" />
      <feColorMatrix
         result="fbSourceGraphicAlpha"
         in="fbSourceGraphic"
         values="0 0 0 -1 0 0 0 0 -1 0 0 0 0 -1 0 0 0 0 1 0"
         id="feColorMatrix3425" />
      <feFlood
         id="feFlood3427"
         flood-opacity="0.23999999999999999"
         flood-color="rgb(0,0,0)"
         result="flood"
         in="fbSourceGraphic" />
      <feComposite
         id="feComposite3429"
         in2="fbSourceGraphic"
         in="flood"
         operator="in"
         result="composite1" />
      <feGaussianBlur
         id="feGaussianBlur3431"
         in="composite1"
         stdDeviation="2"
         result="blur" />
      <feOffset
         id="feOffset3433"
         dx="0"
         dy="4"
         result="offset" />
      <feComposite
         id="feComposite3435"
         in2="offset"
         in="fbSourceGraphic"
         operator="over"
         result="composite2" />
    </filter>
  </defs>
  <metadata
     id="metadata7">
    <rdf:RDF>
      <cc:Work
         rdf:about="">
        <dc:format>image/svg+xml</dc:format>
        <dc:type
           rdf:resource="http://purl.org/dc/dcmitype/StillImage" />
        <dc:title />
      </cc:Work>
    </rdf:RDF>
  </metadata>
  <g
     transform="translate(0,-860.36216)"
     id="layer1"
     inkscape:groupmode="layer"
     inkscape:label="Main">
    <rect
       ry="12"
       rx="12"
       y="880.36218"
       x="20"
       height="152"
       width="152"
       id="rect7326"
       style="color:#000000;clip-rule:nonzero;display:inline;overflow:visible;visibility:visible;opacity:1;isolation:auto;mix-blend-mode:normal;color-interpolation:sRGB;color-interpolation-filters:linearRGB;solid-color:#000000;solid-opacity:1;fill:#03a9f4;fill-opacity:1;fill-rule:evenodd;stroke:none;stroke-width:24;stroke-linecap:round;stroke-linejoin:round;stroke-miterlimit:4;stroke-dasharray:none;stroke-dashoffset:0;stroke-opacity:1;color-rendering:auto;image-rendering:auto;shape-rendering:auto;text-rendering:auto;enable-background:accumulate;filter:url(#filter3413)" />
    <path
       style="opacity:1;fill:url(#linearGradient8891);fill-opacity:1;fill-rule:evenodd;stroke:none"
       d="M 95.990234 44 C 91.361282 55.34896 88.569749 62.771613 83.416016 73.783203 L 93.628906 84.076172 C 88.52627 81.738667 84.799526 79.383062 81.910156 76.953125 C 75.314349 90.716235 64.979881 110.3209 44.009766 148 L 68.009766 172 L 160 172 C 166.648 172 172 166.648 172 160 L 172 120.00977 L 95.990234 44 z "
       transform="translate(0,860.36216)"
       id="path8240" />
    <path
       d="m 95.990218,904.36218 c -4.628952,11.34896 -7.420913,18.77252 -12.574646,29.78411 3.159885,3.34948 7.038492,7.25011 13.337339,11.65551 -6.771878,-2.78659 -11.391127,-5.58426 -14.843168,-8.4874 -6.595794,13.76314 -16.929508,33.36813 -37.899943,71.0478 16.482058,-9.51542 29.258655,-15.38182 41.165832,-17.62022 -0.5113,-2.19908 -0.801993,-4.57783 -0.782249,-7.05979 l 0.01956,-0.52802 c 0.261532,-10.55962 5.754637,-18.67996 12.261746,-18.12861 6.507121,0.55136 11.565021,9.56372 11.303501,20.12335 -0.0492,1.98698 -0.27332,3.89844 -0.66492,5.67127 11.7779,2.304 24.41789,8.1553 40.67693,17.54202 -3.20597,-5.9024 -6.06757,-11.22312 -8.8003,-16.29042 -4.30448,-3.33624 -8.79427,-7.6784 -17.9526,-12.37906 6.29491,1.63568 10.80198,3.52282 14.31515,5.63219 -27.7844,-51.72969 -30.03435,-58.60349 -39.562232,-80.96273 z"
       id="path2518"
       style="fill:#fafafa;fill-opacity:1;fill-rule:evenodd;stroke:none;filter:url(#filter9533)"
       inkscape:connector-curvature="0" />
    <path
       inkscape:connector-curvature="0"
       id="path2518-5"
       d="m 95.990234,904.36216 c -4.628952,11.34896 -7.420485,18.77161 -12.574218,29.7832 0.09743,0.10328 0.21365,0.21794 0.3125,0.32227 4.947166,-10.63044 7.731455,-17.99847 12.261718,-29.10547 9.429436,22.12822 11.816336,29.23921 38.794926,79.52344 0.25702,0.14605 0.52064,0.29119 0.76757,0.43945 -27.7844,-51.72969 -30.03461,-58.60365 -39.562496,-80.96289 z m -14.080078,32.95313 c -6.595794,13.76314 -16.929955,33.36716 -37.90039,71.04691 0.276631,-0.1597 0.532083,-0.2994 0.80664,-0.4571 20.397719,-36.67855 30.588199,-56.01498 37.09375,-69.58981 3.452041,2.90314 8.069919,5.69973 14.841797,8.48632 -1.200136,-0.83937 -2.288036,-1.65462 -3.324219,-2.45703 -4.998076,-2.30686 -8.666699,-4.63173 -11.517578,-7.02929 z m 39.326174,43.37695 c 9.15833,4.70066 13.64864,9.04266 17.95312,12.3789 2.49129,4.6196 5.15466,9.56206 8.02344,14.85156 0.26435,0.1518 0.51107,0.2857 0.77734,0.4395 -3.20597,-5.9024 -6.06805,-11.22376 -8.80078,-16.29106 -3.65794,-2.83513 -7.47933,-6.39837 -14.15625,-10.28906 -1.19369,-0.37375 -2.44646,-0.73895 -3.79687,-1.08984 z m -36.83008,3.60351 -0.01367,0.38672 c -0.01693,2.12809 0.204995,4.17148 0.587891,6.09961 0.06487,-0.0124 0.130495,-0.0288 0.195312,-0.041 -0.468692,-2.01583 -0.740775,-4.18644 -0.769531,-6.44532 z m 23.56641,0.96485 c -0.0547,1.94665 -0.27595,3.81923 -0.66016,5.55859 0.0621,0.0121 0.12537,0.0267 0.1875,0.0391 0.27293,-1.49683 0.43805,-3.07489 0.47852,-4.70898 0.007,-0.29909 -0.005,-0.59222 -0.006,-0.88867 z"
       style="fill:#ffffff;fill-opacity:1;fill-rule:evenodd;stroke:none" />
    <path
       id="path2518-9"
       transform="translate(0,860.36216)"
       d="M 83.728516 74.105469 C 83.620745 74.337045 83.525892 74.548438 83.416016 74.783203 C 85.973839 77.494498 89.02557 80.573459 93.427734 83.982422 C 94.481674 84.468868 95.572652 84.954177 96.751953 85.439453 C 90.647328 81.169891 86.835491 77.384567 83.728516 74.105469 z M 96.068359 104.63672 C 89.829982 104.62175 84.665469 112.56334 84.412109 122.79297 L 84.392578 123.32031 C 84.390933 123.52714 84.403636 123.72825 84.40625 123.93359 L 84.412109 123.79102 C 84.673641 113.2314 90.166719 105.11271 96.673828 105.66406 C 102.99664 106.19981 107.93698 114.72846 107.97266 124.89844 C 107.97371 124.86098 107.97759 124.82462 107.97852 124.78711 C 108.24004 114.22748 103.18095 105.21542 96.673828 104.66406 C 96.470481 104.64683 96.269597 104.6372 96.068359 104.63672 z M 121.23633 119.33008 C 122.61191 120.03612 123.85308 120.73225 125.0332 121.41992 C 129.40389 122.7884 132.79322 124.30603 135.55273 125.96289 C 135.26566 125.42841 135.06682 125.04841 134.78516 124.52344 C 131.38537 122.59151 127.08879 120.85079 121.23633 119.33008 z M 84.980469 130.41992 C 73.328619 132.64719 60.811274 138.35881 44.816406 147.54297 C 44.533458 148.05176 44.296679 148.48447 44.009766 149 C 60.491824 139.48454 73.268604 133.61731 85.175781 131.37891 C 85.102881 131.06537 85.044139 130.74055 84.980469 130.41992 z M 107.5 130.49805 C 107.44118 130.82046 107.38187 131.14297 107.3125 131.45703 C 119.0904 133.76103 131.73119 139.61324 147.99023 149 C 147.70698 148.47851 147.49092 148.07318 147.21289 147.56055 C 131.42109 138.49034 119.03189 132.78876 107.5 130.49805 z "
       style="fill:#263238;fill-opacity:1;fill-rule:evenodd;stroke:none;opacity:0.2" />
    <path
       inkscape:connector-curvature="0"
       id="rect7326-1"
       d="m 32,880.36216 c -6.648,0 -12,5.352 -12,12 l 0,1 c 0,-6.648 5.352,-12 12,-12 l 128,0 c 6.648,0 12,5.352 12,12 l 0,-1 c 0,-6.648 -5.352,-12 -12,-12 l -128,0 z"
       style="color:#000000;clip-rule:nonzero;display:inline;overflow:visible;visibility:visible;opacity:0.2;isolation:auto;mix-blend-mode:normal;color-interpolation:sRGB;color-interpolation-filters:linearRGB;solid-color:#000000;solid-opacity:1;fill:#ffffff;fill-opacity:1;fill-rule:evenodd;stroke:none;stroke-width:24;stroke-linecap:round;stroke-linejoin:round;stroke-miterlimit:4;stroke-dasharray:none;stroke-dashoffset:0;stroke-opacity:1;color-rendering:auto;image-rendering:auto;shape-rendering:auto;text-rendering:auto;enable-background:accumulate" />
    <path
       id="rect7326-3"
       d="m 20,1019.3622 0,1 c 0,6.648 5.352,12 12,12 l 128,0 c 6.648,0 12,-5.352 12,-12 l 0,-1 c 0,6.648 -5.352,12 -12,12 l -128,0 c -6.648,0 -12,-5.352 -12,-12 z"
       style="color:#000000;clip-rule:nonzero;display:inline;overflow:visible;visibility:visible;opacity:0.2;isolation:auto;mix-blend-mode:normal;color-interpolation:sRGB;color-interpolation-filters:linearRGB;solid-color:#000000;solid-opacity:1;fill:#263238;fill-opacity:1;fill-rule:evenodd;stroke:none;stroke-width:24;stroke-linecap:round;stroke-linejoin:round;stroke-miterlimit:4;stroke-dasharray:none;stroke-dashoffset:0;stroke-opacity:1;color-rendering:auto;image-rendering:auto;shape-rendering:auto;text-rendering:auto;enable-background:accumulate"
       inkscape:connector-curvature="0" />
  </g>
  <g
     inkscape:groupmode="layer"
     id="layer3"
     inkscape:label="Finish"
     sodipodi:insensitive="true"
     style="display:inline">
    <rect
       transform="translate(0,-860.36216)"
       ry="12"
       rx="12"
       y="880.36218"
       x="20"
       height="152"
       width="152"
       id="rect7326-15"
       style="color:#000000;clip-rule:nonzero;display:inline;overflow:visible;visibility:visible;opacity:1;isolation:auto;mix-blend-mode:normal;color-interpolation:sRGB;color-interpolation-filters:linearRGB;solid-color:#000000;solid-opacity:1;fill:url(#radialGradient9529);fill-opacity:1;fill-rule:evenodd;stroke:none;stroke-width:24;stroke-linecap:round;stroke-linejoin:round;stroke-miterlimit:4;stroke-dasharray:none;stroke-dashoffset:0;stroke-opacity:1;color-rendering:auto;image-rendering:auto;shape-rendering:auto;text-rendering:auto;enable-background:accumulate" />
  </g>
</svg>
