<?xml version="1.0" encoding="UTF-8" standalone="no"?>
<!-- Created with Inkscape (http://www.inkscape.org/) -->

<svg
   xmlns:dc="http://purl.org/dc/elements/1.1/"
   xmlns:cc="http://creativecommons.org/ns#"
   xmlns:rdf="http://www.w3.org/1999/02/22-rdf-syntax-ns#"
   xmlns:svg="http://www.w3.org/2000/svg"
   xmlns="http://www.w3.org/2000/svg"
   xmlns:xlink="http://www.w3.org/1999/xlink"
   xmlns:sodipodi="http://sodipodi.sourceforge.net/DTD/sodipodi-0.dtd"
   xmlns:inkscape="http://www.inkscape.org/namespaces/inkscape"
   width="192"
   height="192"
   viewBox="0 0 192 192"
   id="svg2"
   version="1.1"
   inkscape:version="0.91 r13725"
   sodipodi:docname="fb-messenger.svg">
  <sodipodi:namedview
     id="base"
     pagecolor="#ffffff"
     bordercolor="#666666"
     borderopacity="1.0"
     inkscape:pageopacity="0.0"
     inkscape:pageshadow="2"
     inkscape:zoom="4"
     inkscape:cx="117.45882"
     inkscape:cy="100.84035"
     inkscape:document-units="px"
     inkscape:current-layer="layer1"
     showgrid="true"
     units="px"
     inkscape:showpageshadow="false"
     borderlayer="true"
     inkscape:window-width="1920"
     inkscape:window-height="1023"
     inkscape:window-x="0"
     inkscape:window-y="27"
     inkscape:window-maximized="1"
     showguides="true"
     inkscape:guide-bbox="true"
     inkscape:snap-center="true"
     inkscape:snap-bbox="true"
     inkscape:bbox-nodes="true"
     inkscape:object-nodes="true"
     inkscape:snap-grids="false"
     inkscape:bbox-paths="true">
    <inkscape:grid
       empspacing="4"
       id="grid3336"
       type="xygrid" />
    <sodipodi:guide
       id="guide4135"
       orientation="1,0"
       position="96,96" />
    <sodipodi:guide
       id="guide4137"
       orientation="0,1"
       position="96,96" />
  </sodipodi:namedview>
  <defs
     id="defs4">
    <linearGradient
       inkscape:collect="always"
       id="linearGradient4878">
      <stop
         style="stop-color:#263238;stop-opacity:0.2"
         offset="0"
         id="stop4880" />
      <stop
         style="stop-color:#263238;stop-opacity:0"
         offset="1"
         id="stop4882" />
    </linearGradient>
    <linearGradient
       gradientUnits="userSpaceOnUse"
       gradientTransform="matrix(0.77675056,0,0,0.78271486,9.0491291,868.26548)"
       id="a"
       y1="15.200426"
       x2="112.42918"
       x1="112.42918"
       y2="214.96458">
      <stop
         style="stop-color:#00aeff;stop-opacity:1"
         stop-color="#00C6FF"
         offset="0"
         id="stop4207" />
      <stop
         style="stop-color:#0080ff;stop-opacity:1"
         stop-color="#0068FF"
         offset="1"
         id="stop4209" />
    </linearGradient>
    <linearGradient
       inkscape:collect="always"
       xlink:href="#linearGradient4878"
       id="linearGradient4884"
       x1="60.196247"
       y1="67.067123"
       x2="163.99609"
       y2="170.86719"
       gradientUnits="userSpaceOnUse" />
    <linearGradient
       gradientUnits="userSpaceOnUse"
       gradientTransform="matrix(0.77675056,0,0,0.78271486,9.0491291,868.26548)"
       id="Finish"
       y1="15.200426"
       x2="112.42918"
       x1="112.42918"
       y2="214.96458">
      <stop
         style="stop-color:#ffffff;stop-opacity:0.1"
         stop-color="#00C6FF"
         offset="0"
         id="stop4207-8" />
      <stop
         style="stop-color:#ffffff;stop-opacity:0"
         stop-color="#0068FF"
         offset="1"
         id="stop4209-9" />
    </linearGradient>
    <radialGradient
       inkscape:collect="always"
       xlink:href="#Finish"
       id="radialGradient4910"
       cx="9.0491295"
       cy="868.93604"
       fx="9.0491295"
       fy="868.93604"
       r="87.329422"
       gradientTransform="matrix(1.9999895,1.9999892,-2.0033441,2.0033443,1731.7288,-890.61075)"
       gradientUnits="userSpaceOnUse" />
    <filter
       style="color-interpolation-filters:sRGB;"
       inkscape:label="Drop Shadow"
       id="filter4913">
      <feFlood
         flood-opacity="0.12"
         flood-color="rgb(0,0,0)"
         result="flood"
         id="feFlood4915" />
      <feComposite
         in="flood"
         in2="SourceGraphic"
         operator="in"
         result="composite1"
         id="feComposite4917" />
      <feGaussianBlur
         in="composite1"
         stdDeviation="2"
         result="blur"
         id="feGaussianBlur4919" />
      <feOffset
         dx="0"
         dy="0"
         result="offset"
         id="feOffset4921" />
      <feComposite
         in="SourceGraphic"
         in2="offset"
         operator="over"
         result="fbSourceGraphic"
         id="feComposite4923" />
      <feColorMatrix
         result="fbSourceGraphicAlpha"
         in="fbSourceGraphic"
         values="0 0 0 -1 0 0 0 0 -1 0 0 0 0 -1 0 0 0 0 1 0"
         id="feColorMatrix4925" />
      <feFlood
         id="feFlood4927"
         flood-opacity="0.23999999999999999"
         flood-color="rgb(0,0,0)"
         result="flood"
         in="fbSourceGraphic" />
      <feComposite
         id="feComposite4929"
         in2="fbSourceGraphic"
         in="flood"
         operator="in"
         result="composite1" />
      <feGaussianBlur
         id="feGaussianBlur4931"
         in="composite1"
         stdDeviation="2"
         result="blur" />
      <feOffset
         id="feOffset4933"
         dx="0"
         dy="4"
         result="offset" />
      <feComposite
         id="feComposite4935"
         in2="offset"
         in="fbSourceGraphic"
         operator="over"
         result="composite2" />
    </filter>
    <filter
       style="color-interpolation-filters:sRGB;"
       inkscape:label="Drop Shadow"
       id="filter4937"
       x="-0.5"
       y="-0.5"
       width="2"
       height="2">
      <feFlood
         flood-opacity="0.2"
         flood-color="rgb(38,50,56)"
         result="flood"
         id="feFlood4939" />
      <feComposite
         in="flood"
         in2="SourceGraphic"
         operator="in"
         result="composite1"
         id="feComposite4941" />
      <feGaussianBlur
         in="composite1"
         stdDeviation="4"
         result="blur"
         id="feGaussianBlur4943" />
      <feOffset
         dx="4"
         dy="4"
         result="offset"
         id="feOffset4945" />
      <feComposite
         in="SourceGraphic"
         in2="offset"
         operator="over"
         result="composite2"
         id="feComposite4947" />
    </filter>
  </defs>
  <metadata
     id="metadata7">
    <rdf:RDF>
      <cc:Work
         rdf:about="">
        <dc:format>image/svg+xml</dc:format>
        <dc:type
           rdf:resource="http://purl.org/dc/dcmitype/StillImage" />
        <dc:title></dc:title>
      </cc:Work>
    </rdf:RDF>
  </metadata>
  <g
     transform="translate(0,-860.36216)"
     id="layer1"
     inkscape:groupmode="layer"
     inkscape:label="Main">
    <path
       id="path4211"
       d="m 41.21677,1012.9204 0,31.345 29.30916,-16.6628 c 8.169979,2.3548 16.85458,3.6258 25.85263,3.6258 48.23391,0 87.32942,-36.48342 87.32942,-81.48145 0,-45.00116 -39.09551,-81.48147 -87.32942,-81.48147 -48.2308,0 -87.3294309,36.48031 -87.3294309,81.48147 0,25.48148 12.5364509,48.23393 32.1676409,63.17345 z"
       inkscape:connector-curvature="0"
       style="fill:url(#a);filter:url(#filter4913)" />
    <path
       style="opacity:1;fill:url(#linearGradient4884);fill-opacity:1"
       d="M 87.052734 67.068359 L 39.957031 116.93164 L 93.845703 170.82227 C 94.688105 170.84469 95.530766 170.86719 96.378906 170.86719 C 141.41193 170.86719 178.47394 139.06249 183.19531 98.220703 L 152.04297 67.068359 L 109.97461 89.992188 L 87.052734 67.068359 z "
       transform="translate(0,860.36216)"
       id="path4413" />
    <path
       id="path4213"
       d="m 87.05302,927.42961 -47.09629,49.8651 42.861589,-23.51657 22.394541,23.51657 46.83041,-49.8651 -42.38596,23.10487 -22.604291,-23.10487 z"
       inkscape:connector-curvature="0"
       style="fill:#f5f5f5;filter:url(#filter4937)" />
    <path
       id="path4213-8"
       transform="translate(0,860.36216)"
       d="M 152.04297 68.068359 L 150.11914 69.117188 L 105.21289 116.93164 L 82.818359 93.416016 L 41.921875 115.85352 L 39.957031 117.93359 L 82.818359 94.416016 L 105.21289 117.93359 L 152.04297 68.068359 z "
       style="fill:#263238;opacity:0.2" />
    <path
       inkscape:connector-curvature="0"
       id="path4213-6"
       d="m 87.052734,927.43093 -47.095703,49.86523 1.957031,-1.07421 45.138672,-47.79102 22.605466,23.10352 40.46094,-22.05469 1.92383,-2.04883 -42.38477,23.10352 -22.605466,-23.10352 z"
       style="fill:#ffffff;opacity:0.4" />
    <path
       inkscape:connector-curvature="0"
       id="path4211-6"
       d="m 96.378906,868.26474 c -48.2308,0 -87.3300779,36.48126 -87.3300779,81.48242 0,0.15809 0.00685,0.31478 0.00781,0.47266 0.3046548,-44.75796 39.2803944,-80.95508 87.3222654,-80.95508 48.054774,0 87.033354,36.21183 87.322264,80.98242 0.001,-0.16688 0.006,-0.33288 0.006,-0.5 0,-45.00116 -39.09421,-81.48242 -87.328124,-81.48242 z"
       style="fill:#ffffff;opacity:0.2" />
    <path
       inkscape:connector-curvature="0"
       id="path4211-1"
       d="m 9.0566406,949.21924 c -0.0012,0.17602 -0.00781,0.35107 -0.00781,0.52735 0,25.48148 12.5367789,48.23426 32.1679689,63.17381 l 0,-1 C 21.707398,997.07358 9.2110184,974.50879 9.0566406,949.21924 Z m 174.6445294,0.0273 c -0.28891,44.76751 -39.26749,80.98241 -87.322264,80.98241 -8.99805,0 -17.683536,-1.2721 -25.853515,-3.6269 l -29.308594,16.6621 0,1 29.308594,-16.6621 c 8.169979,2.3548 16.855465,3.625 25.853515,3.625 48.233914,0 87.328124,-36.48248 87.328124,-81.48051 0,-0.16714 -0.005,-0.33311 -0.006,-0.5 z"
       style="fill:#263238;opacity:0.2" />
  </g>
  <g
     sodipodi:insensitive="true"
     inkscape:label="Finish"
     id="layer2"
     inkscape:groupmode="layer">
    <path
       transform="translate(0,-860.36216)"
       id="path4211-2"
       d="m 41.21677,1012.9204 0,31.345 29.30916,-16.6628 c 8.169979,2.3548 16.85458,3.6258 25.85263,3.6258 48.23391,0 87.32942,-36.48342 87.32942,-81.48145 0,-45.00116 -39.09551,-81.48147 -87.32942,-81.48147 -48.2308,0 -87.3294309,36.48031 -87.3294309,81.48147 0,25.48148 12.5364509,48.23393 32.1676409,63.17345 z"
       inkscape:connector-curvature="0"
       style="fill:url(#radialGradient4910);fill-opacity:1" />
  </g>
</svg>
