<?xml version="1.0" encoding="UTF-8" standalone="no"?>
<!-- Created with Inkscape (http://www.inkscape.org/) -->

<svg
   xmlns:dc="http://purl.org/dc/elements/1.1/"
   xmlns:cc="http://creativecommons.org/ns#"
   xmlns:rdf="http://www.w3.org/1999/02/22-rdf-syntax-ns#"
   xmlns:svg="http://www.w3.org/2000/svg"
   xmlns="http://www.w3.org/2000/svg"
   xmlns:xlink="http://www.w3.org/1999/xlink"
   xmlns:sodipodi="http://sodipodi.sourceforge.net/DTD/sodipodi-0.dtd"
   xmlns:inkscape="http://www.inkscape.org/namespaces/inkscape"
   sodipodi:docname="motionstills.svg"
   inkscape:version="0.91 r13725"
   version="1.1"
   id="svg2"
   viewBox="0 0 192 192"
   height="192"
   width="192"
   inkscape:export-filename="/home/alex/Pictures/exports/motionstills.png"
   inkscape:export-xdpi="480"
   inkscape:export-ydpi="480">
  <sodipodi:namedview
     inkscape:bbox-paths="true"
     inkscape:snap-grids="true"
     inkscape:bbox-nodes="true"
     inkscape:snap-bbox="true"
     inkscape:snap-center="true"
     inkscape:snap-smooth-nodes="true"
     inkscape:object-nodes="true"
     inkscape:guide-bbox="true"
     showguides="true"
     inkscape:window-maximized="1"
     inkscape:window-y="27"
     inkscape:window-x="0"
     inkscape:window-height="1023"
     inkscape:window-width="1920"
     borderlayer="true"
     inkscape:showpageshadow="false"
     units="px"
     showgrid="true"
     inkscape:current-layer="layer1"
     inkscape:document-units="px"
     inkscape:cy="103.2596"
     inkscape:cx="95.60763"
     inkscape:zoom="11.313708"
     inkscape:pageshadow="2"
     inkscape:pageopacity="0.0"
     borderopacity="1.0"
     bordercolor="#666666"
     pagecolor="#ffffff"
     id="base">
    <inkscape:grid
       empspacing="4"
       id="grid3336"
       type="xygrid" />
    <sodipodi:guide
       id="guide4135"
       orientation="1,0"
       position="96,96" />
    <sodipodi:guide
       id="guide4137"
       orientation="0,1"
       position="96,96" />
  </sodipodi:namedview>
  <defs
     id="defs4">
    <linearGradient
       inkscape:collect="always"
       id="linearGradient5424">
      <stop
         style="stop-color:#263238;stop-opacity:0.2"
         offset="0"
         id="stop5426" />
      <stop
         style="stop-color:#263238;stop-opacity:0"
         offset="1"
         id="stop5428" />
    </linearGradient>
    <linearGradient
       id="linearGradient4507"
       inkscape:collect="always">
      <stop
         id="stop4509"
         offset="0"
         style="stop-color:#ffffff;stop-opacity:0.1" />
      <stop
         id="stop4511"
         offset="1"
         style="stop-color:#ffffff;stop-opacity:0;" />
    </linearGradient>
    <filter
       id="filter4483"
       inkscape:label="Drop Shadow"
       style="color-interpolation-filters:sRGB;">
      <feFlood
         id="feFlood4485"
         result="flood"
         flood-color="rgb(0,0,0)"
         flood-opacity="0.12" />
      <feComposite
         id="feComposite4487"
         result="composite1"
         operator="in"
         in2="SourceGraphic"
         in="flood" />
      <feGaussianBlur
         id="feGaussianBlur4489"
         result="blur"
         stdDeviation="2"
         in="composite1" />
      <feOffset
         id="feOffset4491"
         result="offset"
         dy="0"
         dx="0" />
      <feComposite
         id="feComposite4493"
         result="fbSourceGraphic"
         operator="over"
         in2="offset"
         in="SourceGraphic" />
      <feColorMatrix
         id="feColorMatrix4495"
         values="0 0 0 -1 0 0 0 0 -1 0 0 0 0 -1 0 0 0 0 1 0"
         in="fbSourceGraphic"
         result="fbSourceGraphicAlpha" />
      <feFlood
         in="fbSourceGraphic"
         result="flood"
         flood-color="rgb(0,0,0)"
         flood-opacity="0.23999999999999999"
         id="feFlood4497" />
      <feComposite
         result="composite1"
         operator="in"
         in="flood"
         in2="fbSourceGraphic"
         id="feComposite4499" />
      <feGaussianBlur
         result="blur"
         stdDeviation="2"
         in="composite1"
         id="feGaussianBlur4501" />
      <feOffset
         result="offset"
         dy="4"
         dx="0"
         id="feOffset4503" />
      <feComposite
         result="composite2"
         operator="over"
         in="fbSourceGraphic"
         in2="offset"
         id="feComposite4505" />
    </filter>
    <radialGradient
       gradientUnits="userSpaceOnUse"
       gradientTransform="matrix(1.9999999,1.9999998,-1.9971215,1.9971215,1741.0505,-929.29365)"
       r="73.131558"
       fy="883.23065"
       fx="22.868433"
       cy="883.23065"
       cx="22.868433"
       id="radialGradient4513"
       xlink:href="#linearGradient4507"
       inkscape:collect="always" />
    <linearGradient
       inkscape:collect="always"
       xlink:href="#linearGradient5424"
       id="linearGradient5430"
       x1="32.829071"
       y1="62.828945"
       x2="142"
       y2="172"
       gradientUnits="userSpaceOnUse" />
    <clipPath
       clipPathUnits="userSpaceOnUse"
       id="clipPath5432">
      <path
         id="path5434"
         d="m 139.87891,880.36216 -29.25196,50.66602 a 58.504806,58.504806 0 0 0 -79.919919,21.41406 58.504806,58.504806 0 0 0 21.414063,79.91996 l 29.251953,-50.66606 a 58.504806,58.504806 0 0 0 79.919923,-21.41406 58.504806,58.504806 0 0 0 -21.41406,-79.91992 z"
         clip-path="none"
         style="color:#000000;clip-rule:nonzero;display:inline;overflow:visible;visibility:visible;opacity:1;isolation:auto;mix-blend-mode:normal;color-interpolation:sRGB;color-interpolation-filters:linearRGB;solid-color:#000000;solid-opacity:1;fill:#37474f;fill-opacity:1;fill-rule:nonzero;stroke:none;stroke-width:4;stroke-linecap:butt;stroke-linejoin:miter;stroke-miterlimit:4;stroke-dasharray:none;stroke-dashoffset:0;stroke-opacity:1;color-rendering:auto;image-rendering:auto;shape-rendering:auto;text-rendering:auto;enable-background:accumulate"
         inkscape:connector-curvature="0" />
    </clipPath>
    <filter
       style="color-interpolation-filters:sRGB;"
       inkscape:label="Drop Shadow"
       id="filter5436">
      <feFlood
         flood-opacity="0.2"
         flood-color="rgb(38,50,56)"
         result="flood"
         id="feFlood5438" />
      <feComposite
         in="flood"
         in2="SourceGraphic"
         operator="in"
         result="composite1"
         id="feComposite5440" />
      <feGaussianBlur
         in="composite1"
         stdDeviation="4"
         result="blur"
         id="feGaussianBlur5442" />
      <feOffset
         dx="4"
         dy="4"
         result="offset"
         id="feOffset5444" />
      <feComposite
         in="SourceGraphic"
         in2="offset"
         operator="over"
         result="composite2"
         id="feComposite5446" />
    </filter>
  </defs>
  <metadata
     id="metadata7">
    <rdf:RDF>
      <cc:Work
         rdf:about="">
        <dc:format>image/svg+xml</dc:format>
        <dc:type
           rdf:resource="http://purl.org/dc/dcmitype/StillImage" />
        <dc:title />
      </cc:Work>
    </rdf:RDF>
  </metadata>
  <g
     transform="translate(0,-860.36216)"
     id="layer1"
     inkscape:groupmode="layer"
     inkscape:label="Main">
    <path
       style="color:#000000;clip-rule:nonzero;display:inline;overflow:visible;visibility:visible;opacity:1;isolation:auto;mix-blend-mode:normal;color-interpolation:sRGB;color-interpolation-filters:linearRGB;solid-color:#000000;solid-opacity:1;fill:#ffffff;fill-opacity:1;fill-rule:nonzero;stroke:none;stroke-width:4;stroke-linecap:butt;stroke-linejoin:miter;stroke-miterlimit:4;stroke-dasharray:none;stroke-dashoffset:0;stroke-opacity:1;color-rendering:auto;image-rendering:auto;shape-rendering:auto;text-rendering:auto;enable-background:accumulate;filter:url(#filter4483)"
       d="m 139.87891,880.36216 -29.25196,50.66602 a 58.504806,58.504806 0 0 0 -79.919919,21.41406 58.504806,58.504806 0 0 0 21.414063,79.91996 l 29.251953,-50.66606 a 58.504806,58.504806 0 0 0 79.919923,-21.41406 58.504806,58.504806 0 0 0 -21.41406,-79.91992 z"
       id="path4399-4-8"
       inkscape:connector-curvature="0" />
    <path
       clip-path="none"
       inkscape:transform-center-y="-0.00136811"
       inkscape:transform-center-x="-37.99537"
       inkscape:connector-curvature="0"
       id="path4171-0"
       d="m 139.87862,880.36216 a 58.504806,58.504806 0 0 1 21.41425,79.91905 58.504806,58.504806 0 0 1 -79.919085,21.4143 L 139.87862,880.36216 Z"
       style="color:#000000;clip-rule:nonzero;display:inline;overflow:visible;visibility:visible;opacity:1;isolation:auto;mix-blend-mode:normal;color-interpolation:sRGB;color-interpolation-filters:linearRGB;solid-color:#000000;solid-opacity:1;fill:#37474f;fill-opacity:1;fill-rule:nonzero;stroke:none;stroke-width:4;stroke-linecap:butt;stroke-linejoin:miter;stroke-miterlimit:4;stroke-dasharray:none;stroke-dashoffset:0;stroke-opacity:1;color-rendering:auto;image-rendering:auto;shape-rendering:auto;text-rendering:auto;enable-background:accumulate;" />
    <path
       inkscape:connector-curvature="0"
       id="path4171-0-3"
       d="M 139.87891,880.3618 81.373047,981.69578 a 58.504806,58.504806 0 0 0 0.441406,0.23438 L 139.87891,881.3618 a 58.504806,58.504806 0 0 1 29.18554,47.87695 58.504806,58.504806 0 0 0 -29.18554,-48.87695 z"
       style="color:#000000;clip-rule:nonzero;display:inline;overflow:visible;visibility:visible;opacity:0.2;isolation:auto;mix-blend-mode:normal;color-interpolation:sRGB;color-interpolation-filters:linearRGB;solid-color:#000000;solid-opacity:1;fill:#ffffff;fill-opacity:1;fill-rule:nonzero;stroke:none;stroke-width:4;stroke-linecap:butt;stroke-linejoin:miter;stroke-miterlimit:4;stroke-dasharray:none;stroke-dashoffset:0;stroke-opacity:1;color-rendering:auto;image-rendering:auto;shape-rendering:auto;text-rendering:auto;enable-background:accumulate" />
    <path
       style="color:#000000;clip-rule:nonzero;display:inline;overflow:visible;visibility:visible;opacity:1;isolation:auto;mix-blend-mode:normal;color-interpolation:sRGB;color-interpolation-filters:linearRGB;solid-color:#000000;solid-opacity:1;fill:url(#linearGradient5430);fill-opacity:1;fill-rule:nonzero;stroke:none;stroke-width:4;stroke-linecap:butt;stroke-linejoin:miter;stroke-miterlimit:4;stroke-dasharray:none;stroke-dashoffset:0;stroke-opacity:1;color-rendering:auto;image-rendering:auto;shape-rendering:auto;text-rendering:auto;enable-background:accumulate"
       d="M 82.666016 62.845703 A 58.504806 58.504806 0 0 0 76.978516 62.996094 C 76.947905 62.998399 76.917328 62.999599 76.886719 63.001953 A 58.504806 58.504806 0 0 0 76.859375 63.003906 A 58.504806 58.504806 0 0 0 71.230469 63.71875 C 71.133889 63.735755 71.037937 63.75594 70.941406 63.773438 A 58.504806 58.504806 0 0 0 65.693359 64.980469 C 65.457402 65.04613 65.225061 65.120924 64.990234 65.189453 A 58.504806 58.504806 0 0 0 60.15625 66.824219 C 59.928216 66.912972 59.703269 67.008081 59.476562 67.099609 A 58.504806 58.504806 0 0 0 54.820312 69.216797 C 54.612552 69.32265 54.407546 69.432742 54.201172 69.541016 A 58.504806 58.504806 0 0 0 49.769531 72.115234 C 49.566961 72.24531 49.36692 72.379183 49.166016 72.511719 A 58.504806 58.504806 0 0 0 45.027344 75.507812 C 44.839102 75.657099 44.653198 75.809334 44.466797 75.960938 A 58.504806 58.504806 0 0 0 40.646484 79.353516 C 40.474017 79.52081 40.303266 79.689907 40.132812 79.859375 A 58.504806 58.504806 0 0 0 36.677734 83.609375 C 36.519781 83.796509 36.360773 83.982642 36.205078 84.171875 A 58.504806 58.504806 0 0 0 33.123047 88.277344 C 32.970786 88.499602 32.817311 88.720716 32.667969 88.945312 A 58.504806 58.504806 0 0 0 30.707031 92.080078 A 58.504806 58.504806 0 0 0 28.052734 97.259766 C 28.037833 97.292772 28.024604 97.326345 28.009766 97.359375 A 58.504806 58.504806 0 0 0 25.925781 102.67969 C 25.905939 102.73868 25.888792 102.79837 25.869141 102.85742 A 58.504806 58.504806 0 0 0 24.357422 108.24414 C 24.328542 108.36999 24.305386 108.49703 24.277344 108.62305 A 58.504806 58.504806 0 0 0 23.337891 113.98047 C 23.319961 114.12205 23.309863 114.26454 23.292969 114.40625 A 58.504806 58.504806 0 0 0 22.898438 119.75781 C 22.893515 119.94057 22.897741 120.1238 22.894531 120.30664 A 58.504806 58.504806 0 0 0 23.033203 125.58984 C 23.046948 125.77821 23.068407 125.96598 23.083984 126.1543 A 58.504806 58.504806 0 0 0 23.742188 131.3418 C 23.780351 131.56148 23.826477 131.78057 23.867188 132 A 58.504806 58.504806 0 0 0 25.041016 137.09375 C 25.080998 137.23665 25.123025 137.379 25.164062 137.52148 A 58.504806 58.504806 0 0 0 26.90625 142.66992 C 26.954665 142.79347 27.005455 142.9159 27.054688 143.03906 A 58.504806 58.504806 0 0 0 29.308594 148 C 29.370633 148.12106 29.435183 148.24074 29.498047 148.36133 A 58.504806 58.504806 0 0 0 32.232422 153.06836 C 32.310166 153.18868 32.392088 153.30605 32.470703 153.42578 A 58.504806 58.504806 0 0 0 35.652344 157.82227 C 35.740032 157.93211 35.831441 158.03923 35.919922 158.14844 A 58.504806 58.504806 0 0 0 39.533203 162.2168 C 39.625827 162.31159 39.723123 162.40192 39.816406 162.49609 A 58.504806 58.504806 0 0 0 52.121094 172 L 81.373047 121.33398 A 58.504806 58.504806 0 0 0 151.98047 112.01953 L 110.62695 70.666016 A 58.504806 58.504806 0 0 0 105.47656 68.025391 C 105.44791 68.012438 105.41929 67.999233 105.39062 67.986328 A 58.504806 58.504806 0 0 0 100.02539 65.882812 C 100.00063 65.874485 99.975947 65.865716 99.951172 65.857422 A 58.504806 58.504806 0 0 0 94.494141 64.324219 C 94.41459 64.305918 94.335479 64.285544 94.255859 64.267578 A 58.504806 58.504806 0 0 0 88.738281 63.298828 C 88.657502 63.288582 88.576915 63.277488 88.496094 63.267578 A 58.504806 58.504806 0 0 0 82.896484 62.853516 C 82.81962 62.851514 82.742895 62.847402 82.666016 62.845703 z "
       transform="translate(0,860.36216)"
       id="path4963" />
    <path
       inkscape:transform-center-y="-0.00136811"
       inkscape:transform-center-x="37.99537"
       inkscape:connector-curvature="0"
       id="path4171"
       d="m 110.6262,931.02883 a 58.504806,58.504806 0 0 0 -79.919063,21.41427 58.504806,58.504806 0 0 0 21.414245,79.9191 L 110.6262,931.02883 Z"
       style="color:#000000;clip-rule:nonzero;display:inline;overflow:visible;visibility:visible;opacity:1;isolation:auto;mix-blend-mode:normal;color-interpolation:sRGB;color-interpolation-filters:linearRGB;solid-color:#000000;solid-opacity:1;fill:#69f0ae;fill-opacity:1;fill-rule:nonzero;stroke:none;stroke-width:4;stroke-linecap:butt;stroke-linejoin:miter;stroke-miterlimit:4;stroke-dasharray:none;stroke-dashoffset:0;stroke-opacity:1;color-rendering:auto;image-rendering:auto;shape-rendering:auto;text-rendering:auto;enable-background:accumulate;filter:url(#filter5436)"
       clip-path="url(#clipPath5432)" />
    <path
       inkscape:connector-curvature="0"
       id="path4171-0-6"
       d="m 169.06445,928.23955 a 58.504806,58.504806 0 0 1 -7.77148,31.04297 58.504806,58.504806 0 0 1 -79.478517,21.64844 l -0.441406,0.76562 a 58.504806,58.504806 0 0 0 79.919923,-21.41406 58.504806,58.504806 0 0 0 7.77148,-32.04297 z"
       style="color:#000000;clip-rule:nonzero;display:inline;overflow:visible;visibility:visible;opacity:0.3;isolation:auto;mix-blend-mode:normal;color-interpolation:sRGB;color-interpolation-filters:linearRGB;solid-color:#000000;solid-opacity:1;fill:#263238;fill-opacity:1;fill-rule:nonzero;stroke:none;stroke-width:4;stroke-linecap:butt;stroke-linejoin:miter;stroke-miterlimit:4;stroke-dasharray:none;stroke-dashoffset:0;stroke-opacity:1;color-rendering:auto;image-rendering:auto;shape-rendering:auto;text-rendering:auto;enable-background:accumulate" />
    <path
       inkscape:connector-curvature="0"
       id="path4171-58"
       d="M 110.18164,930.79966 52.121094,1031.3622 A 58.504806,58.504806 0 0 1 22.904297,980.05161 58.504806,58.504806 0 0 0 52.121094,1032.3622 L 110.62695,931.02818 a 58.504806,58.504806 0 0 0 -0.44531,-0.22852 z"
       style="color:#000000;clip-rule:nonzero;display:inline;overflow:visible;visibility:visible;opacity:0.2;isolation:auto;mix-blend-mode:normal;color-interpolation:sRGB;color-interpolation-filters:linearRGB;solid-color:#000000;solid-opacity:1;fill:#263238;fill-opacity:1;fill-rule:nonzero;stroke:none;stroke-width:4;stroke-linecap:butt;stroke-linejoin:miter;stroke-miterlimit:4;stroke-dasharray:none;stroke-dashoffset:0;stroke-opacity:1;color-rendering:auto;image-rendering:auto;shape-rendering:auto;text-rendering:auto;enable-background:accumulate" />
    <path
       inkscape:connector-curvature="0"
       id="path4171-5"
       d="m 82.753906,923.20741 a 58.504806,58.504806 0 0 0 -52.046875,29.23438 58.504806,58.504806 0 0 0 -7.802734,28.60937 58.504806,58.504806 0 0 1 7.802734,-27.60937 58.504806,58.504806 0 0 1 79.474609,-21.64258 l 0.44531,-0.77148 a 58.504806,58.504806 0 0 0 -27.873044,-7.82032 z"
       style="color:#000000;clip-rule:nonzero;display:inline;overflow:visible;visibility:visible;opacity:0.3;isolation:auto;mix-blend-mode:normal;color-interpolation:sRGB;color-interpolation-filters:linearRGB;solid-color:#000000;solid-opacity:1;fill:#ffffff;fill-opacity:1;fill-rule:nonzero;stroke:none;stroke-width:4;stroke-linecap:butt;stroke-linejoin:miter;stroke-miterlimit:4;stroke-dasharray:none;stroke-dashoffset:0;stroke-opacity:1;color-rendering:auto;image-rendering:auto;shape-rendering:auto;text-rendering:auto;enable-background:accumulate" />
  </g>
  <g
     sodipodi:insensitive="true"
     inkscape:label="Finish"
     id="layer2"
     inkscape:groupmode="layer">
    <path
       style="color:#000000;clip-rule:nonzero;display:inline;overflow:visible;visibility:visible;opacity:1;isolation:auto;mix-blend-mode:normal;color-interpolation:sRGB;color-interpolation-filters:linearRGB;solid-color:#000000;solid-opacity:1;fill:url(#radialGradient4513);fill-opacity:1;fill-rule:nonzero;stroke:none;stroke-width:4;stroke-linecap:butt;stroke-linejoin:miter;stroke-miterlimit:4;stroke-dasharray:none;stroke-dashoffset:0;stroke-opacity:1;color-rendering:auto;image-rendering:auto;shape-rendering:auto;text-rendering:auto;enable-background:accumulate"
       d="m 139.87891,880.36216 -29.25196,50.66602 a 58.504806,58.504806 0 0 0 -79.919919,21.41406 58.504806,58.504806 0 0 0 21.414063,79.91996 l 29.251953,-50.66606 a 58.504806,58.504806 0 0 0 79.919923,-21.41406 58.504806,58.504806 0 0 0 -21.41406,-79.91992 z"
       id="path4399-4"
       inkscape:connector-curvature="0"
       transform="translate(0,-860.36216)" />
  </g>
</svg>
