<?xml version="1.0" encoding="UTF-8" standalone="no"?>
<!-- Created with Inkscape (http://www.inkscape.org/) -->

<svg
   xmlns:dc="http://purl.org/dc/elements/1.1/"
   xmlns:cc="http://creativecommons.org/ns#"
   xmlns:rdf="http://www.w3.org/1999/02/22-rdf-syntax-ns#"
   xmlns:svg="http://www.w3.org/2000/svg"
   xmlns="http://www.w3.org/2000/svg"
   xmlns:xlink="http://www.w3.org/1999/xlink"
   xmlns:sodipodi="http://sodipodi.sourceforge.net/DTD/sodipodi-0.dtd"
   xmlns:inkscape="http://www.inkscape.org/namespaces/inkscape"
   width="48"
   height="48"
   id="svg2"
   version="1.1"
   inkscape:version="0.91 r13725"
   sodipodi:docname="google-music.svg">
  <defs
     id="defs4">
    <linearGradient
       id="linearGradient3865">
      <stop
         style="stop-color:#eac643;stop-opacity:1;"
         offset="0"
         id="stop3867" />
      <stop
         style="stop-color:#f3d769;stop-opacity:1;"
         offset="1"
         id="stop3869" />
    </linearGradient>
    <linearGradient
       id="linearGradient3857">
      <stop
         style="stop-color:#e3a309;stop-opacity:1;"
         offset="0"
         id="stop3859" />
      <stop
         style="stop-color:#f0b70b;stop-opacity:1;"
         offset="1"
         id="stop3861" />
    </linearGradient>
    <linearGradient
       inkscape:collect="always"
       id="linearGradient3846">
      <stop
         style="stop-color:#000000;stop-opacity:1;"
         offset="0"
         id="stop3849" />
      <stop
         style="stop-color:#000000;stop-opacity:0;"
         offset="1"
         id="stop3852" />
    </linearGradient>
    <linearGradient
       id="linearGradient3830">
      <stop
         style="stop-color:#3b3b3b;stop-opacity:1;"
         offset="0"
         id="stop3832" />
      <stop
         style="stop-color:#1a1a1a;stop-opacity:1;"
         offset="1"
         id="stop3834" />
    </linearGradient>
    <linearGradient
       id="linearGradient3818">
      <stop
         style="stop-color:#dadad8;stop-opacity:1;"
         offset="0"
         id="stop3820" />
      <stop
         style="stop-color:#efefef;stop-opacity:1;"
         offset="1"
         id="stop3822" />
    </linearGradient>
    <linearGradient
       id="linearGradient3956">
      <stop
         style="stop-color:#f8f4e1;stop-opacity:1;"
         offset="0"
         id="stop3958" />
      <stop
         style="stop-color:#eae5c8;stop-opacity:1;"
         offset="1"
         id="stop3960" />
    </linearGradient>
    <linearGradient
       id="linearGradient3915">
      <stop
         style="stop-color:#f8f4e1;stop-opacity:1;"
         offset="0"
         id="stop3917" />
      <stop
         style="stop-color:#ad9e57;stop-opacity:1;"
         offset="1"
         id="stop3919" />
    </linearGradient>
    <linearGradient
       inkscape:collect="always"
       id="linearGradient3861">
      <stop
         style="stop-color:#000000;stop-opacity:1;"
         offset="0"
         id="stop3863" />
      <stop
         style="stop-color:#000000;stop-opacity:0;"
         offset="1"
         id="stop3865" />
    </linearGradient>
    <linearGradient
       id="linearGradient3844">
      <stop
         style="stop-color:#000000;stop-opacity:0.39215687;"
         offset="0"
         id="stop3846" />
      <stop
         style="stop-color:#000000;stop-opacity:0;"
         offset="1"
         id="stop3848" />
    </linearGradient>
    <linearGradient
       id="linearGradient3810">
      <stop
         style="stop-color:#f2c66f;stop-opacity:1;"
         offset="0"
         id="stop3812" />
      <stop
         style="stop-color:#fbd68f;stop-opacity:1;"
         offset="1"
         id="stop3814" />
    </linearGradient>
    <linearGradient
       inkscape:collect="always"
       xlink:href="#linearGradient3810"
       id="linearGradient3816"
       x1="24"
       y1="1046.3622"
       x2="24"
       y2="1014.3622"
       gradientUnits="userSpaceOnUse" />
    <linearGradient
       inkscape:collect="always"
       xlink:href="#linearGradient3810"
       id="linearGradient3856"
       gradientUnits="userSpaceOnUse"
       x1="24"
       y1="1046.3622"
       x2="24"
       y2="1014.3622"
       gradientTransform="translate(0,-3)" />
    <linearGradient
       inkscape:collect="always"
       xlink:href="#linearGradient3810"
       id="linearGradient3858"
       gradientUnits="userSpaceOnUse"
       x1="24"
       y1="1046.3622"
       x2="24"
       y2="1014.3622"
       gradientTransform="translate(0,-1004.3622)" />
    <linearGradient
       inkscape:collect="always"
       xlink:href="#linearGradient3861"
       id="linearGradient3867"
       x1="1.9952808"
       y1="28.5625"
       x2="46.004719"
       y2="28.5625"
       gradientUnits="userSpaceOnUse" />
    <linearGradient
       inkscape:collect="always"
       xlink:href="#linearGradient3915"
       id="linearGradient3921"
       x1="35"
       y1="8"
       x2="38"
       y2="5"
       gradientUnits="userSpaceOnUse" />
    <linearGradient
       inkscape:collect="always"
       xlink:href="#linearGradient3915"
       id="linearGradient3933"
       gradientUnits="userSpaceOnUse"
       x1="35"
       y1="8"
       x2="38"
       y2="5"
       gradientTransform="matrix(1.0436562,0,0,1.2222222,26.301501,1003.2511)" />
    <linearGradient
       x1="20"
       y1="26.000008"
       x2="20"
       y2="13.000008"
       id="linearGradient3018-5"
       xlink:href="#linearGradient3680-6-6-6-3-7"
       gradientUnits="userSpaceOnUse"
       gradientTransform="translate(0,0.9999922)" />
    <linearGradient
       id="linearGradient3680-6-6-6-3-7">
      <stop
         id="stop3682-4-6-1-3-7"
         style="stop-color:#d2eecc;stop-opacity:1;"
         offset="0" />
      <stop
         id="stop3684-8-5-8-0-2"
         style="stop-color:#ecffe7;stop-opacity:1;"
         offset="1" />
    </linearGradient>
    <linearGradient
       inkscape:collect="always"
       xlink:href="#linearGradient3846"
       id="linearGradient3854"
       x1="23"
       y1="12"
       x2="23"
       y2="15"
       gradientUnits="userSpaceOnUse"
       gradientTransform="translate(0,1006.3622)" />
  </defs>
  <sodipodi:namedview
     id="base"
     pagecolor="#ffffff"
     bordercolor="#666666"
     borderopacity="1.0"
     inkscape:pageopacity="0.0"
     inkscape:pageshadow="2"
     inkscape:zoom="17.270833"
     inkscape:cx="24"
     inkscape:cy="24"
     inkscape:document-units="px"
     inkscape:current-layer="g4188"
     showgrid="true"
     inkscape:window-width="1920"
     inkscape:window-height="1020"
     inkscape:window-x="0"
     inkscape:window-y="32"
     inkscape:window-maximized="1"
     inkscape:snap-bbox="true"
     inkscape:bbox-paths="true"
     inkscape:bbox-nodes="true"
     inkscape:snap-bbox-edge-midpoints="true"
     inkscape:snap-bbox-midpoints="true"
     inkscape:object-paths="true"
     inkscape:snap-intersection-paths="true"
     inkscape:object-nodes="true"
     inkscape:snap-smooth-nodes="true"
     inkscape:snap-midpoints="true">
    <inkscape:grid
       type="xygrid"
       id="grid2990"
       empspacing="5"
       visible="true"
       enabled="true"
       snapvisiblegridlinesonly="true" />
  </sodipodi:namedview>
  <metadata
     id="metadata7">
    <rdf:RDF>
      <cc:Work
         rdf:about="">
        <dc:format>image/svg+xml</dc:format>
        <dc:type
           rdf:resource="http://purl.org/dc/dcmitype/StillImage" />
        <dc:title />
      </cc:Work>
    </rdf:RDF>
  </metadata>
  <g
     inkscape:label="Body"
     inkscape:groupmode="layer"
     id="layer1"
     transform="translate(0,-1004.3622)">
    <path
       style="fill:#fdbd5b;fill-opacity:1;stroke:none"
       d="m 23.15625,1010.3622 c -5.612247,0 -13.15625,5 -15.09375,10 l 1.9375,2 c 2.570912,-3.65 8.778592,-8 13.21875,-8 l 1.5625,0 c 4.444126,0 10.647979,4.3444 13.21875,8 l 1.9375,-2 c -1.9375,-5 -9.481503,-10 -15.09375,-10 z"
       id="rect3896"
       inkscape:connector-curvature="0"
       sodipodi:nodetypes="sccssccss" />
    <path
       style="fill:#e67413;fill-opacity:1;stroke:none"
       d="m 12,1033.3622 c -3.865993,0 -7,3.134 -7,7 0,3.866 3.134007,7 7,7 l 0,-14 z"
       id="path3878"
       inkscape:connector-curvature="0" />
    <rect
       style="fill:#fdbd5b;fill-opacity:1;stroke:none"
       id="rect3883"
       width="3"
       height="16"
       x="12"
       y="1032.3622"
       rx="1"
       ry="1" />
    <path
       id="path3885"
       d="m 36,1033.3622 c 3.865993,0 7,3.134 7,7 0,3.866 -3.134007,7 -7,7 l 0,-14 z"
       style="fill:#e67413;fill-opacity:1;stroke:none"
       inkscape:connector-curvature="0" />
    <rect
       ry="1"
       rx="1"
       transform="scale(-1,1)"
       y="1032.3622"
       x="-36"
       height="16"
       width="3"
       id="rect3887"
       style="fill:#fdbd5b;fill-opacity:1;stroke:none" />
    <path
       style="opacity:1;fill:#e67413;fill-opacity:1;stroke:none"
       d="M 22.894737,1008.3622 C 11.873053,1008.3622 3,1017.2504 3,1028.2908 l 0,2.2143 c 0,3.1886 0.7541481,6.1899 2.0723684,8.8571 l 3.0049346,0 C 6.9672224,1036.9808 6,1034.286 6,1031.4393 l 0,-1.9722 c 0,-9.8576 7.786016,-18.1049 17.067434,-18.1049 l 1.865132,0 c 9.281418,0 17.067434,8.2473 17.067434,18.1049 l 0,1.9722 c 0,2.8467 -0.967223,5.5415 -2.077303,7.9229 l 3.004935,0 C 44.245851,1036.695 45,1033.6937 45,1030.5051 l 0,-2.2143 c 0,-11.0404 -8.873053,-19.9286 -19.894737,-19.9286 z"
       id="rect3849"
       inkscape:connector-curvature="0"
       sodipodi:nodetypes="sssccssssssccssss" />
  </g>
  <g
     transform="translate(0,-1004.3622)"
     id="g4188"
     inkscape:groupmode="layer"
     inkscape:label="Shadow">
    <path
       style="opacity:0.04;fill:#000000;fill-opacity:1;stroke:none"
       d="m 23.447266,1015.35 c -0.812666,0.03 -1.622482,0.134 -2.417969,0.3105 -4.367699,1.2769 -8.272811,4.0983 -11.029297,7.6993 -0.5651211,-0.5834 -1.1301914,-1.1666 -1.6953125,-1.75 -0.00486,-0.019 1.551e-4,-0.038 -0.00391,-0.057 -1.5718812,2.8574 -2.4274407,6.113 -2.3007812,9.377 -0.029422,0.501 -0.02683,0.9994 -0.00977,1.498 0.00453,-0.1663 -1.01e-5,-0.3316 0.00977,-0.498 -0.1266595,-3.264 0.7289,-6.5196 2.3007812,-9.377 0.00406,0.019 -9.539e-4,0.038 0.00391,0.057 0.5651211,0.5834 1.1301914,1.1666 1.6953125,1.75 2.756486,-3.601 6.661598,-6.4224 11.029297,-7.6993 3.181947,-0.7063 6.602633,-0.2442 9.443359,1.3887 2.893006,1.5653 5.569736,3.6461 7.527344,6.3106 0.572475,-0.591 1.144321,-1.1825 1.716797,-1.7735 1.578551,2.8833 2.429162,6.1693 2.283203,9.459 0.0085,0.1494 0.0037,0.298 0.0078,0.4473 0.01707,-0.4814 0.01973,-0.9634 -0.0078,-1.4473 0.145959,-3.2897 -0.704652,-6.5757 -2.283203,-9.459 -0.572476,0.591 -1.144322,1.1825 -1.716797,1.7735 -1.957608,-2.6645 -4.634338,-4.7453 -7.527344,-6.3106 -2.130544,-1.2247 -4.587394,-1.7905 -7.02539,-1.6992 z m -20.4550785,15.6133 c -0.00789,1.4004 0.060234,2.8034 0.1816406,4.1836 0.2773074,2.0898 0.9007638,4.1286 1.8164063,6.0273 0.00588,-0.2826 0.027263,-0.5625 0.070312,-0.8398 -0.9579978,-1.9429 -1.6017406,-4.0399 -1.8867188,-6.1875 -0.092477,-1.0514 -0.1578559,-2.1172 -0.1816406,-3.1836 z m 42.0214845,0.123 c -0.05266,3.2014 -0.591237,6.4062 -2.085938,9.2735 l -0.0078,0 c 0.0408,0.2842 0.063,0.5737 0.07031,0.8671 1.596389,-3.1337 2.072301,-6.6589 2.023438,-10.1406 z M 15,1035.3519 l 0,0.7051 c 0.06324,-0.2647 0.05054,-0.4961 0,-0.7051 z m 26.052734,2.1856 c -0.10998,0.334 -0.211656,0.6715 -0.33789,1 0.126049,-0.3259 0.24177,-0.6549 0.351562,-0.9863 -0.0044,-0 -0.0092,-0.01 -0.01367,-0.014 z m -0.408203,1.1719 c -0.220505,0.5595 -0.458149,1.1109 -0.722656,1.6504 0.264404,-0.5393 0.501052,-1.0916 0.722656,-1.6504 z m -35.6406248,3.0839 c -0.04403,0.5385 -0.026105,1.086 0.076172,1.6329 0.4436369,3.3231 3.5626215,6.0025 6.9160159,5.9336 -0.0051,-0.074 -0.0072,-0.1506 0.0039,-0.2325 l 0,0.2325 c -0.0013,0 -0.0026,-10e-5 -0.0039,0 0.09628,1.389 2.905552,1.4014 3.003906,0 l 0,-1 c -0.09835,1.4014 -2.907625,1.389 -3.003906,0 -3.3533944,0.069 -6.472379,-2.6105 -6.9160159,-5.9336 -0.039434,-0.2109 -0.059308,-0.4223 -0.076172,-0.6329 z m 6.9921878,6.5665 c 0.0013,-10e-5 0.0026,0 0.0039,0 l 0,-0.2325 c -0.01113,0.082 -0.009,0.1584 -0.0039,0.2325 z m 30.972656,-6.3926 c -0.308006,3.5814 -3.307509,6.3926 -6.96875,6.3926 0,0.554 -0.446,1 -1,1 l -1,0 c -0.554,0 -1,-0.446 -1,-1 l 0,1 c 0,0.554 0.446,1 1,1 l 1,0 c 0.554,0 1,-0.446 1,-1 3.865993,0 7,-3.134 7,-7 0,-0.1338 -0.02222,-0.2614 -0.03125,-0.3926 z"
       id="path4233"
       inkscape:connector-curvature="0" />
    <path
       style="opacity:0.16;fill:#000000;fill-opacity:1;stroke:none"
       d="M 23.447266 9.9882812 C 22.6346 10.018703 21.824784 10.122253 21.029297 10.298828 C 16.661598 11.575728 12.756486 14.399 10 18 C 9.4348789 17.4166 8.8698086 16.8334 8.3046875 16.25 C 8.2998273 16.231407 8.3048426 16.212018 8.3007812 16.193359 C 6.7289 19.050732 5.8733405 22.304412 6 25.568359 C 5.9732702 26.023567 5.9706723 26.478404 5.9824219 26.931641 C 5.9837626 26.644208 5.9830823 26.356468 6 26.068359 C 5.8733482 22.804611 6.7290844 19.550608 8.3007812 16.693359 C 8.3048426 16.712018 8.2998273 16.731407 8.3046875 16.75 C 8.8698086 17.3334 9.4348789 17.9166 10 18.5 C 12.756486 14.899 16.661598 12.075728 21.029297 10.798828 C 24.211244 10.092528 27.63193 10.5546 30.472656 12.1875 C 33.365662 13.7528 36.042392 15.8355 38 18.5 C 38.572475 17.909028 39.144321 17.317517 39.716797 16.726562 C 41.295348 19.609879 42.145959 22.893917 42 26.183594 C 42.01576 26.460483 42.014686 26.737484 42.015625 27.013672 C 42.028006 26.571833 42.025267 26.129454 42 25.685547 C 42.145959 22.39587 41.295348 19.109879 39.716797 16.226562 C 39.144321 16.817517 38.572475 17.409028 38 18 C 36.042392 15.3355 33.365662 13.254753 30.472656 11.689453 C 28.342112 10.464778 25.885262 9.8970156 23.447266 9.9882812 z M 45.017578 25.539062 C 44.983273 28.802706 44.451606 32.076775 42.927734 35 L 42.919922 35 C 42.940685 35.144644 42.941408 35.294796 42.955078 35.441406 C 44.533265 32.383207 45.033969 28.945946 45.017578 25.539062 z M 2.9902344 25.564453 C 2.9998495 26.811033 3.0657705 28.056706 3.1738281 29.285156 C 3.4535533 31.393226 4.0828189 33.452554 5.0117188 35.365234 C 5.0238682 35.234232 5.0404196 35.104288 5.0605469 34.974609 C 4.1025491 33.031721 3.4588063 30.932815 3.1738281 28.785156 C 3.080219 27.720964 3.0132056 26.643938 2.9902344 25.564453 z M 15.013672 29.564453 C 15.006423 29.609275 15.011103 29.648834 15 29.695312 L 15 30.195312 C 15.05605 29.96069 15.048225 29.755493 15.013672 29.564453 z M 41.177734 31.806641 C 41.034676 32.269673 40.885161 32.730817 40.710938 33.183594 C 40.88517 32.73357 41.046637 32.278756 41.189453 31.818359 C 41.185754 31.814261 41.181443 31.810731 41.177734 31.806641 z M 40.648438 33.339844 C 40.427079 33.902194 40.187677 34.457877 39.921875 35 C 40.187688 34.457863 40.425898 33.9018 40.648438 33.339844 z M 42.984375 36.302734 C 42.824502 40.027046 39.763667 43 36 43 C 36 43.554 35.554 44 35 44 L 34 44 C 33.446 44 33 43.554 33 43 L 33 43.5 C 33 44.054 33.446 44.5 34 44.5 L 35 44.5 C 35.554 44.5 36 44.054 36 43.5 C 39.865993 43.5 43 40.366 43 36.5 C 43 36.432796 42.9868 36.36927 42.984375 36.302734 z M 4.9902344 36.3125 C 4.9814646 36.728048 5.001705 37.147381 5.0800781 37.566406 C 5.523715 40.889509 8.6426993 43.568926 11.996094 43.5 C 11.990821 43.425517 11.988795 43.349995 12 43.267578 L 12 43.5 C 11.998691 43.500028 11.997403 43.499973 11.996094 43.5 C 12.094322 44.887582 14.901682 44.900902 15 43.5 L 15 43 C 14.901682 44.400902 12.094322 44.387582 11.996094 43 C 8.6426996 43.068925 5.523715 40.389509 5.0800781 37.066406 C 5.0331044 36.815259 5.0053219 36.563076 4.9902344 36.3125 z M 11.996094 43 C 11.997403 42.999973 11.998691 43.000028 12 43 L 12 42.767578 C 11.988795 42.849995 11.990821 42.925517 11.996094 43 z "
       transform="translate(0,1004.3622)"
       id="path4228" />
    <path
       id="path4231"
       d="m 23.447266,1014.8508 c -0.812666,0.03 -1.622482,0.134 -2.417969,0.3105 -4.367699,1.2769 -8.272811,4.1002 -11.029297,7.7012 -0.5651211,-0.5834 -1.1301914,-1.1666 -1.6953125,-1.75 -0.00486,-0.019 1.551e-4,-0.038 -0.00391,-0.057 -1.5718812,2.8573 -2.4274407,6.111 -2.3007812,9.375 -0.02673,0.4552 -0.029328,0.91 -0.017578,1.3633 0.00134,-0.2875 6.604e-4,-0.5752 0.017578,-0.8633 -0.1266518,-3.2638 0.7290844,-6.5178 2.3007812,-9.375 0.00406,0.019 -9.539e-4,0.038 0.00391,0.057 0.5651211,0.5834 1.1301914,1.1666 1.6953125,1.75 2.756486,-3.601 6.661598,-6.4243 11.029297,-7.7012 3.181947,-0.7063 6.602633,-0.2442 9.443359,1.3887 2.893006,1.5653 5.569736,3.648 7.527344,6.3125 0.572475,-0.591 1.144321,-1.1825 1.716797,-1.7734 1.578551,2.8833 2.429162,6.1673 2.283203,9.457 0.01576,0.2769 0.01469,0.5539 0.01563,0.8301 0.01238,-0.4419 0.0096,-0.8842 -0.01563,-1.3281 0.145959,-3.2897 -0.704652,-6.5757 -2.283203,-9.459 -0.572476,0.5909 -1.144322,1.1824 -1.716797,1.7734 -1.957608,-2.6645 -4.634338,-4.7452 -7.527344,-6.3105 -2.130544,-1.2247 -4.587394,-1.7925 -7.02539,-1.7012 z m 21.570312,15.5508 c -0.03431,3.2636 -0.565972,6.5377 -2.089844,9.4609 l -0.0078,0 c 0.02076,0.1447 0.02149,0.2948 0.03516,0.4414 1.578187,-3.0582 2.078891,-6.4954 2.0625,-9.9023 z m -42.0273436,0.025 c 0.00962,1.2465 0.075536,2.4922 0.1835937,3.7207 0.2797252,2.108 0.9089908,4.1674 1.8378907,6.08 0.012149,-0.131 0.028701,-0.2609 0.048828,-0.3906 -0.9579978,-1.9429 -1.6017406,-4.0418 -1.8867188,-6.1894 -0.093609,-1.0642 -0.1606225,-2.1412 -0.1835937,-3.2207 z m 12.0234376,4 c -0.0072,0.045 -0.0026,0.084 -0.01367,0.1308 l 0,0.5 c 0.05605,-0.2346 0.04823,-0.4398 0.01367,-0.6308 z m 26.164062,2.2422 c -0.143058,0.463 -0.292573,0.9241 -0.466796,1.3769 0.174232,-0.45 0.335699,-0.9048 0.478515,-1.3652 -0.0037,-0 -0.008,-0.01 -0.01172,-0.012 z m -0.529296,1.5332 c -0.221359,0.5623 -0.460761,1.118 -0.726563,1.6601 0.265813,-0.5421 0.504023,-1.0982 0.726563,-1.6601 z m 2.335937,2.9628 c -0.159873,3.7244 -3.220708,6.6973 -6.984375,6.6973 0,0.554 -0.446,1 -1,1 l -1,0 c -0.554,0 -1,-0.446 -1,-1 l 0,0.5 c 0,0.554 0.446,1 1,1 l 1,0 c 0.554,0 1,-0.446 1,-1 3.865993,0 7,-3.134 7,-7 0,-0.067 -0.0132,-0.1307 -0.01563,-0.1973 z m -37.9941406,0.01 c -0.00877,0.4156 0.011471,0.8349 0.089844,1.2539 0.4436369,3.3231 3.5626212,6.0025 6.9160159,5.9336 -0.0053,-0.074 -0.0073,-0.15 0.0039,-0.2324 l 0,0.2324 c -0.0013,0 -0.0026,0 -0.0039,0 0.09823,1.3876 2.905588,1.4009 3.003906,0 l 0,-0.5 c -0.09832,1.4009 -2.905678,1.3876 -3.003906,0 -3.3533944,0.069 -6.472379,-2.6105 -6.9160159,-5.9336 -0.046974,-0.2511 -0.074756,-0.5033 -0.089844,-0.7539 z m 7.0058596,6.6875 c 0.0013,0 0.0026,0 0.0039,0 l 0,-0.2324 c -0.01121,0.082 -0.0092,0.1579 -0.0039,0.2324 z"
       style="opacity:0.08;fill:#000000;fill-opacity:1;stroke:none"
       inkscape:connector-curvature="0" />
  </g>
</svg>
