<?xml version="1.0" encoding="UTF-8" standalone="no"?>
<!-- Created with Inkscape (http://www.inkscape.org/) -->

<svg
   xmlns:dc="http://purl.org/dc/elements/1.1/"
   xmlns:cc="http://creativecommons.org/ns#"
   xmlns:rdf="http://www.w3.org/1999/02/22-rdf-syntax-ns#"
   xmlns:svg="http://www.w3.org/2000/svg"
   xmlns="http://www.w3.org/2000/svg"
   xmlns:xlink="http://www.w3.org/1999/xlink"
   xmlns:sodipodi="http://sodipodi.sourceforge.net/DTD/sodipodi-0.dtd"
   xmlns:inkscape="http://www.inkscape.org/namespaces/inkscape"
   width="48"
   height="48"
   id="svg2"
   version="1.1"
   inkscape:version="0.91 r13725"
   sodipodi:docname="inkscape.svg"
   inkscape:export-filename="/mnt/Data/Visuals/Icons/Test/48x48/applications/utilities-terminal.png"
   inkscape:export-xdpi="180"
   inkscape:export-ydpi="180">
  <defs
     id="defs4">
    <linearGradient
       id="linearGradient4629">
      <stop
         style="stop-color:#c62828;stop-opacity:1"
         offset="0"
         id="stop4631" />
      <stop
         style="stop-color:#ffc107;stop-opacity:1"
         offset="1"
         id="stop4633" />
    </linearGradient>
    <linearGradient
       id="linearGradient4575">
      <stop
         id="stop4577"
         offset="0"
         style="stop-color:#546e7a;stop-opacity:1" />
      <stop
         id="stop4579"
         offset="1"
         style="stop-color:#90a4ae;stop-opacity:1" />
    </linearGradient>
    <linearGradient
       inkscape:collect="always"
       id="linearGradient4456">
      <stop
         style="stop-color:#ffffff;stop-opacity:1;"
         offset="0"
         id="stop4458" />
      <stop
         style="stop-color:#ffffff;stop-opacity:0;"
         offset="1"
         id="stop4460" />
    </linearGradient>
    <linearGradient
       inkscape:collect="always"
       id="linearGradient4448">
      <stop
         style="stop-color:#000000;stop-opacity:1;"
         offset="0"
         id="stop4450" />
      <stop
         style="stop-color:#000000;stop-opacity:0;"
         offset="1"
         id="stop4452" />
    </linearGradient>
    <linearGradient
       id="linearGradient3830">
      <stop
         style="stop-color:#3b3b3b;stop-opacity:1;"
         offset="0"
         id="stop3832" />
      <stop
         style="stop-color:#1a1a1a;stop-opacity:1;"
         offset="1"
         id="stop3834" />
    </linearGradient>
    <linearGradient
       id="linearGradient3818">
      <stop
         style="stop-color:#dadad8;stop-opacity:1;"
         offset="0"
         id="stop3820" />
      <stop
         style="stop-color:#efefef;stop-opacity:1;"
         offset="1"
         id="stop3822" />
    </linearGradient>
    <linearGradient
       id="linearGradient3956">
      <stop
         style="stop-color:#f8f4e1;stop-opacity:1;"
         offset="0"
         id="stop3958" />
      <stop
         style="stop-color:#eae5c8;stop-opacity:1;"
         offset="1"
         id="stop3960" />
    </linearGradient>
    <linearGradient
       id="linearGradient3915">
      <stop
         style="stop-color:#f8f4e1;stop-opacity:1;"
         offset="0"
         id="stop3917" />
      <stop
         style="stop-color:#ad9e57;stop-opacity:1;"
         offset="1"
         id="stop3919" />
    </linearGradient>
    <linearGradient
       inkscape:collect="always"
       id="linearGradient3861">
      <stop
         style="stop-color:#000000;stop-opacity:1;"
         offset="0"
         id="stop3863" />
      <stop
         style="stop-color:#000000;stop-opacity:0;"
         offset="1"
         id="stop3865" />
    </linearGradient>
    <linearGradient
       id="linearGradient3844">
      <stop
         style="stop-color:#000000;stop-opacity:0.39215687;"
         offset="0"
         id="stop3846" />
      <stop
         style="stop-color:#000000;stop-opacity:0;"
         offset="1"
         id="stop3848" />
    </linearGradient>
    <linearGradient
       id="linearGradient3810">
      <stop
         style="stop-color:#f2c66f;stop-opacity:1;"
         offset="0"
         id="stop3812" />
      <stop
         style="stop-color:#fbd68f;stop-opacity:1;"
         offset="1"
         id="stop3814" />
    </linearGradient>
    <linearGradient
       inkscape:collect="always"
       xlink:href="#linearGradient3810"
       id="linearGradient3816"
       x1="24"
       y1="1046.3622"
       x2="24"
       y2="1014.3622"
       gradientUnits="userSpaceOnUse" />
    <linearGradient
       inkscape:collect="always"
       xlink:href="#linearGradient3810"
       id="linearGradient3856"
       gradientUnits="userSpaceOnUse"
       x1="24"
       y1="1046.3622"
       x2="24"
       y2="1014.3622"
       gradientTransform="translate(0,-3)" />
    <linearGradient
       inkscape:collect="always"
       xlink:href="#linearGradient3810"
       id="linearGradient3858"
       gradientUnits="userSpaceOnUse"
       x1="24"
       y1="1046.3622"
       x2="24"
       y2="1014.3622"
       gradientTransform="translate(0,-1004.3622)" />
    <linearGradient
       inkscape:collect="always"
       xlink:href="#linearGradient3861"
       id="linearGradient3867"
       x1="1.9952808"
       y1="28.5625"
       x2="46.004719"
       y2="28.5625"
       gradientUnits="userSpaceOnUse" />
    <linearGradient
       inkscape:collect="always"
       xlink:href="#linearGradient3915"
       id="linearGradient3921"
       x1="35"
       y1="8"
       x2="38"
       y2="5"
       gradientUnits="userSpaceOnUse" />
    <linearGradient
       inkscape:collect="always"
       xlink:href="#linearGradient3915"
       id="linearGradient3933"
       gradientUnits="userSpaceOnUse"
       x1="35"
       y1="8"
       x2="38"
       y2="5"
       gradientTransform="matrix(1.0436562,0,0,1.2222222,26.301501,1003.2511)" />
    <linearGradient
       x1="20"
       y1="26.000008"
       x2="20"
       y2="13.000008"
       id="linearGradient3018-5"
       xlink:href="#linearGradient3680-6-6-6-3-7"
       gradientUnits="userSpaceOnUse"
       gradientTransform="translate(0,0.9999922)" />
    <linearGradient
       id="linearGradient3680-6-6-6-3-7">
      <stop
         id="stop3682-4-6-1-3-7"
         style="stop-color:#d2eecc;stop-opacity:1;"
         offset="0" />
      <stop
         id="stop3684-8-5-8-0-2"
         style="stop-color:#ecffe7;stop-opacity:1;"
         offset="1" />
    </linearGradient>
    <linearGradient
       inkscape:collect="always"
       xlink:href="#linearGradient4448"
       id="linearGradient4454"
       x1="24"
       y1="24"
       x2="24"
       y2="45"
       gradientUnits="userSpaceOnUse" />
    <linearGradient
       inkscape:collect="always"
       xlink:href="#linearGradient4456"
       id="linearGradient4462"
       x1="25"
       y1="24"
       x2="25"
       y2="3"
       gradientUnits="userSpaceOnUse" />
    <linearGradient
       id="linearGradient3837-1">
      <stop
         style="stop-color:#dc6013;stop-opacity:1;"
         offset="0"
         id="stop3839-6" />
      <stop
         style="stop-color:#ffe600;stop-opacity:1;"
         offset="1"
         id="stop3841-8" />
    </linearGradient>
    <linearGradient
       gradientTransform="matrix(1.4482759,0,0,1.4482731,-10.75862,995.49759)"
       inkscape:collect="always"
       xlink:href="#linearGradient4575"
       id="linearGradient3843-0"
       x1="24"
       y1="37"
       x2="24"
       y2="8"
       gradientUnits="userSpaceOnUse" />
  </defs>
  <sodipodi:namedview
     id="base"
     pagecolor="#ffffff"
     bordercolor="#666666"
     borderopacity="1.0"
     inkscape:pageopacity="0.0"
     inkscape:pageshadow="2"
     inkscape:zoom="34.541667"
     inkscape:cx="18.296105"
     inkscape:cy="33.133897"
     inkscape:document-units="px"
     inkscape:current-layer="layer1"
     showgrid="true"
     inkscape:window-width="1920"
     inkscape:window-height="1020"
     inkscape:window-x="0"
     inkscape:window-y="32"
     inkscape:window-maximized="1"
     inkscape:snap-bbox="true"
     inkscape:bbox-nodes="true"
     inkscape:snap-bbox-edge-midpoints="true"
     inkscape:snap-bbox-midpoints="true"
     inkscape:bbox-paths="true"
     inkscape:object-paths="true"
     inkscape:snap-intersection-paths="true"
     inkscape:snap-smooth-nodes="true"
     inkscape:snap-midpoints="true"
     inkscape:object-nodes="true"
     showguides="false">
    <inkscape:grid
       type="xygrid"
       id="grid2990"
       empspacing="5"
       visible="true"
       enabled="true"
       snapvisiblegridlinesonly="true" />
  </sodipodi:namedview>
  <metadata
     id="metadata7">
    <rdf:RDF>
      <cc:Work
         rdf:about="">
        <dc:format>image/svg+xml</dc:format>
        <dc:type
           rdf:resource="http://purl.org/dc/dcmitype/StillImage" />
        <dc:title />
      </cc:Work>
    </rdf:RDF>
  </metadata>
  <g
     inkscape:groupmode="layer"
     id="layer2"
     inkscape:label="Shadow">
    <path
       style="display:inline;fill:#000000;fill-opacity:1;stroke:none;opacity:0.04"
       d="M 23.783203 5.9453125 C 22.86397 5.9404125 21.940384 6.2693312 21.267578 6.9570312 C 19.928836 8.3256312 17.462969 10.696472 15.316406 13.013672 C 14.676823 13.653206 14.422221 14.419236 14.507812 15.011719 C 14.582205 14.522785 14.846447 13.983595 15.316406 13.513672 C 17.462969 11.196472 19.928836 8.8256312 21.267578 7.4570312 C 21.940384 6.7693313 22.86397 6.4404125 23.783203 6.4453125 C 24.702438 6.4453125 25.613796 6.7889313 26.273438 7.4570312 L 32.355469 13.642578 C 32.617257 13.91009 32.742911 14.292206 32.789062 14.660156 C 32.849575 14.178267 32.74485 13.540472 32.355469 13.142578 L 26.273438 6.9570312 C 25.613796 6.2889312 24.702438 5.9453125 23.783203 5.9453125 z M 3.2011719 25.132812 C 2.8617788 28.321306 9.0616147 28.145093 12.0625 29.630859 C 12.107847 29.677207 12.122306 29.722045 12.150391 29.767578 C 12.275839 29.562226 12.279217 29.352358 12.0625 29.130859 C 9.2279366 27.727441 3.5377589 27.806457 3.2011719 25.132812 z M 44.798828 25.466797 C 44.396211 29.107985 35.334426 30.40993 32.263672 32.203125 C 32.025373 32.446303 32.010367 32.674964 32.128906 32.896484 C 32.163435 32.832647 32.199205 32.768911 32.263672 32.703125 C 35.471034 30.830156 45.214137 29.493504 44.798828 25.466797 z M 16.484375 29.972656 C 15.945653 29.972656 16.155595 30.212405 16.738281 30.544922 C 17.66874 30.881174 23.173351 32.01121 24.613281 32.25 C 24.643744 32.256395 24.660993 32.268222 24.685547 32.277344 C 24.896785 32.034565 24.928119 31.816098 24.613281 31.75 C 23.094896 31.4982 16.895145 30.227856 16.484375 29.972656 z M 8.1738281 32.738281 C 8.0482912 32.943807 8.0469103 33.155213 8.2636719 33.376953 C 9.6058443 34.748853 16.370373 36.024584 17.714844 37.396484 C 17.832851 37.517114 17.897973 37.637931 17.939453 37.759766 C 18.03107 37.46944 17.993163 37.180989 17.714844 36.896484 C 16.370373 35.524584 9.6058443 34.248853 8.2636719 32.876953 C 8.2178212 32.830049 8.2020374 32.78435 8.1738281 32.738281 z M 35.820312 36.208984 C 34.670836 39.589467 31.572762 37.43398 28.244141 40.837891 C 27.923999 41.165123 27.906661 41.406031 28.041016 41.603516 C 28.087161 41.521143 28.150204 41.433907 28.244141 41.337891 C 31.581847 37.924691 34.688141 40.103694 35.830078 36.683594 C 35.885413 36.517813 35.869053 36.361079 35.820312 36.208984 z M 43.460938 36.279297 C 42.799836 37.286839 38.672641 36.978751 37.9375 36.369141 C 37.891025 36.470914 37.846092 36.572124 37.814453 36.683594 C 37.814453 37.463894 43.558594 37.964481 43.558594 36.488281 C 43.532747 36.413492 43.493322 36.348989 43.460938 36.279297 z M 15.833984 38.728516 C 15.064732 40.220946 13.171718 41.414475 11.90625 40.320312 C 11.63067 40.081612 11.473316 39.844344 11.40625 39.615234 C 11.299573 39.987808 11.422844 40.4016 11.90625 40.820312 C 13.267871 41.997613 15.373441 40.531772 16.003906 38.888672 C 15.956578 38.825785 15.890155 38.782265 15.833984 38.728516 z M 36.435547 39.283203 C 36.183849 40.422913 37.66718 41.226762 39.019531 40.431641 C 39.148603 40.300662 39.17806 40.056163 39.103516 39.779297 C 39.081404 39.836247 39.058201 39.8924 39.019531 39.931641 C 37.87663 40.603615 36.640927 40.132261 36.435547 39.283203 z M 16.091797 40.732422 C 15.999047 41.02365 16.035269 41.312289 16.314453 41.597656 C 17.656623 42.969456 20.764434 41.673444 21.345703 44.839844 C 21.759913 47.103144 26.929575 45.810631 29.462891 43.957031 C 29.783179 43.629386 29.800575 43.389078 29.666016 43.191406 C 29.619869 43.273905 29.556907 43.360855 29.462891 43.457031 C 26.929575 45.310631 21.759913 46.603144 21.345703 44.339844 C 20.764434 41.173444 17.656623 42.469456 16.314453 41.097656 C 16.19587 40.976446 16.133141 40.854849 16.091797 40.732422 z "
       id="path4626" />
    <path
       style="display:inline;fill:#000000;fill-opacity:1;stroke:none;opacity:0.08"
       d="M 23.783203 5.4453125 C 22.86397 5.4404125 21.940384 5.7693312 21.267578 6.4570312 C 19.928836 7.8256312 17.462969 10.196472 15.316406 12.513672 C 14.676823 13.153206 14.422221 13.919236 14.507812 14.511719 C 14.582205 14.022785 14.846447 13.483595 15.316406 13.013672 C 17.462969 10.696472 19.928836 8.3256312 21.267578 6.9570312 C 21.940384 6.2693312 22.86397 5.9404125 23.783203 5.9453125 C 24.702438 5.9453125 25.613796 6.2889312 26.273438 6.9570312 L 32.355469 13.142578 C 32.617257 13.41009 32.742911 13.792206 32.789062 14.160156 C 32.849575 13.678267 32.74485 13.040472 32.355469 12.642578 L 26.273438 6.4570312 C 25.613796 5.7889313 24.702438 5.4453125 23.783203 5.4453125 z M 3.2011719 24.632812 C 2.8617788 27.821306 9.0616147 27.645093 12.0625 29.130859 C 12.107847 29.177207 12.122306 29.222045 12.150391 29.267578 C 12.275839 29.062226 12.279217 28.852358 12.0625 28.630859 C 9.2279366 27.227441 3.5377589 27.306457 3.2011719 24.632812 z M 44.798828 24.966797 C 44.396211 28.607985 35.334426 29.90993 32.263672 31.703125 C 32.025373 31.946303 32.010367 32.174964 32.128906 32.396484 C 32.163435 32.332647 32.199205 32.268911 32.263672 32.203125 C 35.471034 30.330156 45.214137 28.993504 44.798828 24.966797 z M 16.484375 29.472656 C 15.945653 29.472656 16.155595 29.712405 16.738281 30.044922 C 17.66874 30.381174 23.173351 31.51121 24.613281 31.75 C 24.643744 31.756395 24.660993 31.768222 24.685547 31.777344 C 24.896785 31.534565 24.928119 31.316098 24.613281 31.25 C 23.094896 30.9982 16.895145 29.727856 16.484375 29.472656 z M 8.1738281 32.238281 C 8.0482912 32.443807 8.0469103 32.655213 8.2636719 32.876953 C 9.6058443 34.248853 16.370373 35.524584 17.714844 36.896484 C 17.832851 37.017114 17.897973 37.137931 17.939453 37.259766 C 18.03107 36.96944 17.993163 36.680989 17.714844 36.396484 C 16.370373 35.024584 9.6058443 33.748853 8.2636719 32.376953 C 8.2178212 32.330049 8.2020374 32.28435 8.1738281 32.238281 z M 35.820312 35.708984 C 34.670836 39.089467 31.572762 36.93398 28.244141 40.337891 C 27.923999 40.665123 27.906661 40.906031 28.041016 41.103516 C 28.087161 41.021143 28.150204 40.933907 28.244141 40.837891 C 31.581847 37.424691 34.688141 39.603694 35.830078 36.183594 C 35.885413 36.017813 35.869053 35.861079 35.820312 35.708984 z M 43.460938 35.779297 C 42.799836 36.786839 38.672641 36.478751 37.9375 35.869141 C 37.891025 35.970914 37.846092 36.072124 37.814453 36.183594 C 37.814453 36.963894 43.558594 37.464481 43.558594 35.988281 C 43.532747 35.913492 43.493322 35.848989 43.460938 35.779297 z M 15.833984 38.228516 C 15.064732 39.720946 13.171718 40.914475 11.90625 39.820312 C 11.63067 39.581612 11.473316 39.344344 11.40625 39.115234 C 11.299573 39.487808 11.422844 39.9016 11.90625 40.320312 C 13.267871 41.497613 15.373441 40.031772 16.003906 38.388672 C 15.956578 38.325785 15.890155 38.282265 15.833984 38.228516 z M 36.435547 38.783203 C 36.183849 39.922913 37.66718 40.726762 39.019531 39.931641 C 39.148603 39.800662 39.17806 39.556163 39.103516 39.279297 C 39.081404 39.336247 39.058201 39.3924 39.019531 39.431641 C 37.87663 40.103615 36.640927 39.632261 36.435547 38.783203 z M 16.091797 40.232422 C 15.999047 40.52365 16.035269 40.812289 16.314453 41.097656 C 17.656623 42.469456 20.764434 41.173444 21.345703 44.339844 C 21.759913 46.603144 26.929575 45.310631 29.462891 43.457031 C 29.783179 43.129386 29.800575 42.889078 29.666016 42.691406 C 29.619869 42.773905 29.556907 42.860855 29.462891 42.957031 C 26.929575 44.810631 21.759913 46.103144 21.345703 43.839844 C 20.764434 40.673444 17.656623 41.969456 16.314453 40.597656 C 16.19587 40.476446 16.133141 40.354849 16.091797 40.232422 z "
       id="path4622" />
    <path
       style="display:inline;fill:#000000;fill-opacity:1;stroke:none;opacity:0.16"
       d="M 23.783203 4.9472656 C 22.86397 4.9423656 21.940384 5.2693312 21.267578 5.9570312 C 19.928836 7.3256313 17.462969 9.6964719 15.316406 12.013672 C 14.676823 12.653206 14.422221 13.419236 14.507812 14.011719 C 14.582205 13.522785 14.846447 12.983595 15.316406 12.513672 C 17.462969 10.196472 19.928836 7.8256312 21.267578 6.4570312 C 21.940384 5.7693312 22.86397 5.4404125 23.783203 5.4453125 C 24.702438 5.4453125 25.613796 5.7889313 26.273438 6.4570312 L 32.355469 12.642578 C 32.617257 12.91009 32.742911 13.292206 32.789062 13.660156 C 32.849575 13.178267 32.74485 12.540472 32.355469 12.142578 L 26.273438 5.9570312 C 25.613796 5.2889313 24.702438 4.9472656 23.783203 4.9472656 z M 3.2011719 24.132812 C 2.8617788 27.321306 9.0616147 27.145093 12.0625 28.630859 C 12.107847 28.677207 12.122306 28.722045 12.150391 28.767578 C 12.275839 28.562226 12.279217 28.352358 12.0625 28.130859 C 9.2279366 26.727441 3.5377589 26.806457 3.2011719 24.132812 z M 44.798828 24.466797 C 44.396211 28.107985 35.334426 29.40993 32.263672 31.203125 C 32.025373 31.446303 32.010367 31.674964 32.128906 31.896484 C 32.163435 31.832647 32.199205 31.768911 32.263672 31.703125 C 35.471034 29.830156 45.214137 28.493504 44.798828 24.466797 z M 16.484375 28.972656 C 15.947649 28.972656 16.152919 29.212418 16.730469 29.542969 C 17.646739 29.877054 23.170959 31.010814 24.613281 31.25 C 24.643744 31.256395 24.660993 31.268222 24.685547 31.277344 C 24.896785 31.034565 24.928119 30.816098 24.613281 30.75 C 23.094896 30.4982 16.895145 29.227856 16.484375 28.972656 z M 8.1738281 31.740234 C 8.0492518 31.945299 8.0474291 32.155743 8.2636719 32.376953 C 9.6058443 33.748853 16.370373 35.024584 17.714844 36.396484 C 17.832851 36.517114 17.897973 36.637931 17.939453 36.759766 C 18.03107 36.46944 17.993163 36.180989 17.714844 35.896484 C 16.370373 34.524584 9.6058443 33.248853 8.2636719 31.876953 C 8.2180281 31.830261 8.2019865 31.786099 8.1738281 31.740234 z M 35.820312 35.208984 C 34.670836 38.589467 31.572762 36.435933 28.244141 39.839844 C 27.924649 40.166412 27.907567 40.406251 28.041016 40.603516 C 28.087161 40.521143 28.150204 40.433907 28.244141 40.337891 C 31.581847 36.924691 34.688141 39.103694 35.830078 35.683594 C 35.885413 35.517813 35.869053 35.361079 35.820312 35.208984 z M 43.460938 35.28125 C 42.79931 36.288659 38.67184 35.978856 37.9375 35.369141 C 37.891025 35.470914 37.846092 35.572124 37.814453 35.683594 C 37.814453 36.463894 43.558594 36.964481 43.558594 35.488281 C 43.532945 35.414066 43.493026 35.350446 43.460938 35.28125 z M 15.833984 37.730469 C 15.064503 39.22258 13.171526 40.414309 11.90625 39.320312 C 11.63067 39.081612 11.473316 38.844344 11.40625 38.615234 C 11.299573 38.987808 11.422844 39.4016 11.90625 39.820312 C 13.267871 40.997613 15.373441 39.531772 16.003906 37.888672 C 15.956848 37.826145 15.889787 37.783961 15.833984 37.730469 z M 36.435547 38.283203 C 36.183849 39.422913 37.66718 40.226762 39.019531 39.431641 C 39.148603 39.300662 39.17806 39.056163 39.103516 38.779297 C 39.081404 38.836247 39.058201 38.8924 39.019531 38.931641 C 37.876155 39.603895 36.64015 39.132931 36.435547 38.283203 z M 16.091797 39.732422 C 15.999047 40.02365 16.035269 40.312289 16.314453 40.597656 C 17.656623 41.969456 20.764434 40.673444 21.345703 43.839844 C 21.759913 46.103144 26.929575 44.810631 29.462891 42.957031 C 29.783179 42.629386 29.800575 42.389078 29.666016 42.191406 C 29.619869 42.273905 29.556907 42.362808 29.462891 42.458984 C 26.929575 44.312584 21.759913 45.603144 21.345703 43.339844 C 20.764434 40.173444 17.656623 41.469456 16.314453 40.097656 C 16.19587 39.976446 16.133141 39.854849 16.091797 39.732422 z "
       id="path4617" />
  </g>
  <g
     inkscape:label="Body"
     inkscape:groupmode="layer"
     id="layer1"
     transform="translate(0,-1004.3622)">
    <path
       style="fill:#eceff1;fill-opacity:1;fill-rule:evenodd;stroke:none;stroke-width:1px;stroke-linecap:butt;stroke-linejoin:miter;stroke-opacity:1"
       d="m 13,1018.3622 9.990658,-10.1702 5.009342,2.1702 6.084516,6.9066 0,4.0341 L 17,1023.3622 l -3,-1 z"
       id="path4573"
       inkscape:connector-curvature="0"
       sodipodi:nodetypes="cccccccc" />
    <path
       d="m 23.637325,1007.6407 c -1.298617,0 -2.586091,0.4587 -3.518009,1.4125 L 4.6217826,1024.917 c -5.23832146,6.487 3.5630064,5.7429 7.3368044,7.6113 1.353733,1.3836 -5.1855935,2.3947 -3.8318726,3.7795 1.3537228,1.3837 8.1778886,2.6706 9.5339296,4.0543 1.35372,1.3838 -2.766159,2.8537 -1.412435,4.2374 1.353721,1.3836 4.488021,0.076 5.074292,3.2693 0.417775,2.2828 5.631776,0.9804 8.186894,-0.8892 1.35372,-1.3848 -2.583071,-1.258 -1.229349,-2.6417 3.36643,-3.4426 6.498922,-1.2455 7.650686,-4.6951 0.568952,-1.7046 -4.952511,-2.6313 -3.596469,-4.0151 3.894976,-2.2745 17.360287,-3.7606 10.972516,-10.1484 l -16.072974,-16.4261 c -0.982694,-0.9435 -2.297863,-1.4098 -3.59648,-1.4125 z m 0.143857,1.5041 c 0.927146,0 1.845676,0.3462 2.510994,1.02 l 6.133627,6.2383 c 0.581655,0.5943 0.573936,1.7483 0.248487,2.0796 l -3.047202,-2.4459 -0.601586,3.6096 -2.537159,-1.3469 -4.080358,2.5763 -1.347044,-5.4274 -2.060941,3.9138 -3.471088,0 c -1.364116,0 -1.527193,-1.8505 -0.287723,-3.0899 2.165036,-2.3371 4.652586,-4.7271 6.002849,-6.1075 0.678596,-0.6936 1.610001,-1.0249 2.537144,-1.02 z m -7.362961,24.2337 c 0.414305,0.2574 6.668512,1.5376 8.199964,1.7916 0.530864,0.1114 0.156239,0.6506 -0.575445,1.02 -1.650318,0.4385 -9.644145,-2.8116 -7.624519,-2.8116 z m 24.364479,4.368 c -1.260823,0.043 -2.508261,0.6886 -2.851021,1.8963 0,0.7871 5.793597,1.2927 5.793597,-0.1962 -0.413158,-1.1956 -1.681751,-1.7437 -2.942576,-1.7001 z m -26.836238,3.4134 c -1.757382,0.093 -3.644375,1.3561 -2.144809,2.6549 1.373339,1.1875 3.496786,-0.2914 4.132676,-1.9487 -0.415823,-0.5525 -1.18906,-0.7486 -1.987867,-0.7062 z m 23.252841,0.092 c -1.770336,1.588 0.20369,3.197 1.948642,2.171 0.388921,-0.3947 -0.01561,-1.7764 -1.948642,-2.171 z"
       id="path5"
       inkscape:connector-curvature="0"
       style="display:inline;fill:url(#linearGradient3843-0);fill-opacity:1;stroke:none"
       sodipodi:nodetypes="cccccccccccccccccccccccccscccccccccccccccccc" />
  </g>
  <g
     inkscape:groupmode="layer"
     id="layer3"
     inkscape:label="Fold"
     style="display:none;opacity:0.05"
     sodipodi:insensitive="true">
    <path
       style="opacity:1;fill:url(#linearGradient4462);fill-opacity:1;stroke:none"
       d="m 5,3 38,0 c 1.108,0 2,0.892 2,2 L 45,24 3,24 3,5 C 3,3.892 3.892,3 5,3 Z"
       id="rect4343-5"
       inkscape:connector-curvature="0"
       sodipodi:nodetypes="ssccccs" />
    <path
       sodipodi:nodetypes="ssccccs"
       inkscape:connector-curvature="0"
       id="path4438"
       d="m 5,45 38,0 c 1.108,0 2,-0.892 2,-2 L 45,24 3,24 3,43 c 0,1.108 0.892,2 2,2 z"
       style="opacity:1;fill:url(#linearGradient4454);fill-opacity:1;stroke:none" />
  </g>
</svg>
