<?xml version="1.0" encoding="UTF-8" standalone="no"?>
<!-- Created with Inkscape (http://www.inkscape.org/) -->

<svg
   xmlns:dc="http://purl.org/dc/elements/1.1/"
   xmlns:cc="http://creativecommons.org/ns#"
   xmlns:rdf="http://www.w3.org/1999/02/22-rdf-syntax-ns#"
   xmlns:svg="http://www.w3.org/2000/svg"
   xmlns="http://www.w3.org/2000/svg"
   xmlns:xlink="http://www.w3.org/1999/xlink"
   xmlns:sodipodi="http://sodipodi.sourceforge.net/DTD/sodipodi-0.dtd"
   xmlns:inkscape="http://www.inkscape.org/namespaces/inkscape"
   width="48"
   height="48"
   id="svg2"
   version="1.1"
   inkscape:version="0.91 r13725"
   sodipodi:docname="folder-publicshare.svg">
  <defs
     id="defs4">
    <linearGradient
       id="linearGradient3855">
      <stop
         style="stop-color:#000000;stop-opacity:1;"
         offset="0"
         id="stop3857" />
      <stop
         style="stop-color:#000000;stop-opacity:0.29411766;"
         offset="1"
         id="stop3859" />
    </linearGradient>
    <linearGradient
       id="linearGradient3833">
      <stop
         id="stop3835"
         offset="0"
         style="stop-color:#fdfeff;stop-opacity:1;" />
      <stop
         id="stop3837"
         offset="1"
         style="stop-color:#dfe4e4;stop-opacity:1;" />
    </linearGradient>
    <linearGradient
       id="linearGradient3823">
      <stop
         style="stop-color:#49b7ef;stop-opacity:1;"
         offset="0"
         id="stop3825" />
      <stop
         style="stop-color:#1d8de2;stop-opacity:1;"
         offset="1"
         id="stop3827" />
    </linearGradient>
    <linearGradient
       id="linearGradient3956">
      <stop
         style="stop-color:#f8f4e1;stop-opacity:1;"
         offset="0"
         id="stop3958" />
      <stop
         style="stop-color:#eae5c8;stop-opacity:1;"
         offset="1"
         id="stop3960" />
    </linearGradient>
    <linearGradient
       id="linearGradient3915">
      <stop
         style="stop-color:#f8f4e1;stop-opacity:1;"
         offset="0"
         id="stop3917" />
      <stop
         style="stop-color:#ad9e57;stop-opacity:1;"
         offset="1"
         id="stop3919" />
    </linearGradient>
    <linearGradient
       inkscape:collect="always"
       id="linearGradient3861">
      <stop
         style="stop-color:#000000;stop-opacity:1;"
         offset="0"
         id="stop3863" />
      <stop
         style="stop-color:#000000;stop-opacity:0;"
         offset="1"
         id="stop3865" />
    </linearGradient>
    <linearGradient
       id="linearGradient3844">
      <stop
         style="stop-color:#000000;stop-opacity:0.39215687;"
         offset="0"
         id="stop3846" />
      <stop
         style="stop-color:#000000;stop-opacity:0;"
         offset="1"
         id="stop3848" />
    </linearGradient>
    <linearGradient
       id="linearGradient3810">
      <stop
         style="stop-color:#f2c66f;stop-opacity:1;"
         offset="0"
         id="stop3812" />
      <stop
         style="stop-color:#fbd68f;stop-opacity:1;"
         offset="1"
         id="stop3814" />
    </linearGradient>
    <linearGradient
       inkscape:collect="always"
       xlink:href="#linearGradient3810"
       id="linearGradient3816"
       x1="24"
       y1="1046.3622"
       x2="24"
       y2="1014.3622"
       gradientUnits="userSpaceOnUse" />
    <linearGradient
       inkscape:collect="always"
       xlink:href="#linearGradient3810"
       id="linearGradient3856"
       gradientUnits="userSpaceOnUse"
       x1="24"
       y1="1046.3622"
       x2="24"
       y2="1014.3622"
       gradientTransform="translate(0,-3)" />
    <linearGradient
       inkscape:collect="always"
       xlink:href="#linearGradient3810"
       id="linearGradient3858"
       gradientUnits="userSpaceOnUse"
       x1="24"
       y1="1046.3622"
       x2="24"
       y2="1014.3622"
       gradientTransform="translate(0,-1004.3622)" />
    <linearGradient
       inkscape:collect="always"
       xlink:href="#linearGradient3861"
       id="linearGradient3867"
       x1="1.9952808"
       y1="28.5625"
       x2="46.004719"
       y2="28.5625"
       gradientUnits="userSpaceOnUse" />
    <linearGradient
       inkscape:collect="always"
       xlink:href="#linearGradient3915"
       id="linearGradient3921"
       x1="35"
       y1="8"
       x2="38"
       y2="5"
       gradientUnits="userSpaceOnUse" />
    <linearGradient
       inkscape:collect="always"
       xlink:href="#linearGradient3915"
       id="linearGradient3933"
       gradientUnits="userSpaceOnUse"
       x1="35"
       y1="8"
       x2="38"
       y2="5"
       gradientTransform="matrix(1.0436562,0,0,1.2222222,26.301501,1003.2511)" />
    <linearGradient
       inkscape:collect="always"
       xlink:href="#linearGradient3915"
       id="linearGradient3954"
       x1="35"
       y1="11"
       x2="44"
       y2="5"
       gradientUnits="userSpaceOnUse"
       gradientTransform="translate(22,1004.3622)" />
    <linearGradient
       inkscape:collect="always"
       xlink:href="#linearGradient3823"
       id="linearGradient3829"
       x1="21"
       y1="14"
       x2="20"
       y2="24"
       gradientUnits="userSpaceOnUse" />
    <linearGradient
       inkscape:collect="always"
       xlink:href="#linearGradient3833"
       id="linearGradient3839"
       gradientUnits="userSpaceOnUse"
       x1="21"
       y1="14"
       x2="20"
       y2="26" />
    <linearGradient
       inkscape:collect="always"
       xlink:href="#linearGradient3855"
       id="linearGradient3862"
       x1="22"
       y1="15"
       x2="20"
       y2="30"
       gradientUnits="userSpaceOnUse" />
    <linearGradient
       gradientTransform="translate(0,-1004.3622)"
       inkscape:collect="always"
       xlink:href="#linearGradient4233"
       id="linearGradient4239"
       x1="24"
       y1="1032.3622"
       x2="24"
       y2="1049.3622"
       gradientUnits="userSpaceOnUse" />
    <linearGradient
       inkscape:collect="always"
       id="linearGradient4233">
      <stop
         style="stop-color:#ffffff;stop-opacity:1;"
         offset="0"
         id="stop4235" />
      <stop
         style="stop-color:#ffffff;stop-opacity:0;"
         offset="1"
         id="stop4237" />
    </linearGradient>
    <linearGradient
       inkscape:collect="always"
       xlink:href="#linearGradient3855"
       id="linearGradient4247"
       x1="24"
       y1="28"
       x2="24"
       y2="11"
       gradientUnits="userSpaceOnUse" />
  </defs>
  <sodipodi:namedview
     id="base"
     pagecolor="#ffffff"
     bordercolor="#666666"
     borderopacity="1.0"
     inkscape:pageopacity="0.0"
     inkscape:pageshadow="2"
     inkscape:zoom="17.270833"
     inkscape:cx="24"
     inkscape:cy="24"
     inkscape:document-units="px"
     inkscape:current-layer="layer1"
     showgrid="true"
     inkscape:window-width="1920"
     inkscape:window-height="1020"
     inkscape:window-x="0"
     inkscape:window-y="32"
     inkscape:window-maximized="1"
     inkscape:snap-bbox="true"
     inkscape:bbox-paths="true"
     inkscape:bbox-nodes="true"
     inkscape:snap-bbox-edge-midpoints="true"
     inkscape:snap-bbox-midpoints="true"
     inkscape:snap-nodes="true"
     inkscape:object-paths="true"
     inkscape:snap-intersection-paths="true"
     inkscape:object-nodes="true"
     inkscape:snap-smooth-nodes="true"
     inkscape:snap-midpoints="true"
     showguides="true"
     inkscape:guide-bbox="true">
    <inkscape:grid
       type="xygrid"
       id="grid2990"
       empspacing="5"
       visible="true"
       enabled="true"
       snapvisiblegridlinesonly="true" />
  </sodipodi:namedview>
  <metadata
     id="metadata7">
    <rdf:RDF>
      <cc:Work
         rdf:about="">
        <dc:format>image/svg+xml</dc:format>
        <dc:type
           rdf:resource="http://purl.org/dc/dcmitype/StillImage" />
        <dc:title></dc:title>
      </cc:Work>
    </rdf:RDF>
  </metadata>
  <g
     inkscape:groupmode="layer"
     id="layer3"
     inkscape:label="Shadow">
    <path
       style="opacity:0.03999999;fill:#000000;fill-opacity:1;stroke:none"
       d="m 2,44 0,1 c 0,1.108 0.892,2 2,2 l 40,0 c 1.108,0 2,-0.892 2,-2 l 0,-1 c 0,1.108 -0.892,2 -2,2 L 4,46 C 2.892,46 2,45.108 2,44 Z"
       id="rect4213"
       inkscape:connector-curvature="0" />
    <path
       style="opacity:0.07999998;fill:#000000;fill-opacity:1;stroke:none"
       d="M 2,43.5 2,44 c 0,1.108 0.892,2 2,2 l 40,0 c 1.108,0 2,-0.892 2,-2 l 0,-0.5 c 0,1.108 -0.892,2 -2,2 l -40,0 c -1.108,0 -2,-0.892 -2,-2 z"
       id="rect4209"
       inkscape:connector-curvature="0" />
    <path
       style="opacity:0.16000001;fill:#000000;fill-opacity:1;stroke:none"
       d="m 2,43 0,0.5 c 0,1.108 0.892,2 2,2 l 40,0 c 1.108,0 2,-0.892 2,-2 L 46,43 c 0,1.108 -0.892,2 -2,2 L 4,45 C 2.892,45 2,44.108 2,43 Z"
       id="rect4203"
       inkscape:connector-curvature="0" />
  </g>
  <g
     inkscape:label="Body"
     inkscape:groupmode="layer"
     id="layer1"
     transform="translate(0,-1004.3622)">
    <rect
       ry="1"
       rx="1"
       y="1008.3622"
       x="7"
       height="34.000019"
       width="34"
       id="rect4185"
       style="opacity:1;fill:#3b5bc1;fill-opacity:1;stroke:none" />
    <path
       style="fill:#56ecd7;fill-opacity:1;stroke:none"
       d="m 6.5,1010.3622 5.5,0 3,2 28,0 0,4.25 -38,-0.25 0,-1.5 0,-3 c 0,-0.831 0.6703534,-1.4526 1.5,-1.5 z"
       id="rect3813"
       inkscape:connector-curvature="0"
       sodipodi:nodetypes="sccccccss" />
    <rect
       style="opacity:1;fill:#5b7eee;fill-opacity:1;stroke:none"
       id="rect3041"
       width="44"
       height="34"
       x="2"
       y="1015.3622"
       rx="2"
       ry="2" />
    <path
       inkscape:connector-curvature="0"
       d="m 19,1026.3622 c -0.28125,0.047 -1,0.25 -1,1 l 0,12 c 0,0 0,1 1,1 l 14,0 c 0,0 1,0 1,-1 l 0,-10 c 0,-1 -1,-1 -1,-1 l -6,0 -2,-2 z m 9.5,5 c 0.82843,0 1.5,0.6716 1.5,1.5 0,0.8284 -0.67157,1.5 -1.5,1.5 -0.82843,0 -1.5,-0.6716 -1.5,-1.5 0,-0.8284 0.67157,-1.5 1.5,-1.5 z m 0,4 c 2.5,0 2.5,1.5 2.5,1.5 l 0,0.5 -5,0 0,-0.5 c 0,0 0,-1.5 2.5,-1.5 z"
       id="path4336"
       sodipodi:nodetypes="cscscssccccssssssccccs"
       style="color:#000000;font-style:normal;font-variant:normal;font-weight:normal;font-stretch:normal;font-size:medium;line-height:normal;font-family:Sans;-inkscape-font-specification:Sans;text-indent:0;text-align:start;text-decoration:none;text-decoration-line:none;letter-spacing:normal;word-spacing:normal;text-transform:none;direction:ltr;block-progression:tb;writing-mode:lr-tb;baseline-shift:baseline;text-anchor:start;display:inline;overflow:visible;visibility:visible;fill:#000000;fill-opacity:1;stroke:none;stroke-width:2;marker:none;enable-background:accumulate;opacity:0.05" />
    <path
       style="color:#000000;font-style:normal;font-variant:normal;font-weight:normal;font-stretch:normal;font-size:medium;line-height:normal;font-family:Sans;-inkscape-font-specification:Sans;text-indent:0;text-align:start;text-decoration:none;text-decoration-line:none;letter-spacing:normal;word-spacing:normal;text-transform:none;direction:ltr;block-progression:tb;writing-mode:lr-tb;baseline-shift:baseline;text-anchor:start;display:inline;overflow:visible;visibility:visible;fill:#ecf4f5;fill-opacity:1;stroke:none;stroke-width:2;marker:none;enable-background:accumulate"
       sodipodi:nodetypes="cscscssccccssssssccccs"
       id="path6174"
       d="m 18,1025.3622 c -0.28125,0.047 -1,0.25 -1,1 l 0,12 c 0,0 0,1 1,1 l 14,0 c 0,0 1,0 1,-1 l 0,-10 c 0,-1 -1,-1 -1,-1 l -6,0 -2,-2 z m 9.5,5 c 0.82843,0 1.5,0.6716 1.5,1.5 0,0.8284 -0.67157,1.5 -1.5,1.5 -0.82843,0 -1.5,-0.6716 -1.5,-1.5 0,-0.8284 0.67157,-1.5 1.5,-1.5 z m 0,4 c 2.5,0 2.5,1.5 2.5,1.5 l 0,0.5 -5,0 0,-0.5 c 0,0 0,-1.5 2.5,-1.5 z"
       inkscape:connector-curvature="0" />
  </g>
  <g
     inkscape:groupmode="layer"
     id="layer2"
     inkscape:label="Fold"
     sodipodi:insensitive="true">
    <path
       inkscape:connector-curvature="0"
       style="opacity:0.05;fill:url(#linearGradient4247);fill-opacity:1;fill-rule:evenodd;stroke:none;stroke-width:1px;stroke-linecap:butt;stroke-linejoin:miter;stroke-opacity:1"
       d="m 4,11 c -1.108,0 -2,0.892 -2,2 l 0,15 44,0 0,-15 c 0,-1.108 -0.892,-2 -2,-2 L 4,11 Z"
       id="path4226" />
    <path
       id="path4231"
       d="M 4,45 C 2.892,45 2,44.108 2,43 l 0,-15 44,0 0,15 c 0,1.108 -0.892,2 -2,2 L 4,45 Z"
       style="opacity:0.05;fill:url(#linearGradient4239);fill-opacity:1;fill-rule:evenodd;stroke:none;stroke-width:1px;stroke-linecap:butt;stroke-linejoin:miter;stroke-opacity:1"
       inkscape:connector-curvature="0" />
  </g>
</svg>
